<svg preserveAspectRatio="xMidYMid meet" width="100%" height="100%" overflow="visible" style="display: block;" viewBox="0 0 24.9709 24.9709" fill="none" xmlns="http://www.w3.org/2000/svg">
<path id="close" d="M12.4855 15.3152L3.41963 24.381C3.02638 24.7743 2.55475 24.9709 2.00475 24.9709C1.45475 24.9709 0.983126 24.7743 0.589876 24.381C0.196626 23.9878 0 23.5162 0 22.9662C0 22.4162 0.196626 21.9445 0.589876 21.5513L9.65571 12.4855L0.589876 3.41962C0.196626 3.02637 0 2.55475 0 2.00475C0 1.45475 0.196626 0.983125 0.589876 0.589875C0.983126 0.196625 1.45475 0 2.00475 0C2.55475 0 3.02638 0.196625 3.41963 0.589875L12.4855 9.65571L21.5513 0.589875C21.9445 0.196625 22.4162 0 22.9662 0C23.5162 0 23.9878 0.196625 24.381 0.589875C24.7743 0.983125 24.9709 1.45475 24.9709 2.00475C24.9709 2.55475 24.7743 3.02637 24.381 3.41962L15.3152 12.4855L24.381 21.5513C24.7743 21.9445 24.9709 22.4162 24.9709 22.9662C24.9709 23.5162 24.7743 23.9878 24.381 24.381C23.9878 24.7743 23.5162 24.9709 22.9662 24.9709C22.4162 24.9709 21.9445 24.7743 21.5513 24.381L12.4855 15.3152Z" fill="var(--fill-0, #E8E7E7)"/>
</svg>
