<svg preserveAspectRatio="xMidYMid meet" width="20" height="20" overflow="visible" style="display: block;" viewBox="0 0 75.2315 75.2315" fill="none" xmlns="http://www.w3.org/2000/svg">
<g id="Frame 82">
<path id="top left fill" d="M18.3661 20.8596C18.3411 19.4273 19.4788 18.2452 20.9111 18.2266C24.704 18.1775 31.4916 18.1143 33.1061 18.2644C34.2528 18.3711 35.1313 18.8713 35.7202 19.3406C36.3587 19.8494 36.5971 20.6694 36.5971 21.4858V31.9585V32.4732C36.5971 34.6826 34.8059 36.4735 32.5965 36.4732L32.0825 36.4731L20.1641 36.4714C20.1597 36.4714 20.1553 36.4721 20.1509 36.472C20.1378 36.4716 20.1337 36.4616 20.1236 36.449C20.1234 36.4487 20.1231 36.4485 20.1227 36.4485C20.1223 36.4485 20.122 36.4484 20.1218 36.4481C20.1201 36.4458 20.1127 36.4358 20.1009 36.4203C19.9907 36.28 19.8867 36.122 19.789 35.9474C19.3113 35.1356 18.4884 33.3487 18.4879 30.6693C18.4878 30.514 18.4871 30.3504 18.4866 30.1796C18.2088 26.9379 18.2842 23.2754 18.3661 20.8596Z" fill="#E9C46A"/>
<path id="top left fill_2" d="M56.8334 20.8596C56.8584 19.4273 55.7207 18.2452 54.2884 18.2266C50.4955 18.1775 43.7079 18.1143 42.0934 18.2644C40.9467 18.3711 40.0682 18.8713 39.4793 19.3406C38.8408 19.8494 38.6024 20.6694 38.6024 21.4858V31.3592V32.4732C38.6024 34.6826 40.3936 36.4735 42.603 36.4732L43.7162 36.4731L55.0354 36.4714C55.0398 36.4714 55.0442 36.4721 55.0486 36.472C55.0616 36.4716 55.0658 36.4616 55.0759 36.449C55.0761 36.4487 55.0764 36.4485 55.0768 36.4485C55.0772 36.4485 55.0775 36.4484 55.0777 36.4481C55.0794 36.4458 55.0868 36.4358 55.0986 36.4203C55.2088 36.28 55.3128 36.122 55.4105 35.9474C55.8882 35.1356 56.7111 33.3487 56.7116 30.6693C56.7117 30.514 56.7124 30.3504 56.7129 30.1796C56.9907 26.9379 56.9153 23.2754 56.8334 20.8596Z" fill="#EFB366"/>
<path id="top left fill_3" d="M18.3661 54.1558C18.3411 55.588 19.4788 56.7702 20.9111 56.7887C24.704 56.8378 31.4916 56.901 33.1061 56.7509C34.2528 56.6443 35.1313 56.1441 35.7202 55.6748C36.3587 55.1659 36.5971 54.346 36.5971 53.5295V42.4472C36.5971 40.2903 34.8483 38.5418 32.6914 38.5421L32.0441 38.5422L20.1641 38.5439C20.1597 38.5439 20.1553 38.5433 20.1509 38.5434C20.1378 38.5437 20.1337 38.5537 20.1236 38.5663C20.1234 38.5666 20.1231 38.5668 20.1227 38.5668C20.1223 38.5668 20.122 38.567 20.1218 38.5673C20.1201 38.5695 20.1127 38.5795 20.1009 38.5951C19.9907 38.7353 19.8867 38.8933 19.789 39.0679C19.3113 39.8797 18.4884 41.6666 18.4879 44.346C18.4872 47.62 18.2548 50.8731 18.3661 54.1558Z" fill="#F4A261"/>
<path id="top left fill_4" d="M56.8334 54.1558C56.8584 55.588 55.7207 56.7702 54.2884 56.7887C50.4955 56.8378 43.7079 56.901 42.0934 56.7509C40.9467 56.6443 40.0682 56.1441 39.4793 55.6748C38.8408 55.1659 38.6024 54.346 38.6024 53.5295V42.6894V42.5421C38.6024 40.3328 40.3936 38.5418 42.603 38.5421L42.9203 38.5422L55.0354 38.5439C55.0398 38.5439 55.0442 38.5433 55.0486 38.5434C55.0616 38.5437 55.0658 38.5537 55.0759 38.5663C55.0761 38.5666 55.0764 38.5668 55.0768 38.5668C55.0772 38.5668 55.0775 38.567 55.0777 38.5673C55.0794 38.5695 55.0868 38.5795 55.0986 38.5951C55.2088 38.7353 55.3128 38.8933 55.4105 39.0679C55.8882 39.8797 56.7111 41.6666 56.7116 44.346C56.7117 44.5013 56.7124 44.6649 56.7129 44.8357C56.9907 48.0775 56.9153 51.7399 56.8334 54.1558Z" fill="#E8E7E7"/>
</g>
</svg>
