<svg preserveAspectRatio="xMidYMid meet" width="139" height="15.643" overflow="visible" style="display: block;" viewBox="0 0 136.808 15.3965" fill="none" xmlns="http://www.w3.org/2000/svg">
<path id="Union" d="M7.41895 0C8.40552 1.61409e-05 9.25135 0.128509 9.95605 0.384766C10.6735 0.641031 11.3909 1.06398 12.1084 1.65332C12.2109 1.73018 12.2876 1.81365 12.3389 1.90332C12.4029 1.9802 12.4413 2.06362 12.4541 2.15332C12.4797 2.23019 12.4932 2.32613 12.4932 2.44141C12.4932 2.68486 12.403 2.89007 12.2236 3.05664C12.0571 3.21027 11.8517 3.29958 11.6084 3.3252C11.3651 3.33789 11.128 3.25449 10.8975 3.0752C10.4235 2.66536 9.93031 2.35156 9.41797 2.13379C8.91827 1.91597 8.25175 1.80666 7.41895 1.80664C6.66294 1.80664 5.95147 1.96103 5.28516 2.26855C4.61891 2.57608 4.02911 2.99898 3.5166 3.53711C3.01699 4.07522 2.62658 4.70346 2.34473 5.4209C2.0629 6.12555 1.92189 6.88134 1.92188 7.68848C1.92188 8.50855 2.06283 9.27755 2.34473 9.99512C2.62658 10.6997 3.017 11.3213 3.5166 11.8594C4.02912 12.3975 4.6189 12.8204 5.28516 13.1279C5.95147 13.4226 6.66294 13.5703 7.41895 13.5703C8.07231 13.5703 8.68716 13.4609 9.26367 13.2432C9.853 13.0126 10.417 12.6989 10.9551 12.3018C11.1857 12.1352 11.4101 12.0643 11.6279 12.0898C11.8586 12.1027 12.0513 12.1928 12.2051 12.3594C12.3586 12.5131 12.4355 12.731 12.4355 13.0127C12.4355 13.1408 12.4096 13.2693 12.3584 13.3975C12.3072 13.5126 12.2303 13.6213 12.1279 13.7236C11.436 14.2746 10.6929 14.6917 9.89844 14.9736C9.11686 15.2555 8.29021 15.3965 7.41895 15.3965C6.38104 15.3965 5.40684 15.2037 4.49707 14.8193C3.60018 14.4221 2.81189 13.8774 2.13281 13.1855C1.4666 12.4808 0.941013 11.6609 0.556641 10.7256C0.185045 9.79019 0 8.77764 0 7.68848C1.24571e-05 6.61231 0.18515 5.61289 0.556641 4.69043C0.941037 3.75507 1.46653 2.94095 2.13281 2.24902C2.81186 1.54435 3.60024 0.993893 4.49707 0.59668C5.39403 0.199457 6.36823 0 7.41895 0ZM115.82 0C116.948 0 117.973 0.192788 118.896 0.577148C119.831 0.948689 120.638 1.48009 121.317 2.17188C121.996 2.85092 122.522 3.65849 122.894 4.59375C123.265 5.52912 123.451 6.56092 123.451 7.68848C123.451 8.81608 123.265 9.85452 122.894 10.8027C122.522 11.738 121.996 12.5513 121.317 13.2432C120.638 13.9223 119.831 14.4545 118.896 14.8389C117.973 15.2104 116.948 15.3965 115.82 15.3965C114.693 15.3965 113.661 15.2104 112.726 14.8389C111.79 14.4545 110.984 13.9221 110.305 13.2432C109.638 12.5513 109.119 11.738 108.747 10.8027C108.375 9.85452 108.19 8.81608 108.19 7.68848C108.19 6.56092 108.375 5.52912 108.747 4.59375C109.119 3.65843 109.638 2.85095 110.305 2.17188C110.984 1.48026 111.791 0.948656 112.726 0.577148C113.661 0.192761 114.693 2.14815e-05 115.82 0ZM27.5488 0.192383C27.8435 0.192383 28.0814 0.288296 28.2607 0.480469C28.4401 0.65986 28.5293 0.897669 28.5293 1.19238V14.2041C28.5293 14.4858 28.4399 14.7229 28.2607 14.915C28.0814 15.1072 27.8435 15.2041 27.5488 15.2041C27.2671 15.204 27.03 15.1072 26.8379 14.915C26.6459 14.7229 26.5498 14.4859 26.5498 14.2041V8.47656H17.6318V14.2041C17.6318 14.486 17.5349 14.7228 17.3428 14.915C17.1634 15.1072 16.9266 15.2041 16.6318 15.2041C16.35 15.2041 16.1131 15.1072 15.9209 14.915C15.7288 14.7229 15.6328 14.4859 15.6328 14.2041V1.19238C15.6328 0.897669 15.7287 0.65986 15.9209 0.480469C16.113 0.288467 16.3501 0.192415 16.6318 0.192383C16.9263 0.192383 17.1634 0.288539 17.3428 0.480469C17.535 0.65986 17.6318 0.897669 17.6318 1.19238V6.70801H26.5498V1.19238C26.5498 0.897669 26.6457 0.65986 26.8379 0.480469C27.03 0.288441 27.2672 0.192471 27.5488 0.192383ZM37.2383 0.192383C37.6994 0.192427 38.0131 0.416903 38.1797 0.865234L43.6006 13.8008C43.7414 14.1595 43.7156 14.4866 43.5234 14.7812C43.344 15.0631 43.0678 15.2041 42.6963 15.2041C42.5043 15.204 42.3189 15.1522 42.1396 15.0498C41.9731 14.9345 41.8513 14.781 41.7744 14.5889L40.6904 11.8975H33.8027L32.7021 14.5889C32.6125 14.7937 32.478 14.9473 32.2988 15.0498C32.1323 15.1523 31.9587 15.2041 31.7793 15.2041C31.4206 15.204 31.1453 15.0497 30.9531 14.7422C30.7611 14.4348 30.7419 14.1085 30.8955 13.7627L36.2959 0.865234C36.4881 0.416757 36.8026 0.192383 37.2383 0.192383ZM53.9229 0.192383C54.1917 0.192477 54.4097 0.282617 54.5762 0.461914C54.7554 0.628462 54.8447 0.846272 54.8447 1.11523C54.8447 1.38428 54.7555 1.60871 54.5762 1.78809C54.4097 1.95458 54.1917 2.038 53.9229 2.03809H49.79V14.2041C49.79 14.4858 49.6939 14.7229 49.502 14.915C49.3099 15.1071 49.0727 15.204 48.791 15.2041C48.5091 15.2041 48.2713 15.1072 48.0791 14.915C47.8871 14.7229 47.791 14.4858 47.791 14.2041V2.03809H43.6396C43.3706 2.03809 43.1462 1.95459 42.9668 1.78809C42.8002 1.60871 42.7168 1.3843 42.7168 1.11523C42.7168 0.846198 42.8003 0.62848 42.9668 0.461914C43.1462 0.282523 43.3706 0.192383 43.6396 0.192383H53.9229ZM66.6299 0.192383C66.8989 0.192419 67.1167 0.282559 67.2832 0.461914C67.4625 0.628479 67.5527 0.846201 67.5527 1.11523C67.5527 1.3843 67.4626 1.60871 67.2832 1.78809C67.1167 1.95456 66.8988 2.03805 66.6299 2.03809H62.4971V14.2041C62.4971 14.4859 62.401 14.7229 62.209 14.915C62.0168 15.1072 61.7799 15.2041 61.498 15.2041C61.2161 15.2041 60.9793 15.1072 60.7871 14.915C60.5949 14.7228 60.498 14.486 60.498 14.2041V2.03809H56.3467C56.0776 2.03807 55.8532 1.95465 55.6738 1.78809C55.5073 1.60871 55.4238 1.38429 55.4238 1.11523C55.4238 0.846269 55.5074 0.628463 55.6738 0.461914C55.8532 0.28254 56.0776 0.1924 56.3467 0.192383H66.6299ZM79.4521 0.192383C79.7468 0.192383 79.9837 0.282582 80.1631 0.461914C80.3425 0.628492 80.4326 0.852866 80.4326 1.13477C80.4325 1.40368 80.3424 1.62158 80.1631 1.78809C79.9837 1.95447 79.7467 2.03809 79.4521 2.03809H71.7637V6.70801H77.2803C77.5749 6.70801 77.8118 6.79823 77.9912 6.97754C78.1706 7.1441 78.2607 7.3618 78.2607 7.63086C78.2607 7.89995 78.1706 8.12432 77.9912 8.30371C77.8118 8.47014 77.5749 8.55371 77.2803 8.55371H71.7637V13.3584H79.4521C79.7467 13.3584 79.9837 13.442 80.1631 13.6084C80.3424 13.7749 80.4326 13.9928 80.4326 14.2617C80.4326 14.5436 80.3425 14.7747 80.1631 14.9541C79.9837 15.1205 79.7467 15.2041 79.4521 15.2041H70.7646C70.4828 15.2041 70.2459 15.1072 70.0537 14.915C69.8616 14.7229 69.7656 14.4859 69.7656 14.2041V1.19238C69.7656 0.897669 69.8615 0.65986 70.0537 0.480469C70.2459 0.288479 70.4829 0.192389 70.7646 0.192383H79.4521ZM87.6826 0.192383C88.6436 0.192405 89.4961 0.397602 90.2393 0.807617C90.9823 1.20483 91.5588 1.7563 91.9688 2.46094C92.3915 3.16562 92.6025 3.98563 92.6025 4.9209C92.6025 5.79205 92.3914 6.56707 91.9688 7.24609C91.5588 7.9251 90.9823 8.4574 90.2393 8.8418C90.1717 8.87675 90.1016 8.90768 90.0322 8.93945L92.9678 13.666C93.1984 14.0376 93.231 14.3905 93.0645 14.7236C92.8979 15.0439 92.6092 15.2041 92.1992 15.2041C92.0198 15.2041 91.853 15.1657 91.6992 15.0889C91.5583 15.012 91.4365 14.8901 91.334 14.7236L88.0361 9.40918C87.92 9.41513 87.8021 9.41797 87.6826 9.41797H85.2227V14.2041C85.2227 14.486 85.1258 14.7228 84.9336 14.915C84.7542 15.1072 84.5174 15.2041 84.2227 15.2041C83.9408 15.2041 83.7039 15.1072 83.5117 14.915C83.3196 14.7229 83.2236 14.4859 83.2236 14.2041V1.19238C83.2236 0.897669 83.3195 0.65986 83.5117 0.480469C83.7038 0.28847 83.9409 0.192409 84.2227 0.192383H87.6826ZM100.961 0.192383C101.832 0.192419 102.595 0.365982 103.248 0.711914C103.914 1.045 104.433 1.51225 104.805 2.11426C105.189 2.71649 105.382 3.40881 105.382 4.19043C105.382 4.8183 105.208 5.38882 104.862 5.90137C104.529 6.40098 104.068 6.79811 103.479 7.09277C104.324 7.29778 105.003 7.70153 105.516 8.30371C106.028 8.90595 106.285 9.69413 106.285 10.668C106.285 11.552 106.073 12.3336 105.65 13.0127C105.24 13.6917 104.664 14.2298 103.921 14.627C103.178 15.0114 102.325 15.2041 101.364 15.2041H96.3672C96.0853 15.2041 95.8485 15.1072 95.6562 14.915C95.464 14.7228 95.3672 14.486 95.3672 14.2041V1.19238C95.3672 0.897669 95.464 0.65986 95.6562 0.480469C95.8484 0.288556 96.0855 0.192383 96.3672 0.192383H100.961ZM135.923 0.192383C136.192 0.192469 136.403 0.27594 136.557 0.442383C136.71 0.60896 136.794 0.814158 136.807 1.05762C136.819 1.30104 136.748 1.53794 136.595 1.76855L132.213 7.61133L136.519 13.5889C136.672 13.7939 136.742 14.025 136.729 14.2812C136.717 14.5374 136.627 14.7552 136.461 14.9346C136.307 15.114 136.089 15.2041 135.807 15.2041C135.64 15.2041 135.493 15.1781 135.365 15.127C135.25 15.0629 135.141 14.967 135.038 14.8389L130.857 9.04492L126.446 14.915C126.254 15.1072 126.024 15.2041 125.755 15.2041C125.46 15.2041 125.236 15.114 125.082 14.9346C124.928 14.7424 124.852 14.5247 124.852 14.2812C124.852 14.025 124.928 13.7939 125.082 13.5889L129.554 7.62598L125.332 1.76855C125.178 1.56355 125.114 1.33915 125.14 1.0957C125.165 0.852346 125.255 0.641246 125.409 0.461914C125.576 0.282559 125.793 0.192383 126.062 0.192383C126.395 0.192419 126.632 0.288499 126.773 0.480469L130.903 6.21094L135.211 0.480469C135.39 0.288306 135.628 0.192383 135.923 0.192383ZM115.82 1.80664C114.987 1.80666 114.218 1.95433 113.514 2.24902C112.822 2.54371 112.219 2.95999 111.707 3.49805C111.207 4.02341 110.817 4.64572 110.535 5.36328C110.253 6.08075 110.112 6.85572 110.112 7.68848C110.112 8.52136 110.253 9.29708 110.535 10.0146C110.817 10.7319 111.208 11.3595 111.707 11.8975C112.22 12.4228 112.822 12.8399 113.514 13.1475C114.218 13.4422 114.987 13.5888 115.82 13.5889C116.653 13.5889 117.416 13.4421 118.107 13.1475C118.812 12.8399 119.421 12.4228 119.934 11.8975C120.446 11.3594 120.837 10.732 121.106 10.0146C121.388 9.29708 121.529 8.52136 121.529 7.68848C121.529 6.8558 121.388 6.08069 121.106 5.36328C120.837 4.64572 120.446 4.02341 119.934 3.49805C119.421 2.96002 118.812 2.54368 118.107 2.24902C117.416 1.9544 116.653 1.80664 115.82 1.80664ZM97.3662 13.3584H101.364C101.954 13.3584 102.472 13.2558 102.921 13.0508C103.369 12.8458 103.722 12.5447 103.979 12.1475C104.235 11.7503 104.362 11.2572 104.362 10.668C104.362 10.117 104.235 9.66152 103.979 9.30273C103.722 8.94402 103.369 8.67546 102.921 8.49609C102.472 8.30393 101.954 8.20801 101.364 8.20801H97.3662V13.3584ZM34.4795 10.2451H40.0254L37.2744 3.41113L34.4795 10.2451ZM85.2227 7.57324H87.6826C88.272 7.57322 88.7908 7.46391 89.2393 7.24609C89.6877 7.01545 90.0406 6.70188 90.2969 6.30469C90.5531 5.89472 90.6807 5.43333 90.6807 4.9209C90.6807 4.35725 90.553 3.85745 90.2969 3.42188C90.0406 2.98625 89.6877 2.64678 89.2393 2.40332C88.7908 2.15988 88.272 2.03811 87.6826 2.03809H85.2227V7.57324ZM97.3662 6.3623H100.961C101.691 6.36226 102.287 6.18291 102.748 5.82422C103.222 5.46544 103.459 4.92081 103.459 4.19043C103.459 3.46008 103.222 2.92214 102.748 2.57617C102.287 2.21743 101.691 2.03813 100.961 2.03809H97.3662V6.3623Z" fill="#FEFBFB"/>
</svg>
