<svg width="48" height="48" viewBox="0 0 48 48" fill="none" xmlns="http://www.w3.org/2000/svg">
<rect width="48" height="48" fill="#BEBEBE"/>
<g id="Home Screen">
<path d="M-79.9111 -224.352C-79.9111 -225.456 -79.0157 -226.352 -77.9111 -226.352H1308.09C1309.19 -226.352 1310.09 -225.456 1310.09 -224.352V607.648C1310.09 608.753 1309.19 609.648 1308.09 609.648H-77.9111C-79.0157 609.648 -79.9111 608.753 -79.9111 607.648V-224.352Z" fill="white"/>
<path d="M-77.9111 -226.352V-225.352H1308.09V-226.352V-227.352H-77.9111V-226.352ZM1310.09 -224.352H1309.09V607.648H1310.09H1311.09V-224.352H1310.09ZM1308.09 609.648V608.648H-77.9111V609.648V610.648H1308.09V609.648ZM-79.9111 607.648H-78.9111V-224.352H-79.9111H-80.9111V607.648H-79.9111ZM-77.9111 609.648V608.648C-78.4634 608.648 -78.9111 608.201 -78.9111 607.648H-79.9111H-80.9111C-80.9111 609.305 -79.568 610.648 -77.9111 610.648V609.648ZM1310.09 607.648H1309.09C1309.09 608.201 1308.64 608.648 1308.09 608.648V609.648V610.648C1309.75 610.648 1311.09 609.305 1311.09 607.648H1310.09ZM1308.09 -226.352V-225.352C1308.64 -225.352 1309.09 -224.904 1309.09 -224.352H1310.09H1311.09C1311.09 -226.008 1309.75 -227.352 1308.09 -227.352V-226.352ZM-77.9111 -226.352V-227.352C-79.568 -227.352 -80.9111 -226.008 -80.9111 -224.352H-79.9111H-78.9111C-78.9111 -224.904 -78.4634 -225.352 -77.9111 -225.352V-226.352Z" fill="black" fill-opacity="0.1"/>
<g id="Card icons">
<rect x="-19.5" y="-84.8516" width="214" height="431" rx="4.5" fill="white"/>
<rect x="-19.5" y="-84.8516" width="214" height="431" rx="4.5" stroke="#9747FF" stroke-dasharray="10 5"/>
<g id="Theme=wholesome, State=default">
<mask id="mask0_772_9087" style="mask-type:alpha" maskUnits="userSpaceOnUse" x="0" y="0" width="48" height="48">
<rect id="Bounding box" width="48" height="48" fill="#78A79F"/>
</mask>
<g mask="url(#mask0_772_9087)">
<path id="filter_vintage" d="M19.1249 42.075C17.7416 40.7917 16.8999 39.1 16.5999 37C14.6333 37.7667 12.7916 37.8333 11.0749 37.2C9.35827 36.5667 8.0166 35.45 7.04994 33.85C6.08327 32.25 5.7666 30.5 6.09994 28.6C6.43327 26.7 7.5666 25.1667 9.49994 24C7.49994 22.8 6.34994 21.2583 6.04994 19.375C5.74994 17.4917 6.08327 15.75 7.04994 14.15C8.0166 12.55 9.35827 11.4333 11.0749 10.8C12.7916 10.1667 14.6333 10.2333 16.5999 11C16.8999 8.9 17.7416 7.20833 19.1249 5.925C20.5083 4.64167 22.1333 4 23.9999 4C25.8666 4 27.4916 4.64167 28.8749 5.925C30.2583 7.20833 31.0999 8.9 31.3999 11C33.3666 10.2333 35.2083 10.1667 36.9249 10.8C38.6416 11.4333 39.9833 12.55 40.9499 14.15C41.9166 15.75 42.2499 17.4917 41.9499 19.375C41.6499 21.2583 40.4999 22.8 38.4999 24C40.4333 25.1667 41.5583 26.7083 41.8749 28.625C42.1916 30.5417 41.8833 32.2833 40.9499 33.85C39.9833 35.45 38.6416 36.5667 36.9249 37.2C35.2083 37.8333 33.3666 37.7667 31.3999 37C31.0999 39.1 30.2583 40.7917 28.8749 42.075C27.4916 43.3583 25.8666 44 23.9999 44C22.1333 44 20.5083 43.3583 19.1249 42.075ZM23.9999 32.35C26.2999 32.35 28.2583 31.5417 29.8749 29.925C31.4916 28.3083 32.2999 26.3333 32.2999 24C32.2999 21.6667 31.4916 19.6917 29.8749 18.075C28.2583 16.4583 26.2999 15.65 23.9999 15.65C21.6999 15.65 19.7749 16.4583 18.2249 18.075C16.6749 19.6917 15.8999 21.6667 15.8999 24C15.8999 26.3333 16.6749 28.3083 18.2249 29.925C19.7749 31.5417 21.6999 32.35 23.9999 32.35Z" fill="#2A9D8F"/>
</g>
</g>
</g>
</g>
</svg>
