<svg width="48" height="48" viewBox="0 0 48 48" fill="none" xmlns="http://www.w3.org/2000/svg">
<rect width="48" height="48" fill="#BEBEBE"/>
<g id="Home Screen">
<path d="M-79.9111 -159C-79.9111 -160.105 -79.0157 -161 -77.9111 -161H1308.09C1309.19 -161 1310.09 -160.105 1310.09 -159V673C1310.09 674.105 1309.19 675 1308.09 675H-77.9111C-79.0157 675 -79.9111 674.105 -79.9111 673V-159Z" fill="white"/>
<path d="M-77.9111 -161V-160H1308.09V-161V-162H-77.9111V-161ZM1310.09 -159H1309.09V673H1310.09H1311.09V-159H1310.09ZM1308.09 675V674H-77.9111V675V676H1308.09V675ZM-79.9111 673H-78.9111V-159H-79.9111H-80.9111V673H-79.9111ZM-77.9111 675V674C-78.4634 674 -78.9111 673.552 -78.9111 673H-79.9111H-80.9111C-80.9111 674.657 -79.568 676 -77.9111 676V675ZM1310.09 673H1309.09C1309.09 673.552 1308.64 674 1308.09 674V675V676C1309.75 676 1311.09 674.657 1311.09 673H1310.09ZM1308.09 -161V-160C1308.64 -160 1309.09 -159.552 1309.09 -159H1310.09H1311.09C1311.09 -160.657 1309.75 -162 1308.09 -162V-161ZM-77.9111 -161V-162C-79.568 -162 -80.9111 -160.657 -80.9111 -159H-79.9111H-78.9111C-78.9111 -159.552 -78.4634 -160 -77.9111 -160V-161Z" fill="black" fill-opacity="0.1"/>
<g id="Card icons">
<rect x="-19.5" y="-19.5" width="214" height="431" rx="4.5" fill="white"/>
<rect x="-19.5" y="-19.5" width="214" height="431" rx="4.5" stroke="#9747FF" stroke-dasharray="10 5"/>
<g id="Theme=mystical, State=default">
<mask id="mask0_772_9087" style="mask-type:alpha" maskUnits="userSpaceOnUse" x="0" y="0" width="48" height="48">
<rect id="Bounding box" width="48" height="48" fill="#78A79F"/>
</mask>
<g mask="url(#mask0_772_9087)">
<path id="stars_2" d="M22.6809 37.0863L13.3809 42.6863C13.1143 42.853 12.8309 42.928 12.5309 42.9113C12.2309 42.8946 11.9643 42.803 11.7309 42.6363C11.4976 42.4696 11.3226 42.253 11.2059 41.9863C11.0893 41.7196 11.0643 41.4196 11.1309 41.0863L13.5809 30.4863L5.38092 23.3363C5.11426 23.103 4.95592 22.8446 4.90592 22.5613C4.85592 22.278 4.86426 22.003 4.93092 21.7363C4.99759 21.4696 5.14759 21.2446 5.38092 21.0613C5.61426 20.878 5.89759 20.7696 6.23092 20.7363L17.0809 19.7863L21.2809 9.7863C21.4143 9.4863 21.6143 9.2613 21.8809 9.1113C22.1476 8.9613 22.4143 8.8863 22.6809 8.8863C22.9476 8.8863 23.2143 8.9613 23.4809 9.1113C23.7476 9.2613 23.9476 9.4863 24.0809 9.7863L28.2809 19.7863L39.1309 20.7363C39.4643 20.7696 39.7476 20.878 39.9809 21.0613C40.2143 21.2446 40.3643 21.4696 40.4309 21.7363C40.4976 22.003 40.5059 22.278 40.4559 22.5613C40.4059 22.8446 40.2476 23.103 39.9809 23.3363L31.7809 30.4863L34.2309 41.0863C34.2976 41.4196 34.2726 41.7196 34.1559 41.9863C34.0393 42.253 33.8643 42.4696 33.6309 42.6363C33.3976 42.803 33.1309 42.8946 32.8309 42.9113C32.5309 42.928 32.2476 42.853 31.9809 42.6863L22.6809 37.0863ZM37.1809 14.1863L33.9309 16.0863C33.7643 16.153 33.6143 16.1446 33.4809 16.0613C33.3476 15.978 33.3143 15.853 33.3809 15.6863L34.2309 12.0863L31.3809 9.6863C31.2476 9.5863 31.2059 9.4613 31.2559 9.3113C31.3059 9.1613 31.4143 9.06964 31.5809 9.0363L35.3809 8.7363L36.8309 5.3363C36.8976 5.16964 37.0143 5.0863 37.1809 5.0863C37.3476 5.0863 37.4643 5.16964 37.5309 5.3363L38.9809 8.7363L42.7809 9.0363C42.9476 9.06964 43.0559 9.1613 43.1059 9.3113C43.1559 9.4613 43.1143 9.5863 42.9809 9.6863L40.1309 12.0863L40.9809 15.6863C41.0476 15.853 41.0143 15.978 40.8809 16.0613C40.7476 16.1446 40.5976 16.153 40.4309 16.0863L37.1809 14.1863Z" fill="#2A9D8F"/>
</g>
</g>
</g>
</g>
</svg>
