<svg width="48" height="48" viewBox="0 0 48 48" fill="none" xmlns="http://www.w3.org/2000/svg">
<rect width="48" height="48" fill="#BEBEBE"/>
<g id="Home Screen">
<path d="M-79.9111 -369.352C-79.9111 -370.456 -79.0157 -371.352 -77.9111 -371.352H1308.09C1309.19 -371.352 1310.09 -370.456 1310.09 -369.352V462.648C1310.09 463.753 1309.19 464.648 1308.09 464.648H-77.9111C-79.0157 464.648 -79.9111 463.753 -79.9111 462.648V-369.352Z" fill="white"/>
<path d="M-77.9111 -371.352V-370.352H1308.09V-371.352V-372.352H-77.9111V-371.352ZM1310.09 -369.352H1309.09V462.648H1310.09H1311.09V-369.352H1310.09ZM1308.09 464.648V463.648H-77.9111V464.648V465.648H1308.09V464.648ZM-79.9111 462.648H-78.9111V-369.352H-79.9111H-80.9111V462.648H-79.9111ZM-77.9111 464.648V463.648C-78.4634 463.648 -78.9111 463.201 -78.9111 462.648H-79.9111H-80.9111C-80.9111 464.305 -79.568 465.648 -77.9111 465.648V464.648ZM1310.09 462.648H1309.09C1309.09 463.201 1308.64 463.648 1308.09 463.648V464.648V465.648C1309.75 465.648 1311.09 464.305 1311.09 462.648H1310.09ZM1308.09 -371.352V-370.352C1308.64 -370.352 1309.09 -369.904 1309.09 -369.352H1310.09H1311.09C1311.09 -371.008 1309.75 -372.352 1308.09 -372.352V-371.352ZM-77.9111 -371.352V-372.352C-79.568 -372.352 -80.9111 -371.008 -80.9111 -369.352H-79.9111H-78.9111C-78.9111 -369.904 -78.4634 -370.352 -77.9111 -370.352V-371.352Z" fill="black" fill-opacity="0.1"/>
<g id="Card icons">
<rect x="-19.5" y="-229.852" width="214" height="431" rx="4.5" fill="white"/>
<rect x="-19.5" y="-229.852" width="214" height="431" rx="4.5" stroke="#9747FF" stroke-dasharray="10 5"/>
<g id="Theme=Dramatic, State=default">
<mask id="mask0_772_9087" style="mask-type:alpha" maskUnits="userSpaceOnUse" x="0" y="0" width="48" height="48">
<rect id="Bounding box" width="48" height="48" fill="#78A79F"/>
</mask>
<g mask="url(#mask0_772_9087)">
<path id="theater_comedy" d="M13.75 44.025C10.5167 44.025 7.75 42.85 5.45 40.5C3.15 38.15 2 35.4083 2 32.275V21.925C2 21.1 2.29383 20.3936 2.8815 19.806C3.46883 19.2186 4.175 18.925 5 18.925H22.45C23.275 18.925 23.9813 19.2186 24.569 19.806C25.1563 20.3936 25.45 21.1 25.45 21.925V32.275C25.45 35.4083 24.3125 38.15 22.0375 40.5C19.7625 42.85 17 44.025 13.75 44.025ZM9.45 28.725C9.90333 28.725 10.2833 28.5716 10.59 28.265C10.8967 27.9583 11.05 27.5783 11.05 27.125C11.05 26.6716 10.8967 26.2916 10.59 25.985C10.2833 25.6783 9.90333 25.525 9.45 25.525C8.99667 25.525 8.61667 25.6783 8.31 25.985C8.00333 26.2916 7.85 26.6716 7.85 27.125C7.85 27.5783 8.00333 27.9583 8.31 28.265C8.61667 28.5716 8.99667 28.725 9.45 28.725ZM19.25 28.265C19.55 27.9583 19.7 27.5783 19.7 27.125C19.7 26.6716 19.5467 26.2916 19.24 25.985C18.9333 25.6783 18.5533 25.525 18.1 25.525C17.6467 25.525 17.2667 25.6783 16.96 25.985C16.6533 26.2916 16.5 26.6716 16.5 27.125C16.5 27.5783 16.65 27.9583 16.95 28.265C17.25 28.5716 17.6333 28.725 18.1 28.725C18.5667 28.725 18.95 28.5716 19.25 28.265ZM46 6.97498V17.825C46 20.9916 44.8625 23.6583 42.5875 25.825C40.3125 27.9916 37.55 29.075 34.3 29.075C33.5333 29.075 32.7917 29.0166 32.075 28.9C31.3583 28.7833 30.65 28.5916 29.95 28.325C29.3833 28.125 28.9083 27.7941 28.525 27.3325C28.1417 26.8711 27.95 26.352 27.95 25.775V20.975C27.95 19.7966 27.5698 18.7686 26.8095 17.891C26.0495 17.0136 25.0797 16.575 23.9 16.575C23.5 16.575 23.1583 16.425 22.875 16.125C22.5917 15.825 22.45 15.475 22.45 15.075V6.97498C22.45 6.14998 22.7438 5.44364 23.3315 4.85598C23.9188 4.26864 24.625 3.97498 25.45 3.97498H43C43.825 3.97498 44.5313 4.26864 45.119 4.85598C45.7063 5.44364 46 6.14998 46 6.97498ZM30.05 14.225C30.5033 14.225 30.8833 14.0583 31.19 13.725C31.4967 13.3916 31.65 13.025 31.65 12.625C31.65 12.1716 31.4967 11.7916 31.19 11.485C30.8833 11.1783 30.5033 11.025 30.05 11.025C29.5967 11.025 29.2167 11.1783 28.91 11.485C28.6033 11.7916 28.45 12.1716 28.45 12.625C28.45 13.025 28.6033 13.3916 28.91 13.725C29.2167 14.0583 29.5967 14.225 30.05 14.225ZM38.65 14.225C39.1033 14.225 39.4833 14.0583 39.79 13.725C40.0967 13.3916 40.25 13.025 40.25 12.625C40.25 12.1716 40.0967 11.7916 39.79 11.485C39.4833 11.1783 39.1033 11.025 38.65 11.025C38.1967 11.025 37.8167 11.1783 37.51 11.485C37.2033 11.7916 37.05 12.1716 37.05 12.625C37.05 13.025 37.2033 13.3916 37.51 13.725C37.8167 14.0583 38.1967 14.225 38.65 14.225ZM31.525 18.475C30.6417 18.775 29.9333 19.3083 29.4 20.075C29.2 20.4083 29.2167 20.7333 29.45 21.05C29.6833 21.3666 30.0143 21.525 30.443 21.525H38.157C38.5857 21.525 38.9167 21.3666 39.15 21.05C39.3833 20.7333 39.4 20.4083 39.2 20.075C38.6667 19.3083 37.9583 18.775 37.075 18.475C36.1917 18.175 35.2667 18.025 34.3 18.025C33.3333 18.025 32.4083 18.175 31.525 18.475ZM16.625 36.025C17.5083 35.725 18.2167 35.1916 18.75 34.425C18.95 34.1026 18.9333 33.7805 18.7 33.4585C18.4667 33.1361 18.1407 32.975 17.722 32.975H9.978C9.55933 32.975 9.23333 33.1361 9 33.4585C8.76667 33.7805 8.75 34.1026 8.95 34.425C9.48333 35.1916 10.1917 35.725 11.075 36.025C11.9583 36.325 12.8833 36.475 13.85 36.475C14.8167 36.475 15.7417 36.325 16.625 36.025Z" fill="#2A9D8F"/>
</g>
</g>
</g>
</g>
</svg>
