<svg width="48" height="48" viewBox="0 0 48 48" fill="none" xmlns="http://www.w3.org/2000/svg">
<rect width="48" height="48" fill="#BEBEBE"/>
<g id="Home Screen">
<path d="M-79.9111 -293.676C-79.9111 -294.78 -79.0157 -295.676 -77.9111 -295.676H1308.09C1309.19 -295.676 1310.09 -294.78 1310.09 -293.676V538.324C1310.09 539.429 1309.19 540.324 1308.09 540.324H-77.9111C-79.0157 540.324 -79.9111 539.429 -79.9111 538.324V-293.676Z" fill="white"/>
<path d="M-77.9111 -295.676V-294.676H1308.09V-295.676V-296.676H-77.9111V-295.676ZM1310.09 -293.676H1309.09V538.324H1310.09H1311.09V-293.676H1310.09ZM1308.09 540.324V539.324H-77.9111V540.324V541.324H1308.09V540.324ZM-79.9111 538.324H-78.9111V-293.676H-79.9111H-80.9111V538.324H-79.9111ZM-77.9111 540.324V539.324C-78.4634 539.324 -78.9111 538.877 -78.9111 538.324H-79.9111H-80.9111C-80.9111 539.981 -79.568 541.324 -77.9111 541.324V540.324ZM1310.09 538.324H1309.09C1309.09 538.877 1308.64 539.324 1308.09 539.324V540.324V541.324C1309.75 541.324 1311.09 539.981 1311.09 538.324H1310.09ZM1308.09 -295.676V-294.676C1308.64 -294.676 1309.09 -294.228 1309.09 -293.676H1310.09H1311.09C1311.09 -295.333 1309.75 -296.676 1308.09 -296.676V-295.676ZM-77.9111 -295.676V-296.676C-79.568 -296.676 -80.9111 -295.333 -80.9111 -293.676H-79.9111H-78.9111C-78.9111 -294.228 -78.4634 -294.676 -77.9111 -294.676V-295.676Z" fill="black" fill-opacity="0.1"/>
<g id="Card icons">
<rect x="-19.5" y="-154.176" width="214" height="431" rx="4.5" fill="white"/>
<rect x="-19.5" y="-154.176" width="214" height="431" rx="4.5" stroke="#9747FF" stroke-dasharray="10 5"/>
<g id="Theme=funny, State=default">
<mask id="mask0_772_9087" style="mask-type:alpha" maskUnits="userSpaceOnUse" x="0" y="0" width="48" height="48">
<rect id="Bounding box" width="48" height="48" fill="#78A79F"/>
</mask>
<g mask="url(#mask0_772_9087)">
<path id="sentiment_excited" d="M24 36C26.2 36 28.0833 35.2167 29.65 33.65C31.2167 32.0833 32 30.2 32 28V25.5C32 25.075 31.8563 24.7187 31.569 24.431C31.2813 24.1437 30.925 24 30.5 24L29.1683 24.4545C25.8177 25.5982 22.1823 25.5982 18.8317 24.4545L17.5 24C17.075 24 16.7188 24.1437 16.4315 24.431C16.1438 24.7187 16 25.075 16 25.5V28C16 30.2 16.7833 32.0833 18.35 33.65C19.9167 35.2167 21.8 36 24 36ZM17 14C15.8667 14 14.8667 14.3667 14 15.1C13.1333 15.8333 12.4667 16.7333 12 17.8C11.8333 18.1667 11.8583 18.5167 12.075 18.85C12.2917 19.1833 12.6 19.4 13 19.5C13.3667 19.6 13.7333 19.5583 14.1 19.375C14.4667 19.1917 14.7333 18.9167 14.9 18.55C15.1333 18.1167 15.425 17.75 15.775 17.45C16.125 17.15 16.5333 17 17 17C17.4667 17 17.875 17.1583 18.225 17.475C18.575 17.7917 18.8667 18.1667 19.1 18.6C19.2667 18.9667 19.5333 19.2333 19.9 19.4C20.2667 19.5667 20.6333 19.6 21 19.5C21.4 19.4 21.7083 19.1833 21.925 18.85C22.1417 18.5167 22.1667 18.1667 22 17.8C21.5333 16.7333 20.8667 15.8333 20 15.1C19.1333 14.3667 18.1333 14 17 14ZM31 14C29.8667 14 28.8667 14.3667 28 15.1C27.1333 15.8333 26.4667 16.7333 26 17.8C25.8333 18.1667 25.8583 18.5167 26.075 18.85C26.2917 19.1833 26.6 19.4 27 19.5C27.3667 19.6 27.7333 19.5583 28.1 19.375C28.4667 19.1917 28.7333 18.9167 28.9 18.55C29.1333 18.1167 29.425 17.75 29.775 17.45C30.125 17.15 30.5333 17 31 17C31.4667 17 31.875 17.1583 32.225 17.475C32.575 17.7917 32.8667 18.1667 33.1 18.6C33.2667 18.9667 33.5333 19.2333 33.9 19.4C34.2667 19.5667 34.6333 19.6 35 19.5C35.4 19.4 35.7083 19.1833 35.925 18.85C36.1417 18.5167 36.1667 18.1667 36 17.8C35.5333 16.7333 34.8667 15.8333 34 15.1C33.1333 14.3667 32.1333 14 31 14ZM16.2 42.425C13.7667 41.375 11.65 39.95 9.85 38.15C8.05 36.35 6.625 34.2333 5.575 31.8C4.525 29.3667 4 26.7667 4 24C4 21.2333 4.525 18.6333 5.575 16.2C6.625 13.7667 8.05 11.65 9.85 9.85C11.65 8.05 13.7667 6.625 16.2 5.575C18.6333 4.525 21.2333 4 24 4C26.7667 4 29.3667 4.525 31.8 5.575C34.2333 6.625 36.35 8.05 38.15 9.85C39.95 11.65 41.375 13.7667 42.425 16.2C43.475 18.6333 44 21.2333 44 24C44 26.7667 43.475 29.3667 42.425 31.8C41.375 34.2333 39.95 36.35 38.15 38.15C36.35 39.95 34.2333 41.375 31.8 42.425C29.3667 43.475 26.7667 44 24 44C21.2333 44 18.6333 43.475 16.2 42.425Z" fill="#2A9D8F"/>
</g>
</g>
</g>
</g>
</svg>
