<svg width="371" height="106" viewBox="0 0 371 106" fill="none" xmlns="http://www.w3.org/2000/svg">
<rect width="371" height="106" fill="#BEBEBE"/>
<g id="Decorate Mode">
<path d="M-958.654 -1366V-1365H2061.35V-1366V-1367H-958.654V-1366ZM2063.35 -1364H2062.35V2174H2063.35H2064.35V-1364H2063.35ZM2061.35 2176V2175H-958.654V2176V2177H2061.35V2176ZM-960.654 2174H-959.654V-1364H-960.654H-961.654V2174H-960.654ZM-958.654 2176V2175C-959.206 2175 -959.654 2174.55 -959.654 2174H-960.654H-961.654C-961.654 2175.66 -960.311 2177 -958.654 2177V2176ZM2063.35 2174H2062.35C2062.35 2174.55 2061.9 2175 2061.35 2175V2176V2177C2063 2177 2064.35 2175.66 2064.35 2174H2063.35ZM2061.35 -1366V-1365C2061.9 -1365 2062.35 -1364.55 2062.35 -1364H2063.35H2064.35C2064.35 -1365.65 2063 -1367 2061.35 -1367V-1366ZM-958.654 -1366V-1367C-960.311 -1367 -961.654 -1365.66 -961.654 -1364H-960.654H-959.654C-959.654 -1364.55 -959.206 -1365 -958.654 -1365V-1366Z" fill="black" fill-opacity="0.1"/>
<g id="magic paint">
<rect x="-19.5" y="-24.5" width="411" height="424" rx="4.5" stroke="#9747FF" stroke-dasharray="10 5"/>
<g id="Property 1=default">
<g id="Group 17">
<g id="Rectangle 6" filter="url(#filter0_ii_772_9087)">
<rect y="0.128632" width="370.484" height="105.826" rx="8" fill="#E8E7E7"/>
</g>
<g id="Frame 39">
<g id="Union" filter="url(#filter1_ddi_772_9087)">
<path d="M101.265 21.7942C106.211 21.7942 110.68 23.8244 113.871 27.0905C115.268 28.5204 117.085 29.5686 119.084 29.5686H331.945C334.171 29.5686 335.976 31.3595 335.976 33.5686V44.8616C335.976 47.0707 334.171 48.8616 331.945 48.8616H119.083C117.084 48.8616 115.267 49.9096 113.87 51.3393C110.679 54.605 106.211 56.635 101.265 56.635C96.3182 56.635 91.8504 54.605 88.6595 51.3393C87.2625 49.9096 85.4455 48.8616 83.4466 48.8616H31.0076C28.7811 48.8615 26.9761 47.0707 26.9761 44.8616V33.5686C26.9761 31.3595 28.7811 29.5687 31.0076 29.5686H83.4453C85.4444 29.5686 87.2615 28.5204 88.6585 27.0905C91.8495 23.8244 96.3179 21.7942 101.265 21.7942Z" fill="#D9D9D9"/>
</g>
<g id="paintbrush">
<g id="paint brush 1" filter="url(#filter2_d_772_9087)">
<g id="Vector" filter="url(#filter3_d_772_9087)">
<path d="M327.921 38.8358C327.494 35.4632 262.087 34.0988 211.948 34.1163C161.807 34.1338 126.405 35.1936 126.405 35.1936L126.201 41.9247L128.578 42.3498C128.578 42.3498 181.462 43.2524 216.067 43.5843C250.673 43.9161 328.27 41.5956 327.921 38.8358Z" fill="#E76F51"/>
<g clip-path="url(#paint0_diamond_772_9087_clip_path)" data-figma-skip-parse="true"><g transform="matrix(1.40443e-08 0.00474993 -0.471248 4.70026e-07 227.061 38.866)"><rect x="0" y="0" width="1210.55" height="216.151" fill="url(#paint0_diamond_772_9087)" opacity="0.3" shape-rendering="crispEdges"/><rect x="0" y="0" width="1210.55" height="216.151" transform="scale(1 -1)" fill="url(#paint0_diamond_772_9087)" opacity="0.3" shape-rendering="crispEdges"/><rect x="0" y="0" width="1210.55" height="216.151" transform="scale(-1 1)" fill="url(#paint0_diamond_772_9087)" opacity="0.3" shape-rendering="crispEdges"/><rect x="0" y="0" width="1210.55" height="216.151" transform="scale(-1)" fill="url(#paint0_diamond_772_9087)" opacity="0.3" shape-rendering="crispEdges"/></g></g><path d="M327.921 38.8358C327.494 35.4632 262.087 34.0988 211.948 34.1163C161.807 34.1338 126.405 35.1936 126.405 35.1936L126.201 41.9247L128.578 42.3498C128.578 42.3498 181.462 43.2524 216.067 43.5843C250.673 43.9161 328.27 41.5956 327.921 38.8358Z" data-figma-gradient-fill="{&#34;type&#34;:&#34;GRADIENT_DIAMOND&#34;,&#34;stops&#34;:[{&#34;color&#34;:{&#34;r&#34;:1.0,&#34;g&#34;:1.0,&#34;b&#34;:1.0,&#34;a&#34;:1.0},&#34;position&#34;:0.0},{&#34;color&#34;:{&#34;r&#34;:0.0,&#34;g&#34;:0.0,&#34;b&#34;:0.0,&#34;a&#34;:0.0},&#34;position&#34;:1.0}],&#34;stopsVar&#34;:[{&#34;color&#34;:{&#34;r&#34;:1.0,&#34;g&#34;:1.0,&#34;b&#34;:1.0,&#34;a&#34;:1.0},&#34;position&#34;:0.0},{&#34;color&#34;:{&#34;r&#34;:0.0,&#34;g&#34;:0.0,&#34;b&#34;:0.0,&#34;a&#34;:0.0},&#34;position&#34;:1.0}],&#34;transform&#34;:{&#34;m00&#34;:2.8088583349017426e-05,&#34;m01&#34;:-942.49645996093750,&#34;m02&#34;:698.30944824218750,&#34;m10&#34;:9.4998531341552734,&#34;m11&#34;:0.00094005209393799305,&#34;m12&#34;:34.115642547607422},&#34;opacity&#34;:0.30000001192092896,&#34;blendMode&#34;:&#34;NORMAL&#34;,&#34;visible&#34;:true}"/>
</g>
<g id="Vector_2" filter="url(#filter4_ig_772_9087)">
<path d="M66.2896 33.7426C63.6653 33.7772 60.9501 34.02 58.3315 34.3543C53.384 34.9859 48.7825 35.944 45.8041 36.443C40.0623 37.4056 36.1078 38.3093 34.4754 38.5281C33.0041 38.7249 42.513 40.365 46.703 41.0983C49.6125 41.6075 54.8657 42.662 60.5547 43.2647C63.0583 43.5299 65.6471 43.708 68.1588 43.7129C78.4998 43.7332 85.8923 42.0418 85.2475 38.5281C84.6014 35.0143 77.3572 33.597 66.2896 33.7426Z" fill="#6E4A45"/>
</g>
<g id="Mask group">
<mask id="mask0_772_9087" style="mask-type:alpha" maskUnits="userSpaceOnUse" x="35" y="33" width="51" height="11">
<path id="Vector_3" d="M66.2897 33.7426C63.6654 33.7772 60.9502 34.02 58.3316 34.3542C53.3841 34.9858 48.7826 35.944 45.8042 36.443C40.0624 37.4056 36.8114 38.3092 35.1791 38.528C33.7077 38.7249 42.5132 40.365 46.7031 41.0983C49.6126 41.6074 54.8658 42.662 60.5548 43.2647C63.0584 43.5298 65.6472 43.708 68.1589 43.7128C78.4999 43.7332 85.8924 42.0418 85.2476 38.528C84.6015 35.0143 77.3573 33.597 66.2897 33.7426Z" fill="#6E4A45"/>
</mask>
<g mask="url(#mask0_772_9087)">
<g id="Vector 10" filter="url(#filter5_n_772_9087)">
<path d="M31.9369 39.194C31.3117 39.2558 31.9802 39.3369 32.8979 39.3986C33.1825 39.4179 34.4547 39.4081 34.7084 39.4214C35.2031 39.4475 34.5791 39.4718 35.1684 39.4976C35.3699 39.5061 37.385 39.4955 37.5502 39.5045C38.4408 39.5535 37.9275 39.6 38.3559 39.6497C40.4693 39.8946 41.2258 40.1353 42.1439 40.3832C42.445 40.4649 44.2738 40.5642 43.474 40.6487C43.3788 40.6585 41.61 40.6526 41.4643 40.6545C39.2325 40.6839 42.8033 40.6741 43.2777 40.6933C45.151 40.7696 45.3139 40.8543 44.6312 40.9276C44.3356 40.9588 40.8224 40.9276 42.7943 40.959C42.9276 40.9612 44.8059 40.9532 45.0062 40.9618C45.4568 40.9812 45.1211 41.018 45.2699 41.0331C45.5662 41.062 45.5473 41.0668 45.5687 41.0943C45.6143 41.1317 46.5481 41.1763 46.1224 41.2165C46.026 41.2251 44.1005 41.2137 43.7728 41.2274C43.4457 41.2411 43.609 41.2774 44.0629 41.2896C44.517 41.3018 46.0304 41.2966 46.3773 41.2988C49.3053 41.3166 45.2501 41.3585 45.1498 41.3639C43.441 41.4623 45.7511 41.5466 45.7445 41.6389C45.7346 41.709 44.972 41.784 45.0766 41.8506C45.2086 41.9301 46.252 41.9974 46.0726 42.0746C46.0559 42.0828 43.792 42.0732 43.767 42.0832C43.5035 42.1889 43.7503 42.2938 45.2787 42.3991C45.434 42.4097 47.4217 42.396 47.6957 42.4066C49.3292 42.4712 53.2534 42.5733 44.599 42.6117C44.937 42.6554 45.2861 42.7085 47.0306 42.7476C48.1535 42.7728 50.3189 42.7483 49.3949 42.7793C49.189 42.7863 47.2926 42.7772 47.1273 42.7877C46.4331 42.8318 47.0495 42.8801 46.0697 42.9237C45.866 42.9326 44.1667 42.9302 43.8607 42.9327C41.3827 42.9538 45.4791 42.989 45.7767 42.9967C47.9964 43.0551 47.1229 43.0978 47.1771 43.1522C47.1907 43.1649 44.9082 43.1499 44.8392 43.1621C44.5121 43.2251 44.7083 43.2904 45.7211 43.3522C45.9519 43.3659 47.8961 43.3533 48.1058 43.3598C49.007 43.3888 45.3349 43.3952 46.1283 43.4229C46.2909 43.4288 47.9553 43.4255 48.1381 43.4265C51.0075 43.4432 46.9417 43.4578 46.8519 43.4621C45.6254 43.5164 49.8699 43.5511 49.2689 43.6036C49.1927 43.6099 47.0868 43.5957 47.0014 43.6134C46.42 43.731 46.9985 43.8554 48.683 43.9718C48.9421 43.9899 50.5241 43.9769 50.7191 43.9781C53.7663 43.9966 49.6834 44.0086 49.5297 44.0145C48.4228 44.0611 51.8468 44.1046 46.9838 44.1362C48.6714 44.3334 45.9406 44.5297 50.2972 44.7252C50.3477 44.7277 52.3585 44.7232 52.4506 44.7282C53.5796 44.7879 50.4544 44.7764 46.6322 44.816C45.6724 44.8259 50.2871 44.8562 50.6254 44.8589C51.8719 44.8686 54.8634 44.8585 55.1048 44.8618C57.0004 44.8888 47.1071 44.8844 47.1039 44.9209C47.1204 44.9221 48.9414 44.9173 49.1224 44.9203C49.6909 44.9298 48.9673 44.9393 49.5941 44.9486C51.0446 44.9699 55.8519 44.9775 53.0541 45.01C52.691 45.0142 47.079 45.0079 47.3441 45.0404C47.4546 45.0534 47.3584 45.1109 47.7221 45.127C48.0853 45.1431 49.8937 45.1321 49.972 45.1332C52.3634 45.1766 53.3545 45.1601 56.8949 45.1819C60.4219 45.2036 52.0096 45.1976 51.0707 45.2064C50.1344 45.2153 52.1074 45.2471 52.7933 45.2549C53.4795 45.2627 54.6287 45.253 55.017 45.2599C57.554 45.306 50.8414 45.2801 49.5062 45.2953C46.3448 45.3311 52.5834 45.3589 53.1947 45.3917C53.3598 45.4005 51.9389 45.3933 51.806 45.4012C51.2986 45.4324 53.2452 45.4512 51.4603 45.4868C51.1695 45.4926 47.4187 45.5213 50.1713 45.5399C50.5682 45.5425 52.1228 45.5351 52.4711 45.5484C52.9937 45.5683 53.3335 45.6041 52.8138 45.6255C52.4294 45.6413 49.8677 45.6232 50.6634 45.6431C51.0188 45.6519 52.5174 45.6355 53.0599 45.6521C53.6023 45.6686 53.5365 45.7108 53.4847 45.7269C53.4318 45.7429 51.4887 45.7341 51.3578 45.7354C50.6079 45.7433 49.6709 45.774 49.6732 45.7767C49.436 45.9138 52.7114 46.0403 51.6273 46.1738C51.5451 46.1842 49.496 46.1773 49.4623 46.1789C48.6038 46.2147 54.0518 46.1865 55.8753 46.2115C51.7172 46.2079 52.4701 46.2227 52.014 46.2479C51.7909 46.2601 50.1808 46.2535 50.016 46.2546C47.5705 46.2727 50.7292 46.2852 51.3754 46.2885C53.7523 46.3004 50.9438 46.3134 52.5326 46.3216C54.1095 46.3297 56.4473 46.311 56.4173 46.3352C54.9288 46.342 51.039 46.324 50.4086 46.3424C48.0239 46.4118 51.0759 46.5414 51.3929 46.5972C51.7097 46.6529 51.4351 46.6709 51.973 46.7033C52.9457 46.7619 50.0597 46.7405 48.7387 46.7769C47.4178 46.8134 54.5188 46.7956 56.0453 46.8009C57.5711 46.806 56.0004 46.8116 56.8392 46.818C57.6778 46.8244 58.7157 46.8106 59.0306 46.8256C59.3452 46.8407 56.6307 46.8817 55.0345 46.8871C51.653 46.8983 48.1039 46.8798 49.351 46.9196C49.425 46.9219 51.2921 46.9145 51.4808 46.9232C52.9183 46.9928 53.0073 47.065 54.2787 47.1345C54.4564 47.1441 56.5336 47.1355 56.6605 47.1411C57.9891 47.199 54.4867 47.1783 50.5961 47.21C55.7737 47.2029 58.9414 47.2205 58.972 47.2644C58.9922 47.2908 56.7309 47.2863 55.1371 47.3034C54.6566 47.3085 56.2093 47.3272 55.1459 47.3306C51.6695 47.3417 47.7779 47.3241 49.3275 47.3694C49.4012 47.3714 51.3041 47.3651 51.4193 47.372C52.1736 47.4164 48.5374 47.4217 48.0971 47.4697C47.7515 47.5073 49.9688 47.5742 50.3295 47.617C56.1507 47.6161 54.8177 47.6566 50.8041 47.673C50.9684 47.7008 50.7415 47.7308 51.2963 47.7577C51.4854 47.767 53.1708 47.7609 53.3529 47.7621C56.2096 47.7799 52.3048 47.792 52.1517 47.798C50.6636 47.8631 53.6231 47.9161 50.7308 47.9781C50.6267 47.9803 46.5831 47.9839 49.5355 48.0005C49.739 48.0016 51.5788 47.9811 51.7211 48.0103C51.8637 48.0395 54.0313 48.0945 52.1576 48.135C51.7065 48.1449 48.4239 48.1697 50.9886 48.1896C51.3369 48.1922 52.4966 48.1893 53.142 48.1932C55.1983 48.2056 51.1112 48.2123 54.5834 48.2269C58.0554 48.2414 60.6556 48.2717 58.2601 48.3126C58.1905 48.3139 54.9511 48.3236 55.0023 48.3364C55.0869 48.3569 55.7617 48.3861 55.7406 48.4075C55.7293 48.4178 53.7178 48.4112 53.681 48.413C52.5538 48.482 54.3471 48.5311 55.1253 48.605C55.272 48.6185 52.529 48.6575 54.6976 48.6837C57.0716 48.7125 66.9468 48.6829 64.5941 48.7491C63.653 48.7758 51.1245 48.8096 57.6156 48.8576C56.0071 48.9507 59.3292 49.0367 57.0326 49.1301C56.9308 49.1343 53.4342 49.1475 53.4818 49.1574C53.5592 49.1721 55.1935 49.1801 55.3011 49.1906C55.7934 49.2344 54.3952 49.2745 54.6127 49.3167C54.6917 49.3328 56.3815 49.3272 56.4759 49.3463C56.5688 49.3654 54.3436 49.3782 55.4183 49.4041C56.2375 49.4237 60.7856 49.4432 61.3158 49.4692C56.8295 49.4702 56.9219 49.488 55.7377 49.5197C55.5079 49.5258 53.9464 49.5193 53.7572 49.5222C52.9524 49.5339 54.2465 49.5448 53.3705 49.5559C53.1601 49.5586 51.628 49.5588 51.3695 49.561C49.1132 49.5798 52.5595 49.6109 53.1595 49.6162C55.4384 49.6366 53.4457 49.6462 54.3431 49.6618C55.2404 49.6775 56.3621 49.6541 56.9066 49.6724C58.0328 49.7103 57.7854 49.7589 57.8558 49.7974C57.8744 49.8128 55.8293 49.8023 55.7845 49.8045C55.2658 49.8362 57.4412 49.8683 53.3675 49.8859C63.9006 49.908 52.3459 49.9051 54.4545 49.9505C54.625 49.954 59.606 49.9586 60.3372 49.9449C61.0678 49.9311 59.5108 49.9103 60.6507 49.8913C60.9182 49.8868 65.5857 49.861 65.8685 49.8574C68.0782 49.8298 60.6347 49.8259 60.2259 49.8245C55.814 49.8079 60.8423 49.7763 61.1898 49.768C62.7818 49.73 61.735 49.6977 62.8714 49.6659C63.6059 49.6451 68.4816 49.643 68.3323 49.6267C67.8391 49.5724 61.0374 49.5535 66.9349 49.5023C68.1927 49.4913 73.5217 49.5022 69.3314 49.4629C69.0672 49.4605 65.2338 49.4313 67.6585 49.4144C67.9642 49.4123 69.5173 49.4124 69.6478 49.4096C70.4917 49.3908 69.2544 49.3784 69.847 49.358C70.4396 49.3376 71.323 49.3131 70.7962 49.2898C70.4812 49.2758 67.5876 49.2577 66.8792 49.251C64.8384 49.2321 68.1845 49.2117 65.7132 49.2C63.2295 49.1881 59.4576 49.2113 57.8529 49.1802C61.8879 49.1791 66.0293 49.1764 70.0872 49.1746C69.9451 49.1065 68.6404 49.0395 68.8187 48.9712C68.8448 48.9627 71.014 48.9714 71.098 48.9623C71.4426 48.924 69.8962 48.8906 70.512 48.8508C70.997 48.8201 73.2937 48.7864 73.8724 48.7542C69.2552 48.7346 70.8226 48.6869 70.4007 48.6522C70.2549 48.6401 69.0217 48.6409 68.6194 48.6322C67.1316 48.5997 71.2117 48.6149 71.8538 48.606C74.5942 48.5677 65.359 48.5644 65.5872 48.5192C65.5962 48.5169 70.5189 48.4876 70.8255 48.4836C72.8245 48.458 69.1121 48.4793 68.7484 48.4633C68.0837 48.4341 66.908 48.4137 68.3499 48.3794C68.777 48.3694 71.8453 48.3454 69.472 48.326C69.1612 48.3234 67.5341 48.3248 67.4388 48.3228C65.8504 48.2855 70.9631 48.2845 72.6946 48.2633C74.4258 48.242 70.8964 48.2091 69.8792 48.2024C67.2477 48.1849 68.7546 48.2158 68.4964 48.2168C65.4233 48.2279 65.9524 48.2039 65.6927 48.1856C60.6796 48.1829 60.9805 48.1573 65.4437 48.1666C65.9312 48.1677 65.4637 48.1819 65.6927 48.1856C70.6112 48.1695 71.2411 48.1413 66.6448 48.1102C64.4906 48.0957 61.9789 48.1094 62.8978 48.0652C63.3126 48.0451 66.7643 48.0529 67.7054 48.0352C69.8525 47.9947 66.6326 47.9421 67.14 47.9004C67.3241 47.8853 69.2136 47.9 69.4046 47.8897C69.9174 47.8622 68.4997 47.838 69.2259 47.8104C69.2941 47.8079 71.272 47.814 71.2972 47.8054C71.5269 47.7404 70.26 47.6838 70.2249 47.6159C70.2088 47.5831 71.2997 47.5245 71.0804 47.4905C70.7119 47.4316 67.8358 47.3591 68.5345 47.3088C68.9817 47.276 70.96 47.2832 72.3079 47.2692C74.9207 47.242 70.2406 47.194 69.5159 47.1875C69.4919 47.1873 69.0256 47.2156 68.0101 47.2005C65.8941 47.1917 69.5068 47.1879 69.5159 47.1875C69.0478 47.1833 68.5987 47.1269 68.9769 47.1157C69.1835 47.1096 71.0579 47.113 71.1302 47.1098C72.8075 47.0344 73.2839 46.9589 72.4075 46.8824C72.3697 46.881 70.2731 46.883 70.2103 46.8799C69.2781 46.8356 71.8428 46.8072 73.3655 46.7707C74.8876 46.7342 74.3778 46.7052 70.7786 46.6836C71.2318 46.656 69.6406 46.6165 68.6751 46.5938C67.7096 46.571 71.7907 46.5678 71.8714 46.5658C74.4537 46.5034 72.1177 46.4673 71.7542 46.4026C71.5744 46.3718 72.1663 46.3107 72.6126 46.2773C72.9721 46.251 72.0157 46.2351 72.6272 46.2108C72.7089 46.2076 74.526 46.2109 74.596 46.2099C76.7701 46.1828 72.3278 46.1958 71.5345 46.1902C68.6494 46.1699 67.1128 46.1574 68.47 46.1227C68.7809 46.1147 75.177 46.0914 75.5511 46.0768C76.0257 46.0578 73.733 46.065 74.2884 46.0451C74.3338 46.0434 75.7482 46.0438 75.6858 46.0315C75.4149 45.9746 74.5919 45.9126 74.7337 45.8534C74.7476 45.8454 76.9911 45.8557 77.0481 45.844C77.3141 45.7893 77.231 45.7293 76.1809 45.6759C75.9154 45.6628 74.3446 45.671 73.8782 45.6682C71.0562 45.6507 75.1565 45.6258 75.2347 45.6217C77.2051 45.5241 73.4943 45.4493 75.261 45.3497C75.3647 45.3443 79.7604 45.3026 75.9905 45.284C75.7397 45.2827 71.8827 45.2643 74.5198 45.248C74.6848 45.247 76.6704 45.2585 76.4681 45.2385C76.2661 45.2185 77.5921 45.1862 75.4104 45.1587C74.7232 45.15 70.8757 45.1294 73.9427 45.1034C74.1568 45.1017 81.0916 45.0616 76.3069 45.0473C75.5193 45.0449 70.456 45.0474 73.052 45.0163C73.5553 45.0104 74.6847 45.0212 75.3899 45.0056C76.4768 44.9816 75.1207 44.9499 77.3763 44.9205C77.7756 44.9154 81.2122 44.8936 78.6038 44.8761C78.1953 44.8733 76.5049 44.8785 76.3157 44.8693C75.4083 44.8253 76.539 44.7792 75.3694 44.7346C74.9585 44.7188 72.2258 44.7269 71.4935 44.7104C70.7614 44.6939 70.0572 44.6607 71.306 44.6434C72.5553 44.6261 76.9106 44.645 77.2591 44.6191C78.7727 44.5067 76.2178 44.3954 75.844 44.2832C75.7882 44.2665 77.3467 44.2803 77.3763 44.2558C77.4922 44.1654 78.9534 44.0092 75.6419 43.9307C72.9895 43.8679 70.9703 43.947 69.8909 43.8989C69.376 43.8757 74.4395 43.8507 74.5989 43.8451C76.2182 43.7904 73.9752 43.7524 74.6634 43.7032C74.8062 43.693 76.8584 43.703 76.9573 43.6943C77.3132 43.6648 76.3972 43.6337 76.5647 43.6055C76.6446 43.5928 78.2121 43.5952 78.0911 43.5835C77.8197 43.5556 77.1608 43.531 75.6917 43.5038C75.5578 43.5013 73.608 43.518 73.5354 43.4974C73.4236 43.464 71.9743 43.4225 73.471 43.3841C73.9212 43.3727 77.5036 43.3723 75.0296 43.3478C74.5129 43.3426 70.2112 43.3492 73.928 43.3207C74.5457 43.3159 79.559 43.2679 76.3274 43.2444C75.4769 43.2382 71.9569 43.2223 72.5101 43.2086C72.5983 43.2068 74.5226 43.2142 74.7102 43.2029C75.3382 43.1628 75.1329 43.1209 75.7356 43.0798C75.9004 43.0688 77.8916 43.0851 78.0735 43.0688C78.5768 43.0237 78.0698 42.9676 77.4466 42.9235C77.213 42.9073 75.5636 42.9185 75.3841 42.9173C72.4645 42.8984 76.4053 42.8871 76.635 42.8808C78.011 42.8416 76.1598 42.8118 76.6497 42.7757C76.7799 42.7657 78.6589 42.7728 78.8264 42.7708C80.4635 42.7502 77.089 42.7655 76.7171 42.7525C75.6638 42.716 75.8149 42.6753 76.055 42.6384C76.1459 42.6248 78.3247 42.6401 78.3811 42.6279C78.7566 42.5559 78.5481 42.481 77.347 42.4108C77.1168 42.3975 75.4391 42.4059 75.056 42.4031C72.375 42.3841 76.0318 42.3562 76.3802 42.3498C77.9707 42.3207 76.487 42.3094 76.764 42.2836C78.1427 42.1579 77.1601 42.0026 76.553 41.8839C75.7717 41.7292 74.1757 41.6092 74.5901 41.4617C74.6144 41.4524 76.8462 41.4618 76.8958 41.4537C77.4338 41.3494 76.5617 41.2467 77.2063 41.1421C77.2553 41.1336 79.3711 41.1459 79.5208 41.1322C79.8426 41.1039 79.7276 41.0681 79.052 41.0396C78.7265 41.0257 76.9109 41.0443 76.6204 41.0303C75.9397 40.9977 75.789 40.9627 76.1282 40.9292C76.2772 40.9149 78.4411 40.9364 78.4661 40.9179C78.6808 40.7915 79.0535 40.6675 76.2513 40.5398C76.0588 40.531 71.6608 40.5234 72.5042 40.5047C73.7248 40.5033 75.1605 40.5034 76.4651 40.5028C77.1679 40.3189 75.6432 40.1369 75.4075 39.9524C75.3981 39.9446 77.7284 39.9581 77.722 39.943C77.6875 39.8559 78.3331 39.7713 76.0169 39.6822C75.7904 39.6733 71.6908 39.6778 72.3108 39.6518C72.424 39.6472 72.9707 39.6079 73.8606 39.5978C73.9949 39.5964 75.9084 39.6036 75.9642 39.5909C76.2547 39.5174 75.8179 39.4404 74.6487 39.367C74.4564 39.3552 72.4186 39.3678 72.264 39.3594C71.1823 39.2995 72.7313 39.2345 70.8812 39.1773C69.6354 39.139 66.113 39.1532 62.6458 39.1329C62.1567 39.13 62.0791 39.1063 60.0619 39.1051C54.9892 39.1019 49.4347 39.1134 44.0277 39.1087C42.8631 39.1077 44.1175 39.076 41.3031 39.0947C41.1148 39.0961 40.1807 39.1191 39.226 39.1247C38.5659 39.1287 36.5143 39.1216 35.6694 39.1296C34.8252 39.1377 36.5449 39.1465 35.5522 39.1599C34.5471 39.1732 32.2132 39.1673 31.9369 39.194ZM64.3597 46.4913C62.3998 46.4703 69.5781 46.4672 67.8607 46.4899C67.7691 46.4911 64.4558 46.4924 64.3597 46.4913ZM63.2259 49.0399C60.0598 49.0124 64.7153 48.9935 67.1605 49.0129C69.6031 49.0324 64.1857 49.0483 63.2259 49.0399ZM60.9144 49.3255C58.4181 49.2933 68.5971 49.2882 66.5394 49.3227C66.4231 49.3247 61.0593 49.3273 60.9144 49.3255ZM61.6585 39.2272C61.5632 39.2269 61.4703 39.2098 61.5648 39.2094C63.8446 39.2004 64.0288 39.2344 61.6585 39.2272ZM58.3978 49.6088C57.0209 49.5988 58.6104 49.5698 60.3226 49.5823C61.7 49.5924 60.1106 49.6213 58.3978 49.6088ZM56.6986 45.3925C56.5916 45.3922 56.4953 45.38 57.1 45.3802C59.0474 45.3811 58.4978 45.3981 56.6986 45.3925ZM58.2806 50.0904C57.8975 50.0193 49.4891 49.9761 50.4379 50.0536C50.6095 50.0676 53.1192 50.0234 53.8773 50.0412C55.2584 50.0739 49.9789 50.0956 52.808 50.129C53.3258 50.135 58.3212 50.0945 58.2923 50.0903C58.2884 50.0903 58.2845 50.0904 58.2806 50.0904ZM55.7377 46.4792C55.6427 46.4788 55.5527 46.4619 55.6468 46.4615C57.9257 46.4523 58.1084 46.4864 55.7377 46.4792ZM52.2601 44.68C52.0579 44.679 51.8687 44.6398 52.055 44.6385C55.7817 44.618 56.1752 44.6974 52.2601 44.68ZM50.4847 47.6177C48.1922 47.6362 47.9222 47.6582 50.8011 47.6729C50.6483 47.6546 50.6258 47.6362 50.4847 47.6177Z" fill="#4F3430"/>
</g>
<g id="Vector 10_2" filter="url(#filter6_n_772_9087)">
<path d="M31.5361 39.5315C30.9108 39.4696 31.5794 39.3885 32.497 39.3269C32.7816 39.3076 34.0538 39.3174 34.3075 39.304C34.8022 39.2779 34.1783 39.2536 34.7675 39.2279C34.969 39.2193 36.9842 39.23 37.1493 39.221C38.0399 39.1719 37.5266 39.1255 37.955 39.0758C40.0684 38.8309 40.8249 38.5902 41.7431 38.3423C42.0441 38.2606 43.8729 38.1612 43.0731 38.0768C42.978 38.0669 41.2092 38.0728 41.0634 38.071C38.8316 38.0415 42.4024 38.0513 42.8769 38.0321C44.7501 37.9559 44.913 37.8712 44.2304 37.7978C43.9348 37.7666 40.4215 37.7979 42.3935 37.7665C42.5267 37.7643 44.405 37.7722 44.6054 37.7637C45.0559 37.7443 44.7202 37.7074 44.869 37.6924C45.1654 37.6634 45.1465 37.6586 45.1679 37.6312C45.2135 37.5937 46.1472 37.5491 45.7216 37.5089C45.6251 37.5004 43.6996 37.5117 43.372 37.498C43.0448 37.4843 43.2081 37.4481 43.662 37.4359C44.1161 37.4236 45.6296 37.4288 45.9765 37.4267C48.9044 37.4089 44.8492 37.367 44.7489 37.3616C43.0401 37.2632 45.3502 37.1789 45.3436 37.0865C45.3337 37.0165 44.5711 36.9415 44.6757 36.8748C44.8077 36.7954 45.8511 36.728 45.6718 36.6508C45.6551 36.6427 43.3911 36.6522 43.3661 36.6423C43.1027 36.5366 43.3494 36.4316 44.8778 36.3264C45.0331 36.3158 47.0208 36.3294 47.2948 36.3189C48.9284 36.2543 52.8526 36.1521 44.1981 36.1138C44.5361 36.0701 44.8852 36.017 46.6298 35.9778C47.7526 35.9526 49.918 35.9771 48.994 35.9461C48.7881 35.9391 46.8918 35.9482 46.7264 35.9378C46.0322 35.8936 46.6487 35.8454 45.6688 35.8018C45.4651 35.7929 43.7658 35.7953 43.4599 35.7928C40.9818 35.7716 45.0782 35.7364 45.3759 35.7288C47.5956 35.6703 46.7221 35.6277 46.7763 35.5732C46.7898 35.5606 44.5073 35.5755 44.4384 35.5634C44.1112 35.5003 44.3074 35.435 45.3202 35.3733C45.551 35.3596 47.4952 35.3722 47.705 35.3656C48.6062 35.3367 44.934 35.3303 45.7274 35.3025C45.89 35.2967 47.5544 35.3 47.7372 35.2989C50.6067 35.2822 46.5408 35.2677 46.4511 35.2634C45.2245 35.2091 49.4691 35.1743 48.868 35.1219C48.7919 35.1156 46.6859 35.1297 46.6005 35.1121C46.0191 34.9945 46.5976 34.8701 48.2821 34.7537C48.5412 34.7356 50.1232 34.7485 50.3182 34.7474C53.3655 34.7288 49.2825 34.7168 49.1288 34.7109C48.022 34.6644 51.4459 34.6209 46.5829 34.5892C48.2705 34.3921 45.5397 34.1958 49.8964 34.0003C49.9468 33.9978 51.9577 34.0022 52.0497 33.9973C53.1787 33.9376 50.0535 33.949 46.2313 33.9095C45.2716 33.8996 49.8862 33.8693 50.2245 33.8666C51.471 33.8568 54.4626 33.867 54.704 33.8637C56.5996 33.8366 46.7062 33.841 46.703 33.8046C46.7195 33.8034 48.5405 33.8082 48.7216 33.8051C49.29 33.7956 48.5664 33.7862 49.1932 33.7769C50.6437 33.7556 55.451 33.748 52.6532 33.7154C52.2901 33.7113 46.6781 33.7176 46.9432 33.685C47.0537 33.672 46.9575 33.6145 47.3212 33.5984C47.6844 33.5823 49.4929 33.5934 49.5712 33.5922C51.9625 33.5489 52.9536 33.5653 56.494 33.5436C60.021 33.5219 51.6087 33.5279 50.6698 33.519C49.7335 33.5102 51.7066 33.4784 52.3924 33.4706C53.0786 33.4628 54.2278 33.4725 54.6161 33.4656C57.1531 33.4195 50.4405 33.4453 49.1053 33.4302C45.9439 33.3944 52.1825 33.3666 52.7938 33.3338C52.9589 33.3249 51.538 33.3322 51.4051 33.3243C50.8977 33.293 52.8443 33.2743 51.0594 33.2387C50.7686 33.2329 47.0178 33.2042 49.7704 33.1856C50.1673 33.1829 51.7219 33.1904 52.0702 33.1771C52.5928 33.1572 52.9326 33.1214 52.413 33.1C52.0285 33.0842 49.4668 33.1023 50.2626 33.0824C50.6179 33.0736 52.1165 33.0899 52.659 33.0734C53.2014 33.0569 53.1356 33.0147 53.0839 32.9986C53.031 32.9826 51.0878 32.9913 50.9569 32.99C50.207 32.9822 49.27 32.9514 49.2723 32.9487C49.0351 32.8116 52.3105 32.6852 51.2264 32.5517C51.1442 32.5412 49.0951 32.5482 49.0614 32.5466C48.2029 32.5107 53.6509 32.539 55.4745 32.514C51.3163 32.5176 52.0692 32.5028 51.6132 32.4775C51.39 32.4653 49.7799 32.472 49.6151 32.4709C47.1696 32.4528 50.3283 32.4402 50.9745 32.437C53.3515 32.425 50.5429 32.412 52.1317 32.4039C53.7086 32.3958 56.0464 32.4145 56.0165 32.3903C54.528 32.3835 50.6381 32.4014 50.0077 32.3831C47.6231 32.3136 50.675 32.1841 50.9921 32.1283C51.3088 32.0726 51.0342 32.0546 51.5721 32.0222C52.5448 31.9635 49.6588 31.985 48.3378 31.9486C47.0169 31.9121 54.1179 31.9299 55.6444 31.9246C57.1702 31.9195 55.5995 31.9138 56.4383 31.9074C57.2769 31.901 58.3148 31.9149 58.6297 31.8998C58.9443 31.8848 56.2298 31.8437 54.6337 31.8384C51.2521 31.8271 47.703 31.8456 48.9501 31.8059C49.0241 31.8036 50.8912 31.811 51.08 31.8023C52.5174 31.7327 52.6065 31.6604 53.8778 31.591C54.0555 31.5814 56.1327 31.5899 56.2596 31.5844C57.5882 31.5265 54.0859 31.5472 50.1952 31.5154C55.3728 31.5226 58.5406 31.505 58.5711 31.4611C58.5913 31.4346 56.33 31.4392 54.7362 31.4221C54.2557 31.417 55.8085 31.3983 54.745 31.3949C51.2686 31.3837 47.3771 31.4013 48.9266 31.356C49.0003 31.354 50.9032 31.3604 51.0184 31.3535C51.7727 31.3091 48.1365 31.3038 47.6962 31.2558C47.3506 31.2182 49.568 31.1513 49.9286 31.1084C55.7498 31.1093 54.4168 31.0689 50.4032 31.0524C50.5675 31.0246 50.3406 30.9946 50.8954 30.9677C51.0845 30.9585 52.7699 30.9646 52.952 30.9634C55.8087 30.9455 51.9039 30.9334 51.7508 30.9274C50.2628 30.8624 53.2223 30.8094 50.33 30.7473C50.2258 30.7451 46.1822 30.7416 49.1346 30.725C49.3382 30.7239 51.1779 30.7444 51.3202 30.7152C51.4628 30.686 53.6304 30.631 51.7567 30.5904C51.3056 30.5806 48.0231 30.5558 50.5878 30.5359C50.936 30.5332 52.0957 30.5361 52.7411 30.5323C54.7974 30.5199 50.7103 30.5132 54.1825 30.4986C57.6545 30.484 60.2548 30.4538 57.8592 30.4129C57.7896 30.4116 54.5502 30.4019 54.6014 30.3891C54.686 30.3685 55.3608 30.3394 55.3397 30.318C55.3284 30.3077 53.3169 30.3143 53.2801 30.3125C52.153 30.2435 53.9462 30.1944 54.7245 30.1205C54.8711 30.1069 52.1281 30.068 54.2967 30.0418C56.6707 30.0129 66.5459 30.0425 64.1932 29.9763C63.2522 29.9496 50.7237 29.9158 57.2147 29.8679C55.6063 29.7748 58.9284 29.6887 56.6317 29.5954C56.5299 29.5912 53.0333 29.5779 53.0809 29.5681C53.1583 29.5534 54.7926 29.5454 54.9003 29.5349C55.3925 29.4911 53.9943 29.451 54.2118 29.4087C54.2908 29.3927 55.9806 29.3983 56.0751 29.3792C56.1679 29.36 53.9428 29.3473 55.0174 29.3214C55.8366 29.3018 60.3847 29.2822 60.9149 29.2563C56.4286 29.2553 56.521 29.2374 55.3368 29.2057C55.107 29.1996 53.5455 29.2062 53.3563 29.2033C52.5515 29.1915 53.8456 29.1807 52.9696 29.1695C52.7592 29.1668 51.2271 29.1667 50.9686 29.1645C48.7123 29.1457 52.1586 29.1146 52.7587 29.1093C55.0375 29.0888 53.0448 29.0793 53.9422 29.0636C54.8395 29.048 55.9612 29.0714 56.5057 29.0531C57.632 29.0152 57.3845 28.9665 57.4549 28.928C57.4736 28.9127 55.4285 28.9232 55.3836 28.921C54.865 28.8892 57.0403 28.8571 52.9667 28.8395C63.4997 28.8175 51.945 28.8204 54.0536 28.775C54.2241 28.7714 59.2051 28.7669 59.9364 28.7806C60.6669 28.7943 59.11 28.8151 60.2498 28.8342C60.5174 28.8387 65.1849 28.8645 65.4676 28.868C67.6773 28.8956 60.2339 28.8995 59.825 28.901C55.4131 28.9176 60.4415 28.9491 60.7889 28.9574C62.3809 28.9955 61.3342 29.0278 62.4705 29.0596C63.205 29.0804 68.0807 29.0824 67.9315 29.0987C67.4382 29.153 60.6365 29.172 66.534 29.2232C67.7918 29.2341 73.1208 29.2232 68.9305 29.2625C68.6663 29.265 64.8329 29.2942 67.2576 29.3111C67.5634 29.3132 69.1164 29.3131 69.2469 29.3159C70.0908 29.3346 68.8535 29.3471 69.4461 29.3675C70.0387 29.3879 70.9221 29.4124 70.3953 29.4357C70.0803 29.4497 67.1868 29.4677 66.4783 29.4744C64.4376 29.4934 67.7836 29.5137 65.3123 29.5255C62.8286 29.5373 59.0568 29.5142 57.452 29.5452C61.487 29.5464 65.6285 29.549 69.6863 29.5509C69.5443 29.619 68.2395 29.686 68.4178 29.7543C68.4439 29.7627 70.6131 29.7541 70.6971 29.7631C71.0417 29.8015 69.4953 29.8349 70.1111 29.8746C70.5961 29.9054 72.8929 29.9391 73.4715 29.9712C68.8543 29.9909 70.4217 30.0386 69.9998 30.0733C69.854 30.0854 68.6209 30.0846 68.2186 30.0932C66.7307 30.1258 70.8108 30.1105 71.4529 30.1195C74.1933 30.1578 64.9582 30.1611 65.1864 30.2062C65.1953 30.2086 70.1181 30.2379 70.4246 30.2419C72.4236 30.2675 68.7112 30.2461 68.3475 30.2622C67.6828 30.2914 66.5072 30.3117 67.949 30.3461C68.3761 30.3561 71.4444 30.3801 69.0711 30.3995C68.7603 30.4021 67.1332 30.4006 67.0379 30.4027C65.4495 30.4399 70.5622 30.4409 72.2938 30.4622C74.0249 30.4835 70.4955 30.5164 69.4783 30.5231C66.8469 30.5406 68.3537 30.5097 68.0955 30.5087C65.0224 30.4976 65.5515 30.5216 65.2918 30.5399C60.2788 30.5425 60.5797 30.5682 65.0428 30.5589C65.5303 30.5578 65.0628 30.5436 65.2918 30.5399C70.2103 30.556 70.8402 30.5841 66.244 30.6152C64.0898 30.6298 61.5781 30.616 62.4969 30.6602C62.9117 30.6803 66.3634 30.6726 67.3045 30.6903C69.4517 30.7307 66.2317 30.7833 66.7391 30.8251C66.9233 30.8402 68.8127 30.8254 69.0037 30.8358C69.5165 30.8633 68.0988 30.8875 68.825 30.9151C68.8932 30.9176 70.8711 30.9114 70.8963 30.92C71.126 30.985 69.8591 31.0417 69.824 31.1096C69.808 31.1424 70.8988 31.201 70.6795 31.235C70.3111 31.2939 67.4349 31.3663 68.1336 31.4166C68.5808 31.4494 70.5591 31.4422 71.907 31.4563C74.5198 31.4834 69.8397 31.5315 69.1151 31.5379C69.0911 31.5381 68.6247 31.5099 67.6092 31.525C65.4932 31.5337 69.1059 31.5376 69.1151 31.5379C68.6469 31.5422 68.1978 31.5986 68.576 31.6098C68.7827 31.6159 70.657 31.6125 70.7293 31.6156C72.4066 31.6911 72.883 31.7666 72.0066 31.8431C71.9688 31.8445 69.8722 31.8424 69.8094 31.8456C68.8772 31.8899 71.4419 31.9182 72.9646 31.9548C74.4867 31.9913 73.9769 32.0202 70.3777 32.0419C70.8309 32.0694 69.2397 32.1089 68.2742 32.1317C67.3088 32.1544 71.3898 32.1576 71.4705 32.1596C74.0528 32.2221 71.7169 32.2581 71.3533 32.3229C71.1735 32.3537 71.7654 32.4148 72.2117 32.4481C72.5712 32.4745 71.6148 32.4903 72.2264 32.5146C72.308 32.5179 74.1252 32.5146 74.1951 32.5156C76.3692 32.5427 71.927 32.5297 71.1336 32.5353C68.2485 32.5555 66.7119 32.5681 68.0692 32.6028C68.38 32.6108 74.7761 32.6341 75.1502 32.6487C75.6248 32.6677 73.3321 32.6605 73.8875 32.6804C73.9329 32.6821 75.3473 32.6817 75.285 32.694C75.0141 32.7509 74.1911 32.8129 74.3328 32.872C74.3467 32.8801 76.5902 32.8698 76.6473 32.8814C76.9132 32.9362 76.8302 32.9962 75.7801 33.0496C75.5145 33.0627 73.9437 33.0545 73.4773 33.0573C70.6553 33.0748 74.7557 33.0996 74.8338 33.1037C76.8042 33.2014 73.0934 33.2762 74.8601 33.3757C74.9639 33.3811 79.3595 33.4229 75.5896 33.4415C75.3388 33.4427 71.4818 33.4611 74.1189 33.4774C74.2839 33.4784 76.2696 33.467 76.0672 33.487C75.8652 33.507 77.1912 33.5392 75.0096 33.5668C74.3223 33.5755 70.4748 33.5961 73.5418 33.6221C73.7559 33.6238 80.6907 33.6639 75.906 33.6782C75.1184 33.6805 70.0552 33.6781 72.6512 33.7091C73.1545 33.715 74.2838 33.7043 74.9891 33.7199C76.076 33.7438 74.7198 33.7755 76.9754 33.8049C77.3747 33.8101 80.8113 33.8319 78.2029 33.8494C77.7944 33.8522 76.104 33.8469 75.9148 33.8562C75.0074 33.9002 76.1381 33.9462 74.9685 33.9909C74.5576 34.0067 71.8249 33.9986 71.0926 34.0151C70.3605 34.0316 69.6563 34.0648 70.9051 34.0821C72.1544 34.0993 76.5097 34.0805 76.8582 34.1063C78.3718 34.2187 75.8169 34.3301 75.4432 34.4423C75.3873 34.4589 76.9458 34.4451 76.9754 34.4697C77.0913 34.5601 78.5525 34.7163 75.241 34.7947C72.5887 34.8576 70.5694 34.7785 69.49 34.8265C68.9752 34.8497 74.0386 34.8748 74.198 34.8804C75.8173 34.9351 73.5743 34.9731 74.2625 35.0223C74.4053 35.0325 76.4576 35.0225 76.5564 35.0311C76.9123 35.0607 75.9963 35.0917 76.1639 35.12C76.2437 35.1326 77.8112 35.1303 77.6902 35.1419C77.4188 35.1698 76.7599 35.1945 75.2908 35.2217C75.1569 35.2242 73.2071 35.2074 73.1346 35.2281C73.0227 35.2615 71.5735 35.3029 73.0701 35.3413C73.5203 35.3527 77.1027 35.3532 74.6287 35.3777C74.112 35.3828 69.8103 35.3763 73.5271 35.4048C74.1448 35.4096 79.1581 35.4575 75.9266 35.4811C75.076 35.4873 71.556 35.5031 72.1092 35.5168C72.1975 35.5187 74.1217 35.5112 74.3094 35.5226C74.9374 35.5626 74.7321 35.6046 75.3348 35.6457C75.4995 35.6567 77.4907 35.6403 77.6726 35.6567C78.1759 35.7017 77.6689 35.7579 77.0457 35.8019C76.8121 35.8182 75.1627 35.8069 74.9832 35.8081C72.0636 35.8271 76.0044 35.8383 76.2342 35.8446C77.6101 35.8838 75.759 35.9137 76.2488 35.9498C76.379 35.9598 78.258 35.9527 78.4256 35.9547C80.0626 35.9753 76.6882 35.9599 76.3162 35.973C75.263 36.0095 75.414 36.0501 75.6541 36.0871C75.745 36.1006 77.9238 36.0854 77.9803 36.0975C78.3557 36.1696 78.1472 36.2444 76.9461 36.3147C76.716 36.3279 75.0383 36.3196 74.6551 36.3224C71.9742 36.3414 75.6309 36.3692 75.9793 36.3756C77.5698 36.4048 76.0862 36.4161 76.3631 36.4419C77.7418 36.5676 76.7592 36.7229 76.1521 36.8415C75.3708 36.9962 73.7748 37.1162 74.1893 37.2637C74.2135 37.2731 76.4454 37.2637 76.4949 37.2717C77.0329 37.3761 76.1608 37.4788 76.8055 37.5833C76.8544 37.5919 78.9702 37.5795 79.1199 37.5933C79.4417 37.6215 79.3267 37.6573 78.6512 37.6859C78.3256 37.6998 76.5101 37.6811 76.2195 37.6951C75.5388 37.7278 75.3881 37.7628 75.7273 37.7963C75.8763 37.8106 78.0402 37.789 78.0652 37.8076C78.2799 37.9339 78.6526 38.058 75.8504 38.1857C75.6579 38.1944 71.2599 38.2021 72.1033 38.2207C73.3239 38.2221 74.7596 38.222 76.0642 38.2227C76.767 38.4066 75.2424 38.5886 75.0066 38.773C74.9972 38.7808 77.3275 38.7674 77.3211 38.7824C77.2866 38.8696 77.9322 38.9542 75.616 39.0433C75.3895 39.0522 71.2899 39.0476 71.91 39.0737C72.0231 39.0783 72.5698 39.1175 73.4598 39.1277C73.594 39.1291 75.5075 39.1219 75.5633 39.1345C75.8538 39.208 75.417 39.2851 74.2478 39.3584C74.0555 39.3703 72.0178 39.3577 71.8631 39.3661C70.7814 39.4259 72.3304 39.491 70.4803 39.5482C69.2345 39.5864 65.7122 39.5723 62.245 39.5926C61.7558 39.5955 61.6783 39.6192 59.661 39.6204C54.5883 39.6235 49.0338 39.6121 43.6269 39.6168C42.4622 39.6178 43.7166 39.6495 40.9022 39.6307C40.7139 39.6294 39.7798 39.6064 38.8251 39.6007C38.165 39.5968 36.1134 39.6039 35.2685 39.5958C34.4243 39.5878 36.144 39.579 35.1513 39.5656C34.1462 39.5523 31.8123 39.5581 31.5361 39.5315ZM63.9588 32.2341C61.9989 32.2552 69.1772 32.2583 67.4598 32.2355C67.3682 32.2344 64.055 32.233 63.9588 32.2341ZM62.825 29.6856C59.6589 29.7131 64.3144 29.7319 66.7596 29.7125C69.2022 29.6931 63.7848 29.6772 62.825 29.6856ZM60.5135 29.4C58.0172 29.4322 68.1962 29.4373 66.1385 29.4028C66.0222 29.4008 60.6585 29.3981 60.5135 29.4ZM61.2577 39.4983C61.1623 39.4986 61.0694 39.5156 61.1639 39.516C63.4437 39.5251 63.6279 39.491 61.2577 39.4983ZM57.9969 29.1166C56.62 29.1267 58.2095 29.1556 59.9217 29.1431C61.2992 29.1331 59.7098 29.1041 57.9969 29.1166ZM56.2977 33.3329C56.1907 33.3333 56.0944 33.3455 56.6991 33.3452C58.6465 33.3444 58.0969 33.3274 56.2977 33.3329ZM57.8797 28.635C57.4966 28.7062 49.0882 28.7493 50.037 28.6718C50.2087 28.6578 52.7184 28.7021 53.4764 28.6842C54.8575 28.6515 49.5781 28.6298 52.4071 28.5965C52.9249 28.5905 57.9203 28.631 57.8915 28.6352C57.8875 28.6351 57.8836 28.6351 57.8797 28.635ZM55.3368 32.2463C55.2419 32.2467 55.1518 32.2636 55.246 32.264C57.5248 32.2731 57.7075 32.2391 55.3368 32.2463ZM51.8592 34.0455C51.657 34.0464 51.4678 34.0857 51.6542 34.0869C55.3808 34.1074 55.7743 34.0281 51.8592 34.0455ZM50.0839 31.1077C47.7913 31.0893 47.5213 31.0672 50.4003 31.0525C50.2474 31.0709 50.2249 31.0893 50.0839 31.1077Z" fill="#4F3430"/>
</g>
<g id="Vector 11" filter="url(#filter7_n_772_9087)">
<path d="M24.4342 37.7203C23.5745 37.7822 24.4938 37.8633 25.7555 37.9249C26.1469 37.9442 27.8961 37.9344 28.245 37.9478C28.9252 37.9739 28.0672 37.9982 28.8775 38.0239C29.1545 38.0325 31.9254 38.0218 32.1525 38.0308C33.377 38.0799 32.6713 38.1263 33.2603 38.176C36.1662 38.4209 37.2064 38.6616 38.4689 38.9095C38.8828 38.9912 41.3974 39.0906 40.2977 39.175C40.1668 39.1849 37.7347 39.179 37.5343 39.1809C34.4656 39.2103 39.3755 39.2005 40.0278 39.2197C42.6035 39.2959 42.8275 39.3806 41.8889 39.454C41.4824 39.4852 36.6517 39.4539 39.3631 39.4853C39.5463 39.4875 42.1291 39.4796 42.4045 39.4881C43.0241 39.5075 42.5624 39.5444 42.7671 39.5594C43.1745 39.5884 43.1485 39.5932 43.178 39.6206C43.2407 39.6581 44.5245 39.7027 43.9393 39.7429C43.8067 39.7514 41.1591 39.7401 40.7086 39.7538C40.2588 39.7675 40.4833 39.8037 41.1074 39.8159C41.7318 39.8282 43.8128 39.823 44.2898 39.8251C48.3157 39.8429 42.7398 39.8848 42.6019 39.8902C40.2523 39.9886 43.4287 40.0729 43.4197 40.1653C43.406 40.2353 42.3574 40.3103 42.5012 40.377C42.6828 40.4564 44.1174 40.5238 43.8708 40.601C43.8478 40.6091 40.7349 40.5996 40.7005 40.6095C40.3383 40.7152 40.6776 40.8202 42.7791 40.9254C42.9926 40.936 45.7258 40.9224 46.1025 40.9329C48.3486 40.9975 53.7444 41.0997 41.8446 41.138C42.3093 41.1817 42.7894 41.2348 45.1881 41.274C46.7319 41.2992 49.7094 41.2747 48.4389 41.3057C48.1558 41.3127 45.5483 41.3036 45.321 41.314C44.3664 41.3582 45.214 41.4064 43.8668 41.45C43.5866 41.4589 41.2502 41.4565 40.8294 41.459C37.4221 41.4802 43.0547 41.5154 43.464 41.523C46.516 41.5815 45.315 41.6241 45.3895 41.6786C45.4081 41.6912 42.2697 41.6763 42.1749 41.6884C41.7251 41.7515 41.9948 41.8168 43.3874 41.8785C43.7047 41.8922 46.3781 41.8796 46.6665 41.8862C47.9056 41.9151 42.8564 41.9215 43.9474 41.9493C44.1709 41.9551 46.4594 41.9518 46.7108 41.9529C50.6563 41.9696 45.0658 41.9841 44.9424 41.9884C43.2559 42.0427 49.0921 42.0775 48.2657 42.1299C48.1609 42.1362 45.2652 42.1221 45.1478 42.1397C44.3484 42.2573 45.1439 42.3817 47.46 42.4981C47.8163 42.5162 49.9916 42.5033 50.2597 42.5044C54.4497 42.523 48.8356 42.535 48.6242 42.5409C47.1023 42.5874 51.8103 42.6309 45.1236 42.6626C47.4441 42.8597 43.6892 43.056 49.6796 43.2515C49.749 43.254 52.5139 43.2496 52.6404 43.2545C54.1929 43.3142 49.8958 43.3028 44.6402 43.3423C43.3205 43.3522 49.6657 43.3825 50.1308 43.3852C51.8448 43.395 55.9582 43.3848 56.2901 43.3881C58.8965 43.4152 45.2932 43.4108 45.2888 43.4472C45.3115 43.4484 47.8153 43.4436 48.0643 43.4467C48.8459 43.4562 47.8509 43.4656 48.7128 43.4749C50.7072 43.4962 57.3173 43.5038 53.4703 43.5364C52.971 43.5405 45.2546 43.5342 45.6191 43.5668C45.771 43.5798 45.6387 43.6373 46.1388 43.6534C46.6382 43.6695 49.1248 43.6584 49.2325 43.6596C52.5206 43.7029 53.8834 43.6865 58.7514 43.7082C63.6011 43.7299 52.0341 43.7239 50.7431 43.7328C49.4557 43.7416 52.1687 43.7734 53.1118 43.7812C54.0553 43.789 55.6353 43.7793 56.1692 43.7862C59.6576 43.8323 50.4278 43.8065 48.592 43.8216C44.245 43.8574 52.8231 43.8852 53.6636 43.918C53.8906 43.9269 51.9369 43.9196 51.7542 43.9275C51.0565 43.9588 53.7331 43.9775 51.2789 44.0131C50.879 44.0189 45.7216 44.0476 49.5064 44.0662C50.0522 44.0689 52.1898 44.0614 52.6686 44.0747C53.3873 44.0946 53.8545 44.1304 53.14 44.1518C52.6113 44.1676 49.089 44.1495 50.1832 44.1694C50.6718 44.1782 52.7323 44.1619 53.4783 44.1784C54.2241 44.1949 54.1336 44.2371 54.0624 44.2532C53.9897 44.2692 51.3179 44.2605 51.1379 44.2618C50.1068 44.2696 48.8184 44.3004 48.8216 44.3031C48.4954 44.4402 52.9991 44.5666 51.5085 44.7001C51.3954 44.7106 48.5779 44.7036 48.5316 44.7052C47.3511 44.7411 54.8422 44.7128 57.3495 44.7378C51.632 44.7342 52.6673 44.749 52.0402 44.7743C51.7334 44.7865 49.5196 44.7798 49.2929 44.7809C45.9303 44.799 50.2736 44.8116 51.1621 44.8148C54.4304 44.8268 50.5686 44.8398 52.7532 44.8479C54.9215 44.856 58.136 44.8373 58.0948 44.8615C56.0481 44.8683 50.6996 44.8504 49.8327 44.8687C46.5538 44.9382 50.7503 45.0677 51.1862 45.1235C51.6218 45.1792 51.2442 45.1972 51.9838 45.2297C53.3212 45.2883 49.353 45.2668 47.5366 45.3032C45.7204 45.3397 55.4842 45.3219 57.5832 45.3272C59.6812 45.3323 57.5215 45.338 58.6749 45.3444C59.8279 45.3508 61.2551 45.3369 61.688 45.352C62.1206 45.367 58.3881 45.4081 56.1934 45.4134C51.5438 45.4247 46.6638 45.4062 48.3785 45.4459C48.4803 45.4482 51.0476 45.4408 51.3071 45.4495C53.2835 45.5191 53.406 45.5914 55.1541 45.6608C55.3985 45.6704 58.2546 45.6619 58.4291 45.6674C60.2559 45.7253 55.4402 45.7046 50.0905 45.7364C57.2098 45.7292 61.5654 45.7468 61.6075 45.7907C61.6352 45.8172 58.5259 45.8126 56.3344 45.8297C55.6738 45.8348 57.8088 45.8535 56.3465 45.8569C51.5665 45.8681 46.2156 45.8505 48.3463 45.8958C48.4475 45.8978 51.064 45.8914 51.2225 45.8983C52.2597 45.9427 47.2599 45.948 46.6544 45.996C46.1793 46.0336 49.2281 46.1005 49.724 46.1434C57.7281 46.1425 55.8952 46.1829 50.3765 46.1994C50.6025 46.2272 50.2905 46.2572 51.0533 46.2841C51.3134 46.2933 53.6308 46.2872 53.8812 46.2884C57.8091 46.3063 52.4401 46.3184 52.2296 46.3244C50.1834 46.3894 54.2528 46.4424 50.2758 46.5045C50.1326 46.5067 44.5727 46.5102 48.6323 46.5268C48.9121 46.5279 51.4418 46.5074 51.6374 46.5366C51.8335 46.5658 54.814 46.6208 52.2376 46.6614C51.6174 46.6712 47.1038 46.696 50.6303 46.7159C51.1092 46.7186 52.7038 46.7157 53.5911 46.7195C56.4185 46.7319 50.7988 46.7386 55.5731 46.7532C60.3471 46.7678 63.9224 46.798 60.6286 46.8389C60.5328 46.8402 56.0787 46.8499 56.1491 46.8627C56.2654 46.8833 57.1932 46.9124 57.1642 46.9338C57.1487 46.9441 54.3829 46.9375 54.3323 46.9393C52.7825 47.0083 55.2482 47.0574 56.3183 47.1313C56.5199 47.1449 52.7483 47.1838 55.7302 47.21C58.9943 47.2389 72.5728 47.2093 69.3378 47.2755C68.0439 47.3022 50.8172 47.336 59.7424 47.384C57.5308 47.477 62.0986 47.5631 58.9407 47.6564C58.8008 47.6606 53.993 47.6739 54.0584 47.6837C54.1649 47.6984 56.412 47.7064 56.56 47.7169C57.2369 47.7607 55.3143 47.8008 55.6133 47.8431C55.722 47.8591 58.0455 47.8535 58.1753 47.8726C58.303 47.8918 55.2434 47.9045 56.7211 47.9304C57.8475 47.95 64.1012 47.9696 64.8301 47.9955C58.6615 47.9965 58.7886 48.0144 57.1602 48.0461C56.8443 48.0522 54.6973 48.0456 54.4371 48.0485C53.3305 48.0603 55.1099 48.0711 53.9053 48.0823C53.616 48.085 51.5094 48.0851 51.154 48.0873C48.0516 48.1061 52.7902 48.1372 53.6153 48.1425C56.7487 48.163 54.0088 48.1725 55.2427 48.1882C56.4765 48.2038 58.0188 48.1804 58.7675 48.1987C60.3161 48.2366 59.9759 48.2853 60.0727 48.3238C60.0983 48.3391 57.2863 48.3286 57.2247 48.3308C56.5115 48.3626 59.5026 48.3947 53.9013 48.4123C68.3842 48.4343 52.4965 48.4314 55.3958 48.4768C55.6303 48.4804 62.4792 48.4849 63.4847 48.4712C64.4892 48.4575 62.3483 48.4367 63.9157 48.4176C64.2835 48.4131 70.7013 48.3873 71.0901 48.3838C74.1284 48.3562 63.8937 48.3523 63.3316 48.3508C57.2651 48.3342 64.1791 48.3027 64.6569 48.2944C66.846 48.2563 65.4066 48.224 66.9691 48.1922C67.979 48.1714 74.6831 48.1694 74.4779 48.1531C73.7996 48.0988 64.4474 48.0798 72.5564 48.0286C74.2859 48.0177 81.6133 48.0286 75.8516 47.9893C75.4883 47.9868 70.2174 47.9576 73.5514 47.9407C73.9718 47.9386 76.1072 47.9387 76.2866 47.9359C77.447 47.9172 75.7457 47.9047 76.5605 47.8843C77.3753 47.8639 78.59 47.8394 77.8657 47.8161C77.4326 47.8021 73.4539 47.7841 72.4799 47.7774C69.6738 47.7584 74.2746 47.7381 70.8766 47.7263C67.4615 47.7145 62.2752 47.7376 60.0686 47.7066C65.6167 47.7054 71.3113 47.7028 76.8909 47.7009C76.6955 47.6328 74.9015 47.5658 75.1466 47.4975C75.1825 47.4891 78.1652 47.4977 78.2806 47.4887C78.7545 47.4503 76.6282 47.4169 77.475 47.3772C78.1418 47.3464 81.2998 47.3127 82.0954 47.2806C75.7469 47.2609 77.902 47.2132 77.3219 47.1785C77.1214 47.1664 75.4258 47.1672 74.8727 47.1586C72.8268 47.126 78.437 47.1413 79.3199 47.1323C83.088 47.094 70.3896 47.0907 70.7034 47.0456C70.7157 47.0432 77.4845 47.0139 77.906 47.0099C80.6546 46.9843 75.55 47.0057 75.0499 46.9896C74.136 46.9604 72.5195 46.9401 74.5021 46.9058C75.0893 46.8957 79.3082 46.8717 76.0449 46.8523C75.6176 46.8497 73.3803 46.8512 73.2493 46.8491C71.0652 46.8119 78.0952 46.8109 80.4761 46.7896C82.8564 46.7683 78.0035 46.7354 76.6048 46.7287C72.9866 46.7112 75.0585 46.7421 74.7035 46.7431C70.4779 46.7542 71.2054 46.7302 70.8484 46.7119C63.9554 46.7093 64.3692 46.6836 70.506 46.6929C71.1763 46.694 70.5335 46.7082 70.8484 46.7119C77.6113 46.6958 78.4775 46.6677 72.1576 46.6366C69.1956 46.622 65.742 46.6358 67.0054 46.5916C67.5757 46.5715 72.3219 46.5792 73.6158 46.5615C76.5682 46.5211 72.1408 46.4685 72.8384 46.4268C73.0916 46.4116 75.6897 46.4264 75.9523 46.416C76.6573 46.3885 74.708 46.3643 75.7065 46.3367C75.8003 46.3342 78.5199 46.3404 78.5545 46.3318C78.8704 46.2668 77.1285 46.2101 77.0802 46.1422C77.0581 46.1094 78.558 46.0508 78.2565 46.0168C77.7499 45.9579 73.7951 45.8855 74.7559 45.8352C75.3708 45.8024 78.091 45.8096 79.9443 45.7955C83.5369 45.7684 77.1018 45.7203 76.1053 45.7139C76.0724 45.7137 75.4311 45.7419 74.0348 45.7268C71.1253 45.7181 76.0927 45.7142 76.1053 45.7139C75.4616 45.7096 74.8441 45.6532 75.3641 45.642C75.6483 45.6359 78.2255 45.6393 78.3249 45.6362C80.6313 45.5607 81.2863 45.4852 80.0813 45.4087C80.0292 45.4073 77.1465 45.4094 77.06 45.4062C75.7783 45.3619 79.3048 45.3336 81.3985 45.297C83.4913 45.2605 82.7904 45.2316 77.8415 45.2099C78.4646 45.1824 76.2768 45.1429 74.9492 45.1201C73.6217 45.0974 79.2332 45.0942 79.3441 45.0922C82.8948 45.0298 79.6828 44.9937 79.183 44.9289C78.9357 44.8981 79.7496 44.837 80.3633 44.8037C80.8576 44.7773 79.5425 44.7615 80.3834 44.7372C80.4957 44.7339 82.9942 44.7372 83.0904 44.7362C86.0798 44.7091 79.9717 44.7221 78.8808 44.7165C74.9138 44.6963 72.801 44.6837 74.6672 44.649C75.0946 44.641 83.8893 44.6177 84.4037 44.6031C85.0562 44.5841 81.9039 44.5913 82.6674 44.5714C82.7299 44.5697 84.6747 44.5701 84.589 44.5578C84.2165 44.5009 83.0849 44.4389 83.2798 44.3798C83.2989 44.3717 86.3836 44.382 86.4621 44.3704C86.8278 44.3156 86.7136 44.2556 85.2697 44.2022C84.9046 44.1891 82.7448 44.1973 82.1035 44.1945C78.2232 44.177 83.8612 44.1522 83.9686 44.1481C86.6779 44.0504 81.5756 43.9756 84.0048 43.8761C84.1475 43.8707 90.1915 43.8289 85.0079 43.8103C84.663 43.8091 79.3597 43.7907 82.9857 43.7744C83.2125 43.7734 85.9428 43.7848 85.6645 43.7648C85.3868 43.7448 87.2101 43.7126 84.2103 43.685C83.2653 43.6763 77.975 43.6557 82.1921 43.6297C82.4865 43.628 92.0219 43.5879 85.443 43.5736C84.36 43.5713 77.398 43.5737 80.9675 43.5427C81.6595 43.5368 83.2124 43.5475 84.1821 43.5319C85.6766 43.508 83.8119 43.4763 86.9133 43.4469C87.4623 43.4417 92.1877 43.4199 88.6011 43.4024C88.0394 43.3996 85.7152 43.4049 85.455 43.3956C84.2073 43.3516 85.762 43.3056 84.1539 43.2609C83.5888 43.2451 79.8314 43.2532 78.8244 43.2367C77.8179 43.2202 76.8496 43.187 78.5666 43.1697C80.2845 43.1525 86.2729 43.1713 86.7522 43.1455C88.8334 43.0331 85.3204 42.9217 84.8065 42.8095C84.7297 42.7929 86.8726 42.8067 86.9133 42.7821C87.0727 42.6917 89.0819 42.5355 84.5285 42.4571C80.8815 42.3942 78.105 42.4733 76.621 42.4253C75.913 42.4021 82.8753 42.377 83.0944 42.3714C85.321 42.3167 82.2368 42.2787 83.1831 42.2295C83.3794 42.2193 86.2013 42.2293 86.3372 42.2207C86.8266 42.1911 85.5671 42.1601 85.7974 42.1318C85.9073 42.1192 88.0625 42.1215 87.8962 42.1099C87.523 42.082 86.617 42.0573 84.597 42.0301C84.4129 42.0276 81.7319 42.0444 81.6322 42.0237C81.4784 41.9903 79.4857 41.9489 81.5436 41.9105C82.1626 41.8991 87.0884 41.8986 83.6866 41.8741C82.9761 41.869 77.0614 41.8755 82.172 41.847C83.0212 41.8422 89.9145 41.7943 85.4712 41.7707C84.3017 41.7645 79.4616 41.7487 80.2223 41.735C80.3436 41.7331 82.9895 41.7406 83.2475 41.7292C84.111 41.6892 83.8287 41.6472 84.6574 41.6061C84.884 41.5951 87.6218 41.6115 87.872 41.5951C88.564 41.5501 87.8669 41.4939 87.01 41.4499C86.6888 41.4337 84.4208 41.4449 84.174 41.4437C80.1596 41.4247 85.5782 41.4135 85.8941 41.4072C87.786 41.368 85.2407 41.3381 85.9143 41.302C86.0933 41.292 88.6769 41.2991 88.9073 41.2971C91.1582 41.2765 86.5184 41.2919 86.0069 41.2788C84.5587 41.2423 84.7664 41.2017 85.0965 41.1647C85.2216 41.1512 88.2174 41.1664 88.295 41.1543C88.8112 41.0822 88.5246 41.0074 86.873 40.9371C86.5566 40.9239 84.2498 40.9322 83.7229 40.9294C80.0366 40.9104 85.0647 40.8826 85.5437 40.8762C87.7306 40.847 85.6906 40.8357 86.0714 40.8099C87.9672 40.6842 86.616 40.5289 85.7813 40.4103C84.7071 40.2556 82.5125 40.1356 83.0824 39.9881C83.1157 39.9787 86.1845 39.9881 86.2526 39.9801C86.9924 39.8757 85.7933 39.773 86.6796 39.6685C86.7469 39.6599 89.6562 39.6723 89.862 39.6585C90.3045 39.6303 90.1464 39.5945 89.2175 39.5659C88.7699 39.552 86.2735 39.5707 85.874 39.5567C84.938 39.524 84.7308 39.489 85.1972 39.4555C85.402 39.4412 88.3775 39.4628 88.4118 39.4442C88.707 39.3179 89.2194 39.1938 85.3664 39.0661C85.1018 39.0574 79.0545 39.0497 80.2142 39.0311C81.8925 39.0297 83.8667 39.0298 85.6605 39.0291C86.6268 38.8452 84.5304 38.6632 84.2063 38.4788C84.1933 38.471 87.3974 38.4844 87.3886 38.4694C87.3413 38.3822 88.2289 38.2976 85.0442 38.2085C84.7327 38.1996 79.0958 38.2042 79.9483 38.1781C80.1039 38.1735 80.8557 38.1343 82.0793 38.1241C82.2639 38.1227 84.895 38.1299 84.9716 38.1173C85.3712 38.0438 84.7705 37.9667 83.1629 37.8934C82.8984 37.8815 80.0966 37.8941 79.8839 37.8857C78.3965 37.8259 80.5265 37.7608 77.9825 37.7036C76.2696 37.6654 71.4264 37.6795 66.659 37.6592C65.9863 37.6563 65.8798 37.6326 63.106 37.6314C56.1311 37.6283 48.4936 37.6397 41.0591 37.635C39.4577 37.634 41.1825 37.6023 37.3127 37.6211C37.0537 37.6224 35.7694 37.6454 34.4567 37.6511C33.5491 37.655 30.7281 37.6479 29.5663 37.656C28.4056 37.664 30.7702 37.6728 29.4052 37.6862C28.0232 37.6995 24.8141 37.6937 24.4342 37.7203ZM69.0155 45.0177C66.3207 44.9966 76.1908 44.9935 73.8293 45.0163C73.7035 45.0174 69.1477 45.0188 69.0155 45.0177ZM67.4566 47.5662C63.1031 47.5387 69.5044 47.5199 72.8666 47.5393C76.2251 47.5587 68.7762 47.5746 67.4566 47.5662ZM64.2782 47.8518C60.8458 47.8196 74.842 47.8145 72.0126 47.849C71.8527 47.851 64.4775 47.8537 64.2782 47.8518ZM65.3014 37.7535C65.1703 37.7532 65.0426 37.7362 65.1725 37.7358C68.3072 37.7267 68.5605 37.7608 65.3014 37.7535ZM60.8179 48.1352C58.9246 48.1251 61.1102 48.0962 63.4645 48.1087C65.3585 48.1187 63.1731 48.1477 60.8179 48.1352ZM58.4815 43.9189C58.3344 43.9185 58.202 43.9063 59.0334 43.9066C61.7111 43.9074 60.9554 43.9244 58.4815 43.9189ZM60.6568 48.6168C60.1299 48.5456 48.5684 48.5025 49.873 48.58C50.109 48.594 53.5599 48.5497 54.6022 48.5676C56.5012 48.6003 49.242 48.622 53.1319 48.6553C53.8439 48.6613 60.7125 48.6208 60.6729 48.6166C60.6675 48.6167 60.6621 48.6167 60.6568 48.6168ZM57.1602 45.0055C57.0297 45.0051 56.9059 44.9882 57.0353 44.9878C60.1688 44.9787 60.42 45.0127 57.1602 45.0055ZM52.3786 43.2063C52.1005 43.2054 51.8404 43.1661 52.0966 43.1649C57.2207 43.1444 57.7618 43.2237 52.3786 43.2063ZM49.9375 46.1441C46.7851 46.1625 46.414 46.1846 50.3725 46.1993C50.1624 46.1809 50.1314 46.1625 49.9375 46.1441Z" fill="#EFE9DD" fill-opacity="0.1"/>
</g>
<g id="Vector 12" filter="url(#filter8_n_772_9087)">
<path d="M9.7438 37.5836C8.88406 37.5217 9.80334 37.4406 11.0651 37.379C11.4564 37.3596 13.2057 37.3694 13.5546 37.3561C14.2347 37.33 13.3768 37.3057 14.187 37.2799C14.4641 37.2714 17.2349 37.282 17.462 37.2731C18.6866 37.224 17.9808 37.1776 18.5698 37.1278C21.4758 36.883 22.516 36.6423 23.7784 36.3944C24.1923 36.3126 26.707 36.2133 25.6073 36.1289C25.4764 36.119 23.0443 36.1249 22.8439 36.123C19.7751 36.0936 24.685 36.1034 25.3374 36.0842C27.9131 36.008 28.1371 35.9232 27.1985 35.8499C26.792 35.8187 21.9612 35.85 24.6727 35.8185C24.8559 35.8164 27.4386 35.8243 27.7141 35.8157C28.3336 35.7963 27.872 35.7595 28.0766 35.7445C28.4841 35.7155 28.4581 35.7107 28.4875 35.6833C28.5502 35.6458 29.8341 35.6012 29.2489 35.561C29.1163 35.5524 26.4687 35.5638 26.0182 35.5501C25.5684 35.5364 25.7929 35.5001 26.417 35.4879C27.0414 35.4757 29.1224 35.4809 29.5993 35.4787C33.6252 35.461 28.0494 35.419 27.9115 35.4136C25.5619 35.3153 28.7383 35.2309 28.7292 35.1386C28.7156 35.0685 27.667 34.9936 27.8108 34.9269C27.9923 34.8474 29.427 34.7801 29.1804 34.7029C29.1574 34.6948 26.0445 34.7043 26.0101 34.6944C25.6479 34.5886 25.9872 34.4837 28.0887 34.3784C28.3022 34.3679 31.0354 34.3815 31.4121 34.3709C33.6582 34.3064 39.054 34.2042 27.1542 34.1659C27.6188 34.1221 28.0989 34.069 30.4976 34.0299C32.0415 34.0047 35.019 34.0292 33.7485 33.9982C33.4654 33.9912 30.8579 34.0003 30.6306 33.9898C29.676 33.9457 30.5236 33.8975 29.1764 33.8538C28.8962 33.8449 26.5598 33.8474 26.139 33.8448C22.7317 33.8237 28.3642 33.7885 28.7735 33.7808C31.8256 33.7224 30.6245 33.6797 30.6991 33.6253C30.7177 33.6127 27.5793 33.6276 27.4845 33.6154C27.0347 33.5524 27.3044 33.4871 28.697 33.4254C29.0143 33.4116 31.6876 33.4243 31.976 33.4177C33.2152 33.3888 28.166 33.3823 29.2569 33.3546C29.4804 33.3488 31.769 33.352 32.0203 33.351C35.9659 33.3343 30.3753 33.3198 30.2519 33.3155C28.5655 33.2611 34.4017 33.2264 33.5753 33.1739C33.4705 33.1676 30.5748 33.1818 30.4574 33.1641C29.658 33.0466 30.4535 32.9222 32.7696 32.8058C33.1258 32.7877 35.3011 32.8006 35.5693 32.7995C39.7592 32.7809 34.1452 32.7689 33.9338 32.763C32.4119 32.7164 37.1199 32.6729 30.4332 32.6413C32.7537 32.4441 28.9988 32.2479 34.9892 32.0523C35.0586 32.0498 37.8235 32.0543 37.95 32.0493C39.5025 31.9896 35.2053 32.0011 29.9498 31.9616C28.6301 31.9516 34.9753 31.9213 35.4404 31.9187C37.1543 31.9089 41.2677 31.919 41.5997 31.9157C44.2061 31.8887 30.6027 31.8931 30.5984 31.8566C30.621 31.8555 33.1249 31.8603 33.3739 31.8572C34.1555 31.8477 33.1605 31.8383 34.0224 31.8289C36.0168 31.8076 42.6269 31.8 38.7798 31.7675C38.2806 31.7634 30.5642 31.7697 30.9287 31.7371C31.0805 31.7241 30.9483 31.6666 31.4483 31.6505C31.9478 31.6344 34.4344 31.6455 34.5421 31.6443C37.8302 31.6009 39.1929 31.6174 44.061 31.5957C48.9106 31.5739 37.3437 31.58 36.0527 31.5711C34.7653 31.5622 37.4782 31.5304 38.4213 31.5226C39.3648 31.5148 40.9449 31.5246 41.4788 31.5176C44.9672 31.4716 35.7374 31.4974 33.9016 31.4822C29.5546 31.4465 38.1327 31.4186 38.9732 31.3859C39.2002 31.377 37.2465 31.3842 37.0638 31.3764C36.366 31.3451 39.0426 31.3263 36.5884 31.2908C36.1885 31.285 31.0312 31.2562 34.816 31.2376C35.3618 31.235 37.4994 31.2425 37.9782 31.2292C38.6968 31.2093 39.164 31.1734 38.4495 31.152C37.9209 31.1362 34.3986 31.1543 35.4927 31.1345C35.9813 31.1256 38.0419 31.142 38.7879 31.1254C39.5337 31.1089 39.4432 31.0667 39.372 31.0507C39.2993 31.0346 36.6274 31.0434 36.4475 31.0421C35.4164 31.0343 34.128 31.0035 34.1312 31.0008C33.805 30.8637 38.3087 30.7372 36.8181 30.6038C36.705 30.5933 33.8874 30.6003 33.8411 30.5987C32.6607 30.5628 40.1517 30.5911 42.6591 30.566C36.9416 30.5696 37.9768 30.5548 37.3498 30.5296C37.043 30.5174 34.8291 30.524 34.6025 30.5229C31.2399 30.5049 35.5831 30.4923 36.4716 30.4891C39.74 30.4771 35.8782 30.4641 38.0628 30.456C40.2311 30.4478 43.4455 30.4665 43.4043 30.4423C41.3577 30.4355 36.0091 30.4535 35.1423 30.4351C31.8634 30.3657 36.0599 30.2362 36.4958 30.1803C36.9313 30.1247 36.5537 30.1067 37.2934 30.0742C38.6308 30.0156 34.6625 30.0371 32.8462 30.0007C31.03 29.9642 40.7938 29.9819 42.8927 29.9767C44.9908 29.9715 42.8311 29.9659 43.9844 29.9595C45.1375 29.9531 46.5646 29.9669 46.9976 29.9519C47.4301 29.9369 43.6977 29.8958 41.503 29.8905C36.8534 29.8792 31.9734 29.8977 33.6881 29.8579C33.7898 29.8557 36.3572 29.8631 36.6166 29.8543C38.5931 29.7848 38.7156 29.7125 40.4637 29.643C40.7081 29.6335 43.5642 29.642 43.7387 29.6364C45.5655 29.5785 40.7498 29.5992 35.4001 29.5675C42.5194 29.5746 46.875 29.5571 46.917 29.5131C46.9448 29.4867 43.8354 29.4913 41.644 29.4742C40.9834 29.469 43.1183 29.4503 41.6561 29.447C36.8761 29.4358 31.5252 29.4534 33.6558 29.4081C33.7571 29.4061 36.3736 29.4124 36.5321 29.4056C37.5692 29.3612 32.5694 29.3558 31.964 29.3078C31.4888 29.2702 34.5377 29.2033 35.0335 29.1605C43.0377 29.1614 41.2048 29.1209 35.6861 29.1045C35.912 29.0767 35.6001 29.0467 36.3629 29.0198C36.6229 29.0106 38.9403 29.0166 39.1907 29.0155C43.1187 28.9976 37.7496 28.9855 37.5391 28.9795C35.493 28.9145 39.5623 28.8615 35.5854 28.7994C35.4422 28.7972 29.8822 28.7936 33.9419 28.777C34.2217 28.776 36.7513 28.7965 36.947 28.7673C37.143 28.7381 40.1235 28.683 37.5472 28.6425C36.9269 28.6327 32.4134 28.6079 35.9399 28.5879C36.4188 28.5853 38.0134 28.5882 38.9007 28.5844C41.7281 28.572 36.1084 28.5652 40.8826 28.5507C45.6566 28.5361 49.232 28.5058 45.9382 28.465C45.8424 28.4637 41.3882 28.454 41.4587 28.4411C41.5749 28.4206 42.5028 28.3915 42.4738 28.37C42.4583 28.3598 39.6925 28.3663 39.6419 28.3645C38.092 28.2956 40.5577 28.2464 41.6279 28.1725C41.8295 28.159 38.0579 28.12 41.0397 28.0938C44.3039 28.065 57.8823 28.0946 54.6474 28.0284C53.3534 28.0017 36.1268 27.9679 45.0519 27.9199C42.8403 27.8268 47.4082 27.7408 44.2503 27.6475C44.1104 27.6433 39.3025 27.63 39.368 27.6201C39.4744 27.6055 41.7215 27.5974 41.8696 27.587C42.5464 27.5432 40.6239 27.503 40.9229 27.4608C41.0316 27.4447 43.355 27.4504 43.4849 27.4312C43.6126 27.4121 40.553 27.3994 42.0307 27.3734C43.157 27.3539 49.4107 27.3343 50.1397 27.3083C43.9711 27.3073 44.0981 27.2895 42.4698 27.2578C42.1538 27.2517 40.0068 27.2582 39.7466 27.2553C38.6401 27.2436 40.4195 27.2328 39.2149 27.2216C38.9256 27.2189 36.819 27.2188 36.4636 27.2166C33.3612 27.1977 38.0998 27.1667 38.9249 27.1613C42.0583 27.1409 39.3184 27.1314 40.5523 27.1157C41.7861 27.1 43.3284 27.1234 44.0771 27.1052C45.6257 27.0673 45.2854 27.0186 45.3822 26.9801C45.4079 26.9648 42.5959 26.9752 42.5342 26.973C41.821 26.9413 44.8122 26.9092 39.2109 26.8916C53.6938 26.8696 37.8061 26.8724 40.7054 26.8271C40.9399 26.8235 47.7887 26.8189 48.7942 26.8327C49.7987 26.8464 47.6579 26.8672 49.2252 26.8862C49.5931 26.8907 56.0109 26.9166 56.3997 26.9201C59.438 26.9477 49.2033 26.9516 48.6411 26.9531C42.5747 26.9696 49.4887 27.0012 49.9665 27.0095C52.1555 27.0475 50.7162 27.0798 52.2787 27.1116C53.2886 27.1324 59.9927 27.1345 59.7875 27.1508C59.1092 27.2051 49.7569 27.2241 57.866 27.2752C59.5955 27.2862 66.9229 27.2753 61.1611 27.3146C60.7979 27.3171 55.527 27.3463 58.861 27.3631C59.2813 27.3652 61.4168 27.3652 61.5962 27.368C62.7566 27.3867 61.0553 27.3992 61.8701 27.4196C62.6849 27.4399 63.8996 27.4645 63.1753 27.4877C62.7422 27.5018 58.7635 27.5198 57.7894 27.5265C54.9834 27.5455 59.5841 27.5658 56.1862 27.5775C52.7711 27.5894 47.5848 27.5662 45.3782 27.5973C50.9263 27.5984 56.6209 27.6011 62.2004 27.6029C62.0051 27.671 60.2111 27.738 60.4562 27.8063C60.4921 27.8148 63.4748 27.8061 63.5902 27.8152C64.064 27.8535 61.9378 27.887 62.7845 27.9267C63.4514 27.9574 66.6094 27.9912 67.405 28.0233C61.0564 28.043 63.2116 28.0907 62.6315 28.1253C62.431 28.1375 60.7354 28.1367 60.1822 28.1453C58.1364 28.1779 63.7466 28.1626 64.6295 28.1715C68.3976 28.2098 55.6992 28.2131 56.0129 28.2583C56.0253 28.2607 62.794 28.2899 63.2156 28.294C65.9642 28.3196 60.8596 28.2982 60.3595 28.3142C59.4455 28.3435 57.8291 28.3638 59.8116 28.3981C60.3989 28.4081 64.6178 28.4321 61.3545 28.4516C60.9272 28.4541 58.6899 28.4527 58.5588 28.4548C56.3748 28.492 63.4047 28.493 65.7856 28.5143C68.166 28.5356 63.3131 28.5684 61.9144 28.5751C58.2962 28.5926 60.3681 28.5617 60.0131 28.5608C55.7875 28.5496 56.515 28.5736 56.158 28.5919C49.265 28.5946 49.6787 28.6202 55.8156 28.6109C56.4859 28.6099 55.8431 28.5956 56.158 28.5919C62.9209 28.608 63.787 28.6362 57.4672 28.6673C54.5051 28.6818 51.0516 28.6681 52.315 28.7123C52.8853 28.7324 57.6314 28.7246 58.9254 28.7423C61.8777 28.7828 57.4504 28.8354 58.148 28.8771C58.4012 28.8923 60.9992 28.8775 61.2618 28.8879C61.9669 28.9153 60.0175 28.9395 61.0161 28.9671C61.1099 28.9696 63.8295 28.9635 63.8641 28.9721C64.18 29.0371 62.438 29.0937 62.3898 29.1616C62.3677 29.1944 63.8676 29.2531 63.566 29.287C63.0594 29.3459 59.1047 29.4184 60.0654 29.4687C60.6804 29.5015 63.4005 29.4943 65.2539 29.5084C68.8464 29.5355 62.4114 29.5835 61.4149 29.59C61.3819 29.5902 60.7407 29.562 59.3444 29.577C56.4349 29.5858 61.4023 29.5897 61.4149 29.59C60.7712 29.5942 60.1537 29.6506 60.6737 29.6618C60.9579 29.6679 63.5351 29.6645 63.6345 29.6677C65.9408 29.7431 66.5959 29.8187 65.3908 29.8952C65.3388 29.8965 62.456 29.8945 62.3696 29.8977C61.0879 29.9419 64.6144 29.9703 66.7081 30.0068C68.8009 30.0433 68.1 30.0723 63.1511 30.0939C63.7742 30.1215 61.5863 30.161 60.2588 30.1838C58.9313 30.2065 64.5427 30.2097 64.6537 30.2117C68.2043 30.2741 64.9924 30.3102 64.4925 30.375C64.2453 30.4058 65.0592 30.4668 65.6728 30.5002C66.1672 30.5265 64.8521 30.5424 65.693 30.5667C65.8053 30.57 68.3038 30.5667 68.4 30.5677C71.3893 30.5948 65.2813 30.5817 64.1904 30.5873C60.2234 30.6076 58.1106 30.6201 59.9768 30.6548C60.4042 30.6628 69.1989 30.6862 69.7132 30.7007C70.3658 30.7197 67.2134 30.7126 67.977 30.7324C68.0395 30.7341 69.9843 30.7338 69.8985 30.746C69.5261 30.8029 68.3944 30.865 68.5893 30.9241C68.6085 30.9322 71.6932 30.9218 71.7717 30.9335C72.1373 30.9883 72.0232 31.0483 70.5793 31.1016C70.2142 31.1148 68.0544 31.1065 67.4131 31.1094C63.5328 31.1269 69.1707 31.1517 69.2782 31.1558C71.9875 31.2535 66.8852 31.3282 69.3144 31.4278C69.457 31.4332 75.5011 31.4749 70.3175 31.4935C69.9726 31.4948 64.6693 31.5132 68.2953 31.5295C68.5221 31.5305 71.2523 31.519 70.9741 31.5391C70.6964 31.5591 72.5197 31.5913 69.5199 31.6188C68.5749 31.6275 63.2846 31.6481 67.5017 31.6741C67.7961 31.6758 77.3315 31.7159 70.7525 31.7303C69.6696 31.7326 62.7076 31.7302 66.2771 31.7612C66.9691 31.7671 68.522 31.7563 69.4917 31.772C70.9862 31.7959 69.1215 31.8276 72.2229 31.857C72.7719 31.8621 77.4973 31.884 73.9107 31.9015C73.349 31.9042 71.0247 31.899 70.7646 31.9083C69.5169 31.9522 71.0716 31.9983 69.4635 32.0429C68.8984 32.0588 65.1409 32.0507 64.134 32.0672C63.1274 32.0837 62.1591 32.1169 63.8762 32.1341C65.594 32.1514 71.5825 32.1325 72.0617 32.1584C74.143 32.2708 70.6299 32.3821 70.1161 32.4944C70.0393 32.511 72.1822 32.4972 72.2229 32.5217C72.3823 32.6122 74.3914 32.7683 69.8381 32.8468C66.1911 32.9097 63.4146 32.8305 61.9305 32.8786C61.2226 32.9018 68.1848 32.9269 68.404 32.9325C70.6305 32.9871 67.5464 33.0251 68.4926 33.0744C68.689 33.0845 71.5109 33.0745 71.6468 33.0832C72.1362 33.1127 70.8766 33.1438 71.107 33.172C71.2169 33.1847 73.3721 33.1824 73.2058 33.194C72.8326 33.2219 71.9266 33.2466 69.9066 33.2737C69.7225 33.2762 67.0415 33.2595 66.9417 33.2801C66.788 33.3135 64.7952 33.355 66.8531 33.3934C67.4722 33.4048 72.3979 33.4052 68.9962 33.4297C68.2857 33.4349 62.3709 33.4283 67.4815 33.4569C68.3308 33.4617 75.2241 33.5096 70.7807 33.5331C69.6113 33.5393 64.7712 33.5552 65.5318 33.5689C65.6532 33.5708 68.299 33.5633 68.5571 33.5747C69.4206 33.6147 69.1383 33.6566 69.967 33.6978C70.1935 33.7088 72.9314 33.6924 73.1816 33.7088C73.8736 33.7538 73.1765 33.81 72.3195 33.854C71.9984 33.8702 69.7304 33.859 69.4836 33.8602C65.4692 33.8792 70.8877 33.8904 71.2037 33.8967C73.0956 33.9359 70.5503 33.9657 71.2238 34.0019C71.4029 34.0118 73.9865 34.0048 74.2169 34.0067C76.4678 34.0273 71.8279 34.012 71.3165 34.025C69.8683 34.0615 70.0759 34.1022 70.4061 34.1391C70.5312 34.1527 73.5269 34.1374 73.6046 34.1496C74.1208 34.2216 73.8341 34.2965 72.1826 34.3668C71.8662 34.38 69.5593 34.3717 69.0324 34.3744C65.3462 34.3934 70.3743 34.4213 70.8532 34.4277C73.0402 34.4569 71.0002 34.4682 71.3809 34.4939C73.2767 34.6197 71.9256 34.7749 71.0909 34.8936C70.0166 35.0483 67.8221 35.1683 68.3919 35.3158C68.4253 35.3252 71.4941 35.3157 71.5622 35.3238C72.302 35.4281 71.1028 35.5308 71.9892 35.6354C72.0565 35.644 74.9658 35.6316 75.1716 35.6454C75.6141 35.6736 75.456 35.7094 74.5271 35.7379C74.0795 35.7519 71.5831 35.7332 71.1836 35.7472C70.2476 35.7798 70.0404 35.8148 70.5068 35.8484C70.7116 35.8626 73.687 35.8411 73.7214 35.8597C74.0166 35.986 74.529 36.1101 70.676 36.2377C70.4114 36.2465 64.3641 36.2542 65.5238 36.2728C67.2021 36.2742 69.1762 36.2741 70.9701 36.2747C71.9364 36.4586 69.84 36.6407 69.5158 36.8251C69.5029 36.8329 72.707 36.8194 72.6982 36.8345C72.6508 36.9216 73.5385 37.0062 70.3537 37.0954C70.0423 37.1042 64.4054 37.0997 65.2579 37.1257C65.4135 37.1303 66.1652 37.1696 67.3889 37.1797C67.5735 37.1811 70.2045 37.174 70.2812 37.1866C70.6807 37.2601 70.0801 37.3371 68.4725 37.4105C68.208 37.4223 65.4062 37.4097 65.1935 37.4182C63.7061 37.478 65.836 37.5431 63.2921 37.6002C61.5792 37.6385 56.7359 37.6243 51.9685 37.6447C51.2959 37.6475 51.1893 37.6712 48.4156 37.6725C41.4407 37.6756 33.8032 37.6641 26.3686 37.6688C24.7673 37.6698 26.492 37.7016 22.6223 37.6828C22.3633 37.6815 21.079 37.6585 19.7662 37.6528C18.8586 37.6489 16.0377 37.656 14.8759 37.6479C13.7151 37.6399 16.0798 37.631 14.7147 37.6177C13.3328 37.6043 10.1237 37.6102 9.7438 37.5836ZM54.3251 30.2862C51.6302 30.3073 61.5004 30.3104 59.1389 30.2876C59.0131 30.2865 54.4573 30.2851 54.3251 30.2862ZM52.7661 27.7376C48.4127 27.7652 54.814 27.784 58.1761 27.7646C61.5347 27.7452 54.0858 27.7292 52.7661 27.7376ZM49.5878 27.4521C46.1553 27.4843 60.1516 27.4893 57.3221 27.4549C57.1623 27.4528 49.7871 27.4502 49.5878 27.4521ZM50.611 37.5504C50.4799 37.5507 50.3522 37.5677 50.4821 37.5681C53.6168 37.5772 53.8701 37.5431 50.611 37.5504ZM46.1275 27.1687C44.2342 27.1788 46.4198 27.2077 48.7741 27.1952C50.6681 27.1852 48.4826 27.1562 46.1275 27.1687ZM43.7911 31.385C43.644 31.3853 43.5115 31.3975 44.3429 31.3973C47.0207 31.3965 46.265 31.3795 43.7911 31.385ZM45.9663 26.6871C45.4395 26.7583 33.878 26.8014 35.1826 26.7239C35.4186 26.7099 38.8695 26.7542 39.9118 26.7363C41.8108 26.7036 34.5515 26.6819 38.4415 26.6486C39.1535 26.6425 46.0221 26.683 45.9825 26.6872C45.9771 26.6872 45.9717 26.6871 45.9663 26.6871ZM42.4698 30.2983C42.3393 30.2987 42.2155 30.3156 42.3449 30.3161C45.4784 30.3252 45.7295 30.2911 42.4698 30.2983ZM37.6882 32.0976C37.4101 32.0985 37.1499 32.1377 37.4062 32.139C42.5303 32.1595 43.0713 32.0802 37.6882 32.0976ZM35.247 29.1598C32.0947 29.1414 31.7236 29.1193 35.6821 29.1046C35.4719 29.1229 35.441 29.1414 35.247 29.1598Z" fill="#EFE9DD" fill-opacity="0.1"/>
</g>
</g>
</g>
<g id="Vector_4" filter="url(#filter9_ig_772_9087)">
<g clip-path="url(#paint1_diamond_772_9087_clip_path)" data-figma-skip-parse="true"><g transform="matrix(-6.14018e-05 0.00499027 -0.0757673 -0.000254009 66.6212 38.7228)"><rect x="0" y="0" width="1222.3" height="432.441" fill="url(#paint1_diamond_772_9087)" opacity="0.2" shape-rendering="crispEdges"/><rect x="0" y="0" width="1222.3" height="432.441" transform="scale(1 -1)" fill="url(#paint1_diamond_772_9087)" opacity="0.2" shape-rendering="crispEdges"/><rect x="0" y="0" width="1222.3" height="432.441" transform="scale(-1 1)" fill="url(#paint1_diamond_772_9087)" opacity="0.2" shape-rendering="crispEdges"/><rect x="0" y="0" width="1222.3" height="432.441" transform="scale(-1)" fill="url(#paint1_diamond_772_9087)" opacity="0.2" shape-rendering="crispEdges"/></g></g><path d="M66.2899 33.7426C63.6656 33.7772 60.9504 34.02 58.3318 34.3543C53.3843 34.9859 48.7828 35.944 45.8044 36.443C40.0625 37.4056 36.7235 38.3093 35.0912 38.5281C33.6198 38.7249 42.5133 40.365 46.7033 41.0983C49.6127 41.6075 54.866 42.662 60.555 43.2647C63.0586 43.5299 65.6473 43.708 68.159 43.7129C78.5001 43.7332 85.8926 42.0418 85.2477 38.5281C84.6017 35.0143 77.3574 33.597 66.2899 33.7426Z" data-figma-gradient-fill="{&#34;type&#34;:&#34;GRADIENT_DIAMOND&#34;,&#34;stops&#34;:[{&#34;color&#34;:{&#34;r&#34;:1.0,&#34;g&#34;:1.0,&#34;b&#34;:1.0,&#34;a&#34;:1.0},&#34;position&#34;:0.0},{&#34;color&#34;:{&#34;r&#34;:0.0,&#34;g&#34;:0.0,&#34;b&#34;:0.0,&#34;a&#34;:1.0},&#34;position&#34;:0.76442307233810425}],&#34;stopsVar&#34;:[{&#34;color&#34;:{&#34;r&#34;:1.0,&#34;g&#34;:1.0,&#34;b&#34;:1.0,&#34;a&#34;:1.0},&#34;position&#34;:0.0},{&#34;color&#34;:{&#34;r&#34;:0.0,&#34;g&#34;:0.0,&#34;b&#34;:0.0,&#34;a&#34;:1.0},&#34;position&#34;:0.76442307233810425}],&#34;transform&#34;:{&#34;m00&#34;:-0.12280361354351044,&#34;m01&#34;:-151.53460693359375,&#34;m02&#34;:142.44992065429688,&#34;m10&#34;:9.9805355072021484,&#34;m11&#34;:-0.50801825523376465,&#34;m12&#34;:33.986515045166016},&#34;opacity&#34;:0.20000000298023224,&#34;blendMode&#34;:&#34;NORMAL&#34;,&#34;visible&#34;:true}"/>
</g>
<g id="Vector_5" filter="url(#filter10_i_772_9087)">
<path d="M82.8424 38.9621C82.7372 37.7339 82.5319 35.953 83.8454 35.7997C85.1588 35.6464 129.252 34.8826 129.252 34.8826C129.252 34.8826 128.471 36.5419 128.644 38.8925C128.817 41.2432 129.769 42.6271 129.769 42.6271C129.769 42.6271 112.121 41.9764 103.971 41.8186C95.8222 41.6608 85.3994 41.4766 84.2506 41.2964C83.1018 41.1167 82.9326 40.0231 82.8417 38.9625L82.8424 38.9621Z" fill="#BEBEBE"/>
<g clip-path="url(#paint2_diamond_772_9087_clip_path)" data-figma-skip-parse="true"><g transform="matrix(6.54528e-09 0.00963848 -0.273334 9.36779e-07 106.266 38.7549)"><rect x="0" y="0" width="505.508" height="89.6442" fill="url(#paint2_diamond_772_9087)" opacity="0.5" shape-rendering="crispEdges"/><rect x="0" y="0" width="505.508" height="89.6442" transform="scale(1 -1)" fill="url(#paint2_diamond_772_9087)" opacity="0.5" shape-rendering="crispEdges"/><rect x="0" y="0" width="505.508" height="89.6442" transform="scale(-1 1)" fill="url(#paint2_diamond_772_9087)" opacity="0.5" shape-rendering="crispEdges"/><rect x="0" y="0" width="505.508" height="89.6442" transform="scale(-1)" fill="url(#paint2_diamond_772_9087)" opacity="0.5" shape-rendering="crispEdges"/></g></g><path d="M82.8424 38.9621C82.7372 37.7339 82.5319 35.953 83.8454 35.7997C85.1588 35.6464 129.252 34.8826 129.252 34.8826C129.252 34.8826 128.471 36.5419 128.644 38.8925C128.817 41.2432 129.769 42.6271 129.769 42.6271C129.769 42.6271 112.121 41.9764 103.971 41.8186C95.8222 41.6608 85.3994 41.4766 84.2506 41.2964C83.1018 41.1167 82.9326 40.0231 82.8417 38.9625L82.8424 38.9621Z" data-figma-gradient-fill="{&#34;type&#34;:&#34;GRADIENT_DIAMOND&#34;,&#34;stops&#34;:[{&#34;color&#34;:{&#34;r&#34;:1.0,&#34;g&#34;:1.0,&#34;b&#34;:1.0,&#34;a&#34;:1.0},&#34;position&#34;:0.0},{&#34;color&#34;:{&#34;r&#34;:0.0,&#34;g&#34;:0.0,&#34;b&#34;:0.0,&#34;a&#34;:0.0},&#34;position&#34;:1.0}],&#34;stopsVar&#34;:[{&#34;color&#34;:{&#34;r&#34;:1.0,&#34;g&#34;:1.0,&#34;b&#34;:1.0,&#34;a&#34;:1.0},&#34;position&#34;:0.0},{&#34;color&#34;:{&#34;r&#34;:0.0,&#34;g&#34;:0.0,&#34;b&#34;:0.0,&#34;a&#34;:0.0},&#34;position&#34;:1.0}],&#34;transform&#34;:{&#34;m00&#34;:1.3090569154883269e-05,&#34;m01&#34;:-546.66864013671875,&#34;m02&#34;:379.60076904296875,&#34;m10&#34;:19.276960372924805,&#34;m11&#34;:0.0018735581543296576,&#34;m12&#34;:29.115444183349609},&#34;opacity&#34;:0.50,&#34;blendMode&#34;:&#34;NORMAL&#34;,&#34;visible&#34;:true}"/>
</g>
</g>
</g>
</g>
</g>
</g>
</g>
</g>
<defs>
<filter id="filter0_ii_772_9087" x="0" y="0.128632" width="370.484" height="105.826" filterUnits="userSpaceOnUse" color-interpolation-filters="sRGB">
<feFlood flood-opacity="0" result="BackgroundImageFix"/>
<feBlend mode="normal" in="SourceGraphic" in2="BackgroundImageFix" result="shape"/>
<feColorMatrix in="SourceAlpha" type="matrix" values="0 0 0 0 0 0 0 0 0 0 0 0 0 0 0 0 0 0 127 0" result="hardAlpha"/>
<feMorphology radius="3" operator="erode" in="SourceAlpha" result="effect1_innerShadow_772_9087"/>
<feOffset/>
<feGaussianBlur stdDeviation="2"/>
<feComposite in2="hardAlpha" operator="arithmetic" k2="-1" k3="1"/>
<feColorMatrix type="matrix" values="0 0 0 0 0.149 0 0 0 0 0.275 0 0 0 0 0.325 0 0 0 0.15 0"/>
<feBlend mode="normal" in2="shape" result="effect1_innerShadow_772_9087"/>
<feColorMatrix in="SourceAlpha" type="matrix" values="0 0 0 0 0 0 0 0 0 0 0 0 0 0 0 0 0 0 127 0" result="hardAlpha"/>
<feMorphology radius="2" operator="erode" in="SourceAlpha" result="effect2_innerShadow_772_9087"/>
<feOffset/>
<feGaussianBlur stdDeviation="1"/>
<feComposite in2="hardAlpha" operator="arithmetic" k2="-1" k3="1"/>
<feColorMatrix type="matrix" values="0 0 0 0 1 0 0 0 0 1 0 0 0 0 1 0 0 0 1 0"/>
<feBlend mode="normal" in2="effect1_innerShadow_772_9087" result="effect2_innerShadow_772_9087"/>
</filter>
<filter id="filter1_ddi_772_9087" x="18.9761" y="13.7942" width="325" height="50.8408" filterUnits="userSpaceOnUse" color-interpolation-filters="sRGB">
<feFlood flood-opacity="0" result="BackgroundImageFix"/>
<feColorMatrix in="SourceAlpha" type="matrix" values="0 0 0 0 0 0 0 0 0 0 0 0 0 0 0 0 0 0 127 0" result="hardAlpha"/>
<feOffset/>
<feGaussianBlur stdDeviation="4"/>
<feComposite in2="hardAlpha" operator="out"/>
<feColorMatrix type="matrix" values="0 0 0 0 0 0 0 0 0 0 0 0 0 0 0 0 0 0 0.25 0"/>
<feBlend mode="normal" in2="BackgroundImageFix" result="effect1_dropShadow_772_9087"/>
<feColorMatrix in="SourceAlpha" type="matrix" values="0 0 0 0 0 0 0 0 0 0 0 0 0 0 0 0 0 0 127 0" result="hardAlpha"/>
<feOffset/>
<feGaussianBlur stdDeviation="2"/>
<feComposite in2="hardAlpha" operator="out"/>
<feColorMatrix type="matrix" values="0 0 0 0 1 0 0 0 0 1 0 0 0 0 1 0 0 0 0.8 0"/>
<feBlend mode="normal" in2="effect1_dropShadow_772_9087" result="effect2_dropShadow_772_9087"/>
<feBlend mode="normal" in="SourceGraphic" in2="effect2_dropShadow_772_9087" result="shape"/>
<feColorMatrix in="SourceAlpha" type="matrix" values="0 0 0 0 0 0 0 0 0 0 0 0 0 0 0 0 0 0 127 0" result="hardAlpha"/>
<feOffset/>
<feGaussianBlur stdDeviation="10"/>
<feComposite in2="hardAlpha" operator="arithmetic" k2="-1" k3="1"/>
<feColorMatrix type="matrix" values="0 0 0 0 0.1 0 0 0 0 0.15 0 0 0 0 0.1 0 0 0 0.3 0"/>
<feBlend mode="normal" in2="shape" result="effect3_innerShadow_772_9087"/>
</filter>
<filter id="filter2_d_772_9087" x="13.561" y="13.7146" width="335" height="50" filterUnits="userSpaceOnUse" color-interpolation-filters="sRGB">
<feFlood flood-opacity="0" result="BackgroundImageFix"/>
<feColorMatrix in="SourceAlpha" type="matrix" values="0 0 0 0 0 0 0 0 0 0 0 0 0 0 0 0 0 0 127 0" result="hardAlpha"/>
<feOffset/>
<feGaussianBlur stdDeviation="10"/>
<feComposite in2="hardAlpha" operator="out"/>
<feColorMatrix type="matrix" values="0 0 0 0 0 0 0 0 0 0 0 0 0 0 0 0 0 0 0.3 0"/>
<feBlend mode="normal" in2="BackgroundImageFix" result="effect1_dropShadow_772_9087"/>
<feBlend mode="normal" in="SourceGraphic" in2="effect1_dropShadow_772_9087" result="shape"/>
</filter>
<filter id="filter3_d_772_9087" x="116.201" y="24.1161" width="221.721" height="29.4998" filterUnits="userSpaceOnUse" color-interpolation-filters="sRGB">
<feFlood flood-opacity="0" result="BackgroundImageFix"/>
<feColorMatrix in="SourceAlpha" type="matrix" values="0 0 0 0 0 0 0 0 0 0 0 0 0 0 0 0 0 0 127 0" result="hardAlpha"/>
<feOffset/>
<feGaussianBlur stdDeviation="5"/>
<feComposite in2="hardAlpha" operator="out"/>
<feColorMatrix type="matrix" values="0 0 0 0 0.14902 0 0 0 0 0.27451 0 0 0 0 0.32549 0 0 0 0.2 0"/>
<feBlend mode="normal" in2="BackgroundImageFix" result="effect1_dropShadow_772_9087"/>
<feBlend mode="normal" in="SourceGraphic" in2="effect1_dropShadow_772_9087" result="shape"/>
</filter>
<clipPath id="paint0_diamond_772_9087_clip_path"><path d="M327.921 38.8358C327.494 35.4632 262.087 34.0988 211.948 34.1163C161.807 34.1338 126.405 35.1936 126.405 35.1936L126.201 41.9247L128.578 42.3498C128.578 42.3498 181.462 43.2524 216.067 43.5843C250.673 43.9161 328.27 41.5956 327.921 38.8358Z"/></clipPath><filter id="filter4_ig_772_9087" x="29.3223" y="28.7325" width="60.9644" height="19.9805" filterUnits="userSpaceOnUse" color-interpolation-filters="sRGB">
<feFlood flood-opacity="0" result="BackgroundImageFix"/>
<feBlend mode="normal" in="SourceGraphic" in2="BackgroundImageFix" result="shape"/>
<feColorMatrix in="SourceAlpha" type="matrix" values="0 0 0 0 0 0 0 0 0 0 0 0 0 0 0 0 0 0 127 0" result="hardAlpha"/>
<feOffset/>
<feGaussianBlur stdDeviation="5"/>
<feComposite in2="hardAlpha" operator="arithmetic" k2="-1" k3="1"/>
<feColorMatrix type="matrix" values="0 0 0 0 0 0 0 0 0 0 0 0 0 0 0 0 0 0 0.25 0"/>
<feBlend mode="normal" in2="shape" result="effect1_innerShadow_772_9087"/>
<feTurbulence type="fractalNoise" baseFrequency="0.99900001287460327 0.071428574621677399" numOctaves="3" seed="6656" />
<feDisplacementMap in="effect1_innerShadow_772_9087" scale="10" xChannelSelector="R" yChannelSelector="G" result="displacedImage" width="100%" height="100%" />
<feMerge result="effect2_texture_772_9087">
<feMergeNode in="displacedImage"/>
</feMerge>
</filter>
<filter id="filter5_n_772_9087" x="31.6929" y="39.0888" width="48" height="11.0408" filterUnits="userSpaceOnUse" color-interpolation-filters="sRGB">
<feFlood flood-opacity="0" result="BackgroundImageFix"/>
<feBlend mode="normal" in="SourceGraphic" in2="BackgroundImageFix" result="shape"/>
<feTurbulence type="fractalNoise" baseFrequency="100 0.085034012794494629" stitchTiles="stitch" numOctaves="3" result="noise" seed="8973" />
<feColorMatrix in="noise" type="luminanceToAlpha" result="alphaNoise" />
<feComponentTransfer in="alphaNoise" result="coloredNoise1">
<feFuncA type="discrete" tableValues="0 0 0 0 0 0 0 0 0 0 0 0 1 1 1 1 1 1 1 1 1 1 1 1 1 1 1 1 1 1 1 1 1 1 1 1 1 1 0 0 0 0 0 0 0 0 0 0 0 0 0 0 0 0 0 0 0 0 0 0 0 0 0 0 0 0 0 0 0 0 0 0 0 0 0 0 0 0 0 0 0 0 0 0 0 0 0 0 0 0 0 0 0 0 0 0 0 0 0 0 "/>
</feComponentTransfer>
<feComposite operator="in" in2="shape" in="coloredNoise1" result="noise1Clipped" />
<feFlood flood-color="rgba(0, 0, 0, 0.25)" result="color1Flood" />
<feComposite operator="in" in2="noise1Clipped" in="color1Flood" result="color1" />
<feMerge result="effect1_noise_772_9087">
<feMergeNode in="shape" />
<feMergeNode in="color1" />
</feMerge>
</filter>
<filter id="filter6_n_772_9087" x="31.292" y="28.5959" width="48" height="11.0408" filterUnits="userSpaceOnUse" color-interpolation-filters="sRGB">
<feFlood flood-opacity="0" result="BackgroundImageFix"/>
<feBlend mode="normal" in="SourceGraphic" in2="BackgroundImageFix" result="shape"/>
<feTurbulence type="fractalNoise" baseFrequency="100 0.085034012794494629" stitchTiles="stitch" numOctaves="3" result="noise" seed="8973" />
<feColorMatrix in="noise" type="luminanceToAlpha" result="alphaNoise" />
<feComponentTransfer in="alphaNoise" result="coloredNoise1">
<feFuncA type="discrete" tableValues="0 0 0 0 0 0 0 0 0 0 0 0 1 1 1 1 1 1 1 1 1 1 1 1 1 1 1 1 1 1 1 1 1 1 1 1 1 1 0 0 0 0 0 0 0 0 0 0 0 0 0 0 0 0 0 0 0 0 0 0 0 0 0 0 0 0 0 0 0 0 0 0 0 0 0 0 0 0 0 0 0 0 0 0 0 0 0 0 0 0 0 0 0 0 0 0 0 0 0 0 "/>
</feComponentTransfer>
<feComposite operator="in" in2="shape" in="coloredNoise1" result="noise1Clipped" />
<feFlood flood-color="rgba(0, 0, 0, 0.25)" result="color1Flood" />
<feComposite operator="in" in2="noise1Clipped" in="color1Flood" result="color1" />
<feMerge result="effect1_noise_772_9087">
<feMergeNode in="shape" />
<feMergeNode in="color1" />
</feMerge>
</filter>
<filter id="filter7_n_772_9087" x="24.0986" y="37.6151" width="66" height="11.0408" filterUnits="userSpaceOnUse" color-interpolation-filters="sRGB">
<feFlood flood-opacity="0" result="BackgroundImageFix"/>
<feBlend mode="normal" in="SourceGraphic" in2="BackgroundImageFix" result="shape"/>
<feTurbulence type="fractalNoise" baseFrequency="100 0.085034012794494629" stitchTiles="stitch" numOctaves="3" result="noise" seed="8973" />
<feColorMatrix in="noise" type="luminanceToAlpha" result="alphaNoise" />
<feComponentTransfer in="alphaNoise" result="coloredNoise1">
<feFuncA type="discrete" tableValues="0 0 0 0 0 0 0 0 0 0 0 0 1 1 1 1 1 1 1 1 1 1 1 1 1 1 1 1 1 1 1 1 1 1 1 1 1 1 0 0 0 0 0 0 0 0 0 0 0 0 0 0 0 0 0 0 0 0 0 0 0 0 0 0 0 0 0 0 0 0 0 0 0 0 0 0 0 0 0 0 0 0 0 0 0 0 0 0 0 0 0 0 0 0 0 0 0 0 0 0 "/>
</feComponentTransfer>
<feComposite operator="in" in2="shape" in="coloredNoise1" result="noise1Clipped" />
<feFlood flood-color="rgba(0, 0, 0, 0.25)" result="color1Flood" />
<feComposite operator="in" in2="noise1Clipped" in="color1Flood" result="color1" />
<feMerge result="effect1_noise_772_9087">
<feMergeNode in="shape" />
<feMergeNode in="color1" />
</feMerge>
</filter>
<filter id="filter8_n_772_9087" x="9.4082" y="26.6479" width="66" height="11.0408" filterUnits="userSpaceOnUse" color-interpolation-filters="sRGB">
<feFlood flood-opacity="0" result="BackgroundImageFix"/>
<feBlend mode="normal" in="SourceGraphic" in2="BackgroundImageFix" result="shape"/>
<feTurbulence type="fractalNoise" baseFrequency="100 0.085034012794494629" stitchTiles="stitch" numOctaves="3" result="noise" seed="8973" />
<feColorMatrix in="noise" type="luminanceToAlpha" result="alphaNoise" />
<feComponentTransfer in="alphaNoise" result="coloredNoise1">
<feFuncA type="discrete" tableValues="0 0 0 0 0 0 0 0 0 0 0 0 1 1 1 1 1 1 1 1 1 1 1 1 1 1 1 1 1 1 1 1 1 1 1 1 1 1 0 0 0 0 0 0 0 0 0 0 0 0 0 0 0 0 0 0 0 0 0 0 0 0 0 0 0 0 0 0 0 0 0 0 0 0 0 0 0 0 0 0 0 0 0 0 0 0 0 0 0 0 0 0 0 0 0 0 0 0 0 0 "/>
</feComponentTransfer>
<feComposite operator="in" in2="shape" in="coloredNoise1" result="noise1Clipped" />
<feFlood flood-color="rgba(0, 0, 0, 0.25)" result="color1Flood" />
<feComposite operator="in" in2="noise1Clipped" in="color1Flood" result="color1" />
<feMerge result="effect1_noise_772_9087">
<feMergeNode in="shape" />
<feMergeNode in="color1" />
</feMerge>
</filter>
<filter id="filter9_ig_772_9087" x="29.9287" y="28.7325" width="60.3579" height="19.9805" filterUnits="userSpaceOnUse" color-interpolation-filters="sRGB">
<feFlood flood-opacity="0" result="BackgroundImageFix"/>
<feBlend mode="normal" in="SourceGraphic" in2="BackgroundImageFix" result="shape"/>
<feColorMatrix in="SourceAlpha" type="matrix" values="0 0 0 0 0 0 0 0 0 0 0 0 0 0 0 0 0 0 127 0" result="hardAlpha"/>
<feOffset/>
<feGaussianBlur stdDeviation="5"/>
<feComposite in2="hardAlpha" operator="arithmetic" k2="-1" k3="1"/>
<feColorMatrix type="matrix" values="0 0 0 0 0 0 0 0 0 0 0 0 0 0 0 0 0 0 0.25 0"/>
<feBlend mode="normal" in2="shape" result="effect1_innerShadow_772_9087"/>
<feTurbulence type="fractalNoise" baseFrequency="0.99900001287460327 0.071428574621677399" numOctaves="3" seed="6656" />
<feDisplacementMap in="effect1_innerShadow_772_9087" scale="10" xChannelSelector="R" yChannelSelector="G" result="displacedImage" width="100%" height="100%" />
<feMerge result="effect2_texture_772_9087">
<feMergeNode in="displacedImage"/>
</feMerge>
</filter>
<clipPath id="paint1_diamond_772_9087_clip_path"><path d="M66.2899 33.7426C63.6656 33.7772 60.9504 34.02 58.3318 34.3543C53.3843 34.9859 48.7828 35.944 45.8044 36.443C40.0625 37.4056 36.7235 38.3093 35.0912 38.5281C33.6198 38.7249 42.5133 40.365 46.7033 41.0983C49.6127 41.6075 54.866 42.662 60.555 43.2647C63.0586 43.5299 65.6473 43.708 68.159 43.7129C78.5001 43.7332 85.8926 42.0418 85.2477 38.5281C84.6017 35.0143 77.3574 33.597 66.2899 33.7426Z"/></clipPath><filter id="filter10_i_772_9087" x="82.7637" y="34.8826" width="47.0059" height="9.74448" filterUnits="userSpaceOnUse" color-interpolation-filters="sRGB">
<feFlood flood-opacity="0" result="BackgroundImageFix"/>
<feBlend mode="normal" in="SourceGraphic" in2="BackgroundImageFix" result="shape"/>
<feColorMatrix in="SourceAlpha" type="matrix" values="0 0 0 0 0 0 0 0 0 0 0 0 0 0 0 0 0 0 127 0" result="hardAlpha"/>
<feOffset dy="3"/>
<feGaussianBlur stdDeviation="1"/>
<feComposite in2="hardAlpha" operator="arithmetic" k2="-1" k3="1"/>
<feColorMatrix type="matrix" values="0 0 0 0 1 0 0 0 0 1 0 0 0 0 1 0 0 0 0.5 0"/>
<feBlend mode="normal" in2="shape" result="effect1_innerShadow_772_9087"/>
</filter>
<clipPath id="paint2_diamond_772_9087_clip_path"><path d="M82.8424 38.9621C82.7372 37.7339 82.5319 35.953 83.8454 35.7997C85.1588 35.6464 129.252 34.8826 129.252 34.8826C129.252 34.8826 128.471 36.5419 128.644 38.8925C128.817 41.2432 129.769 42.6271 129.769 42.6271C129.769 42.6271 112.121 41.9764 103.971 41.8186C95.8222 41.6608 85.3994 41.4766 84.2506 41.2964C83.1018 41.1167 82.9326 40.0231 82.8417 38.9625L82.8424 38.9621Z"/></clipPath><linearGradient id="paint0_diamond_772_9087" x1="0" y1="0" x2="500" y2="500" gradientUnits="userSpaceOnUse">
<stop stop-color="white"/>
<stop offset="1" stop-opacity="0"/>
</linearGradient>
<linearGradient id="paint1_diamond_772_9087" x1="0" y1="0" x2="500" y2="500" gradientUnits="userSpaceOnUse">
<stop stop-color="white"/>
<stop offset="0.764423"/>
</linearGradient>
<linearGradient id="paint2_diamond_772_9087" x1="0" y1="0" x2="500" y2="500" gradientUnits="userSpaceOnUse">
<stop stop-color="white"/>
<stop offset="1" stop-opacity="0"/>
</linearGradient>
</defs>
</svg>
