<svg width="308" height="272" viewBox="0 0 308 272" fill="none" xmlns="http://www.w3.org/2000/svg">

<g id="TEMP EXPORT v33.2">
<g id="bottom">
<g id="Paper Base" filter="url(#filter0_d_118_2448)">
<path d="M56.8483 156.393L148.428 214.434L253.957 156.393L253.957 136.921L148.428 131.564L148.438 131.586L145.963 131.59L145.957 131.564L56.8483 136.921L56.8483 156.393Z" fill="#FAF7F0"/>
<path d="M56.8483 156.393L148.428 214.434L253.957 156.393L253.957 136.921L148.428 131.564L148.438 131.586L145.963 131.59L145.957 131.564L56.8483 136.921L56.8483 156.393Z" fill="url(#paint0_linear_118_2448)" fill-opacity="0.1"/>
</g>
</g>
<g id="folded paper">
<g id="Inside Paper" filter="url(#filter1_d_118_2448)">
<path d="M35.8495 122.239L151.716 122.238L266.824 122.238L148.529 28.29L35.8495 122.239Z" fill="#FAF7F0"/>
<path d="M35.8495 122.239L151.716 122.238L266.824 122.238L148.529 28.29L35.8495 122.239Z" fill="url(#paint1_linear_118_2448)" fill-opacity="0.5"/>
</g>
<g id="Subtract" filter="url(#filter2_d_118_2448)">
<path d="M148.526 121.844L257.815 121.846L148.526 215.042V121.844Z" fill="#FAF7F0"/>
<path d="M148.526 121.844L257.815 121.846L148.526 215.042V121.844Z" fill="url(#paint2_linear_118_2448)" fill-opacity="0.5"/>
<path d="M39.353 121.845L148.526 121.844V215.042L39.353 121.845Z" fill="#FAF7F0"/>
<path d="M39.353 121.845L148.526 121.844V215.042L39.353 121.845Z" fill="url(#paint3_linear_118_2448)" fill-opacity="0.5"/>
</g>
<g id="inside folds">
<path id="Vector 1" d="M50.2026 122.177L149.209 94.3272L149.76 150.532L50.2026 122.177Z" fill="url(#paint4_linear_118_2448)" fill-opacity="0.3"/>
<path id="Vector 2" d="M252.337 122.339L148.281 91.7847L149.536 152.856L252.337 122.339Z" fill="url(#paint5_linear_118_2448)" fill-opacity="0.3"/>
<g id="Horizontal Flap Numbers">
<path id="2-warp" d="M157.803 99.2995C157.332 98.9297 157.098 98.4926 157.093 97.9815C157.109 97.4871 157.335 97.0555 157.777 96.693C158.24 96.3128 158.775 96.1239 159.388 96.1321C164.66 95.8745 170.307 95.912 176.331 96.2442C177.995 96.3359 179.69 96.4502 181.411 96.5871C183.09 96.7218 184.558 96.7587 185.793 96.6803C187.056 96.6235 188.058 96.4134 188.779 96.0327C189.913 95.4356 190.677 94.7507 191.053 93.9644C191.429 93.178 191.408 92.3335 190.99 91.4306C190.6 90.5203 189.81 89.5957 188.639 88.6725C188.632 88.6667 188.624 88.6604 188.617 88.6546C187.464 87.7496 186.177 87.0773 184.78 86.6567C183.436 86.2441 182.126 86.0945 180.85 86.2089C179.626 86.3297 178.589 86.7152 177.716 87.348C177.267 87.6722 176.663 87.7889 175.909 87.7045C175.184 87.6421 174.519 87.3737 173.907 86.8936C173.323 86.4351 172.984 85.9155 172.883 85.3287C172.782 84.7424 172.937 84.2732 173.358 83.9275C174.791 82.7534 176.51 82.0578 178.58 81.8913C180.67 81.7069 182.892 82.0145 185.243 82.8122C187.624 83.6336 189.905 84.8997 192.02 86.5601C192.028 86.5664 192.036 86.5727 192.043 86.5785C194.178 88.2571 195.678 89.9252 196.489 91.5387C197.304 93.1589 197.411 94.6288 196.81 95.9483C196.24 97.2925 194.94 98.4015 192.966 99.3193C192.1 99.7216 191.022 99.974 189.75 100.09C188.504 100.228 187.2 100.269 185.844 100.219C184.516 100.19 183.269 100.124 182.1 100.017C178.396 99.6714 174.823 99.4285 171.382 99.2885C168.92 99.1888 166.525 99.1416 164.198 99.1475C165.283 99.9995 166.369 100.852 167.455 101.704C169.552 103.351 171.65 104.997 173.747 106.644C174.248 107.036 174.456 107.47 174.361 107.936C174.294 108.391 173.983 108.739 173.439 108.987C172.867 109.248 172.212 109.343 171.483 109.277C170.753 109.212 170.158 108.997 169.687 108.628C167.712 107.078 165.737 105.527 163.761 103.976C161.775 102.417 159.789 100.858 157.803 99.2995Z" fill="#020101" fill-opacity="0.75"/>
<path id="5-warp" d="M161.241 136.89C162.842 135.574 164.612 134.713 166.619 134.25C168.624 133.825 170.67 133.797 172.759 134.165C174.823 134.554 176.699 135.349 178.319 136.606C178.814 136.99 179.042 137.45 178.995 137.992C178.971 138.551 178.67 139.068 178.101 139.536C177.532 140.003 176.89 140.261 176.183 140.303C175.496 140.364 174.923 140.188 174.455 139.782C173.539 138.988 172.457 138.475 171.235 138.222C170.01 137.97 168.793 137.982 167.579 138.261C166.342 138.559 165.232 139.111 164.223 139.94C164.217 139.945 164.211 139.95 164.206 139.954C163.184 140.799 162.469 141.746 162.037 142.815C161.58 143.911 161.421 145.03 161.561 146.173C161.702 147.316 162.14 148.358 162.9 149.279C163.678 150.222 164.621 150.848 165.754 151.14C166.905 151.453 168.135 151.43 169.446 151.072C170.722 150.737 171.964 150.076 173.15 149.106C173.156 149.101 173.163 149.095 173.17 149.09C175.43 147.232 177.69 145.375 179.95 143.517C180.546 143.027 181.184 142.755 181.872 142.692C182.581 142.649 183.182 142.82 183.668 143.212C186.645 145.618 189.623 148.024 192.601 150.431C193.087 150.822 193.278 151.33 193.168 151.96C193.058 152.59 192.653 153.192 191.961 153.761C189.324 155.928 186.688 158.095 184.051 160.262C181.431 162.416 178.81 164.57 176.19 166.724C175.528 167.267 174.822 167.56 174.08 167.595C173.354 167.652 172.817 167.446 172.462 166.983C172.124 166.542 172.059 165.966 172.26 165.262C172.43 164.583 172.844 163.973 173.51 163.426C176.03 161.354 178.55 159.282 181.07 157.211C182.834 155.762 184.597 154.313 186.36 152.863C184.597 151.274 182.835 149.685 181.071 148.096C179.432 149.444 177.792 150.792 176.152 152.14C176.145 152.145 176.137 152.151 176.131 152.157C174.072 153.845 171.914 155.007 169.723 155.59C167.513 156.22 165.477 156.257 163.615 155.702C161.741 155.193 160.238 154.092 159.036 152.455C157.85 150.841 157.206 149.033 157.033 147.091C156.838 145.166 157.091 143.303 157.793 141.504C158.489 139.75 159.611 138.234 161.224 136.904C161.23 136.899 161.235 136.895 161.241 136.89Z" fill="#020101" fill-opacity="0.75"/>
<path id="6-warp" d="M136.337 133.705C136.343 133.71 136.349 133.715 136.355 133.72C137.985 135.065 139.092 136.616 139.77 138.452C140.403 140.299 140.593 142.252 140.339 144.308C140.061 146.389 139.317 148.406 138.008 150.281C136.68 152.183 135.081 153.5 133.115 154.156C131.132 154.84 128.957 154.856 126.593 154.206C124.186 153.559 121.792 152.266 119.508 150.407C119.5 150.4 119.491 150.393 119.483 150.386C117.191 148.516 115.538 146.504 114.622 144.429C113.676 142.374 113.487 140.422 114.059 138.577C114.598 136.75 115.908 135.186 117.89 133.81C119.845 132.454 122.009 131.589 124.285 131.141C126.537 130.715 128.714 130.7 130.812 131.095C132.888 131.512 134.698 132.358 136.337 133.705ZM133.182 136.897C133.176 136.892 133.17 136.887 133.164 136.882C132.12 136.031 130.992 135.49 129.745 135.233C128.44 134.977 127.115 135.004 125.768 135.315C124.398 135.648 123.127 136.257 121.991 137.167C120.828 138.1 120.071 139.127 119.751 140.278C119.431 141.429 119.529 142.622 120.046 143.857C120.528 145.059 121.424 146.198 122.7 147.245C122.708 147.251 122.715 147.257 122.723 147.264C124.012 148.317 125.381 149.03 126.795 149.373C128.179 149.693 129.491 149.655 130.731 149.259C131.941 148.84 132.989 148.053 133.907 146.924C134.805 145.822 135.369 144.637 135.632 143.4C135.847 142.165 135.765 140.984 135.382 139.859C134.952 138.735 134.23 137.757 133.182 136.897ZM132.829 154.242C126.372 156.174 119.239 157.563 111.428 158.408C110.291 158.532 109.138 158.643 107.972 158.744C106.598 158.82 105.346 158.398 104.247 157.503C103.423 156.832 102.888 156.14 102.652 155.436C102.416 154.731 102.48 154.142 102.836 153.663C103.153 153.153 103.761 152.88 104.645 152.83C109.522 152.528 114.16 152.033 118.559 151.345C119.345 151.223 120.122 151.094 120.892 150.96C125.052 152.199 129.031 153.293 132.829 154.242Z" fill="#020101" fill-opacity="0.75"/>
<path id="1-warp" d="M137.721 104.954C137.448 105.169 137.054 105.225 136.523 105.137C135.992 105.049 135.488 104.838 135.031 104.489C128.393 99.4251 121.754 94.3607 115.116 89.2968C114.823 89.7294 114.535 90.1583 114.251 90.5841C113.767 91.3096 113.294 92.0252 112.833 92.7312C112.488 93.2497 112.095 93.6867 111.646 94.0488C110.989 94.5805 110.263 94.9277 109.452 95.1055C108.672 95.2583 107.99 95.1955 107.422 94.9047C107.008 94.6926 106.759 94.3995 106.682 94.0183C106.604 93.6367 106.766 93.1811 107.169 92.6504C108.296 91.1486 109.467 89.6116 110.681 88.0386C111.439 87.0554 112.214 86.0583 113.007 85.0475C113.135 84.8751 113.274 84.7113 113.423 84.5561C113.572 84.4009 113.716 84.2682 113.851 84.1576C114.634 83.5231 115.398 83.1613 116.127 83.0854C116.87 82.9623 117.454 83.1239 117.893 83.5568C124.371 89.9307 130.848 96.3049 137.326 102.679C137.727 103.074 137.959 103.5 138.041 103.943C138.122 104.386 138.022 104.719 137.721 104.954Z" fill="#020101" fill-opacity="0.75"/>
</g>
</g>
<mask id="mask0_118_2448" style="mask-type:alpha" maskUnits="userSpaceOnUse" x="39" y="151" width="219" height="113">
<g id="Paper Base_2">
<path d="M39.0278 260.422L145.204 263.278L145.385 259.551L152.999 259.551L153.21 263.278L257.528 260.422L257.528 151.305L149.378 151.309L149.387 151.34L146.913 151.344L146.907 151.309L39.027 151.305L39.0274 205.014L39.1452 205.019L39.1103 206.21L39.0274 206.211L39.0278 260.422Z" fill="#FAF7F0"/>
<path d="M39.0278 260.422L145.204 263.278L145.385 259.551L152.999 259.551L153.21 263.278L257.528 260.422L257.528 151.305L149.378 151.309L149.387 151.34L146.913 151.344L146.907 151.309L39.027 151.305L39.0274 205.014L39.1452 205.019L39.1103 206.21L39.0274 206.211L39.0278 260.422Z" fill="url(#paint6_linear_118_2448)" fill-opacity="0.25"/>
</g>
</mask>
<g mask="url(#mask0_118_2448)">
</g>
</g>
<g id="top">
<path id="Center Crease" d="M148.928 27.8019L148.928 214.434" stroke="url(#paint7_linear_118_2448)" stroke-opacity="0.5" stroke-width="2.3"/>
<g id="top back">
<g id="back left base">
<path d="M43.456 16.9306L21.2487 122.148L50.0665 122.148L149.185 28.471C149.185 28.471 141.992 18.2713 128.586 17.0299C115.181 15.7885 43.456 16.9306 43.456 16.9306Z" fill="#EFE9DD"/>
<path d="M43.456 16.9306L21.2487 122.148L50.0665 122.148L149.185 28.471C149.185 28.471 141.992 18.2713 128.586 17.0299C115.181 15.7885 43.456 16.9306 43.456 16.9306Z" fill="url(#paint8_linear_118_2448)" fill-opacity="0.2"/>
</g>
<g id="back right base">
<path d="M259.232 17.1235L279.601 122.641L252.094 122.641L148.759 27.9969C148.759 27.9969 155.023 18.1731 168.902 16.9708C182.781 15.7685 259.232 17.1235 259.232 17.1235Z" fill="#EFE9DD"/>
<path d="M259.232 17.1235L279.601 122.641L252.094 122.641L148.759 27.9969C148.759 27.9969 155.023 18.1731 168.902 16.9708C182.781 15.7685 259.232 17.1235 259.232 17.1235Z" fill="url(#paint9_linear_118_2448)" fill-opacity="0.2"/>
</g>
<g id="back left fold">
<path d="M22.3335 122.605L50.1321 122.605L43.4623 17.0429C43.6044 25.5261 6.45537 103.94 22.3335 122.605Z" fill="#EFE9DD"/>
<path d="M22.3335 122.605L50.1321 122.605L43.4623 17.0429C43.6044 25.5261 6.45537 103.94 22.3335 122.605Z" fill="url(#paint10_linear_118_2448)" fill-opacity="0.5"/>
</g>
<g id="back right fold">
<path d="M279.54 122.409L252.114 122.409L259.056 17.3665C258.926 25.4343 291.521 104.087 279.54 122.409Z" fill="#EFE9DD"/>
<path d="M279.54 122.409L252.114 122.409L259.056 17.3665C258.926 25.4343 291.521 104.087 279.54 122.409Z" fill="url(#paint11_linear_118_2448)" fill-opacity="0.5"/>
</g>
</g>
<g id="left" filter="url(#filter3_d_118_2448)">
<g id="left_2">
<path d="M279.197 122.44C279.197 122.44 283.402 126.206 283.403 136.258C283.404 146.309 257.619 227.029 257.619 227.029C211.302 223.395 156.946 229.279 148.581 215.053L252.286 122.439L279.197 122.44Z" fill="#EFE9DD"/>
<path d="M279.197 122.44C279.197 122.44 283.402 126.206 283.403 136.258C283.404 146.309 257.619 227.029 257.619 227.029C211.302 223.395 156.946 229.279 148.581 215.053L252.286 122.439L279.197 122.44Z" fill="url(#paint12_linear_118_2448)" fill-opacity="0.15"/>
</g>
<path id="Subtract_2" d="M257.095 227.557C256.97 227.561 201.813 229.366 175.717 229.366C160.072 226.878 152.028 219.536 149.603 216.434L149.603 214.328L252.226 122.414L257.095 227.557Z" fill="#EFE9DD"/>
</g>
<g id="right" filter="url(#filter4_d_118_2448)">
<g id="rights">
<path d="M41.3187 231.825C41.3187 231.825 14.8958 163.041 14.9004 141.64C14.905 120.239 21.7449 122.147 21.7449 122.147L50.0301 122.202L147.839 214.498C147.839 214.498 143.4 224.252 129.805 225.423C116.21 226.594 41.3187 231.825 41.3187 231.825Z" fill="#EFE9DD"/>
<path d="M41.3187 231.825C41.3187 231.825 14.8958 163.041 14.9004 141.64C14.905 120.239 21.7449 122.147 21.7449 122.147L50.0301 122.202L147.839 214.498C147.839 214.498 143.4 224.252 129.805 225.423C116.21 226.594 41.3187 231.825 41.3187 231.825Z" fill="url(#paint13_linear_118_2448)" fill-opacity="0.2"/>
</g>
<path id="Subtract_3" d="M41.2189 231.825C38.5386 164.244 50.1753 122.461 50.2137 122.324L148.276 214.579C148.277 234.463 41.3852 231.829 41.2189 231.825Z" fill="#EFE9DD"/>
</g>
</g>
</g>
<defs>
<filter id="filter0_d_118_2448" x="40.7483" y="117.764" width="238.509" height="124.27" filterUnits="userSpaceOnUse" color-interpolation-filters="sRGB">
<feFlood flood-opacity="0" result="BackgroundImageFix"/>
<feColorMatrix in="SourceAlpha" type="matrix" values="0 0 0 0 0 0 0 0 0 0 0 0 0 0 0 0 0 0 127 0" result="hardAlpha"/>
<feOffset dx="4.6" dy="6.9"/>
<feGaussianBlur stdDeviation="10.35"/>
<feColorMatrix type="matrix" values="0 0 0 0 0.149 0 0 0 0 0.275 0 0 0 0 0.325 0 0 0 0.18 0"/>
<feBlend mode="normal" in2="BackgroundImageFix" result="effect1_dropShadow_118_2448"/>
<feBlend mode="normal" in="SourceGraphic" in2="effect1_dropShadow_118_2448" result="shape"/>
</filter>
<filter id="filter1_d_118_2448" x="19.7495" y="14.49" width="272.375" height="135.349" filterUnits="userSpaceOnUse" color-interpolation-filters="sRGB">
<feFlood flood-opacity="0" result="BackgroundImageFix"/>
<feColorMatrix in="SourceAlpha" type="matrix" values="0 0 0 0 0 0 0 0 0 0 0 0 0 0 0 0 0 0 127 0" result="hardAlpha"/>
<feOffset dx="4.6" dy="6.9"/>
<feGaussianBlur stdDeviation="10.35"/>
<feColorMatrix type="matrix" values="0 0 0 0 0.149 0 0 0 0 0.275 0 0 0 0 0.325 0 0 0 0.18 0"/>
<feBlend mode="normal" in2="BackgroundImageFix" result="effect1_dropShadow_118_2448"/>
<feBlend mode="normal" in="SourceGraphic" in2="effect1_dropShadow_118_2448" result="shape"/>
</filter>
<filter id="filter2_d_118_2448" x="23.253" y="108.044" width="259.862" height="134.598" filterUnits="userSpaceOnUse" color-interpolation-filters="sRGB">
<feFlood flood-opacity="0" result="BackgroundImageFix"/>
<feColorMatrix in="SourceAlpha" type="matrix" values="0 0 0 0 0 0 0 0 0 0 0 0 0 0 0 0 0 0 127 0" result="hardAlpha"/>
<feOffset dx="4.6" dy="6.9"/>
<feGaussianBlur stdDeviation="10.35"/>
<feColorMatrix type="matrix" values="0 0 0 0 0.149 0 0 0 0 0.275 0 0 0 0 0.325 0 0 0 0.18 0"/>
<feBlend mode="normal" in2="BackgroundImageFix" result="effect1_dropShadow_118_2448"/>
<feBlend mode="normal" in="SourceGraphic" in2="effect1_dropShadow_118_2448" result="shape"/>
</filter>
<filter id="filter3_d_118_2448" x="141.681" y="115.514" width="157.823" height="129.952" filterUnits="userSpaceOnUse" color-interpolation-filters="sRGB">
<feFlood flood-opacity="0" result="BackgroundImageFix"/>
<feColorMatrix in="SourceAlpha" type="matrix" values="0 0 0 0 0 0 0 0 0 0 0 0 0 0 0 0 0 0 127 0" result="hardAlpha"/>
<feOffset dx="4.6" dy="4.6"/>
<feGaussianBlur stdDeviation="5.75"/>
<feComposite in2="hardAlpha" operator="out"/>
<feColorMatrix type="matrix" values="0 0 0 0 0.14902 0 0 0 0 0.27451 0 0 0 0 0.32549 0 0 0 0.25 0"/>
<feBlend mode="normal" in2="BackgroundImageFix" result="effect1_dropShadow_118_2448"/>
<feBlend mode="normal" in="SourceGraphic" in2="effect1_dropShadow_118_2448" result="shape"/>
</filter>
<filter id="filter4_d_118_2448" x="8.00039" y="115.204" width="156.376" height="132.839" filterUnits="userSpaceOnUse" color-interpolation-filters="sRGB">
<feFlood flood-opacity="0" result="BackgroundImageFix"/>
<feColorMatrix in="SourceAlpha" type="matrix" values="0 0 0 0 0 0 0 0 0 0 0 0 0 0 0 0 0 0 127 0" result="hardAlpha"/>
<feOffset dx="4.6" dy="4.6"/>
<feGaussianBlur stdDeviation="5.75"/>
<feComposite in2="hardAlpha" operator="out"/>
<feColorMatrix type="matrix" values="0 0 0 0 0.14902 0 0 0 0 0.27451 0 0 0 0 0.32549 0 0 0 0.25 0"/>
<feBlend mode="normal" in2="BackgroundImageFix" result="effect1_dropShadow_118_2448"/>
<feBlend mode="normal" in="SourceGraphic" in2="effect1_dropShadow_118_2448" result="shape"/>
</filter>
<linearGradient id="paint0_linear_118_2448" x1="194.072" y1="148.214" x2="180.167" y2="181.314" gradientUnits="userSpaceOnUse">
<stop stop-color="#C9B99A" stop-opacity="0.06"/>
<stop offset="1" stop-color="#635B4C"/>
</linearGradient>
<linearGradient id="paint1_linear_118_2448" x1="119.047" y1="78.3444" x2="173.967" y2="75.1709" gradientUnits="userSpaceOnUse">
<stop stop-color="#635B4C" stop-opacity="0.75"/>
<stop offset="0.475962" stop-color="#635B4C"/>
<stop offset="1" stop-color="#635B4C" stop-opacity="0.5"/>
</linearGradient>
<linearGradient id="paint2_linear_118_2448" x1="126.922" y1="92.269" x2="173.845" y2="93.7232" gradientUnits="userSpaceOnUse">
<stop stop-color="#635B4C" stop-opacity="0.5"/>
<stop offset="0.5" stop-color="#635B4C"/>
<stop offset="1" stop-color="#635B4C" stop-opacity="0.5"/>
</linearGradient>
<linearGradient id="paint3_linear_118_2448" x1="126.922" y1="92.269" x2="173.845" y2="93.7232" gradientUnits="userSpaceOnUse">
<stop stop-color="#635B4C" stop-opacity="0.5"/>
<stop offset="0.5" stop-color="#635B4C"/>
<stop offset="1" stop-color="#635B4C" stop-opacity="0.5"/>
</linearGradient>
<linearGradient id="paint4_linear_118_2448" x1="99.9815" y1="120.077" x2="99.9815" y2="123.357" gradientUnits="userSpaceOnUse">
<stop stop-color="#635B4C" stop-opacity="0"/>
<stop offset="0.5" stop-color="#635B4C"/>
<stop offset="1" stop-color="#635B4C" stop-opacity="0"/>
</linearGradient>
<linearGradient id="paint5_linear_118_2448" x1="156.905" y1="124.632" x2="156.905" y2="120.801" gradientUnits="userSpaceOnUse">
<stop stop-color="#635B4C" stop-opacity="0"/>
<stop offset="0.464818" stop-color="#635B4C"/>
<stop offset="1" stop-color="#635B4C" stop-opacity="0"/>
</linearGradient>
<linearGradient id="paint6_linear_118_2448" x1="240.448" y1="207.498" x2="225.016" y2="185.678" gradientUnits="userSpaceOnUse">
<stop stop-color="#C9B99A" stop-opacity="0.06"/>
<stop offset="1" stop-color="#635B4C"/>
</linearGradient>
<linearGradient id="paint7_linear_118_2448" x1="150.202" y1="121.118" x2="147.663" y2="121.118" gradientUnits="userSpaceOnUse">
<stop stop-color="#635B4C" stop-opacity="0"/>
<stop offset="0.5" stop-color="#635B4C"/>
<stop offset="1" stop-color="#635B4C" stop-opacity="0"/>
</linearGradient>
<linearGradient id="paint8_linear_118_2448" x1="107.28" y1="61.498" x2="38.3126" y2="121.396" gradientUnits="userSpaceOnUse">
<stop stop-color="#C9B99A" stop-opacity="0.06"/>
<stop offset="1" stop-color="#635B4C"/>
</linearGradient>
<linearGradient id="paint9_linear_118_2448" x1="190.959" y1="61.5009" x2="260.24" y2="123.954" gradientUnits="userSpaceOnUse">
<stop stop-color="#C9B99A" stop-opacity="0.06"/>
<stop offset="1" stop-color="#635B4C"/>
</linearGradient>
<linearGradient id="paint10_linear_118_2448" x1="64.0265" y1="132.946" x2="71.6674" y2="85.0798" gradientUnits="userSpaceOnUse">
<stop stop-color="#635B4C" stop-opacity="0.5"/>
<stop offset="0.947115" stop-color="#635B4C" stop-opacity="0"/>
</linearGradient>
<linearGradient id="paint11_linear_118_2448" x1="218.929" y1="132.241" x2="214.722" y2="100.272" gradientUnits="userSpaceOnUse">
<stop stop-color="#635B4C" stop-opacity="0.5"/>
<stop offset="0.947115" stop-color="#635B4C" stop-opacity="0"/>
</linearGradient>
<linearGradient id="paint12_linear_118_2448" x1="189.057" y1="181.686" x2="252.845" y2="115.767" gradientUnits="userSpaceOnUse">
<stop stop-color="#635B4C" stop-opacity="0"/>
<stop offset="1" stop-color="#635B4C"/>
</linearGradient>
<linearGradient id="paint13_linear_118_2448" x1="108.198" y1="181.926" x2="40.511" y2="120.719" gradientUnits="userSpaceOnUse">
<stop stop-color="#C9B99A" stop-opacity="0.06"/>
<stop offset="1" stop-color="#635B4C"/>
</linearGradient>
</defs>
</svg>
