<svg width="261" height="279" viewBox="0 0 261 279" fill="none" xmlns="http://www.w3.org/2000/svg">

<g id="TEMP EXPORT v33.1">
<g id="bottom">
<g id="Paper Base" filter="url(#filter0_d_118_2448)">
<path d="M30.5318 164.066L122.112 224.065L227.641 164.066L227.641 143.936L122.112 138.398L122.121 138.421L119.647 138.425L119.641 138.398L30.5318 143.936L30.5318 164.066Z" fill="#FAF7F0"/>
<path d="M30.5318 164.066L122.112 224.065L227.641 164.066L227.641 143.936L122.112 138.398L122.121 138.421L119.647 138.425L119.641 138.398L30.5318 143.936L30.5318 164.066Z" fill="url(#paint0_linear_118_2448)" fill-opacity="0.1"/>
</g>
</g>
<g id="folded paper">
<g id="Inside Paper" filter="url(#filter1_d_118_2448)">
<path d="M109.416 129.083L125.396 129.082L136.699 129.082L125.396 35.1546L109.416 129.083Z" fill="#FAF7F0"/>
<path d="M109.416 129.083L125.396 129.082L136.699 129.082L125.396 35.1546L109.416 129.083Z" fill="url(#paint1_linear_118_2448)" fill-opacity="0.5"/>
</g>
<g id="Subtract" filter="url(#filter2_d_118_2448)">
<path d="M122.207 128.688L136.701 128.69L122.207 223.992V128.688Z" fill="#FAF7F0"/>
<path d="M122.207 128.688L136.701 128.69L122.207 223.992V128.688Z" fill="url(#paint2_linear_118_2448)" fill-opacity="0.5"/>
<path d="M110.591 128.689L122.207 128.688V223.992L110.591 128.689Z" fill="#FAF7F0"/>
<path d="M110.591 128.689L122.207 128.688V223.992L110.591 128.689Z" fill="url(#paint3_linear_118_2448)" fill-opacity="0.5"/>
</g>
<g id="inside folds">
<path id="Vector 1" d="M58.0866 129.204L124.63 127.651V131.277L58.0866 129.204Z" fill="#635B4C" fill-opacity="0.3"/>
<path id="Vector 2" d="M225.528 128.714L124.63 127.721L124.633 131.278L225.528 128.714Z" fill="#635B4C" fill-opacity="0.3"/>
<g id="Horizontal Flap Numbers">
<path id="2-warp" d="M133.207 106.834C132.735 106.464 132.502 106.027 132.496 105.516C132.512 105.021 132.738 104.59 133.18 104.227C133.643 103.847 134.178 103.658 134.791 103.666C140.063 103.409 145.71 103.446 151.734 103.778C153.398 103.87 155.093 103.984 156.815 104.121C158.493 104.256 159.961 104.293 161.196 104.214C162.459 104.158 163.461 103.948 164.182 103.567C165.316 102.97 166.08 102.285 166.456 101.499C166.832 100.712 166.812 99.8676 166.393 98.9648C166.004 98.0545 165.213 97.1299 164.042 96.2067C164.035 96.2009 164.027 96.1946 164.02 96.1888C162.867 95.2838 161.58 94.6115 160.183 94.1909C158.839 93.7783 157.529 93.6287 156.254 93.7431C155.03 93.8639 153.992 94.2494 153.119 94.8822C152.671 95.2064 152.066 95.3231 151.312 95.2386C150.587 95.1762 149.922 94.9079 149.31 94.4278C148.726 93.9692 148.387 93.4497 148.286 92.8629C148.185 92.2766 148.341 91.8074 148.761 91.4616C150.194 90.2875 151.913 89.592 153.983 89.4254C156.073 89.2411 158.295 89.5486 160.646 90.3464C163.028 91.1678 165.308 92.4339 167.423 94.0943C167.431 94.1006 167.439 94.1069 167.446 94.1127C169.581 95.7912 171.081 97.4594 171.892 99.0729C172.707 100.693 172.814 102.163 172.213 103.482C171.643 104.827 170.343 105.936 168.369 106.853C167.504 107.256 166.426 107.508 165.153 107.625C163.907 107.762 162.603 107.803 161.248 107.753C159.919 107.725 158.672 107.658 157.503 107.551C153.799 107.206 150.226 106.963 146.785 106.823C144.323 106.723 141.928 106.676 139.601 106.682C140.686 107.534 141.772 108.386 142.858 109.238C144.956 110.885 147.053 112.532 149.15 114.178C149.651 114.571 149.859 115.004 149.764 115.471C149.697 115.925 149.387 116.273 148.842 116.522C148.27 116.783 147.615 116.877 146.886 116.811C146.157 116.746 145.561 116.532 145.09 116.162C143.115 114.612 141.14 113.061 139.165 111.511C137.179 109.952 135.193 108.393 133.207 106.834Z" fill="#020101" fill-opacity="0.75"/>
<path id="5-warp" d="M136.645 144.424C138.245 143.109 140.015 142.247 142.022 141.784C144.027 141.359 146.073 141.331 148.162 141.699C150.226 142.088 152.102 142.883 153.723 144.14C154.217 144.524 154.445 144.984 154.398 145.526C154.374 146.085 154.074 146.602 153.504 147.07C152.935 147.538 152.293 147.795 151.586 147.837C150.9 147.898 150.326 147.722 149.858 147.316C148.943 146.523 147.861 146.01 146.638 145.756C145.414 145.504 144.196 145.516 142.982 145.795C141.745 146.093 140.635 146.646 139.626 147.474C139.62 147.479 139.614 147.484 139.609 147.488C138.587 148.333 137.872 149.28 137.441 150.35C136.983 151.445 136.824 152.564 136.964 153.707C137.105 154.85 137.543 155.892 138.303 156.813C139.081 157.756 140.025 158.383 141.157 158.674C142.308 158.987 143.538 158.964 144.849 158.606C146.125 158.272 147.367 157.61 148.553 156.64C148.56 156.635 148.566 156.629 148.573 156.624C150.833 154.766 153.093 152.909 155.354 151.051C155.949 150.562 156.587 150.289 157.275 150.227C157.984 150.183 158.585 150.354 159.071 150.746C162.049 153.152 165.026 155.559 168.004 157.965C168.49 158.356 168.681 158.864 168.571 159.494C168.461 160.124 168.057 160.726 167.364 161.295C164.727 163.462 162.091 165.629 159.455 167.796C156.834 169.95 154.213 172.104 151.593 174.258C150.932 174.801 150.226 175.094 149.483 175.129C148.757 175.186 148.22 174.98 147.866 174.517C147.527 174.076 147.463 173.5 147.663 172.796C147.833 172.117 148.247 171.507 148.913 170.96C151.433 168.888 153.954 166.817 156.474 164.745C158.237 163.296 160 161.847 161.763 160.398C160.001 158.808 158.238 157.219 156.474 155.63C154.835 156.978 153.195 158.326 151.555 159.674C151.548 159.679 151.541 159.686 151.534 159.691C149.475 161.379 147.317 162.541 145.127 163.124C142.917 163.754 140.88 163.792 139.018 163.237C137.145 162.727 135.641 161.626 134.439 159.99C133.253 158.375 132.609 156.567 132.436 154.625C132.241 152.7 132.495 150.837 133.196 149.038C133.892 147.284 135.014 145.769 136.628 144.438C136.633 144.433 136.639 144.429 136.645 144.424Z" fill="#020101" fill-opacity="0.75"/>
<path id="6-warp" d="M111.741 141.239C111.746 141.244 111.752 141.249 111.758 141.254C113.388 142.599 114.495 144.15 115.173 145.987C115.806 147.834 115.997 149.786 115.742 151.842C115.464 153.923 114.72 155.94 113.411 157.815C112.084 159.718 110.485 161.035 108.518 161.69C106.535 162.374 104.361 162.39 101.996 161.74C99.589 161.093 97.1948 159.8 94.9113 157.941C94.9031 157.934 94.8942 157.927 94.886 157.92C92.5943 156.05 90.9416 154.038 90.0252 151.963C89.0795 149.908 88.8905 147.957 89.4617 146.111C90.0015 144.285 91.3114 142.721 93.2935 141.344C95.2478 139.988 97.4123 139.123 99.6883 138.675C101.94 138.249 104.117 138.234 106.216 138.629C108.291 139.047 110.101 139.892 111.741 141.239ZM108.585 144.431C108.579 144.426 108.573 144.421 108.567 144.416C107.523 143.565 106.395 143.024 105.148 142.767C103.843 142.511 102.518 142.538 101.172 142.849C99.8015 143.183 98.5302 143.791 97.394 144.701C96.2316 145.634 95.4737 146.662 95.1538 147.813C94.834 148.964 94.9321 150.156 95.4496 151.391C95.9313 152.593 96.8277 153.732 98.1029 154.779C98.1111 154.786 98.1185 154.792 98.1267 154.798C99.4152 155.851 100.784 156.564 102.198 156.908C103.583 157.227 104.894 157.189 106.134 156.793C107.344 156.374 108.393 155.587 109.311 154.458C110.208 153.356 110.772 152.172 111.035 150.934C111.25 149.699 111.168 148.518 110.786 147.393C110.355 146.269 109.633 145.291 108.585 144.431ZM108.232 161.776C101.776 163.708 94.642 165.098 86.8315 165.943C85.6938 166.066 84.5413 166.177 83.3747 166.278C82.0009 166.354 80.7497 165.933 79.6506 165.037C78.8258 164.366 78.2916 163.674 78.0554 162.97C77.8193 162.265 77.8833 161.676 78.2387 161.197C78.5562 160.687 79.1643 160.415 80.048 160.364C84.9254 160.062 89.5636 159.567 93.9625 158.88C94.7482 158.757 95.525 158.628 96.2951 158.494C100.455 159.734 104.434 160.827 108.232 161.776Z" fill="#020101" fill-opacity="0.75"/>
<path id="1-warp" d="M113.125 112.489C112.852 112.703 112.457 112.759 111.926 112.671C111.395 112.583 110.891 112.372 110.434 112.023C103.796 106.959 97.1572 101.895 90.5191 96.831C90.2264 97.2636 89.9384 97.6924 89.6542 98.1183C89.17 98.8438 88.6971 99.5594 88.2365 100.265C87.8909 100.784 87.4983 101.221 87.0491 101.583C86.392 102.115 85.6657 102.462 84.8552 102.64C84.0752 102.792 83.3936 102.73 82.8248 102.439C82.4114 102.227 82.1618 101.934 82.0849 101.553C82.0072 101.171 82.1692 100.715 82.572 100.185C83.6992 98.6828 84.8701 97.1457 86.0839 95.5728C86.8426 94.5896 87.6176 93.5925 88.4101 92.5817C88.5382 92.4093 88.6769 92.2455 88.8262 92.0903C88.9754 91.9351 89.119 91.8024 89.2544 91.6918C90.0371 91.0573 90.8008 90.6955 91.5299 90.6196C92.2735 90.4965 92.8575 90.6581 93.2964 91.091C99.7742 97.4649 106.252 103.839 112.729 110.213C113.13 110.608 113.362 111.034 113.444 111.477C113.526 111.92 113.425 112.253 113.125 112.489Z" fill="#020101" fill-opacity="0.75"/>
</g>
</g>
<mask id="mask0_118_2448" style="mask-type:alpha" maskUnits="userSpaceOnUse" x="12" y="158" width="220" height="113">
<g id="Paper Base_2">
<path d="M12.7071 267.263L118.883 270.118L119.064 266.392L126.679 266.392L126.889 270.118L231.207 267.263L231.207 158.146L123.057 158.15L123.067 158.18L120.592 158.185L120.586 158.15L12.7063 158.145L12.7067 211.854L12.8245 211.859L12.7896 213.05L12.7067 213.051L12.7071 267.263Z" fill="#FAF7F0"/>
<path d="M12.7071 267.263L118.883 270.118L119.064 266.392L126.679 266.392L126.889 270.118L231.207 267.263L231.207 158.146L123.057 158.15L123.067 158.18L120.592 158.185L120.586 158.15L12.7063 158.145L12.7067 211.854L12.8245 211.859L12.7896 213.05L12.7067 213.051L12.7071 267.263Z" fill="url(#paint4_linear_118_2448)" fill-opacity="0.25"/>
</g>
</mask>
<g mask="url(#mask0_118_2448)">
</g>
</g>
<g id="top">
<path id="Center Crease" d="M124.86 35.3579L122.607 221.266" stroke="url(#paint5_linear_118_2448)" stroke-opacity="0.5" stroke-width="2.3"/>
<g id="top back">
<g id="back left base">
<path d="M14.9973 17.0332C14.9973 17.0332 16.0044 73.84 16.009 95.7525C16.0136 117.665 25.7888 129.292 25.7888 129.292L111.09 129.292L124.373 35.1798C124.373 35.1798 117.078 24.9884 103.483 23.7627C89.8885 22.5369 14.9973 17.0332 14.9973 17.0332Z" fill="#EFE9DD"/>
<path d="M14.9973 17.0332C14.9973 17.0332 16.0044 73.84 16.009 95.7525C16.0136 117.665 25.7888 129.292 25.7888 129.292L111.09 129.292L124.373 35.1798C124.373 35.1798 117.078 24.9884 103.483 23.7627C89.8885 22.5369 14.9973 17.0332 14.9973 17.0332Z" fill="url(#paint6_linear_118_2448)" fill-opacity="0.3"/>
</g>
<g id="back right base">
<path d="M232.915 17.2271C232.915 17.2271 231.908 74.0339 231.903 95.9464C231.899 117.859 225.811 129.486 225.811 129.486L136.823 129.486L124.699 35.0166C124.699 35.0166 130.834 25.1823 144.429 23.9565C158.024 22.7307 232.915 17.2271 232.915 17.2271Z" fill="#EFE9DD"/>
<path d="M232.915 17.2271C232.915 17.2271 231.908 74.0339 231.903 95.9464C231.899 117.859 225.811 129.486 225.811 129.486L136.823 129.486L124.699 35.0166C124.699 35.0166 130.834 25.1823 144.429 23.9565C158.024 22.7307 232.915 17.2271 232.915 17.2271Z" fill="url(#paint7_linear_118_2448)" fill-opacity="0.3"/>
</g>
<g id="back left fold">
<path d="M25.9167 129.438L111.153 129.438L15.7794 15.9758C15.9215 24.4591 10.0386 110.774 25.9167 129.438Z" fill="#EFE9DD"/>
<path d="M25.9167 129.438L111.153 129.438L15.7794 15.9758C15.9215 24.4591 10.0386 110.774 25.9167 129.438Z" fill="url(#paint8_linear_118_2448)" fill-opacity="0.5"/>
</g>
<g id="back right fold">
<path d="M225.198 129.242L136.564 129.242L232.738 16.8782C232.608 24.946 237.179 110.92 225.198 129.242Z" fill="#EFE9DD"/>
<path d="M225.198 129.242L136.564 129.242L232.738 16.8782C232.608 24.946 237.179 110.92 225.198 129.242Z" fill="url(#paint9_linear_118_2448)" fill-opacity="0.5"/>
</g>
</g>
<g id="left" filter="url(#filter3_d_118_2448)">
<g id="left_2">
<path d="M224.644 129.272C224.644 129.272 232.792 141.661 232.793 151.712C232.794 161.764 233.089 242.229 233.089 242.229L122.87 224.42L136.453 129.272L224.644 129.272Z" fill="#EFE9DD"/>
<path d="M224.644 129.272C224.644 129.272 232.792 141.661 232.793 151.712C232.794 161.764 233.089 242.229 233.089 242.229L122.87 224.42L136.453 129.272L224.644 129.272Z" fill="url(#paint10_linear_118_2448)" fill-opacity="0.2"/>
</g>
<path id="Subtract_2" d="M233.087 242.336C232.885 242.333 181.786 241.349 149.397 236.198C129.741 233.072 122.574 225.151 123.317 224.517L136.834 129.706L233.087 242.336Z" fill="#EFE9DD"/>
</g>
<g id="right" filter="url(#filter4_d_118_2448)">
<g id="rights">
<path d="M14.9991 241.293C14.9991 241.293 16.0062 184.487 16.0108 162.574C16.0154 140.662 25.7906 129.035 25.7906 129.035L111.579 129.035L121.635 223.507C121.635 223.507 117.08 233.338 103.485 234.564C89.8903 235.79 14.9991 241.293 14.9991 241.293Z" fill="#EFE9DD"/>
<path d="M14.9991 241.293C14.9991 241.293 16.0062 184.487 16.0108 162.574C16.0154 140.662 25.7906 129.035 25.7906 129.035L111.579 129.035L121.635 223.507C121.635 223.507 117.08 233.338 103.485 234.564C89.8903 235.79 14.9991 241.293 14.9991 241.293Z" fill="url(#paint11_linear_118_2448)" fill-opacity="0.3"/>
</g>
<path id="Subtract_3" d="M14.9001 241.293C54.997 194.05 110.82 129.158 110.82 129.158L121.958 223.424C121.958 243.779 15.1114 241.298 14.9001 241.293Z" fill="#EFE9DD"/>
</g>
</g>
</g>
<defs>
<filter id="filter0_d_118_2448" x="14.4318" y="124.598" width="238.509" height="127.067" filterUnits="userSpaceOnUse" color-interpolation-filters="sRGB">
<feFlood flood-opacity="0" result="BackgroundImageFix"/>
<feColorMatrix in="SourceAlpha" type="matrix" values="0 0 0 0 0 0 0 0 0 0 0 0 0 0 0 0 0 0 127 0" result="hardAlpha"/>
<feOffset dx="4.6" dy="6.9"/>
<feGaussianBlur stdDeviation="10.35"/>
<feColorMatrix type="matrix" values="0 0 0 0 0.149 0 0 0 0 0.275 0 0 0 0 0.325 0 0 0 0.18 0"/>
<feBlend mode="normal" in2="BackgroundImageFix" result="effect1_dropShadow_118_2448"/>
<feBlend mode="normal" in="SourceGraphic" in2="effect1_dropShadow_118_2448" result="shape"/>
</filter>
<filter id="filter1_d_118_2448" x="93.3163" y="21.3548" width="68.6827" height="135.328" filterUnits="userSpaceOnUse" color-interpolation-filters="sRGB">
<feFlood flood-opacity="0" result="BackgroundImageFix"/>
<feColorMatrix in="SourceAlpha" type="matrix" values="0 0 0 0 0 0 0 0 0 0 0 0 0 0 0 0 0 0 127 0" result="hardAlpha"/>
<feOffset dx="4.6" dy="6.9"/>
<feGaussianBlur stdDeviation="10.35"/>
<feColorMatrix type="matrix" values="0 0 0 0 0.149 0 0 0 0 0.275 0 0 0 0 0.325 0 0 0 0.18 0"/>
<feBlend mode="normal" in2="BackgroundImageFix" result="effect1_dropShadow_118_2448"/>
<feBlend mode="normal" in="SourceGraphic" in2="effect1_dropShadow_118_2448" result="shape"/>
</filter>
<filter id="filter2_d_118_2448" x="94.491" y="114.888" width="67.5099" height="136.704" filterUnits="userSpaceOnUse" color-interpolation-filters="sRGB">
<feFlood flood-opacity="0" result="BackgroundImageFix"/>
<feColorMatrix in="SourceAlpha" type="matrix" values="0 0 0 0 0 0 0 0 0 0 0 0 0 0 0 0 0 0 127 0" result="hardAlpha"/>
<feOffset dx="4.6" dy="6.9"/>
<feGaussianBlur stdDeviation="10.35"/>
<feColorMatrix type="matrix" values="0 0 0 0 0.149 0 0 0 0 0.275 0 0 0 0 0.325 0 0 0 0.18 0"/>
<feBlend mode="normal" in2="BackgroundImageFix" result="effect1_dropShadow_118_2448"/>
<feBlend mode="normal" in="SourceGraphic" in2="effect1_dropShadow_118_2448" result="shape"/>
</filter>
<filter id="filter3_d_118_2448" x="115.97" y="122.372" width="133.219" height="136.064" filterUnits="userSpaceOnUse" color-interpolation-filters="sRGB">
<feFlood flood-opacity="0" result="BackgroundImageFix"/>
<feColorMatrix in="SourceAlpha" type="matrix" values="0 0 0 0 0 0 0 0 0 0 0 0 0 0 0 0 0 0 127 0" result="hardAlpha"/>
<feOffset dx="4.6" dy="4.6"/>
<feGaussianBlur stdDeviation="5.75"/>
<feComposite in2="hardAlpha" operator="out"/>
<feColorMatrix type="matrix" values="0 0 0 0 0.14902 0 0 0 0 0.27451 0 0 0 0 0.32549 0 0 0 0.25 0"/>
<feBlend mode="normal" in2="BackgroundImageFix" result="effect1_dropShadow_118_2448"/>
<feBlend mode="normal" in="SourceGraphic" in2="effect1_dropShadow_118_2448" result="shape"/>
</filter>
<filter id="filter4_d_118_2448" x="8.00013" y="122.135" width="130.057" height="135.356" filterUnits="userSpaceOnUse" color-interpolation-filters="sRGB">
<feFlood flood-opacity="0" result="BackgroundImageFix"/>
<feColorMatrix in="SourceAlpha" type="matrix" values="0 0 0 0 0 0 0 0 0 0 0 0 0 0 0 0 0 0 127 0" result="hardAlpha"/>
<feOffset dx="4.6" dy="4.6"/>
<feGaussianBlur stdDeviation="5.75"/>
<feComposite in2="hardAlpha" operator="out"/>
<feColorMatrix type="matrix" values="0 0 0 0 0.14902 0 0 0 0 0.27451 0 0 0 0 0.32549 0 0 0 0.25 0"/>
<feBlend mode="normal" in2="BackgroundImageFix" result="effect1_dropShadow_118_2448"/>
<feBlend mode="normal" in="SourceGraphic" in2="effect1_dropShadow_118_2448" result="shape"/>
</filter>
<linearGradient id="paint0_linear_118_2448" x1="167.756" y1="155.611" x2="153.047" y2="189.479" gradientUnits="userSpaceOnUse">
<stop stop-color="#C9B99A" stop-opacity="0.06"/>
<stop offset="1" stop-color="#635B4C"/>
</linearGradient>
<linearGradient id="paint1_linear_118_2448" x1="112.524" y1="108.88" x2="136.507" y2="108.713" gradientUnits="userSpaceOnUse">
<stop stop-color="#635B4C" stop-opacity="0.75"/>
<stop offset="0.475962" stop-color="#635B4C"/>
<stop offset="1" stop-color="#635B4C" stop-opacity="0.5"/>
</linearGradient>
<linearGradient id="paint2_linear_118_2448" x1="136.701" y1="122.726" x2="135.733" y2="143.849" gradientUnits="userSpaceOnUse">
<stop stop-color="#635B4C" stop-opacity="0"/>
<stop offset="0.5" stop-color="#635B4C"/>
<stop offset="1" stop-color="#635B4C" stop-opacity="0.75"/>
</linearGradient>
<linearGradient id="paint3_linear_118_2448" x1="136.701" y1="122.726" x2="135.733" y2="143.849" gradientUnits="userSpaceOnUse">
<stop stop-color="#635B4C" stop-opacity="0"/>
<stop offset="0.5" stop-color="#635B4C"/>
<stop offset="1" stop-color="#635B4C" stop-opacity="0.75"/>
</linearGradient>
<linearGradient id="paint4_linear_118_2448" x1="214.127" y1="214.338" x2="198.695" y2="192.518" gradientUnits="userSpaceOnUse">
<stop stop-color="#C9B99A" stop-opacity="0.06"/>
<stop offset="1" stop-color="#635B4C"/>
</linearGradient>
<linearGradient id="paint5_linear_118_2448" x1="123.845" y1="127.924" x2="122.681" y2="127.917" gradientUnits="userSpaceOnUse">
<stop stop-color="#635B4C" stop-opacity="0"/>
<stop offset="0.5" stop-color="#635B4C"/>
<stop offset="1" stop-color="#635B4C" stop-opacity="0"/>
</linearGradient>
<linearGradient id="paint6_linear_118_2448" x1="81.8766" y1="68.2553" x2="12.7711" y2="129.182" gradientUnits="userSpaceOnUse">
<stop stop-color="#C9B99A" stop-opacity="0.06"/>
<stop offset="1" stop-color="#635B4C"/>
</linearGradient>
<linearGradient id="paint7_linear_118_2448" x1="166.036" y1="68.4491" x2="235.141" y2="129.376" gradientUnits="userSpaceOnUse">
<stop stop-color="#C9B99A" stop-opacity="0.06"/>
<stop offset="1" stop-color="#635B4C"/>
</linearGradient>
<linearGradient id="paint8_linear_118_2448" x1="37.7059" y1="139.779" x2="45.3467" y2="91.9124" gradientUnits="userSpaceOnUse">
<stop stop-color="#635B4C" stop-opacity="0.5"/>
<stop offset="0.947115" stop-color="#635B4C" stop-opacity="0"/>
</linearGradient>
<linearGradient id="paint9_linear_118_2448" x1="192.609" y1="139.074" x2="188.402" y2="107.105" gradientUnits="userSpaceOnUse">
<stop stop-color="#635B4C" stop-opacity="0.5"/>
<stop offset="0.947115" stop-color="#635B4C" stop-opacity="0"/>
</linearGradient>
<linearGradient id="paint10_linear_118_2448" x1="162.739" y1="188.519" x2="226.527" y2="122.599" gradientUnits="userSpaceOnUse">
<stop stop-color="#635B4C" stop-opacity="0"/>
<stop offset="1" stop-color="#635B4C"/>
</linearGradient>
<linearGradient id="paint11_linear_118_2448" x1="81.8784" y1="190.071" x2="12.7729" y2="129.145" gradientUnits="userSpaceOnUse">
<stop stop-color="#C9B99A" stop-opacity="0.06"/>
<stop offset="1" stop-color="#635B4C"/>
</linearGradient>
</defs>
</svg>
