<svg width="292" height="209" viewBox="0 0 292 209" fill="none" xmlns="http://www.w3.org/2000/svg">
<g id="v34-paper">
<g id="folded paper">
<g id="Inside Paper" filter="url(#filter0_d_118_2448)">
<path d="M27.8531 93.2278L143.719 93.2267L258.828 93.2269L140.532 16.5581L27.8531 93.2278Z" fill="#FAF7F0"/>
<path d="M27.8531 93.2278L143.719 93.2267L258.828 93.2269L140.532 16.5581L27.8531 93.2278Z" fill="url(#paint0_linear_118_2448)" fill-opacity="0.5"/>
</g>
<g id="Subtract" filter="url(#filter1_d_118_2448)">
<path d="M140.53 92.9053L249.819 92.9068L140.53 168.962V92.9053Z" fill="#FAF7F0"/>
<path d="M140.53 92.9053L249.819 92.9068L140.53 168.962V92.9053Z" fill="url(#paint1_linear_118_2448)" fill-opacity="0.5"/>
<path d="M31.357 92.9061L140.53 92.9053V168.962L31.357 92.9061Z" fill="#FAF7F0"/>
<path d="M31.357 92.9061L140.53 92.9053V168.962L31.357 92.9061Z" fill="url(#paint2_linear_118_2448)" fill-opacity="0.5"/>
</g>
<g id="inside folds">
<path id="Vector 1" d="M42.2045 93.1771L141.211 70.4495L141.762 116.317L42.2045 93.1771Z" fill="url(#paint3_linear_118_2448)" fill-opacity="0.3"/>
<path id="Vector 2" d="M244.341 93.3091L140.285 68.3746L141.54 118.214L244.341 93.3091Z" fill="url(#paint4_linear_118_2448)" fill-opacity="0.3"/>
</g>
<g id="Horizontal Flap Numbers">
<path id="2-warp" d="M149.951 69.6468C149.48 69.277 149.246 68.8399 149.241 68.3287C149.257 67.8343 149.482 67.4028 149.925 67.0403C150.388 66.6601 150.922 66.4712 151.536 66.4794C156.808 66.2217 162.455 66.2592 168.479 66.5915C170.143 66.6832 171.837 66.7975 173.559 66.9343C175.238 67.0691 176.706 67.1059 177.941 67.0276C179.203 66.9707 180.206 66.7606 180.927 66.38C182.061 65.7828 182.825 65.098 183.201 64.3116C183.577 63.5253 183.556 62.6807 183.138 61.7779C182.748 60.8676 181.958 59.943 180.787 59.0198C180.78 59.014 180.772 59.0077 180.764 59.0019C179.611 58.0969 178.324 57.4246 176.927 57.004C175.584 56.5914 174.273 56.4417 172.998 56.5562C171.774 56.677 170.737 57.0625 169.863 57.6952C169.415 58.0195 168.81 58.1362 168.057 58.0517C167.331 57.9893 166.667 57.721 166.055 57.2409C165.471 56.7823 165.132 56.2628 165.03 55.676C164.929 55.0897 165.085 54.6205 165.506 54.2747C166.938 53.1006 168.657 52.4051 170.727 52.2385C172.818 52.0542 175.04 52.3617 177.391 53.1595C179.772 53.9809 182.052 55.247 184.168 56.9073C184.176 56.9136 184.184 56.92 184.191 56.9257C186.325 58.6043 187.826 60.2724 188.637 61.886C189.452 63.5062 189.559 64.9761 188.958 66.2956C188.388 67.6398 187.088 68.7487 185.113 69.6665C184.248 70.0689 183.17 70.3212 181.898 70.4378C180.652 70.5753 179.348 70.6166 177.992 70.5663C176.664 70.5377 175.417 70.4715 174.247 70.3646C170.543 70.0187 166.971 69.7757 163.529 69.6357C161.068 69.536 158.673 69.4889 156.346 69.4948C157.431 70.3467 158.517 71.1992 159.602 72.0512C161.7 73.6979 163.798 75.3446 165.895 76.9908C166.395 77.3837 166.603 77.8173 166.508 78.2837C166.442 78.7382 166.131 79.086 165.587 79.3346C165.015 79.5957 164.36 79.6901 163.631 79.6245C162.901 79.559 162.305 79.3447 161.835 78.9754C159.86 77.4249 157.884 75.8743 155.909 74.3237C153.923 72.7647 151.937 71.2057 149.951 69.6468Z" fill="#020101" fill-opacity="0.75"/>
<path id="5-warp" d="M153.389 107.237C154.99 105.922 156.76 105.06 158.767 104.597C160.771 104.172 162.817 104.144 164.907 104.512C166.971 104.901 168.847 105.696 170.467 106.953C170.962 107.337 171.19 107.797 171.143 108.339C171.119 108.898 170.818 109.415 170.249 109.883C169.68 110.351 169.038 110.609 168.331 110.65C167.644 110.711 167.071 110.535 166.603 110.129C165.687 109.336 164.605 108.823 163.382 108.569C162.158 108.317 160.94 108.33 159.727 108.608C158.489 108.906 157.379 109.459 156.371 110.288C156.365 110.292 156.359 110.297 156.354 110.302C155.331 111.146 154.617 112.093 154.185 113.163C153.727 114.258 153.569 115.377 153.709 116.52C153.85 117.663 154.288 118.705 155.048 119.626C155.826 120.569 156.769 121.196 157.902 121.487C159.053 121.8 160.283 121.777 161.594 121.419C162.87 121.085 164.112 120.423 165.298 119.453C165.304 119.448 165.311 119.442 165.318 119.437C167.578 117.579 169.837 115.722 172.098 113.864C172.693 113.375 173.331 113.102 174.019 113.04C174.729 112.996 175.33 113.167 175.815 113.559C178.793 115.965 181.771 118.372 184.749 120.778C185.234 121.17 185.426 121.677 185.315 122.307C185.206 122.937 184.801 123.539 184.109 124.108C181.472 126.276 178.836 128.442 176.199 130.609C173.579 132.763 170.958 134.917 168.337 137.071C167.676 137.615 166.97 137.907 166.227 137.942C165.502 137.999 164.965 137.794 164.61 137.33C164.272 136.889 164.207 136.313 164.407 135.609C164.577 134.93 164.992 134.32 165.657 133.773C168.177 131.702 170.698 129.63 173.218 127.558C174.982 126.109 176.744 124.66 178.508 123.211C176.745 121.621 174.982 120.032 173.219 118.444C171.58 119.791 169.939 121.139 168.299 122.487C168.293 122.493 168.285 122.499 168.279 122.504C166.22 124.192 164.062 125.354 161.871 125.937C159.661 126.567 157.625 126.605 155.763 126.05C153.889 125.54 152.386 124.439 151.183 122.803C149.998 121.189 149.354 119.381 149.18 117.438C148.985 115.513 149.239 113.65 149.941 111.851C150.637 110.097 151.759 108.582 153.372 107.251C153.378 107.246 153.383 107.242 153.389 107.237Z" fill="#020101" fill-opacity="0.75"/>
<path id="6-warp" d="M128.485 104.052C128.491 104.057 128.497 104.062 128.503 104.067C130.133 105.412 131.24 106.963 131.918 108.8C132.551 110.647 132.741 112.599 132.487 114.655C132.209 116.736 131.464 118.753 130.156 120.628C128.828 122.531 127.229 123.848 125.262 124.503C123.28 125.187 121.105 125.204 118.74 124.553C116.334 123.906 113.939 122.613 111.656 120.754C111.648 120.747 111.639 120.74 111.631 120.733C109.339 118.863 107.686 116.851 106.77 114.776C105.824 112.721 105.635 110.77 106.206 108.925C106.746 107.098 108.056 105.534 110.038 104.157C111.992 102.801 114.157 101.936 116.433 101.488C118.685 101.062 120.862 101.047 122.96 101.442C125.035 101.86 126.846 102.705 128.485 104.052ZM125.33 107.244C125.324 107.239 125.317 107.234 125.311 107.229C124.268 106.378 123.14 105.837 121.893 105.58C120.587 105.324 119.262 105.351 117.916 105.662C116.546 105.996 115.275 106.604 114.139 107.514C112.976 108.447 112.218 109.475 111.898 110.626C111.579 111.777 111.677 112.969 112.194 114.204C112.676 115.406 113.572 116.545 114.847 117.592C114.856 117.599 114.863 117.605 114.871 117.611C116.16 118.664 117.528 119.377 118.943 119.721C120.327 120.04 121.639 120.003 122.879 119.606C124.089 119.187 125.137 118.4 126.055 117.271C126.953 116.169 127.517 114.985 127.78 113.747C127.995 112.512 127.912 111.331 127.53 110.206C127.099 109.082 126.378 108.104 125.33 107.244ZM124.977 124.589C118.52 126.521 111.387 127.911 103.576 128.756C102.438 128.879 101.286 128.99 100.119 129.091C98.7455 129.167 97.4942 128.746 96.3952 127.85C95.5704 127.179 95.0362 126.487 94.8 125.783C94.5638 125.078 94.6279 124.489 94.9833 124.01C95.3008 123.5 95.9088 123.228 96.7926 123.178C101.67 122.875 106.308 122.38 110.707 121.693C111.493 121.57 112.27 121.441 113.04 121.307C117.2 122.547 121.179 123.64 124.977 124.589Z" fill="#020101" fill-opacity="0.75"/>
<path id="1-warp" d="M129.869 75.3014C129.596 75.5157 129.202 75.5716 128.67 75.484C128.139 75.3958 127.636 75.1847 127.179 74.836C120.541 69.7721 113.902 64.7077 107.264 59.6438C106.971 60.0764 106.683 60.5053 106.399 60.9311C105.915 61.6566 105.442 62.3723 104.981 63.0782C104.635 63.5967 104.243 64.0337 103.794 64.3958C103.137 64.9275 102.41 65.2748 101.6 65.4525C100.82 65.6053 100.138 65.5426 99.5694 65.2517C99.156 65.0396 98.9063 64.7465 98.8294 64.3653C98.7518 63.9837 98.9137 63.5281 99.3166 62.9974C100.444 61.4957 101.615 59.9586 102.829 58.3857C103.587 57.4025 104.362 56.4053 105.155 55.3945C105.283 55.2221 105.421 55.0584 105.571 54.9031C105.72 54.7479 105.864 54.6152 105.999 54.5046C106.782 53.8701 107.545 53.5083 108.274 53.4325C109.018 53.3093 109.602 53.4709 110.041 53.9038C116.519 60.2777 122.996 66.6519 129.474 73.0258C129.875 73.4211 130.107 73.8471 130.189 74.2898C130.27 74.7331 130.169 75.0656 129.869 75.3014Z" fill="#020101" fill-opacity="0.75"/>
</g>
<mask id="mask0_118_2448" style="mask-type:alpha" maskUnits="userSpaceOnUse" x="30" y="96" width="220" height="113">
<g id="Paper Base">
<path d="M30.9555 205.471L137.132 208.326L137.312 204.6L144.927 204.6L145.138 208.326L249.455 205.471L249.455 96.3537L141.306 96.3577L141.315 96.3879L138.841 96.3927L138.834 96.3578L30.9548 96.3531L30.9551 150.062L31.073 150.067L31.038 151.258L30.9551 151.259L30.9555 205.471Z" fill="#FAF7F0"/>
<path d="M30.9555 205.471L137.132 208.326L137.312 204.6L144.927 204.6L145.138 208.326L249.455 205.471L249.455 96.3537L141.306 96.3577L141.315 96.3879L138.841 96.3927L138.834 96.3578L30.9548 96.3531L30.9551 150.062L31.073 150.067L31.038 151.258L30.9551 151.259L30.9555 205.471Z" fill="url(#paint5_linear_118_2448)" fill-opacity="0.25"/>
</g>
</mask>
<g mask="url(#mask0_118_2448)">
</g>
</g>
<g id="top">
<path id="Center Crease" d="M140.928 16.1595L139.778 16.1601L139.778 168.466L140.928 168.466L142.078 168.465L142.078 16.1588L140.928 16.1595Z" fill="url(#paint6_linear_118_2448)" fill-opacity="0.5"/>
<g id="top back">
<g id="back left base">
<path d="M35.4559 7.28791L14.0186 93.1536L39.5873 93.4118L42.0663 93.1536L140.847 16.3299C140.847 16.3299 133.992 8.38196 120.586 7.3689C107.181 6.35583 35.4559 7.28791 35.4559 7.28791Z" fill="#EFE9DD"/>
<path d="M35.4559 7.28791L14.0186 93.1536L39.5873 93.4118L42.0663 93.1536L140.847 16.3299C140.847 16.3299 133.992 8.38196 120.586 7.3689C107.181 6.35583 35.4559 7.28791 35.4559 7.28791Z" fill="url(#paint7_linear_118_2448)"/>
</g>
<g id="back right base">
<path d="M251.232 7.44539L271.072 93.5553L244.094 93.5555L140.759 16.3189C140.759 16.3189 147.023 8.30193 160.902 7.32077C174.781 6.33961 251.232 7.44539 251.232 7.44539Z" fill="#EFE9DD"/>
<path d="M251.232 7.44539L271.072 93.5553L244.094 93.5555L140.759 16.3189C140.759 16.3189 147.023 8.30193 160.902 7.32077C174.781 6.33961 251.232 7.44539 251.232 7.44539Z" fill="url(#paint8_linear_118_2448)"/>
</g>
<g id="back left fold">
<path d="M14.3337 93.5266L42.1322 93.5266L35.4624 7.37979C35.6045 14.3028 -1.5443 78.2947 14.3337 93.5266Z" fill="#EFE9DD"/>
<path d="M14.3337 93.5266L42.1322 93.5266L35.4624 7.37979C35.6045 14.3028 -1.5443 78.2947 14.3337 93.5266Z" fill="url(#paint9_linear_118_2448)"/>
</g>
<g id="back right fold">
<path d="M271.494 93.3659L244.116 93.3661L251.058 7.64348C250.928 14.2275 283.475 78.4138 271.494 93.3659Z" fill="#EFE9DD"/>
<path d="M271.494 93.3659L244.116 93.3661L251.058 7.64348C250.928 14.2275 283.475 78.4138 271.494 93.3659Z" fill="url(#paint10_linear_118_2448)"/>
</g>
</g>
<g id="bottom left" filter="url(#filter2_d_118_2448)">
<g id="left">
<path d="M271.197 93.3912C271.197 93.3912 275.403 96.4652 275.404 104.668C275.405 112.871 249.62 178.745 249.62 178.745L140.988 168.678L244.287 93.3911L271.197 93.3912Z" fill="#EFE9DD"/>
<path d="M271.197 93.3912C271.197 93.3912 275.403 96.4652 275.404 104.668C275.405 112.871 249.62 178.745 249.62 178.745L140.988 168.678L244.287 93.3911L271.197 93.3912Z" fill="url(#paint11_linear_118_2448)"/>
</g>
<g id="Subtract_2">
<path d="M249.096 179.174C248.905 179.179 193.799 180.651 167.718 180.651C152.565 178.684 144.271 172.997 141.605 170.258L141.605 168.103L244.227 93.3696L249.096 179.174Z" fill="#EFE9DD"/>
<path d="M249.096 179.174C248.905 179.179 193.799 180.651 167.718 180.651C152.565 178.684 144.271 172.997 141.605 170.258L141.605 168.103L244.227 93.3696L249.096 179.174Z" fill="url(#paint12_linear_118_2448)" fill-opacity="0.5"/>
</g>
</g>
<g id="bottom right" filter="url(#filter3_d_118_2448)">
<g id="right">
<path d="M33.3183 182.658C33.3183 182.658 6.89541 126.525 6.9 109.06C6.90459 91.5948 13.7445 93.1534 13.7445 93.1534L42.0297 93.1968L140.942 168.749C140.942 168.749 139.329 175.626 121.805 177.433C104.28 179.241 33.3183 182.658 33.3183 182.658Z" fill="#EFE9DD"/>
<path d="M33.3183 182.658C33.3183 182.658 6.89541 126.525 6.9 109.06C6.90459 91.5948 13.7445 93.1534 13.7445 93.1534L42.0297 93.1968L140.942 168.749C140.942 168.749 139.329 175.626 121.805 177.433C104.28 179.241 33.3183 182.658 33.3183 182.658Z" fill="url(#paint13_linear_118_2448)"/>
</g>
<g id="Subtract_3">
<path d="M33.2182 182.658C30.5345 127.436 42.205 93.3211 42.2134 93.2965L140.276 168.584C140.276 184.81 33.4032 182.662 33.2182 182.658Z" fill="#EFE9DD"/>
<path d="M33.2182 182.658C30.5345 127.436 42.205 93.3211 42.2134 93.2965L140.276 168.584C140.276 184.81 33.4032 182.662 33.2182 182.658Z" fill="url(#paint14_linear_118_2448)" fill-opacity="0.5"/>
</g>
</g>
</g>
</g>
<defs>
<filter id="filter0_d_118_2448" x="11.7531" y="2.75808" width="272.375" height="118.07" filterUnits="userSpaceOnUse" color-interpolation-filters="sRGB">
<feFlood flood-opacity="0" result="BackgroundImageFix"/>
<feColorMatrix in="SourceAlpha" type="matrix" values="0 0 0 0 0 0 0 0 0 0 0 0 0 0 0 0 0 0 127 0" result="hardAlpha"/>
<feOffset dx="4.6" dy="6.9"/>
<feGaussianBlur stdDeviation="10.35"/>
<feColorMatrix type="matrix" values="0 0 0 0 0.149 0 0 0 0 0.275 0 0 0 0 0.325 0 0 0 0.18 0"/>
<feBlend mode="normal" in2="BackgroundImageFix" result="effect1_dropShadow_118_2448"/>
<feBlend mode="normal" in="SourceGraphic" in2="effect1_dropShadow_118_2448" result="shape"/>
</filter>
<filter id="filter1_d_118_2448" x="15.257" y="79.1053" width="259.862" height="117.457" filterUnits="userSpaceOnUse" color-interpolation-filters="sRGB">
<feFlood flood-opacity="0" result="BackgroundImageFix"/>
<feColorMatrix in="SourceAlpha" type="matrix" values="0 0 0 0 0 0 0 0 0 0 0 0 0 0 0 0 0 0 127 0" result="hardAlpha"/>
<feOffset dx="4.6" dy="6.9"/>
<feGaussianBlur stdDeviation="10.35"/>
<feColorMatrix type="matrix" values="0 0 0 0 0.149 0 0 0 0 0.275 0 0 0 0 0.325 0 0 0 0.18 0"/>
<feBlend mode="normal" in2="BackgroundImageFix" result="effect1_dropShadow_118_2448"/>
<feBlend mode="normal" in="SourceGraphic" in2="effect1_dropShadow_118_2448" result="shape"/>
</filter>
<filter id="filter2_d_118_2448" x="134.088" y="86.4696" width="157.416" height="110.281" filterUnits="userSpaceOnUse" color-interpolation-filters="sRGB">
<feFlood flood-opacity="0" result="BackgroundImageFix"/>
<feColorMatrix in="SourceAlpha" type="matrix" values="0 0 0 0 0 0 0 0 0 0 0 0 0 0 0 0 0 0 127 0" result="hardAlpha"/>
<feOffset dx="4.6" dy="4.6"/>
<feGaussianBlur stdDeviation="5.75"/>
<feComposite in2="hardAlpha" operator="out"/>
<feColorMatrix type="matrix" values="0 0 0 0 0.14902 0 0 0 0 0.27451 0 0 0 0 0.32549 0 0 0 0.25 0"/>
<feBlend mode="normal" in2="BackgroundImageFix" result="effect1_dropShadow_118_2448"/>
<feBlend mode="normal" in="SourceGraphic" in2="effect1_dropShadow_118_2448" result="shape"/>
</filter>
<filter id="filter3_d_118_2448" x="1.43051e-06" y="86.2176" width="157.042" height="112.636" filterUnits="userSpaceOnUse" color-interpolation-filters="sRGB">
<feFlood flood-opacity="0" result="BackgroundImageFix"/>
<feColorMatrix in="SourceAlpha" type="matrix" values="0 0 0 0 0 0 0 0 0 0 0 0 0 0 0 0 0 0 127 0" result="hardAlpha"/>
<feOffset dx="4.6" dy="4.6"/>
<feGaussianBlur stdDeviation="5.75"/>
<feComposite in2="hardAlpha" operator="out"/>
<feColorMatrix type="matrix" values="0 0 0 0 0.14902 0 0 0 0 0.27451 0 0 0 0 0.32549 0 0 0 0.25 0"/>
<feBlend mode="normal" in2="BackgroundImageFix" result="effect1_dropShadow_118_2448"/>
<feBlend mode="normal" in="SourceGraphic" in2="effect1_dropShadow_118_2448" result="shape"/>
</filter>
<linearGradient id="paint0_linear_118_2448" x1="111.051" y1="57.4063" x2="165.879" y2="53.5241" gradientUnits="userSpaceOnUse">
<stop stop-color="#635B4C" stop-opacity="0.75"/>
<stop offset="0.475962" stop-color="#635B4C"/>
<stop offset="1" stop-color="#635B4C" stop-opacity="0.5"/>
</linearGradient>
<linearGradient id="paint1_linear_118_2448" x1="118.926" y1="68.77" x2="165.827" y2="70.5511" gradientUnits="userSpaceOnUse">
<stop stop-color="#635B4C" stop-opacity="0.5"/>
<stop offset="0.5" stop-color="#635B4C"/>
<stop offset="1" stop-color="#635B4C" stop-opacity="0.5"/>
</linearGradient>
<linearGradient id="paint2_linear_118_2448" x1="118.926" y1="68.77" x2="165.827" y2="70.5511" gradientUnits="userSpaceOnUse">
<stop stop-color="#635B4C" stop-opacity="0.5"/>
<stop offset="0.5" stop-color="#635B4C"/>
<stop offset="1" stop-color="#635B4C" stop-opacity="0.5"/>
</linearGradient>
<linearGradient id="paint3_linear_118_2448" x1="91.9834" y1="91.4637" x2="91.9834" y2="94.1397" gradientUnits="userSpaceOnUse">
<stop stop-color="#635B4C" stop-opacity="0"/>
<stop offset="0.5" stop-color="#635B4C"/>
<stop offset="1" stop-color="#635B4C" stop-opacity="0"/>
</linearGradient>
<linearGradient id="paint4_linear_118_2448" x1="148.909" y1="95.1808" x2="148.909" y2="92.0542" gradientUnits="userSpaceOnUse">
<stop stop-color="#635B4C" stop-opacity="0"/>
<stop offset="0.464818" stop-color="#635B4C"/>
<stop offset="1" stop-color="#635B4C" stop-opacity="0"/>
</linearGradient>
<linearGradient id="paint5_linear_118_2448" x1="232.375" y1="152.546" x2="216.944" y2="130.726" gradientUnits="userSpaceOnUse">
<stop stop-color="#C9B99A" stop-opacity="0.06"/>
<stop offset="1" stop-color="#635B4C"/>
</linearGradient>
<linearGradient id="paint6_linear_118_2448" x1="142.202" y1="92.3125" x2="139.662" y2="92.3125" gradientUnits="userSpaceOnUse">
<stop stop-color="#635B4C" stop-opacity="0"/>
<stop offset="0.5" stop-color="#635B4C"/>
<stop offset="1" stop-color="#635B4C" stop-opacity="0"/>
</linearGradient>
<linearGradient id="paint7_linear_118_2448" x1="99.2804" y1="43.6581" x2="42.5471" y2="104.036" gradientUnits="userSpaceOnUse">
<stop stop-color="#C9B99A" stop-opacity="0.06"/>
<stop offset="1" stop-color="#635B4C"/>
</linearGradient>
<linearGradient id="paint8_linear_118_2448" x1="182.959" y1="43.6606" x2="239.522" y2="106.141" gradientUnits="userSpaceOnUse">
<stop stop-color="#C9B99A" stop-opacity="0.06"/>
<stop offset="1" stop-color="#635B4C"/>
</linearGradient>
<linearGradient id="paint9_linear_118_2448" x1="56.0266" y1="101.966" x2="61.1578" y2="62.576" gradientUnits="userSpaceOnUse">
<stop stop-color="#635B4C" stop-opacity="0.5"/>
<stop offset="0.947115" stop-color="#635B4C" stop-opacity="0"/>
</linearGradient>
<linearGradient id="paint10_linear_118_2448" x1="210.931" y1="101.39" x2="208.113" y2="75.1515" gradientUnits="userSpaceOnUse">
<stop stop-color="#635B4C" stop-opacity="0.5"/>
<stop offset="0.947115" stop-color="#635B4C" stop-opacity="0"/>
</linearGradient>
<linearGradient id="paint11_linear_118_2448" x1="181.058" y1="141.741" x2="231.722" y2="77.5831" gradientUnits="userSpaceOnUse">
<stop stop-color="#635B4C" stop-opacity="0"/>
<stop offset="1" stop-color="#635B4C"/>
</linearGradient>
<linearGradient id="paint12_linear_118_2448" x1="198.071" y1="154.106" x2="165.792" y2="95.7813" gradientUnits="userSpaceOnUse">
<stop stop-color="#635B4C" stop-opacity="0.6"/>
<stop offset="1" stop-color="#635B4C" stop-opacity="0.3"/>
</linearGradient>
<linearGradient id="paint13_linear_118_2448" x1="100.197" y1="141.937" x2="44.971" y2="80.7416" gradientUnits="userSpaceOnUse">
<stop stop-color="#C9B99A" stop-opacity="0.06"/>
<stop offset="1" stop-color="#635B4C"/>
</linearGradient>
<linearGradient id="paint14_linear_118_2448" x1="88.7359" y1="120.268" x2="116.565" y2="181.927" gradientUnits="userSpaceOnUse">
<stop stop-color="#635B4C" stop-opacity="0.6"/>
<stop offset="1" stop-color="#635B4C" stop-opacity="0.3"/>
</linearGradient>
</defs>
</svg>
