<svg width="292" height="209" viewBox="0 0 292 209" fill="none" xmlns="http://www.w3.org/2000/svg">
<g id="v34-paper">
<g id="folded paper">
<g id="Inside Paper" filter="url(#filter0_d_118_2448)">
<path d="M27.8531 93.2278L143.719 93.2267L258.828 93.2269L140.532 16.5581L27.8531 93.2278Z" fill="#FAF7F0"/>
<path d="M27.8531 93.2278L143.719 93.2267L258.828 93.2269L140.532 16.5581L27.8531 93.2278Z" fill="url(#paint0_linear_118_2448)" fill-opacity="0.5"/>
</g>
<g id="Subtract" filter="url(#filter1_d_118_2448)">
<path d="M140.53 92.9053L249.819 92.9068L140.53 168.962V92.9053Z" fill="#FAF7F0"/>
<path d="M140.53 92.9053L249.819 92.9068L140.53 168.962V92.9053Z" fill="url(#paint1_linear_118_2448)" fill-opacity="0.5"/>
<path d="M31.357 92.9061L140.53 92.9053V168.962L31.357 92.9061Z" fill="#FAF7F0"/>
<path d="M31.357 92.9061L140.53 92.9053V168.962L31.357 92.9061Z" fill="url(#paint2_linear_118_2448)" fill-opacity="0.5"/>
</g>
<g id="inside folds">
<path id="Vector 1" d="M42.2045 93.1771L141.211 70.4495L141.762 116.317L42.2045 93.1771Z" fill="url(#paint3_linear_118_2448)" fill-opacity="0.3"/>
<path id="Vector 2" d="M244.341 93.3091L140.285 68.3746L141.54 118.214L244.341 93.3091Z" fill="url(#paint4_linear_118_2448)" fill-opacity="0.3"/>
</g>

<mask id="mask0_118_2448" style="mask-type:alpha" maskUnits="userSpaceOnUse" x="30" y="96" width="220" height="113">
<g id="Paper Base">
<path d="M30.9555 205.471L137.132 208.326L137.312 204.6L144.927 204.6L145.138 208.326L249.455 205.471L249.455 96.3537L141.306 96.3577L141.315 96.3879L138.841 96.3927L138.834 96.3578L30.9548 96.3531L30.9551 150.062L31.073 150.067L31.038 151.258L30.9551 151.259L30.9555 205.471Z" fill="#FAF7F0"/>
<path d="M30.9555 205.471L137.132 208.326L137.312 204.6L144.927 204.6L145.138 208.326L249.455 205.471L249.455 96.3537L141.306 96.3577L141.315 96.3879L138.841 96.3927L138.834 96.3578L30.9548 96.3531L30.9551 150.062L31.073 150.067L31.038 151.258L30.9551 151.259L30.9555 205.471Z" fill="url(#paint5_linear_118_2448)" fill-opacity="0.25"/>
</g>
</mask>
<g mask="url(#mask0_118_2448)">
</g>
</g>
<g id="top">
<path id="Center Crease" d="M140.928 16.1595L139.778 16.1601L139.778 168.466L140.928 168.466L142.078 168.465L142.078 16.1588L140.928 16.1595Z" fill="url(#paint6_linear_118_2448)" fill-opacity="0.5"/>
<g id="top back">
<g id="back left base">
<path d="M35.4559 7.28791L14.0186 93.1536L39.5873 93.4118L42.0663 93.1536L140.847 16.3299C140.847 16.3299 133.992 8.38196 120.586 7.3689C107.181 6.35583 35.4559 7.28791 35.4559 7.28791Z" fill="#EFE9DD"/>
<path d="M35.4559 7.28791L14.0186 93.1536L39.5873 93.4118L42.0663 93.1536L140.847 16.3299C140.847 16.3299 133.992 8.38196 120.586 7.3689C107.181 6.35583 35.4559 7.28791 35.4559 7.28791Z" fill="url(#paint7_linear_118_2448)"/>
</g>
<g id="back right base">
<path d="M251.232 7.44539L271.072 93.5553L244.094 93.5555L140.759 16.3189C140.759 16.3189 147.023 8.30193 160.902 7.32077C174.781 6.33961 251.232 7.44539 251.232 7.44539Z" fill="#EFE9DD"/>
<path d="M251.232 7.44539L271.072 93.5553L244.094 93.5555L140.759 16.3189C140.759 16.3189 147.023 8.30193 160.902 7.32077C174.781 6.33961 251.232 7.44539 251.232 7.44539Z" fill="url(#paint8_linear_118_2448)"/>
</g>
<g id="back left fold">
<path d="M14.3337 93.5266L42.1322 93.5266L35.4624 7.37979C35.6045 14.3028 -1.5443 78.2947 14.3337 93.5266Z" fill="#EFE9DD"/>
<path d="M14.3337 93.5266L42.1322 93.5266L35.4624 7.37979C35.6045 14.3028 -1.5443 78.2947 14.3337 93.5266Z" fill="url(#paint9_linear_118_2448)"/>
</g>
<g id="back right fold">
<path d="M271.494 93.3659L244.116 93.3661L251.058 7.64348C250.928 14.2275 283.475 78.4138 271.494 93.3659Z" fill="#EFE9DD"/>
<path d="M271.494 93.3659L244.116 93.3661L251.058 7.64348C250.928 14.2275 283.475 78.4138 271.494 93.3659Z" fill="url(#paint10_linear_118_2448)"/>
</g>
</g>
<g id="bottom left" filter="url(#filter2_d_118_2448)">
<g id="left">
<path d="M271.197 93.3912C271.197 93.3912 275.403 96.4652 275.404 104.668C275.405 112.871 249.62 178.745 249.62 178.745L140.988 168.678L244.287 93.3911L271.197 93.3912Z" fill="#EFE9DD"/>
<path d="M271.197 93.3912C271.197 93.3912 275.403 96.4652 275.404 104.668C275.405 112.871 249.62 178.745 249.62 178.745L140.988 168.678L244.287 93.3911L271.197 93.3912Z" fill="url(#paint11_linear_118_2448)"/>
</g>
<g id="Subtract_2">
<path d="M249.096 179.174C248.905 179.179 193.799 180.651 167.718 180.651C152.565 178.684 144.271 172.997 141.605 170.258L141.605 168.103L244.227 93.3696L249.096 179.174Z" fill="#EFE9DD"/>
<path d="M249.096 179.174C248.905 179.179 193.799 180.651 167.718 180.651C152.565 178.684 144.271 172.997 141.605 170.258L141.605 168.103L244.227 93.3696L249.096 179.174Z" fill="url(#paint12_linear_118_2448)" fill-opacity="0.5"/>
</g>
</g>
<g id="bottom right" filter="url(#filter3_d_118_2448)">
<g id="right">
<path d="M33.3183 182.658C33.3183 182.658 6.89541 126.525 6.9 109.06C6.90459 91.5948 13.7445 93.1534 13.7445 93.1534L42.0297 93.1968L140.942 168.749C140.942 168.749 139.329 175.626 121.805 177.433C104.28 179.241 33.3183 182.658 33.3183 182.658Z" fill="#EFE9DD"/>
<path d="M33.3183 182.658C33.3183 182.658 6.89541 126.525 6.9 109.06C6.90459 91.5948 13.7445 93.1534 13.7445 93.1534L42.0297 93.1968L140.942 168.749C140.942 168.749 139.329 175.626 121.805 177.433C104.28 179.241 33.3183 182.658 33.3183 182.658Z" fill="url(#paint13_linear_118_2448)"/>
</g>
<g id="Subtract_3">
<path d="M33.2182 182.658C30.5345 127.436 42.205 93.3211 42.2134 93.2965L140.276 168.584C140.276 184.81 33.4032 182.662 33.2182 182.658Z" fill="#EFE9DD"/>
<path d="M33.2182 182.658C30.5345 127.436 42.205 93.3211 42.2134 93.2965L140.276 168.584C140.276 184.81 33.4032 182.662 33.2182 182.658Z" fill="url(#paint14_linear_118_2448)" fill-opacity="0.5"/>
</g>
</g>
</g>
</g>
<defs>
<filter id="filter0_d_118_2448" x="11.7531" y="2.75808" width="272.375" height="118.07" filterUnits="userSpaceOnUse" color-interpolation-filters="sRGB">
<feFlood flood-opacity="0" result="BackgroundImageFix"/>
<feColorMatrix in="SourceAlpha" type="matrix" values="0 0 0 0 0 0 0 0 0 0 0 0 0 0 0 0 0 0 127 0" result="hardAlpha"/>
<feOffset dx="4.6" dy="6.9"/>
<feGaussianBlur stdDeviation="10.35"/>
<feColorMatrix type="matrix" values="0 0 0 0 0.149 0 0 0 0 0.275 0 0 0 0 0.325 0 0 0 0.18 0"/>
<feBlend mode="normal" in2="BackgroundImageFix" result="effect1_dropShadow_118_2448"/>
<feBlend mode="normal" in="SourceGraphic" in2="effect1_dropShadow_118_2448" result="shape"/>
</filter>
<filter id="filter1_d_118_2448" x="15.257" y="79.1053" width="259.862" height="117.457" filterUnits="userSpaceOnUse" color-interpolation-filters="sRGB">
<feFlood flood-opacity="0" result="BackgroundImageFix"/>
<feColorMatrix in="SourceAlpha" type="matrix" values="0 0 0 0 0 0 0 0 0 0 0 0 0 0 0 0 0 0 127 0" result="hardAlpha"/>
<feOffset dx="4.6" dy="6.9"/>
<feGaussianBlur stdDeviation="10.35"/>
<feColorMatrix type="matrix" values="0 0 0 0 0.149 0 0 0 0 0.275 0 0 0 0 0.325 0 0 0 0.18 0"/>
<feBlend mode="normal" in2="BackgroundImageFix" result="effect1_dropShadow_118_2448"/>
<feBlend mode="normal" in="SourceGraphic" in2="effect1_dropShadow_118_2448" result="shape"/>
</filter>
<filter id="filter2_d_118_2448" x="134.088" y="86.4696" width="157.416" height="110.281" filterUnits="userSpaceOnUse" color-interpolation-filters="sRGB">
<feFlood flood-opacity="0" result="BackgroundImageFix"/>
<feColorMatrix in="SourceAlpha" type="matrix" values="0 0 0 0 0 0 0 0 0 0 0 0 0 0 0 0 0 0 127 0" result="hardAlpha"/>
<feOffset dx="4.6" dy="4.6"/>
<feGaussianBlur stdDeviation="5.75"/>
<feComposite in2="hardAlpha" operator="out"/>
<feColorMatrix type="matrix" values="0 0 0 0 0.14902 0 0 0 0 0.27451 0 0 0 0 0.32549 0 0 0 0.25 0"/>
<feBlend mode="normal" in2="BackgroundImageFix" result="effect1_dropShadow_118_2448"/>
<feBlend mode="normal" in="SourceGraphic" in2="effect1_dropShadow_118_2448" result="shape"/>
</filter>
<filter id="filter3_d_118_2448" x="1.43051e-06" y="86.2176" width="157.042" height="112.636" filterUnits="userSpaceOnUse" color-interpolation-filters="sRGB">
<feFlood flood-opacity="0" result="BackgroundImageFix"/>
<feColorMatrix in="SourceAlpha" type="matrix" values="0 0 0 0 0 0 0 0 0 0 0 0 0 0 0 0 0 0 127 0" result="hardAlpha"/>
<feOffset dx="4.6" dy="4.6"/>
<feGaussianBlur stdDeviation="5.75"/>
<feComposite in2="hardAlpha" operator="out"/>
<feColorMatrix type="matrix" values="0 0 0 0 0.14902 0 0 0 0 0.27451 0 0 0 0 0.32549 0 0 0 0.25 0"/>
<feBlend mode="normal" in2="BackgroundImageFix" result="effect1_dropShadow_118_2448"/>
<feBlend mode="normal" in="SourceGraphic" in2="effect1_dropShadow_118_2448" result="shape"/>
</filter>
<linearGradient id="paint0_linear_118_2448" x1="111.051" y1="57.4063" x2="165.879" y2="53.5241" gradientUnits="userSpaceOnUse">
<stop stop-color="#635B4C" stop-opacity="0.75"/>
<stop offset="0.475962" stop-color="#635B4C"/>
<stop offset="1" stop-color="#635B4C" stop-opacity="0.5"/>
</linearGradient>
<linearGradient id="paint1_linear_118_2448" x1="118.926" y1="68.77" x2="165.827" y2="70.5511" gradientUnits="userSpaceOnUse">
<stop stop-color="#635B4C" stop-opacity="0.5"/>
<stop offset="0.5" stop-color="#635B4C"/>
<stop offset="1" stop-color="#635B4C" stop-opacity="0.5"/>
</linearGradient>
<linearGradient id="paint2_linear_118_2448" x1="118.926" y1="68.77" x2="165.827" y2="70.5511" gradientUnits="userSpaceOnUse">
<stop stop-color="#635B4C" stop-opacity="0.5"/>
<stop offset="0.5" stop-color="#635B4C"/>
<stop offset="1" stop-color="#635B4C" stop-opacity="0.5"/>
</linearGradient>
<linearGradient id="paint3_linear_118_2448" x1="91.9834" y1="91.4637" x2="91.9834" y2="94.1397" gradientUnits="userSpaceOnUse">
<stop stop-color="#635B4C" stop-opacity="0"/>
<stop offset="0.5" stop-color="#635B4C"/>
<stop offset="1" stop-color="#635B4C" stop-opacity="0"/>
</linearGradient>
<linearGradient id="paint4_linear_118_2448" x1="148.909" y1="95.1808" x2="148.909" y2="92.0542" gradientUnits="userSpaceOnUse">
<stop stop-color="#635B4C" stop-opacity="0"/>
<stop offset="0.464818" stop-color="#635B4C"/>
<stop offset="1" stop-color="#635B4C" stop-opacity="0"/>
</linearGradient>
<linearGradient id="paint5_linear_118_2448" x1="232.375" y1="152.546" x2="216.944" y2="130.726" gradientUnits="userSpaceOnUse">
<stop stop-color="#C9B99A" stop-opacity="0.06"/>
<stop offset="1" stop-color="#635B4C"/>
</linearGradient>
<linearGradient id="paint6_linear_118_2448" x1="142.202" y1="92.3125" x2="139.662" y2="92.3125" gradientUnits="userSpaceOnUse">
<stop stop-color="#635B4C" stop-opacity="0"/>
<stop offset="0.5" stop-color="#635B4C"/>
<stop offset="1" stop-color="#635B4C" stop-opacity="0"/>
</linearGradient>
<linearGradient id="paint7_linear_118_2448" x1="99.2804" y1="43.6581" x2="42.5471" y2="104.036" gradientUnits="userSpaceOnUse">
<stop stop-color="#C9B99A" stop-opacity="0.06"/>
<stop offset="1" stop-color="#635B4C"/>
</linearGradient>
<linearGradient id="paint8_linear_118_2448" x1="182.959" y1="43.6606" x2="239.522" y2="106.141" gradientUnits="userSpaceOnUse">
<stop stop-color="#C9B99A" stop-opacity="0.06"/>
<stop offset="1" stop-color="#635B4C"/>
</linearGradient>
<linearGradient id="paint9_linear_118_2448" x1="56.0266" y1="101.966" x2="61.1578" y2="62.576" gradientUnits="userSpaceOnUse">
<stop stop-color="#635B4C" stop-opacity="0.5"/>
<stop offset="0.947115" stop-color="#635B4C" stop-opacity="0"/>
</linearGradient>
<linearGradient id="paint10_linear_118_2448" x1="210.931" y1="101.39" x2="208.113" y2="75.1515" gradientUnits="userSpaceOnUse">
<stop stop-color="#635B4C" stop-opacity="0.5"/>
<stop offset="0.947115" stop-color="#635B4C" stop-opacity="0"/>
</linearGradient>
<linearGradient id="paint11_linear_118_2448" x1="181.058" y1="141.741" x2="231.722" y2="77.5831" gradientUnits="userSpaceOnUse">
<stop stop-color="#635B4C" stop-opacity="0"/>
<stop offset="1" stop-color="#635B4C"/>
</linearGradient>
<linearGradient id="paint12_linear_118_2448" x1="198.071" y1="154.106" x2="165.792" y2="95.7813" gradientUnits="userSpaceOnUse">
<stop stop-color="#635B4C" stop-opacity="0.6"/>
<stop offset="1" stop-color="#635B4C" stop-opacity="0.3"/>
</linearGradient>
<linearGradient id="paint13_linear_118_2448" x1="100.197" y1="141.937" x2="44.971" y2="80.7416" gradientUnits="userSpaceOnUse">
<stop stop-color="#C9B99A" stop-opacity="0.06"/>
<stop offset="1" stop-color="#635B4C"/>
</linearGradient>
<linearGradient id="paint14_linear_118_2448" x1="88.7359" y1="120.268" x2="116.565" y2="181.927" gradientUnits="userSpaceOnUse">
<stop stop-color="#635B4C" stop-opacity="0.6"/>
<stop offset="1" stop-color="#635B4C" stop-opacity="0.3"/>
</linearGradient>
</defs>
</svg>
