<svg width="286" height="292" viewBox="0 0 286 292" fill="none" xmlns="http://www.w3.org/2000/svg">

<g id="TEMP EXPORT v35.1">
<g id="bottom">
<g id="Paper Base" filter="url(#filter0_d_118_2448)">
<path d="M44.6809 142.403L139.618 245.938L241.371 142.403L245.146 61.7682L139.618 49.039L139.627 49.0918L137.153 49.1001L137.146 49.0392L48.0376 61.7682L44.6809 142.403Z" fill="#FAF7F0"/>
<path d="M44.6809 142.403L139.618 245.938L241.371 142.403L245.146 61.7682L139.618 49.039L139.627 49.0918L137.153 49.1001L137.146 49.0392L48.0376 61.7682L44.6809 142.403Z" fill="url(#paint0_linear_118_2448)" fill-opacity="0.1"/>
</g>
</g>
<g id="folded paper">
<g id="Inside Paper" filter="url(#filter1_d_118_2448)">
<path d="M43.3632 142.739L142.904 142.737L243.373 142.743L142.904 48.8098L43.3632 142.739Z" fill="#FAF7F0"/>
<path d="M43.3632 142.739L142.904 142.737L243.373 142.743L142.904 48.8098L43.3632 142.739Z" fill="url(#paint1_linear_118_2448)" fill-opacity="0.5"/>
</g>
<g id="Subtract" filter="url(#filter2_d_118_2448)">
<path d="M140.681 142.348L241.972 142.349L140.681 247.396V142.348Z" fill="#FAF7F0"/>
<path d="M140.681 142.348L241.972 142.349L140.681 247.396V142.348Z" fill="url(#paint2_linear_118_2448)" fill-opacity="0.5"/>
<path d="M44.9274 142.349L140.681 142.348V247.396L44.9274 142.349Z" fill="#FAF7F0"/>
<path d="M44.9274 142.349L140.681 142.348V247.396L44.9274 142.349Z" fill="url(#paint3_linear_118_2448)" fill-opacity="0.5"/>
</g>
<g id="inside folds">
<path id="Vector 1" d="M44.5787 141.871L140.4 140.625V145.393L44.5787 141.871Z" fill="#635B4C" fill-opacity="0.3"/>
<path id="Vector 2" d="M243.034 142.379L140.947 140.8L140.943 145.287L243.034 142.379Z" fill="#635B4C" fill-opacity="0.3"/>
<g id="Vertical Flap Numbers">
<path id="3-warp" d="M151.066 123.35C150.985 123.282 150.905 123.214 150.828 123.145C149.356 121.85 148.389 120.472 147.86 118.957C147.328 117.345 147.268 115.732 147.679 114.118C148.114 112.486 149.017 111.014 150.462 109.762C150.95 109.339 151.504 109.134 152.132 109.156C152.805 109.179 153.388 109.398 153.87 109.805C154.378 110.233 154.632 110.72 154.624 111.258C154.639 111.779 154.384 112.236 153.866 112.635C152.944 113.346 152.347 114.223 152.046 115.24C151.768 116.241 151.794 117.262 152.123 118.303C152.471 119.31 153.125 120.225 154.114 121.072C154.131 121.086 154.148 121.101 154.165 121.115C155.656 122.373 157.305 123.111 159.171 123.376C161.082 123.645 162.949 123.349 164.71 122.437C165.83 121.856 166.608 121.15 167.02 120.299C167.459 119.434 167.529 118.512 167.229 117.533C166.93 116.554 166.251 115.618 165.216 114.744C165.056 114.61 164.918 114.473 164.799 114.332C164.485 113.959 164.316 113.564 164.29 113.146C164.28 112.593 164.536 112.136 165.066 111.784C165.596 111.433 166.221 111.306 166.95 111.412C167.517 111.495 168.042 111.685 168.523 111.983C168.704 112.095 168.878 112.222 169.046 112.363C169.828 113.023 170.756 113.552 171.845 113.961C172.959 114.357 174.072 114.587 175.186 114.656C176.326 114.708 177.313 114.524 178.129 114.087C179.29 113.467 179.791 112.546 179.593 111.29C179.399 110.036 178.51 108.741 176.969 107.44C176.789 107.289 176.608 107.143 176.423 107C175.408 106.214 174.328 105.569 173.196 105.075C171.889 104.517 170.66 104.207 169.509 104.144C168.389 104.107 167.482 104.359 166.772 104.886C166.245 105.277 165.608 105.448 164.87 105.407C164.154 105.348 163.514 105.081 162.943 104.599C162.4 104.141 162.084 103.62 161.987 103.029C161.941 102.446 162.152 101.952 162.629 101.555C163.885 100.508 165.454 99.9417 167.391 99.9048C169.326 99.8668 171.42 100.325 173.67 101.279C175.772 102.145 177.804 103.371 179.721 104.92C179.876 105.045 180.03 105.173 180.183 105.302C182.073 106.897 183.446 108.528 184.253 110.153C185.119 111.792 185.368 113.255 184.999 114.542C184.69 115.843 183.751 116.832 182.233 117.548C181.155 118.056 179.939 118.284 178.606 118.249C177.301 118.238 175.978 118.066 174.64 117.736C173.328 117.392 172.083 116.978 170.901 116.489C171.88 117.969 172.389 119.289 172.426 120.446C172.49 121.589 172.15 122.575 171.423 123.414C170.721 124.275 169.699 124.993 168.382 125.589C166.559 126.413 164.518 126.816 162.328 126.858C160.165 126.886 158.09 126.606 156.099 126.017C154.134 125.412 152.478 124.542 151.066 123.35Z" fill="#020101" fill-opacity="0.75"/>
<path id="4-warp" d="M150.322 159.709C150.758 159.31 151.284 159.144 151.905 159.203C152.525 159.263 153.059 159.526 153.5 160.001C154.822 161.425 156.145 162.849 157.466 164.274C158.513 163.317 159.56 162.36 160.606 161.404C163.541 158.721 166.475 156.039 169.41 153.357C169.96 152.854 170.565 152.593 171.233 152.568C171.9 152.543 172.49 152.673 172.998 152.961C173.507 153.29 173.817 153.716 173.925 154.245C175.128 160.99 175.701 168.311 175.645 176.208C175.626 178.869 175.535 181.595 175.374 184.387C175.337 184.839 175.225 185.275 175.04 185.695C174.824 186.143 174.514 186.552 174.111 186.921C173.46 187.515 172.781 187.822 172.081 187.835C171.38 187.849 170.816 187.592 170.38 187.071C165.816 181.631 161.253 176.191 156.69 170.75C155.94 171.436 155.19 172.121 154.441 172.806C153.916 173.286 153.371 173.575 152.811 173.669C152.25 173.763 151.732 173.485 151.25 172.839C150.898 172.367 150.775 171.79 150.873 171.115C150.991 170.464 151.298 169.912 151.8 169.453C152.517 168.798 153.235 168.141 153.952 167.486C152.702 165.996 151.452 164.506 150.202 163.015C149.785 162.519 149.585 161.95 149.593 161.316C149.602 160.681 149.842 160.148 150.322 159.709ZM169.58 157.213C170.251 157.185 170.927 157.152 171.608 157.115C168.953 159.541 166.299 161.967 163.644 164.394C162.551 165.393 161.457 166.393 160.363 167.393C164.686 172.05 169.01 176.706 173.333 181.363C172.451 181.333 171.576 181.297 170.709 181.254C170.84 177.875 170.863 174.596 170.777 171.415C170.643 166.44 170.243 161.705 169.58 157.213Z" fill="#020101" fill-opacity="0.75"/>
<path id="7-warp" d="M129.904 155.909C130.363 156.263 130.649 156.728 130.773 157.311C130.897 157.894 130.811 158.412 130.503 158.857C130.385 159.026 130.251 159.167 130.1 159.277C129.909 159.39 129.699 159.503 129.468 159.616C124.669 161.761 119.303 163.46 113.368 164.714C109.484 165.534 105.358 166.164 100.988 166.602C102.993 168.159 104.997 169.715 107.001 171.27C110.365 173.882 113.729 176.493 117.093 179.105C117.87 179.709 118.422 180.365 118.762 181.084C119.052 181.798 119.053 182.4 118.754 182.885C118.455 183.368 117.955 183.567 117.243 183.47C116.482 183.367 115.687 182.993 114.869 182.358C111.328 179.608 107.787 176.858 104.247 174.108C100.705 171.358 97.1641 168.608 93.6241 165.858C92.8424 165.252 92.3352 164.614 92.114 163.954C91.8923 163.295 92.0227 162.811 92.4933 162.494C92.6507 162.389 92.8433 162.311 93.072 162.261C93.2785 162.226 93.5131 162.198 93.776 162.174C103.477 161.668 112.123 160.336 119.713 158.178C122.481 157.391 125.108 156.494 127.595 155.488C128.432 155.225 129.194 155.359 129.904 155.909Z" fill="#020101" fill-opacity="0.75"/>
<path id="8-warp" d="M128.711 125.955C128.708 125.959 128.704 125.963 128.7 125.966C127.658 126.874 126.349 127.45 124.611 127.823C122.858 128.168 120.869 128.305 118.646 128.233C116.398 128.146 114.131 127.83 112.012 127.147C109.954 126.486 108.48 125.58 107.746 124.303C106.978 123.018 106.979 121.502 107.744 119.757C108.533 117.996 110.04 116.169 112.108 114.406C112.116 114.4 112.124 114.393 112.131 114.386C114.211 112.618 116.415 111.289 118.585 110.529C120.76 109.766 122.709 109.607 124.43 110.057C126.166 110.458 127.459 111.486 128.478 113.004C129.552 114.548 130.163 116.254 130.48 117.982C130.796 119.675 130.828 121.219 130.579 122.609C130.308 123.984 129.739 125.055 128.711 125.955ZM125.473 123.696C126.171 123.09 126.562 122.383 126.705 121.527C126.865 120.656 126.804 119.74 126.516 118.784C126.209 117.81 125.691 116.89 124.907 116.072C124.165 115.254 123.295 114.71 122.239 114.487C121.165 114.243 120.019 114.314 118.801 114.7C117.59 115.043 116.417 115.698 115.335 116.622C115.328 116.628 115.321 116.634 115.314 116.64C114.271 117.533 113.55 118.495 113.206 119.477C112.832 120.452 112.86 121.343 113.288 122.146C113.688 122.939 114.47 123.569 115.584 124.079C116.725 124.604 117.957 124.921 119.226 125.077C120.489 125.2 121.673 125.151 122.774 124.933C123.869 124.716 124.745 124.324 125.459 123.708C125.463 123.704 125.468 123.7 125.473 123.696ZM114.701 116.179C114.694 116.185 114.686 116.192 114.679 116.198C113.03 117.6 111.256 118.658 109.246 119.462C107.261 120.241 105.236 120.743 103.174 120.963C101.085 121.171 99.1719 121.025 97.5482 120.434C95.8335 119.811 94.7818 118.864 94.5048 117.499C94.1964 116.125 94.5989 114.497 95.7087 112.617C96.8261 110.699 98.6334 108.686 101.012 106.675C101.022 106.667 101.032 106.658 101.042 106.649C103.412 104.614 105.823 103.032 108.155 102.003C110.53 100.937 112.621 100.453 114.426 100.551C116.235 100.646 117.55 101.391 118.494 102.685C119.407 103.862 119.772 105.303 119.702 106.917C119.613 108.513 119.146 110.123 118.305 111.746C117.492 113.345 116.327 114.793 114.701 116.179ZM111.779 114.141C112.67 113.384 113.291 112.584 113.675 111.713C114.059 110.843 114.223 109.997 114.165 109.177C114.086 108.338 113.759 107.62 113.153 107.048C112.583 106.446 111.835 106.121 110.877 106.099C109.92 106.078 108.876 106.309 107.747 106.793C106.598 107.258 105.445 107.98 104.316 108.934C104.307 108.942 104.297 108.949 104.288 108.957C102.67 110.331 101.667 111.705 101.357 113.013C101.041 114.331 101.507 115.281 102.677 115.924C103.848 116.568 105.353 116.691 107.101 116.371C108.874 116.023 110.395 115.311 111.756 114.161C111.764 114.154 111.771 114.147 111.779 114.141Z" fill="#020101" fill-opacity="0.75"/>
</g>
</g>
<mask id="mask0_118_2448" style="mask-type:alpha" maskUnits="userSpaceOnUse" x="30" y="171" width="219" height="113">
<g id="Paper Base_2">
<path d="M30.2167 280.927L136.393 283.782L136.574 280.056L144.188 280.056L144.399 283.782L248.717 280.927L248.717 171.81L140.567 171.814L140.576 171.844L138.102 171.849L138.095 171.814L30.2159 171.809L30.2163 225.518L30.3342 225.523L30.2992 226.714L30.2163 226.715L30.2167 280.927Z" fill="#FAF7F0"/>
<path d="M30.2167 280.927L136.393 283.782L136.574 280.056L144.188 280.056L144.399 283.782L248.717 280.927L248.717 171.81L140.567 171.814L140.576 171.844L138.102 171.849L138.095 171.814L30.2159 171.809L30.2163 225.518L30.3342 225.523L30.2992 226.714L30.2163 226.715L30.2167 280.927Z" fill="url(#paint4_linear_118_2448)" fill-opacity="0.25"/>
</g>
</mask>
<g mask="url(#mask0_118_2448)">
</g>
</g>
<g id="top">
<path id="Center Crease" d="M142.123 33.6631L139.989 246.774" stroke="url(#paint5_linear_118_2448)" stroke-opacity="0.5" stroke-width="2.3"/>
<g id="top left">
<g id="back left base">
<path d="M14.1752 46.7808C14.1752 46.7808 26.4545 95.3413 31.4031 116.688C36.3518 138.034 44.759 142.23 44.759 142.23L140.686 125.052L141.207 33.7823C141.207 33.7823 139.974 21.3312 100.379 26.8172C60.7828 32.3031 14.1752 46.7808 14.1752 46.7808Z" fill="#EFE9DD"/>
<path d="M14.1752 46.7808C14.1752 46.7808 26.4545 95.3413 31.4031 116.688C36.3518 138.034 44.759 142.23 44.759 142.23L140.686 125.052L141.207 33.7823C141.207 33.7823 139.974 21.3312 100.379 26.8172C60.7828 32.3031 14.1752 46.7808 14.1752 46.7808Z" fill="url(#paint6_linear_118_2448)" fill-opacity="0.3"/>
</g>
<g id="back left fold">
<path d="M44.4063 141.876L140.673 125.037L15.0011 46.8792C17.0537 55.1116 24.7263 127.275 44.4063 141.876Z" fill="#EFE9DD"/>
<path d="M44.4063 141.876L140.673 125.037L15.0011 46.8792C17.0537 55.1116 24.7263 127.275 44.4063 141.876Z" fill="url(#paint7_linear_118_2448)" fill-opacity="0.5"/>
</g>
</g>
<g id="top right">
<g id="back right base">
<path d="M268.08 41.0366C268.08 41.0366 258.355 90.1712 254.529 111.747C250.703 133.323 239.05 143.067 239.05 143.067L141.021 125.108L141.789 33.5304C141.789 33.5304 150.908 23.0342 180.95 25.6052C210.992 28.1762 268.08 41.0366 268.08 41.0366Z" fill="#EFE9DD"/>
<path d="M268.08 41.0366C268.08 41.0366 258.355 90.1712 254.529 111.747C250.703 133.323 239.05 143.067 239.05 143.067L141.021 125.108L141.789 33.5304C141.789 33.5304 150.908 23.0342 180.95 25.6052C210.992 28.1762 268.08 41.0366 268.08 41.0366Z" fill="url(#paint8_linear_118_2448)" fill-opacity="0.3"/>
</g>
<g id="back right fold">
<path d="M242.12 143.363L141.017 125.09L268.029 41.1766C266.494 49.0981 257.112 127.411 242.12 143.363Z" fill="#EFE9DD"/>
<path d="M242.12 143.363L141.017 125.09L268.029 41.1766C266.494 49.0981 257.112 127.411 242.12 143.363Z" fill="url(#paint9_linear_118_2448)" fill-opacity="0.5"/>
</g>
</g>
<g id="left" filter="url(#filter3_d_118_2448)">
<g id="left_2">
<path d="M241.865 141.934C241.865 141.934 251.438 151.47 252.669 160.196C253.9 168.922 260.913 251.739 260.913 251.739L140.743 246.965L140.743 157.253L241.865 141.934Z" fill="#EFE9DD"/>
<path d="M241.865 141.934C241.865 141.934 251.438 151.47 252.669 160.196C253.9 168.922 260.913 251.739 260.913 251.739L140.743 246.965L140.743 157.253L241.865 141.934Z" fill="url(#paint10_linear_118_2448)" fill-opacity="0.2"/>
</g>
<g id="Subtract_2">
<path d="M260.007 251.543C259.935 251.544 210.823 251.957 166.74 253.538C144.441 254.338 140.274 247.826 140.273 246.485L140.939 157.195L260.007 251.543Z" fill="#EFE9DD"/>
<path d="M260.007 251.543C259.935 251.544 210.823 251.957 166.74 253.538C144.441 254.338 140.274 247.826 140.273 246.485L140.939 157.195L260.007 251.543Z" fill="url(#paint11_linear_118_2448)" fill-opacity="0.1"/>
</g>
</g>
<g id="right">
<g id="rights">
<path d="M22.0941 250.367C22.0941 250.367 30.7273 196.667 34.2123 175.033C37.6973 153.4 44.3367 141.889 44.3367 141.889L140.554 157.261L139.665 246.876C139.665 246.876 135.813 254.176 110.67 255.586C85.5268 256.996 22.0941 250.367 22.0941 250.367Z" fill="#EFE9DD"/>
<path d="M22.0941 250.367C22.0941 250.367 30.7273 196.667 34.2123 175.033C37.6973 153.4 44.3367 141.889 44.3367 141.889L140.554 157.261L139.665 246.876C139.665 246.876 135.813 254.176 110.67 255.586C85.5268 256.996 22.0941 250.367 22.0941 250.367Z" fill="url(#paint12_linear_118_2448)" fill-opacity="0.3"/>
</g>
<path id="Subtract_3" d="M21.5989 250.389C68.6908 210.113 140.442 157.473 140.442 157.473L139.635 246.482C136.402 266.584 21.7616 250.412 21.5989 250.389Z" fill="#EFE9DD"/>
</g>
</g>
</g>
<defs>
<filter id="filter0_d_118_2448" x="28.5808" y="35.2391" width="241.865" height="238.299" filterUnits="userSpaceOnUse" color-interpolation-filters="sRGB">
<feFlood flood-opacity="0" result="BackgroundImageFix"/>
<feColorMatrix in="SourceAlpha" type="matrix" values="0 0 0 0 0 0 0 0 0 0 0 0 0 0 0 0 0 0 127 0" result="hardAlpha"/>
<feOffset dx="4.6" dy="6.9"/>
<feGaussianBlur stdDeviation="10.35"/>
<feColorMatrix type="matrix" values="0 0 0 0 0.149 0 0 0 0 0.275 0 0 0 0 0.325 0 0 0 0.18 0"/>
<feBlend mode="normal" in2="BackgroundImageFix" result="effect1_dropShadow_118_2448"/>
<feBlend mode="normal" in="SourceGraphic" in2="effect1_dropShadow_118_2448" result="shape"/>
</filter>
<filter id="filter1_d_118_2448" x="27.2632" y="35.0101" width="241.41" height="135.333" filterUnits="userSpaceOnUse" color-interpolation-filters="sRGB">
<feFlood flood-opacity="0" result="BackgroundImageFix"/>
<feColorMatrix in="SourceAlpha" type="matrix" values="0 0 0 0 0 0 0 0 0 0 0 0 0 0 0 0 0 0 127 0" result="hardAlpha"/>
<feOffset dx="4.6" dy="6.9"/>
<feGaussianBlur stdDeviation="10.35"/>
<feColorMatrix type="matrix" values="0 0 0 0 0.149 0 0 0 0 0.275 0 0 0 0 0.325 0 0 0 0.18 0"/>
<feBlend mode="normal" in2="BackgroundImageFix" result="effect1_dropShadow_118_2448"/>
<feBlend mode="normal" in="SourceGraphic" in2="effect1_dropShadow_118_2448" result="shape"/>
</filter>
<filter id="filter2_d_118_2448" x="28.8274" y="128.548" width="238.445" height="146.449" filterUnits="userSpaceOnUse" color-interpolation-filters="sRGB">
<feFlood flood-opacity="0" result="BackgroundImageFix"/>
<feColorMatrix in="SourceAlpha" type="matrix" values="0 0 0 0 0 0 0 0 0 0 0 0 0 0 0 0 0 0 127 0" result="hardAlpha"/>
<feOffset dx="4.6" dy="6.9"/>
<feGaussianBlur stdDeviation="10.35"/>
<feColorMatrix type="matrix" values="0 0 0 0 0.149 0 0 0 0 0.275 0 0 0 0 0.325 0 0 0 0.18 0"/>
<feBlend mode="normal" in2="BackgroundImageFix" result="effect1_dropShadow_118_2448"/>
<feBlend mode="normal" in="SourceGraphic" in2="effect1_dropShadow_118_2448" result="shape"/>
</filter>
<filter id="filter3_d_118_2448" x="133.373" y="135.034" width="143.64" height="134.672" filterUnits="userSpaceOnUse" color-interpolation-filters="sRGB">
<feFlood flood-opacity="0" result="BackgroundImageFix"/>
<feColorMatrix in="SourceAlpha" type="matrix" values="0 0 0 0 0 0 0 0 0 0 0 0 0 0 0 0 0 0 127 0" result="hardAlpha"/>
<feOffset dx="4.6" dy="4.6"/>
<feGaussianBlur stdDeviation="5.75"/>
<feComposite in2="hardAlpha" operator="out"/>
<feColorMatrix type="matrix" values="0 0 0 0 0.14902 0 0 0 0 0.27451 0 0 0 0 0.32549 0 0 0 0.25 0"/>
<feBlend mode="normal" in2="BackgroundImageFix" result="effect1_dropShadow_118_2448"/>
<feBlend mode="normal" in="SourceGraphic" in2="effect1_dropShadow_118_2448" result="shape"/>
</filter>
<linearGradient id="paint0_linear_118_2448" x1="185.256" y1="88.6004" x2="138.994" y2="134.946" gradientUnits="userSpaceOnUse">
<stop stop-color="#C9B99A" stop-opacity="0.06"/>
<stop offset="1" stop-color="#635B4C"/>
</linearGradient>
<linearGradient id="paint1_linear_118_2448" x1="130.017" y1="122.54" x2="154.001" y2="122.373" gradientUnits="userSpaceOnUse">
<stop stop-color="#635B4C" stop-opacity="0.75"/>
<stop offset="0.475962" stop-color="#635B4C"/>
<stop offset="1" stop-color="#635B4C" stop-opacity="0.5"/>
</linearGradient>
<linearGradient id="paint2_linear_118_2448" x1="157.209" y1="159.112" x2="127.6" y2="158.492" gradientUnits="userSpaceOnUse">
<stop stop-color="#635B4C" stop-opacity="0.5"/>
<stop offset="0.5" stop-color="#635B4C"/>
<stop offset="1" stop-color="#635B4C" stop-opacity="0.75"/>
</linearGradient>
<linearGradient id="paint3_linear_118_2448" x1="157.209" y1="159.112" x2="127.6" y2="158.492" gradientUnits="userSpaceOnUse">
<stop stop-color="#635B4C" stop-opacity="0.5"/>
<stop offset="0.5" stop-color="#635B4C"/>
<stop offset="1" stop-color="#635B4C" stop-opacity="0.75"/>
</linearGradient>
<linearGradient id="paint4_linear_118_2448" x1="231.637" y1="228.003" x2="216.205" y2="206.182" gradientUnits="userSpaceOnUse">
<stop stop-color="#C9B99A" stop-opacity="0.06"/>
<stop offset="1" stop-color="#635B4C"/>
</linearGradient>
<linearGradient id="paint5_linear_118_2448" x1="141.308" y1="141.605" x2="140.144" y2="141.599" gradientUnits="userSpaceOnUse">
<stop stop-color="#635B4C" stop-opacity="0"/>
<stop offset="0.5" stop-color="#635B4C"/>
<stop offset="1" stop-color="#635B4C" stop-opacity="0"/>
</linearGradient>
<linearGradient id="paint6_linear_118_2448" x1="89.3653" y1="75.0372" x2="35.7889" y2="149.985" gradientUnits="userSpaceOnUse">
<stop stop-color="#C9B99A" stop-opacity="0.06"/>
<stop offset="1" stop-color="#635B4C"/>
</linearGradient>
<linearGradient id="paint7_linear_118_2448" x1="62.4731" y1="154.683" x2="59.1167" y2="106.327" gradientUnits="userSpaceOnUse">
<stop stop-color="#635B4C" stop-opacity="0.5"/>
<stop offset="0.947115" stop-color="#635B4C" stop-opacity="0"/>
</linearGradient>
<linearGradient id="paint8_linear_118_2448" x1="194.467" y1="73.1843" x2="251.888" y2="145.229" gradientUnits="userSpaceOnUse">
<stop stop-color="#C9B99A" stop-opacity="0.06"/>
<stop offset="1" stop-color="#635B4C"/>
</linearGradient>
<linearGradient id="paint9_linear_118_2448" x1="208.318" y1="147.362" x2="209.75" y2="115.148" gradientUnits="userSpaceOnUse">
<stop stop-color="#635B4C" stop-opacity="0.5"/>
<stop offset="0.947115" stop-color="#635B4C" stop-opacity="0"/>
</linearGradient>
<linearGradient id="paint10_linear_118_2448" x1="187.903" y1="202.634" x2="233.286" y2="129.858" gradientUnits="userSpaceOnUse">
<stop stop-color="#635B4C" stop-opacity="0"/>
<stop offset="1" stop-color="#635B4C"/>
</linearGradient>
<linearGradient id="paint11_linear_118_2448" x1="214.113" y1="214.282" x2="162.081" y2="152.589" gradientUnits="userSpaceOnUse">
<stop stop-color="#635B4C" stop-opacity="0.6"/>
<stop offset="1" stop-color="#635B4C" stop-opacity="0.3"/>
</linearGradient>
<linearGradient id="paint12_linear_118_2448" x1="90.0175" y1="211.059" x2="31.4667" y2="139.929" gradientUnits="userSpaceOnUse">
<stop stop-color="#C9B99A" stop-opacity="0.06"/>
<stop offset="1" stop-color="#635B4C"/>
</linearGradient>
</defs>
</svg>
