<svg width="289" height="274" viewBox="0 0 289 274" fill="none" xmlns="http://www.w3.org/2000/svg">

<g id="TEMP EXPORT v35.2">
<g id="bottom">
<g id="Paper Base" filter="url(#filter0_d_118_2448)">
<path d="M66.4503 160.335L138.477 207.134L221.474 160.335L221.474 144.634L138.477 140.314L138.484 140.332L136.538 140.335L136.533 140.314L66.4503 144.634L66.4503 160.335Z" fill="#FAF7F0"/>
<path d="M66.4503 160.335L138.477 207.134L221.474 160.335L221.474 144.634L138.477 140.314L138.484 140.332L136.538 140.335L136.533 140.314L66.4503 144.634L66.4503 160.335Z" fill="url(#paint0_linear_118_2448)" fill-opacity="0.1"/>
</g>
</g>
<g id="folded paper">
<g id="Inside Paper" filter="url(#filter1_d_118_2448)">
<path d="M65.0121 133.041L139.482 133.04L217.745 132.264L139.486 41.0532L65.0121 133.041Z" fill="#FAF7F0"/>
<path d="M65.0121 133.041L139.482 133.04L217.745 132.264L139.486 41.0532L65.0121 133.041Z" fill="url(#paint1_linear_118_2448)" fill-opacity="0.5"/>
</g>
<g id="Subtract" filter="url(#filter2_d_118_2448)">
<path d="M136.292 132.732L220.046 132.733L136.292 236.114V132.732Z" fill="#FAF7F0"/>
<path d="M136.292 132.732L220.046 132.733L136.292 236.114V132.732Z" fill="url(#paint2_linear_118_2448)" fill-opacity="0.5"/>
<path d="M67.934 132.733L136.292 132.732V236.114L67.934 132.733Z" fill="#FAF7F0"/>
<path d="M67.934 132.733L136.292 132.732V236.114L67.934 132.733Z" fill="url(#paint3_linear_118_2448)" fill-opacity="0.5"/>
</g>
<g id="inside folds">
<path id="Vector 1" d="M72.1682 133.134L137.322 132.248V134.462L72.1682 133.134Z" fill="#635B4C" fill-opacity="0.3"/>
<path id="Vector 2" d="M219.492 132.873L137.33 132.255L137.333 134.477L219.492 132.873Z" fill="#635B4C" fill-opacity="0.3"/>
<g id="Vertical Flap Numbers">
<path id="3-warp" d="M151.096 118.86C151.02 118.801 150.944 118.743 150.871 118.685C149.479 117.582 148.563 116.409 148.063 115.119C147.56 113.747 147.503 112.373 147.892 110.998C148.303 109.609 149.158 108.356 150.525 107.29C150.987 106.93 151.511 106.755 152.105 106.773C152.742 106.793 153.294 106.979 153.75 107.326C154.231 107.691 154.471 108.105 154.463 108.563C154.478 109.007 154.236 109.396 153.746 109.736C152.874 110.341 152.309 111.088 152.024 111.954C151.761 112.806 151.786 113.676 152.097 114.562C152.426 115.42 153.045 116.199 153.981 116.92C153.997 116.932 154.013 116.944 154.029 116.956C155.44 118.028 157.001 118.656 158.766 118.882C160.574 119.111 162.341 118.859 164.007 118.082C165.067 117.588 165.803 116.987 166.193 116.261C166.608 115.525 166.674 114.74 166.391 113.906C166.108 113.073 165.465 112.275 164.485 111.532C164.335 111.417 164.204 111.3 164.092 111.181C163.794 110.863 163.635 110.527 163.61 110.171C163.6 109.7 163.842 109.311 164.344 109.011C164.846 108.712 165.437 108.604 166.127 108.695C166.663 108.765 167.16 108.927 167.615 109.181C167.787 109.276 167.951 109.384 168.11 109.505C168.85 110.066 169.728 110.516 170.758 110.865C171.813 111.202 172.866 111.398 173.92 111.456C174.998 111.501 175.932 111.344 176.705 110.972C177.803 110.444 178.277 109.66 178.09 108.59C177.906 107.522 177.066 106.42 175.607 105.313C175.437 105.184 175.265 105.059 175.091 104.937C174.13 104.268 173.108 103.719 172.037 103.298C170.8 102.823 169.637 102.559 168.548 102.506C167.488 102.474 166.63 102.689 165.958 103.138C165.459 103.471 164.857 103.616 164.158 103.581C163.481 103.531 162.876 103.304 162.335 102.893C161.822 102.503 161.523 102.06 161.431 101.557C161.387 101.06 161.587 100.639 162.038 100.301C163.227 99.4094 164.711 98.9277 166.544 98.8962C168.375 98.8638 170.356 99.254 172.485 100.066C174.474 100.804 176.397 101.848 178.211 103.167C178.357 103.273 178.503 103.382 178.648 103.492C180.437 104.85 181.736 106.238 182.5 107.622C183.319 109.018 183.555 110.264 183.205 111.36C182.913 112.468 182.025 113.309 180.588 113.92C179.568 114.352 178.418 114.546 177.156 114.516C175.922 114.507 174.669 114.36 173.403 114.079C172.162 113.787 170.984 113.434 169.865 113.017C170.791 114.278 171.273 115.401 171.308 116.386C171.369 117.36 171.048 118.199 170.359 118.914C169.695 119.647 168.728 120.258 167.481 120.766C165.757 121.467 163.825 121.811 161.754 121.846C159.707 121.87 157.743 121.632 155.86 121.13C154 120.616 152.433 119.874 151.096 118.86Z" fill="#020101" fill-opacity="0.75"/>
<path id="4-warp" d="M150.393 149.819C150.806 149.479 151.303 149.337 151.89 149.388C152.477 149.439 152.983 149.663 153.4 150.067C154.651 151.28 155.902 152.492 157.153 153.705C158.144 152.891 159.134 152.076 160.124 151.262C162.901 148.978 165.678 146.694 168.455 144.41C168.975 143.982 169.548 143.76 170.179 143.739C170.811 143.717 171.369 143.827 171.849 144.073C172.331 144.353 172.625 144.716 172.727 145.166C173.865 150.909 174.407 157.144 174.354 163.867C174.337 166.133 174.25 168.454 174.097 170.832C174.063 171.216 173.957 171.588 173.782 171.945C173.578 172.327 173.284 172.675 172.902 172.989C172.287 173.495 171.645 173.757 170.982 173.768C170.319 173.78 169.785 173.561 169.372 173.117C165.054 168.485 160.736 163.853 156.418 159.22C155.709 159.804 154.999 160.387 154.29 160.971C153.793 161.379 153.278 161.625 152.748 161.706C152.217 161.786 151.726 161.549 151.271 160.999C150.938 160.597 150.821 160.106 150.914 159.531C151.026 158.976 151.316 158.506 151.791 158.116C152.47 157.558 153.149 156.999 153.827 156.441C152.645 155.172 151.462 153.903 150.279 152.634C149.885 152.211 149.695 151.727 149.702 151.187C149.711 150.646 149.939 150.192 150.393 149.819ZM168.615 147.694C169.25 147.669 169.89 147.641 170.534 147.61C168.022 149.676 165.511 151.742 162.999 153.808C161.964 154.659 160.929 155.51 159.894 156.361C163.985 160.327 168.076 164.292 172.166 168.257C171.332 168.231 170.504 168.201 169.684 168.164C169.807 165.287 169.829 162.495 169.748 159.786C169.621 155.55 169.243 151.518 168.615 147.694Z" fill="#020101" fill-opacity="0.75"/>
<path id="7-warp" d="M131.072 146.583C131.507 146.884 131.777 147.28 131.895 147.777C132.012 148.274 131.93 148.715 131.639 149.093C131.528 149.237 131.401 149.357 131.258 149.451C131.077 149.547 130.879 149.643 130.66 149.74C126.119 151.566 121.041 153.012 115.426 154.08C111.751 154.778 107.846 155.315 103.711 155.688C105.608 157.014 107.505 158.338 109.401 159.663C112.584 161.887 115.767 164.11 118.95 166.334C119.686 166.848 120.208 167.407 120.529 168.019C120.804 168.627 120.805 169.14 120.522 169.552C120.239 169.964 119.766 170.133 119.092 170.051C118.372 169.963 117.619 169.645 116.846 169.104C113.495 166.762 110.144 164.421 106.794 162.08C103.443 159.738 100.093 157.396 96.743 155.055C96.0033 154.538 95.5233 153.995 95.3141 153.434C95.1043 152.872 95.2276 152.46 95.673 152.19C95.8219 152.1 96.0042 152.034 96.2205 151.992C96.416 151.962 96.6379 151.938 96.8867 151.917C106.066 151.487 114.247 150.352 121.43 148.515C124.048 147.845 126.534 147.081 128.888 146.224C129.679 146.001 130.4 146.115 131.072 146.583Z" fill="#020101" fill-opacity="0.75"/>
<path id="8-warp" d="M129.944 121.078C129.94 121.082 129.937 121.084 129.933 121.087C128.947 121.861 127.709 122.35 126.064 122.669C124.405 122.962 122.523 123.079 120.42 123.017C118.292 122.943 116.148 122.674 114.142 122.093C112.195 121.53 110.8 120.759 110.106 119.671C109.379 118.577 109.38 117.286 110.104 115.8C110.85 114.3 112.276 112.745 114.233 111.244C114.24 111.239 114.248 111.233 114.255 111.227C116.223 109.721 118.308 108.59 120.362 107.943C122.42 107.293 124.264 107.158 125.892 107.541C127.535 107.882 128.759 108.758 129.723 110.051C130.739 111.365 131.318 112.817 131.617 114.289C131.917 115.73 131.947 117.045 131.711 118.229C131.455 119.4 130.917 120.312 129.944 121.078ZM126.879 119.154C127.54 118.638 127.91 118.036 128.045 117.307C128.197 116.565 128.139 115.786 127.867 114.972C127.576 114.142 127.086 113.359 126.344 112.663C125.642 111.966 124.818 111.503 123.82 111.313C122.803 111.105 121.719 111.166 120.567 111.494C119.421 111.786 118.311 112.345 117.287 113.131C117.28 113.136 117.273 113.141 117.267 113.146C116.28 113.907 115.597 114.725 115.272 115.562C114.919 116.392 114.945 117.151 115.35 117.835C115.728 118.509 116.468 119.046 117.522 119.481C118.602 119.927 119.768 120.198 120.968 120.33C122.164 120.435 123.284 120.393 124.325 120.208C125.362 120.023 126.19 119.689 126.866 119.164C126.87 119.161 126.875 119.158 126.879 119.154ZM116.687 112.754C116.68 112.759 116.673 112.765 116.666 112.77C115.106 113.964 113.427 114.864 111.525 115.549C109.647 116.213 107.731 116.639 105.78 116.827C103.803 117.004 101.993 116.88 100.456 116.377C98.8336 115.847 97.8385 115.04 97.5763 113.878C97.2846 112.707 97.6654 111.321 98.7156 109.721C99.7729 108.088 101.483 106.374 103.734 104.661C103.743 104.654 103.753 104.646 103.762 104.639C106.005 102.906 108.286 101.559 110.493 100.683C112.74 99.7753 114.718 99.363 116.427 99.4463C118.138 99.5275 119.383 100.162 120.276 101.264C121.139 102.266 121.485 103.493 121.419 104.868C121.335 106.226 120.893 107.597 120.097 108.979C119.328 110.341 118.225 111.574 116.687 112.754ZM113.922 111.018C114.765 110.373 115.353 109.692 115.716 108.951C116.079 108.21 116.235 107.49 116.179 106.791C116.105 106.078 115.796 105.466 115.222 104.979C114.683 104.466 113.975 104.189 113.068 104.171C112.163 104.153 111.175 104.35 110.107 104.761C109.02 105.158 107.928 105.773 106.86 106.584C106.851 106.591 106.842 106.598 106.834 106.604C105.303 107.775 104.353 108.944 104.06 110.058C103.761 111.181 104.203 111.989 105.31 112.537C106.417 113.085 107.842 113.19 109.495 112.917C111.173 112.621 112.612 112.014 113.9 111.035C113.907 111.029 113.915 111.024 113.922 111.018Z" fill="#020101" fill-opacity="0.75"/>
</g>
</g>
<mask id="mask0_118_2448" style="mask-type:alpha" maskUnits="userSpaceOnUse" x="26" y="155" width="220" height="89">
<g id="Paper Base_2">
<path d="M26.7941 240.823L132.97 243.051L133.151 240.144L140.766 240.144L140.976 243.051L245.294 240.823L245.294 155.712L137.144 155.715L137.154 155.739L134.679 155.743L134.673 155.715L26.7933 155.712L26.7937 197.605L26.9116 197.609L26.8766 198.538L26.7937 198.539L26.7941 240.823Z" fill="#FAF7F0"/>
<path d="M26.7941 240.823L132.97 243.051L133.151 240.144L140.766 240.144L140.976 243.051L245.294 240.823L245.294 155.712L137.144 155.715L137.154 155.739L134.679 155.743L134.673 155.715L26.7933 155.712L26.7937 197.605L26.9116 197.609L26.8766 198.538L26.7937 198.539L26.7941 240.823Z" fill="url(#paint4_linear_118_2448)" fill-opacity="0.25"/>
</g>
</mask>
<g mask="url(#mask0_118_2448)">
</g>
</g>
<g id="top">
<path id="Center Crease" d="M138.96 59.9595L137.81 59.9424L135.558 204.951L136.707 204.968L137.857 204.985L140.11 59.9765L138.96 59.9595Z" fill="url(#paint5_linear_118_2448)" fill-opacity="0.5"/>
<g id="top left">
<g id="back left base">
<path d="M53.3998 53.4844C53.3998 53.4844 56.4029 104.476 61.7955 121.929C67.188 139.383 66.2105 133.166 66.2105 133.166L137.959 56.3608L137.959 37.7236C137.959 37.7236 130.88 27.455 81.3944 44.0796C31.9091 60.7042 53.3998 53.4844 53.3998 53.4844Z" fill="#EFE9DD"/>
<path d="M53.3998 53.4844C53.3998 53.4844 56.4029 104.476 61.7955 121.929C67.188 139.383 66.2105 133.166 66.2105 133.166L137.959 56.3608L137.959 37.7236C137.959 37.7236 130.88 27.455 81.3944 44.0796C31.9091 60.7042 53.3998 53.4844 53.3998 53.4844Z" fill="url(#paint6_linear_118_2448)" fill-opacity="0.3"/>
</g>
<g id="back left fold">
<path d="M66.5925 133.316L137.959 56.0284L53.2931 53.688C51.6669 83.0505 46.233 124.777 66.5925 133.316Z" fill="#EFE9DD"/>
<path d="M66.5925 133.316L137.959 56.0284L53.2931 53.688C51.6669 83.0505 46.233 124.777 66.5925 133.316Z" fill="url(#paint7_linear_118_2448)" fill-opacity="0.5"/>
</g>
</g>
<g id="top right">
<g id="back right base">
<path d="M228.342 55.8101C228.342 55.8101 234.012 121.232 218.514 133.315L138.367 55.8102L138.367 37.6751C138.367 37.6751 145.972 30.533 166.794 38.3009C187.616 46.0687 228.342 55.8101 228.342 55.8101Z" fill="#EFE9DD"/>
<path d="M228.342 55.8101C228.342 55.8101 234.012 121.232 218.514 133.315L138.367 55.8102L138.367 37.6751C138.367 37.6751 145.972 30.533 166.794 38.3009C187.616 46.0687 228.342 55.8101 228.342 55.8101Z" fill="url(#paint8_linear_118_2448)" fill-opacity="0.3"/>
</g>
<g id="back right fold">
<path d="M219.152 133.82L138.492 55.8102L228.737 55.8102C228.737 62.8348 233.707 114.897 219.152 133.82Z" fill="#EFE9DD"/>
<path d="M219.152 133.82L138.492 55.8102L228.737 55.8102C228.737 62.8348 233.707 114.897 219.152 133.82Z" fill="url(#paint9_linear_118_2448)" fill-opacity="0.5"/>
</g>
</g>
<g id="left" filter="url(#filter3_d_118_2448)">
<g id="left_2">
<path d="M218.507 132.717C218.507 132.717 224.339 144.744 228.091 152.017C231.844 159.29 228.092 223.47 228.092 223.47C228.092 223.47 200.866 238.766 169.836 240.682C138.807 242.597 135.835 240.682 135.835 240.682L136.287 221.483L218.507 132.717Z" fill="#EFE9DD"/>
<path d="M218.507 132.717C218.507 132.717 224.339 144.744 228.091 152.017C231.844 159.29 228.092 223.47 228.092 223.47C228.092 223.47 200.866 238.766 169.836 240.682C138.807 242.597 135.835 240.682 135.835 240.682L136.287 221.483L218.507 132.717Z" fill="url(#paint10_linear_118_2448)" fill-opacity="0.2"/>
</g>
<g id="Subtract_2">
<path d="M228.437 222.671C228.395 222.731 221.232 232.77 181.082 241.678C151.227 244.534 139.775 242.87 135.812 241.152L136.362 221.877L136.464 221.84L228.437 222.671Z" fill="#EFE9DD"/>
<path d="M228.437 222.671C228.395 222.731 221.232 232.77 181.082 241.678C151.227 244.534 139.775 242.87 135.812 241.152L136.362 221.877L136.464 221.84L228.437 222.671Z" fill="url(#paint11_linear_118_2448)" fill-opacity="0.2"/>
</g>
</g>
<g id="right" filter="url(#filter4_d_118_2448)">
<g id="rights">
<path d="M56.1623 221.338C56.1623 221.338 54.1101 182.77 54.11 162.149C54.1098 141.529 66.7831 132.416 66.7831 132.416L135.698 221.336L135.698 239.566C135.698 239.566 122.819 241.335 106.753 235.469C90.6878 229.604 56.1623 221.338 56.1623 221.338Z" fill="#EFE9DD"/>
<path d="M56.1623 221.338C56.1623 221.338 54.1101 182.77 54.11 162.149C54.1098 141.529 66.7831 132.416 66.7831 132.416L135.698 221.336L135.698 239.566C135.698 239.566 122.819 241.335 106.753 235.469C90.6878 229.604 56.1623 221.338 56.1623 221.338Z" fill="url(#paint12_linear_118_2448)" fill-opacity="0.3"/>
</g>
<g id="Subtract_3">
<path d="M54.793 221.339C112.28 218.503 135.512 221.317 135.608 221.328L135.411 240.258C121.602 251.221 54.9784 221.422 54.793 221.339Z" fill="#EFE9DD"/>
<path d="M54.793 221.339C112.28 218.503 135.512 221.317 135.608 221.328L135.411 240.258C121.602 251.221 54.9784 221.422 54.793 221.339Z" fill="url(#paint13_linear_118_2448)" fill-opacity="0.2"/>
</g>
</g>
</g>
</g>
<defs>
<filter id="filter0_d_118_2448" x="50.3503" y="126.514" width="196.423" height="108.22" filterUnits="userSpaceOnUse" color-interpolation-filters="sRGB">
<feFlood flood-opacity="0" result="BackgroundImageFix"/>
<feColorMatrix in="SourceAlpha" type="matrix" values="0 0 0 0 0 0 0 0 0 0 0 0 0 0 0 0 0 0 127 0" result="hardAlpha"/>
<feOffset dx="4.6" dy="6.9"/>
<feGaussianBlur stdDeviation="10.35"/>
<feColorMatrix type="matrix" values="0 0 0 0 0.149 0 0 0 0 0.275 0 0 0 0 0.325 0 0 0 0.18 0"/>
<feBlend mode="normal" in2="BackgroundImageFix" result="effect1_dropShadow_118_2448"/>
<feBlend mode="normal" in="SourceGraphic" in2="effect1_dropShadow_118_2448" result="shape"/>
</filter>
<filter id="filter1_d_118_2448" x="48.9121" y="27.2532" width="194.133" height="133.387" filterUnits="userSpaceOnUse" color-interpolation-filters="sRGB">
<feFlood flood-opacity="0" result="BackgroundImageFix"/>
<feColorMatrix in="SourceAlpha" type="matrix" values="0 0 0 0 0 0 0 0 0 0 0 0 0 0 0 0 0 0 127 0" result="hardAlpha"/>
<feOffset dx="4.6" dy="6.9"/>
<feGaussianBlur stdDeviation="10.35"/>
<feColorMatrix type="matrix" values="0 0 0 0 0.149 0 0 0 0 0.275 0 0 0 0 0.325 0 0 0 0.18 0"/>
<feBlend mode="normal" in2="BackgroundImageFix" result="effect1_dropShadow_118_2448"/>
<feBlend mode="normal" in="SourceGraphic" in2="effect1_dropShadow_118_2448" result="shape"/>
</filter>
<filter id="filter2_d_118_2448" x="51.834" y="118.932" width="193.512" height="144.782" filterUnits="userSpaceOnUse" color-interpolation-filters="sRGB">
<feFlood flood-opacity="0" result="BackgroundImageFix"/>
<feColorMatrix in="SourceAlpha" type="matrix" values="0 0 0 0 0 0 0 0 0 0 0 0 0 0 0 0 0 0 127 0" result="hardAlpha"/>
<feOffset dx="4.6" dy="6.9"/>
<feGaussianBlur stdDeviation="10.35"/>
<feColorMatrix type="matrix" values="0 0 0 0 0.149 0 0 0 0 0.275 0 0 0 0 0.325 0 0 0 0.18 0"/>
<feBlend mode="normal" in2="BackgroundImageFix" result="effect1_dropShadow_118_2448"/>
<feBlend mode="normal" in="SourceGraphic" in2="effect1_dropShadow_118_2448" result="shape"/>
</filter>
<filter id="filter3_d_118_2448" x="128.912" y="125.817" width="116.947" height="133.504" filterUnits="userSpaceOnUse" color-interpolation-filters="sRGB">
<feFlood flood-opacity="0" result="BackgroundImageFix"/>
<feColorMatrix in="SourceAlpha" type="matrix" values="0 0 0 0 0 0 0 0 0 0 0 0 0 0 0 0 0 0 127 0" result="hardAlpha"/>
<feOffset dx="4.6" dy="4.6"/>
<feGaussianBlur stdDeviation="5.75"/>
<feComposite in2="hardAlpha" operator="out"/>
<feColorMatrix type="matrix" values="0 0 0 0 0.14902 0 0 0 0 0.27451 0 0 0 0 0.32549 0 0 0 0.25 0"/>
<feBlend mode="normal" in2="BackgroundImageFix" result="effect1_dropShadow_118_2448"/>
<feBlend mode="normal" in="SourceGraphic" in2="effect1_dropShadow_118_2448" result="shape"/>
</filter>
<filter id="filter4_d_118_2448" x="47.21" y="125.516" width="104.588" height="133.265" filterUnits="userSpaceOnUse" color-interpolation-filters="sRGB">
<feFlood flood-opacity="0" result="BackgroundImageFix"/>
<feColorMatrix in="SourceAlpha" type="matrix" values="0 0 0 0 0 0 0 0 0 0 0 0 0 0 0 0 0 0 127 0" result="hardAlpha"/>
<feOffset dx="4.6" dy="4.6"/>
<feGaussianBlur stdDeviation="5.75"/>
<feComposite in2="hardAlpha" operator="out"/>
<feColorMatrix type="matrix" values="0 0 0 0 0.14902 0 0 0 0 0.27451 0 0 0 0 0.32549 0 0 0 0.25 0"/>
<feBlend mode="normal" in2="BackgroundImageFix" result="effect1_dropShadow_118_2448"/>
<feBlend mode="normal" in="SourceGraphic" in2="effect1_dropShadow_118_2448" result="shape"/>
</filter>
<linearGradient id="paint0_linear_118_2448" x1="174.375" y1="153.74" x2="162.967" y2="180.226" gradientUnits="userSpaceOnUse">
<stop stop-color="#C9B99A" stop-opacity="0.06"/>
<stop offset="1" stop-color="#635B4C"/>
</linearGradient>
<linearGradient id="paint1_linear_118_2448" x1="126.604" y1="117.282" x2="150.586" y2="117.068" gradientUnits="userSpaceOnUse">
<stop stop-color="#635B4C" stop-opacity="0.75"/>
<stop offset="0.475962" stop-color="#635B4C"/>
<stop offset="1" stop-color="#635B4C" stop-opacity="0.5"/>
</linearGradient>
<linearGradient id="paint2_linear_118_2448" x1="148.091" y1="145.567" x2="126.952" y2="145.155" gradientUnits="userSpaceOnUse">
<stop stop-color="#635B4C" stop-opacity="0.5"/>
<stop offset="0.5" stop-color="#635B4C"/>
<stop offset="1" stop-color="#635B4C" stop-opacity="0.75"/>
</linearGradient>
<linearGradient id="paint3_linear_118_2448" x1="148.091" y1="145.567" x2="126.952" y2="145.155" gradientUnits="userSpaceOnUse">
<stop stop-color="#635B4C" stop-opacity="0.5"/>
<stop offset="0.5" stop-color="#635B4C"/>
<stop offset="1" stop-color="#635B4C" stop-opacity="0.75"/>
</linearGradient>
<linearGradient id="paint4_linear_118_2448" x1="228.214" y1="199.543" x2="217.415" y2="179.967" gradientUnits="userSpaceOnUse">
<stop stop-color="#C9B99A" stop-opacity="0.06"/>
<stop offset="1" stop-color="#635B4C"/>
</linearGradient>
<linearGradient id="paint5_linear_118_2448" x1="137.945" y1="132.161" x2="136.782" y2="132.152" gradientUnits="userSpaceOnUse">
<stop stop-color="#635B4C" stop-opacity="0"/>
<stop offset="0.5" stop-color="#635B4C"/>
<stop offset="1" stop-color="#635B4C" stop-opacity="0"/>
</linearGradient>
<linearGradient id="paint6_linear_118_2448" x1="58.1176" y1="69.7491" x2="39.4989" y2="140.682" gradientUnits="userSpaceOnUse">
<stop stop-color="#C9B99A" stop-opacity="0.06"/>
<stop offset="1" stop-color="#635B4C"/>
</linearGradient>
<linearGradient id="paint7_linear_118_2448" x1="92.7703" y1="106.372" x2="84.4055" y2="24.5249" gradientUnits="userSpaceOnUse">
<stop stop-color="#635B4C" stop-opacity="0.5"/>
<stop offset="0.947115" stop-color="#635B4C" stop-opacity="0"/>
</linearGradient>
<linearGradient id="paint8_linear_118_2448" x1="239.95" y1="67.5537" x2="243.474" y2="139.383" gradientUnits="userSpaceOnUse">
<stop stop-color="#C9B99A" stop-opacity="0.06"/>
<stop offset="1" stop-color="#635B4C"/>
</linearGradient>
<linearGradient id="paint9_linear_118_2448" x1="167.036" y1="33.704" x2="203.538" y2="111.121" gradientUnits="userSpaceOnUse">
<stop stop-color="#635B4C" stop-opacity="0.5"/>
<stop offset="0.947115" stop-color="#635B4C" stop-opacity="0"/>
</linearGradient>
<linearGradient id="paint10_linear_118_2448" x1="186.151" y1="199.188" x2="208.427" y2="129.013" gradientUnits="userSpaceOnUse">
<stop stop-color="#635B4C" stop-opacity="0"/>
<stop offset="1" stop-color="#635B4C"/>
</linearGradient>
<linearGradient id="paint11_linear_118_2448" x1="187.227" y1="228.865" x2="167.457" y2="202.63" gradientUnits="userSpaceOnUse">
<stop stop-color="#635B4C" stop-opacity="0.6"/>
<stop offset="1" stop-color="#635B4C" stop-opacity="0.3"/>
</linearGradient>
<linearGradient id="paint12_linear_118_2448" x1="62.9093" y1="202.294" x2="60.6741" y2="130.447" gradientUnits="userSpaceOnUse">
<stop stop-color="#C9B99A" stop-opacity="0.06"/>
<stop offset="1" stop-color="#635B4C"/>
</linearGradient>
<linearGradient id="paint13_linear_118_2448" x1="116.25" y1="219.062" x2="104.198" y2="257.957" gradientUnits="userSpaceOnUse">
<stop stop-color="#635B4C" stop-opacity="0.6"/>
<stop offset="1" stop-color="#635B4C" stop-opacity="0.3"/>
</linearGradient>
</defs>
</svg>
