<svg width="273" height="330" viewBox="0 0 273 330" fill="none" xmlns="http://www.w3.org/2000/svg">
<g id="v36-paper">
<g id="TEMP EXPORT V36 paper+numbers">
<g id="folded paper">
<g id="Inside Paper" filter="url(#filter0_d_0_1)">
<path d="M57.0127 159.527L131.483 159.526L209.746 158.532L131.487 41.5949L57.0127 159.527Z" fill="#FAF7F0"/>
<path d="M57.0127 159.527L131.483 159.526L209.746 158.532L131.487 41.5949L57.0127 159.527Z" fill="url(#paint0_linear_0_1)" fill-opacity="0.5"/>
</g>
<g id="Subtract" filter="url(#filter1_d_0_1)">
<path d="M128.292 159.133L212.047 159.134L128.292 294.161V159.133Z" fill="#FAF7F0"/>
<path d="M128.292 159.133L212.047 159.134L128.292 294.161V159.133Z" fill="url(#paint1_linear_0_1)" fill-opacity="0.5"/>
<path d="M59.9346 159.134L128.292 159.133V294.161L59.9346 159.134Z" fill="#FAF7F0"/>
<path d="M59.9346 159.134L128.292 159.133V294.161L59.9346 159.134Z" fill="url(#paint2_linear_0_1)" fill-opacity="0.5"/>
</g>
<g id="inside folds">
<path id="Vector 1" d="M64.1658 159.649L129.32 158.512V161.351L64.1658 159.649Z" fill="#635B4C" fill-opacity="0.3"/>
<path id="Vector 2" d="M211.49 159.314L129.327 158.521L129.33 161.37L211.49 159.314Z" fill="#635B4C" fill-opacity="0.3"/>
</g>
<mask id="mask0_0_1" style="mask-type:alpha" maskUnits="userSpaceOnUse" x="18" y="188" width="220" height="113">
<g id="Paper Base">
<path d="M18.7935 297.711L124.97 300.566L125.15 296.84L132.765 296.84L132.976 300.566L237.293 297.711L237.293 188.594L129.144 188.598L129.153 188.628L126.679 188.633L126.672 188.598L18.7927 188.593L18.7931 242.302L18.911 242.307L18.876 243.499L18.7931 243.499L18.7935 297.711Z" fill="#FAF7F0"/>
<path d="M18.7935 297.711L124.97 300.566L125.15 296.84L132.765 296.84L132.976 300.566L237.293 297.711L237.293 188.594L129.144 188.598L129.153 188.628L126.679 188.633L126.672 188.598L18.7927 188.593L18.7931 242.302L18.911 242.307L18.876 243.499L18.7931 243.499L18.7935 297.711Z" fill="url(#paint3_linear_0_1)" fill-opacity="0.25"/>
</g>
</mask>
<g mask="url(#mask0_0_1)">
</g>
</g>
<g id="top">
<path id="Center Crease" d="M130.96 65.8359L128.707 251.744" stroke="url(#paint4_linear_0_1)" stroke-opacity="0.5" stroke-width="2.3"/>
<g id="top left">
<g id="back left base">
<path d="M43.8798 108.87C43.8797 142.54 58.2062 159.69 58.2062 159.69L83.5122 110.043L130.053 61.0087L130.053 39.4594C130.053 39.4594 130.983 20.3674 73.3903 45.4772C63.8816 49.6229 45.2778 57.7 45.2778 57.7C45.2778 57.7 43.8799 89.0684 43.8798 108.87Z" fill="#EFE9DD"/>
<path d="M43.8798 108.87C43.8797 142.54 58.2062 159.69 58.2062 159.69L83.5122 110.043L130.053 61.0087L130.053 39.4594C130.053 39.4594 130.983 20.3674 73.3903 45.4772C63.8816 49.6229 45.2778 57.7 45.2778 57.7C45.2778 57.7 43.8799 89.0684 43.8798 108.87Z" fill="url(#paint5_linear_0_1)"/>
</g>
<g id="back left fold">
<path d="M58.5908 159.882L129.89 60.8712L45.2914 57.7956C43.6652 95.4399 38.2313 148.935 58.5908 159.882Z" fill="#EFE9DD"/>
<path d="M58.5908 159.882L129.89 60.8712L45.2914 57.7956C43.6652 95.4399 38.2313 148.935 58.5908 159.882Z" fill="url(#paint6_linear_0_1)"/>
</g>
</g>
<g id="top right">
<g id="back right base">
<path d="M220.343 60.5169C220.343 60.5169 226.012 144.391 210.515 159.882L130.994 60.8702L130.994 38.0691C130.994 38.0691 142.145 34.4486 158.795 38.0691C175.444 41.6895 220.343 60.5169 220.343 60.5169Z" fill="#EFE9DD"/>
<path d="M220.343 60.5169C220.343 60.5169 226.012 144.391 210.515 159.882L130.994 60.8702L130.994 38.0691C130.994 38.0691 142.145 34.4486 158.795 38.0691C175.444 41.6895 220.343 60.5169 220.343 60.5169Z" fill="url(#paint7_linear_0_1)"/>
</g>
<g id="back right fold">
<path d="M211.01 160.434L130.596 60.516L220.736 60.516C220.736 69.5219 228.369 119.832 211.01 160.434Z" fill="#EFE9DD"/>
<path d="M211.01 160.434L130.596 60.516L220.736 60.516C220.736 69.5219 228.369 119.832 211.01 160.434Z" fill="url(#paint8_linear_0_1)"/>
</g>
</g>
<g id="bottom left" filter="url(#filter2_d_0_1)">
<g id="left">
<path d="M210.51 159.115C210.51 159.115 216.342 174.534 220.094 183.858C223.847 193.183 220.095 275.465 220.095 275.465C220.095 275.465 192.869 295.076 161.839 297.531C130.81 299.987 127.838 297.531 127.838 297.531L127.838 273.677L210.51 159.115Z" fill="#EFE9DD"/>
<path d="M210.51 159.115C210.51 159.115 216.342 174.534 220.094 183.858C223.847 193.183 220.095 275.465 220.095 275.465C220.095 275.465 192.869 295.076 161.839 297.531C130.81 299.987 127.838 297.531 127.838 297.531L127.838 273.677L210.51 159.115Z" fill="url(#paint9_linear_0_1)"/>
</g>
<g id="Subtract_2">
<path d="M220.436 274.438C220.436 274.438 213.352 287.353 173.081 298.808C143.229 302.469 131.777 300.336 127.813 298.134L128.363 273.423L128.464 273.375L220.436 274.438Z" fill="#EFE9DD"/>
<path d="M220.436 274.438C220.436 274.438 213.352 287.353 173.081 298.808C143.229 302.469 131.777 300.336 127.813 298.134L128.363 273.423L128.464 273.375L220.436 274.438Z" fill="url(#paint10_linear_0_1)"/>
</g>
</g>
<g id="bottom right" filter="url(#filter3_d_0_1)">
<g id="right">
<path d="M47.0749 272.916C47.0749 272.916 46.112 223.285 46.1119 196.849C46.1117 170.413 58.785 158.729 58.785 158.729L127.7 272.73L127.7 296.102C127.7 296.102 114.821 298.369 98.7551 290.849C82.6897 283.329 47.0749 272.916 47.0749 272.916Z" fill="#EFE9DD"/>
<path d="M47.0749 272.916C47.0749 272.916 46.112 223.285 46.1119 196.849C46.1117 170.413 58.785 158.729 58.785 158.729L127.7 272.73L127.7 296.102C127.7 296.102 114.821 298.369 98.7551 290.849C82.6897 283.329 47.0749 272.916 47.0749 272.916Z" fill="url(#paint11_linear_0_1)"/>
</g>
<g id="Subtract_3">
<path d="M46.792 272.734C104.398 269.09 127.607 272.721 127.607 272.721L127.41 296.99C113.595 311.052 46.9146 272.805 46.792 272.734Z" fill="#EFE9DD"/>
<path d="M46.792 272.734C104.398 269.09 127.607 272.721 127.607 272.721L127.41 296.99C113.595 311.052 46.9146 272.805 46.792 272.734Z" fill="url(#paint12_linear_0_1)"/>
</g>
</g>
</g>
<g id="Vertical Flap Numbers">
<path id="3-warp" d="M141.91 142.496C141.829 142.427 141.749 142.359 141.672 142.29C140.201 140.996 139.233 139.617 138.704 138.102C138.173 136.491 138.112 134.878 138.524 133.263C138.958 131.632 139.861 130.16 141.306 128.908C141.795 128.485 142.348 128.28 142.976 128.301C143.649 128.324 144.232 128.543 144.714 128.95C145.222 129.379 145.476 129.865 145.468 130.403C145.483 130.925 145.228 131.381 144.71 131.78C143.788 132.492 143.191 133.368 142.89 134.386C142.612 135.387 142.639 136.408 142.968 137.448C143.315 138.456 143.969 139.371 144.958 140.218C144.975 140.232 144.992 140.246 145.009 140.26C146.5 141.519 148.15 142.256 150.015 142.522C151.927 142.791 153.794 142.495 155.554 141.583C156.674 141.002 157.452 140.296 157.864 139.444C158.303 138.58 158.373 137.658 158.073 136.678C157.774 135.7 157.095 134.763 156.06 133.89C155.9 133.755 155.762 133.618 155.644 133.477C155.329 133.104 155.16 132.71 155.134 132.291C155.124 131.738 155.38 131.282 155.91 130.93C156.44 130.578 157.065 130.451 157.794 130.558C158.361 130.64 158.886 130.831 159.367 131.129C159.549 131.241 159.722 131.367 159.89 131.509C160.673 132.169 161.601 132.697 162.689 133.107C163.803 133.502 164.917 133.733 166.031 133.801C167.17 133.854 168.157 133.669 168.974 133.232C170.134 132.613 170.635 131.691 170.438 130.435C170.243 129.181 169.355 127.887 167.813 126.586C167.634 126.435 167.452 126.288 167.268 126.145C166.253 125.359 165.172 124.714 164.04 124.22C162.733 123.663 161.504 123.352 160.353 123.29C159.233 123.253 158.326 123.505 157.616 124.032C157.089 124.423 156.452 124.594 155.714 124.552C154.998 124.493 154.359 124.226 153.787 123.744C153.245 123.286 152.929 122.766 152.831 122.175C152.785 121.591 152.996 121.097 153.473 120.7C154.729 119.653 156.298 119.087 158.235 119.05C160.171 119.012 162.264 119.471 164.514 120.424C166.616 121.291 168.648 122.517 170.565 124.066C170.72 124.191 170.874 124.319 171.027 124.448C172.917 126.043 174.29 127.673 175.097 129.299C175.964 130.937 176.212 132.401 175.843 133.688C175.534 134.989 174.596 135.977 173.077 136.694C171.999 137.202 170.784 137.429 169.451 137.395C168.146 137.384 166.822 137.211 165.484 136.882C164.172 136.538 162.928 136.124 161.745 135.635C162.724 137.114 163.233 138.434 163.27 139.591C163.334 140.735 162.995 141.72 162.267 142.559C161.565 143.421 160.543 144.138 159.226 144.735C157.403 145.558 155.362 145.961 153.173 146.003C151.01 146.031 148.934 145.751 146.944 145.162C144.979 144.558 143.322 143.687 141.91 142.496Z" fill="#020101" fill-opacity="0.75"/>
<path id="4-warp" d="M141.166 178.855C141.603 178.457 142.128 178.29 142.749 178.349C143.369 178.409 143.904 178.673 144.345 179.147C145.666 180.572 146.989 181.996 148.311 183.42C149.358 182.463 150.404 181.507 151.45 180.55C154.385 177.868 157.32 175.185 160.254 172.503C160.804 172 161.41 171.74 162.077 171.715C162.745 171.69 163.334 171.819 163.842 172.107C164.351 172.436 164.662 172.862 164.769 173.391C165.972 180.136 166.545 187.458 166.489 195.354C166.471 198.015 166.38 200.741 166.218 203.534C166.181 203.985 166.07 204.421 165.885 204.841C165.668 205.29 165.358 205.699 164.955 206.067C164.304 206.662 163.626 206.969 162.925 206.982C162.225 206.996 161.66 206.738 161.224 206.218C156.66 200.778 152.097 195.337 147.534 189.897C146.784 190.582 146.034 191.268 145.285 191.952C144.76 192.432 144.215 192.721 143.655 192.816C143.095 192.91 142.576 192.632 142.094 191.986C141.742 191.513 141.619 190.936 141.718 190.261C141.836 189.61 142.142 189.058 142.644 188.599C143.361 187.944 144.079 187.288 144.796 186.633C143.546 185.142 142.296 183.652 141.046 182.162C140.63 181.665 140.429 181.096 140.437 180.462C140.446 179.827 140.686 179.294 141.166 178.855ZM160.424 176.36C161.095 176.331 161.771 176.298 162.452 176.261C159.797 178.688 157.143 181.114 154.488 183.54C153.395 184.54 152.301 185.54 151.207 186.539C155.531 191.196 159.854 195.853 164.177 200.51C163.296 200.48 162.421 200.444 161.553 200.401C161.684 197.022 161.707 193.743 161.621 190.562C161.487 185.586 161.088 180.851 160.424 176.36Z" fill="#020101" fill-opacity="0.75"/>
<path id="7-warp" d="M120.748 175.054C121.208 175.409 121.493 175.874 121.617 176.456C121.741 177.04 121.655 177.558 121.347 178.002C121.23 178.171 121.095 178.312 120.944 178.422C120.754 178.535 120.543 178.648 120.312 178.762C115.514 180.906 110.147 182.605 104.212 183.859C100.329 184.679 96.2021 185.309 91.8324 185.748C93.8367 187.304 95.8416 188.86 97.8451 190.416C101.209 193.027 104.574 195.639 107.937 198.251C108.715 198.854 109.266 199.51 109.606 200.23C109.896 200.943 109.897 201.546 109.598 202.03C109.299 202.514 108.799 202.712 108.088 202.615C107.327 202.512 106.531 202.139 105.713 201.504C102.172 198.753 98.6313 196.003 95.0908 193.254C91.5495 190.504 88.0083 187.754 84.4684 185.004C83.6866 184.397 83.1794 183.759 82.9582 183.1C82.7365 182.441 82.8669 181.956 83.3375 181.639C83.4949 181.534 83.6876 181.456 83.9162 181.407C84.1228 181.372 84.3573 181.343 84.6202 181.319C94.3216 180.813 102.967 179.481 110.558 177.323C113.325 176.536 115.952 175.639 118.439 174.633C119.276 174.371 120.038 174.504 120.748 175.054Z" fill="#020101" fill-opacity="0.75"/>
<path id="8-warp" d="M119.555 145.1C119.552 145.104 119.548 145.107 119.544 145.11C118.502 146.019 117.193 146.594 115.455 146.968C113.702 147.312 111.713 147.45 109.49 147.377C107.242 147.291 104.976 146.974 102.856 146.292C100.798 145.63 99.3243 144.725 98.5907 143.448C97.8227 142.162 97.8229 140.647 98.588 138.901C99.377 137.14 100.884 135.313 102.952 133.551C102.96 133.544 102.968 133.537 102.975 133.531C105.056 131.762 107.259 130.434 109.429 129.673C111.604 128.91 113.553 128.752 115.274 129.202C117.01 129.602 118.303 130.631 119.323 132.149C120.396 133.692 121.007 135.398 121.324 137.127C121.64 138.819 121.673 140.363 121.424 141.754C121.152 143.129 120.584 144.2 119.555 145.1ZM116.317 142.841C117.015 142.234 117.407 141.527 117.549 140.671C117.71 139.8 117.648 138.885 117.361 137.929C117.053 136.954 116.535 136.034 115.751 135.217C115.009 134.398 114.139 133.854 113.084 133.631C112.009 133.388 110.863 133.459 109.645 133.845C108.435 134.187 107.262 134.843 106.179 135.767C106.172 135.772 106.165 135.778 106.158 135.784C105.115 136.678 104.394 137.639 104.05 138.622C103.677 139.597 103.704 140.487 104.132 141.291C104.532 142.083 105.314 142.713 106.428 143.224C107.569 143.748 108.801 144.066 110.07 144.221C111.333 144.344 112.517 144.295 113.618 144.078C114.713 143.861 115.589 143.468 116.303 142.852C116.307 142.848 116.312 142.844 116.317 142.841ZM105.545 135.324C105.538 135.33 105.531 135.336 105.524 135.342C103.875 136.745 102.1 137.802 100.091 138.607C98.105 139.386 96.0806 139.887 94.0185 140.108C91.9292 140.315 90.0161 140.17 88.3925 139.579C86.6777 138.956 85.626 138.009 85.349 136.644C85.0406 135.269 85.4432 133.641 86.553 131.761C87.6704 129.844 89.4776 127.831 91.8563 125.819C91.8662 125.811 91.8767 125.802 91.8865 125.794C94.2566 123.758 96.667 122.176 98.9991 121.148C101.374 120.081 103.465 119.597 105.271 119.695C107.079 119.79 108.394 120.536 109.338 121.83C110.251 123.007 110.616 124.448 110.546 126.062C110.457 127.657 109.991 129.268 109.149 130.89C108.337 132.49 107.171 133.938 105.545 135.324ZM102.623 133.286C103.514 132.528 104.135 131.728 104.519 130.857C104.903 129.987 105.067 129.141 105.009 128.321C104.93 127.483 104.604 126.765 103.997 126.192C103.427 125.59 102.68 125.265 101.721 125.244C100.764 125.223 99.7201 125.454 98.5916 125.937C97.4424 126.403 96.2888 127.125 95.1602 128.078C95.1509 128.086 95.1416 128.094 95.1323 128.102C93.5143 129.476 92.5109 130.849 92.2009 132.157C91.8853 133.476 92.3517 134.426 93.5216 135.069C94.6923 135.712 96.1975 135.836 97.945 135.516C99.7182 135.168 101.239 134.455 102.6 133.305C102.608 133.298 102.616 133.292 102.623 133.286Z" fill="#020101" fill-opacity="0.75"/>
</g>
</g>
<defs>
<filter id="filter0_d_0_1" x="40.9127" y="27.7957" width="194.133" height="159.332" filterUnits="userSpaceOnUse" color-interpolation-filters="sRGB">
<feFlood flood-opacity="0" result="BackgroundImageFix"/>
<feColorMatrix in="SourceAlpha" type="matrix" values="0 0 0 0 0 0 0 0 0 0 0 0 0 0 0 0 0 0 127 0" result="hardAlpha"/>
<feOffset dx="4.6" dy="6.9"/>
<feGaussianBlur stdDeviation="10.35"/>
<feColorMatrix type="matrix" values="0 0 0 0 0.149 0 0 0 0 0.275 0 0 0 0 0.325 0 0 0 0.18 0"/>
<feBlend mode="normal" in2="BackgroundImageFix" result="effect1_dropShadow_0_1"/>
<feBlend mode="normal" in="SourceGraphic" in2="effect1_dropShadow_0_1" result="shape"/>
</filter>
<filter id="filter1_d_0_1" x="43.8346" y="145.333" width="193.512" height="176.427" filterUnits="userSpaceOnUse" color-interpolation-filters="sRGB">
<feFlood flood-opacity="0" result="BackgroundImageFix"/>
<feColorMatrix in="SourceAlpha" type="matrix" values="0 0 0 0 0 0 0 0 0 0 0 0 0 0 0 0 0 0 127 0" result="hardAlpha"/>
<feOffset dx="4.6" dy="6.9"/>
<feGaussianBlur stdDeviation="10.35"/>
<feColorMatrix type="matrix" values="0 0 0 0 0.149 0 0 0 0 0.275 0 0 0 0 0.325 0 0 0 0.18 0"/>
<feBlend mode="normal" in2="BackgroundImageFix" result="effect1_dropShadow_0_1"/>
<feBlend mode="normal" in="SourceGraphic" in2="effect1_dropShadow_0_1" result="shape"/>
</filter>
<filter id="filter2_d_0_1" x="120.913" y="152.215" width="116.949" height="164.674" filterUnits="userSpaceOnUse" color-interpolation-filters="sRGB">
<feFlood flood-opacity="0" result="BackgroundImageFix"/>
<feColorMatrix in="SourceAlpha" type="matrix" values="0 0 0 0 0 0 0 0 0 0 0 0 0 0 0 0 0 0 127 0" result="hardAlpha"/>
<feOffset dx="4.6" dy="4.6"/>
<feGaussianBlur stdDeviation="5.75"/>
<feComposite in2="hardAlpha" operator="out"/>
<feColorMatrix type="matrix" values="0 0 0 0 0.14902 0 0 0 0 0.27451 0 0 0 0 0.32549 0 0 0 0.25 0"/>
<feBlend mode="normal" in2="BackgroundImageFix" result="effect1_dropShadow_0_1"/>
<feBlend mode="normal" in="SourceGraphic" in2="effect1_dropShadow_0_1" result="shape"/>
</filter>
<filter id="filter3_d_0_1" x="39.2118" y="151.829" width="104.588" height="164.365" filterUnits="userSpaceOnUse" color-interpolation-filters="sRGB">
<feFlood flood-opacity="0" result="BackgroundImageFix"/>
<feColorMatrix in="SourceAlpha" type="matrix" values="0 0 0 0 0 0 0 0 0 0 0 0 0 0 0 0 0 0 127 0" result="hardAlpha"/>
<feOffset dx="4.6" dy="4.6"/>
<feGaussianBlur stdDeviation="5.75"/>
<feComposite in2="hardAlpha" operator="out"/>
<feColorMatrix type="matrix" values="0 0 0 0 0.14902 0 0 0 0 0.27451 0 0 0 0 0.32549 0 0 0 0.25 0"/>
<feBlend mode="normal" in2="BackgroundImageFix" result="effect1_dropShadow_0_1"/>
<feBlend mode="normal" in="SourceGraphic" in2="effect1_dropShadow_0_1" result="shape"/>
</filter>
<linearGradient id="paint0_linear_0_1" x1="118.605" y1="139.324" x2="142.588" y2="139.157" gradientUnits="userSpaceOnUse">
<stop stop-color="#635B4C" stop-opacity="0.75"/>
<stop offset="0.475962" stop-color="#635B4C"/>
<stop offset="1" stop-color="#635B4C" stop-opacity="0.5"/>
</linearGradient>
<linearGradient id="paint1_linear_0_1" x1="140.092" y1="175.897" x2="118.949" y2="175.581" gradientUnits="userSpaceOnUse">
<stop stop-color="#635B4C" stop-opacity="0.5"/>
<stop offset="0.5" stop-color="#635B4C"/>
<stop offset="1" stop-color="#635B4C" stop-opacity="0.75"/>
</linearGradient>
<linearGradient id="paint2_linear_0_1" x1="140.092" y1="175.897" x2="118.949" y2="175.581" gradientUnits="userSpaceOnUse">
<stop stop-color="#635B4C" stop-opacity="0.5"/>
<stop offset="0.5" stop-color="#635B4C"/>
<stop offset="1" stop-color="#635B4C" stop-opacity="0.75"/>
</linearGradient>
<linearGradient id="paint3_linear_0_1" x1="220.213" y1="244.787" x2="204.782" y2="222.966" gradientUnits="userSpaceOnUse">
<stop stop-color="#C9B99A" stop-opacity="0.06"/>
<stop offset="1" stop-color="#635B4C"/>
</linearGradient>
<linearGradient id="paint4_linear_0_1" x1="129.945" y1="158.402" x2="128.781" y2="158.395" gradientUnits="userSpaceOnUse">
<stop stop-color="#635B4C" stop-opacity="0"/>
<stop offset="0.5" stop-color="#635B4C"/>
<stop offset="1" stop-color="#635B4C" stop-opacity="0"/>
</linearGradient>
<linearGradient id="paint5_linear_0_1" x1="50.1129" y1="78.388" x2="20.7291" y2="165.705" gradientUnits="userSpaceOnUse">
<stop stop-color="#C9B99A" stop-opacity="0.06"/>
<stop offset="1" stop-color="#635B4C"/>
</linearGradient>
<linearGradient id="paint6_linear_0_1" x1="84.7686" y1="125.339" x2="71.1106" y2="21.1005" gradientUnits="userSpaceOnUse">
<stop stop-color="#635B4C" stop-opacity="0.5"/>
<stop offset="0.947115" stop-color="#635B4C" stop-opacity="0"/>
</linearGradient>
<linearGradient id="paint7_linear_0_1" x1="231.951" y1="75.5728" x2="237.734" y2="167.519" gradientUnits="userSpaceOnUse">
<stop stop-color="#C9B99A" stop-opacity="0.06"/>
<stop offset="1" stop-color="#635B4C"/>
</linearGradient>
<linearGradient id="paint8_linear_0_1" x1="159.035" y1="32.1757" x2="212.745" y2="121.027" gradientUnits="userSpaceOnUse">
<stop stop-color="#635B4C" stop-opacity="0.5"/>
<stop offset="0.947115" stop-color="#635B4C" stop-opacity="0"/>
</linearGradient>
<linearGradient id="paint9_linear_0_1" x1="178.154" y1="244.334" x2="212.73" y2="159.371" gradientUnits="userSpaceOnUse">
<stop stop-color="#635B4C" stop-opacity="0"/>
<stop offset="1" stop-color="#635B4C"/>
</linearGradient>
<linearGradient id="paint10_linear_0_1" x1="179.227" y1="282.382" x2="152.876" y2="255.106" gradientUnits="userSpaceOnUse">
<stop stop-color="#635B4C" stop-opacity="0.6"/>
<stop offset="1" stop-color="#635B4C" stop-opacity="0.3"/>
</linearGradient>
<linearGradient id="paint11_linear_0_1" x1="54.911" y1="248.317" x2="51.2395" y2="156.262" gradientUnits="userSpaceOnUse">
<stop stop-color="#C9B99A" stop-opacity="0.06"/>
<stop offset="1" stop-color="#635B4C"/>
</linearGradient>
<linearGradient id="paint12_linear_0_1" x1="108.249" y1="269.815" x2="89.4963" y2="317.018" gradientUnits="userSpaceOnUse">
<stop stop-color="#635B4C" stop-opacity="0.6"/>
<stop offset="1" stop-color="#635B4C" stop-opacity="0.3"/>
</linearGradient>
</defs>
</g>
</svg>
