<svg width="273" height="330" viewBox="0 0 273 330" fill="none" xmlns="http://www.w3.org/2000/svg">
<g id="v36-paper">
<g id="TEMP EXPORT V36 paper+numbers">
<g id="folded paper">
<g id="Inside Paper" filter="url(#filter0_d_0_1)">
<path d="M57.0127 159.527L131.483 159.526L209.746 158.532L131.487 41.5949L57.0127 159.527Z" fill="#FAF7F0"/>
<path d="M57.0127 159.527L131.483 159.526L209.746 158.532L131.487 41.5949L57.0127 159.527Z" fill="url(#paint0_linear_0_1)" fill-opacity="0.5"/>
</g>
<g id="Subtract" filter="url(#filter1_d_0_1)">
<path d="M128.292 159.133L212.047 159.134L128.292 294.161V159.133Z" fill="#FAF7F0"/>
<path d="M128.292 159.133L212.047 159.134L128.292 294.161V159.133Z" fill="url(#paint1_linear_0_1)" fill-opacity="0.5"/>
<path d="M59.9346 159.134L128.292 159.133V294.161L59.9346 159.134Z" fill="#FAF7F0"/>
<path d="M59.9346 159.134L128.292 159.133V294.161L59.9346 159.134Z" fill="url(#paint2_linear_0_1)" fill-opacity="0.5"/>
</g>
<g id="inside folds">
<path id="Vector 1" d="M64.1658 159.649L129.32 158.512V161.351L64.1658 159.649Z" fill="#635B4C" fill-opacity="0.3"/>
<path id="Vector 2" d="M211.49 159.314L129.327 158.521L129.33 161.37L211.49 159.314Z" fill="#635B4C" fill-opacity="0.3"/>
</g>
<mask id="mask0_0_1" style="mask-type:alpha" maskUnits="userSpaceOnUse" x="18" y="188" width="220" height="113">
<g id="Paper Base">
<path d="M18.7935 297.711L124.97 300.566L125.15 296.84L132.765 296.84L132.976 300.566L237.293 297.711L237.293 188.594L129.144 188.598L129.153 188.628L126.679 188.633L126.672 188.598L18.7927 188.593L18.7931 242.302L18.911 242.307L18.876 243.499L18.7931 243.499L18.7935 297.711Z" fill="#FAF7F0"/>
<path d="M18.7935 297.711L124.97 300.566L125.15 296.84L132.765 296.84L132.976 300.566L237.293 297.711L237.293 188.594L129.144 188.598L129.153 188.628L126.679 188.633L126.672 188.598L18.7927 188.593L18.7931 242.302L18.911 242.307L18.876 243.499L18.7931 243.499L18.7935 297.711Z" fill="url(#paint3_linear_0_1)" fill-opacity="0.25"/>
</g>
</mask>
<g mask="url(#mask0_0_1)">
</g>
</g>
<g id="top">
<path id="Center Crease" d="M130.96 65.8359L128.707 251.744" stroke="url(#paint4_linear_0_1)" stroke-opacity="0.5" stroke-width="2.3"/>
<g id="top left">
<g id="back left base">
<path d="M43.8798 108.87C43.8797 142.54 58.2062 159.69 58.2062 159.69L83.5122 110.043L130.053 61.0087L130.053 39.4594C130.053 39.4594 130.983 20.3674 73.3903 45.4772C63.8816 49.6229 45.2778 57.7 45.2778 57.7C45.2778 57.7 43.8799 89.0684 43.8798 108.87Z" fill="#EFE9DD"/>
<path d="M43.8798 108.87C43.8797 142.54 58.2062 159.69 58.2062 159.69L83.5122 110.043L130.053 61.0087L130.053 39.4594C130.053 39.4594 130.983 20.3674 73.3903 45.4772C63.8816 49.6229 45.2778 57.7 45.2778 57.7C45.2778 57.7 43.8799 89.0684 43.8798 108.87Z" fill="url(#paint5_linear_0_1)"/>
</g>
<g id="back left fold">
<path d="M58.5908 159.882L129.89 60.8712L45.2914 57.7956C43.6652 95.4399 38.2313 148.935 58.5908 159.882Z" fill="#EFE9DD"/>
<path d="M58.5908 159.882L129.89 60.8712L45.2914 57.7956C43.6652 95.4399 38.2313 148.935 58.5908 159.882Z" fill="url(#paint6_linear_0_1)"/>
</g>
</g>
<g id="top right">
<g id="back right base">
<path d="M220.343 60.5169C220.343 60.5169 226.012 144.391 210.515 159.882L130.994 60.8702L130.994 38.0691C130.994 38.0691 142.145 34.4486 158.795 38.0691C175.444 41.6895 220.343 60.5169 220.343 60.5169Z" fill="#EFE9DD"/>
<path d="M220.343 60.5169C220.343 60.5169 226.012 144.391 210.515 159.882L130.994 60.8702L130.994 38.0691C130.994 38.0691 142.145 34.4486 158.795 38.0691C175.444 41.6895 220.343 60.5169 220.343 60.5169Z" fill="url(#paint7_linear_0_1)"/>
</g>
<g id="back right fold">
<path d="M211.01 160.434L130.596 60.516L220.736 60.516C220.736 69.5219 228.369 119.832 211.01 160.434Z" fill="#EFE9DD"/>
<path d="M211.01 160.434L130.596 60.516L220.736 60.516C220.736 69.5219 228.369 119.832 211.01 160.434Z" fill="url(#paint8_linear_0_1)"/>
</g>
</g>
<g id="bottom left" filter="url(#filter2_d_0_1)">
<g id="left">
<path d="M210.51 159.115C210.51 159.115 216.342 174.534 220.094 183.858C223.847 193.183 220.095 275.465 220.095 275.465C220.095 275.465 192.869 295.076 161.839 297.531C130.81 299.987 127.838 297.531 127.838 297.531L127.838 273.677L210.51 159.115Z" fill="#EFE9DD"/>
<path d="M210.51 159.115C210.51 159.115 216.342 174.534 220.094 183.858C223.847 193.183 220.095 275.465 220.095 275.465C220.095 275.465 192.869 295.076 161.839 297.531C130.81 299.987 127.838 297.531 127.838 297.531L127.838 273.677L210.51 159.115Z" fill="url(#paint9_linear_0_1)"/>
</g>
<g id="Subtract_2">
<path d="M220.436 274.438C220.436 274.438 213.352 287.353 173.081 298.808C143.229 302.469 131.777 300.336 127.813 298.134L128.363 273.423L128.464 273.375L220.436 274.438Z" fill="#EFE9DD"/>
<path d="M220.436 274.438C220.436 274.438 213.352 287.353 173.081 298.808C143.229 302.469 131.777 300.336 127.813 298.134L128.363 273.423L128.464 273.375L220.436 274.438Z" fill="url(#paint10_linear_0_1)"/>
</g>
</g>
<g id="bottom right" filter="url(#filter3_d_0_1)">
<g id="right">
<path d="M47.0749 272.916C47.0749 272.916 46.112 223.285 46.1119 196.849C46.1117 170.413 58.785 158.729 58.785 158.729L127.7 272.73L127.7 296.102C127.7 296.102 114.821 298.369 98.7551 290.849C82.6897 283.329 47.0749 272.916 47.0749 272.916Z" fill="#EFE9DD"/>
<path d="M47.0749 272.916C47.0749 272.916 46.112 223.285 46.1119 196.849C46.1117 170.413 58.785 158.729 58.785 158.729L127.7 272.73L127.7 296.102C127.7 296.102 114.821 298.369 98.7551 290.849C82.6897 283.329 47.0749 272.916 47.0749 272.916Z" fill="url(#paint11_linear_0_1)"/>
</g>
<g id="Subtract_3">
<path d="M46.792 272.734C104.398 269.09 127.607 272.721 127.607 272.721L127.41 296.99C113.595 311.052 46.9146 272.805 46.792 272.734Z" fill="#EFE9DD"/>
<path d="M46.792 272.734C104.398 269.09 127.607 272.721 127.607 272.721L127.41 296.99C113.595 311.052 46.9146 272.805 46.792 272.734Z" fill="url(#paint12_linear_0_1)"/>
</g>
</g>
</g>

</g>
<defs>
<filter id="filter0_d_0_1" x="40.9127" y="27.7957" width="194.133" height="159.332" filterUnits="userSpaceOnUse" color-interpolation-filters="sRGB">
<feFlood flood-opacity="0" result="BackgroundImageFix"/>
<feColorMatrix in="SourceAlpha" type="matrix" values="0 0 0 0 0 0 0 0 0 0 0 0 0 0 0 0 0 0 127 0" result="hardAlpha"/>
<feOffset dx="4.6" dy="6.9"/>
<feGaussianBlur stdDeviation="10.35"/>
<feColorMatrix type="matrix" values="0 0 0 0 0.149 0 0 0 0 0.275 0 0 0 0 0.325 0 0 0 0.18 0"/>
<feBlend mode="normal" in2="BackgroundImageFix" result="effect1_dropShadow_0_1"/>
<feBlend mode="normal" in="SourceGraphic" in2="effect1_dropShadow_0_1" result="shape"/>
</filter>
<filter id="filter1_d_0_1" x="43.8346" y="145.333" width="193.512" height="176.427" filterUnits="userSpaceOnUse" color-interpolation-filters="sRGB">
<feFlood flood-opacity="0" result="BackgroundImageFix"/>
<feColorMatrix in="SourceAlpha" type="matrix" values="0 0 0 0 0 0 0 0 0 0 0 0 0 0 0 0 0 0 127 0" result="hardAlpha"/>
<feOffset dx="4.6" dy="6.9"/>
<feGaussianBlur stdDeviation="10.35"/>
<feColorMatrix type="matrix" values="0 0 0 0 0.149 0 0 0 0 0.275 0 0 0 0 0.325 0 0 0 0.18 0"/>
<feBlend mode="normal" in2="BackgroundImageFix" result="effect1_dropShadow_0_1"/>
<feBlend mode="normal" in="SourceGraphic" in2="effect1_dropShadow_0_1" result="shape"/>
</filter>
<filter id="filter2_d_0_1" x="120.913" y="152.215" width="116.949" height="164.674" filterUnits="userSpaceOnUse" color-interpolation-filters="sRGB">
<feFlood flood-opacity="0" result="BackgroundImageFix"/>
<feColorMatrix in="SourceAlpha" type="matrix" values="0 0 0 0 0 0 0 0 0 0 0 0 0 0 0 0 0 0 127 0" result="hardAlpha"/>
<feOffset dx="4.6" dy="4.6"/>
<feGaussianBlur stdDeviation="5.75"/>
<feComposite in2="hardAlpha" operator="out"/>
<feColorMatrix type="matrix" values="0 0 0 0 0.14902 0 0 0 0 0.27451 0 0 0 0 0.32549 0 0 0 0.25 0"/>
<feBlend mode="normal" in2="BackgroundImageFix" result="effect1_dropShadow_0_1"/>
<feBlend mode="normal" in="SourceGraphic" in2="effect1_dropShadow_0_1" result="shape"/>
</filter>
<filter id="filter3_d_0_1" x="39.2118" y="151.829" width="104.588" height="164.365" filterUnits="userSpaceOnUse" color-interpolation-filters="sRGB">
<feFlood flood-opacity="0" result="BackgroundImageFix"/>
<feColorMatrix in="SourceAlpha" type="matrix" values="0 0 0 0 0 0 0 0 0 0 0 0 0 0 0 0 0 0 127 0" result="hardAlpha"/>
<feOffset dx="4.6" dy="4.6"/>
<feGaussianBlur stdDeviation="5.75"/>
<feComposite in2="hardAlpha" operator="out"/>
<feColorMatrix type="matrix" values="0 0 0 0 0.14902 0 0 0 0 0.27451 0 0 0 0 0.32549 0 0 0 0.25 0"/>
<feBlend mode="normal" in2="BackgroundImageFix" result="effect1_dropShadow_0_1"/>
<feBlend mode="normal" in="SourceGraphic" in2="effect1_dropShadow_0_1" result="shape"/>
</filter>
<linearGradient id="paint0_linear_0_1" x1="118.605" y1="139.324" x2="142.588" y2="139.157" gradientUnits="userSpaceOnUse">
<stop stop-color="#635B4C" stop-opacity="0.75"/>
<stop offset="0.475962" stop-color="#635B4C"/>
<stop offset="1" stop-color="#635B4C" stop-opacity="0.5"/>
</linearGradient>
<linearGradient id="paint1_linear_0_1" x1="140.092" y1="175.897" x2="118.949" y2="175.581" gradientUnits="userSpaceOnUse">
<stop stop-color="#635B4C" stop-opacity="0.5"/>
<stop offset="0.5" stop-color="#635B4C"/>
<stop offset="1" stop-color="#635B4C" stop-opacity="0.75"/>
</linearGradient>
<linearGradient id="paint2_linear_0_1" x1="140.092" y1="175.897" x2="118.949" y2="175.581" gradientUnits="userSpaceOnUse">
<stop stop-color="#635B4C" stop-opacity="0.5"/>
<stop offset="0.5" stop-color="#635B4C"/>
<stop offset="1" stop-color="#635B4C" stop-opacity="0.75"/>
</linearGradient>
<linearGradient id="paint3_linear_0_1" x1="220.213" y1="244.787" x2="204.782" y2="222.966" gradientUnits="userSpaceOnUse">
<stop stop-color="#C9B99A" stop-opacity="0.06"/>
<stop offset="1" stop-color="#635B4C"/>
</linearGradient>
<linearGradient id="paint4_linear_0_1" x1="129.945" y1="158.402" x2="128.781" y2="158.395" gradientUnits="userSpaceOnUse">
<stop stop-color="#635B4C" stop-opacity="0"/>
<stop offset="0.5" stop-color="#635B4C"/>
<stop offset="1" stop-color="#635B4C" stop-opacity="0"/>
</linearGradient>
<linearGradient id="paint5_linear_0_1" x1="50.1129" y1="78.388" x2="20.7291" y2="165.705" gradientUnits="userSpaceOnUse">
<stop stop-color="#C9B99A" stop-opacity="0.06"/>
<stop offset="1" stop-color="#635B4C"/>
</linearGradient>
<linearGradient id="paint6_linear_0_1" x1="84.7686" y1="125.339" x2="71.1106" y2="21.1005" gradientUnits="userSpaceOnUse">
<stop stop-color="#635B4C" stop-opacity="0.5"/>
<stop offset="0.947115" stop-color="#635B4C" stop-opacity="0"/>
</linearGradient>
<linearGradient id="paint7_linear_0_1" x1="231.951" y1="75.5728" x2="237.734" y2="167.519" gradientUnits="userSpaceOnUse">
<stop stop-color="#C9B99A" stop-opacity="0.06"/>
<stop offset="1" stop-color="#635B4C"/>
</linearGradient>
<linearGradient id="paint8_linear_0_1" x1="159.035" y1="32.1757" x2="212.745" y2="121.027" gradientUnits="userSpaceOnUse">
<stop stop-color="#635B4C" stop-opacity="0.5"/>
<stop offset="0.947115" stop-color="#635B4C" stop-opacity="0"/>
</linearGradient>
<linearGradient id="paint9_linear_0_1" x1="178.154" y1="244.334" x2="212.73" y2="159.371" gradientUnits="userSpaceOnUse">
<stop stop-color="#635B4C" stop-opacity="0"/>
<stop offset="1" stop-color="#635B4C"/>
</linearGradient>
<linearGradient id="paint10_linear_0_1" x1="179.227" y1="282.382" x2="152.876" y2="255.106" gradientUnits="userSpaceOnUse">
<stop stop-color="#635B4C" stop-opacity="0.6"/>
<stop offset="1" stop-color="#635B4C" stop-opacity="0.3"/>
</linearGradient>
<linearGradient id="paint11_linear_0_1" x1="54.911" y1="248.317" x2="51.2395" y2="156.262" gradientUnits="userSpaceOnUse">
<stop stop-color="#C9B99A" stop-opacity="0.06"/>
<stop offset="1" stop-color="#635B4C"/>
</linearGradient>
<linearGradient id="paint12_linear_0_1" x1="108.249" y1="269.815" x2="89.4963" y2="317.018" gradientUnits="userSpaceOnUse">
<stop stop-color="#635B4C" stop-opacity="0.6"/>
<stop offset="1" stop-color="#635B4C" stop-opacity="0.3"/>
</linearGradient>
</defs>
</g>
</svg>
