<svg width="341" height="242" viewBox="0 0 341 242" fill="none" xmlns="http://www.w3.org/2000/svg">

<g id="TEMP EXPORT v37">
<g id="BASE">
<g id="Paper Base" filter="url(#filter0_d_0_1)">
<path d="M77.5908 114.441L169.171 206.219L274.7 114.441L274.7 83.6499L169.171 75.1783L169.18 75.2135L166.706 75.219L166.7 75.1784L77.5908 83.6499L77.5908 114.441Z" fill="#FAF7F0"/>
<path d="M77.5908 114.441L169.171 206.219L274.7 114.441L274.7 83.6499L169.171 75.1783L169.18 75.2135L166.706 75.219L166.7 75.1784L77.5908 83.6499L77.5908 114.441Z" fill="url(#paint0_linear_0_1)" fill-opacity="0.1"/>
</g>
<g id="Subtract" filter="url(#filter1_d_0_1)">
<path d="M168.164 34.7475L244.917 24.7604L168.164 205.772V34.7475Z" fill="#FAF7F0"/>
<path d="M168.164 34.7475L244.917 24.7604L168.164 205.772V34.7475Z" fill="url(#paint1_linear_0_1)" fill-opacity="0.5"/>
<path d="M92.0136 21.8008L168.164 34.7475L169.235 205.766L92.0136 21.8008Z" fill="#FAF7F0"/>
<path d="M92.0136 21.8008L168.164 34.7475L169.235 205.766L92.0136 21.8008Z" fill="url(#paint2_linear_0_1)" fill-opacity="0.5"/>
</g>
<mask id="mask0_0_1" style="mask-type:alpha" maskUnits="userSpaceOnUse" x="58" y="97" width="219" height="113">
<g id="Paper Base_2">
<path d="M58.2034 206.996L164.38 209.852L164.56 206.125L172.175 206.125L172.386 209.852L276.703 206.996L276.703 97.8791L168.553 97.8831L168.563 97.9133L166.088 97.9181L166.082 97.8832L58.2026 97.8785L58.203 151.588L58.3209 151.592L58.2859 152.784L58.203 152.785L58.2034 206.996Z" fill="#FAF7F0"/>
<path d="M58.2034 206.996L164.38 209.852L164.56 206.125L172.175 206.125L172.386 209.852L276.703 206.996L276.703 97.8791L168.553 97.8831L168.563 97.9133L166.088 97.9181L166.082 97.8832L58.2026 97.8785L58.203 151.588L58.3209 151.592L58.2859 152.784L58.203 152.785L58.2034 206.996Z" fill="url(#paint3_linear_0_1)" fill-opacity="0.25"/>
</g>
</mask>
<g mask="url(#mask0_0_1)">
</g>
</g>
<g id="top">
<g id="top back">
<g id="Vector 3">
<path d="M36.507 96.7984L90.8164 25.1063L30.9089 89.8297C30.9518 97.1975 33.062 92.2244 36.507 96.7984Z" fill="#EFE9DD"/>
<path d="M36.507 96.7984L90.8164 25.1063L30.9089 89.8297C30.9518 97.1975 33.062 92.2244 36.507 96.7984Z" fill="url(#paint4_linear_0_1)" fill-opacity="0.5"/>
</g>
<g id="Vector 4">
<path d="M305.623 98.7609L247.402 25.1048L302.938 95.3653C302.919 99.0106 304.375 99.1943 305.623 98.7609L306.242 99.5446C308.348 96.7983 307.138 98.2346 305.623 98.7609Z" fill="#EFE9DD"/>
<path d="M305.623 98.7609L247.402 25.1048L302.938 95.3653C302.919 99.0106 304.375 99.1943 305.623 98.7609L306.242 99.5446C308.348 96.7983 307.138 98.2346 305.623 98.7609Z" fill="url(#paint5_linear_0_1)" fill-opacity="0.5"/>
</g>
</g>
<path id="Center Crease" d="M167.007 35.0921L168.11 102.041" stroke="#C9B99A" stroke-opacity="0.4" stroke-width="2.3"/>
<g id="top left" filter="url(#filter2_d_0_1)">
<g id="left">
<path d="M316.415 98.3476L258.482 167.198L219.84 129.37L171.047 99.8814L244.812 24.5133L316.415 98.3476Z" fill="#EFE9DD"/>
<path d="M316.415 98.3476L258.482 167.198L219.84 129.37L171.047 99.8814L244.812 24.5133L316.415 98.3476Z" fill="url(#paint6_linear_0_1)"/>
</g>
<path id="Subtract_2" d="M258.644 166.949C258.565 166.87 233.382 141.614 218.022 130.247C204.273 120.071 174.615 105.66 168.467 102.712L168.41 102.671L177.646 91.8266L244.712 24.5136C261.38 79.1849 258.578 110.377 258.644 166.949Z" fill="#EFE9DD"/>
</g>
<g id="top right" filter="url(#filter3_d_0_1)">
<g id="right">
<path d="M78.4619 167.359L21.0242 98.554L91.6148 21.7518L165.896 99.8691C165.896 99.8691 131.881 120.785 121.719 129.089C111.556 137.393 78.4619 167.359 78.4619 167.359Z" fill="#EFE9DD"/>
<path d="M78.4619 167.359L21.0242 98.554L91.6148 21.7518L165.896 99.8691C165.896 99.8691 131.881 120.785 121.719 129.089C111.556 137.393 78.4619 167.359 78.4619 167.359Z" fill="url(#paint7_linear_0_1)"/>
</g>
<path id="Subtract_3" d="M77.0698 166.464C80.0524 107.223 76.0867 76.0684 90.6019 21.7738L161.361 94.7731L167.768 102.295C163.445 104.35 136.998 117.124 120.029 130.122C101.54 144.284 77.1659 166.377 77.0698 166.464Z" fill="#EFE9DD"/>
</g>
</g>
<g id="fortune message flap">
<path d="M166.781 101.379L244.023 24.7065L166.782 34.4015L91.4971 21.8762L166.781 101.379Z" fill="#FAF7F0"/>
<path d="M166.781 101.379L244.023 24.7065L166.782 34.4015L91.4971 21.8762L166.781 101.379Z" fill="url(#paint8_linear_0_1)" fill-opacity="0.2"/>
<path d="M166.781 101.379L244.023 24.7065L166.782 34.4015L91.4971 21.8762L166.781 101.379Z" fill="url(#paint9_linear_0_1)" fill-opacity="0.5"/>
</g>
</g>
<defs>
<filter id="filter0_d_0_1" x="61.4908" y="61.3797" width="238.509" height="172.439" filterUnits="userSpaceOnUse" color-interpolation-filters="sRGB">
<feFlood flood-opacity="0" result="BackgroundImageFix"/>
<feColorMatrix in="SourceAlpha" type="matrix" values="0 0 0 0 0 0 0 0 0 0 0 0 0 0 0 0 0 0 127 0" result="hardAlpha"/>
<feOffset dx="4.6" dy="6.9"/>
<feGaussianBlur stdDeviation="10.35"/>
<feColorMatrix type="matrix" values="0 0 0 0 0.149 0 0 0 0 0.275 0 0 0 0 0.325 0 0 0 0.18 0"/>
<feBlend mode="normal" in2="BackgroundImageFix" result="effect1_dropShadow_0_1"/>
<feBlend mode="normal" in="SourceGraphic" in2="effect1_dropShadow_0_1" result="shape"/>
</filter>
<filter id="filter1_d_0_1" x="75.9137" y="8.00078" width="194.304" height="225.373" filterUnits="userSpaceOnUse" color-interpolation-filters="sRGB">
<feFlood flood-opacity="0" result="BackgroundImageFix"/>
<feColorMatrix in="SourceAlpha" type="matrix" values="0 0 0 0 0 0 0 0 0 0 0 0 0 0 0 0 0 0 127 0" result="hardAlpha"/>
<feOffset dx="4.6" dy="6.9"/>
<feGaussianBlur stdDeviation="10.35"/>
<feColorMatrix type="matrix" values="0 0 0 0 0.149 0 0 0 0 0.275 0 0 0 0 0.325 0 0 0 0.18 0"/>
<feBlend mode="normal" in2="BackgroundImageFix" result="effect1_dropShadow_0_1"/>
<feBlend mode="normal" in="SourceGraphic" in2="effect1_dropShadow_0_1" result="shape"/>
</filter>
<filter id="filter2_d_0_1" x="161.51" y="17.6117" width="171.004" height="165.688" filterUnits="userSpaceOnUse" color-interpolation-filters="sRGB">
<feFlood flood-opacity="0" result="BackgroundImageFix"/>
<feColorMatrix in="SourceAlpha" type="matrix" values="0 0 0 0 0 0 0 0 0 0 0 0 0 0 0 0 0 0 127 0" result="hardAlpha"/>
<feOffset dx="4.6" dy="4.6"/>
<feGaussianBlur stdDeviation="5.75"/>
<feComposite in2="hardAlpha" operator="out"/>
<feColorMatrix type="matrix" values="0 0 0 0 0.14902 0 0 0 0 0.27451 0 0 0 0 0.32549 0 0 0 0.25 0"/>
<feBlend mode="normal" in2="BackgroundImageFix" result="effect1_dropShadow_0_1"/>
<feBlend mode="normal" in="SourceGraphic" in2="effect1_dropShadow_0_1" result="shape"/>
</filter>
<filter id="filter3_d_0_1" x="14.1244" y="14.85" width="169.744" height="168.609" filterUnits="userSpaceOnUse" color-interpolation-filters="sRGB">
<feFlood flood-opacity="0" result="BackgroundImageFix"/>
<feColorMatrix in="SourceAlpha" type="matrix" values="0 0 0 0 0 0 0 0 0 0 0 0 0 0 0 0 0 0 127 0" result="hardAlpha"/>
<feOffset dx="4.6" dy="4.6"/>
<feGaussianBlur stdDeviation="5.75"/>
<feComposite in2="hardAlpha" operator="out"/>
<feColorMatrix type="matrix" values="0 0 0 0 0.14902 0 0 0 0 0.27451 0 0 0 0 0.32549 0 0 0 0.25 0"/>
<feBlend mode="normal" in2="BackgroundImageFix" result="effect1_dropShadow_0_1"/>
<feBlend mode="normal" in="SourceGraphic" in2="effect1_dropShadow_0_1" result="shape"/>
</filter>
<linearGradient id="paint0_linear_0_1" x1="214.815" y1="101.507" x2="186.433" y2="144.23" gradientUnits="userSpaceOnUse">
<stop stop-color="#C9B99A" stop-opacity="0.06"/>
<stop offset="1" stop-color="#635B4C"/>
</linearGradient>
<linearGradient id="paint1_linear_0_1" x1="167.873" y1="-17.8839" x2="279.242" y2="84.0622" gradientUnits="userSpaceOnUse">
<stop stop-color="#635B4C" stop-opacity="0"/>
<stop offset="1" stop-color="#635B4C" stop-opacity="0.75"/>
</linearGradient>
<linearGradient id="paint2_linear_0_1" x1="167.873" y1="-17.8839" x2="279.242" y2="84.0622" gradientUnits="userSpaceOnUse">
<stop stop-color="#635B4C" stop-opacity="0"/>
<stop offset="1" stop-color="#635B4C" stop-opacity="0.75"/>
</linearGradient>
<linearGradient id="paint3_linear_0_1" x1="259.623" y1="154.072" x2="244.191" y2="132.251" gradientUnits="userSpaceOnUse">
<stop stop-color="#C9B99A" stop-opacity="0.06"/>
<stop offset="1" stop-color="#635B4C"/>
</linearGradient>
<linearGradient id="paint4_linear_0_1" x1="60.4688" y1="53.0236" x2="44.0686" y2="30.4438" gradientUnits="userSpaceOnUse">
<stop stop-color="#635B4C" stop-opacity="0.5"/>
<stop offset="0.947115" stop-color="#635B4C" stop-opacity="0.25"/>
</linearGradient>
<linearGradient id="paint5_linear_0_1" x1="281.297" y1="55.7163" x2="299.152" y2="30.6876" gradientUnits="userSpaceOnUse">
<stop stop-color="#635B4C" stop-opacity="0.5"/>
<stop offset="0.947115" stop-color="#635B4C" stop-opacity="0.25"/>
</linearGradient>
<linearGradient id="paint6_linear_0_1" x1="221.383" y1="102.205" x2="312.859" y2="95.1515" gradientUnits="userSpaceOnUse">
<stop stop-color="#635B4C" stop-opacity="0"/>
<stop offset="1" stop-color="#635B4C"/>
</linearGradient>
<linearGradient id="paint7_linear_0_1" x1="113.107" y1="99.8978" x2="20.9791" y2="99.8672" gradientUnits="userSpaceOnUse">
<stop stop-color="#C9B99A" stop-opacity="0.06"/>
<stop offset="1" stop-color="#635B4C"/>
</linearGradient>
<linearGradient id="paint8_linear_0_1" x1="216.208" y1="78.4252" x2="115.625" y2="78.4252" gradientUnits="userSpaceOnUse">
<stop offset="0.460992" stop-color="#635B4C" stop-opacity="0"/>
<stop offset="0.491832" stop-color="#635B4C" stop-opacity="0.5"/>
<stop offset="0.530788" stop-color="#635B4C" stop-opacity="0"/>
</linearGradient>
<linearGradient id="paint9_linear_0_1" x1="167.76" y1="101.379" x2="166.781" y2="26.3389" gradientUnits="userSpaceOnUse">
<stop offset="0.323601" stop-color="#635B4C" stop-opacity="0.5"/>
<stop offset="1" stop-color="#635B4C" stop-opacity="0"/>
</linearGradient>
</defs>
</svg>
