<svg width="341" height="323" viewBox="0 0 341 323" fill="none" xmlns="http://www.w3.org/2000/svg">

<g id="TEMP EXPORT v40.1">
<g id="BASE">
<g id="Paper Base" filter="url(#filter0_d_0_1)">
<path d="M77.5908 195.425L169.171 287.203L274.7 195.425L274.7 164.634L169.171 156.163L169.18 156.198L166.706 156.203L166.7 156.163L77.5908 164.634L77.5908 195.425Z" fill="#FAF7F0"/>
<path d="M77.5908 195.425L169.171 287.203L274.7 195.425L274.7 164.634L169.171 156.163L169.18 156.198L166.706 156.203L166.7 156.163L77.5908 164.634L77.5908 195.425Z" fill="url(#paint0_linear_0_1)" fill-opacity="0.1"/>
</g>
<g id="Subtract" filter="url(#filter1_d_0_1)">
<path d="M166.914 105.524L244.917 105.745L168.164 286.757L166.914 105.524Z" fill="#FAF7F0"/>
<path d="M166.914 105.524L244.917 105.745L168.164 286.757L166.914 105.524Z" fill="url(#paint1_linear_0_1)" fill-opacity="0.5"/>
<path d="M92.0136 102.785L166.914 105.524L169.235 286.75L92.0136 102.785Z" fill="#FAF7F0"/>
<path d="M92.0136 102.785L166.914 105.524L169.235 286.75L92.0136 102.785Z" fill="url(#paint2_linear_0_1)" fill-opacity="0.5"/>
</g>
<mask id="mask0_0_1" style="mask-type:alpha" maskUnits="userSpaceOnUse" x="58" y="178" width="219" height="113">
<g id="Paper Base_2">
<path d="M58.2034 287.98L164.38 290.836L164.56 287.109L172.175 287.109L172.386 290.836L276.703 287.98L276.703 178.863L168.553 178.867L168.563 178.898L166.088 178.902L166.082 178.868L58.2026 178.863L58.203 232.572L58.3209 232.577L58.2859 233.768L58.203 233.769L58.2034 287.98Z" fill="#FAF7F0"/>
<path d="M58.2034 287.98L164.38 290.836L164.56 287.109L172.175 287.109L172.386 290.836L276.703 287.98L276.703 178.863L168.553 178.867L168.563 178.898L166.088 178.902L166.082 178.868L58.2026 178.863L58.203 232.572L58.3209 232.577L58.2859 233.768L58.203 233.769L58.2034 287.98Z" fill="url(#paint3_linear_0_1)" fill-opacity="0.25"/>
</g>
</mask>
<g mask="url(#mask0_0_1)">
</g>
</g>
<g id="top">
<g id="top back">
<g id="Vector 3">
<path d="M36.507 177.779L90.8164 106.087L30.9089 170.81C30.9518 178.178 33.062 173.205 36.507 177.779Z" fill="#EFE9DD"/>
<path d="M36.507 177.779L90.8164 106.087L30.9089 170.81C30.9518 178.178 33.062 173.205 36.507 177.779Z" fill="url(#paint4_linear_0_1)" fill-opacity="0.5"/>
</g>
<g id="Vector 4">
<path d="M305.623 179.741L247.402 106.085L302.938 176.346C302.919 179.991 304.375 180.175 305.623 179.741L306.242 180.525C308.348 177.779 307.138 179.215 305.623 179.741Z" fill="#EFE9DD"/>
<path d="M305.623 179.741L247.402 106.085L302.938 176.346C302.919 179.991 304.375 180.175 305.623 179.741L306.242 180.525C308.348 177.779 307.138 179.215 305.623 179.741Z" fill="url(#paint5_linear_0_1)" fill-opacity="0.5"/>
</g>
</g>
<path id="Center Crease" d="M167.021 105.959L168.11 183.021" stroke="#C9B99A" stroke-opacity="0.4" stroke-width="2.3"/>
<g id="top left" filter="url(#filter2_d_0_1)">
<g id="left">
<path d="M316.415 179.328L258.482 248.179L219.84 210.35L171.047 180.862L244.812 105.494L316.415 179.328Z" fill="#EFE9DD"/>
<path d="M316.415 179.328L258.482 248.179L219.84 210.35L171.047 180.862L244.812 105.494L316.415 179.328Z" fill="url(#paint6_linear_0_1)"/>
</g>
<path id="Subtract_2" d="M258.644 247.93C258.565 247.851 233.382 222.595 218.022 211.227C204.273 201.052 174.615 186.641 168.467 183.692L168.41 183.651L177.646 172.807L244.712 105.494C261.38 160.165 258.578 191.358 258.644 247.93Z" fill="#EFE9DD"/>
</g>
<g id="top right" filter="url(#filter3_d_0_1)">
<g id="right">
<path d="M78.4619 248.34L21.0242 179.534L91.6148 102.732L165.896 180.85C165.896 180.85 131.881 201.765 121.719 210.069C111.556 218.373 78.4619 248.34 78.4619 248.34Z" fill="#EFE9DD"/>
<path d="M78.4619 248.34L21.0242 179.534L91.6148 102.732L165.896 180.85C165.896 180.85 131.881 201.765 121.719 210.069C111.556 218.373 78.4619 248.34 78.4619 248.34Z" fill="url(#paint7_linear_0_1)"/>
</g>
<path id="Subtract_3" d="M77.0698 247.444C80.0524 188.203 76.0867 157.049 90.6019 102.754L161.361 175.754L167.768 183.276C163.445 185.33 136.998 198.105 120.029 211.103C101.54 225.264 77.1659 247.357 77.0698 247.444Z" fill="#EFE9DD"/>
</g>
</g>
<path id="Union" d="M187.759 161.051H171.047V156.473H187.759V161.051ZM193.276 152.664H171.047V148.086H193.276V152.664ZM193.276 144.277H171.047V139.699H193.276V144.277ZM207.186 135.891H171.047V131.312H207.186V135.891ZM212.925 122.925V127.503H171.047V122.925H212.925ZM213.673 119.116H171.047V114.538H213.673V119.116ZM226.24 110.729H171.047V106.151H226.24V110.729ZM220.238 102.343H171.047V97.7637H220.238V102.343ZM218.912 93.9551H171.047V89.377H218.912V93.9551ZM213.673 85.5684H171.047V80.9902H213.673V85.5684ZM208.382 77.1816H171.047V72.6035H208.382V77.1816ZM203.265 68.7949H171.047V64.2158H203.265V68.7949ZM193.276 60.4072H171.047V55.8291H193.276V60.4072ZM193.276 52.0205H171.047V47.4424H193.276V52.0205ZM187.759 43.6338H171.047V39.0557H187.759V43.6338ZM183.347 35.2471H171.047V30.668H183.347V35.2471Z" fill="#020101" fill-opacity="0.5"/>
<g id="fortune message flap">
<path d="M166.781 8L244.022 105.688H89.5401L166.781 8Z" fill="#FAF7F0"/>
<path d="M166.781 8L244.022 105.688H89.5401L166.781 8Z" fill="url(#paint8_linear_0_1)" fill-opacity="0.2"/>
<path d="M166.781 8L244.022 105.688H89.5401L166.781 8Z" fill="url(#paint9_linear_0_1)" fill-opacity="0.3"/>
</g>
</g>
<defs>
<filter id="filter0_d_0_1" x="61.4908" y="142.364" width="238.509" height="172.439" filterUnits="userSpaceOnUse" color-interpolation-filters="sRGB">
<feFlood flood-opacity="0" result="BackgroundImageFix"/>
<feColorMatrix in="SourceAlpha" type="matrix" values="0 0 0 0 0 0 0 0 0 0 0 0 0 0 0 0 0 0 127 0" result="hardAlpha"/>
<feOffset dx="4.6" dy="6.9"/>
<feGaussianBlur stdDeviation="10.35"/>
<feColorMatrix type="matrix" values="0 0 0 0 0.149 0 0 0 0 0.275 0 0 0 0 0.325 0 0 0 0.18 0"/>
<feBlend mode="normal" in2="BackgroundImageFix" result="effect1_dropShadow_0_1"/>
<feBlend mode="normal" in="SourceGraphic" in2="effect1_dropShadow_0_1" result="shape"/>
</filter>
<filter id="filter1_d_0_1" x="75.9137" y="88.9852" width="194.304" height="225.373" filterUnits="userSpaceOnUse" color-interpolation-filters="sRGB">
<feFlood flood-opacity="0" result="BackgroundImageFix"/>
<feColorMatrix in="SourceAlpha" type="matrix" values="0 0 0 0 0 0 0 0 0 0 0 0 0 0 0 0 0 0 127 0" result="hardAlpha"/>
<feOffset dx="4.6" dy="6.9"/>
<feGaussianBlur stdDeviation="10.35"/>
<feColorMatrix type="matrix" values="0 0 0 0 0.149 0 0 0 0 0.275 0 0 0 0 0.325 0 0 0 0.18 0"/>
<feBlend mode="normal" in2="BackgroundImageFix" result="effect1_dropShadow_0_1"/>
<feBlend mode="normal" in="SourceGraphic" in2="effect1_dropShadow_0_1" result="shape"/>
</filter>
<filter id="filter2_d_0_1" x="161.51" y="98.5922" width="171.004" height="165.688" filterUnits="userSpaceOnUse" color-interpolation-filters="sRGB">
<feFlood flood-opacity="0" result="BackgroundImageFix"/>
<feColorMatrix in="SourceAlpha" type="matrix" values="0 0 0 0 0 0 0 0 0 0 0 0 0 0 0 0 0 0 127 0" result="hardAlpha"/>
<feOffset dx="4.6" dy="4.6"/>
<feGaussianBlur stdDeviation="5.75"/>
<feComposite in2="hardAlpha" operator="out"/>
<feColorMatrix type="matrix" values="0 0 0 0 0.14902 0 0 0 0 0.27451 0 0 0 0 0.32549 0 0 0 0.25 0"/>
<feBlend mode="normal" in2="BackgroundImageFix" result="effect1_dropShadow_0_1"/>
<feBlend mode="normal" in="SourceGraphic" in2="effect1_dropShadow_0_1" result="shape"/>
</filter>
<filter id="filter3_d_0_1" x="14.1244" y="95.8305" width="169.744" height="168.609" filterUnits="userSpaceOnUse" color-interpolation-filters="sRGB">
<feFlood flood-opacity="0" result="BackgroundImageFix"/>
<feColorMatrix in="SourceAlpha" type="matrix" values="0 0 0 0 0 0 0 0 0 0 0 0 0 0 0 0 0 0 127 0" result="hardAlpha"/>
<feOffset dx="4.6" dy="4.6"/>
<feGaussianBlur stdDeviation="5.75"/>
<feComposite in2="hardAlpha" operator="out"/>
<feColorMatrix type="matrix" values="0 0 0 0 0.14902 0 0 0 0 0.27451 0 0 0 0 0.32549 0 0 0 0.25 0"/>
<feBlend mode="normal" in2="BackgroundImageFix" result="effect1_dropShadow_0_1"/>
<feBlend mode="normal" in="SourceGraphic" in2="effect1_dropShadow_0_1" result="shape"/>
</filter>
<linearGradient id="paint0_linear_0_1" x1="214.815" y1="182.492" x2="186.433" y2="225.214" gradientUnits="userSpaceOnUse">
<stop stop-color="#C9B99A" stop-opacity="0.06"/>
<stop offset="1" stop-color="#635B4C"/>
</linearGradient>
<linearGradient id="paint1_linear_0_1" x1="167.873" y1="63.1005" x2="279.242" y2="165.047" gradientUnits="userSpaceOnUse">
<stop stop-color="#635B4C" stop-opacity="0"/>
<stop offset="1" stop-color="#635B4C" stop-opacity="0.75"/>
</linearGradient>
<linearGradient id="paint2_linear_0_1" x1="167.873" y1="63.1005" x2="279.242" y2="165.047" gradientUnits="userSpaceOnUse">
<stop stop-color="#635B4C" stop-opacity="0"/>
<stop offset="1" stop-color="#635B4C" stop-opacity="0.75"/>
</linearGradient>
<linearGradient id="paint3_linear_0_1" x1="259.623" y1="235.056" x2="244.191" y2="213.236" gradientUnits="userSpaceOnUse">
<stop stop-color="#C9B99A" stop-opacity="0.06"/>
<stop offset="1" stop-color="#635B4C"/>
</linearGradient>
<linearGradient id="paint4_linear_0_1" x1="60.4688" y1="134.004" x2="44.0686" y2="111.424" gradientUnits="userSpaceOnUse">
<stop stop-color="#635B4C" stop-opacity="0.5"/>
<stop offset="0.947115" stop-color="#635B4C" stop-opacity="0.25"/>
</linearGradient>
<linearGradient id="paint5_linear_0_1" x1="281.297" y1="136.697" x2="299.152" y2="111.668" gradientUnits="userSpaceOnUse">
<stop stop-color="#635B4C" stop-opacity="0.5"/>
<stop offset="0.947115" stop-color="#635B4C" stop-opacity="0.25"/>
</linearGradient>
<linearGradient id="paint6_linear_0_1" x1="221.383" y1="183.186" x2="312.859" y2="176.132" gradientUnits="userSpaceOnUse">
<stop stop-color="#635B4C" stop-opacity="0"/>
<stop offset="1" stop-color="#635B4C"/>
</linearGradient>
<linearGradient id="paint7_linear_0_1" x1="113.107" y1="180.878" x2="20.9791" y2="180.848" gradientUnits="userSpaceOnUse">
<stop stop-color="#C9B99A" stop-opacity="0.06"/>
<stop offset="1" stop-color="#635B4C"/>
</linearGradient>
<linearGradient id="paint8_linear_0_1" x1="216.208" y1="73.1255" x2="115.625" y2="73.1255" gradientUnits="userSpaceOnUse">
<stop offset="0.460992" stop-color="#635B4C" stop-opacity="0"/>
<stop offset="0.491832" stop-color="#635B4C" stop-opacity="0.5"/>
<stop offset="0.530788" stop-color="#635B4C" stop-opacity="0"/>
</linearGradient>
<linearGradient id="paint9_linear_0_1" x1="166.781" y1="8" x2="166.781" y2="104.699" gradientUnits="userSpaceOnUse">
<stop offset="0.652756" stop-color="#635B4C" stop-opacity="0"/>
<stop offset="1" stop-color="#635B4C" stop-opacity="0.5"/>
</linearGradient>
</defs>
</svg>
