<svg width="559" height="406" viewBox="0 0 559 406" fill="none" xmlns="http://www.w3.org/2000/svg">
<rect width="559" height="406" fill="#F5F5F5"/>
<g id="EXPORT FRAMES (temp)">
<path d="M-2979.17 172.504C-2979.17 171.399 -2978.28 170.504 -2977.17 170.504H-2485.17C-2484.07 170.504 -2483.17 171.399 -2483.17 172.504V664.504C-2483.17 665.608 -2484.07 666.504 -2485.17 666.504H-2977.17C-2978.28 666.504 -2979.17 665.608 -2979.17 664.504V172.504Z" fill="white"/>
<path d="M-2977.17 170.504V171.504H-2485.17V170.504V169.504H-2977.17V170.504ZM-2483.17 172.504H-2484.17V664.504H-2483.17H-2482.17V172.504H-2483.17ZM-2485.17 666.504V665.504H-2977.17V666.504V667.504H-2485.17V666.504ZM-2979.17 664.504H-2978.17V172.504H-2979.17H-2980.17V664.504H-2979.17ZM-2977.17 666.504V665.504C-2977.72 665.504 -2978.17 665.056 -2978.17 664.504H-2979.17H-2980.17C-2980.17 666.161 -2978.83 667.504 -2977.17 667.504V666.504ZM-2483.17 664.504H-2484.17C-2484.17 665.056 -2484.62 665.504 -2485.17 665.504V666.504V667.504C-2483.52 667.504 -2482.17 666.161 -2482.17 664.504H-2483.17ZM-2485.17 170.504V171.504C-2484.62 171.504 -2484.17 171.952 -2484.17 172.504H-2483.17H-2482.17C-2482.17 170.847 -2483.52 169.504 -2485.17 169.504V170.504ZM-2977.17 170.504V169.504C-2978.83 169.504 -2980.17 170.847 -2980.17 172.504H-2979.17H-2978.17C-2978.17 171.952 -2977.72 171.504 -2977.17 171.504V170.504Z" fill="black" fill-opacity="0.1"/>
<g id="EXPORT v41">
<g id="folded paper">
<g id="Inside Paper" filter="url(#filter0_d_118_2448)">
<path d="M27.8529 90.4707L143.719 90.4696L258.828 90.4698L140.532 13.8009L27.8529 90.4707Z" fill="#FAF7F0"/>
<path d="M27.8529 90.4707L143.719 90.4696L258.828 90.4698L140.532 13.8009L27.8529 90.4707Z" fill="url(#paint0_linear_118_2448)" fill-opacity="0.5"/>
</g>
<g id="Subtract" filter="url(#filter1_d_118_2448)">
<path d="M140.53 90.1484L249.819 90.1499L140.53 166.205V90.1484Z" fill="#FAF7F0"/>
<path d="M140.53 90.1484L249.819 90.1499L140.53 166.205V90.1484Z" fill="url(#paint1_linear_118_2448)" fill-opacity="0.5"/>
<path d="M31.3568 90.1492L140.53 90.1484V166.205L31.3568 90.1492Z" fill="#FAF7F0"/>
<path d="M31.3568 90.1492L140.53 90.1484V166.205L31.3568 90.1492Z" fill="url(#paint2_linear_118_2448)" fill-opacity="0.5"/>
</g>
<g id="inside folds">
<path id="Vector 1" d="M42.2042 90.4211L141.211 67.6934L141.762 113.561L42.2042 90.4211Z" fill="url(#paint3_linear_118_2448)" fill-opacity="0.3"/>
<path id="Vector 2" d="M244.341 90.5517L140.285 65.6172L141.54 115.456L244.341 90.5517Z" fill="url(#paint4_linear_118_2448)" fill-opacity="0.3"/>
</g>
<g id="Horizontal Flap Numbers">
<path id="2-warp" d="M149.951 66.8888C149.48 66.5191 149.246 66.082 149.241 65.5708C149.257 65.0764 149.482 64.6449 149.925 64.2824C150.388 63.9022 150.922 63.7133 151.535 63.7215C156.808 63.4638 162.455 63.5013 168.478 63.8336C170.143 63.9253 171.837 64.0396 173.559 64.1764C175.238 64.3112 176.706 64.348 177.941 64.2697C179.203 64.2128 180.206 64.0027 180.927 63.622C182.061 63.0249 182.824 62.3401 183.201 61.5537C183.577 60.7674 183.556 59.9228 183.138 59.02C182.748 58.1097 181.958 57.1851 180.787 56.2619C180.78 56.2561 180.771 56.2498 180.764 56.244C179.611 55.339 178.324 54.6667 176.927 54.2461C175.583 53.8335 174.273 53.6838 172.998 53.7983C171.774 53.9191 170.736 54.3045 169.863 54.9373C169.415 55.2616 168.81 55.3783 168.057 55.2938C167.331 55.2314 166.666 54.9631 166.055 54.483C165.471 54.0244 165.132 53.5049 165.03 52.9181C164.929 52.3318 165.085 51.8626 165.506 51.5168C166.938 50.3427 168.657 49.6472 170.727 49.4806C172.818 49.2963 175.04 49.6038 177.391 50.4016C179.772 51.223 182.052 52.4891 184.167 54.1494C184.175 54.1557 184.183 54.162 184.191 54.1678C186.325 55.8464 187.826 57.5145 188.637 59.1281C189.452 60.7483 189.559 62.2182 188.957 63.5377C188.388 64.8819 187.088 65.9908 185.113 66.9086C184.248 67.311 183.17 67.5633 181.897 67.6798C180.652 67.8174 179.348 67.8587 177.992 67.8084C176.664 67.7798 175.417 67.7135 174.247 67.6067C170.543 67.2608 166.971 67.0178 163.529 66.8778C161.067 66.7781 158.673 66.731 156.346 66.7368C157.431 67.5888 158.517 68.4413 159.602 69.2933C161.7 70.94 163.798 72.5867 165.895 74.2329C166.395 74.6258 166.603 75.0594 166.508 75.5258C166.441 75.9803 166.131 76.3281 165.586 76.5767C165.015 76.8378 164.36 76.9322 163.63 76.8666C162.901 76.8011 162.305 76.5868 161.835 76.2175C159.859 74.667 157.884 73.1164 155.909 71.5658C153.923 70.0068 151.937 68.4478 149.951 66.8888Z" fill="#020101" fill-opacity="0.75"/>
<path id="5-warp" d="M153.389 104.479C154.99 103.164 156.76 102.302 158.767 101.839C160.771 101.414 162.817 101.386 164.907 101.754C166.971 102.143 168.847 102.938 170.467 104.195C170.962 104.579 171.19 105.039 171.143 105.581C171.118 106.14 170.818 106.657 170.249 107.125C169.679 107.593 169.038 107.851 168.331 107.892C167.644 107.953 167.071 107.777 166.603 107.371C165.687 106.578 164.605 106.065 163.382 105.811C162.158 105.559 160.94 105.572 159.727 105.85C158.489 106.148 157.379 106.701 156.371 107.53C156.365 107.534 156.359 107.539 156.354 107.544C155.331 108.388 154.617 109.335 154.185 110.405C153.727 111.5 153.569 112.619 153.709 113.762C153.85 114.905 154.288 115.947 155.048 116.869C155.825 117.811 156.769 118.438 157.902 118.729C159.052 119.042 160.283 119.019 161.594 118.661C162.87 118.327 164.112 117.665 165.297 116.695C165.304 116.69 165.311 116.684 165.317 116.679C167.577 114.821 169.837 112.964 172.098 111.106C172.693 110.617 173.331 110.344 174.019 110.282C174.728 110.238 175.329 110.409 175.815 110.801C178.793 113.207 181.771 115.614 184.748 118.02C185.234 118.412 185.426 118.919 185.315 119.55C185.205 120.179 184.801 120.781 184.108 121.351C181.472 123.518 178.836 125.684 176.199 127.851C173.579 130.005 170.958 132.159 168.337 134.313C167.676 134.857 166.97 135.149 166.227 135.185C165.502 135.242 164.965 135.036 164.61 134.572C164.272 134.131 164.207 133.555 164.407 132.851C164.577 132.172 164.991 131.562 165.657 131.015C168.177 128.944 170.698 126.872 173.218 124.801C174.982 123.351 176.744 121.902 178.508 120.453C176.745 118.864 174.982 117.274 173.219 115.686C171.579 117.033 169.939 118.381 168.299 119.729C168.292 119.735 168.285 119.741 168.278 119.746C166.22 121.434 164.062 122.596 161.871 123.179C159.661 123.809 157.625 123.847 155.763 123.292C153.889 122.782 152.386 121.681 151.183 120.045C149.997 118.431 149.354 116.623 149.18 114.68C148.985 112.755 149.239 110.893 149.941 109.094C150.637 107.339 151.759 105.824 153.372 104.493C153.378 104.489 153.383 104.484 153.389 104.479Z" fill="#020101" fill-opacity="0.75"/>
<path id="6-warp" d="M128.485 101.294C128.491 101.298 128.497 101.303 128.503 101.308C130.133 102.653 131.24 104.205 131.918 106.041C132.55 107.888 132.741 109.841 132.487 111.897C132.209 113.978 131.464 115.994 130.156 117.869C128.828 119.772 127.229 121.089 125.262 121.744C123.28 122.428 121.105 122.445 118.74 121.795C116.333 121.147 113.939 119.854 111.656 117.995C111.648 117.988 111.639 117.981 111.63 117.974C109.339 116.104 107.686 114.092 106.77 112.017C105.824 109.962 105.635 108.011 106.206 106.166C106.746 104.339 108.056 102.775 110.038 101.398C111.992 100.042 114.157 99.1776 116.433 98.7296C118.685 98.3033 120.862 98.2885 122.96 98.6835C125.035 99.1008 126.846 99.9461 128.485 101.294ZM125.33 104.485C125.324 104.481 125.317 104.475 125.311 104.47C124.268 103.619 123.14 103.078 121.893 102.822C120.587 102.565 119.262 102.592 117.916 102.904C116.546 103.237 115.275 103.845 114.138 104.755C112.976 105.688 112.218 106.716 111.898 107.867C111.578 109.018 111.676 110.21 112.194 111.445C112.676 112.647 113.572 113.786 114.847 114.833C114.855 114.84 114.863 114.846 114.871 114.853C116.16 115.905 117.528 116.618 118.943 116.962C120.327 117.281 121.639 117.244 122.878 116.847C124.089 116.428 125.137 115.641 126.055 114.512C126.953 113.41 127.517 112.226 127.78 110.988C127.995 109.753 127.912 108.572 127.53 107.447C127.099 106.323 126.378 105.345 125.33 104.485ZM124.977 121.83C118.52 123.763 111.386 125.152 103.576 125.997C102.438 126.12 101.286 126.231 100.119 126.332C98.7453 126.408 97.4941 125.987 96.395 125.091C95.5702 124.42 95.036 123.729 94.7998 123.024C94.5637 122.319 94.6277 121.731 94.9831 121.252C95.3006 120.741 95.9087 120.469 96.7924 120.419C101.67 120.116 106.308 119.621 110.707 118.934C111.493 118.811 112.269 118.682 113.04 118.548C117.199 119.788 121.179 120.882 124.977 121.83Z" fill="#020101" fill-opacity="0.75"/>
<path id="1-warp" d="M129.869 72.5437C129.596 72.7581 129.202 72.8139 128.67 72.7264C128.139 72.6382 127.636 72.4271 127.178 72.0783C120.54 67.0144 113.902 61.9501 107.263 56.8862C106.971 57.3187 106.683 57.7476 106.399 58.1735C105.914 58.899 105.441 59.6146 104.981 60.3205C104.635 60.839 104.243 61.276 103.794 61.6382C103.136 62.1698 102.41 62.5171 101.6 62.6949C100.82 62.8477 100.138 62.7849 99.5692 62.494C99.1558 62.2819 98.9062 61.9888 98.8293 61.6077C98.7516 61.2261 98.9136 60.7704 99.3164 60.2397C100.444 58.738 101.615 57.2009 102.828 55.628C103.587 54.6448 104.362 53.6477 105.155 52.6368C105.283 52.4645 105.421 52.3007 105.571 52.1455C105.72 51.9903 105.863 51.8575 105.999 51.747C106.782 51.1125 107.545 50.7507 108.274 50.6748C109.018 50.5517 109.602 50.7132 110.041 51.1462C116.519 57.52 122.996 63.8942 129.474 70.2681C129.874 70.6634 130.107 71.0894 130.189 71.5321C130.27 71.9754 130.169 72.308 129.869 72.5437Z" fill="#020101" fill-opacity="0.75"/>
</g>
<mask id="mask0_118_2448" style="mask-type:alpha" maskUnits="userSpaceOnUse" x="30" y="93" width="220" height="113">
<g id="Paper Base">
<path d="M30.9553 202.713L137.132 205.568L137.312 201.842L144.927 201.842L145.138 205.568L249.455 202.713L249.455 93.5959L141.305 93.5999L141.315 93.6301L138.84 93.6349L138.834 93.6L30.9545 93.5953L30.9549 147.304L31.0728 147.309L31.0378 148.501L30.9549 148.501L30.9553 202.713Z" fill="#FAF7F0"/>
<path d="M30.9553 202.713L137.132 205.568L137.312 201.842L144.927 201.842L145.138 205.568L249.455 202.713L249.455 93.5959L141.305 93.5999L141.315 93.6301L138.84 93.6349L138.834 93.6L30.9545 93.5953L30.9549 147.304L31.0728 147.309L31.0378 148.501L30.9549 148.501L30.9553 202.713Z" fill="url(#paint5_linear_118_2448)" fill-opacity="0.25"/>
</g>
</mask>
<g mask="url(#mask0_118_2448)">
</g>
</g>
<g id="top">
<path id="Center Crease" d="M140.928 13.4001L139.778 13.4008L139.778 165.707L140.928 165.706L142.078 165.706L142.078 13.3994L140.928 13.4001Z" fill="url(#paint6_linear_118_2448)" fill-opacity="0.5"/>
<g id="top back">
<g id="back left base">
<path d="M35.4559 4.52786L14.0186 90.3935L39.5873 90.6518L42.0663 90.3935L140.847 13.5698C140.847 13.5698 133.992 5.62191 120.586 4.60885C107.181 3.59578 35.4559 4.52786 35.4559 4.52786Z" fill="#EFE9DD"/>
<path d="M35.4559 4.52786L14.0186 90.3935L39.5873 90.6518L42.0663 90.3935L140.847 13.5698C140.847 13.5698 133.992 5.62191 120.586 4.60885C107.181 3.59578 35.4559 4.52786 35.4559 4.52786Z" fill="url(#paint7_linear_118_2448)"/>
</g>
<g id="back right base">
<path d="M251.232 4.68632L271.072 90.7963L244.094 90.7964L140.759 13.5598C140.759 13.5598 147.023 5.54287 160.902 4.5617C174.781 3.58054 251.232 4.68632 251.232 4.68632Z" fill="#EFE9DD"/>
<path d="M251.232 4.68632L271.072 90.7963L244.094 90.7964L140.759 13.5598C140.759 13.5598 147.023 5.54287 160.902 4.5617C174.781 3.58054 251.232 4.68632 251.232 4.68632Z" fill="url(#paint8_linear_118_2448)"/>
</g>
<g id="back left fold">
<path d="M14.3338 90.7668L42.1322 90.7668L35.4624 4.61995C35.6046 11.5429 -1.54428 75.5349 14.3338 90.7668Z" fill="#EFE9DD"/>
<path d="M14.3338 90.7668L42.1322 90.7668L35.4624 4.61995C35.6046 11.5429 -1.54428 75.5349 14.3338 90.7668Z" fill="url(#paint9_linear_118_2448)"/>
</g>
<g id="back right fold">
<path d="M271.494 90.6057L244.116 90.6058L251.058 4.8832C250.928 11.4672 283.475 75.6535 271.494 90.6057Z" fill="#EFE9DD"/>
<path d="M271.494 90.6057L244.116 90.6058L251.058 4.8832C250.928 11.4672 283.475 75.6535 271.494 90.6057Z" fill="url(#paint10_linear_118_2448)"/>
</g>
</g>
<g id="bottom left" filter="url(#filter2_d_118_2448)">
<g id="left">
<path d="M271.197 90.6324C271.197 90.6324 275.403 93.7064 275.404 101.909C275.405 110.112 249.62 175.986 249.62 175.986L140.988 165.92L244.287 90.6323L271.197 90.6324Z" fill="#EFE9DD"/>
<path d="M271.197 90.6324C271.197 90.6324 275.403 93.7064 275.404 101.909C275.405 110.112 249.62 175.986 249.62 175.986L140.988 165.92L244.287 90.6323L271.197 90.6324Z" fill="url(#paint11_linear_118_2448)"/>
</g>
<g id="Subtract_2">
<path d="M249.096 176.416C248.905 176.421 193.799 177.893 167.718 177.893C152.565 175.926 144.271 170.239 141.605 167.499L141.605 165.345L244.227 90.6113L249.096 176.416Z" fill="#EFE9DD"/>
<path d="M249.096 176.416C248.905 176.421 193.799 177.893 167.718 177.893C152.565 175.926 144.271 170.239 141.605 167.499L141.605 165.345L244.227 90.6113L249.096 176.416Z" fill="url(#paint12_linear_118_2448)" fill-opacity="0.5"/>
</g>
</g>
<g id="bottom right" filter="url(#filter3_d_118_2448)">
<g id="right">
<path d="M33.3184 179.9C33.3184 179.9 6.89544 123.767 6.90003 106.302C6.90462 88.8364 13.7445 90.395 13.7445 90.395L42.0297 90.4384L140.942 165.991C140.942 165.991 139.329 172.868 121.805 174.675C104.28 176.482 33.3184 179.9 33.3184 179.9Z" fill="#EFE9DD"/>
<path d="M33.3184 179.9C33.3184 179.9 6.89544 123.767 6.90003 106.302C6.90462 88.8364 13.7445 90.395 13.7445 90.395L42.0297 90.4384L140.942 165.991C140.942 165.991 139.329 172.868 121.805 174.675C104.28 176.482 33.3184 179.9 33.3184 179.9Z" fill="url(#paint13_linear_118_2448)"/>
</g>
<g id="Subtract_3">
<path d="M33.2186 179.898C30.5378 124.735 42.1793 90.6346 42.2128 90.5366L140.276 165.824C140.276 182.048 33.4289 179.902 33.2186 179.898Z" fill="#EFE9DD"/>
<path d="M33.2186 179.898C30.5378 124.735 42.1793 90.6346 42.2128 90.5366L140.276 165.824C140.276 182.048 33.4289 179.902 33.2186 179.898Z" fill="url(#paint14_linear_118_2448)" fill-opacity="0.5"/>
</g>
</g>
</g>
<g id="Fills">
<g id="V34 horizontal fills">
<path id="top right fill" d="M140.186 13.5371C140.186 13.5371 146.45 5.51928 160.329 4.53809C174.194 3.55792 250.504 4.66084 250.659 4.66309L251.902 10.0566C258.014 27.1885 281.357 77.561 270.922 90.584H270.455L270.499 90.7734H243.521L140.186 13.5371Z" fill="#E9D26D" fill-opacity="0.7"/>
</g>
<g id="V34 horizontal fills_2">
<path id="top left fill" d="M12.693 90.7676C-1.89095 76.965 27.6598 23.1248 33.2272 7.99023L34.1022 4.5293C34.1022 4.5293 106.802 3.59734 120.391 4.61035C133.979 5.62342 140.928 13.5713 140.928 13.5713L42.0875 90.7676L12.693 90.7676Z" fill="#B285CD" fill-opacity="0.7"/>
</g>
<g id="V34 horizontal fills_3">
<path id="bottom right fill" d="M167.629 177.566C152.477 175.6 144.182 169.913 141.516 167.174V165.651L140.899 165.594L141.516 165.145V165.02L244.139 90.2852L244.143 90.3477L244.199 90.3066H271.109C271.109 90.3066 275.314 93.3813 275.315 101.584C275.315 109.78 249.583 175.529 249.532 175.66L248.981 175.609L249.007 176.09C248.757 176.097 193.695 177.566 167.629 177.566Z" fill="#7AA86A" fill-opacity="0.7"/>
</g>
<g id="V34 horizontal fills_4">
<path id="bottom left fill" d="M133.67 172.072C110.209 181.447 33.6429 179.918 33.3652 179.912C33.3614 179.833 33.3593 179.753 33.3555 179.674C31.501 175.71 7.04149 123.116 7.0459 106.313C7.05051 88.8777 13.8678 90.4021 13.8906 90.4072L42.1758 90.4502L42.3496 90.583C42.3564 90.5629 42.3589 90.5513 42.3594 90.5498L52.7266 98.5088L141.089 166.003C141.089 166.003 140.769 167.36 138.878 169.027C137.737 170.135 135.999 171.132 133.774 172.03C133.74 172.044 133.705 172.058 133.67 172.072Z" fill="#649FC6" fill-opacity="0.7"/>
</g>
</g>
</g>
</g>
<defs>
<filter id="filter0_d_118_2448" x="11.7529" y="0.000782013" width="272.375" height="118.07" filterUnits="userSpaceOnUse" color-interpolation-filters="sRGB">
<feFlood flood-opacity="0" result="BackgroundImageFix"/>
<feColorMatrix in="SourceAlpha" type="matrix" values="0 0 0 0 0 0 0 0 0 0 0 0 0 0 0 0 0 0 127 0" result="hardAlpha"/>
<feOffset dx="4.6" dy="6.9"/>
<feGaussianBlur stdDeviation="10.35"/>
<feColorMatrix type="matrix" values="0 0 0 0 0.149 0 0 0 0 0.275 0 0 0 0 0.325 0 0 0 0.18 0"/>
<feBlend mode="normal" in2="BackgroundImageFix" result="effect1_dropShadow_118_2448"/>
<feBlend mode="normal" in="SourceGraphic" in2="effect1_dropShadow_118_2448" result="shape"/>
</filter>
<filter id="filter1_d_118_2448" x="15.2568" y="76.3484" width="259.862" height="117.457" filterUnits="userSpaceOnUse" color-interpolation-filters="sRGB">
<feFlood flood-opacity="0" result="BackgroundImageFix"/>
<feColorMatrix in="SourceAlpha" type="matrix" values="0 0 0 0 0 0 0 0 0 0 0 0 0 0 0 0 0 0 127 0" result="hardAlpha"/>
<feOffset dx="4.6" dy="6.9"/>
<feGaussianBlur stdDeviation="10.35"/>
<feColorMatrix type="matrix" values="0 0 0 0 0.149 0 0 0 0 0.275 0 0 0 0 0.325 0 0 0 0.18 0"/>
<feBlend mode="normal" in2="BackgroundImageFix" result="effect1_dropShadow_118_2448"/>
<feBlend mode="normal" in="SourceGraphic" in2="effect1_dropShadow_118_2448" result="shape"/>
</filter>
<filter id="filter2_d_118_2448" x="134.088" y="83.7113" width="157.416" height="110.281" filterUnits="userSpaceOnUse" color-interpolation-filters="sRGB">
<feFlood flood-opacity="0" result="BackgroundImageFix"/>
<feColorMatrix in="SourceAlpha" type="matrix" values="0 0 0 0 0 0 0 0 0 0 0 0 0 0 0 0 0 0 127 0" result="hardAlpha"/>
<feOffset dx="4.6" dy="4.6"/>
<feGaussianBlur stdDeviation="5.75"/>
<feComposite in2="hardAlpha" operator="out"/>
<feColorMatrix type="matrix" values="0 0 0 0 0.14902 0 0 0 0 0.27451 0 0 0 0 0.32549 0 0 0 0.25 0"/>
<feBlend mode="normal" in2="BackgroundImageFix" result="effect1_dropShadow_118_2448"/>
<feBlend mode="normal" in="SourceGraphic" in2="effect1_dropShadow_118_2448" result="shape"/>
</filter>
<filter id="filter3_d_118_2448" x="2.43187e-05" y="83.4594" width="157.042" height="112.635" filterUnits="userSpaceOnUse" color-interpolation-filters="sRGB">
<feFlood flood-opacity="0" result="BackgroundImageFix"/>
<feColorMatrix in="SourceAlpha" type="matrix" values="0 0 0 0 0 0 0 0 0 0 0 0 0 0 0 0 0 0 127 0" result="hardAlpha"/>
<feOffset dx="4.6" dy="4.6"/>
<feGaussianBlur stdDeviation="5.75"/>
<feComposite in2="hardAlpha" operator="out"/>
<feColorMatrix type="matrix" values="0 0 0 0 0.14902 0 0 0 0 0.27451 0 0 0 0 0.32549 0 0 0 0.25 0"/>
<feBlend mode="normal" in2="BackgroundImageFix" result="effect1_dropShadow_118_2448"/>
<feBlend mode="normal" in="SourceGraphic" in2="effect1_dropShadow_118_2448" result="shape"/>
</filter>
<linearGradient id="paint0_linear_118_2448" x1="111.051" y1="54.6492" x2="165.879" y2="50.7669" gradientUnits="userSpaceOnUse">
<stop stop-color="#635B4C" stop-opacity="0.75"/>
<stop offset="0.475962" stop-color="#635B4C"/>
<stop offset="1" stop-color="#635B4C" stop-opacity="0.5"/>
</linearGradient>
<linearGradient id="paint1_linear_118_2448" x1="118.925" y1="66.0132" x2="165.827" y2="67.7942" gradientUnits="userSpaceOnUse">
<stop stop-color="#635B4C" stop-opacity="0.5"/>
<stop offset="0.5" stop-color="#635B4C"/>
<stop offset="1" stop-color="#635B4C" stop-opacity="0.5"/>
</linearGradient>
<linearGradient id="paint2_linear_118_2448" x1="118.925" y1="66.0132" x2="165.827" y2="67.7942" gradientUnits="userSpaceOnUse">
<stop stop-color="#635B4C" stop-opacity="0.5"/>
<stop offset="0.5" stop-color="#635B4C"/>
<stop offset="1" stop-color="#635B4C" stop-opacity="0.5"/>
</linearGradient>
<linearGradient id="paint3_linear_118_2448" x1="91.9831" y1="88.7076" x2="91.9831" y2="91.3836" gradientUnits="userSpaceOnUse">
<stop stop-color="#635B4C" stop-opacity="0"/>
<stop offset="0.5" stop-color="#635B4C"/>
<stop offset="1" stop-color="#635B4C" stop-opacity="0"/>
</linearGradient>
<linearGradient id="paint4_linear_118_2448" x1="148.909" y1="92.4234" x2="148.909" y2="89.2968" gradientUnits="userSpaceOnUse">
<stop stop-color="#635B4C" stop-opacity="0"/>
<stop offset="0.464818" stop-color="#635B4C"/>
<stop offset="1" stop-color="#635B4C" stop-opacity="0"/>
</linearGradient>
<linearGradient id="paint5_linear_118_2448" x1="232.375" y1="149.789" x2="216.943" y2="127.968" gradientUnits="userSpaceOnUse">
<stop stop-color="#C9B99A" stop-opacity="0.06"/>
<stop offset="1" stop-color="#635B4C"/>
</linearGradient>
<linearGradient id="paint6_linear_118_2448" x1="142.202" y1="89.5531" x2="139.662" y2="89.5531" gradientUnits="userSpaceOnUse">
<stop stop-color="#635B4C" stop-opacity="0"/>
<stop offset="0.5" stop-color="#635B4C"/>
<stop offset="1" stop-color="#635B4C" stop-opacity="0"/>
</linearGradient>
<linearGradient id="paint7_linear_118_2448" x1="99.2804" y1="40.898" x2="42.5471" y2="101.275" gradientUnits="userSpaceOnUse">
<stop stop-color="#C9B99A" stop-opacity="0.06"/>
<stop offset="1" stop-color="#635B4C"/>
</linearGradient>
<linearGradient id="paint8_linear_118_2448" x1="182.959" y1="40.9015" x2="239.522" y2="103.382" gradientUnits="userSpaceOnUse">
<stop stop-color="#C9B99A" stop-opacity="0.06"/>
<stop offset="1" stop-color="#635B4C"/>
</linearGradient>
<linearGradient id="paint9_linear_118_2448" x1="56.0266" y1="99.2057" x2="61.1579" y2="59.8162" gradientUnits="userSpaceOnUse">
<stop stop-color="#635B4C" stop-opacity="0.5"/>
<stop offset="0.947115" stop-color="#635B4C" stop-opacity="0"/>
</linearGradient>
<linearGradient id="paint10_linear_118_2448" x1="210.931" y1="98.6299" x2="208.113" y2="72.3912" gradientUnits="userSpaceOnUse">
<stop stop-color="#635B4C" stop-opacity="0.5"/>
<stop offset="0.947115" stop-color="#635B4C" stop-opacity="0"/>
</linearGradient>
<linearGradient id="paint11_linear_118_2448" x1="181.058" y1="138.982" x2="231.722" y2="74.8243" gradientUnits="userSpaceOnUse">
<stop stop-color="#635B4C" stop-opacity="0"/>
<stop offset="1" stop-color="#635B4C"/>
</linearGradient>
<linearGradient id="paint12_linear_118_2448" x1="198.071" y1="151.347" x2="165.792" y2="93.023" gradientUnits="userSpaceOnUse">
<stop stop-color="#635B4C" stop-opacity="0.6"/>
<stop offset="1" stop-color="#635B4C" stop-opacity="0.3"/>
</linearGradient>
<linearGradient id="paint13_linear_118_2448" x1="100.197" y1="139.178" x2="44.971" y2="77.9833" gradientUnits="userSpaceOnUse">
<stop stop-color="#C9B99A" stop-opacity="0.06"/>
<stop offset="1" stop-color="#635B4C"/>
</linearGradient>
<linearGradient id="paint14_linear_118_2448" x1="88.7363" y1="117.509" x2="116.565" y2="179.167" gradientUnits="userSpaceOnUse">
<stop stop-color="#635B4C" stop-opacity="0.6"/>
<stop offset="1" stop-color="#635B4C" stop-opacity="0.3"/>
</linearGradient>
</defs>
</svg>
