<svg width="50" height="50" viewBox="0 0 50 50" fill="none" xmlns="http://www.w3.org/2000/svg">
<rect width="50" height="50" fill="#BEBEBE"/>
<g id="Decorate Mode">
<path d="M-64.7026 -1354.97V-1353.97H2955.3V-1354.97V-1355.97H-64.7026V-1354.97ZM2957.3 -1352.97H2956.3V2185.03H2957.3H2958.3V-1352.97H2957.3ZM2955.3 2187.03V2186.03H-64.7026V2187.03V2188.03H2955.3V2187.03ZM-66.7026 2185.03H-65.7026V-1352.97H-66.7026H-67.7026V2185.03H-66.7026ZM-64.7026 2187.03V2186.03C-65.2549 2186.03 -65.7026 2185.59 -65.7026 2185.03H-66.7026H-67.7026C-67.7026 2186.69 -66.3595 2188.03 -64.7026 2188.03V2187.03ZM2957.3 2185.03H2956.3C2956.3 2185.59 2955.85 2186.03 2955.3 2186.03V2187.03V2188.03C2956.95 2188.03 2958.3 2186.69 2958.3 2185.03H2957.3ZM2955.3 -1354.97V-1353.97C2955.85 -1353.97 2956.3 -1353.52 2956.3 -1352.97H2957.3H2958.3C2958.3 -1354.62 2956.95 -1355.97 2955.3 -1355.97V-1354.97ZM-64.7026 -1354.97V-1355.97C-66.3594 -1355.97 -67.7026 -1354.62 -67.7026 -1352.97H-66.7026H-65.7026C-65.7026 -1353.52 -65.255 -1353.97 -64.7026 -1353.97V-1354.97Z" fill="black" fill-opacity="0.1"/>
<g id="Stickers">
<rect x="-12.6938" y="-482.466" width="374" height="551" rx="4.5" stroke="#9747FF" stroke-dasharray="10 5"/>
<g id="Property 1=pineapple">
<g id="Frame 212">
<path id="Vector (Stroke) (Stroke)" d="M19.6928 5.96361C19.7582 5.86514 19.8706 5.80837 19.9888 5.81437C20.039 5.81692 20.0935 5.81949 20.1669 5.83333L20.1668 5.83338H20.167C21.7155 6.12602 22.7279 6.99264 23.5814 8.08287C23.6603 7.83297 23.7545 7.5423 23.8518 7.25969C23.9576 6.95243 24.0694 6.64784 24.1706 6.41399C24.2206 6.29836 24.2723 6.19003 24.3233 6.10486C24.3483 6.06297 24.3793 6.01629 24.4163 5.97486C24.4437 5.94407 24.518 5.8648 24.6379 5.8373L24.6424 5.83632L24.6546 5.83394L24.6592 5.83314C24.7662 5.81579 24.8755 5.85131 24.952 5.92946C25.0203 5.99921 25.0735 6.10277 25.1089 6.17553C25.1516 6.26331 25.1981 6.37178 25.246 6.49083C25.3421 6.72971 25.4508 7.02897 25.5551 7.32914C25.6424 7.58025 25.7275 7.83492 25.8011 8.0597C26.556 7.05141 27.6152 6.30246 28.8313 5.9303L28.8314 5.93026C28.8314 5.93026 28.8318 5.93018 28.832 5.93011C28.8324 5.92998 28.8333 5.92972 28.8343 5.92941L28.8801 5.91559C28.9352 5.89904 29.0151 5.87596 29.0937 5.86098C29.1476 5.85073 29.2132 5.84166 29.2815 5.84249L29.3071 5.84323C29.3699 5.84632 29.4531 5.85934 29.535 5.90382C29.5816 5.92914 29.6084 5.97655 29.6098 6.02601C29.6518 6.06666 29.6877 6.119 29.7043 6.18389C29.7086 6.20072 29.7098 6.2182 29.7079 6.23546C29.7024 6.28401 29.6864 6.32976 29.6621 6.37018C29.6617 6.37095 29.6613 6.37174 29.6608 6.37251L29.6569 6.37914L29.6569 6.37919C29.6529 6.38595 29.6469 6.39605 29.6392 6.40918L29.5741 6.52035C29.5198 6.61315 29.4469 6.73813 29.3724 6.86605C29.2198 7.12838 29.071 7.38579 29.0517 7.42285C29.0514 7.4234 29.051 7.42393 29.0507 7.42448C28.911 7.69362 28.7776 7.95904 28.6563 8.22594C30.3025 7.05886 32.2613 6.51678 34.2963 6.79842C34.4369 6.81789 34.5501 6.92402 34.5784 7.06322C34.6068 7.20235 34.5443 7.34432 34.4225 7.41733C34.2613 7.51388 34.0956 7.60264 33.9379 7.68737C33.7778 7.77337 33.6253 7.8555 33.4781 7.94395C33.4777 7.94419 33.4773 7.94437 33.4769 7.9446C31.8402 8.92866 30.6343 10.3823 29.6669 12.0413C30.506 11.6588 31.4053 11.3837 32.337 11.2939C33.267 11.2043 34.5297 11.2641 35.4243 11.7615C35.5459 11.8291 35.613 11.965 35.5928 12.1026C35.5727 12.2403 35.4694 12.3512 35.3336 12.3811C33.3853 12.8099 31.8184 13.8057 30.5152 15.236C31.244 15.0473 31.9267 14.9616 32.8369 14.9929C33.3951 15.0121 34.0434 15.1098 34.6544 15.3102C35.2621 15.5094 35.8584 15.8186 36.2848 16.2773C36.3704 16.3695 36.3971 16.5019 36.354 16.62C36.3109 16.7381 36.2052 16.8223 36.0803 16.8376C35.8997 16.8597 35.7137 16.8695 35.5383 16.8777C35.3587 16.886 35.1916 16.8927 35.0303 16.9076C33.8308 17.0185 32.4943 17.414 31.3986 18.0383C32.6089 18.1632 33.8928 18.6376 34.6351 19.6783C34.7111 19.7849 34.7181 19.926 34.6529 20.0395C34.5877 20.153 34.4623 20.2181 34.332 20.2061C33.2332 20.1054 32.1777 20.1348 31.2006 20.4717C31.7922 20.6276 32.3763 20.8829 32.8458 21.222L32.9025 21.2638L32.9031 21.2642L32.9422 21.2939L32.9428 21.2943C33.7813 21.9379 34.5002 22.9061 34.6741 24.0091C34.695 24.1415 34.6349 24.2737 34.5213 24.3449C34.4078 24.4161 34.2627 24.4128 34.1525 24.3364C33.3537 23.7821 32.7003 23.4513 32.0238 23.2913C31.6102 23.1935 31.1779 23.1573 30.6865 23.1801C31.6312 23.8312 32.2591 24.7361 32.4516 26.0201L32.4532 26.0327C32.4677 26.1626 32.4051 26.2896 32.2923 26.3571C32.1795 26.4246 32.038 26.4196 31.9304 26.3454L31.9201 26.338C31.3931 25.9445 30.9387 25.697 30.4199 25.5354L30.466 25.595L30.4685 25.5983L30.5133 25.6586C31.451 26.9272 32.1324 28.3666 32.5191 29.8965L32.558 30.0473C33.352 33.1905 33.1721 36.2944 31.5158 39.1709L31.4758 39.2399C31.474 39.2428 31.4723 39.2457 31.4706 39.2484C31.1232 39.8039 30.7197 40.3224 30.2662 40.7956L30.2661 40.7955C30.2659 40.7958 30.265 40.7968 30.2641 40.7977L30.264 40.7978C28.8105 42.2868 26.8256 43.1382 24.7448 43.1648C24.7443 43.1649 24.7437 43.1649 24.7432 43.1649C22.7628 43.195 20.7012 42.3365 19.3111 40.9638C16.3506 38.0401 15.7817 33.5389 16.9231 29.7324L16.9713 29.5739C17.4283 28.0886 18.0042 26.7668 18.9409 25.5664C18.4307 25.7267 17.9953 25.9476 17.464 26.3342C17.3577 26.4116 17.2163 26.4194 17.1025 26.3551L17.0916 26.3487C16.976 26.2775 16.9147 26.1436 16.9366 26.0096C16.9694 25.8086 17.0179 25.6108 17.0819 25.4176L17.1002 25.3628C17.4381 24.369 17.9821 23.7033 18.7317 23.1793C18.2304 23.1496 17.7712 23.1892 17.3313 23.2957C16.6525 23.46 16 23.7881 15.296 24.2979L15.2277 24.3478C15.1175 24.429 14.9688 24.435 14.8525 24.3628C14.7362 24.2906 14.6755 24.1548 14.6993 24.0199L14.713 23.9466C14.8603 23.1941 15.1998 22.5853 15.6904 22.018L15.691 22.0173L15.7354 21.9665L15.7361 21.9658C16.4315 21.1827 17.263 20.7172 18.197 20.4798C17.2472 20.142 16.3253 20.0742 15.2135 20.1997L15.0887 20.2145C14.9587 20.2306 14.8312 20.1694 14.7625 20.058C14.6938 19.9465 14.6963 19.8051 14.7691 19.6961C14.9166 19.4754 15.0945 19.2765 15.2974 19.1053C16.0423 18.4654 16.9913 18.1263 17.9441 18.0229C16.972 17.4784 15.8365 17.092 14.7918 16.9534L14.7259 16.9449C14.2461 16.8858 13.8392 16.8783 13.3302 16.8444C13.1999 16.8357 13.0866 16.7522 13.0398 16.6303C12.9931 16.5085 13.0213 16.3705 13.1124 16.2769L13.1507 16.2382C13.9634 15.4322 15.2151 15.0909 16.2477 15.0085C17.1477 14.9366 18.0156 15.0259 18.8622 15.2331C17.5756 13.7974 15.9683 12.8017 14.0399 12.3806C13.9056 12.3513 13.8034 12.2431 13.781 12.1084L13.7791 12.0953C13.7614 11.9546 13.8342 11.818 13.961 11.7543C14.7164 11.3749 15.5608 11.2696 16.3481 11.2626C17.558 11.2519 18.6797 11.5652 19.7302 12.0457C18.7604 10.3683 17.4282 8.83879 15.7956 7.87837C15.6765 7.8083 15.5542 7.74514 15.4187 7.67321C15.287 7.60325 15.1458 7.52656 15.0083 7.43737C15.0076 7.43691 15.007 7.43646 15.0066 7.4362C15.0065 7.43611 15.0063 7.43605 15.0062 7.43597C15.0064 7.43611 15.0067 7.4363 15.007 7.43653L14.9784 7.4178C14.8648 7.34332 14.8073 7.20747 14.8332 7.07401C14.8591 6.94049 14.9632 6.83597 15.0965 6.80939C15.2736 6.77407 15.4536 6.75767 15.6155 6.74582C17.4447 6.61193 19.2301 7.17979 20.7142 8.20226C20.7278 8.21161 20.7413 8.22111 20.7548 8.23061C20.5948 7.87192 20.4159 7.5216 20.2189 7.18116C20.2189 7.18108 20.2188 7.18097 20.2188 7.18088C20.1506 7.06282 20.0543 6.92031 19.949 6.76026C19.8502 6.60996 19.7406 6.44017 19.6702 6.29436C19.6188 6.18787 19.6274 6.06212 19.6928 5.96361ZM29.4993 6.3436L29.499 6.34369C29.4993 6.34345 29.4996 6.34319 29.4999 6.34294C29.4997 6.34314 29.4995 6.3434 29.4993 6.3436Z" fill="#020101"/>
<path id="Vector (Stroke) (Stroke) (Stroke)" d="M20.066 4.28572L20.2101 4.29528C20.2752 4.30138 20.3559 4.31188 20.4463 4.32877C20.4478 4.32906 20.4495 4.32907 20.4511 4.32936C21.4534 4.51879 22.2779 4.89697 22.9748 5.38046C22.9864 5.35995 22.9979 5.33922 23.01 5.31888L23.1123 5.16044C23.1562 5.09793 23.2101 5.02796 23.2737 4.95656L23.3813 4.84355C23.5385 4.69192 23.844 4.44914 24.2955 4.34551L24.317 4.34072L24.3218 4.33953L24.3607 4.33175C24.3704 4.32987 24.3803 4.32808 24.39 4.32637L24.3948 4.32578C24.4011 4.32466 24.4075 4.32322 24.4139 4.32219C25.0101 4.22549 25.6194 4.42362 26.0456 4.8591H26.0462C26.2313 5.04834 26.3582 5.26245 26.4276 5.39302C27.0258 4.99534 27.6825 4.68207 28.3809 4.46807V4.46748C28.3848 4.46629 28.3887 4.4654 28.3917 4.46449L28.4377 4.45014L28.4395 4.44954V4.45074C28.4391 4.45084 28.4385 4.45112 28.4377 4.45133V4.45193C28.4438 4.45033 28.4496 4.44808 28.4557 4.44655H28.4545C28.4533 4.44685 28.4517 4.44738 28.4503 4.44775C28.4476 4.44844 28.4438 4.44961 28.4395 4.45074V4.44954C28.502 4.43077 28.6459 4.3882 28.8072 4.35746C28.9165 4.33666 29.092 4.30952 29.2999 4.31202L29.3513 4.31322L29.3818 4.31442C29.5807 4.32418 29.913 4.36742 30.2655 4.55896L30.366 4.61755C30.6324 4.78694 30.8341 5.02138 30.965 5.286C30.9989 5.34026 31.0298 5.39863 31.0595 5.45998C32.1611 5.1891 33.321 5.11846 34.5058 5.28241C35.2407 5.38412 35.8407 5.91009 36.043 6.61452L36.0782 6.75742L36.1016 6.90271C36.1851 7.58097 35.8903 8.25289 35.3327 8.64976L35.2089 8.73047C35.0117 8.84862 34.8138 8.95469 34.6624 9.036C34.5801 9.08023 34.5087 9.11871 34.4442 9.15438L34.266 9.25602H34.2648L34.2654 9.25662C34.0193 9.40458 33.7832 9.56634 33.5563 9.74151C34.4048 9.78898 35.3528 9.97047 36.1679 10.4237L36.2917 10.499C36.8508 10.8692 37.1685 11.5125 37.1228 12.1809L37.1072 12.3244C36.9948 13.0917 36.4194 13.7093 35.6627 13.876C35.5675 13.8969 35.473 13.9193 35.3799 13.9435C36.0639 14.1966 36.8123 14.5968 37.4056 15.235C37.8532 15.7166 38.0121 16.3953 37.8325 17.0203L37.7918 17.1447C37.5517 17.8023 36.963 18.2711 36.2666 18.3566C36.0224 18.3865 35.784 18.3987 35.6095 18.4068C35.5988 18.4073 35.5881 18.4075 35.5778 18.408C35.6835 18.5282 35.785 18.655 35.8809 18.7895L35.9563 18.9031C36.308 19.4809 36.3207 20.2091 35.9802 20.802C35.8039 21.1089 35.548 21.3513 35.249 21.5129C35.7037 22.1616 36.0521 22.9221 36.1859 23.7705L36.2026 23.9086C36.2556 24.5524 35.9708 25.1794 35.4499 25.563L35.3345 25.6413C34.9222 25.8999 34.4353 25.981 33.976 25.8889C34.0362 26.5054 33.786 27.1061 33.3178 27.4984C33.5966 28.1504 33.8262 28.8239 34.0012 29.5145L34.04 29.6658L34.0418 29.6724C34.9119 33.1165 34.7362 36.6446 32.8418 39.9346L32.8394 39.9388L32.7994 40.0082L32.797 40.013C32.7881 40.0282 32.7784 40.0441 32.7683 40.0602L32.7677 40.0596C32.3701 40.6953 31.9092 41.2892 31.3913 41.8324V41.833C31.3909 41.8334 31.3906 41.8342 31.3902 41.8347C31.3875 41.8377 31.383 41.8416 31.3782 41.8467C31.3772 41.8477 31.3757 41.8485 31.3746 41.8497L31.3752 41.8503C31.3738 41.8518 31.3724 41.8536 31.371 41.8551C31.3691 41.8571 31.3664 41.8584 31.3644 41.8605C31.3626 41.8624 31.3611 41.8649 31.3591 41.867C29.631 43.6373 27.2741 44.6525 24.8013 44.6939C24.8076 44.6937 24.8134 44.6935 24.8187 44.6933C24.812 44.6936 24.8044 44.6936 24.796 44.6939C24.7922 44.6939 24.7884 44.6944 24.7846 44.6945C24.7789 44.6946 24.7729 44.6956 24.7667 44.6957C22.3632 44.7322 19.9086 43.7053 18.2353 42.053C14.7685 38.6293 14.1991 33.4871 15.4568 29.2927L15.4586 29.2873L15.5065 29.1289L15.5083 29.1241C15.6773 28.5747 15.8654 28.0342 16.084 27.5044C15.6108 27.1161 15.3546 26.5177 15.4078 25.9032C14.9487 25.9984 14.4602 25.921 14.0452 25.6635C13.3971 25.2613 13.059 24.5047 13.192 23.7532L13.1944 23.74L13.2082 23.6665L13.2105 23.6527C13.3733 22.8212 13.7054 22.1238 14.1421 21.5123C13.868 21.3601 13.6311 21.1393 13.4599 20.8618L13.4593 20.8612C13.0766 20.2405 13.0906 19.4528 13.4963 18.8457L13.5836 18.7195C13.6617 18.6111 13.7453 18.5069 13.833 18.4062C13.6621 18.3969 13.4705 18.3877 13.2285 18.3715C12.5487 18.3263 11.9507 17.9148 11.6638 17.3037L11.6106 17.1787C11.3504 16.5004 11.5076 15.7311 12.0153 15.2093C12.0184 15.2061 12.0218 15.2028 12.0249 15.1997L12.0632 15.1608C12.0663 15.1576 12.0696 15.1544 12.0727 15.1513C12.6402 14.5886 13.3217 14.2051 14.0081 13.9465C13.9109 13.9212 13.8126 13.8976 13.7134 13.876C12.9654 13.7126 12.3954 13.1098 12.2707 12.3591C12.269 12.3492 12.2679 12.3391 12.2665 12.3292L12.2641 12.3161C12.2626 12.3062 12.2617 12.2961 12.2605 12.2862C12.162 11.5029 12.5672 10.7416 13.2739 10.3866L13.4724 10.2922C14.2737 9.93017 15.098 9.79403 15.8263 9.75048C15.5655 9.54636 15.2964 9.3605 15.0192 9.19743C14.9375 9.14937 14.8578 9.10877 14.7005 9.02523C14.5983 8.97099 14.465 8.89939 14.3214 8.81298L14.1749 8.7215C14.1725 8.7199 14.1701 8.71826 14.1678 8.71672L14.1397 8.69819H14.1391C13.506 8.28329 13.186 7.52621 13.3301 6.78253H13.3307C13.4751 6.03841 14.0547 5.45616 14.7968 5.30812L14.9982 5.27344C15.1946 5.24369 15.3724 5.22863 15.5035 5.21903C16.4413 5.15038 17.362 5.2361 18.2436 5.44563C18.2899 5.33185 18.3482 5.22196 18.4176 5.11739L18.4888 5.01694C18.8353 4.56278 19.3718 4.29187 19.9434 4.28333L20.066 4.28572ZM24.7852 44.6951L24.7846 44.6945C24.7885 44.6944 24.7923 44.694 24.796 44.6939C24.7978 44.6939 24.7995 44.6939 24.8013 44.6939C24.7963 44.6941 24.7908 44.6949 24.7852 44.6951ZM24.851 44.6915C24.8481 44.6917 24.8442 44.6918 24.8396 44.6921C24.8407 44.692 24.8417 44.6922 24.8426 44.6921C24.8484 44.6917 24.8532 44.6917 24.8558 44.6915H24.851ZM19.9889 5.81454C19.8709 5.80855 19.7583 5.86511 19.6929 5.96341C19.6275 6.06192 19.6188 6.18815 19.6702 6.29465C19.7406 6.44039 19.85 6.61021 19.9488 6.76041C20.054 6.92035 20.1503 7.06272 20.2185 7.18073L20.2191 7.18132C20.416 7.52169 20.5948 7.87202 20.7548 8.23063C20.7413 8.22117 20.7276 8.21185 20.7141 8.20253C19.2301 7.18006 17.4445 6.61216 15.6153 6.74606C15.4534 6.7579 15.2735 6.77411 15.0963 6.80943C14.963 6.83602 14.8591 6.94079 14.8332 7.0743C14.8075 7.20768 14.8649 7.34365 14.9785 7.41809L15.0066 7.43663L15.006 7.43603H15.0066C15.007 7.43629 15.0077 7.43677 15.0084 7.43722C15.1459 7.52637 15.2869 7.60345 15.4186 7.67339C15.554 7.74528 15.6762 7.80844 15.7952 7.87847C17.4279 8.83889 18.7601 10.3684 19.73 12.0458C18.6795 11.5653 17.5576 11.2518 16.3477 11.2626C15.5606 11.2696 14.7162 11.3747 13.9609 11.754C13.8341 11.8177 13.7614 11.9548 13.7791 12.0954L13.7809 12.1086C13.8034 12.2432 13.9056 12.3513 14.0398 12.3806C15.9682 12.8017 17.5753 13.7975 18.8618 15.2332C18.0153 15.0259 17.1472 14.9365 16.2473 15.0084C15.2147 15.0909 13.9633 15.4324 13.1508 16.2382L13.1125 16.2771C13.0214 16.3707 12.9928 16.5086 13.0395 16.6305C13.0863 16.7523 13.1999 16.8358 13.3301 16.8445C13.8391 16.8784 14.2459 16.8859 14.7256 16.945L14.7914 16.9533C15.8361 17.092 16.972 17.4784 17.9441 18.023C16.9913 18.1263 16.0422 18.4654 15.2972 19.1052C15.0943 19.2764 14.9162 19.4751 14.7687 19.6959C14.6959 19.8048 14.6934 19.9468 14.7621 20.0582C14.8308 20.1696 14.9585 20.2304 15.0885 20.2142L15.2135 20.1999C16.3252 20.0745 17.2472 20.142 18.197 20.4797C17.263 20.7171 16.4315 21.1829 15.7361 21.9661L15.7355 21.9667L15.6906 22.0175L15.69 22.0181C15.1995 22.5854 14.8603 23.1944 14.7131 23.9469L14.6993 24.0199L14.6939 24.0707C14.6912 24.1879 14.7507 24.2999 14.8524 24.363C14.9687 24.4351 15.1176 24.4287 15.2278 24.3475L15.296 24.2979C15.9999 23.7882 16.6524 23.4601 17.3312 23.2958C17.7711 23.1893 18.2303 23.1495 18.7315 23.1792C17.982 23.7032 17.4378 24.3689 17.0999 25.3627L17.0819 25.4177C17.018 25.6109 16.9694 25.8087 16.9366 26.0097C16.9148 26.1436 16.9759 26.2775 17.0915 26.3487L17.1022 26.3552C17.216 26.4195 17.3576 26.4117 17.464 26.3343C17.9952 25.9477 18.4306 25.7269 18.9408 25.5666C18.0042 26.767 17.4283 28.0885 16.9713 29.5737L16.9229 29.7321C15.7815 33.5386 16.3504 38.0399 19.3109 40.9636C20.6576 42.2935 22.6347 43.1408 24.5574 43.1651H24.7445C26.7603 43.1393 28.6863 42.3392 30.1262 40.9355L30.2661 40.7956C30.7197 40.3225 31.1229 39.8038 31.4703 39.2483L31.4756 39.2399L31.5157 39.1711C33.1202 36.3846 33.3393 33.3844 32.6296 30.342L32.5578 30.0472L32.519 29.8966C32.1323 28.3667 31.4508 26.9273 30.513 25.6587L30.4682 25.5983L30.4658 25.5947L30.4198 25.5355C30.9385 25.697 31.393 25.9445 31.9199 26.3379L31.93 26.3457C32.0376 26.4199 32.1796 26.4245 32.2924 26.357C32.405 26.2896 32.4676 26.1627 32.4532 26.033L32.4514 26.0198C32.2589 24.7361 31.631 23.8314 30.6864 23.1804C31.1778 23.1575 31.6104 23.1939 32.0239 23.2916C32.7003 23.4516 33.3537 23.782 34.1524 24.3361C34.2487 24.403 34.3718 24.4143 34.4771 24.3684L34.5213 24.3451C34.6349 24.2739 34.6947 24.1415 34.6738 24.0091C34.4998 22.9061 33.7814 21.9377 32.9429 21.2941H32.9423L32.9028 21.2642L32.9022 21.2636L32.8454 21.2217C32.376 20.8828 31.7921 20.6278 31.2006 20.4719C32.1776 20.1351 33.2331 20.1052 34.3318 20.2059C34.4458 20.2163 34.5559 20.168 34.6254 20.0797L34.6529 20.0397C34.7099 19.9403 34.7114 19.8197 34.66 19.7198L34.6349 19.6785C33.8926 18.6379 32.6088 18.1634 31.3985 18.0385C32.4257 17.4532 33.6644 17.0689 34.8035 16.9318L35.0301 16.9079C35.1107 16.9004 35.1927 16.8945 35.2771 16.89L35.5383 16.8774C35.7137 16.8692 35.8996 16.8595 36.08 16.8373C36.1893 16.8239 36.2839 16.7581 36.3347 16.6628L36.3539 16.6203C36.397 16.5022 36.3702 16.3693 36.2845 16.2771C35.9114 15.8758 35.4083 15.5887 34.8813 15.3898L34.6541 15.3103C34.0432 15.11 33.3951 15.012 32.8371 14.9928C31.9268 14.9616 31.2436 15.0474 30.5148 15.2362C31.752 13.8784 33.2272 12.9125 35.0403 12.4512L35.3333 12.3812C35.4522 12.355 35.5463 12.2667 35.5814 12.1528L35.5928 12.1026C35.6104 11.9822 35.5612 11.8631 35.4672 11.7899L35.4242 11.7612C34.5296 11.2639 33.2665 11.2041 32.3366 11.2936C31.405 11.3834 30.5055 11.6586 29.6664 12.041C30.6338 10.3821 31.8402 8.92888 33.4768 7.94484L33.478 7.94424C33.5516 7.90003 33.6263 7.85682 33.7028 7.8145L33.9378 7.68714C34.0209 7.64248 34.1062 7.59649 34.1919 7.54903L34.4221 7.41749C34.544 7.34448 34.6065 7.20207 34.5781 7.06294C34.5532 6.94122 34.4636 6.84462 34.3473 6.80943L34.2959 6.79867C32.261 6.51708 30.3022 7.0588 28.656 8.22585C28.7773 7.95901 28.9109 7.69375 29.0506 7.42467C29.0509 7.42412 29.0515 7.42343 29.0518 7.42287C29.0713 7.38552 29.2198 7.12831 29.3723 6.86623C29.4466 6.73845 29.5195 6.61342 29.5737 6.52065L29.6389 6.40944C29.6466 6.39631 29.6528 6.38571 29.6569 6.37895L29.6604 6.37237C29.6609 6.3716 29.6618 6.37075 29.6622 6.36998C29.6864 6.32963 29.7022 6.2839 29.7077 6.23545C29.7096 6.21824 29.7084 6.20082 29.7041 6.18403C29.6875 6.11919 29.6516 6.06683 29.6096 6.02619C29.6082 5.97673 29.5815 5.92895 29.5349 5.90362C29.4531 5.8592 29.3699 5.84633 29.3071 5.84323L29.2814 5.84264C29.2131 5.84181 29.1475 5.85092 29.0936 5.86117C29.0151 5.87613 28.9353 5.89904 28.8802 5.91558L28.8341 5.92933C28.8331 5.92963 28.8322 5.9298 28.8318 5.92993L28.8312 5.93053C27.6151 6.30269 26.5559 7.05142 25.801 8.05963C25.7275 7.83487 25.642 7.58009 25.5547 7.329C25.4504 7.0289 25.3417 6.72958 25.2456 6.49076C25.2216 6.43128 25.198 6.37448 25.175 6.32155L25.1087 6.17566C25.0733 6.1029 25.0203 5.99908 24.952 5.92933C24.8755 5.8512 24.766 5.81574 24.659 5.83307L24.6543 5.83367L24.6423 5.83606L24.6375 5.83726C24.518 5.86474 24.4438 5.94389 24.4163 5.97477C24.3794 6.0162 24.3481 6.06323 24.323 6.10511C24.2721 6.19025 24.2206 6.2987 24.1706 6.41422L24.0928 6.60137C24.0137 6.8001 23.9312 7.02917 23.8519 7.25965C23.7546 7.54227 23.6599 7.83306 23.581 8.08295C22.7276 6.9928 21.7154 6.12635 20.1671 5.83367L20.1665 5.83307C20.0934 5.81931 20.039 5.81708 19.9889 5.81454ZM31.3913 41.8336C31.3903 41.8347 31.3882 41.8365 31.386 41.8389C31.3839 41.8411 31.3801 41.8452 31.3752 41.8503C31.3808 41.8445 31.3858 41.8382 31.3913 41.8324V41.8336ZM34.2176 9.28352C34.2108 9.2873 34.2048 9.29092 34.1997 9.29369C34.1921 9.29771 34.1858 9.30116 34.1817 9.30326L34.1925 9.29787C34.1989 9.29449 34.2071 9.28957 34.217 9.28412L34.2176 9.28352ZM14.3029 8.79564C14.3 8.79416 14.2974 8.79236 14.2945 8.79086C14.2909 8.78895 14.2865 8.78672 14.282 8.78428C14.2694 8.77752 14.2514 8.76781 14.2306 8.75558C14.2148 8.74634 14.1961 8.73459 14.1749 8.72091C14.1922 8.73206 14.208 8.74233 14.2222 8.7508C14.241 8.76204 14.2579 8.77103 14.2712 8.7783C14.2844 8.78551 14.295 8.79185 14.3023 8.79564H14.3029ZM32.7073 6.6211C32.7182 6.61479 32.7282 6.60962 32.7366 6.60495C32.7389 6.6037 32.7411 6.60252 32.7432 6.60137C32.7443 6.60072 32.7451 6.59961 32.7462 6.59897C32.7406 6.60199 32.7344 6.60593 32.7276 6.60974C32.7215 6.61321 32.7146 6.61686 32.7073 6.6211ZM15.8503 6.15952C15.8517 6.16047 15.853 6.16156 15.8544 6.16251L15.8556 6.16311L15.858 6.1649C15.8568 6.16412 15.8557 6.16332 15.8544 6.16251H15.855L15.8461 6.15653C15.8475 6.15747 15.8488 6.15858 15.8503 6.15952ZM15.8532 6.16131L15.852 6.16072C15.8514 6.16032 15.8508 6.15992 15.8503 6.15952C15.8512 6.16016 15.8523 6.16067 15.8532 6.16131ZM15.7857 6.11886C15.7843 6.11803 15.7829 6.11727 15.7815 6.11647C15.7729 6.1114 15.7644 6.10689 15.757 6.10272C15.7656 6.10759 15.7754 6.11277 15.7857 6.11886ZM15.7008 6.07223C15.7029 6.07333 15.7061 6.07511 15.7097 6.07701C15.7108 6.07756 15.7121 6.07818 15.7133 6.07881C15.7089 6.07651 15.7052 6.07417 15.7026 6.07283C15.7012 6.07212 15.6999 6.07152 15.699 6.07103C15.6996 6.07132 15.7001 6.07187 15.7008 6.07223ZM28.3833 4.46688V4.46927C28.3864 4.46835 28.3893 4.46719 28.3923 4.46628L28.3917 4.46449C28.389 4.4653 28.3862 4.46601 28.3833 4.46688ZM28.4001 4.4621L28.4007 4.46389C28.4131 4.46023 28.4252 4.45527 28.4377 4.45193V4.45133C28.4323 4.45278 28.4183 4.45675 28.4001 4.4621ZM32.6995 6.62648C32.7001 6.62613 32.7007 6.62563 32.7013 6.62528C32.7035 6.62403 32.7053 6.62229 32.7073 6.6211C32.7047 6.62264 32.7023 6.62484 32.6995 6.62648ZM28.4025 5.27583C28.3905 5.28813 28.3806 5.29934 28.3726 5.30812C28.3809 5.29907 28.3912 5.28746 28.4037 5.27464L28.4025 5.27583Z" fill="#E8E7E7"/>
<path id="Vector (Stroke) (Stroke) (Stroke) (Stroke)" d="M24.8344 45.6111V45.6123H24.8332C24.8261 45.6126 24.8177 45.6132 24.8092 45.6135C24.8045 45.6136 24.7997 45.6122 24.7949 45.6123C24.7904 45.6124 24.7854 45.6134 24.7805 45.6135C22.1232 45.6538 19.4334 44.5265 17.5903 42.7065C13.819 38.9821 13.2498 33.4548 14.5769 29.029L14.5852 29.0027L14.6271 28.864L14.6462 28.8066C14.7605 28.4378 14.883 28.0697 15.0193 27.7041C14.8251 27.4383 14.679 27.1403 14.5888 26.824C14.2319 26.7673 13.8823 26.6426 13.5616 26.4437C12.5944 25.8435 12.0897 24.7143 12.2881 23.593V23.5894L12.2905 23.5762L12.2917 23.5714L12.3061 23.4973V23.4949L12.3096 23.4758C12.4386 22.8174 12.6589 22.2311 12.9434 21.7024C12.847 21.5911 12.757 21.4718 12.6779 21.3437L12.5775 21.1667C12.2449 20.5274 12.1783 19.7915 12.373 19.1135C11.7023 18.8612 11.1445 18.3578 10.8328 17.6941C10.8281 17.684 10.8229 17.6733 10.8185 17.663L10.7527 17.5076C10.3645 16.4953 10.6001 15.3471 11.3578 14.5683C11.3618 14.5642 11.3648 14.5601 11.3674 14.5576C11.3696 14.5553 11.3721 14.554 11.3733 14.5528L11.3745 14.5504H11.3757L11.4092 14.5169L11.4104 14.5145C11.4157 14.5091 11.4212 14.5037 11.426 14.499C11.6316 14.295 11.8491 14.113 12.0729 13.9489C11.7082 13.5567 11.4564 13.0595 11.365 12.5092C11.3632 12.4983 11.3613 12.4884 11.3602 12.4805C11.3596 12.4773 11.3595 12.4741 11.359 12.4709C11.3587 12.4684 11.358 12.4665 11.3578 12.4649V12.4613C11.3571 12.457 11.356 12.4525 11.3554 12.4482C11.3525 12.4279 11.3502 12.4108 11.3494 12.4039V12.4004C11.2027 11.2317 11.8075 10.0961 12.8621 9.56633L12.8788 9.55796L13.0773 9.46349L13.0941 9.45512C13.2059 9.40459 13.3183 9.35827 13.4301 9.31522C12.6238 8.67428 12.2305 7.63349 12.4292 6.60794V6.60675C12.6449 5.49704 13.5101 4.62863 14.6175 4.40769L14.6414 4.40291L14.8423 4.36823C14.8482 4.36722 14.8544 4.36673 14.8603 4.36584C15.0909 4.3309 15.2963 4.31393 15.4366 4.30366C16.2398 4.24487 17.0293 4.28908 17.7935 4.41845C18.3114 3.76645 19.0949 3.37745 19.9304 3.36496H19.9615L20.0835 3.36735L20.1265 3.36974L20.2712 3.37931L20.2963 3.38051C20.3687 3.38729 20.4511 3.40016 20.5415 3.41518L20.5403 3.41638C20.5512 3.41819 20.5626 3.41801 20.5738 3.41997C20.5847 3.42146 20.598 3.42441 20.6132 3.42714L20.6144 3.42595C20.6092 3.42497 20.6037 3.42437 20.5989 3.42355C20.6042 3.42453 20.6102 3.42493 20.6156 3.42595L20.6144 3.42714C20.6167 3.42755 20.6192 3.4267 20.6216 3.42714C21.4238 3.57874 22.1282 3.841 22.7537 4.17451C22.9847 3.95364 23.4297 3.60154 24.0906 3.44986L24.0966 3.44867L24.1181 3.44388V3.44508C24.1261 3.44326 24.134 3.4407 24.142 3.4391L24.1803 3.43073H24.185C24.2003 3.42776 24.2144 3.42555 24.2257 3.42355L24.2269 3.42236C24.2291 3.42193 24.235 3.42114 24.2412 3.41997C24.2477 3.41877 24.2571 3.41687 24.2676 3.41518L24.4338 3.39366C25.2544 3.31102 26.0749 3.59808 26.6687 4.18527C27.1251 3.94562 27.6051 3.74576 28.1048 3.59216C28.1068 3.59153 28.1088 3.59038 28.1108 3.58977L28.1144 3.58857C28.1188 3.58721 28.1229 3.58601 28.1264 3.58499L28.1563 3.57542C28.1626 3.57337 28.169 3.57135 28.1754 3.56944C28.2446 3.54866 28.4259 3.4958 28.6358 3.45584C28.7785 3.42867 29.0199 3.39015 29.3114 3.39366H29.321L29.3724 3.39485H29.3879V3.39605L29.4178 3.39725H29.4274C29.673 3.40934 30.0724 3.45747 30.5132 3.65673L30.7045 3.7524L30.7284 3.76555L30.8289 3.82414L30.8588 3.84208C31.1137 4.00411 31.33 4.20457 31.5057 4.42921C32.5162 4.25162 33.5652 4.22549 34.6315 4.37301C35.6596 4.5153 36.5115 5.21339 36.8628 6.1667L36.9262 6.36161L36.9346 6.3939L36.9704 6.53739L36.9848 6.61153L37.0087 6.75742L37.0135 6.7909C37.1326 7.75981 36.7335 8.7186 35.9684 9.3188C36.0598 9.35523 36.1519 9.39095 36.2422 9.4324L36.6141 9.62134L36.6452 9.63928L36.7695 9.71461L36.7982 9.73374C37.6328 10.2863 38.1078 11.2455 38.0395 12.2437C38.0387 12.2557 38.0372 12.2676 38.0359 12.2796L38.0203 12.4231C38.0191 12.4345 38.0172 12.4464 38.0156 12.4578C37.9327 13.023 37.6815 13.5335 37.3124 13.9358C37.5785 14.1299 37.839 14.3521 38.0789 14.6102C38.7465 15.3288 38.9832 16.3416 38.7151 17.2744C38.7121 17.2848 38.7089 17.2952 38.7055 17.3055L38.6649 17.4299C38.6616 17.4398 38.6577 17.45 38.6541 17.4597C38.3747 18.2248 37.7788 18.8166 37.0374 19.1016C37.2426 19.814 37.1587 20.5933 36.7767 21.2588V21.26C36.6816 21.4256 36.5687 21.5766 36.4455 21.7156C36.6948 22.1863 36.8972 22.7002 37.0219 23.2546L37.0936 23.6276L37.0972 23.6599L37.1139 23.7986L37.1175 23.8333C37.1967 24.7944 36.7722 25.73 35.9947 26.3026C35.9852 26.3096 35.9757 26.3164 35.966 26.323L35.85 26.4007C35.8408 26.4069 35.8319 26.4139 35.8225 26.4198C35.5052 26.6187 35.1584 26.7457 34.8037 26.8049C34.7169 27.1211 34.5746 27.4193 34.3839 27.6862C34.5827 28.2076 34.7517 28.7416 34.8898 29.2861H34.891L34.928 29.4308L34.9328 29.4476C35.8484 33.0719 35.675 36.8544 33.6378 40.3926L33.6366 40.395L33.6354 40.3986L33.5947 40.468C33.5931 40.4708 33.5916 40.4736 33.5899 40.4763C33.5751 40.5017 33.56 40.5259 33.5469 40.5469L33.2109 41.0539C32.8715 41.5399 32.4948 41.9989 32.0868 42.4303C32.0796 42.4387 32.0735 42.4488 32.0653 42.4578C32.0573 42.4664 32.0501 42.4741 32.045 42.4793C32.0404 42.4839 32.0371 42.4884 32.0342 42.4912C32.0284 42.4974 32.0219 42.5025 32.0163 42.508C30.1386 44.4314 27.5851 45.5405 24.9013 45.6075V45.6087C24.8934 45.6089 24.8854 45.6085 24.8774 45.6087C24.873 45.609 24.8687 45.6108 24.8643 45.6111H24.8344ZM19.9436 4.28333C19.3719 4.29187 18.8349 4.56338 18.4883 5.01754L18.4177 5.11799L18.3221 5.27823C18.2931 5.33295 18.2663 5.38879 18.2432 5.44564C17.3617 5.23619 16.4413 5.151 15.5036 5.21963C15.3725 5.22923 15.1941 5.2437 14.9978 5.27344L14.7969 5.30812C14.1013 5.44691 13.5485 5.96737 13.3631 6.64501L13.3309 6.78253H13.3297C13.1945 7.47983 13.468 8.18916 14.0244 8.61687L14.1392 8.69819L14.1751 8.7221L14.321 8.81298C14.4645 8.89933 14.5979 8.97161 14.7 9.02583C14.8574 9.10937 14.9376 9.14997 15.0193 9.19803C15.2964 9.36106 15.5657 9.54643 15.8265 9.75048C15.0981 9.79403 14.2732 9.93017 13.472 10.2922L13.2735 10.3866C12.567 10.7417 12.1622 11.5037 12.2606 12.2868C12.2618 12.2965 12.2628 12.307 12.2642 12.3167L12.2666 12.3298C12.268 12.3395 12.2686 12.35 12.2702 12.3597C12.3951 13.1102 12.9656 13.7126 13.7135 13.876C13.8126 13.8976 13.9106 13.9213 14.0077 13.9465C13.3214 14.2051 12.6401 14.5893 12.0729 15.1519L12.0155 15.2093L11.9246 15.3097C11.4898 15.8267 11.3662 16.5427 11.6101 17.1787L11.6639 17.3043C11.9509 17.915 12.5487 18.3267 13.228 18.3721C13.47 18.3883 13.6623 18.3975 13.8331 18.4068C13.7456 18.5074 13.6612 18.6118 13.5832 18.7201L13.4959 18.8457C13.1157 19.4149 13.0795 20.1433 13.3918 20.7434L13.4588 20.8618H13.46C13.6311 21.1391 13.8678 21.3601 14.1416 21.5123C13.7051 22.1238 13.3728 22.8213 13.2101 23.6528L13.2077 23.6671L13.1945 23.74L13.1921 23.7532C13.0592 24.5046 13.3968 25.2619 14.0447 25.6641C14.4598 25.9216 14.9489 25.9984 15.4079 25.9032C15.3548 26.5176 15.6106 27.1161 16.0836 27.5044C15.8649 28.0341 15.6774 28.5754 15.5084 29.1247L15.506 29.1295L15.4582 29.2873L15.457 29.2933L15.3446 29.6891C14.2379 33.8072 14.8765 38.737 18.2348 42.0536C19.908 43.7058 22.3629 44.7326 24.7662 44.6963C24.7722 44.6962 24.7786 44.6953 24.7841 44.6951H24.7853C24.7907 44.6949 24.796 44.6941 24.8009 44.6939C24.8154 44.6936 24.8306 44.6918 24.8451 44.6915C24.8435 44.6916 24.8411 44.6926 24.8391 44.6927H24.8427C24.847 44.6924 24.8508 44.6916 24.8535 44.6915C27.3072 44.6368 29.6427 43.6246 31.3586 41.867L31.3753 41.8503H31.3741L31.3873 41.8371C31.3834 41.8416 31.3794 41.846 31.3753 41.8503C31.38 41.8454 31.384 41.8418 31.3861 41.8395C31.3881 41.8373 31.3898 41.8347 31.3909 41.8336V41.8324C31.9085 41.2894 32.3698 40.6957 32.7672 40.0602H32.7684C32.7784 40.0442 32.7883 40.0287 32.7971 40.0136L32.7995 40.0088L32.839 39.9394L32.8414 39.9346C34.7358 36.6446 34.912 33.1165 34.0419 29.6724L34.0396 29.6664L34.0013 29.5145C33.8264 28.8239 33.5961 28.1504 33.3173 27.4984C33.7856 27.1061 34.0363 26.5054 33.9762 25.8889C34.3781 25.9695 34.8011 25.9174 35.1768 25.7298L35.3346 25.6414L35.4494 25.5636C35.9051 25.228 36.1813 24.7055 36.2075 24.149L36.2027 23.9086L36.186 23.7711C36.0522 22.9228 35.7032 22.1622 35.2485 21.5135C35.5101 21.3721 35.7398 21.1686 35.911 20.9144L35.9803 20.802C36.3208 20.2091 36.3081 19.4809 35.9564 18.9031L35.8811 18.7895C35.7852 18.655 35.683 18.5282 35.5773 18.408C35.5877 18.4075 35.5989 18.4073 35.6096 18.4068C35.784 18.3987 36.0222 18.3865 36.2661 18.3566C36.8754 18.2818 37.4025 17.9134 37.6855 17.382L37.7919 17.1453L37.8326 17.0209C38.0122 16.396 37.8531 15.7172 37.4057 15.2356C36.8125 14.5975 36.0639 14.1972 35.38 13.9441C35.473 13.92 35.5672 13.8969 35.6622 13.876C36.3717 13.7197 36.9219 13.1669 37.0805 12.4661L37.1068 12.325L37.1223 12.1815C37.168 11.5131 36.8504 10.8692 36.2912 10.499L36.1681 10.4237C35.3529 9.97048 34.405 9.78958 33.5565 9.74211C33.7833 9.56694 34.0195 9.40459 34.2656 9.25662L34.4437 9.15498C34.5082 9.11934 34.5803 9.08078 34.6626 9.0366L35.209 8.73047L35.3322 8.65036C35.82 8.30321 36.1072 7.74502 36.1154 7.15681L36.1011 6.90331L36.0784 6.75742L36.0425 6.61512C35.8529 5.9548 35.3143 5.45118 34.6422 5.30692L34.5059 5.28301C33.3212 5.11906 32.1612 5.18911 31.0596 5.45999L30.9652 5.2866C30.8342 5.02207 30.6324 4.78752 30.3661 4.61815L30.2656 4.55955C29.9131 4.36803 29.5809 4.32418 29.382 4.31442L29.3509 4.31322L29.2994 4.31203C29.0918 4.30958 28.9159 4.33668 28.8068 4.35747C28.7265 4.37278 28.6505 4.39093 28.5868 4.40769L28.4397 4.44954L28.4373 4.45074L28.3918 4.46509C28.3888 4.46598 28.3849 4.46631 28.3811 4.46748V4.46867C27.6827 4.68267 27.0253 4.99538 26.4272 5.39302C26.3751 5.29509 26.2906 5.15046 26.1736 5.00439L26.0457 4.8597C25.6195 4.42422 25.0096 4.22609 24.4134 4.32279L24.3943 4.32638H24.3895C24.38 4.32805 24.3703 4.3305 24.3608 4.33235L24.3214 4.33953L24.3166 4.34073L24.2951 4.34551C23.8438 4.44921 23.5386 4.69258 23.3815 4.84415L23.2739 4.95656L23.1124 5.16104L23.0096 5.31888C22.9975 5.33914 22.9865 5.36063 22.9749 5.38106C22.278 4.89757 21.453 4.51939 20.4506 4.32996C20.4492 4.32974 20.4472 4.32903 20.4458 4.32877C20.3557 4.31194 20.2752 4.30137 20.2102 4.29529L20.0655 4.28572L19.9436 4.28333ZM20.166 5.83307L20.1672 5.83427L20.1206 6.07582L20.4805 5.90243C21.8546 6.24713 22.7867 7.0687 23.5812 8.08355C23.66 7.83371 23.7541 7.54221 23.8514 7.25965C23.9307 7.02937 24.0139 6.80058 24.093 6.60197L24.1707 6.41423C24.2206 6.29902 24.2718 6.19075 24.3226 6.10571C24.3475 6.06404 24.3792 6.01664 24.4158 5.97537C24.4365 5.9522 24.4843 5.90186 24.5569 5.86655L24.6371 5.83786L24.6418 5.83666L24.6538 5.83427L24.6586 5.83307C24.7656 5.81574 24.8751 5.8518 24.9515 5.92993C25.0198 5.99968 25.0728 6.1035 25.1082 6.17626L25.1752 6.32215C25.198 6.37494 25.2219 6.43147 25.2457 6.49076C25.3418 6.72953 25.4499 7.02897 25.5542 7.32901C25.6415 7.58003 25.727 7.83491 25.8006 8.05964C26.5553 7.05161 27.6149 6.30336 28.8307 5.93113L28.8319 5.92993H28.8343L28.8797 5.91558C28.9348 5.89905 29.0153 5.87673 29.0938 5.86177C29.1476 5.85152 29.2132 5.84182 29.2815 5.84264L29.3066 5.84383C29.3694 5.84693 29.4532 5.85921 29.535 5.90362C29.5816 5.92895 29.6078 5.97733 29.6092 6.02679C29.6511 6.06743 29.6871 6.11979 29.7036 6.18463C29.7078 6.20129 29.7091 6.21898 29.7072 6.23605L29.6917 6.30541C29.684 6.32801 29.6739 6.34975 29.6618 6.36998L29.657 6.37955L29.639 6.40944L29.5733 6.52065C29.519 6.61339 29.4467 6.73857 29.3724 6.86624C29.2199 7.12831 29.0714 7.38612 29.0519 7.42347L29.0507 7.42467C28.911 7.69375 28.7774 7.95901 28.6561 8.22585C30.3022 7.0589 32.2607 6.51784 34.2955 6.79927L34.3469 6.81003C34.4631 6.84522 34.5527 6.94182 34.5777 7.06354C34.6058 7.20252 34.5439 7.34456 34.4222 7.4175L34.1914 7.54903C34.1058 7.5964 34.0209 7.64316 33.9379 7.68774L33.7023 7.8145L33.4775 7.94484H33.4763C31.8399 8.92888 30.6339 10.3829 29.6665 12.0416C30.4007 11.707 31.1811 11.4541 31.9888 11.3361L32.3368 11.2943C33.2667 11.2047 34.5297 11.2645 35.4243 11.7618L35.4673 11.7905C35.5611 11.8637 35.6105 11.9823 35.5929 12.1026L35.5809 12.1528C35.5458 12.2667 35.4522 12.355 35.3334 12.3812L35.0404 12.4518C33.2274 12.9131 31.7515 13.879 30.5144 15.2368C31.243 15.048 31.9267 14.9616 32.8366 14.9928C33.3947 15.012 34.0433 15.1106 34.6542 15.3109L34.8814 15.3898C35.4083 15.5887 35.911 15.8759 36.2841 16.2771C36.3697 16.3693 36.3965 16.5022 36.3534 16.6203L36.3343 16.6634C36.2833 16.7584 36.1886 16.8246 36.0796 16.8379L35.8069 16.863C35.7162 16.8693 35.6254 16.8733 35.5379 16.8774L35.2772 16.8906C35.1929 16.8951 35.1103 16.901 35.0297 16.9085L34.8037 16.9324C33.6646 17.0695 32.4252 17.4532 31.3981 18.0385C32.6084 18.1634 33.8927 18.6385 34.6351 19.6791L34.6602 19.7198C34.7115 19.8198 34.71 19.9409 34.653 20.0403L34.6255 20.0797L34.5669 20.1383C34.5012 20.1888 34.4169 20.2143 34.3313 20.2065L33.9224 20.1742C32.9708 20.117 32.0558 20.1772 31.2007 20.4719C31.792 20.6277 32.3756 20.8829 32.845 21.2217L32.9024 21.2636V21.2648L32.9418 21.2947H32.943C33.7813 21.9383 34.4994 22.9063 34.6733 24.0091C34.6942 24.1415 34.635 24.2739 34.5215 24.3451L34.4772 24.369C34.3985 24.4033 34.3096 24.4052 34.2297 24.3762L34.152 24.3367C33.3533 23.7826 32.6998 23.4516 32.0235 23.2916C31.6101 23.194 31.1777 23.1575 30.6866 23.1804C31.6311 23.8315 32.259 24.7367 32.4515 26.0204L32.4527 26.0336C32.4669 26.1631 32.405 26.2903 32.2925 26.3576L32.204 26.3947C32.1113 26.4185 32.011 26.4014 31.9302 26.3457L31.9194 26.3385C31.3926 25.9452 30.9385 25.6976 30.4199 25.5361L30.4653 25.5947L30.4677 25.5983L30.5132 25.6593C31.4508 26.9278 32.1319 28.3675 32.5185 29.8972L32.558 30.0478L32.6297 30.342C33.3395 33.3844 33.1197 36.3852 31.5152 39.1717L31.4758 39.2399L31.4698 39.2483C31.1224 39.8037 30.7191 40.3225 30.2656 40.7956L30.1257 40.9355C28.6859 42.3391 26.7603 43.1399 24.7447 43.1657H24.5569L24.197 43.1513C22.5107 43.0414 20.8156 42.3169 19.5705 41.207L19.311 40.9642C16.3506 38.0405 15.7816 33.5386 16.923 29.7322L16.9708 29.5743C17.4277 28.0894 18.0041 26.7674 18.9403 25.5672C18.4305 25.7275 17.9945 25.9485 17.4635 26.3349C17.3839 26.3925 17.2846 26.4111 17.1921 26.3899L17.1024 26.3552L17.0916 26.3493C16.976 26.2781 16.9144 26.1436 16.9362 26.0097C16.9525 25.9092 16.9729 25.8094 16.9971 25.7107L17.082 25.4177L17.1 25.3627C17.4379 24.3691 17.9817 23.7031 18.731 23.1792C18.23 23.1496 17.7705 23.19 17.3308 23.2964C16.6522 23.4608 15.9992 23.7889 15.2955 24.2985L15.2274 24.3475C15.1172 24.4285 14.9681 24.4351 14.8519 24.3631C14.7506 24.3 14.6916 24.1881 14.6941 24.0713L14.6988 24.0199L14.7132 23.9469C14.842 23.2886 15.1178 22.7401 15.5132 22.2333L15.6901 22.0181L15.7356 21.9667C16.4308 21.1837 17.2628 20.7178 18.1965 20.4803C17.2468 20.1427 16.3246 20.0751 15.213 20.2005L15.0887 20.2149C14.9914 20.2269 14.8953 20.1954 14.8244 20.1323L14.7622 20.0582C14.6935 19.9468 14.6956 19.8048 14.7682 19.6959C14.9156 19.4753 15.094 19.2763 15.2967 19.1052C16.0417 18.4654 16.9914 18.1263 17.9442 18.023C16.9721 17.4784 15.8356 17.0926 14.7909 16.9539L14.7251 16.9456C14.4854 16.916 14.2639 16.8993 14.0388 16.8858L13.3297 16.8451C13.2322 16.8385 13.1446 16.7888 13.0869 16.7136L13.0391 16.6311C12.9924 16.5094 13.0212 16.3707 13.112 16.2771L13.1503 16.2388C13.8614 15.5336 14.9091 15.183 15.8516 15.0514L16.2474 15.0084C17.1471 14.9365 18.0151 15.026 18.8614 15.2332C17.6552 13.8873 16.1677 12.9277 14.3975 12.4661L14.04 12.3812C13.9058 12.3519 13.8029 12.2432 13.7805 12.1086L13.7793 12.0954C13.7616 11.9548 13.8344 11.8184 13.961 11.7546C14.7163 11.3753 15.5607 11.2702 16.3478 11.2632L16.7974 11.2739C17.837 11.3333 18.8104 11.626 19.7295 12.0464C18.7597 10.3691 17.4279 8.8395 15.7954 7.87907C15.6763 7.80904 15.5541 7.74528 15.4187 7.67339C15.2871 7.6035 15.1459 7.5269 15.0085 7.43782L15.0062 7.43663L14.9787 7.41869C14.8651 7.34428 14.8071 7.20765 14.8328 7.0743C14.8586 6.94102 14.9629 6.83684 15.0958 6.81003C15.2728 6.77476 15.4531 6.7585 15.6148 6.74666C17.444 6.61277 19.2296 7.18072 20.7137 8.20313C20.7271 8.21235 20.741 8.22127 20.7543 8.23063C20.5944 7.87217 20.4155 7.52216 20.2186 7.18192V7.18073C20.1505 7.06276 20.0535 6.92089 19.9484 6.76101C19.8495 6.61081 19.7401 6.44039 19.6697 6.29465C19.6185 6.1883 19.6273 6.06181 19.6925 5.96341C19.7578 5.86512 19.871 5.80915 19.989 5.81514C20.039 5.81767 20.0932 5.81941 20.166 5.83307ZM32.0844 42.4338C32.0785 42.4407 32.0738 42.4487 32.0677 42.4554C32.0747 42.4478 32.0794 42.4387 32.0856 42.4315L32.0844 42.4338ZM32.0761 42.4434L32.0749 42.4458L32.0761 42.4446L32.0773 42.4422L32.0761 42.4434ZM21.2745 7.19986C21.3869 7.41589 21.4946 7.63417 21.5938 7.85635C21.7621 8.23357 21.6579 8.67711 21.3391 8.93974C21.0202 9.20235 20.565 9.21916 20.227 8.98159C20.2183 8.97547 20.2118 8.97149 20.1935 8.95887C19.2933 8.3387 18.2807 7.91303 17.2279 7.73677C18.5847 8.76978 19.6898 10.1421 20.5247 11.586C20.7247 11.932 20.6786 12.3677 20.4099 12.6634C20.1411 12.9592 19.7115 13.0473 19.3481 12.8811C18.3851 12.4406 17.3977 12.1711 16.3562 12.1803C16.3371 12.1805 16.3178 12.1812 16.2988 12.1815C17.5379 12.7615 18.6218 13.5892 19.5454 14.6197C19.8141 14.9196 19.8565 15.3602 19.6494 15.7055C19.4424 16.0507 19.0347 16.2209 18.6437 16.1252C17.8804 15.9384 17.1108 15.8612 16.3203 15.9244C15.9765 15.9518 15.625 16.0104 15.2884 16.1025C16.3435 16.2916 17.4397 16.688 18.3926 17.2218C18.7412 17.417 18.9233 17.8157 18.8434 18.2071C18.7634 18.5982 18.4403 18.8934 18.0435 18.9366C17.6102 18.9836 17.192 19.0879 16.8082 19.2487C17.3796 19.2962 17.9369 19.4125 18.505 19.6146C18.8857 19.7501 19.1336 20.1185 19.1149 20.5222C19.0962 20.9259 18.8154 21.2703 18.4237 21.37C17.6538 21.5657 16.9866 21.9392 16.4232 22.573L16.4244 22.5741L16.3789 22.6256C16.373 22.6324 16.3668 22.639 16.361 22.6459C16.6077 22.5471 16.8584 22.4654 17.1155 22.4031C17.6499 22.2738 18.2006 22.2273 18.786 22.262C19.1763 22.2852 19.5096 22.5531 19.6159 22.9293C19.7222 23.3052 19.5783 23.7073 19.2584 23.9314C18.9153 24.1712 18.6322 24.4428 18.401 24.7804C18.4874 24.7486 18.5754 24.7189 18.6653 24.6907C19.0488 24.5702 19.467 24.7131 19.696 25.0435C19.9249 25.3738 19.9122 25.8148 19.665 26.1316C18.8215 27.2127 18.2878 28.4198 17.8497 29.8434L17.8019 29.9952C16.7303 33.5689 17.3 37.6864 19.9567 40.3101C21.1377 41.4762 22.8885 42.2261 24.5689 42.2473H24.7327C26.5126 42.2245 28.2133 41.5173 29.4848 40.2778L29.6163 40.1463C30.0206 39.7227 30.3805 39.2587 30.6913 38.7616L30.7224 38.709C32.187 36.1628 32.4025 33.4102 31.7353 30.5501V30.5489L31.6683 30.2762L31.63 30.1256L31.6288 30.122C31.2714 28.708 30.641 27.3772 29.7742 26.2046V26.2034L29.7407 26.1591L29.6952 26.0993C29.4489 25.7826 29.4368 25.3423 29.6654 25.0124C29.8938 24.6828 30.3096 24.5394 30.6925 24.6584C30.8031 24.6928 30.911 24.7312 31.0166 24.772C30.7924 24.4476 30.5084 24.1727 30.1652 23.9362C29.8408 23.7124 29.6957 23.307 29.8041 22.9281C29.9124 22.5492 30.2499 22.2817 30.6435 22.2632C31.2079 22.237 31.7272 22.2783 32.2351 22.3984C32.5112 22.4637 32.7794 22.552 33.0459 22.6614C32.8506 22.4268 32.6274 22.2102 32.3834 22.0229V22.0217L32.3487 21.9966L32.3463 21.9942L32.3081 21.9655V21.9667C31.9473 21.7063 31.4712 21.4934 30.9664 21.3604C30.5756 21.2573 30.2988 20.9104 30.2836 20.5066C30.2685 20.1025 30.5195 19.7356 30.9018 19.6038C31.4598 19.4114 32.0298 19.3072 32.601 19.263C32.2051 19.1046 31.7648 18.9996 31.3048 18.9521C30.9078 18.9111 30.5823 18.618 30.5 18.2274C30.4179 17.8371 30.5972 17.4386 30.9437 17.2409C31.9102 16.6901 33.0318 16.3062 34.1113 16.1097C33.668 15.9899 33.2095 15.9251 32.8055 15.9112C31.983 15.883 31.3879 15.9588 30.7452 16.1252C30.3518 16.2271 29.9385 16.0582 29.7287 15.7103C29.5189 15.3624 29.5627 14.9177 29.8364 14.6174C30.7707 13.5919 31.8432 12.7608 33.0865 12.1779C32.8614 12.1771 32.6383 12.1873 32.4252 12.2078C31.6152 12.2859 30.8147 12.5269 30.048 12.8763C29.684 13.0422 29.2533 12.9542 28.9849 12.6575C28.7166 12.3608 28.6723 11.9244 28.8737 11.5788C29.7224 10.1235 30.773 8.77363 32.1538 7.73318C31.0985 7.90707 30.094 8.33263 29.187 8.97561C28.8485 9.21534 28.3912 9.19795 28.0714 8.93376C27.7514 8.66944 27.6485 8.22339 27.8202 7.84559C27.9152 7.63685 28.0155 7.43145 28.118 7.22976C27.5016 7.57378 26.961 8.04201 26.536 8.6097C26.3307 8.88386 25.9902 9.02155 25.6523 8.96604C25.3143 8.91039 25.0355 8.6709 24.9288 8.34543C24.8582 8.12951 24.7756 7.8853 24.6921 7.6447C24.6083 7.89087 24.5256 8.14078 24.4565 8.35978C24.3538 8.68449 24.0801 8.9256 23.745 8.98637C23.4096 9.04711 23.0678 8.91751 22.8577 8.64916C22.3807 8.0398 21.8807 7.54522 21.2745 7.19986ZM34.1926 9.29847L34.1819 9.30326C34.1859 9.30117 34.1923 9.29771 34.1998 9.29369L34.1926 9.29847ZM14.26 8.77233C14.2682 8.77689 14.2754 8.78102 14.2815 8.78428C14.286 8.78672 14.291 8.78955 14.2947 8.79146C14.2974 8.79293 14.3003 8.79481 14.303 8.79624H14.3018C14.2945 8.79244 14.2838 8.78544 14.2707 8.77831C14.2674 8.77645 14.2638 8.77441 14.26 8.77233ZM15.384 6.95114V6.94994C15.3781 6.94641 15.3694 6.94104 15.3589 6.9344C15.3696 6.9412 15.378 6.94756 15.384 6.95114ZM32.7015 6.62588L32.6991 6.62708C32.7019 6.62544 32.7048 6.62264 32.7074 6.6211C32.7054 6.62229 32.7036 6.62463 32.7015 6.62588ZM32.7433 6.60197C32.7413 6.60308 32.7383 6.60435 32.7361 6.60555C32.7396 6.60351 32.7427 6.60126 32.7457 6.59957L32.7433 6.60197ZM28.7027 6.16072C28.7038 6.1668 28.7063 6.17259 28.7075 6.17866C28.7065 6.1723 28.7061 6.16591 28.7051 6.15952L28.7027 6.16072ZM20.1672 5.83427C20.2741 5.85448 20.3786 5.87686 20.4805 5.90243L20.1206 6.07582L20.1672 5.83427ZM28.3918 4.46628C28.389 4.46716 28.3863 4.469 28.3835 4.46987V4.46748C28.3862 4.46663 28.3892 4.46588 28.3918 4.46509V4.46628ZM28.4552 4.44715L28.4373 4.45193L28.4397 4.45074C28.4438 4.44963 28.4478 4.44904 28.4504 4.44835L28.454 4.44715H28.4552ZM20.5534 3.41638C20.5635 3.41755 20.5795 3.4203 20.5989 3.42355C20.5905 3.42203 20.582 3.42141 20.5738 3.41997C20.5678 3.41916 20.5626 3.4181 20.5582 3.41757C20.5527 3.41692 20.5474 3.41674 20.5439 3.41638C20.5465 3.41665 20.5498 3.41596 20.5534 3.41638Z" fill="#020101"/>
<g id="Group 13">
<path id="Vector" d="M24.7148 7.39737C24.8798 7.74114 25.2257 8.93867 25.3247 9.32082C26.0405 12.0845 26.6776 15.2349 26.5099 18.0918C26.2218 18.4307 25.9008 18.7231 25.6248 19.0901C25.3694 18.6376 25.0628 18.0798 24.7153 17.7025C24.48 17.8502 23.9642 18.838 23.8166 19.1135C23.6003 18.8144 23.1973 18.365 22.9434 18.0922C22.7939 17.1035 22.9896 15.3828 23.0961 14.386C23.3511 11.9965 23.9755 9.67738 24.7148 7.39737Z" fill="#8AB17D"/>
<path id="Vector_2" d="M32.416 7.60596L32.4302 7.62196C32.3094 7.73415 32.1171 7.86174 31.9774 7.97275C29.6143 9.8506 28.2786 12.6 27.1947 15.3457C27.0218 15.7837 26.8826 16.2483 26.7537 16.6973C26.7444 16.5443 26.7418 16.3784 26.736 16.2242C26.6425 14.8182 26.4801 13.643 26.23 12.2561C26.346 12.0099 26.7475 11.4013 26.9097 11.1754C28.0526 9.58241 29.6526 8.23549 31.5895 7.76072C31.8672 7.6926 32.1324 7.65188 32.416 7.60596Z" fill="#287271"/>
<path id="Vector_3" d="M16.9912 7.5994C19.0122 7.84963 20.6987 8.93466 21.9942 10.4812C22.4457 11.0202 22.8283 11.6385 23.1937 12.2383C22.9618 13.5745 22.7668 14.8063 22.7008 16.1704L22.6761 16.7184C22.4762 15.7298 22.1029 15.0035 21.7276 14.1085C20.7962 11.887 19.6131 9.803 17.774 8.20315C17.553 8.01089 17.2326 7.78077 16.9912 7.5994Z" fill="#287271"/>
<path id="Vector_4" d="M32.4381 15.7874C33.2 15.7718 33.8591 15.8628 34.5766 16.1195C32.9537 16.2484 31.3071 16.9768 30.0075 17.9475C29.6404 18.2217 29.3218 18.5505 28.9688 18.8246C28.8557 18.9124 28.4176 19.0965 28.2585 19.1757C27.8288 19.3885 27.4227 19.646 27.0467 19.9438C26.7212 20.2015 26.4904 20.4233 26.1951 20.7112C26.0635 20.1797 25.9387 19.8285 25.7271 19.3293C25.9461 19.0428 26.1769 18.7655 26.4189 18.498C27.4985 17.3262 29.2338 16.3602 30.7721 15.9977C31.3396 15.8639 31.8598 15.8094 32.4381 15.7874Z" fill="#287271"/>
<path id="Vector_5" d="M16.3679 15.8092C16.4794 15.7952 16.6452 15.7916 16.7603 15.7899C19.0679 15.7566 21.3779 16.8297 22.9819 18.4609C23.2496 18.7332 23.4833 19.0524 23.7161 19.3534C23.5028 19.8569 23.3997 20.2125 23.2658 20.7315C23.1017 20.5591 22.9479 20.4215 22.7717 20.2629C22.2813 19.8416 21.8173 19.5141 21.2423 19.2135C21.0797 19.1285 20.5874 18.9434 20.4883 18.8618C20.1278 18.5651 19.8189 18.2133 19.4323 17.9252C18.4514 17.1943 17.2672 16.6459 16.0884 16.3229C15.6869 16.2129 15.3139 16.1655 14.9106 16.0969C15.5071 15.9174 15.7504 15.8635 16.3679 15.8092Z" fill="#287271"/>
<path id="Vector_6" d="M32.8202 12.0784C33.0156 12.0627 33.3018 12.0719 33.5039 12.0724C31.76 12.7912 30.3475 13.9885 29.1979 15.4715C29.0522 15.6626 28.9157 15.8606 28.7889 16.0648C28.3453 16.7883 28.4852 16.6187 27.7969 17.0625C27.5704 17.2117 27.3497 17.3696 27.1354 17.5358C26.9993 17.6442 26.8644 17.7541 26.731 17.8656C26.8328 17.1002 27.5326 14.703 28.0054 14.1541C28.23 13.8934 28.5318 13.6784 28.8138 13.4828C30.0208 12.6453 31.3596 12.1904 32.8202 12.0784Z" fill="#8AB17D"/>
<path id="Vector_7" d="M15.9819 12.0863C17.6923 12.0248 19.3111 12.5305 20.7017 13.5379C20.8712 13.6607 21.361 14.0554 21.4573 14.2048C22.0442 15.1144 22.5575 16.8315 22.7045 17.8631C22.5125 17.7393 22.1703 17.4258 21.9255 17.2612C21.6394 17.069 21.2898 16.8459 21.0194 16.6491C20.9734 16.6157 20.6921 16.1291 20.6378 16.041C20.5172 15.8483 20.387 15.6619 20.2476 15.4824C19.1428 14.0366 17.6993 12.7477 15.9819 12.0863Z" fill="#8AB17D"/>
<path id="Vector_8" d="M24.7025 18.0616C24.7795 18.1262 24.8962 18.2934 24.9529 18.38C25.7048 19.5271 26.0403 20.7213 26.1487 22.0803C25.8292 22.3559 25.3867 22.7232 25.1459 23.0616C25.0304 23.0668 24.8907 23.0644 24.7733 23.0652L24.2892 23.0448C23.9719 22.6795 23.6742 22.4083 23.3057 22.1022C23.4193 20.6842 23.8466 19.2161 24.7025 18.0616Z" fill="#287271"/>
<path id="Vector_9" d="M29.5345 21.0952C29.8328 21.0833 30.1312 21.0985 30.4266 21.1406C31.6645 21.3118 32.5599 21.8221 33.3168 22.8187C31.974 22.2378 30.7081 22.1315 29.2966 22.5339C28.989 22.6397 28.8314 22.7159 28.5511 22.8826C27.6275 22.8899 26.3626 22.9617 25.4268 23.0537C26.6706 21.8602 27.7535 21.1875 29.5345 21.0952Z" fill="#8AB17D"/>
<path id="Vector_10" d="M19.5249 21.0948C19.5691 21.0926 19.6134 21.0911 19.6576 21.0903C20.9249 21.0696 22.1331 21.5494 23.1578 22.2851C23.438 22.4863 23.7572 22.8087 24.0101 23.0522C22.9436 22.9713 21.9657 22.8987 20.8969 22.8887C20.777 22.812 20.6584 22.7532 20.5322 22.6882C19.2597 22.1395 17.3297 22.1412 16.1187 22.843C17.0769 21.641 17.9712 21.1872 19.5249 21.0948Z" fill="#8AB17D"/>
<path id="Vector_11" d="M24.7303 35.2126C25.0326 35.4702 25.3086 35.7651 25.5949 36.042C25.9469 36.3783 26.3044 36.7088 26.6672 37.0331C26.2102 37.569 25.288 38.5104 24.7518 38.9844C24.5464 38.9315 23.0188 37.2632 22.7993 37.0218C23.0574 36.8267 23.3774 36.51 23.6134 36.2855C23.9899 35.9322 24.3622 35.5747 24.7303 35.2126Z" fill="#F4A261"/>
<path id="Vector_12" d="M30.3825 18.8225C31.2253 18.7219 32.1826 18.9196 32.9455 19.2895C31.7402 19.3229 30.5666 19.6833 29.5502 20.3323C29.339 20.4664 29.13 20.6197 28.9373 20.7799C28.6704 21.0018 28.3733 21.0436 28.0442 21.1267C27.3791 21.3429 26.9446 21.5751 26.3654 21.9385C26.3379 21.6202 26.2953 21.2881 26.2539 20.9711C27.4554 19.7227 28.6244 18.9896 30.3825 18.8225Z" fill="#8AB17D"/>
<path id="Vector_13" d="M26.7333 33.0349C26.8656 33.125 26.9845 33.2326 27.1045 33.3381C27.5902 33.7643 28.0992 34.1644 28.5801 34.5958C28.3816 34.8948 26.9605 36.8073 26.7764 36.8358C26.1058 36.2429 25.5215 35.6654 24.8789 35.0457C25.4912 34.4473 26.1641 33.6779 26.7333 33.0349Z" fill="#F4A261"/>
<path id="Vector_14" d="M18.3104 18.8225C20.1766 18.6182 21.9809 19.6928 23.2098 21.0089C23.1545 21.3359 23.1136 21.6302 23.1043 21.9618C22.7017 21.7113 22.4195 21.5637 21.9917 21.3649C21.5633 21.1818 21.1169 21.066 20.6983 20.9152C20.5485 20.8612 20.1038 20.4415 19.9087 20.3224C18.8619 19.6836 17.6987 19.2991 16.4678 19.2828C17.1046 18.9769 17.6057 18.8742 18.3104 18.8225Z" fill="#8AB17D"/>
<path id="Vector_15" d="M22.7043 33.0341C22.7627 33.0602 24.4184 34.8862 24.5758 35.0481C24.0649 35.5843 23.274 36.3223 22.7149 36.7934L22.6654 36.8281C22.4625 36.7329 21.0614 34.8613 20.8838 34.591C21.4542 34.0776 22.115 33.5387 22.7043 33.0341Z" fill="#F4A261"/>
<path id="Vector_16" d="M22.6273 37.174C22.7466 37.2639 23.3013 37.8804 23.4419 38.0292C23.8133 38.4221 24.1913 38.782 24.5713 39.164C23.8626 39.7956 23.4485 40.1912 22.6693 40.7745L22.6223 40.7989C22.3416 40.6654 20.9904 39.0506 20.7432 38.7395C21.3523 38.2045 21.9926 37.752 22.6273 37.174Z" fill="#F4A261"/>
<path id="Vector_17" d="M26.8316 37.1713C27.3932 37.6841 28.1269 38.2478 28.7238 38.7261C28.5445 38.9932 27.0665 40.7293 26.8472 40.8101C26.3949 40.4746 25.9448 40.0946 25.5177 39.7277C25.3029 39.5433 25.1116 39.3515 24.8901 39.1697C25.5715 38.4755 26.1766 37.9113 26.8316 37.1713Z" fill="#F4A261"/>
<path id="Vector_18" d="M23.3301 23.2523C24.2329 23.3027 25.192 23.3232 26.0953 23.2586C26.123 24.3831 25.8346 25.1888 25.2929 26.1708C25.1061 26.5001 24.9516 26.7113 24.723 27.0064C23.8084 25.7094 23.4083 24.8862 23.3301 23.2523Z" fill="#287271"/>
<path id="Vector_19" d="M24.7255 31.1696C24.8981 31.3194 25.1081 31.536 25.281 31.6979C25.7063 32.0978 26.1351 32.4939 26.5675 32.8858C26.1195 33.4593 25.2602 34.3739 24.7276 34.8733C24.5946 34.7685 24.2969 34.4459 24.1694 34.3096C23.7407 33.8508 23.2695 33.3627 22.8857 32.8686C23.4426 32.3929 24.2223 31.6891 24.7255 31.1696Z" fill="#E9C46A"/>
<path id="Vector_20" d="M28.7541 34.7412C29.3382 35.2035 29.9282 35.7058 30.5091 36.1791C30.1111 36.8499 29.6742 37.4968 29.2004 38.1162C29.1301 38.2088 28.9359 38.4731 28.8582 38.54L28.8108 38.5164C28.3461 38.1784 27.3909 37.4043 26.9722 36.9972C27.6729 36.2195 28.1314 35.5266 28.7541 34.7412Z" fill="#F4A261"/>
<path id="Vector_21" d="M20.6828 34.7587C20.7107 34.7754 22.3236 36.8035 22.4936 36.9998C22.0448 37.4361 21.2561 38.0478 20.7491 38.4463C20.6626 38.5094 20.6645 38.5326 20.5834 38.5278C20.4292 38.3619 20.1726 37.9919 20.0302 37.7915C19.6597 37.2696 19.286 36.7408 18.9551 36.1934L20.6828 34.7587Z" fill="#F4A261"/>
<path id="Vector_22" d="M28.5516 30.5677C29.1268 30.9652 29.7175 31.3665 30.2705 31.7929C29.9945 32.3642 29.1235 33.909 28.7183 34.3947L28.6801 34.3875C28.1336 33.9783 27.4044 33.3194 26.8696 32.8641C27.4348 32.2198 28.0929 31.2837 28.5516 30.5677Z" fill="#E9C46A"/>
<path id="Vector_23" d="M20.8735 30.5746C20.9874 30.7014 21.3378 31.2235 21.4556 31.3852C21.8232 31.8852 22.1997 32.3786 22.5848 32.8653C22.3875 33.0107 22.1414 33.2346 21.9513 33.397C21.5815 33.7153 21.2089 34.0305 20.8335 34.3421C20.7874 34.3761 20.7967 34.3698 20.7459 34.3938C20.5858 34.2254 20.3911 33.898 20.2624 33.6923C19.8746 33.0779 19.5136 32.4465 19.1807 31.8006C19.7155 31.4172 20.3692 30.9779 20.8735 30.5746Z" fill="#E9C46A"/>
<path id="Vector_24" d="M30.4523 31.9132C30.9787 32.3095 31.5517 32.7371 32.0604 33.1523C31.8834 33.5084 31.7091 33.9379 31.5395 34.3055C31.3704 34.6659 31.1889 35.0201 30.9954 35.3681C30.9187 35.509 30.7276 35.8615 30.6274 35.977L30.5822 35.9526C30.0577 35.5467 29.3543 34.9993 28.8774 34.5492C29.477 33.7495 29.979 32.7943 30.4523 31.9132Z" fill="#F4A261"/>
<path id="Vector_25" d="M18.9807 31.9625C19.062 32.0129 19.3381 32.5575 19.4127 32.6888C19.7828 33.3388 20.142 33.9492 20.5869 34.5516C20.0544 35.0136 19.4804 35.4767 18.9362 35.9284C18.9027 35.9576 18.8875 35.9643 18.8495 35.9877C18.598 35.7974 17.5891 33.5466 17.4136 33.1382C17.8931 32.7467 18.479 32.3322 18.9807 31.9625Z" fill="#F4A261"/>
<path id="Vector_26" d="M26.6325 29.1196C27.1622 29.4752 27.8634 30.0394 28.3855 30.4345C28.1763 30.777 26.9018 32.6295 26.6894 32.69C26.1417 32.2284 25.3893 31.5282 24.8945 31.0195C25.3994 30.5285 26.225 29.6711 26.6325 29.1196Z" fill="#E9C46A"/>
<path id="Vector_27" d="M22.7726 29.1392C22.8541 29.172 24.3743 30.8135 24.5873 31.0293C23.9901 31.5865 23.4418 32.1074 22.8102 32.6297C22.7977 32.6433 22.7651 32.6665 22.749 32.6787C22.5342 32.5821 21.2597 30.7258 21.0645 30.445C21.6581 30.0305 22.2062 29.589 22.7726 29.1392Z" fill="#E9C46A"/>
<path id="Vector_28" d="M24.7377 39.3084C25.3839 39.9176 26.0124 40.4342 26.7024 40.9847C26.1961 41.4348 25.6623 41.898 25.0823 42.251L24.7827 42.2568C24.648 42.2546 24.5084 42.2479 24.3732 42.2434C24.1114 42.0499 23.8376 41.8782 23.5753 41.6799C23.277 41.4544 23.055 41.2351 22.7886 40.9756C23.3992 40.5458 24.179 39.8131 24.7377 39.3084Z" fill="#F4A261"/>
<path id="Vector_29" d="M24.7073 27.3883C24.7726 27.4084 24.8943 27.5419 24.9469 27.5959C25.4341 28.0953 25.9655 28.5406 26.4923 28.9974C25.8875 29.6309 25.3975 30.2204 24.7515 30.8635C24.6226 30.8284 23.1655 29.2196 22.9795 28.9931C23.4792 28.6085 24.2942 27.8458 24.7073 27.3883Z" fill="#E9C46A"/>
<path id="Vector_30" d="M22.5849 23.1942C22.7364 23.1949 22.9532 23.2166 23.1092 23.2279C23.1202 23.8566 23.1812 24.2484 23.3294 24.8521C23.1948 25.0211 22.9897 25.3694 22.8393 25.5731C22.2249 26.4051 21.7002 26.8481 20.8471 27.3893C20.6879 27.4814 20.5313 27.578 20.3774 27.6787C20.4718 27.467 20.5903 27.0671 20.6673 26.8344C20.8087 26.402 20.9574 25.9718 21.1131 25.5442C21.4556 24.5947 21.7417 23.8363 22.5849 23.1942Z" fill="#287271"/>
<path id="Vector_31" d="M26.6874 23.1993C27.2609 23.1504 27.9597 24.5512 28.1439 25.0173C28.489 25.8907 28.7245 26.8021 29.0952 27.6629C28.9721 27.589 28.8444 27.5254 28.7166 27.4594C27.5668 26.7711 26.8464 25.9692 26.1196 24.864C26.2746 24.209 26.3344 23.8969 26.315 23.2262L26.6874 23.1993Z" fill="#287271"/>
<path id="Vector_32" d="M26.0301 25.1422C26.1061 25.2192 26.4321 25.7212 26.533 25.8501C26.9317 26.3592 27.3222 26.7235 27.8139 27.1317C27.5585 27.5675 26.9482 28.4363 26.6234 28.8161C26.0836 28.4363 25.3255 27.6806 24.8716 27.2058C25.3884 26.5396 25.723 25.9235 26.0301 25.1422Z" fill="#E9C46A"/>
<path id="Vector_33" d="M23.4012 25.1414C23.446 25.2237 23.4945 25.3382 23.53 25.427C23.7954 26.0887 24.18 26.6383 24.5873 27.2173C24.1167 27.7451 23.3826 28.366 22.8401 28.823C22.4306 28.3469 21.9818 27.6669 21.6606 27.1286C22.3679 26.6017 22.9233 25.873 23.4012 25.1414Z" fill="#E9C46A"/>
<path id="Vector_34" d="M19.5925 28.3048C19.6559 28.3313 19.9254 28.911 19.9783 29.0103C20.2307 29.4843 20.4985 29.9497 20.7812 30.4063C20.346 30.6701 19.6272 31.218 19.1945 31.527L19.0983 31.5951L19.0644 31.58C18.796 31.1249 18.2271 29.5981 18.085 29.0775C18.5722 28.8455 19.0997 28.5509 19.5925 28.3048Z" fill="#E9C46A"/>
<path id="Vector_35" d="M29.8364 28.2935C30.2834 28.5016 30.9236 28.8702 31.3799 29.1112C31.2154 29.6828 30.6868 31.0587 30.3754 31.5717L30.3391 31.5626C29.8268 31.2134 29.1694 30.749 28.6855 30.3759C29.1435 29.6622 29.4578 29.0431 29.8364 28.2935Z" fill="#E9C46A"/>
<path id="Vector_36" d="M21.481 27.2558C21.5694 27.3725 21.6502 27.5139 21.7308 27.6385C22.0254 28.095 22.3346 28.5234 22.6726 28.9484C22.0858 29.4267 21.603 29.7952 20.9911 30.2391L20.9562 30.2422C20.71 29.9913 19.9749 28.5612 19.8291 28.1991C19.9455 28.1438 20.0646 28.0838 20.1826 28.0331C20.6502 27.8322 21.0593 27.5397 21.481 27.2558Z" fill="#E9C46A"/>
<path id="Vector_37" d="M27.9789 27.2455C28.257 27.4409 28.5531 27.6466 28.8506 27.81C29.1101 27.9525 29.3739 28.0642 29.6317 28.2153C29.5181 28.4717 28.6607 30.1516 28.4974 30.2455C27.9676 29.8885 27.3006 29.3487 26.7886 28.9474C27.1043 28.591 27.7454 27.6504 27.9789 27.2455Z" fill="#E9C46A"/>
<path id="Vector_38" d="M28.2588 7.02103L28.2726 7.02208L28.282 7.04879C27.652 8.19974 27.3308 9.39539 26.9821 10.6401C26.9269 10.8376 26.3357 11.597 26.1798 11.8767C26.1568 11.7891 26.1367 11.6875 26.1169 11.598C25.9899 11.0133 25.8557 10.4302 25.7144 9.8489C26.3438 8.59849 27.0336 7.72556 28.2588 7.02103Z" fill="#287271"/>
<path id="Vector_39" d="M21.1333 7.01053C22.236 7.40698 23.196 8.86183 23.7374 9.85075C23.5731 10.4251 23.4628 10.9036 23.3407 11.4896C23.3117 11.5985 23.2818 11.7747 23.2583 11.8899C23.143 11.6985 22.4899 10.7615 22.4635 10.6655C22.1224 9.42493 21.8099 8.1234 21.1333 7.01053Z" fill="#287271"/>
<path id="Vector_40" d="M18.781 36.3422C18.8709 36.4182 19.1136 36.8305 19.1974 36.9642C19.5794 37.5736 19.9996 38.1323 20.438 38.7007C20.1192 38.9497 19.7588 39.1968 19.4271 39.4328L19.2614 39.5476C18.6343 38.727 18.2497 38.0184 17.8818 37.0606C18.1688 36.8157 18.4831 36.5761 18.781 36.3422Z" fill="#F4A261"/>
<path id="Vector_41" d="M30.6849 36.3343C30.9233 36.4969 31.3397 36.8707 31.5672 37.0692C31.234 38.0304 30.8097 38.7362 30.2071 39.5412L30.0564 39.4419C29.7108 39.1973 29.3707 38.9447 29.0366 38.6847C29.6661 37.8592 30.1191 37.2043 30.6849 36.3343Z" fill="#F4A261"/>
<path id="Vector_42" d="M20.5694 38.8854C20.6161 38.9184 20.7727 39.12 20.8229 39.1788C21.3395 39.7837 21.8617 40.4086 22.4442 40.9522L21.6363 41.5137L21.4057 41.3874C20.6378 41.0036 19.972 40.366 19.4019 39.7394C19.6923 39.4928 20.2445 39.12 20.5694 38.8854Z" fill="#F4A261"/>
<path id="Vector_43" d="M28.8952 38.8646C29.0222 38.921 29.8991 39.6076 30.0582 39.7313C29.5952 40.3598 28.7916 40.9354 28.1351 41.3396C28.0406 41.3951 27.9316 41.4489 27.8335 41.5001C27.5628 41.3226 27.2978 41.1368 27.0386 40.9428C27.7594 40.2455 28.269 39.6325 28.8952 38.8646Z" fill="#F4A261"/>
<path id="Vector_44" d="M27.8201 23.1305C29.2579 23.069 30.4726 23.6696 31.2408 24.9025C31.0404 24.8088 30.906 24.7569 30.6965 24.6842C29.7138 24.4037 29.1685 24.4111 28.1647 24.4278C27.8651 23.9146 27.6254 23.5486 27.166 23.1652L27.8201 23.1305Z" fill="#287271"/>
<path id="Vector_45" d="M21.0325 23.1297C21.4304 23.1102 21.8898 23.1426 22.2887 23.1673C21.7979 23.591 21.6244 23.8849 21.291 24.4347C20.5954 24.3957 19.8727 24.4187 19.1923 24.5713C18.8489 24.6557 18.5677 24.7459 18.2373 24.8688C18.3367 24.7258 18.4428 24.5875 18.5554 24.4546C19.164 23.7473 20.0914 23.1967 21.0325 23.1297Z" fill="#287271"/>
<path id="Vector_46" d="M28.2612 24.6899C29.0397 24.9068 29.8457 26.0431 30.2726 26.7204C30.1561 27.0332 30.0121 27.3685 29.8856 27.6796L29.7354 28.0183C29.5857 27.9427 29.535 27.9107 29.3999 27.8131C28.9734 26.861 28.6511 25.698 28.2612 24.6899Z" fill="#E9C46A"/>
<path id="Vector_47" d="M21.0852 24.72C21.1176 24.7191 21.0966 24.7174 21.1463 24.7368C21.1472 24.7561 21.1498 24.7822 21.1424 24.8004C20.7474 25.7735 20.5035 26.8146 20.0569 27.7652C20.0139 27.8566 19.8157 27.9511 19.7257 27.9998L19.6013 27.727C19.452 27.4062 19.3101 27.0578 19.1709 26.7306C19.5423 26.104 20.3976 24.9283 21.0852 24.72Z" fill="#E9C46A"/>
<path id="Vector_48" d="M17.9304 29.4472C17.9912 29.514 18.0466 29.683 18.0786 29.7782C18.3083 30.4608 18.5999 31.095 18.9032 31.7477L17.8847 32.5015L17.3176 32.9208C17.3093 31.676 17.5548 30.621 17.9304 29.4472Z" fill="#F4A261"/>
<path id="Vector_49" d="M31.5054 29.4458C31.5582 29.5281 31.6486 29.8323 31.68 29.9466C31.9414 30.8965 32.1294 31.9457 32.1494 32.9318L31.6025 32.5197C31.2557 32.2554 30.9111 31.9883 30.5688 31.718C30.9508 30.9723 31.2337 30.2336 31.5054 29.4458Z" fill="#F4A261"/>
<path id="Vector_50" d="M17.2953 33.4381C17.3723 33.522 17.586 34.0718 17.6487 34.211C17.9519 34.8838 18.2849 35.5209 18.6759 36.1458C18.5575 36.2506 18.4377 36.3369 18.3109 36.4309L17.8027 36.8148C17.4685 35.9423 17.2114 34.3629 17.2953 33.4381Z" fill="#F4A261"/>
<path id="Vector_51" d="M32.1604 33.467C32.1769 33.5653 32.1721 33.9298 32.169 34.04C32.1463 34.9904 31.9693 35.9308 31.6452 36.8248L31.2224 36.4909C31.076 36.3752 30.9416 36.2606 30.8003 36.1389C31.105 35.6283 31.4039 35.0883 31.6646 34.5542C31.8387 34.1979 31.9839 33.8236 32.1604 33.467Z" fill="#F4A261"/>
<path id="Vector_52" d="M30.4072 26.9622C30.714 27.3616 31.1345 28.3514 31.2985 28.8293L30.9915 28.6741C30.6349 28.488 30.2795 28.2993 29.9258 28.1077C30.0724 27.7401 30.2816 27.3257 30.4072 26.9622Z" fill="#E9C46A"/>
<path id="Vector_53" d="M19.0297 27.0026C19.1055 27.0607 19.4591 27.9561 19.5268 28.1187C19.1975 28.2751 18.8697 28.4349 18.5435 28.5977L18.1733 28.7898C18.4388 28.1261 18.6417 27.6127 19.0297 27.0026Z" fill="#E9C46A"/>
<path id="Vector_54" d="M22.5922 41.1229C22.6619 41.149 22.8801 41.3776 22.9588 41.4487C23.2515 41.7146 23.5593 41.9633 23.8806 42.1939C23.6938 42.1822 23.4566 42.1353 23.2681 42.1032C22.75 41.9927 22.3409 41.8201 21.855 41.6223C22.0962 41.486 22.3629 41.2858 22.5922 41.1229Z" fill="#F4A261"/>
<path id="Vector_55" d="M26.8564 41.1177C26.9265 41.143 27.4725 41.5367 27.5911 41.6132C27.1963 41.8062 26.7113 41.9454 26.2896 42.065L25.6021 42.1975C26.0433 41.8655 26.4625 41.5046 26.8564 41.1177Z" fill="#F4A261"/>
</g>
</g>
<path id="Union" d="M20.083 3.36719L20.126 3.37012L20.2715 3.37891L20.2959 3.38086C20.3682 3.38763 20.4508 3.40005 20.541 3.41504L20.54 3.41602C20.5509 3.41781 20.5622 3.41804 20.5732 3.41992C20.5842 3.42141 20.5981 3.42402 20.6133 3.42676L20.6143 3.42578C20.609 3.42481 20.6034 3.42464 20.5986 3.42383C20.6039 3.42479 20.6099 3.42481 20.6152 3.42578L20.6143 3.42676C20.6164 3.42715 20.6189 3.42648 20.6211 3.42676C21.4233 3.57836 22.1284 3.84129 22.7539 4.1748C22.9849 3.95393 23.43 3.60187 24.0908 3.4502L24.0967 3.44824L24.1182 3.44434V3.44531C24.126 3.44352 24.1337 3.44105 24.1416 3.43945L24.1797 3.43066H24.1846C24.1998 3.4277 24.2143 3.42582 24.2256 3.42383L24.2266 3.42188C24.2288 3.42144 24.2349 3.42109 24.2412 3.41992C24.2477 3.41872 24.2572 3.41672 24.2676 3.41504L24.4336 3.39355C25.2542 3.31091 26.0751 3.59835 26.6689 4.18555C27.1253 3.94595 27.6049 3.74538 28.1045 3.5918C28.1064 3.59121 28.1085 3.59048 28.1104 3.58984L28.1143 3.58887C28.1186 3.58754 28.1225 3.58597 28.126 3.58496L28.1562 3.5752C28.1624 3.57321 28.1686 3.57119 28.1748 3.56934C28.244 3.54855 28.4259 3.49602 28.6357 3.45605C28.7785 3.42888 29.02 3.39004 29.3115 3.39355H29.3213L29.3721 3.39453H29.3877V3.39648L29.418 3.39746H29.4277C29.6733 3.40958 30.0724 3.4573 30.5127 3.65625L30.7041 3.75195L30.7285 3.76562L30.8291 3.82422L30.8584 3.8418C31.1133 4.00383 31.3302 4.20504 31.5059 4.42969C32.5163 4.25212 33.5656 4.22553 34.6318 4.37305C35.6597 4.51548 36.5111 5.21383 36.8623 6.16699L36.9258 6.36133L36.9346 6.39355L36.9707 6.53711L36.9844 6.61133L37.0088 6.75781L37.0137 6.79102C37.1328 7.75987 36.7328 8.71819 35.9678 9.31836C36.0592 9.35479 36.1519 9.39116 36.2422 9.43262L36.6143 9.62109L36.6455 9.63965L36.7695 9.71484L36.7979 9.7334C37.6324 10.286 38.1074 11.2459 38.0391 12.2441C38.0382 12.2559 38.0374 12.2676 38.0361 12.2793L38.0205 12.4229C38.0193 12.4343 38.0173 12.4466 38.0156 12.458C37.9327 13.023 37.6814 13.5334 37.3125 13.9355C37.5786 14.1297 37.8392 14.3523 38.0791 14.6104C38.7465 15.3289 38.9829 16.3417 38.7148 17.2744C38.7118 17.2848 38.7084 17.2954 38.7051 17.3057L38.665 17.4297C38.6618 17.4396 38.6579 17.4502 38.6543 17.46C38.3749 18.225 37.7785 18.8166 37.0371 19.1016C37.2423 19.814 37.1584 20.5933 36.7764 21.2588V21.2598C36.6812 21.4254 36.5686 21.5768 36.4453 21.7158C36.6946 22.1865 36.8968 22.7006 37.0215 23.2549L37.0938 23.6279L37.0967 23.6602L37.1143 23.7988L37.1172 23.833C37.1963 24.7941 36.7717 25.7301 35.9941 26.3027C35.9848 26.3096 35.9754 26.3167 35.9658 26.3232L35.8496 26.4004C35.8405 26.4066 35.8316 26.4141 35.8223 26.4199C35.5051 26.6188 35.1583 26.7456 34.8037 26.8047C34.7169 27.121 34.5744 27.4197 34.3838 27.6865C34.5825 28.2078 34.7516 28.7418 34.8896 29.2861H34.8906L34.9277 29.4307L34.9326 29.4473C35.8482 33.0716 35.6749 36.8544 33.6377 40.3926L33.6357 40.3984L33.5947 40.4678C33.5931 40.4706 33.5915 40.4738 33.5898 40.4766C33.575 40.5019 33.56 40.526 33.5469 40.5469L33.2109 41.0537C32.8716 41.5398 32.4949 41.9993 32.0869 42.4307C32.0832 42.435 32.0797 42.4395 32.0762 42.4443V42.4434C32.0743 42.446 32.0724 42.4486 32.0703 42.4512C32.0686 42.4533 32.0673 42.4559 32.0654 42.458C32.0574 42.4667 32.05 42.4743 32.0449 42.4795C32.0404 42.4841 32.037 42.4884 32.0342 42.4912C32.0284 42.4972 32.0221 42.5024 32.0166 42.5078C30.139 44.4312 27.5851 45.5404 24.9014 45.6074V45.6084C24.8934 45.6086 24.8849 45.6082 24.877 45.6084C24.8727 45.6087 24.8685 45.6111 24.8643 45.6113H24.834V45.6123H24.833C24.826 45.6127 24.8179 45.613 24.8096 45.6133C24.8048 45.6134 24.7997 45.6123 24.7949 45.6123C24.7905 45.6124 24.7851 45.6132 24.7803 45.6133C22.123 45.6536 19.4329 44.526 17.5898 42.7061C13.819 38.9817 13.2502 33.4549 14.5771 29.0293L14.585 29.0029L14.627 28.8643L14.6465 28.8066C14.7608 28.4379 14.8833 28.0697 15.0195 27.7041C14.8253 27.4384 14.6791 27.1404 14.5889 26.8242C14.232 26.7676 13.8822 26.6423 13.5615 26.4434C12.5944 25.8431 12.0897 24.714 12.2881 23.5928V23.5898L12.29 23.5762L12.292 23.5713L12.3057 23.4971V23.4951L12.3096 23.4756C12.4385 22.8173 12.6589 22.2308 12.9434 21.7021C12.847 21.5909 12.7568 21.4718 12.6777 21.3438L12.5771 21.167C12.2445 20.5277 12.1783 19.7912 12.373 19.1133C11.7024 18.8609 11.1447 18.3578 10.833 17.6943C10.8283 17.6843 10.8227 17.6733 10.8184 17.6631L10.7529 17.5078C10.3648 16.4956 10.5999 15.3471 11.3574 14.5684C11.3614 14.5643 11.3646 14.5602 11.3672 14.5576C11.3694 14.5554 11.3718 14.5539 11.373 14.5527L11.374 14.5508H11.376L11.4092 14.5166L11.4102 14.5146C11.4155 14.5093 11.421 14.5038 11.4258 14.499C11.6314 14.2951 11.8495 14.1133 12.0732 13.9492C11.7085 13.557 11.4567 13.0591 11.3652 12.5088C11.3635 12.4981 11.3615 12.4884 11.3604 12.4805C11.3598 12.4773 11.3589 12.4738 11.3584 12.4707C11.3581 12.4684 11.3576 12.4663 11.3574 12.4648V12.4609C11.3567 12.4568 11.3561 12.4524 11.3555 12.4482C11.3526 12.4284 11.3504 12.4114 11.3496 12.4043V12.4004C11.2028 11.2318 11.8077 10.0961 12.8623 9.56641L12.8789 9.55762L13.0771 9.46387L13.0938 9.45508C13.2055 9.4046 13.318 9.35844 13.4297 9.31543C12.6236 8.6746 12.2302 7.63374 12.4287 6.6084V6.60645C12.6444 5.49688 13.5099 4.62819 14.6172 4.40723L14.6416 4.40332L14.8418 4.36816C14.8477 4.36716 14.8545 4.36711 14.8604 4.36621C15.0909 4.33129 15.2962 4.31398 15.4365 4.30371C16.2395 4.24494 17.0288 4.28867 17.793 4.41797C18.3108 3.76601 19.0952 3.37773 19.9307 3.36523H19.9609L20.083 3.36719ZM22.5234 44.4326C23.2589 44.6155 24.0148 44.7076 24.7656 44.6963C24.7717 44.6962 24.7787 44.6955 24.7842 44.6953H24.7852L24.7842 44.6943C24.7786 44.6945 24.7727 44.6952 24.7666 44.6953C23.8653 44.709 22.9567 44.5738 22.085 44.3115L22.5234 44.4326ZM24.8398 44.6924H24.8428L24.8535 44.6914H24.8506C24.8478 44.6916 24.8442 44.6921 24.8398 44.6924ZM25.7568 44.627C25.7846 44.6236 25.8122 44.6198 25.8398 44.6162C25.8122 44.6198 25.7846 44.6236 25.7568 44.627ZM26.6543 44.4756C26.686 44.4686 26.7174 44.4604 26.749 44.4531C26.7174 44.4604 26.686 44.4686 26.6543 44.4756ZM20.8105 43.8262C20.5357 43.6985 20.267 43.5587 20.0068 43.4062C20.3968 43.6347 20.8054 43.8358 21.2266 44.0078L20.8105 43.8262ZM28.7773 43.7354C28.8491 43.7002 28.9194 43.662 28.9902 43.625C28.9194 43.662 28.8491 43.7002 28.7773 43.7354ZM16.626 40.0342C17.0708 40.7534 17.6048 41.4319 18.2344 42.0537L18.2354 42.0527C17.5855 41.4109 17.0373 40.7089 16.584 39.9639L16.626 40.0342ZM28.3223 42.251C28.2877 42.2693 28.2517 42.2849 28.2168 42.3027C28.2115 42.3055 28.2065 42.3088 28.2012 42.3115C28.2414 42.2911 28.2824 42.2721 28.3223 42.251ZM31.3809 41.8438C31.3789 41.8459 31.377 41.8485 31.375 41.8506C31.3795 41.8459 31.3836 41.8421 31.3857 41.8398V41.8389C31.3842 41.8403 31.3826 41.842 31.3809 41.8438ZM29.2666 41.6602H29.2676H29.2666ZM32.3691 40.6475C32.1914 40.8949 32.0052 41.1361 31.8076 41.3682C32.0052 41.1361 32.1914 40.8949 32.3691 40.6475ZM29.8496 41.1914C29.8252 41.213 29.7991 41.2326 29.7744 41.2539C29.7706 41.2572 29.7675 41.2614 29.7637 41.2646C29.7924 41.24 29.8222 41.2165 29.8506 41.1914H29.8496ZM32.7988 40.0078L32.7969 40.0127C32.788 40.0279 32.7776 40.0435 32.7676 40.0596C32.7212 40.1337 32.6711 40.2054 32.623 40.2783C32.671 40.2056 32.7214 40.1344 32.7676 40.0605H32.7686C32.7785 40.0446 32.788 40.0288 32.7969 40.0137L32.7998 40.0088L32.8389 39.9395V39.9385L32.7988 40.0078ZM16.3779 39.6094C16.4364 39.714 16.4965 39.8179 16.5586 39.9209C16.4965 39.8179 16.4364 39.714 16.3779 39.6094ZM16.1865 39.2529C16.2259 39.3297 16.2674 39.4054 16.3086 39.4814C16.2674 39.4054 16.2259 39.3297 16.1865 39.2529ZM15.9854 38.8408C16.0254 38.9273 16.0671 39.013 16.1094 39.0986C16.0671 39.013 16.0254 38.9273 15.9854 38.8408ZM31.8818 38.4795C31.8226 38.6006 31.7615 38.7215 31.6973 38.8418C31.7615 38.7215 31.8226 38.6005 31.8818 38.4795ZM15.8262 38.4785C15.8587 38.5557 15.8925 38.6324 15.9268 38.709C15.8925 38.6324 15.8587 38.5557 15.8262 38.4785ZM15.6699 38.0889C15.6958 38.1569 15.7229 38.2244 15.75 38.292C15.7229 38.2244 15.6958 38.1569 15.6699 38.0889ZM32.0537 38.1162L32.0527 38.1172L32.0537 38.1162ZM15.5244 37.6855C15.5432 37.7408 15.5634 37.7956 15.583 37.8506C15.5634 37.7956 15.5432 37.7408 15.5244 37.6855ZM15.3877 37.2559C15.414 37.344 15.4414 37.4319 15.4697 37.5195C15.4414 37.4319 15.414 37.344 15.3877 37.2559ZM15.2764 36.8623C15.301 36.9561 15.3276 37.0493 15.3545 37.1426C15.3276 37.0494 15.301 36.9561 15.2764 36.8623ZM32.4746 37.0137C32.4674 37.0359 32.4595 37.0579 32.4521 37.0801C32.4595 37.0579 32.4674 37.0359 32.4746 37.0137ZM15.168 36.4111C15.1876 36.4989 15.208 36.5865 15.2295 36.6738C15.2079 36.5865 15.1876 36.4989 15.168 36.4111ZM15.0859 36.0176C15.1055 36.1197 15.1264 36.2216 15.1484 36.3232C15.1264 36.2216 15.1055 36.1197 15.0859 36.0176ZM15.0176 35.627C15.0306 35.7081 15.0441 35.7892 15.0586 35.8701C15.0441 35.7892 15.0306 35.7081 15.0176 35.627ZM14.96 35.2344C14.9701 35.3122 14.9807 35.3901 14.9922 35.4678C14.9807 35.3901 14.9701 35.3122 14.96 35.2344ZM14.9102 34.7861C14.918 34.8682 14.9252 34.9503 14.9346 35.0322C14.9252 34.9503 14.918 34.8682 14.9102 34.7861ZM16.4238 34.5625L16.4248 34.5635L16.4238 34.5625ZM14.873 34.3193C14.879 34.4154 14.8856 34.5114 14.8936 34.6074C14.8856 34.5114 14.879 34.4154 14.873 34.3193ZM14.8564 33.9844C14.859 34.0521 14.8617 34.1198 14.8652 34.1875C14.8617 34.1198 14.859 34.0521 14.8564 33.9844ZM14.8467 33.5586C14.8472 33.6318 14.8479 33.7051 14.8496 33.7783C14.8479 33.7051 14.8472 33.6318 14.8467 33.5586ZM14.8496 33.1768C14.8485 33.2353 14.8471 33.2939 14.8467 33.3525C14.8471 33.2939 14.8485 33.2353 14.8496 33.1768ZM14.9033 32.1738C14.8926 32.2937 14.8837 32.4138 14.876 32.5342C14.8837 32.4138 14.8926 32.2937 14.9033 32.1738ZM14.9365 31.8467C14.9259 31.9409 14.916 32.0353 14.9072 32.1299C14.916 32.0353 14.9259 31.9409 14.9365 31.8467ZM15.2012 30.2764C15.1554 30.4803 15.1124 30.6856 15.0752 30.8926C15.1124 30.6856 15.1554 30.4803 15.2012 30.2764ZM15.5059 29.1299L15.458 29.2871H15.459L15.5068 29.1289V29.126L15.5059 29.1299ZM16.084 27.5039H16.083H16.084ZM34.168 25.916C34.2138 25.9204 34.2597 25.9229 34.3057 25.9238C34.2597 25.9229 34.2138 25.9204 34.168 25.916ZM34.3623 25.9238C34.4011 25.9235 34.4398 25.9217 34.4785 25.9189C34.4398 25.9217 34.4011 25.9235 34.3623 25.9238ZM34.5234 25.915C34.5623 25.9113 34.601 25.9066 34.6396 25.9004C34.601 25.9066 34.5623 25.9113 34.5234 25.915ZM33.9756 25.8887C34.0314 25.8999 34.0881 25.908 34.1445 25.9141C34.0881 25.908 34.0314 25.8999 33.9756 25.8887ZM34.7002 25.8896C34.7317 25.8835 34.7627 25.8759 34.7939 25.8682C34.7627 25.8759 34.7317 25.8835 34.7002 25.8896ZM34.8691 25.8486C34.9017 25.8391 34.9337 25.8278 34.9658 25.8164C34.9337 25.8278 34.9017 25.8391 34.8691 25.8486ZM14.0449 25.6631C13.7617 25.4872 13.5371 25.2441 13.3857 24.9629C13.537 25.2444 13.7615 25.4882 14.0449 25.6641C14.1486 25.7284 14.2569 25.7813 14.3682 25.8232L14.2041 25.752C14.15 25.7253 14.0969 25.6953 14.0449 25.6631ZM35.0205 25.7979C35.0564 25.7839 35.0917 25.7683 35.127 25.752C35.0917 25.7683 35.0564 25.7839 35.0205 25.7979ZM35.334 25.6416H35.335H35.334ZM35.5947 25.4424C35.604 25.434 35.614 25.4265 35.623 25.418C35.614 25.4265 35.604 25.434 35.5947 25.4424ZM35.7461 25.2881C35.7516 25.2818 35.7573 25.2759 35.7627 25.2695C35.7573 25.2759 35.7516 25.2818 35.7461 25.2881ZM35.8311 25.1807C35.8584 25.1443 35.8846 25.1075 35.9092 25.0693C35.8846 25.1075 35.8584 25.1443 35.8311 25.1807ZM35.9512 25.002C35.9771 24.9577 36.0003 24.9123 36.0225 24.8662C36.0003 24.9124 35.977 24.9577 35.9512 25.002ZM36.0508 24.8066C36.0715 24.7594 36.0888 24.711 36.1055 24.6621C36.0888 24.711 36.0714 24.7594 36.0508 24.8066ZM36.1309 24.5879C36.1449 24.5403 36.1558 24.492 36.166 24.4434C36.1558 24.492 36.1449 24.5403 36.1309 24.5879ZM36.1836 24.3623C36.1859 24.348 36.1874 24.3337 36.1895 24.3193C36.1874 24.3337 36.1859 24.348 36.1836 24.3623ZM14.7275 24.2207C14.7378 24.2424 14.7509 24.2621 14.7656 24.2812C14.7509 24.2621 14.7378 24.2424 14.7275 24.2207ZM33.0986 21.4189C33.2526 21.547 33.4011 21.6862 33.542 21.835C33.5889 21.8845 33.6356 21.9346 33.6807 21.9863C33.5453 21.8312 33.4013 21.6851 33.251 21.5498C33.201 21.5048 33.1499 21.4616 33.0986 21.4189ZM13.9824 21.7461H13.9834H13.9824ZM35.4199 21.4062C35.4283 21.4005 35.4371 21.3955 35.4453 21.3896C35.4371 21.3955 35.4283 21.4005 35.4199 21.4062ZM35.5996 21.2656C35.6093 21.2571 35.6194 21.249 35.6289 21.2402C35.6194 21.249 35.6093 21.2571 35.5996 21.2656ZM35.7588 21.1074C35.7724 21.0921 35.7857 21.0764 35.7988 21.0605C35.7857 21.0764 35.7724 21.0921 35.7588 21.1074ZM35.9805 20.8018C35.953 20.8495 35.9218 20.8949 35.8906 20.9395C35.8968 20.9307 35.9051 20.923 35.9111 20.9141L35.9805 20.8018ZM13.2471 20.3721C13.2816 20.4993 13.3295 20.6238 13.3916 20.7432L13.334 20.6211C13.2989 20.5398 13.27 20.4565 13.2471 20.3721ZM13.2227 20.2734C13.2271 20.2944 13.2331 20.3151 13.2383 20.3359C13.2304 20.3045 13.223 20.273 13.2168 20.2412L13.2227 20.2734ZM13.1982 20.126C13.2029 20.1616 13.2081 20.1971 13.2148 20.2324C13.2081 20.1971 13.2029 20.1616 13.1982 20.126ZM13.1855 19.9951C13.187 20.0196 13.189 20.044 13.1914 20.0684C13.189 20.044 13.187 20.0196 13.1855 19.9951ZM13.1816 19.8721C13.1815 19.8991 13.1826 19.9261 13.1836 19.9531C13.1826 19.9261 13.1815 19.8991 13.1816 19.8721ZM13.2031 19.6035C13.1919 19.6777 13.1848 19.7523 13.1826 19.8271C13.1848 19.7523 13.1919 19.6777 13.2031 19.6035ZM13.2578 19.3555C13.2497 19.383 13.2422 19.4107 13.2354 19.4385C13.2422 19.4107 13.2497 19.383 13.2578 19.3555ZM13.3047 19.2158C13.2921 19.2487 13.2812 19.282 13.2705 19.3154C13.2812 19.282 13.2921 19.2487 13.3047 19.2158ZM13.7041 18.5605C13.6624 18.6126 13.6219 18.6657 13.583 18.7197L13.4961 18.8457C13.4177 18.9631 13.3538 19.0874 13.3047 19.2158C13.3538 19.0874 13.4176 18.9632 13.4961 18.8457L13.584 18.7197C13.6231 18.6654 13.6634 18.6119 13.7051 18.5596L13.7041 18.5605ZM13.2285 18.3711C13.0162 18.357 12.8115 18.3081 12.6221 18.2275C12.8113 18.3081 13.0155 18.3578 13.2275 18.3721C13.4691 18.3882 13.6615 18.397 13.832 18.4062H13.833C13.6622 18.397 13.4705 18.3872 13.2285 18.3711ZM36.4619 18.3203C36.4763 18.317 36.4906 18.3133 36.5049 18.3096C36.4906 18.3133 36.4763 18.317 36.4619 18.3203ZM36.6973 18.249C36.7022 18.2472 36.707 18.2451 36.7119 18.2432C36.707 18.2451 36.7022 18.2472 36.6973 18.249ZM37.2617 17.9121C37.2669 17.9076 37.2722 17.903 37.2773 17.8984C37.2722 17.903 37.2669 17.9076 37.2617 17.9121ZM11.8564 17.626C11.881 17.6589 11.907 17.6906 11.9336 17.7217C11.8802 17.6591 11.8302 17.5932 11.7852 17.5234L11.8564 17.626ZM37.5625 17.5801C37.5677 17.5728 37.5721 17.565 37.5771 17.5576C37.5721 17.565 37.5677 17.5728 37.5625 17.5801ZM11.5342 16.9268C11.5536 17.0116 11.5786 17.0959 11.6104 17.1787L11.5664 17.0508C11.554 17.0097 11.5437 16.9682 11.5342 16.9268ZM11.4932 16.6631C11.4992 16.7373 11.5103 16.8112 11.5254 16.8848C11.5103 16.8112 11.4992 16.7372 11.4932 16.6631ZM36.2383 16.7725C36.2323 16.777 36.226 16.7811 36.2197 16.7852C36.2261 16.7811 36.2322 16.777 36.2383 16.7725ZM36.2988 16.7139C36.2885 16.7267 36.2767 16.7379 36.2646 16.749C36.2767 16.7379 36.2885 16.7267 36.2988 16.7139ZM13.0859 16.7139C13.0901 16.7193 13.0961 16.7233 13.1006 16.7285C13.0962 16.7235 13.091 16.7192 13.0869 16.7139L13.0391 16.6309L13.0859 16.7139ZM36.334 16.6631C36.3299 16.6707 36.324 16.6773 36.3193 16.6846C36.3241 16.6772 36.3308 16.6709 36.335 16.6631L36.3535 16.6201L36.334 16.6631ZM11.4873 16.542C11.4877 16.5654 11.488 16.5889 11.4893 16.6123C11.488 16.5889 11.4877 16.5654 11.4873 16.542ZM11.4902 16.3994C11.4884 16.4306 11.4876 16.4619 11.4873 16.4932C11.4876 16.4619 11.4884 16.4306 11.4902 16.3994ZM36.3379 16.3535V16.3525V16.3535ZM11.502 16.2773C11.4988 16.3023 11.4963 16.3274 11.4941 16.3525C11.4963 16.3274 11.4988 16.3023 11.502 16.2773ZM11.5488 16.0352C11.5429 16.0575 11.5373 16.08 11.5322 16.1025C11.5373 16.08 11.5429 16.0575 11.5488 16.0352ZM11.5693 15.9609C11.5678 15.9661 11.567 15.9714 11.5654 15.9766C11.5748 15.9451 11.5847 15.9138 11.5957 15.8828L11.5693 15.9609ZM11.6387 15.7744C11.6242 15.808 11.6101 15.8417 11.5977 15.876C11.61 15.8417 11.6243 15.808 11.6387 15.7744ZM11.6963 15.6523C11.6803 15.6833 11.6646 15.7144 11.6504 15.7461C11.6646 15.7144 11.6803 15.6833 11.6963 15.6523ZM14.2148 15.5166H14.2158H14.2148ZM37.1758 15.0068C37.2157 15.0437 37.2532 15.0834 37.292 15.1221C37.1767 15.0073 37.0584 14.8987 36.9346 14.7998L37.1758 15.0068ZM15.8506 15.0518C15.8408 15.0531 15.8311 15.0552 15.8213 15.0566C15.8314 15.0552 15.8415 15.0532 15.8516 15.0518L16.2471 15.0088C16.1179 15.0191 15.9853 15.0329 15.8506 15.0518ZM13.4951 14.165H13.4961H13.4951ZM35.9971 13.7666C36.0177 13.7577 36.0383 13.7489 36.0586 13.7393C36.0383 13.7488 36.0177 13.7577 35.9971 13.7666ZM36.0918 13.7227C36.1225 13.7074 36.1529 13.6917 36.1826 13.6748C36.1529 13.6917 36.1225 13.7074 36.0918 13.7227ZM36.2168 13.6543C36.2416 13.6395 36.266 13.6243 36.29 13.6084C36.266 13.6243 36.2416 13.6395 36.2168 13.6543ZM13.0723 13.6035V13.6025V13.6035ZM36.3496 13.5664C36.3657 13.5548 36.3818 13.5433 36.3975 13.5312C36.3818 13.5433 36.3657 13.5548 36.3496 13.5664ZM36.4609 13.4805C36.4721 13.4711 36.4832 13.4618 36.4941 13.4521C36.4832 13.4618 36.4721 13.4711 36.4609 13.4805ZM36.5703 13.3818C36.5849 13.3674 36.5992 13.3528 36.6133 13.3379C36.5992 13.3528 36.5849 13.3674 36.5703 13.3818ZM12.2988 12.499C12.3662 12.773 12.4941 13.0234 12.668 13.2354C12.4941 13.0232 12.3661 12.7724 12.2988 12.498V12.499ZM36.6426 13.3057C36.6568 13.2899 36.6709 13.274 36.6846 13.2578C36.6709 13.274 36.6568 13.2899 36.6426 13.3057ZM36.7422 13.1855C36.7536 13.1706 36.7654 13.1559 36.7764 13.1406C36.7654 13.1559 36.7536 13.1706 36.7422 13.1855ZM36.8115 13.0898C36.825 13.0697 36.8379 13.0491 36.8506 13.0283C36.8379 13.0491 36.825 13.0696 36.8115 13.0898ZM15.8516 12.9854C15.8541 12.9865 15.8569 12.9871 15.8594 12.9883C15.8569 12.9871 15.8541 12.9865 15.8516 12.9854ZM12.2471 11.9951C12.2441 12.0915 12.2484 12.1893 12.2607 12.2871V12.2861C12.2485 12.1885 12.2441 12.0913 12.2471 11.9951ZM29.9834 11.9023C29.9158 11.9304 29.8491 11.9607 29.7822 11.9902C29.8442 11.9629 29.9061 11.9353 29.9688 11.9092C29.9739 11.907 29.9792 11.9055 29.9844 11.9033L29.9834 11.9023ZM35.4238 11.7617V11.7607V11.7617ZM30.6338 11.6602C30.6109 11.6677 30.5882 11.6758 30.5654 11.6836C30.5693 11.6823 30.5732 11.681 30.5771 11.6797C30.6097 11.6687 30.6421 11.6571 30.6748 11.6465L30.6338 11.6602ZM30.875 11.585C30.8763 11.5846 30.8776 11.5844 30.8789 11.584C30.9082 11.5752 30.9374 11.566 30.9668 11.5576L30.875 11.585ZM34.335 11.3779C34.5238 11.4162 34.7088 11.4658 34.8867 11.5264C34.9263 11.5398 34.9651 11.5547 35.0039 11.5693C34.7907 11.4887 34.5657 11.4248 34.335 11.3779ZM32.6992 11.2676H32.7002H32.6992ZM14.0752 10.0605C13.8738 10.1249 13.672 10.2015 13.4717 10.292H13.4727C13.6727 10.2016 13.8741 10.1248 14.0752 10.0605ZM15.0195 9.19824V9.19727V9.19824ZM34.2656 9.25586V9.25684L34.4434 9.15527L34.4443 9.1543L34.2656 9.25586ZM14.2812 8.78418H14.2822H14.2812ZM13.8174 8.43066C13.8813 8.49712 13.9501 8.56008 14.0244 8.61719C14.0612 8.64549 14.0994 8.67249 14.1387 8.69824L14.1748 8.72168L14.168 8.7168L14.1387 8.69824C14.0201 8.62049 13.913 8.53011 13.8174 8.43066ZM35.4795 8.53027C35.4924 8.51897 35.506 8.50869 35.5186 8.49707C35.506 8.50868 35.4924 8.51898 35.4795 8.53027ZM13.7295 8.33203C13.7544 8.36192 13.7798 8.39152 13.8066 8.41992C13.7798 8.39152 13.7544 8.36192 13.7295 8.33203ZM35.6445 8.36719C35.656 8.35421 35.6676 8.34139 35.6787 8.32812C35.6676 8.34139 35.656 8.35422 35.6445 8.36719ZM13.6465 8.22559C13.6688 8.25666 13.6925 8.28666 13.7168 8.31641C13.6925 8.28666 13.6688 8.25666 13.6465 8.22559ZM35.7812 8.19336C35.7895 8.1814 35.7977 8.16937 35.8057 8.15723C35.7977 8.16937 35.7895 8.1814 35.7812 8.19336ZM13.5146 8.01367C13.5227 8.02886 13.5315 8.04363 13.54 8.05859C13.5315 8.04363 13.5227 8.02886 13.5146 8.01367ZM13.4482 7.87402C13.457 7.89438 13.4661 7.91454 13.4756 7.93457C13.4661 7.91454 13.457 7.89438 13.4482 7.87402ZM13.4053 7.76465C13.4127 7.78533 13.4206 7.80577 13.4287 7.82617C13.4206 7.80577 13.4127 7.78533 13.4053 7.76465ZM13.3643 7.63672C13.3713 7.66194 13.3787 7.68703 13.3867 7.71191C13.3787 7.68703 13.3713 7.66194 13.3643 7.63672ZM36.0527 7.60254C36.0552 7.59306 36.0582 7.58374 36.0605 7.57422C36.0582 7.58374 36.0552 7.59306 36.0527 7.60254ZM13.3291 7.48633C13.334 7.51189 13.3398 7.53721 13.3457 7.5625C13.3398 7.53721 13.334 7.51189 13.3291 7.48633ZM13.3076 7.35059C13.3119 7.38761 13.3178 7.42436 13.3242 7.46094C13.3178 7.42436 13.3119 7.38761 13.3076 7.35059ZM36.0957 7.39258C36.0983 7.37407 36.1005 7.35552 36.1025 7.33691C36.1005 7.35553 36.0983 7.37407 36.0957 7.39258ZM13.3291 6.78223C13.3022 6.9211 13.2924 7.06074 13.2969 7.19824C13.2924 7.06075 13.3022 6.9211 13.3291 6.78223ZM34.5488 6.98047C34.5474 6.9776 34.5464 6.9745 34.5449 6.97168C34.5464 6.9745 34.5474 6.9776 34.5488 6.98047ZM34.5029 6.91211C34.4986 6.90703 34.4939 6.90227 34.4893 6.89746C34.4939 6.90226 34.4985 6.90703 34.5029 6.91211ZM34.4346 6.85156C34.4294 6.84816 34.4243 6.84492 34.4189 6.8418C34.4243 6.84491 34.4294 6.84817 34.4346 6.85156ZM32.0518 6.81836H32.0508H32.0518ZM32.7275 6.60938C32.7214 6.61285 32.7143 6.61686 32.707 6.62109C32.7179 6.61478 32.7279 6.60916 32.7363 6.60449C32.7376 6.60378 32.739 6.60322 32.7402 6.60254C32.7419 6.60147 32.7435 6.60051 32.7451 6.59961L32.7461 6.59863C32.7406 6.60162 32.7343 6.60559 32.7275 6.60938ZM28.2559 6.14062C28.153 6.18407 28.0511 6.22934 27.9512 6.27832L28.165 6.17871C28.1951 6.16545 28.2256 6.15341 28.2559 6.14062ZM15.7852 6.11914C15.7838 6.11835 15.7826 6.11698 15.7812 6.11621C15.7727 6.11119 15.7642 6.10668 15.7568 6.10254C15.7654 6.10738 15.7749 6.11309 15.7852 6.11914ZM35.6982 5.95605C35.694 5.95084 35.6898 5.9456 35.6855 5.94043C35.6898 5.9456 35.694 5.95084 35.6982 5.95605ZM24.4922 5.9043V5.90527V5.9043ZM13.833 5.83008C13.8122 5.85126 13.7913 5.87237 13.7715 5.89453C13.7913 5.87237 13.8122 5.85126 13.833 5.83008ZM35.627 5.87402C35.6156 5.86159 35.6044 5.84903 35.5928 5.83691C35.6044 5.84903 35.6156 5.86159 35.627 5.87402ZM35.543 5.78711C35.5282 5.77289 35.5133 5.75885 35.498 5.74512C35.5133 5.75885 35.5282 5.77289 35.543 5.78711ZM14.0254 5.65918C14.0054 5.6746 13.9852 5.68985 13.9658 5.70605C13.9852 5.68985 14.0053 5.6746 14.0254 5.65918ZM35.4492 5.70215C35.437 5.69188 35.4246 5.68183 35.4121 5.67188C35.4246 5.68183 35.437 5.69188 35.4492 5.70215ZM14.1279 5.58496C14.1044 5.60066 14.0814 5.61707 14.0586 5.63379C14.0814 5.61707 14.1044 5.60066 14.1279 5.58496ZM14.5049 5.39258C14.471 5.40533 14.4372 5.41799 14.4043 5.43262C14.4372 5.418 14.471 5.40533 14.5049 5.39258ZM34.6211 5.30273C34.6504 5.30867 34.6792 5.31596 34.708 5.32324C34.6862 5.31774 34.6646 5.31138 34.6426 5.30664L34.6211 5.30273ZM26.3301 5.22754C26.3246 5.21888 26.3192 5.21004 26.3135 5.20117C26.3192 5.21005 26.3246 5.21887 26.3301 5.22754ZM23.9268 4.47266C23.8927 4.48833 23.8596 4.5038 23.8281 4.52051C23.8596 4.50383 23.8927 4.4883 23.9268 4.47266ZM28.3828 4.4668V4.46973L28.3838 4.46875V4.46777C28.3865 4.46695 28.389 4.46562 28.3916 4.46484C28.3891 4.46558 28.386 4.46603 28.3828 4.4668ZM28.3916 4.46582H28.3926H28.3916ZM28.4502 4.44727C28.4475 4.44796 28.4437 4.45005 28.4395 4.45117H28.4375L28.4004 4.46191V4.46387L28.4375 4.45215L28.4395 4.45117C28.4436 4.45008 28.4475 4.44893 28.4502 4.44824H28.4482L28.4561 4.44629H28.4541C28.453 4.44658 28.4515 4.44692 28.4502 4.44727ZM28.8076 4.35742H28.8066H28.8076ZM24.3164 4.34082L24.2949 4.3457H24.2959L24.3174 4.34082H24.3164ZM20.5986 3.42383C20.5903 3.42231 20.5815 3.42137 20.5732 3.41992C20.5674 3.41912 20.5619 3.41848 20.5576 3.41797C20.5523 3.41737 20.5474 3.41636 20.5439 3.41602C20.5465 3.41625 20.5502 3.4156 20.5537 3.41602C20.5638 3.41721 20.5796 3.42062 20.5986 3.42383Z" fill="white" fill-opacity="0.3"/>
</g>
</g>
</g>
</svg>
