<svg width="44" height="44" viewBox="0 0 44 44" fill="none" xmlns="http://www.w3.org/2000/svg">
<rect width="44" height="44" fill="#BEBEBE"/>
<g id="Decorate Mode">
<path d="M-299.86 -1123.03V-1122.03H2720.14V-1123.03V-1124.03H-299.86V-1123.03ZM2722.14 -1121.03H2721.14V2416.97H2722.14H2723.14V-1121.03H2722.14ZM2720.14 2418.97V2417.97H-299.86V2418.97V2419.97H2720.14V2418.97ZM-301.86 2416.97H-300.86V-1121.03H-301.86H-302.86V2416.97H-301.86ZM-299.86 2418.97V2417.97C-300.413 2417.97 -300.86 2417.52 -300.86 2416.97H-301.86H-302.86C-302.86 2418.62 -301.517 2419.97 -299.86 2419.97V2418.97ZM2722.14 2416.97H2721.14C2721.14 2417.52 2720.69 2417.97 2720.14 2417.97V2418.97V2419.97C2721.8 2419.97 2723.14 2418.62 2723.14 2416.97H2722.14ZM2720.14 -1123.03V-1122.03C2720.69 -1122.03 2721.14 -1121.59 2721.14 -1121.03H2722.14H2723.14C2723.14 -1122.69 2721.8 -1124.03 2720.14 -1124.03V-1123.03ZM-299.86 -1123.03V-1124.03C-301.517 -1124.03 -302.86 -1122.69 -302.86 -1121.03H-301.86H-300.86C-300.86 -1121.59 -300.413 -1122.03 -299.86 -1122.03V-1123.03Z" fill="black" fill-opacity="0.1"/>
<g id="Stickers">
<rect x="-247.852" y="-250.534" width="374" height="551" rx="4.5" stroke="#9747FF" stroke-dasharray="10 5"/>
<g id="Property 1=fire">
<g id="Frame 174">
<path id="Union" d="M23.8046 8.18821C23.9013 8.19615 24.0207 8.21453 24.1243 8.26082C24.2253 8.30594 24.3752 8.41032 24.3861 8.61083C24.3953 8.78236 24.292 8.9304 24.1813 9.04598C24.0882 9.14309 23.9364 9.24068 23.8156 9.31711C23.6783 9.40399 23.5626 9.47397 23.4886 9.53233C21.3501 11.2166 21.1633 14.7701 23.2258 16.5685L23.2749 16.6103L23.276 16.6108L23.2765 16.6113C24.0024 17.2319 24.632 17.22 24.9247 17.0047C25.0693 16.8982 25.1685 16.7227 25.1728 16.4724C25.1771 16.2167 25.0808 15.8769 24.8139 15.4756C24.796 15.4487 24.7674 15.4117 24.7193 15.3456C24.6762 15.2861 24.6244 15.212 24.5788 15.1345C24.535 15.0599 24.4875 14.9669 24.4644 14.8702C24.4421 14.7766 24.4309 14.6241 24.5391 14.4961C24.668 14.3439 24.847 14.3236 24.9842 14.3415C25.117 14.3589 25.2495 14.4147 25.3598 14.4716C25.5461 14.5677 25.7532 14.7147 25.8477 14.7788L25.8806 14.8007L25.8895 14.8064L25.8974 14.8122C26.2895 15.1055 26.6658 15.4593 26.9829 15.8314C28.2694 17.2962 28.6297 19.3057 28.046 21.1421L27.8072 21.8656C27.7259 22.1066 27.6444 22.3463 27.5675 22.5807C27.4473 22.9471 27.3603 23.2895 27.3961 23.6193L27.4003 23.6511C27.4121 23.7401 27.4521 23.8051 27.4933 23.8381C27.5278 23.8658 27.5698 23.8785 27.6307 23.8585C27.8037 23.8014 27.9446 23.6336 28.0512 23.3669C28.1554 23.1063 28.2066 22.8005 28.2309 22.5572V22.5541C28.2339 22.5272 28.2344 22.4682 28.2319 22.3733C28.2297 22.2882 28.2254 22.1766 28.2236 22.074C28.2218 21.9704 28.2221 21.86 28.2304 21.7653C28.2345 21.7181 28.2415 21.6677 28.2534 21.6206C28.2635 21.5802 28.2845 21.5102 28.3364 21.4508L28.3798 21.4059C28.485 21.3077 28.6188 21.2553 28.7674 21.28C28.9134 21.3043 29.0246 21.3966 29.097 21.4738C29.2403 21.6264 29.3445 21.8416 29.389 21.9737C29.7563 22.8495 29.9877 23.7589 30.0859 24.6985L30.0953 24.79L30.1136 25.0162C30.2765 27.3535 29.5466 29.6691 28.0663 31.4923L28.0643 31.4949C26.5886 33.2656 24.4674 34.3746 22.1711 34.5765C20.3461 34.7485 18.3636 34.286 16.816 33.2919L16.815 33.2914C14.7862 31.9764 13.363 29.909 12.8594 27.5445C12.6244 26.4622 12.6177 25.3699 12.7204 24.2885L12.7215 24.279L12.723 24.2702C12.7281 24.2404 12.7321 24.1958 12.7377 24.1317C12.7429 24.0719 12.7492 23.9986 12.758 23.9264C12.7668 23.8547 12.7792 23.7754 12.7993 23.7013C12.8182 23.6315 12.8499 23.5421 12.9106 23.4678C12.9903 23.3703 13.1026 23.286 13.2486 23.2802C13.3903 23.2746 13.497 23.3461 13.5615 23.4061C13.6847 23.5207 13.7624 23.6938 13.7955 23.7744L13.877 23.9583C13.9602 24.1289 14.0522 24.2626 14.1873 24.383C14.2412 24.431 14.2785 24.4318 14.3059 24.4264C14.3427 24.419 14.3978 24.3905 14.4558 24.3229C14.5569 24.1716 14.5786 23.9784 14.5462 23.7373C14.5121 23.4838 14.4299 23.2402 14.3623 22.9788L14.2709 22.6069C14.2429 22.4838 14.2175 22.3593 14.1957 22.2276C13.906 20.536 14.3051 18.7988 15.3042 17.4033V17.4028C15.3685 17.3133 15.5255 17.0908 15.7075 16.9242C15.7969 16.8424 15.9135 16.7542 16.0465 16.7121C16.1952 16.6652 16.371 16.6765 16.5183 16.8083C16.6303 16.9081 16.6943 17.0515 16.6938 17.2016V17.2027C16.693 17.3059 16.6609 17.4403 16.6337 17.5438C16.6054 17.6518 16.5684 17.7749 16.5496 17.8426C16.4126 18.3355 16.4227 19.0076 16.6264 19.5482C16.8274 20.0812 17.1922 20.4398 17.7558 20.4457C17.8133 20.4463 17.904 20.4242 18.0045 20.3726C18.1033 20.3218 18.187 20.2555 18.2359 20.195C18.5778 19.772 18.5703 19.2239 18.3994 18.5881C18.3149 18.2738 18.1951 17.9552 18.0734 17.6399C17.9546 17.332 17.8313 17.0211 17.7501 16.7398C17.5492 16.0887 17.4528 15.7313 17.4074 15.0123V15.0102C17.3151 13.3263 17.8842 11.673 18.9934 10.4026L18.9939 10.4016L18.9944 10.4011C20.154 9.09076 21.7865 8.29424 23.533 8.18664C23.6077 8.18134 23.7052 8.18004 23.8046 8.18821ZM22.5974 34.2746C22.4573 34.2945 22.3164 34.3113 22.1748 34.3242C22.3164 34.3113 22.4573 34.2945 22.5974 34.2746ZM22.8638 34.2323C22.8993 34.226 22.935 34.2206 22.9704 34.214L22.9766 34.2124C22.9391 34.2195 22.9014 34.2257 22.8638 34.2323ZM23.4954 34.0964C23.4109 34.118 23.3262 34.1386 23.241 34.1576C23.3262 34.1386 23.4109 34.118 23.4954 34.0964ZM23.7258 34.0343C23.7423 34.0295 23.7589 34.025 23.7754 34.0202C23.7589 34.025 23.7423 34.0295 23.7258 34.0343ZM24.1108 33.9141C24.1294 33.9078 24.148 33.9013 24.1667 33.8948C24.148 33.9013 24.1294 33.9078 24.1108 33.9141ZM25.0667 33.5234C25.0818 33.5161 25.0967 33.5088 25.1117 33.5014C25.0967 33.5088 25.0818 33.5161 25.0667 33.5234ZM25.4167 33.3437C25.4386 33.3318 25.4608 33.3207 25.4826 33.3087C25.4608 33.3207 25.4386 33.3318 25.4167 33.3437ZM25.5756 33.2559C25.6021 33.2408 25.6286 33.2258 25.655 33.2105C25.6286 33.2258 25.6021 33.2408 25.5756 33.2559ZM26.2447 32.8312C26.279 32.8072 26.3132 32.7831 26.3471 32.7586C26.3132 32.7831 26.279 32.8072 26.2447 32.8312ZM26.4339 32.6949C26.4571 32.6775 26.4803 32.6602 26.5033 32.6426C26.4803 32.6602 26.4571 32.6775 26.4339 32.6949ZM26.5901 32.5752C26.6194 32.5522 26.6487 32.5291 26.6778 32.5057C26.6487 32.5291 26.6194 32.5522 26.5901 32.5752ZM26.7233 32.4687C26.7607 32.4382 26.7982 32.4078 26.8351 32.3767C26.7982 32.4078 26.7607 32.4382 26.7233 32.4687ZM26.939 32.2874C26.9553 32.2732 26.9714 32.2589 26.9876 32.2445C26.9714 32.2589 26.9553 32.2732 26.939 32.2874ZM27.0518 32.1871C27.0821 32.1597 27.1124 32.1324 27.1422 32.1045C27.1124 32.1324 27.0821 32.1597 27.0518 32.1871ZM27.2054 32.0445C27.2351 32.0163 27.2645 31.9879 27.2937 31.9593C27.2645 31.9879 27.2351 32.0163 27.2054 32.0445ZM27.3433 31.9097C27.3762 31.877 27.4092 31.8443 27.4416 31.811C27.4092 31.8443 27.3762 31.877 27.3433 31.9097ZM27.6218 31.6192C27.6558 31.582 27.6898 31.5448 27.7231 31.5069C27.6898 31.5448 27.6558 31.582 27.6218 31.6192ZM28.0298 31.1334C27.9781 31.2009 27.9253 31.2678 27.8715 31.334C27.839 31.3729 27.8058 31.4112 27.7728 31.4495C27.7944 31.4244 27.8167 31.3996 27.8381 31.3742L27.8715 31.334C27.9252 31.2678 27.9781 31.2009 28.0298 31.1334ZM28.6216 30.2584C28.5027 30.4586 28.3757 30.6547 28.2408 30.8461C28.3757 30.6547 28.5027 30.4586 28.6216 30.2584ZM29.2955 28.8631C29.3173 28.8058 29.3386 28.7484 29.3593 28.6907C29.3386 28.7484 29.3173 28.8058 29.2955 28.8631ZM29.6111 27.8627C29.5884 27.9526 29.5644 28.0421 29.539 28.1312C29.5644 28.0421 29.5884 27.9526 29.6111 27.8627ZM12.9754 26.7213C13.0064 26.9791 13.0493 27.2361 13.1049 27.4923C13.0493 27.2361 13.0064 26.9791 12.9754 26.7213ZM29.6962 27.4923C29.6995 27.4765 29.7029 27.4606 29.7061 27.4448C29.7029 27.4606 29.6995 27.4765 29.6962 27.4923ZM29.7349 27.2954C29.7388 27.2743 29.7426 27.2532 29.7464 27.2322C29.7426 27.2532 29.7388 27.2743 29.7349 27.2954ZM29.7694 27.0984C29.7736 27.0723 29.7774 27.0462 29.7814 27.0201C29.7774 27.0462 29.7736 27.0723 29.7694 27.0984ZM12.9492 26.4689C12.9546 26.5273 12.9605 26.5856 12.967 26.6439C12.9605 26.5856 12.9546 26.5273 12.9492 26.4689ZM29.8822 25.8525C29.8831 25.8104 29.884 25.7683 29.8843 25.7261C29.884 25.7683 29.8831 25.8104 29.8822 25.8525ZM12.908 25.5412C12.9079 25.5917 12.9099 25.6422 12.9106 25.6927C12.9099 25.6422 12.9079 25.5917 12.908 25.5412ZM29.8843 25.572C29.884 25.5445 29.8838 25.517 29.8832 25.4894C29.8838 25.517 29.884 25.5445 29.8843 25.572ZM29.8733 25.2168C29.8707 25.163 29.868 25.1091 29.8644 25.0553C29.868 25.1091 29.8707 25.163 29.8733 25.2168ZM12.9153 25.1441C12.9134 25.1978 12.9133 25.2514 12.9122 25.305C12.9133 25.2514 12.9134 25.1978 12.9153 25.1441ZM12.9351 24.7476C12.9301 24.8253 12.9268 24.903 12.9231 24.9806C12.9268 24.903 12.9301 24.8253 12.9351 24.7476ZM12.9607 24.4117C12.9568 24.456 12.9543 24.5006 12.9508 24.5449C12.957 24.4674 12.9628 24.3896 12.9701 24.312L12.9607 24.4117ZM27.2686 23.9651C27.2956 23.9984 27.3265 24.0272 27.3606 24.0508C27.3265 24.0272 27.2956 23.9984 27.2686 23.9651ZM13.0401 23.7713C13.0282 23.8163 13.0197 23.8662 13.0125 23.9176C13.0197 23.8662 13.0282 23.8163 13.0401 23.7713ZM27.1804 23.8047C27.1865 23.8223 27.1936 23.8393 27.2013 23.8559C27.1936 23.8393 27.1865 23.8223 27.1804 23.8047ZM13.0673 23.6914C13.0656 23.6954 13.0643 23.6997 13.0626 23.7039C13.0643 23.6997 13.0656 23.6954 13.0673 23.6914ZM13.0835 23.6579C13.0809 23.6624 13.0786 23.6672 13.0762 23.672C13.0786 23.6672 13.0809 23.6624 13.0835 23.6579ZM13.0997 23.6328C13.0967 23.6369 13.0942 23.6415 13.0913 23.6459C13.0958 23.6391 13.1001 23.6325 13.1049 23.6266L13.0997 23.6328ZM14.3984 21.8828C14.3842 21.765 14.3744 21.647 14.367 21.5292C14.3744 21.647 14.3842 21.765 14.3984 21.8828ZM28.5752 21.5683C28.5584 21.581 28.5416 21.5969 28.525 21.6159C28.5239 21.6172 28.5235 21.6191 28.5224 21.6206C28.5235 21.6191 28.5244 21.6172 28.5255 21.6159C28.5421 21.597 28.5584 21.581 28.5752 21.5683ZM27.6322 21.5945C27.6811 21.4485 27.7308 21.3027 27.778 21.1562L27.8072 21.0658C27.751 21.2425 27.6912 21.4185 27.6322 21.5945ZM14.3566 20.9691C14.3557 21.0013 14.3565 21.0336 14.3561 21.0658C14.3565 21.0336 14.3557 21.0013 14.3566 20.9691ZM14.4026 20.3694C14.3943 20.435 14.3889 20.501 14.3827 20.5669C14.3889 20.501 14.3943 20.435 14.4026 20.3694ZM14.447 20.0753C14.4378 20.1277 14.4313 20.1805 14.4234 20.2331C14.4313 20.1805 14.4378 20.1277 14.447 20.0753ZM14.5065 19.7802C14.4978 19.8188 14.491 19.8579 14.483 19.8967C14.491 19.8579 14.4978 19.8188 14.5065 19.7802ZM14.5802 19.4876C14.5664 19.537 14.555 19.5869 14.5426 19.6365C14.555 19.5869 14.5664 19.537 14.5802 19.4876ZM14.67 19.1946C14.6517 19.2498 14.6351 19.3055 14.6183 19.3612C14.6351 19.3055 14.6517 19.2498 14.67 19.1946ZM14.7688 18.9193C14.7511 18.9649 14.7356 19.0112 14.7191 19.0572C14.7356 19.0112 14.7511 18.9649 14.7688 18.9193ZM14.8842 18.6414C14.8668 18.6806 14.8506 18.7204 14.8341 18.7599C14.8506 18.7204 14.8668 18.6806 14.8842 18.6414ZM15.0221 18.3519C14.9962 18.4031 14.9719 18.4548 14.9474 18.5066C14.9719 18.4548 14.9962 18.4031 15.0221 18.3519ZM15.159 18.096C15.1336 18.1407 15.1101 18.1865 15.0858 18.2318C15.1101 18.1865 15.1336 18.1407 15.159 18.096ZM15.3152 17.8369C15.2883 17.8792 15.2626 17.922 15.2368 17.9648C15.2626 17.922 15.2883 17.8792 15.3152 17.8369ZM16.4394 17.2419C16.4404 17.2319 16.4421 17.2226 16.4425 17.2136L16.443 17.2006C16.4429 17.2131 16.4409 17.2269 16.4394 17.2419ZM15.4635 17.6122C15.4403 17.6456 15.4187 17.6803 15.3961 17.7141C15.4329 17.659 15.4693 17.6036 15.5079 17.5495L15.4635 17.6122ZM25.2835 16.9796C25.2734 16.9958 25.2617 17.0108 25.2506 17.0261C25.2617 17.0108 25.2734 16.9958 25.2835 16.9796ZM25.4162 16.5852C25.4149 16.5967 25.4126 16.6079 25.411 16.6192C25.4122 16.6106 25.4147 16.6022 25.4157 16.5936L25.4162 16.5852ZM25.3316 15.9458C25.3555 16.0158 25.3731 16.0844 25.3875 16.1506C25.3731 16.0844 25.3555 16.0158 25.3316 15.9458ZM26.3038 15.4819C26.478 15.646 26.6432 15.8194 26.7943 15.997C26.6432 15.8194 26.478 15.646 26.3038 15.4819ZM26.2103 15.3957C26.1991 15.3856 26.188 15.3754 26.1768 15.3654C26.188 15.3754 26.1991 15.3856 26.2103 15.3957ZM25.9036 15.1345C25.9803 15.1958 26.0563 15.2592 26.1309 15.3247C26.0563 15.2592 25.9803 15.1958 25.9036 15.1345ZM25.8336 15.0797C25.8166 15.0665 25.8 15.0529 25.7829 15.04L25.7474 15.0133C25.7764 15.035 25.8049 15.0573 25.8336 15.0797ZM19.6176 10.1211C19.4659 10.2619 19.3204 10.4108 19.182 10.5672H19.1825C19.3208 10.4109 19.4659 10.2619 19.6176 10.1211ZM19.8475 9.91786C19.8414 9.92302 19.8358 9.92887 19.8297 9.93406C19.8358 9.92887 19.8414 9.92302 19.8475 9.91786ZM20.0899 9.72405C20.0523 9.75265 20.0161 9.78288 19.9791 9.81234C20.0161 9.78288 20.0523 9.75265 20.0899 9.72405ZM20.3417 9.54174C20.2945 9.57415 20.2485 9.60832 20.2022 9.64204C20.2485 9.60832 20.2945 9.57415 20.3417 9.54174ZM20.5987 9.37405C20.5667 9.39383 20.5358 9.41534 20.5041 9.43569C20.5358 9.41534 20.5667 9.39383 20.5987 9.37405ZM23.6746 9.10867C23.5602 9.18089 23.4435 9.25381 23.3585 9.31711C23.4435 9.25381 23.5602 9.18089 23.6746 9.10867ZM20.8688 9.21628C20.8128 9.24717 20.7582 9.28035 20.7032 9.31293C20.7582 9.28035 20.8128 9.24717 20.8688 9.21628ZM21.1409 9.07471C21.0775 9.10584 21.0152 9.13918 20.9529 9.1724C21.0152 9.13918 21.0775 9.10584 21.1409 9.07471ZM21.4183 8.94673C21.3578 8.97289 21.2983 9.00123 21.2386 9.02927C21.2983 9.00123 21.3578 8.97289 21.4183 8.94673ZM23.9128 8.94725C23.9172 8.94387 23.9216 8.94068 23.9258 8.93732C23.9216 8.94068 23.9172 8.94387 23.9128 8.94725ZM23.9676 8.90232C23.9741 8.89651 23.9811 8.8913 23.987 8.88561L24 8.87255C23.9905 8.8825 23.9792 8.89198 23.9676 8.90232ZM21.6983 8.83337C21.6463 8.85297 21.5951 8.87458 21.5437 8.89553C21.5951 8.87458 21.6463 8.85297 21.6983 8.83337ZM21.993 8.73046C21.9414 8.74705 21.8905 8.76533 21.8394 8.78322C21.8905 8.76533 21.9414 8.74705 21.993 8.73046ZM22.2881 8.64374C22.2326 8.65869 22.1776 8.67536 22.1225 8.6918C22.1776 8.67536 22.2326 8.65869 22.2881 8.64374ZM22.5979 8.56851C22.5336 8.5824 22.4699 8.59863 22.4062 8.61448C22.4699 8.59863 22.5336 8.5824 22.5979 8.56851ZM22.8978 8.51157C22.8293 8.52294 22.7614 8.53614 22.6935 8.54971C22.7614 8.53614 22.8293 8.52294 22.8978 8.51157ZM23.1919 8.46978C23.1393 8.47601 23.0869 8.48367 23.0346 8.4912C23.0869 8.48367 23.1393 8.47601 23.1919 8.46978ZM23.4698 8.44262C23.4398 8.44484 23.4098 8.44833 23.3799 8.45097C23.4359 8.44603 23.4919 8.44034 23.5481 8.43687L23.4698 8.44262ZM24.4409 33.7945C24.4167 33.8038 24.3926 33.8131 24.3683 33.8222C24.3926 33.8131 24.4167 33.8038 24.4409 33.7945ZM26.1021 32.9294C26.1299 32.9107 26.1576 32.892 26.1852 32.873C26.1576 32.892 26.1299 32.9107 26.1021 32.9294ZM27.4797 31.7713C27.5172 31.7322 27.5547 31.6931 27.5915 31.6532C27.5547 31.6931 27.5172 31.7322 27.4797 31.7713ZM29.1357 29.2554C29.1307 29.2668 29.1255 29.278 29.1205 29.2894C29.1255 29.278 29.1307 29.2668 29.1357 29.2554ZM29.2527 28.9733C29.2642 28.9442 29.276 28.9153 29.2872 28.8861C29.276 28.9153 29.2642 28.9442 29.2527 28.9733ZM29.6267 27.7979C29.6379 27.7523 29.6492 27.7068 29.6596 27.661C29.6492 27.7068 29.6379 27.7523 29.6267 27.7979ZM12.9378 26.3399C12.9411 26.3829 12.9453 26.4259 12.9492 26.4689C12.9453 26.4259 12.9411 26.3829 12.9378 26.3399ZM29.8644 26.261C29.8673 26.2184 29.87 26.1757 29.8723 26.133C29.87 26.1757 29.8673 26.2184 29.8644 26.261ZM29.8749 26.074C29.8773 26.0223 29.8797 25.9706 29.8811 25.9189C29.8797 25.9706 29.8773 26.0223 29.8749 26.074ZM29.8817 25.4341C29.8802 25.3754 29.8785 25.3167 29.8759 25.258C29.8785 25.3167 29.8802 25.3754 29.8817 25.4341ZM14.5885 24.546L14.5896 24.5449C14.5725 24.5607 14.5538 24.574 14.5358 24.5873C14.5534 24.5742 14.5718 24.5614 14.5885 24.546ZM14.3561 21.2774C14.3579 21.3613 14.3618 21.4452 14.367 21.5292C14.3618 21.4452 14.3579 21.3613 14.3561 21.2774ZM14.3984 21.8828C14.4106 21.9843 14.4259 22.0856 14.4433 22.1869C14.4259 22.0856 14.4106 21.9843 14.3984 21.8828ZM14.3728 20.6672C14.3677 20.7334 14.3648 20.7998 14.3618 20.8662C14.3648 20.7998 14.3677 20.7334 14.3728 20.6672ZM16.3083 17.7752C16.3295 17.6988 16.3614 17.5909 16.3892 17.4853C16.3614 17.5909 16.3295 17.6988 16.3083 17.7752ZM16.4106 17.3954C16.416 17.3723 16.4221 17.3501 16.4263 17.3286C16.4221 17.3501 16.416 17.3723 16.4106 17.3954ZM16.4305 17.304C16.4332 17.2885 16.436 17.2737 16.4378 17.2596C16.436 17.2737 16.4332 17.2885 16.4305 17.304ZM25.2308 15.7029C25.2465 15.7357 25.262 15.7678 25.2757 15.8C25.262 15.7678 25.2465 15.7357 25.2308 15.7029ZM25.3034 15.8727C25.3129 15.8974 25.3233 15.9214 25.3316 15.9458C25.3233 15.9214 25.3129 15.8974 25.3034 15.8727ZM23.6934 9.09666C23.7485 9.06167 23.8025 9.02682 23.8511 8.9927C23.8025 9.02683 23.7485 9.06166 23.6934 9.09666Z" fill="#020101"/>
<path id="Union (Stroke)" d="M24.3113 10.5858C23.2699 11.4095 22.9042 12.8784 23.2305 14.1104C23.2927 13.9518 23.3848 13.7897 23.5178 13.6324L23.5183 13.6314C23.988 13.0767 24.6008 12.9825 25.0003 13.0009L25.1576 13.015L25.2892 13.0364C25.5888 13.0953 25.832 13.2097 25.973 13.2824C26.2382 13.4192 26.5205 13.6179 26.5895 13.6653L26.6161 13.6831L26.6804 13.7275L26.6882 13.7333L26.6981 13.7406C27.1706 14.0939 27.6195 14.5161 28.0005 14.963H27.9999C29.2868 16.4366 29.818 18.3342 29.6094 20.188C29.8318 20.3179 29.9863 20.4668 30.0718 20.5578H30.0723C30.3631 20.8677 30.5437 21.2376 30.6359 21.4898C30.9941 22.352 31.2374 23.2435 31.3668 24.1598L31.4159 24.5589L31.4164 24.561L31.4258 24.6524L31.4284 24.6816L31.4467 24.9078L31.4478 24.9225C31.634 27.5943 30.8 30.2408 29.11 32.3264L29.1106 32.3269L29.0917 32.3504C27.3897 34.3928 24.9437 35.672 22.2959 35.9069L22.2964 35.9074C20.1826 36.1066 17.9002 35.5769 16.0935 34.4165V34.416C16.0917 34.4148 16.0896 34.414 16.0877 34.4128C13.7613 32.9049 12.1289 30.5344 11.5513 27.8228L11.5518 27.8223C11.2795 26.5649 11.2781 25.3274 11.3888 24.1613L11.3914 24.1399L11.3924 24.1305C11.3956 24.1022 11.3995 24.0739 11.4045 24.0459V24.0453C11.4015 24.0625 11.4002 24.0746 11.3998 24.0783C11.4002 24.0736 11.4009 24.0658 11.4018 24.0548C11.4028 24.0438 11.4041 24.0313 11.4055 24.0156C11.4104 23.9589 11.4185 23.8623 11.4306 23.7633C11.4425 23.6655 11.4642 23.5145 11.5084 23.3511L11.5476 23.221C11.6001 23.0649 11.6967 22.8391 11.8751 22.6208C12.0451 22.4128 12.3557 22.124 12.8139 22.0012C12.6024 20.1027 13.0983 18.1862 14.2165 16.6242C14.2171 16.6234 14.2175 16.6224 14.2181 16.6216C14.2683 16.5517 14.5035 16.213 14.8047 15.9372C14.9472 15.8069 15.2355 15.5652 15.6437 15.4363H15.6442C15.7814 15.393 15.9329 15.3636 16.0924 15.3537C16.0852 15.2717 16.0783 15.1861 16.0726 15.0962C16.0723 15.0917 16.0723 15.087 16.0721 15.0826L16.0637 14.8924C16.0043 12.9355 16.6832 11.0254 17.9684 9.54311C17.9764 9.53345 17.9846 9.52382 17.9929 9.51438L18.1251 9.36811C19.51 7.87924 21.4163 6.97655 23.4509 6.85121V6.85225C23.5825 6.8435 23.7441 6.84089 23.9143 6.85486C24.047 6.86578 24.2899 6.89345 24.5547 6.99225L24.6697 7.03927C24.9376 7.159 25.625 7.5627 25.7145 8.45026L25.7212 8.53802V8.53854C25.7617 9.29374 25.3116 9.79824 25.1466 9.97043V9.97095C24.9188 10.2086 24.6153 10.3933 24.5307 10.4469C24.4944 10.4698 24.4578 10.4924 24.4288 10.5106C24.3981 10.5299 24.3737 10.5456 24.3526 10.5592C24.3315 10.5727 24.3182 10.5814 24.3103 10.5869C24.3034 10.5916 24.3046 10.5909 24.3113 10.5858ZM23.5329 8.18593C21.7864 8.29352 20.154 9.09008 18.9944 10.4004L18.9938 10.4009L18.9933 10.4019C17.8842 11.6723 17.3151 13.3256 17.4073 15.0095V15.0116C17.4527 15.7305 17.5491 16.088 17.75 16.7391C17.8313 17.0204 17.9545 17.3313 18.0734 17.6392C18.1951 17.9545 18.3149 18.2731 18.3993 18.5874C18.5703 19.2231 18.5777 19.7713 18.2358 20.1942C18.1869 20.2547 18.1033 20.3211 18.0044 20.3719C17.9039 20.4234 17.8132 20.4456 17.7558 20.445C17.1922 20.4391 16.8273 20.0805 16.6263 19.5475C16.4226 19.0069 16.4125 18.3347 16.5495 17.8419C16.5684 17.7741 16.6053 17.651 16.6336 17.5431C16.6608 17.4395 16.6929 17.3051 16.6937 17.202V17.2009C16.6942 17.0508 16.6302 16.9074 16.5182 16.8076C16.3709 16.6758 16.1951 16.6645 16.0465 16.7114C15.9134 16.7535 15.7969 16.8417 15.7074 16.9235C15.5255 17.0901 15.3684 17.3126 15.3041 17.402V17.4026C14.3051 18.798 13.9059 20.5353 14.1956 22.2269C14.2174 22.3586 14.2429 22.4831 14.2708 22.6061L14.3623 22.9781C14.4298 23.2395 14.5121 23.4831 14.5462 23.7366C14.5785 23.9776 14.5568 24.1709 14.4558 24.3222C14.3977 24.3898 14.3426 24.4183 14.3058 24.4257C14.2785 24.4311 14.2411 24.4303 14.1873 24.3823C14.0522 24.2619 13.9602 24.1282 13.877 23.9576L13.7955 23.7737C13.7623 23.693 13.6846 23.52 13.5614 23.4054C13.4969 23.3454 13.3902 23.2739 13.2485 23.2795C13.1026 23.2853 12.9902 23.3696 12.9105 23.4671C12.8498 23.5413 12.8182 23.6308 12.7993 23.7006C12.7792 23.7747 12.7668 23.854 12.758 23.9257C12.7492 23.9979 12.7428 24.0712 12.7376 24.131C12.7321 24.195 12.728 24.2397 12.723 24.2695L12.7214 24.2783L12.7204 24.2877C12.6177 25.3692 12.6243 26.4615 12.8593 27.5438C13.363 29.9083 14.7862 31.9757 16.8149 33.2907L16.816 33.2912C18.3635 34.2852 20.3461 34.7478 22.171 34.5758C24.4673 34.3739 26.5886 33.2649 28.0642 31.4942L28.0663 31.4916C29.5465 29.6683 30.2765 27.3527 30.1136 25.0154L30.0953 24.7892L30.0859 24.6978C29.9876 23.7582 29.7562 22.8488 29.389 21.973C29.3444 21.8408 29.2402 21.6257 29.097 21.4731C29.0245 21.3959 28.9133 21.3036 28.7673 21.2793C28.6188 21.2546 28.4849 21.3071 28.3797 21.4052L28.3364 21.4501C28.2844 21.5095 28.2635 21.5794 28.2533 21.6199C28.2415 21.6669 28.2345 21.7175 28.2303 21.7646C28.222 21.8592 28.2217 21.9697 28.2235 22.0733C28.2253 22.1758 28.2297 22.2875 28.2319 22.3726C28.2344 22.4674 28.2338 22.5265 28.2308 22.5534V22.5565C28.2065 22.7998 28.1553 23.1056 28.0511 23.3662C27.9445 23.6329 27.8037 23.8006 27.6306 23.8578C27.5697 23.8778 27.5277 23.8651 27.4932 23.8374C27.4521 23.8044 27.412 23.7394 27.4002 23.6504L27.396 23.6185C27.3603 23.2888 27.4472 22.9464 27.5674 22.58C27.6444 22.3456 27.7259 22.1058 27.8072 21.8649L28.0459 21.1413C28.6296 19.305 28.2693 17.2954 26.9828 15.8307C26.6657 15.4586 26.2894 15.1048 25.8973 14.8115L25.8895 14.8057L25.8806 14.8L25.8477 14.778C25.7531 14.714 25.546 14.567 25.3597 14.4709C25.2494 14.414 25.1169 14.3582 24.9841 14.3408C24.8469 14.3228 24.668 14.3433 24.5391 14.4954C24.4309 14.6234 24.4421 14.7759 24.4644 14.8695C24.4874 14.9662 24.5349 15.0592 24.5788 15.1338C24.6243 15.2112 24.6761 15.2854 24.7193 15.3448C24.7673 15.4109 24.7959 15.448 24.8138 15.4749C25.0807 15.8761 25.177 16.216 25.1727 16.4717C25.1684 16.722 25.0692 16.8975 24.9246 17.004C24.6319 17.2192 24.0024 17.2312 23.2764 16.6106L23.2759 16.6101L23.2749 16.6096L23.2258 16.5678C21.1632 14.7693 21.3501 11.2159 23.4885 9.53162C23.5626 9.47326 23.6782 9.40326 23.8155 9.31639C23.9364 9.23997 24.0882 9.14237 24.1812 9.04527C24.292 8.92969 24.3952 8.78162 24.386 8.61011C24.3751 8.40966 24.2252 8.30522 24.1243 8.26011C24.0206 8.21383 23.9012 8.19543 23.8046 8.18749C23.7051 8.17933 23.6076 8.18063 23.5329 8.18593ZM22.9703 34.2133C22.9349 34.2199 22.8993 34.2253 22.8637 34.2315C22.9014 34.225 22.9391 34.2188 22.9766 34.2117L22.9703 34.2133ZM27.8714 31.3333L27.838 31.3735C27.8166 31.3989 27.7944 31.4237 27.7727 31.4487C27.8058 31.4105 27.839 31.3722 27.8714 31.3333ZM14.5885 24.5453C14.5717 24.5607 14.5534 24.5735 14.5357 24.5865C14.5537 24.5732 14.5724 24.56 14.5895 24.5442L14.5885 24.5453ZM12.9508 24.5442C12.9543 24.5 12.9568 24.4553 12.9607 24.411L12.969 24.3217L12.9508 24.5442ZM13.0913 23.6452C13.0941 23.6408 13.0966 23.6362 13.0996 23.6321L13.1049 23.6259C13.1 23.6318 13.0957 23.6384 13.0913 23.6452ZM29.6157 22.3883C29.6251 22.375 29.6337 22.362 29.6418 22.3496C29.6348 22.3605 29.626 22.3736 29.6157 22.3883ZM28.5255 21.6152C28.5243 21.6165 28.5234 21.6184 28.5223 21.6199C28.5234 21.6184 28.5238 21.6165 28.5249 21.6152C28.5415 21.5962 28.5584 21.5803 28.5751 21.5676C28.5584 21.5803 28.542 21.5963 28.5255 21.6152ZM27.7779 21.1555C27.7307 21.3019 27.6811 21.4478 27.6322 21.5937C27.6911 21.4178 27.751 21.2418 27.8072 21.0651L27.7779 21.1555ZM15.3961 17.7134C15.4186 17.6796 15.4402 17.6449 15.4635 17.6115L15.5058 17.5514L15.3961 17.7134ZM16.4424 17.2129C16.442 17.2218 16.4403 17.2312 16.4393 17.2411C16.4409 17.2262 16.4429 17.2124 16.443 17.1999L16.4424 17.2129ZM25.4156 16.5928C25.4146 16.6015 25.4122 16.6099 25.4109 16.6184C25.4126 16.6072 25.4149 16.5959 25.4162 16.5845L25.4156 16.5928ZM25.7829 15.0392C25.7999 15.0522 25.8166 15.0658 25.8336 15.0789L25.7489 15.0136L25.7829 15.0392ZM19.395 10.3377C19.3225 10.4121 19.2516 10.4883 19.1824 10.5665H19.1819C19.2511 10.4882 19.3223 10.4121 19.395 10.3377ZM24.8347 9.91976C24.8337 9.92064 24.8327 9.92135 24.8321 9.92185C24.8312 9.92264 24.8314 9.9226 24.8311 9.92289C24.8314 9.92261 24.8324 9.92185 24.8337 9.9208C24.8359 9.91895 24.8403 9.915 24.8462 9.90983C24.8409 9.91436 24.8369 9.91796 24.8347 9.91976ZM23.9869 8.88489C23.981 8.89057 23.9741 8.89581 23.9676 8.90161C23.9791 8.89128 23.9904 8.88177 24 8.87183L23.9869 8.88489ZM23.3799 8.45026C23.4098 8.44762 23.4397 8.44412 23.4697 8.4419L23.5481 8.43615C23.4918 8.43962 23.4358 8.44531 23.3799 8.45026Z" fill="#E8E7E7"/>
<path id="Union (Stroke) (Stroke)" d="M23.9804 6.05522C24.1034 6.06534 24.3175 6.08854 24.5707 6.15656L24.835 6.24014L24.859 6.24955L24.9739 6.29656L24.9969 6.30701C25.3555 6.46723 26.3795 7.04836 26.5129 8.36937C26.5135 8.37551 26.5145 8.38203 26.515 8.38818L26.5212 8.47594C26.5228 8.49638 26.5233 8.51708 26.5233 8.53758V8.53863C26.5585 9.48311 26.0725 10.1385 25.8191 10.4244L25.7262 10.5258C25.4189 10.8463 25.0278 11.0821 24.9593 11.1255C24.9274 11.1456 24.8703 11.1812 24.8559 11.1902C24.8286 11.2074 24.8064 11.2216 24.7869 11.2341C24.445 11.5127 24.1972 11.9006 24.0556 12.3332C24.328 12.2434 24.5901 12.2062 24.8162 12.1984L25.0377 12.1995L25.0721 12.2016L25.2289 12.2162L25.2863 12.2235L25.418 12.2444C25.4267 12.2458 25.4354 12.2479 25.4441 12.2496C25.8503 12.3296 26.1706 12.4817 26.3405 12.5693H26.3415C26.6457 12.7263 26.9564 12.9438 27.0342 12.9977L27.0614 13.0154L27.0729 13.0228L27.1366 13.0677L27.1554 13.0802L27.1627 13.0865L27.1638 13.0875L27.1742 13.0948L27.1784 13.098C27.6963 13.4854 28.1866 13.9462 28.6045 14.4353L28.8646 14.7508C30.0161 16.2232 30.536 18.0209 30.4443 19.8043C30.5341 19.8824 30.6057 19.9539 30.6574 20.0091C31.0318 20.408 31.2567 20.8656 31.3762 21.1824H31.3773C31.7614 22.107 32.022 23.064 32.1609 24.0471L32.163 24.0617L32.2121 24.4608H32.211C32.2118 24.4668 32.2135 24.4726 32.2141 24.4786L32.2235 24.5705L32.2256 24.581H32.2246L32.2277 24.6102L32.2288 24.6165L32.2465 24.8432L32.2476 24.8505L32.2486 24.8652V24.8662C32.4486 27.7349 31.5549 30.5766 29.7443 32.8179C29.7418 32.8212 29.7396 32.8251 29.737 32.8283L29.7182 32.8513C29.7149 32.8555 29.7112 32.8598 29.7078 32.8639C27.8718 35.067 25.2349 36.4477 22.3798 36.7044C22.3771 36.7047 22.3741 36.7063 22.3714 36.7065C20.0844 36.922 17.6219 36.3515 15.6599 35.0913L15.6578 35.0892C15.6558 35.088 15.6535 35.0874 15.6515 35.0861C13.1466 33.4624 11.3882 30.91 10.7662 27.99C10.7652 27.9853 10.7661 27.9802 10.7651 27.9754C10.4736 26.6184 10.4744 25.299 10.5896 24.0858L10.5928 24.0638L10.5948 24.0419L10.6011 23.997V24.0001C10.6014 23.9967 10.6025 23.9898 10.6032 23.9823V23.9813C10.6033 23.9808 10.6031 23.9794 10.6032 23.9781C10.6039 23.9711 10.6049 23.964 10.6053 23.9604C10.6058 23.9548 10.606 23.9501 10.6063 23.9458C10.611 23.8924 10.6204 23.7811 10.6345 23.6658C10.6484 23.5521 10.6751 23.358 10.7338 23.1413L10.7401 23.1194L10.7798 22.9898L10.7871 22.9658C10.859 22.7519 10.9953 22.43 11.2541 22.1132C11.4048 21.9288 11.6425 21.6893 11.9729 21.4937C11.9003 19.7287 12.3736 17.9772 13.3405 16.4851L13.54 16.1926C13.5337 16.2025 13.5281 16.2113 13.5244 16.2176C13.5226 16.2206 13.5215 16.2236 13.5202 16.226C13.5218 16.2231 13.5242 16.2194 13.5264 16.2156C13.5303 16.2089 13.5358 16.2004 13.5421 16.1905C13.5486 16.1804 13.5563 16.1676 13.5661 16.1539L13.7918 15.8541C13.914 15.7023 14.0771 15.5155 14.263 15.3453C14.4227 15.1991 14.7642 14.9087 15.2597 14.7215C15.2437 12.6318 15.9873 10.6024 17.3618 9.01713C17.3699 9.00751 17.3806 8.99557 17.3921 8.98265L17.3973 8.97638L17.53 8.83011L17.5373 8.82176C19.0622 7.18237 21.1614 6.18802 23.4016 6.05C23.4204 6.04884 23.4393 6.04983 23.458 6.05C23.609 6.0422 23.7888 6.03949 23.9804 6.05522ZM11.4014 24.0638C11.3978 24.086 11.3955 24.1084 11.393 24.1307L11.392 24.1401L11.3889 24.161C11.2781 25.327 11.2797 26.5646 11.5518 27.8218V27.8229C12.1295 30.5344 13.7619 32.9054 16.0882 34.4133L16.0934 34.4164C17.7871 35.5042 19.8991 36.0382 21.8981 35.9365L22.2962 35.9073C24.7786 35.687 27.0835 34.5483 28.7643 32.7239L29.0913 32.3509L29.1102 32.3269C30.6945 30.3717 31.5269 27.923 31.4713 25.4231L31.4483 24.9226L31.4473 24.908L31.4285 24.6813L31.4264 24.652L31.417 24.5611L31.4159 24.559L31.3668 24.1599C31.2375 23.2437 30.9947 22.3517 30.6366 21.4895C30.5443 21.2373 30.3632 20.8675 30.0724 20.5576H30.0713C29.9858 20.4666 29.8316 20.3175 29.6096 20.1877C29.818 18.334 29.2864 16.4364 27.9996 14.9629H28.0006C27.6197 14.516 27.1702 14.0939 26.6978 13.7405L26.6884 13.7332L26.68 13.728L26.6163 13.683L26.5891 13.6653C26.537 13.6294 26.3654 13.5092 26.1712 13.3936L25.9727 13.2829C25.8669 13.2283 25.7039 13.15 25.5026 13.0896L25.2894 13.0363L25.1578 13.0154L25 13.0008C24.6005 12.9825 23.9881 13.0774 23.5186 13.6318L23.5175 13.6329C23.3848 13.7901 23.2924 13.9519 23.2302 14.1104C22.9041 12.8784 23.2703 11.41 24.3115 10.5864C24.305 10.5914 24.3038 10.592 24.3105 10.5874C24.3184 10.582 24.3314 10.5727 24.3523 10.5592C24.3733 10.5457 24.398 10.5303 24.4286 10.5111C24.4575 10.493 24.4947 10.4704 24.531 10.4474C24.6155 10.3939 24.9185 10.2085 25.1463 9.971V9.96995C25.3114 9.79769 25.7614 9.29369 25.7209 8.53863V8.53758L25.7147 8.44982C25.625 7.56276 24.9379 7.1592 24.6699 7.03939L24.555 6.99237C24.4226 6.943 24.2955 6.91167 24.1851 6.89103L23.9145 6.85447C23.7443 6.84049 23.5823 6.84362 23.4507 6.85238V6.85133C21.4162 6.97675 19.5103 7.87947 18.1255 9.36817L17.9928 9.51443C17.9846 9.52369 17.9767 9.53317 17.9688 9.54264L17.7348 9.82577C16.6013 11.2642 16.0085 13.0581 16.0642 14.8929L16.0725 15.083C16.0728 15.0873 16.0723 15.0923 16.0725 15.0966C16.0782 15.1863 16.0851 15.2717 16.0924 15.3536C16.0128 15.3585 15.9353 15.3689 15.8605 15.3829L15.6442 15.4362C15.236 15.5651 14.9477 15.8073 14.8052 15.9376L14.5932 16.1508C14.3976 16.3656 14.2557 16.5696 14.2181 16.622L14.217 16.6241L14.0144 16.9208C13.0391 18.4254 12.6157 20.2214 12.8139 22.0015C12.3559 22.1243 12.0457 22.4131 11.8757 22.621L11.7566 22.785C11.6518 22.9478 11.587 23.1037 11.5477 23.2207L11.509 23.3513C11.4648 23.5145 11.4426 23.6652 11.4307 23.7629C11.4185 23.862 11.4105 23.9591 11.4056 24.0158C11.4042 24.0312 11.4034 24.0436 11.4024 24.0544C11.4021 24.0577 11.4016 24.0611 11.4014 24.0638ZM15.7152 35.1237C15.7198 35.1261 15.724 35.1275 15.7267 35.1289C15.7237 35.1274 15.7187 35.1256 15.7131 35.1226L15.7152 35.1237ZM23.8048 8.18758C23.9014 8.19553 24.0209 8.21343 24.1245 8.25967C24.2254 8.30475 24.3746 8.40954 24.3857 8.60967C24.3949 8.78117 24.2917 8.92976 24.181 9.04534C24.0879 9.14237 23.936 9.23956 23.8153 9.31593C23.678 9.40278 23.5623 9.47281 23.4883 9.53115C21.3498 11.2154 21.1635 14.7692 23.226 16.5676L23.2751 16.6094L23.2762 16.6105C24.0021 17.231 24.6321 17.2196 24.9248 17.0043C25.0695 16.8978 25.1681 16.7219 25.1724 16.4715C25.1767 16.2159 25.0809 15.8759 24.8141 15.4748L24.719 15.3453L24.579 15.1342C24.5571 15.097 24.5345 15.0545 24.5142 15.0099L24.4641 14.8699C24.4418 14.7763 24.4313 14.6238 24.5393 14.4959C24.6682 14.3437 24.8472 14.3233 24.9844 14.3412C25.1169 14.3586 25.2493 14.414 25.3594 14.4708C25.5455 14.5668 25.7526 14.7138 25.8474 14.778L25.8808 14.7999L25.8891 14.8062L25.8975 14.8114C26.2896 15.1047 26.6659 15.4591 26.983 15.8311C28.2693 17.2958 28.6292 19.3054 28.0455 21.1416L27.8073 21.8646C27.726 22.1056 27.644 22.3459 27.567 22.5803C27.4469 22.9465 27.36 23.2891 27.3957 23.6188L27.3999 23.6501C27.4116 23.7387 27.4519 23.8039 27.4929 23.8371C27.5186 23.8577 27.5491 23.8708 27.5879 23.8674L27.6308 23.858C27.8038 23.8008 27.9442 23.6325 28.0508 23.3659C28.1549 23.1053 28.2061 22.7995 28.2305 22.5562V22.5531C28.2334 22.526 28.234 22.4668 28.2315 22.3723C28.2293 22.2873 28.2249 22.1759 28.2231 22.0735C28.2214 21.9699 28.2222 21.8589 28.2305 21.7643C28.2346 21.7173 28.2417 21.667 28.2534 21.6201C28.2636 21.5797 28.2841 21.5092 28.336 21.4498L28.3799 21.4049C28.485 21.3069 28.619 21.2548 28.7675 21.2795C28.9132 21.3038 29.0241 21.3957 29.0966 21.4728C29.2398 21.6254 29.3445 21.8411 29.3891 21.9732C29.7563 22.849 29.9877 23.7584 30.086 24.698L30.0954 24.7889L30.1131 25.0156C30.276 27.3529 29.5466 29.6689 28.0664 31.4921L28.0643 31.4942C26.5887 33.2649 24.4671 34.3743 22.1708 34.5762C20.346 34.7482 18.3639 34.285 16.8164 33.2912H16.8154L16.4413 33.0352C14.7337 31.8039 13.5045 30.0184 12.9644 27.9838L12.8599 27.5439C12.6249 26.4616 12.6182 25.3688 12.7209 24.2874L12.722 24.278L12.723 24.2696C12.7281 24.2399 12.7321 24.1947 12.7377 24.1307C12.7428 24.071 12.7498 23.9979 12.7585 23.9259C12.7673 23.8542 12.7792 23.7744 12.7993 23.7002C12.8182 23.6305 12.8505 23.5414 12.9111 23.4673C12.9907 23.3699 13.1027 23.285 13.2485 23.2792C13.3902 23.2736 13.4974 23.3456 13.562 23.4056C13.6848 23.5201 13.7629 23.6927 13.796 23.7734L13.8775 23.9573C13.9607 24.1278 14.0527 24.262 14.1878 24.3825C14.2414 24.4302 14.2785 24.4308 14.3058 24.4253C14.3426 24.4179 14.3982 24.3894 14.4563 24.3219C14.5319 24.2084 14.5626 24.0712 14.5597 23.9081L14.5461 23.7368C14.5291 23.6102 14.5 23.4859 14.4667 23.3607L14.3623 22.9783L14.2714 22.6064L14.1961 22.2271C13.9245 20.6412 14.2578 19.0147 15.1239 17.6678L15.3046 17.4024C15.3689 17.3129 15.526 17.0904 15.7079 16.9239C15.7973 16.8421 15.9135 16.7539 16.0464 16.7118C16.1951 16.6649 16.3714 16.6762 16.5187 16.8079C16.6304 16.9077 16.6946 17.0509 16.6942 17.2008V17.2018C16.6934 17.305 16.6607 17.4399 16.6336 17.5434C16.6053 17.6513 16.5688 17.7746 16.55 17.8422C16.413 18.335 16.4227 19.0069 16.6263 19.5473C16.8272 20.0802 17.1922 20.4388 17.7557 20.4448C17.8131 20.4454 17.9038 20.4232 18.0043 20.3716C18.0537 20.3462 18.0997 20.3175 18.1391 20.287L18.2362 20.194C18.5778 19.7711 18.5701 19.2228 18.3992 18.5872C18.357 18.4302 18.3065 18.2721 18.2509 18.1139L18.0733 17.6396C17.9544 17.3317 17.8317 17.0202 17.7504 16.739C17.5496 16.0881 17.4532 15.7306 17.4077 15.012V15.0099C17.3155 13.3261 17.8846 11.6728 18.9937 10.4025V10.4014L18.9947 10.4004C20.1544 9.0902 21.7868 8.29309 23.5332 8.18549C23.6079 8.18021 23.7055 8.17943 23.8048 8.18758ZM22.8635 34.2315C22.8989 34.2253 22.9348 34.2203 22.9701 34.2137L22.9763 34.2116C22.9389 34.2187 22.901 34.2249 22.8635 34.2315ZM22.758 9.09757C21.8135 9.29401 20.932 9.72249 20.1952 10.345C20.1934 10.5445 20.1198 10.7436 19.9695 10.8977H19.9685C19.9463 10.9204 19.9263 10.9449 19.9047 10.9677C19.864 11.0109 19.8229 11.0538 19.7835 11.0983C19.6469 11.2527 19.4564 11.3468 19.2528 11.3647C18.5091 12.4069 18.1384 13.6767 18.2091 14.966C18.2092 14.9684 18.209 14.9709 18.2091 14.9733C18.239 15.4387 18.2896 15.7185 18.393 16.0881L18.5173 16.5029L18.5215 16.5164H18.5204C18.5895 16.7556 18.6973 17.0262 18.8224 17.3502C18.9435 17.6641 19.0776 18.0192 19.1744 18.3793C19.364 19.0844 19.4519 19.9662 18.86 20.6986C18.7253 20.8652 18.5447 20.996 18.371 21.0852V21.0862C18.1991 21.1745 17.9771 21.2495 17.7473 21.2471C16.7457 21.2366 16.1507 20.5587 15.8761 19.8304H15.8751C15.7137 19.4022 15.6477 18.9231 15.6588 18.4681C15.6291 18.4784 15.5996 18.4885 15.569 18.4952C15.0282 19.5082 14.8083 20.6662 14.9463 21.8134L14.987 22.0913V22.0965C15.0056 22.2086 15.0276 22.3167 15.0528 22.4277L15.1396 22.7777L15.242 23.1549C15.2812 23.3052 15.32 23.4722 15.3412 23.6302C15.3657 23.8127 15.3727 24.0246 15.3318 24.2435C15.4492 24.5335 15.3917 24.8772 15.1573 25.1117L15.1563 25.1128C15.1485 25.1206 15.1404 25.1283 15.1323 25.1357L15.0487 25.2057C15.0449 25.2086 15.0406 25.2105 15.0372 25.2131C15.0241 25.2229 15.0126 25.2325 15.0121 25.2329C14.6994 25.4633 14.2748 25.4328 13.9976 25.1817C13.8531 25.1334 13.7391 25.057 13.6539 24.9811H13.6529C13.6457 24.9747 13.639 24.9677 13.632 24.9613C13.5868 25.035 13.5324 25.1015 13.4669 25.1566C13.4449 25.7832 13.473 26.3998 13.5735 27.0059L13.6435 27.3736L13.6445 27.3768C14.1037 29.5322 15.4007 31.417 17.25 32.6163L17.5154 32.7782C18.8664 33.5607 20.5473 33.9229 22.0956 33.777H22.1008C22.1382 33.7737 22.1753 33.7672 22.2126 33.7634C22.3307 33.5991 22.5106 33.4793 22.7256 33.4416C22.7913 33.4301 22.7874 33.4314 22.8217 33.4249C22.8236 33.4245 22.826 33.4242 22.828 33.4239C23.0416 33.3835 23.252 33.4312 23.4204 33.543C24.761 33.1886 25.988 32.486 26.9726 31.4994C26.9614 31.3224 27.008 31.1418 27.1157 30.9885L27.1658 30.9237C27.2008 30.8833 27.228 30.8512 27.2547 30.8193C27.3921 30.6543 27.5824 30.5598 27.7802 30.5372C28.9034 28.9489 29.4486 27.0188 29.3128 25.071V25.0699L29.2951 24.8537V24.8526L29.2878 24.7816L29.2481 24.4598C29.1843 24.0078 29.086 23.5642 28.9534 23.1288C28.9169 23.3026 28.8674 23.4868 28.7967 23.6637C28.6564 24.0146 28.3895 24.4521 27.8826 24.6196H27.8815C27.7487 24.6633 27.585 24.6871 27.4061 24.6541C27.2266 24.6209 27.0881 24.5414 26.9914 24.464V24.4629C26.7654 24.2815 26.6395 24.0166 26.6048 23.7556V23.7546L26.6006 23.7232C26.5999 23.7174 26.5992 23.7113 26.5985 23.7055C26.5428 23.1912 26.6822 22.7052 26.8054 22.3295C26.8445 22.2104 26.885 22.0897 26.9256 21.9691C26.826 21.7816 26.7985 21.5562 26.8712 21.3391C26.8837 21.3019 26.8957 21.2652 26.9078 21.2294C26.9547 21.0896 26.9998 20.9564 27.0426 20.8219L27.0436 20.8177C27.1086 20.6172 27.2459 20.4606 27.4166 20.3654C27.703 18.9377 27.3484 17.4621 26.3802 16.3597L26.3718 16.3514C26.2322 16.1875 26.0798 16.0265 25.9184 15.875C25.9076 15.8761 25.8968 15.8753 25.886 15.876C25.8934 15.9013 25.9025 15.926 25.909 15.9512C26.1112 16.1088 26.2343 16.3601 26.2172 16.6345L26.2162 16.6429C26.2155 16.6526 26.214 16.6624 26.213 16.6721L26.2141 16.6732C26.2135 16.6778 26.2115 16.6824 26.2109 16.6867L26.212 16.6878C26.2092 16.7113 26.2061 16.7309 26.2036 16.7442C26.2028 16.7488 26.2012 16.753 26.2005 16.7567L26.189 16.8142C26.1226 17.0796 25.9261 17.2817 25.6802 17.37C25.6343 17.4307 25.5858 17.4896 25.5297 17.5424L25.4002 17.65C24.722 18.1489 23.75 17.9849 22.9189 17.3533L22.7549 17.2206L22.7057 17.1788L22.6984 17.1726C20.314 15.0933 20.4687 11.1417 22.758 9.09757ZM27.7729 31.4493C27.7944 31.4244 27.8164 31.3992 27.8376 31.374L27.8711 31.3333C27.8387 31.3721 27.8059 31.4111 27.7729 31.4493ZM12.9612 24.4107C12.9573 24.455 12.9543 24.5001 12.9508 24.5444L12.9696 24.3219L12.9612 24.4107ZM13.7448 24.1087C13.7502 24.1015 13.7555 24.0963 13.7584 24.092C13.7621 24.0866 13.7647 24.082 13.7657 24.0805C13.7593 24.0904 13.7515 24.0992 13.7448 24.1087ZM27.6318 21.594C27.6807 21.448 27.7309 21.3017 27.7781 21.1552L27.8073 21.0653C27.7511 21.242 27.6907 21.4182 27.6318 21.594ZM15.4634 17.6114C15.4402 17.6447 15.4191 17.68 15.3966 17.7137L15.5063 17.5518L15.4634 17.6114ZM26.1994 16.7672C26.1989 16.7699 26.1985 16.7719 26.1984 16.7724V16.7703C26.1988 16.7684 26.1992 16.7634 26.2005 16.7567C26.1997 16.7611 26.1999 16.7649 26.1994 16.7672ZM25.4106 16.6188C25.4119 16.6103 25.4148 16.6013 25.4159 16.5927V16.5844C25.4146 16.5958 25.4123 16.6076 25.4106 16.6188ZM24.8611 11.1683C24.8442 11.1842 24.8273 11.2007 24.8089 11.2153C24.8105 11.214 24.8123 11.2126 24.8141 11.2111C24.8177 11.2082 24.8259 11.2013 24.836 11.1923C24.841 11.1879 24.853 11.177 24.8601 11.1704L24.8611 11.1683ZM25.3448 10.5393C25.3428 10.5411 25.3403 10.5421 25.3386 10.5435L25.3375 10.5446C25.335 10.5466 25.3327 10.5488 25.3302 10.5508L25.3281 10.5519V10.5529C25.3283 10.5528 25.3292 10.5516 25.3302 10.5508C25.3313 10.5499 25.3332 10.5485 25.3354 10.5467L25.3365 10.5446C25.3339 10.5467 25.3322 10.5493 25.3302 10.5508C25.3315 10.5498 25.3336 10.5492 25.3354 10.5477C25.3377 10.5459 25.3408 10.5427 25.3448 10.5393L25.3459 10.5383L25.3448 10.5393ZM25.3438 10.5383C25.3409 10.5407 25.3385 10.5429 25.3365 10.5446H25.3375L25.3448 10.5393L25.3438 10.5383ZM24.8339 9.92085C24.8327 9.9219 24.8311 9.92265 24.8308 9.92294L24.8318 9.92189C24.8324 9.9214 24.8339 9.92068 24.835 9.9198L24.8339 9.92085ZM23.4695 8.44146C23.4396 8.44368 23.4094 8.44719 23.3796 8.44982C23.4355 8.44489 23.4917 8.43971 23.5478 8.43624L23.4695 8.44146ZM11.4004 24.0784C11.4007 24.0757 11.4008 24.0682 11.4024 24.0576C11.4021 24.0596 11.4017 24.0617 11.4014 24.0638C11.4008 24.0702 11.4007 24.0752 11.4004 24.0784Z" fill="#020101"/>
<g id="Group 14">
<path id="Vector" d="M15.6235 17.9405C15.5648 18.8546 15.6584 19.758 16.2882 20.4748C16.6292 20.8628 16.9694 21.0599 17.4871 21.1018C18.4815 21.1823 19.1445 20.4216 19.1897 19.4629C19.2468 18.2513 18.5805 17.1193 18.2684 15.9748C17.668 13.8356 18.3869 11.5909 20.0051 10.1031C20.871 9.30688 21.8537 8.90216 22.9925 8.69965C21.7565 9.7793 21.1895 11.0165 21.0586 12.6531C20.9533 14.0546 21.4133 15.4955 22.354 16.5464C22.9069 17.1639 23.6436 17.6898 24.4919 17.7496C25.3331 17.809 25.9707 17.1646 25.9936 16.3418C26.0015 16.0608 25.9592 15.8235 25.8967 15.5477C26.8272 16.2381 27.5062 17.4615 27.6621 18.5999C27.7583 19.3035 27.7112 19.8843 27.5474 20.5689C27.4771 20.8567 27.3924 21.1407 27.2934 21.42C27.0261 22.1944 26.3572 23.7807 27.1554 24.4344C27.6115 24.8078 28.3289 24.5324 28.6288 24.0839C28.8816 23.7056 29.0237 23.3069 29.087 22.8507C29.8664 25.0701 29.6853 27.448 28.6714 29.563C27.7509 31.4477 26.1313 32.8986 24.1573 33.6072C23.9516 33.6793 23.4308 33.848 23.2206 33.8692C21.9016 34.1826 20.7363 34.1676 19.4181 33.832C17.5657 33.4395 15.7042 32.0616 14.6845 30.4816C13.4916 28.633 13.0994 26.8573 13.2567 24.6895C13.5486 24.9468 13.7945 25.2015 14.2238 25.1664C14.9809 25.1048 15.2259 24.2815 15.1398 23.6418C15.0703 23.126 14.8817 22.644 14.7895 22.1268C14.5788 20.9217 14.7453 19.681 15.2661 18.5741C15.3578 18.3809 15.4989 18.1087 15.6235 17.9405Z" fill="#E76F51"/>
<path id="Vector_2" d="M20.8831 17.3503C22.5602 18.3564 23.8261 20.4037 24.2969 22.2762C24.4632 22.9618 24.5365 23.6669 24.5146 24.3723C24.4945 25.1606 24.3707 25.9353 24.3397 26.7194C24.3243 27.2913 24.3492 28.0254 24.8974 28.3615C25.1051 28.4889 25.3875 28.5146 25.6166 28.4422C26.586 28.1358 26.9574 26.9872 27.1368 26.1077C27.6614 27.6066 27.3651 29.3516 26.6875 30.7555C26.1474 31.8872 25.2646 32.8201 24.1644 33.4217C23.9792 33.5237 23.8193 33.5986 23.6253 33.6815C23.5386 33.7187 23.2853 33.8207 23.2201 33.8688C21.9011 34.1822 20.7357 34.1673 19.4176 33.8316C19.3737 33.7384 18.9157 33.5519 18.7968 33.4946C16.5907 32.432 14.809 29.3111 15.5672 26.8491C15.7187 27.4387 15.9303 28.0254 16.329 28.5077C16.6824 28.9351 17.2796 29.1374 17.2507 28.3382C17.2376 27.976 17.1652 27.6246 17.1131 27.2629C17.0587 26.8765 17.0269 26.4874 17.0179 26.0972C16.9936 25.176 17.1709 23.8402 17.6111 23.0289C17.6264 23.994 18.0979 25.4053 19.2104 25.353C21.0599 25.266 21.7001 21.9832 21.6425 20.556C21.5988 19.4677 21.334 18.2854 20.8831 17.3503Z" fill="#EFB366"/>
</g>
</g>
<path id="Union_2" d="M23.981 6.0556C24.104 6.06574 24.318 6.08827 24.5708 6.15619L24.8354 6.24017L24.8589 6.24994L24.9741 6.29681L24.9976 6.30658C25.3563 6.46694 26.3797 7.04855 26.5132 8.36908C26.5138 8.37522 26.5147 8.38246 26.5151 8.38861L26.521 8.47552C26.5226 8.49596 26.5239 8.51752 26.5239 8.53802V8.71185C26.4987 9.56337 26.0564 10.1566 25.8188 10.4247L25.7261 10.5253C25.4188 10.8458 25.0279 11.0826 24.9595 11.1259C24.9276 11.1461 24.8704 11.1813 24.856 11.1904C24.8287 11.2075 24.8061 11.2218 24.7866 11.2343C24.445 11.5128 24.1977 11.9006 24.0562 12.3329C24.3282 12.2433 24.5901 12.206 24.8159 12.1982L25.0376 12.1992L25.0728 12.2011L25.229 12.2158L25.2866 12.2236L25.4185 12.2441C25.427 12.2455 25.4354 12.2483 25.4438 12.2499C25.8499 12.3299 26.1703 12.4816 26.3403 12.5693H26.3413C26.6455 12.7263 26.9569 12.9441 27.0347 12.998L27.062 13.0156L27.0728 13.0224L27.1372 13.0673L27.1558 13.08L27.1636 13.0878L27.1743 13.0947L27.1782 13.0976C27.6961 13.485 28.1871 13.9464 28.605 14.4355L28.8647 14.7509C30.0161 16.2233 30.5365 18.0212 30.4448 19.8046C30.5344 19.8825 30.606 19.9537 30.6577 20.0087C31.0321 20.4077 31.2569 20.8658 31.3765 21.1826H31.3774C31.7614 22.107 32.0218 23.0639 32.1606 24.0468L32.1636 24.0615L32.2124 24.4609H32.2114C32.2122 24.4668 32.2137 24.4725 32.2144 24.4785L32.2241 24.5703L32.2261 24.581H32.2251L32.228 24.6103L32.229 24.6161L32.2466 24.8437L32.2476 24.8505L32.2485 24.8652V24.8661C32.4485 27.7348 31.5552 30.577 29.7446 32.8183C29.7421 32.8215 29.7394 32.8249 29.7368 32.8281L29.7183 32.8515C29.715 32.8556 29.7109 32.8601 29.7075 32.8642C27.8716 35.067 25.2352 36.4472 22.3804 36.704C22.3777 36.7043 22.3743 36.7067 22.3716 36.707C20.0845 36.9224 17.6217 36.3519 15.6597 35.0917L15.6577 35.0888C15.6559 35.0877 15.6537 35.0871 15.6519 35.0859C13.1469 33.4623 11.3882 30.9101 10.7661 27.9902C10.7651 27.9854 10.766 27.9803 10.7651 27.9755C10.4736 26.6185 10.4742 25.2991 10.5894 24.0859L10.5933 24.0634L10.5952 24.0419L10.6011 23.9999C10.6014 23.9965 10.6024 23.9897 10.603 23.9824V23.9785C10.6037 23.9714 10.6046 23.9635 10.605 23.9599C10.6055 23.9547 10.6066 23.9503 10.6069 23.9462C10.6116 23.8929 10.6202 23.7812 10.6343 23.666C10.6482 23.5523 10.6752 23.3582 10.7339 23.1415L10.7397 23.1191L10.7798 22.9902L10.7876 22.9658C10.8595 22.7519 10.9956 22.4299 11.2544 22.1132C11.4051 21.9289 11.6428 21.6897 11.9731 21.4941C11.9006 19.7292 12.3735 17.9773 13.3403 16.4853L13.5405 16.1923C13.5343 16.2022 13.5286 16.2114 13.5249 16.2177C13.5232 16.2206 13.5213 16.2232 13.52 16.2255C13.5216 16.2227 13.5246 16.2195 13.5269 16.2158C13.5307 16.2091 13.5361 16.2003 13.5425 16.1904C13.5488 16.1804 13.5563 16.1677 13.5659 16.1542L13.7915 15.8544C13.9136 15.7027 14.0773 15.5158 14.2632 15.3456C14.4229 15.1995 14.7647 14.9088 15.2603 14.7216C15.2442 12.632 15.9875 10.6027 17.3618 9.01752C17.3699 9.0079 17.3806 8.99528 17.3921 8.98236L17.3979 8.9765L17.5298 8.83002L17.5376 8.8222C19.0625 7.18282 21.1617 6.18777 23.4019 6.04974C23.4206 6.0486 23.4398 6.04958 23.4585 6.04974C23.6095 6.04196 23.7896 6.03989 23.981 6.0556ZM21.104 35.9433C21.2207 35.947 21.3373 35.9477 21.4536 35.9472C21.3373 35.9477 21.2207 35.947 21.104 35.9433ZM20.7104 35.9228C20.8205 35.9307 20.9306 35.9362 21.0405 35.9404C20.9306 35.9362 20.8205 35.9307 20.7104 35.9228ZM20.3413 35.8886C20.4191 35.8971 20.4969 35.9035 20.5747 35.9101C20.4969 35.9035 20.4191 35.8971 20.3413 35.8886ZM23.2593 35.7734C22.942 35.833 22.6208 35.8784 22.2964 35.9072L22.7593 35.8554C22.927 35.8326 23.0936 35.8045 23.2593 35.7734ZM19.9165 35.8329C20.003 35.8461 20.0896 35.8582 20.1763 35.8691C20.0896 35.8582 20.003 35.8461 19.9165 35.8329ZM19.5493 35.7704C19.6325 35.7862 19.7158 35.8007 19.7993 35.8144C19.7158 35.8007 19.6325 35.7862 19.5493 35.7704ZM23.3882 35.747C23.5013 35.7242 23.6141 35.7004 23.7261 35.6738C23.6141 35.7004 23.5013 35.7242 23.3882 35.747ZM19.1567 35.6884C19.2279 35.7048 19.2992 35.7204 19.3706 35.7353C19.2992 35.7205 19.2279 35.7048 19.1567 35.6884ZM18.7593 35.5888C18.84 35.6108 18.9212 35.6313 19.0024 35.6513C18.9212 35.6313 18.84 35.6108 18.7593 35.5888ZM23.895 35.6298C23.9911 35.6052 24.087 35.5801 24.1821 35.5527C24.087 35.5801 23.9911 35.6052 23.895 35.6298ZM18.4038 35.4843C18.4716 35.5055 18.5396 35.5261 18.6079 35.5458C18.5396 35.5261 18.4716 35.5055 18.4038 35.4843ZM24.3755 35.4941C24.4598 35.4679 24.5439 35.4414 24.6274 35.413C24.5439 35.4414 24.4598 35.4679 24.3755 35.4941ZM18.0103 35.3525C18.079 35.3771 18.1479 35.4016 18.2173 35.4247C18.1479 35.4016 18.0791 35.3771 18.0103 35.3525ZM24.8384 35.3378C24.9201 35.308 25.0017 35.278 25.0825 35.246C25.0017 35.2779 24.9201 35.308 24.8384 35.3378ZM17.645 35.2128C17.7148 35.241 17.7845 35.2693 17.855 35.2958C17.7845 35.2693 17.7148 35.241 17.645 35.2128ZM25.2769 35.1669C25.3611 35.1316 25.4447 35.0951 25.5278 35.0576C25.4447 35.0951 25.3611 35.1316 25.2769 35.1669ZM17.2778 35.0556C17.3443 35.0857 17.4108 35.1159 17.478 35.1445C17.4108 35.1159 17.3443 35.0857 17.2778 35.0556ZM15.7153 35.124C15.7199 35.1264 15.7243 35.1274 15.7271 35.1288C15.7241 35.1273 15.7188 35.1258 15.7134 35.123L15.7153 35.124ZM16.9448 34.8974C17.0048 34.9274 17.0648 34.9575 17.1255 34.9863C17.0648 34.9575 17.0048 34.9274 16.9448 34.8974ZM25.7173 34.9697C25.7927 34.9337 25.8674 34.8962 25.9419 34.8583C25.8674 34.8962 25.7927 34.9337 25.7173 34.9697ZM16.5337 34.6796C16.6067 34.7208 16.6801 34.7615 16.7544 34.8007C16.6801 34.7615 16.6067 34.7208 16.5337 34.6796ZM26.1343 34.7578C26.2139 34.7151 26.2931 34.6717 26.3716 34.6269C26.2931 34.6717 26.2139 34.7151 26.1343 34.7578ZM16.2407 34.5068C16.3042 34.5458 16.3675 34.5854 16.4321 34.623C16.3675 34.5854 16.3042 34.5458 16.2407 34.5068ZM20.7993 34.5888C20.7964 34.5886 20.7935 34.588 20.7905 34.5878C20.7876 34.5876 20.7847 34.588 20.7817 34.5878C20.7876 34.5883 20.7935 34.5884 20.7993 34.5888ZM26.5474 34.5244C26.6212 34.4801 26.6944 34.4348 26.7671 34.3886C26.6944 34.4347 26.6212 34.4801 26.5474 34.5244ZM19.3188 34.3525C19.4122 34.3755 19.506 34.3969 19.6001 34.4169C19.506 34.3969 19.4123 34.3755 19.3188 34.3525ZM26.9575 34.2656C27.0284 34.2183 27.0978 34.1691 27.1675 34.1201C27.0978 34.1691 27.0284 34.2183 26.9575 34.2656ZM27.3374 33.999C27.4285 33.932 27.5181 33.8631 27.6069 33.7929C27.5181 33.8631 27.4285 33.932 27.3374 33.999ZM27.7017 33.7187C27.7959 33.6424 27.8884 33.5641 27.98 33.4843C27.8884 33.5641 27.7959 33.6424 27.7017 33.7187ZM13.7827 32.3808C14.1117 32.771 14.4701 33.1376 14.855 33.4775L14.479 33.1279C14.1122 32.7705 13.7727 32.3877 13.4634 31.9824L13.7827 32.3808ZM28.0854 33.3935C28.1598 33.3268 28.2308 33.2564 28.3032 33.1874C28.2308 33.2564 28.1598 33.3268 28.0854 33.3935ZM28.4331 33.0654C28.5115 32.988 28.5876 32.9082 28.6636 32.8281C28.5876 32.9082 28.5115 32.988 28.4331 33.0654ZM29.1099 32.3261C29.2155 32.1958 29.3176 32.0632 29.4165 31.9286C29.3176 32.0632 29.2155 32.1958 29.1099 32.3261ZM29.5269 31.7714C29.5783 31.6986 29.6306 31.6266 29.6802 31.5527C29.6306 31.6266 29.5783 31.6986 29.5269 31.7714ZM29.8208 31.3339C29.8651 31.2642 29.9091 31.1946 29.9517 31.124C29.9091 31.1946 29.8651 31.2642 29.8208 31.3339ZM30.0249 30.9999C30.0861 30.8952 30.1462 30.7901 30.2036 30.6835C30.1462 30.7901 30.0861 30.8952 30.0249 30.9999ZM30.2642 30.5673C30.3146 30.4709 30.3642 30.3741 30.4116 30.2763C30.3642 30.3741 30.3146 30.4709 30.2642 30.5673ZM30.4976 30.0908C30.5328 30.0142 30.5676 29.9376 30.6011 29.8603C30.5676 29.9376 30.5328 30.0142 30.4976 30.0908ZM30.689 29.6533C30.7256 29.5633 30.7603 29.4727 30.7944 29.3818C30.7603 29.4727 30.7256 29.5633 30.689 29.6533ZM30.8521 29.2245C30.8863 29.1288 30.9202 29.0331 30.9517 28.9365C30.9202 29.0331 30.8863 29.1288 30.8521 29.2245ZM31.0151 28.7343C31.0442 28.6387 31.0718 28.5427 31.0981 28.4462C31.0718 28.5427 31.0442 28.6387 31.0151 28.7343ZM31.1411 28.2831C31.1666 28.1836 31.1908 28.0837 31.2134 27.9833C31.1908 28.0837 31.1666 28.1836 31.1411 28.2831ZM31.2485 27.8232C31.2731 27.7055 31.2953 27.5873 31.3159 27.4687C31.2953 27.5873 31.2731 27.7055 31.2485 27.8232ZM31.3364 27.3515C31.355 27.2367 31.3704 27.1213 31.3853 27.0058C31.3704 27.1213 31.355 27.2367 31.3364 27.3515ZM31.4019 26.8759C31.4162 26.7526 31.4271 26.6288 31.437 26.5048C31.4271 26.6288 31.4161 26.7526 31.4019 26.8759ZM31.4458 26.4042C31.4559 26.2616 31.463 26.1188 31.4673 25.9755C31.463 26.1188 31.4559 26.2616 31.4458 26.4042ZM31.4468 24.9081L31.4478 24.9228C31.4708 25.2533 31.4781 25.5834 31.4702 25.912C31.4741 25.7493 31.4748 25.5861 31.4712 25.4228L31.4487 24.9228L31.4478 24.9081H31.4468ZM30.0952 24.79L30.1138 25.0165C30.1232 25.1521 30.1298 25.2875 30.1333 25.4228C30.1298 25.2872 30.1232 25.1514 30.1138 25.0156L30.0952 24.789V24.79ZM31.4165 24.5615H31.4175H31.4165ZM12.9517 24.5204L12.9507 24.5449C12.9538 24.5055 12.9563 24.4661 12.9595 24.4267L12.9517 24.5204ZM14.3901 24.3828C14.3573 24.4074 14.3287 24.4212 14.3062 24.4257L14.3735 24.3964C14.3793 24.3927 14.3841 24.3872 14.3901 24.3828ZM14.4556 24.3222C14.4514 24.327 14.447 24.3314 14.4429 24.3359C14.4471 24.3313 14.4522 24.3272 14.4565 24.3222C14.4633 24.3121 14.4681 24.3005 14.4741 24.29C14.468 24.3007 14.4624 24.3119 14.4556 24.3222ZM12.7231 24.2695L12.7212 24.2783V24.2792L12.7231 24.2704C12.7251 24.2589 12.7262 24.2447 12.728 24.2285C12.7263 24.2445 12.7251 24.2581 12.7231 24.2695ZM29.8384 23.3115C29.893 23.5252 29.9402 23.7407 29.98 23.9579C29.9402 23.7407 29.893 23.5252 29.8384 23.3115ZM27.6304 23.8574C27.6152 23.8623 27.6014 23.866 27.5884 23.8671C27.6013 23.866 27.6153 23.8633 27.6304 23.8583C27.6367 23.8562 27.6427 23.8519 27.6489 23.8495C27.6427 23.8519 27.6367 23.8553 27.6304 23.8574ZM27.4546 23.7949C27.4647 23.8092 27.4758 23.8211 27.4868 23.831C27.4758 23.821 27.4647 23.8092 27.4546 23.7949ZM12.9106 23.4667C12.8955 23.4853 12.8824 23.5054 12.8706 23.5253L12.9106 23.4677C12.9286 23.4457 12.9489 23.4251 12.9702 23.4052C12.9491 23.425 12.9285 23.445 12.9106 23.4667ZM11.6548 22.9658C11.6407 22.9939 11.6276 23.0212 11.6157 23.0478C11.6275 23.0211 11.6408 22.9939 11.6548 22.9658ZM11.6851 22.9052C11.6804 22.9137 11.6758 22.9222 11.6714 22.9306C11.6962 22.8833 11.7245 22.8346 11.7563 22.7851L11.6851 22.9052ZM30.6362 21.4902C30.7257 21.7055 30.8082 21.9226 30.8833 22.1415L30.7661 21.8144C30.7249 21.7056 30.681 21.5971 30.6362 21.4892V21.4902ZM29.3521 21.8798C29.3564 21.8899 29.3609 21.8995 29.3647 21.9091C29.3585 21.8936 29.3526 21.877 29.3452 21.8603C29.3481 21.8667 29.3494 21.8736 29.3521 21.8798ZM12.769 21.3085C12.7701 21.3557 12.773 21.4029 12.7749 21.4501C12.773 21.4029 12.7701 21.3557 12.769 21.3085ZM28.3794 21.4052H28.3804H28.3794ZM28.6587 21.2753C28.6527 21.2758 28.647 21.2775 28.6411 21.2783C28.647 21.2775 28.6528 21.2758 28.6587 21.2753ZM12.7837 20.622C12.7798 20.6799 12.7775 20.7378 12.7749 20.7958C12.7775 20.7378 12.7798 20.6799 12.7837 20.622ZM12.8188 20.2499C12.8114 20.3146 12.8052 20.3794 12.7993 20.4443C12.8052 20.3794 12.8114 20.3146 12.8188 20.2499ZM29.6099 20.1884V20.1874V20.1884ZM18.2358 20.1943H18.2368L18.2378 20.1933C18.2493 20.179 18.2593 20.1639 18.27 20.1494C18.259 20.1643 18.2476 20.1797 18.2358 20.1943ZM12.8608 19.9433C12.8521 19.9995 12.844 20.0558 12.8364 20.1122C12.844 20.0558 12.8521 19.9995 12.8608 19.9433ZM14.1909 20.0937C14.1912 20.0917 14.1916 20.0898 14.1919 20.0878C14.196 20.0631 14.1992 20.0383 14.2036 20.0136V20.0126C14.1988 20.0396 14.1954 20.0667 14.1909 20.0937ZM12.9263 19.579C12.9126 19.6456 12.9001 19.7123 12.8882 19.7792C12.9001 19.7123 12.9126 19.6456 12.9263 19.579ZM13.0132 19.205C12.9905 19.2932 12.9693 19.3817 12.9497 19.4706C12.9693 19.3817 12.9905 19.2932 13.0132 19.205ZM13.0923 18.9199C13.0721 18.9873 13.053 19.055 13.0347 19.123C13.053 19.055 13.0721 18.9873 13.0923 18.9199ZM18.4858 19.0029C18.4826 18.9808 18.4789 18.9588 18.4751 18.9365C18.4708 18.9112 18.4664 18.8858 18.4614 18.8603C18.4708 18.9084 18.4789 18.9559 18.4858 19.0029ZM14.562 18.7597C14.5521 18.7844 14.5423 18.8091 14.5327 18.8339L14.5464 18.7997C14.5514 18.787 14.5569 18.7744 14.562 18.7617V18.7597ZM13.2007 18.5869C13.1767 18.6557 13.1524 18.7244 13.1304 18.7939C13.1524 18.7244 13.1767 18.6557 13.2007 18.5869ZM28.1382 18.0068C28.1677 18.1193 28.1941 18.2325 28.2163 18.3466C28.1941 18.2322 28.1677 18.1186 28.1382 18.0058V18.0068ZM14.6899 18.4609C14.6627 18.5203 14.6372 18.5804 14.6118 18.6406C14.6193 18.6228 14.6276 18.6055 14.6353 18.5878C14.6524 18.5484 14.6691 18.5088 14.687 18.4697C14.6883 18.4669 14.6887 18.4637 14.6899 18.4609ZM13.3306 18.2402C13.3001 18.3156 13.2707 18.3914 13.2427 18.4677C13.2707 18.3914 13.3001 18.3156 13.3306 18.2402ZM18.2769 18.1933C18.2948 18.2459 18.3139 18.298 18.3306 18.3505C18.3303 18.3495 18.3299 18.3486 18.3296 18.3476C18.3132 18.296 18.2945 18.245 18.2769 18.1933ZM14.9575 17.9413C14.9452 17.9628 14.9344 17.9852 14.9224 18.0068C14.9378 17.9792 14.9524 17.9511 14.9683 17.9238L14.9575 17.9413ZM15.4829 17.582L15.4233 17.6718C15.4201 17.6767 15.4168 17.6815 15.4136 17.6865C15.4408 17.6456 15.4692 17.6056 15.4976 17.5654L15.5063 17.5517L15.4829 17.582ZM15.5767 17.0556C15.4527 17.1927 15.3524 17.3352 15.3042 17.4023L15.1245 17.6679C15.1821 17.5784 15.242 17.4902 15.3042 17.4033V17.4023C15.3686 17.3127 15.5257 17.0902 15.7075 16.9238C15.6621 16.9653 15.6179 17.01 15.5767 17.0556ZM13.7944 17.2841C13.7479 17.3654 13.7012 17.4465 13.6577 17.5292C13.7012 17.4465 13.7479 17.3654 13.7944 17.2841ZM24.9243 17.0038C24.8877 17.0307 24.846 17.0545 24.7993 17.0742C24.776 17.084 24.7517 17.0928 24.7261 17.1005C24.6492 17.1237 24.5621 17.1372 24.4663 17.1376C24.5302 17.1374 24.5903 17.1318 24.646 17.121C24.7015 17.1102 24.7528 17.0947 24.7993 17.0751C24.8461 17.0554 24.8886 17.0318 24.9253 17.0048L24.9243 17.0038ZM27.5493 16.6113C27.6297 16.7454 27.7061 16.881 27.7739 17.0204L27.6089 16.707L27.5493 16.6113ZM16.5493 16.8417C16.5702 16.8639 16.5894 16.8869 16.606 16.912C16.5894 16.8869 16.5702 16.8639 16.5493 16.8417ZM16.2827 16.6923C16.2984 16.6949 16.314 16.6988 16.3296 16.7031C16.314 16.6987 16.2984 16.6949 16.2827 16.6923ZM14.3989 16.3798C14.331 16.4655 14.2792 16.5384 14.2466 16.5839C14.2792 16.5385 14.3309 16.4655 14.3989 16.3798ZM27.2134 16.1122C27.2865 16.2078 27.3565 16.305 27.4224 16.4042L27.2134 16.1113C27.1403 16.0157 27.0632 15.9224 26.9829 15.831L27.2134 16.1122ZM14.4575 16.3076C14.4496 16.3171 14.4417 16.3265 14.4341 16.3359C14.4815 16.2775 14.5349 16.2144 14.5933 16.1503L14.4575 16.3076ZM28.5474 15.6865C28.6211 15.7984 28.691 15.912 28.7573 16.0273C28.691 15.912 28.6211 15.7984 28.5474 15.6865ZM25.8892 14.8056L25.8901 14.8066L25.8892 14.8056ZM25.8472 14.7783H25.8481H25.8472ZM24.8755 14.3369C24.7612 14.3421 24.6363 14.3811 24.5396 14.4951C24.526 14.5111 24.5144 14.5282 24.5044 14.5449L24.5396 14.496C24.5723 14.4574 24.6083 14.4274 24.646 14.4042C24.6827 14.3817 24.7207 14.3652 24.7593 14.3544C24.7982 14.3436 24.8375 14.3386 24.8755 14.3369ZM25.0835 14.3613C25.1161 14.3697 25.1486 14.3791 25.1802 14.3906C25.122 14.3693 25.0613 14.3531 25.0005 14.3437C25.0283 14.348 25.056 14.3541 25.0835 14.3613ZM23.4214 13.7578C23.3667 13.8353 23.3207 13.9133 23.2827 13.9911C23.2636 14.0305 23.2453 14.0693 23.23 14.1083L23.231 14.1103C23.2768 13.9936 23.3388 13.875 23.4214 13.7578ZM17.8579 12.2597C17.6661 12.7406 17.5326 13.2439 17.4604 13.7587C17.5326 13.2442 17.6663 12.7413 17.8579 12.2607V12.2597ZM26.5894 13.665L26.6167 13.6835L26.6802 13.7275L26.688 13.7333H26.689L26.6802 13.7275L26.6167 13.6826L26.5894 13.665C26.5611 13.6455 26.4973 13.6024 26.4146 13.5478C26.4973 13.6025 26.5611 13.6456 26.5894 13.665ZM16.1499 13.4814C16.1406 13.5424 16.1333 13.6037 16.1255 13.665C16.1333 13.6037 16.1406 13.5424 16.1499 13.4814ZM21.7817 13.0068C21.7747 13.1725 21.7762 13.3385 21.7856 13.5038C21.7761 13.3385 21.7747 13.1725 21.7817 13.0068ZM16.2085 13.1474C16.1987 13.1971 16.19 13.2469 16.1812 13.2968C16.19 13.2469 16.1987 13.1971 16.2085 13.1474ZM25.7974 13.1992C25.7767 13.1901 25.7552 13.181 25.7329 13.1718C25.7553 13.1809 25.7767 13.1901 25.7974 13.1992ZM25.6685 13.1464C25.6167 13.1268 25.5611 13.1074 25.5024 13.0898C25.5612 13.1074 25.6166 13.1268 25.6685 13.1464ZM16.3726 12.4745C16.3634 12.506 16.355 12.5377 16.3462 12.5693C16.355 12.5377 16.3634 12.506 16.3726 12.4745ZM16.4839 12.123C16.4644 12.1798 16.4454 12.2367 16.4272 12.2939C16.4454 12.2367 16.4644 12.1798 16.4839 12.123ZM18.1157 11.6953C18.2583 11.4184 18.4206 11.1507 18.603 10.8954C18.4815 11.0654 18.369 11.2409 18.2651 11.4208C18.2131 11.5109 18.1632 11.602 18.1157 11.6943V11.6953ZM16.6021 11.8036C16.5811 11.8569 16.5603 11.9101 16.5405 11.9638C16.5603 11.9101 16.5811 11.8569 16.6021 11.8036ZM16.7485 11.457C16.7222 11.5155 16.6952 11.5736 16.6704 11.6328C16.6953 11.5736 16.7222 11.5155 16.7485 11.457ZM24.3101 10.5869L24.311 10.5859C24.1809 10.6889 24.0617 10.8023 23.9526 10.9238C24.0617 10.8023 24.1818 10.6889 24.312 10.5859C24.3055 10.5909 24.3044 10.5924 24.311 10.5878L24.3101 10.5869ZM16.9136 11.1122C16.8799 11.1783 16.8467 11.2445 16.8149 11.3115C16.8467 11.2445 16.8799 11.1783 16.9136 11.1122ZM24.8169 11.207C24.8212 11.2034 24.8289 11.199 24.8364 11.1923C24.8414 11.1879 24.8528 11.1774 24.8599 11.1708L24.8608 11.1679C24.8467 11.1812 24.832 11.1943 24.8169 11.207ZM17.1108 10.748C17.0597 10.8364 17.0099 10.9254 16.9624 11.0156C17.01 10.9254 17.0597 10.8364 17.1108 10.748ZM17.2935 10.4472C17.2367 10.5358 17.1814 10.6251 17.1284 10.7158C17.1814 10.6251 17.2367 10.5358 17.2935 10.4472ZM25.3364 10.5449H25.3374L25.3354 10.5458C25.3333 10.5475 25.3317 10.5498 25.3306 10.5507L25.3286 10.5517V10.5527L25.3306 10.5507C25.3318 10.5498 25.3337 10.5491 25.3354 10.5478L25.3452 10.539L25.3442 10.538C25.3413 10.5404 25.3384 10.5432 25.3364 10.5449ZM19.6938 9.71869C19.5283 9.85762 19.3694 10.0054 19.2173 10.1611L19.4507 9.93451L19.4517 9.93353C19.6107 9.78617 19.7761 9.64684 19.9478 9.51654C19.8617 9.58185 19.7768 9.64905 19.6938 9.71869ZM21.0435 8.84174H21.0444H21.0435ZM21.9399 8.48334H21.9409H21.9399ZM24.2739 8.3642C24.2834 8.37368 24.2935 8.38278 24.3022 8.39349C24.2978 8.38805 24.2942 8.38201 24.2896 8.37689C24.2851 8.37189 24.2786 8.3689 24.2739 8.3642ZM23.5327 8.18549H23.5337H23.5327ZM24.6694 7.039C24.77 7.08395 24.9302 7.16907 25.0952 7.30463C24.9853 7.21433 24.8779 7.14611 24.7886 7.0976C24.744 7.07337 24.7039 7.05398 24.6704 7.039H24.6694Z" fill="white" fill-opacity="0.3"/>
</g>
</g>
</g>
</svg>
