<svg width="50" height="50" viewBox="0 0 50 50" fill="none" xmlns="http://www.w3.org/2000/svg">
<rect width="50" height="50" fill="#BEBEBE"/>
<g id="Decorate Mode">
<path d="M-64.7026 -891.034V-890.034H2955.3V-891.034V-892.034H-64.7026V-891.034ZM2957.3 -889.034H2956.3V2648.97H2957.3H2958.3V-889.034H2957.3ZM2955.3 2650.97V2649.97H-64.7026V2650.97V2651.97H2955.3V2650.97ZM-66.7026 2648.97H-65.7026V-889.034H-66.7026H-67.7026V2648.97H-66.7026ZM-64.7026 2650.97V2649.97C-65.2549 2649.97 -65.7026 2649.52 -65.7026 2648.97H-66.7026H-67.7026C-67.7026 2650.62 -66.3595 2651.97 -64.7026 2651.97V2650.97ZM2957.3 2648.97H2956.3C2956.3 2649.52 2955.85 2649.97 2955.3 2649.97V2650.97V2651.97C2956.95 2651.97 2958.3 2650.62 2958.3 2648.97H2957.3ZM2955.3 -891.034V-890.034C2955.85 -890.034 2956.3 -889.587 2956.3 -889.034H2957.3H2958.3C2958.3 -890.691 2956.95 -892.034 2955.3 -892.034V-891.034ZM-64.7026 -891.034V-892.034C-66.3594 -892.034 -67.7026 -890.691 -67.7026 -889.034H-66.7026H-65.7026C-65.7026 -889.587 -65.255 -890.034 -64.7026 -890.034V-891.034Z" fill="black" fill-opacity="0.1"/>
<g id="Stickers">
<rect x="-12.6938" y="-18.5342" width="374" height="551" rx="4.5" stroke="#9747FF" stroke-dasharray="10 5"/>
<g id="Property 1=tall cactus">
<g id="Frame 105">
<path id="Vector" d="M24.3579 5.06416C24.419 5.05188 24.6604 5.04799 24.73 5.04858C26.4258 5.06306 27.9187 5.70483 29.108 6.89455C29.9961 7.78945 30.6119 8.91821 30.8836 10.1495C31.1011 11.1161 31.0621 11.8278 31.0633 12.7988L31.0647 15.1636L31.077 24.6643C32.3255 24.5505 33.3775 24.2183 33.7076 22.8507C33.8428 22.2847 33.7759 21.6815 33.7928 21.1053C33.8565 18.9188 33.3863 16.5396 35.1805 14.8764C35.8514 14.244 36.7491 13.9091 37.6702 13.9476C38.7251 13.9906 39.6827 14.4563 40.3865 15.2343C41.7168 16.7049 41.679 18.2544 41.6507 20.093C41.6382 20.9112 41.6646 21.7144 41.6241 22.5365C41.5047 24.9602 40.6976 27.3371 38.8699 29.0024C36.6509 31.0241 33.9815 31.552 31.0677 31.4301C31.0306 32.4382 31.0647 33.6103 31.0647 34.6313L31.064 41.7846C31.0594 42.5329 31.0892 43.3598 31.0586 44.0986C31.688 44.0954 34.9539 44.1584 35.3182 44.4912L35.305 44.5339C34.5206 45.0349 26.4622 44.9299 24.8963 44.9314C23.8153 44.9316 14.2524 45.0459 13.9339 44.5215L13.953 44.4741C14.4041 44.1545 17.5285 44.1262 18.2637 44.093L18.2613 26.7402C17.6724 26.7346 17.0314 26.7324 16.4514 26.6894C14.1969 26.5224 12.0996 25.6201 10.6186 23.8816C8.50571 21.4545 8.25312 18.3521 8.31306 15.2695C8.35678 13.0212 7.93674 10.6966 9.90708 9.03376C10.6658 8.38642 11.6541 8.07353 12.6471 8.16623C13.4021 8.23449 14.1171 8.53615 14.6928 9.02934C16.2616 10.3698 16.1578 12.0926 16.1595 13.9507L16.159 16.6106C16.1587 16.9222 16.1585 17.246 16.1592 17.5564C16.1624 19.0464 16.8455 19.6204 18.2644 19.7484L18.264 14.8031L18.2614 12.7525C18.2609 12.2812 18.2488 11.809 18.2824 11.3388C18.5234 7.96665 20.9538 5.33127 24.3579 5.06416Z" fill="#020101"/>
<path id="Vector (Stroke)" d="M31.0647 34.631C31.0647 33.6102 31.0307 32.4383 31.0678 31.4303C33.9815 31.5522 36.6509 31.024 38.8699 29.0024C40.5833 27.4412 41.4001 25.2546 41.5939 22.9904L41.6244 22.5363C41.6447 22.1253 41.6482 21.719 41.6482 21.3132L41.6507 20.0931C41.679 18.2545 41.717 16.7046 40.3866 15.2341C39.7268 14.5048 38.844 14.0503 37.8671 13.9609L37.6706 13.9474C36.7495 13.9089 35.8518 14.2441 35.181 14.8764C33.3868 16.5396 33.8567 18.9186 33.793 21.105C33.7762 21.6812 33.8428 22.2846 33.7076 22.8506C33.3775 24.2182 32.3255 24.5502 31.0769 24.664L31.0635 12.7988C31.0623 11.8278 31.1016 11.1158 30.8841 10.1492C30.6123 8.91802 29.9961 7.78967 29.108 6.89482C27.9931 5.77951 26.6116 5.14572 25.0461 5.05889L24.7305 5.04851C24.6609 5.04792 24.4193 5.0521 24.3582 5.06438C20.9542 5.33149 18.5238 7.96665 18.2828 11.3388L18.2651 11.6916C18.2543 12.0449 18.261 12.3989 18.2614 12.7524L18.2644 14.8031V19.7482C16.8458 19.6202 16.1626 19.0463 16.1593 17.5564C16.1587 17.2461 16.1591 16.922 16.1593 16.6104L16.16 13.9505C16.1583 12.1506 16.2555 10.4776 14.8355 9.15618L14.6933 9.02922C14.1176 8.53603 13.4024 8.23445 12.6474 8.16619C11.6545 8.0735 10.6662 8.38628 9.90751 9.0335L9.72929 9.19158C7.96275 10.8418 8.35562 13.0915 8.31327 15.2695C8.25334 18.352 8.50629 21.4543 10.6192 23.8815C12.1002 25.6199 14.1972 26.5221 16.4517 26.6891C17.0317 26.7321 17.6726 26.7348 18.2614 26.7404L18.2638 44.0927C17.5284 44.1259 14.4051 44.1547 13.9535 44.4742L13.934 44.5212C14.2525 45.0456 23.8153 44.9316 24.8965 44.9313C26.438 44.9299 34.2708 45.0319 35.2633 44.5572L35.3055 44.534L35.3183 44.4913C34.9538 44.1585 31.688 44.0956 31.0586 44.0988C31.0892 43.36 31.0595 42.5326 31.0641 41.7843L31.0647 34.631ZM32.6266 41.7941C32.6252 42.0208 32.6288 42.2878 32.6315 42.5717C32.8759 42.5816 33.1301 42.5943 33.3822 42.6095C33.8681 42.639 34.3796 42.681 34.8092 42.7426C35.021 42.773 35.2497 42.8131 35.4605 42.8696C35.5659 42.8978 35.902 43.0978 36.0356 43.1546C36.4549 43.4271 36.7084 43.6446 37.1036 44.0054C37.1036 44.0054 37.3988 44.2517 37.3664 44.7374C37.3299 45.2852 36.7859 45.5426 36.3724 45.8066C35.9574 45.9724 35.6131 46.0954 35.4709 46.1325C35.2956 46.1782 35.109 46.2129 34.9301 46.2399C34.5705 46.2942 34.1372 46.3347 33.6746 46.3663C32.7435 46.4297 31.5814 46.4638 30.419 46.4822C28.0962 46.519 25.6526 46.4931 24.8977 46.4938C24.3823 46.4939 21.6869 46.5224 19.1067 46.4853C17.8173 46.4667 16.5262 46.4314 15.527 46.3656C15.0333 46.3332 14.572 46.2912 14.2056 46.2326C14.0281 46.2042 13.8199 46.164 13.6233 46.1014C13.2674 45.9879 12.8225 45.7868 12.56 45.5243C12.56 45.5243 12.1921 45.4181 12.1921 44.6634C12.1921 43.9087 12.6755 43.464 12.6755 43.464L13.0502 43.1991C13.3684 42.9737 13.7221 42.8848 13.8711 42.8488C14.0773 42.799 14.3004 42.7629 14.5114 42.7353C14.9371 42.6796 15.4387 42.6426 15.9164 42.6163C16.1675 42.6024 16.4371 42.5909 16.7007 42.5809L16.6989 28.2681C16.5769 28.2621 16.4556 28.2562 16.3363 28.2474C13.7401 28.0551 11.2264 27.0038 9.42961 24.8947C6.91166 21.9922 6.69078 18.3559 6.75138 15.2389C6.76193 14.6963 6.74373 14.2104 6.74101 13.5873C6.73847 13.0066 6.75132 12.3654 6.83989 11.7197C7.02347 10.3811 7.54115 8.98915 8.89311 7.84514L9.09941 7.67791C10.1475 6.87139 11.4646 6.48751 12.7878 6.60979C13.8654 6.70722 14.8863 7.13783 15.7083 7.84148L15.9085 8.02092C16.4016 8.48209 16.7609 8.97868 17.0236 9.48882C17.9169 6.25154 20.6017 3.81381 24.1849 3.51165C24.3326 3.49356 24.4706 3.49031 24.4913 3.48967C24.5831 3.48676 24.6827 3.4855 24.7433 3.48601C26.7252 3.503 28.5043 4.21797 29.9325 5.52153L30.2133 5.79009L30.217 5.79375C31.3137 6.89874 32.0745 8.29272 32.41 9.81291C32.6071 10.692 32.6297 11.428 32.6291 12.1176L32.626 12.7969L32.6278 16.0275C32.9026 15.2272 33.3582 14.4365 34.1141 13.7344C35.0902 12.8169 36.3948 12.3308 37.7334 12.3862C39.2231 12.4469 40.5711 13.1088 41.5457 14.1861C43.1169 15.9229 43.2359 17.8055 43.2229 19.4351L43.2132 20.1169C43.2024 20.8225 43.2267 21.7699 43.1851 22.6132C43.0522 25.3104 42.1448 28.1324 39.9228 30.1572C37.7389 32.1469 35.2078 32.8748 32.6144 32.991C32.6183 33.5262 32.6272 34.0776 32.6272 34.6316L32.6266 41.7941Z" fill="#E8E7E7"/>
<path id="Vector (Stroke) (Stroke)" d="M32.6269 34.6315C32.6269 34.0775 32.6177 33.526 32.6138 32.9909C35.2071 32.8747 37.7386 32.1466 39.9224 30.1569C42.0056 28.2585 42.9339 25.6596 43.1511 23.1196L43.1846 22.6138C43.2053 22.1923 43.2104 21.7443 43.2109 21.314L43.2133 20.117L43.2228 19.4354C43.2358 17.8058 43.1163 15.9227 41.5451 14.1859C40.6314 13.176 39.3895 12.5308 38.0104 12.4041L37.7329 12.3862C36.3944 12.3309 35.0894 12.8164 34.1133 13.7339C33.3575 14.4359 32.9028 15.2272 32.6281 16.0274L32.6257 12.7964L32.6293 12.1172C32.6299 11.4277 32.6064 10.6917 32.4093 9.81286C32.0738 8.29273 31.3129 6.89876 30.2162 5.79381L30.2126 5.79022L29.9328 5.52117C28.5045 4.21761 26.7249 3.50293 24.7431 3.48593C24.6824 3.48543 24.5826 3.48661 24.4908 3.48952C24.4694 3.49017 24.3319 3.49421 24.1846 3.51224L23.851 3.54572C20.4352 3.96657 17.8884 6.35276 17.023 9.4888C16.7931 9.04235 16.4896 8.60599 16.0867 8.19496L15.9086 8.02037L15.7077 7.841C14.9884 7.22542 14.1167 6.81918 13.1881 6.66195L12.7876 6.60934C11.4643 6.48706 10.1466 6.87186 9.09854 7.67838L8.89286 7.84459L8.64892 8.06223C7.47732 9.16271 7.0118 10.4652 6.83969 11.7201L6.78588 12.2021C6.74503 12.6819 6.73855 13.1513 6.74044 13.5868C6.74316 14.2098 6.76175 14.6967 6.7512 15.2394L6.74403 15.8289C6.72755 18.8074 7.0692 22.173 9.42977 24.8942C11.2264 27.0031 13.7394 28.0548 16.3355 28.2472C16.4547 28.256 16.577 28.2627 16.699 28.2687L16.7002 42.5811C16.4367 42.5912 16.1667 42.602 15.9157 42.6158C15.4381 42.6421 14.9363 42.6797 14.5107 42.7354L14.189 42.7832C14.0811 42.8019 13.974 42.8241 13.8709 42.849L13.7251 42.8872C13.5478 42.938 13.2883 43.0301 13.0494 43.1993L12.6751 43.4636C12.6751 43.4636 12.1922 43.9085 12.192 44.663L12.2076 44.9165C12.276 45.4289 12.5449 45.5195 12.5592 45.524C12.8217 45.7865 13.2675 45.9881 13.6234 46.1015C13.8198 46.1641 14.0284 46.2047 14.2058 46.2331C14.5721 46.2917 15.0336 46.3333 15.5271 46.3658C16.5262 46.4315 17.817 46.4668 19.1061 46.4854C21.6861 46.5225 24.3816 46.4939 24.8973 46.4938C25.6521 46.493 28.0956 46.5186 30.4183 46.4818C31.2903 46.468 32.1624 46.4461 32.9366 46.4088L33.6744 46.3658C33.9056 46.3501 34.1295 46.3328 34.3405 46.312L34.93 46.2402C35.0194 46.2267 35.1106 46.2113 35.2015 46.1936L35.4705 46.1326C35.5416 46.1141 35.663 46.0738 35.8185 46.0178L36.3721 45.8062C36.7856 45.5422 37.3293 45.2848 37.3658 44.7371C37.3981 44.2516 37.1028 44.0053 37.1028 44.0053C36.8064 43.7347 36.59 43.5443 36.3231 43.3512L36.0349 43.1551C35.9013 43.0983 35.5651 42.8975 35.4597 42.8693C35.3544 42.8411 35.2445 42.8172 35.1345 42.7964L34.8092 42.7426C34.5945 42.7118 34.3591 42.6855 34.1169 42.6636L33.3815 42.6098C33.1296 42.5946 32.8758 42.5815 32.6317 42.5716C32.629 42.2878 32.6255 42.0209 32.6269 41.7943V34.6315ZM18.2607 26.7405C17.8193 26.7363 17.3486 26.7333 16.8963 26.7142L16.4515 26.6891C14.197 26.5221 12.0994 25.6197 10.6184 23.8813C8.50579 21.4542 8.25297 18.3517 8.3129 15.2693C8.35522 13.0913 7.96224 10.8412 9.72872 9.19105L9.90689 9.03321C10.6656 8.386 11.6547 8.07357 12.6476 8.16626C13.4024 8.23461 14.1169 8.53662 14.6924 9.02962L14.8347 9.15637C16.2547 10.4777 16.1581 12.1505 16.1597 13.9503L16.1585 17.5568C16.1618 19.0464 16.8457 19.6207 18.2643 19.7487V14.8029L18.2607 12.7521C18.2603 12.3987 18.2535 12.0446 18.2643 11.6915L18.2822 11.3387C18.5157 8.07217 20.8039 5.49749 24.0411 5.09666L24.358 5.06438C24.4193 5.05213 24.66 5.04826 24.7299 5.04883L25.0456 5.0584C26.6112 5.14524 27.9929 5.77982 29.1077 6.89513C29.9957 7.78985 30.6117 8.91792 30.8835 10.1489C31.101 11.1154 31.0616 11.8278 31.0628 12.7988L31.0772 24.6646C32.3255 24.5508 33.3767 24.2179 33.7067 22.8506C33.7744 22.5674 33.7917 22.275 33.794 21.9812L33.7928 21.1047C33.8544 18.9869 33.4155 16.6885 35.0185 15.0349L35.1811 14.8758C35.852 14.2438 36.7499 13.9094 37.6708 13.9479L37.8669 13.9611C38.8437 14.0505 39.7266 14.5053 40.3864 15.2346C41.7164 16.705 41.6787 18.2547 41.6504 20.0931L41.648 21.3128L41.6432 21.9226C41.6398 22.1263 41.6342 22.3306 41.6241 22.5361L41.5942 22.9905C41.4004 25.2547 40.5835 27.4418 38.8701 29.0029L38.448 29.364C36.3158 31.0873 33.7992 31.5446 31.0676 31.4304C31.0305 32.4383 31.064 33.6106 31.064 34.6315V41.7847C31.0594 42.5328 31.0885 43.36 31.058 44.0986C31.6871 44.0954 34.9503 44.1585 35.3174 44.4908L35.3055 44.5338L35.2636 44.5578C34.2711 45.0325 26.4376 44.9294 24.8961 44.9309C23.8143 44.9311 14.2516 45.0451 13.9331 44.5207L13.9535 44.4741C14.4056 44.1548 17.5269 44.1258 18.2631 44.0926L18.2607 26.7405ZM33.5453 41.6998C34.0102 41.7295 34.5069 41.7717 34.9396 41.8338C35.168 41.8665 35.437 41.9122 35.6977 41.982C35.7714 42.0018 35.8334 42.0274 35.8675 42.0418C35.9073 42.0587 35.9463 42.0763 35.9787 42.092C36.043 42.1234 36.1113 42.1606 36.1689 42.1913C36.2323 42.2251 36.281 42.251 36.3291 42.2762L36.3949 42.3097L36.469 42.3408L36.536 42.385C37.0075 42.6916 37.3013 42.9439 37.6995 43.307C37.7009 43.3082 37.7028 43.3093 37.7042 43.3106C37.7086 43.3143 37.7136 43.3193 37.7186 43.3237C37.7285 43.3326 37.74 43.3433 37.7521 43.3548C37.7765 43.3782 37.8058 43.4069 37.837 43.4421C37.8994 43.5126 37.9742 43.6097 38.045 43.7339C38.1897 43.9875 38.3129 44.3486 38.283 44.7981C38.2425 45.4061 37.9078 45.817 37.6098 46.074C37.3509 46.2972 36.9954 46.4984 36.866 46.581L36.7931 46.6277L36.7129 46.66C36.3018 46.8242 35.9076 46.9676 35.7025 47.0211C35.4858 47.0777 35.2654 47.118 35.0675 47.1478C34.6723 47.2075 34.2096 47.2508 33.7366 47.283C32.7815 47.348 31.6008 47.3817 30.4338 47.4002C28.1027 47.4371 25.6372 47.4114 24.8985 47.4121C24.3968 47.4122 21.6812 47.441 19.093 47.4037C17.7997 47.3851 16.4894 47.3491 15.4661 47.2818C14.9643 47.2488 14.469 47.2049 14.0599 47.1395C13.8648 47.1082 13.605 47.0597 13.3448 46.9768C12.9817 46.8612 12.4395 46.637 12.0282 46.2809C12.0233 46.2779 12.0177 46.2757 12.0127 46.2725C11.8922 46.1965 11.7616 46.087 11.6444 45.9329C11.404 45.6168 11.2737 45.1915 11.2737 44.663C11.2738 44.0843 11.4598 43.6252 11.642 43.3153C11.7331 43.1603 11.8256 43.0386 11.8991 42.9518C11.9359 42.9083 11.9685 42.8725 11.9947 42.8454L12.0426 42.7976C12.0445 42.7957 12.0468 42.7944 12.0486 42.7928L12.0521 42.7892C12.0569 42.7939 12.1073 42.8464 12.6333 43.4182L12.0533 42.788L12.0964 42.7485L12.5185 42.4496C12.9891 42.1162 13.4918 41.9953 13.6557 41.9557C13.9061 41.8953 14.1651 41.8539 14.3923 41.8242C14.8253 41.7676 15.3191 41.7311 15.7806 41.7046V29.1153C13.1555 28.8175 10.6019 27.6839 8.73502 25.4957C5.97476 22.3132 5.7718 18.3616 5.83283 15.2214C5.84318 14.6892 5.82497 14.2553 5.82207 13.5916C5.81948 12.9981 5.83224 12.3052 5.92969 11.5946C6.13497 10.0982 6.72957 8.47252 8.29975 7.14386L8.3141 7.1319L8.52097 6.96449L8.52934 6.95731L8.53891 6.95014C9.77014 6.00271 11.3179 5.5521 12.8725 5.69576C14.0603 5.80337 15.1886 6.2543 16.1214 6.99199L16.3056 7.14386L16.3127 7.15103L16.3211 7.15821L16.5208 7.33758L16.528 7.34355L16.5352 7.35073C16.6164 7.42668 16.6943 7.50379 16.7695 7.58152C18.1196 4.84024 20.7632 2.8784 24.1069 2.59626C24.1934 2.58654 24.2726 2.58056 24.3329 2.57713C24.3677 2.57516 24.3984 2.5744 24.4214 2.57354C24.4327 2.57312 24.4426 2.57258 24.4501 2.57235H24.4621L24.7502 2.56757C26.9605 2.58663 28.9574 3.3888 30.551 4.84316L30.5594 4.85033L30.5666 4.85751L30.8476 5.12656L30.8679 5.14689C32.0863 6.37446 32.9316 7.92306 33.3049 9.61197C33.524 10.5889 33.5483 11.4037 33.5477 12.1183V12.1219L33.5441 12.8011V13.0116C34.6934 11.9602 36.2125 11.4046 37.7712 11.469C39.5164 11.5402 41.0931 12.3169 42.2267 13.57C44.0396 15.5742 44.1546 17.7592 44.1412 19.4426V19.4485L44.1316 20.1301C44.1219 20.7732 44.1439 21.8013 44.1017 22.658C43.961 25.5154 42.9949 28.5997 40.5407 30.8361C38.4134 32.7742 35.988 33.6006 33.5381 33.8435C33.5406 34.1045 33.5453 34.369 33.5453 34.6315V41.6998ZM19.1826 20.7532L18.1818 20.6635C17.3899 20.592 16.6067 20.3834 16.0341 19.8157C15.4442 19.2305 15.242 18.4308 15.2401 17.558C15.2394 17.2461 15.2399 16.9203 15.2401 16.6097L15.2413 13.9515L15.2401 13.2651C15.2325 11.7355 15.1481 10.702 14.2093 9.82841L14.0874 9.71959C13.6581 9.35475 13.1255 9.13181 12.5639 9.08104H12.5615C11.8156 9.01145 11.0735 9.24655 10.5036 9.73275L10.3553 9.86189C9.6757 10.4967 9.39676 11.2454 9.28628 12.1447C9.22968 12.6053 9.21849 13.0949 9.22171 13.6274C9.22479 14.1389 9.24212 14.7288 9.23127 15.2872C9.17364 18.251 9.42632 20.9576 11.1409 23.0754L11.3119 23.2787L11.3179 23.2858C12.6133 24.8064 14.466 25.621 16.5196 25.7731C17.0631 25.8133 17.6697 25.8164 18.2703 25.8221L19.1791 25.8305L19.1803 44.0053C21.7238 44.0414 24.34 44.0126 24.8949 44.0125C25.6679 44.0118 27.9174 44.0352 30.1421 44.0041C30.1682 43.2978 30.1408 42.5681 30.1457 41.7787V34.6315C30.1456 33.6523 30.1114 32.4256 30.1492 31.3969L30.1839 30.4737L31.1059 30.5132C33.8833 30.6293 36.2761 30.1225 38.2507 28.3237C39.7469 26.9604 40.498 25.0165 40.6782 22.9116L40.7069 22.4906C40.726 22.1029 40.7296 21.7146 40.7296 21.3128L40.732 20.0907V20.0787C40.7609 18.2003 40.7615 17.0185 39.7048 15.8504C39.1938 15.2857 38.522 14.9435 37.7832 14.8758L37.6253 14.8651C36.954 14.8388 36.2995 15.083 35.8101 15.5443L35.8053 15.5503C35.1255 16.1805 34.8512 16.9492 34.7506 17.8916C34.6994 18.3723 34.6958 18.8815 34.7028 19.4318C34.7096 19.965 34.7278 20.5601 34.7112 21.1322C34.7025 21.4304 34.7154 21.6108 34.7124 21.9896C34.7098 22.308 34.6915 22.6816 34.6 23.0646C34.3791 23.9798 33.8854 24.6208 33.1985 25.0209C32.5593 25.3933 31.8185 25.5181 31.1597 25.5782L30.16 25.6702L30.1445 12.7999C30.1432 11.7837 30.1776 11.1944 29.9878 10.351L29.9866 10.3474C29.7527 9.2875 29.2228 8.31563 28.4584 7.54445L28.2754 7.36867C27.3537 6.52103 26.251 6.04707 25.0061 5.97557L24.7227 5.966C24.7038 5.96584 24.6388 5.96737 24.5709 5.96959C24.5412 5.97056 24.5162 5.97089 24.4979 5.97198L24.4848 5.97557L24.4298 5.98035C21.51 6.20947 19.4091 8.45338 19.1982 11.4045L19.1814 11.7178L19.1826 11.719C19.1725 12.0529 19.1787 12.3756 19.1791 12.7509L19.1826 14.8017V20.7532Z" fill="#020101"/>
<path id="Vector_2" d="M19.0946 20.586C19.1224 19.8433 19.11 19.0373 19.111 18.2909L19.1104 14.0442C19.1118 12.9287 19.0367 11.3568 19.2898 10.3281C19.5815 9.16744 20.1992 8.11449 21.0701 7.29362C21.7055 6.70177 22.2289 6.43427 23.026 6.14374C21.9148 7.03253 21.3501 8.16688 21.0417 9.53138C20.9125 9.4161 20.6021 9.11915 20.431 9.29127C20.3834 9.59935 20.759 9.85597 20.9695 10.0373C20.8851 10.662 20.8869 11.3739 20.8843 12.0032C20.8887 12.8816 20.8852 13.76 20.874 14.6383C20.7972 14.5603 20.2673 13.935 20.2037 14.5368C20.193 14.6386 20.7499 15.0209 20.8779 15.1131L20.8815 20.6916C20.8843 21.3651 20.8481 22.3552 20.8913 22.9924C20.8148 22.9237 20.2257 22.3137 20.2093 22.8673C20.2062 22.9713 20.7563 23.374 20.888 23.4752C20.885 25.1968 20.9043 26.9773 20.8734 28.6948C20.7136 28.5351 20.2763 28.0339 20.1872 28.5508C20.1632 28.6899 20.7526 29.0847 20.876 29.1665C20.8973 30.7541 20.8629 32.3467 20.8835 33.9333C20.714 33.7891 20.418 33.439 20.22 33.6814C20.1537 33.9494 20.6764 34.2751 20.8817 34.4214L20.8831 37.8808C20.8824 38.4961 20.8677 39.1589 20.8831 39.7688C20.7529 39.6426 20.4466 39.2722 20.2493 39.4714C20.1994 39.522 20.1935 39.5701 20.1892 39.6367C20.2321 39.7915 20.7227 40.1377 20.8761 40.2475C20.8809 40.7734 20.8915 41.334 20.8745 41.8577C20.733 41.7366 20.4254 41.4299 20.2249 41.5754C20.1429 41.8838 20.6626 42.2026 20.88 42.3472C20.8828 42.8601 20.9084 43.5952 20.8827 44.091C20.2988 44.0918 19.6945 44.0849 19.1124 44.0959L19.1077 32.7422L19.1072 28.7109C19.1075 28.0945 19.0856 27.2663 19.1117 26.6618C19.0937 26.5085 19.0989 26.0793 19.0969 25.9057C17.117 25.9216 15.4445 25.9809 13.5936 25.1103C11.7532 24.2676 10.48 22.655 9.79343 20.7764C9.07866 18.8206 9.14411 16.6601 9.15043 14.6069C9.1527 13.8656 9.09975 12.9099 9.19108 12.1853C9.24618 11.7348 9.37089 11.2956 9.56071 10.8834C9.95732 10.0385 10.52 9.4307 11.4031 9.11124C11.4686 9.08512 11.4685 9.08229 11.5377 9.07679C11.5397 9.14122 11.4813 9.18673 11.4335 9.25546C11.3348 9.39733 11.2655 9.5528 11.1932 9.70963C10.9862 10.1474 10.8415 10.6119 10.7632 11.0897C10.6385 11.8417 10.6462 12.6546 10.6451 13.4151L10.6443 16.1203C10.5011 16.001 10.1904 15.7088 9.99323 15.8525C9.90163 16.1443 10.4456 16.467 10.6504 16.6088C10.6994 18.2013 10.8213 19.7164 11.6351 21.1431C11.4532 21.117 11.0293 21.0434 11.0096 21.3208C11.1388 21.6158 11.5955 21.5693 11.8618 21.5412C12.6494 22.741 13.7 23.5569 15.0668 23.9846C14.9773 24.1643 14.8628 24.3545 15.0345 24.5161C15.2888 24.5798 15.4139 24.2721 15.5028 24.0934C16.5665 24.3525 18.0006 24.3131 19.1029 24.2909C19.1087 24.156 19.1092 24.0132 19.1117 23.8775C17.8847 23.9121 16.7051 23.9486 15.5043 23.6631C15.4168 23.4291 15.2326 22.8164 14.9108 22.8933C14.7583 23.0609 14.9448 23.395 15.0339 23.556C13.8848 23.1158 12.8664 22.3979 12.2382 21.3166C12.3567 21.0838 12.6052 20.6002 12.4225 20.372C12.1897 20.3253 12.0272 20.7653 11.955 20.9278C11.2848 19.4373 11.0274 18.2403 11.0679 16.5922C11.3009 16.4325 11.7644 16.1332 11.7316 15.8167C11.5604 15.6454 11.192 16.0133 11.0597 16.1301C11.0101 14.8636 11.05 13.5148 11.0592 12.2419C11.0664 11.2568 11.3113 9.88309 12.0572 9.18124C12.1585 9.08595 12.2104 9.05155 12.3449 9.05682C13.6728 10.1046 13.3179 11.7068 13.4273 13.1596C13.2508 13.0043 13.066 12.8098 12.8178 12.8193C12.5088 13.0042 13.2758 13.5119 13.4029 13.6017C13.4078 15.3855 13.3724 17.0265 13.5186 18.8126C13.3744 18.6914 13.0914 18.4142 12.8972 18.5766C12.7909 18.8953 13.3559 19.1599 13.5849 19.2645C13.8517 20.1442 14.3165 21.0243 15.1469 21.4992C14.9759 21.5207 14.6209 21.5345 14.66 21.7896C14.8375 22.0424 15.3546 21.8867 15.6108 21.8352C15.5845 22.0107 15.515 22.3017 15.7681 22.3286C15.9316 22.2592 15.9555 22.1528 16.0153 21.9956C16.5885 22.2282 17.2351 22.3362 17.8522 22.3467C18.1761 22.3258 18.7577 22.3418 19.1109 22.3375C19.1122 22.1945 19.1154 22.0922 19.0961 21.9489C19.0763 21.5295 19.0893 21.0335 19.0902 20.6085C18.8893 20.6093 18.5288 20.6209 18.3461 20.5861L19.0946 20.586Z" fill="#8AB17D"/>
<path id="Vector_3" d="M12.345 9.05682C13.6729 10.1046 13.318 11.7068 13.4275 13.1596C13.2509 13.0043 13.0662 12.8098 12.8179 12.8193C12.509 13.0042 13.2759 13.5119 13.403 13.6017C13.4079 15.3855 13.3725 17.0265 13.5187 18.8126C13.3745 18.6914 13.0915 18.4142 12.8973 18.5766C12.791 18.8954 13.356 19.1599 13.5851 19.2645C13.8518 20.1442 14.3166 21.0243 15.1471 21.4992C14.9761 21.5207 14.621 21.5345 14.6601 21.7896C14.8376 22.0424 15.3547 21.8867 15.6109 21.8352C15.5846 22.0107 15.5152 22.3017 15.7682 22.3287C15.9318 22.2592 15.9556 22.1528 16.0154 21.9956C16.5887 22.2282 17.2352 22.3362 17.8523 22.3467C17.9563 22.3985 18.9192 22.3583 19.0969 22.3521C19.0878 22.6729 19.0917 23.0147 19.0901 23.3371C18.635 23.3418 18.1151 23.3175 17.6594 23.2937C16.0995 23.212 14.4719 22.5041 13.4423 21.2943C12.9416 20.6978 12.5784 19.9984 12.3784 19.2458C12.0171 17.8948 12.0478 15.7262 12.0524 14.3116C12.0554 13.386 12.0348 12.3107 12.1019 11.4C12.1575 10.645 12.2838 9.83929 12.345 9.05682Z" fill="#8AB17D"/>
<path id="Vector_4" d="M19.0969 25.9058C17.117 25.9216 15.4445 25.981 13.5936 25.1104C11.7532 24.2676 10.48 22.655 9.79343 20.7764C9.07866 18.8207 9.14411 16.6602 9.15043 14.6069C9.1527 13.8657 9.09975 12.9099 9.19108 12.1854C9.24618 11.7349 9.37089 11.2956 9.56071 10.8834C9.95732 10.0385 10.52 9.43073 11.4031 9.11127C11.3166 9.24781 11.1264 9.39904 11.0091 9.52865C10.6795 9.89557 10.418 10.3184 10.2371 10.7774C10.0605 11.212 9.9416 11.6679 9.88351 12.1334C9.80971 12.7424 9.83344 13.8011 9.83825 14.4482C9.84938 15.9497 9.77368 17.3503 10.0447 18.8365C10.4128 20.8546 11.2506 22.6028 12.9586 23.8252C14.928 25.2346 16.8313 25.179 19.1122 25.1743C19.1166 25.5598 19.1454 26.3013 19.1117 26.6619C19.0937 26.5086 19.0989 26.0794 19.0969 25.9058Z" fill="#287271"/>
<path id="Vector_5" d="M26.2642 6.11237C27.8333 6.65819 28.884 7.56578 29.6248 9.06381C30.2751 10.3794 30.2485 11.4615 30.2427 12.8677L30.2405 15.101L30.2371 23.0256L30.2334 24.6279C30.2334 24.8923 30.2205 25.26 30.248 25.5153C30.2478 25.8806 30.2373 26.3044 30.2512 26.665C30.2451 26.7939 30.2322 26.9099 30.2556 27.0363L30.291 27.0654C30.2161 27.1433 30.2495 27.8015 30.2524 27.9445L30.2537 28.0007L30.2534 28.592C30.2517 28.7221 30.2483 28.8545 30.251 28.9843C30.3989 28.9858 30.6301 28.9821 30.77 28.9995C32.2551 29.0036 33.0222 29.0212 34.4709 28.7116C34.5649 28.9165 34.7126 29.2097 34.9878 29.1333C35.1753 28.9541 34.968 28.7465 34.8472 28.5979C36.415 28.0412 37.4329 27.2168 38.3049 25.8115C38.5015 25.8291 39.0779 25.8501 39.0747 25.5185C39.072 25.2483 38.6484 25.427 38.5669 25.3642C38.5891 25.2439 38.8567 24.6782 38.9141 24.4924C39.134 23.7808 39.1999 23.2004 39.2659 22.4705C39.5151 22.3843 40.0046 22.0939 39.9136 21.7768C39.7195 21.6049 39.4309 21.8991 39.2844 22.0209C39.3118 21.1952 39.3254 20.3692 39.3259 19.543C39.334 17.8864 39.3853 16.6074 38.4758 15.1181C38.4021 15.0343 38.3303 14.9488 38.2605 14.8617C38.5444 14.9489 38.8154 15.073 39.0669 15.2308C39.825 15.6723 40.4229 16.5451 40.6462 17.3838C40.8774 18.2514 40.8125 19.2562 40.8179 20.1472C40.8325 22.5311 40.8625 24.6323 39.5955 26.7473C38.4766 28.6142 36.822 29.7531 34.7217 30.2927C33.2881 30.6611 31.718 30.6311 30.2451 30.5962C30.2063 33.8845 30.2607 37.1945 30.2371 40.4841C30.2288 41.644 30.2661 42.9436 30.227 44.0901L28.5852 44.0964C28.5867 42.6904 28.5586 41.2002 28.5884 39.8054C28.79 39.6604 29.3193 39.3169 29.2559 39.0368C29.0732 38.8581 28.7227 39.2041 28.5896 39.3335C28.5835 37.6504 28.5713 35.9223 28.5901 34.2407C28.821 34.0842 29.3118 33.7622 29.27 33.4485C29.1035 33.228 28.7175 33.6425 28.5903 33.768L28.5862 28.2404C28.7656 28.1184 29.4155 27.7194 29.2612 27.4492C29.0371 27.3405 28.7375 27.6472 28.5869 27.7815L28.5884 21.4978C28.8101 21.3419 29.3132 21.018 29.2673 20.7117C29.0952 20.5183 28.7217 20.9021 28.5891 21.0285L28.5859 14.0771C28.7781 13.9487 29.4097 13.5441 29.2344 13.2616C29.0117 13.1692 28.7373 13.4641 28.5879 13.6025C28.5876 12.423 28.6428 11.1707 28.4026 10.021C28.5825 9.88402 29.1045 9.52411 28.97 9.2597C28.7493 9.14474 28.4822 9.44042 28.3345 9.57897C27.9563 8.16539 27.4839 7.03055 26.2642 6.11237Z" fill="#287271"/>
<path id="Vector_6" d="M38.4758 15.1182L38.5195 15.0833C38.7661 15.1276 39.053 15.4874 39.229 15.6724C39.5554 16.1401 39.8137 16.6438 39.9495 17.2002C40.2766 18.5412 40.178 22.1951 39.9272 23.6009C39.5669 25.6189 38.6226 27.335 36.917 28.5134C34.9072 29.9024 32.5903 29.8796 30.2515 29.886L30.25 29.0076C30.395 29.0076 30.6335 29.0144 30.77 28.9995C32.2551 29.0037 33.0222 29.0213 34.4709 28.7117C34.5649 28.9165 34.7126 29.2097 34.9878 29.1333C35.1753 28.9541 34.968 28.7466 34.8472 28.5979C36.415 28.0413 37.4329 27.2168 38.3049 25.8115C38.5015 25.8291 39.0779 25.8501 39.0747 25.5186C39.072 25.2483 38.6484 25.427 38.5669 25.3643C38.5891 25.2439 38.8567 24.6782 38.9141 24.4924C39.134 23.7808 39.1999 23.2004 39.2659 22.4706C39.5151 22.3844 40.0046 22.0939 39.9136 21.7768C39.7195 21.6049 39.4309 21.8991 39.2844 22.021C39.3118 21.1953 39.3254 20.3692 39.3259 19.5431C39.334 17.8865 39.3853 16.6074 38.4758 15.1182Z" fill="#287271"/>
<path id="Vector_7" d="M23.5919 17.3511C23.5546 15.7078 23.5984 14.0117 23.5894 12.3614C23.5832 11.2288 23.556 9.92618 23.6749 8.81486C23.7444 8.16512 24.1915 6.39503 24.6916 6.02081L24.7185 6.05358C24.937 6.37299 25.1186 6.65878 25.2615 7.02296C25.9497 8.77765 25.7861 10.7071 25.8032 12.5542C25.8215 14.5462 25.7827 16.5432 25.8059 18.5352C25.6926 18.4232 25.2891 18.0037 25.1372 18.2539C25.1245 18.5728 25.5623 18.864 25.801 19.0298C25.8091 20.7061 25.7725 22.4643 25.8074 24.1298C25.6682 23.9918 25.4006 23.6669 25.1941 23.8124C25.1665 23.8635 25.1216 23.9641 25.1492 24.0155C25.2605 24.2228 25.6179 24.4607 25.8057 24.5994V28.7231C25.6873 28.6079 25.3713 28.2285 25.1992 28.4311C25.158 28.48 25.1428 28.5456 25.1584 28.6074C25.199 28.7707 25.6636 29.0818 25.8042 29.199L25.8013 34.6775C25.6675 34.5437 25.4009 34.2519 25.1826 34.3642C25.0242 34.6496 25.592 35.0129 25.7983 35.1538C25.8247 36.8337 25.7644 38.5681 25.8044 40.2356C25.6394 40.0686 25.1743 39.5806 25.1296 40.1421C25.301 40.3481 25.5881 40.5647 25.802 40.7327C25.803 41.0776 25.8276 43.978 25.7869 44.0832C25.7449 44.0976 25.7563 44.1001 25.7161 44.0967C25.0535 44.0996 24.391 44.0991 23.7284 44.095C23.693 44.0974 23.6572 44.0984 23.6217 44.1001C23.5728 44.0251 23.5701 36.5813 23.5992 35.9482C23.8225 35.8061 24.3172 35.4885 24.2602 35.186C24.0749 35.0288 23.7344 35.3716 23.6043 35.4858C23.5911 35.1301 23.5841 34.7729 23.5916 34.417C23.6184 33.1384 23.5519 31.8281 23.6052 30.5525C23.8257 30.4214 24.3476 30.0557 24.2613 29.7617C24.0632 29.6179 23.7397 29.9538 23.6063 30.0747C23.576 29.29 23.5898 28.5071 23.5905 27.7222L23.5887 24.5849C23.5901 22.3453 23.5545 20.0377 23.5902 17.8066C23.811 17.6876 24.3252 17.3494 24.2159 17.0545C24.0208 16.9109 23.7248 17.2291 23.5919 17.3511Z" fill="#287271"/>
<path id="Vector_8" d="M23.5919 17.3511C23.5546 15.7078 23.5984 14.0117 23.5894 12.3614C23.5832 11.2288 23.556 9.92618 23.6749 8.81486C23.7444 8.16512 24.1915 6.39503 24.6916 6.02081L24.7185 6.05358C24.7256 6.41068 24.6836 6.85253 24.6624 7.21439C24.6089 8.13346 24.4985 9.08002 24.4897 9.99987L24.4775 23.9294L24.478 35.6455L24.4705 39.957C24.4692 40.4084 24.4736 40.8662 24.4666 41.3171C24.4519 42.2346 24.5686 43.48 23.7284 44.095C23.693 44.0974 23.6572 44.0984 23.6217 44.1001C23.5728 44.0251 23.5701 36.5813 23.5992 35.9482C23.8225 35.8061 24.3172 35.4885 24.2602 35.186C24.0749 35.0288 23.7344 35.3716 23.6043 35.4858C23.5911 35.1301 23.5841 34.7729 23.5916 34.417C23.6184 33.1384 23.5519 31.8281 23.6052 30.5525C23.8257 30.4214 24.3476 30.0557 24.2613 29.7617C24.0632 29.6179 23.7397 29.9538 23.6063 30.0747C23.576 29.29 23.5898 28.5071 23.5905 27.7222L23.5887 24.5849C23.5901 22.3453 23.5545 20.0377 23.5902 17.8066C23.811 17.6876 24.3252 17.3494 24.2159 17.0545C24.0208 16.9109 23.7248 17.2291 23.5919 17.3511Z" fill="#8AB17D"/>
<path id="Vector_9" d="M25.1296 40.1421C25.301 40.3481 25.5881 40.5647 25.8019 40.7327C25.8029 41.0776 25.8276 43.978 25.7868 44.0833C25.7448 44.0977 25.7563 44.1001 25.716 44.0967C24.8017 43.0237 25.1074 42.6436 25.1447 41.2942C25.155 40.9189 25.0995 40.5042 25.1296 40.1421Z" fill="#287271"/>
<path id="Vector_10" d="M24.1132 5.97913L24.1466 5.98794C24.1575 6.02988 23.7431 6.85232 23.6893 6.99431C23.0604 8.65354 23.1715 10.3832 23.1708 12.1337L23.173 17.34C23.0222 17.2005 22.5992 16.7613 22.5124 17.221C22.4867 17.357 23.0545 17.7408 23.1684 17.8245L23.1715 25.3149C23.1713 26.864 23.2019 28.5234 23.1668 30.0615C22.9881 29.8855 22.8067 29.6155 22.5546 29.8051C22.4174 30.0732 22.9757 30.3984 23.168 30.5488C23.1941 32.1748 23.173 33.855 23.1717 35.4843C23.0553 35.3662 22.7008 34.9973 22.5223 35.1772C22.4306 35.4568 22.9721 35.8166 23.1707 35.9673L23.1683 44.0984C22.541 44.1006 21.9136 44.0993 21.2863 44.0949C21.2706 43.539 21.2782 42.9206 21.2866 42.3652C21.4858 42.2102 22.0273 41.8818 21.9489 41.6179C21.8877 41.5527 21.8927 41.5566 21.8081 41.5268C21.6404 41.5437 21.5072 41.6972 21.3767 41.8137L21.3056 41.8598C21.2558 41.8088 21.2715 40.4424 21.2711 40.2585C21.4163 40.1487 21.9681 39.748 21.9611 39.6223C21.9302 39.0627 21.363 39.6955 21.2851 39.7717L21.2781 34.4255C21.4368 34.3049 22.079 33.8991 21.9206 33.6723C21.7394 33.4128 21.4569 33.8161 21.2832 33.9392C21.3219 32.3948 21.2693 30.7256 21.2771 29.1672C21.4926 29.03 22.0705 28.6408 21.9414 28.3562C21.7195 28.2397 21.4244 28.5627 21.2868 28.6982L21.2849 23.484C21.4937 23.3239 22.0262 23.019 21.9407 22.7363C21.7158 22.4989 21.4651 22.8401 21.2845 23.0034C21.3048 22.2803 21.2844 21.4529 21.2846 20.7192L21.2833 15.1179C21.5009 14.9762 22.0677 14.6203 21.9551 14.315C21.7414 14.1877 21.4263 14.5167 21.2903 14.6447L21.2839 12.1439C21.2844 11.5013 21.2711 10.681 21.3709 10.0525C21.6156 9.90527 22.0869 9.65259 22.076 9.33086C21.916 9.16355 21.5488 9.49583 21.4259 9.59485C21.6382 8.90898 21.7581 8.4229 22.1434 7.78457C22.6719 6.90894 23.2082 6.43274 24.1132 5.97913Z" fill="#8AB17D"/>
<path id="Vector_11" d="M26.8552 10.8979C26.8933 11.0576 27.1467 11.2156 27.1584 11.3493C27.2495 12.3877 27.1967 13.497 27.2236 14.536C27.6447 14.3425 27.7866 14.1668 28.1052 14.0042C28.1633 14.0568 28.1762 14.0628 28.1767 14.1676C28.1797 14.7801 28.197 15.4427 28.184 16.0509C28.1767 16.4024 28.2104 17.1372 28.177 17.4448C28.1775 18.608 28.1599 19.8301 28.1797 20.9894C28.0432 20.8592 27.7334 20.5312 27.5153 20.6628C27.3796 20.9748 27.957 21.3193 28.1665 21.4695C28.2253 23.4887 28.1826 25.6919 28.1804 27.7236C28.0756 27.6274 27.969 27.5249 27.8564 27.4382C27.7043 27.3213 27.4751 27.3769 27.49 27.5996C27.6132 27.81 27.8755 27.9827 28.0725 28.1372C28.1001 28.1533 28.1745 28.1975 28.176 28.2356C28.198 28.7834 28.1848 29.3352 28.1833 29.8838C28.1909 31.1623 28.1904 32.4407 28.1818 33.7192C28.0818 33.6184 27.8083 33.3242 27.7116 33.3406C27.0564 33.4507 28.1091 34.1494 28.1875 34.2117C28.1355 35.8423 28.1987 37.6272 28.1816 39.2815C28.0866 39.1877 27.8259 38.916 27.7192 38.9412C27.0849 39.0906 28.0564 39.6948 28.1726 39.779C28.1775 41.2009 28.2028 42.6807 28.176 44.0972C27.5195 44.0981 26.8528 44.1108 26.1977 44.0952L26.1992 40.7414C26.4011 40.5928 26.9675 40.2434 26.8806 39.9653C26.6699 39.7751 26.4157 40.1023 26.2295 40.2339L26.208 40.2488C26.1953 38.5527 26.1926 36.8567 26.1999 35.1606C26.4294 35.0024 26.9128 34.6741 26.8801 34.3716C26.6862 34.2331 26.3481 34.562 26.208 34.6843C26.2009 34.3938 26.1958 34.1008 26.1989 33.8103C26.2148 32.2756 26.1753 30.7314 26.2065 29.1977C26.4416 29.0386 26.893 28.7319 26.886 28.4202C26.7419 28.1999 26.3171 28.6343 26.2131 28.7336C26.1711 27.4121 26.2004 25.9416 26.2014 24.6079C26.3537 24.4944 26.8908 24.1115 26.8903 23.9915C26.8877 23.4105 26.2832 24.0642 26.2133 24.1307C26.2024 23.8826 26.196 23.6333 26.1989 23.385C26.216 21.9331 26.1731 20.4691 26.2077 19.0182C26.4131 18.8827 26.9528 18.5214 26.8405 18.2355C26.6257 18.1118 26.3481 18.4165 26.206 18.5516C26.1782 16.2416 26.188 13.8654 26.1997 11.553C26.4277 11.4105 26.789 11.1664 26.8552 10.8979Z" fill="#287271"/>
<path id="Vector_12" d="M27.1842 28.6316C27.1602 27.4705 27.1815 26.2664 27.1832 25.1016C27.1724 23.6453 27.1724 22.189 27.1834 20.7329L27.1878 19.2728C27.1885 19.0528 27.1832 18.5562 27.2222 18.3661C27.2571 18.1965 28.0303 17.5389 28.1768 17.4448C28.1773 18.608 28.1597 19.8302 28.1795 20.9894C28.043 20.8592 27.7332 20.5312 27.5152 20.6628C27.3795 20.9748 27.9569 21.3194 28.1663 21.4695C28.2252 23.4887 28.1824 25.6919 28.1802 27.7236C28.0755 27.6274 27.9688 27.5249 27.8563 27.4382C27.7042 27.3213 27.4749 27.377 27.4898 27.5996C27.6131 27.8101 27.8753 27.9827 28.0723 28.1372C27.7625 28.343 27.5135 28.4695 27.1842 28.6316Z" fill="#287271"/>
<path id="Vector_13" d="M37.5366 14.8389C37.6081 14.8304 37.6547 14.8517 37.7089 14.9015C38.9694 16.0631 38.9455 17.8878 38.9204 19.4637C38.9064 20.319 38.9225 21.1329 38.8874 21.9753C38.7546 21.8524 38.437 21.5176 38.237 21.6502C38.1476 21.9568 38.6418 22.3045 38.8491 22.4735C38.7963 23.3729 38.5998 24.4095 38.162 25.1987C38.0847 25.042 37.9807 24.7798 37.7853 24.752C37.5334 24.8838 37.8 25.396 37.9086 25.5681C37.9177 25.5823 37.9267 25.5962 37.9362 25.6101C37.2165 26.7468 36.207 27.7107 34.9123 28.1504C34.9755 27.9993 35.1762 27.5164 34.9091 27.4663C34.6301 27.551 34.5422 28.0125 34.4758 28.2637C33.1769 28.6558 31.612 28.5903 30.2536 28.592L30.2538 28.0007L30.2526 27.9446C30.2497 27.8015 30.2162 27.1433 30.2912 27.0654C31.4008 27.1267 32.6503 27.0569 33.7011 26.688C33.7304 26.8599 33.7797 27.0596 33.9929 27.0569C34.218 26.958 34.1586 26.7021 34.1086 26.5154C34.3969 26.5937 34.8163 26.7529 35.0722 26.5369C35.1074 26.4617 35.0995 26.502 35.0825 26.4099C34.9658 26.2515 34.8654 26.2549 34.6691 26.2083C35.4062 25.6809 35.6176 25.3264 36.0314 24.5527C36.2944 24.5032 36.7958 24.4165 36.8581 24.1043C36.7761 23.8848 36.3586 24.0326 36.1994 24.0765C36.6306 22.8487 36.5136 20.6964 36.5266 19.3594C36.7516 19.2169 37.2287 18.9327 37.1647 18.6218C36.9767 18.4532 36.6581 18.7739 36.5234 18.8934C36.5493 17.2787 36.3188 16.0864 37.5366 14.8389Z" fill="#8AB17D"/>
<path id="Vector_14" d="M37.5364 14.8389C37.6079 14.8304 37.6545 14.8517 37.7087 14.9015C38.9692 16.0631 38.9453 17.8878 38.9202 19.4637C38.9062 20.319 38.9224 21.1329 38.8872 21.9753C38.7544 21.8524 38.4368 21.5176 38.2368 21.6502C38.1475 21.9568 38.6416 22.3045 38.8489 22.4735C38.7961 23.3729 38.5996 24.4095 38.1619 25.1987C38.0845 25.042 37.9805 24.7798 37.7852 24.752C37.5332 24.8838 37.7998 25.396 37.9084 25.5681C37.9175 25.5823 37.9265 25.5962 37.936 25.6101C37.2163 26.7468 36.2068 27.7107 34.9121 28.1504C34.9753 27.9993 35.176 27.5164 34.9089 27.4663C34.6299 27.551 34.542 28.0125 34.4756 28.2637C33.1768 28.6558 31.6118 28.5903 30.2534 28.592L30.2537 28.0007C32.7131 28.168 35.5149 27.5796 36.8953 25.3289C37.9053 23.6826 37.8835 21.716 37.8672 19.8546C37.8547 18.4169 37.9292 16.987 37.6519 15.5655C37.6052 15.3259 37.5935 15.0764 37.5364 14.8389Z" fill="#287271"/>
<path id="Vector_15" d="M12.9517 9.04852C13.7074 9.28409 14.0727 9.49242 14.5863 10.136C15.4257 11.1877 15.3298 12.6573 15.3233 13.9589L15.3235 16.8242C15.3229 17.8941 15.2106 18.8214 15.9918 19.6591C16.6541 20.3695 17.4066 20.5481 18.3464 20.5861C18.529 20.6209 18.8896 20.6093 19.0905 20.6085C19.0896 21.0335 19.0766 21.5295 19.0964 21.9489C17.9816 21.949 17.1005 21.9932 16.0414 21.5583C16.0425 21.3397 15.9565 20.4401 15.5906 20.6577C15.4604 20.8666 15.5472 21.1108 15.6 21.3407C14.8113 20.861 14.2409 20.0924 14.0101 19.1986C14.2113 19.0537 14.7252 18.6032 14.5355 18.3317C14.2798 18.2403 14.0526 18.6017 13.915 18.7787C13.9118 18.6081 13.8913 18.4351 13.8814 18.2643C13.7921 16.7217 13.8048 15.1567 13.8199 13.6118C14.0294 13.4826 14.5793 13.1322 14.4607 12.8377C14.2432 12.7115 13.9701 13.0146 13.8301 13.1499C13.8145 11.8123 13.9362 10.0944 12.9517 9.04852Z" fill="#8AB17D"/>
<path id="Vector_16" d="M30.2477 25.5154C31.5634 25.5081 32.8212 25.4492 33.8033 24.4473C34.6005 23.6342 34.6207 22.7215 34.6334 21.6641C34.6393 20.9154 34.641 20.1666 34.6385 19.4178C34.6403 18.082 34.5878 16.8072 35.527 15.7155C35.9388 15.2368 36.3583 15.0083 36.9603 14.8442C36.2118 15.7401 36.0807 16.8905 36.1188 18.0121C36.1283 18.2917 36.118 18.5793 36.1351 18.8597C35.9852 18.7241 35.7037 18.4254 35.4777 18.55C35.327 18.845 35.9051 19.2109 36.1073 19.3385L36.1107 21.0388C36.1122 22.1024 36.1332 22.9551 35.7926 23.9933C35.7245 23.8651 35.4557 23.3039 35.2509 23.4601C35.1468 23.7757 35.4303 24.1671 35.6053 24.4258C35.2841 25.1938 34.8297 25.6367 34.1207 26.062C34.1566 25.8647 34.2931 25.3818 34.0558 25.292C33.7301 25.3623 33.6835 25.979 33.6793 26.2537C32.661 26.686 31.3507 26.6621 30.2509 26.665C30.2369 26.3044 30.2474 25.8806 30.2477 25.5154Z" fill="#8AB17D"/>
<path id="Vector_17" d="M25.1382 5.95789C25.9062 6.14246 26.7646 7.06987 27.1643 7.72478C27.5266 8.31809 27.7327 8.87971 27.9287 9.5396C27.8008 9.44434 27.4126 9.12661 27.262 9.30742C27.2539 9.6313 27.7629 9.91687 28.0095 10.0669C28.2236 11.4354 28.1802 12.1771 28.176 13.5629C28.0156 13.4272 27.8499 13.2365 27.6521 13.2455C27.572 13.2819 27.5723 13.2772 27.5195 13.3533C27.4829 13.607 27.9092 13.8574 28.105 14.0042C27.7864 14.1668 27.6445 14.3425 27.2234 14.5359C27.1965 13.497 27.2493 12.3877 27.1582 11.3492C27.1465 11.2156 26.8931 11.0575 26.855 10.8979C26.6504 10.5644 26.3835 10.9078 26.2024 11.0865C26.1938 9.38469 26.1697 7.41792 25.1382 5.95789Z" fill="#287271"/>
</g>
<path id="Union" d="M24.7505 2.56738C26.9605 2.58655 28.9578 3.38851 30.5513 4.84277L30.5659 4.85742L30.8472 5.12695L30.8677 5.14648C32.086 6.37406 32.9318 7.9234 33.3052 9.6123C33.5242 10.589 33.548 11.4037 33.5474 12.1182V12.1221L33.5435 12.8008V13.0117C34.6928 11.9604 36.2123 11.4043 37.771 11.4688C39.5162 11.5399 41.0925 12.3172 42.2261 13.5703C44.0389 15.5744 44.1545 17.759 44.1411 19.4424V19.4482L44.1313 20.1299C44.1216 20.7729 44.1433 21.8015 44.1011 22.6582C43.9603 25.5155 42.9946 28.5997 40.5405 30.8359C38.4132 32.774 35.9875 33.6009 33.5376 33.8438C33.5401 34.1047 33.5454 34.3694 33.5454 34.6318V41.7002C34.0101 41.7299 34.5065 41.772 34.939 41.834C35.1674 41.8667 35.437 41.9126 35.6978 41.9824C35.7713 42.0021 35.8336 42.0276 35.8677 42.042C35.9073 42.0588 35.9467 42.0761 35.979 42.0918C36.0431 42.1231 36.111 42.1608 36.1685 42.1914C36.2319 42.2252 36.2806 42.2512 36.3286 42.2764L36.395 42.3096L36.4692 42.3408L36.5356 42.3848C37.0072 42.6913 37.3015 42.9436 37.6997 43.3066C37.701 43.3077 37.7022 43.3094 37.7036 43.3105C37.7079 43.3142 37.7134 43.3189 37.7183 43.3232C37.7281 43.332 37.7396 43.3431 37.7515 43.3545C37.7759 43.3779 37.8053 43.4072 37.8364 43.4424C37.8988 43.5128 37.9737 43.6095 38.0444 43.7334C38.1891 43.987 38.3125 44.3484 38.2827 44.7979C38.2422 45.4057 37.9079 45.8171 37.6099 46.0742C37.351 46.2974 36.9951 46.4984 36.8657 46.5811L36.7925 46.6279L36.7124 46.6602C36.3015 46.8243 35.9077 46.9679 35.7026 47.0215C35.4859 47.078 35.2647 47.1176 35.0669 47.1475C34.6718 47.2071 34.2095 47.251 33.7368 47.2832C32.7818 47.3482 31.6009 47.3819 30.4341 47.4004C28.103 47.4373 25.6366 47.4114 24.8979 47.4121C24.3952 47.4122 21.6798 47.4406 19.0923 47.4033C17.7993 47.3847 16.4894 47.3495 15.4663 47.2822C14.9646 47.2492 14.4691 47.2051 14.0601 47.1396C13.865 47.1084 13.6044 47.0594 13.3442 46.9766C12.9812 46.8608 12.439 46.6372 12.0278 46.2812C12.0229 46.2782 12.0172 46.2756 12.0122 46.2725C11.8918 46.1965 11.7612 46.0866 11.644 45.9326C11.4038 45.6165 11.2739 45.1914 11.2739 44.6631C11.274 44.0844 11.4599 43.6253 11.6421 43.3154C11.7332 43.1606 11.8255 43.0389 11.8989 42.9521C11.9357 42.9087 11.9684 42.8728 11.9946 42.8457L12.0425 42.7979C12.0444 42.7961 12.0466 42.7945 12.0483 42.793L12.0522 42.7891C12.0575 42.7943 12.1102 42.8493 12.6333 43.418L12.0532 42.7881L12.0962 42.749L12.5181 42.4492C12.9887 42.1159 13.4919 41.9957 13.6558 41.9561C13.9061 41.8956 14.1649 41.8539 14.3921 41.8242C14.8251 41.7676 15.3193 41.7316 15.7808 41.7051V29.1152C13.1557 28.8175 10.6017 27.6842 8.73486 25.4961C5.97467 22.3137 5.7715 18.3618 5.83252 15.2217C5.84286 14.6896 5.82468 14.2554 5.82178 13.5918C5.81919 12.9984 5.83177 12.3052 5.9292 11.5947C6.13448 10.0984 6.72914 8.47222 8.29932 7.14355L8.31396 7.13184L8.521 6.96484L8.52881 6.95703L8.53857 6.9502C9.7698 6.00277 11.318 5.55166 12.8726 5.69531C14.0603 5.80297 15.1888 6.25455 16.1216 6.99219L16.3052 7.14355L16.313 7.15137L16.3208 7.1582L16.521 7.33789L16.5278 7.34375L16.5347 7.35059C16.6157 7.42641 16.6939 7.50346 16.769 7.58105C18.1191 4.83992 20.7633 2.87881 24.1069 2.59668C24.1933 2.58697 24.2722 2.58058 24.3325 2.57715C24.3673 2.57518 24.3984 2.5741 24.4214 2.57324C24.4325 2.57283 24.4423 2.5725 24.4497 2.57227H24.4614L24.7505 2.56738ZM31.5259 46.458C31.6294 46.4553 31.7323 46.4523 31.8345 46.4492C31.7323 46.4523 31.6294 46.4553 31.5259 46.458ZM12.5044 45.4971C12.5339 45.5154 12.5544 45.5229 12.5591 45.5244C12.556 45.5235 12.5351 45.5161 12.5044 45.4971ZM12.4536 45.459C12.4681 45.4714 12.4822 45.4809 12.4946 45.4893C12.4822 45.4809 12.4681 45.4714 12.4536 45.459ZM12.3901 45.3936C12.4019 45.4078 12.4139 45.4202 12.4253 45.4316C12.4139 45.4202 12.4019 45.4079 12.3901 45.3936ZM12.3267 45.2979C12.3386 45.3192 12.3504 45.3388 12.3628 45.3564C12.3504 45.3388 12.3386 45.3192 12.3267 45.2979ZM12.2642 45.1543C12.2755 45.1876 12.2864 45.2184 12.2993 45.2461C12.2864 45.2183 12.2755 45.1876 12.2642 45.1543ZM12.2388 45.0762C12.2407 45.0838 12.2426 45.0913 12.2446 45.0986C12.2426 45.0913 12.2407 45.0838 12.2388 45.0762ZM36.7446 43.6875C36.7077 43.6558 36.6716 43.6248 36.6353 43.5947C36.6716 43.6248 36.7077 43.6558 36.7446 43.6875ZM36.5503 43.5254C36.4935 43.4799 36.436 43.4357 36.3765 43.3916C36.436 43.4357 36.4935 43.48 36.5503 43.5254ZM13.2603 43.0713C13.2418 43.081 13.2231 43.091 13.2046 43.1016C13.2231 43.091 13.2418 43.081 13.2603 43.0713ZM13.4858 42.9688C13.4365 42.9881 13.3858 43.0111 13.3335 43.0361C13.3857 43.0111 13.4365 42.9881 13.4858 42.9688ZM13.6538 42.9092C13.6223 42.9191 13.5889 42.9299 13.5542 42.9424C13.5889 42.9299 13.6223 42.9191 13.6538 42.9092ZM14.189 42.7832C14.0861 42.801 13.9838 42.8222 13.8853 42.8457C14.0873 42.7977 14.3052 42.7623 14.5112 42.7354L14.189 42.7832ZM40.6274 29.4365C40.6389 29.4235 40.6513 29.4115 40.6626 29.3984C40.6513 29.4115 40.6389 29.4235 40.6274 29.4365ZM40.9595 29.0381C40.969 29.0259 40.9793 29.0142 40.9888 29.002C40.9793 29.0142 40.969 29.0259 40.9595 29.0381ZM41.2593 28.6348C41.2709 28.6181 41.2829 28.6017 41.2944 28.585C41.2829 28.6017 41.2709 28.6181 41.2593 28.6348ZM41.4663 28.3232C41.5071 28.2598 41.5472 28.1961 41.5864 28.1318C41.5472 28.1961 41.5071 28.2598 41.4663 28.3232ZM41.7202 27.9043C41.7645 27.8272 41.8081 27.7499 41.8501 27.6719C41.8081 27.7499 41.7645 27.8272 41.7202 27.9043ZM41.9526 27.4756C41.9981 27.3865 42.0428 27.2972 42.0854 27.207C42.0428 27.2972 41.9981 27.3865 41.9526 27.4756ZM42.1763 27.0098C42.2146 26.9242 42.2517 26.8383 42.2876 26.752C42.2517 26.8383 42.2146 26.9242 42.1763 27.0098ZM42.3823 26.5176C42.4186 26.4242 42.4532 26.3304 42.4868 26.2363C42.4532 26.3304 42.4186 26.4242 42.3823 26.5176ZM42.5415 26.0801C42.5762 25.9782 42.6094 25.876 42.6411 25.7734C42.6094 25.876 42.5762 25.9782 42.5415 26.0801ZM42.7075 25.5527C42.7337 25.4616 42.7578 25.3699 42.7817 25.2783C42.7578 25.3699 42.7337 25.4616 42.7075 25.5527ZM42.8286 25.0957C42.8597 24.9687 42.8886 24.8414 42.9155 24.7139C42.8886 24.8414 42.8597 24.9687 42.8286 25.0957ZM8.99365 24.3545C9.13073 24.5369 9.27544 24.7173 9.4292 24.8945C9.27544 24.7173 9.13074 24.5369 8.99365 24.3545ZM42.938 24.6074C42.9635 24.481 42.9867 24.3543 43.0083 24.2275C42.9867 24.3543 42.9635 24.481 42.938 24.6074ZM8.7915 24.0762C8.83272 24.1352 8.87562 24.1934 8.91846 24.252C8.87562 24.1934 8.83272 24.1352 8.7915 24.0762ZM43.0972 23.6289C43.0773 23.7897 43.0547 23.9506 43.0288 24.1113C43.082 23.781 43.1227 23.4501 43.1509 23.1201L43.0972 23.6289ZM8.4292 23.5166C8.45971 23.5673 8.49136 23.6175 8.52295 23.668C8.49136 23.6175 8.45971 23.5673 8.4292 23.5166ZM8.26514 23.2334C8.29537 23.2877 8.3265 23.3416 8.35791 23.3955C8.3265 23.3416 8.29538 23.2877 8.26514 23.2334ZM8.10889 22.9414C8.13005 22.9825 8.15154 23.0235 8.17334 23.0645C8.15154 23.0235 8.13005 22.9825 8.10889 22.9414ZM7.9585 22.6367C7.98951 22.7022 8.02067 22.7679 8.05322 22.833C8.02066 22.7679 7.98952 22.7022 7.9585 22.6367ZM7.83545 22.3672C7.86234 22.4284 7.8893 22.4898 7.91748 22.5508C7.8893 22.4898 7.86235 22.4284 7.83545 22.3672ZM7.69873 22.041C7.72509 22.1069 7.75202 22.1727 7.77979 22.2383C7.75202 22.1727 7.72509 22.1069 7.69873 22.041ZM7.60205 21.791C7.61841 21.835 7.6349 21.879 7.65186 21.9229C7.6349 21.879 7.61841 21.835 7.60205 21.791ZM7.03662 19.7031C7.05536 19.8048 7.07516 19.9063 7.09619 20.0078C7.07515 19.9063 7.05537 19.8048 7.03662 19.7031ZM6.93408 19.0742C6.94903 19.18 6.96476 19.2858 6.98193 19.3916C6.96475 19.2858 6.94904 19.18 6.93408 19.0742ZM6.85791 18.4473C6.86886 18.553 6.88014 18.6588 6.89307 18.7646C6.88014 18.6588 6.86886 18.553 6.85791 18.4473ZM6.81201 17.9453C6.8171 18.0116 6.82186 18.0781 6.82764 18.1445C6.82185 18.0781 6.8171 18.0116 6.81201 17.9453ZM6.75049 16.627C6.75293 16.7512 6.75504 16.8759 6.75928 17.001C6.75503 16.8759 6.75293 16.7512 6.75049 16.627ZM41.1753 13.8145C41.3036 13.9322 41.4276 14.0563 41.5454 14.1865C41.4276 14.0563 41.3036 13.9322 41.1753 13.8145ZM41.0747 13.7246C41.0443 13.698 41.0139 13.6714 40.9829 13.6455C41.0139 13.6714 41.0443 13.698 41.0747 13.7246ZM40.8862 13.5674C40.8452 13.5346 40.8041 13.5022 40.7622 13.4707C40.8041 13.5022 40.8452 13.5346 40.8862 13.5674ZM40.7095 13.4316C40.656 13.3923 40.6021 13.3537 40.5474 13.3164C40.6022 13.3537 40.656 13.3923 40.7095 13.4316ZM40.4683 13.2646C40.4243 13.2358 40.3802 13.2072 40.3354 13.1797C40.3802 13.2072 40.4243 13.2358 40.4683 13.2646ZM40.2485 13.1279C40.2029 13.101 40.1572 13.0744 40.1108 13.0488C40.1572 13.0744 40.2029 13.101 40.2485 13.1279ZM40.0269 13.0039C39.9748 12.9764 39.9225 12.9496 39.8696 12.9238C39.9225 12.9496 39.9748 12.9765 40.0269 13.0039ZM6.75342 12.751C6.75028 12.8323 6.74839 12.9131 6.74658 12.9932C6.74844 12.9131 6.75023 12.8323 6.75342 12.751ZM39.7974 12.8896C39.7443 12.8648 39.6911 12.8405 39.6372 12.8174C39.6911 12.8405 39.7443 12.8648 39.7974 12.8896ZM39.5444 12.7793C39.4965 12.7598 39.4484 12.7408 39.3999 12.7227C39.4484 12.7408 39.4965 12.7598 39.5444 12.7793ZM39.3081 12.6885C39.2474 12.667 39.1861 12.6472 39.1245 12.6279C39.1861 12.6472 39.2474 12.667 39.3081 12.6885ZM6.78564 12.2021C6.77389 12.3402 6.76592 12.4775 6.75928 12.6133C6.77377 12.3202 6.79812 12.0205 6.83936 11.7197L6.78564 12.2021ZM39.061 12.6074C38.9872 12.5853 38.9124 12.5658 38.8374 12.5469C38.9124 12.5658 38.9872 12.5853 39.061 12.6074ZM38.8101 12.5391C38.7355 12.5206 38.6602 12.5045 38.5845 12.4893C38.6602 12.5045 38.7355 12.5206 38.8101 12.5391ZM38.2847 12.4365C38.3725 12.4491 38.4598 12.4637 38.5464 12.4805C38.3703 12.4463 38.1915 12.4209 38.0103 12.4043L38.2847 12.4365ZM7.04248 10.7285C7.03028 10.772 7.01957 10.8158 7.0083 10.8594C7.01957 10.8158 7.03027 10.772 7.04248 10.7285ZM7.11475 10.4912C7.09817 10.5426 7.08208 10.594 7.06689 10.6455C7.08208 10.594 7.09816 10.5426 7.11475 10.4912ZM8.75146 10.5684C8.75024 10.5712 8.74975 10.5743 8.74854 10.5771C8.74975 10.5743 8.75024 10.5712 8.75146 10.5684ZM7.20459 10.2314C7.18862 10.2743 7.17361 10.3174 7.15869 10.3604C7.17362 10.3174 7.18862 10.2743 7.20459 10.2314ZM7.29248 10.0078C7.27075 10.0596 7.25106 10.112 7.23096 10.1641C7.25106 10.112 7.27074 10.0596 7.29248 10.0078ZM7.40479 9.75879C7.38593 9.79838 7.36792 9.83818 7.3501 9.87793C7.36793 9.83818 7.38593 9.79838 7.40479 9.75879ZM7.53271 9.50781C7.50403 9.56103 7.4764 9.6144 7.44971 9.66797C7.47641 9.61441 7.50402 9.56102 7.53271 9.50781ZM7.66553 9.27539C7.63628 9.3239 7.60706 9.37204 7.57959 9.4209C7.60706 9.37204 7.63628 9.32389 7.66553 9.27539ZM7.81982 9.03418C7.78378 9.08751 7.74808 9.1405 7.71436 9.19434C7.74808 9.14051 7.78378 9.0875 7.81982 9.03418ZM16.8511 9.18359C16.8419 9.16836 16.8331 9.1529 16.8237 9.1377C16.8331 9.15289 16.8419 9.16836 16.8511 9.18359ZM16.6313 8.84668C16.6156 8.82451 16.5997 8.80235 16.5835 8.78027C16.5997 8.80234 16.6156 8.82452 16.6313 8.84668ZM8.20557 8.52637C8.14883 8.59263 8.09401 8.65924 8.0415 8.72656C8.09401 8.65924 8.14883 8.59263 8.20557 8.52637ZM16.521 8.69629C16.4942 8.66133 16.4669 8.62649 16.439 8.5918C16.4669 8.62649 16.4942 8.66133 16.521 8.69629ZM16.3862 8.52734C16.3573 8.4926 16.3275 8.45828 16.2974 8.42383C16.3275 8.45827 16.3573 8.4926 16.3862 8.52734ZM8.42529 8.28223C8.34836 8.36242 8.27576 8.44438 8.20557 8.52637C8.27576 8.44439 8.34836 8.36242 8.42529 8.28223ZM17.6987 7.78027C17.6856 7.80512 17.6735 7.83047 17.6606 7.85547C17.6735 7.83047 17.6856 7.80512 17.6987 7.78027ZM15.4653 7.64746C15.4451 7.63216 15.4252 7.61655 15.4048 7.60156C15.4252 7.61656 15.4451 7.63216 15.4653 7.64746ZM17.8413 7.52051C17.8173 7.56244 17.7943 7.60506 17.771 7.64746C17.7943 7.60506 17.8173 7.56244 17.8413 7.52051ZM15.1567 7.43066C15.1451 7.42309 15.1333 7.41568 15.1216 7.4082C15.1333 7.41568 15.1451 7.42309 15.1567 7.43066ZM14.8423 7.24121C14.8348 7.23705 14.8274 7.23264 14.8198 7.22852C14.8274 7.23264 14.8348 7.23705 14.8423 7.24121ZM18.1685 6.99805C18.1413 7.03809 18.1148 7.07858 18.0884 7.11914C18.1148 7.07859 18.1413 7.03809 18.1685 6.99805ZM18.3228 6.77832C18.3096 6.79644 18.2967 6.81478 18.2837 6.83301C18.2967 6.81478 18.3096 6.79644 18.3228 6.77832ZM13.5444 6.73535C13.5337 6.73275 13.523 6.73007 13.5122 6.72754C13.523 6.73007 13.5337 6.73275 13.5444 6.73535ZM18.7085 6.28809C18.6701 6.33312 18.6326 6.37891 18.5952 6.4248C18.6326 6.37891 18.6701 6.33312 18.7085 6.28809ZM18.9233 6.04688C18.8787 6.09512 18.8349 6.14402 18.7915 6.19336C18.8349 6.14403 18.8787 6.09511 18.9233 6.04688ZM19.1216 5.83984C19.0773 5.88444 19.034 5.92995 18.9907 5.97559C19.034 5.92996 19.0773 5.88444 19.1216 5.83984ZM19.3501 5.61816C19.2943 5.67006 19.2394 5.72291 19.1851 5.77637C19.2394 5.72292 19.2943 5.67005 19.3501 5.61816ZM19.5522 5.43652C19.4984 5.48322 19.4456 5.53101 19.3931 5.5791C19.4456 5.53101 19.4984 5.48321 19.5522 5.43652ZM19.8071 5.22559C19.7524 5.26914 19.6985 5.31346 19.645 5.3584C19.6985 5.31347 19.7524 5.26913 19.8071 5.22559ZM20.0171 5.06445C19.9725 5.0976 19.9281 5.131 19.8843 5.16504C19.9281 5.131 19.9725 5.09759 20.0171 5.06445ZM20.2603 4.88965C20.2132 4.9219 20.1669 4.95507 20.1206 4.98828C20.1669 4.95507 20.2132 4.92189 20.2603 4.88965ZM20.5103 4.72559C20.4604 4.75703 20.4108 4.78879 20.3618 4.82129C20.4108 4.7888 20.4604 4.75703 20.5103 4.72559ZM20.8188 4.54004C20.7526 4.57769 20.6874 4.61681 20.6226 4.65625C20.6874 4.61682 20.7526 4.57768 20.8188 4.54004ZM21.0903 4.39258C21.0104 4.434 20.9312 4.47656 20.853 4.52051C20.9312 4.47657 21.0104 4.43399 21.0903 4.39258ZM21.1929 4.33984C21.1703 4.35111 21.1479 4.36256 21.1255 4.37402C21.2138 4.32885 21.3036 4.28617 21.394 4.24414L21.1929 4.33984ZM21.6196 4.14355C21.5458 4.17515 21.4725 4.20755 21.3999 4.24121C21.4725 4.20756 21.5458 4.17514 21.6196 4.14355ZM21.9409 4.01367C21.8607 4.04393 21.7814 4.07577 21.7026 4.1084C21.7814 4.07577 21.8607 4.04392 21.9409 4.01367ZM23.5327 3.59082C22.9763 3.68066 22.4446 3.82369 21.9409 4.01367C22.4416 3.82485 22.9702 3.6827 23.5229 3.59277L23.5327 3.59082Z" fill="white" fill-opacity="0.3"/>
</g>
</g>
</g>
</svg>
