<svg width="50" height="50" viewBox="0 0 50 50" fill="none" xmlns="http://www.w3.org/2000/svg">
<rect width="50" height="50" fill="#BEBEBE"/>
<g id="Decorate Mode">
<path d="M-354.703 -1007.03V-1006.03H2665.3V-1007.03V-1008.03H-354.703V-1007.03ZM2667.3 -1005.03H2666.3V2532.97H2667.3H2668.3V-1005.03H2667.3ZM2665.3 2534.97V2533.97H-354.703V2534.97V2535.97H2665.3V2534.97ZM-356.703 2532.97H-355.703V-1005.03H-356.703H-357.703V2532.97H-356.703ZM-354.703 2534.97V2533.97C-355.255 2533.97 -355.703 2533.52 -355.703 2532.97H-356.703H-357.703C-357.703 2534.62 -356.36 2535.97 -354.703 2535.97V2534.97ZM2667.3 2532.97H2666.3C2666.3 2533.52 2665.85 2533.97 2665.3 2533.97V2534.97V2535.97C2666.95 2535.97 2668.3 2534.62 2668.3 2532.97H2667.3ZM2665.3 -1007.03V-1006.03C2665.85 -1006.03 2666.3 -1005.59 2666.3 -1005.03H2667.3H2668.3C2668.3 -1006.69 2666.95 -1008.03 2665.3 -1008.03V-1007.03ZM-354.703 -1007.03V-1008.03C-356.359 -1008.03 -357.703 -1006.69 -357.703 -1005.03H-356.703H-355.703C-355.703 -1005.59 -355.255 -1006.03 -354.703 -1006.03V-1007.03Z" fill="black" fill-opacity="0.1"/>
<g id="Stickers">
<rect x="-302.694" y="-134.534" width="374" height="551" rx="4.5" stroke="#9747FF" stroke-dasharray="10 5"/>
<g id="Property 1=arrow">
<g id="Frame 138">
<path id="Vector" d="M40.2012 17.8471C40.5761 17.8081 40.9917 17.8271 41.3887 18.062L41.3896 18.0629C41.7472 18.2754 41.9997 18.627 42.0879 19.0336H42.0889C42.2286 19.6714 41.9871 20.3851 41.6973 20.9848C41.4472 21.5021 41.1251 21.9968 40.8711 22.3823C41.0033 22.6056 41.0948 22.8381 41.1182 23.0903C41.1386 23.3114 41.1034 23.5252 41.0264 23.7387C41.6827 24.1001 42.3645 24.519 42.873 25.1879L42.9482 25.2934C43.3062 25.8254 43.3594 26.4113 43.125 26.9096C42.8801 27.4302 42.354 27.7865 41.71 27.8842V27.8832C41.3772 27.9338 41.112 27.9139 40.8408 27.8696C40.525 28.4112 40.078 28.7191 39.5547 28.8461C39.0696 28.9638 38.5434 28.9198 38.0371 28.8149C37.6502 29.4194 37.0085 29.7191 36.3486 29.8061C35.7061 29.8906 35.1638 29.7555 34.6406 29.5932C34.5422 29.7205 34.4323 29.8388 34.3086 29.9428L34.3066 29.9438C33.7325 30.4223 32.986 30.516 32.3008 30.4555C31.6104 30.3946 30.9237 30.1729 30.4004 29.9506C29.2451 29.4598 28.3411 28.7003 27.5537 27.7914C24.3358 28.3615 21.1001 28.824 17.8516 29.1791C18.1763 29.6781 18.435 30.2916 18.2119 31.018C18.0785 31.4521 17.7816 31.8174 17.3623 32.0248C17.1024 32.1555 16.8109 32.2095 16.5215 32.1791V32.1782C16.2833 32.1538 15.9421 32.0574 15.6387 31.9614C15.3251 31.8621 15.0062 31.7501 14.8096 31.683L14.8086 31.6821C13.7864 31.3297 12.7668 30.97 11.75 30.602V30.601C11.3001 30.4465 10.8503 30.2916 10.4014 30.1342L9.0498 29.6547C8.60942 29.4974 8.13128 29.3345 7.68164 29.1528C7.3429 29.0158 7.02387 28.7843 6.87402 28.3559C6.73693 27.9642 6.76607 27.533 6.95508 27.1635L6.95703 27.1606C7.10859 26.8717 7.30289 26.7346 7.50684 26.6059C7.76663 26.4416 8.03484 26.2846 8.30273 26.1323L9.09668 25.687L11.5449 24.3002L14.0264 22.8764C14.5414 22.5812 15.2295 22.1444 15.8486 21.9272C15.856 21.9246 15.8636 21.9225 15.8711 21.9203C16.2752 21.8068 16.779 21.8416 17.1611 22.061C17.5395 22.2783 17.7784 22.5785 17.8936 22.9301C18.0053 23.2714 17.9908 23.6312 17.9238 23.9643C17.8443 24.3595 17.6779 24.7561 17.5059 25.1069C17.7123 25.0825 17.9215 25.0557 18.1289 25.0307L20.1504 24.7807C22.3211 24.5074 24.4872 24.2004 26.6484 23.8608C26.7308 23.6634 26.8167 23.4673 26.9102 23.2748L26.9111 23.2739C27.287 22.5061 27.9521 21.5348 28.7725 20.7768C29.5828 20.0281 30.6154 19.4241 31.7129 19.5483C31.898 19.5693 32.0863 19.645 32.2412 19.7153C32.6534 19.3991 33.1147 19.1013 33.6152 18.9438C34.1416 18.7782 34.7069 18.7684 35.2852 19.0268C35.7434 18.6864 36.2765 18.3557 36.8438 18.2075C37.4378 18.0522 38.0677 18.0964 38.6582 18.5024C39.1096 18.1995 39.5454 17.9534 40.1797 17.85L40.2012 17.8471Z" fill="#020101" stroke="#020101" stroke-width="0.75" stroke-linejoin="round"/>
<path id="Vector (Stroke)" d="M40.0784 16.6665C40.5462 16.6178 41.1992 16.6215 41.8613 16.9668L41.9937 17.04L41.9961 17.0419C42.6363 17.4223 43.09 18.0515 43.2486 18.7795C43.4799 19.8351 43.0738 20.8663 42.767 21.5011C42.5955 21.8561 42.3964 22.1992 42.2092 22.5021C42.252 22.6525 42.2845 22.8119 42.3001 22.9806C42.3043 23.0256 42.3069 23.0701 42.3086 23.1143C42.8264 23.449 43.3707 23.8809 43.818 24.4692H43.8187C44.4732 25.3303 44.6631 26.4293 44.1995 27.4148C43.7569 28.3558 42.8507 28.9112 41.8875 29.0573C41.7128 29.0838 41.5497 29.0963 41.3968 29.0994C40.9686 29.5525 40.436 29.8543 39.8343 30.0002C39.3827 30.1098 38.9306 30.1204 38.5092 30.0839C37.9205 30.6237 37.1825 30.8941 36.5042 30.9835C35.9397 31.0579 35.4317 31.0059 34.9911 30.9146C34.0884 31.6235 33.0085 31.7101 32.1963 31.6384C31.3404 31.5629 30.5275 31.2954 29.9356 31.044C28.8027 30.5627 27.891 29.8686 27.1164 29.0731C24.5775 29.5114 22.0279 29.8837 19.4699 30.1895C19.5044 30.5529 19.4753 30.9472 19.3466 31.3662C19.1233 32.0933 18.6197 32.7252 17.8964 33.0856L17.897 33.0862C17.8955 33.087 17.8937 33.0872 17.8921 33.088C17.8897 33.0892 17.8873 33.0911 17.8848 33.0923L17.8842 33.0917C17.4259 33.3194 16.9125 33.4127 16.4029 33.3602V33.3608C16.4017 33.3607 16.4004 33.3604 16.3992 33.3602C16.3984 33.3602 16.3976 33.3603 16.3968 33.3602V33.3596C16.0198 33.3205 15.5689 33.1848 15.2804 33.0935C14.9502 32.989 14.6055 32.8677 14.4266 32.8066L14.4217 32.8048C13.3938 32.4505 12.3683 32.0886 11.3455 31.7184H11.3449C10.4446 31.4092 9.54649 31.0938 8.6502 30.773C8.33665 30.6609 7.96791 30.5341 7.60101 30.3958L7.23663 30.2535C6.69931 30.0363 6.05236 29.6025 5.75347 28.7484L5.71136 28.6172C5.51661 27.9547 5.58218 27.2409 5.89813 26.6232L5.90179 26.6159L5.90545 26.6091C6.20371 26.0406 6.61288 25.7662 6.87286 25.6021H6.87225C7.42583 25.2521 8.01977 24.93 8.51531 24.6517L10.9598 23.2669L13.4347 21.8466L13.4354 21.846C13.8651 21.5996 14.7012 21.0712 15.4556 20.8065L15.5026 20.79L15.5502 20.7772C16.176 20.6013 16.952 20.6272 17.6199 20.9603L17.7518 21.0311L17.8659 21.0995C18.4247 21.4526 18.8235 21.955 19.0219 22.5607C19.1535 22.9626 19.178 23.3559 19.1537 23.7075L20.0046 23.6025C21.9496 23.3577 23.8906 23.0843 25.8279 22.7859C25.8326 22.7761 25.8372 22.7663 25.842 22.7566L25.8444 22.7517L26.0214 22.4117C26.4674 21.5983 27.1433 20.6653 27.966 19.905C28.8644 19.0749 30.2316 18.1861 31.846 18.3688L32.0425 18.3999C32.4008 18.1687 32.809 17.953 33.2584 17.8115C33.8275 17.6324 34.4508 17.5774 35.0894 17.7175C35.5113 17.4506 36.0039 17.1994 36.5439 17.0584C37.1974 16.8876 37.9122 16.8844 38.6081 17.1462C38.9891 16.9449 39.4352 16.7683 39.9887 16.6781L40.0333 16.6708L40.0784 16.6665ZM41.1978 18.3846C40.8986 18.2076 40.576 18.1855 40.2402 18.2205L40.007 18.2675C39.4856 18.3948 39.1126 18.641 38.6441 18.9651L38.5409 18.8803C37.4696 18.0519 36.2697 18.7261 35.3244 19.465L35.2206 19.4094C34.1525 18.8735 33.157 19.4524 32.2897 20.1516L32.1439 20.0802C32.0172 20.0202 31.8796 19.9622 31.7483 19.9343L31.6702 19.9215C29.8014 19.7102 27.9634 21.9768 27.2476 23.439C27.1265 23.6883 27.0149 23.9423 26.9131 24.2001C24.6793 24.5533 22.44 24.871 20.1962 25.1534L18.1753 25.4031C17.7464 25.4548 17.2789 25.521 16.8503 25.5459C17.3571 24.6497 18.1848 23.0814 16.9742 22.3861C16.6911 22.2236 16.2935 22.1909 15.9726 22.2811L15.7541 22.366C15.2377 22.5837 14.6872 22.9297 14.2129 23.2015L11.73 24.6267L9.28008 26.014C8.75525 26.3087 8.21578 26.6013 7.70721 26.9229L7.57781 27.0083C7.4588 27.0937 7.36804 27.1844 7.28912 27.3348L7.24151 27.441C7.14334 27.6935 7.13774 27.974 7.22808 28.2321C7.33089 28.526 7.54595 28.6936 7.82195 28.8052C8.26233 28.9831 8.7288 29.1421 9.17632 29.302C10.0746 29.6235 10.9748 29.9395 11.8771 30.2493C12.8922 30.6167 13.9101 30.976 14.9307 31.3278C15.3351 31.4657 16.1722 31.767 16.5604 31.8063C16.7785 31.8292 16.9986 31.7889 17.1945 31.6903C17.4773 31.551 17.6892 31.3175 17.8079 31.0324L17.8531 30.9072C18.098 30.1091 17.6297 29.4706 17.1707 28.8772C20.6968 28.5073 24.2085 28.0103 27.6987 27.3867C28.4935 28.3388 29.3921 29.1155 30.5466 29.606C31.5187 30.0189 33.0371 30.4074 33.978 29.725L34.0671 29.656C34.2355 29.5144 34.3775 29.3438 34.4876 29.1531C35.0631 29.338 35.5739 29.4998 36.1777 29.4479L36.2997 29.4345C36.9667 29.3466 37.559 29.0242 37.8439 28.3865C38.988 28.6738 40.0943 28.6647 40.6351 27.4508C41.0078 27.524 41.277 27.5702 41.6531 27.5131C42.7063 27.3534 43.2453 26.4041 42.637 25.502L42.5742 25.4153C42.0417 24.7149 41.2961 24.3062 40.5411 23.8992C40.8628 23.3282 40.7997 22.9096 40.4245 22.3843C40.9662 21.564 41.9444 20.1256 41.7227 19.114C41.6568 18.8086 41.4663 18.5442 41.1978 18.3846Z" fill="#E8E7E7"/>
<path id="Vector (Stroke) (Stroke)" d="M16.3792 34.2774C16.3621 34.2769 16.3449 34.2764 16.3278 34.275C16.322 34.2745 16.316 34.2756 16.3098 34.275C16.3066 34.2746 16.3034 34.2741 16.3003 34.2738C16.299 34.2737 16.2979 34.2727 16.2967 34.2726C16.2855 34.2713 16.2755 34.2691 16.2668 34.2678C16.2739 34.2688 16.2819 34.2703 16.2907 34.2714C16.2854 34.2708 16.2804 34.2685 16.2752 34.2678C15.7999 34.2145 15.2791 34.0562 15.0028 33.9689C14.6597 33.8603 14.297 33.7329 14.1299 33.6759C14.1275 33.6751 14.1251 33.6743 14.1227 33.6735L12.5754 33.133C12.065 32.9528 11.5551 32.7708 11.046 32.5865C10.142 32.276 9.24053 31.959 8.34108 31.6371C8.04155 31.53 7.65352 31.3977 7.27682 31.2556L7.26726 31.2508L6.90254 31.1085L6.89178 31.1049C6.20456 30.8269 5.30131 30.2373 4.88644 29.0518C4.88382 29.0443 4.88169 29.0366 4.87926 29.029L4.83741 28.8975C4.83512 28.8904 4.83235 28.8832 4.83024 28.876C4.56946 27.9886 4.65689 27.0321 5.08016 26.2046L5.0957 26.1759L5.09929 26.1699C5.50986 25.395 6.07862 25.0169 6.38118 24.8258L6.82242 24.5568C7.26407 24.2949 7.70391 24.0537 8.06246 23.8525L10.5067 22.4677L12.9772 21.0495C13.3468 20.8376 14.2929 20.241 15.1511 19.9398L15.1989 19.9231L15.2635 19.9028L15.3113 19.8908C16.1276 19.6638 17.1369 19.6933 18.0294 20.1383C18.0376 20.1425 18.0464 20.1471 18.0545 20.1515L18.186 20.222C18.1986 20.2288 18.2109 20.2363 18.2231 20.2436L18.3379 20.3117L18.357 20.3237C19.0873 20.7853 19.6269 21.4573 19.8948 22.2752C19.9391 22.4105 19.9741 22.5443 20.0012 22.6758C21.7467 22.4551 23.4892 22.2107 25.2292 21.9464C25.7154 21.0655 26.4442 20.0606 27.3422 19.2307C28.2898 18.3551 29.875 17.2712 31.8396 17.4478C32.1775 17.2519 32.5604 17.0689 32.9827 16.936C33.5755 16.7495 34.2285 16.6697 34.908 16.7566C35.3158 16.5245 35.7885 16.3063 36.3118 16.1695C37.002 15.9892 37.7659 15.9585 38.5336 16.1623C38.9078 15.9959 39.3377 15.8533 39.8406 15.7713L39.8848 15.7641L39.947 15.757L39.9925 15.7522C40.479 15.7024 41.1934 15.6937 41.9548 15.9997L42.286 16.1528L42.3051 16.1635L42.4379 16.2365C42.4471 16.2416 42.4551 16.249 42.4642 16.2544L42.4654 16.252C43.324 16.7622 43.9324 17.6063 44.1454 18.5826C44.4473 19.9602 43.915 21.2371 43.5942 21.9009C43.4726 22.1525 43.3364 22.3931 43.2056 22.6184C43.6589 22.9493 44.1287 23.3648 44.5377 23.8991C44.5415 23.904 44.5458 23.9085 44.5496 23.9134C45.3799 25.0057 45.6602 26.4666 45.0303 27.8057C44.4337 29.0741 43.232 29.7824 42.0253 29.9653C41.9442 29.9777 41.8647 29.9851 41.7873 29.9929C41.2861 30.4331 40.697 30.7366 40.0511 30.8933C39.6231 30.9971 39.2043 31.0271 38.8158 31.0188C38.1245 31.5382 37.3345 31.8005 36.6239 31.8942C36.1036 31.9627 35.6274 31.9412 35.2057 31.8822C34.1294 32.5628 32.9491 32.6265 32.1158 32.553C31.1319 32.4662 30.2208 32.1633 29.5759 31.8894C28.4788 31.4232 27.5755 30.7799 26.8065 30.055C24.6659 30.4176 22.5178 30.733 20.3636 31.0021C20.3351 31.2088 20.291 31.4206 20.2248 31.6359C19.9372 32.5725 19.2902 33.3953 18.3594 33.878C18.3581 33.8788 18.3573 33.8807 18.3558 33.8816C18.3492 33.8855 18.3399 33.8902 18.3295 33.8959C18.3239 33.899 18.3174 33.903 18.3104 33.9067C18.2883 33.9178 18.2677 33.927 18.2506 33.9342C18.2441 33.9369 18.2373 33.9379 18.2315 33.9402C17.6542 34.2139 17.0165 34.3305 16.3792 34.2774ZM16.2441 34.2654C16.2497 34.2664 16.2577 34.2665 16.2668 34.2678C16.2565 34.2663 16.2477 34.2665 16.2417 34.2654C16.24 34.2651 16.2384 34.2645 16.2369 34.2642C16.2391 34.2646 16.2415 34.265 16.2441 34.2654ZM16.2273 34.2618C16.2295 34.2622 16.2327 34.2635 16.2369 34.2642C16.2335 34.2636 16.2306 34.2634 16.2285 34.263C16.2268 34.2627 16.2246 34.262 16.2237 34.2618H16.2273ZM18.3379 33.8899C18.3335 33.8923 18.3292 33.8948 18.3247 33.8971C18.3288 33.8949 18.3333 33.8942 18.3367 33.8923C18.3437 33.8885 18.3507 33.8845 18.3558 33.8816C18.3503 33.8844 18.3435 33.8871 18.3379 33.8899ZM39.7856 16.716C39.3244 16.813 38.941 16.9703 38.6077 17.1465L38.3459 17.0604C37.7341 16.888 37.1155 16.9086 36.5438 17.058C36.0039 17.1991 35.5117 17.4511 35.0897 17.7181L34.8506 17.6738C34.2957 17.5929 33.7557 17.6546 33.2578 17.8113C32.8087 17.9527 32.401 18.1686 32.0428 18.3997L31.8455 18.3686C30.2315 18.1861 28.8648 19.0751 27.9664 19.9052L27.6651 20.1981C26.9784 20.8972 26.4111 21.6998 26.0208 22.4115L25.8439 22.7511L25.8415 22.7571C25.8369 22.7666 25.8329 22.7763 25.8283 22.7858C23.8911 23.0842 21.9497 23.3577 20.0048 23.6025L19.1534 23.7078C19.1716 23.444 19.1621 23.1567 19.1008 22.86L19.0219 22.561C18.8483 22.031 18.5212 21.5795 18.0676 21.2385L17.8656 21.0998L17.752 21.0316L17.6204 20.9598C16.9527 20.6268 16.1762 20.6011 15.5505 20.7769L15.5027 20.79L15.456 20.8068C14.7016 21.0714 13.8649 21.5996 13.4351 21.8459L10.9599 23.2665L8.51566 24.6513L7.71568 25.0997C7.57571 25.1793 7.4338 25.261 7.29237 25.3448L6.87265 25.6019C6.6127 25.766 6.20348 26.0404 5.90525 26.6088L5.89808 26.6231C5.58213 27.2408 5.51679 27.9552 5.71153 28.6177L5.75339 28.748C6.05221 29.6019 6.69892 30.0363 7.23617 30.2535L7.60088 30.3958C7.96753 30.5341 8.33618 30.6605 8.64959 30.7725C9.09771 30.9329 9.54698 31.092 9.99605 31.2496L11.3449 31.7184C12.3677 32.0886 13.3938 32.451 14.4217 32.8054L14.4265 32.8065C14.6054 32.8676 14.95 32.9891 15.2803 33.0935C15.4967 33.162 15.8047 33.2558 16.1042 33.3148L16.3971 33.3602H16.3995L16.4031 33.3614C16.9126 33.4138 17.4264 33.3189 17.8847 33.0911C17.8871 33.0899 17.8894 33.0888 17.8919 33.0876C17.8933 33.0868 17.8952 33.087 17.8966 33.0864C18.5295 32.7709 18.9945 32.2466 19.2503 31.6335L19.3471 31.3668C19.4758 30.9478 19.5048 30.5524 19.4703 30.189C22.0281 29.8832 24.5775 29.5115 27.1162 29.0733C27.8908 29.8687 28.803 30.5627 29.9359 31.044C30.5276 31.2953 31.3402 31.5627 32.1959 31.6383C33.008 31.7099 34.0889 31.6238 34.9917 30.9148C35.377 30.9947 35.8139 31.0443 36.2951 31.0057L36.5043 30.983C37.1825 30.8936 37.9211 30.6235 38.5097 30.0837C38.8257 30.1111 39.1589 30.1121 39.4962 30.0646L39.8346 30C40.436 29.8541 40.9683 29.5524 41.3963 29.0996C41.4729 29.0981 41.5524 29.0945 41.6343 29.0876L41.8878 29.0577C42.8508 28.9117 43.7567 28.3556 44.1993 27.4147C44.6628 26.4293 44.4733 25.3305 43.819 24.4695L43.6456 24.2554C43.2348 23.7743 42.7615 23.4074 42.3087 23.1147L42.3003 22.9807C42.2847 22.8121 42.2523 22.6527 42.2095 22.5024C42.303 22.3511 42.3995 22.1896 42.4941 22.0217L42.7667 21.5015C43.0734 20.8668 43.4797 19.8353 43.2486 18.7799C43.1098 18.1428 42.7453 17.5807 42.2274 17.1955L41.9966 17.0424L41.9942 17.04L41.8615 16.9671C41.1995 16.6218 40.5463 16.6183 40.0786 16.667L40.0331 16.6705L39.9889 16.6777L39.7856 16.716ZM40.24 18.2203C40.5757 18.1854 40.8987 18.2072 41.1978 18.3841C41.4662 18.5436 41.6567 18.8083 41.7228 19.1135C41.9444 20.1252 40.9659 21.5638 40.4241 22.384C40.7993 22.9093 40.863 23.3283 40.5413 23.8991C41.2963 24.3061 42.0418 24.715 42.5742 25.4154L42.6376 25.5015C43.2457 26.4035 42.7064 27.353 41.6534 27.5128L41.388 27.5379C41.136 27.5456 40.9142 27.5055 40.6346 27.4506C40.0938 28.6645 38.9877 28.6743 37.8436 28.3869C37.5587 29.0243 36.9666 29.3465 36.2999 29.4344L36.1779 29.4476L35.9555 29.4571C35.4453 29.4584 34.9907 29.3152 34.487 29.1534C34.3771 29.3438 34.2355 29.5142 34.0673 29.6556L33.9776 29.725L33.7947 29.841C32.9751 30.2898 31.8208 30.0746 30.9344 29.7573L30.5469 29.6054C29.3926 29.115 28.4934 28.3391 27.6985 27.3872C24.2084 28.0107 20.6967 28.5073 17.1708 28.8772C17.6298 29.4706 18.0986 30.1095 17.8536 30.9076L17.8082 31.032C17.6894 31.3171 17.4775 31.5515 17.1947 31.6909C16.9988 31.7895 16.7779 31.8298 16.5597 31.8069C16.3656 31.7871 16.0596 31.701 15.7514 31.6036L14.9311 31.3274C13.9105 30.9756 12.8921 30.6162 11.877 30.2487C10.9748 29.939 10.0739 29.6232 9.17574 29.3017C8.95217 29.2218 8.72393 29.142 8.49653 29.0601L7.8221 28.8054C7.58069 28.7078 7.38587 28.5671 7.27204 28.3367L7.2278 28.2326C7.13748 27.9747 7.14284 27.6935 7.24095 27.441L7.28878 27.3346C7.3677 27.1842 7.45917 27.0935 7.57816 27.0082L7.70731 26.9233C7.9615 26.7625 8.22302 26.6082 8.48696 26.4581L9.27977 26.0145L11.7299 24.6261L14.2124 23.202C14.6866 22.9301 15.2374 22.5838 15.7538 22.3661L15.9726 22.2812C16.2935 22.191 16.6916 22.2239 16.9747 22.3864C18.1845 23.0819 17.3571 24.6496 16.8503 25.5457C17.0646 25.5332 17.2887 25.5108 17.5128 25.4847L20.1961 25.1535C21.8789 24.9417 23.5592 24.7103 25.2364 24.4587L26.9129 24.2004C27.0147 23.9427 27.1266 23.688 27.2477 23.4387C27.9636 21.9766 29.8012 19.7109 31.6698 19.9219L31.7487 19.9339C31.8797 19.9617 32.0169 20.0199 32.1433 20.0797L32.2892 20.1515C33.1563 19.4524 34.1521 18.8736 35.2201 19.4089L35.3241 19.4651C36.2694 18.7263 37.4695 18.0521 38.5408 18.8804L38.6436 18.9653C39.1121 18.6412 39.4854 18.3943 40.0068 18.2669L40.24 18.2203ZM40.3644 19.1315L40.2244 19.1602L39.9817 19.2367C39.7465 19.33 39.518 19.4765 39.1662 19.7198C38.8288 19.9532 38.3782 19.9348 38.0613 19.6744L37.9716 19.6014C37.7123 19.404 37.4618 19.3761 37.1369 19.4687C36.7606 19.5761 36.3382 19.838 35.8897 20.1886C35.6032 20.4124 35.2118 20.4461 34.8912 20.2747L34.8003 20.2268C34.2896 19.9755 33.7345 20.166 32.8656 20.8666C32.588 21.0901 32.2064 21.1332 31.8862 20.9766L31.7499 20.9096C31.6408 20.8579 31.583 20.8397 31.5597 20.8343L31.5586 20.8331C31.0251 20.7766 30.3607 21.071 29.6501 21.7275C28.9602 22.3649 28.3868 23.2016 28.0728 23.8429C27.9624 24.0704 27.8597 24.3023 27.7667 24.5377C27.6472 24.8398 27.3773 25.0561 27.0564 25.1068C24.813 25.4616 22.5642 25.781 20.3109 26.0647H20.3086L18.2877 26.3146H18.2853C17.8846 26.3629 17.3692 26.4358 16.9029 26.4629C16.5675 26.4822 16.2483 26.3164 16.0707 26.0312C15.8931 25.7459 15.885 25.3862 16.0503 25.0937C16.3104 24.6339 16.5693 24.1368 16.6554 23.709C16.6962 23.5058 16.6824 23.3891 16.6638 23.3323C16.6535 23.301 16.6328 23.2495 16.5167 23.1828C16.4785 23.1609 16.3548 23.137 16.2429 23.1613L16.1101 23.2115C15.6622 23.4004 15.1948 23.6958 14.6692 23.9972L14.6704 23.9984L12.1867 25.4237L12.182 25.4261L9.73298 26.8132L9.72939 26.8144C9.19353 27.1153 8.69079 27.3887 8.21313 27.6898L8.10312 27.7615L8.09714 27.7759C8.08015 27.8207 8.07909 27.8694 8.09235 27.9158C8.10452 27.9234 8.12703 27.9381 8.16649 27.954C8.37499 28.0383 8.58815 28.1178 8.80744 28.1968L9.48545 28.4371C10.38 28.7573 11.2766 29.0722 12.1748 29.3806L12.1891 29.3854C13.1984 29.7507 14.2113 30.1081 15.2264 30.458C15.442 30.5315 15.7336 30.6349 16.0288 30.7283C16.1883 30.7787 16.3228 30.8181 16.4282 30.8454L16.653 30.8921L16.6566 30.8933C16.6993 30.8977 16.7425 30.8898 16.781 30.8706L16.7881 30.867C16.8608 30.8312 16.9173 30.7712 16.9544 30.6876L16.9759 30.6314C17.0189 30.4869 17.0091 30.3563 16.9328 30.1794C16.8415 29.9676 16.6807 29.7455 16.4438 29.4392C16.2401 29.1758 16.1957 28.8222 16.3266 28.516C16.4575 28.2099 16.744 27.9983 17.0751 27.9636C20.5791 27.596 24.0688 27.1028 27.5371 26.4832L27.6591 26.4689C27.9426 26.4566 28.2192 26.5764 28.4041 26.7977C29.137 27.6755 29.924 28.3441 30.9057 28.7612C31.3394 28.9454 31.8702 29.1119 32.3681 29.163C32.8792 29.2153 33.228 29.1338 33.4383 28.9812L33.4802 28.9489C33.563 28.8784 33.635 28.7926 33.6918 28.6942L33.7839 28.5627C34.0202 28.2808 34.408 28.1637 34.7681 28.2793C35.3619 28.4701 35.7047 28.5667 36.099 28.5328L36.1839 28.5232C36.6361 28.4627 36.8888 28.2725 37.0054 28.0114C37.1873 27.6047 37.6351 27.3876 38.0672 27.496C38.5943 27.6284 38.9819 27.6543 39.2499 27.5893C39.4509 27.5405 39.6381 27.4327 39.7964 27.0775L39.8729 26.9388C40.076 26.6362 40.4441 26.4781 40.8116 26.5502C41.1701 26.6206 41.3072 26.6369 41.5159 26.6052C41.8026 26.5616 41.918 26.4302 41.9512 26.366C41.9681 26.3331 41.9765 26.2972 41.9727 26.2524C41.9688 26.2066 41.95 26.1257 41.8758 26.0156L41.8364 25.963C41.4424 25.4493 40.8789 25.1247 40.1049 24.7075C39.888 24.5904 39.7273 24.3905 39.6588 24.1538C39.5905 23.9171 39.6204 23.6629 39.7413 23.4483C39.8415 23.2706 39.8299 23.2103 39.8298 23.2091C39.8283 23.1931 39.8156 23.1129 39.6768 22.9186C39.4559 22.6093 39.4483 22.1953 39.6576 21.8782C39.9375 21.4545 40.2804 20.944 40.533 20.4217C40.8043 19.8606 40.8658 19.4936 40.8259 19.3109L40.8247 19.3073C40.8127 19.2521 40.778 19.2038 40.7291 19.1745C40.6719 19.1411 40.5814 19.1121 40.3644 19.1315ZM16.366 34.2786H16.3636C16.3605 34.2785 16.3574 34.2775 16.3541 34.2774C16.3582 34.2776 16.3622 34.2784 16.366 34.2786Z" fill="#020101"/>
<path id="Vector_2" d="M38.7657 23.0424C39.776 22.7842 40.0621 23.5638 39.0575 23.7528C38.6166 23.8358 38.173 23.9545 37.7428 24.0735C30.9554 25.9077 24.0279 27.1779 17.0313 27.8713C16.6081 27.9138 16.1505 27.9448 15.7323 27.9973C15.4322 27.7993 15.0966 27.5691 14.7821 27.4013C14.7158 27.3774 14.6991 27.3818 14.6616 27.3261C14.8925 27.1242 15.0689 26.9682 15.2816 26.7466C15.9684 26.7014 16.7088 26.603 17.3956 26.5241C18.4942 26.3994 19.5921 26.2685 20.6892 26.1313C24.6305 25.6147 28.5604 25.0163 32.4769 24.3366C33.8514 24.0845 35.2213 23.8087 36.5863 23.5091C37.0641 23.404 38.3446 23.0719 38.7657 23.0424Z" fill="#78A79F"/>
<path id="Vector_3" d="M15.2816 26.7465C15.9684 26.7014 16.7088 26.603 17.3956 26.5241C18.4942 26.3994 19.5921 26.2685 20.6892 26.1313C24.6305 25.6147 28.5604 25.0163 32.4769 24.3366C33.8514 24.0845 35.2213 23.8087 36.5863 23.5091C37.0641 23.404 38.3446 23.0719 38.7657 23.0424C38.6669 23.2293 35.3995 23.9916 34.943 24.0954C33.8607 24.3498 32.7738 24.5844 31.683 24.7995C27.2716 25.6657 22.8324 26.3847 18.3731 26.955C17.1777 27.1169 15.971 27.2385 14.7821 27.4013C14.7158 27.3774 14.6991 27.3818 14.6616 27.3261C14.8925 27.1242 15.0689 26.9682 15.2816 26.7465Z" fill="#8FB7B3"/>
<path id="Vector_4" d="M8.66265 28.0398C8.53372 27.9939 8.36038 27.9453 8.27539 27.8406C8.30298 27.7356 9.06228 27.3347 9.19338 27.2603L11.0917 26.1892L14.3671 24.3162C14.8961 24.0142 15.4158 23.6949 15.9559 23.4122C16.1137 23.3297 16.4256 23.1733 16.5502 23.3925C16.6269 23.5275 16.5899 23.6162 16.5458 23.7553C16.1872 24.812 15.5535 25.7542 14.7098 26.4844C14.3709 26.7837 13.9581 27.044 13.6551 27.3386C13.4599 27.5286 14.3689 27.9241 14.5119 27.9839C15.1501 28.251 17.016 29.9307 16.8762 30.6201C16.8646 30.6792 16.8261 30.7298 16.7721 30.7569C16.7009 30.7923 16.5787 30.7957 16.5053 30.7717C15.9389 30.5855 15.3638 30.3787 14.8007 30.1853L10.6272 28.7158C10.0734 28.5217 9.19521 28.1868 8.66265 28.0398Z" fill="#78A79F"/>
<path id="Vector_5" d="M8.66265 28.0398C8.53372 27.9939 8.36038 27.9453 8.27539 27.8406C8.30298 27.7356 9.06228 27.3347 9.19338 27.2603L11.0917 26.1892L14.3671 24.3162C14.8961 24.0142 15.4158 23.6949 15.9559 23.4122C16.1137 23.3297 16.4256 23.1733 16.5502 23.3925C16.6269 23.5275 16.5899 23.6162 16.5458 23.7553C16.0466 24.0082 15.4976 24.337 15.0088 24.6187C14.2184 25.0801 13.4219 25.5313 12.6197 25.9719C11.8774 26.3792 11.1187 26.7796 10.3714 27.178C9.82588 27.469 9.19343 27.741 8.66265 28.0398Z" fill="#8FB7B3"/>
<path id="Vector_6" d="M31.1924 26.3005C31.2356 26.291 31.2336 26.2969 31.281 26.3044C31.427 26.4268 31.5522 26.6013 31.699 26.7444C32.0278 27.0632 32.373 27.3647 32.7336 27.6475C32.9617 27.8249 33.3674 28.093 33.5449 28.3052C33.5903 28.384 33.6162 28.5493 33.5813 28.6299C33.2527 29.3884 31.8066 28.9512 31.2986 28.7861C30.1492 28.3496 29.386 27.7695 28.5962 26.8374C29.4629 26.6641 30.3245 26.4692 31.1924 26.3005Z" fill="#8FB7B3"/>
<path id="Vector_7" d="M34.3799 25.5684C34.5308 25.6772 34.8594 26.061 35.061 26.2253C35.4387 26.5457 35.8223 26.8533 36.2175 27.1521C36.3938 27.2854 36.8035 27.4995 36.8928 27.6836C36.9355 27.77 36.9409 27.8701 36.908 27.9607C36.8542 28.1094 36.6785 28.2651 36.5398 28.3269C36.0222 28.5576 35.3201 28.3564 34.8271 28.1782C33.823 27.7451 32.7339 26.9194 31.9883 26.1194C32.7605 25.9697 33.6123 25.7522 34.3799 25.5684Z" fill="#78A79F"/>
<path id="Vector_8" d="M37.4236 19.5384C37.7532 19.5413 38.1016 19.7271 37.9072 20.1025C37.7754 20.3566 37.5129 20.6368 37.3428 20.882C36.8904 21.5346 36.5962 22.1966 36.314 22.9342C35.6646 23.088 34.9888 23.2109 34.3323 23.3329L33.8628 23.4132C34.428 21.9665 35.7729 19.77 37.4236 19.5384Z" fill="#78A79F"/>
<path id="Vector_9" d="M34.3474 20.2468C35.0291 20.2899 34.54 20.8697 34.3396 21.1548C33.811 21.9063 33.4595 22.6819 33.1602 23.5499C32.5996 23.6786 31.8159 23.7971 31.2385 23.8911L30.8804 23.952C31.1453 23.2236 31.5193 22.5398 31.99 21.924C32.53 21.2191 33.4255 20.366 34.3474 20.2468Z" fill="#78A79F"/>
<path id="Vector_10" d="M37.075 24.8801C37.1108 24.8767 37.1277 24.8823 37.1643 24.8872C37.3374 25.0325 37.748 25.3352 37.8945 25.4978C38.2087 25.846 39.8701 26.5637 39.7117 27.0615C39.5049 27.7107 38.5251 27.4924 38.0313 27.3511C36.925 26.9885 35.9382 26.2041 35.1104 25.4097L37.075 24.8801Z" fill="#287271"/>
<path id="Vector_11" d="M40.3865 19.2431C41.4094 19.171 39.5874 21.847 39.3589 22.0543C38.9543 22.4213 37.8933 22.5755 37.3445 22.7151L37.0317 22.7789C37.5825 21.4136 38.8616 19.5635 40.3865 19.2431Z" fill="#287271"/>
<path id="Vector_12" d="M31.2334 20.9508C31.9268 20.8758 31.6758 21.3353 31.4065 21.6782C30.8342 22.4074 30.4688 23.2199 30.1489 24.0811C29.5527 24.1833 28.9548 24.2752 28.3555 24.3569C28.2322 24.3779 28.0652 24.391 27.9375 24.4045C28.5156 23.0723 29.7371 21.3132 31.2334 20.9508Z" fill="#8FB7B3"/>
<path id="Vector_13" d="M38.7227 24.4467C39.6836 24.4348 40.7368 25.124 41.446 25.7146C42.063 26.2285 41.9351 26.5954 41.1074 26.4853C40.032 26.29 38.6987 25.3596 37.8589 24.676C38.1428 24.5822 38.426 24.4895 38.7227 24.4467Z" fill="#287271"/>
</g>
<path id="Union" d="M39.9927 15.7521C40.4792 15.7023 41.1942 15.6942 41.9556 16.0002L42.2866 16.1525L42.3052 16.1633L42.438 16.2365C42.4471 16.2416 42.4554 16.2487 42.4644 16.2541L42.4653 16.2521C43.3238 16.7623 43.9328 17.6061 44.146 18.5822C44.4478 19.9597 43.9151 21.2367 43.5942 21.9006C43.4726 22.1522 43.3364 22.3931 43.2056 22.6183C43.6589 22.9493 44.1286 23.3653 44.5376 23.8996C44.5414 23.9044 44.5465 23.9083 44.5503 23.9133C45.3805 25.0055 45.6606 26.4667 45.0308 27.8058C44.4342 29.074 43.2324 29.782 42.0259 29.965C41.9448 29.9773 41.865 29.9856 41.7876 29.9933C41.2864 30.4335 40.697 30.7371 40.0513 30.8937C39.6233 30.9975 39.2044 31.027 38.8159 31.0187C38.1248 31.538 37.335 31.8001 36.6245 31.8937C36.1044 31.9622 35.6281 31.941 35.2065 31.882C34.1302 32.5626 32.9491 32.6264 32.1157 32.5529C31.1322 32.4661 30.2214 32.1637 29.5767 31.8898C28.4796 31.4237 27.5761 30.7797 26.8071 30.0549C24.6665 30.4174 22.518 30.7331 20.3638 31.0021C20.3353 31.2088 20.2912 31.4206 20.2251 31.6359C19.9374 32.5725 19.2906 33.3955 18.3599 33.8781L18.356 33.882L18.3374 33.8928C18.3358 33.8936 18.3334 33.8931 18.3315 33.8937L18.3384 33.8898C18.334 33.8922 18.3291 33.8943 18.3247 33.8967C18.3269 33.8955 18.3293 33.8945 18.3315 33.8937L18.3296 33.8957C18.3241 33.8988 18.3179 33.9028 18.311 33.9064C18.2889 33.9176 18.2676 33.9266 18.2505 33.9338C18.244 33.9364 18.2377 33.9384 18.2319 33.9406C17.6547 34.2143 17.0167 34.3306 16.3794 34.2775C16.3623 34.2771 16.3448 34.276 16.3276 34.2746C16.322 34.2743 16.316 34.2752 16.3101 34.2746C16.3068 34.2743 16.3034 34.274 16.3003 34.2736C16.2993 34.2734 16.2983 34.2729 16.2974 34.2726L16.2915 34.2717C16.2863 34.2711 16.281 34.2685 16.2759 34.2678C15.8007 34.2145 15.2797 34.0563 15.0034 33.9689C14.6604 33.8604 14.2975 33.733 14.1304 33.676C14.1281 33.6752 14.1258 33.6738 14.1235 33.673L12.5757 33.133C12.0653 32.9528 11.5555 32.7704 11.0464 32.5861C10.1424 32.2756 9.24074 31.9588 8.34131 31.6369C8.04181 31.5299 7.65348 31.3981 7.27686 31.256L7.26807 31.2512L6.90283 31.1086L6.89209 31.1047C6.20494 30.8267 5.3021 30.2372 4.88721 29.0519C4.88462 29.0446 4.88178 29.0369 4.87939 29.0295L4.8374 28.8976C4.83513 28.8906 4.83268 28.8833 4.83057 28.8762C4.56979 27.9888 4.6573 27.0318 5.08057 26.2043L5.09619 26.176L5.1001 26.1701C5.51067 25.3952 6.0788 25.0164 6.38135 24.8254L6.82275 24.5568C7.2644 24.2949 7.70444 24.054 8.06299 23.8527L10.5073 22.468L12.9771 21.05C13.3467 20.8381 14.2937 20.2408 15.1519 19.9396L15.1997 19.923L15.2642 19.9025L15.312 19.8908C16.1282 19.6639 17.1375 19.693 18.0298 20.1379C18.038 20.142 18.047 20.1472 18.0552 20.1516L18.186 20.2219C18.1985 20.2285 18.211 20.2361 18.2231 20.2433L18.3384 20.3117L18.3569 20.3234C19.0872 20.7851 19.6271 21.4576 19.895 22.2756C19.9393 22.4108 19.9744 22.5445 20.0015 22.676C21.7469 22.4552 23.4899 22.2108 25.23 21.9465C25.7161 21.0657 26.4444 20.0605 27.3423 19.2307C28.2899 18.355 29.8758 17.2708 31.8403 17.4474C32.1781 17.2516 32.5608 17.0686 32.9829 16.9357C33.5756 16.7492 34.2292 16.6701 34.9087 16.757C35.3165 16.5249 35.7887 16.3059 36.312 16.1691C37.0021 15.9889 37.7661 15.9585 38.5337 16.1623C38.9079 15.9958 39.3384 15.8536 39.8413 15.7717L39.8853 15.7639L39.9478 15.757L39.9927 15.7521ZM16.3667 34.2785H16.3638C16.3607 34.2784 16.3572 34.2777 16.354 34.2775C16.3582 34.2777 16.3629 34.2784 16.3667 34.2785ZM16.2446 34.2658C16.2503 34.2668 16.2582 34.2664 16.2671 34.2678C16.2568 34.2663 16.2477 34.2669 16.2417 34.2658C16.2401 34.2655 16.2383 34.2641 16.2368 34.2639C16.239 34.2642 16.242 34.2654 16.2446 34.2658ZM16.2368 34.2639C16.2337 34.2633 16.231 34.2632 16.229 34.2629C16.2273 34.2625 16.2251 34.2621 16.2241 34.2619H16.228C16.2301 34.2624 16.2331 34.2631 16.2368 34.2639ZM16.7856 33.3723C16.6586 33.3772 16.5304 33.3737 16.4028 33.3605H16.3999L16.4038 33.3615C16.5947 33.3811 16.7862 33.3796 16.9751 33.3586L16.7856 33.3723ZM15.8218 33.2492C15.9063 33.2707 15.9926 33.2913 16.0786 33.3088C15.9926 33.2913 15.9063 33.2707 15.8218 33.2492ZM15.5786 33.1828C15.642 33.2011 15.7082 33.2198 15.7759 33.2375C15.7081 33.2198 15.6421 33.2011 15.5786 33.1828ZM18.0894 32.9777C18.1086 32.9662 18.1281 32.9555 18.147 32.9435C18.1281 32.9554 18.1086 32.9662 18.0894 32.9777ZM18.3091 32.8322C18.3294 32.8173 18.3498 32.8027 18.3696 32.7873C18.3498 32.8027 18.3294 32.8173 18.3091 32.8322ZM11.3452 31.718C12.368 32.0882 13.3945 32.4515 14.4224 32.8058L14.4272 32.8068L14.4224 32.8049C13.3945 32.4506 12.368 32.0882 11.3452 31.718ZM18.5259 32.6574C18.5341 32.65 18.5422 32.6424 18.5503 32.6349C18.5422 32.6424 18.5341 32.65 18.5259 32.6574ZM18.6558 32.5305C18.6969 32.4883 18.7366 32.445 18.7749 32.4006C18.7366 32.445 18.697 32.4883 18.6558 32.5305ZM18.8345 32.3283C18.8685 32.286 18.9006 32.2425 18.9321 32.1984C18.9006 32.2425 18.8685 32.286 18.8345 32.3283ZM19.0005 32.1017C19.0396 32.0419 19.0763 31.9807 19.1108 31.9182C19.0763 31.9807 19.0397 32.0419 19.0005 32.1017ZM31.5649 31.549C31.6682 31.5689 31.7728 31.5867 31.8784 31.6017C31.6677 31.5717 31.461 31.5312 31.2612 31.4836L31.5649 31.549ZM33.9243 31.4738C33.8634 31.4931 33.8026 31.5107 33.7417 31.5266H33.7427C33.8035 31.5107 33.8644 31.4931 33.9253 31.4738H33.9243ZM19.4253 31.0568C19.405 31.1584 19.3793 31.2617 19.3472 31.3664L19.3911 31.2111C19.4173 31.1077 19.4369 31.0057 19.4517 30.9055L19.4253 31.0568ZM34.9917 30.9142C34.9354 30.9584 34.8784 31.0007 34.8208 31.0402C34.8783 31.0008 34.9355 30.9594 34.9917 30.9152C35.0925 30.9361 35.1974 30.9532 35.3052 30.9689C35.1973 30.9532 35.0927 30.9352 34.9917 30.9142ZM35.9331 31.0178C35.9422 31.0178 35.9513 31.0178 35.9604 31.0178C35.9513 31.0178 35.9422 31.0178 35.9331 31.0178ZM35.4253 30.9836C35.5038 30.993 35.5837 31.0015 35.6655 31.007C35.5837 31.0015 35.5037 30.9931 35.4253 30.9836ZM8.6499 30.7726C8.70873 30.7937 8.76779 30.8141 8.82666 30.8351C8.76809 30.8142 8.70943 30.7936 8.65088 30.7726C8.33733 30.6606 7.96798 30.534 7.60107 30.3957C7.96772 30.534 8.33649 30.6607 8.6499 30.7726ZM19.4702 30.1896C19.4788 30.2802 19.4828 30.3727 19.4829 30.467H19.4839C19.4838 30.3724 19.4788 30.2794 19.4702 30.1887V30.1896ZM38.2817 30.2736H38.2827H38.2817ZM6.81982 30.0471H6.8208H6.81982ZM38.8843 30.1008C38.956 30.1016 39.0283 30.0997 39.1011 30.0969C39.0283 30.0997 38.956 30.1015 38.8843 30.1008ZM38.5181 30.0842C38.6067 30.0917 38.6966 30.0959 38.7876 30.0988C38.6966 30.0959 38.6067 30.0917 38.5181 30.0842ZM39.8345 30.0002C39.8322 30.0007 39.8299 30.0006 39.8276 30.0012L39.8354 30.0002C39.8516 29.9963 39.8673 29.9907 39.8833 29.9865C39.867 29.9907 39.8509 29.9962 39.8345 30.0002ZM40.481 29.7707C40.3948 29.8122 40.3055 29.8473 40.2153 29.881C40.3055 29.8473 40.3948 29.8122 40.481 29.7707ZM34.0679 29.6555C34.0868 29.6396 34.1043 29.6223 34.1226 29.6057C34.1043 29.6223 34.0868 29.6396 34.0679 29.6555ZM41.8882 29.0568V29.0578V29.0568ZM42.7622 28.8019C42.6513 28.8519 42.5373 28.8955 42.4214 28.9328C42.5373 28.8954 42.6513 28.8519 42.7622 28.8019ZM5.89795 26.6232H5.89893H5.89795ZM7.29248 25.3449L6.87256 25.6017C6.77516 25.6632 6.65729 25.7409 6.53174 25.843C6.44775 25.9112 6.36032 25.9905 6.27393 26.0842C6.48944 25.8505 6.71002 25.7044 6.87256 25.6017C7.14945 25.4267 7.4366 25.2589 7.71631 25.0998L7.29248 25.3449ZM43.4712 24.0627C43.5913 24.1895 43.7086 24.324 43.8188 24.4689L43.9165 24.6047C43.8854 24.5592 43.8534 24.5141 43.8198 24.4699L43.646 24.2551C43.5892 24.1885 43.5302 24.125 43.4712 24.0627ZM43.4429 24.0334C43.3935 23.982 43.344 23.9315 43.2935 23.883C43.344 23.9315 43.3935 23.982 43.4429 24.0334ZM43.2222 23.8166C43.1904 23.7872 43.1586 23.7581 43.1265 23.7297C43.1586 23.7581 43.1904 23.7871 43.2222 23.8166ZM19.1538 23.7072C19.1589 23.6334 19.1604 23.5578 19.1606 23.4807C19.1604 23.5578 19.1589 23.6334 19.1538 23.7072ZM43.0435 23.6574C43.0153 23.6335 42.9868 23.6103 42.9585 23.5871C42.9868 23.6103 43.0153 23.6335 43.0435 23.6574ZM19.1587 23.3713C19.1571 23.3197 19.1542 23.2677 19.1499 23.215C19.1542 23.2677 19.1571 23.3197 19.1587 23.3713ZM13.4351 21.8459V21.8469L13.436 21.8459H13.4351ZM40.4253 22.3849C40.5191 22.5163 40.5934 22.6409 40.647 22.7629V22.7619C40.6201 22.7009 40.5883 22.6392 40.5513 22.5764C40.5143 22.5136 40.4722 22.4496 40.4253 22.384V22.3849ZM26.3774 21.8146C26.2463 22.0176 26.1271 22.2178 26.021 22.4113L25.8442 22.7512L25.8423 22.757L25.8452 22.7521L26.022 22.4113C26.128 22.218 26.2466 22.0176 26.3774 21.8146ZM18.8901 22.2365C18.877 22.209 18.8642 22.1814 18.8501 22.1545C18.8642 22.1814 18.877 22.209 18.8901 22.2365ZM18.8013 22.0676C18.7809 22.0319 18.7598 21.9968 18.7378 21.9621C18.7598 21.9968 18.7809 22.0319 18.8013 22.0676ZM18.6724 21.8635C18.6527 21.8354 18.6325 21.8078 18.6118 21.7805C18.6325 21.8078 18.6527 21.8354 18.6724 21.8635ZM18.5552 21.7072C18.5227 21.6674 18.4884 21.6291 18.4536 21.591C18.4884 21.6291 18.5227 21.6674 18.5552 21.7072ZM26.5894 21.5012C26.5503 21.5571 26.5125 21.6133 26.4751 21.6691C26.5124 21.6133 26.5503 21.5572 26.5894 21.5012ZM18.4097 21.5432C18.367 21.4986 18.3228 21.4552 18.2769 21.4133C18.3229 21.4552 18.367 21.4986 18.4097 21.5432ZM26.8179 21.1867C26.7664 21.2549 26.7165 21.3234 26.6675 21.3918C26.7164 21.3234 26.7665 21.255 26.8179 21.1867ZM18.2485 21.3869C18.1907 21.3355 18.1307 21.2857 18.0679 21.2385C18.1307 21.2857 18.1906 21.3355 18.2485 21.3869ZM27.0278 20.9182C26.9872 20.9685 26.947 21.0189 26.9077 21.0695C26.947 21.0188 26.9873 20.9685 27.0278 20.9182ZM16.3052 20.6701C16.7408 20.6642 17.1969 20.7512 17.6118 20.9562C17.4476 20.8751 17.2773 20.8115 17.104 20.7658C17.0157 20.7425 16.9266 20.7239 16.8374 20.7092C16.6594 20.6798 16.4806 20.6677 16.3052 20.6701ZM15.5513 20.7766L15.5503 20.7775L15.5513 20.7766ZM27.2817 20.6144C27.2352 20.6678 27.1882 20.7206 27.1431 20.7746C27.1882 20.7206 27.2352 20.6678 27.2817 20.6144ZM43.2485 18.7795C43.2305 18.6966 43.2077 18.6154 43.1821 18.5353C43.2077 18.6154 43.2305 18.6966 43.2485 18.7795ZM43.1392 18.4152C43.1227 18.3709 43.1062 18.3267 43.0874 18.2834C43.1062 18.3267 43.1227 18.3709 43.1392 18.4152ZM31.2524 18.3478H31.2534H31.2524ZM32.3208 18.2307V18.2297V18.2307ZM43.0444 18.1916C43.0213 18.1433 42.9971 18.0957 42.9712 18.049C42.9971 18.0957 43.0213 18.1433 43.0444 18.1916ZM42.9185 17.9592C42.8923 17.916 42.865 17.8738 42.8364 17.8322C42.865 17.8738 42.8923 17.916 42.9185 17.9592ZM42.7729 17.7433C42.7413 17.701 42.7084 17.6598 42.6743 17.6193C42.7085 17.6597 42.7413 17.701 42.7729 17.7433ZM34.6216 17.6476C34.7762 17.6595 34.9323 17.6825 35.0894 17.717L34.8511 17.674C34.7743 17.6628 34.6977 17.6535 34.6216 17.6476ZM33.8813 17.6721C33.8368 17.6781 33.7926 17.6849 33.7485 17.6926C33.7926 17.6849 33.8369 17.6781 33.8813 17.6721ZM34.0981 17.6486C34.0527 17.652 34.0074 17.6562 33.9624 17.6613C34.0074 17.6562 34.0527 17.652 34.0981 17.6486ZM34.5854 17.6457C34.5204 17.6414 34.4556 17.6395 34.3911 17.6389C34.4556 17.6395 34.5204 17.6414 34.5854 17.6457ZM34.3433 17.6389C34.2916 17.6391 34.2402 17.6403 34.189 17.6428C34.2402 17.6403 34.2916 17.6391 34.3433 17.6389ZM42.6118 17.5461C42.5684 17.4982 42.523 17.4521 42.4761 17.4074C42.523 17.4521 42.5683 17.4982 42.6118 17.5461ZM42.4302 17.3635C42.3655 17.3047 42.2986 17.248 42.228 17.1955C42.2986 17.248 42.3655 17.3047 42.4302 17.3635ZM36.7847 17.0031C36.7038 17.0187 36.6237 17.0371 36.5444 17.0578C36.3422 17.1106 36.1462 17.1792 35.9585 17.258L35.9575 17.259C36.1456 17.18 36.3418 17.1117 36.5444 17.0588C36.6237 17.0381 36.7037 17.0187 36.7847 17.0031ZM38.8931 17.008C38.7941 17.0524 38.6988 17.0976 38.6079 17.1457L38.6089 17.1467C38.6997 17.0987 38.7943 17.0523 38.8931 17.008ZM38.2778 17.0441C38.2197 17.0291 38.1621 17.0138 38.104 17.0021C38.1621 17.0138 38.2197 17.0291 38.2778 17.0441ZM41.6138 16.8527C41.696 16.8858 41.7789 16.9238 41.8618 16.967L41.9937 17.0402H41.9946L41.8618 16.967C41.7789 16.9237 41.6961 16.8858 41.6138 16.8527ZM37.021 16.966C36.9555 16.9742 36.8904 16.9846 36.8257 16.9963C36.8904 16.9846 36.9555 16.9742 37.021 16.966ZM38.0083 16.9865C37.9554 16.9776 37.9029 16.9684 37.8501 16.9621C37.9029 16.9684 37.9554 16.9776 38.0083 16.9865ZM39.1909 16.8869C39.12 16.9128 39.0518 16.9416 38.9849 16.9699C39.0518 16.9416 39.1199 16.9128 39.1909 16.8869ZM37.2739 16.9445C37.2124 16.9478 37.1513 16.9527 37.0903 16.9592C37.1513 16.9527 37.2124 16.9478 37.2739 16.9445ZM37.7466 16.9523C37.7016 16.9484 37.6567 16.9446 37.6118 16.9426C37.6567 16.9446 37.7016 16.9484 37.7466 16.9523ZM37.3413 16.9416C37.3926 16.9398 37.444 16.9391 37.4956 16.9396C37.444 16.939 37.3926 16.9399 37.3413 16.9416ZM40.0337 16.6701L39.9888 16.6779L39.7856 16.716C39.8517 16.7021 39.9194 16.6892 39.9888 16.6779L40.0337 16.6711V16.6701ZM40.6743 16.6496C40.8198 16.6574 40.9728 16.6748 41.1304 16.7072C40.9728 16.6748 40.8198 16.6574 40.6743 16.6496Z" fill="white" fill-opacity="0.3"/>
</g>
</g>
</g>
</svg>
