<svg width="50" height="50" viewBox="0 0 50 50" fill="none" xmlns="http://www.w3.org/2000/svg">
<rect width="50" height="50" fill="#BEBEBE"/>
<g id="Decorate Mode">
<path d="M-180.281 -1123.03V-1122.03H2839.72V-1123.03V-1124.03H-180.281V-1123.03ZM2841.72 -1121.03H2840.72V2416.97H2841.72H2842.72V-1121.03H2841.72ZM2839.72 2418.97V2417.97H-180.281V2418.97V2419.97H2839.72V2418.97ZM-182.281 2416.97H-181.281V-1121.03H-182.281H-183.281V2416.97H-182.281ZM-180.281 2418.97V2417.97C-180.834 2417.97 -181.281 2417.52 -181.281 2416.97H-182.281H-183.281C-183.281 2418.62 -181.938 2419.97 -180.281 2419.97V2418.97ZM2841.72 2416.97H2840.72C2840.72 2417.52 2840.27 2417.97 2839.72 2417.97V2418.97V2419.97C2841.38 2419.97 2842.72 2418.62 2842.72 2416.97H2841.72ZM2839.72 -1123.03V-1122.03C2840.27 -1122.03 2840.72 -1121.59 2840.72 -1121.03H2841.72H2842.72C2842.72 -1122.69 2841.38 -1124.03 2839.72 -1124.03V-1123.03ZM-180.281 -1123.03V-1124.03C-181.938 -1124.03 -183.281 -1122.69 -183.281 -1121.03H-182.281H-181.281C-181.281 -1121.59 -180.834 -1122.03 -180.281 -1122.03V-1123.03Z" fill="black" fill-opacity="0.1"/>
<g id="Stickers">
<rect x="-128.272" y="-250.534" width="374" height="551" rx="4.5" stroke="#9747FF" stroke-dasharray="10 5"/>
<g id="Property 1=smiley">
<g id="Frame 170">
<path id="Vector" d="M24.7701 10.1322C32.9866 10.005 39.7484 16.5667 39.8681 24.7833C39.9878 32.9998 33.4203 39.7558 25.2036 39.8682C16.9972 39.9807 10.2516 33.4229 10.132 25.2168C10.0123 17.0106 16.5639 10.2592 24.7701 10.1322Z" fill="#020101"/>
<path id="Vector (Stroke)" d="M24.7458 8.5697C33.8257 8.4292 41.298 15.6805 41.4304 24.7605C41.5627 33.8404 34.3051 41.3061 25.2249 41.4304C16.1562 41.5547 8.70188 34.308 8.56965 25.2396C8.43744 16.1711 15.6773 8.71006 24.7458 8.5697ZM24.7702 10.1322L24.3869 10.1432C16.3609 10.4706 10.0144 17.1389 10.1322 25.217C10.2519 33.423 16.9972 39.981 25.2036 39.8685L25.5875 39.8581C33.6239 39.5443 39.9857 32.8712 39.8679 24.7831C39.748 16.5666 32.9866 10.0051 24.7702 10.1322Z" fill="#E8E7E7"/>
<path id="Vector (Stroke) (Stroke)" d="M24.7313 7.65172C34.3185 7.50337 42.2089 15.1595 42.3488 24.7467C42.4886 34.3341 34.8247 42.2175 25.2371 42.3488C15.6616 42.4798 7.79139 34.8276 7.65178 25.2526C7.51242 15.6775 15.1562 7.80004 24.7313 7.65172ZM24.7456 8.57008L24.3223 8.58204C15.453 8.94387 8.43892 16.3126 8.56895 25.2394C8.70118 34.3078 16.1564 41.5547 25.2251 41.4304L25.6496 41.4197C34.3895 41.0781 41.3365 33.9304 41.4305 25.1844V24.7611C41.2981 15.6811 33.8255 8.42958 24.7456 8.57008ZM24.7695 10.1318C32.9857 10.0047 39.7475 16.5664 39.8676 24.7826C39.9855 32.8707 33.6238 39.5441 25.5874 39.858L25.2036 39.8687H24.8197C16.7879 39.7754 10.2497 33.2944 10.1318 25.2167C10.0143 17.1387 16.361 10.4711 24.3869 10.1437L24.7695 10.1318ZM24.4227 11.0597L24.4239 11.0609C16.8943 11.3682 10.9398 17.6246 11.0502 25.2035C11.1625 32.8994 17.4859 39.0492 25.1809 38.9492L25.5623 38.9396C33.0966 38.6396 39.0595 32.3816 38.9492 24.797C38.8368 17.0906 32.4975 10.9353 24.7922 11.0502L24.4227 11.0597Z" fill="#020101"/>
<path id="Vector_2" d="M13.2141 32.2097C9.83535 26.6795 10.7435 19.5456 15.4 15.0383C20.0566 10.5309 27.2163 9.8555 32.6335 13.4125C33.0374 13.6776 33.427 13.9637 33.8008 14.2696C38.064 17.7567 39.8555 23.4385 38.3638 28.7403C36.8721 34.042 32.3806 37.9558 26.9248 38.7085C21.4689 39.4612 16.0855 36.9095 13.2141 32.2097Z" fill="#E9C46A"/>
<path id="Vector_3" d="M33.801 14.2696C38.0642 17.7567 39.8557 23.4385 38.364 28.7403C36.8723 34.042 32.3808 37.9558 26.925 38.7085C21.4691 39.4612 16.0857 36.9095 13.2143 32.2098C13.2343 32.0669 12.7864 31.065 12.7052 30.772C12.4891 29.9937 12.2662 29.1783 12.1836 28.3714L12.193 28.1963L12.2159 28.2102C12.2388 28.6197 12.7322 29.8914 12.9177 30.2881C14.1646 33.0237 16.4652 35.1385 19.2959 36.1509C22.3562 37.2312 25.7199 37.055 28.6503 35.6607C31.5363 34.2867 33.8747 31.9793 35.2868 29.1119C36.1968 27.2482 36.5492 26.0042 36.747 23.9431C37.008 21.2312 36.3588 18.3352 34.9235 16.0109C34.7412 15.7156 33.8278 14.497 33.801 14.2696Z" fill="#F4A261"/>
<path id="Vector_4" d="M13.2141 32.2097C9.83535 26.6795 10.7435 19.5456 15.4 15.0383C20.0566 10.5309 27.2163 9.85549 32.6335 13.4125C32.5642 13.4382 32.5208 13.4553 32.447 13.424C30.5947 12.6374 28.8806 12.3297 26.856 12.3352C25.6519 12.33 24.4517 12.4666 23.2796 12.7422C18.8969 13.7862 15.2309 16.7746 13.325 20.8571C12.4217 22.8176 11.9165 25.1507 12.0629 27.3098C12.0777 27.5283 12.1297 28.1775 12.1834 28.3714C12.266 29.1782 12.4889 29.9937 12.705 30.772C12.7862 31.065 13.2341 32.0669 13.2141 32.2097Z" fill="#E8E7E7"/>
<path id="Vector_5" d="M33.5533 26.4888C33.0971 26.3821 32.4031 26.6012 32.2992 26.0297C32.2259 25.6258 32.4723 25.3714 32.8666 25.3485C33.7596 25.2965 34.9006 25.6331 35.5992 26.192C35.7787 26.3642 35.86 26.484 35.8792 26.7416C35.9033 27.0644 35.6157 27.3797 35.2809 27.2989C35.0622 27.1185 34.8177 26.9719 34.5553 26.8641C34.3817 27.5581 34.1351 28.2318 33.8191 28.8734C32.5897 31.3706 30.5811 33.1578 27.9431 34.0366C23.1221 35.6422 18.0693 33.0914 16.026 28.5388C15.7707 27.9703 15.6003 27.4422 15.4027 26.8549C15.1815 26.9671 14.883 27.2217 14.6984 27.281C14.2252 27.4329 13.9653 26.7881 14.2183 26.4347C14.6845 25.849 15.2085 25.7164 15.9581 25.481C16.4631 25.3224 18.1227 25.0762 17.6186 26.2392C17.4975 26.5185 16.7961 26.4304 16.4514 26.476C16.7314 27.4977 17.1182 28.4498 17.6932 29.3444C18.9517 31.323 20.9458 32.7197 23.2354 33.2265C25.4401 33.7057 27.7448 33.2814 29.6341 32.0484C31.2761 30.972 32.5304 29.3984 33.2132 27.5577C33.3263 27.2581 33.4878 26.7965 33.5533 26.4888Z" fill="#020101"/>
<path id="Vector_6" d="M28.7787 17.0968C29.0485 17.0771 29.3058 17.078 29.5575 17.1864C31.7377 18.1247 31.5649 23.4556 29.2004 23.8949C28.82 23.9237 28.5636 23.889 28.2255 23.6805C26.3981 22.5544 26.4057 17.542 28.7787 17.0968Z" fill="#020101"/>
<path id="Vector_7" d="M20.8266 17.0958C23.7715 16.8438 23.8953 23.3159 21.3078 23.8972C18.484 24.167 18.1157 17.7628 20.8266 17.0958Z" fill="#020101"/>
</g>
<path id="Union" d="M24.7314 7.65118C34.3186 7.50298 42.2087 15.1597 42.3486 24.7469C42.4882 34.334 34.8247 42.217 25.2373 42.3484C15.6619 42.4795 7.7911 34.8277 7.65137 25.2527C7.51201 15.6777 15.1564 7.79951 24.7314 7.65118ZM27.7139 41.2078C26.903 41.3426 26.0717 41.4189 25.2246 41.4305L25.6494 41.4197C26.35 41.3924 27.039 41.32 27.7139 41.2078ZM27.791 41.1942C27.8978 41.1759 28.0043 41.1569 28.1104 41.1365C28.0043 41.1569 27.8978 41.1759 27.791 41.1942ZM28.1992 41.119C28.307 41.0977 28.4145 41.0759 28.5215 41.0526C28.4145 41.0759 28.307 41.0977 28.1992 41.119ZM28.6035 41.034C28.6923 41.0141 28.7809 40.9938 28.8691 40.9725C28.7809 40.9938 28.6923 41.0141 28.6035 41.034ZM29.0547 40.9266C29.1383 40.9054 29.2216 40.8836 29.3047 40.8611C29.2216 40.8836 29.1383 40.9054 29.0547 40.9266ZM29.375 40.8416C29.4773 40.8134 29.5792 40.7848 29.6807 40.7547C29.5792 40.7848 29.4773 40.8134 29.375 40.8416ZM29.8076 40.7166C29.8946 40.6901 29.9811 40.6625 30.0674 40.6346C29.9811 40.6625 29.8946 40.6901 29.8076 40.7166ZM30.1699 40.6004C30.2617 40.57 30.3533 40.5396 30.4443 40.5076C30.3533 40.5396 30.2617 40.57 30.1699 40.6004ZM30.5537 40.4686C30.6396 40.4377 30.7254 40.407 30.8105 40.3748C30.7254 40.407 30.6396 40.4377 30.5537 40.4686ZM30.9434 40.3231C31.0294 40.2897 31.1149 40.2553 31.2002 40.2205C31.1149 40.2553 31.0294 40.2897 30.9434 40.3231ZM31.291 40.1834C31.3668 40.152 31.4424 40.1202 31.5176 40.0877C31.4424 40.1202 31.3668 40.152 31.291 40.1834ZM31.709 40.0037C31.7686 39.977 31.8275 39.9491 31.8867 39.9217C31.8275 39.9491 31.7686 39.977 31.709 40.0037ZM32.0352 39.8524C32.1037 39.8198 32.1722 39.7872 32.2402 39.7537C32.1722 39.7872 32.1037 39.8198 32.0352 39.8524ZM27.2754 39.6942C27.117 39.7185 26.9579 39.7413 26.7979 39.7606C26.9579 39.7413 27.117 39.7185 27.2754 39.6942ZM22.0029 39.5662C22.1309 39.5924 22.2595 39.6166 22.3887 39.6395C22.2595 39.6166 22.1309 39.5924 22.0029 39.5662ZM32.4268 39.6609C32.4746 39.6367 32.5218 39.6114 32.5693 39.5867C32.5218 39.6114 32.4746 39.6367 32.4268 39.6609ZM32.7432 39.4949C32.8258 39.4507 32.9085 39.4067 32.9902 39.3611C32.9085 39.4067 32.8258 39.4507 32.7432 39.4949ZM33.0771 39.3113C33.1425 39.2743 33.2076 39.2369 33.2725 39.199C33.2076 39.2369 33.1426 39.2744 33.0771 39.3113ZM33.4385 39.1024C33.4939 39.0691 33.5485 39.0347 33.6035 39.0008C33.5485 39.0347 33.4939 39.0691 33.4385 39.1024ZM33.7754 38.8934C33.8348 38.8558 33.8943 38.8184 33.9531 38.7801C33.8943 38.8184 33.8348 38.8558 33.7754 38.8934ZM19.4033 38.7811V38.7801V38.7811ZM34.085 38.6932C34.16 38.6433 34.2345 38.5929 34.3086 38.5418C34.2345 38.5929 34.16 38.6433 34.085 38.6932ZM34.4121 38.4705C34.4754 38.4262 34.538 38.3809 34.6006 38.3358C34.538 38.3809 34.4754 38.4262 34.4121 38.4705ZM18.416 38.3367V38.3358V38.3367ZM31.8818 38.1834C31.8493 38.2004 31.8168 38.2174 31.7842 38.2342C31.8242 38.2136 31.8645 38.1936 31.9043 38.1727C31.897 38.1765 31.8892 38.1796 31.8818 38.1834ZM34.7451 38.2313C34.7874 38.2001 34.8291 38.1681 34.8711 38.1365C34.8291 38.1681 34.7874 38.2001 34.7451 38.2313ZM32.1758 38.0262C32.1612 38.0342 32.1464 38.0416 32.1318 38.0496C32.1201 38.0561 32.1085 38.0627 32.0967 38.0692C32.123 38.0548 32.1495 38.0407 32.1758 38.0262ZM35.3555 37.7576C35.4039 37.7182 35.452 37.6784 35.5 37.6385C35.452 37.6784 35.4039 37.7182 35.3555 37.7576ZM32.8623 37.6219C32.8188 37.6491 32.7753 37.6762 32.7314 37.7029C32.7753 37.6762 32.8188 37.6491 32.8623 37.6219ZM33.0859 37.4803C33.0762 37.4866 33.0664 37.4926 33.0566 37.4988C33.04 37.5096 33.0235 37.5204 33.0068 37.5311C33.0332 37.5142 33.0597 37.4973 33.0859 37.4803ZM36.4531 36.782C36.2857 36.9449 36.1147 37.104 35.9404 37.2596C36.1147 37.1039 36.2857 36.9449 36.4531 36.782ZM33.7119 37.0496C33.6862 37.0682 33.6606 37.0868 33.6348 37.1053C33.6673 37.0821 33.7001 37.0594 33.7324 37.0359C33.7258 37.0408 33.7186 37.0448 33.7119 37.0496ZM34.2744 36.6219C34.2252 36.6612 34.1757 36.7003 34.126 36.7391C34.1825 36.6951 34.239 36.6511 34.2949 36.6063C34.2882 36.6116 34.2811 36.6165 34.2744 36.6219ZM15.1582 36.1473V36.1463V36.1473ZM35.5547 35.4705C35.5751 35.4499 35.5969 35.4307 35.6172 35.41C35.5969 35.4307 35.5751 35.4499 35.5547 35.4705ZM35.751 35.2713C35.7779 35.2432 35.8044 35.2147 35.8311 35.1863C35.8044 35.2147 35.7779 35.2432 35.751 35.2713ZM13.6611 34.6209V34.6199V34.6209ZM38.6543 34.1424C38.6811 34.1024 38.7079 34.0625 38.7344 34.0223C38.7079 34.0625 38.6811 34.1024 38.6543 34.1424ZM12.9971 33.7801V33.7791V33.7801ZM38.8398 33.8592C38.8774 33.8006 38.9143 33.7415 38.9512 33.6824C38.9143 33.7415 38.8774 33.8006 38.8398 33.8592ZM10.8623 33.3817C10.9042 33.4521 10.9473 33.5218 10.9902 33.5916C10.8782 33.4093 10.7691 33.2249 10.6641 33.0379L10.8623 33.3817ZM39.0625 33.5018C39.0875 33.4604 39.113 33.4193 39.1377 33.3777C39.113 33.4193 39.0875 33.4604 39.0625 33.5018ZM39.2568 33.1717C39.2825 33.1271 39.3088 33.0828 39.334 33.0379C39.3088 33.0828 39.2825 33.1271 39.2568 33.1717ZM37.5674 32.9461C37.5397 32.9898 37.5125 33.0336 37.4844 33.077C37.5243 33.0153 37.5644 32.9537 37.6035 32.8914C37.5919 32.9099 37.5791 32.9277 37.5674 32.9461ZM39.4355 32.8524C39.4675 32.7938 39.5 32.7356 39.5312 32.6766C39.5 32.7356 39.4675 32.7938 39.4355 32.8524ZM8.86719 28.1424C8.97128 28.68 9.10182 29.2081 9.25684 29.7254C9.33432 29.984 9.41812 30.2399 9.50781 30.493C9.68735 30.9994 9.89086 31.4944 10.1172 31.9764C10.1737 32.0967 10.2317 32.2161 10.291 32.3348L10.292 32.3358C9.57942 30.9096 9.06774 29.3646 8.79492 27.7371L8.86719 28.1424ZM39.8154 32.1131C39.8326 32.0774 39.8493 32.0415 39.8662 32.0057C39.8493 32.0415 39.8326 32.0774 39.8154 32.1131ZM11.6904 31.6385C11.7174 31.6926 11.7458 31.7459 11.7734 31.7996C11.7654 31.7841 11.7579 31.7683 11.75 31.7527C11.7303 31.7142 11.7098 31.6762 11.6904 31.6375V31.6385ZM39.9688 31.784C39.9869 31.7441 40.0046 31.704 40.0225 31.6639C40.0046 31.704 39.9869 31.7441 39.9688 31.784ZM40.1221 31.4354C40.1442 31.3834 40.1659 31.3313 40.1875 31.2791C40.1659 31.3313 40.1442 31.3834 40.1221 31.4354ZM40.2764 31.0604C40.2902 31.0256 40.3038 30.9908 40.3174 30.9559C40.3038 30.9908 40.2902 31.0256 40.2764 31.0604ZM38.665 30.8709C38.6935 30.8049 38.7206 30.7382 38.748 30.6717C38.7206 30.7382 38.6935 30.8049 38.665 30.8709ZM40.5576 30.2996C40.5788 30.2373 40.5996 30.1748 40.6201 30.1121C40.5996 30.1748 40.5788 30.2373 40.5576 30.2996ZM40.6641 29.9725C40.6901 29.8903 40.7164 29.8081 40.7412 29.7254C40.7164 29.8081 40.6901 29.8903 40.6641 29.9725ZM40.7852 29.5779C40.7991 29.5296 40.8116 29.4809 40.8252 29.4324C40.8116 29.4809 40.7991 29.5296 40.7852 29.5779ZM39.6748 27.4109C39.6765 27.4005 39.679 27.3902 39.6807 27.3797L39.6885 27.3231C39.6839 27.3524 39.6796 27.3817 39.6748 27.4109ZM8.56934 25.2498C8.58005 25.9548 8.63491 26.6486 8.73145 27.3289L8.67871 26.9168C8.61505 26.3691 8.57789 25.813 8.56934 25.2498ZM39.7314 27.032C39.7394 26.9736 39.7466 26.9149 39.7539 26.8563C39.7466 26.9149 39.7394 26.9736 39.7314 27.032ZM39.8623 25.4002C39.8578 25.5712 39.852 25.7414 39.8418 25.9109C39.852 25.7414 39.8578 25.5712 39.8623 25.4002ZM9.35938 19.9471C8.86983 21.4627 8.59454 23.0733 8.56934 24.743C8.59454 23.0734 8.86991 21.4626 9.35938 19.9471ZM40.7402 20.2693C40.7629 20.3449 40.7841 20.4209 40.8057 20.4969C40.747 20.2905 40.6856 20.0855 40.6191 19.8826L40.7402 20.2693ZM9.48047 19.5867C9.43877 19.7062 9.39837 19.8263 9.35938 19.9471C9.39837 19.8263 9.43877 19.7062 9.48047 19.5867ZM9.61133 19.2254C9.5758 19.32 9.54163 19.4152 9.50781 19.5106C9.54163 19.4152 9.57581 19.32 9.61133 19.2254ZM9.87793 18.5574C9.85113 18.6202 9.82584 18.6837 9.7998 18.7469C9.83928 18.6511 9.87967 18.5557 9.9209 18.4608L9.87793 18.5574ZM10.3789 17.493C10.3621 17.5256 10.3466 17.5589 10.3301 17.5916C10.3653 17.5221 10.4004 17.4526 10.4365 17.3836L10.3789 17.493ZM10.6084 17.0643C10.5571 17.1572 10.5066 17.2506 10.457 17.3445C10.5066 17.2506 10.5571 17.1572 10.6084 17.0643ZM10.9512 16.4715C10.9276 16.5103 10.9051 16.5497 10.8818 16.5887C10.9295 16.5089 10.9774 16.4293 11.0264 16.3504L10.9512 16.4715ZM11.2227 16.0408C11.1647 16.1297 11.108 16.2193 11.0518 16.3094C11.108 16.2193 11.1648 16.1297 11.2227 16.0408ZM11.4746 15.6658C11.4021 15.7707 11.3309 15.8766 11.2607 15.9832C11.3309 15.8766 11.4021 15.7707 11.4746 15.6658ZM11.6592 15.4051C11.5969 15.4915 11.5352 15.5782 11.4746 15.6658C11.5352 15.5782 11.597 15.4915 11.6592 15.4051ZM11.8857 15.0984C11.8384 15.1611 11.7906 15.2236 11.7441 15.2869C11.7906 15.2236 11.8384 15.1611 11.8857 15.0984ZM12.1602 14.7459C12.1002 14.8209 12.0411 14.8965 11.9824 14.9725C12.0411 14.8965 12.1002 14.8209 12.1602 14.7459ZM12.3662 14.493C12.314 14.5557 12.2623 14.6189 12.2109 14.6824C12.2622 14.6189 12.314 14.5557 12.3662 14.493ZM12.8701 13.9149C12.8337 13.9547 12.7977 13.9948 12.7617 14.035C12.7977 13.9948 12.8337 13.9547 12.8701 13.9149ZM13.7373 13.035C13.6657 13.1024 13.5948 13.1704 13.5244 13.2391C13.5948 13.1704 13.6657 13.1024 13.7373 13.035ZM14.0068 12.7869C13.9425 12.8449 13.8789 12.9037 13.8154 12.9627C13.8789 12.9037 13.9425 12.8449 14.0068 12.7869ZM14.2979 12.5311C14.2382 12.5823 14.179 12.6342 14.1201 12.6863C14.179 12.6342 14.2382 12.5823 14.2979 12.5311ZM14.6201 12.2615C14.5459 12.3221 14.4715 12.3824 14.3984 12.4442C14.4715 12.3824 14.5459 12.3221 14.6201 12.2615ZM14.8955 12.0408C14.8323 12.0902 14.7695 12.14 14.707 12.1902C14.7695 12.14 14.8323 12.0902 14.8955 12.0408ZM15.2041 11.8055C15.1435 11.8506 15.0834 11.8963 15.0234 11.9422C15.0834 11.8963 15.1435 11.8506 15.2041 11.8055ZM15.4658 11.616C15.4335 11.6391 15.4013 11.6621 15.3691 11.6854C15.4013 11.6621 15.4335 11.6391 15.4658 11.616ZM16.2314 11.1014C16.1527 11.1511 16.0739 11.2007 15.9961 11.2518C16.0739 11.2007 16.1527 11.1512 16.2314 11.1014ZM16.543 10.908C16.4659 10.9544 16.3897 11.0021 16.3135 11.0496C16.3897 11.0021 16.4659 10.9544 16.543 10.908ZM16.9092 10.6951C16.8198 10.7458 16.7309 10.7972 16.6426 10.8494C16.7309 10.7972 16.8198 10.7458 16.9092 10.6951ZM17.2529 10.5047C17.1616 10.5536 17.0708 10.6035 16.9805 10.6541C17.0708 10.6035 17.1616 10.5536 17.2529 10.5047ZM17.5586 10.3455C17.48 10.3855 17.402 10.4264 17.3242 10.4676C17.402 10.4264 17.48 10.3855 17.5586 10.3455ZM19.001 9.69806C18.9265 9.72726 18.8522 9.75668 18.7783 9.78693C18.8522 9.75668 18.9265 9.72726 19.001 9.69806ZM24.7451 8.57013H24.7461H24.7451Z" fill="white" fill-opacity="0.3"/>
</g>
</g>
</g>
</svg>
