<svg width="50" height="50" viewBox="0 0 50 50" fill="none" xmlns="http://www.w3.org/2000/svg">
<rect width="50" height="50" fill="#BEBEBE"/>
<g id="Decorate Mode">
<path d="M-296.703 -949.034V-948.034H2723.3V-949.034V-950.034H-296.703V-949.034ZM2725.3 -947.034H2724.3V2590.97H2725.3H2726.3V-947.034H2725.3ZM2723.3 2592.97V2591.97H-296.703V2592.97V2593.97H2723.3V2592.97ZM-298.703 2590.97H-297.703V-947.034H-298.703H-299.703V2590.97H-298.703ZM-296.703 2592.97V2591.97C-297.255 2591.97 -297.703 2591.52 -297.703 2590.97H-298.703H-299.703C-299.703 2592.62 -298.36 2593.97 -296.703 2593.97V2592.97ZM2725.3 2590.97H2724.3C2724.3 2591.52 2723.85 2591.97 2723.3 2591.97V2592.97V2593.97C2724.95 2593.97 2726.3 2592.62 2726.3 2590.97H2725.3ZM2723.3 -949.034V-948.034C2723.85 -948.034 2724.3 -947.587 2724.3 -947.034H2725.3H2726.3C2726.3 -948.691 2724.95 -950.034 2723.3 -950.034V-949.034ZM-296.703 -949.034V-950.034C-298.359 -950.034 -299.703 -948.691 -299.703 -947.034H-298.703H-297.703C-297.703 -947.587 -297.255 -948.034 -296.703 -948.034V-949.034Z" fill="black" fill-opacity="0.1"/>
<g id="Stickers">
<rect x="-244.694" y="-76.5342" width="374" height="551" rx="4.5" stroke="#9747FF" stroke-dasharray="10 5"/>
<g id="Property 1=spider">
<g id="Frame 124">
<path id="Vector" d="M22.932 8.64955C23.1149 8.65192 23.3555 8.72697 23.3527 8.94845C23.3482 9.30739 22.9377 9.51757 22.7035 9.73485C20.6728 11.6189 19.3302 14.4894 19.318 17.2731C19.3166 17.5849 19.5871 17.9516 19.7696 18.2035C20.5297 19.2524 21.4416 20.5623 22.3822 21.4338C22.2253 21.2027 22.0876 20.9756 21.9394 20.7345C20.9925 19.193 21.2539 17.1117 22.8644 16.1341C23.075 16.0211 23.4034 15.8693 23.6407 15.9735C24.2693 16.2636 23.7 16.6827 23.4662 16.9696C22.7682 17.8264 22.6006 18.5978 23.041 19.5964C23.018 18.9637 23.2251 18.2418 23.9244 18.0362C24.0295 18.0052 24.2516 17.994 24.3454 18.0757C24.7806 18.4544 24.1406 18.7584 24.2929 19.192C24.3175 19.2706 24.3139 19.2709 24.3648 19.3031C24.7472 18.902 25.2596 18.9897 25.6717 19.2949C25.8504 18.7477 25.5416 18.7652 25.5343 18.3808C25.5245 17.8743 26.308 17.9704 26.5611 18.2768C26.9459 18.7425 26.9591 19.0862 26.9537 19.6332C27.3924 18.5296 27.2933 17.9823 26.5426 16.9962C26.4371 16.8449 26.1544 16.63 26.1161 16.4476C25.9615 15.7129 26.9322 15.9564 27.2599 16.1835C27.9227 16.6429 28.3661 17.325 28.5379 18.0951C28.8121 19.3224 28.317 20.3883 27.6747 21.3881C28.618 20.4357 29.9352 18.6887 30.6612 17.5631C30.681 17.2242 30.6778 16.8845 30.6515 16.5461C30.4874 14.3812 29.4452 12.0116 27.984 10.4128C27.7618 10.1664 27.524 9.93412 27.2726 9.71742C27.0814 9.55402 26.6324 9.28473 26.662 8.99891C26.7218 8.41879 27.4105 8.69647 27.7303 8.86913C30.4425 10.3332 32.1639 13.5342 32.5621 16.517C32.6349 17.0637 32.6915 18.2894 32.4139 18.7214C31.5733 20.0305 29.9156 21.6312 28.7572 22.5873C29.963 21.9985 31.3607 21.7485 32.5196 21.0554C32.962 20.7908 33.4774 20.5175 33.9435 20.3018C33.994 20.1288 34.0416 19.955 34.0863 19.7803C34.8485 16.7434 34.0208 13.2837 32.2218 10.7718C32.0736 10.5726 31.5216 10.0131 31.6937 9.7285C32.047 9.14454 32.9989 10.1073 33.18 10.2965C34.3319 11.4999 35.1144 13.0435 35.6244 14.6069C36.3668 16.8834 36.4964 19.4879 35.5804 21.7307C35.5262 21.8442 35.4088 22.0176 35.2879 22.0672C34.534 22.3857 33.6996 22.6425 33.0003 23.078C32.3736 23.4685 31.9193 23.5408 31.2169 23.714L29.6571 24.1075C29.4154 24.1679 29.1053 24.2315 28.8756 24.3071L28.8514 24.3153C29.7169 24.4602 30.6026 24.675 31.472 24.8396C31.6722 24.8935 32.5216 25.0098 32.6388 25.0874C33.2235 25.4741 36.4583 27.7353 36.5802 28.2446C37.2992 31.248 36.5958 34.8091 35.1595 37.4973C34.5997 38.563 33.8646 39.5268 32.9847 40.3481C32.7149 40.5972 32.2115 41.0752 31.8338 40.8098C31.4405 40.5337 32.0006 39.9953 32.1849 39.7666C32.3802 39.5237 32.5665 39.2734 32.7428 39.0161C34.5287 36.3921 35.4242 32.522 34.828 29.3984C34.2337 28.7629 33.4232 28.1555 32.7357 27.6245C32.5714 27.4978 32.1646 27.1785 31.9986 27.1118C31.7528 27.0132 31.409 26.9245 31.149 26.8281C30.3226 26.5215 29.3932 26.2622 28.587 25.9275C29.9046 26.9892 31.1776 28.3476 32.1632 29.7217C32.3673 30.0061 32.6163 30.3542 32.6842 30.6997C33.0467 32.5517 32.6637 34.5598 32.0069 36.3049C31.6139 37.2961 31.128 38.2344 30.4867 39.0893C29.773 40.0412 28.8976 40.9082 27.8468 41.4802C27.6173 41.6052 27.3573 41.7414 27.0943 41.7729C26.9776 41.7871 26.827 41.7827 26.7359 41.6963C26.6554 41.6196 26.6461 41.4985 26.6566 41.3945C26.6854 41.1079 27.079 40.8901 27.2884 40.7151C29.3624 38.9846 30.6129 36.1177 30.8499 33.4626C30.8922 32.9892 30.9593 32.187 30.8434 31.7361C30.6834 31.1142 29.0558 28.9292 28.5711 28.3501C28.6629 28.8218 28.683 29.3047 28.6307 29.7825C28.5077 30.9126 27.9718 31.957 27.0797 32.6711C26.4037 33.2197 25.5372 33.477 24.6712 33.3865C22.7262 33.1684 21.3831 31.3271 21.3571 29.4363C21.352 29.0674 21.3818 28.7485 21.4231 28.3845C20.773 29.084 20.2365 29.946 19.7191 30.7456C19.4452 31.1689 19.1596 31.5181 19.1345 32.0327C19.0081 34.8633 19.9595 37.6362 21.797 39.793C22.2635 40.3301 22.7481 40.7075 23.2769 41.1709C23.3438 41.2295 23.3812 41.365 23.3652 41.4538C23.2478 42.1037 22.3951 41.6067 22.0683 41.4324C21.151 40.9031 20.4135 40.1968 19.7549 39.373C19.3247 38.8384 18.9438 38.2659 18.6169 37.6626C17.6348 35.8237 17.0425 33.4499 17.2378 31.3484C17.2882 31.093 17.3131 30.6094 17.4447 30.3904C18.2737 29.0105 19.3738 27.8005 20.5579 26.7175C20.8642 26.4375 21.1291 26.1699 21.4368 25.9292C20.4182 26.3264 19.2577 26.6616 18.2468 27.0298C17.545 27.2854 15.6736 28.8498 15.1966 29.4016C14.5043 32.9182 15.6597 37.2656 17.9942 39.9636C18.1708 40.1677 18.4407 40.4468 18.2577 40.7253C18.2042 40.8086 18.1186 40.866 18.0212 40.8838C17.4908 40.9851 16.5475 39.9184 16.216 39.5178C14.8624 37.8491 13.9232 35.8835 13.4755 33.7822C13.129 32.1789 13.0452 30.5486 13.3 28.9253C13.341 28.6641 13.3706 28.2912 13.5247 28.0735C13.8179 27.6587 17.0499 25.2173 17.4894 25.0571C17.9003 24.9075 18.3815 24.8513 18.8113 24.7685C19.6061 24.6125 20.402 24.4624 21.199 24.3182C20.6219 24.2208 19.8262 23.9768 19.2302 23.8304C18.8978 23.7486 17.9107 23.5099 17.6457 23.3889C17.1133 23.1458 16.5543 22.8102 15.9814 22.5592C15.7337 22.4498 15.4833 22.3463 15.2306 22.249C15.0234 22.1703 14.7474 22.0811 14.5577 21.9785C14.3216 21.5723 14.1545 20.9908 14.0451 20.5295C13.5486 18.4363 13.8292 16.1881 14.5439 14.1782C15.0661 12.7285 15.8627 11.3033 16.9548 10.2062C17.2233 9.93646 17.7357 9.40175 18.1433 9.57059C18.3669 9.6246 18.3868 9.97216 18.2627 10.1365C17.7703 10.7883 17.3359 11.3836 16.9614 12.1211C15.9162 14.1789 15.4369 16.6146 15.7364 18.9101C15.7985 19.3858 15.9306 19.842 16.0721 20.2952C16.6935 20.5764 17.2782 20.9107 17.8757 21.2372C18.4425 21.5469 19.0964 21.7629 19.7035 21.9868C20.2113 22.1772 20.7164 22.3749 21.2186 22.5797C20.1327 21.6878 19.0313 20.5571 18.132 19.4756C17.7754 19.0467 17.526 18.7547 17.4417 18.1863C17.3559 17.6077 17.3798 17.0981 17.4514 16.5194C17.692 14.673 18.3933 12.9167 19.4906 11.4124C20.2004 10.4244 21.7198 8.84791 22.932 8.64955Z" fill="#020101"/>
<path id="Vector (Stroke)" d="M22.9525 7.08722C23.2066 7.09052 23.5967 7.13933 23.9816 7.35699C24.4327 7.61219 24.9255 8.15401 24.9154 8.96771C24.9052 9.79156 24.4171 10.3149 24.1848 10.5333C24.0594 10.6512 23.932 10.7499 23.8656 10.8018C23.7794 10.8692 23.767 10.8803 23.7667 10.8806C22.4519 12.1004 21.4788 13.812 21.08 15.5803C21.3558 15.2899 21.6794 15.0258 22.0541 14.7984L22.0895 14.777L22.1261 14.7575C22.2579 14.6868 22.5126 14.5551 22.8176 14.4688C23.0747 14.3961 23.591 14.29 24.1561 14.4975L24.2697 14.5433L24.2825 14.5488L24.2959 14.5549C24.4945 14.6465 24.7617 14.801 24.9948 15.0511C25.016 15.0268 25.0376 15.0023 25.0607 14.9785C25.5595 14.4626 26.1843 14.3955 26.492 14.3925C26.8399 14.3891 27.1594 14.4606 27.3995 14.5378C27.6066 14.6043 27.8408 14.7028 28.0581 14.8387L28.1503 14.8991L28.3334 15.0328C28.549 15.1981 28.7465 15.3805 28.9266 15.576C28.5899 14.0784 27.8189 12.5484 26.8307 11.4671L26.827 11.4628L26.824 11.4592C26.6461 11.2619 26.4549 11.0756 26.2527 10.9013V10.9007C26.2488 10.8976 26.243 10.8936 26.2356 10.8879C26.1956 10.857 26.1986 10.8605 26.1398 10.8152C26.0641 10.757 25.9424 10.6614 25.8193 10.5467C25.7023 10.4376 25.5262 10.2585 25.3793 10.0145C25.2297 9.76595 25.0545 9.35519 25.1077 8.83893L25.1345 8.65582C25.2175 8.22142 25.448 7.74481 25.9329 7.4162C26.4268 7.08143 26.9421 7.07034 27.2299 7.09454C27.7838 7.14117 28.2711 7.38558 28.4725 7.49432C29.1726 7.87223 29.8107 8.3402 30.386 8.87433C30.5646 8.59574 30.8231 8.3402 31.1703 8.17181C31.5293 7.99773 31.8845 7.96377 32.1719 7.98627C32.6929 8.02709 33.1105 8.25992 33.3328 8.39947C33.6935 8.626 34.0067 8.91398 34.1824 9.08734L34.3087 9.21613L34.559 9.48712C35.7804 10.8612 36.5878 12.5208 37.1102 14.1221C37.9345 16.6496 38.1186 19.6495 37.0272 22.3216L37.0101 22.3631L36.9906 22.404C36.916 22.5602 36.8107 22.7363 36.6775 22.902C36.5735 23.0313 36.3157 23.3289 35.8956 23.5057L35.8963 23.5063C35.892 23.5081 35.8876 23.5094 35.8834 23.5112C35.8824 23.5116 35.8814 23.5126 35.8804 23.513L35.8798 23.5124C35.108 23.8377 34.6059 23.9945 34.1452 24.2271C34.587 24.5367 35.1669 24.9521 35.7247 25.3734C36.1842 25.7203 36.6545 26.0894 37.0272 26.4171C37.2109 26.5785 37.3982 26.7541 37.5558 26.9273C37.6342 27.0135 37.7267 27.1223 37.8121 27.2471C37.8819 27.349 38.0268 27.574 38.1002 27.8807L38.1729 28.206C38.8737 31.5733 38.0661 35.3662 36.5426 38.2231L36.5432 38.2237C35.9019 39.4445 35.0595 40.5491 34.0512 41.4903L34.0451 41.4964C33.9452 41.5886 33.6152 41.907 33.2217 42.1306C32.865 42.3331 31.8945 42.7619 30.9359 42.0884V42.0878C30.7183 41.9349 30.5386 41.7438 30.4049 41.5257C29.8701 42.0282 29.2685 42.4848 28.594 42.852L28.5946 42.8526C28.4026 42.9572 27.8872 43.2517 27.2805 43.3244L27.2799 43.3238C27.1359 43.3411 26.9139 43.3557 26.6598 43.3152C26.4085 43.2752 26.0117 43.1625 25.6607 42.8294L25.6588 42.8282C25.0182 42.2184 25.0828 41.4294 25.1022 41.2376C25.1811 40.4555 25.71 39.9822 25.8761 39.8369C25.9922 39.7353 26.1069 39.65 26.1752 39.5994C26.2163 39.5689 26.2378 39.5534 26.2619 39.5353C26.2777 39.5234 26.2851 39.5172 26.2869 39.5158L26.2875 39.5152C27.9795 38.1034 29.0858 35.6557 29.2941 33.3238C29.3152 33.0871 29.3379 32.8135 29.3441 32.5535C29.3452 32.5086 29.3448 32.466 29.3447 32.426C29.0106 32.9715 28.5832 33.4667 28.0636 33.8841L28.0642 33.8847C27.0662 34.6945 25.7871 35.0743 24.5089 34.9406L24.5034 34.94L24.4973 34.9394C22.8032 34.7495 21.4901 33.7569 20.6869 32.4626C20.6702 34.7671 21.4801 37.0057 22.9769 38.7681C23.3513 39.1991 23.7007 39.4643 24.3069 39.9955H24.3063C24.6424 40.2899 24.7868 40.6446 24.8489 40.8513C24.9151 41.0715 24.9661 41.384 24.9032 41.732C24.8006 42.2994 24.4509 42.9051 23.757 43.1926C23.2 43.4232 22.6789 43.3316 22.4288 43.2713C21.9186 43.1482 21.4129 42.8535 21.3333 42.8111L21.3101 42.7989L21.2875 42.7855C20.6532 42.4194 20.0984 41.9896 19.6023 41.519C19.5921 41.5358 19.5825 41.553 19.5718 41.5696L19.5724 41.5702C19.2871 42.0142 18.8317 42.3201 18.3139 42.418L18.3145 42.4186C17.638 42.5478 17.0762 42.2846 16.8124 42.1403C16.4993 41.969 16.222 41.7481 16.0086 41.5593C15.5753 41.1758 15.1969 40.7366 15.0125 40.5137L15.0076 40.5082L15.0027 40.5021C13.4937 38.6419 12.4464 36.4507 11.9473 34.1081L11.9479 34.1075C11.5668 32.3418 11.4688 30.5176 11.7569 28.6827C11.7619 28.6503 11.7995 28.363 11.8405 28.1657C11.8837 27.9577 11.9812 27.5499 12.2494 27.1708H12.25C12.3994 26.9599 12.6071 26.7691 12.7096 26.6758C12.8531 26.5452 13.0267 26.3972 13.2119 26.2443C13.5845 25.9369 14.0476 25.5744 14.5083 25.225C14.9693 24.8755 15.4408 24.5292 15.8316 24.2564C15.8414 24.2495 15.8511 24.2425 15.8609 24.2357C15.6804 24.143 15.5159 24.0608 15.3549 23.9903L15.3506 23.9885C15.1258 23.8891 14.8981 23.7954 14.6688 23.7071V23.7065C14.5739 23.6715 14.1171 23.5163 13.8143 23.3525L13.428 23.1437L13.207 22.7635C12.8456 22.1416 12.6373 21.3624 12.5253 20.8903C11.9423 18.4324 12.2843 15.8702 13.0722 13.6546L13.074 13.6485C13.652 12.0439 14.5543 10.403 15.8474 9.10382C15.9509 8.9999 16.2548 8.68217 16.6116 8.43671C16.8774 8.25384 17.6945 7.74117 18.6611 8.09613C19.1436 8.25464 19.4473 8.56955 19.6328 8.89081C19.7506 8.7781 19.8709 8.66657 19.9942 8.55878C20.6587 7.97749 21.6203 7.28079 22.6797 7.10736L22.8152 7.08539L22.9525 7.08722ZM22.2482 42.3472L22.2476 42.346C22.2457 42.3443 22.2434 42.3428 22.2415 42.3411L22.2482 42.3472ZM27.7304 8.86884C27.4104 8.69618 26.7221 8.41899 26.6622 8.99884C26.6327 9.28454 27.0813 9.5538 27.2726 9.71722C27.5241 9.93392 27.7621 10.1666 27.9843 10.413C29.4453 12.0118 30.4874 14.3811 30.6515 16.5458C30.6779 16.8842 30.681 17.2245 30.6613 17.5633C29.9352 18.6889 28.6181 20.4361 27.6748 21.3884C28.3172 20.3886 28.8126 19.3221 28.5385 18.0949C28.3666 17.3249 27.9231 16.6427 27.2604 16.1833C26.9328 15.9562 25.962 15.7129 26.1166 16.4476C26.155 16.63 26.4371 16.845 26.5426 16.9963C27.2933 17.9823 27.3926 18.5295 26.954 19.633C26.9594 19.0861 26.9462 18.7425 26.5615 18.2768C26.3084 17.9704 25.5248 17.8743 25.5343 18.3806C25.5416 18.765 25.8509 18.7478 25.6723 19.2949C25.2602 18.9896 24.7472 18.9018 24.3649 19.3028C24.3143 19.2708 24.318 19.2702 24.2935 19.1917C24.1413 18.7582 24.7805 18.4546 24.3454 18.076C24.2516 17.9944 24.03 18.0054 23.9248 18.0363C23.2256 18.242 23.018 18.9637 23.041 19.5964C22.6006 18.5978 22.7684 17.8262 23.4664 16.9694C23.7003 16.6824 24.2695 16.2634 23.641 15.9733C23.4038 15.8691 23.0752 16.0209 22.8646 16.1338C21.2541 17.1114 20.993 19.1932 21.94 20.7347C22.088 20.9756 22.2256 21.2026 22.3825 21.4335C21.677 20.78 20.9877 19.8799 20.3665 19.0281L19.7702 18.2036C19.5876 17.9517 19.3171 17.5846 19.3185 17.2728C19.3304 14.5762 20.5906 11.7982 22.5155 9.91437L22.7035 9.73492C22.9377 9.51764 23.3485 9.30712 23.3529 8.94818C23.3555 8.72697 23.1152 8.65213 22.9324 8.64972C21.7202 8.84808 20.2003 10.4242 19.4906 11.4122C18.3932 12.9165 17.692 14.6731 17.4514 16.5196C17.3798 17.0982 17.3558 17.6079 17.4417 18.1865C17.526 18.7547 17.776 19.0467 18.1326 19.4755C19.0319 20.557 20.1333 21.6879 21.2191 22.5798C20.717 22.3749 20.2114 22.1775 19.7036 21.9871C19.0965 21.7632 18.443 21.5467 17.8762 21.237C17.2788 20.9105 16.6939 20.5765 16.0726 20.2952C15.9488 19.8986 15.832 19.4996 15.7632 19.0873L15.737 18.9103C15.4374 16.6148 15.9168 14.1787 16.9619 12.1208C17.2427 11.568 17.557 11.0949 17.9043 10.6181L18.2632 10.1365C18.3872 9.97212 18.3671 9.62476 18.1436 9.57074C17.736 9.40191 17.2237 9.93638 16.9552 10.2061L16.7538 10.4155C15.7645 11.4814 15.0339 12.8192 14.5443 14.1783C13.8296 16.1882 13.5486 18.4364 14.0451 20.5296C14.1545 20.9909 14.3216 21.5724 14.5578 21.9786C14.7474 22.0812 15.0237 22.1703 15.231 22.249C15.4836 22.3463 15.734 22.4496 15.9817 22.559C16.5547 22.81 17.1137 23.146 17.6461 23.3891C17.9114 23.5101 18.8982 23.7487 19.2306 23.8304C19.8265 23.9768 20.622 24.2206 21.199 24.3181C20.402 24.4623 19.606 24.6125 18.8113 24.7685C18.3816 24.8512 17.9007 24.9076 17.4899 25.0572C17.0505 25.2173 13.8183 27.6588 13.525 28.0735C13.371 28.2912 13.3414 28.6638 13.3004 28.925L13.2565 29.2296C13.0569 30.7521 13.1507 32.2791 13.4756 33.7822C13.9233 35.8834 14.8625 37.849 16.2161 39.5176C16.5476 39.9183 17.4911 40.9849 18.0215 40.8836C18.1187 40.8658 18.2042 40.8086 18.2577 40.7255C18.3949 40.5166 18.2774 40.3075 18.1356 40.1298L17.9946 39.9638C15.6601 37.2658 14.5045 32.9183 15.1968 29.4017C15.6738 28.8499 17.5456 27.2855 18.2473 27.0298C19.2582 26.6617 20.4185 26.3266 21.437 25.9294C21.1294 26.1701 20.8644 26.4374 20.5581 26.7173C19.3741 27.8004 18.2737 29.0106 17.4447 30.3904C17.3133 30.6094 17.2882 31.0927 17.2378 31.3481C17.0425 33.4496 17.635 35.8239 18.6172 37.6628L18.7423 37.8874C19.0401 38.4083 19.3785 38.9052 19.7549 39.373C20.4135 40.1967 21.1515 40.903 22.0687 41.4323L22.3928 41.6008C22.776 41.7836 23.2771 41.941 23.3651 41.4537C23.3791 41.3759 23.3528 41.2625 23.301 41.1961L23.2772 41.1711C22.7485 40.7077 22.2636 40.33 21.7971 39.7929C19.9597 37.6362 19.0084 34.8634 19.1348 32.0329C19.1599 31.5182 19.4456 31.169 19.7195 30.7457C20.2369 29.9461 20.7735 29.0837 21.4236 28.3842C21.3823 28.7482 21.352 29.0676 21.3571 29.4365C21.3832 31.3272 22.7264 33.1685 24.6713 33.3867C25.5371 33.4772 26.4037 33.2198 27.0797 32.6713C27.9718 31.9572 28.5082 30.9126 28.6312 29.7825C28.6835 29.3047 28.6632 28.8217 28.5714 28.35C29.056 28.9291 30.6839 31.1144 30.8438 31.7363C30.9596 32.1871 30.8927 32.989 30.8505 33.4623L30.8248 33.712C30.534 36.2956 29.2977 39.0387 27.2885 40.7151C27.079 40.8902 26.6856 41.1079 26.6568 41.3945C26.6463 41.4984 26.6557 41.6193 26.7361 41.696C26.8271 41.7824 26.9777 41.787 27.0944 41.7729C27.3573 41.7414 27.6174 41.6049 27.8469 41.4799C28.8977 40.9079 29.7731 40.0411 30.4867 39.0892C31.1281 38.2342 31.614 37.296 32.0071 36.3047C32.6638 34.5597 33.0471 32.5518 32.6846 30.6999C32.6167 30.3544 32.3674 30.0059 32.1633 29.7215C31.1778 28.3475 29.9049 26.9893 28.5873 25.9275C29.3934 26.2623 30.3231 26.5212 31.1495 26.8278C31.4095 26.9242 31.7534 27.013 31.9992 27.1116C32.1652 27.1784 32.5715 27.4976 32.7359 27.6243C33.4234 28.1553 34.2339 28.7631 34.8281 29.3986C35.4243 32.5221 34.529 36.392 32.7432 39.0159C32.5669 39.2732 32.3806 39.5238 32.1853 39.7667L31.9973 39.987C31.7804 40.2479 31.5393 40.6026 31.8344 40.8097C32.1959 41.0636 32.6716 40.6354 32.9483 40.3801L32.9849 40.3483C33.8647 39.5271 34.5998 38.563 35.1596 37.4974C36.5958 34.8091 37.2995 31.2479 36.5805 28.2444C36.458 27.7349 33.2235 25.4738 32.6388 25.0871C32.5205 25.0095 31.6726 24.8932 31.4724 24.8393C30.603 24.6747 29.7171 24.4605 28.8516 24.3156L28.876 24.3071C29.1057 24.2314 29.4156 24.1679 29.6572 24.1075L31.2173 23.7138C31.9196 23.5406 32.3741 23.4683 33.0007 23.0778C33.6999 22.6424 34.5345 22.3856 35.2883 22.0671C35.3789 22.0299 35.4673 21.9231 35.5288 21.8242L35.5807 21.7308C36.4394 19.6282 36.3791 17.2078 35.7565 15.0377L35.6246 14.6068C35.1146 13.0434 34.332 11.4998 33.1802 10.2964C32.9988 10.107 32.0473 9.14483 31.694 9.72821C31.5219 10.0128 32.0737 10.5727 32.2219 10.7719C34.021 13.2837 34.8487 16.7432 34.0866 19.7801C34.0419 19.9547 33.9943 20.1289 33.9437 20.3019C33.4777 20.5177 32.9621 20.7906 32.5198 21.0551C31.3609 21.7482 29.9633 21.9983 28.7576 22.5871C29.8436 21.6907 31.3687 20.2281 32.2476 18.9702L32.4142 18.7211C32.657 18.343 32.6439 17.3575 32.5881 16.7509L32.5625 16.5171C32.1643 13.5344 30.4425 10.3329 27.7304 8.86884Z" fill="#E8E7E7"/>
<path id="Vector (Stroke) (Stroke)" d="M22.964 6.1694C23.3136 6.17394 23.871 6.23988 24.4336 6.55803C24.6255 6.66659 24.8245 6.81316 25.0112 6.99569C25.1313 6.87557 25.2648 6.75977 25.4178 6.65609C26.1569 6.15521 26.9162 6.14608 27.3071 6.17897C28.0564 6.24212 28.681 6.56332 28.9083 6.68598C29.4115 6.95763 29.884 7.27066 30.3253 7.61631C30.4605 7.51621 30.6073 7.42324 30.7689 7.34486C31.3032 7.08581 31.8282 7.03853 32.2433 7.07103C32.9863 7.12925 33.5564 7.45528 33.8206 7.62109V7.62229C34.153 7.83102 34.4439 8.07423 34.6505 8.26443L34.8274 8.43303L34.8382 8.4438L34.9638 8.57294C34.9702 8.57952 34.9766 8.58649 34.9829 8.59327L35.234 8.86352L35.2448 8.87667C36.5738 10.3717 37.4344 12.1549 37.9831 13.8368L38.1386 14.345C38.8767 16.9146 38.9966 19.9269 37.8767 22.6689V22.6713L37.8588 22.7132C37.8524 22.7285 37.8456 22.7436 37.8384 22.7586L37.8193 22.7993C37.7173 23.0128 37.5755 23.2509 37.3936 23.4773C37.2555 23.6491 36.882 24.0878 36.254 24.3526C36.2446 24.3566 36.236 24.3606 36.2289 24.3634C36.2213 24.3665 36.2126 24.3676 36.205 24.3705C36.1403 24.3977 36.0761 24.4208 36.0149 24.4459C36.1022 24.5108 36.1909 24.5751 36.2779 24.6408C36.7431 24.992 37.2344 25.3776 37.6328 25.7278C37.8289 25.9001 38.0454 26.1 38.2354 26.3089C38.3294 26.4122 38.4522 26.556 38.5703 26.7286L38.66 26.8673C38.7481 27.0118 38.8627 27.227 38.9469 27.4975L38.9936 27.6673L38.996 27.6805L39.0689 28.0057L39.0713 28.0189C39.8227 31.6287 38.959 35.6307 37.3613 38.6363C37.3591 38.6408 37.3589 38.6463 37.3565 38.6507C36.6722 39.9534 35.7731 41.1319 34.6995 42.1388L34.6947 42.146C34.6861 42.1546 34.6762 42.1628 34.6672 42.1711C34.5829 42.249 34.1759 42.6445 33.6747 42.9292C33.2446 43.1734 31.8269 43.8364 30.4078 42.8395L30.3432 42.7893C29.9438 43.1043 29.512 43.3954 29.0458 43.6503C29.0416 43.6527 29.0381 43.6563 29.0338 43.6586C28.8572 43.7549 28.1956 44.1396 27.3896 44.2362C27.3805 44.2373 27.3712 44.2366 27.3621 44.2374C27.1674 44.2593 26.8659 44.2776 26.5155 44.2219C26.1548 44.1644 25.559 44 25.0279 43.496V43.4948L25.0255 43.4936C25.0135 43.4821 25.0026 43.4693 24.9909 43.4578C24.7533 43.6912 24.4625 43.8946 24.1084 44.0413C23.2842 44.3826 22.5319 44.2414 22.213 44.1645C21.8727 44.0823 21.5557 43.9489 21.3282 43.8416C21.211 43.7864 21.1103 43.734 21.034 43.6933C20.9959 43.673 20.9639 43.6553 20.9395 43.6419C20.9298 43.6365 20.9146 43.6291 20.9096 43.6264C20.9078 43.6253 20.9061 43.6246 20.9048 43.624L20.8821 43.612C20.8681 43.6046 20.8539 43.5962 20.8403 43.5881L20.8176 43.5749V43.5737C20.4045 43.3346 20.0249 43.0698 19.6708 42.7893C19.3362 43.0431 18.9483 43.222 18.53 43.3083C18.5156 43.3118 18.5016 43.3174 18.487 43.3202C17.4909 43.5104 16.6917 43.121 16.3716 42.946C15.9737 42.7283 15.6378 42.4574 15.3994 42.2464C14.9299 41.8308 14.5282 41.3671 14.3256 41.1236L14.3208 41.1188C14.3103 41.1069 14.2997 41.0941 14.2897 41.0817L14.2849 41.0757V41.0745C12.6871 39.1029 11.578 36.7813 11.0491 34.2992C11.0481 34.2941 11.0489 34.2887 11.0479 34.2836C10.6491 32.4271 10.5426 30.4945 10.8494 28.5403C10.8531 28.5123 10.897 28.1941 10.9415 27.9794C10.9917 27.7376 11.1199 27.1773 11.5 26.6401C11.5047 26.6334 11.5106 26.6276 11.5155 26.621C11.7273 26.3279 11.9939 26.0849 12.0907 25.9968C12.2495 25.8523 12.4365 25.6941 12.6276 25.5364C13.0129 25.2185 13.4869 24.8477 13.9537 24.4937C13.9752 24.4774 13.9967 24.461 14.0183 24.4447C13.9153 24.4049 13.7979 24.3587 13.6811 24.3072L13.3773 24.1601L12.9911 23.952C12.8423 23.8716 12.7185 23.7515 12.6336 23.6052L12.4123 23.225C11.9776 22.4769 11.7453 21.5821 11.6315 21.1024C10.9976 18.4302 11.3758 15.683 12.2067 13.3465C12.2077 13.3435 12.2091 13.34 12.2103 13.337C12.821 11.6415 13.7849 9.87354 15.1961 8.45575C15.285 8.36652 15.6503 7.98263 16.0906 7.67969C16.387 7.47576 17.5535 6.71105 18.9772 7.23366L18.976 7.23485C19.2528 7.32912 19.4909 7.45783 19.6947 7.60794C20.3903 7.04294 21.3864 6.38787 22.5311 6.20049H22.5323L22.6674 6.17897C22.7201 6.17043 22.7744 6.1663 22.8277 6.16701L22.964 6.1694ZM22.6794 7.1069C21.62 7.28033 20.6582 7.97731 19.9937 8.55859C19.8705 8.66637 19.7503 8.77833 19.6325 8.89102C19.447 8.56976 19.1428 8.25433 18.6603 8.09582C17.6945 7.74149 16.8781 8.25354 16.612 8.43662L16.3561 8.63034C16.1153 8.82807 15.9242 9.02596 15.8467 9.10387L15.6099 9.3514C14.443 10.6081 13.6155 12.1447 13.0736 13.6491L13.0724 13.6551C12.2846 15.8706 11.9418 18.433 12.5247 20.8908C12.6367 21.3628 12.8451 22.1417 13.2063 22.7634L13.4276 23.1437L13.8138 23.3529C13.9653 23.4349 14.1557 23.5141 14.3196 23.5777L14.6688 23.7069C14.8979 23.7951 15.1256 23.8886 15.3504 23.9879L15.3552 23.9903C15.516 24.0608 15.6807 24.1428 15.861 24.2354C15.8512 24.2422 15.8409 24.2501 15.8311 24.2569C15.4404 24.5297 14.9693 24.8761 14.5086 25.2255L13.827 25.7505C13.607 25.9232 13.3974 26.0906 13.2111 26.2443L12.7089 26.676L12.4972 26.8793C12.4555 26.9222 12.4126 26.969 12.3705 27.018L12.2497 27.1711C11.9815 27.5501 11.8839 27.9579 11.8408 28.166L11.757 28.6826C11.505 30.2882 11.5479 31.8858 11.818 33.443L11.9472 34.1079C12.4463 36.4503 13.4935 38.6415 15.0024 40.5018L15.012 40.5137C15.1964 40.7365 15.575 41.1755 16.0081 41.5588C16.2214 41.7476 16.4987 41.9687 16.8117 42.14C17.0755 42.2843 17.6383 42.5477 18.3148 42.4186H18.3136C18.8313 42.3207 19.2874 42.0146 19.5727 41.5708L19.5715 41.5696C19.5823 41.553 19.5925 41.5362 19.6026 41.5194C20.0986 41.9898 20.6534 42.4198 21.2875 42.7857L21.3102 42.7989L21.3329 42.8108C21.4125 42.8533 21.9182 43.148 22.4283 43.2712C22.6471 43.324 23.0738 43.4013 23.5499 43.2652L23.7568 43.1923C24.4506 42.9048 24.801 42.2996 24.9036 41.7322C24.9665 41.3842 24.9147 41.0712 24.8486 40.8509C24.7864 40.6442 24.6416 40.2901 24.3057 39.9959H24.3069C23.7007 39.4647 23.3515 39.1988 22.9772 38.7679C21.4803 37.0054 20.6705 34.767 20.6872 32.4625C21.4903 33.7567 22.803 34.749 24.497 34.9389L24.503 34.9401H24.509C25.7871 35.0738 27.066 34.694 28.064 33.8842H28.0629C28.5824 33.4668 29.0106 32.9709 29.3447 32.4254C29.3448 32.4654 29.3446 32.5084 29.3435 32.5533C29.3373 32.8132 29.3144 33.0869 29.2933 33.3234C29.0981 35.5095 28.1145 37.7983 26.598 39.239L26.2871 39.5152C26.2853 39.5166 26.2778 39.5236 26.262 39.5356L26.1747 39.5989C26.1064 39.6495 25.9918 39.7353 25.8757 39.8369L25.6964 40.0067C25.4739 40.2377 25.1614 40.6505 25.1021 41.2372C25.0827 41.429 25.0175 42.219 25.6581 42.8288L25.6605 42.83C26.0114 43.1629 26.4089 43.2754 26.6602 43.3155C26.914 43.3558 27.1357 43.3411 27.2796 43.3238H27.2808L27.5032 43.2879C28.0109 43.1814 28.4269 42.9442 28.595 42.8527L28.5938 42.8515C29.2681 42.4843 29.8695 42.0277 30.4042 41.5254C30.5378 41.7433 30.7178 41.9345 30.9351 42.0874V42.0886C31.7739 42.6778 32.6223 42.4227 33.0601 42.2141L33.2215 42.1304C33.4181 42.0188 33.5988 41.8835 33.7429 41.7645L34.0454 41.4967L34.0514 41.4907C34.9337 40.6671 35.6888 39.718 36.2935 38.6758L36.5434 38.2238L36.5422 38.2226C38.0656 35.3657 38.8729 31.5726 38.1721 28.2054L38.1003 27.8802C38.0636 27.7268 38.0086 27.594 37.9544 27.4868L37.8121 27.2476C37.7267 27.1228 37.6334 27.0133 37.555 26.9271C37.3975 26.754 37.2101 26.5779 37.0265 26.4165C36.8403 26.2529 36.6297 26.0788 36.4083 25.9023L35.7243 25.3738C35.1664 24.9526 34.5865 24.5366 34.1446 24.227C34.6054 23.9944 35.108 23.8372 35.8797 23.512V23.5132L35.8833 23.5108C35.8875 23.509 35.8923 23.5077 35.8965 23.506H35.8953C36.2103 23.3734 36.4348 23.173 36.5709 23.0265L36.6773 22.9021C36.7438 22.8194 36.8033 22.7339 36.8555 22.6498L36.9906 22.4035L37.0098 22.3628L37.0265 22.3221C38.0497 19.8169 37.9528 17.0229 37.2573 14.6009L37.1102 14.1226C36.5878 12.5213 35.7799 10.8606 34.5584 9.48653L34.3085 9.21628L34.1817 9.08713C34.006 8.91375 33.6931 8.62592 33.3327 8.39955C33.1104 8.26 32.6926 8.02663 32.1716 7.98581C31.8843 7.96333 31.5285 7.9983 31.1695 8.17235L31.044 8.23932C30.7597 8.40477 30.5425 8.63068 30.3863 8.87428C29.883 8.40702 29.3313 7.99022 28.7325 7.64022L28.4718 7.49434C28.2953 7.3991 27.9006 7.19949 27.4339 7.12006L27.2294 7.09494C26.9416 7.07076 26.4269 7.08203 25.9331 7.41661L25.7621 7.54576C25.3923 7.86295 25.207 8.27549 25.1344 8.65545L25.1081 8.83841C25.0549 9.3545 25.23 9.76533 25.3795 10.0139C25.5264 10.2579 25.7025 10.4381 25.8195 10.5472C25.9425 10.6617 26.0644 10.7569 26.14 10.815C26.1986 10.8601 26.1957 10.8572 26.2357 10.888L26.2524 10.9011C26.4546 11.0754 26.6462 11.2623 26.824 11.4596L26.8264 11.4632L26.83 11.4668C27.8181 12.5479 28.5894 14.078 28.9262 15.5755C28.7462 15.3802 28.5486 15.1978 28.3331 15.0326L28.1501 14.8987L28.0581 14.8389C27.8407 14.703 27.6062 14.6041 27.3992 14.5375C27.219 14.4796 26.9942 14.4247 26.7463 14.4024L26.4916 14.3929C26.1838 14.3959 25.5589 14.463 25.0602 14.9788C25.0374 15.0024 25.0155 15.0264 24.9945 15.0505C24.7615 14.8007 24.4946 14.6459 24.2961 14.5543L24.2818 14.5483L24.2698 14.5435L24.1562 14.4969C23.5911 14.2894 23.074 14.3967 22.8169 14.4694L22.5993 14.5399C22.3927 14.6167 22.2246 14.7045 22.1257 14.7576L22.0899 14.7767L22.054 14.7982C21.6793 15.0257 21.3553 15.2899 21.0794 15.5803C21.4783 13.8121 22.4517 12.1007 23.7664 10.8808L23.8656 10.8019C23.8989 10.7759 23.9472 10.7379 24.0031 10.6919L24.1849 10.5328C24.4173 10.3142 24.9053 9.79099 24.9155 8.96755C24.9243 8.25551 24.5478 7.75138 24.1514 7.46564L23.9816 7.35682C23.6929 7.19354 23.401 7.12504 23.1661 7.09973L22.952 7.08777L22.8145 7.08538L22.6794 7.1069ZM26.6626 8.99864C26.7226 8.41912 27.4105 8.69566 27.7304 8.8683C30.4424 10.3323 32.1643 13.5339 32.5626 16.5166L32.5877 16.751C32.6435 17.3576 32.6571 18.3435 32.4143 18.7216L32.2469 18.9703L31.8894 19.4499C30.9938 20.5848 29.7079 21.8032 28.7576 22.5876C29.9634 21.9988 31.3607 21.7477 32.5196 21.0546C32.8512 20.8563 33.2241 20.6535 33.5862 20.4735L33.9438 20.3025C33.9943 20.1295 34.0414 19.9545 34.0861 19.7799C34.8481 16.7431 34.0208 13.2838 32.2218 10.772C32.0736 10.5728 31.5214 10.0127 31.6933 9.72808C32.0464 9.14506 32.9974 10.1058 33.1796 10.2961C34.3315 11.4994 35.115 13.0436 35.625 14.6069L35.7566 15.0374C36.3791 17.2073 36.4393 19.6278 35.5808 21.7302L35.5282 21.8247L35.4194 21.9682C35.3782 22.0121 35.3332 22.0488 35.2878 22.0674C34.5341 22.3859 33.6993 22.6425 33.0003 23.0779L32.7731 23.2106C32.2567 23.4884 31.8318 23.5625 31.2173 23.714L29.6568 24.1075C29.4153 24.1679 29.1056 24.2316 28.876 24.3072L28.8509 24.3155C29.7163 24.4604 30.6027 24.6747 31.4721 24.8393C31.6722 24.8932 32.5209 25.0092 32.6391 25.0868C33.2245 25.474 36.458 27.7354 36.5805 28.2449C37.2993 31.2482 36.5961 34.8098 35.1599 37.4979C34.6001 38.5635 33.8645 39.5275 32.9847 40.3487L32.9477 40.3798C32.6884 40.6191 32.2548 41.0103 31.9037 40.8497L31.8344 40.8103C31.5395 40.6032 31.7802 40.2484 31.997 39.9876L32.1847 39.7663C32.2824 39.6448 32.3787 39.5221 32.4717 39.3968L32.7432 39.0154C34.4173 36.5553 35.3084 33.0003 34.9219 29.9919L34.8274 29.3988C34.2333 28.7634 33.4234 28.1552 32.736 27.6243C32.5717 27.4976 32.1656 27.1783 31.9994 27.1113C31.8766 27.062 31.7288 27.0155 31.5797 26.969L31.1492 26.8279C30.3228 26.5213 29.3927 26.2621 28.5866 25.9275C29.9042 26.9892 31.1777 28.3477 32.1632 29.7217C32.3673 30.0061 32.6167 30.3545 32.6846 30.6999C33.047 32.5518 32.6632 34.5595 32.0066 36.3045C31.6135 37.2957 31.1281 38.2345 30.4867 39.0895C29.7731 40.0414 28.8971 40.9079 27.8464 41.4799C27.617 41.6049 27.3571 41.7414 27.0943 41.7729C27.0069 41.7835 26.9006 41.7834 26.8144 41.7466L26.7355 41.6964C26.6754 41.639 26.6551 41.5564 26.653 41.4751L26.6566 41.395C26.6854 41.1085 27.0785 40.8896 27.288 40.7146C29.1717 39.1429 30.3766 36.634 30.7594 34.1975L30.8251 33.7121L30.8502 33.4621C30.8872 33.048 30.9431 32.3827 30.8789 31.9208L30.8431 31.7366C30.6832 31.1148 29.0557 28.9292 28.5711 28.3501C28.6628 28.8218 28.6831 29.3049 28.6309 29.7827C28.5078 30.9127 27.9719 31.9577 27.0799 32.6717C26.4885 33.1516 25.7507 33.4086 24.9956 33.4047L24.6716 33.3868C22.7267 33.1687 21.383 31.3266 21.3569 29.4359C21.3518 29.0672 21.3825 28.7474 21.4238 28.3836C20.7738 29.0829 20.2372 29.9459 19.7198 30.7453C19.4459 31.1686 19.1602 31.5185 19.1351 32.0332L19.1231 32.5629C19.1303 35.2076 20.0744 37.7708 21.7969 39.7927C22.2634 40.3298 22.7485 40.708 23.2773 41.1714L23.3012 41.1965C23.3528 41.2629 23.3786 41.376 23.3646 41.4536C23.2766 41.9409 22.7756 41.7835 22.3924 41.6007L22.0684 41.4321C21.1512 40.9028 20.413 40.1966 19.7545 39.3729C19.4723 39.0222 19.2108 38.6554 18.9724 38.274L18.7417 37.8878L18.6173 37.6629C17.6351 35.8241 17.042 33.4495 17.2374 31.348C17.2877 31.0926 17.3128 30.6091 17.4442 30.3901C18.2732 29.0104 19.3741 27.8008 20.5581 26.7179C20.8643 26.4379 21.1294 26.1705 21.437 25.9298C20.4185 26.327 19.2575 26.6619 18.2466 27.03L18.1019 27.0922C17.3162 27.4769 15.6433 28.884 15.1961 29.4012C14.5039 32.9177 15.6599 37.2657 17.9943 39.9636L18.1354 40.1299C18.2772 40.3075 18.3945 40.5165 18.2574 40.7254C18.204 40.8083 18.1188 40.8653 18.0218 40.8832C17.624 40.9592 16.993 40.3789 16.5629 39.9146L16.2162 39.5176C14.9473 37.9533 14.0421 36.1281 13.5651 34.1748L13.4754 33.7826C13.1505 32.2795 13.057 30.7516 13.2566 29.229L13.3008 28.9253C13.3418 28.6643 13.3707 28.2916 13.5244 28.0739C13.8177 27.6591 17.0503 25.2171 17.4897 25.0569C17.6951 24.9821 17.9184 24.9315 18.1438 24.8883L18.811 24.7687C19.6057 24.6127 20.4021 24.4621 21.199 24.3179C20.6221 24.2205 19.8266 23.9765 19.2307 23.83C18.9399 23.7586 18.1478 23.5669 17.7767 23.439L17.6463 23.3888C17.2471 23.2065 16.8324 22.9727 16.4087 22.761L15.9818 22.5589C15.7341 22.4495 15.4834 22.3465 15.2308 22.2492C15.0237 22.1705 14.7473 22.0815 14.5576 21.979C14.3805 21.6743 14.2421 21.2705 14.1379 20.8932L14.0446 20.5297C13.5481 18.4366 13.8298 16.1886 14.5444 14.1788C15.0339 12.8198 15.7639 11.4815 16.7531 10.4157L16.9552 10.2064C17.2236 9.93666 17.7362 9.4014 18.1438 9.57023C18.367 9.62446 18.3873 9.97268 18.2633 10.137L17.9046 10.6177C17.5573 11.0945 17.2419 11.568 16.9611 12.1209L16.7722 12.5107C15.8594 14.4824 15.4558 16.7584 15.7366 18.9106L15.7629 19.0875C15.8318 19.4997 15.9488 19.8987 16.0727 20.2953C16.6938 20.5765 17.2785 20.9111 17.8759 21.2376C18.4426 21.5472 19.0961 21.7634 19.7031 21.9873C20.2109 22.1777 20.7172 22.3744 21.2193 22.5792C20.1335 21.6874 19.0311 20.5564 18.1318 19.475C17.8202 19.1002 17.5905 18.8298 17.4813 18.388L17.4418 18.1859C17.3561 17.6078 17.3799 17.0984 17.4514 16.5202C17.692 14.6737 18.3928 12.9161 19.4902 11.4117C20.1999 10.4239 21.7197 8.84812 22.9317 8.64947C23.1145 8.65188 23.3552 8.7272 23.3526 8.94842C23.348 9.3072 22.9374 9.51802 22.7033 9.73525L22.5156 9.91462C20.5908 11.7983 19.3301 14.5759 19.318 17.2723C19.3166 17.5841 19.5875 17.952 19.77 18.2038L20.3667 19.0277C20.9879 19.8795 21.6774 20.7801 22.3828 21.4337C22.226 21.2027 22.0872 20.9751 21.9392 20.7341C20.9927 19.1927 21.2545 17.1114 22.8647 16.1339C23.0753 16.021 23.4037 15.8695 23.6408 15.9737C24.2691 16.2637 23.7001 16.6828 23.4662 16.9698L23.2295 17.2879C22.736 18.023 22.6552 18.7234 23.0405 19.5969C23.0175 18.9644 23.2253 18.2423 23.9242 18.0364C24.0294 18.0055 24.2513 17.9943 24.3451 18.0759C24.7803 18.4545 24.1416 18.7581 24.2937 19.1916C24.3182 19.2699 24.314 19.2709 24.3643 19.3028C24.7466 18.9018 25.2604 18.9892 25.6725 19.2944C25.8507 18.748 25.5412 18.7649 25.5338 18.3808C25.5242 17.8747 26.3076 17.9706 26.5609 18.2768C26.9455 18.7424 26.9597 19.0861 26.9544 19.6328C27.3928 18.5296 27.2935 17.9819 26.543 16.9961C26.4375 16.8448 26.1545 16.6296 26.1161 16.4472C25.962 15.713 26.9329 15.9559 27.2605 16.183C27.9232 16.6423 28.3669 17.325 28.5388 18.095C28.8128 19.3221 28.3165 20.3885 27.6742 21.3882C28.4997 20.5548 29.6121 19.1129 30.3636 18.0113L30.6613 17.5629C30.6811 17.2242 30.6781 16.8835 30.6517 16.5453C30.4978 14.516 29.5718 12.3072 28.253 10.7218L27.9839 10.4133C27.7618 10.1669 27.5239 9.93399 27.2724 9.71731C27.0811 9.55389 26.633 9.28435 26.6626 8.99864ZM21.9679 35.0191C22.3099 36.1679 22.8873 37.244 23.6767 38.1735C23.9937 38.537 24.2601 38.7336 24.9119 39.3048C24.9181 39.3101 24.9227 39.3172 24.9287 39.3227C24.9564 39.3475 24.9828 39.3728 25.0088 39.398C25.1233 39.2764 25.2185 39.1914 25.2707 39.1457C25.4173 39.0175 25.5589 38.9125 25.6282 38.8611C25.6729 38.828 25.6837 38.8197 25.6988 38.8085C26.7557 37.9263 27.5789 36.5377 28.0294 35.0298C26.9532 35.6916 25.6835 35.9866 24.4133 35.8537H24.4061L24.3954 35.8525C23.4859 35.7506 22.6724 35.4518 21.9679 35.0191ZM29.3196 27.8156C29.5976 28.1542 30.1111 28.8289 30.5812 29.5005C30.8308 29.857 31.0775 30.2249 31.2747 30.5504C31.4493 30.8383 31.654 31.2013 31.7327 31.507V31.5082C31.8241 31.8642 31.8326 32.2855 31.8248 32.6131C31.8165 32.9617 31.7861 33.3067 31.765 33.5434L31.7638 33.5566L31.7387 33.8053L31.7375 33.8149C31.7271 33.9073 31.7131 33.9995 31.7004 34.0923C31.9036 33.1099 31.9707 32.1175 31.8356 31.183L31.783 30.8768C31.7611 30.766 31.6533 30.5867 31.417 30.2574V30.2562C30.8119 29.4126 30.0902 28.5752 29.3196 27.8156ZM20.4863 28.056C19.6276 28.9115 18.8572 29.8305 18.2502 30.8338V30.8362C18.2405 30.8723 18.23 30.9259 18.2179 31.0012C18.2057 31.0771 18.1955 31.1544 18.1832 31.2451C18.1751 31.3048 18.162 31.3772 18.1497 31.4496C18.0761 32.2622 18.1349 33.1299 18.2968 33.9907C18.2169 33.3317 18.1868 32.6638 18.2167 31.9925V31.9877C18.2572 31.1621 18.7484 30.5559 18.9485 30.2467L19.3396 29.6416C19.6802 29.1192 20.0581 28.562 20.4863 28.056ZM25.0004 19.9605C24.6972 20.2538 24.2333 20.306 23.874 20.0788C23.8709 20.0769 23.8568 20.0656 23.8357 20.0513C23.7118 20.2676 23.5034 20.4323 23.2462 20.4914C23.121 20.5201 22.9956 20.5183 22.8755 20.4962C22.9663 20.6429 23.0491 20.7801 23.1422 20.9171C23.4045 21.3034 23.3348 21.8252 22.9807 22.1296C22.7282 22.3467 22.3896 22.4007 22.0911 22.3006C22.1689 22.5442 22.1464 22.817 22.0074 23.0504C21.8897 23.2475 21.7079 23.3854 21.5027 23.4522C21.8635 23.5786 22.1151 23.9199 22.1174 24.3131C22.119 24.619 21.9667 24.8914 21.7311 25.0605C21.9377 25.1305 22.1195 25.2726 22.2346 25.4743C22.4601 25.87 22.3612 26.3713 22.0026 26.6521C21.7317 26.864 21.5269 27.0753 21.1775 27.3947C21.1111 27.4555 21.0458 27.5174 20.9802 27.5788C21.2304 27.4412 21.5369 27.4263 21.8065 27.5501C22.1667 27.7158 22.3809 28.0937 22.3362 28.4876C22.2959 28.8426 22.271 29.1152 22.2752 29.4239C22.2964 30.949 23.3774 32.3131 24.7661 32.4732C25.3895 32.5384 26.0144 32.3528 26.5011 31.9578L26.5059 31.9542C27.1929 31.4042 27.6198 30.5884 27.7185 29.6822C27.7606 29.2967 27.7435 28.9068 27.6694 28.5259C27.5894 28.1148 27.7983 27.7016 28.1765 27.5214C28.4791 27.3773 28.8269 27.4139 29.0924 27.598C28.7383 27.2603 28.3776 26.9376 28.0114 26.6425C27.6557 26.3559 27.5642 25.8515 27.7974 25.4587C27.9158 25.2593 28.0994 25.1186 28.3068 25.0521C28.1 24.8991 27.9593 24.6639 27.9361 24.3945C27.9017 23.993 28.1337 23.6193 28.5029 23.4677C28.2961 23.408 28.1095 23.277 27.9851 23.0839C27.8264 22.8372 27.7999 22.5403 27.8919 22.2803C27.6233 22.3455 27.3299 22.2887 27.1002 22.1045C26.7337 21.8105 26.6478 21.2874 26.9017 20.892C26.9798 20.7705 27.0526 20.6511 27.1206 20.5344C27.0094 20.555 26.8927 20.5573 26.7762 20.5344C26.5026 20.4805 26.2773 20.3083 26.1496 20.0776C26.0877 20.1154 26.0216 20.1472 25.9511 20.1697C25.6701 20.2593 25.3631 20.2087 25.126 20.0334C25.0783 19.998 25.0369 19.9751 25.0064 19.9628C25.0044 19.962 25.0023 19.9612 25.0004 19.9605ZM30.1495 25.5161C30.5742 25.6571 31.0359 25.8064 31.4685 25.9669C31.5702 26.0047 31.6935 26.0425 31.8535 26.0925C31.9254 26.1149 32.0068 26.1399 32.0903 26.1678L32.3414 26.2599L32.5016 26.3364C32.6626 26.4245 32.819 26.5381 32.9082 26.6031L33.2968 26.8972C33.9579 27.4078 34.841 28.0683 35.4983 28.771C35.6168 28.8978 35.6977 29.0561 35.7303 29.2266C35.8642 29.9284 35.925 30.662 35.9264 31.409C35.9781 30.4405 35.9134 29.4854 35.7135 28.5893C35.6449 28.5148 35.537 28.4115 35.3883 28.2808C35.0841 28.0135 34.6715 27.6866 34.2295 27.3528C33.4299 26.749 32.5823 26.1592 32.2254 25.9179C32.1483 25.9004 32.0442 25.88 31.9229 25.8581C31.7733 25.8311 31.7034 25.8194 31.5593 25.7935C31.4823 25.7797 31.3855 25.7591 31.3011 25.7397V25.7421C30.8598 25.6586 30.4583 25.5704 30.067 25.4874C30.0945 25.4966 30.1218 25.5069 30.1495 25.5161ZM18.988 25.6692L18.9844 25.6704C18.5889 25.7465 18.3024 25.7835 18.0493 25.8461L17.8042 25.9203C17.8573 25.9009 17.8407 25.9008 17.6965 25.992C17.582 26.0645 17.4308 26.166 17.2517 26.291C16.8949 26.5401 16.4501 26.8661 16.0069 27.2022C15.5638 27.5382 15.1291 27.8785 14.7908 28.1576C14.6209 28.2978 14.4813 28.4176 14.3794 28.5104C14.3359 28.5499 14.3061 28.578 14.2873 28.5965C14.2823 28.6138 14.276 28.6376 14.2694 28.6694C14.2591 28.7191 14.2495 28.7764 14.2395 28.8452C14.2319 28.8975 14.2189 28.9863 14.2084 29.0544L14.2096 29.0556L14.1654 29.3606C14.0813 30.0076 14.0565 30.6576 14.0817 31.3085C14.0935 30.5968 14.1632 29.8973 14.2957 29.2243L14.3256 29.1095C14.3635 28.9966 14.4231 28.8916 14.5014 28.8009C14.7985 28.4572 15.4428 27.8845 16.0643 27.3875C16.384 27.1318 16.7185 26.8798 17.0257 26.6712C17.3126 26.4764 17.6423 26.2726 17.9333 26.1666C18.4553 25.9765 19.0158 25.7957 19.5512 25.6189C19.6776 25.5772 19.8026 25.5338 19.9267 25.4922C19.6139 25.5517 19.3004 25.6078 18.988 25.6692ZM36.3078 24.3239C36.3104 24.3225 36.3138 24.3228 36.3162 24.3215C36.3176 24.3208 36.3184 24.3187 36.3198 24.3179C36.3158 24.32 36.3118 24.3219 36.3078 24.3239ZM35.2842 17.6358C35.2693 18.4348 35.171 19.23 34.9769 20.0035L34.9757 20.0083C34.9286 20.1924 34.8785 20.3765 34.825 20.5595C34.7507 20.814 34.5694 21.0245 34.3288 21.1359C33.8926 21.3379 33.4055 21.5958 32.9907 21.8438C32.322 22.2437 31.6019 22.5054 30.9555 22.7287C30.5825 22.8575 30.2378 22.9729 29.9127 23.0946L30.9925 22.8232L30.9973 22.822C31.7501 22.6363 32.0394 22.5944 32.5148 22.2982C33.2304 21.8525 34.1342 21.5397 34.7665 21.2854C35.2104 20.1506 35.3651 18.8972 35.2842 17.6358ZM14.7334 17.692C14.6772 18.5829 14.7366 19.4695 14.9379 20.318C15.0181 20.6565 15.1181 21.0008 15.2308 21.2698L15.5573 21.3906L15.5609 21.3918C15.8262 21.4941 16.0894 21.6032 16.3501 21.7183L16.8188 21.9383C16.9707 22.0142 17.1169 22.0917 17.2553 22.1643C17.5419 22.3146 17.7897 22.4455 18.0278 22.5541H18.0266C18.0212 22.5517 18.0344 22.5567 18.0756 22.5709C18.1136 22.584 18.1635 22.6005 18.2239 22.6187C18.3445 22.655 18.4915 22.6959 18.6472 22.7371C18.9589 22.8195 19.28 22.8963 19.4496 22.938C19.635 22.9836 19.8193 23.035 20.0008 23.0839C19.7948 23.0039 19.5884 22.9247 19.3814 22.8471V22.8459C18.8202 22.639 18.0774 22.3929 17.4359 22.0423C16.8173 21.7043 16.2742 21.3952 15.6936 21.1323C15.455 21.0243 15.2743 20.8191 15.1961 20.5691C15.0707 20.1674 14.9376 19.7169 14.8577 19.2382L14.8541 19.2215L14.8278 19.0445L14.8254 19.0289V19.0277C14.7678 18.5855 14.7392 18.1392 14.7334 17.692ZM31.4637 15.6281C31.5106 15.9118 31.5452 16.1946 31.5665 16.4747L31.5845 16.7593C31.5969 17.0451 31.5939 17.3314 31.5773 17.6167C31.5681 17.7748 31.5185 17.9284 31.4326 18.0615C30.9669 18.7834 30.2637 19.7556 29.5576 20.6313C30.2828 19.9279 31.0023 19.1457 31.49 18.449L31.6287 18.2409C31.633 18.2279 31.6429 18.2005 31.6526 18.1536C31.6724 18.058 31.6871 17.9287 31.6957 17.7722C31.7127 17.4589 31.6979 17.1066 31.6729 16.8347V16.8335L31.649 16.617V16.6158C31.6044 16.2872 31.542 15.957 31.4637 15.6281ZM18.5384 15.6556C18.4639 15.977 18.4045 16.3027 18.3614 16.6314L18.3626 16.6326C18.2966 17.166 18.2803 17.5858 18.3494 18.052C18.3919 18.3379 18.4758 18.4516 18.8385 18.8878L19.1733 19.2812C19.5584 19.7244 19.9732 20.1683 20.4002 20.593C20.1278 20.2477 19.8658 19.9008 19.6242 19.5694L19.6218 19.5658L19.0263 18.7419C18.9423 18.6261 18.7941 18.4263 18.6723 18.2074C18.5596 18.0048 18.3979 17.6652 18.3997 17.2687L18.4176 16.7139C18.4391 16.3603 18.4803 16.007 18.5384 15.6556ZM24.9945 11.0171C24.9248 11.0925 24.8639 11.1555 24.8139 11.2025C24.654 11.3528 24.4952 11.4754 24.4312 11.5253C24.4047 11.5461 24.3855 11.5591 24.3738 11.5684C23.7827 12.1203 23.2669 12.7877 22.8552 13.5175C23.1801 13.4549 23.6456 13.4139 24.1658 13.5415L24.4731 13.6359L24.4994 13.6455L24.613 13.6921L24.6309 13.6993L24.6441 13.7041L24.662 13.7125L24.6752 13.7184L24.6812 13.7208C24.7703 13.762 24.8709 13.8166 24.9801 13.8811C25.5772 13.527 26.1768 13.4775 26.4832 13.4745C26.7295 13.4721 26.9612 13.4973 27.1696 13.5355C26.8739 12.9973 26.5315 12.5002 26.1532 12.0862C26.1492 12.0818 26.1451 12.0775 26.1412 12.073C25.9942 11.91 25.835 11.7552 25.6665 11.6091C25.6585 11.6029 25.6543 11.5996 25.6462 11.5935C25.6311 11.5823 25.6126 11.569 25.5792 11.5433C25.496 11.4793 25.3477 11.3623 25.193 11.218C25.1379 11.1667 25.0702 11.099 24.9945 11.0171ZM24.3607 11.5804C24.3567 11.5836 24.3564 11.5843 24.3583 11.5827C24.3596 11.5817 24.3619 11.58 24.3643 11.578L24.3667 11.5756C24.3642 11.5775 24.3623 11.5791 24.3607 11.5804Z" fill="#020101"/>
<path id="Vector_2" d="M23.1182 26.134C23.2383 26.1736 23.4565 26.3435 23.5812 26.4097C24.7422 27.0254 25.8406 26.8669 26.874 26.1311C27.6982 27.0815 28.2253 28.262 28.1457 29.5386C28.0842 30.5696 27.6103 31.5325 26.831 32.2102C23.7417 34.6758 19.8088 29.9705 23.1182 26.134Z" fill="#E76F51"/>
<path id="Vector_3" d="M24.8671 21.0158C26.2789 20.9116 27.5046 22.0164 27.6035 23.4825C27.7025 24.9487 26.6372 26.2203 25.2252 26.3214C23.8153 26.4225 22.593 25.3185 22.4942 23.8544C22.3954 22.3903 23.4574 21.12 24.8671 21.0158Z" fill="#E76F51"/>
<path id="Vector_4" d="M17.0549 10.8647C17.0543 10.9453 16.8441 11.2885 16.7924 11.3762C15.6074 13.3876 15.0295 15.7788 15.1464 18.1087C15.1854 18.8883 15.3228 19.7643 15.6184 20.4843C15.1967 20.6909 15.0138 20.8203 14.7716 21.2313C14.5593 20.9991 14.3285 19.1059 14.312 18.6859C14.2094 16.0812 15.2723 12.7761 17.0549 10.8647Z" fill="#E76F51"/>
<path id="Vector_5" d="M36.1263 28.7073C36.2955 28.9263 36.3509 30.5918 36.3473 30.9736C36.3199 33.7971 35.0853 37.5823 33.0077 39.5642L33.0011 39.5605C32.993 39.521 33.5206 38.7405 33.5875 38.6284C35.056 36.1648 36.0086 32.1814 35.3307 29.3525C35.7123 29.2332 35.9256 29.0388 36.1263 28.7073Z" fill="#E76F51"/>
<path id="Vector_6" d="M32.9253 10.8361C33.5525 11.3185 34.4956 13.1194 34.7954 13.8672C35.5796 15.824 35.9346 17.9479 35.5381 20.0363C35.4792 20.3462 35.3647 20.9413 35.2471 21.2193C34.9954 20.8255 34.7932 20.6937 34.3887 20.4795C34.4077 20.4306 34.4258 20.3815 34.4434 20.332C34.6599 19.7238 34.7825 19.0104 34.8354 18.3666C35.0076 16.2789 34.6433 14.3826 33.8101 12.4772C33.6726 12.1684 33.519 11.867 33.3499 11.5744C33.2131 11.3411 33.0356 11.0791 32.9253 10.8361Z" fill="#E76F51"/>
<path id="Vector_7" d="M13.8768 28.7158C14.1592 29.0918 14.2549 29.187 14.6986 29.3611C14.6579 29.5461 14.624 29.7327 14.597 29.9202C14.1183 33.1897 15.1262 37.0015 17.0941 39.6497L17.0738 39.6538C16.8951 39.5593 16.224 38.6719 16.0757 38.4604C14.0878 35.6287 13.2976 32.127 13.8768 28.7158Z" fill="#E76F51"/>
<path id="Vector_8" d="M32.2185 31.1003L32.2405 31.1296C32.6199 34.4399 30.958 38.8362 28.1086 40.6982L28.0913 40.686C28.1392 40.6023 28.5283 40.2095 28.6277 40.0942C30.6291 37.7383 31.6143 34.6843 31.3669 31.6028C31.7751 31.5251 31.9597 31.4326 32.2185 31.1003Z" fill="#E76F51"/>
<path id="Vector_9" d="M17.7825 31.0242C17.7926 31.0393 17.8028 31.0544 17.8133 31.0696C18.0548 31.4146 18.2659 31.5203 18.6595 31.5928C18.4533 34.8362 19.3708 37.9653 21.6445 40.3821C21.7032 40.4446 21.8689 40.5779 21.8758 40.6475C21.1881 40.2119 20.5239 39.5222 20.0276 38.8757C18.3806 36.731 17.4589 33.7129 17.7825 31.0242Z" fill="#E76F51"/>
<path id="Vector_10" d="M21.9935 9.64618L22.0063 9.6713C20.0632 11.604 18.6552 14.813 18.8378 17.5769C18.4195 17.674 18.2464 17.7824 17.9432 18.0849L17.9226 18.0641C17.8264 17.619 17.9406 16.4879 18.0375 16.0256C18.5495 13.5806 19.9052 11.0674 21.9935 9.64618Z" fill="#E76F51"/>
<path id="Vector_11" d="M28.0132 9.68658C28.3271 9.76112 29.333 10.7551 29.5764 11.0428C31.1948 12.956 32.2439 15.577 32.0925 18.0898C31.7407 17.7582 31.6492 17.7037 31.1802 17.5608C31.1892 17.3958 31.1948 17.2306 31.197 17.0654C31.2043 14.8489 30.1604 12.2674 28.7981 10.539C28.571 10.2508 28.272 9.94806 28.0132 9.68658Z" fill="#E76F51"/>
<path id="Vector_12" d="M17.4362 25.655C17.4901 25.6985 17.5236 25.863 17.548 25.9387C17.6313 26.197 17.7042 26.3999 17.8515 26.6277C17.1846 27.0398 15.1261 28.5332 14.7845 29.1653C14.6645 29.1357 14.6066 29.1143 14.4913 29.0681C14.2104 28.9038 14.062 28.668 13.9272 28.3845C14.0785 28.2219 14.5337 27.8562 14.7204 27.7051C15.6003 26.9917 16.5341 26.3374 17.4362 25.655Z" fill="#E76F51"/>
<path id="Vector_13" d="M32.5623 25.644C33.5693 26.3689 35.2366 27.5647 36.095 28.3909C35.9517 28.6636 35.852 28.824 35.6138 29.0198C35.491 29.1006 35.4246 29.1211 35.2895 29.1714C34.6541 28.366 33.0574 27.1975 32.1973 26.6145C32.3848 26.2729 32.4683 26.0186 32.5623 25.644Z" fill="#E76F51"/>
<path id="Vector_14" d="M27.8647 24.6145C28.8269 24.8264 29.7917 25.0266 30.7588 25.2153C31.2869 25.3208 31.8645 25.4229 32.3843 25.5469C32.2878 25.9402 32.2407 26.0999 32.0681 26.4702L32.0061 26.5383C31.9253 26.5479 31.7847 26.4958 31.7039 26.4702L27.6577 25.1309C27.7302 24.9602 27.7993 24.7881 27.8647 24.6145Z" fill="#E76F51"/>
<path id="Vector_15" d="M22.1284 24.6426C22.1888 24.6895 22.3117 25.0259 22.3521 25.1233C21.0934 25.592 19.7195 25.9128 18.462 26.4163C18.3386 26.4656 18.0956 26.5603 17.9829 26.5039C17.7781 26.1853 17.724 25.9121 17.6377 25.5513C17.8531 25.4954 18.0727 25.4458 18.2911 25.4036C19.5696 25.1565 20.8482 24.8779 22.1284 24.6426Z" fill="#E76F51"/>
<path id="Vector_16" d="M22.5623 25.5522C22.6314 25.5869 22.8633 25.8801 22.9851 25.9907C22.1934 26.7153 21.4853 27.5078 20.7949 28.3267C20.5746 28.5879 20.2408 29.0735 20.0318 29.2891C19.96 29.2971 19.9022 29.2598 19.8336 29.2285C19.5725 29.0559 19.5129 28.9766 19.3291 28.7212C19.6207 28.3247 20.2717 27.6921 20.6253 27.3479C21.2501 26.7273 21.8961 26.1284 22.5623 25.5522Z" fill="#E76F51"/>
<path id="Vector_17" d="M27.4219 25.5344C27.6819 25.7244 28.0947 26.1387 28.3472 26.366C29.179 27.1143 29.9414 27.8557 30.6851 28.6921C30.5525 28.9553 30.4416 29.0505 30.208 29.2092L29.9944 29.324C29.001 27.9802 28.2258 27.1169 27.0171 26.0056C27.189 25.8457 27.2866 25.7231 27.4219 25.5344Z" fill="#E76F51"/>
<path id="Vector_18" d="M31.7666 21.9965L31.814 22.0107C31.9587 22.2522 32.0542 22.6868 32.1008 22.9612C31.5935 23.1064 30.948 23.2432 30.4263 23.3703C29.7212 23.5442 29.0178 23.7255 28.3164 23.9144L27.9995 24.0001L28.0095 23.3599C28.4099 23.2562 28.9192 23.0641 29.3164 22.9189L31.7666 21.9965Z" fill="#E76F51"/>
<path id="Vector_19" d="M18.2203 21.9848C19.5004 22.4285 20.6736 22.9454 21.9975 23.3764C21.9965 23.5712 22.0489 23.8275 21.9973 23.9636C21.9198 23.9999 21.9174 23.9772 21.8073 23.9458L17.9663 22.9564C18.0095 22.539 18.0569 22.3743 18.2203 21.9848Z" fill="#E76F51"/>
<path id="Vector_20" d="M15.7042 20.6744C15.8157 20.6851 17.7754 21.7703 18.06 21.9246C17.8966 22.2689 17.8231 22.494 17.7824 22.8731L17.4614 22.707C16.9628 22.442 16.4535 22.1976 15.9347 21.9746C15.5873 21.8286 15.2244 21.7023 14.8848 21.5436C15.0044 21.0655 15.2695 20.8514 15.7042 20.6744Z" fill="#E76F51"/>
<path id="Vector_21" d="M34.279 20.6846C34.5749 20.7691 35.0972 21.1707 35.1265 21.49C35.0959 21.5736 35.1204 21.557 35.033 21.5979C34.7549 21.7279 34.4558 21.8191 34.1699 21.9379C33.6643 22.1527 33.1677 22.3884 32.6819 22.6446L32.2766 22.8649C32.2224 22.5 32.114 22.2626 31.9839 21.9173C32.7534 21.5162 33.5056 21.0839 34.279 20.6846Z" fill="#E76F51"/>
<path id="Vector_22" d="M23.7986 18.674L23.8171 18.6979C23.8095 18.7601 23.8026 18.8223 23.7964 18.8846C23.7683 19.1945 23.9184 20.0053 24.3508 20.0367C24.7919 20.0687 24.7155 19.7287 24.869 19.576C25.1708 19.4285 25.2248 19.7217 25.3112 19.8923C25.3776 20.0231 25.6112 20.0306 25.754 20.0474C26.1647 19.7388 26.2626 19.1629 26.2265 18.6815C26.3888 18.9668 26.4066 19.0398 26.465 19.3694C26.4936 19.9741 26.4049 20.2612 26.2211 20.8212C25.31 20.4657 24.6781 20.4785 23.7683 20.8272C23.5776 20.15 23.3717 19.2953 23.7986 18.674Z" fill="#E76F51"/>
<path id="Vector_23" d="M30.8142 28.8296C31.0437 28.9783 32.0337 30.4365 32.1821 30.7444C32.0305 31.136 31.8484 31.2761 31.4626 31.4063C31.3521 31.4304 31.3272 31.4368 31.2664 31.3381C31.1187 31.0981 30.9766 30.855 30.8293 30.615C30.5935 30.2317 30.3467 29.8557 30.0889 29.4871C30.4358 29.3164 30.6187 29.1565 30.8142 28.8296Z" fill="#E76F51"/>
<path id="Vector_24" d="M19.2058 28.865C19.485 29.1758 19.5245 29.2861 19.9376 29.4644C19.5468 30.095 19.1151 30.707 18.7479 31.3552C18.7214 31.4021 18.6916 31.3921 18.6465 31.3936C18.2117 31.3076 18.0021 31.1179 17.8618 30.7058C18.1502 30.1809 18.8011 29.3057 19.2058 28.865Z" fill="#E76F51"/>
<path id="Vector_25" d="M20.2442 19.8192C20.324 19.8393 20.3291 19.8577 20.3826 19.9222C21.033 20.7058 21.6575 21.4653 22.3931 22.173C22.2913 22.3709 22.2167 22.5208 22.1329 22.726L21.9588 22.5786C21.1499 21.873 20.3585 21.1006 19.5825 20.3571C19.8241 20.0483 19.8923 19.9847 20.2442 19.8192Z" fill="#E76F51"/>
<path id="Vector_26" d="M18.8094 17.7731H18.8681C18.8719 17.7756 20.0637 19.4937 20.1993 19.6768C19.7475 19.8109 19.7529 19.9349 19.4515 20.1999C19.0034 19.7199 18.3197 18.9551 17.9907 18.388C18.2426 17.9837 18.3604 17.9177 18.8094 17.7731Z" fill="#E76F51"/>
<path id="Vector_27" d="M31.147 17.7601C31.1826 17.7672 31.2183 17.7754 31.2537 17.7846C31.6028 17.8776 31.8555 18.0887 32.0352 18.3971C31.7708 18.8311 30.9966 19.7317 30.6353 20.1238C30.5881 20.1793 30.6179 20.1635 30.552 20.1836C30.3237 19.9326 30.134 19.7966 29.833 19.6514C30.2703 19.0084 30.7061 18.4325 31.147 17.7601Z" fill="#E76F51"/>
<path id="Vector_28" d="M29.7229 19.7659C29.9963 19.8413 30.2593 20.127 30.4465 20.3255C30.2468 20.5456 29.8582 20.8812 29.6279 21.0921C29.1484 21.534 28.6663 21.9732 28.1814 22.4095C28.0779 22.4952 27.9729 22.5877 27.8706 22.6754L27.6289 22.1655C28.5046 21.3324 28.969 20.6609 29.7229 19.7659Z" fill="#E76F51"/>
<path id="Vector_29" d="M23.0081 16.647L23.0176 16.6491C23.0224 16.6566 23.0273 16.6642 23.0321 16.6718C22.9084 16.8332 22.7948 16.9934 22.6926 17.1688C21.8811 18.5614 22.3609 19.934 23.4211 21.0327C23.2921 21.1396 23.1641 21.2476 23.037 21.3567L22.9988 21.3687C22.9173 21.2979 22.7667 21.0696 22.702 20.964C22.1796 20.1112 21.7232 19.2669 21.9568 18.2346C22.0969 17.6155 22.4717 16.9867 23.0081 16.647Z" fill="#E76F51"/>
<path id="Vector_30" d="M26.9395 16.6422C26.9529 16.6463 26.9666 16.6505 26.9802 16.6547C28.4268 17.607 28.335 19.4135 27.4561 20.7348C27.3547 20.8871 27.1086 21.3111 27.0073 21.3594C26.866 21.2493 26.7263 21.1371 26.5884 21.0227C27.8826 19.6401 28.178 18.1568 26.9395 16.6422Z" fill="#E76F51"/>
</g>
<path id="Union" d="M22.9639 6.16986C23.3135 6.1744 23.871 6.24038 24.4336 6.55853C24.6253 6.66707 24.8241 6.81359 25.0107 6.99603C25.1308 6.87591 25.265 6.75987 25.418 6.65619C26.1568 6.15561 26.9156 6.1458 27.3066 6.17865C28.0559 6.24181 28.6809 6.5638 28.9082 6.68646C29.4113 6.95807 29.884 7.27057 30.3252 7.61615C30.4604 7.5161 30.6071 7.42301 30.7686 7.34467C31.3028 7.08562 31.8281 7.03874 32.2432 7.07123C32.986 7.12944 33.5561 7.45519 33.8203 7.62103V7.62201C34.1527 7.83075 34.4438 8.07439 34.6504 8.26459L34.8271 8.43353L34.8379 8.44427L34.9639 8.57318C34.9703 8.5797 34.9762 8.58699 34.9824 8.59369L35.2344 8.86322L35.2451 8.87689C36.574 10.3719 37.4347 12.1551 37.9834 13.8369L38.1387 14.3447C38.8768 16.9142 38.9968 19.9269 37.877 22.6689V22.6718L37.8584 22.7128C37.8521 22.7282 37.845 22.7437 37.8379 22.7587L37.8193 22.7997C37.7174 23.0132 37.5754 23.2512 37.3936 23.4775C37.2554 23.6493 36.8818 24.0877 36.2539 24.3525C36.2445 24.3565 36.2356 24.3605 36.2285 24.3632C36.221 24.3663 36.2127 24.3682 36.2051 24.371C36.1404 24.3982 36.0759 24.4212 36.0146 24.4462C36.1018 24.5111 36.1905 24.575 36.2773 24.6406C36.7425 24.9918 37.2344 25.3773 37.6328 25.7275C37.8288 25.8998 38.0454 26.0997 38.2354 26.3085C38.3293 26.4118 38.4522 26.5559 38.5703 26.7285L38.6602 26.8671C38.7484 27.0116 38.8631 27.2275 38.9473 27.498L38.9932 27.6669L38.9961 27.6806L39.0684 28.0058L39.0713 28.0185C39.8226 31.6283 38.959 35.631 37.3613 38.6367C37.3592 38.641 37.3586 38.646 37.3564 38.6503C36.6721 39.953 35.7728 41.1317 34.6992 42.1386L34.6943 42.1464C34.6858 42.1549 34.6758 42.1627 34.667 42.1708C34.5827 42.2487 34.176 42.6449 33.6748 42.9296C33.2447 43.1738 31.8263 43.8367 30.4072 42.8398L30.3428 42.789C29.9434 43.104 29.512 43.3955 29.0459 43.6503C29.0417 43.6527 29.0384 43.6568 29.0342 43.6591C28.8576 43.7553 28.1955 44.1397 27.3896 44.2363C27.3806 44.2373 27.3713 44.2365 27.3623 44.2372C27.1676 44.2591 26.866 44.2774 26.5156 44.2216C26.1549 44.1641 25.5584 44 25.0273 43.496V43.4951L25.0254 43.4941C25.0134 43.4827 25.0028 43.4694 24.9912 43.4579C24.7537 43.6914 24.4624 43.8943 24.1084 44.041C23.2843 44.3822 22.5318 44.2419 22.2129 44.165C21.8726 44.0828 21.5557 43.949 21.3281 43.8417C21.2111 43.7866 21.1104 43.734 21.0342 43.6933C20.9961 43.673 20.9638 43.655 20.9395 43.6415C20.9297 43.6362 20.9141 43.6286 20.9092 43.6259C20.9075 43.625 20.9054 43.6246 20.9043 43.624L20.8818 43.6122C20.8678 43.6048 20.8535 43.5959 20.8398 43.5878L20.8174 43.5751V43.5742C20.4043 43.335 20.025 43.0695 19.6709 42.789C19.3363 43.0427 18.9484 43.2222 18.5303 43.3085C18.516 43.312 18.5018 43.3174 18.4873 43.3203C17.4913 43.5104 16.6912 43.1213 16.3711 42.9462C15.9732 42.7286 15.6378 42.457 15.3994 42.246C14.93 41.8305 14.5278 41.3675 14.3252 41.124L14.3203 41.1191C14.3099 41.1073 14.2999 41.0943 14.29 41.082L14.2852 41.0761V41.0742C12.6874 39.1026 11.5777 36.7808 11.0488 34.2988C11.0479 34.294 11.0487 34.2889 11.0479 34.2841C10.649 32.4275 10.5428 30.4942 10.8496 28.54C10.8536 28.5098 10.8971 28.1932 10.9414 27.9794C10.9916 27.7376 11.12 27.1777 11.5 26.6406C11.5048 26.6339 11.5107 26.6276 11.5156 26.621C11.7274 26.3279 11.994 26.0851 12.0908 25.997C12.2496 25.8525 12.4369 25.6937 12.6279 25.5361C13.0131 25.2183 13.4866 24.8479 13.9531 24.4941C13.9746 24.4778 13.997 24.4606 14.0186 24.4443C13.9156 24.4045 13.7975 24.3591 13.6807 24.3076L13.377 24.1601L12.9912 23.9521C12.8425 23.8717 12.7188 23.7515 12.6338 23.6054L12.4121 23.2245C11.9775 22.4766 11.7456 21.5821 11.6318 21.1025C10.998 18.4302 11.3762 15.6831 12.207 13.3466C12.2081 13.3436 12.2089 13.3399 12.21 13.3369C12.8207 11.6414 13.7851 9.87376 15.1963 8.45599C15.2852 8.36671 15.6506 7.98255 16.0908 7.67963C16.3877 7.47542 17.5542 6.7109 18.9775 7.23334L18.9756 7.23529C19.2524 7.32956 19.4905 7.45823 19.6943 7.60834C20.3899 7.04334 21.3865 6.38752 22.5312 6.20013H22.5322L22.667 6.17865C22.7195 6.17014 22.774 6.16625 22.8271 6.16693L22.9639 6.16986ZM22.9961 43.3398C23.0358 43.3397 23.0764 43.3383 23.1182 43.3359C23.0765 43.3383 23.0358 43.3397 22.9961 43.3398ZM22.8672 43.3359C22.8933 43.3374 22.92 43.3382 22.9473 43.3388C22.92 43.3382 22.8933 43.3374 22.8672 43.3359ZM23.1748 43.332C23.2236 43.3278 23.2734 43.3216 23.3242 43.3134C23.2734 43.3216 23.2236 43.3278 23.1748 43.332ZM22.4287 43.2714C22.3009 43.2406 22.1734 43.199 22.0527 43.1533C22.1731 43.1989 22.3002 43.2406 22.4277 43.2714C22.4844 43.2851 22.5558 43.2986 22.6377 43.3115C22.5561 43.2987 22.4853 43.2851 22.4287 43.2714ZM23.5498 43.2646C23.4833 43.2836 23.4176 43.2972 23.3535 43.3085C23.4176 43.2972 23.4834 43.2845 23.5498 43.2656V43.2646ZM27.5029 43.288C27.5733 43.2733 27.6416 43.2543 27.708 43.2353C27.6415 43.2543 27.5733 43.2733 27.5029 43.288ZM26.3262 43.2324L26.3252 43.2314L26.3262 43.2324ZM27.7666 43.2177C27.8093 43.2046 27.851 43.191 27.8916 43.1767C27.851 43.191 27.8093 43.2046 27.7666 43.2177ZM27.9482 43.1562C27.9934 43.1394 28.0372 43.1228 28.0791 43.1054C28.0372 43.1228 27.9934 43.1395 27.9482 43.1562ZM25.6592 42.8281C25.4591 42.6376 25.3266 42.4302 25.2412 42.2285C25.3265 42.4304 25.4581 42.6386 25.6582 42.829L25.6602 42.83C25.7479 42.9132 25.8392 42.982 25.9297 43.04C25.8392 42.9819 25.7479 42.9123 25.6602 42.829L25.6592 42.8281ZM28.1025 43.0947C28.2073 43.0504 28.3012 43.0063 28.3809 42.9658C28.3012 43.0063 28.2073 43.0504 28.1025 43.0947ZM28.5938 42.8525H28.5947C28.5487 42.8776 28.4833 42.9128 28.4033 42.954C28.4835 42.9127 28.5486 42.8776 28.5947 42.8525L28.5938 42.8515V42.8525ZM21.2871 42.7861V42.7851V42.7861ZM31.9912 42.4511C32.0198 42.4521 32.0481 42.4513 32.0762 42.4511C32.0481 42.4513 32.0198 42.4521 31.9912 42.4511ZM18.1885 42.4384H18.1895H18.1885ZM31.835 42.4384C31.8781 42.4435 31.9207 42.4471 31.9629 42.4492C31.9207 42.447 31.8781 42.4435 31.835 42.4384ZM32.249 42.4423C32.2631 42.441 32.2771 42.441 32.291 42.4394C32.2771 42.441 32.2631 42.441 32.249 42.4423ZM31.666 42.4101C31.7067 42.4187 31.747 42.4258 31.7871 42.4316C31.747 42.4258 31.7067 42.4187 31.666 42.4101ZM32.3545 42.4296C32.3796 42.426 32.4043 42.4223 32.4287 42.4179C32.4043 42.4222 32.3796 42.4261 32.3545 42.4296ZM31.5039 42.3681C31.5429 42.38 31.5816 42.3902 31.6201 42.3994C31.5816 42.3902 31.5429 42.3801 31.5039 42.3681ZM19.5713 41.5703C19.3572 41.9031 19.0484 42.1595 18.6885 42.3076C19.0484 42.1594 19.3582 41.9039 19.5723 41.5712L19.5713 41.5703ZM32.6338 42.371C32.6747 42.3599 32.7137 42.3465 32.752 42.3339C32.7137 42.3465 32.6747 42.3599 32.6338 42.371ZM16.875 42.1708C16.9676 42.2189 17.0849 42.2772 17.2246 42.3261C17.0849 42.2772 16.9676 42.2189 16.875 42.1708ZM31.3291 42.3046C31.3694 42.3214 31.4092 42.3369 31.4492 42.3505C31.4093 42.3369 31.3694 42.3214 31.3291 42.3046ZM22.248 42.3476L22.2471 42.3456C22.2453 42.3441 22.243 42.3423 22.2412 42.3408L22.248 42.3476ZM32.873 42.2939C32.8988 42.284 32.9232 42.2727 32.9473 42.2626C32.9232 42.2727 32.8988 42.284 32.873 42.2939ZM31.1514 42.2197C31.1939 42.2426 31.236 42.2641 31.2783 42.2831C31.236 42.264 31.1939 42.2426 31.1514 42.2197ZM30.5127 41.6835C30.6298 41.8364 30.7715 41.9732 30.9346 42.0878V42.0888C30.9915 42.1288 31.0495 42.1637 31.1064 42.1962C31.0497 42.1638 30.9923 42.1277 30.9355 42.0878C30.7721 41.973 30.6299 41.8367 30.5127 41.6835ZM24.8525 41.9462H24.8535H24.8525ZM16.2715 41.7773C16.4074 41.8839 16.559 41.9895 16.7207 42.0849C16.559 41.9894 16.4074 41.8838 16.2715 41.7773ZM34.0508 41.4902L34.0449 41.496V41.497L34.0508 41.4911C34.1719 41.3781 34.29 41.2612 34.4062 41.1435C34.29 41.2611 34.1719 41.3772 34.0508 41.4902ZM25.1016 41.2372C25.0967 41.2853 25.0896 41.3707 25.0908 41.4814C25.0896 41.3709 25.0977 41.2852 25.1025 41.2372C25.1046 41.2164 25.1086 41.1961 25.1113 41.1757C25.1086 41.1961 25.1037 41.2164 25.1016 41.2372ZM23.3652 41.4228C23.3647 41.4336 23.367 41.4442 23.3652 41.454L23.3672 41.3915C23.3677 41.4023 23.3657 41.4126 23.3652 41.4228ZM25.1426 40.999C25.1388 41.0154 25.1352 41.032 25.1318 41.0488C25.1352 41.032 25.1388 41.0154 25.1426 40.999ZM34.5127 41.0331C34.587 40.956 34.6602 40.8778 34.7324 40.7988C34.6602 40.8778 34.587 40.956 34.5127 41.0331ZM32.25 40.8583C32.2584 40.8557 32.267 40.8534 32.2754 40.8505C32.267 40.8534 32.2584 40.8558 32.25 40.8583ZM32.5469 40.7089C32.5562 40.7026 32.5659 40.6968 32.5752 40.6904C32.5659 40.6968 32.5562 40.7026 32.5469 40.7089ZM25.4482 40.3095C25.3749 40.4164 25.306 40.5405 25.2471 40.6796C25.306 40.5405 25.3749 40.4164 25.4482 40.3095ZM34.8545 40.663C34.9289 40.5791 35.0031 40.495 35.0752 40.4091C35.0031 40.495 34.929 40.5791 34.8545 40.663ZM14.458 39.789C14.632 40.0315 14.8133 40.2694 15.002 40.5019L15.0117 40.5136H15.0127L15.0078 40.5087L15.0029 40.5019C14.8142 40.2692 14.6321 40.0317 14.458 39.789ZM31.7021 40.5136C31.7005 40.5258 31.6987 40.5378 31.6982 40.5497C31.6987 40.5378 31.7005 40.5258 31.7021 40.5136ZM25.5703 40.1494C25.5375 40.1892 25.5037 40.2319 25.4707 40.2783C25.5037 40.2319 25.5375 40.1892 25.5703 40.1494ZM35.1904 40.2685C35.2538 40.1907 35.3165 40.1125 35.3779 40.0331C35.3165 40.1124 35.2538 40.1907 35.1904 40.2685ZM25.6094 40.1015C25.6019 40.1101 25.5945 40.1189 25.5869 40.1279C25.6247 40.0831 25.6616 40.0428 25.6963 40.0068L25.6094 40.1015ZM35.4775 39.9013C35.5517 39.8029 35.6252 39.7041 35.6963 39.6035C35.6251 39.7041 35.5517 39.8029 35.4775 39.9013ZM26.1748 39.5986C26.1408 39.6238 26.0955 39.6588 26.0439 39.6992C26.0955 39.659 26.1408 39.6248 26.1748 39.5995C26.192 39.5868 26.2058 39.5761 26.2178 39.5673L26.1748 39.5986ZM35.7617 39.5097C35.8276 39.4146 35.8919 39.3185 35.9551 39.2216C35.8919 39.3185 35.8276 39.4147 35.7617 39.5097ZM21.9678 35.0195C22.3098 36.1682 22.8874 37.2444 23.6768 38.1738C23.9937 38.5371 24.2604 38.7335 24.9121 39.3046C24.9182 39.31 24.9228 39.3177 24.9287 39.3232C24.9564 39.3479 24.9829 39.3733 25.0088 39.3984C25.1233 39.2767 25.2183 39.1911 25.2705 39.1454C25.4169 39.0174 25.5586 38.9127 25.6279 38.8613C25.6723 38.8284 25.6833 38.8196 25.6982 38.8085C26.7551 37.9264 27.5788 36.538 28.0293 35.0302C26.9532 35.6919 25.6832 35.9863 24.4131 35.8535H24.4062L24.3955 35.8525C23.4861 35.7505 22.6722 35.4521 21.9678 35.0195ZM22.9766 38.7675V38.7685C23.0703 38.8764 23.1628 38.9735 23.2578 39.0673C23.1628 38.9734 23.0703 38.8754 22.9766 38.7675ZM28.7617 39.1171C28.7739 39.1004 28.7868 39.0842 28.7988 39.0673C28.8111 39.0502 28.8228 39.0328 28.835 39.0156C28.8109 39.0497 28.7862 39.0833 28.7617 39.1171ZM36.0449 39.0829C36.1299 38.9487 36.2132 38.8133 36.293 38.6757C36.2132 38.8133 36.1299 38.9487 36.0449 39.0829ZM29.0234 38.7382C29.0392 38.7143 29.0558 38.691 29.0713 38.6669C29.0882 38.6408 29.1044 38.6142 29.1211 38.5878C29.0891 38.6384 29.0562 38.6883 29.0234 38.7382ZM29.2744 38.3369C29.2904 38.3099 29.3065 38.2829 29.3223 38.2558C29.3506 38.2072 29.3787 38.1584 29.4062 38.1093C29.3633 38.1858 29.3192 38.2615 29.2744 38.3369ZM29.9502 37.0038C29.9601 36.9806 29.9707 36.9578 29.9805 36.9345C30.0041 36.878 30.0251 36.8205 30.0479 36.7636C30.0157 36.8439 29.9841 36.9243 29.9502 37.0038ZM21.2646 35.8183C21.3616 36.0854 21.4695 36.3486 21.5898 36.6064C21.4695 36.3486 21.3615 36.0854 21.2646 35.8183ZM30.1299 36.5585C30.161 36.4765 30.1905 36.394 30.2197 36.3115C30.1905 36.394 30.161 36.4765 30.1299 36.5585ZM29.0273 34.8642C29.0462 34.7896 29.0669 34.7154 29.084 34.6406L29.1016 34.5576C29.079 34.6601 29.0531 34.7621 29.0273 34.8642ZM29.1201 34.4658C29.1422 34.3606 29.1639 34.2556 29.1826 34.1503C29.164 34.2556 29.1422 34.3606 29.1201 34.4658ZM11.7207 32.8007C11.749 33.0155 11.7813 33.23 11.8184 33.4433L11.9473 34.1083L11.9482 34.1074C11.8549 33.6751 11.7786 33.2393 11.7207 32.8007ZM29.293 33.3232C29.2711 33.5684 29.2377 33.815 29.1963 34.0615C29.2377 33.8152 29.2721 33.5692 29.2939 33.3242C29.3045 33.2058 29.3151 33.0778 29.3242 32.9472L29.293 33.3232ZM20.6865 32.4628C20.6844 32.7509 20.6962 33.0379 20.7197 33.3232C20.6963 33.0383 20.6854 32.7516 20.6875 32.4638L20.6865 32.4628ZM24.4902 33.3613C24.5499 33.3712 24.6101 33.3798 24.6709 33.3867C24.7252 33.3923 24.7797 33.3964 24.834 33.3994C24.7798 33.3964 24.7251 33.3923 24.6709 33.3867C24.6101 33.3798 24.5499 33.3712 24.4902 33.3613ZM23.1885 32.8525C23.2854 32.9154 23.3853 32.974 23.4883 33.0273C23.3853 32.974 23.2854 32.9154 23.1885 32.8525ZM26.5889 32.999C26.5789 33.0044 26.5696 33.0112 26.5596 33.0165C26.572 33.0099 26.5843 33.0029 26.5967 32.996C26.5943 32.9974 26.5913 32.9976 26.5889 32.999ZM26.6807 32.9482C26.666 32.9569 26.6505 32.9642 26.6357 32.9726C26.6321 32.9747 26.6287 32.9773 26.625 32.9794C26.6901 32.9427 26.7547 32.9045 26.8174 32.8632L26.6807 32.9482ZM11.6514 32.1718C11.6643 32.3154 11.6813 32.4585 11.6982 32.6015C11.6812 32.4585 11.6644 32.3154 11.6514 32.1718ZM11.6084 31.5468C11.6114 31.6084 11.6135 31.6699 11.6172 31.7314C11.6134 31.6699 11.6114 31.6084 11.6084 31.5468ZM11.5957 30.4394C11.5949 30.4667 11.5944 30.4941 11.5938 30.5214C11.5944 30.4941 11.5949 30.4667 11.5957 30.4394ZM28.6172 29.8847C28.6124 29.9209 28.6091 29.9572 28.6035 29.9931C28.6091 29.9572 28.6124 29.9209 28.6172 29.8847ZM11.6279 29.8183C11.6252 29.8561 11.6216 29.8938 11.6191 29.9316C11.6216 29.8938 11.6252 29.8561 11.6279 29.8183ZM20.7354 29.2275C20.663 29.3264 20.5916 29.4264 20.5215 29.5273C20.5915 29.4266 20.6631 29.3271 20.7354 29.2285C20.8078 29.1295 20.881 29.0315 20.9561 28.9355L20.7354 29.2275ZM36.5801 28.2441V28.2451V28.2441ZM11.6846 29.2167C11.6802 29.2542 11.675 29.2916 11.6709 29.329C11.675 29.2916 11.6802 29.2542 11.6846 29.2167ZM36.2217 27.7978V27.7968V27.7978ZM17.9336 27.1826H17.9346H17.9336ZM19.0283 26.7587H19.0293H19.0283ZM12.709 26.6757L12.6543 26.7285C12.6752 26.709 12.6937 26.6905 12.71 26.6757C12.7303 26.6572 12.752 26.6392 12.7734 26.6201L12.709 26.6757ZM13.2109 26.2441H13.2119H13.2109ZM31.4717 24.8398H31.4727H31.4717ZM36.3076 24.3242C36.3102 24.3228 36.314 24.3225 36.3164 24.3212C36.3175 24.3204 36.3183 24.3191 36.3193 24.3183C36.3155 24.3203 36.3115 24.3222 36.3076 24.3242ZM18.2441 23.5771C18.3243 23.599 18.4068 23.622 18.4893 23.6435C18.4733 23.6393 18.4574 23.635 18.4414 23.6308L18.4131 23.624C18.3914 23.6182 18.3702 23.6112 18.3486 23.6054C18.3135 23.596 18.2786 23.5865 18.2441 23.5771ZM31.7959 23.5703C31.7654 23.578 31.7353 23.5889 31.7041 23.5966C31.7367 23.5886 31.768 23.5774 31.7998 23.5693C31.7985 23.5696 31.7972 23.5699 31.7959 23.5703ZM12.5254 20.8906C12.3797 20.2763 12.2915 19.6553 12.2539 19.0351C12.2914 19.6554 12.3787 20.2763 12.5244 20.8906C12.5944 21.1856 12.7022 21.6009 12.8613 22.0224C12.8932 22.1067 12.9268 22.1914 12.9629 22.2753C13.0349 22.4431 13.1158 22.6083 13.2061 22.7636L13.4277 23.1435L13.8135 23.3525H13.8145L13.4277 23.1435L13.207 22.7636C12.8456 22.1419 12.6374 21.3627 12.5254 20.8906ZM17.6465 23.3896C17.731 23.428 17.8885 23.4769 18.0742 23.5302C18.0639 23.5273 18.054 23.5234 18.0439 23.5204C17.8711 23.4702 17.7252 23.425 17.6455 23.3886L17.6465 23.3896ZM35.8955 23.5058L36.0088 23.4531C36.0132 23.4508 36.0171 23.4475 36.0215 23.4453L35.8955 23.5058ZM32.1367 23.4775C32.1316 23.4791 32.1262 23.4798 32.1211 23.4814C32.1191 23.482 32.1172 23.4827 32.1152 23.4833C32.1226 23.481 32.1303 23.4798 32.1377 23.4775L32.1543 23.4706L32.1367 23.4775ZM36.0879 23.4091C36.1011 23.4016 36.1142 23.3943 36.127 23.3867C36.1142 23.3943 36.1011 23.4016 36.0879 23.4091ZM33 23.0781H33.001H33ZM20.4053 21.871C20.2702 21.7468 20.1354 21.6201 20.002 21.4911C20.1354 21.6201 20.2701 21.7468 20.4053 21.871ZM35.4688 21.9072C35.4814 21.8908 35.4935 21.8742 35.5049 21.8574C35.4935 21.8742 35.4814 21.8908 35.4688 21.9072ZM37.3193 21.4911C37.334 21.4435 37.3504 21.3964 37.3643 21.3486C37.3504 21.3964 37.334 21.4435 37.3193 21.4911ZM37.4443 21.0488C37.4632 20.9755 37.4828 20.9026 37.5 20.829C37.4828 20.9026 37.4632 20.9755 37.4443 21.0488ZM37.5576 20.5595C37.5734 20.483 37.5895 20.4067 37.6035 20.33C37.5895 20.4067 37.5734 20.483 37.5576 20.5595ZM37.6484 20.0595C37.6609 19.9801 37.6739 19.9008 37.6846 19.8212C37.6739 19.9008 37.6609 19.9801 37.6484 20.0595ZM37.7148 19.5663C37.7246 19.4785 37.7335 19.3906 37.7412 19.3027C37.7335 19.3906 37.7246 19.4785 37.7148 19.5663ZM37.7598 19.0576C37.765 18.9778 37.7688 18.8981 37.7725 18.8183C37.7689 18.8981 37.765 18.9778 37.7598 19.0576ZM15.7363 18.9101H15.7373H15.7363ZM29.7041 18.9374L29.7051 18.9365C29.7884 18.8235 29.8687 18.7102 29.9482 18.5995C29.8684 18.7106 29.7877 18.8241 29.7041 18.9374ZM37.7822 18.5322C37.784 18.4488 37.7851 18.3655 37.7852 18.2822C37.7851 18.3655 37.784 18.4488 37.7822 18.5322ZM17.3877 17.5576C17.3908 17.6941 17.3992 17.8318 17.4141 17.9726C17.4215 18.043 17.4307 18.1142 17.4414 18.1865C17.4549 18.2771 17.4745 18.3602 17.4961 18.4384C17.4915 18.4217 17.4857 18.4048 17.4814 18.3876L17.4717 18.3388C17.4609 18.2901 17.4493 18.2397 17.4414 18.1865C17.4092 17.9696 17.3933 17.7623 17.3887 17.5576H17.3877ZM37.7832 18.0244C37.7817 17.953 37.7791 17.8817 37.7764 17.8105C37.7791 17.8817 37.7817 17.953 37.7832 18.0244ZM19.4121 17.6376C19.4691 17.7613 19.5454 17.8838 19.6221 17.996L19.4756 17.7607C19.4529 17.7199 19.4312 17.679 19.4121 17.6376ZM26.8965 17.5117C26.9602 17.6185 27.0143 17.7213 27.0586 17.8222C27.0143 17.7213 26.9602 17.6185 26.8965 17.5117ZM15.6494 17.6074C15.649 17.5468 15.6498 17.4863 15.6504 17.4257C15.6497 17.4957 15.6488 17.5657 15.6494 17.6357C15.6493 17.6262 15.6495 17.6168 15.6494 17.6074ZM37.7637 17.5322C37.758 17.4369 37.75 17.3419 37.7422 17.247C37.75 17.3419 37.758 17.4369 37.7637 17.5322ZM19.3184 17.2734C19.3182 17.3121 19.3226 17.3515 19.3301 17.3915C19.3225 17.3513 19.3182 17.3112 19.3184 17.2724V17.2734ZM37.7256 17.0488C37.7153 16.9436 37.7032 16.8389 37.6904 16.7343C37.7032 16.8389 37.7153 16.9436 37.7256 17.0488ZM22.0996 16.789V16.79V16.789ZM37.666 16.5439C37.6516 16.4384 37.636 16.3332 37.6191 16.2285C37.636 16.3332 37.6516 16.4384 37.666 16.5439ZM37.5898 16.0468C37.5662 15.9112 37.5393 15.7766 37.5117 15.6425C37.5393 15.7766 37.5662 15.9112 37.5898 16.0468ZM23.5479 15.9462V15.9453V15.9462ZM22.3643 14.6396C22.2655 14.6851 22.1837 14.7268 22.126 14.7578L22.0898 14.7763L22.0537 14.7978C21.6796 15.0249 21.3557 15.2882 21.0801 15.5781V15.58C21.3558 15.2898 21.6793 15.0261 22.0537 14.7988L22.0898 14.7773L22.126 14.7578C22.1837 14.7268 22.2655 14.685 22.3643 14.6396ZM37.2568 14.6005C37.3483 14.9191 37.4284 15.2443 37.498 15.5742C37.4285 15.2444 37.3483 14.9189 37.2568 14.6005ZM28.1504 14.8994L28.333 15.0331C28.3525 15.0481 28.3714 15.0638 28.3906 15.079C28.3713 15.0637 28.3526 15.0472 28.333 15.0322L28.1504 14.8984V14.8994ZM25.3506 14.7333C25.3079 14.7624 25.2665 14.7949 25.2246 14.829C25.2992 14.7683 25.3747 14.7151 25.4512 14.6699L25.3506 14.7333ZM24.6318 14.7441V14.7431V14.7441ZM30.3311 14.7578C30.3119 14.6881 30.2931 14.6182 30.2725 14.5488C30.2931 14.6182 30.3119 14.6881 30.3311 14.7578ZM27.3994 14.538C27.3423 14.5197 27.2802 14.5021 27.2148 14.4853C27.2804 14.5021 27.3422 14.5196 27.3994 14.538ZM23.7441 14.3954C23.8762 14.4135 24.0148 14.446 24.1562 14.498L24.2129 14.5204L24.1562 14.497C24.0148 14.4451 23.8762 14.4134 23.7441 14.3954ZM27.1836 14.4775C27.135 14.4655 27.0845 14.4544 27.0322 14.4443C27.0845 14.4544 27.135 14.4655 27.1836 14.4775ZM28.375 13.9023C28.4541 14.0843 28.5281 14.2684 28.5957 14.454L28.4902 14.1777C28.4534 14.0853 28.4147 13.9936 28.375 13.9023ZM26.208 14.413C26.167 14.4186 26.1244 14.4268 26.0801 14.4355C26.1837 14.4152 26.2791 14.4029 26.3623 14.3974L26.208 14.413ZM26.7461 14.4023C26.8206 14.409 26.8931 14.4189 26.9629 14.4306C26.8931 14.4188 26.8206 14.409 26.7461 14.4023ZM30.2266 14.4023C30.2206 14.3831 30.2151 14.3638 30.209 14.3447C30.1892 14.2827 30.1684 14.2209 30.1475 14.1591C30.143 14.1461 30.1383 14.1331 30.1338 14.1201C30.166 14.2139 30.197 14.3079 30.2266 14.4023ZM24.8135 11.2021C24.6536 11.3524 24.4946 11.4754 24.4307 11.5253C24.4044 11.5458 24.3857 11.559 24.374 11.5683C23.783 12.1201 23.2672 12.7878 22.8555 13.5175C23.1804 13.4549 23.6461 13.4144 24.166 13.5419L24.4727 13.6357L24.499 13.6454L24.6133 13.6923L24.6309 13.6992L24.6436 13.704L24.6621 13.7128L24.6748 13.7187L24.6807 13.7206C24.7699 13.7618 24.8712 13.8163 24.9805 13.8808C25.5774 13.527 26.177 13.4776 26.4834 13.4745C26.7296 13.4722 26.9616 13.497 27.1699 13.5351C26.8742 12.997 26.5316 12.4998 26.1533 12.0859C26.1493 12.0815 26.1445 12.0776 26.1406 12.0732C25.9936 11.9102 25.8345 11.7555 25.666 11.6093C25.6582 11.6033 25.6544 11.5996 25.6465 11.5937C25.6314 11.5825 25.6125 11.5686 25.5791 11.5429C25.4959 11.4789 25.347 11.3619 25.1924 11.2177C25.1375 11.1665 25.0696 11.0991 24.9941 11.0175C24.9246 11.0927 24.8634 11.1552 24.8135 11.2021ZM13.0732 13.6494L13.0742 13.6484L13.0732 13.6494ZM28.1221 13.3652C28.1669 13.4533 28.2107 13.5421 28.2529 13.6318L28.123 13.3652C28.0782 13.277 28.0317 13.1899 27.9844 13.1035L28.1221 13.3652ZM13.5547 12.4765C13.5415 12.5051 13.5286 12.5338 13.5156 12.5624C13.5286 12.5338 13.5415 12.5051 13.5547 12.4765ZM26.252 10.9013C26.353 10.9884 26.4515 11.0787 26.5469 11.1718C26.6422 11.2649 26.7352 11.3612 26.8242 11.4599L26.8262 11.4628L26.8301 11.4667C27.0153 11.6694 27.1928 11.888 27.3613 12.1191C27.1929 11.8882 27.0162 11.6693 26.8311 11.4667L26.8271 11.4628L26.8242 11.4589C26.6464 11.2617 26.4551 11.0755 26.2529 10.9013V10.9003L26.252 10.9013ZM14.0088 11.5829C13.9841 11.6274 13.9597 11.6721 13.9355 11.7167C13.9597 11.6721 13.9841 11.6274 14.0088 11.5829ZM24.3604 11.58C24.3563 11.5833 24.3565 11.5845 24.3584 11.5829C24.3597 11.5819 24.3619 11.5801 24.3643 11.5781L24.3662 11.5751C24.3638 11.577 24.3619 11.5787 24.3604 11.58ZM14.1611 11.3163C14.1331 11.364 14.1055 11.4119 14.0781 11.4599C14.1055 11.4119 14.1331 11.3641 14.1611 11.3163ZM14.3418 11.0185C14.3099 11.0695 14.2782 11.1205 14.2471 11.1718C14.2782 11.1205 14.3099 11.0695 14.3418 11.0185ZM16.543 10.6513C16.4762 10.7288 16.411 10.8078 16.3467 10.8876C16.4109 10.8077 16.4762 10.7288 16.543 10.6513ZM14.667 10.5263C14.6455 10.5572 14.6238 10.588 14.6025 10.6191C14.6238 10.588 14.6455 10.5572 14.667 10.5263ZM24.6328 9.97748C24.601 10.032 24.5676 10.0829 24.5342 10.1308C24.6076 10.0255 24.6802 9.90474 24.7412 9.76752L24.6328 9.97748ZM15.0811 9.96967C15.0469 10.0128 15.013 10.056 14.9795 10.0995C15.013 10.056 15.0469 10.0128 15.0811 9.96967ZM34.5586 9.48724C34.6143 9.54993 34.6686 9.61383 34.7227 9.67767C34.6685 9.61361 34.6145 9.54916 34.5586 9.48627L34.3516 9.26263L34.5586 9.48724ZM16.1211 8.83685C15.9943 8.9542 15.8967 9.05319 15.8467 9.10345L15.6094 9.3515C15.5118 9.45657 15.4171 9.56399 15.3242 9.67279C15.4911 9.4772 15.6654 9.28653 15.8477 9.10345C15.8977 9.05319 15.9947 8.95413 16.1211 8.83685ZM24.8291 9.52924H24.8301H24.8291ZM24.8975 8.68646C24.9098 8.77631 24.9162 8.87 24.915 8.96771L24.9131 8.83685C24.9103 8.78551 24.9042 8.73546 24.8975 8.68646ZM16.3398 8.64349C16.2757 8.69668 16.2157 8.75024 16.1602 8.80072C16.2156 8.75019 16.2757 8.69671 16.3398 8.64349ZM25.167 8.51166C25.1543 8.55989 25.1429 8.60775 25.1338 8.65521L25.1348 8.65619C25.1452 8.60181 25.1576 8.54648 25.1729 8.49115L25.167 8.51166ZM30.5254 8.68256C30.5162 8.69371 30.5079 8.70545 30.499 8.71674C30.5079 8.70545 30.5162 8.69371 30.5254 8.68256ZM19.9941 8.55853H19.9932H19.9941ZM24.8916 8.64935C24.8857 8.61221 24.8791 8.57574 24.8711 8.53998C24.8791 8.57574 24.8857 8.61221 24.8916 8.64935ZM30.0684 8.59369C30.0334 8.5639 29.9993 8.53315 29.9639 8.50385C29.9993 8.53315 30.0334 8.5639 30.0684 8.59369ZM30.6846 8.51166C30.6771 8.51885 30.6695 8.52586 30.6621 8.53314C30.6695 8.52586 30.6771 8.51885 30.6846 8.51166ZM24.8643 8.51166C24.8568 8.48085 24.8487 8.4506 24.8398 8.42084C24.8487 8.45059 24.8568 8.48085 24.8643 8.51166ZM25.2197 8.34271C25.2049 8.3841 25.1916 8.42546 25.1797 8.46674C25.1916 8.42547 25.2049 8.38409 25.2197 8.34271ZM16.7363 8.35443C16.7084 8.37174 16.683 8.38813 16.6602 8.40326C16.7236 8.36124 16.8076 8.30997 16.9082 8.25677L16.7363 8.35443ZM24.833 8.39838C24.822 8.36309 24.8098 8.32864 24.7969 8.29486C24.8098 8.32863 24.822 8.36309 24.833 8.39838ZM25.2852 8.18256C25.2696 8.21655 25.2556 8.25088 25.2422 8.2851C25.2556 8.25089 25.2696 8.21654 25.2852 8.18256ZM32.542 8.04877L32.541 8.04779L32.542 8.04877ZM24.79 8.27631C24.7825 8.25736 24.7737 8.23911 24.7656 8.22064C24.7737 8.2391 24.7825 8.25736 24.79 8.27631ZM29.6455 8.25287C29.6077 8.22417 29.5695 8.19604 29.5312 8.16791C29.5695 8.19605 29.6077 8.22417 29.6455 8.25287ZM18.6611 8.09662C18.7288 8.11887 18.7927 8.14479 18.8535 8.17279C18.7924 8.14461 18.7282 8.118 18.6602 8.09564L18.6611 8.09662ZM25.3643 8.02924C25.346 8.06112 25.3296 8.09358 25.3135 8.12592C25.3296 8.09359 25.346 8.06111 25.3643 8.02924ZM31.2754 8.12592C31.3744 8.08507 31.4723 8.05359 31.5684 8.03119C31.4723 8.05367 31.3743 8.08511 31.2754 8.12592ZM25.4717 7.86322C25.4454 7.89957 25.4206 7.93624 25.3975 7.97357C25.4206 7.93626 25.4454 7.89955 25.4717 7.86322ZM29.1982 7.93256C29.1763 7.91789 29.1539 7.90407 29.1318 7.88959C29.1539 7.90407 29.1763 7.91789 29.1982 7.93256ZM22.4814 7.14545C22.22 7.20454 21.9653 7.29376 21.7207 7.40326C21.6595 7.43065 21.599 7.45943 21.5391 7.4892C21.2997 7.60818 21.0712 7.74513 20.8564 7.88959L21.1885 7.6806C21.6445 7.41199 22.1498 7.1941 22.6797 7.10736L22.4814 7.14545ZM24.5762 7.88959C24.5714 7.88298 24.5664 7.87657 24.5615 7.87006C24.5664 7.87657 24.5714 7.88299 24.5762 7.88959ZM25.6016 7.70306C25.5644 7.74384 25.5295 7.78539 25.4971 7.82806C25.5295 7.78541 25.5644 7.74382 25.6016 7.70306ZM24.4639 7.75092C24.4294 7.71201 24.3937 7.67548 24.3574 7.64056C24.3937 7.67547 24.4294 7.71202 24.4639 7.75092ZM25.7617 7.54584C25.7116 7.58886 25.6656 7.6344 25.6221 7.6806C25.6919 7.60652 25.7713 7.53801 25.8584 7.4726L25.7617 7.54584ZM23.9814 7.35736C24.0894 7.41843 24.1994 7.4961 24.3047 7.58978C24.2543 7.54491 24.2033 7.50317 24.1514 7.46576L23.9814 7.35638V7.35736ZM28.1865 7.35638C28.1365 7.33421 28.0828 7.31129 28.0254 7.289C28.0828 7.31122 28.1365 7.33427 28.1865 7.35638ZM23.7998 7.26752C23.7763 7.25721 23.7529 7.24743 23.7295 7.23822C23.7529 7.24742 23.7763 7.25722 23.7998 7.26752ZM27.7783 7.20306C27.7467 7.19353 27.7145 7.18445 27.6816 7.17572C27.7145 7.18443 27.7467 7.19356 27.7783 7.20306ZM27.4336 7.12103C27.4975 7.13191 27.5602 7.14434 27.6211 7.15912C27.5602 7.1443 27.4975 7.13094 27.4336 7.12006V7.12103ZM23.0586 7.09369C23.1565 7.09959 23.2681 7.11058 23.3877 7.13568C23.3098 7.1193 23.2355 7.10704 23.166 7.09955L23.0586 7.09369Z" fill="white" fill-opacity="0.3"/>
</g>
</g>
</g>
</svg>
