<svg width="50" height="50" viewBox="0 0 50 50" fill="none" xmlns="http://www.w3.org/2000/svg">
<rect width="50" height="50" fill="#BEBEBE"/>
<g id="Decorate Mode">
<path d="M-180.281 -891.034V-890.034H2839.72V-891.034V-892.034H-180.281V-891.034ZM2841.72 -889.034H2840.72V2648.97H2841.72H2842.72V-889.034H2841.72ZM2839.72 2650.97V2649.97H-180.281V2650.97V2651.97H2839.72V2650.97ZM-182.281 2648.97H-181.281V-889.034H-182.281H-183.281V2648.97H-182.281ZM-180.281 2650.97V2649.97C-180.834 2649.97 -181.281 2649.52 -181.281 2648.97H-182.281H-183.281C-183.281 2650.62 -181.938 2651.97 -180.281 2651.97V2650.97ZM2841.72 2648.97H2840.72C2840.72 2649.52 2840.27 2649.97 2839.72 2649.97V2650.97V2651.97C2841.38 2651.97 2842.72 2650.62 2842.72 2648.97H2841.72ZM2839.72 -891.034V-890.034C2840.27 -890.034 2840.72 -889.587 2840.72 -889.034H2841.72H2842.72C2842.72 -890.691 2841.38 -892.034 2839.72 -892.034V-891.034ZM-180.281 -891.034V-892.034C-181.938 -892.034 -183.281 -890.691 -183.281 -889.034H-182.281H-181.281C-181.281 -889.587 -180.834 -890.034 -180.281 -890.034V-891.034Z" fill="black" fill-opacity="0.1"/>
<g id="Stickers">
<rect x="-128.272" y="-18.5342" width="374" height="551" rx="4.5" stroke="#9747FF" stroke-dasharray="10 5"/>
<g id="Property 1=fern" clip-path="url(#clip0_772_9087)">
<g id="Frame 110">
<g id="fern 1 [Vectorized]" clip-path="url(#clip1_772_9087)">
<path id="Vector" d="M38.8479 8.27371C38.8908 8.29988 38.9323 8.32832 38.9723 8.35886C40.0931 9.20812 38.4674 11.6728 37.826 12.4905C38.339 12.4706 38.91 12.4557 39.3917 12.6299C40.092 12.8965 40.0947 13.5205 39.6508 14.0332C39.1729 14.5852 38.5931 14.9774 37.9322 15.2742C38.4207 15.3478 38.9575 15.4296 39.4011 15.6437C39.8093 15.8408 40.0357 16.2649 39.7552 16.6668C39.1341 17.5579 37.8038 17.9974 36.797 18.2618C37.6541 18.5048 38.6489 18.6642 39.4208 19.1391C39.5662 19.2285 39.7154 19.4285 39.7383 19.6032C39.8098 20.15 39.2202 20.5109 38.7996 20.7182C37.8192 21.1906 36.7288 21.344 35.6641 21.4909C36.2779 21.6661 38.6069 22.4967 39.0433 22.9642C40.24 24.3233 37.363 24.7694 36.5226 24.8496C35.9182 24.9071 35.3202 24.9046 34.7115 24.9096C35.411 25.2027 37.9032 26.2778 38.2376 26.8088C39.4987 28.8115 33.9113 28.3707 33.4145 28.3227C34.4767 28.7725 35.8471 29.4515 36.716 30.216C37.2551 30.6904 36.8023 31.3291 36.2152 31.5142C34.8253 31.9522 33.2165 31.8517 31.7905 31.6822C32.8169 32.0799 34.2249 32.7904 35.0434 33.5402C35.5437 33.9986 35.1378 34.6525 34.5525 34.8365C32.9593 35.3367 31.1445 35.1696 29.5174 34.9415C37.0786 38.5737 31.2425 39.1976 26.7423 38.2392C27.7705 38.7914 28.8743 39.5604 29.7467 40.3358C30.106 40.6553 30.3735 41.2191 29.9182 41.5903C29.3157 42.0812 28.238 42.0484 27.4935 42.0449C24.502 41.9211 20.261 40.5822 18.1924 38.3617L16.6833 40.4233C16.4296 40.7665 16.015 41.4078 15.663 41.626C15.2012 41.9122 14.6592 41.804 14.3747 41.3103C14.3458 41.2388 14.318 41.1434 14.3045 41.0675C14.2688 40.8549 14.2966 40.6366 14.3843 40.4398C14.5162 40.1493 15.0105 39.5186 15.2132 39.2407C15.7083 38.562 16.2182 37.8946 16.6929 37.1993C16.0293 36.8585 15.4332 36.4542 14.8606 35.9767C12.8908 34.3346 10.3027 30.6873 10.0794 28.0942C10.0499 27.7505 10.0445 27.3842 10.2878 27.1086C10.414 26.9656 10.5889 26.8791 10.78 26.8733C11.5639 26.849 13.9096 28.7795 14.5071 29.3232C13.5739 27.7277 12.7331 25.891 12.5131 24.0395C12.4658 23.6415 12.4758 23.1433 12.7416 22.821C13.0249 22.4776 13.4524 22.5533 13.7936 22.7605C14.8562 23.486 15.7988 24.4553 16.7213 25.3518C16.57 24.9696 16.3804 24.584 16.2221 24.184C15.7748 23.0536 15.3795 21.8579 15.3017 20.6368C15.2898 20.2975 15.3271 19.9107 15.5769 19.6541C16.1653 19.05 17.0195 19.9136 17.4483 20.303C18.0901 20.8861 18.6724 21.5222 19.2437 22.1594C18.7458 20.9349 18.0848 19.0835 18.1354 17.7709C18.1485 17.4311 18.2025 17.0544 18.4721 16.817C18.6055 16.6995 18.7806 16.653 18.956 16.6693C19.7424 16.7429 21.3974 18.84 21.9201 19.4771C21.472 18.3412 20.8668 16.4335 20.9945 15.2069C21.0258 14.9057 21.116 14.5804 21.3656 14.3864C21.5087 14.2752 21.6833 14.2338 21.8623 14.2564C22.655 14.3569 24.1948 16.482 24.7019 17.1367C24.3778 15.9866 24.0006 14.5963 24.1612 13.3958C24.2038 13.0775 24.2912 12.7214 24.5647 12.5217C24.7074 12.4175 24.8767 12.3842 25.0502 12.4127C25.7934 12.5348 27.1072 14.5578 27.5493 15.1882C27.3096 14.2178 27.1871 12.7952 27.4048 11.8159C27.4684 11.543 27.6281 11.2283 27.8852 11.0916C28.4748 10.7782 29.0053 11.4614 29.3033 11.8668C29.638 12.3221 29.9166 12.7895 30.1794 13.2795C30.0494 12.5424 30.0745 11.7644 30.2089 11.0276C30.3035 10.5094 30.6364 9.78521 31.2895 9.97325C31.8701 10.1404 32.3427 11.084 32.6257 11.5749C32.6789 10.9262 32.8118 8.45229 34.1694 8.94935C34.6572 9.12796 35.0779 10.2766 35.2384 10.7794C35.9322 9.85425 37.514 7.86628 38.8479 8.27371Z" fill="#020101"/>
<path id="Vector (Stroke)" d="M39.9201 7.11718C40.7066 7.7157 40.9278 8.5735 40.9186 9.26852C40.9099 9.92123 40.7077 10.5488 40.5006 11.0418C40.455 11.1502 40.4055 11.2575 40.3551 11.364C40.934 11.7012 41.4 12.2632 41.5002 13.0392C41.5985 13.8008 41.2973 14.4557 40.9437 14.9155C41.0803 15.0842 41.1985 15.2772 41.2864 15.4963C41.5592 16.1762 41.4721 16.9365 41.0373 17.5602L40.9348 17.6999C40.8288 17.8379 40.7149 17.9656 40.5961 18.0845C40.7177 18.2 40.8205 18.3221 40.9038 18.4406C41.0358 18.6285 41.1891 18.9047 41.2617 19.2484L41.2877 19.3994L41.2874 19.4008C41.4121 20.3543 40.9215 21.0428 40.539 21.4122C40.3879 21.5581 40.226 21.6816 40.0714 21.7859L40.1852 21.8982L40.201 21.915L40.2159 21.9318C40.4731 22.224 40.7201 22.6017 40.832 23.0673C40.9521 23.5674 40.891 24.0681 40.6761 24.5074C40.3591 25.1554 39.785 25.5215 39.3718 25.7247C39.4112 25.7702 39.4507 25.8186 39.4883 25.8706L39.5595 25.9761L39.6615 26.1492C39.892 26.5718 40.0626 27.1188 39.9495 27.7335C39.8166 28.4548 39.3582 28.9225 38.9609 29.1911C38.7261 29.35 38.464 29.4716 38.1949 29.5674C38.3306 29.7853 38.4326 30.0322 38.4838 30.3061C38.5803 30.823 38.4712 31.2953 38.2899 31.6635C37.9493 32.3553 37.3082 32.8081 36.6849 33.0046C36.6541 33.0143 36.6226 33.0218 36.5917 33.0311C36.6871 33.2162 36.759 33.4173 36.7979 33.6334C36.8864 34.1248 36.7923 34.5794 36.6246 34.9439C36.3254 35.5947 35.757 36.0589 35.1442 36.285L35.0206 36.3272C34.8059 36.3946 34.5887 36.4498 34.3708 36.4981C34.6366 36.9402 34.8414 37.5413 34.6599 38.2313C34.4311 39.1005 33.7364 39.5352 33.3005 39.7338C32.7893 39.9665 32.1626 40.0928 31.5125 40.1543C31.5711 40.2867 31.6203 40.4277 31.6564 40.5768C31.823 41.2669 31.6772 42.0798 31.0396 42.6833L30.9053 42.8014C30.2596 43.3275 29.4822 43.4897 28.9455 43.5544C28.3884 43.6214 27.8182 43.6088 27.4863 43.6072L27.4575 43.6074L27.4289 43.6062C25.7539 43.5369 23.7844 43.1337 21.9536 42.4548C20.7355 42.0031 19.5118 41.4025 18.4558 40.6464L17.9443 41.346L17.9396 41.3525C17.8772 41.4369 17.6262 41.7962 17.4432 42.0314C17.2874 42.2315 17.0071 42.5799 16.6457 42.846L16.4862 42.9541C15.9447 43.2898 15.2747 43.4389 14.5998 43.2826C13.9144 43.1239 13.3613 42.6809 13.021 42.0904L12.9669 41.9966L12.9261 41.896C12.8582 41.728 12.7993 41.5279 12.7661 41.3401L12.7645 41.333L12.7634 41.3261C12.6769 40.8107 12.7446 40.281 12.9575 39.8036L12.9613 39.7942C13.1035 39.4807 13.3597 39.1227 13.5061 38.9203C13.6292 38.75 13.9263 38.3532 13.9506 38.3198C14.1226 38.0841 14.2894 37.8592 14.4517 37.6398C14.2505 37.4915 14.0533 37.3378 13.8602 37.1767C12.7274 36.2324 11.4867 34.7797 10.4985 33.2336C9.52943 31.7174 8.66685 29.9006 8.52279 28.2285L8.52265 28.2276C8.49586 27.9156 8.38739 26.9002 9.11594 26.0746L9.19253 25.9922C9.58425 25.5901 10.1267 25.3301 10.732 25.3116C10.8826 25.3069 11.0259 25.3194 11.1574 25.3411C11.1038 25.1054 11.0559 24.868 11.0177 24.6287L10.9614 24.2238C10.9286 23.9478 10.9077 23.5794 10.9623 23.1865C11.0162 22.7986 11.1583 22.2847 11.5363 21.8264L11.6255 21.7246C12.0821 21.2322 12.6823 21.0157 13.262 21.0216C13.4421 21.0235 13.6127 21.0481 13.7726 21.0845C13.7606 20.969 13.7496 20.853 13.7422 20.7363L13.7409 20.7142L13.74 20.6917C13.7265 20.3066 13.7216 19.3197 14.4574 18.5641L14.5422 18.4809C14.9742 18.079 15.5147 17.8763 16.0764 17.8832C16.2521 17.8853 16.4174 17.9091 16.5705 17.9439C16.5701 17.8657 16.571 17.788 16.574 17.7109C16.5873 17.3661 16.6304 16.3569 17.4395 15.6443L17.535 15.5651C18.0191 15.1854 18.5962 15.0667 19.1014 15.1139C19.2171 15.1247 19.3267 15.1454 19.4294 15.1715C19.4326 15.1292 19.4362 15.0871 19.4406 15.0452C19.4827 14.6401 19.6318 13.7552 20.4065 13.1529L20.5021 13.0828C20.9829 12.7483 21.5422 12.6407 22.0589 12.7061C22.2761 12.7337 22.4797 12.795 22.6651 12.8741C22.7566 12.4325 22.9872 11.739 23.6429 11.26L23.7411 11.1925C24.235 10.8709 24.7961 10.7877 25.3031 10.871L25.4288 10.8953C25.6334 10.9422 25.8218 11.018 25.9907 11.1065C26.1598 10.6473 26.499 10.0587 27.1517 9.7117C27.8799 9.32461 28.5588 9.41719 29.0693 9.63165C29.1403 9.50636 29.2219 9.38213 29.3163 9.26334C29.5245 9.00126 29.8376 8.71016 30.2805 8.53389C30.7469 8.34834 31.2469 8.33496 31.7217 8.47165C31.7523 8.48046 31.7822 8.49118 31.812 8.50112C31.9516 8.27834 32.128 8.0561 32.3556 7.86413C33.0182 7.30546 33.8786 7.17885 34.7067 7.48207L34.8028 7.52025C35.1294 7.65927 35.377 7.86667 35.554 8.05119C35.6284 7.9817 35.7035 7.91233 35.7806 7.84553C36.1737 7.50533 36.6616 7.15122 37.2208 6.91968C37.7899 6.68408 38.5237 6.54086 39.3046 6.77939L39.4937 6.83699L39.6624 6.94018C39.7497 6.99352 39.8339 7.0518 39.9151 7.11359L39.9156 7.11395C39.9172 7.11518 39.9193 7.11581 39.9209 7.11704L39.9201 7.11718ZM38.8479 8.27387C37.514 7.86645 35.9319 9.85396 35.2382 10.7791C35.0776 10.2762 34.6571 9.12817 34.1693 8.9495C32.8117 8.45244 32.6791 10.9263 32.6259 11.575C32.3429 11.0841 31.8699 10.1404 31.2893 9.97323C30.6365 9.78537 30.3034 10.509 30.2088 11.0272C30.0743 11.764 30.0495 12.5427 30.1795 13.2797C29.9166 12.7897 29.638 12.3219 29.3033 11.8667C29.0053 11.4613 28.4746 10.7783 27.885 11.0917C27.6281 11.2284 27.4684 11.5429 27.4048 11.8157C27.1871 12.795 27.3096 14.2178 27.5493 15.1881C27.1072 14.5577 25.7931 12.5346 25.05 12.4125C24.8766 12.384 24.7069 12.4175 24.5643 12.5217C24.291 12.7215 24.2037 13.0779 24.1611 13.3961C24.0006 14.5966 24.3777 15.987 24.7017 17.1369C24.1947 16.4822 22.6548 14.3566 21.8621 14.2562C21.6832 14.2336 21.5089 14.2752 21.3658 14.3864C21.1162 14.5803 21.0256 14.9056 20.9943 15.2068C20.8667 16.4335 21.4721 18.3413 21.9202 19.4772C21.3976 18.8401 19.7422 16.743 18.9558 16.6695C18.7805 16.6532 18.6051 16.6995 18.4718 16.8169C18.2023 17.0544 18.1484 17.4312 18.1353 17.7708C18.0847 19.0834 18.7458 20.9352 19.2437 22.1597C18.6724 21.5225 18.0897 20.8861 17.4479 20.303C17.0192 19.9136 16.1655 19.0502 15.5771 19.6539C15.3273 19.9105 15.2897 20.2978 15.3016 20.6371C15.3795 21.858 15.7747 23.0537 16.2219 24.184C16.3802 24.5839 16.57 24.9693 16.7212 25.3514C15.7989 24.4551 14.8561 23.4861 13.7936 22.7607C13.4525 22.5534 13.0252 22.4778 12.7419 22.821C12.4761 23.1433 12.4658 23.6418 12.5131 24.0397C12.7332 25.8911 13.5741 27.7279 14.5073 29.3233C13.9098 28.7796 11.564 26.8488 10.78 26.8729C10.5889 26.8788 10.4138 26.9656 10.2876 27.1086C10.0445 27.3842 10.0498 27.7503 10.0792 28.0939C10.3025 30.687 12.8907 34.3346 14.8605 35.9768C15.4331 36.4542 16.0291 36.8586 16.6927 37.1994C16.2181 37.8946 15.7082 38.5618 15.2132 39.2404C15.0105 39.5182 14.516 40.149 14.3841 40.4396C14.2964 40.6363 14.269 40.8547 14.3047 41.0673C14.3181 41.1431 14.3459 41.2386 14.3748 41.3101C14.6415 41.7728 15.1342 41.897 15.5752 41.675L15.6631 41.6258C15.9271 41.4621 16.2263 41.0608 16.4664 40.7255L16.6832 40.4235L18.1922 38.3618C20.2608 40.5823 24.5021 41.9208 27.4936 42.0446C28.1915 42.0479 29.1822 42.0773 29.7997 41.6766L29.9185 41.5902C30.3735 41.219 30.1059 40.6553 29.7467 40.3358C28.8744 39.5604 27.7705 38.7917 26.7423 38.2395C31.2425 39.1978 37.0784 38.5738 29.5172 34.9417C31.0426 35.1554 32.733 35.3153 34.251 34.9223L34.5521 34.8364C35.1374 34.6525 35.5438 33.9985 35.0435 33.5401C34.225 32.7903 32.8168 32.0795 31.7904 31.6818C33.1272 31.8407 34.6247 31.9392 35.9518 31.59L36.2152 31.5145C36.8023 31.3294 37.255 30.6902 36.7158 30.2158C35.847 29.4513 34.4765 28.7721 33.4144 28.3223C33.9112 28.3703 39.4981 28.8115 38.2376 26.809C37.9033 26.2781 35.4112 25.203 34.7115 24.9098C35.3202 24.9049 35.9182 24.9071 36.5226 24.8496C37.3632 24.7694 40.2399 24.3232 39.0433 22.9641C38.6068 22.4965 36.2776 21.6662 35.6638 21.4909C36.7285 21.3441 37.8193 21.1908 38.7997 20.7183C39.2202 20.511 39.8096 20.15 39.7382 19.6032C39.7152 19.4286 39.5662 19.2284 39.4208 19.139C38.6489 18.6641 37.6537 18.5046 36.7967 18.2616C37.8035 17.9973 39.1338 17.5579 39.755 16.6668C40.0354 16.2649 39.8094 15.8409 39.4012 15.6438C38.9577 15.4297 38.4207 15.348 37.9323 15.2744C38.5105 15.0147 39.0264 14.6816 39.4665 14.2328L39.6509 14.0334C40.0948 13.5207 40.0918 12.8965 39.3914 12.6298C38.9098 12.4557 38.3389 12.4707 37.8259 12.4906C38.4472 11.6985 39.9921 9.36103 39.0694 8.44345L38.9723 8.35913C38.9323 8.32861 38.8907 8.30003 38.8479 8.27387Z" fill="#E8E7E7"/>
<path id="Vector (Stroke) (Stroke)" d="M40.5026 6.4089C41.5674 7.23536 41.848 8.4019 41.8364 9.28034C41.8276 9.94632 41.6585 10.5663 41.4747 11.0655C41.9498 11.5231 42.3101 12.1437 42.4107 12.9211C42.5109 13.6976 42.3134 14.377 42.0294 14.9139C42.0684 14.9913 42.1051 15.0714 42.1384 15.1544C42.5289 16.1278 42.3981 17.2133 41.7902 18.0853C41.7863 18.0909 41.7822 18.0963 41.7782 18.1018C41.9025 18.3073 42.029 18.5678 42.1151 18.8764L42.16 19.0585L42.1662 19.0926L42.1926 19.2434C42.1947 19.2558 42.1943 19.2689 42.196 19.2814L42.1986 19.2818C42.3576 20.4987 41.8031 21.3949 41.3335 21.909C41.4964 22.1799 41.6382 22.4944 41.7245 22.8532C41.8949 23.563 41.8091 24.2819 41.5016 24.9109C41.2684 25.3875 40.9413 25.7452 40.6146 26.0136C40.8369 26.5224 40.9869 27.1692 40.8526 27.8995C40.6607 28.9417 39.999 29.5982 39.4751 29.9525C39.4373 29.978 39.397 29.9992 39.3587 30.023C39.3673 30.0611 39.3789 30.0988 39.3861 30.1377C39.5079 30.7901 39.4013 31.3872 39.2035 31.8698L39.1133 32.0689L39.0211 32.2444C38.6939 32.8198 38.218 33.2481 37.7106 33.543C37.816 34.2201 37.6838 34.8381 37.4591 35.327C37.066 36.182 36.3486 36.78 35.5839 37.0946C35.669 37.5038 35.6792 37.9659 35.548 38.4647C35.2144 39.7319 34.2107 40.3288 33.6814 40.5699C33.3512 40.7203 32.9945 40.8285 32.6314 40.909C32.6837 41.7423 32.413 42.6476 31.6711 43.35C31.663 43.3577 31.654 43.3655 31.6456 43.3728L31.5119 43.4915C31.5033 43.4991 31.4944 43.5064 31.4854 43.5136C30.6378 44.2042 29.6512 44.3946 29.0556 44.4664C28.435 44.5411 27.8047 44.5261 27.4914 44.5244L27.4625 44.5255C27.4482 44.5256 27.434 44.526 27.4197 44.5254L27.3912 44.5239C25.6108 44.4502 23.5458 44.0254 21.6338 43.3163C20.635 42.9459 19.6212 42.4732 18.6811 41.8948L18.6783 41.8987C18.6473 41.9406 18.3556 42.3544 18.1683 42.5953C18.0069 42.8026 17.661 43.239 17.1901 43.5856C17.1805 43.5926 17.1705 43.599 17.1607 43.6056L17.0015 43.7146C16.9913 43.7215 16.981 43.7284 16.9705 43.7349C16.2471 44.1833 15.3303 44.3947 14.3927 44.1777C13.438 43.9565 12.6818 43.3402 12.2256 42.5485L12.2249 42.5495L12.1716 42.456C12.1505 42.4193 12.1318 42.3807 12.1159 42.3415L12.0753 42.2409L12.0743 42.2402C11.9875 42.0255 11.9146 41.777 11.869 41.5347L11.8683 41.5356L11.8673 41.529C11.8634 41.5114 11.86 41.4935 11.8572 41.4758L11.8561 41.4691L11.8568 41.4681C11.7446 40.7878 11.8316 40.0905 12.1063 39.4592L12.11 39.4501C12.1147 39.4384 12.1198 39.4267 12.125 39.4152C12.3118 39.0036 12.6249 38.5712 12.7618 38.3819C12.8275 38.2911 12.9357 38.1444 13.0276 38.0208C13.0742 37.9581 13.1181 37.8994 13.1513 37.8549C13.1652 37.8362 13.1768 37.8196 13.1865 37.8066C11.9923 36.7904 10.7277 35.2974 9.72454 33.7278C8.73826 32.1846 7.79346 30.2435 7.61485 28.3704L7.60723 28.3057C7.58144 28.006 7.41513 26.6132 8.42695 25.4666L8.44296 25.4487L8.52001 25.3672C8.52489 25.362 8.5296 25.3563 8.53461 25.3512C8.94334 24.9317 9.47175 24.6194 10.0687 24.4771L10.0513 24.3505C10.0505 24.3447 10.0501 24.3387 10.0494 24.3329C10.0112 24.0114 9.98362 23.5577 10.0527 23.0604C10.1207 22.5711 10.3054 21.8749 10.8277 21.2418L10.8458 21.2209L10.9343 21.1197L10.9517 21.0998C11.4846 20.5252 12.1595 20.2188 12.8365 20.1319C12.8877 19.5307 13.0858 18.6561 13.7992 17.9234L13.8141 17.9091L13.8985 17.8256L13.9164 17.8091C14.4298 17.3315 15.0612 17.0513 15.7277 16.9829C15.8331 16.4005 16.1044 15.5961 16.8326 14.9548C16.8391 14.9491 16.8456 14.9435 16.8522 14.938L16.9484 14.8587L16.9681 14.8419C17.4991 14.4255 18.103 14.2324 18.672 14.1935C18.8304 13.6461 19.1559 12.9624 19.8432 12.4281L19.8631 12.413L19.9589 12.3422L19.9774 12.3291C20.6278 11.8765 21.3753 11.7211 22.0668 11.7852C22.2697 11.3564 22.5886 10.8927 23.1015 10.518L23.1231 10.5026L23.2204 10.4359L23.2398 10.4235C23.946 9.96361 24.7442 9.84842 25.4522 9.96463L25.4769 9.9693L25.5411 9.98058C25.8055 9.5852 26.1821 9.1874 26.7202 8.90126C27.4272 8.52544 28.1094 8.47586 28.694 8.575C28.9729 8.25365 29.3794 7.90449 29.9408 7.68104C30.4289 7.48684 30.9395 7.42684 31.4357 7.48242C31.5345 7.37301 31.6423 7.26423 31.7636 7.16201C32.6968 6.37522 33.9081 6.21233 35.0216 6.61981L35.0461 6.62879L35.1421 6.6676L35.1621 6.67473C35.2948 6.73121 35.4177 6.79534 35.5307 6.86319C35.9063 6.57337 36.3563 6.28354 36.8689 6.07125C37.5674 5.78209 38.5278 5.58153 39.5725 5.90055L39.7614 5.95812L39.8705 5.99913C39.9057 6.01496 39.9395 6.03396 39.9725 6.05412L40.1402 6.15696L40.1409 6.156C40.2383 6.2155 40.3303 6.27975 40.4179 6.34434C40.4356 6.35575 40.4562 6.36993 40.4786 6.387C40.4872 6.39358 40.4942 6.40206 40.5026 6.4089ZM39.9152 7.11428C39.8339 7.05249 39.7491 6.99353 39.6618 6.94019L39.4931 6.83665L39.3043 6.77908C38.5235 6.54064 37.789 6.68429 37.2199 6.91987L37.0143 7.01131C36.5409 7.23883 36.1243 7.54737 35.7804 7.84506C35.7032 7.91185 35.6279 7.98164 35.5535 8.05113L35.4079 7.9097C35.2483 7.76701 35.0472 7.62487 34.8023 7.5206L34.7063 7.48179C33.8784 7.17882 33.0185 7.30561 32.356 7.86391L32.1938 8.01356C32.0418 8.16742 31.9166 8.33471 31.8119 8.5017C31.7821 8.49175 31.7522 8.48023 31.7216 8.47142C31.2469 8.33477 30.7467 8.34772 30.2804 8.53317C29.8376 8.7094 29.5242 9.00082 29.3159 9.26284C29.2215 9.38164 29.1404 9.50678 29.0694 9.63208C28.5589 9.41762 27.88 9.32528 27.1518 9.71237L26.9213 9.85224C26.4168 10.2036 26.1386 10.7046 25.9906 11.1064C25.8217 11.018 25.633 10.9423 25.4284 10.8954L25.303 10.8706C24.7961 10.7874 24.2347 10.8705 23.7409 11.192L23.6429 11.2596C22.9871 11.7387 22.756 12.4324 22.6645 12.874C22.4793 12.7949 22.2757 12.7341 22.0586 12.7066C21.5422 12.6412 20.9833 12.7484 20.5026 13.0826L20.4068 13.1534L20.2683 13.2685C19.6132 13.8635 19.4801 14.6659 19.4405 15.0457C19.4362 15.0874 19.4319 15.1296 19.4287 15.1717C19.3261 15.1456 19.2167 15.1245 19.1011 15.1137C18.5959 15.0666 18.0188 15.1853 17.5347 15.565L17.4395 15.645L17.2965 15.7805C16.6247 16.4798 16.5858 17.3874 16.5733 17.7108C16.5703 17.788 16.5703 17.8659 16.5707 17.944C16.4177 17.9093 16.2521 17.8854 16.0766 17.8832C15.5151 17.8763 14.9746 18.0792 14.5427 18.4808L14.4573 18.5636C13.7215 19.3192 13.726 20.3065 13.7395 20.6916L13.7406 20.7146L13.7423 20.7365C13.7498 20.8531 13.7612 20.969 13.7731 21.0844C13.6133 21.0479 13.4417 21.023 13.2616 21.0211C12.682 21.0153 12.0818 21.2325 11.6254 21.7248L11.5362 21.827L11.4052 22.0008C11.1241 22.4114 11.0091 22.8474 10.962 23.1868C10.9074 23.5795 10.9283 23.9485 10.961 24.2244L11.017 24.629C11.0552 24.868 11.1038 25.105 11.1573 25.3405C11.0258 25.3187 10.8822 25.307 10.7317 25.3116C10.1264 25.3303 9.58363 25.5903 9.19196 25.9924L9.11588 26.0745L8.98825 26.2316C8.55714 26.8129 8.49459 27.4577 8.50159 27.8755L8.52194 28.2276L8.5229 28.2283C8.66697 29.9003 9.52932 31.7174 10.4984 33.2336C11.4865 34.7795 12.7267 36.2324 13.8594 37.1768C14.0524 37.3377 14.2499 37.4918 14.451 37.64C14.2888 37.8593 14.1222 38.0841 13.9503 38.3197C13.9259 38.3532 13.6288 38.7502 13.5057 38.9204C13.3593 39.1229 13.1033 39.4812 12.9611 39.7946L12.9574 39.8037C12.7446 40.2811 12.6767 40.8108 12.7632 41.3262L12.7643 41.3329L12.7663 41.3403C12.7995 41.5278 12.8578 41.7278 12.9256 41.8956L12.9673 41.9969L13.0205 42.0903C13.3182 42.607 13.7793 43.0103 14.3489 43.2096L14.5992 43.2823C15.274 43.4386 15.9447 43.2892 16.4862 42.9535L16.6456 42.8462C16.9167 42.6466 17.1425 42.4007 17.304 42.2058L17.4426 42.0316C17.6256 41.7965 17.8776 41.4368 17.94 41.3524L17.9442 41.3466L18.4554 40.6464C19.5114 41.4025 20.7354 42.0028 21.9535 42.4545C23.5556 43.0487 25.2639 43.4315 26.7881 43.5643L27.429 43.6063L27.4575 43.6078L27.4857 43.6077C27.7347 43.6088 28.1181 43.6153 28.5291 43.5906L28.9454 43.555C29.4821 43.4904 30.2594 43.3273 30.905 42.8013L31.0397 42.6833C31.6772 42.0799 31.8229 41.2665 31.6563 40.5764C31.6203 40.4274 31.5713 40.2862 31.5127 40.1539C32.0813 40.1001 32.6319 39.997 33.103 39.8162L33.3006 39.7337C33.7092 39.5476 34.3452 39.154 34.6117 38.3896L34.6604 38.2313C34.8418 37.5414 34.6361 36.9403 34.3703 36.4983C34.5882 36.4499 34.8057 36.394 35.0204 36.3266L35.1439 36.2848C35.6801 36.087 36.1826 35.7072 36.5003 35.1793L36.6242 34.9441C36.7918 34.5796 36.8861 34.1242 36.7977 33.6328C36.7588 33.4169 36.6861 33.2161 36.5908 33.0311C36.6217 33.0218 36.6543 33.0148 36.6852 33.0051C37.3083 32.8086 37.9497 32.3553 38.2903 31.6636C38.4714 31.2954 38.5804 30.823 38.4839 30.3063C38.4328 30.0325 38.3304 29.7856 38.1947 29.5678C38.4639 29.472 38.7266 29.3499 38.9614 29.1911C39.309 28.956 39.7024 28.5682 39.8845 27.992L39.9499 27.7335C40.063 27.1188 39.8916 26.5718 39.6611 26.1492L39.5593 25.9761L39.488 25.8709C39.4503 25.8189 39.4109 25.7696 39.3715 25.724C39.7847 25.5208 40.3592 25.1547 40.6761 24.5068C40.8639 24.1226 40.9341 23.6916 40.8684 23.255L40.832 23.0673C40.7202 22.6019 40.473 22.2247 40.2159 21.9326L40.2011 21.9144L40.1848 21.8981L40.0713 21.7859C40.2258 21.6816 40.3876 21.5578 40.5388 21.4118C40.9212 21.0425 41.4115 20.3541 41.2869 19.4006L41.2876 19.3996L41.2613 19.2489C41.1886 18.9052 41.0356 18.6277 40.9036 18.4398C40.8204 18.3215 40.7173 18.1996 40.5959 18.0842C40.7147 17.9654 40.8291 17.8375 40.9351 17.6995L41.0371 17.5594C41.4173 17.0137 41.5319 16.3638 41.3718 15.7545L41.2858 15.4967C41.1979 15.2777 41.0808 15.084 40.9443 14.9153C41.2977 14.4555 41.5979 13.8003 41.4996 13.0389C41.3993 12.2632 40.9338 11.7014 40.3551 11.3642L40.5012 11.0416C40.6824 10.6103 40.8592 10.0756 40.9065 9.51154L40.9188 9.26907C40.928 8.57415 40.7062 7.71631 39.92 7.1178L39.9207 7.11683L39.9152 7.11428ZM39.0691 8.44332C39.9916 9.36081 38.4473 11.6978 37.8258 12.4901C38.3387 12.4702 38.9095 12.4556 39.3911 12.6297C40.0914 12.8963 40.0943 13.5202 39.6506 14.0328L39.4664 14.233C39.0263 14.6818 38.5102 15.0145 37.9321 15.2741C38.3593 15.3386 38.8236 15.4097 39.2301 15.5696L39.401 15.6437C39.8091 15.8408 40.0352 16.2655 39.7548 16.6674C39.1335 17.5581 37.8026 17.9972 36.7959 18.2615C37.6528 18.5045 38.6481 18.6645 39.4199 19.1391C39.5653 19.2285 39.7157 19.4287 39.7387 19.6033C39.81 20.15 39.2203 20.5111 38.7998 20.7184L38.4273 20.8807C37.5471 21.2286 36.5955 21.3629 35.6637 21.4914C36.2776 21.6667 38.6067 22.4972 39.0431 22.9647C40.239 24.3235 37.3626 24.7692 36.5221 24.8494C35.9178 24.9069 35.3195 24.9046 34.7109 24.9095C35.4106 25.2027 37.9026 26.2782 38.2371 26.8091C39.4976 28.8116 33.9109 28.3708 33.4141 28.3228C34.4762 28.7726 35.847 29.4514 36.7158 30.2158C37.2546 30.69 36.8025 31.329 36.2158 31.5143L35.9522 31.5901L35.7014 31.6501C34.4383 31.9266 33.0437 31.8304 31.7902 31.6814C32.8166 32.0792 34.2244 32.7905 35.0429 33.5402C35.5432 33.9986 35.1373 34.6525 34.552 34.8365L34.2514 34.9223L33.9641 34.9898C32.5222 35.2952 30.9474 35.1423 29.5175 34.942C37.078 38.5738 31.2422 39.1971 26.7421 38.2388C27.7701 38.7909 28.8741 39.5601 29.7463 40.3354C30.1055 40.6548 30.3733 41.2193 29.9183 41.5905L29.7992 41.6769C29.1817 42.0773 28.1915 42.0476 27.4938 42.0443C24.5024 41.9205 20.2611 40.5824 18.1924 38.3621L16.6827 40.4239L16.4665 40.7251C16.2266 41.0601 15.9272 41.4615 15.6633 41.6253L15.5753 41.6752C15.1344 41.8971 14.6418 41.7727 14.3751 41.3104C14.3606 41.2746 14.3462 41.2325 14.3339 41.1902L14.3051 41.0671C14.2695 40.8546 14.2958 40.6361 14.3834 40.4394C14.4494 40.294 14.6063 40.0635 14.7718 39.8347L15.2132 39.2404C15.7082 38.5619 16.2182 37.8948 16.6928 37.1996C16.0292 36.8588 15.4328 36.4541 14.8602 35.9766C12.8904 34.3343 10.3025 30.6866 10.0793 28.0936C10.0498 27.7503 10.0444 27.3844 10.2871 27.109C10.4134 26.966 10.5887 26.8789 10.7798 26.8731C11.5638 26.8489 13.9098 28.7793 14.5074 29.323C13.5742 27.7277 12.7329 25.8904 12.5128 24.0391C12.4657 23.6413 12.4758 23.1431 12.7413 22.821C13.0245 22.4777 13.4529 22.5533 13.794 22.7605C14.8563 23.4858 15.7989 24.4548 16.7211 25.3511C16.5699 24.9691 16.3797 24.584 16.2215 24.1843C15.7742 23.054 15.3795 21.8575 15.3016 20.6365C15.2897 20.2973 15.3277 19.9105 15.5774 19.6541C16.1657 19.0506 17.0193 19.9134 17.448 20.3028C18.0898 20.8858 18.6723 21.5227 19.2436 22.1599C18.7768 21.012 18.1669 19.3125 18.1341 18.0231L18.1356 17.7712C18.1486 17.4315 18.2028 17.0543 18.4723 16.8168C18.6056 16.6997 18.7806 16.6525 18.9557 16.6688C19.742 16.7423 21.3967 18.8394 21.9197 19.477C21.4996 18.4121 20.9413 16.669 20.9782 15.4447L20.9947 15.2067C21.026 14.9057 21.116 14.5804 21.3654 14.3865C21.5085 14.2753 21.6838 14.2333 21.8627 14.256C22.6555 14.3574 24.1941 16.4822 24.7011 17.137C24.3973 16.0589 24.0469 14.7692 24.1366 13.6231L24.1609 13.3967C24.2035 13.0785 24.2909 12.7216 24.5641 12.5218C24.7067 12.4176 24.8768 12.3842 25.0502 12.4127C25.7935 12.5354 27.1074 14.5585 27.5494 15.1887C27.3397 14.3396 27.2201 13.1436 27.3393 12.202L27.4043 11.816C27.4679 11.5433 27.6276 11.2283 27.8843 11.0915C28.4739 10.7781 29.0051 11.4616 29.3032 11.867C29.6378 12.3222 29.9169 12.7901 30.1797 13.28C30.0659 12.6351 30.0701 11.958 30.1632 11.3053L30.2085 11.0277C30.3031 10.5095 30.6367 9.78535 31.2895 9.97321C31.87 10.1407 32.3433 11.084 32.6263 11.5748C32.6778 10.946 32.8035 8.60544 34.0455 8.91175L34.1688 8.94969C34.6565 9.12835 35.077 10.2763 35.2375 10.7792C35.9313 9.85406 37.5142 7.86613 38.848 8.27356C38.8908 8.2997 38.932 8.32882 38.972 8.35933L39.0691 8.44332ZM38.4313 9.13866C38.3644 9.14486 38.2789 9.16635 38.1697 9.21153C37.948 9.30331 37.6877 9.47579 37.4035 9.72166C36.8346 10.2141 36.3148 10.8735 35.9723 11.3303C35.7662 11.6049 35.4243 11.7418 35.0857 11.6848C34.7468 11.6276 34.4676 11.3856 34.363 11.0582C34.289 10.8264 34.1604 10.4651 34.0049 10.1542C33.9555 10.0553 33.9081 9.97247 33.8658 9.90645C33.8383 9.96378 33.8083 10.0342 33.7803 10.1194C33.6124 10.6304 33.5711 11.287 33.5413 11.6507C33.5082 12.0507 33.2189 12.3829 32.8273 12.471C32.4354 12.5589 32.0314 12.3818 31.8306 12.0339C31.6651 11.7468 31.5129 11.4556 31.3203 11.1847C31.2651 11.1071 31.2136 11.0429 31.1673 10.9905C31.1434 11.057 31.1244 11.1269 31.1125 11.1917L31.0722 11.436C30.991 12.0066 30.9897 12.5847 31.0841 13.1204C31.1623 13.5646 30.906 14.0001 30.4798 14.1478C30.0536 14.2953 29.583 14.1114 29.3698 13.714C29.1195 13.2474 28.8635 12.8197 28.5628 12.4107C28.4912 12.3133 28.4205 12.2192 28.3452 12.1326C28.3266 12.1111 28.3078 12.0919 28.2906 12.0736C28.1315 12.8685 28.226 14.098 28.4408 14.9679C28.5468 15.3972 28.3317 15.8412 27.9292 16.0243C27.5269 16.2072 27.0517 16.0772 26.7978 15.7154C26.5572 15.3723 26.1472 14.752 25.6933 14.1808C25.4703 13.9001 25.2584 13.6601 25.0752 13.4898C25.0739 13.4989 25.0723 13.5083 25.071 13.5179C24.9402 14.4966 25.2502 15.698 25.5854 16.8873C25.7046 17.3104 25.507 17.7591 25.1145 17.957C24.722 18.1546 24.2447 18.0464 23.9756 17.6989C23.7034 17.3475 23.2214 16.6914 22.6981 16.0931C22.4373 15.7949 22.1888 15.538 21.9753 15.357C21.9512 15.3365 21.9276 15.3192 21.9068 15.3027C21.8601 15.7538 21.9484 16.4113 22.1326 17.1546C22.3118 17.8777 22.5607 18.5998 22.774 19.1404C22.9399 19.561 22.7755 20.0397 22.3859 20.2689C21.996 20.4981 21.497 20.4092 21.2102 20.0595C20.9378 19.7274 20.4186 19.0753 19.8684 18.4912C19.5929 18.1987 19.3303 17.9467 19.1069 17.7698C19.0902 17.7566 19.0737 17.7447 19.0582 17.7329C19.0568 17.7556 19.0536 17.7797 19.0526 17.8057C19.0329 18.3171 19.1554 18.9985 19.3679 19.7479C19.5761 20.4822 19.8519 21.2165 20.0946 21.8136C20.2628 22.2271 20.1085 22.7018 19.73 22.9384C19.3514 23.1749 18.8574 23.105 18.5594 22.7727C18.1318 22.2957 17.7125 21.8358 17.2748 21.4043L16.8301 20.983C16.7038 20.8682 16.5976 20.7656 16.465 20.6536C16.3764 20.5788 16.2935 20.5186 16.2203 20.4696C16.2188 20.5066 16.218 20.5482 16.2194 20.5947C16.2903 21.6623 16.6392 22.7435 17.0756 23.8461C17.1467 24.0258 17.2257 24.2055 17.3129 24.4019C17.3974 24.5923 17.4915 24.8014 17.5752 25.0128C17.7345 25.4154 17.5911 25.8753 17.231 26.1156C16.871 26.3558 16.3917 26.3121 16.0812 26.0108C15.173 25.1282 14.3375 24.2753 13.4138 23.6181C13.409 23.7105 13.4119 23.8169 13.4254 23.9313C13.6236 25.5979 14.391 27.3063 15.2999 28.8601C15.5286 29.2516 15.4376 29.7511 15.0854 30.0366C14.7329 30.3222 14.2241 30.3078 13.8885 30.0025C13.6142 29.753 12.9057 29.1568 12.1762 28.6304C11.8107 28.3668 11.4595 28.1347 11.1673 27.9745C11.1005 27.9379 11.0408 27.9061 10.9873 27.8804C10.9889 27.9186 10.9895 27.9632 10.994 28.0154L11.0177 28.2206C11.1642 29.2669 11.7517 30.5879 12.5889 31.8978C13.4706 33.2773 14.5506 34.5234 15.4485 35.2719C15.9744 35.7104 16.5146 36.0753 17.1119 36.3821C17.3461 36.5024 17.5175 36.7179 17.5824 36.9731C17.6473 37.2284 17.5991 37.4995 17.4505 37.7171C16.9654 38.4277 16.4337 39.1257 15.955 39.7819C15.9 39.8573 15.8259 39.956 15.7523 40.0543C15.6759 40.1564 15.5938 40.2653 15.5157 40.3732C15.4372 40.4817 15.3666 40.5833 15.31 40.6701C15.2818 40.7133 15.2597 40.7497 15.2431 40.7782C15.2383 40.7865 15.2351 40.7939 15.232 40.7996C15.2709 40.7625 15.3179 40.7115 15.373 40.6465C15.4849 40.5144 15.6012 40.3559 15.7198 40.1904L15.7205 40.1894L15.9367 39.8883L15.9416 39.8816L17.4513 37.8197L17.5159 37.7411C17.6762 37.5665 17.8987 37.4595 18.1379 37.4454C18.4112 37.4292 18.6775 37.5356 18.8641 37.7359C19.7631 38.7008 21.1934 39.5269 22.8154 40.1284C24.4245 40.7249 26.1355 41.0677 27.5246 41.1261C27.8857 41.128 28.2399 41.1342 28.5826 41.099C28.8033 41.0763 28.9743 41.0366 29.1035 40.993C28.2905 40.2757 27.2609 39.5602 26.3081 39.0485C25.9053 38.8322 25.7228 38.3527 25.8801 37.9235C26.0375 37.4943 26.4866 37.2464 26.9338 37.3416C28.0045 37.5696 29.1542 37.7028 30.1538 37.7212C31.0115 37.737 31.6618 37.6629 32.0538 37.5513C31.6598 37.1635 30.7817 36.5674 29.1196 35.769C28.7116 35.573 28.5066 35.109 28.6376 34.6757C28.7686 34.2424 29.1964 33.9689 29.6447 34.0317C31.1674 34.2451 32.6965 34.3762 34.0215 34.0332L34.1566 33.994C33.4333 33.4316 32.3307 32.8766 31.4578 32.5384C31.0267 32.3711 30.7868 31.9086 30.8985 31.4598C31.0103 31.0108 31.4397 30.7152 31.8992 30.7698C33.2203 30.9268 34.562 31.0015 35.7055 30.7036L35.8211 30.6709C35.0632 30.0968 33.9803 29.5599 33.0559 29.1684C32.6384 28.9916 32.4128 28.5361 32.5242 28.0966C32.6357 27.6571 33.0515 27.3647 33.5029 27.4083C33.738 27.431 35.1845 27.5451 36.3912 27.4208C36.8246 27.3762 37.1418 27.3039 37.3486 27.2333C37.297 27.1973 37.2349 27.1557 37.1615 27.1104C36.9054 26.9523 36.5695 26.7746 36.2045 26.5943C35.4775 26.2349 34.6997 25.9002 34.3563 25.7563C33.9544 25.5877 33.7265 25.1597 33.8107 24.732C33.8951 24.3044 34.2684 23.9956 34.7042 23.9921C35.3301 23.9871 35.8799 23.988 36.4346 23.9353L36.8016 23.8904C37.2236 23.8291 37.7799 23.7175 38.1825 23.5436C38.2044 23.5342 38.2239 23.5225 38.2428 23.5136C38.1855 23.4798 38.1077 23.4334 38.0027 23.3802C37.7459 23.2504 37.4212 23.1086 37.0769 22.9696C36.3834 22.6898 35.6786 22.4505 35.4115 22.3742C34.9941 22.255 34.7175 21.8597 34.7479 21.4267C34.7785 20.9936 35.1081 20.64 35.5383 20.5807C36.6264 20.4306 37.5717 20.2905 38.4007 19.8911C38.4826 19.8505 38.5606 19.8062 38.6328 19.7612C38.4155 19.6626 38.1679 19.5771 37.8875 19.4968C37.6784 19.4369 37.4638 19.3815 37.2364 19.3246C37.0144 19.269 36.7769 19.2101 36.5464 19.1448C36.1482 19.0319 35.8739 18.6668 35.8778 18.2529C35.8819 17.8389 36.1632 17.4788 36.5637 17.3737C37.0488 17.2463 37.568 17.0869 38.0267 16.8693C38.3451 16.7183 38.5972 16.555 38.7833 16.3847C38.5198 16.2976 38.1944 16.2429 37.7945 16.1826C37.3919 16.1216 37.0775 15.802 37.0222 15.3986C36.9671 14.9952 37.1841 14.6034 37.5554 14.4364C38.0504 14.2141 38.4655 13.9417 38.8105 13.5899L38.937 13.4527C38.6679 13.3906 38.3199 13.3903 37.8617 13.4081C37.5041 13.422 37.1711 13.2269 37.0083 12.9082C36.8456 12.5896 36.8826 12.2058 37.1033 11.9243C37.3867 11.563 37.8779 10.848 38.1843 10.1465C38.3388 9.79269 38.4216 9.49988 38.4361 9.28856C38.4409 9.21894 38.4363 9.17031 38.4313 9.13866ZM40.3417 6.3007L40.3343 6.29674L40.3362 6.29815L40.3511 6.30606C40.3474 6.30405 40.3441 6.30195 40.3417 6.3007Z" fill="#020101"/>
<path id="Vector_2" d="M38.5281 8.95991C38.6105 9.07373 38.5816 9.29877 38.5525 9.43302C38.1502 11.28 36.6566 12.7574 35.2318 13.8607C36.3886 13.4372 37.7357 13.1335 38.9872 13.2863C39.0721 13.2966 39.125 13.312 39.1696 13.3768C39.0876 13.9035 37.4329 14.7248 36.9301 14.8675C36.3462 15.0333 35.5312 15.2847 34.9308 15.006C34.7164 14.9065 34.6532 14.7742 34.5858 14.5698C34.2101 15.0921 33.6915 15.8607 33.2875 16.3393C34.6798 15.7977 37.6455 15.8212 39.0691 16.3197C38.3334 17.1516 36.4781 17.6267 35.3859 17.7184C34.6252 17.7823 33.0737 17.81 32.9852 16.7654C32.6117 17.3413 32.1645 17.8912 31.7736 18.4569C31.6801 18.592 31.5756 18.7269 31.4637 18.8471C31.7745 18.7445 32.134 18.6588 32.4585 18.6345C34.2008 18.5038 37.4276 18.9992 38.9484 19.7218C38.1988 20.319 36.7643 20.5963 35.7813 20.698C34.5987 20.8206 32.5677 20.7836 31.5673 20.0448C31.299 19.8466 31.1966 19.5891 31.1656 19.2699C30.7307 19.8752 29.9966 20.9618 29.5363 21.4926C29.6546 21.4552 29.8866 21.3905 29.9993 21.3691C31.9583 20.9981 37.05 22.4897 38.5623 23.5234C38.025 23.9156 37.2113 24.0237 36.5627 24.0863C34.7444 24.262 31.1137 23.9967 29.68 22.799C29.3989 22.5641 29.2573 22.3144 29.2261 21.9514C28.9292 22.3701 28.6098 22.7902 28.3085 23.2091C28.0589 23.5563 27.7724 23.9673 27.5063 24.2967C29.5936 23.583 33.763 25.3266 35.7162 26.1768C36.2432 26.4062 37.2038 26.9011 37.643 27.2618C37.3294 27.4391 36.8235 27.5413 36.4658 27.5835C34.3142 27.8375 31.9906 27.4508 29.9429 26.7913C29.2392 26.5645 28.4293 26.2612 27.8483 25.8075C27.4625 25.5061 27.2587 25.2207 27.2019 24.7336C26.5948 25.5528 25.9958 26.3778 25.4046 27.2082C25.6946 27.1019 25.9752 27.0428 26.2852 27.0339C26.839 27.0178 27.6405 27.1196 28.187 27.2559C30.2926 27.7811 32.3751 28.6085 34.3125 29.581C34.8384 29.845 35.7297 30.3238 36.1592 30.7158C35.8725 30.8719 35.42 30.968 35.094 31.003C32.6808 31.263 30.0987 30.7083 27.8487 29.8592C27.2022 29.6152 26.3936 29.2688 25.8594 28.8552C25.412 28.509 25.1723 28.1845 25.0996 27.626C24.4798 28.397 23.8437 29.349 23.2394 30.1563C23.4431 30.0955 23.6453 30.0422 23.8562 30.0146C26.122 29.7194 32.663 32.6391 34.4887 34.0317C33.9261 34.3823 32.9036 34.4089 32.2424 34.4159C29.8402 34.4408 25.1713 33.4093 23.4355 31.6895C23.1222 31.379 22.9167 31.041 22.9171 30.5908C22.4125 31.3281 21.8541 32.0371 21.3463 32.7733C21.2416 32.9254 21.1349 33.0775 21.0125 33.2161C21.25 33.1338 21.4762 33.0765 21.7276 33.0572C24.0212 32.8811 30.6284 36.0711 32.3925 37.5844C32.0751 37.8018 31.5976 37.8423 31.2226 37.8825C28.418 38.1843 23.7586 36.9171 21.5798 35.1334C21.089 34.7318 20.7524 34.3077 20.6901 33.662C20.129 34.4872 19.3361 35.5388 18.7319 36.3432C18.8539 36.2925 18.9765 36.2452 19.106 36.2163C21.0618 35.7765 25.2031 38.1655 26.9011 39.2196C27.2629 39.4443 29.2781 40.7302 29.3511 41.0428C29.2077 41.2343 28.0688 41.3001 27.7956 41.2905C24.7498 41.1837 21.3764 40.1451 19.0706 38.0981C18.6786 37.7502 18.4226 37.2866 18.4209 36.7642C18.0534 37.2495 15.4768 40.8433 15.2963 40.9652C15.2397 41.0035 15.1709 41.0192 15.1041 41.0053C15.0612 40.9965 15.0643 40.9857 15.0417 40.9532C15.0271 40.7252 15.4178 40.271 15.5643 40.0759L17.1356 37.921C17.4812 37.4466 17.8463 36.9242 18.2183 36.4775C17.7234 36.6795 17.2695 36.6022 16.8041 36.3568C15.3366 35.5828 14.0336 34.1799 13.0632 32.8596C12.2569 31.763 10.6338 29.011 10.8498 27.6161C11.185 27.7674 11.73 28.1472 12.0304 28.3586C13.608 29.471 15.0602 30.7512 16.3611 32.1773C17.102 32.9929 18.095 34.1586 18.4202 35.2221C18.5091 35.5133 18.5173 35.782 18.5027 36.0834C19.1356 35.1882 19.8267 34.2732 20.4742 33.3787C20.2641 33.4628 20.0438 33.5211 19.8155 33.4736C18.4168 33.1826 16.8829 31.2937 16.0818 30.2126C14.9356 28.6657 14.002 26.9616 13.488 25.1162C13.3289 24.5454 13.1843 23.9107 13.2731 23.3271C13.9823 23.6869 16.0549 25.7203 16.6332 26.3864C18.0362 28.0032 19.8858 29.9664 20.6223 32.0035C20.744 32.3406 20.7555 32.6914 20.7383 33.0382C21.2046 32.3785 21.7034 31.7351 22.1728 31.0766C22.3519 30.825 22.5385 30.5725 22.734 30.3337C22.5117 30.4192 22.3243 30.4619 22.0857 30.4156C20.9436 30.1937 19.6397 28.5226 18.9945 27.597C17.7733 25.8457 16.6204 23.6866 16.1928 21.5856C16.0966 21.1134 16.0115 20.6459 16.0892 20.1712C17.1238 20.921 18.5687 22.4592 19.3739 23.475C20.5303 24.9336 23.1568 28.0684 22.9854 29.9577C23.6169 29.1054 24.2432 28.2495 24.8644 27.3899C24.6599 27.4476 24.5116 27.471 24.2976 27.4197C23.2845 27.1772 22.1493 25.6214 21.5979 24.7755C20.4275 22.9794 19.3691 20.8809 18.9841 18.7581C18.9027 18.3097 18.8425 17.8677 18.9344 17.4223C19.6454 17.9144 21.0085 19.4997 21.5443 20.1978C22.6587 21.6499 25.3866 25.1541 25.1594 27.0173C25.2444 26.8787 25.338 26.7454 25.4363 26.6158C25.9675 25.9154 26.4617 25.1714 27.0065 24.4827C26.8357 24.5269 26.6326 24.6001 26.4541 24.5475C25.4778 24.2593 24.5226 22.7768 24.0183 21.9489C23.6599 21.3724 23.3364 20.7748 23.0495 20.1596C22.5128 19.0048 21.4803 16.2459 21.787 14.9836C22.1076 15.2255 22.3857 15.5197 22.6533 15.8179C24.1526 17.488 26.7444 21.0707 27.2061 23.2776C27.2666 23.5662 27.2772 23.8386 27.2614 24.1321C27.8358 23.3305 28.4578 22.5154 29.0459 21.7181C28.8923 21.7463 28.7088 21.801 28.5544 21.7612C27.8186 21.5715 27.248 20.6495 26.8663 20.0706C25.8368 18.5092 24.5435 15.019 24.9712 13.1604C25.0143 13.1977 25.0567 13.236 25.0983 13.2751C26.4876 14.583 28.6717 18.2687 29.2097 20.1973C29.3247 20.6098 29.3049 20.943 29.3175 21.3467C29.8602 20.595 30.4522 19.7999 31.0089 19.057C30.8218 19.1216 30.6731 19.1499 30.4794 19.0812C29.8839 18.8701 29.3669 17.9055 29.0873 17.3736C28.3613 15.9923 27.7253 13.2738 28.2142 11.7731C28.2846 11.8429 28.3533 11.9145 28.42 11.9879C29.4825 13.1748 30.7239 15.8479 31.1479 17.3995C31.2602 17.8105 31.302 18.2553 31.277 18.6813C31.4279 18.4403 31.7527 18.0273 31.9387 17.7784C32.2074 17.4188 32.5482 16.9082 32.8294 16.5859C32.2857 16.73 31.9666 16.3927 31.7273 15.9434C31.0872 14.7415 30.8438 13.3429 30.866 11.9908C30.8698 11.7626 30.8958 10.8652 31.114 10.7518C31.1637 10.7801 31.2158 10.8182 31.2514 10.8629C32.3215 12.2064 33.1636 14.4439 33.1364 16.1391C33.414 15.7288 33.734 15.3344 34.019 14.9278C34.1446 14.7486 34.2822 14.5674 34.4287 14.4052C33.8483 14.4986 33.6012 13.7848 33.5133 13.3299C33.3048 12.2496 33.2581 10.5803 33.8506 9.63999C34.5727 10.5902 34.8593 12.2886 34.8784 13.4733C35.1574 12.5605 35.5204 11.7193 36.0738 10.9303C36.5831 10.2044 37.6115 9.12044 38.5281 8.95991Z" fill="#8AB17D"/>
</g>
</g>
<path id="Union" d="M36.8687 6.0708C37.5672 5.78164 38.528 5.58186 39.5728 5.90088L39.7612 5.9585L39.8706 5.99951C39.9058 6.01533 39.9402 6.03405 39.9731 6.0542L40.1401 6.15674L40.1411 6.15576C40.2385 6.21527 40.3308 6.27965 40.4185 6.34424C40.4361 6.35563 40.4567 6.3702 40.479 6.38721C40.4874 6.39368 40.4943 6.40196 40.5024 6.40869C41.5672 7.23515 41.848 8.40232 41.8364 9.28076C41.8275 9.94659 41.6588 10.5668 41.4751 11.0659C41.95 11.5235 42.3102 12.1442 42.4106 12.9214C42.5108 13.6976 42.3136 14.3767 42.0298 14.9136C42.0687 14.991 42.1049 15.0718 42.1382 15.1548C42.5286 16.1281 42.3984 17.2135 41.7905 18.0854C41.7867 18.091 41.7828 18.0966 41.7788 18.1021C41.903 18.3076 42.0297 18.5681 42.1157 18.8765L42.1606 19.0581L42.1665 19.0923L42.1929 19.2437C42.195 19.256 42.1942 19.2694 42.1958 19.2817H42.1987C42.3577 20.4986 41.8031 21.3946 41.3335 21.9087C41.4963 22.1797 41.6389 22.4943 41.7251 22.853C41.8955 23.5628 41.809 24.2817 41.5015 24.9106C41.2684 25.3871 40.9413 25.7448 40.6147 26.0132C40.837 26.522 40.9874 27.1696 40.853 27.8999C40.661 28.9419 39.999 29.5984 39.4751 29.9526C39.4374 29.9781 39.3971 29.9991 39.3589 30.0229C39.3675 30.0608 39.379 30.0985 39.3862 30.1372C39.508 30.7896 39.4013 31.3871 39.2036 31.8696L39.1138 32.0688L39.021 32.2446C38.6937 32.8199 38.2178 33.2486 37.7104 33.5435C37.8158 34.2202 37.684 34.8378 37.4595 35.3267C37.0664 36.1814 36.349 36.7795 35.5845 37.0942C35.6696 37.5032 35.6794 37.9657 35.5483 38.4644C35.2148 39.7316 34.2105 40.3287 33.6812 40.5698C33.3511 40.7201 32.9943 40.8282 32.6313 40.9087C32.6836 41.742 32.4133 42.6477 31.6714 43.3501C31.6634 43.3577 31.6543 43.3653 31.646 43.3726L31.5122 43.4917C31.5037 43.4992 31.4946 43.506 31.4858 43.5132C30.6384 44.2036 29.6518 44.3945 29.0562 44.4663C28.4356 44.541 27.805 44.5256 27.4917 44.5239L27.4624 44.5259C27.4482 44.526 27.4336 44.5265 27.4194 44.5259L27.3911 44.5239C25.6108 44.4502 23.5461 44.0249 21.6343 43.3159C20.6355 42.9455 19.6213 42.4734 18.6812 41.895L18.6782 41.8989C18.6462 41.9424 18.3554 42.3549 18.1685 42.5952C18.0071 42.8025 17.6608 43.2388 17.1899 43.5854C17.1804 43.5924 17.1704 43.5993 17.1606 43.606L17.0015 43.7144C16.9912 43.7213 16.9807 43.7284 16.9702 43.7349C16.2469 44.1832 15.3305 44.3942 14.3931 44.1772C13.4384 43.9561 12.6823 43.34 12.2261 42.5483L12.2251 42.5493L12.1714 42.4556C12.1503 42.419 12.1316 42.3804 12.1157 42.3413L12.0757 42.2407L12.0747 42.2397C11.988 42.0251 11.9152 41.7768 11.8696 41.5347L11.8687 41.5356L11.8677 41.5288C11.8639 41.5113 11.8597 41.4937 11.8569 41.4761L11.856 41.4692L11.8569 41.4683C11.7447 40.7881 11.8314 40.0906 12.106 39.4595L12.1099 39.4497C12.1146 39.4381 12.1203 39.4269 12.1255 39.4155C12.3122 39.004 12.6253 38.5716 12.7622 38.3823C12.8279 38.2915 12.9359 38.1446 13.0278 38.021C13.0744 37.9583 13.1187 37.8994 13.1519 37.855C13.1657 37.8363 13.1774 37.8191 13.187 37.8062C11.9929 36.7901 10.7282 35.2974 9.7251 33.728C8.73884 32.1849 7.7934 30.2436 7.61475 28.3706L7.60693 28.3062C7.58115 28.0064 7.41543 26.6129 8.42725 25.4663L8.44287 25.4487L8.52002 25.3677C8.5249 25.3624 8.52967 25.3562 8.53467 25.3511C8.9434 24.9315 9.47194 24.6194 10.0688 24.4771L10.0513 24.3501C10.0505 24.3444 10.05 24.3382 10.0493 24.3325C10.0112 24.011 9.98418 23.5572 10.0532 23.0601C10.1213 22.5709 10.3055 21.8747 10.8276 21.2417L10.8462 21.2212L10.9341 21.1196L10.9517 21.1001C11.4844 20.5255 12.1595 20.2193 12.8364 20.1323C12.8876 19.5311 13.0859 18.656 13.7993 17.9233L13.814 17.9087L13.8989 17.8257L13.9165 17.8091C14.4299 17.3315 15.0616 17.0513 15.728 16.9829C15.8334 16.4005 16.1043 15.5959 16.8325 14.9546C16.8389 14.949 16.8455 14.9434 16.8521 14.938L16.9487 14.8589L16.9683 14.8423C17.4993 14.4259 18.1033 14.2328 18.6724 14.1938C18.8307 13.6465 19.156 12.9625 19.8433 12.4282L19.8628 12.4126L19.9595 12.3423L19.978 12.3286C20.6283 11.8764 21.3756 11.7216 22.0669 11.7856C22.2698 11.3568 22.5892 10.8927 23.1021 10.5181L23.1235 10.5024L23.2202 10.436L23.2397 10.4233C23.9459 9.9635 24.7446 9.84814 25.4526 9.96436L25.4771 9.96924L25.5415 9.98096C25.8059 9.58558 26.1821 9.18702 26.7202 8.90088C27.427 8.52517 28.1094 8.47566 28.6938 8.57471C28.9727 8.25336 29.3796 7.9046 29.9409 7.68115C30.429 7.48695 30.9398 7.42733 31.436 7.48291C31.5349 7.3735 31.6429 7.26385 31.7642 7.16162C32.6973 6.37515 33.9086 6.21221 35.022 6.61963L35.0464 6.62842L35.1421 6.66748L35.1626 6.67432C35.2951 6.73073 35.4179 6.79502 35.5308 6.86279C35.9063 6.57303 36.3562 6.28306 36.8687 6.0708ZM27.4575 43.6079H27.4858C27.6359 43.6086 27.8348 43.6104 28.0591 43.6069H27.4575V43.6079ZM28.188 43.604C28.2473 43.6025 28.308 43.5998 28.3696 43.5972C28.3079 43.5998 28.2473 43.6025 28.188 43.604ZM29.6313 43.4263C29.3821 43.492 29.147 43.53 28.9458 43.5542V43.5552C29.0129 43.5471 29.0838 43.5375 29.1577 43.5259C29.3055 43.5025 29.4652 43.4702 29.6313 43.4263ZM26.189 43.4995C26.2654 43.5091 26.3418 43.5155 26.4175 43.5239C26.3418 43.5155 26.2654 43.5091 26.189 43.4995ZM25.5249 43.4019C25.6469 43.422 25.7685 43.4392 25.8892 43.4565C25.7685 43.4392 25.6469 43.422 25.5249 43.4019ZM24.9038 43.2876C25.0132 43.3095 25.1223 43.3303 25.231 43.3501C25.1223 43.3303 25.0132 43.3095 24.9038 43.2876ZM14.5991 43.2827H14.6001H14.5991ZM24.2241 43.1392C24.3353 43.1656 24.4463 43.191 24.5571 43.2153C24.4463 43.191 24.3353 43.1656 24.2241 43.1392ZM14.1343 43.1216C14.1634 43.1351 14.1934 43.1463 14.2231 43.1587C14.1934 43.1463 14.1634 43.1351 14.1343 43.1216ZM23.5542 42.9673C23.6759 43.0008 23.7977 43.033 23.9194 43.064C23.7977 43.0329 23.6759 43.0008 23.5542 42.9673ZM13.9214 43.0093C13.9532 43.0281 13.9863 43.0446 14.019 43.062C13.9863 43.0446 13.9532 43.0281 13.9214 43.0093ZM16.4858 42.9536C16.4458 42.9784 16.4041 43.0002 16.3628 43.0229C16.4043 43.0002 16.4467 42.9785 16.4868 42.9536L16.646 42.8462L16.4858 42.9536ZM13.7183 42.8735C13.7518 42.8982 13.786 42.9218 13.8208 42.9448C13.786 42.9218 13.7518 42.8983 13.7183 42.8735ZM22.8813 42.769C23.0039 42.8075 23.1265 42.8454 23.2495 42.8813C23.1265 42.8454 23.0039 42.8075 22.8813 42.769ZM13.521 42.7114C13.5606 42.7475 13.6012 42.7824 13.6431 42.8159C13.6012 42.7824 13.5606 42.7476 13.521 42.7114ZM16.8208 42.7036C16.835 42.6914 16.8489 42.6789 16.8628 42.6665C16.8489 42.6789 16.835 42.6913 16.8208 42.7036ZM22.5591 42.6675C22.5694 42.6709 22.58 42.6738 22.5903 42.6772C22.3768 42.6066 22.1641 42.5327 21.9536 42.4546L22.5591 42.6675ZM13.3521 42.5415C13.3885 42.5817 13.4255 42.621 13.4644 42.6587C13.4255 42.621 13.3885 42.5817 13.3521 42.5415ZM16.9399 42.5952C16.9973 42.5408 17.0514 42.4861 17.1021 42.4321C17.0514 42.4861 16.9973 42.5408 16.9399 42.5952ZM13.1626 42.3091C13.2058 42.3694 13.2514 42.4277 13.2993 42.4839C13.2514 42.4277 13.2057 42.3694 13.1626 42.3091ZM17.1343 42.3979C17.1963 42.3305 17.254 42.2661 17.3042 42.2056C17.254 42.2661 17.1963 42.3304 17.1343 42.3979ZM13.1401 42.2788C13.1446 42.2853 13.1502 42.2909 13.1548 42.2974C13.1075 42.2305 13.0622 42.1618 13.021 42.0903L13.1401 42.2788ZM31.5122 40.1538H31.5132C31.6653 40.1394 31.816 40.1202 31.9644 40.0981C31.8157 40.1202 31.6646 40.1394 31.5122 40.1538ZM32.3081 40.0386C32.3297 40.0343 32.3511 40.0294 32.3726 40.0249C32.3511 40.0294 32.3297 40.0343 32.3081 40.0386ZM19.562 39.5161C19.7347 39.6335 19.9134 39.747 20.0972 39.8569H20.0981C20.006 39.8018 19.9151 39.7459 19.8257 39.689C19.7365 39.6321 19.6483 39.5748 19.562 39.5161ZM32.7075 39.9438C32.7536 39.9311 32.7992 39.9178 32.8442 39.9038C32.7992 39.9178 32.7536 39.9311 32.7075 39.9438ZM32.9116 39.8833C32.9589 39.8678 33.0054 39.8513 33.0513 39.8345C33.0054 39.8513 32.9589 39.8678 32.9116 39.8833ZM33.5854 39.5825C33.6047 39.5712 33.6245 39.5605 33.644 39.5483C33.6245 39.5605 33.6047 39.5712 33.5854 39.5825ZM33.7319 39.4897C33.7695 39.4644 33.8084 39.4391 33.8462 39.4106C33.8084 39.4391 33.7695 39.4644 33.7319 39.4897ZM33.9087 39.3589C33.9504 39.3254 33.9927 39.291 34.0337 39.2534C33.9928 39.291 33.9504 39.3253 33.9087 39.3589ZM13.5054 38.9204C13.4322 39.0216 13.3319 39.162 13.2319 39.3159C13.3321 39.1618 13.4331 39.0217 13.5063 38.9204C13.6295 38.7502 13.9263 38.3532 13.9507 38.3198L13.5054 38.9204ZM34.1704 39.1187C34.1869 39.1008 34.2031 39.0826 34.2192 39.064C34.2032 39.0826 34.1869 39.1008 34.1704 39.1187ZM34.269 39.0054C34.2759 38.9969 34.2818 38.9877 34.2886 38.979C34.2818 38.9877 34.2759 38.9969 34.269 39.0054ZM34.3442 38.9048C34.3651 38.8755 34.3861 38.8459 34.4058 38.8149C34.3861 38.8459 34.3651 38.8755 34.3442 38.9048ZM34.7104 37.9771C34.6992 38.0602 34.6823 38.1449 34.6597 38.231C34.6035 38.4443 34.5191 38.6315 34.4175 38.7954C34.4932 38.6733 34.5598 38.5383 34.6118 38.3892L34.6606 38.231C34.6833 38.1449 34.6992 38.0602 34.7104 37.9771ZM30.9028 38.6304C30.7812 38.6357 30.6564 38.6397 30.5288 38.6411C30.6564 38.6397 30.7812 38.6357 30.9028 38.6304ZM28.8931 38.5679V38.5669V38.5679ZM31.9009 38.5278V38.5288V38.5278ZM26.7446 38.2397L26.7427 38.2388L26.7446 38.2397ZM13.4302 36.7993C13.5745 36.9325 13.7182 37.0591 13.8599 37.1772C14.0528 37.3381 14.2507 37.4921 14.4517 37.6401L14.1528 37.4126C14.0543 37.3356 13.9563 37.2567 13.8599 37.1763C13.7182 37.0582 13.5745 36.9325 13.4302 36.7993ZM15.2954 36.3218V36.3208V36.3218ZM35.144 36.2847C35.2176 36.2575 35.2899 36.2258 35.3618 36.1919C35.2899 36.2258 35.2176 36.2575 35.144 36.2847ZM35.4165 36.1646C35.4655 36.1401 35.5142 36.1149 35.562 36.0874C35.5142 36.1149 35.4655 36.1401 35.4165 36.1646ZM35.6626 36.0249C35.6941 36.0049 35.7255 35.9848 35.7563 35.9634C35.7256 35.9848 35.6941 36.0049 35.6626 36.0249ZM12.1245 35.4312H12.1255H12.1245ZM35.855 35.8911C35.8862 35.8673 35.9165 35.8422 35.9468 35.8169C35.9165 35.8422 35.8862 35.8673 35.855 35.8911ZM36.0405 35.7358C36.0768 35.7026 36.1115 35.6677 36.146 35.6323C36.1115 35.6678 36.0768 35.7026 36.0405 35.7358ZM36.1968 35.5806C36.2434 35.5299 36.2879 35.4771 36.3306 35.4224C36.2879 35.4771 36.2434 35.5299 36.1968 35.5806ZM31.8218 35.1567C31.8856 35.1585 31.9494 35.1599 32.0132 35.1606C31.9494 35.1599 31.8856 35.1585 31.8218 35.1567ZM37.9829 32.1372C37.6297 32.5656 37.1524 32.857 36.6851 33.0044C36.6542 33.0141 36.6222 33.0215 36.5913 33.0308C36.622 33.0216 36.6545 33.015 36.6851 33.0054C37.0746 32.8826 37.4715 32.6593 37.7974 32.3403C37.8626 32.2765 37.925 32.2087 37.9839 32.1372H37.9829ZM34.3823 31.814C34.4172 31.8124 34.452 31.8101 34.4868 31.8081C34.452 31.8101 34.4172 31.8124 34.3823 31.814ZM38.354 31.521C38.3339 31.57 38.3121 31.6177 38.2896 31.6636H38.2905C38.3131 31.6176 38.3349 31.5701 38.355 31.521H38.354ZM32.6079 31.7642C32.6764 31.7701 32.745 31.7766 32.814 31.7817C32.745 31.7766 32.6764 31.7701 32.6079 31.7642ZM34.9155 31.7749C34.9335 31.773 34.9513 31.7701 34.9692 31.7681C34.9513 31.7701 34.9335 31.773 34.9155 31.7749ZM38.5103 30.4976C38.528 30.6869 38.5201 30.869 38.4917 31.0405C38.5106 30.9264 38.5205 30.8075 38.52 30.6851C38.5198 30.6235 38.5172 30.5609 38.5112 30.4976H38.5103ZM36.7163 30.2163V30.2153C36.6621 30.1676 36.6053 30.1208 36.5474 30.0737C36.6054 30.1208 36.662 30.1686 36.7163 30.2163ZM10.644 30.189C10.6058 30.0971 10.5687 30.0057 10.5337 29.9146C10.5687 30.0057 10.6058 30.0971 10.644 30.189ZM35.5698 29.3989C35.7021 29.4785 35.831 29.5609 35.9565 29.644C35.831 29.5609 35.7021 29.4784 35.5698 29.3989ZM38.9614 29.1909C38.9029 29.2305 38.8423 29.2681 38.7808 29.3032C38.8425 29.268 38.9028 29.2306 38.9614 29.1909C39.009 29.1588 39.0564 29.1224 39.105 29.0845C39.0564 29.1224 39.009 29.1588 38.9614 29.1909ZM14.5044 29.3198C14.5054 29.3208 14.5063 29.3218 14.5073 29.3228C14.3908 29.1235 14.2752 28.9207 14.1626 28.7144L14.5044 29.3198ZM39.1353 29.061C39.1738 29.03 39.2122 28.9972 39.2505 28.9624C39.2122 28.9971 39.1738 29.03 39.1353 29.061ZM39.3052 28.9097C39.3299 28.8858 39.3552 28.862 39.3794 28.8364C39.3551 28.8619 39.3299 28.8858 39.3052 28.9097ZM39.4536 28.7534C39.4744 28.7293 39.495 28.7046 39.5151 28.6792C39.4949 28.7046 39.4745 28.7293 39.4536 28.7534ZM39.5767 28.5972C39.5992 28.5659 39.6208 28.5336 39.6421 28.5005C39.6207 28.5336 39.5993 28.5659 39.5767 28.5972ZM39.6978 28.4106C39.7235 28.366 39.7479 28.3198 39.771 28.272C39.7479 28.3198 39.7236 28.366 39.6978 28.4106ZM8.50537 27.6685C8.5021 27.7421 8.50039 27.8114 8.50146 27.8755C8.50401 28.0275 8.51527 28.15 8.52197 28.228H8.52295L8.50146 27.8755C8.50039 27.8114 8.50208 27.7421 8.50537 27.6685ZM39.8022 28.2085C39.8065 28.1988 39.8108 28.189 39.8149 28.1792C39.8108 28.189 39.8065 28.1988 39.8022 28.2085ZM39.979 27.5063H39.98H39.979ZM8.53271 27.3687C8.52245 27.4401 8.51612 27.5093 8.51123 27.5757C8.51614 27.5093 8.52242 27.4401 8.53271 27.3687ZM8.58936 27.0806C8.58363 27.1031 8.57878 27.1257 8.57373 27.1479C8.57879 27.1257 8.58362 27.1031 8.58936 27.0806ZM10.7798 26.8726V26.8735C10.8043 26.8728 10.8305 26.8735 10.8579 26.8765C10.8305 26.8735 10.8043 26.8718 10.7798 26.8726ZM8.86377 26.4204C8.85012 26.4431 8.83738 26.466 8.82471 26.4888C8.83738 26.466 8.85012 26.4431 8.86377 26.4204ZM9.19189 25.9927H9.19287H9.19189ZM10.2905 25.3696C10.1487 25.4029 10.0122 25.4496 9.88232 25.5083C10.0122 25.4496 10.1487 25.4029 10.2905 25.3696ZM10.9614 24.2241C10.9451 24.0863 10.9317 23.925 10.9292 23.7495C10.9317 23.9252 10.9451 24.0862 10.9614 24.2241L11.0171 24.6294L11.0181 24.6284L10.9614 24.2241ZM35.6187 24.8999C35.3175 24.9071 35.0158 24.9072 34.7114 24.9097C35.0157 24.9072 35.3175 24.9072 35.6187 24.8999ZM38.5464 24.3862H38.5474H38.5464ZM40.7876 24.229C40.7925 24.214 40.7977 24.1992 40.8022 24.1841C40.7977 24.1992 40.7925 24.214 40.7876 24.229ZM38.9448 24.1704C38.9256 24.1837 38.9065 24.1976 38.8862 24.2104C38.9065 24.1976 38.9256 24.1837 38.9448 24.1704ZM40.8208 24.1147C40.8289 24.0843 40.8366 24.0538 40.8433 24.0229C40.8366 24.0538 40.8289 24.0843 40.8208 24.1147ZM39.3081 23.731C39.2898 23.7926 39.2604 23.8511 39.2222 23.9067C39.2604 23.8511 39.2897 23.7926 39.3081 23.731ZM40.8608 23.9351C40.8674 23.8972 40.873 23.8591 40.8774 23.8208C40.873 23.8591 40.8674 23.8972 40.8608 23.9351ZM40.8804 23.7856C40.8853 23.7361 40.8897 23.6863 40.8911 23.6362C40.8897 23.6864 40.8853 23.7361 40.8804 23.7856ZM40.8921 23.606C40.8928 23.5547 40.8912 23.5033 40.8882 23.4517C40.8912 23.5033 40.8928 23.5547 40.8921 23.606ZM40.8872 23.438C40.8834 23.3795 40.8773 23.321 40.8687 23.2622C40.8773 23.321 40.8834 23.3795 40.8872 23.438ZM11.1108 22.5806C11.1044 22.5985 11.0983 22.6165 11.0923 22.6343C11.0983 22.6165 11.1044 22.5985 11.1108 22.5806ZM11.1772 22.4136C11.165 22.4414 11.1531 22.469 11.1421 22.4966C11.1531 22.469 11.1651 22.4414 11.1772 22.4136ZM40.2007 21.9146L40.2163 21.9321L40.2017 21.9146L40.1851 21.8979L40.2007 21.9146ZM13.2622 21.021C13.1173 21.0195 12.9706 21.0318 12.8257 21.0591C12.9707 21.0319 13.1172 21.0205 13.2622 21.022C13.3522 21.0229 13.4398 21.0296 13.5249 21.0405C13.4397 21.0295 13.3521 21.0219 13.2622 21.021ZM13.9038 19.4683V19.4673V19.4683ZM38.4771 18.7173V18.7163V18.7173ZM40.9038 18.4409C40.9367 18.4877 40.9714 18.5397 41.0054 18.5972C40.9713 18.5394 40.9368 18.4869 40.9038 18.4399C40.8622 18.3808 40.8154 18.3209 40.7642 18.2612L40.9038 18.4409ZM16.5972 17.3716C16.5953 17.3882 16.5948 17.4045 16.5933 17.4204C16.5957 17.3952 16.5978 17.3691 16.6011 17.3423L16.5972 17.3716ZM41.1636 17.356C41.166 17.3515 41.168 17.3468 41.1704 17.3423C41.168 17.3468 41.166 17.3515 41.1636 17.356ZM16.6372 17.1108C16.6237 17.1817 16.6132 17.2494 16.605 17.313C16.6132 17.2494 16.6237 17.1817 16.6372 17.1108ZM41.2661 17.147C41.2704 17.137 41.2737 17.1267 41.2778 17.1167C41.2737 17.1267 41.2704 17.137 41.2661 17.147ZM18.3071 17.0181H18.3081H18.3071ZM16.7007 16.8442C16.6822 16.9093 16.6671 16.973 16.6538 17.0347C16.6671 16.973 16.6822 16.9093 16.7007 16.8442ZM18.6978 16.6929C18.6569 16.705 18.6173 16.7212 18.5796 16.7417C18.6173 16.7213 18.6568 16.7049 18.6978 16.6929ZM16.8003 16.5532C16.8051 16.5414 16.8089 16.529 16.814 16.5171C16.8089 16.529 16.8051 16.5414 16.8003 16.5532ZM16.8335 16.4731C16.8269 16.4879 16.8202 16.5024 16.814 16.5171C16.8348 16.4679 16.8586 16.419 16.8833 16.3696L16.8335 16.4731ZM41.4341 16.4692C41.435 16.4582 41.4363 16.4471 41.437 16.436C41.4363 16.4471 41.435 16.4582 41.4341 16.4692ZM16.9458 16.2544C16.9244 16.292 16.9032 16.329 16.8843 16.3667C16.9032 16.329 16.9245 16.292 16.9458 16.2544ZM41.4399 16.2446C41.4394 16.2238 41.4391 16.203 41.438 16.1821C41.4391 16.203 41.4394 16.2238 41.4399 16.2446ZM17.0728 16.0513C17.0699 16.0553 17.0668 16.059 17.064 16.063C17.0969 16.0158 17.1328 15.9695 17.1704 15.9233L17.0728 16.0513ZM41.4214 16.0054C41.4188 15.9864 41.4148 15.9677 41.4116 15.9487C41.4148 15.9677 41.4188 15.9864 41.4214 16.0054ZM41.0728 14.7339C41.0309 14.7973 40.988 14.8581 40.9438 14.9155C40.978 14.9578 41.0118 15.0011 41.0435 15.0464C41.012 15.0012 40.9789 14.9576 40.9448 14.9155C41.0331 14.8007 41.1176 14.6734 41.1938 14.5356L41.0728 14.7339ZM19.4614 14.8745L19.4624 14.8726C19.4682 14.8336 19.4758 14.7926 19.4839 14.7495C19.4757 14.7933 19.4673 14.8349 19.4614 14.8745ZM19.5522 14.4565C19.5428 14.4895 19.5358 14.5224 19.5278 14.5542C19.5358 14.5224 19.5428 14.4895 19.5522 14.4565ZM19.6382 14.2017C19.6194 14.25 19.6038 14.2982 19.5884 14.3452C19.6038 14.2982 19.6194 14.25 19.6382 14.2017ZM39.7964 13.8364C39.7554 13.9031 39.7064 13.9686 39.6509 14.0327C39.6414 14.0436 39.6311 14.0542 39.6216 14.0649L39.6509 14.0337C39.7065 13.9695 39.7553 13.9032 39.7964 13.8364ZM19.7749 13.9028C19.7551 13.9396 19.7368 13.9765 19.7192 14.0132C19.7368 13.9765 19.7551 13.9396 19.7749 13.9028ZM19.8433 13.7856C19.8194 13.8248 19.796 13.8636 19.7749 13.9028C19.7961 13.8636 19.8193 13.8248 19.8433 13.7856ZM19.937 13.6421C19.9088 13.6817 19.883 13.7221 19.8579 13.7622C19.883 13.7221 19.9088 13.6817 19.937 13.6421ZM20.02 13.5337C19.9911 13.5697 19.9631 13.6055 19.937 13.6421C19.9631 13.6055 19.9911 13.5696 20.02 13.5337ZM22.6655 12.8745C22.6998 12.7089 22.7528 12.5073 22.8413 12.2954C22.7822 12.4367 22.7393 12.5734 22.7065 12.6978C22.6903 12.7597 22.676 12.8185 22.6646 12.8735L22.6655 12.8745ZM25.353 12.5415V12.5405V12.5415ZM38.5845 11.3687C38.5667 11.3989 38.5486 11.4288 38.5308 11.4585C38.5486 11.4288 38.5667 11.3989 38.5845 11.3687ZM23.7407 11.1919L23.6431 11.2593V11.2603L23.7407 11.1929V11.1919ZM40.5005 11.0415H40.5015C40.5508 10.9242 40.5979 10.7986 40.644 10.6675C40.5978 10.7987 40.5498 10.9241 40.5005 11.0415ZM25.9907 11.106V11.1069V11.106ZM24.9146 10.8403C24.7829 10.8414 24.6499 10.8551 24.5171 10.8804C24.6498 10.8551 24.7829 10.8415 24.9146 10.8403ZM26.1421 10.7612C26.1232 10.7977 26.1071 10.8347 26.0903 10.8706C26.1071 10.8347 26.1232 10.7977 26.1421 10.7612ZM26.2417 10.5854C26.2186 10.6234 26.1979 10.6619 26.1772 10.6997C26.1979 10.6619 26.2186 10.6233 26.2417 10.5854ZM26.3716 10.394C26.3423 10.4338 26.3149 10.474 26.2886 10.5142C26.3149 10.474 26.3423 10.4338 26.3716 10.394ZM40.7388 10.3755C40.7533 10.3259 40.7676 10.2759 40.7808 10.2251C40.7675 10.2759 40.7533 10.3259 40.7388 10.3755ZM26.5083 10.2251C26.4746 10.2634 26.4422 10.302 26.4116 10.3413C26.4422 10.302 26.4746 10.2634 26.5083 10.2251ZM40.7915 10.1841C40.803 10.1383 40.8135 10.092 40.8237 10.0454C40.8135 10.092 40.803 10.1383 40.7915 10.1841ZM26.6704 10.0581C26.6334 10.0926 26.5969 10.1267 26.563 10.1626C26.5969 10.1267 26.6334 10.0926 26.6704 10.0581ZM26.7427 9.99072C26.7381 9.99463 26.7335 9.99851 26.729 10.0024C26.7892 9.95006 26.8531 9.89957 26.9214 9.85205L26.7427 9.99072ZM40.8413 9.96143C40.8545 9.89536 40.8664 9.82863 40.8765 9.76123C40.8663 9.82863 40.8545 9.89537 40.8413 9.96143ZM40.8784 9.74561C40.8892 9.672 40.8983 9.59779 40.9048 9.52295C40.8983 9.59779 40.8892 9.672 40.8784 9.74561ZM39.3188 9.60205C39.3166 9.6147 39.3145 9.62742 39.312 9.64014C39.3145 9.62742 39.3166 9.6147 39.3188 9.60205ZM40.9185 9.26807C40.9174 9.34583 40.9129 9.42362 40.9067 9.50049L40.9194 9.26904C40.9206 9.18212 40.9174 9.09266 40.9106 9.00146L40.9185 9.26807ZM30.8159 8.396C30.6349 8.41823 30.4554 8.46329 30.2808 8.53271C29.9488 8.66484 29.6894 8.86229 29.4927 9.06299C29.6893 8.86242 29.9488 8.66581 30.2808 8.53369C30.6304 8.39461 30.9991 8.3518 31.3618 8.39697C31.2408 8.38186 31.119 8.37665 30.9976 8.38135C30.9369 8.38372 30.8763 8.38855 30.8159 8.396ZM39.269 8.74268C39.2609 8.72298 39.2511 8.70409 39.2417 8.68506C39.2511 8.70409 39.2609 8.72297 39.269 8.74268ZM40.8208 8.46826C40.8395 8.5385 40.8557 8.60849 40.8687 8.67822C40.8557 8.6085 40.8396 8.53849 40.8208 8.46826ZM31.9849 8.25244C31.9751 8.26505 31.967 8.27883 31.9575 8.2915C31.9876 8.25128 32.0183 8.21076 32.0513 8.17139L31.9849 8.25244ZM32.1938 8.01318C32.1444 8.06319 32.0982 8.11511 32.0542 8.16748C32.0982 8.11514 32.1444 8.06324 32.1938 8.01318ZM36.0874 7.59521C35.9799 7.67834 35.8772 7.76177 35.7808 7.84521C35.7037 7.91195 35.6276 7.98087 35.5532 8.05029L35.5542 8.05127C35.6286 7.9818 35.7036 7.91199 35.7808 7.84521C35.8772 7.76177 35.9799 7.67831 36.0874 7.59521ZM35.4077 7.90967C35.3587 7.86584 35.3055 7.82243 35.2485 7.77979C35.3054 7.8225 35.3587 7.86584 35.4077 7.90967ZM35.2104 7.75244C35.1633 7.71863 35.1134 7.68627 35.061 7.65479C35.1133 7.68635 35.1634 7.71855 35.2104 7.75244ZM35.0034 7.62061C34.9873 7.61156 34.9712 7.602 34.9546 7.59326C34.9712 7.60202 34.9873 7.61153 35.0034 7.62061ZM36.8101 7.1167C36.751 7.14897 36.6933 7.18296 36.6362 7.21729C36.6933 7.18297 36.751 7.14896 36.8101 7.1167ZM37.9233 6.7085C37.6699 6.75567 37.4334 6.83118 37.2202 6.91943L37.0142 7.01123C36.9473 7.04335 36.8814 7.07672 36.8169 7.11182C36.9467 7.04123 37.0822 6.97698 37.2212 6.91943C37.5056 6.80172 37.8311 6.70682 38.1831 6.67139L37.9233 6.7085ZM38.7642 6.67139C38.9406 6.68905 39.1211 6.72387 39.3042 6.77979L39.4937 6.8374L39.5903 6.896L39.4937 6.83643L39.3042 6.77881C39.1212 6.72294 38.9406 6.689 38.7642 6.67139ZM40.3364 6.29834L40.3511 6.30615C40.3475 6.3042 40.3446 6.30154 40.3423 6.30029L40.3345 6.29639L40.3364 6.29834Z" fill="white" fill-opacity="0.3"/>
</g>
</g>
</g>
<defs>
<clipPath id="clip0_772_9087">
<rect width="50" height="50" fill="white"/>
</clipPath>
<clipPath id="clip1_772_9087">
<rect width="50.3661" height="50.9161" fill="white" transform="translate(19.6025 -10.4027) rotate(36.0503)"/>
</clipPath>
</defs>
</svg>
