<svg width="50" height="50" viewBox="0 0 50 50" fill="none" xmlns="http://www.w3.org/2000/svg">
<rect width="50" height="50" fill="#BEBEBE"/>
<g id="Decorate Mode">
<path d="M-180.281 -1007.03V-1006.03H2839.72V-1007.03V-1008.03H-180.281V-1007.03ZM2841.72 -1005.03H2840.72V2532.97H2841.72H2842.72V-1005.03H2841.72ZM2839.72 2534.97V2533.97H-180.281V2534.97V2535.97H2839.72V2534.97ZM-182.281 2532.97H-181.281V-1005.03H-182.281H-183.281V2532.97H-182.281ZM-180.281 2534.97V2533.97C-180.834 2533.97 -181.281 2533.52 -181.281 2532.97H-182.281H-183.281C-183.281 2534.62 -181.938 2535.97 -180.281 2535.97V2534.97ZM2841.72 2532.97H2840.72C2840.72 2533.52 2840.27 2533.97 2839.72 2533.97V2534.97V2535.97C2841.38 2535.97 2842.72 2534.62 2842.72 2532.97H2841.72ZM2839.72 -1007.03V-1006.03C2840.27 -1006.03 2840.72 -1005.59 2840.72 -1005.03H2841.72H2842.72C2842.72 -1006.69 2841.38 -1008.03 2839.72 -1008.03V-1007.03ZM-180.281 -1007.03V-1008.03C-181.938 -1008.03 -183.281 -1006.69 -183.281 -1005.03H-182.281H-181.281C-181.281 -1005.59 -180.834 -1006.03 -180.281 -1006.03V-1007.03Z" fill="black" fill-opacity="0.1"/>
<g id="Stickers">
<rect x="-128.272" y="-134.534" width="374" height="551" rx="4.5" stroke="#9747FF" stroke-dasharray="10 5"/>
<g id="Property 1=shoe">
<g id="Frame 132">
<path id="Vector" d="M13.457 35.7176C13.457 35.9247 13.2891 36.0926 13.082 36.0926H10.3301C10.123 36.0926 9.95508 35.9247 9.95508 35.7176V31.1063L9.95605 29.8631C9.95182 29.4453 9.93762 29.0346 9.89844 28.6619C9.8133 27.8525 9.58302 26.8305 9.34082 26.0369V26.0359C9.13248 25.3736 8.89312 24.7211 8.62402 24.0809V24.0799C8.55684 23.9228 8.48555 23.7704 8.41211 23.6151C8.33913 23.4606 8.26246 23.3008 8.19141 23.1395C8.04847 22.8149 7.91767 22.4665 7.84668 22.0682C7.44658 19.8237 8.41851 17.4765 9.63184 15.7361C10.1515 14.9908 10.8202 14.078 11.9404 13.8719L11.9736 13.867C13.4617 13.7312 14.3125 14.7798 15.1006 15.5467C15.6417 16.0702 16.1792 16.5977 16.7129 17.1287L16.7139 17.1297C17.3904 17.8044 18.0645 18.4816 18.7363 19.1609L20.7451 21.2068L20.7471 21.2088L23.5742 24.1443L24.0566 24.6277C26.4698 27.0089 28.9221 28.7613 32.4189 28.1776L32.499 28.1727C32.5208 28.1733 32.5367 28.1748 32.543 28.1756C32.565 28.1784 32.5863 28.1829 32.6025 28.1863C32.6355 28.1934 32.6726 28.2031 32.71 28.2137C32.7863 28.2352 32.8854 28.2655 32.9961 28.3016C33.2184 28.374 33.5049 28.4728 33.7939 28.574C34.3815 28.7799 34.9646 28.9914 35.1025 29.0389L38.917 30.3484L38.9189 30.3494C39.2104 30.4515 39.5081 30.5556 39.8057 30.6619L40.6924 30.9871L40.7197 30.9979C41.0023 31.1302 41.2901 31.341 41.501 31.5604C42.4908 32.5908 42.4601 34.1303 41.418 35.1141C40.9367 35.5684 40.4879 35.813 40.1484 35.9442C39.9792 36.0095 39.8381 36.0467 39.7354 36.0672C39.6841 36.0774 39.6423 36.0839 39.6113 36.0877C39.5958 36.0896 39.5823 36.0908 39.5723 36.0916C39.5675 36.092 39.563 36.0924 39.5596 36.0926H39.5518C39.5454 36.0929 39.5385 36.0936 39.5322 36.0936L34.874 36.0916L28.1826 36.0897C25.9258 36.0926 24.8663 36.0448 24.2148 35.8983C23.872 35.8211 23.6388 35.7162 23.4111 35.5867C23.3041 35.5258 23.1944 35.4573 23.085 35.3904C22.9726 35.3218 22.8497 35.2486 22.7021 35.1688C22.686 35.16 22.67 35.1495 22.6553 35.1385C21.2351 34.074 20.1911 32.4424 19.1836 31.1238L18.7686 30.6043C18.3464 30.091 17.9031 29.5953 17.4404 29.118L17.1006 28.7879C16.9792 28.6742 16.8551 28.5611 16.7441 28.4617C16.4482 28.1968 16.149 27.9199 15.8242 27.7059C15.5013 27.4931 15.1916 27.3694 14.8877 27.3738C14.4618 27.38 14.1303 27.4899 13.8662 27.7557C13.6765 27.9509 13.5478 28.1969 13.4951 28.4637V28.4647C13.4649 28.6152 13.4519 29.0182 13.4502 29.4871C13.4486 29.943 13.4563 30.3904 13.457 30.6326V35.7176Z" fill="#020101" stroke="#020101" stroke-width="0.75" stroke-linejoin="round"/>
<path id="Vector (Stroke)" d="M14.6608 28.6889C14.6639 28.675 14.6552 28.733 14.648 28.9056C14.6412 29.0697 14.6378 29.2723 14.637 29.491C14.6354 29.9522 14.6435 30.35 14.6444 30.6293V35.7178C14.6444 36.5807 13.9448 37.2803 13.0819 37.2803H10.3298C9.46684 37.2803 8.76729 36.5807 8.76729 35.7178V31.1059C8.76651 30.2515 8.78711 29.4505 8.71724 28.786C8.64192 28.0699 8.43067 27.1239 8.20454 26.383C8.00885 25.762 7.78464 25.1494 7.53255 24.5489L7.33784 24.1223C7.26781 23.9741 7.18361 23.7979 7.10469 23.6188C6.94299 23.2516 6.77239 22.8058 6.67805 22.2766C6.19831 19.5853 7.3636 16.9133 8.65803 15.0567C9.14313 14.361 10.0624 13.0104 11.725 12.7045L11.8654 12.6849C14.0183 12.4884 15.3083 14.0914 15.9261 14.6936L16.7409 15.4877L17.5509 16.2872L17.5521 16.2884C18.57 17.3037 19.5825 18.3243 20.5898 19.35L21.5957 20.3778L21.6024 20.3845L24.432 23.3227C26.9838 25.9207 29.1342 27.5216 32.2225 27.0062C32.466 26.9655 32.6651 26.9943 32.6918 26.9977C32.7606 27.0063 32.8178 27.018 32.8512 27.0251C32.9203 27.04 32.9859 27.0576 33.033 27.0709C33.1321 27.0989 33.2481 27.1353 33.3632 27.1728C33.5985 27.2495 33.8955 27.3516 34.1866 27.4536C34.8048 27.6702 35.34 27.8649 35.4873 27.9156L39.302 29.2254C39.305 29.2265 39.3087 29.2274 39.3117 29.2285C39.6027 29.3304 39.9029 29.436 40.2053 29.5441L41.111 29.8755L41.2233 29.9231C41.6438 30.1201 42.0501 30.4181 42.3574 30.7379C43.8015 32.2411 43.7579 34.5381 42.2329 35.9778C41.6353 36.5419 41.0536 36.8681 40.5758 37.0526C40.3391 37.144 40.1326 37.1985 39.9678 37.2314C39.8855 37.2479 39.8135 37.259 39.7536 37.2662C39.7238 37.2698 39.6968 37.2727 39.673 37.2748C39.6612 37.2758 39.6498 37.2765 39.6395 37.2772C39.6343 37.2776 39.629 37.2775 39.6242 37.2778C39.6219 37.278 39.6197 37.2783 39.6175 37.2784C39.6164 37.2785 39.615 37.2784 39.6138 37.2784L39.6126 37.279L39.5321 35.7184C39.5321 35.7184 40.2708 35.6811 41.1605 34.8413C42.0501 34.0014 42.0771 32.7018 41.2307 31.8207C41.0503 31.6329 40.7997 31.4499 40.5605 31.3379C39.9814 31.1199 39.378 30.9075 38.7948 30.7031L34.9801 29.3933C34.708 29.2996 32.5911 28.5288 32.4801 28.5473C28.5489 29.2036 25.8844 27.0334 23.3059 24.4067L20.4769 21.4685C19.4769 20.4432 18.4717 19.423 17.4611 18.4082L16.4486 17.395C16.1823 17.1301 15.9153 16.8658 15.6472 16.6028L14.8397 15.8166C13.9971 14.9969 13.2854 14.1241 12.0076 14.2407L11.8337 14.2804C10.9854 14.5121 10.4371 15.237 9.93977 15.9503L9.72005 16.2762C8.64273 17.9343 7.86461 20.0306 8.21614 22.0025C8.34348 22.7167 8.68711 23.2743 8.96931 23.9349C9.24348 24.5872 9.48716 25.2523 9.69929 25.9271C9.94661 26.7373 10.1829 27.7834 10.2712 28.6224C10.3522 29.3932 10.3291 30.3218 10.3298 31.1059V35.7178H13.0819V30.6335C13.0804 30.1719 13.049 28.7807 13.127 28.3911C13.194 28.0517 13.3584 27.739 13.6001 27.4914C13.9524 27.1368 14.3893 27.0066 14.8824 26.9995L15.035 27.005C15.7921 27.0717 16.4552 27.6998 16.9942 28.1824C17.2172 28.382 17.5003 28.6422 17.7089 28.8562C18.3356 29.5026 18.9267 30.1829 19.4796 30.8935C20.5174 32.2514 21.514 33.8147 22.8804 34.8389C24.1276 35.5136 23.6439 35.7213 28.182 35.7153L39.5321 35.7184L39.6108 37.279C39.5846 37.2804 39.5583 37.2809 39.5321 37.2809L28.182 37.2778C25.9654 37.2807 24.7612 37.2385 23.9541 37.0569C23.4788 36.9499 23.1366 36.7969 22.8243 36.6192C22.6956 36.5461 22.5581 36.4604 22.4654 36.4038C22.3609 36.34 22.258 36.2785 22.1364 36.2128C22.069 36.1763 22.0043 36.1348 21.9429 36.0889C20.3533 34.8974 19.1592 33.0495 18.246 31.853L17.8511 31.3586C17.45 30.8709 17.0291 30.3998 16.5896 29.9463C16.5047 29.8592 16.3996 29.7584 16.2886 29.6545L15.9517 29.3463C15.6289 29.0573 15.4048 28.8525 15.1705 28.6981C14.9996 28.5855 14.917 28.5652 14.9007 28.562L14.905 28.5614C14.7871 28.5631 14.7342 28.579 14.7207 28.584C14.7188 28.5846 14.7173 28.5848 14.7164 28.5852C14.6883 28.6146 14.6693 28.6504 14.6608 28.6889Z" fill="#E8E7E7"/>
<path id="Vector (Stroke) (Stroke)" d="M14.6368 29.4907C14.6376 29.2723 14.6408 29.0699 14.6476 28.906C14.6533 28.768 14.6599 28.7028 14.6608 28.6895C14.6692 28.6511 14.6879 28.6148 14.7158 28.5855L14.7732 28.5712C14.802 28.5664 14.8433 28.5626 14.8999 28.5616C14.9162 28.5648 14.9994 28.5854 15.1702 28.6979C15.4043 28.8522 15.6284 29.0572 15.951 29.346L16.2882 29.6545C16.3991 29.7584 16.5047 29.8593 16.5896 29.9463C17.029 30.3998 17.4501 30.8709 17.8511 31.3585L18.2457 31.8536C19.1589 33.0501 20.3536 34.8977 21.9431 36.0891C22.0041 36.1348 22.0686 36.1759 22.1356 36.2123C22.2572 36.278 22.3612 36.3398 22.4657 36.4036C22.5584 36.4602 22.6959 36.5457 22.8244 36.6188C23.1366 36.7963 23.4784 36.9496 23.9532 37.0565C24.7604 37.2381 25.9651 37.2806 28.1816 37.2777L39.532 37.2813C39.5582 37.2813 39.5848 37.2802 39.6109 37.2789L39.532 35.7184L28.1816 35.7148C23.6438 35.7208 24.1276 35.513 22.8806 34.8383C21.5142 33.8142 20.5176 32.2512 19.4798 30.8934C18.927 30.1827 18.3355 29.5022 17.7088 28.8557C17.6046 28.7488 17.4819 28.6304 17.3573 28.5138L16.9937 28.1825C16.4548 27.7001 15.7921 27.0715 15.035 27.0047L14.882 26.9999C14.3891 27.007 13.9523 27.1369 13.6001 27.4914C13.3585 27.7388 13.1936 28.0514 13.1266 28.3906C13.0485 28.7802 13.0797 30.1722 13.0811 30.6339V35.7172H10.3296V31.1062C10.3291 30.5181 10.3418 29.8484 10.3141 29.2253L10.271 28.6226C10.2048 27.9932 10.055 27.2472 9.87999 26.5718L9.69942 25.9273C9.54031 25.4211 9.36265 24.9205 9.16849 24.4265L8.96879 23.9351C8.72183 23.3569 8.42776 22.8576 8.27284 22.2634L8.21544 22.0027C7.86392 20.0307 8.64243 17.9341 9.71975 16.276L9.93977 15.9508C10.4371 15.2375 10.9856 14.5119 11.8339 14.2803L12.0073 14.2408C13.285 14.1242 13.9964 14.9971 14.8389 15.8168L15.6473 16.6025C15.9154 16.8655 16.1822 17.1304 16.4485 17.3953L17.4613 18.4081C18.4718 19.4229 19.4771 20.4429 20.4771 21.4682L23.3051 24.4062C25.8835 27.0328 28.5484 29.2032 32.4792 28.5472C32.5903 28.5287 34.7076 29.3002 34.9796 29.3939L38.7942 30.7032C39.3775 30.9076 39.9813 31.1202 40.5604 31.3382C40.7993 31.4502 41.0497 31.6326 41.23 31.8201C42.0765 32.7012 42.0503 34.002 41.1607 34.8419L40.9957 34.989C40.189 35.6788 39.5443 35.7177 39.532 35.7184L39.6109 37.2789H39.6169C39.6191 37.2788 39.6218 37.2778 39.6241 37.2777C39.6288 37.2774 39.6345 37.2781 39.6396 37.2777C39.6499 37.277 39.6614 37.2763 39.6731 37.2753C39.6968 37.2733 39.7235 37.2693 39.7532 37.2657C39.8131 37.2585 39.8851 37.2475 39.9673 37.2311C40.0496 37.2146 40.1429 37.1933 40.2447 37.1641L40.5759 37.0529C40.9939 36.8914 41.4916 36.6215 42.0097 36.1788L42.2321 35.9779C43.7095 34.5832 43.7968 32.3842 42.488 30.8814L42.3577 30.7379C42.1273 30.4982 41.8409 30.2705 41.535 30.0886L41.2229 29.9236L41.1105 29.8758L40.2052 29.5445L39.312 29.2288C39.3089 29.2278 39.3043 29.2263 39.3012 29.2253L35.4867 27.9159L34.1868 27.4531L33.3629 27.1733C33.2478 27.1357 33.132 27.0984 33.0329 27.0704L32.8511 27.025L32.6921 26.9975C32.6654 26.9941 32.4656 26.9652 32.2221 27.0059C29.1339 27.5212 26.9833 25.9207 24.4316 23.3228L21.6023 20.3848L21.5951 20.3776L20.5895 19.3504C20.0857 18.8375 19.5808 18.3254 19.0744 17.815L17.5522 16.288L17.551 16.2868L16.7402 15.488L15.9259 14.694C15.3081 14.0918 14.0179 12.4885 11.865 12.6851L11.7251 12.7042C10.0627 13.0101 9.14304 14.3605 8.65789 15.0563L8.41753 15.4139C7.22456 17.247 6.2279 19.7532 6.67766 22.2765C6.77196 22.8055 6.94291 23.2511 7.10455 23.6182C7.18347 23.7974 7.2677 23.9746 7.33773 24.1228L7.53265 24.5485C7.78473 25.149 8.009 25.7618 8.20468 26.3829C8.43081 27.1237 8.64116 28.0703 8.71648 28.7864C8.78631 29.4508 8.76593 30.2519 8.7667 31.1062V35.7172C8.7667 36.526 9.3817 37.1915 10.1694 37.2717L10.3296 37.2801H13.0811C13.9441 37.2801 14.644 36.5801 14.644 35.7172V30.6291L14.6368 29.4907ZM39.6779 38.1949C39.6758 38.195 39.6738 38.1948 39.6719 38.1949C39.6734 38.1948 39.675 38.1938 39.6767 38.1937C39.6792 38.1935 39.6828 38.1938 39.6851 38.1937L39.6779 38.1949ZM39.715 38.1913C39.7127 38.1915 39.7094 38.1921 39.7054 38.1925H39.7102C39.7134 38.1922 39.7159 38.1914 39.7174 38.1913H39.715ZM14.7146 29.6019C14.7235 29.6014 14.733 29.6027 14.7421 29.6019C14.7527 29.601 14.7628 29.5972 14.7732 29.5959C14.7537 29.5984 14.7343 29.6008 14.7146 29.6019ZM11.248 34.7988H12.1627V30.6363C12.1621 30.433 12.1539 29.9331 12.1556 29.4823C12.1572 29.0638 12.1656 28.514 12.2261 28.2112C12.3278 27.698 12.5767 27.2251 12.9424 26.8504L12.9484 26.8444C13.517 26.2721 14.2123 26.091 14.8688 26.0815H14.9155L15.0673 26.0875L15.1152 26.0899C15.7178 26.143 16.2272 26.4134 16.6171 26.6818C17.0044 26.9485 17.3552 27.274 17.606 27.4985C17.7185 27.5993 17.8514 27.7189 17.9839 27.8429L18.3665 28.2148L18.3677 28.2172C18.855 28.7199 19.3222 29.2419 19.7668 29.7825L20.2092 30.3361C21.309 31.7751 22.1822 33.1529 23.396 34.0766C23.5365 34.1546 23.656 34.2245 23.7583 34.287C23.8862 34.3652 23.9664 34.4152 24.0501 34.4628C24.1856 34.5398 24.2997 34.5915 24.4985 34.6362C24.9801 34.7446 25.8814 34.7995 28.1804 34.7964L39.4746 34.7988C39.4766 34.7985 39.4795 34.7993 39.4818 34.7988C39.5172 34.7917 39.5862 34.7746 39.6815 34.7378C39.8704 34.6649 40.1745 34.5083 40.5293 34.1734C41.0454 33.6862 41.0628 32.973 40.5676 32.4575C40.4665 32.3525 40.3176 32.2424 40.1897 32.1789C39.6361 31.9712 39.0581 31.7691 38.4905 31.5702L34.6819 30.262C34.5515 30.2171 33.9178 29.9875 33.3665 29.7944C33.0794 29.6939 32.8025 29.5993 32.594 29.5314C32.5317 29.5111 32.4786 29.4945 32.435 29.4811C28.1189 30.1148 25.203 27.6504 22.6498 25.0495L22.6439 25.0436L19.8146 22.1055C18.8184 21.0842 17.8162 20.0671 16.8096 19.0562L15.8003 18.0458C15.5361 17.7829 15.2718 17.5206 15.0063 17.2602L14.1992 16.4745C13.2437 15.545 12.8677 15.1046 12.1376 15.152L12.0683 15.1687C11.5877 15.3033 11.2112 15.7327 10.6931 16.4757L10.4886 16.7759L10.4898 16.7771C9.4732 18.3419 8.82629 20.1961 9.11946 21.8412C9.1651 22.0972 9.25272 22.3401 9.37536 22.6185C9.43779 22.7602 9.50491 22.9011 9.58104 23.0621L9.81422 23.5739L9.81541 23.5787C10.0294 24.0878 10.2259 24.6046 10.4037 25.1273L10.5747 25.6522L10.5771 25.6594C10.8369 26.5104 11.0887 27.6156 11.1846 28.5269C11.2721 29.3598 11.2473 30.3626 11.248 31.105V34.7988ZM15.5624 35.7172C15.5624 37.0873 14.4513 38.1985 13.0811 38.1985H10.3296C8.95946 38.1985 7.84834 37.0873 7.84834 35.7172V31.1062C7.84753 30.2085 7.86738 29.4839 7.80409 28.8821C7.73665 28.2409 7.54097 27.3581 7.32817 26.6591L7.18228 26.2142C7.0347 25.7808 6.8733 25.3521 6.69679 24.93L6.50188 24.5031L6.50307 24.5019C6.4362 24.3605 6.34661 24.1766 6.26391 23.9889C6.08755 23.5884 5.88594 23.0678 5.77364 22.4379C5.23223 19.4007 6.54786 16.4772 7.90454 14.5314C8.36633 13.869 9.47902 12.1841 11.5589 11.8014L11.5983 11.7954L11.7382 11.7751L11.7813 11.7703C14.445 11.5271 16.065 13.5471 16.5668 14.0363L17.3812 14.8303L17.386 14.8339L18.1955 15.6339L18.2003 15.6375L18.2015 15.6387C19.2216 16.656 20.2355 17.6782 21.2448 18.7059L21.246 18.7071L22.2445 19.7283L22.2636 19.7474L25.0869 22.6795L25.5544 23.1482C27.8582 25.4151 29.6371 26.5069 32.0715 26.1006C32.2658 26.0682 32.4388 26.0633 32.5665 26.0672C32.6309 26.0691 32.686 26.0738 32.7292 26.0779C32.7708 26.0819 32.8046 26.086 32.8069 26.0863L33.0436 26.127L33.2828 26.1867L33.6475 26.2991L34.4906 26.5873C35.1341 26.8128 35.627 26.9921 35.7844 27.0465L39.5978 28.3559C39.603 28.3576 39.6094 28.3597 39.6157 28.3619C39.9068 28.4639 40.209 28.5698 40.5138 28.6788L40.5209 28.6812L41.4261 29.0136L41.4692 29.0303L41.5816 29.077L41.6127 29.0913C42.1397 29.3382 42.637 29.7044 43.0189 30.1018C44.8139 31.9702 44.7619 34.8525 42.8635 36.6451C42.1762 37.2939 41.4909 37.6832 40.906 37.9091C40.6164 38.0209 40.3592 38.0893 40.1478 38.1315C40.0428 38.1525 39.9467 38.168 39.8632 38.1781C39.8276 38.1824 39.7892 38.1868 39.7508 38.1901C39.7292 38.1919 39.7079 38.1932 39.7006 38.1937H39.6767L39.6671 38.1949H39.66C39.6587 38.1949 39.6576 38.196 39.6564 38.1961L39.66 38.1949C39.6504 38.1953 39.6406 38.1959 39.6337 38.1961C39.6402 38.1959 39.6478 38.1965 39.6564 38.1961C39.6119 38.1983 39.5701 38.1997 39.532 38.1997L28.1816 38.1961C25.9945 38.1989 24.6794 38.1619 23.7524 37.9533C23.1743 37.8233 22.7473 37.6321 22.37 37.4176C22.2251 37.3352 22.0687 37.2384 21.9862 37.188L21.6992 37.0206C21.5923 36.9628 21.4893 36.8964 21.3919 36.8233C19.6771 35.5379 18.3745 33.5381 17.5283 32.4264L17.142 31.9421L16.8491 31.5941C16.5536 31.2495 16.2479 30.9135 15.9319 30.5873L15.6604 30.3254L15.5588 30.2321C15.5604 30.3736 15.562 30.504 15.5624 30.6267V35.7172Z" fill="#020101"/>
<path id="Vector_2" d="M11.6066 15.3118C11.8673 15.6185 12.1172 15.9509 12.3733 16.2655C12.8551 16.8539 13.3408 17.4392 13.8303 18.0211C14.4642 18.7773 15.1255 19.5122 15.7508 20.2759C16.3876 21.0536 17.0398 21.8293 17.6658 22.615C18.7802 24.0138 19.8382 25.46 20.9923 26.8269C22.8228 29.0725 24.8541 31.3491 27.953 31.5691C29.4489 31.6753 31.1212 31.3223 32.298 30.3228C32.5463 30.1094 32.7728 29.8631 32.9186 29.5664L37.1293 31.0261C37.7597 31.2368 38.3888 31.4514 39.0165 31.6702C39.7003 31.9072 40.5341 32.0833 40.8778 32.7801C41.0089 33.0457 41.0331 33.367 40.9586 33.6511C40.9225 33.7549 40.8737 33.8535 40.8131 33.9451C40.2855 34.7364 39.1874 34.8628 38.3244 34.8531C37.6603 34.8455 36.9943 34.8545 36.33 34.8526L31.4667 34.8491L27.57 34.8482C26.6784 34.8487 25.5282 34.9126 24.6715 34.7227C22.7977 34.3076 21.634 32.2906 20.5359 30.8391C19.9362 30.0376 19.2892 29.2725 18.5982 28.5484C17.6186 27.5401 16.718 26.7412 15.5475 25.9466C15.1539 25.6795 14.7633 25.4656 14.3697 25.2134C13.5259 24.7276 12.6621 24.2773 11.7806 23.8639C11.3376 23.662 10.8933 23.463 10.4476 23.2671C10.1462 23.1358 9.75549 22.9898 9.48708 22.8177C9.30512 22.7011 9.16257 22.3493 9.10539 22.1337C8.66948 20.4899 9.3465 18.633 10.1499 17.2036C10.542 16.506 11.0291 15.8512 11.6066 15.3118Z" fill="#E76F51"/>
<path id="Vector (Stroke)_2" d="M11.6811 15.2485C11.9417 15.5553 12.1968 15.894 12.4489 16.2036C12.8702 16.7182 13.2945 17.2304 13.7218 17.74L13.9051 17.9583L13.9052 17.9584C14.5345 18.7092 15.2022 19.4517 15.8264 20.214C16.462 20.9903 17.1157 21.7679 17.7422 22.5542C18.8604 23.9578 19.9135 25.3978 21.0669 26.7639L21.0674 26.7646L21.068 26.7652C22.9014 29.0143 24.9083 31.2551 27.9599 31.4717C29.4388 31.5767 31.0832 31.2265 32.2348 30.2484C32.4777 30.0396 32.6934 29.8034 32.831 29.5234L32.869 29.4459L37.1613 30.9339C37.7916 31.1446 38.4208 31.3592 39.0485 31.5779L39.1116 31.5995C39.4303 31.707 39.7948 31.811 40.1168 31.9646C40.4642 32.1304 40.7801 32.3613 40.9654 32.7368C41.1077 33.0252 41.1331 33.3708 41.0531 33.6759L41.0521 33.6796L41.0509 33.6833C41.0121 33.7947 40.9596 33.9006 40.8946 33.999L40.8944 33.9993C40.6136 34.4203 40.1837 34.66 39.7216 34.7933C39.26 34.9264 38.7589 34.9556 38.3233 34.9507C37.6592 34.9431 36.9967 34.9522 36.3297 34.9502L31.4667 34.9468L27.57 34.9458C26.7025 34.9463 25.5573 35.009 24.6914 34.8269L24.6504 34.818C23.6845 34.6041 22.9082 33.9787 22.2401 33.2348C21.5743 32.4934 21.0011 31.6159 20.4581 30.8981L20.4578 30.8976C19.8606 30.0995 19.2162 29.3375 18.5282 28.6164L18.4369 28.5228C17.4957 27.562 16.6201 26.7927 15.4927 26.0274C15.2981 25.8953 15.104 25.7762 14.9082 25.658C14.7135 25.5405 14.5165 25.4234 14.3189 25.2968C13.4785 24.813 12.6181 24.3645 11.7401 23.9527C11.2975 23.751 10.8536 23.5523 10.4083 23.3565C10.1155 23.229 9.71144 23.0775 9.43439 22.8999C9.32039 22.8268 9.22951 22.6897 9.16231 22.5569C9.09329 22.4205 9.04109 22.2721 9.01101 22.1587C8.56486 20.4763 9.25859 18.5901 10.0648 17.1557C10.4609 16.4511 10.9539 15.7878 11.54 15.2404L11.6148 15.1705L11.6811 15.2485ZM11.6066 15.3118C11.0291 15.8512 10.542 16.506 10.1499 17.2036L10.1124 17.271C9.32563 18.691 8.67632 20.5156 9.10542 22.1337C9.1626 22.3493 9.30514 22.7011 9.48708 22.8177C9.75549 22.9898 10.1462 23.1358 10.4476 23.2671C10.8933 23.4631 11.3376 23.662 11.7806 23.8639C12.6621 24.2773 13.526 24.7276 14.3698 25.2134C14.7633 25.4656 15.1539 25.6795 15.5475 25.9466C16.718 26.7413 17.6186 27.5401 18.5983 28.5484C19.2892 29.2725 19.9362 30.0377 20.5359 30.8392C21.6339 32.2906 22.7977 34.3076 24.6715 34.7227C25.5282 34.9126 26.6784 34.8487 27.57 34.8482L36.33 34.8526C36.9943 34.8545 37.6603 34.8455 38.3244 34.853C39.1874 34.8628 40.2856 34.7363 40.8131 33.9451C40.8661 33.865 40.9101 33.7795 40.9445 33.6898L40.9587 33.6512C41.0308 33.3759 41.0104 33.0657 40.8898 32.8051L40.8778 32.7801C40.5448 32.1051 39.752 31.9188 39.081 31.6923L39.0165 31.6702C38.3888 31.4514 37.7597 31.2368 37.1293 31.0261L32.9186 29.5664C32.7729 29.8631 32.5463 30.1094 32.298 30.3228C31.1213 31.3223 29.4489 31.6753 27.953 31.5691C24.8542 31.3491 22.8229 29.0725 20.9923 26.8269C19.8743 25.5027 18.8464 24.1041 17.7701 22.7463L17.6658 22.6151C17.118 21.9276 16.5503 21.2477 15.9903 20.5675L15.7509 20.2759C15.1256 19.5122 14.4642 18.7773 13.8303 18.0211C13.3408 17.4392 12.8551 16.8539 12.3733 16.2655C12.1172 15.9509 11.8673 15.6185 11.6066 15.3118Z" fill="#E76F51"/>
<path id="Vector_3" d="M14.3212 25.311C14.2006 24.9019 12.8976 22.5766 12.996 22.3495C13.326 22.1988 15.2709 23.5839 15.6098 23.8331C16.9823 24.832 18.2643 25.9495 19.4413 27.1724C20.1513 27.9021 20.8469 28.6458 21.5277 29.4028C23.2461 31.2915 24.8129 32.9592 27.4137 33.4375C29.028 33.7341 30.7402 33.7097 32.3798 33.7146L37.8923 33.7371C38.8241 33.7395 39.9987 33.7053 40.9101 33.7488C40.8739 33.8526 40.8251 33.9512 40.7646 34.0427C40.237 34.834 39.1388 34.9605 38.2758 34.9507C37.6117 34.9431 36.9457 34.9522 36.2814 34.9502L31.4181 34.9468L27.5214 34.9458C26.6298 34.9463 25.4797 35.0103 24.623 34.8203C22.7491 34.4053 21.5854 32.3882 20.4874 30.9368C19.8877 30.1353 19.2406 29.3701 18.5497 28.646C17.5701 27.6377 16.6695 26.8389 15.4989 26.0442C15.1053 25.7771 14.7147 25.5632 14.3212 25.311Z" fill="#F4A261"/>
<path id="Vector_4" d="M12.6113 15.1552C12.7733 15.1761 12.8914 15.239 13.0165 15.3415C13.8033 15.9859 14.5026 16.7619 15.2328 17.4608C17.0349 19.2148 18.8079 20.9985 20.5509 22.8112C23.5939 25.9817 26.6337 29.7319 31.4279 29.5129C31.5929 29.5054 31.7572 29.498 31.9222 29.4883C31.7142 29.7219 31.5331 29.8633 31.2706 30.0266C30.1827 30.6409 28.9203 30.8716 27.6857 30.6819C26.037 30.4407 24.651 29.5456 23.5024 28.3801C22.1909 27.0495 21.0459 25.5539 19.9079 24.0745C19.1221 23.0571 18.3225 22.0504 17.5094 21.0547C16.4894 19.7971 15.4134 18.5646 14.3794 17.3171C13.798 16.6157 13.1514 15.8859 12.6113 15.1552Z" fill="#E9C46A"/>
<path id="Vector (Stroke)_3" d="M12.6236 15.0584C12.8084 15.0822 12.9431 15.1554 13.0782 15.266C13.8438 15.893 14.5331 16.6496 15.2325 17.3252L15.3002 17.3903L15.3008 17.3909C16.991 19.0359 18.6555 20.7071 20.2938 22.4039L20.6211 22.7436L20.6212 22.7436C22.1472 24.3335 23.6598 26.0548 25.3912 27.3551C27.1189 28.6527 29.0556 29.5235 31.4232 29.4154C31.5885 29.4078 31.752 29.4005 31.9163 29.3908L32.152 29.3768L31.995 29.5532C31.7795 29.7953 31.5906 29.9424 31.3221 30.1095L31.3203 30.1106L31.3185 30.1117C30.2115 30.7367 28.9269 30.9714 27.6707 30.7784V30.7784C26.0209 30.5368 24.6346 29.652 23.4871 28.5036L23.4326 28.4487C22.1162 27.1131 20.9675 25.6125 19.8303 24.1341V24.134C19.0451 23.1174 18.2461 22.1114 17.4336 21.1165L17.4334 21.1162C16.413 19.8581 15.341 18.6305 14.3041 17.3794C13.7256 16.6816 13.0748 15.9469 12.5326 15.2133L12.3965 15.0291L12.6236 15.0584ZM12.6112 15.1552C13.1512 15.886 13.7979 16.6157 14.3793 17.3171C15.4132 18.5646 16.4893 19.7971 17.5093 21.0547C18.3223 22.0504 19.1219 23.0571 19.9077 24.0745C21.0457 25.554 22.1908 27.0495 23.5022 28.3801C24.6508 29.5456 26.0368 30.4407 27.6855 30.6819C28.9008 30.8686 30.1431 30.648 31.2193 30.0551L31.2705 30.0266C31.5329 29.8633 31.7141 29.7219 31.9221 29.4883C31.757 29.498 31.5927 29.5054 31.4277 29.5129C26.7084 29.7285 23.6891 26.0979 20.6934 22.9602L20.5507 22.8112C18.9166 21.1118 17.2563 19.4379 15.5702 17.79L15.2327 17.4608C14.5025 16.7619 13.8032 15.9859 13.0163 15.3415C12.8912 15.2391 12.7731 15.1761 12.6112 15.1552Z" fill="#E9C46A"/>
<path id="Vector_5" d="M9.87256 23.9393C10.2519 24.0866 10.7222 24.3152 11.0978 24.49C12.2583 25.0181 13.389 25.6096 14.4847 26.2617C13.4809 26.3596 12.762 26.8381 12.4222 27.8171C12.2062 28.4397 12.2342 29.0271 12.2332 29.6753L12.2327 31.0913V34.8465L11.1805 34.8492L11.1668 30.5322C11.164 30.0481 11.1743 29.3706 11.1368 28.9121C11.0124 27.3923 10.5003 25.3183 9.87256 23.9393Z" fill="#E76F51"/>
<path id="Vector (Stroke)_4" d="M9.90777 23.8483C10.291 23.9971 10.766 24.228 11.1388 24.4015C12.3023 24.931 13.4359 25.524 14.5345 26.1778L14.7903 26.3301L14.494 26.3589C14.005 26.4066 13.5922 26.5464 13.2619 26.7879C12.9322 27.029 12.6785 27.376 12.5143 27.8491C12.3049 28.4526 12.3316 29.0205 12.3306 29.6753L12.3307 29.6754L12.3301 34.944L11.0829 34.9472L11.0684 30.3419C11.068 29.8802 11.0718 29.317 11.0393 28.9201C10.9157 27.4106 10.4062 25.3477 9.7835 23.9798L9.68408 23.7614L9.90777 23.8483ZM9.87239 23.9393C10.5001 25.3184 11.0122 27.3924 11.1366 28.9122C11.1741 29.3707 11.1639 30.0481 11.1667 30.5323L11.1803 34.8493L12.2325 34.8466L12.233 29.6753C12.234 29.0272 12.206 28.4398 12.422 27.8172C12.7618 26.8382 13.4807 26.3597 14.4845 26.2618C13.3888 25.6097 12.2581 25.0181 11.0976 24.49C10.722 24.3153 10.2517 24.0867 9.87239 23.9393Z" fill="#E76F51"/>
</g>
<path id="Union" d="M11.7817 11.7698C14.4452 11.5269 16.0651 13.5472 16.5669 14.0364L17.3813 14.8304L17.3862 14.8343L18.1958 15.6341L18.2007 15.637L18.2017 15.639C19.2217 16.6563 20.2354 17.6787 21.2446 18.7064L21.2466 18.7073L22.2446 19.7278L22.2642 19.7474L25.0874 22.679L25.5542 23.1478C27.8579 25.4146 29.6374 26.5072 32.0718 26.1009C32.2661 26.0685 32.4392 26.0629 32.5669 26.0667C32.631 26.0687 32.6859 26.0733 32.729 26.0775C32.7706 26.0815 32.8048 26.0859 32.8071 26.0862L33.0435 26.1273L33.2827 26.1868L33.6479 26.2991L34.4907 26.5872C35.1342 26.8126 35.6273 26.9918 35.7847 27.0462L39.5981 28.3558C39.6033 28.3575 39.6095 28.3595 39.6157 28.3616C39.9068 28.4636 40.2094 28.5701 40.5142 28.679L40.521 28.681L41.4263 29.014L41.4692 29.0306L41.5815 29.0775L41.6128 29.0911C42.1398 29.338 42.6371 29.7045 43.019 30.1019C44.8139 31.9702 44.762 34.8522 42.8638 36.6448C42.1765 37.2936 41.4907 37.6836 40.9058 37.9095C40.6164 38.0212 40.3592 38.0889 40.1479 38.1312C40.043 38.1521 39.9471 38.1679 39.8638 38.178C39.8281 38.1824 39.7889 38.1865 39.7505 38.1898C39.729 38.1916 39.7079 38.1932 39.7007 38.1937H39.6851L39.6782 38.1946C39.6762 38.1948 39.6741 38.1946 39.6724 38.1946C39.6737 38.1945 39.6756 38.1937 39.6772 38.1937L39.6675 38.1946H39.6597C39.6503 38.1951 39.6402 38.1955 39.6333 38.1956C39.6398 38.1955 39.6482 38.196 39.6567 38.1956C39.6123 38.1978 39.5698 38.1995 39.5317 38.1995L28.1821 38.1956C25.995 38.1985 24.6795 38.162 23.7524 37.9534C23.1745 37.8234 22.7478 37.6318 22.3706 37.4173C22.2257 37.3349 22.0684 37.2382 21.9858 37.1878L21.6997 37.0208C21.5929 36.963 21.4895 36.8966 21.3921 36.8235C19.6773 35.5382 18.3751 33.5378 17.5288 32.4261L17.1421 31.9417L16.8491 31.5941C16.5537 31.2494 16.2482 30.9134 15.9321 30.5872L15.6606 30.3255L15.5591 30.2318C15.5606 30.373 15.5626 30.5037 15.563 30.6263V35.7171C15.563 37.0871 14.4516 38.1984 13.0815 38.1985H10.3296C8.95951 38.1985 7.84814 37.0872 7.84814 35.7171V31.1058C7.84735 30.2083 7.86747 29.4839 7.8042 28.8821C7.73677 28.2411 7.54136 27.3584 7.32861 26.6595L7.18213 26.2142C7.03457 25.7808 6.87327 25.352 6.69678 24.93L6.50244 24.5032L6.50342 24.5023C6.43654 24.3609 6.34686 24.1763 6.26416 23.9886C6.08782 23.5882 5.88621 23.0676 5.77393 22.4378C5.23257 19.4007 6.54814 16.4774 7.90479 14.5316C8.36657 13.8692 9.47922 12.1838 11.5591 11.8011L11.5981 11.7952L11.7388 11.7747L11.7817 11.7698ZM39.7056 38.1927H39.7104C39.7134 38.1924 39.7158 38.1919 39.7173 38.1917H39.7153C39.7131 38.1919 39.7096 38.1923 39.7056 38.1927ZM39.603 37.1185L39.6108 37.2786C39.5846 37.2799 39.558 37.2806 39.5317 37.2806V37.2816C39.558 37.2816 39.5846 37.2799 39.6108 37.2786H39.6128L39.5708 36.4681L39.5698 36.4603L39.603 37.1185ZM10.0171 37.2484C10.0671 37.2585 10.1179 37.2665 10.1694 37.2718L10.3296 37.2806C10.2225 37.2806 10.1181 37.2689 10.0171 37.2484ZM39.6733 37.2747C39.6614 37.2757 39.6495 37.277 39.6392 37.2776H39.6401C39.6503 37.277 39.6617 37.2767 39.6733 37.2757V37.2747ZM23.3276 36.8646C23.5115 36.9384 23.7161 37.0035 23.9536 37.0569C24.4582 37.1704 25.1182 37.2294 26.0835 37.2571C25.1186 37.2295 24.4591 37.1704 23.9546 37.0569C23.5982 36.9768 23.3162 36.8704 23.0659 36.7474L23.3276 36.8646ZM9.87842 37.2132C9.9006 37.2199 9.92322 37.2251 9.9458 37.2308C9.92321 37.2251 9.9006 37.2199 9.87842 37.2132ZM9.73193 37.1605C9.75569 37.1703 9.77987 37.1791 9.8042 37.1878C9.77987 37.1791 9.75569 37.1703 9.73193 37.1605ZM9.60498 37.1009C9.6283 37.1131 9.65228 37.124 9.67627 37.1351C9.65228 37.124 9.6283 37.1131 9.60498 37.1009ZM9.47607 37.0247C9.49308 37.0358 9.51037 37.0465 9.52783 37.0569C9.51037 37.0465 9.49308 37.0359 9.47607 37.0247ZM9.34326 36.928C9.37137 36.951 9.4005 36.9725 9.43018 36.9935C9.4005 36.9725 9.37136 36.951 9.34326 36.928ZM40.8608 36.928C40.8874 36.9155 40.9149 36.9043 40.9419 36.8909C40.9149 36.9043 40.8874 36.9155 40.8608 36.928ZM9.24463 36.8401C9.26586 36.8607 9.2877 36.8804 9.31006 36.8997C9.28771 36.8804 9.26585 36.8607 9.24463 36.8401ZM40.9751 36.8734C41.023 36.8491 41.0714 36.8233 41.1206 36.7962C41.0714 36.8233 41.023 36.8491 40.9751 36.8734ZM9.1333 36.721C9.15676 36.7489 9.18122 36.7759 9.20654 36.8021C9.18123 36.7758 9.15674 36.7489 9.1333 36.721ZM41.2085 36.7474C41.2439 36.7269 41.279 36.7049 41.3149 36.6829C41.279 36.7049 41.2439 36.7269 41.2085 36.7474ZM9.04736 36.6077C9.06921 36.6391 9.0917 36.6699 9.11572 36.6995C9.09171 36.6699 9.06919 36.6391 9.04736 36.6077ZM42.0103 36.179C41.7958 36.3623 41.5836 36.5143 41.3804 36.6429C41.5836 36.5143 41.7958 36.3622 42.0103 36.179ZM8.97705 36.4984C8.99129 36.523 9.00645 36.5469 9.02197 36.5706C9.00646 36.5469 8.99128 36.523 8.97705 36.4984ZM8.896 36.3372C8.91192 36.374 8.92818 36.4104 8.94678 36.4456C8.92821 36.4104 8.91189 36.374 8.896 36.3372ZM8.84814 36.2112C8.85937 36.2449 8.87087 36.2783 8.88428 36.3109C8.87089 36.2783 8.85935 36.2449 8.84814 36.2112ZM8.76709 35.722C8.76756 35.8793 8.7917 36.031 8.83545 36.1741C8.7918 36.031 8.76751 35.8793 8.76709 35.722ZM42.9097 35.1292C42.9142 35.1215 42.9179 35.1135 42.9224 35.1058C42.9179 35.1135 42.9142 35.1215 42.9097 35.1292ZM23.2642 35.0599C23.2684 35.0625 23.2726 35.0651 23.2769 35.0677C23.2726 35.0651 23.2684 35.0625 23.2642 35.0599ZM42.9653 35.0296C42.9808 35.0013 42.9966 34.9732 43.0112 34.9446C42.9966 34.9732 42.9808 35.0013 42.9653 35.0296ZM22.8804 34.8392V34.8382V34.8392ZM43.063 34.8382C43.0699 34.8236 43.0768 34.809 43.0835 34.7943C43.0768 34.809 43.0699 34.8236 43.063 34.8382ZM18.2456 31.8538C18.4739 32.1529 18.7197 32.4928 18.9849 32.8528C19.3827 33.3929 19.825 33.978 20.3159 34.5403C19.4977 33.6029 18.8173 32.6007 18.2466 31.8528L18.2456 31.8538ZM43.3403 33.9944C43.3421 33.9853 43.3445 33.9763 43.3462 33.9671C43.3445 33.9763 43.3421 33.9853 43.3403 33.9944ZM43.2124 32.1292C43.1964 32.0825 43.1796 32.0358 43.1616 31.9896C43.1796 32.0358 43.1963 32.0825 43.2124 32.1292ZM43.1538 31.971C43.1407 31.938 43.1269 31.9052 43.1128 31.8724C43.1269 31.9052 43.1407 31.938 43.1538 31.971ZM42.2026 30.5872C42.1843 30.5703 42.1658 30.5532 42.147 30.5364C42.1658 30.5532 42.1843 30.5703 42.2026 30.5872ZM41.7944 30.2581C41.7724 30.2426 41.7503 30.2273 41.728 30.2122C41.7503 30.2273 41.7725 30.2426 41.7944 30.2581ZM8.51709 27.5941C8.60735 28.0128 8.67865 28.4284 8.71631 28.7864C8.7512 29.1184 8.76335 29.4845 8.76709 29.8743H8.76807C8.76438 29.4845 8.75218 29.1184 8.71729 28.7864C8.67963 28.4284 8.60757 28.0126 8.51709 27.5941ZM15.9507 29.346L16.2886 29.6546L15.9517 29.346C15.7904 29.2016 15.6534 29.0786 15.5278 28.972L15.9507 29.346ZM14.7144 29.6019C14.7233 29.6013 14.7336 29.6027 14.7427 29.6019C14.753 29.6009 14.7629 29.5973 14.7729 29.596C14.7536 29.5984 14.734 29.6007 14.7144 29.6019ZM39.3022 29.2259C39.3053 29.2269 39.309 29.2278 39.312 29.2288C39.3089 29.2277 39.3043 29.226 39.3013 29.2249L39.3022 29.2259ZM32.6919 26.9974C32.6639 26.9938 32.4647 26.9657 32.2222 27.0062C32.0292 27.0384 31.8398 27.0625 31.6538 27.0784C31.8398 27.0625 32.0292 27.0384 32.2222 27.0062C32.4653 26.9655 32.6647 26.9939 32.6919 26.9974ZM29.3159 26.8323C29.4784 26.8827 29.6426 26.9266 29.8091 26.9632C29.6426 26.9266 29.4784 26.8827 29.3159 26.8323ZM27.6626 26.0667V26.0657V26.0667ZM7.3374 24.1224L7.47119 24.4144L7.33838 24.1224C7.26834 23.9742 7.1839 23.7976 7.10498 23.6185L7.3374 24.1224ZM6.60986 21.804C6.62698 21.9614 6.65013 22.119 6.67822 22.2767C6.74897 22.6734 6.8622 23.0234 6.98291 23.3284L6.8667 23.0081C6.79207 22.7847 6.72538 22.5412 6.67822 22.2767C6.64826 22.1086 6.62443 21.9405 6.60693 21.7728L6.60986 21.804ZM6.58838 21.5677C6.59311 21.6305 6.59857 21.6933 6.60498 21.7562C6.59698 21.6777 6.59085 21.5992 6.58545 21.5208L6.58838 21.5677ZM6.57373 21.3001C6.57602 21.3596 6.57876 21.4192 6.58252 21.4788C6.57876 21.4192 6.57603 21.3596 6.57373 21.3001ZM6.5708 20.8206C6.57001 20.8522 6.56925 20.8837 6.56885 20.9153C6.56925 20.8837 6.57001 20.8522 6.5708 20.8206ZM6.65576 19.846C6.64222 19.9384 6.63208 20.0313 6.62158 20.1243C6.63207 20.0313 6.64223 19.9384 6.65576 19.846ZM6.73779 19.3782C6.71956 19.4686 6.70444 19.5596 6.68896 19.6507C6.70443 19.5596 6.71957 19.4686 6.73779 19.3782ZM6.84131 18.9212C6.81948 19.007 6.79926 19.0934 6.77979 19.18C6.79925 19.0934 6.81948 19.007 6.84131 18.9212ZM6.96533 18.4788C6.94739 18.5378 6.93047 18.5971 6.91357 18.6566C6.93046 18.5971 6.9474 18.5378 6.96533 18.4788ZM7.12842 17.9876C7.09602 18.0779 7.06376 18.1685 7.03369 18.2601C7.06375 18.1685 7.09603 18.0779 7.12842 17.9876ZM17.5513 16.2874L17.5522 16.2884C18.1474 16.882 18.74 17.4783 19.3315 18.0755C19.2457 17.9888 19.1606 17.9013 19.0747 17.8148L17.5522 16.2884L17.5513 16.2864V16.2874ZM7.2915 17.5609C7.25557 17.6495 7.21988 17.7385 7.18604 17.8284C7.21987 17.7384 7.25558 17.6495 7.2915 17.5609ZM7.46826 17.1468C7.43403 17.2227 7.40049 17.2992 7.36768 17.3763C7.40049 17.2992 7.43403 17.2227 7.46826 17.1468ZM7.64111 16.7806C7.61294 16.8379 7.58456 16.8953 7.55713 16.9534C7.58456 16.8953 7.61294 16.8379 7.64111 16.7806ZM8.104 15.9212C8.13092 15.8755 8.15684 15.8295 8.18408 15.7845C8.15684 15.8295 8.13092 15.8755 8.104 15.9212ZM8.65771 15.0569V15.056L8.41748 15.4134C8.3713 15.4844 8.32628 15.5572 8.28076 15.6302C8.40451 15.4319 8.53 15.2401 8.65771 15.0569ZM9.75049 13.7347V13.7337V13.7347ZM10.8667 12.9749V12.9759V12.9749ZM11.8647 12.6849H11.8657H11.8647Z" fill="white" fill-opacity="0.3"/>
</g>
</g>
</g>
</svg>
