<svg width="50" height="50" viewBox="0 0 50 50" fill="none" xmlns="http://www.w3.org/2000/svg">
<rect width="50" height="50" fill="#BEBEBE"/>
<g id="Decorate Mode">
<path d="M-354.703 -1290.65V-1289.65H2665.3V-1290.65V-1291.65H-354.703V-1290.65ZM2667.3 -1288.65H2666.3V2249.35H2667.3H2668.3V-1288.65H2667.3ZM2665.3 2251.35V2250.35H-354.703V2251.35V2252.35H2665.3V2251.35ZM-356.703 2249.35H-355.703V-1288.65H-356.703H-357.703V2249.35H-356.703ZM-354.703 2251.35V2250.35C-355.255 2250.35 -355.703 2249.9 -355.703 2249.35H-356.703H-357.703C-357.703 2251.01 -356.36 2252.35 -354.703 2252.35V2251.35ZM2667.3 2249.35H2666.3C2666.3 2249.9 2665.85 2250.35 2665.3 2250.35V2251.35V2252.35C2666.95 2252.35 2668.3 2251.01 2668.3 2249.35H2667.3ZM2665.3 -1290.65V-1289.65C2665.85 -1289.65 2666.3 -1289.2 2666.3 -1288.65H2667.3H2668.3C2668.3 -1290.31 2666.95 -1291.65 2665.3 -1291.65V-1290.65ZM-354.703 -1290.65V-1291.65C-356.359 -1291.65 -357.703 -1290.31 -357.703 -1288.65H-356.703H-355.703C-355.703 -1289.2 -355.255 -1289.65 -354.703 -1289.65V-1290.65Z" fill="black" fill-opacity="0.1"/>
<g id="Stickers">
<rect x="-302.694" y="-418.151" width="374" height="551" rx="4.5" stroke="#9747FF" stroke-dasharray="10 5"/>
<g id="Property 1=green heart">
<g id="Frame 210">
<path id="Vector" d="M25.036 14.3886C26.8336 11.8728 29.3831 10.3217 32.5284 10.3042C34.9459 10.3142 37.2603 11.2832 38.9637 12.9983C40.7222 14.7492 41.7156 17.1254 41.7264 19.6069C41.7305 21.8146 40.9239 24.0807 39.4717 25.741C38.4981 26.8542 37.3316 27.947 36.2799 28.9966L31.2164 34.0305L27.4239 37.7839L26.1788 39.0259C25.8482 39.3501 25.5604 39.7498 25.0826 39.783C24.463 39.8259 23.9812 39.177 23.5811 38.7742L22.3247 37.5171L18.088 33.2983L13.6572 28.8987L11.9969 27.2483C11.1862 26.4368 10.5463 25.7917 9.90444 24.844C7.48217 21.268 7.8884 16.5902 10.7537 13.3923C12.4741 11.4721 14.5659 10.4659 17.1368 10.3132C20.37 10.1234 23.1997 11.8138 25.036 14.3886Z" fill="#020101"/>
<path id="Vector (Stroke)" d="M17.0454 8.75331C20.2051 8.56783 22.9853 9.88794 25.0325 11.9625C26.9719 9.98076 29.5064 8.75839 32.5203 8.74171H32.5349C35.3635 8.75337 38.0721 9.88597 40.0666 11.8911L40.2559 12.0846C42.1265 14.0415 43.2057 16.6228 43.2844 19.3289L43.2893 19.5999V19.6041C43.2939 22.091 42.4201 24.6445 40.8064 26.5841L40.6483 26.7697C39.6281 27.9362 38.3849 29.1035 37.3835 30.1028L37.3817 30.1046L32.3182 35.1388L32.3158 35.1412L28.5231 38.8943L27.2822 40.1321C27.2792 40.1351 27.2761 40.1382 27.2731 40.1412C27.256 40.158 26.9116 40.5259 26.6884 40.7125C26.3745 40.9749 25.8787 41.294 25.1912 41.3418C24.28 41.405 23.6082 40.946 23.2478 40.6448C22.934 40.3825 22.5337 39.9366 22.4727 39.8751L21.2227 38.6245L16.9856 34.4058L12.5563 30.0076L12.5557 30.007L10.8955 28.3566L10.8918 28.3523C10.0842 27.5437 9.34564 26.8047 8.61096 25.7199C5.77198 21.5283 6.26417 16.0614 9.58996 12.3495C11.5861 10.1216 14.0635 8.9304 17.0442 8.75331H17.0454ZM25.0361 14.3887C23.1999 11.8139 20.3702 10.1236 17.137 10.3134C14.5662 10.4661 12.4743 11.4719 10.7539 13.392C7.88859 16.5899 7.48264 21.268 9.9049 24.844C10.5467 25.7917 11.1866 26.4367 11.9972 27.2482L18.0885 33.2986L22.3249 37.5173L23.5811 38.7741C23.9812 39.1769 24.4635 39.8259 25.0831 39.783L25.1704 39.7726C25.483 39.7194 25.7127 39.5061 25.9352 39.2764L26.1793 39.0261L27.4244 37.7841L31.2165 34.0304L36.28 28.9968C37.2003 28.0784 38.2087 27.1268 39.0986 26.1575L39.4722 25.7412C40.8789 24.1329 41.6794 21.9557 41.7244 19.8141L41.7268 19.6072C41.7161 17.1257 40.7223 14.7492 38.9637 12.9983C37.2604 11.2833 34.9462 10.3142 32.5288 10.3042C29.3835 10.3216 26.8337 11.8729 25.0361 14.3887Z" fill="#E8E7E7"/>
<path id="Vector (Stroke) (Stroke)" d="M43.0055 19.3279C42.9316 16.791 41.9777 14.364 40.3174 12.4581L39.9766 12.0838L39.7876 11.8913C37.7931 9.88612 35.084 8.75322 32.2554 8.74157H32.241C29.2271 8.75825 26.6924 9.9801 24.753 11.9618C22.8337 10.0169 20.27 8.73523 17.3534 8.73559L16.7663 8.75233C13.7856 8.92942 11.3067 10.1213 9.31052 12.3493L9.00679 12.702C5.95709 16.4013 5.5811 21.6589 8.33116 25.7194C9.0658 26.8042 9.80511 27.5428 10.6127 28.3513L10.6163 28.3561L12.2761 30.0063L12.2773 30.0075L16.7065 34.4056L20.9432 38.6244L22.1928 39.8752C22.2539 39.9367 22.6551 40.3818 22.9688 40.6441C23.3067 40.9264 23.9178 41.3476 24.7434 41.3472L24.912 41.3412C25.4274 41.3054 25.8349 41.1169 26.1389 40.9143L26.4091 40.7122C26.5207 40.619 26.6625 40.4804 26.7786 40.3631L26.9939 40.1406L27.0034 40.1323L28.2435 38.8934L32.0365 35.141L32.0389 35.1387L37.1019 30.1044L37.1043 30.102C37.9803 29.2278 39.0417 28.2253 39.9766 27.207L40.3688 26.7693L40.5266 26.584C42.1403 24.6445 43.0148 22.0909 43.0103 19.6041V19.5993L43.0055 19.3279ZM16.8572 10.3128C20.0903 10.123 22.9203 11.8135 24.7565 14.3881C26.5541 11.8723 29.1041 10.3207 32.2494 10.3033C34.6665 10.3133 36.9807 11.2826 38.6839 12.9974C40.4424 14.7482 41.4366 17.1251 41.4474 19.6065L41.445 19.8134C41.4001 21.9549 40.6 24.1326 39.1933 25.7409L38.819 26.1571C37.9292 27.1263 36.9208 28.0776 36.0006 28.9959L30.9376 34.0302L27.1445 37.7837L25.8997 39.0262L25.6558 39.2761C25.4333 39.5058 25.2031 39.7192 24.8905 39.7723L24.8032 39.7831H24.6896C24.1244 39.746 23.6765 39.1516 23.3013 38.7739L22.0457 37.5171L17.809 33.2983L11.7176 27.2476C11.0085 26.5377 10.43 25.9553 9.86656 25.1861L9.62501 24.8441C7.27843 21.3798 7.58679 16.8809 10.2133 13.6957L10.474 13.392C12.1943 11.472 14.2866 10.4656 16.8572 10.3128ZM24.0092 14.9214C22.3168 12.5483 19.7663 11.0612 16.911 11.2288L16.9122 11.23C14.5822 11.3684 12.7163 12.2652 11.158 14.0042C8.56363 16.8999 8.20841 21.1145 10.3855 24.3287C10.9728 25.1958 11.5558 25.7851 12.3682 26.5983L18.4559 32.6466L18.4571 32.6478L22.6938 36.8666L23.9518 38.1245L23.953 38.1269C24.0598 38.2345 24.1958 38.3821 24.283 38.4737C24.3868 38.5827 24.4758 38.6707 24.5592 38.7404C24.6611 38.8255 24.7195 38.8534 24.7434 38.8623C24.7503 38.8585 24.7602 38.8525 24.7733 38.8432C24.8248 38.8065 24.8894 38.7473 24.9957 38.6375L24.9981 38.6351L25.242 38.384L25.2516 38.3757L26.4988 37.1308L30.2907 33.3773L35.3536 28.3454C36.299 27.4021 37.2707 26.4857 38.1422 25.5364L38.501 25.1359C39.7576 23.6992 40.486 21.7328 40.5266 19.7943L40.529 19.6113L40.5171 19.1928C40.4049 17.107 39.5242 15.13 38.037 13.6491L38.0322 13.6455C36.5012 12.104 34.422 11.2316 32.2494 11.2216C29.4456 11.2388 27.1568 12.6094 25.5039 14.9226C25.3315 15.1638 25.053 15.3065 24.7565 15.3065C24.4599 15.3063 24.1814 15.163 24.0092 14.9214ZM43.9287 19.6017L43.9179 20.1076C43.812 22.6372 42.8809 25.1908 41.2333 27.1711L41.2262 27.1795L41.0683 27.3648L41.06 27.3744C40.0125 28.572 38.7246 29.7823 37.7524 30.7525L37.7512 30.7537L37.75 30.7561L32.687 35.7868L32.6882 35.788L32.6822 35.7939L28.8916 39.5428L28.8928 39.5439L27.6516 40.7816L27.6492 40.784C27.6502 40.7829 27.6475 40.7863 27.6372 40.7971C27.6258 40.809 27.6094 40.8265 27.5894 40.8474C27.5492 40.8892 27.4938 40.9458 27.4315 41.0088C27.3138 41.1278 27.1451 41.2931 26.9975 41.4166C26.651 41.7061 26.0918 42.0828 25.3198 42.2165L24.9754 42.2572C23.7099 42.3449 22.8047 41.7051 22.3793 41.3496C22.0366 41.0631 21.5727 40.5556 21.5435 40.5233L20.2951 39.2749L16.0596 35.0573L11.6304 30.6592L11.6292 30.658L9.9682 29.0078C9.966 29.0056 9.9644 29.0029 9.96222 29.0007C9.15607 28.1936 8.35965 27.3999 7.57064 26.2348C4.48643 21.6811 5.03027 15.7496 8.62652 11.7358C10.7847 9.32718 13.4887 8.02781 16.7101 7.83635C16.7282 7.83527 16.7469 7.83396 16.7651 7.83396C19.8758 7.66658 22.6306 8.83634 24.7494 10.7015C26.7537 8.92509 29.285 7.83953 32.2362 7.8232H32.2589C35.1387 7.83506 37.9041 8.91673 40.0232 10.8462L40.4381 11.2432L40.4441 11.2491L40.6331 11.4417L40.6402 11.45C42.6677 13.5711 43.8373 16.3686 43.9227 19.3016L43.9239 19.3124L43.9287 19.5826V19.6017Z" fill="#020101"/>
<path id="Vector_2" d="M24.5608 16.1672C24.7713 16.5641 25.2941 16.5696 25.504 16.1725C25.9295 15.3644 26.4696 14.6221 27.1075 13.9685C28.5492 12.51 30.4322 11.6651 32.4947 11.6605C34.5313 11.6649 36.4823 12.4816 37.9146 13.9295C39.463 15.4658 40.3394 17.553 40.3521 19.7342C40.3497 20.4415 40.2286 21.1818 40.0396 21.8595C39.5128 23.7487 38.599 24.7798 37.2618 26.1069L35.6937 27.6565L31.8289 31.5044L25.0247 38.2195L16.3076 29.561L13.3958 26.6807C12.5979 25.886 11.6917 25.0503 11.067 24.1221C10.3089 22.9927 9.84746 21.6905 9.72514 20.3357C9.55529 18.2051 10.2412 16.0946 11.6312 14.4709C13.0128 12.8338 14.8425 11.8541 16.9845 11.68C17.8242 11.5683 19.0606 11.7739 19.8485 12.0362C21.8626 12.7068 23.4074 14.1609 24.4559 15.9774C24.4932 16.0422 24.528 16.1052 24.5608 16.1672Z" fill="#8AB17D"/>
</g>
<path id="Union" d="M16.7646 7.83374C19.8753 7.66636 22.6302 8.83677 24.749 10.7019C26.7533 8.92553 29.2851 7.83933 32.2363 7.823H32.2588C35.1385 7.83487 37.9043 8.91701 40.0234 10.8464L40.4385 11.2429L40.4443 11.2488L40.6328 11.4421L40.6396 11.45C42.6671 13.571 43.8374 16.3685 43.9229 19.3015L43.9238 19.3123L43.9287 19.5828V19.6013L43.918 20.1072C43.8121 22.6367 42.8808 25.1904 41.2334 27.1707L41.2256 27.1794L41.0684 27.365L41.0596 27.3748C40.0121 28.5723 38.7241 29.7826 37.752 30.7527L37.751 30.7537L37.75 30.7556L32.6865 35.7869L32.6885 35.7878L32.6816 35.7937L28.8916 39.5427L28.8926 39.5437L27.6514 40.782L27.6494 40.7839C27.6492 40.7843 27.6454 40.7885 27.6367 40.7976C27.6254 40.8095 27.6087 40.8268 27.5889 40.8474C27.5488 40.8891 27.4938 40.9458 27.4316 41.0085C27.3139 41.1275 27.1447 41.2933 26.9971 41.4167C26.6506 41.7062 26.0912 42.0828 25.3193 42.2166L24.9756 42.2576C23.7101 42.3453 22.8043 41.7048 22.3789 41.3494C22.0362 41.0628 21.5722 40.5555 21.543 40.5232L20.2949 39.2751L16.0596 35.0574L11.6299 30.6589L11.6289 30.658L9.96777 29.0076C9.96571 29.0054 9.964 29.0028 9.96191 29.0007C9.1558 28.1937 8.35928 27.4001 7.57031 26.2351C4.48619 21.6816 5.02999 15.7499 8.62598 11.7361C10.7842 9.32744 13.4886 8.02813 16.71 7.83667C16.728 7.8356 16.7466 7.83375 16.7646 7.83374ZM16.7666 8.75269C13.7859 8.92978 11.3067 10.1215 9.31055 12.3494L9.00684 12.7019C5.95714 16.4011 5.58099 21.659 8.33105 25.7195C9.06563 26.8041 9.80475 27.5429 10.6123 28.3513L10.6162 28.3562L12.2764 30.0066L12.2773 30.0076L16.7061 34.406L20.9434 38.6248L22.1924 39.8748C22.2535 39.9363 22.655 40.382 22.9688 40.6443C23.3066 40.9266 23.9177 41.3478 24.7432 41.3474L24.8721 41.3425C24.1228 41.2961 23.5651 40.9102 23.248 40.6453C22.9343 40.383 22.5337 39.9363 22.4727 39.8748L21.2227 38.6248L16.9854 34.406L12.5557 30.0076V30.0066L10.8955 28.3562L10.8916 28.3523C10.0839 27.5438 9.34502 26.8043 8.61035 25.7195C5.77173 21.528 6.26417 16.0611 9.58984 12.3494C11.586 10.1215 14.0633 8.93077 17.0439 8.75366H17.0449C17.1855 8.74541 17.3258 8.74039 17.4648 8.73804C17.4278 8.73763 17.3907 8.7351 17.3535 8.73511L16.7666 8.75269ZM25.2637 39.7498C25.3121 39.7359 25.3586 39.719 25.4033 39.698C25.3586 39.7189 25.3121 39.7359 25.2637 39.7498ZM25.4209 39.6882C25.4637 39.6671 25.5049 39.6434 25.5449 39.6169C25.5049 39.6434 25.4637 39.6671 25.4209 39.6882ZM25.5557 39.6101C25.5803 39.5935 25.6032 39.5746 25.627 39.5564C25.6032 39.5746 25.5803 39.5935 25.5557 39.6101ZM25.7412 39.4617C25.7558 39.4486 25.7708 39.4361 25.7852 39.4226C25.7708 39.4361 25.7558 39.4486 25.7412 39.4617ZM36.2793 28.9968L31.2461 34.0007L36.2803 28.9968C36.7702 28.508 37.2834 28.008 37.792 27.5027C37.2833 28.0081 36.7693 28.5079 36.2793 28.9968ZM38.0557 27.238C38.2737 27.019 38.4909 26.8001 38.7021 26.5789C38.4909 26.8002 38.2737 27.019 38.0557 27.238ZM40.21 24.7615C39.9866 25.1058 39.7403 25.4339 39.4717 25.741C39.2347 26.0119 38.9859 26.2814 38.7305 26.5496C38.8547 26.4191 38.9782 26.2891 39.0986 26.158L39.4717 25.741C39.7403 25.4338 39.9866 25.1059 40.21 24.7615ZM40.3066 24.6062C40.348 24.5396 40.3891 24.4728 40.4287 24.405C40.3891 24.4728 40.348 24.5396 40.3066 24.6062ZM40.4805 24.3132C40.5314 24.2237 40.5819 24.134 40.6299 24.0427C40.5819 24.134 40.5314 24.2238 40.4805 24.3132ZM40.6846 23.9333C40.7265 23.8508 40.7681 23.7681 40.8076 23.6843C40.7681 23.7681 40.7265 23.8509 40.6846 23.9333ZM40.874 23.5378C40.9097 23.4587 40.9459 23.3797 40.9795 23.2996C40.9459 23.3797 40.9098 23.4587 40.874 23.5378ZM41.0605 23.0964C41.0831 23.039 41.1055 22.9815 41.127 22.9236C41.1055 22.9815 41.0831 23.039 41.0605 23.0964ZM41.1836 22.7644C41.2104 22.6878 41.2368 22.6112 41.2617 22.5339C41.2368 22.6112 41.2104 22.6878 41.1836 22.7644ZM41.3203 22.3406C41.3397 22.2758 41.3599 22.2114 41.3779 22.1462C41.3599 22.2114 41.3397 22.2758 41.3203 22.3406ZM41.4336 21.9324C41.4479 21.8755 41.4623 21.8186 41.4756 21.7615C41.4623 21.8186 41.448 21.8755 41.4336 21.9324ZM41.5312 21.5095C41.5416 21.4592 41.551 21.4087 41.5605 21.3582C41.551 21.4087 41.5416 21.4592 41.5312 21.5095ZM41.6016 21.1199C41.6107 21.0636 41.6198 21.0073 41.6279 20.9509C41.6198 21.0073 41.6107 21.0636 41.6016 21.1199ZM41.6602 20.7029C41.6666 20.6482 41.6733 20.5936 41.6787 20.5388C41.6733 20.5936 41.6666 20.6482 41.6602 20.7029ZM41.6982 20.3113C41.7032 20.2452 41.7084 20.1791 41.7119 20.113C41.7084 20.1791 41.7032 20.2452 41.6982 20.3113ZM41.7197 19.9216C41.7209 19.8858 41.7239 19.85 41.7246 19.8142L41.7266 19.6072L41.7197 19.9216ZM24.4932 13.6882C24.6194 13.8384 24.7416 13.9926 24.8604 14.1501L24.8975 14.2L24.8613 14.1501C24.7426 13.9926 24.6203 13.8384 24.4941 13.6882H24.4932ZM32.2412 8.74194C29.2976 8.75823 26.8119 9.92518 24.8906 11.8259C24.9375 11.8719 24.9861 11.9159 25.0322 11.9626C26.944 10.0091 29.4341 8.79509 32.3916 8.74487C32.3462 8.74411 32.3004 8.74213 32.2549 8.74194H32.2412ZM20.0312 10.656H20.0322H20.0312ZM33.4287 10.3523H33.4297H33.4287Z" fill="white" fill-opacity="0.3"/>
</g>
</g>
</g>
</svg>
