<svg width="50" height="50" viewBox="0 0 50 50" fill="none" xmlns="http://www.w3.org/2000/svg">
<rect width="50" height="50" fill="#BEBEBE"/>
<g id="Decorate Mode">
<path d="M-64.7026 -1064.97V-1063.97H2955.3V-1064.97V-1065.97H-64.7026V-1064.97ZM2957.3 -1062.97H2956.3V2475.03H2957.3H2958.3V-1062.97H2957.3ZM2955.3 2477.03V2476.03H-64.7026V2477.03V2478.03H2955.3V2477.03ZM-66.7026 2475.03H-65.7026V-1062.97H-66.7026H-67.7026V2475.03H-66.7026ZM-64.7026 2477.03V2476.03C-65.2549 2476.03 -65.7026 2475.59 -65.7026 2475.03H-66.7026H-67.7026C-67.7026 2476.69 -66.3595 2478.03 -64.7026 2478.03V2477.03ZM2957.3 2475.03H2956.3C2956.3 2475.59 2955.85 2476.03 2955.3 2476.03V2477.03V2478.03C2956.95 2478.03 2958.3 2476.69 2958.3 2475.03H2957.3ZM2955.3 -1064.97V-1063.97C2955.85 -1063.97 2956.3 -1063.52 2956.3 -1062.97H2957.3H2958.3C2958.3 -1064.62 2956.95 -1065.97 2955.3 -1065.97V-1064.97ZM-64.7026 -1064.97V-1065.97C-66.3594 -1065.97 -67.7026 -1064.62 -67.7026 -1062.97H-66.7026H-65.7026C-65.7026 -1063.52 -65.255 -1063.97 -64.7026 -1063.97V-1064.97Z" fill="black" fill-opacity="0.1"/>
<g id="Stickers">
<rect x="-12.6938" y="-192.466" width="374" height="551" rx="4.5" stroke="#9747FF" stroke-dasharray="10 5"/>
<g id="Property 1=potion" opacity="0.75">
<g id="Frame 152">
<path id="Vector" d="M24.4516 8.0916C25.3725 8.05869 26.3236 8.10938 27.2335 8.26328C27.7023 8.34256 29.0241 8.62017 28.9506 9.29739C28.89 9.85257 28.6889 10.5082 28.5639 11.0675C29.1325 11.166 30.4552 11.5344 30.7072 12.2092C30.8131 12.4928 30.7335 13.077 30.7479 13.3995C30.7594 13.6573 30.7567 14.0127 30.7389 14.273C30.692 14.953 29.6659 15.4022 29.1659 15.5774C29.153 15.7805 29.153 16.0179 29.1576 16.2237C29.185 17.4138 29.1117 18.6458 29.161 19.8316C30.517 20.3404 31.5663 20.9302 32.6706 21.877C34.8971 23.8105 36.2699 26.5449 36.4904 29.4854C36.963 35.7083 32.4357 41.0803 26.2082 41.7459C26.0111 41.7671 25.8109 41.7791 25.6129 41.7937C23.8265 41.8875 22.0422 41.5708 20.397 40.8682C17.6923 39.7012 15.3765 37.3321 14.2946 34.5884C13.1894 31.8133 13.2301 28.7129 14.4076 25.9676C15.3972 23.7004 16.9199 21.9287 19.0623 20.6605C19.6611 20.3061 20.223 20.073 20.8678 19.821L20.8533 15.5913C20.3689 15.3965 19.3352 14.9845 19.2924 14.367C19.2525 13.7907 19.2392 12.9603 19.2769 12.3852C19.3285 11.5965 20.8598 11.1934 21.4622 11.069C21.3674 10.648 21.0829 9.74412 21.0579 9.36363C20.9844 8.24221 23.7098 8.13174 24.4516 8.0916Z" fill="#020101"/>
<path id="Vector (Stroke)" d="M24.3956 6.52989C25.4085 6.49369 26.4671 6.54901 27.4943 6.72276C27.7568 6.76716 28.3563 6.88034 28.9146 7.12132C29.1881 7.23937 29.5685 7.43649 29.8912 7.76341C30.2442 8.12107 30.5862 8.70684 30.504 9.46568V9.4669C30.4855 9.63571 30.454 9.82015 30.4173 10.0077C30.6966 10.1319 31.0135 10.3 31.3054 10.5271C31.602 10.7579 31.9699 11.1244 32.1708 11.6623L32.2056 11.763C32.2792 11.9957 32.3035 12.21 32.3143 12.3496C32.3277 12.5243 32.3269 12.6929 32.324 12.8238C32.3213 12.9489 32.3148 13.0928 32.3118 13.1736C32.3101 13.221 32.3091 13.2577 32.3088 13.2871V13.3298L32.3161 13.5801C32.3201 13.8431 32.3144 14.1368 32.2978 14.3796V14.3802C32.2217 15.4833 31.4035 16.1347 30.9959 16.4096C30.9066 16.4699 30.8153 16.5252 30.7249 16.5775C30.7287 17.0801 30.7201 17.5809 30.7133 18.0515C30.7097 18.3008 30.7079 18.5435 30.7072 18.7803C31.6902 19.2277 32.565 19.7644 33.452 20.4929L33.6876 20.6907L33.6912 20.6943L33.6949 20.6974C36.2321 22.9005 37.7969 26.0162 38.0485 29.3668L38.0693 29.6982C38.424 36.6335 33.3187 42.5562 26.3749 43.2987L26.3755 43.2993C26.1439 43.3243 25.896 43.3394 25.728 43.3518L25.695 43.3542C23.6703 43.4605 21.6477 43.1014 19.7831 42.305L19.7783 42.3026C16.6982 40.9737 14.08 38.2996 12.8428 35.1664L12.7287 34.8691C11.5889 31.7867 11.673 28.3797 12.9716 25.3519L12.9734 25.347L12.9753 25.3428C14.0904 22.788 15.8297 20.7585 18.2664 19.3161C18.6226 19.1053 18.9653 18.9315 19.3016 18.779L19.2936 16.5891C19.2201 16.548 19.1464 16.5048 19.0739 16.4591C18.8396 16.3113 18.5504 16.1001 18.3012 15.8103C18.0486 15.5166 17.7746 15.067 17.7336 14.4748C17.6901 13.847 17.6744 12.9444 17.7177 12.2831L17.7305 12.1494C17.8132 11.4948 18.1712 11.0211 18.4849 10.7261C18.8153 10.4155 19.1965 10.203 19.5066 10.0596C19.5323 10.0477 19.5584 10.0368 19.5842 10.0254C19.5442 9.83588 19.5101 9.63914 19.4987 9.46568C19.4297 8.41236 20.0772 7.73184 20.5949 7.3917C21.0855 7.06941 21.6583 6.8986 22.1043 6.79783C23.0217 6.59057 24.0271 6.54949 24.3669 6.53111L24.3815 6.5305L24.3956 6.52989ZM27.2337 8.26329C26.3239 8.10939 25.3725 8.05888 24.4517 8.09178C23.7099 8.13191 20.9846 8.24234 21.0582 9.36375C21.0832 9.74434 21.3674 10.6482 21.4622 11.0691C20.8598 11.1935 19.3284 11.5964 19.2765 12.385C19.2389 12.9601 19.2525 13.7905 19.2924 14.3668C19.3352 14.9842 20.3687 15.3963 20.8531 15.5912L20.8677 19.8209C20.223 20.0728 19.6612 20.3063 19.0623 20.6607L18.668 20.9043C16.7318 22.1522 15.3356 23.8423 14.4078 25.9678L14.3003 26.2259C13.2285 28.9063 13.2237 31.9 14.2942 34.5884C15.3762 37.332 17.6924 39.7013 20.3972 40.8683C22.0422 41.5708 23.8263 41.8873 25.6126 41.7936C25.8106 41.7789 26.0113 41.7672 26.2083 41.7459C32.4357 41.0803 36.9629 35.708 36.4903 29.4852C36.2767 26.6369 34.9818 23.9818 32.877 22.0609L32.6707 21.8772C31.5665 20.9304 30.517 20.3406 29.1612 19.8319C29.1119 18.6461 29.1849 17.4136 29.1575 16.2235C29.1529 16.0178 29.1531 15.7802 29.1661 15.5771C29.6505 15.4073 30.6282 14.9808 30.7316 14.3363L30.7389 14.2728C30.7523 14.0776 30.7568 13.829 30.7536 13.6081L30.7481 13.3994C30.7346 13.0971 30.8034 12.565 30.7249 12.266L30.7072 12.2092C30.4553 11.5344 29.1323 11.1658 28.5637 11.0672C28.6731 10.5778 28.8412 10.0147 28.9219 9.50962L28.9506 9.29722C29.0147 8.70479 28.0109 8.41846 27.4449 8.30296L27.2337 8.26329Z" fill="#E8E7E7"/>
<path id="Vector (Stroke) (Stroke)" d="M24.3287 5.6141H24.3418L24.3562 5.61291L24.3634 5.61171C25.4305 5.5736 26.5523 5.63201 27.6482 5.81739C27.9278 5.86469 28.6165 5.9917 29.2793 6.27777C29.6025 6.41732 30.1047 6.67174 30.5456 7.11841C31.022 7.60128 31.5155 8.42213 31.4221 9.49803C31.5701 9.58748 31.7218 9.68699 31.8693 9.80176C32.1942 10.0546 32.6243 10.4648 32.9157 11.0693L33.0317 11.3407L33.0388 11.3623L33.0735 11.4627C33.0761 11.4702 33.0795 11.4779 33.0819 11.4854C33.1856 11.8133 33.2169 12.1069 33.2302 12.2794C33.247 12.4983 33.2452 12.7015 33.2421 12.8439C33.2392 12.977 33.2326 13.1385 33.2302 13.2062C33.2286 13.2495 33.228 13.2789 33.2278 13.2983V13.3293L33.2349 13.553V13.5661C33.2392 13.8488 33.2333 14.169 33.2146 14.4426V14.4438C33.1165 15.8645 32.1493 16.7099 31.6386 17.0781C31.6366 17.419 31.6359 17.7522 31.6314 18.0647C31.6307 18.1119 31.6307 18.159 31.6302 18.2058C32.4712 18.6329 33.2509 19.1391 34.0349 19.783L34.0433 19.789H34.0421L34.2789 19.9875L34.3219 20.027C36.8571 22.2394 38.4817 25.303 38.897 28.6271L38.9652 29.2979V29.3099L38.9867 29.6411V29.6507C39.3666 37.0783 33.8963 43.4154 26.4763 44.2106L26.4739 44.2118C26.222 44.239 25.947 44.2569 25.7959 44.268L25.7636 44.2704C25.7571 44.2709 25.7499 44.2713 25.7433 44.2716C23.5785 44.3852 21.4157 44.0013 19.4224 43.15C19.4055 43.1428 19.3885 43.1343 19.3721 43.1261L19.3673 43.1237V43.1225C16.0872 41.6912 13.3109 38.8507 11.9893 35.5041L11.9857 35.4957L11.8721 35.198L11.8673 35.1872C10.6504 31.896 10.7363 28.2598 12.1137 25.0242C12.1186 25.011 12.1237 24.9976 12.1292 24.9847L12.1316 24.9811L12.134 24.9752C13.3229 22.2516 15.1891 20.071 17.7985 18.5263C17.9965 18.409 18.1904 18.3014 18.3808 18.2034L18.3772 17.0973C18.1371 16.9294 17.8585 16.7036 17.6048 16.4085C17.3113 16.0671 16.9742 15.5419 16.855 14.8468L16.8179 14.5383C16.7723 13.8802 16.7546 12.9353 16.8012 12.2232L16.8036 12.1957L16.8167 12.0618L16.8191 12.0343C16.9374 11.0975 17.4475 10.4404 17.8559 10.0565C18.0923 9.83418 18.3442 9.65609 18.5817 9.51238C18.4889 8.00534 19.4303 7.05859 20.0908 6.62454L20.3288 6.47985C20.8896 6.16373 21.4782 5.99815 21.9024 5.90229C22.9091 5.67487 23.9952 5.63156 24.3179 5.6141L24.3287 5.61291V5.6141ZM24.367 6.53127C24.027 6.54966 23.0217 6.59071 22.1045 6.79793L21.7494 6.88762C21.3771 6.99328 20.9633 7.15056 20.5954 7.39224C20.0777 7.7324 19.4299 8.41249 19.4989 9.46574C19.5103 9.63918 19.5451 9.83592 19.585 10.0254C19.5593 10.0368 19.5328 10.0482 19.5073 10.0601L19.2633 10.1808C19.0097 10.3157 18.7327 10.4931 18.4849 10.7261L18.3665 10.8445C18.0865 11.1417 17.8027 11.5761 17.7303 12.1491L17.7184 12.283L17.6956 12.8164C17.6838 13.3786 17.7013 14.0041 17.7339 14.4749C17.775 15.067 18.0494 15.5169 18.3019 15.8106C18.551 16.1002 18.8402 16.311 19.0744 16.4587C19.1468 16.5044 19.2209 16.5479 19.2944 16.5891L19.3016 18.7786C18.9654 18.931 18.6234 19.1059 18.2672 19.3167L17.8176 19.5929C15.6148 21.0136 14.0213 22.9474 12.9758 25.3423L12.9735 25.347L12.9723 25.3518C11.6737 28.3796 11.5897 31.7867 12.7295 34.8691L12.8431 35.1669C14.0803 38.2999 16.6988 40.9733 19.7787 42.3022L19.7835 42.3046C21.648 43.1009 23.6707 43.4607 25.6955 43.3545L25.7278 43.3521C25.8958 43.3396 26.1442 43.3244 26.3759 43.2995L26.3747 43.2983C33.1014 42.5789 38.1039 36.9987 38.0875 30.3454L38.0695 29.6985L38.0492 29.3673C37.7975 26.0169 36.2323 22.901 33.6953 20.6978L33.6881 20.6906L33.4526 20.4933C32.5656 19.7649 31.69 19.2272 30.707 18.7798L30.713 18.0515C30.7198 17.581 30.7288 17.0797 30.725 16.5771L30.9964 16.4097C31.404 16.1347 32.2225 15.4833 32.2986 14.3804V14.3792C32.3069 14.2578 32.3124 14.1237 32.3154 13.987L32.3166 13.5805L32.3094 13.3293V13.2875L32.3118 13.1739C32.3147 13.0931 32.321 12.9486 32.3237 12.8235C32.3252 12.7582 32.3272 12.6836 32.3261 12.6035L32.3142 12.35C32.3034 12.2104 32.279 11.9955 32.2054 11.7629L32.1707 11.6624C32.02 11.2591 31.7761 10.9518 31.5381 10.7261L31.3061 10.5276C31.0143 10.3005 30.697 10.1317 30.4177 10.0074C30.4543 9.82003 30.4853 9.63566 30.5037 9.46694V9.46574C30.5757 8.80176 30.3239 8.26973 30.023 7.90763L29.8915 7.76294C29.5688 7.43614 29.188 7.23882 28.9145 7.1208C28.496 6.94019 28.0541 6.83227 27.7486 6.77043L27.4951 6.7226C26.4679 6.54885 25.4086 6.49388 24.3956 6.53008H24.3813L24.367 6.53127ZM24.4519 8.09178C25.3727 8.05889 26.3246 8.10888 27.2345 8.26278L27.4449 8.30344C28.0109 8.41894 29.0145 8.7047 28.9504 9.29714L28.9217 9.50999C28.841 10.0148 28.6735 10.5777 28.5642 11.0669C29.1328 11.1655 30.4547 11.5344 30.707 12.2089L30.725 12.2663C30.8034 12.5654 30.7354 13.0977 30.7489 13.3999L30.7537 13.608C30.7569 13.8288 30.7527 14.0776 30.7393 14.2728L30.7321 14.3362C30.6288 14.9805 29.6514 15.4076 29.1669 15.5774L29.1549 15.8991C29.1538 16.0095 29.155 16.1203 29.1573 16.2232C29.1846 17.4133 29.1116 18.6462 29.1609 19.8321C30.5165 20.3407 31.5665 20.9303 32.6705 21.8769L32.8774 22.061C34.9821 23.9819 36.2775 26.6374 36.4911 29.4857C36.9634 35.7083 32.4357 41.0805 26.2085 41.7461L25.613 41.794L25.2781 41.8059C23.7159 41.8431 22.162 41.5675 20.7078 40.9952L20.3969 40.8684C17.6923 39.7014 15.3767 37.3316 14.2948 34.5881C13.2243 31.8998 13.229 28.9063 14.3008 26.226L14.4084 25.9677C15.3361 23.8424 16.7319 22.1525 18.6678 20.9047L19.0624 20.6607C19.5115 20.3949 19.9401 20.1976 20.3981 20.009L20.8681 19.8213L20.8537 15.5906C20.3995 15.4079 19.4627 15.0346 19.3123 14.4797L19.2932 14.3673C19.2533 13.791 19.2388 12.9598 19.2765 12.3847C19.3286 11.5963 20.8599 11.1937 21.4624 11.0693C21.3794 10.701 21.151 9.96284 21.0785 9.52912L21.0582 9.3641C20.9847 8.24276 23.7099 8.13192 24.4519 8.09178ZM24.5009 9.00776C24.1114 9.02882 23.3269 9.06583 22.6522 9.21822C22.3434 9.28798 22.1269 9.36844 21.9993 9.44063C22.0227 9.55941 22.0619 9.73742 22.1225 9.96678C22.1993 10.2581 22.3059 10.6359 22.358 10.8672C22.4121 11.1075 22.3683 11.3597 22.2349 11.5667C22.1013 11.7738 21.889 11.9187 21.6477 11.9685C21.3721 12.0255 20.9189 12.1406 20.5488 12.3117C20.3679 12.3954 20.2518 12.472 20.1901 12.5282C20.1636 13.0198 20.1719 13.7012 20.2032 14.2118C20.2382 14.2466 20.299 14.2983 20.3969 14.3601C20.5184 14.4367 20.6551 14.5067 20.7927 14.5694L21.1957 14.7392L21.3201 14.8002C21.5961 14.9629 21.771 15.2611 21.7721 15.5882L21.7864 19.8177C21.7877 20.1971 21.5551 20.5382 21.2017 20.6763C20.5661 20.9246 20.0617 21.1364 19.53 21.4512L19.1509 21.6855C17.3827 22.8291 16.1073 24.3716 15.2502 26.3348L15.1486 26.5787C14.1688 29.0378 14.1657 31.783 15.1474 34.2485L15.1486 34.2509C16.1397 36.7643 18.2783 38.9539 20.7616 40.0254C22.2743 40.6707 23.9144 40.9617 25.5568 40.8768C25.7685 40.8612 25.937 40.8512 26.1104 40.8325L26.6449 40.7632C32.1078 39.9098 35.9958 35.0967 35.5751 29.555V29.5538C35.379 26.9394 34.1899 24.5022 32.258 22.739V22.7378L32.0726 22.574C31.0592 21.7052 30.1058 21.1671 28.8392 20.6918C28.494 20.5623 28.2591 20.2387 28.2437 19.8703C28.2179 19.2489 28.2243 18.6202 28.2329 18.0156C28.2417 17.4033 28.2533 16.8183 28.2401 16.2447C28.2352 16.0272 28.2344 15.7596 28.2497 15.5188L28.2688 15.3837C28.3354 15.0744 28.5585 14.8173 28.8631 14.7105C29.0729 14.6369 29.36 14.5162 29.589 14.3661C29.7019 14.292 29.7743 14.2281 29.8138 14.1819C29.8186 14.1763 29.8214 14.1705 29.8245 14.1664C29.8335 14.0114 29.8378 13.8145 29.8353 13.6319L29.8305 13.4238V13.4226C29.8264 13.3135 29.8285 13.1997 29.8317 13.1057C29.8357 12.9894 29.8408 12.9103 29.8437 12.8068C29.8463 12.7119 29.8456 12.6345 29.8425 12.5724C29.8418 12.5584 29.8397 12.5465 29.8389 12.5365C29.827 12.5246 29.81 12.5064 29.7827 12.4851C29.6951 12.4169 29.5622 12.3398 29.3881 12.2639C29.0381 12.1114 28.639 12.0123 28.4075 11.9721C28.16 11.9292 27.9398 11.7863 27.8001 11.5775C27.6607 11.3689 27.6127 11.1121 27.6673 10.8672C27.7935 10.3028 27.9226 9.8843 28.001 9.43226C27.8011 9.33367 27.5161 9.25455 27.262 9.20267V9.20147L27.0814 9.16799V9.16919C26.2458 9.02786 25.3626 8.97796 24.5009 9.00776Z" fill="#020101"/>
<path id="Vector_2" d="M17.7955 29.8358C17.4659 29.4492 17.1737 29.0344 17.2096 28.4979C17.2368 28.0903 17.4578 27.7383 17.7658 27.4817C17.9463 27.3313 18.1476 27.2447 18.3575 27.1443C20.3453 26.1939 23.9186 26.2003 26.0737 26.4126C29.1214 26.7136 34.4855 25.1716 35.0908 28.1737C35.2788 28.0346 35.4535 29.5027 35.4535 30.427C35.4892 33.132 34.4348 35.738 32.5281 37.6574C30.5532 39.6445 27.8708 40.768 25.0691 40.7816C19.2267 40.8043 14.5417 36.1276 14.6306 30.3056C14.6364 29.9312 14.6661 29.5764 14.6968 29.2042C16.1225 20.0185 25.4 23.3174 27.882 23.925C36.7952 26.1064 26.5153 33.7772 24.6319 33.174C22.4622 32.4797 19.2941 31.6271 17.7955 29.8358Z" fill="#2A9D8F"/>
<path id="Vector_3" d="M21.7448 27.3318C23.9589 27.0835 26.474 27.2805 28.6129 27.9285C28.8861 28.0112 29.515 28.2344 29.6483 28.4907C29.6454 28.5286 29.653 28.5471 29.6237 28.5757C29.3251 28.8682 27.0636 28.5938 26.6181 28.5623C26.2843 28.54 25.9501 28.5281 25.6156 28.5266C24.7186 28.5227 23.5999 28.5474 22.7684 28.9065C22.4956 29.0244 22.1747 29.2456 22.1505 29.5698C22.1346 29.783 22.2504 29.9868 22.3888 30.1401C23.4991 31.3711 27.3031 31.8909 28.9315 32.1782C29.6735 32.3091 30.8016 32.4707 31.4557 32.8504C31.7636 33.0291 31.9911 33.301 31.9811 33.6719C31.9691 34.1057 31.6918 34.4627 31.3832 34.7427C29.8812 36.104 27.1159 36.1409 25.2013 36.1016C24.642 36.0903 23.7762 35.981 23.2601 36.2097C23.1622 36.2532 23.049 36.3289 23.0532 36.45C23.0589 36.6174 23.2444 36.7734 23.368 36.8662C24.5636 37.7639 27.3563 37.9961 28.8224 37.7732C29.1097 37.7295 29.4306 37.6301 29.7191 37.6462L29.7394 37.6697C29.622 37.7752 29.3488 37.8657 29.1969 37.9273C28.203 38.3301 27.0902 38.4221 26.0267 38.4517C25.8048 38.4544 25.5975 38.4463 25.3746 38.436C23.2086 38.3347 20.9454 37.6445 19.4234 36.0283C18.6191 35.1746 18.6088 34.3008 20.0138 34.4185C20.7519 34.4805 21.5149 34.6436 22.2496 34.7551C22.3838 34.7759 22.5193 34.7998 22.6517 34.832C22.8351 34.8335 23.0822 34.8784 23.2674 34.9011C24.2507 35.0225 25.2494 35.094 26.2362 34.9697C26.587 34.9253 27.1571 34.8369 27.3768 34.533C27.6288 34.1843 27.4103 33.8367 27.1005 33.6404C26.4525 33.1885 25.4083 32.9265 24.6505 32.6838C22.735 32.0708 19.9379 31.3181 18.6148 29.7366C18.5964 29.5816 18.5055 29.4016 18.5007 29.2424C18.4548 27.71 20.6985 27.4356 21.7448 27.3318Z" fill="#E8E7E7"/>
<path id="Vector_4" d="M18.6148 29.7366C18.5964 29.5815 18.5055 29.4016 18.5007 29.2424C18.4548 27.71 20.6985 27.4355 21.7448 27.3318C22.2974 27.3723 23.115 27.3689 23.6603 27.3931C24.3488 27.4238 27.3917 27.7324 27.796 28.1577L27.7968 28.2046C27.725 28.2659 27.6415 28.2708 27.5504 28.2759C26.9056 28.3115 26.1632 28.2034 25.5116 28.1646C24.3072 28.0928 21.6594 28.0234 20.6675 28.7732C20.4885 28.9084 20.3183 29.0862 20.3005 29.3208C20.2798 29.5955 20.4512 29.8667 20.6302 30.062C21.9815 31.5381 25.9764 32.1963 27.9288 32.6458C28.5336 32.7849 29.5524 32.989 30.0729 33.303C30.3251 33.4551 30.5072 33.7009 30.4904 34.0044C30.474 34.2959 30.2975 34.5569 30.0802 34.7415C29.1368 35.5415 27.0524 35.6099 25.8324 35.4983C24.9547 35.4182 23.4372 35.2202 22.6517 34.832C22.8351 34.8335 23.0822 34.8784 23.2674 34.9011C24.2507 35.0225 25.2494 35.094 26.2362 34.9697C26.587 34.9253 27.1571 34.8369 27.3768 34.533C27.6288 34.1843 27.4103 33.8367 27.1005 33.6404C26.4525 33.1885 25.4083 32.9265 24.6505 32.6838C22.735 32.0708 19.9379 31.3181 18.6148 29.7366Z" fill="#287271"/>
<path id="Vector_5" d="M21.9871 15.7952C23.0067 16.1514 25.8685 16.6209 28.0421 15.7952C28.0797 17.2527 28.0374 19.0087 28.0421 20.4754C29.0786 20.7907 29.4251 20.8781 30.3495 21.4642C33.052 23.1777 34.5179 25.4309 35.2581 28.4642C33.8714 27.0713 31.3547 26.3545 29.4911 25.9066C28.7827 25.744 28.0673 25.6121 27.3469 25.512C24.346 25.0767 17.8567 24.8643 15.3784 26.7149C15.5653 26.2713 15.7192 25.9279 15.9463 25.5053C16.9819 23.5781 17.9855 22.6725 19.6544 21.574C20.311 21.1418 21.1544 20.8768 21.9871 20.6124V15.7952Z" fill="#E8E7E7"/>
<path id="Vector_6" d="M22.2437 10.1302C23.8297 10.5065 26.1916 10.5172 27.7755 10.1176C27.6857 10.6599 27.5109 11.3753 27.3878 11.9212C27.348 12.1064 27.307 12.269 27.2575 12.452C25.9113 12.6954 24.0956 12.6525 22.7477 12.4331C22.5721 11.6671 22.4041 10.8994 22.2437 10.1302Z" fill="#EFB366"/>
<path id="Vector_7" d="M29.6564 13.1425C29.6886 13.2717 29.6716 13.9721 29.6684 14.1288C28.8193 14.9901 25.4438 15.1213 24.2669 15.0604C23.3282 15.0119 21.0479 14.7822 20.3667 14.142C20.3218 13.891 20.3399 13.4174 20.3437 13.1498C20.7474 13.4071 21.2899 13.5889 21.7559 13.7054C23.8862 14.2381 27.7658 14.2603 29.6564 13.1425Z" fill="#E8E7E7"/>
<path id="Vector_8" d="M28.2462 12.0178C28.5868 12.0923 30.121 12.4723 29.2987 12.9623C27.5829 13.7897 23.3503 13.7279 21.4499 13.2302C21.2371 13.1744 20.5398 12.9785 20.4599 12.75C20.3193 12.3484 21.4974 12.0994 21.7332 12.0409L21.7703 12.0607C21.8304 12.2005 21.8729 12.4043 21.91 12.5567C21.8266 12.5944 21.7241 12.6237 21.6868 12.6931C21.7488 12.7648 21.9294 12.8237 22.0186 12.8523C23.3651 13.2838 27.1688 13.316 28.3478 12.6994C28.268 12.6581 28.1771 12.622 28.0939 12.5862C28.1354 12.3915 28.1908 12.2085 28.2462 12.0178Z" fill="#E8E7E7"/>
<path id="Vector_9" d="M23.1807 15.6268C24.2049 15.7649 25.8356 15.7225 26.8419 15.6257C26.7638 16.0143 26.7247 16.4143 26.641 16.8167C26.3793 17.1995 23.8904 17.1243 23.4678 16.8787C23.3439 16.8068 23.2093 15.8134 23.1807 15.6268Z" fill="#EFB366"/>
<path id="Vector_10" d="M24.4846 9.09304C25.1321 9.07097 25.7803 9.09248 26.4248 9.15745C26.6902 9.18533 27.6541 9.2938 27.7957 9.46885L27.7739 9.51421C27.415 9.73891 25.9731 9.83227 25.5378 9.85893C25.001 9.87683 24.4487 9.87676 23.9131 9.82876C23.6433 9.80456 22.2862 9.67807 22.2041 9.47041C22.4768 9.19182 24.0438 9.11086 24.4846 9.09304Z" fill="#EFB366"/>
</g>
<path id="Union" d="M24.3633 5.612C25.4304 5.57388 26.5525 5.63171 27.6484 5.81708C27.928 5.86438 28.6166 5.99196 29.2793 6.27802C29.6026 6.41757 30.105 6.67217 30.5459 7.11884C31.0222 7.60171 31.5151 8.42215 31.4219 9.49774C31.5698 9.58711 31.7217 9.68681 31.8691 9.80145C32.194 10.0543 32.6246 10.4647 32.916 11.069L33.0322 11.3405L33.0391 11.362L33.0732 11.4626C33.0758 11.4699 33.0797 11.4776 33.082 11.485C33.1857 11.8126 33.2172 12.1064 33.2305 12.279C33.2473 12.4977 33.2453 12.7012 33.2422 12.8434C33.2393 12.9763 33.2329 13.1378 33.2305 13.2057C33.2289 13.249 33.2278 13.2791 33.2275 13.2985V13.3298L33.2354 13.5534V13.5661C33.2397 13.8487 33.2336 14.1694 33.2148 14.4431V14.444C33.1166 15.8645 32.1495 16.7095 31.6387 17.0778C31.6367 17.4186 31.6363 17.7527 31.6318 18.0651C31.6312 18.1122 31.6314 18.1591 31.6309 18.2057C32.4718 18.6328 33.2513 19.1391 34.0352 19.7829L34.0439 19.7888H34.042L34.2793 19.988L34.3223 20.027C36.8573 22.2394 38.4821 25.3028 38.8975 28.6266L38.9658 29.2975V29.3102L38.9873 29.6413V29.6511C39.367 37.0784 33.8964 43.4153 26.4766 44.2106L26.4746 44.2116C26.2227 44.2388 25.947 44.2571 25.7959 44.2682L25.7637 44.2702C25.7571 44.2707 25.7497 44.2708 25.7432 44.2712C23.5786 44.3847 21.4161 44.0013 19.4229 43.1501C19.406 43.1429 19.3885 43.1339 19.3721 43.1257L19.3672 43.1237V43.1227C16.0872 41.6915 13.3108 38.8502 11.9893 35.5036L11.9863 35.4958L11.8721 35.1979L11.8672 35.1872C10.6503 31.8961 10.7369 28.2596 12.1143 25.0241C12.1192 25.0111 12.1244 24.9978 12.1299 24.985L12.1318 24.9811L12.1338 24.9753C13.3227 22.2517 15.1895 20.0708 17.7988 18.5261C17.9967 18.409 18.1906 18.3017 18.3809 18.2038L18.377 17.0974C18.1369 16.9295 17.8581 16.7038 17.6045 16.4089C17.311 16.0675 16.9747 15.5415 16.8555 14.8464L16.8184 14.5378C16.7728 13.8798 16.7552 12.9352 16.8018 12.2233L16.8037 12.196L16.8174 12.0622L16.8193 12.0339C16.9378 11.0973 17.4482 10.4402 17.8564 10.0563C18.0928 9.83416 18.3446 9.65605 18.582 9.51239C18.4892 8.00551 19.4303 7.0588 20.0908 6.62469L20.3291 6.48016C20.8899 6.16409 21.4781 5.99791 21.9023 5.90204C22.909 5.67462 23.9956 5.63141 24.3184 5.61395L24.3291 5.61298V5.61395H24.3418L24.3564 5.61298L24.3633 5.612ZM25.3154 43.3688L24.9365 43.3727C25.1892 43.374 25.4422 43.3675 25.6953 43.3542L25.3154 43.3688ZM27.6035 43.1091C27.6094 43.1079 27.6152 43.1064 27.6211 43.1052C27.6152 43.1064 27.6094 43.1079 27.6035 43.1091ZM28.79 42.8132C28.8008 42.81 28.8115 42.8066 28.8223 42.8034C28.8115 42.8066 28.8008 42.81 28.79 42.8132ZM29.1094 42.7106C29.2223 42.6738 29.3349 42.6371 29.4463 42.5974C29.3349 42.6371 29.2223 42.6738 29.1094 42.7106ZM29.6787 42.5095C29.7866 42.4687 29.8946 42.4289 30.001 42.3854C29.8946 42.4289 29.7866 42.4687 29.6787 42.5095ZM30.3184 42.2487C30.3984 42.2136 30.4785 42.1789 30.5576 42.1423C30.4785 42.179 30.3984 42.2135 30.3184 42.2487ZM30.835 42.0085C30.9276 41.9629 31.0201 41.9175 31.1113 41.8698C31.0201 41.9175 30.9276 41.9629 30.835 42.0085ZM31.3945 41.7165C31.4734 41.6728 31.5521 41.6289 31.6299 41.5837C31.5521 41.6289 31.4734 41.6728 31.3945 41.7165ZM31.9424 41.3952C32.0071 41.3551 32.0718 41.3153 32.1357 41.2741C32.0718 41.3153 32.0071 41.3551 31.9424 41.3952ZM32.4463 41.0671C32.5098 41.0236 32.5731 40.9798 32.6357 40.9352C32.5731 40.9798 32.5098 41.0236 32.4463 41.0671ZM32.9014 40.7399C32.9754 40.6844 33.0493 40.629 33.1221 40.572C33.0493 40.629 32.9754 40.6844 32.9014 40.7399ZM33.3662 40.3757C33.4442 40.3115 33.5213 40.2463 33.5977 40.1804C33.5213 40.2463 33.4442 40.3114 33.3662 40.3757ZM33.7959 40.0056C33.8771 39.9325 33.9578 39.8589 34.0371 39.7839C33.9578 39.8589 33.8771 39.9325 33.7959 40.0056ZM34.2549 39.5729C34.3211 39.5073 34.3864 39.4407 34.4512 39.3737C34.3864 39.4408 34.3211 39.5073 34.2549 39.5729ZM34.6611 39.1501C34.7262 39.0796 34.7901 39.0081 34.8535 38.9362C34.7901 39.0082 34.7262 39.0796 34.6611 39.1501ZM35.0439 38.7155C35.114 38.6324 35.183 38.5484 35.251 38.4636C35.183 38.5484 35.114 38.6324 35.0439 38.7155ZM35.4131 38.2575C35.4836 38.1656 35.553 38.0729 35.6211 37.9792C35.553 38.0729 35.4836 38.1656 35.4131 38.2575ZM35.7607 37.7829C35.8321 37.6807 35.9023 37.5776 35.9707 37.4733C35.9023 37.5776 35.8321 37.6807 35.7607 37.7829ZM13.8438 37.1481C13.875 37.1983 13.9075 37.2477 13.9395 37.2975C13.85 37.158 13.7626 37.0173 13.6787 36.8747L13.8438 37.1481ZM36.0986 37.2731C36.1521 37.1882 36.2043 37.1025 36.2559 37.0163C36.2043 37.1025 36.1521 37.1882 36.0986 37.2731ZM36.4043 36.7653C36.463 36.662 36.5184 36.5569 36.5742 36.4518C36.5184 36.5569 36.463 36.662 36.4043 36.7653ZM36.6748 36.2634C36.7321 36.1511 36.7867 36.0376 36.8408 35.9235C36.7867 36.0376 36.7321 36.1511 36.6748 36.2634ZM13.0908 35.7477V35.7487V35.7477ZM36.9443 35.7009C36.9921 35.595 37.0371 35.4879 37.082 35.3806C37.0371 35.4879 36.9921 35.595 36.9443 35.7009ZM37.1738 35.1608C37.2319 35.0146 37.287 34.8671 37.3398 34.7184C37.287 34.8671 37.2319 35.0146 37.1738 35.1608ZM37.3818 34.5993C37.423 34.4797 37.4613 34.3591 37.499 34.238C37.4613 34.3591 37.423 34.4797 37.3818 34.5993ZM37.5693 34.0104C37.6082 33.877 37.6431 33.7422 37.6777 33.6071C37.6431 33.7422 37.6082 33.877 37.5693 34.0104ZM13.9395 33.5524C13.9537 33.6016 13.9704 33.6499 13.9854 33.6989C13.9704 33.6499 13.9537 33.6016 13.9395 33.5524ZM37.7217 33.4382C37.7671 33.2504 37.8095 33.0615 37.8467 32.8708C37.8095 33.0615 37.7671 33.2504 37.7217 33.4382ZM13.7998 33.0202C13.8238 33.1212 13.8511 33.2215 13.8779 33.322C13.8511 33.2215 13.8238 33.1212 13.7998 33.0202ZM37.8525 32.8405C37.8637 32.7824 37.8744 32.7241 37.8848 32.6657C37.8744 32.7241 37.8637 32.7824 37.8525 32.8405ZM37.9561 32.2224C37.9625 32.1772 37.9686 32.1319 37.9746 32.0866C37.9686 32.1319 37.9625 32.1772 37.9561 32.2224ZM38.0283 31.6188C38.0331 31.5685 38.0368 31.518 38.041 31.4675C38.0368 31.518 38.0331 31.5685 38.0283 31.6188ZM13.5049 30.8776C13.5087 30.9702 13.5154 31.0625 13.5215 31.155C13.5154 31.0625 13.5087 30.9702 13.5049 30.8776ZM13.4951 30.3298C13.4946 30.4021 13.4972 30.4743 13.498 30.5466C13.4975 30.499 13.4951 30.4515 13.4951 30.404V30.3298ZM38.085 30.2731C38.0854 30.3223 38.0861 30.3715 38.0859 30.4206C38.086 30.3956 38.088 30.3705 38.0879 30.3454L38.085 30.2731ZM37.3721 26.1237C37.7344 27.1622 37.965 28.2514 38.0488 29.3669L38.0664 29.6511L38.0498 29.3669C37.966 28.2513 37.7345 27.1623 37.3721 26.1237ZM13.6611 28.4929C13.6654 28.4681 13.6704 28.4434 13.6748 28.4186C13.6828 28.3741 13.6887 28.3293 13.6973 28.2849L13.6611 28.4929ZM14.2529 26.3522C14.2577 26.3398 14.2627 26.3275 14.2676 26.3151C14.2791 26.2857 14.289 26.2556 14.3008 26.2263L14.2529 26.3522ZM37.1143 25.445C37.1539 25.5407 37.1932 25.6365 37.2305 25.7331C37.1933 25.6369 37.1547 25.5412 37.1152 25.446L37.1143 25.445ZM36.7285 24.6022C36.821 24.7864 36.9097 24.9724 36.9932 25.1608L36.7295 24.6022C36.6369 24.418 36.5399 24.236 36.4385 24.0563L36.7285 24.6022ZM15.0059 24.7722C14.9708 24.8337 14.9374 24.8963 14.9033 24.9587C14.9374 24.8963 14.9708 24.8337 15.0059 24.7722ZM13.4121 24.4304C13.3721 24.507 13.3347 24.5851 13.2959 24.6628C13.3347 24.5851 13.372 24.507 13.4121 24.4304ZM13.6494 23.9977C13.5938 24.0954 13.5398 24.1942 13.4863 24.2936C13.5398 24.1942 13.5938 24.0954 13.6494 23.9977ZM15.4521 24.0515C15.4159 24.1055 15.3801 24.1598 15.3447 24.2145C15.3801 24.1598 15.4159 24.1055 15.4521 24.0515ZM14.1611 23.1706C14.1178 23.2351 14.0755 23.3005 14.0332 23.3659C14.0755 23.3005 14.1178 23.2351 14.1611 23.1706ZM14.4326 22.7829C14.3951 22.8345 14.359 22.887 14.3223 22.9391C14.359 22.887 14.3951 22.8344 14.4326 22.7829ZM16.5117 22.7077C16.4651 22.7581 16.4187 22.8088 16.373 22.86C16.4187 22.8088 16.4651 22.7581 16.5117 22.7077ZM35.0791 22.1022C35.2302 22.2813 35.376 22.4644 35.5166 22.6511C35.3759 22.4644 35.2302 22.2813 35.0791 22.1022ZM14.7383 22.3796C14.6884 22.4428 14.6396 22.5068 14.5908 22.571C14.6396 22.5068 14.6884 22.4427 14.7383 22.3796ZM15.0381 22.0143C14.9848 22.0768 14.9329 22.1403 14.8809 22.2038C14.9329 22.1403 14.9848 22.0768 15.0381 22.0143ZM34.8115 21.7946C34.8444 21.8311 34.8768 21.8681 34.9092 21.905C34.8082 21.7902 34.7059 21.6765 34.6006 21.5651L34.8115 21.7946ZM15.3633 21.6491C15.311 21.7057 15.2592 21.7625 15.208 21.82C15.2592 21.7625 15.311 21.7057 15.3633 21.6491ZM15.7012 21.2975C15.644 21.3547 15.5872 21.4122 15.5312 21.4704C15.5872 21.4122 15.644 21.3547 15.7012 21.2975ZM16.1074 20.9108C16.0311 20.9805 15.9552 21.0504 15.8809 21.1218C15.9552 21.0504 16.0311 20.9805 16.1074 20.9108ZM33.8193 20.8073C33.9296 20.9056 34.0381 21.0054 34.1445 21.1071C34.0381 21.0054 33.9296 20.9056 33.8193 20.8073ZM16.4844 20.5788C16.3945 20.6545 16.3051 20.7304 16.2178 20.8083C16.3051 20.7304 16.3945 20.6545 16.4844 20.5788ZM33.4521 20.4929L33.6875 20.6911H33.6885L33.4531 20.4929H33.4521ZM16.9043 20.2399C16.7993 20.3211 16.6956 20.4031 16.5938 20.487C16.6956 20.4032 16.7993 20.3211 16.9043 20.2399ZM17.8174 19.5925C17.5275 19.7794 17.2484 19.9757 16.9795 20.1804C17.2484 19.9758 17.5275 19.7794 17.8174 19.5925ZM32.4531 19.7487C32.6129 19.8557 32.7704 19.9693 32.9287 20.0866C32.7704 19.9693 32.6129 19.8557 32.4531 19.7487ZM31.0713 18.9528V18.9518V18.9528ZM32.0449 15.2839C31.7511 15.8535 31.2764 16.2207 30.9961 16.4099H30.9971C31.2772 16.2208 31.7511 15.8537 32.0449 15.2849V15.2839ZM32.3086 13.2868V13.3298L32.3164 13.5798C32.3204 13.8428 32.3145 14.1378 32.2979 14.3806C32.2788 14.656 32.2138 14.9034 32.1201 15.1237L32.1855 14.9538C32.2444 14.7783 32.2845 14.5873 32.2988 14.3806V14.3796C32.3071 14.2582 32.3124 14.1236 32.3154 13.987L32.3164 13.5807L32.3096 13.3298V13.2878L32.3105 13.2292C32.3099 13.2512 32.3088 13.2702 32.3086 13.2868ZM17.6943 13.4225C17.6961 13.5718 17.6993 13.7202 17.7041 13.864C17.6994 13.7202 17.6961 13.5718 17.6943 13.4225ZM17.6963 12.8161C17.693 12.9735 17.6924 13.136 17.6934 13.2985C17.6924 13.1359 17.693 12.9736 17.6963 12.8161ZM32.3145 12.36C32.326 12.5162 32.3264 12.667 32.3242 12.7897C32.3255 12.7329 32.3271 12.6698 32.3262 12.6032L32.3145 12.36ZM17.7725 11.9216C17.7583 11.9816 17.7476 12.0436 17.7383 12.1071C17.7476 12.0436 17.7583 11.9816 17.7725 11.9216ZM17.835 11.7077C17.8176 11.7577 17.8031 11.8093 17.7891 11.862C17.8031 11.8093 17.8176 11.7576 17.835 11.7077ZM17.9121 11.5153C17.8935 11.5561 17.8769 11.5983 17.8604 11.6413C17.8768 11.5983 17.8935 11.5561 17.9121 11.5153ZM32.1621 11.6413C32.1404 11.585 32.1168 11.5307 32.0918 11.4782C32.1168 11.5307 32.1404 11.585 32.1621 11.6413ZM18.0059 11.3327C17.985 11.3695 17.9646 11.4071 17.9453 11.446C17.9646 11.4071 17.985 11.3695 18.0059 11.3327ZM32.0752 11.446C32.0548 11.4048 32.0338 11.3647 32.0117 11.3259C32.0339 11.3647 32.0548 11.4048 32.0752 11.446ZM31.8877 11.1276C31.9182 11.1708 31.9461 11.2167 31.9746 11.2634C31.9461 11.2167 31.9181 11.1708 31.8877 11.1276ZM18.2061 11.0329C18.1894 11.0543 18.1726 11.0759 18.1562 11.0983C18.1726 11.0759 18.1894 11.0543 18.2061 11.0329ZM18.3662 10.8444C18.329 10.884 18.2917 10.926 18.2549 10.9704C18.3312 10.8785 18.4097 10.7974 18.4854 10.7263L18.3662 10.8444ZM31.7363 10.9362C31.7216 10.9191 31.7072 10.9019 31.6924 10.8854C31.7072 10.9019 31.7216 10.9191 31.7363 10.9362ZM30.6328 10.1091C30.8331 10.2092 31.0423 10.3331 31.2432 10.4821C31.1164 10.3881 30.9869 10.3032 30.8574 10.2292C30.7821 10.1862 30.7074 10.1459 30.6338 10.1091H30.6328ZM18.958 10.361C18.9054 10.395 18.8532 10.4316 18.8008 10.4694C18.8532 10.4315 18.9054 10.395 18.958 10.361ZM19.2275 10.2009C19.1645 10.2351 19.0999 10.2715 19.0352 10.3112C19.0999 10.2715 19.1645 10.2351 19.2275 10.2009ZM30.5156 9.23602C30.5156 9.22458 30.5158 9.21319 30.5156 9.20184C30.5158 9.21319 30.5156 9.22458 30.5156 9.23602ZM28.9512 9.19891C28.9507 9.19399 28.9498 9.18914 28.9492 9.18427C28.9498 9.18914 28.9507 9.19399 28.9512 9.19891ZM30.5029 9.00751C30.5016 8.99571 30.4996 8.98404 30.498 8.97235C30.4996 8.98404 30.5016 8.99571 30.5029 9.00751ZM30.4648 8.78778C30.4615 8.77333 30.4577 8.75907 30.4541 8.74481C30.4577 8.75907 30.4615 8.77333 30.4648 8.78778ZM30.4229 8.64227C30.4086 8.59651 30.393 8.55205 30.376 8.50848C30.393 8.55202 30.4086 8.59653 30.4229 8.64227ZM30.3447 8.43134C30.3222 8.37979 30.2982 8.33005 30.2725 8.28192C30.2982 8.33002 30.3222 8.37984 30.3447 8.43134ZM27.6904 8.35809C27.6511 8.34831 27.6125 8.34018 27.5752 8.33173C27.6125 8.34019 27.6511 8.3483 27.6904 8.35809ZM30.2559 8.24969C30.2229 8.19032 30.1881 8.13361 30.1514 8.07977C30.1881 8.13357 30.2228 8.19037 30.2559 8.24969ZM29.5127 7.44794C29.6412 7.53668 29.7706 7.64082 29.8916 7.76337C29.9813 7.85428 30.0699 7.96029 30.1514 8.07977C30.11 8.01911 30.0678 7.9613 30.0234 7.9079L29.8916 7.76337C29.7303 7.60003 29.5544 7.46887 29.3848 7.36395L29.5127 7.44794ZM28.915 7.12177C28.9834 7.15126 29.0586 7.18513 29.1377 7.22528L28.915 7.12079C28.8962 7.11265 28.8764 7.10617 28.8574 7.09833C28.8764 7.10621 28.8961 7.11359 28.915 7.12177ZM28.6328 7.01141C28.6083 7.00272 28.5839 6.99427 28.5596 6.98602C28.5839 6.99429 28.6084 7.00271 28.6328 7.01141ZM28.4141 6.94012C28.3267 6.91318 28.2414 6.88849 28.1592 6.86688C28.2414 6.88858 28.3267 6.91309 28.4141 6.94012ZM27.4941 6.72235C27.6164 6.74303 27.8118 6.78014 28.042 6.83661C27.9355 6.81061 27.8368 6.78797 27.749 6.7702L27.4951 6.72235C27.3667 6.70063 27.2377 6.68084 27.1084 6.66278L27.4941 6.72235ZM25.9395 6.54755H25.9404H25.9395ZM24.3818 6.52997V6.53094V6.52997Z" fill="white" fill-opacity="0.3"/>
</g>
</g>
</g>
</svg>
