<svg width="50" height="50" viewBox="0 0 50 50" fill="none" xmlns="http://www.w3.org/2000/svg">
<rect width="50" height="50" fill="#BEBEBE"/>
<g id="Decorate Mode">
<path d="M-354.703 -949.034V-948.034H2665.3V-949.034V-950.034H-354.703V-949.034ZM2667.3 -947.034H2666.3V2590.97H2667.3H2668.3V-947.034H2667.3ZM2665.3 2592.97V2591.97H-354.703V2592.97V2593.97H2665.3V2592.97ZM-356.703 2590.97H-355.703V-947.034H-356.703H-357.703V2590.97H-356.703ZM-354.703 2592.97V2591.97C-355.255 2591.97 -355.703 2591.52 -355.703 2590.97H-356.703H-357.703C-357.703 2592.62 -356.36 2593.97 -354.703 2593.97V2592.97ZM2667.3 2590.97H2666.3C2666.3 2591.52 2665.85 2591.97 2665.3 2591.97V2592.97V2593.97C2666.95 2593.97 2668.3 2592.62 2668.3 2590.97H2667.3ZM2665.3 -949.034V-948.034C2665.85 -948.034 2666.3 -947.587 2666.3 -947.034H2667.3H2668.3C2668.3 -948.691 2666.95 -950.034 2665.3 -950.034V-949.034ZM-354.703 -949.034V-950.034C-356.359 -950.034 -357.703 -948.691 -357.703 -947.034H-356.703H-355.703C-355.703 -947.587 -355.255 -948.034 -354.703 -948.034V-949.034Z" fill="black" fill-opacity="0.1"/>
<g id="Stickers">
<rect x="-302.694" y="-76.5342" width="374" height="551" rx="4.5" stroke="#9747FF" stroke-dasharray="10 5"/>
<g id="Property 1=rose">
<g id="Frame 126">
<path id="Vector" d="M24.5446 12.6576C24.7424 12.631 25.1824 12.6412 25.3768 12.6549C26.599 12.7416 27.4416 13.1284 28.4351 13.7934C28.814 13.629 29.2124 13.5144 29.6206 13.4524C32.4187 13.0058 34.6896 14.7222 35.1137 17.5046C35.5837 17.5032 36.0513 17.5721 36.5008 17.7089C37.6843 18.0667 38.4873 18.7419 39.1918 19.7379C39.3289 19.9318 39.5294 20.1773 39.6377 20.381C39.5385 20.7897 39.3799 21.2992 39.3829 21.7144C39.3897 22.7839 39.5722 23.6345 39.3597 24.712C39.0084 26.4961 38.0759 27.5734 36.6158 28.5642C36.9168 29.75 36.8445 30.8525 36.3986 31.995C36.1685 32.4997 36.0293 32.8947 35.8534 33.4302C35.7552 33.729 35.8075 34.6937 35.6489 34.8485C35.5617 34.9338 34.8819 34.9675 34.7006 34.9841C33.9123 35.0554 33.284 35.4104 32.5951 35.7614C31.1308 36.5063 29.8871 36.732 28.2568 36.4782C27.4027 36.9577 26.4551 37.2472 25.479 37.3268C24.1706 37.4746 22.8514 37.1016 21.709 36.4806C20.1337 36.73 18.9268 36.5502 17.4953 35.8196C17.0085 35.5709 16.4577 35.2668 15.9395 35.1119C15.6394 35.0296 15.3276 34.9787 15.0186 34.9497C14.9036 34.9389 14.3512 34.9499 14.3087 34.8334C14.1668 34.4442 14.2671 33.9921 14.1573 33.5719C14.0289 33.0809 13.8439 32.6316 13.6447 32.1665C13.0897 30.8872 13.0256 29.8836 13.3427 28.5422C13.2649 28.4914 13.1875 28.4399 13.1105 28.3876C11.3741 27.2062 10.4825 25.6225 10.4843 23.4932C10.4849 22.8283 10.6158 22.1982 10.5681 21.526C10.5358 21.0696 10.4158 20.8014 10.3364 20.3808C10.4838 20.0864 11.1461 19.2577 11.3705 19.0192C12.3082 18.0228 13.4856 17.5448 14.8427 17.5069C14.8895 17.1509 14.9737 16.801 15.0939 16.4627C15.511 15.293 16.3772 14.3379 17.5007 13.8089C18.8424 13.1826 20.2271 13.3026 21.5797 13.7917C22.5072 13.1111 23.4022 12.7615 24.5446 12.6576Z" fill="#020101"/>
<path id="Vector (Stroke)" d="M24.403 11.1016C24.7694 11.0628 25.291 11.0816 25.4877 11.0955C26.7522 11.1851 27.7113 11.5411 28.628 12.0708C28.8733 12.0021 29.1226 11.9484 29.3749 11.9096V11.909C29.3761 11.9088 29.3774 11.9092 29.3786 11.909C29.3813 11.9086 29.3839 11.9075 29.3865 11.9071V11.9078C32.6339 11.3947 35.3911 13.1557 36.3683 16.0655C36.5663 16.1054 36.7627 16.1544 36.9564 16.2133H36.9558C38.5399 16.6928 39.6094 17.6204 40.4687 18.8352L40.4693 18.8358C40.495 18.8721 40.8501 19.3301 41.0189 19.648L41.2974 20.1726L41.1576 20.7498C41.0845 21.0507 41.0509 21.1527 40.9982 21.388C40.9763 21.4855 40.9634 21.5574 40.956 21.6084L40.9469 21.7037V21.7049C40.9502 22.2229 40.9905 22.5324 41.0159 23.1456C41.0384 23.6902 41.0337 24.3083 40.8943 25.015C40.5184 26.9237 39.5895 28.2065 38.322 29.2425C38.4408 30.3685 38.2844 31.464 37.8554 32.5636L37.8395 32.6045L37.8218 32.6436C37.6369 33.049 37.5207 33.369 37.3656 33.8381C37.3642 33.851 37.3624 33.8674 37.3607 33.8876C37.3511 34.0019 37.3461 34.1112 37.3345 34.2931C37.3249 34.442 37.31 34.6543 37.2777 34.8538C37.2616 34.9531 37.2343 35.0964 37.183 35.2501C37.144 35.3669 37.0308 35.685 36.7421 35.9671L36.7414 35.9665C36.5774 36.1268 36.415 36.2174 36.3286 36.2609C36.2318 36.3095 36.1456 36.3418 36.0861 36.3616C35.9689 36.4007 35.8614 36.424 35.7899 36.438C35.6424 36.4668 35.489 36.4851 35.3722 36.4972C35.2482 36.5101 35.1259 36.52 35.0308 36.5271C34.9186 36.5356 34.8727 36.5385 34.8439 36.5412H34.8421C34.4197 36.5794 34.0895 36.7554 33.3055 37.155H33.3043C31.7226 37.9595 30.2772 38.2713 28.5425 38.09C27.6362 38.5244 26.6582 38.7925 25.6544 38.8802C25.6406 38.8818 25.6267 38.883 25.6129 38.8845C25.6108 38.8847 25.6088 38.885 25.6068 38.8851L25.6062 38.8845C24.1066 39.0427 22.6637 38.6777 21.4337 38.093C19.7711 38.2749 18.3565 38.0145 16.7849 37.2124H16.7843C16.2216 36.9249 15.846 36.719 15.5073 36.6151C15.3667 36.5776 15.2133 36.5481 15.0486 36.5265L14.8727 36.5064C14.9057 36.5094 14.932 36.5103 14.8135 36.5064C14.7401 36.5039 14.6264 36.4992 14.5069 36.4893C14.4025 36.4806 14.2191 36.4622 14.0275 36.4123C13.9351 36.3882 13.7665 36.3381 13.5829 36.2352C13.436 36.1529 13.0808 35.9269 12.8787 35.4651L12.8403 35.3692C12.6718 34.9071 12.6647 34.457 12.6589 34.2614C12.655 34.1323 12.6538 34.0726 12.6491 34.0116C12.6474 33.9895 12.6459 33.9753 12.6448 33.9676V33.967C12.5491 33.6008 12.407 33.2468 12.2106 32.7883C11.6676 31.5361 11.4989 30.4405 11.6347 29.2382C9.87279 27.8168 8.91923 25.9055 8.92127 23.4919C8.92164 23.0779 8.96316 22.668 8.98662 22.3841C9.01261 22.0696 9.024 21.845 9.00922 21.6365C9.00186 21.5329 8.9855 21.4483 8.95303 21.3177C8.9253 21.2063 8.85111 20.9398 8.80035 20.671L8.70264 20.1531L8.93899 19.681C9.09352 19.3724 9.39713 18.9696 9.58879 18.7222C9.80902 18.4378 10.0677 18.1229 10.2325 17.9478L10.4707 17.7072C11.3691 16.8435 12.425 16.3158 13.5744 16.0826C13.5901 16.035 13.6046 15.987 13.6214 15.9397L13.622 15.9379C14.1788 14.3762 15.335 13.1008 16.835 12.3945L16.8399 12.3927C18.3856 11.6712 19.9324 11.707 21.3354 12.08C22.2708 11.5227 23.2488 11.2061 24.403 11.101V11.1016ZM25.3771 12.6553C25.1827 12.6415 24.7433 12.6312 24.5453 12.6577C23.403 12.7617 22.5078 13.1112 21.5803 13.7918L21.3262 13.7045C20.0547 13.2906 18.7591 13.2219 17.5013 13.8089C16.3778 14.3379 15.5115 15.2934 15.0944 16.4631C14.9743 16.8012 14.8902 17.1511 14.8434 17.5068C13.4863 17.5448 12.3085 18.0231 11.3709 19.0196L11.2683 19.1344C10.9892 19.4568 10.466 20.1232 10.3369 20.3809C10.4163 20.8014 10.536 21.0697 10.5684 21.526C10.616 22.1982 10.4853 22.8288 10.4847 23.4937L10.4872 23.6916C10.5395 25.7214 11.4287 27.2436 13.1108 28.3881L13.3435 28.5426C13.0264 29.8839 13.0903 30.8873 13.6452 32.1666C13.8444 32.6316 14.0292 33.0809 14.1576 33.5719C14.2674 33.992 14.1672 34.4445 14.3091 34.8336C14.3516 34.9501 14.9044 34.9389 15.0193 34.9496C15.3283 34.9787 15.6403 35.0298 15.9403 35.1121C16.4584 35.267 17.0091 35.5713 17.4958 35.8199C18.9272 36.5506 20.1345 36.7301 21.7098 36.4807C22.8521 37.1016 24.1714 37.475 25.4797 37.3272C26.4558 37.2475 27.4034 36.9578 28.2573 36.4783C29.7858 36.7162 30.9743 36.5327 32.3235 35.895L32.5959 35.7619C33.2416 35.4328 33.834 35.1 34.5551 35.0009L34.701 34.9844C34.8823 34.9678 35.5622 34.9341 35.6495 34.8489C35.808 34.694 35.7559 33.7289 35.8541 33.4302C35.9859 33.0287 36.0974 32.7062 36.2419 32.3571L36.3994 31.995C36.8451 30.8526 36.9172 29.7502 36.6162 28.5646C38.0764 27.5737 39.0089 26.4962 39.3602 24.7121C39.5461 23.7693 39.4298 23.0002 39.3932 22.1062L39.3834 21.7147C39.3812 21.4032 39.4699 21.0386 39.5563 20.7034L39.6381 20.3815C39.5299 20.1777 39.3293 19.9318 39.1923 19.7378C38.5318 18.8042 37.7848 18.1525 36.7188 17.7798L36.5014 17.709C36.052 17.5722 35.5844 17.5037 35.1145 17.505C34.6904 14.7226 32.4191 13.0063 29.621 13.4529L29.4684 13.4785C29.1135 13.5442 28.7671 13.6498 28.4356 13.7937L28.0692 13.5573C27.2858 13.0737 26.5582 12.7756 25.6019 12.6748L25.3771 12.6553Z" fill="#E8E7E7"/>
<path id="Vector (Stroke) (Stroke)" d="M25.5523 10.1793L26.0712 10.2319C27.1026 10.3664 27.9576 10.6727 28.7534 11.0928C28.907 11.0585 29.0618 11.0298 29.2174 11.0055C29.2216 11.0048 29.2262 11.0026 29.2305 11.002V11.0032H29.2341V11.002H29.2389C29.2421 11.0014 29.2451 11.0001 29.2484 10.9996C29.2515 10.9991 29.2549 11 29.258 10.9996C32.7602 10.4527 35.8014 12.2509 37.0546 15.2877C37.1107 15.3032 37.1673 15.3173 37.2232 15.3343C37.2246 15.3347 37.2265 15.3351 37.228 15.3355C39.0438 15.8867 40.2683 16.9616 41.2171 18.3023C41.2179 18.3034 41.2187 18.3047 41.2195 18.3058C41.2224 18.3094 41.2356 18.3277 41.2781 18.3848C41.3201 18.4411 41.3768 18.5172 41.4383 18.6036C41.5548 18.767 41.7151 19.0019 41.8294 19.217L42.108 19.742C42.2133 19.9404 42.2422 20.1706 42.1893 20.3889L42.0494 20.9665C41.9593 21.3377 41.9488 21.3449 41.8939 21.5895C41.8774 21.6634 41.8689 21.7099 41.8652 21.7342C41.8699 22.2204 41.905 22.4229 41.9334 23.1081C41.9574 23.6893 41.9535 24.3871 41.7947 25.1924C41.409 27.1504 40.4924 28.5361 39.2704 29.636C39.318 30.7441 39.1286 31.8259 38.7107 32.8969L38.6952 32.9363C38.6891 32.9519 38.683 32.9678 38.6761 32.983L38.6581 33.0224L38.6569 33.0248C38.5041 33.3601 38.4045 33.6295 38.2719 34.0257C38.2662 34.1054 38.2607 34.1905 38.2504 34.3522C38.2408 34.5019 38.2234 34.7531 38.1834 35.0003C38.1635 35.1229 38.1276 35.3208 38.0543 35.5408C37.9999 35.7038 37.8292 36.1886 37.3834 36.6242C37.3588 36.6482 37.3322 36.6692 37.3057 36.6899C37.0769 36.8962 36.8627 37.0199 36.7413 37.081C36.5954 37.1543 36.4659 37.203 36.3766 37.2328C36.2061 37.2897 36.0554 37.3218 35.9664 37.3393C35.7782 37.376 35.5918 37.398 35.4666 37.411C35.33 37.4252 35.1978 37.4359 35.0995 37.4433C34.9715 37.4529 34.9466 37.4535 34.9273 37.4552H34.9237C34.7204 37.4738 34.574 37.5388 33.7219 37.973C33.7186 37.9747 33.7145 37.975 33.7111 37.9766C32.0679 38.811 30.5159 39.1711 28.6996 39.0253C27.7682 39.4398 26.7745 39.7004 25.7555 39.7918L25.7567 39.793C25.7436 39.7945 25.7317 39.7959 25.7245 39.7966C25.7157 39.7975 25.7129 39.7975 25.7101 39.7978H25.7065C25.7052 39.7979 25.7036 39.7988 25.7017 39.799C25.6986 39.7993 25.6938 39.7997 25.6886 39.8002C25.6898 39.8001 25.691 39.7991 25.6922 39.799C25.689 39.7993 25.6854 39.7999 25.6814 39.8002C25.6771 39.8005 25.6725 39.7999 25.6682 39.8002C24.0735 39.9612 22.5639 39.5994 21.2809 39.0289C19.5405 39.1778 18.013 38.871 16.3662 38.0304C15.7532 37.7172 15.48 37.5686 15.2421 37.4947C15.1522 37.4721 15.0477 37.4529 14.9289 37.4373V37.4361L14.8248 37.4242C14.8077 37.4236 14.7926 37.4245 14.783 37.4242C14.7035 37.4215 14.5719 37.4168 14.4302 37.405C14.3106 37.395 14.0642 37.3711 13.7952 37.301C13.6641 37.2668 13.4125 37.1928 13.134 37.0367C12.9134 36.9131 12.3561 36.5615 12.0374 35.8338C12.0337 35.8252 12.0301 35.8161 12.0267 35.8074L11.9872 35.7118C11.9836 35.7029 11.9809 35.6933 11.9776 35.6843C11.7525 35.0667 11.7465 34.4781 11.7409 34.2888C11.7382 34.2007 11.736 34.1556 11.7349 34.1262C11.6582 33.8557 11.5459 33.5701 11.3678 33.154L11.1609 32.6386C10.7828 31.6148 10.6285 30.6475 10.6802 29.63C8.94401 28.069 8.00069 26.0067 8.00283 23.4908C8.00325 23.0291 8.04937 22.5697 8.07099 22.3082C8.09657 21.9986 8.10189 21.8345 8.09251 21.7019C8.09049 21.6734 8.08793 21.6458 8.06142 21.5393C8.04186 21.4607 7.95481 21.1439 7.8976 20.8409L7.79954 20.3231C7.76238 20.1258 7.791 19.9216 7.88086 19.742L8.11763 19.2697C8.31918 18.8672 8.68088 18.3946 8.8626 18.16C9.08758 17.8695 9.36757 17.5261 9.56334 17.3181C9.5686 17.3125 9.57467 17.3068 9.58008 17.3014L9.81804 17.061L9.83359 17.0455C10.7278 16.1859 11.7629 15.6141 12.8805 15.3044C13.5131 13.7702 14.6614 12.5038 16.1258 11.723L16.4511 11.5604C18.0989 10.7913 19.7375 10.7767 21.2008 11.1024C22.1586 10.5894 23.1688 10.2912 24.3194 10.1864C24.3353 10.185 24.3514 10.1858 24.3672 10.1852C24.5758 10.1665 24.8081 10.1585 25.0165 10.1601L25.5523 10.1793ZM24.6997 11.0821L24.4031 11.1012L23.9774 11.1502C23.0044 11.2889 22.1531 11.593 21.3347 12.0806L20.8026 11.9562C19.5456 11.7094 18.1922 11.7614 16.8397 12.3927L16.5575 12.5338C15.1926 13.2616 14.1439 14.4742 13.6219 15.9382L13.6207 15.9394C13.6039 15.9866 13.5897 16.0353 13.574 16.0829C12.4249 16.316 11.3693 16.8434 10.4709 17.7068L10.2318 17.9483C10.0669 18.1235 9.80845 18.4379 9.58845 18.722C9.39682 18.9694 9.0937 19.3724 8.93913 19.681L8.70237 20.1533L8.80042 20.6711C8.85118 20.9399 8.92457 21.2066 8.95229 21.318C8.98468 21.4483 9.00112 21.5328 9.00849 21.6361C9.02326 21.8445 9.01172 22.0693 8.98577 22.3835C8.9623 22.6674 8.92156 23.078 8.9212 23.492L8.93196 23.938C9.04135 26.1421 9.98263 27.9051 11.6344 29.2378C11.4986 30.4401 11.6678 31.5359 12.2108 32.7881C12.3581 33.1321 12.474 33.4177 12.5636 33.6933L12.6449 33.9671C12.6459 33.9748 12.6468 33.9894 12.6485 34.0114C12.6532 34.0724 12.6542 34.1323 12.658 34.2613C12.6639 34.4569 12.6714 34.9077 12.8398 35.3698L12.8781 35.4654C13.0802 35.9271 13.4355 36.1532 13.5824 36.2355C13.766 36.3384 13.9348 36.3884 14.0272 36.4125C14.2188 36.4624 14.4024 36.4803 14.5067 36.489C14.626 36.499 14.7394 36.5033 14.8129 36.5058C14.9312 36.5098 14.9055 36.5089 14.8726 36.5058L15.0484 36.5261C15.2131 36.5477 15.3671 36.5771 15.5076 36.6146C15.6768 36.6666 15.8549 36.7451 16.0613 36.8454L16.7835 37.2125H16.7847C18.3562 38.0146 19.7714 38.2744 21.434 38.0926C22.6639 38.6773 24.1066 39.0424 25.6061 38.8842V38.8854C25.6079 38.8853 25.6102 38.8844 25.612 38.8842C25.6258 38.8828 25.6402 38.8822 25.6539 38.8806C26.6575 38.7929 27.6356 38.5245 28.5417 38.0902C30.2764 38.2716 31.7228 37.9597 33.3046 37.1551H33.3058C34.0895 36.7557 34.42 36.5799 34.8424 36.5417H34.8436L35.0301 36.5273L35.3721 36.4974C35.4889 36.4853 35.642 36.4664 35.7894 36.4376C35.8252 36.4306 35.8703 36.4214 35.921 36.4089L36.086 36.3611C36.1158 36.3511 36.1524 36.3383 36.1936 36.3216L36.3287 36.2606C36.4153 36.2171 36.5775 36.1265 36.7413 35.9665V35.9677C37.0299 35.6857 37.1435 35.3671 37.1825 35.2502C37.2338 35.0965 37.2609 34.9526 37.277 34.8532C37.2931 34.7536 37.3051 34.6508 37.3141 34.5543L37.3344 34.2936L37.3607 33.887C37.3624 33.8671 37.3641 33.8507 37.3655 33.838C37.5206 33.369 37.6362 33.0488 37.8211 32.6434L37.839 32.6039L37.8546 32.5633C38.2836 31.4638 38.4409 30.3685 38.3221 29.2426C39.5103 28.2714 40.4013 27.0831 40.8177 25.3658L40.8943 25.0154C41.0336 24.3087 41.0376 23.6898 41.015 23.1452C40.9897 22.5324 40.9502 22.223 40.9469 21.7055V21.7043L40.9552 21.6086L40.9983 21.3874L41.1573 20.75L41.2972 20.1725L41.0186 19.6475C40.8497 19.3296 40.4942 18.8719 40.4686 18.8356C39.6093 17.6208 38.5394 16.6927 36.9553 16.2132H36.9565C36.7629 16.1543 36.5661 16.106 36.3682 16.0661C35.391 13.1563 32.6333 11.3941 29.386 11.9072L29.3788 11.9096H29.3752C29.1229 11.9483 28.8731 12.0023 28.6278 12.071C27.7112 11.5413 26.752 11.1849 25.4877 11.0952C25.3403 11.0848 25.01 11.0717 24.6997 11.0821ZM25.3765 12.6557L25.6013 12.6749C26.5576 12.7756 27.286 13.0737 28.0694 13.5574L28.4353 13.7941C28.7668 13.6503 29.1136 13.5441 29.4685 13.4784L29.6203 13.4533C32.4183 13.0067 34.6896 14.7225 35.1138 17.5047C35.5837 17.5034 36.0516 17.5724 36.5009 17.7091L36.7186 17.7797C37.7842 18.1523 38.5311 18.8039 39.1914 19.7372C39.3285 19.9312 39.5293 20.178 39.6375 20.3817L39.5562 20.7034C39.4698 21.0386 39.3806 21.4035 39.3828 21.715L39.3923 22.1061C39.4289 23 39.5459 23.769 39.3601 24.7117L39.2871 25.0382C38.8899 26.6303 37.9847 27.6356 36.6157 28.5645C36.9166 29.7502 36.845 30.8529 36.3993 31.9953L36.2414 32.3576L36.0429 32.8742C35.9805 33.0485 35.9199 33.2295 35.854 33.4302L35.8229 33.5701C35.7649 33.9566 35.7879 34.7118 35.6495 34.8484L35.5909 34.8783C35.4001 34.9421 34.8605 34.9702 34.7013 34.9847L34.5554 35.0015C33.8343 35.1005 33.2412 35.4329 32.5955 35.762L32.3228 35.8947C30.9738 36.5323 29.7855 36.7162 28.2571 36.4783C27.4032 36.9578 26.4554 37.2476 25.4793 37.3273L25.2342 37.3488C24.007 37.4273 22.78 37.0628 21.709 36.4807C20.134 36.73 18.9263 36.55 17.495 35.8194C17.0693 35.6019 16.5944 35.3426 16.1354 35.1773L15.9405 35.1115C15.6405 35.0292 15.3275 34.9791 15.0185 34.9501C14.9099 34.9401 14.4192 34.9488 14.3226 34.8544L14.3082 34.8341C14.1841 34.4935 14.2463 34.1038 14.1899 33.7304L14.1576 33.5713C14.0292 33.0806 13.8437 32.6312 13.6446 32.1663C13.1592 31.047 13.0502 30.1389 13.2428 29.0309L13.3432 28.543L13.1101 28.3876C11.4283 27.2432 10.5388 25.7212 10.4865 23.6917L10.4841 23.4932C10.4846 22.9115 10.5855 22.356 10.5786 21.776L10.5678 21.5261C10.5354 21.0698 10.4164 20.8011 10.337 20.3805C10.4664 20.1225 10.9896 19.4567 11.2685 19.1345L11.3702 19.0197C12.3077 18.0234 13.4858 17.5451 14.8428 17.5071C14.8895 17.1513 14.9738 16.8012 15.0939 16.4631C15.5109 15.2934 16.3775 14.3375 17.501 13.8085C18.7588 13.2215 20.0549 13.2905 21.3263 13.7044L21.5798 13.7917C22.3915 13.1962 23.1786 12.8542 24.1281 12.7083L24.5454 12.6581C24.7434 12.6317 25.1819 12.642 25.3765 12.6557ZM24.7642 13.5621C24.7365 13.5631 24.7129 13.5644 24.6949 13.5657C24.686 13.5664 24.6784 13.5664 24.6734 13.5669C24.6701 13.5672 24.6682 13.568 24.6674 13.5681C24.6545 13.5698 24.6408 13.5705 24.6279 13.5717C23.6586 13.66 22.9216 13.9467 22.1239 14.5319C21.8813 14.71 21.5655 14.7577 21.2809 14.6599L21.0417 14.5774L20.6244 14.4566C19.6596 14.2121 18.7531 14.2379 17.8896 14.6407C16.9886 15.0658 16.2943 15.833 15.9596 16.7716C15.8613 17.0486 15.7923 17.3351 15.7539 17.6266C15.6951 18.0739 15.32 18.4127 14.8691 18.4254C13.7329 18.4572 12.7946 18.8468 12.0398 19.6487L11.9621 19.736L11.7373 20.0063C11.6532 20.1104 11.5625 20.2245 11.4766 20.3375C11.4197 20.4124 11.3672 20.4847 11.32 20.5503C11.3329 20.6005 11.3461 20.6559 11.3618 20.719C11.4124 20.9225 11.4624 21.1607 11.4838 21.4615C11.5129 21.8723 11.4871 22.2574 11.4599 22.588C11.4311 22.9366 11.4027 23.2099 11.4025 23.4944L11.4049 23.6678C11.449 25.3819 12.1725 26.6387 13.6266 27.6282H13.6254L13.8514 27.7777C14.1715 27.9903 14.3248 28.3795 14.2365 28.7535C13.9964 29.7692 14.0077 30.5092 14.3298 31.4057L14.4876 31.8015L14.4888 31.8051C14.689 32.2725 14.8988 32.7764 15.046 33.3393C15.1126 33.5941 15.1258 33.8513 15.1321 34.0377C15.3861 34.0625 15.6481 34.1018 15.9106 34.1596L16.1832 34.2266L16.2036 34.2326C16.8242 34.4182 17.4756 34.7783 17.9123 35.0015H17.9135C19.1677 35.6416 20.1775 35.7928 21.5655 35.5731C21.7652 35.5415 21.9702 35.577 22.1478 35.6735C23.176 36.2324 24.3059 36.5358 25.3765 36.4149L25.4052 36.4113C26.2492 36.3424 27.0688 36.0919 27.8075 35.6771L27.9474 35.6137C28.091 35.5623 28.246 35.547 28.3982 35.5707C29.7398 35.7795 30.7406 35.6247 31.921 35.0684L32.1925 34.9369C32.7825 34.6356 33.5271 34.2155 34.4298 34.0915L34.4513 34.0879L34.5972 34.0724L34.6164 34.07C34.6713 34.0649 34.766 34.0579 34.8436 34.052C34.8498 34.0516 34.8564 34.0501 34.8627 34.0496C34.8697 33.9331 34.8779 33.7958 34.8878 33.6789C34.8986 33.5512 34.9186 33.3333 34.9811 33.1432C35.1151 32.7352 35.2359 32.3871 35.3936 32.006L35.3996 31.9905L35.5431 31.658C35.9192 30.6927 35.979 29.7873 35.726 28.7905C35.631 28.416 35.7806 28.0223 36.1003 27.8052C37.4261 26.9056 38.1673 26.0133 38.4584 24.5347C38.6166 23.7327 38.5161 23.1436 38.4752 22.1431V22.1288L38.4656 21.7378L38.4644 21.721C38.4615 21.3036 38.5674 20.8608 38.6474 20.548L38.4417 20.2681C37.864 19.4516 37.2609 18.9421 36.416 18.6466H36.4148L36.2343 18.5881L35.9604 18.5151C35.6842 18.4532 35.4005 18.4222 35.1162 18.423C34.6617 18.424 34.2747 18.0927 34.2062 17.6434C33.8571 15.3532 32.0502 13.9989 29.7734 14.3585L29.6347 14.3813C29.3482 14.4343 29.0687 14.5199 28.8012 14.636C28.5198 14.7581 28.1957 14.7316 27.9379 14.5654L27.5708 14.3286H27.5696C26.8825 13.9066 26.289 13.671 25.5056 13.5885V13.5873L25.3119 13.5717L24.9568 13.5598C24.8863 13.5593 24.8201 13.5602 24.7642 13.5621ZM29.148 11.0199C29.1452 11.0206 29.142 11.0211 29.142 11.0211H29.1444C29.1455 11.0208 29.1472 11.0204 29.1492 11.0199C29.1527 11.019 29.1585 11.0179 29.1647 11.0163C29.1575 11.018 29.1516 11.019 29.148 11.0199ZM29.1839 11.0127C29.1912 11.0111 29.1996 11.0098 29.209 11.0079C29.2114 11.0075 29.2137 11.006 29.2162 11.0055C29.2039 11.0078 29.1931 11.0107 29.1839 11.0127ZM29.2341 11.002V11.0032L29.2353 11.002V11.0032L29.2377 11.002H29.2341Z" fill="#020101"/>
<path id="Vector_2" d="M19.3104 14.0741C19.9638 14.0495 20.4161 14.1499 21.0311 14.3217C20.2695 15.1611 20.1452 15.5077 19.654 16.462C19.5153 16.5501 19.2824 16.6625 19.1302 16.7477C18.7902 16.9355 18.4733 17.1625 18.186 17.4239C17.3493 18.1881 16.8456 19.2501 16.7833 20.3816C16.6389 23.5466 19.3703 25.6967 22.0551 26.6966C24.0054 27.4229 25.9027 27.7561 27.3674 29.362C27.2734 29.3205 27.1708 29.2841 27.0741 29.2479C25.2453 28.6812 23.0073 29.7221 21.0652 28.689C19.8973 28.0678 19.4868 27.4395 19.0618 26.2214C18.8783 26.1538 18.5001 26.0993 18.285 26.0456C17.5423 25.855 16.74 25.4588 16.1631 24.9475C14.9602 23.904 14.5333 21.8497 15.1304 20.3882C15.5194 19.4363 15.4656 19.1544 15.482 18.1471C15.4891 17.1187 15.8667 16.1272 16.5455 15.3546C17.2885 14.5247 18.2102 14.136 19.3104 14.0741Z" fill="#F4A261"/>
<path id="Vector_3" d="M16.311 25.91C16.9903 26.3695 17.7433 26.615 18.5267 26.8286C18.7442 27.2475 18.8167 27.4989 19.1205 27.922C19.588 28.5747 20.2232 29.0887 20.9589 29.41C21.821 29.7864 22.7771 29.9063 23.7131 29.8682C24.891 29.8204 26.2107 29.5133 27.319 30.0431C27.5933 30.1741 27.9041 30.4069 27.9801 30.7083C28.1779 31.493 27.8486 32.2757 27.4881 32.9365C27.3996 33.0838 27.351 33.1593 27.2452 33.2939C26.9399 33.4327 26.3074 33.5511 25.9566 33.5944C23.6918 33.8743 21.4045 33.2162 19.6095 31.8123C18.2271 30.7308 17.1142 29.1312 16.6023 27.4483C16.4492 26.9451 16.3767 26.4282 16.311 25.91Z" fill="#E76F51"/>
<path id="Vector_4" d="M35.9415 28.8934L35.9804 28.9303C36.0549 29.1407 36.0901 29.4651 36.1108 29.6866C36.2278 30.9489 35.6447 31.8496 35.2739 32.9811C35.132 33.4142 35.0802 33.7885 35.0548 34.2453C34.4724 34.3159 34.1111 34.3516 33.5419 34.5636C32.6234 34.9059 31.9049 35.4291 30.9436 35.6868C29.3668 36.1095 28.0718 35.8833 26.6715 35.0962C26.2728 34.8582 25.9944 34.6354 25.644 34.3394C25.8663 34.3135 26.0933 34.2881 26.3134 34.2529C28.7438 33.8627 30.9891 32.5929 32.4892 30.6284C32.7362 30.3049 32.9404 29.949 33.1464 29.5977C34.2237 29.5061 34.9502 29.3029 35.9415 28.8934Z" fill="#E76F51"/>
<path id="Vector_5" d="M13.9917 28.8763C14.7741 29.2806 15.9481 29.512 16.8132 29.6244C18.4627 32.4517 21.1281 34.0396 24.3604 34.3494C24.013 34.6296 23.7659 34.8086 23.3847 35.0427C21.6784 36.0237 20.0464 36.1864 18.1984 35.3922C17.8161 35.2278 17.4268 34.9853 17.045 34.8047C16.319 34.4615 15.6948 34.3049 14.9068 34.2368C14.8471 32.0777 13.3647 31.3901 13.9917 28.8763Z" fill="#E76F51"/>
<path id="Vector_6" d="M14.6951 18.2025L14.7564 18.2093C14.8423 18.3456 14.7961 19.1995 14.7487 19.3895C14.6609 19.7409 14.4883 20.0963 14.3896 20.452C14.2994 20.7685 14.2387 21.0927 14.2085 21.4204C14.0661 23.0365 14.5915 24.1902 15.5914 25.3925C15.6681 26.8011 15.8837 27.5877 16.4283 28.8721C15.5686 28.72 14.9095 28.5389 14.1124 28.1706C13.981 28.1051 13.8519 28.0355 13.7251 27.9617C12.0955 26.9997 11.1322 25.4062 11.1745 23.5144C11.2026 22.2621 11.4074 21.8571 11.0728 20.546C12.011 19.1135 12.919 18.3256 14.6951 18.2025Z" fill="#E76F51"/>
<path id="Vector_7" d="M35.1589 18.1976C35.4753 18.1989 35.7904 18.2363 36.0982 18.309C37.4022 18.6215 38.2045 19.4332 38.8797 20.5387C38.6708 21.4246 38.6909 22.0651 38.7639 22.9629C38.9496 25.2467 37.9739 27.0092 35.9761 28.1102C35.2127 28.4869 34.3943 28.7388 33.5513 28.8563C34.0425 27.7062 34.3821 26.6567 34.374 25.3881C34.634 25.0886 34.8426 24.8468 35.0546 24.5048C35.7626 23.3428 35.9678 21.9431 35.6233 20.6269C35.5173 20.2119 35.3668 19.8921 35.2417 19.494C35.1264 19.1269 35.1521 18.5864 35.1589 18.1976Z" fill="#E76F51"/>
<path id="Vector_8" d="M30.2397 14.0738C31.209 13.9971 32.2759 14.3362 33.0175 14.9584C33.9131 15.7098 34.4344 16.8303 34.4686 17.994C34.481 18.4257 34.4476 19.0299 34.538 19.4328C34.7077 20.1895 35.0317 20.7005 35.0891 21.5169C35.1665 22.621 34.8768 23.7331 34.1515 24.5819C32.9174 26.0266 30.8451 26.3923 29.0527 26.5421C28.8026 26.5697 28.5368 26.5841 28.2847 26.6022C29.8633 25.8911 31.4218 24.8978 32.3621 23.4041C33.0539 22.3052 33.3485 20.8818 33.0493 19.6084C32.806 18.6052 32.216 17.7201 31.3835 17.1097C31.0976 16.901 30.8416 16.7769 30.5475 16.5947C30.111 15.6327 29.7558 15.0719 29.0087 14.3082C29.4643 14.1815 29.7675 14.1069 30.2397 14.0738Z" fill="#F4A261"/>
<path id="Vector_9" d="M29.8974 20.8051C29.9113 20.8199 30.0608 21.6283 30.1014 21.7658C30.3364 22.5612 30.7666 23.2324 30.9124 24.053C29.8898 25.2052 27.8178 26.1195 26.3691 26.5644C25.8764 26.7156 25.3707 26.7945 24.8968 26.9342C24.6877 26.8631 24.4781 26.7935 24.2681 26.7254C23.9133 26.6071 23.5494 26.4899 23.2002 26.3575C23.1574 26.215 23.1169 26.0782 23.0813 25.9334C22.7811 24.7105 23.4588 23.4381 24.3823 22.6586C26.3997 22.7107 28.363 22.1503 29.8974 20.8051Z" fill="#E76F51"/>
<path id="Vector_10" d="M33.6367 25.932C33.6909 25.9794 33.6418 26.1829 33.6311 26.2545C33.5251 26.9585 33.3277 27.6457 33.0441 28.2987C32.1121 30.4435 30.482 32.1044 28.2951 32.9629C28.6471 32.0798 28.7722 31.7295 28.7013 30.7704C28.6796 30.6016 28.6461 30.4342 28.6007 30.2701C28.211 28.9074 27.1828 28.0935 26.0063 27.4344C28.5831 27.2148 31.3331 27.4158 33.6367 25.932Z" fill="#E76F51"/>
<path id="Vector_11" d="M24.9502 13.3173C26.1396 13.3359 27.2248 13.7012 28.1469 14.4622C29.5609 15.629 31.126 18.2618 29.7162 19.9591C28.5908 21.3137 26.9033 21.7621 25.2328 21.9353C25.9139 21.4239 26.6514 20.9497 27.3005 20.4333C27.9808 19.8719 28.6697 19.2496 28.9448 18.3878C29.5069 16.6266 28.1455 15.4029 26.5891 14.9213C24.7074 14.339 22.7028 14.6239 20.9751 15.5054C21.8866 14.0759 23.2869 13.3905 24.9502 13.3173Z" fill="#F4A261"/>
<path id="Vector_12" d="M20.0516 20.9528C21.7316 21.9179 23.2217 21.6989 25.0065 21.2404C23.837 22.0968 22.9305 22.8823 22.4657 24.2919C22.2873 24.9787 22.2742 25.3911 22.3994 26.0839C21.4494 25.7973 19.7809 24.847 19.0933 24.1204C19.1599 23.3415 19.5323 22.7265 19.7944 22.0046C19.9419 21.5985 19.9847 21.3679 20.0516 20.9528Z" fill="#E76F51"/>
<path id="Vector_13" d="M24.1246 15.32C26.7059 15.0902 30.1157 16.8282 27.385 19.4599C27.4109 18.5339 27.3911 18.0193 26.796 17.2564C26.5505 16.9762 26.2564 16.7427 25.9278 16.5672C24.3852 15.7269 22.2872 16.0138 20.6694 16.4902C21.6114 15.7638 22.9535 15.4192 24.1246 15.32Z" fill="#E76F51"/>
<path id="Vector_14" d="M19.1696 17.5336L19.1848 17.55C19.1292 17.9352 18.9208 18.3187 18.9558 18.7453C18.9767 18.9997 18.9676 19.2881 19.06 19.5296C19.2288 19.9708 19.4352 20.337 19.3666 20.8273C19.264 21.8286 18.7512 22.4991 18.524 23.5033C18.4303 23.3778 18.3381 23.2495 18.2458 23.1228C17.4483 21.9584 17.1678 20.3318 17.8192 19.0401C18.1541 18.3759 18.5709 17.9542 19.1696 17.5336Z" fill="#E76F51"/>
<path id="Vector_15" d="M30.8662 17.5983C31.5463 18.0481 32.14 18.8424 32.3478 19.6304C32.6701 20.8499 32.3635 22.0094 31.7586 23.0742C31.6668 23.2127 31.5607 23.3562 31.4638 23.4924C31.2363 22.5411 30.663 21.8147 30.6088 20.7568C30.5728 20.058 30.6972 19.9019 30.8596 19.2368C30.9886 18.7076 30.9588 18.1298 30.8662 17.5983Z" fill="#E76F51"/>
<path id="Vector_16" d="M22.9979 16.778L23.0101 16.7822C23.025 16.8338 22.8706 17.0398 22.8275 17.1866C22.7767 17.3621 22.7663 17.5469 22.7968 17.727C22.9105 18.4237 23.5162 18.8231 24.1651 18.9466C24.6475 19.0383 25.1197 18.9745 25.5318 19.2961C25.8574 19.5502 25.9761 19.8563 26.0357 20.243C25.7042 20.2681 25.4355 20.2693 25.1072 20.259C24.3028 20.228 23.6754 20.1544 22.9125 19.7895C22.0865 19.3945 21.4245 18.5157 21.877 17.5797C22.0914 17.1362 22.5398 16.9255 22.9979 16.778Z" fill="#E76F51"/>
<path id="Vector_17" d="M21.2925 17.0956L21.3203 17.0917L21.341 17.1161C21.2375 17.3147 21.106 17.5296 21.062 17.7498C20.9484 18.3184 21.088 18.8706 21.3953 19.3625C21.8997 20.1695 22.889 20.6231 23.7918 20.81C23.3355 20.915 22.9169 20.9331 22.4537 20.9282C21.3609 20.859 20.0773 20.5736 19.7257 19.374C19.5933 18.9346 19.6427 18.4604 19.8631 18.0578C20.164 17.5173 20.7205 17.2537 21.2925 17.0956Z" fill="#F4A261"/>
<path id="Vector_18" d="M24.9907 34.7284C25.158 34.8369 25.4876 35.1153 25.6708 35.2512C26.174 35.6274 26.7268 35.9327 27.3131 36.1587C26.5834 36.4897 25.7919 36.617 24.9978 36.6519C24.1272 36.6629 23.4525 36.4882 22.6606 36.1624C23.5946 35.7923 24.2244 35.3584 24.9907 34.7284Z" fill="#2A9D8F"/>
<path id="Vector_19" d="M24.0619 16.8536C25.1015 16.786 26.2536 17.2857 26.6061 18.3332C26.7512 18.7646 26.7285 19.1528 26.6352 19.5926L26.43 19.2388C26.1673 18.8633 25.6922 18.5034 25.198 18.3948C24.5648 18.2557 23.0326 18.275 23.5712 17.1454C23.6524 16.9751 23.8818 16.8965 24.0619 16.8536Z" fill="#E76F51"/>
</g>
<path id="Union" d="M25.5522 10.1795L26.0708 10.2322C27.1022 10.3668 27.9577 10.6725 28.7534 11.0926C28.9051 11.0587 29.0578 11.0298 29.2114 11.0057C29.2011 11.0077 29.1921 11.0108 29.1841 11.0125C29.1913 11.0109 29.2002 11.0094 29.2095 11.0076C29.2112 11.0072 29.2127 11.0062 29.2144 11.0057H29.2173C29.2215 11.0049 29.2267 11.0025 29.231 11.0018V11.0027H29.2339L29.2349 11.0018V11.0027L29.2378 11.0018H29.2388C29.2419 11.0013 29.2452 11.0003 29.2485 10.9998C29.2516 10.9994 29.2552 11.0003 29.2583 10.9998C32.7604 10.4531 35.801 12.2512 37.0542 15.2879C37.1103 15.3034 37.1672 15.3178 37.2231 15.3348C37.2246 15.3352 37.2266 15.3353 37.228 15.3358C39.0438 15.887 40.2685 16.9619 41.2173 18.3026C41.2179 18.3035 41.2186 18.3045 41.2192 18.3055C41.2221 18.309 41.2355 18.3278 41.2778 18.3846C41.3198 18.4408 41.3765 18.517 41.438 18.6033C41.5544 18.7667 41.7153 19.0016 41.8296 19.2166L42.1079 19.742C42.2132 19.9403 42.2418 20.1703 42.189 20.3885L42.0493 20.9666C41.9593 21.3377 41.9489 21.3451 41.894 21.5897C41.8775 21.6634 41.8694 21.7099 41.8657 21.7342C41.8704 22.2204 41.9047 22.423 41.9331 23.1082C41.9571 23.6893 41.9532 24.3869 41.7944 25.1922C41.4087 27.1502 40.4921 28.5357 39.27 29.6356C39.3177 30.7437 39.1283 31.8263 38.7104 32.8973L38.6948 32.9363C38.6888 32.9519 38.6831 32.968 38.6763 32.9832L38.6577 33.0223L38.6567 33.0252C38.504 33.3603 38.4045 33.6301 38.272 34.0262C38.2663 34.1057 38.2608 34.191 38.2505 34.3524C38.2409 34.502 38.2231 34.7528 38.1831 34.9998C38.1633 35.1224 38.1276 35.3208 38.0542 35.5408C37.9998 35.7039 37.829 36.1883 37.3833 36.6238C37.3587 36.6478 37.3326 36.6696 37.3062 36.6902C37.0776 36.8963 36.8632 37.0197 36.7417 37.0809C36.5958 37.1542 36.4658 37.2034 36.3765 37.2332C36.2061 37.2901 36.0552 37.3223 35.9663 37.3397C35.7782 37.3764 35.5915 37.3979 35.4663 37.4109C35.3298 37.4251 35.1974 37.4358 35.0991 37.4432C34.9715 37.4528 34.9466 37.4531 34.9272 37.4549H34.9233C34.7202 37.4735 34.5738 37.5395 33.7222 37.9734C33.7189 37.9751 33.7147 37.9749 33.7114 37.9764C32.0683 38.8107 30.516 39.171 28.6997 39.0252C27.7683 39.4397 26.7744 39.7004 25.7554 39.7918L25.7563 39.7928C25.7433 39.7943 25.7313 39.796 25.7241 39.7967C25.716 39.7975 25.7131 39.7974 25.7104 39.7977H25.7065C25.7052 39.7978 25.7035 39.7985 25.7017 39.7986C25.6986 39.799 25.6941 39.8001 25.689 39.8006C25.69 39.8004 25.6909 39.7988 25.6919 39.7986C25.6888 39.7989 25.685 39.8003 25.6812 39.8006C25.677 39.8009 25.6726 39.8003 25.6685 39.8006C24.0737 39.9616 22.5638 39.5996 21.2808 39.0291C19.5405 39.178 18.0125 38.8707 16.3657 38.0301C15.7531 37.7171 15.4795 37.5688 15.2417 37.4949C15.1519 37.4724 15.0478 37.4529 14.9292 37.4373V37.4363L14.8247 37.4246C14.8076 37.4241 14.7924 37.4249 14.7827 37.4246C14.7032 37.422 14.5717 37.4169 14.4302 37.4051C14.3106 37.3951 14.0643 37.3707 13.7954 37.3006C13.6643 37.2664 13.4127 37.1929 13.1343 37.0369C12.9137 36.9133 12.3563 36.5615 12.0376 35.8338C12.0339 35.8253 12.0303 35.8161 12.0269 35.8074L11.9868 35.7117C11.9833 35.703 11.9813 35.6933 11.978 35.6844C11.7529 35.0669 11.7464 34.4783 11.7407 34.2889C11.7381 34.2008 11.736 34.1552 11.7349 34.1258C11.6582 33.8555 11.5457 33.5701 11.3677 33.1541L11.1606 32.6385C10.7826 31.6148 10.6285 30.6471 10.6802 29.6297C8.94414 28.0687 8.00036 26.0067 8.00244 23.491C8.00287 23.0295 8.04917 22.57 8.0708 22.3084C8.09638 21.9988 8.10165 21.8346 8.09229 21.702C8.09026 21.6734 8.08754 21.6454 8.06104 21.5389C8.04124 21.4595 7.95504 21.143 7.89795 20.8406L7.79932 20.3231C7.76219 20.1258 7.79151 19.9215 7.88135 19.742L8.11768 19.2693C8.31926 18.867 8.68111 18.3945 8.86279 18.16C9.08769 17.8696 9.36725 17.5262 9.56299 17.3182C9.56826 17.3126 9.57516 17.307 9.58057 17.3016L9.81787 17.0613L9.8335 17.0457C10.7277 16.1861 11.7628 15.6142 12.8804 15.3045C13.513 13.7704 14.6612 12.5042 16.1255 11.7234L16.4507 11.5604C18.0985 10.7913 19.7374 10.7767 21.2007 11.1024C22.1585 10.5893 23.1692 10.2911 24.3198 10.1863C24.3356 10.1849 24.352 10.186 24.3677 10.1854C24.576 10.1667 24.8079 10.1584 25.0161 10.16L25.5522 10.1795ZM26.0298 38.8387L26.0288 38.8397L26.0298 38.8387ZM27.061 38.6326C26.8655 38.6843 26.6683 38.73 26.4692 38.7674C26.6683 38.73 26.8655 38.6843 27.061 38.6326ZM28.5425 38.0897L28.5415 38.0906C28.7582 38.1133 28.9707 38.1283 29.1792 38.1356C28.9709 38.1283 28.759 38.1123 28.5425 38.0897ZM30.0972 38.1151L30.0962 38.116L30.0972 38.1151ZM21.4331 38.0926C21.3233 38.1046 21.2147 38.1147 21.1069 38.1229C21.2147 38.1147 21.3233 38.1046 21.4331 38.0926ZM33.0093 37.2996C32.4219 37.5783 31.85 37.7875 31.271 37.9276C31.4638 37.8809 31.6561 37.8274 31.8481 37.7654C31.9445 37.7343 32.0407 37.7008 32.1372 37.6658C32.5222 37.5263 32.909 37.3561 33.3042 37.1551L33.0093 37.2996ZM24.9888 37.3592L25.0044 37.3582C24.9582 37.3591 24.9119 37.3585 24.8657 37.3582C24.9067 37.3585 24.9477 37.3599 24.9888 37.3592ZM25.48 37.327H25.479H25.48ZM16.061 36.8455L16.062 36.8445L16.061 36.8455ZM34.8433 36.5408H34.8423C34.684 36.5552 34.5385 36.5898 34.3774 36.6473C34.5386 36.5898 34.684 36.5561 34.8423 36.5418H34.8433V36.5408ZM30.4136 36.5047C30.3798 36.51 30.3459 36.5147 30.312 36.5193C30.3028 36.5206 30.2938 36.523 30.2847 36.5242C30.3087 36.521 30.3329 36.5189 30.3569 36.5154C30.3854 36.5113 30.4135 36.5054 30.4419 36.5008C30.4325 36.5023 30.423 36.5032 30.4136 36.5047ZM35.3716 36.4969L35.3726 36.4979L35.3716 36.4969ZM14.0269 36.4119V36.4129V36.4119ZM35.9683 36.3953C35.9472 36.401 35.9271 36.4072 35.9077 36.4119C35.9121 36.4109 35.9169 36.4101 35.9214 36.409L35.9683 36.3953ZM31.0386 36.3738C31.0428 36.3727 31.047 36.3711 31.0513 36.3699C31.047 36.3711 31.0428 36.3727 31.0386 36.3738ZM36.5063 36.157C36.4343 36.2053 36.3719 36.2388 36.3286 36.2606C36.2804 36.2848 36.2348 36.3055 36.1938 36.3221L36.3286 36.2606C36.3719 36.2388 36.4344 36.2053 36.5063 36.157ZM31.4526 36.2479C31.3952 36.2673 31.338 36.2859 31.2808 36.3035C31.338 36.2859 31.3952 36.2673 31.4526 36.2479ZM32.3228 35.8953C32.2044 35.9512 32.0864 36.0016 31.9702 36.0506C31.9209 36.0714 31.8727 36.0936 31.8237 36.1131C31.9884 36.0475 32.155 35.9751 32.3237 35.8953H32.3228ZM12.7095 34.868C12.7358 35.0251 12.7762 35.1968 12.8394 35.3699L12.8784 35.4656C12.9289 35.5809 12.9883 35.682 13.0522 35.7693C12.9882 35.6819 12.9289 35.5801 12.8784 35.4647L12.8403 35.369C12.7773 35.196 12.7357 35.0249 12.7095 34.868ZM17.4956 35.8201C17.585 35.8658 17.6734 35.9096 17.7612 35.951C17.81 35.974 17.8593 35.9947 17.9077 36.0164C17.772 35.9556 17.634 35.8903 17.4946 35.8192L17.4956 35.8201ZM35.4937 34.9012C35.4922 34.9015 35.4912 34.9038 35.4897 34.9041L35.5044 34.9002C35.5009 34.9009 35.4972 34.9005 35.4937 34.9012ZM12.6577 34.2615H12.6587H12.6577ZM12.564 33.6932L12.4653 33.4119C12.4549 33.3842 12.4421 33.3571 12.4312 33.3289C12.4798 33.455 12.5254 33.5746 12.564 33.6932ZM38.3218 29.242C38.3515 29.5235 38.3635 29.8036 38.3589 30.0818H38.3599C38.3622 29.9429 38.3602 29.8036 38.354 29.6639C38.3478 29.524 38.3366 29.3838 38.3218 29.243C38.3976 29.181 38.4721 29.1173 38.5454 29.0535C38.4721 29.1173 38.3975 29.1801 38.3218 29.242ZM11.3208 28.9715C11.3783 29.0227 11.4381 29.0718 11.4976 29.1219C11.4381 29.0718 11.3783 29.0227 11.3208 28.9715ZM38.979 28.6492C38.8708 28.7576 38.7589 28.8627 38.644 28.9656C38.7589 28.8627 38.8708 28.7576 38.979 28.6492ZM11.0298 28.699C11.0881 28.7565 11.1489 28.8119 11.2095 28.868C11.1489 28.8119 11.0881 28.7565 11.0298 28.699ZM10.7446 28.4022C10.8042 28.4676 10.8668 28.5307 10.9292 28.5945C10.8668 28.5307 10.8042 28.4676 10.7446 28.4022ZM39.0825 28.5428C39.1191 28.5047 39.1552 28.4663 39.1909 28.4276C39.1552 28.4663 39.1191 28.5047 39.0825 28.5428ZM39.2729 28.3367C39.3118 28.2932 39.3504 28.2494 39.3882 28.2049C39.3504 28.2494 39.3118 28.2932 39.2729 28.3367ZM10.4966 28.1141C10.551 28.1805 10.6074 28.2455 10.6646 28.3104C10.6074 28.2455 10.551 28.1805 10.4966 28.1141ZM12.2476 27.7029C12.3341 27.7838 12.4242 27.8626 12.5171 27.9402C12.5141 27.9377 12.5113 27.935 12.5083 27.9324C12.4635 27.8948 12.4207 27.8555 12.3774 27.8172C12.334 27.7788 12.2895 27.7421 12.2476 27.7029ZM39.4634 28.1141C39.4988 28.0709 39.5335 28.0273 39.5679 27.9832C39.5335 28.0273 39.4988 28.0709 39.4634 28.1141ZM10.2505 27.7957C10.2988 27.8621 10.3491 27.9271 10.3999 27.992C10.3491 27.9271 10.2988 27.8621 10.2505 27.7957ZM39.6304 27.9022C39.6655 27.8558 39.6999 27.8089 39.7339 27.7615C39.6999 27.8089 39.6655 27.8558 39.6304 27.9022ZM10.0376 27.4852C10.0749 27.5428 10.1137 27.5995 10.1528 27.6561C10.1137 27.5995 10.0749 27.5428 10.0376 27.4852ZM39.8218 27.6365C39.8522 27.592 39.8812 27.5463 39.9106 27.5008C39.8812 27.5463 39.8522 27.592 39.8218 27.6365ZM39.9614 27.4227C40.0009 27.3598 40.0391 27.296 40.0767 27.2313C40.0391 27.296 40.0009 27.3598 39.9614 27.4227ZM9.83838 27.159C9.87597 27.225 9.91575 27.2896 9.95557 27.3543C9.91575 27.2896 9.87596 27.225 9.83838 27.159ZM11.7671 27.201C11.7946 27.2334 11.8246 27.2638 11.853 27.2957C11.8155 27.2535 11.7777 27.2118 11.7417 27.1688L11.7671 27.201ZM40.1177 27.1619C40.1514 27.1021 40.1832 27.0408 40.2153 26.9793C40.1832 27.0408 40.1514 27.1021 40.1177 27.1619ZM11.6753 27.0858C11.6636 27.0713 11.6526 27.0564 11.6411 27.0418C11.6127 27.0057 11.5826 26.971 11.5552 26.9344C11.5936 26.9858 11.6348 27.0354 11.6753 27.0858ZM9.65576 26.8143C9.68783 26.8791 9.72127 26.943 9.75537 27.0067C9.72127 26.943 9.68783 26.8791 9.65576 26.8143ZM40.2729 26.869C40.301 26.8128 40.3273 26.7556 40.354 26.6981C40.3273 26.7556 40.301 26.8128 40.2729 26.869ZM9.50049 26.4764C9.5266 26.5374 9.55371 26.5979 9.58154 26.658C9.55371 26.5979 9.5266 26.5375 9.50049 26.4764ZM40.397 26.6082C40.4292 26.5359 40.4596 26.4621 40.4897 26.3875C40.4596 26.4621 40.4292 26.5359 40.397 26.6082ZM40.894 25.0154C40.8014 25.4855 40.6746 25.9174 40.5181 26.3172C40.6349 26.0188 40.7362 25.7028 40.8179 25.366L40.894 25.0154C40.9114 24.9272 40.9265 24.8402 40.9399 24.7547C40.9265 24.8401 40.9114 24.9273 40.894 25.0154ZM9.36279 26.1268C9.38299 26.1824 9.40276 26.2379 9.42432 26.2928C9.40276 26.2379 9.38299 26.1824 9.36279 26.1268ZM9.23877 25.7518C9.25564 25.8081 9.27233 25.8642 9.29053 25.9197C9.27233 25.8642 9.25564 25.8081 9.23877 25.7518ZM9.12646 25.3299C9.14316 25.4013 9.1595 25.4725 9.17822 25.5428C9.1595 25.4725 9.14316 25.4013 9.12646 25.3299ZM10.7153 25.2352C10.7113 25.2209 10.7076 25.2065 10.7036 25.1922C10.697 25.1683 10.6884 25.145 10.6821 25.1209L10.7153 25.2352ZM9.05029 24.9617C9.06246 25.0291 9.0735 25.0964 9.0874 25.1629C9.0735 25.0964 9.06246 25.0291 9.05029 24.9617ZM8.99463 24.6063C9.00116 24.6556 9.00673 24.7049 9.01416 24.7537C9.00673 24.7049 9.00116 24.6556 8.99463 24.6063ZM8.98975 21.4871C8.99883 21.5375 9.00462 21.5848 9.0083 21.6365C9.02303 21.8448 9.01178 22.0696 8.98584 22.3836C8.97542 22.5097 8.96189 22.6608 8.94971 22.826C8.96206 22.661 8.9764 22.5096 8.98682 22.3836C9.01277 22.0694 9.02405 21.8449 9.00928 21.6365C9.00559 21.5847 8.99884 21.5376 8.98975 21.4871ZM39.3979 22.2068C39.4009 22.2683 39.4053 22.329 39.4087 22.3895C39.4034 22.2962 39.397 22.202 39.3931 22.1063C39.3944 22.14 39.3964 22.1735 39.3979 22.2068ZM40.9976 21.3875C40.9815 21.459 40.9721 21.5174 40.9644 21.5633L40.9985 21.3875L41.1577 20.7498L40.9976 21.3875ZM10.4019 20.2664C10.3747 20.3099 10.3525 20.3485 10.3364 20.3807C10.3476 20.3584 10.3638 20.3343 10.3804 20.3065C10.3912 20.2883 10.4017 20.2681 10.4146 20.2479L10.4019 20.2664ZM40.5601 18.9598C40.683 19.1255 40.8989 19.422 41.019 19.6483V19.6473C40.9768 19.5677 40.9222 19.4797 40.8647 19.3914C40.7588 19.2289 40.6398 19.0671 40.5601 18.9598ZM38.2222 18.6463C38.233 18.6557 38.2446 18.6642 38.2554 18.6736H38.2563C38.2378 18.6573 38.2185 18.6418 38.1997 18.6258C38.2074 18.6324 38.2145 18.6397 38.2222 18.6463ZM39.8618 18.0731C39.9552 18.1773 40.0477 18.2832 40.1362 18.3934C40.0477 18.2832 39.9553 18.1773 39.8618 18.0731ZM10.936 17.3016C10.8099 17.4015 10.6867 17.5074 10.5659 17.619C10.6867 17.5074 10.8099 17.4015 10.936 17.3016ZM34.689 16.0594C34.7894 16.2794 34.8766 16.5103 34.9478 16.7518C34.8529 16.43 34.7307 16.1266 34.5845 15.8436L34.689 16.0594ZM13.6206 15.9393H13.6216H13.6206ZM13.9868 15.1092C13.964 15.1522 13.9432 15.1964 13.9214 15.2401C13.9432 15.1964 13.964 15.1522 13.9868 15.1092ZM14.2866 14.6043C14.2568 14.6496 14.2284 14.6959 14.1997 14.742C14.2284 14.6959 14.2568 14.6496 14.2866 14.6043ZM14.4575 14.3602C14.4267 14.4024 14.3965 14.4451 14.3667 14.4881C14.3965 14.4451 14.4267 14.4024 14.4575 14.3602ZM14.6274 14.1375C14.5995 14.1724 14.5716 14.2074 14.5444 14.243C14.5716 14.2074 14.5995 14.1724 14.6274 14.1375ZM32.8804 14.0164C32.9518 14.0588 33.0215 14.1039 33.0903 14.1502C33.0215 14.1039 32.9518 14.0588 32.8804 14.0164ZM14.8208 13.908C14.7927 13.9398 14.7643 13.9713 14.7368 14.0037C14.7643 13.9713 14.7927 13.9398 14.8208 13.908ZM15.0356 13.6766C14.9986 13.7144 14.9613 13.752 14.9253 13.7908C14.9613 13.752 14.9986 13.7145 15.0356 13.6766ZM15.23 13.4861C15.197 13.517 15.1636 13.5473 15.1313 13.5789C15.1636 13.5473 15.197 13.517 15.23 13.4861ZM16.2397 12.7166C16.1752 12.7561 16.1112 12.796 16.0483 12.8377C16.1112 12.796 16.1752 12.7561 16.2397 12.7166ZM26.3188 12.7967C26.3019 12.7926 26.2851 12.7879 26.2681 12.784C26.2851 12.7879 26.3019 12.7926 26.3188 12.7967ZM17.397 12.1649C17.3256 12.1901 17.2545 12.2176 17.1831 12.2459C17.2545 12.2176 17.3256 12.1901 17.397 12.1649ZM17.6812 12.0721C17.612 12.0927 17.5433 12.116 17.4741 12.1395C17.5433 12.1161 17.612 12.0927 17.6812 12.0721ZM17.9507 11.9988C17.8827 12.0157 17.8147 12.034 17.7466 12.0535C17.8147 12.034 17.8827 12.0157 17.9507 11.9988ZM21.6724 11.8904C21.5843 11.9369 21.4978 11.9873 21.4106 12.0379C21.4978 11.9873 21.5843 11.9369 21.6724 11.8904ZM18.2456 11.9334C18.1744 11.9474 18.1031 11.9626 18.0317 11.9793C18.1031 11.9626 18.1744 11.9473 18.2456 11.9334ZM20.2544 11.869C20.4388 11.8913 20.6215 11.9204 20.8022 11.9559C20.6215 11.9204 20.4388 11.8912 20.2544 11.869ZM19.4058 11.8192C19.0419 11.8208 18.6734 11.8537 18.3022 11.9227C18.6734 11.8537 19.0419 11.8207 19.4058 11.8192ZM20.2544 11.869C20.174 11.8592 20.0932 11.8515 20.0122 11.8445C20.0932 11.8515 20.174 11.8592 20.2544 11.869ZM30.5786 11.8192V11.8201V11.8192ZM22.0073 11.7254C21.9252 11.7634 21.8443 11.8041 21.7632 11.8455C21.8443 11.8042 21.9252 11.7634 22.0073 11.7254ZM19.9321 11.8387C19.8708 11.8341 19.8093 11.8299 19.7476 11.827C19.8093 11.8299 19.8708 11.8341 19.9321 11.8387ZM19.6733 11.824C19.6045 11.8215 19.5355 11.8195 19.4663 11.8192C19.5355 11.8195 19.6045 11.8215 19.6733 11.824ZM22.3442 11.5809C22.275 11.6085 22.2066 11.6379 22.1382 11.6678C22.2066 11.6379 22.275 11.6085 22.3442 11.5809ZM22.7036 11.449C22.6351 11.472 22.5671 11.4962 22.4995 11.5213C22.5671 11.4962 22.6351 11.472 22.7036 11.449ZM23.0845 11.3348C23.0051 11.3563 22.9261 11.378 22.8481 11.4022C22.9261 11.378 23.0051 11.3563 23.0845 11.3348ZM23.4614 11.243C23.3786 11.2607 23.2965 11.2793 23.2153 11.2996C23.2965 11.2793 23.3786 11.2607 23.4614 11.243ZM23.9771 11.1502C23.846 11.1689 23.7172 11.1909 23.5903 11.2156C23.7172 11.1909 23.846 11.1689 23.9771 11.1502ZM25.4878 11.0955C25.3995 11.0893 25.2456 11.0834 25.0698 11.0809C25.2455 11.0834 25.3996 11.0893 25.4878 11.0955ZM29.1479 11.0203C29.1453 11.021 29.1424 11.0213 29.1421 11.0213H29.144C29.1451 11.021 29.1471 11.0208 29.1489 11.0203C29.1524 11.0194 29.1583 11.0179 29.1646 11.0164C29.1574 11.0181 29.1515 11.0194 29.1479 11.0203Z" fill="white" fill-opacity="0.3"/>
</g>
</g>
</g>
</svg>
