<svg width="50" height="50" viewBox="0 0 50 50" fill="none" xmlns="http://www.w3.org/2000/svg">
<rect width="50" height="50" fill="#BEBEBE"/>
<g id="Decorate Mode">
<path d="M-238.703 -891.034V-890.034H2781.3V-891.034V-892.034H-238.703V-891.034ZM2783.3 -889.034H2782.3V2648.97H2783.3H2784.3V-889.034H2783.3ZM2781.3 2650.97V2649.97H-238.703V2650.97V2651.97H2781.3V2650.97ZM-240.703 2648.97H-239.703V-889.034H-240.703H-241.703V2648.97H-240.703ZM-238.703 2650.97V2649.97C-239.255 2649.97 -239.703 2649.52 -239.703 2648.97H-240.703H-241.703C-241.703 2650.62 -240.36 2651.97 -238.703 2651.97V2650.97ZM2783.3 2648.97H2782.3C2782.3 2649.52 2781.85 2649.97 2781.3 2649.97V2650.97V2651.97C2782.95 2651.97 2784.3 2650.62 2784.3 2648.97H2783.3ZM2781.3 -891.034V-890.034C2781.85 -890.034 2782.3 -889.587 2782.3 -889.034H2783.3H2784.3C2784.3 -890.691 2782.95 -892.034 2781.3 -892.034V-891.034ZM-238.703 -891.034V-892.034C-240.359 -892.034 -241.703 -890.691 -241.703 -889.034H-240.703H-239.703C-239.703 -889.587 -239.255 -890.034 -238.703 -890.034V-891.034Z" fill="black" fill-opacity="0.1"/>
<g id="Stickers">
<rect x="-186.694" y="-18.5342" width="374" height="551" rx="4.5" stroke="#9747FF" stroke-dasharray="10 5"/>
<g id="Property 1=leaf" clip-path="url(#clip0_772_9087)">
<g id="Frame 108">
<path id="Vector" d="M14.0272 8.47435C14.0631 8.44719 14.0995 8.42071 14.1363 8.39494C14.2115 8.34262 14.4015 8.23395 14.483 8.26718C14.7466 8.3745 15.056 8.68786 15.3174 8.84804C15.7379 9.10572 16.1865 9.32861 16.647 9.48108C18.5709 10.1177 20.6528 10.2967 22.6406 10.6724C23.6637 10.8505 24.6752 11.0675 25.6764 11.3447C30.0758 12.5627 33.911 15.2563 36.515 19.0211C37.1825 19.9959 37.7455 21.0384 38.1945 22.131C39.2089 24.565 39.6322 26.8856 39.1426 29.4994C38.5156 32.8472 36.4229 35.4336 33.6765 37.3343C34.2233 38.1887 35.1274 39.0423 35.9768 39.6109C36.288 39.8192 36.6702 40.0133 37.0015 40.1951C37.027 40.4827 36.9723 40.5873 36.8318 40.8279C36.7512 40.9428 36.5771 41.2302 36.4347 41.1708C35.0583 40.5974 33.6633 38.9905 32.8788 37.8573C28.5099 40.6566 23.5054 40.8794 19.21 37.8028C18.2265 37.0875 17.3295 36.2604 16.5368 35.3381C12.7751 31.0469 11.4481 25.2917 12.2993 19.7019C12.7711 16.6041 14.0229 13.6706 14.155 10.5422C14.1797 9.95899 14.0279 9.3142 13.8887 8.75105C13.8686 8.66889 13.9826 8.53317 14.0272 8.47435Z" fill="#020101"/>
<path id="Vector (Stroke)" d="M13.2443 7.11251C13.3469 7.04108 13.5008 6.94717 13.6774 6.86936C13.7647 6.83092 13.909 6.77286 14.0868 6.73587C14.2207 6.70801 14.62 6.63665 15.0721 6.82078C15.2745 6.90322 15.4421 7.00516 15.5575 7.08241C15.6764 7.16203 15.7839 7.24486 15.8633 7.30689C15.9638 7.38548 15.9978 7.41389 16.0643 7.46492C16.1104 7.50022 16.1309 7.51353 16.134 7.51565L16.391 7.66555C16.6466 7.8058 16.8973 7.91811 17.1376 7.99771C18.9352 8.59259 20.7248 8.72011 22.9307 9.13709L22.9302 9.13743C23.9855 9.32164 25.0406 9.54754 26.0931 9.8389C30.691 11.1119 34.7247 13.8815 37.5321 17.7542L37.7999 18.1325L37.8044 18.1383C38.5339 19.2036 39.149 20.343 39.6397 21.537C40.7373 24.1733 41.237 26.8048 40.6786 29.7868C40.0696 33.0384 38.2652 35.6139 35.9295 37.5786C36.2203 37.8502 36.5349 38.104 36.8461 38.3123C37.0815 38.4698 37.3538 38.606 37.7533 38.8253L38.4838 39.2264L38.5579 40.0568C38.5814 40.3212 38.5794 40.6363 38.4737 40.984C38.3835 41.2804 38.2355 41.523 38.1814 41.6156L38.1484 41.6722L38.1107 41.726C38.092 41.7552 37.9515 41.9624 37.8139 42.1141C37.7307 42.2059 37.5543 42.3893 37.2903 42.5324C37.008 42.6854 36.4569 42.8729 35.8334 42.6129C34.8755 42.2137 34.0143 41.5086 33.3337 40.8323C33.0276 40.5281 32.7395 40.2105 32.4756 39.897C27.9289 42.291 22.7713 42.2755 18.3002 39.073L18.296 39.0699L18.2909 39.0666C17.2135 38.283 16.231 37.377 15.3618 36.3673L15.3616 36.3681C11.2525 31.6805 9.84454 25.4421 10.7545 19.4667C11.0057 17.8171 11.4671 16.1992 11.8409 14.7446C12.2261 13.2456 12.5351 11.8652 12.5938 10.4761C12.6075 10.1522 12.5189 9.7225 12.3715 9.12573L12.3715 9.12353C12.2655 8.69167 12.3621 8.33732 12.4156 8.17946C12.4759 8.00171 12.5542 7.86496 12.6011 7.78836C12.6864 7.64901 12.8049 7.50057 12.7831 7.52927L12.9133 7.35809L13.0851 7.22824C13.1358 7.18992 13.1877 7.15193 13.2407 7.11485L13.2443 7.11251ZM14.0277 8.47444L13.9336 8.60378C13.902 8.65536 13.879 8.7099 13.8891 8.75101C14.0282 9.31415 14.1801 9.95905 14.1554 10.5422L14.1396 10.8348C13.9456 13.8541 12.7562 16.701 12.2992 19.7022L12.2257 20.2265C11.5332 25.6499 12.8927 31.1809 16.5366 35.3379C17.3293 36.2603 18.2267 37.0873 19.2102 37.8026C23.5056 40.8792 28.5101 40.6567 32.879 37.8575C33.6635 38.9906 35.0586 40.5975 36.435 41.1708C36.5417 41.2151 36.666 41.0649 36.7556 40.9385L36.8321 40.828C36.955 40.6174 37.0119 40.5109 37.0071 40.2949L37.0016 40.195C36.9588 40.1715 36.915 40.1483 36.8708 40.1244L37.0365 39.7287C37.0356 39.7283 37.0346 39.7281 37.0337 39.7277L37.0357 39.7286L37.0365 39.7287L36.8708 40.1244C36.5726 39.9633 36.2481 39.7921 35.977 39.6106C35.1277 39.0421 34.2236 38.1888 33.6768 37.3343C36.4231 35.4336 38.516 32.8471 39.143 29.4994C39.6325 26.8856 39.2091 24.565 38.1948 22.131C37.7458 21.0385 37.1822 19.9958 36.5147 19.0211C33.9921 15.374 30.3144 12.7319 26.0875 11.463L25.6766 11.3444C24.9257 11.1365 24.1688 10.9628 23.4058 10.8137L22.6408 10.6722C20.653 10.2964 18.5708 10.1177 16.6469 9.48106C16.3015 9.36669 15.9629 9.21256 15.6377 9.03399L15.3177 8.84798C15.0563 8.6878 14.7464 8.37452 14.4829 8.2672C14.4012 8.23423 14.2115 8.34306 14.1364 8.39533C14.0997 8.42101 14.0635 8.44737 14.0277 8.47444Z" fill="#E8E7E7"/>
<path id="Vector (Stroke) (Stroke)" d="M12.7416 6.34417L12.7423 6.34517C12.882 6.24964 13.0778 6.12973 13.3069 6.02879C13.4241 5.97716 13.6345 5.89195 13.9 5.83671C14.0978 5.79559 14.7144 5.68292 15.4185 5.96958C15.6988 6.08371 15.9234 6.22181 16.0684 6.31895C16.2165 6.41811 16.3457 6.51865 16.4286 6.58349C16.5521 6.68003 16.556 6.6851 16.6229 6.73646C16.6263 6.73905 16.6292 6.74151 16.6318 6.7435L16.8328 6.8607L17.1442 7.0157C17.243 7.05975 17.3372 7.09622 17.4261 7.12566L18.0536 7.31397C18.6853 7.48566 19.3337 7.61214 20.0323 7.72885C20.9373 7.88007 21.9815 8.02388 23.0878 8.23255C24.1659 8.42076 25.2513 8.65239 26.338 8.95323C30.9837 10.2394 35.0808 12.9922 37.9974 16.8395L38.2757 17.2148L38.2816 17.2238L38.5289 17.5735L38.5616 17.6193C39.3276 18.7378 39.9743 19.9343 40.4895 21.1878L40.4878 21.1875C41.6346 23.943 42.1798 26.757 41.5808 29.9555C41 33.057 39.4091 35.5688 37.3442 37.5409C37.3484 37.5438 37.3529 37.5469 37.3571 37.5497C37.5476 37.6771 37.751 37.7768 38.195 38.0204L38.9257 38.4213C39.194 38.5686 39.3717 38.84 39.3989 39.1448L39.4731 39.975L39.4721 39.9757C39.4982 40.2695 39.5026 40.6449 39.4018 41.0675L39.352 41.2515C39.2262 41.6649 39.0222 41.9943 38.9736 42.0776L38.9419 42.1341C38.9291 42.1561 38.9151 42.1789 38.9005 42.1997L38.8626 42.2531C38.8037 42.3407 38.6548 42.5542 38.4948 42.7308C38.3838 42.8532 38.1252 43.1239 37.7283 43.3392L37.7273 43.3399C37.333 43.5534 36.5577 43.8295 35.6603 43.5285L35.4801 43.4606C34.3638 42.9953 33.4031 42.1968 32.6861 41.4843C32.5367 41.3358 32.3929 41.1834 32.253 41.0317C27.5974 43.2346 22.355 43.0925 17.792 39.8381C17.7779 39.829 17.7641 39.8194 17.7505 39.8096C16.6181 38.9859 15.5853 38.034 14.6716 36.9737L14.2751 36.5072C10.2691 31.6451 8.93192 25.3367 9.84677 19.3288C10.107 17.6201 10.5861 15.9377 10.9514 14.5158C11.3348 13.024 11.6218 11.7231 11.6762 10.4371C11.6832 10.2673 11.633 9.96685 11.4795 9.3455C11.4777 9.33788 11.4774 9.3299 11.4758 9.32225C11.3184 8.6586 11.4664 8.11928 11.5459 7.88477C11.6369 7.61645 11.7533 7.41364 11.8177 7.30842C11.88 7.20658 11.9489 7.11098 11.9934 7.05062C12.0165 7.0193 12.0365 6.99294 12.0508 6.97451C12.0521 6.97282 12.0549 6.9694 12.0578 6.96562L12.1827 6.80255L12.2648 6.70743C12.2944 6.67794 12.3263 6.6506 12.3597 6.62535L12.531 6.49619C12.5892 6.45216 12.6502 6.40685 12.7136 6.36249L12.7416 6.34417ZM13.2412 7.11475C13.1883 7.15178 13.136 7.18985 13.0853 7.22812L12.913 7.35793L12.7832 7.52859L12.6011 7.78766L12.5135 7.94641C12.4806 8.01224 12.4456 8.09045 12.4156 8.17904L12.3714 8.33221C12.3266 8.51871 12.2921 8.79931 12.3717 9.12356L12.3714 9.12522L12.4705 9.54333C12.5569 9.93094 12.6034 10.2333 12.5932 10.4761C12.5345 11.8651 12.2261 13.2454 11.8409 14.7442L11.2515 17.0328C11.0581 17.8252 10.8799 18.6421 10.7543 19.4668C9.84438 25.4422 11.2524 31.6806 15.3615 36.3682L15.3619 36.3666C16.231 37.3761 17.2132 38.2829 18.2904 39.0664L18.2957 39.0701L18.3003 39.0728L18.7206 39.3638C23.0924 42.2743 28.0709 42.2166 32.4757 39.8974C32.7395 40.2107 33.028 40.5278 33.334 40.832C34.0145 41.5082 34.8752 42.2134 35.8329 42.6126C36.4565 42.8727 37.0083 42.6854 37.2906 42.5324C37.4225 42.4608 37.5326 42.3793 37.62 42.3041L37.8144 42.1141C37.9519 41.9624 38.092 41.7553 38.1107 41.726L38.1487 41.6727L38.1813 41.6156C38.2219 41.5461 38.3151 41.392 38.3973 41.1943L38.4742 40.984C38.5534 40.7234 38.5738 40.4809 38.5694 40.2645L38.5577 40.0564L38.4834 39.2263L37.7527 38.8254C37.4535 38.6612 37.2259 38.5432 37.0315 38.4283L36.8458 38.3126C36.5347 38.1043 36.2207 37.85 35.93 37.5785C38.1195 35.7366 39.8426 33.358 40.5512 30.3888L40.6789 29.7866C41.2373 26.8048 40.7366 24.1731 39.639 21.5368C39.2096 20.4921 38.6857 19.4887 38.0725 18.5406L37.8041 18.1389L37.8002 18.1329L37.5323 17.7538C34.8126 14.0022 30.9418 11.2862 26.5224 9.9628L26.093 9.83926C25.3036 9.62071 24.5126 9.43916 23.7212 9.28425L22.9305 9.13694C20.8625 8.74603 19.1603 8.60989 17.4745 8.10417L17.1374 7.99737C16.8972 7.91777 16.646 7.80592 16.3905 7.66571L16.1341 7.51618L16.0646 7.46449L15.8633 7.30748L15.5572 7.08189C15.4708 7.02403 15.355 6.95245 15.2173 6.88551L15.072 6.82054C14.7329 6.68248 14.4235 6.68842 14.2335 6.71162L14.0867 6.73619C13.9979 6.75466 13.9174 6.77815 13.8483 6.80206L13.6779 6.86921C13.5013 6.94702 13.3469 7.04136 13.2442 7.11278L13.2412 7.11475ZM14.136 8.39562C14.2111 8.34335 14.4017 8.23406 14.4834 8.26703C14.7467 8.37445 15.0562 8.68736 15.3173 8.84754L15.6377 9.03379C15.9629 9.21236 16.3019 9.3665 16.6473 9.48088C18.5711 10.1174 20.6536 10.2962 22.6413 10.672L23.4055 10.8137C24.1685 10.9629 24.926 11.1364 25.677 11.3443L26.0876 11.463C30.3143 12.7319 33.9922 15.3738 36.5148 19.0207C37.1823 19.9954 37.7456 21.0387 38.1946 22.1313L38.3776 22.586C39.2582 24.8561 39.6015 27.0492 39.1425 29.4997L39.08 29.8106C38.3848 33.0078 36.3377 35.4929 33.6771 37.3343L33.8978 37.6543C34.4488 38.3978 35.2342 39.1133 35.9773 39.6107L36.1894 39.7449C36.4089 39.8771 36.6473 40.0042 36.8709 40.125C36.9149 40.1489 36.9586 40.1721 37.0013 40.1955L37.0074 40.2944C37.0121 40.5104 36.9547 40.6173 36.8318 40.8278L36.7559 40.9389C36.6663 41.0653 36.5411 41.2148 36.4344 41.1706C35.2303 40.6688 34.0122 39.3758 33.2009 38.3015L32.8792 37.8575C28.5102 40.6568 23.5051 40.8789 19.2097 37.8023C18.3493 37.1765 17.5547 36.4654 16.8386 35.6795L16.5368 35.3382C12.8928 31.1812 11.533 25.6498 12.2255 20.2264L12.2998 19.7021C12.7283 16.8885 13.8003 14.2104 14.0924 11.3988L14.1396 10.8351L14.1551 10.542C14.1797 9.95891 14.0288 9.31402 13.8897 8.75097C13.8796 8.70987 13.9019 8.65533 13.9335 8.60376L14.0278 8.47492C14.0635 8.44795 14.0994 8.42121 14.136 8.39562ZM15.0258 9.74112C15.0626 10.0164 15.0849 10.3008 15.0731 10.5803L15.0724 10.5923L15.0562 10.8843L15.0568 10.8939L15.0551 10.8936C14.9521 12.4971 14.5874 14.037 14.2076 15.5055C13.8217 16.9976 13.4268 18.3989 13.2073 19.8401L13.1351 20.3546L13.1334 20.3542C12.4728 25.5516 13.7831 30.8042 17.2267 34.7327L17.2329 34.7401C17.9777 35.6067 18.821 36.3839 19.745 37.0565L20.1165 37.3122C23.8555 39.7887 28.1293 39.6404 31.9983 37.3234L32.3835 37.0843L32.5451 37.0015C32.6436 36.963 32.7464 36.9448 32.8488 36.9415C32.9155 36.8006 33.0174 36.6736 33.1545 36.5788C35.7622 34.7739 37.6694 32.3759 38.2399 29.3299C38.6885 26.9342 38.3109 24.7978 37.3467 22.4843L37.3451 22.4797C36.9212 21.4484 36.3893 20.4639 35.7592 19.5433C33.3589 16.0731 29.8595 13.5563 25.833 12.3453L25.4314 12.2293C24.7097 12.0295 23.9792 11.862 23.2389 11.717L22.4731 11.5749L22.4698 11.5742C20.7266 11.2448 18.6361 11.0411 16.7354 10.472L16.3587 10.3526C15.9506 10.2175 15.5599 10.0389 15.1955 9.8388C15.1891 9.83528 15.1823 9.83235 15.176 9.82868L15.0258 9.74112ZM11.9393 7.16887C11.933 7.18438 11.9226 7.21664 11.9127 7.24625C11.9227 7.2157 11.9331 7.18537 11.9464 7.15567C11.9444 7.16015 11.9413 7.16422 11.9393 7.16887ZM12.0461 6.98044C12.0448 6.9822 12.0426 6.98636 12.0397 6.99033C12.0374 6.9936 12.0311 7.00148 12.0239 7.01208C12.0204 7.01732 12.0127 7.02906 12.0034 7.04407C12.0183 7.02029 12.0345 6.99662 12.0518 6.97386C12.0512 6.9746 12.0486 6.97701 12.0461 6.98044Z" fill="#020101"/>
<path id="Vector_2" d="M30.0269 14.3338C30.4379 14.4226 33.0083 16.3361 33.208 16.7173C34.9805 20.0992 34.0818 24.209 32.1857 27.3083C31.2915 28.7696 30.5337 30.2894 30.3777 31.7589C30.354 32.0944 30.3511 32.4311 30.3692 32.767C29.8062 31.9252 29.0579 30.8559 28.6279 29.9636C27.7672 28.2188 28.4612 26.3043 29.2647 24.6637C30.8919 21.3415 31.6125 17.8518 30.0269 14.3338Z" fill="#287271"/>
<path id="Vector_3" d="M13.1757 25.3555C13.2409 25.3787 13.514 25.66 13.5891 25.7288C13.945 26.0552 14.3241 26.387 14.7133 26.6725C15.449 27.2014 16.2469 27.6377 17.089 27.9718C18.538 28.5348 19.9678 28.7416 21.5138 28.7688C23.6279 28.806 26.2411 28.4516 27.8898 30.0808C28.3087 30.4947 28.6232 30.9824 28.9429 31.474L29.9346 33.0034C29.6463 32.8574 29.3501 32.7489 29.0471 32.6392C27.5494 32.1324 25.9292 32.3104 24.4009 32.4857C21.2654 32.8454 18.1786 32.5148 15.5719 30.6051C15.2849 30.3949 14.3492 29.6084 14.2127 29.3484C13.6621 28.3001 13.355 26.5022 13.1757 25.3555Z" fill="#78A79F"/>
<path id="Vector_4" d="M25.8586 12.4838C26.7031 12.6248 28.4966 13.4551 29.2661 13.8762C30.9133 16.5383 30.7155 20.0873 29.5609 22.8788C28.9478 24.3604 28.1715 25.7546 27.8591 27.3369C27.7645 27.8057 27.7682 28.368 27.796 28.8464C27.2975 28.0644 26.7751 27.2906 26.2779 26.5034C26.0459 26.1353 25.8649 25.7376 25.7392 25.321C25.1889 23.5431 25.952 22.1537 26.5392 20.5348C26.7179 20.03 26.8677 19.5156 26.988 18.9939C27.4833 16.7598 27.0775 14.4205 25.8586 12.4838Z" fill="#287271"/>
<path id="Vector_5" d="M13.1797 20.7696C13.2927 20.8876 13.4783 21.1764 13.5964 21.3206C13.8022 21.5719 14.003 21.8036 14.2306 22.0335C15.8092 23.6494 17.8968 24.431 20.1227 24.5829C21.7268 24.6924 23.5762 24.628 24.9061 25.6795C25.4824 26.1352 25.8415 26.7165 26.2384 27.3242L27.3539 29.048C26.879 28.8312 26.4529 28.676 25.9448 28.5549C24.0246 28.1208 22.1114 28.4632 20.1271 28.2457C17.5813 27.9724 15.0427 26.8325 13.3824 24.8447C13.0667 24.4667 13.0991 24.2207 13.0699 23.7602C13.0063 22.7549 13.0668 21.7684 13.1797 20.7696Z" fill="#78A79F"/>
<path id="Vector_6" d="M34.0763 17.6333C34.6936 18.0134 35.8368 19.771 36.2278 20.4211C37.8718 23.1551 37.0506 26.5532 35.5507 29.153C34.3033 31.3152 32.3865 33.1223 32.5022 35.8054L32.5329 36.077C31.6267 34.7309 30.6587 33.4684 30.8288 31.7551C30.9714 30.3191 31.644 29.1681 32.3337 27.9432C32.6683 27.3557 32.986 26.7585 33.2858 26.1526C34.5816 23.4829 35.0658 20.4887 34.0763 17.6333Z" fill="#287271"/>
<path id="Vector_7" d="M14.5854 30.4058C14.7386 30.4985 15.0653 30.7737 15.2226 30.8949C15.5474 31.1417 15.8879 31.3677 16.2416 31.571C18.9673 33.1315 21.8472 33.2433 24.8876 32.8817C26.1233 32.7349 27.3984 32.6528 28.6085 32.9752C29.9724 33.3385 30.7308 34.1946 31.4673 35.339C31.6474 35.6194 31.8829 35.9487 32.0461 36.2376C32.0155 36.2465 31.9001 36.1843 31.8598 36.166C29.4902 35.0278 26.912 36.0904 24.4598 36.3235C22.6001 36.5003 21.063 36.392 19.3083 35.7317C16.8374 34.8021 15.5934 32.7259 14.5854 30.4058Z" fill="#78A79F"/>
<path id="Vector_8" d="M22.2689 11.64C22.4108 11.6447 22.7982 11.7251 22.9543 11.7542C23.6978 11.8865 24.4338 12.0574 25.1594 12.266C25.2571 12.4037 25.3528 12.543 25.4465 12.6835C26.892 14.8601 27.0798 17.5151 26.2681 19.9549C25.8878 21.0979 25.4375 22.0067 25.1961 23.2073C25.1028 23.6521 25.0766 24.2495 25.0999 24.708C24.529 23.8297 23.9117 22.928 23.3667 22.0483C22.2389 20.2272 22.6715 19.2164 23.1739 17.3251C23.5726 15.8245 23.4525 13.9813 22.7862 12.5771C22.6182 12.2233 22.472 11.9756 22.2689 11.64Z" fill="#287271"/>
<path id="Vector_9" d="M13.8428 17.1858C13.9161 17.1978 14.2085 17.6438 14.2925 17.7443C14.8029 18.3554 15.274 18.7697 15.9395 19.2009C17.316 20.0929 18.6297 20.1956 20.1868 20.4807C21.9552 20.8045 22.4903 21.5866 23.3966 22.9847L24.6615 24.9292C24.221 24.6986 23.7099 24.554 23.2271 24.4439C21.7313 24.0926 20.1444 24.2847 18.5913 23.9197C16.1874 23.3548 14.5665 22.1183 13.2653 20.0735C13.3725 19.1182 13.6231 18.1236 13.8428 17.1858Z" fill="#78A79F"/>
<path id="Vector_10" d="M37.5843 23.336C37.6703 23.4399 37.8297 23.9937 37.8781 24.1564C38.3801 25.8426 38.4977 27.5886 38.1719 29.3209C37.6029 32.3472 35.6272 34.8048 33.118 36.5023C33.0331 36.3857 32.9867 35.9552 32.9699 35.7966C32.7487 33.6843 34.4158 31.7465 35.5102 30.0557C35.9214 29.4235 36.2818 28.7599 36.5878 28.0707C37.3421 26.375 37.574 25.1755 37.5843 23.336Z" fill="#287271"/>
<path id="Vector_11" d="M18.4556 35.8729C18.6398 35.9202 18.9956 36.1 19.1889 36.174C21.1684 36.9331 23.2472 36.9664 25.3241 36.6624C27.6223 36.3259 30.2786 35.3933 32.3054 37.0328C30.432 38.2471 28.0605 39.0497 25.8166 39.0343C23.1189 39.0158 20.3415 37.795 18.4556 35.8729Z" fill="#78A79F"/>
<path id="Vector_12" d="M19.0673 11.1134C19.198 11.1228 19.3654 11.1522 19.4944 11.1769C20.2013 11.3112 20.9311 11.3834 21.6359 11.5169C21.74 11.6609 21.8407 11.8073 21.9378 11.9562C23.0798 13.7222 23.2145 15.7785 22.6085 17.7535C22.4988 18.1113 22.4013 18.4917 22.3231 18.8578C22.2213 19.3901 22.1795 19.7169 22.1926 20.2687C21.7943 19.6387 21.3524 18.962 20.9499 18.3653C20.1137 17.1253 19.4674 16.1901 19.7915 14.6213C20.0626 13.3095 19.7375 12.2694 19.0673 11.1134Z" fill="#287271"/>
<path id="Vector_13" d="M14.6692 14.0302C14.7694 14.1308 14.9174 14.3425 15.0121 14.4633C15.5625 15.165 16.2745 15.669 17.129 15.935C17.8375 16.1555 18.517 16.2536 19.1046 16.7601C19.7606 17.3258 20.1686 18.0433 20.6348 18.762C21.0105 19.3431 21.3916 19.9207 21.7778 20.4948C21.2964 20.3135 20.9938 20.2149 20.4954 20.0879C19.7864 19.9242 19.0307 19.8771 18.3042 19.6919C16.2825 19.1765 15.0732 18.26 14.0041 16.5142C14.1336 15.9244 14.3312 15.3257 14.4706 14.7359C14.5241 14.5096 14.5939 14.2487 14.6692 14.0302Z" fill="#78A79F"/>
<path id="Vector_14" d="M15.6103 10.1943C15.6906 10.2052 16.1014 10.3601 16.1982 10.3944C16.4766 10.4936 16.7581 10.5836 17.0425 10.664C17.4991 10.7944 17.9844 10.8615 18.4411 10.9933C19.2512 12.105 19.5435 12.9534 19.3864 14.3303C19.3153 14.8189 19.2508 15.2305 19.2208 15.7217L16.8649 12.1213C16.4399 11.4834 16.0216 10.8411 15.6103 10.1943Z" fill="#287271"/>
<path id="Vector_15" d="M15.1654 10.4282C15.2429 10.5123 15.4209 10.7863 15.4938 10.8942C15.7596 11.2867 16.0125 11.6919 16.2724 12.0889L18.7992 15.9618C18.3801 15.8151 17.9427 15.7084 17.5133 15.5902C16.2014 15.2126 15.5082 14.513 14.8045 13.3797C14.8293 13.2274 14.8638 13.0577 14.8976 12.9072C15.0834 12.0798 15.1265 11.2723 15.1654 10.4282Z" fill="#78A79F"/>
</g>
<path id="Union" d="M13.8994 5.83698C14.0972 5.79586 14.714 5.68327 15.418 5.96979C15.6982 6.08392 15.9233 6.22226 16.0684 6.3194C16.2163 6.41849 16.3458 6.51825 16.4287 6.58307C16.5522 6.67961 16.5561 6.68504 16.623 6.73639C16.6264 6.73893 16.6292 6.74126 16.6318 6.74323L16.833 6.86041L17.1436 7.01569C17.2424 7.05973 17.3369 7.0966 17.4258 7.12604L18.0537 7.31354C18.6854 7.48521 19.3337 7.61187 20.0322 7.72858C20.9373 7.87979 21.9817 8.02381 23.0879 8.23248C24.166 8.42068 25.2513 8.65236 26.3379 8.95319C30.9836 10.2394 35.0805 12.9926 37.9971 16.8399L38.2754 17.2149L38.2812 17.2237L38.5283 17.5733L38.5615 17.6192C39.3274 18.7377 39.9741 19.9341 40.4893 21.1876H40.4873C41.6341 23.943 42.1799 26.7569 41.5811 29.9551C41.0002 33.0567 39.4086 35.569 37.3438 37.5411C37.3479 37.5439 37.3523 37.5471 37.3564 37.5499C37.547 37.6774 37.7514 37.7769 38.1953 38.0206L38.9258 38.421C39.194 38.5682 39.3712 38.8399 39.3984 39.1446L39.4727 39.9747L39.4717 39.9756C39.4978 40.2695 39.5022 40.6448 39.4014 41.0674L39.3516 41.252C39.226 41.6644 39.0227 41.9932 38.9736 42.0772L38.9414 42.1339C38.9286 42.1557 38.9149 42.1785 38.9004 42.1993L38.8623 42.253C38.8035 42.3406 38.655 42.554 38.4951 42.7305C38.3842 42.8529 38.1252 43.1237 37.7285 43.3389L37.7275 43.3399C37.3333 43.5535 36.5575 43.8294 35.6602 43.5284L35.4805 43.461C34.3641 42.9958 33.4025 42.1969 32.6855 41.4844C32.5362 41.336 32.3928 41.183 32.2529 41.0313C27.5973 43.2343 22.3549 43.0923 17.792 39.838C17.7779 39.8288 17.7636 39.8195 17.75 39.8096C16.6177 38.9861 15.5855 38.0338 14.6719 36.9737L14.2754 36.5069C10.2695 31.6449 8.93193 25.337 9.84668 19.3292C10.1069 17.6205 10.5858 15.9376 10.9512 14.5157C11.3345 13.0241 11.6214 11.7234 11.6758 10.4376C11.6828 10.2678 11.6329 9.96696 11.4795 9.34576C11.4776 9.33816 11.4773 9.32997 11.4756 9.32233C11.3182 8.65868 11.4664 8.11934 11.5459 7.88483C11.6369 7.61669 11.753 7.41393 11.8174 7.30865C11.8797 7.20691 11.9486 7.11122 11.9932 7.05084C12.0163 7.01953 12.0364 6.9931 12.0508 6.97467C12.0521 6.973 12.0547 6.9696 12.0576 6.96588L12.1826 6.8028L12.2646 6.70709C12.2942 6.67768 12.3261 6.65025 12.3594 6.62506L12.5312 6.49615C12.5894 6.45219 12.6506 6.40665 12.7139 6.36237L12.7412 6.34381L12.7422 6.34479C12.882 6.24928 13.0777 6.12926 13.3066 6.02838C13.4238 5.97677 13.6342 5.89221 13.8994 5.83698ZM36.0625 42.6905H36.0635H36.0625ZM37.8135 42.1143H37.8145H37.8135ZM38.1816 41.6153C38.2052 41.575 38.2447 41.5058 38.291 41.4171C38.2447 41.5057 38.2052 41.575 38.1816 41.6153ZM25.9043 41.5938C25.9828 41.5938 26.0612 41.5933 26.1396 41.5919C26.0612 41.5933 25.9828 41.5938 25.9043 41.5938ZM25.4531 41.586C25.5449 41.5893 25.6367 41.5906 25.7285 41.5919C25.6367 41.5906 25.5449 41.5893 25.4531 41.586ZM26.3516 41.586C26.446 41.5827 26.5404 41.5787 26.6348 41.5733C26.5404 41.5787 26.446 41.5827 26.3516 41.586ZM24.9805 41.5596C25.0778 41.5668 25.1751 41.5733 25.2725 41.5782C25.1751 41.5733 25.0778 41.5668 24.9805 41.5596ZM26.7812 41.5635C26.8793 41.5568 26.9772 41.5491 27.0752 41.5401C26.9772 41.5491 26.8793 41.5568 26.7812 41.5635ZM24.5645 41.5225C24.6582 41.5326 24.7519 41.5419 24.8457 41.5499C24.7519 41.5419 24.6582 41.5326 24.5645 41.5225ZM27.2402 41.5235C27.3217 41.515 27.403 41.5062 27.4844 41.4962C27.403 41.5062 27.3216 41.515 27.2402 41.5235ZM24.1445 41.4688C24.2136 41.4786 24.2825 41.4885 24.3516 41.4971C24.2825 41.4885 24.2136 41.4786 24.1445 41.4688ZM27.6973 41.4688C27.7804 41.4572 27.8633 41.4439 27.9463 41.4307C27.8633 41.4439 27.7804 41.4572 27.6973 41.4688ZM23.6709 41.3926C23.7539 41.4077 23.8368 41.4222 23.9199 41.4356C23.8368 41.4222 23.7539 41.4077 23.6709 41.3926ZM28.1348 41.4005C28.2176 41.386 28.3001 41.3696 28.3828 41.3536C28.3001 41.3696 28.2176 41.386 28.1348 41.4005ZM23.2178 41.3018C23.3076 41.3216 23.3973 41.3407 23.4873 41.3585C23.3974 41.3407 23.3076 41.3216 23.2178 41.3018ZM28.582 41.3145C28.6883 41.2923 28.7944 41.269 28.9004 41.2442C28.7944 41.269 28.6883 41.2923 28.582 41.3145ZM22.7715 41.1944C22.86 41.2173 22.9484 41.2399 23.0371 41.2608C22.9484 41.2399 22.86 41.2173 22.7715 41.1944ZM28.9922 41.2227C29.0898 41.1992 29.1868 41.1732 29.2842 41.1475C29.1868 41.1732 29.0898 41.1992 28.9922 41.2227ZM22.3154 41.0674C22.4111 41.0961 22.5066 41.1242 22.6025 41.1505C22.5066 41.1242 22.4111 41.0961 22.3154 41.0674ZM29.4775 41.0958C29.5542 41.0744 29.6306 41.0521 29.707 41.0294C29.6306 41.0521 29.5542 41.0744 29.4775 41.0958ZM21.8936 40.9327C21.9811 40.9623 22.0684 40.992 22.1562 41.0196C22.0684 40.992 21.9811 40.9623 21.8936 40.9327ZM29.8867 40.9756C29.9935 40.9424 30.0997 40.907 30.2061 40.8712C30.0997 40.907 29.9935 40.9424 29.8867 40.9756ZM21.4502 40.7735C21.542 40.8083 21.6335 40.8435 21.7256 40.876C21.6335 40.8435 21.542 40.8083 21.4502 40.7735ZM30.3271 40.8311C30.4053 40.804 30.4827 40.7746 30.5605 40.7462C30.4827 40.7746 30.4053 40.804 30.3271 40.8311ZM38.5146 40.8243C38.5204 40.7987 38.5256 40.7733 38.5303 40.7481C38.5256 40.7733 38.5204 40.7987 38.5146 40.8243ZM20.9512 40.5723C21.0615 40.6195 21.1715 40.6662 21.2822 40.71C21.1715 40.6662 21.0615 40.6195 20.9512 40.5723ZM38.54 40.6856C38.5482 40.6335 38.5542 40.5824 38.5586 40.5323C38.5542 40.5824 38.5482 40.6335 38.54 40.6856ZM20.4951 40.3682C20.6208 40.4277 20.7467 40.4851 20.873 40.5401C20.7467 40.4851 20.6208 40.4277 20.4951 40.3682ZM32.4756 39.8975C32.0508 40.1212 31.6199 40.322 31.1855 40.503C31.6199 40.322 32.0508 40.1212 32.4756 39.8975ZM20.1328 40.1895C20.2301 40.2391 20.3271 40.2881 20.4248 40.335C20.3271 40.2881 20.2301 40.2391 20.1328 40.1895ZM36.498 39.9219C36.6685 40.016 36.8406 40.1073 37.001 40.1954L36.8711 40.1241C36.7315 40.0487 36.5863 39.9705 36.4434 39.8907C36.4617 39.9009 36.4797 39.9118 36.498 39.9219ZM19.6641 39.9395C19.7707 39.9992 19.8772 40.058 19.9844 40.1143C19.8772 40.058 19.7707 39.9992 19.6641 39.9395ZM19.3584 39.7618C19.4258 39.8017 19.4919 39.8433 19.5596 39.8819C19.4919 39.8433 19.4258 39.8017 19.3584 39.7618ZM18.9375 39.503C19.0066 39.5473 19.0751 39.592 19.1445 39.6348C19.0751 39.592 19.0066 39.5473 18.9375 39.503ZM17.1367 38.1485C17.3821 38.3615 17.6333 38.5678 17.8906 38.7667C18.0223 38.8684 18.1554 38.9685 18.29 39.0665H18.291C17.893 38.777 17.5079 38.4705 17.1367 38.1485ZM35.2158 39.0342C35.1736 38.9986 35.1317 38.9624 35.0898 38.9258C35.1317 38.9624 35.1736 38.9986 35.2158 39.0342ZM16.3857 37.4581C16.4274 37.4988 16.4706 37.5379 16.5127 37.5782C16.3506 37.423 16.1902 37.266 16.0342 37.1046L16.3857 37.4581ZM36.2109 37.334C36.2551 37.2952 36.3 37.2571 36.3438 37.2178C36.3 37.2571 36.2551 37.2952 36.2109 37.334ZM36.5957 36.9844C36.6429 36.9402 36.6906 36.8964 36.7373 36.8516C36.6906 36.8964 36.6429 36.9402 36.5957 36.9844ZM36.9375 36.6534C37.0098 36.5815 37.0824 36.5099 37.1533 36.4366C37.0824 36.5099 37.0098 36.5815 36.9375 36.6534ZM37.2783 36.3038C37.362 36.2152 37.4458 36.1268 37.5273 36.0362C37.4458 36.1268 37.362 36.2152 37.2783 36.3038ZM37.6826 35.8585C37.7509 35.7801 37.8192 35.7019 37.8857 35.6221C37.8192 35.7019 37.7509 35.7801 37.6826 35.8585ZM16.2012 34.9444C16.3106 35.0769 16.4223 35.2081 16.5361 35.338H16.5371C16.4227 35.2074 16.3101 35.0757 16.2002 34.9424C16.1431 34.8732 16.0881 34.8024 16.0322 34.7325C15.9816 34.6691 15.9296 34.607 15.8799 34.543L16.2012 34.9444ZM38.043 35.4288C38.1088 35.347 38.1742 35.265 38.2383 35.1817C38.1743 35.265 38.1088 35.347 38.043 35.4288ZM38.3682 35.0108C38.4446 34.9082 38.5192 34.8041 38.5928 34.6993C38.5192 34.8042 38.4446 34.9082 38.3682 35.0108ZM38.6777 34.5762C38.7515 34.4686 38.8238 34.36 38.8945 34.2501C38.8238 34.36 38.7515 34.4686 38.6777 34.5762ZM15.2764 33.7178C15.4377 33.9526 15.6065 34.1832 15.7803 34.4112C15.7495 34.3708 15.7198 34.3297 15.6895 34.2891C15.6462 34.2314 15.602 34.1745 15.5596 34.1163C15.4988 34.033 15.44 33.9485 15.3809 33.8643C15.3464 33.8152 15.3103 33.7672 15.2764 33.7178ZM39.002 34.0811C39.0622 33.9842 39.1199 33.8858 39.1777 33.7872C39.12 33.8858 39.0622 33.9842 39.002 34.0811ZM39.2979 33.5801C39.349 33.4889 39.3982 33.3965 39.4473 33.3038C39.3982 33.3965 39.349 33.4889 39.2979 33.5801ZM39.5605 33.088C39.6263 32.9576 39.6895 32.8257 39.751 32.6924C39.6895 32.8257 39.6263 32.9576 39.5605 33.088ZM39.793 32.5997C39.8566 32.4587 39.9179 32.3162 39.9766 32.1719C39.9179 32.3162 39.8566 32.4587 39.793 32.5997ZM40.0205 32.0645C40.0843 31.9034 40.1448 31.7404 40.2021 31.5753C40.1448 31.7404 40.0843 31.9034 40.0205 32.0645ZM40.2168 31.5333C40.2756 31.3622 40.3311 31.1891 40.3828 31.0137C40.3311 31.1891 40.2756 31.3622 40.2168 31.5333ZM38.7168 31.0909C38.726 31.0648 38.7361 31.039 38.7451 31.0128C38.7486 31.0024 38.7514 30.9918 38.7549 30.9815C38.7425 31.0181 38.7296 31.0545 38.7168 31.0909ZM38.8994 30.5196C38.9089 30.4867 38.9195 30.454 38.9287 30.421L38.9336 30.4014C38.9226 30.441 38.9108 30.4803 38.8994 30.5196ZM39.3232 28.0577H39.3242H39.3232ZM12.6709 27.9385C12.6639 27.9112 12.6573 27.8838 12.6504 27.8565C12.6432 27.8281 12.6349 27.8 12.6279 27.7715L12.6709 27.9385ZM38.9619 24.3917H38.9629H38.9619ZM38.625 23.2706C38.6466 23.3339 38.6688 23.3968 38.6895 23.46C38.6929 23.4706 38.6977 23.4807 38.7012 23.4913C38.6523 23.3407 38.6008 23.1901 38.5469 23.0391C38.5744 23.1161 38.5988 23.1937 38.625 23.2706ZM39.3721 20.9239C39.3392 20.8515 39.3063 20.7791 39.2725 20.7071C39.3063 20.7791 39.3392 20.8515 39.3721 20.9239ZM39.1533 20.4581C39.1243 20.3987 39.095 20.3394 39.0654 20.2803C39.0951 20.3394 39.1243 20.3987 39.1533 20.4581ZM38.9971 20.1456C38.9447 20.0433 38.8921 19.9412 38.8379 19.8399C38.8922 19.9412 38.9447 20.0433 38.9971 20.1456ZM38.7754 19.7247C38.7228 19.628 38.6686 19.5323 38.6143 19.4366C38.6687 19.5322 38.7227 19.6281 38.7754 19.7247ZM12.2988 19.7022C12.3193 19.5681 12.343 19.4344 12.3662 19.3008C12.3709 19.2739 12.3741 19.2467 12.3789 19.2198C12.3504 19.3802 12.3234 19.541 12.2988 19.7022ZM38.5537 19.3292C38.494 19.2256 38.4329 19.1229 38.3711 19.0206C38.4329 19.1229 38.4939 19.2257 38.5537 19.3292ZM12.7627 17.4317C12.6182 18.024 12.4857 18.6191 12.3789 19.2198C12.3907 19.1532 12.4045 19.087 12.417 19.0206C12.4213 18.9975 12.4253 18.9743 12.4297 18.9512C12.4531 18.8284 12.4767 18.7055 12.502 18.5831C12.5264 18.4646 12.5531 18.3467 12.5791 18.2286C12.5928 18.1664 12.606 18.1041 12.6201 18.0421C12.6663 17.8383 12.7132 17.6347 12.7627 17.4317ZM37.0566 17.1251C37.0404 17.1044 37.0251 17.0831 37.0088 17.0626L36.9912 17.0411C37.0132 17.0689 37.0347 17.0971 37.0566 17.1251ZM36.1426 16.0372C36.3028 16.2151 36.4599 16.3963 36.6143 16.5801C36.4598 16.3963 36.3028 16.2151 36.1426 16.0372ZM36.0439 15.9297C35.9816 15.8615 35.9196 15.793 35.8564 15.7256C35.9196 15.793 35.9816 15.8615 36.0439 15.9297ZM35.7041 15.5655C35.6485 15.5074 35.5933 15.449 35.5371 15.3917C35.5933 15.449 35.6485 15.5074 35.7041 15.5655ZM35.4531 15.3077C35.3797 15.2336 35.3059 15.1599 35.2314 15.087C35.3059 15.1599 35.3797 15.2336 35.4531 15.3077ZM35.1328 14.9922C35.0593 14.9212 34.9857 14.8502 34.9111 14.7803C34.9857 14.8503 35.0593 14.9212 35.1328 14.9922ZM34.2783 14.211C34.4697 14.3764 34.6582 14.5453 34.8438 14.7178C34.6582 14.5453 34.4697 14.3764 34.2783 14.211ZM34.0811 14.043C34.0372 14.0061 33.9933 13.9692 33.9492 13.9327C33.9933 13.9692 34.0372 14.0061 34.0811 14.043ZM33.8164 13.8233C33.7412 13.762 33.6659 13.7009 33.5898 13.6407C33.6659 13.7009 33.7412 13.762 33.8164 13.8233ZM33.459 13.5381C33.3877 13.4826 33.3161 13.4277 33.2441 13.3731C33.3161 13.4277 33.3877 13.4826 33.459 13.5381ZM33.1338 13.2901C33.0451 13.2237 32.956 13.1578 32.8662 13.0928C32.956 13.1578 33.0451 13.2237 33.1338 13.2901ZM32.8203 13.0596C32.7229 12.9895 32.625 12.9201 32.5264 12.8516C32.625 12.9201 32.7229 12.9895 32.8203 13.0596ZM12.5928 10.4756H12.5938H12.5928ZM32.4268 12.7833C32.3469 12.7285 32.2662 12.6748 32.1855 12.6212C32.2662 12.6748 32.3469 12.7285 32.4268 12.7833ZM32.0508 12.5313C31.9842 12.4878 31.9176 12.4442 31.8506 12.4014C31.9176 12.4442 31.9842 12.4877 32.0508 12.5313ZM31.6641 12.2842C31.6115 12.2514 31.5587 12.2189 31.5059 12.1866C31.5587 12.2189 31.6115 12.2514 31.6641 12.2842ZM27.2607 11.8555C27.4019 11.9077 27.542 11.9623 27.6816 12.0176C27.7019 12.0257 27.722 12.034 27.7422 12.0421C27.8371 12.08 27.9321 12.1179 28.0264 12.1573C27.7736 12.0516 27.5184 11.9508 27.2607 11.8555ZM31.2646 12.0411C31.2141 12.0111 31.1631 11.9818 31.1123 11.9522C31.1631 11.9818 31.2141 12.0111 31.2646 12.0411ZM30.9336 11.8487C30.8677 11.8112 30.8016 11.7741 30.7354 11.7374C30.8016 11.7741 30.8677 11.8112 30.9336 11.8487ZM30.541 11.6309C30.4781 11.5969 30.4148 11.5637 30.3516 11.5303C30.4148 11.5637 30.4781 11.5969 30.541 11.6309ZM29.7764 11.2364C29.6779 11.1882 29.5787 11.1415 29.4795 11.0948C29.5787 11.1415 29.6779 11.1882 29.7764 11.2364ZM29.3994 11.0567C29.3183 11.019 29.2369 10.9821 29.1553 10.9454C29.2369 10.9821 29.3183 11.019 29.3994 11.0567ZM28.585 10.6973C28.4836 10.6552 28.3814 10.6149 28.2793 10.5743C28.3814 10.6149 28.4836 10.6552 28.585 10.6973ZM28.1914 10.5391C28.0772 10.4943 27.9627 10.4501 27.8477 10.4073C27.9627 10.4501 28.0772 10.4943 28.1914 10.5391ZM27.499 10.2823C27.6155 10.3234 27.732 10.3642 27.8477 10.4073C27.732 10.3642 27.6155 10.3234 27.499 10.2823ZM26.0557 9.82916C25.8354 9.7685 25.615 9.71048 25.3945 9.65533C25.615 9.7105 25.8354 9.7685 26.0557 9.82916ZM25.1025 9.58502C24.9636 9.55172 24.8246 9.51968 24.6855 9.48834C24.8246 9.51969 24.9636 9.55171 25.1025 9.58502ZM24.4248 9.42975C24.2094 9.38301 23.9939 9.3385 23.7783 9.29596C23.9939 9.33851 24.2094 9.38299 24.4248 9.42975ZM21.3477 8.86725C21.8534 8.94709 22.3785 9.03358 22.9297 9.13776L22.9307 9.13678C22.4136 9.03905 21.9191 8.95754 21.4424 8.8819L21.3477 8.86725ZM12.3428 8.98053C12.3478 9.01295 12.355 9.04568 12.3623 9.07916C12.355 9.04568 12.3478 9.01295 12.3428 8.98053ZM12.3311 8.86725C12.3329 8.88874 12.3342 8.9106 12.3369 8.93268C12.3342 8.91059 12.3328 8.88875 12.3311 8.86725ZM12.3711 8.33209C12.3574 8.38887 12.3457 8.45461 12.3369 8.5274C12.3554 8.37527 12.3895 8.25419 12.415 8.17877L12.3711 8.33209ZM14.3076 8.29889H14.3066H14.3076ZM17.1377 7.99811V7.99713V7.99811ZM13.085 7.22858L12.9131 7.35748L12.7832 7.52838C12.7863 7.52458 12.7867 7.52478 12.7832 7.52936L12.9131 7.35846L13.085 7.22858ZM11.9395 7.16901C11.9332 7.18451 11.922 7.21655 11.9121 7.24615C11.922 7.21561 11.933 7.18503 11.9463 7.15533C11.9443 7.15981 11.9414 7.16436 11.9395 7.16901ZM15.5068 7.05084C15.4689 7.02646 15.4269 7.00017 15.3809 6.97369C15.4269 7.00019 15.4689 7.02645 15.5068 7.05084ZM12.0459 6.98053C12.0446 6.98229 12.0428 6.98646 12.04 6.9903C12.0377 6.99356 12.0306 7.00122 12.0234 7.01178C12.0199 7.01702 12.0122 7.02899 12.0029 7.04401C12.0178 7.02023 12.0345 6.99646 12.0518 6.97369C12.0512 6.97444 12.0484 6.9771 12.0459 6.98053ZM15.0723 6.82037C15.0229 6.80028 14.9736 6.78398 14.9258 6.76959C14.9737 6.784 15.0229 6.80025 15.0723 6.82037ZM14.8652 6.75299C14.8375 6.74579 14.8102 6.739 14.7832 6.73346C14.8102 6.73901 14.8375 6.74578 14.8652 6.75299ZM14.2334 6.71198C14.2907 6.70497 14.3589 6.70059 14.4355 6.70026C14.3589 6.70063 14.2907 6.70497 14.2334 6.71198Z" fill="white" fill-opacity="0.3"/>
</g>
</g>
</g>
<defs>
<clipPath id="clip0_772_9087">
<rect width="50" height="50" fill="white"/>
</clipPath>
</defs>
</svg>
