<svg width="50" height="50" viewBox="0 0 50 50" fill="none" xmlns="http://www.w3.org/2000/svg">
<rect width="50" height="50" fill="#BEBEBE"/>
<g id="Decorate Mode">
<path d="M-296.703 -1232.72V-1231.72H2723.3V-1232.72V-1233.72H-296.703V-1232.72ZM2725.3 -1230.72H2724.3V2307.28H2725.3H2726.3V-1230.72H2725.3ZM2723.3 2309.28V2308.28H-296.703V2309.28V2310.28H2723.3V2309.28ZM-298.703 2307.28H-297.703V-1230.72H-298.703H-299.703V2307.28H-298.703ZM-296.703 2309.28V2308.28C-297.255 2308.28 -297.703 2307.83 -297.703 2307.28H-298.703H-299.703C-299.703 2308.94 -298.36 2310.28 -296.703 2310.28V2309.28ZM2725.3 2307.28H2724.3C2724.3 2307.83 2723.85 2308.28 2723.3 2308.28V2309.28V2310.28C2724.95 2310.28 2726.3 2308.94 2726.3 2307.28H2725.3ZM2723.3 -1232.72V-1231.72C2723.85 -1231.72 2724.3 -1231.27 2724.3 -1230.72H2725.3H2726.3C2726.3 -1232.38 2724.95 -1233.72 2723.3 -1233.72V-1232.72ZM-296.703 -1232.72V-1233.72C-298.359 -1233.72 -299.703 -1232.38 -299.703 -1230.72H-298.703H-297.703C-297.703 -1231.27 -297.255 -1231.72 -296.703 -1231.72V-1232.72Z" fill="black" fill-opacity="0.1"/>
<g id="Stickers">
<rect x="-244.694" y="-360.219" width="374" height="551" rx="4.5" stroke="#9747FF" stroke-dasharray="10 5"/>
<g id="Property 1=sun">
<g id="Frame 196">
<path id="Vector" d="M24.6749 7.27985C25.1966 7.22309 25.7215 7.89933 25.9905 8.27882C26.7232 9.2966 27.0523 10.7551 26.8582 11.9877C26.6885 13.0658 26.6172 13.7352 26.9705 14.7962C27.1334 15.2845 27.0967 16.2052 27.0027 16.7259C27.1382 16.7728 27.3072 16.8117 27.449 16.8483C27.6739 15.3141 28.5359 14.1162 29.8621 13.3383C30.7049 12.844 31.3392 12.6079 32.0369 11.8532C32.3885 11.4767 32.6749 11.0441 32.8838 10.5732C32.9749 10.3653 33.0421 10.0086 33.1424 9.84533C33.5247 9.22223 33.8355 9.85582 33.9588 10.1932C34.4996 11.6736 34.0648 13.4463 33.1485 14.6826C32.6116 15.4074 32.1832 15.9581 31.9754 16.8608C31.8047 17.5373 31.3665 18.2672 30.8746 18.7747L31.2383 19.1353C32.6649 17.7218 33.9817 17.2493 35.9776 17.3599C37.2169 17.4286 38.2816 17.258 39.2803 16.4964C39.5113 16.3205 39.91 15.8274 40.2103 15.9768C40.5137 16.1275 40.3873 16.6461 40.3484 16.9068C40.0606 18.3789 38.7913 19.6372 37.449 20.2214C36.574 20.6022 35.9529 20.8448 35.2435 21.5235C34.7259 22.0187 33.9886 22.3832 33.293 22.5792C33.3235 22.7083 33.3594 22.8351 33.3943 22.963C34.9124 22.542 36.3284 22.6407 37.7195 23.4089C38.5882 23.8885 39.1326 24.2774 40.1231 24.5173C40.6316 24.6352 41.1573 24.6594 41.6744 24.5884C41.8494 24.5637 42.4632 24.4414 42.5767 24.4912C43.4153 24.8586 41.9144 25.9697 41.7354 26.0923C40.6815 26.814 39.5091 27.0972 38.2505 26.9929C37.7059 26.9477 37.1959 26.844 36.6497 26.8826C36.1763 26.9121 35.7266 27.021 35.2593 27.1006C34.5562 27.2202 34.0887 27.1538 33.41 27.0268L33.2952 27.4326C34.931 27.8179 36.1998 28.6611 37.0535 30.1377C37.4412 30.8635 37.8128 31.5625 38.3751 32.1716C38.9639 32.8098 39.6255 33.05 40.3504 33.4553C40.472 33.5234 40.4927 33.7786 40.3746 33.8799C39.9874 34.2117 39.3548 34.2522 38.8665 34.2947C37.6087 34.3506 36.4 33.8948 35.4066 33.1435C35.0447 32.8723 34.6641 32.5564 34.2674 32.3469C33.8519 32.1274 33.3773 31.99 32.931 31.8403C32.2674 31.6179 31.8243 31.293 31.3167 30.8271C31.2076 30.9141 31.0982 31.0293 30.9979 31.1284C32.1707 32.291 32.803 33.7283 32.7349 35.3572C32.6409 36.8179 32.886 38.0654 33.8255 39.2312C33.9749 39.4167 34.595 40.0632 34.1016 40.2537C33.7769 40.3791 33.0508 40.1765 32.711 40.0412C31.461 39.5439 30.5242 38.5298 29.9774 37.3142C29.553 36.2944 29.273 35.6269 28.4795 34.8259C28.0997 34.4424 27.7571 33.6645 27.5413 33.1489L27.1207 33.2412C27.6373 35.1306 27.327 36.6235 26.2889 38.2327C25.4224 39.5762 25.212 40.7131 25.5701 42.2556C25.6417 42.5627 25.4727 42.6958 25.178 42.7253C24.7266 42.6262 24.2695 42.1011 24.0131 41.7405C23.2554 40.6623 22.929 39.3393 23.0981 38.0325C23.1669 37.4817 23.2914 36.9184 23.2569 36.3623C23.2309 35.9421 23.1173 35.5234 23.0096 35.1162C22.829 34.4329 22.8567 33.9289 22.9706 33.2383C22.8576 33.1968 22.6482 33.1457 22.5255 33.1121C22.0498 35.0579 21.3296 35.9902 19.5648 36.969C19.0138 37.2746 18.3687 37.6948 17.9435 38.1565C17.5477 38.5852 17.2457 39.092 17.057 39.644C16.9849 39.8508 16.8074 40.7014 16.3684 40.3882C16.0826 40.1843 15.9292 39.4758 15.8763 39.1304C15.6723 37.7969 16.017 36.4507 16.7926 35.3508C17.4774 34.4597 17.8451 33.843 18.1384 32.7458C18.2733 32.2412 18.6973 31.6013 19.0231 31.1653C18.9318 31.0637 18.8212 30.9663 18.7203 30.8728C17.6737 32.0034 16.1966 32.6372 14.6559 32.6164C13.7929 32.6062 12.9995 32.5049 12.1534 32.7629C11.6329 32.9133 11.183 33.1579 10.7634 33.5C10.5773 33.6516 10.0616 34.2141 9.79486 34.0488C9.26693 33.7217 9.93719 32.2231 10.1136 31.8926C10.4175 31.3337 10.8334 30.8433 11.3354 30.4521C12.1506 29.8235 12.8505 29.6819 13.727 29.2246C13.9844 29.0901 14.4301 28.7183 14.6756 28.5239C15.3495 27.99 15.8759 27.6828 16.6941 27.4343C16.6548 27.2878 16.615 27.1767 16.5637 27.0347C14.8688 27.5369 13.3236 27.3032 11.8437 26.3569C10.7233 25.6404 9.58021 25.0957 8.21895 25.4006C7.88531 25.4753 7.09383 25.6528 7.22435 25.0176C7.31734 24.5649 8.04561 24.008 8.40362 23.7558C9.33158 23.1234 10.5575 22.8786 11.6703 22.9934C12.7436 23.131 13.5632 23.1829 14.6345 22.9164C15.1898 22.7784 15.994 22.8479 16.5633 22.9664C16.6061 22.8573 16.6551 22.6754 16.6903 22.5572C15.0464 22.2533 13.8461 21.3091 13.0217 19.8805C12.6065 19.1608 12.3153 18.4877 11.7025 17.8777C11.3143 17.4914 10.8692 17.1606 10.3663 16.9313C10.1357 16.8297 9.90091 16.7825 9.68915 16.6387C9.51007 16.5379 9.49281 16.2526 9.63668 16.1114C9.92721 15.8265 10.6138 15.7681 10.982 15.7346C12.1268 15.6224 13.4821 15.9921 14.3984 16.6934C15.2693 17.3599 15.9526 17.7624 17.0033 18.1007C17.576 18.2851 18.2271 18.7652 18.6916 19.1673C18.8222 19.0598 18.9286 18.9503 19.048 18.8309C17.848 17.6559 17.237 16.4178 17.2621 14.7101C17.276 13.7704 17.352 13.0824 17.0085 12.1645C16.8368 11.7059 16.6608 11.4074 16.3629 11.0012C16.1448 10.6986 15.8148 10.4378 15.6829 10.0823C15.626 9.92885 15.8002 9.73148 15.95 9.70841C16.5596 9.61452 17.3349 9.90966 17.855 10.1908C18.8451 10.7259 19.6012 11.6248 20.0362 12.653C20.2407 13.1264 20.4585 13.6571 20.7335 14.0846C20.9515 14.4236 21.2644 14.764 21.5249 15.0805C21.9516 15.6043 22.2715 16.2067 22.4666 16.8536L22.9299 16.7428C22.3505 15.0974 22.5941 13.5519 23.5156 12.105C23.8958 11.5079 24.3241 10.8231 24.4971 10.1416C24.6348 9.59916 24.6775 8.97006 24.5933 8.41266C24.5516 8.13766 24.4605 7.82457 24.4835 7.5463C24.4937 7.42233 24.5845 7.35211 24.6749 7.27985Z" fill="#020101"/>
<path id="Vector (Stroke)" d="M24.5061 5.72681C25.4729 5.62172 26.1812 6.18905 26.4794 6.46046C26.8399 6.7886 27.1182 7.16758 27.2655 7.37537H27.2649C28.1803 8.65241 28.6026 10.3767 28.4417 11.9231L28.402 12.2307C28.3892 12.3118 28.3776 12.3888 28.3666 12.462C28.5897 12.2929 28.8249 12.1356 29.0716 11.9909L29.4286 11.7852C30.188 11.3577 30.461 11.2565 30.8898 10.7927L30.8947 10.7866C31.1261 10.5388 31.3146 10.2546 31.4525 9.94556C31.442 9.96956 31.4441 9.97081 31.4593 9.92298C31.4752 9.87264 31.4867 9.83051 31.513 9.74293C31.5345 9.67131 31.5664 9.56735 31.6051 9.46155C31.6402 9.36568 31.7056 9.19919 31.8114 9.02698C31.9829 8.74786 32.3472 8.25916 33.0059 8.08094C33.7753 7.87279 34.3774 8.22244 34.674 8.48072C34.9511 8.72204 35.1198 9.00284 35.208 9.16614C35.3078 9.35083 35.3796 9.52854 35.4265 9.65687C36.188 11.7415 35.5555 14.0589 34.4042 15.6127C34.3375 15.7027 34.2767 15.7871 34.2193 15.8654C34.813 15.7791 35.4256 15.7646 36.0644 15.8001C37.0902 15.8569 37.7356 15.7094 38.333 15.2538H38.3336C38.3181 15.2657 38.3184 15.2669 38.4228 15.1708C38.4953 15.104 38.6242 14.9843 38.7719 14.8717C38.9095 14.7668 39.1536 14.5964 39.4732 14.489C39.8193 14.3727 40.353 14.3023 40.9063 14.5775H40.9057C41.9046 15.0739 41.9677 16.0913 41.9701 16.3878C41.9718 16.5919 41.9501 16.7743 41.9329 16.8944C41.9239 16.9571 41.9141 17.0146 41.9073 17.0555C41.8993 17.1033 41.8961 17.1216 41.8938 17.1367C41.8904 17.1601 41.8868 17.1838 41.8822 17.2069C41.4692 19.3189 39.743 20.9269 38.0724 21.6539C38.0018 21.6847 37.9347 21.7145 37.8704 21.7424C38.0723 21.8315 38.274 21.9301 38.4746 22.0409C39.47 22.5905 39.7634 22.8222 40.4912 22.9985H40.4906C40.8075 23.0702 41.1343 23.0847 41.4556 23.0413C41.4556 23.0413 41.4597 23.0407 41.4678 23.0394C41.4765 23.0381 41.4879 23.0364 41.5026 23.0339C41.5339 23.0288 41.5679 23.0227 41.6137 23.015C41.6989 23.0006 41.811 22.9821 41.925 22.9656C42.0332 22.9499 42.1744 22.9317 42.3131 22.9229C42.3812 22.9185 42.4796 22.9138 42.589 22.9192C42.6521 22.9223 42.9151 22.9334 43.2043 23.0602H43.2036C43.513 23.1957 43.882 23.4396 44.1338 23.8659C44.3949 24.3078 44.4251 24.7674 44.3664 25.1293C44.267 25.7417 43.8978 26.1991 43.72 26.4049C43.403 26.772 43.0153 27.0875 42.7862 27.26L42.6183 27.3815C41.2501 28.3183 39.7161 28.6823 38.1219 28.5503H38.1212C38.0215 28.542 37.9317 28.5311 37.8496 28.5228C38.0088 28.7294 38.1598 28.9484 38.3019 29.1802L38.4063 29.3554L38.4319 29.4017C38.7846 30.0621 39.0461 30.5408 39.3767 30.9435L39.5232 31.1119C39.8425 31.458 40.0823 31.5358 40.783 31.9109L41.1132 32.0916L41.1144 32.0922C41.8357 32.4964 41.9895 33.2179 42.0116 33.5521C42.0359 33.9188 41.959 34.5792 41.3915 35.0658V35.0664C40.9127 35.4767 40.3644 35.6433 39.9834 35.7244C39.6005 35.8058 39.2096 35.8333 39.002 35.8513C38.98 35.8532 38.9581 35.8546 38.9361 35.8556C37.2534 35.9304 35.6973 35.3201 34.4695 34.3932V34.3938C34.3876 34.3324 34.3132 34.2756 34.2449 34.2235C34.295 34.6124 34.3133 35.0123 34.2962 35.4223C34.2957 35.4339 34.2951 35.446 34.2943 35.4576C34.2176 36.6512 34.4161 37.4739 35.042 38.2506L35.0426 38.2512C35.0096 38.2102 35.3776 38.6227 35.581 39.0014C35.6781 39.1823 35.8985 39.6292 35.8428 40.1934C35.811 40.5156 35.6893 40.8589 35.4418 41.1583C35.2032 41.447 34.9135 41.6145 34.6642 41.7107L34.6648 41.7113C34.3028 41.8512 33.957 41.8601 33.7499 41.8541C33.5181 41.8474 33.2963 41.8147 33.1115 41.7785C32.745 41.7066 32.3856 41.5933 32.1331 41.4928V41.4922C30.443 40.8196 29.2351 39.4733 28.5522 37.9552C28.5461 37.9417 28.5407 37.9279 28.5351 37.9143C28.4857 37.7958 28.4391 37.6856 28.3953 37.5823C28.1833 38.0973 27.9152 38.5938 27.6018 39.0795C27.2475 39.6289 27.0782 40.0568 27.008 40.4467C26.9383 40.834 26.9489 41.2834 27.0922 41.9011L27.1264 42.0879C27.191 42.5458 27.1273 43.1516 26.6552 43.6589C26.1993 44.1488 25.6194 44.2516 25.3338 44.2803C25.1697 44.2967 25.0041 44.2869 24.843 44.2516C24.2085 44.1123 23.7308 43.729 23.4575 43.4746C23.1537 43.1917 22.9072 42.8812 22.7398 42.6458L22.7349 42.639C21.7526 41.2413 21.3291 39.5261 21.5484 37.8319C21.5629 37.7155 21.5782 37.611 21.5917 37.5158C21.3087 37.7333 21.0063 37.9357 20.6841 38.1279L20.3228 38.3355C19.8125 38.6186 19.3449 38.9413 19.0929 39.215L19.0917 39.2162C18.8436 39.4849 18.6541 39.8031 18.5357 40.1494C18.5347 40.1523 18.5336 40.1557 18.5326 40.1586C18.5851 40.0081 18.4091 40.6145 18.2232 40.9569C18.1241 41.1393 17.8636 41.5792 17.3382 41.8364C16.6364 42.18 15.9319 41.9962 15.4607 41.66V41.6594C15.1182 41.4149 14.9177 41.1039 14.8101 40.9087C14.6919 40.6943 14.6091 40.4775 14.5507 40.2996C14.4339 39.9438 14.3656 39.5893 14.3316 39.367C14.0631 37.6123 14.5205 35.8618 15.5157 34.4506L15.5535 34.3987C15.6342 34.2936 15.7081 34.1945 15.7769 34.1002C15.4016 34.157 15.0198 34.1841 14.6349 34.179V34.1784C13.5528 34.1654 13.1499 34.0928 12.6092 34.2577C12.6019 34.2599 12.5945 34.2617 12.5872 34.2638C12.284 34.3514 12.02 34.4919 11.751 34.7112L11.7504 34.7118C11.7461 34.7157 11.7402 34.7215 11.7321 34.7289C11.7227 34.7374 11.6514 34.8025 11.6216 34.8296C11.5338 34.9093 11.3993 35.0289 11.2456 35.1439C11.1072 35.2476 10.8657 35.4151 10.5602 35.5248C10.2668 35.6301 9.62188 35.7796 8.97207 35.3771C8.19107 34.8931 8.0543 34.0874 8.0364 33.6907C8.01714 33.2633 8.10304 32.8546 8.18167 32.564C8.34359 31.9656 8.60713 31.3973 8.73526 31.1571L8.74075 31.1461C9.14719 30.3989 9.70389 29.743 10.3753 29.2199L10.3814 29.215C10.9261 28.7949 11.4289 28.543 11.8755 28.3452C11.9489 28.3127 12.0178 28.2839 12.0824 28.2561C11.7167 28.0941 11.3565 27.8998 11.0021 27.6732C9.94608 26.9978 9.27355 26.7659 8.5607 26.9255C8.46037 26.948 7.90475 27.0892 7.36868 27.0275C7.08998 26.9954 6.52357 26.8787 6.08938 26.3701C5.60759 25.8056 5.60361 25.1427 5.69388 24.7033L5.73111 24.5501C5.82973 24.2027 6.00125 23.9286 6.13272 23.7474C6.29383 23.5254 6.47616 23.3331 6.63626 23.1804C6.95615 22.8754 7.29994 22.6224 7.50418 22.4785L7.52371 22.4645C8.72441 21.6462 10.2134 21.3326 11.563 21.4171L11.831 21.4391L11.8688 21.4434C11.9892 21.4588 12.104 21.4726 12.2137 21.4849C12.018 21.2247 11.8354 20.9505 11.6686 20.6615C11.152 19.7662 11.0189 19.4013 10.6005 18.9849C10.32 18.7056 10.026 18.4948 9.72464 18.3562C9.71204 18.3511 9.6923 18.3435 9.65994 18.3318C9.63841 18.324 9.53365 18.2871 9.475 18.2653C9.32583 18.2097 9.08829 18.1141 8.83719 17.9479C8.25525 17.5786 8.02466 16.9842 7.98514 16.5239C7.94424 16.0473 8.07862 15.4513 8.54239 14.9962L8.63516 14.9108C9.10463 14.5018 9.67574 14.3604 9.95291 14.301C10.3142 14.2237 10.6721 14.1936 10.8404 14.1784C12.3624 14.0322 14.1091 14.5048 15.3478 15.4528H15.3484C15.4911 15.562 15.6265 15.66 15.7561 15.7512C15.7138 15.4115 15.6945 15.0575 15.7 14.6874C15.7157 13.6188 15.7605 13.2881 15.5449 12.7123C15.435 12.4185 15.3379 12.2457 15.1031 11.9255C15.1006 11.9222 15.0982 11.9185 15.0957 11.9152C15.0352 11.8313 15.0218 11.8328 14.8034 11.5776C14.6681 11.4196 14.4477 11.1506 14.284 10.7872L14.218 10.6255C13.9226 9.82866 14.2876 9.16968 14.5025 8.89149C14.7277 8.59989 15.1346 8.2529 15.7122 8.16395L15.9429 8.1377C16.4781 8.09664 16.9821 8.19576 17.3711 8.3086C17.8346 8.44303 18.2621 8.63491 18.5979 8.81641C19.9332 9.53817 20.9134 10.7231 21.4702 12.033C21.5203 12.1489 21.5692 12.2571 21.6137 12.3595C21.7755 11.9867 21.971 11.6218 22.1978 11.2658C22.6042 10.6275 22.8821 10.1533 22.9827 9.75696C23.0741 9.39682 23.0985 8.97901 23.0486 8.64735L23.0218 8.49842C23.0133 8.45989 23.0015 8.40382 22.9741 8.24329C22.9427 8.05868 22.8987 7.75537 22.9265 7.41749C22.9642 6.96265 23.1603 6.61831 23.352 6.38966C23.5076 6.20411 23.6893 6.06694 23.6986 6.05946L23.7877 5.99354C24.0008 5.84663 24.2477 5.75493 24.5061 5.72681ZM24.6746 7.28016L24.6081 7.33448C24.544 7.39049 24.4912 7.45337 24.4835 7.54627C24.4606 7.82454 24.5517 8.13797 24.5934 8.41297C24.6776 8.97028 24.6346 9.59919 24.497 10.1415C24.3239 10.823 23.8958 11.5079 23.5155 12.105L23.3507 12.3772C22.5668 13.7453 22.387 15.2004 22.9302 16.743L22.4663 16.8535C22.2713 16.2067 21.9518 15.6043 21.5252 15.0805C21.2973 14.8036 21.0291 14.5085 20.8196 14.2119L20.7335 14.0844C20.5274 13.7638 20.3532 13.3852 20.1928 13.0162L20.0359 12.6531C19.6281 11.6891 18.9382 10.8388 18.0376 10.2953L17.8551 10.1909C17.3351 9.90983 16.5598 9.61435 15.9502 9.70814C15.8004 9.73121 15.626 9.92887 15.6829 10.0823C15.8147 10.4378 16.1447 10.6989 16.3628 11.0015L16.5655 11.2896C16.7487 11.5664 16.8798 11.8208 17.0086 12.1648C17.352 13.0825 17.2757 13.7704 17.2619 14.71C17.2367 16.4176 17.8478 17.656 19.0478 18.8311C18.9284 18.9503 18.8218 19.06 18.6913 19.1674C18.2268 18.7653 17.5758 18.2849 17.0031 18.1005C16.0838 17.8044 15.4459 17.4592 14.7173 16.931L14.3987 16.6936C13.4824 15.9923 12.1268 15.6226 10.982 15.7347C10.6137 15.7682 9.92729 15.8264 9.63675 16.1113C9.49287 16.2525 9.51016 16.5379 9.68924 16.6387C9.9009 16.7824 10.1356 16.8295 10.3661 16.931C10.8689 17.1603 11.3141 17.4915 11.7022 17.8777C12.315 18.4876 12.6066 19.1607 13.0218 19.8803C13.8461 21.3089 15.0467 22.2534 16.6906 22.5573C16.6554 22.6754 16.6059 22.8571 16.563 22.9662C15.9937 22.8478 15.1895 22.7787 14.6343 22.9168C13.5632 23.1831 12.7436 23.1312 11.6704 22.9937C10.5576 22.8788 9.33178 23.1236 8.40384 23.756C8.04584 24.0081 7.31767 24.565 7.22464 25.0176C7.11045 25.5733 7.70162 25.5067 8.07486 25.4314L8.2189 25.4009C9.58013 25.096 10.7234 25.6402 11.8438 26.3567C13.3237 27.303 14.8688 27.5369 16.5636 27.0348C16.6149 27.1768 16.6549 27.2881 16.6942 27.4346C15.8761 27.6831 15.3497 27.9901 14.6758 28.5241C14.4304 28.7184 13.9847 29.0902 13.7273 29.2247L13.4063 29.3828C12.6739 29.7249 12.0488 29.902 11.3354 30.4522L11.151 30.6035C10.7311 30.967 10.3794 31.4037 10.1134 31.8926C9.937 32.2233 9.26694 33.7218 9.79483 34.049C9.9949 34.1729 10.3351 33.8874 10.5712 33.673L10.7635 33.5003C11.1306 33.201 11.521 32.9762 11.9616 32.824L12.1532 32.7629C12.9992 32.5049 13.7928 32.6062 14.6557 32.6165C16.1963 32.6372 17.674 32.0033 18.7206 30.8727C18.8214 30.9662 18.932 31.0635 19.0233 31.165C18.6975 31.6011 18.2732 32.2412 18.1383 32.7459C17.845 33.843 17.4772 34.4597 16.7925 35.3508L16.6521 35.5596C15.9759 36.6186 15.6852 37.88 15.8764 39.1301C15.9292 39.4755 16.0826 40.1841 16.3683 40.3881C16.8072 40.7013 16.9847 39.851 17.0568 39.6441C17.222 39.161 17.474 38.7126 17.7996 38.3208L17.9436 38.1566C18.3688 37.695 19.0138 37.2745 19.5647 36.9689C21.3296 35.9901 22.0498 35.0579 22.5255 33.1121C22.6482 33.1458 22.8575 33.1969 22.9705 33.2384C22.8567 33.929 22.829 34.4332 23.0096 35.1165C23.1172 35.5236 23.2307 35.9421 23.2567 36.3622C23.2912 36.9183 23.1668 37.4819 23.0981 38.0327C22.929 39.3395 23.2554 40.6626 24.013 41.7406C24.2533 42.0786 24.6702 42.5612 25.0933 42.7019L25.1781 42.7251C25.4727 42.6956 25.6414 42.5628 25.57 42.2557C25.2342 40.8098 25.3983 39.72 26.1339 38.4826L26.289 38.2329C27.327 36.6239 27.6374 35.1307 27.1209 33.2415L27.5414 33.1487C27.7572 33.6643 28.0996 34.4424 28.4795 34.8259C29.273 35.627 29.553 36.2946 29.9773 37.3143C30.5242 38.5299 31.4611 39.5441 32.7111 40.0414C33.0509 40.1766 33.7767 40.3791 34.1015 40.2538C34.5947 40.0634 33.9753 39.4172 33.8256 39.2315C32.8861 38.0657 32.6409 36.8176 32.7349 35.3569C32.8029 33.7281 32.1706 32.291 30.9978 31.1284C31.0982 31.0293 31.2073 30.9138 31.3164 30.8269C31.8239 31.2927 32.2674 31.6177 32.9308 31.8401C33.3771 31.9897 33.852 32.1272 34.2675 32.3467L34.4152 32.4303C34.7588 32.6348 35.0898 32.9064 35.4064 33.1438C36.3998 33.895 37.6087 34.3508 38.8665 34.2949C39.3242 34.2551 39.9086 34.2165 40.299 33.9385L40.3747 33.8799C40.4928 33.7786 40.4718 33.5232 40.3503 33.4551C39.6255 33.0499 38.964 32.8096 38.3751 32.1715C37.813 31.5624 37.4414 30.8636 37.0537 30.1378C36.2 28.6613 34.9309 27.818 33.2952 27.4327L33.4099 27.0269C34.0886 27.1538 34.5562 27.2203 35.2593 27.1007C35.6682 27.0311 36.0637 26.9386 36.4733 26.8969L36.6497 26.8828C37.1958 26.8442 37.706 26.9475 38.2506 26.9927C39.5091 27.0969 40.6813 26.814 41.7351 26.0924C41.9085 25.9737 43.3224 24.9275 42.6488 24.5281L42.5768 24.4915C42.4633 24.4417 41.8492 24.5639 41.6741 24.5885L41.48 24.6105C41.091 24.6459 40.699 24.6282 40.3148 24.5574L40.1232 24.5171C39.3802 24.3371 38.8882 24.0735 38.322 23.7505L37.7196 23.4087C36.3285 22.6405 34.9121 22.5422 33.3941 22.9631L33.2928 22.5792C33.9883 22.3833 34.7259 22.0186 35.2434 21.5233C35.7756 21.0143 36.2581 20.7507 36.8352 20.49L37.4492 20.2214C38.7915 19.6372 40.0606 18.3787 40.3484 16.9066C40.3848 16.6622 40.4981 16.1916 40.2624 16.0094L40.2105 15.9771C39.9102 15.8277 39.5113 16.3205 39.2803 16.4965C38.3439 17.2105 37.3496 17.405 36.2078 17.3699L35.9777 17.3601C33.9818 17.2495 32.6648 17.7221 31.2383 19.1356L30.8745 18.7749C31.3665 18.2674 31.805 17.5374 31.9756 16.8608C32.1834 15.9582 32.6118 15.4073 33.1487 14.6825C34.0363 13.4847 34.4722 11.7835 34.0069 10.3325L33.9586 10.1934C33.8354 9.85599 33.5249 9.22237 33.1426 9.84547L33.106 9.91505C33.0247 10.0955 32.9634 10.3912 32.8838 10.573C32.6748 11.0439 32.3882 11.4764 32.0366 11.8529C31.3389 12.6076 30.7047 12.8442 29.862 13.3385C28.536 14.1164 27.6741 15.3141 27.4492 16.848C27.3074 16.8115 27.138 16.7729 27.0025 16.726C27.0965 16.2053 27.1336 15.2843 26.9707 14.796C26.6616 13.8676 26.6773 13.2391 26.7998 12.3742L26.8584 11.9878C27.0525 10.7552 26.7232 9.29647 25.9905 8.27869C25.7214 7.89918 25.1963 7.2234 24.6746 7.28016Z" fill="#E8E7E7"/>
<path id="Vector (Stroke) (Stroke)" d="M24.6614 4.79683C25.9081 4.76334 26.7811 5.49329 27.0972 5.78097C27.5338 6.17836 27.8588 6.62456 28.0144 6.84402C28.0176 6.84846 28.0197 6.8539 28.0228 6.85837C28.822 7.98112 29.2837 9.38137 29.3752 10.7614C29.8493 10.4997 29.9669 10.4377 30.2111 10.1743C30.2152 10.1697 30.2188 10.1645 30.223 10.16C30.3749 9.99729 30.4991 9.81157 30.5937 9.61108C30.601 9.58641 30.6092 9.5582 30.6332 9.47835C30.6559 9.4026 30.6938 9.27772 30.742 9.14592C30.7747 9.05666 30.8342 8.90344 30.9262 8.7274L31.029 8.54564C31.2441 8.19561 31.7696 7.46412 32.7665 7.19439C33.9447 6.87587 34.8542 7.42108 35.2765 7.7887C35.6742 8.13509 35.9054 8.52609 36.0154 8.72979C36.1432 8.96628 36.2331 9.18835 36.2893 9.34203C36.9824 11.2397 36.6795 13.2544 35.9066 14.875C35.9759 14.8777 36.0453 14.8795 36.1147 14.8833C36.9922 14.9319 37.3932 14.8048 37.7493 14.5413C37.7622 14.5295 37.7793 14.5145 37.8008 14.4947C37.8702 14.4308 38.0286 14.2837 38.2145 14.1419C38.3858 14.0114 38.7234 13.7719 39.1807 13.6182C39.6778 13.4512 40.4784 13.3395 41.3152 13.7557C41.3197 13.7579 41.3239 13.7606 41.3283 13.7629C42.8192 14.5132 42.886 16.0331 42.8889 16.3805C42.891 16.6502 42.8625 16.8838 42.8422 17.025L42.8135 17.2067C42.8114 17.2192 42.809 17.2302 42.8075 17.239C42.8061 17.2476 42.8049 17.2539 42.804 17.2594C42.8023 17.2694 42.8016 17.2725 42.8016 17.2725C42.7982 17.2948 42.7925 17.3371 42.7836 17.3825C42.4153 19.2653 41.1824 20.7604 39.7989 21.728C40.1564 21.9274 40.3422 22.0158 40.6958 22.1023C40.9044 22.1492 41.1187 22.1591 41.3295 22.131H41.3343C41.3372 22.1306 41.3394 22.1301 41.3415 22.1298C41.3455 22.1292 41.3493 22.1279 41.3523 22.1274C41.386 22.1218 41.4025 22.1194 41.4611 22.1095C41.5479 22.0948 41.6687 22.0749 41.7935 22.0569C41.9109 22.0399 42.0804 22.0178 42.2551 22.0067C42.3366 22.0015 42.4745 21.9941 42.6342 22.0019C42.7232 22.0062 43.1247 22.023 43.5728 22.2195C43.5753 22.2206 43.5776 22.222 43.58 22.2231C44.0072 22.4117 44.549 22.7638 44.9241 23.3986C45.3164 24.0626 45.3586 24.7494 45.2733 25.2759C45.1309 26.154 44.613 26.7754 44.4147 27.0051C44.0361 27.4434 43.5901 27.8046 43.3385 27.994L43.3241 28.0047L43.3229 28.0035L43.1567 28.1255C43.1505 28.13 43.1439 28.1343 43.1376 28.1387C42.0103 28.9105 40.7804 29.3376 39.506 29.4576C39.7243 29.8523 39.8938 30.1264 40.0859 30.3605L40.1983 30.4896L40.3251 30.6092C40.3677 30.6428 40.414 30.6725 40.4734 30.7072L41.2159 31.1018L41.2231 31.1054L41.5544 31.286C41.5575 31.2877 41.5596 31.289 41.5627 31.2908C42.6784 31.916 42.8972 33.0213 42.9283 33.491C42.963 34.016 42.8597 35.0168 41.9896 35.763L41.9884 35.7642C41.3423 36.3177 40.6224 36.5275 40.1744 36.6228C39.7241 36.7186 39.2695 36.7499 39.0815 36.7663C39.0452 36.7695 39.0104 36.772 38.9774 36.7735C37.6037 36.8344 36.317 36.4953 35.1975 35.9257C35.198 36.708 35.375 37.197 35.7512 37.6667C35.7611 37.6781 35.7725 37.6897 35.7835 37.7026C35.8242 37.7505 35.8819 37.8208 35.9473 37.9047C36.0722 38.065 36.2518 38.3104 36.3897 38.5672C36.5115 38.794 36.8398 39.4413 36.7568 40.2831C36.7089 40.7682 36.5247 41.289 36.1494 41.7432C35.8143 42.1484 35.4163 42.3878 35.0756 42.5312C35.0495 42.5443 35.023 42.5576 34.9954 42.5683C34.6005 42.7208 34.2282 42.7629 33.9575 42.7716H33.7231C33.4254 42.7629 33.151 42.7218 32.9351 42.6795C32.5087 42.5959 32.0941 42.4657 31.7931 42.3459L31.4344 42.1916C30.1384 41.5912 29.1206 40.6433 28.3887 39.5501C28.3831 39.5588 28.3788 39.5689 28.3731 39.5776C28.0656 40.0546 27.9548 40.3695 27.9116 40.6096C27.8798 40.7864 27.8693 41.0105 27.9176 41.3342L27.9869 41.6942L27.9953 41.736L28.03 41.9226L28.0359 41.9596C28.1263 42.6004 28.0425 43.5152 27.3268 44.2842C26.644 45.0179 25.7916 45.1575 25.4255 45.1942C25.1646 45.2204 24.9011 45.2048 24.6459 45.1488C23.7716 44.9568 23.1473 44.4404 22.8319 44.1467C22.4683 43.8083 22.1813 43.4455 21.9912 43.1781L21.9828 43.1674C21.1641 42.0023 20.6885 40.6422 20.5921 39.2404C20.1941 39.4746 19.8994 39.6947 19.7682 39.8371L19.7658 39.8395L19.6522 39.9758C19.5542 40.1072 19.4762 40.2529 19.4191 40.4075C19.4168 40.4154 19.4163 40.4234 19.4143 40.4302C19.3973 40.4883 19.3693 40.5748 19.3354 40.673C19.2874 40.8116 19.2129 41.0127 19.1237 41.2063L19.0304 41.3952C18.9045 41.6271 18.5284 42.2762 17.7414 42.6616C16.6684 43.1866 15.6048 42.891 14.9277 42.408L14.9265 42.4068C14.4256 42.0492 14.1448 41.6044 14.0057 41.3522C13.8503 41.0704 13.7469 40.7952 13.6781 40.5857C13.6092 40.3758 13.5558 40.1689 13.5143 39.983L13.4234 39.5059C13.1877 37.9656 13.4439 36.4342 14.0858 35.0838C13.813 35.0758 13.6311 35.0689 13.421 35.0695C13.2346 35.07 13.1095 35.0802 12.9929 35.1054L12.8769 35.1364C12.8664 35.1396 12.8572 35.1418 12.8506 35.1436C12.8441 35.1454 12.8388 35.1477 12.8362 35.1484C12.6681 35.1979 12.5172 35.2743 12.3436 35.4139C12.3229 35.4327 12.2659 35.4856 12.2395 35.5095C12.1453 35.5951 11.9847 35.7377 11.7959 35.879C11.6715 35.9722 11.4564 36.1255 11.1741 36.2617L10.8704 36.3896C10.4636 36.5356 9.48487 36.775 8.48835 36.1576C7.32141 35.4345 7.14219 34.241 7.11916 33.7326C7.09369 33.1675 7.20608 32.6524 7.29495 32.3239C7.47486 31.6591 7.75879 31.0402 7.91317 30.7467L7.91915 30.7359L7.9335 30.7072C8.3985 29.8523 9.03466 29.1016 9.80132 28.5022L9.8073 28.4974L9.82046 28.4878L10.0524 28.3156C10.0908 28.2884 10.1294 28.2626 10.1672 28.2367C9.39575 27.785 9.05314 27.7564 8.76099 27.8218C8.68828 27.8381 7.97958 28.0225 7.26386 27.9402C6.88936 27.897 6.04566 27.7331 5.39125 26.9668C4.65931 26.1092 4.67178 25.1172 4.79455 24.519L4.80172 24.4867L4.84716 24.299C4.98638 23.8087 5.22398 23.4357 5.38886 23.2084C5.5931 22.927 5.81756 22.6922 6.0023 22.5161C6.36657 22.1688 6.74899 21.8877 6.9685 21.7328L6.98763 21.7185L7.00676 21.7053C8.07599 20.9768 9.32272 20.6014 10.5296 20.5083C10.2556 20.012 10.1806 19.863 9.95199 19.6354C9.73967 19.4242 9.53781 19.2841 9.35529 19.1977C9.35278 19.1968 9.34986 19.1964 9.34692 19.1954C9.34692 19.1954 9.34579 19.1946 9.34453 19.1942C9.34332 19.1937 9.34163 19.1936 9.33975 19.193C9.33521 19.1913 9.32871 19.1894 9.32181 19.187C9.30839 19.1822 9.29123 19.1756 9.27278 19.169C9.2368 19.1562 9.19037 19.1394 9.1544 19.126C8.98112 19.0614 8.67555 18.9385 8.34485 18.7218C7.46325 18.1622 7.12772 17.2723 7.07014 16.6029C7.01062 15.9093 7.20266 15.0235 7.89882 14.3404C7.90567 14.3337 7.91329 14.3278 7.92034 14.3213L8.01242 14.2352C8.01858 14.2295 8.02524 14.224 8.03155 14.2185C8.68619 13.6482 9.45413 13.4686 9.76067 13.4029C10.1797 13.3132 10.5871 13.2791 10.752 13.2642L11.082 13.2415C12.3174 13.1853 13.6428 13.4658 14.7926 14.0355C14.8018 13.4529 14.7926 13.3224 14.6849 13.0346C14.6112 12.8376 14.5597 12.7386 14.3621 12.469L14.3525 12.4547C14.352 12.4541 14.3509 12.4521 14.3489 12.4499C14.3447 12.4452 14.3393 12.4389 14.3298 12.4284C14.2883 12.3828 14.2236 12.312 14.1062 12.1749C13.9549 11.9982 13.6646 11.6494 13.4461 11.1644C13.4416 11.1544 13.4371 11.1435 13.4329 11.1333L13.3672 10.9719C13.3635 10.9629 13.3598 10.9535 13.3564 10.9444C12.9016 9.71705 13.4748 8.72061 13.7761 8.33039C14.0992 7.91215 14.6967 7.39145 15.5722 7.25657L15.6081 7.25179L15.8389 7.22548L15.8724 7.22189C16.5575 7.16933 17.179 7.29659 17.6266 7.42637C18.1651 7.5826 18.6535 7.80308 19.034 8.00872C20.1239 8.59782 20.9982 9.44992 21.6397 10.4206C21.9122 9.97504 22.0463 9.71451 22.0929 9.53097L22.1311 9.33605C22.1601 9.14133 22.1616 8.94301 22.1407 8.79436L22.118 8.66163C22.1069 8.6089 22.0924 8.53498 22.0689 8.39736C22.0336 8.18965 21.9741 7.79542 22.0115 7.34147L22.0438 7.09275C22.1425 6.52912 22.4002 6.0955 22.6477 5.8001L22.8175 5.61475C22.9824 5.44945 23.1246 5.34215 23.1248 5.34211L23.1523 5.32059L23.242 5.25482L23.2659 5.23808C23.605 5.00422 23.9975 4.85809 24.4067 4.81357L24.6614 4.79683ZM24.506 5.72716L24.3146 5.75944C24.1262 5.80398 23.947 5.88364 23.7873 5.99382L23.6988 6.05959L23.5804 6.15764C23.5144 6.21606 23.4299 6.29676 23.352 6.38962C23.1603 6.61828 22.964 6.96317 22.9263 7.418C22.8986 7.75557 22.9427 8.05856 22.9742 8.2431C23.0015 8.40363 23.0135 8.46047 23.022 8.499L23.0483 8.64728C23.0982 8.97894 23.0739 9.39683 22.9825 9.75697C22.8819 10.1533 22.6045 10.6278 22.1981 11.2661L22.0331 11.5339C21.8748 11.8042 21.7347 12.0795 21.6133 12.359C21.5689 12.2568 21.5198 12.1483 21.4699 12.0326C20.913 10.7229 19.9327 9.53756 18.5976 8.81588C18.3459 8.67987 18.0427 8.53797 17.7115 8.41888L17.3707 8.30887C16.9817 8.19607 16.478 8.09683 15.9429 8.13787L15.7121 8.16418C15.1345 8.25313 14.7272 8.59962 14.502 8.89122C14.2872 9.16936 13.9223 9.82854 14.2174 10.6251L14.2843 10.7877C14.448 11.1508 14.6681 11.4202 14.8033 11.5782C15.0214 11.8329 15.0347 11.8316 15.0951 11.9154C15.0975 11.9187 15.101 11.9228 15.1035 11.9261C15.3378 12.2458 15.4349 12.4185 15.5447 12.7118C15.7602 13.2876 15.7159 13.6187 15.7002 14.6872C15.6947 15.0573 15.7141 15.4117 15.7564 15.7515C15.6267 15.6603 15.4913 15.5617 15.3486 15.4525C14.1099 14.5047 12.3623 14.0318 10.8405 14.1778L10.4686 14.2161C10.3131 14.2351 10.1336 14.2624 9.95319 14.301L9.69609 14.3644C9.39659 14.4483 8.98747 14.6042 8.63543 14.9108L8.54216 14.9957C8.07839 15.4508 7.94403 16.0473 7.98492 16.524C8.02445 16.9842 8.25558 17.5789 8.83752 17.9481C9.0884 18.1141 9.32577 18.2095 9.47487 18.265C9.53352 18.2869 9.63869 18.3242 9.66022 18.332C9.69235 18.3437 9.71224 18.3508 9.72479 18.3559C10.026 18.4944 10.3196 18.7058 10.6001 18.9849C11.0185 19.4013 11.1516 19.7663 11.668 20.6614C11.8347 20.9504 12.0176 21.2251 12.2132 21.4853C12.1037 21.4731 11.9891 21.4589 11.8688 21.4434L11.8306 21.4387L11.5627 21.4171C10.2132 21.3326 8.72398 21.6464 7.52334 22.4646L7.50421 22.479L7.11319 22.7696C6.96184 22.8889 6.79586 23.0286 6.63607 23.1809L6.38495 23.438C6.2992 23.533 6.21321 23.6367 6.13264 23.7477L6.0286 23.9008C5.92029 24.0706 5.8048 24.2896 5.73085 24.5501L5.69378 24.7032L5.66508 24.8777C5.61193 25.3068 5.66797 25.8761 6.08959 26.3701C6.52377 26.8786 7.09041 26.9957 7.36909 27.0278C7.77076 27.0739 8.18333 27.0059 8.40703 26.9596L8.56009 26.9261C9.27294 26.7665 9.94588 26.9981 11.0019 27.6735C11.3562 27.9001 11.7172 28.0939 12.0829 28.2559C12.0182 28.2837 11.9482 28.313 11.8748 28.3455C11.4284 28.5433 10.9257 28.7951 10.3813 29.2149L10.3753 29.2197L10.129 29.4218C9.56697 29.908 9.09635 30.4921 8.74066 31.1461L8.73468 31.1568C8.60655 31.397 8.34295 31.9659 8.18103 32.5643L8.12243 32.8023C8.06599 33.0599 8.02189 33.3702 8.03634 33.6907C8.05424 34.0874 8.19092 34.8928 8.97144 35.3768C9.53973 35.7288 10.1049 35.6593 10.4339 35.5657L10.5607 35.5251C10.7133 35.4702 10.8502 35.4011 10.966 35.3326L11.2458 35.1436C11.3993 35.0287 11.5336 34.9088 11.6213 34.8291L11.7325 34.7287L11.7505 34.7119C12.0195 34.4926 12.2843 34.3511 12.5875 34.2635C12.5947 34.2615 12.6019 34.2597 12.609 34.2575C13.0145 34.1339 13.3426 34.1437 13.9376 34.1619L14.6347 34.1786C15.0196 34.1838 15.4014 34.1565 15.7767 34.0997C15.7079 34.194 15.6338 34.2936 15.5531 34.3986L15.516 34.4501C14.5209 35.8613 14.0625 37.6124 14.331 39.3671C14.365 39.5895 14.4342 39.9441 14.551 40.2999C14.6094 40.4777 14.6924 40.6943 14.8105 40.9085C14.9047 41.0794 15.0696 41.339 15.339 41.565L15.461 41.6595C15.9028 41.9747 16.5494 42.1569 17.2069 41.8951L17.3384 41.8365C17.7325 41.6434 17.9772 41.3472 18.1169 41.1345L18.2233 40.9564C18.4091 40.6138 18.5854 40.0084 18.533 40.1588C18.534 40.1559 18.5344 40.1521 18.5354 40.1492C18.6538 39.803 18.8435 39.4851 19.0914 39.2165L19.0926 39.2153C19.2817 39.01 19.5925 38.7771 19.9512 38.554L20.3231 38.3352L20.6842 38.1283C21.0064 37.9361 21.3088 37.7336 21.5918 37.5161C21.5783 37.6111 21.5633 37.7156 21.5488 37.8318C21.3295 39.5259 21.7528 41.2411 22.735 42.6388L22.7398 42.646C22.9071 42.8814 23.1535 43.1919 23.4573 43.4747C23.7306 43.7291 24.2086 44.1126 24.8432 44.252C24.9638 44.2784 25.0871 44.2903 25.2103 44.2878L25.3335 44.2807C25.619 44.252 26.1989 44.1486 26.6548 43.6588C27.1269 43.1515 27.1905 42.5455 27.1259 42.0876L27.0925 41.901C26.985 41.4378 26.952 41.0694 26.9717 40.7507L27.0076 40.4469C27.0602 40.1545 27.1694 39.8405 27.3699 39.47L27.6019 39.079C27.9151 38.5934 28.1828 38.0967 28.3947 37.5818C28.4385 37.6851 28.4853 37.7958 28.5346 37.9143C28.5402 37.9279 28.5465 37.9415 28.5525 37.9549C29.2355 39.4729 30.4428 40.8194 32.1327 41.4921C32.3852 41.5925 32.7445 41.7072 33.1109 41.7791C33.2034 41.7972 33.3057 41.8133 33.4134 41.8269L33.7494 41.8544C33.9307 41.8597 34.2186 41.853 34.5303 41.7575L34.6642 41.7109C34.8824 41.6267 35.1318 41.4881 35.3506 41.2613L35.4415 41.1584C35.6269 40.934 35.7421 40.6849 35.8014 40.4386L35.8433 40.1934C35.885 39.7702 35.7714 39.4127 35.6711 39.1842L35.5814 39.0012C35.4797 38.8119 35.3359 38.6144 35.2226 38.4691L35.0421 38.2515C34.4945 37.5719 34.2743 36.8562 34.2792 35.8886L34.2947 35.4581C34.2955 35.4464 34.2954 35.4339 34.2959 35.4222C34.313 35.0125 34.2945 34.6128 34.2445 34.2241C34.3128 34.2761 34.3874 34.3325 34.4693 34.3939C35.697 35.3207 37.253 35.9298 38.9356 35.8551L39.0013 35.8515C39.157 35.838 39.4162 35.8191 39.6973 35.7762L39.9831 35.7248C40.3164 35.6539 40.7779 35.5171 41.2088 35.2094L41.3917 35.0659C41.9591 34.5793 42.0354 33.9186 42.0111 33.552C41.989 33.2177 41.8355 32.4961 41.1143 32.092L40.7831 31.9114C40.0824 31.5363 39.842 31.4574 39.5227 31.1114L39.3768 30.944C39.0462 30.5413 38.7849 30.0618 38.4321 29.4014L38.4058 29.3548L38.3018 29.1802C38.1597 28.9484 38.009 28.7291 37.8498 28.5225L38.1212 28.55C39.616 28.6738 41.0585 28.362 42.3603 27.5503L42.6186 27.3817L42.786 27.2598C42.9579 27.1304 43.2189 26.9207 43.4724 26.669L43.7199 26.4048C43.8756 26.2246 44.1782 25.852 44.3178 25.3513L44.3669 25.1289C44.4181 24.8123 44.4007 24.4211 44.221 24.0323L44.1337 23.8661C43.8818 23.4398 43.5127 23.1957 43.2033 23.0601C42.9142 22.9334 42.6518 22.9221 42.5887 22.919C42.4794 22.9137 42.3805 22.9183 42.3125 22.9226C42.174 22.9315 42.0331 22.95 41.925 22.9657L41.6141 23.0147L41.5029 23.0338L41.4814 23.0374C41.4765 23.0382 41.4721 23.0392 41.4683 23.0398L41.4551 23.041C41.1339 23.0844 40.8069 23.0696 40.4901 22.998C39.7622 22.8217 39.4694 22.591 38.474 22.0413C38.2735 21.9306 38.0719 21.8314 37.8701 21.7424C37.9344 21.7144 38.0016 21.6846 38.0722 21.6539C39.7428 20.9268 41.469 19.3187 41.882 17.2067L41.894 17.1362L41.9071 17.0561L41.9322 16.8946C41.9409 16.8345 41.9512 16.7585 41.9585 16.6722L41.9705 16.3876C41.968 16.0908 41.9037 15.0735 40.905 14.5772C40.3518 14.3021 39.8186 14.3724 39.4725 14.4887C39.1533 14.5961 38.9093 14.7665 38.7717 14.8714C38.6242 14.9838 38.4952 15.1035 38.4226 15.1703C38.3182 15.2664 38.3185 15.2659 38.3341 15.254C37.8113 15.6526 37.2505 15.8149 36.4316 15.8113L36.0645 15.8005C35.4258 15.7651 34.813 15.7788 34.2194 15.8651C34.2767 15.787 34.337 15.7025 34.4035 15.6128C35.5549 14.059 36.1874 11.7411 35.4259 9.65653C35.4025 9.59255 35.3736 9.51611 35.3374 9.43291L35.2083 9.16625C35.1421 9.04371 35.0302 8.85495 34.8615 8.66641L34.6738 8.48106C34.3771 8.22278 33.7751 7.87232 33.0056 8.08047C32.347 8.2587 31.9825 8.74841 31.811 9.02754L31.6819 9.27268C31.6479 9.34789 31.6229 9.41362 31.6054 9.46161L31.5133 9.74262L31.4595 9.92319L31.4523 9.94591L31.3399 10.1719C31.2178 10.3939 31.0687 10.6006 30.8951 10.7865L30.8903 10.7925C30.4616 11.2562 30.1881 11.3577 29.429 11.785L29.0715 11.9907C28.8248 12.1354 28.5891 12.2927 28.366 12.4619C28.3769 12.3887 28.3891 12.312 28.4018 12.2311L28.4413 11.9225C28.6021 10.3763 28.1799 8.65184 27.2647 7.37496C27.1173 7.16715 26.8394 6.78827 26.479 6.46018C26.1806 6.18866 25.4724 5.6221 24.506 5.72716ZM24.6746 7.28049C25.1962 7.22378 25.7209 7.89946 25.9899 8.27897L26.1227 8.47508C26.7617 9.47845 27.04 10.8328 26.8581 11.9883L26.7995 12.3746C26.677 13.2393 26.6615 13.8678 26.9705 14.796C27.1333 15.2843 27.0968 16.2054 27.0028 16.726C27.1381 16.7729 27.3072 16.8115 27.4488 16.848C27.6597 15.4098 28.4308 14.2672 29.6192 13.489L29.8619 13.3384C30.7046 12.8441 31.3393 12.6079 32.0371 11.8532C32.3886 11.4767 32.6747 11.0433 32.8837 10.5725C32.9632 10.3907 33.0249 10.0951 33.1061 9.91482L33.142 9.84546C33.5243 9.22236 33.8354 9.85606 33.9587 10.1934L34.0065 10.3321C34.4718 11.783 34.0366 13.4847 33.1491 14.6824L32.7677 15.2014C32.4109 15.7044 32.1319 16.1842 31.9761 16.8612C31.8054 17.5375 31.3665 18.267 30.8747 18.7744L31.2383 19.1356C32.6647 17.7221 33.9816 17.2493 35.9772 17.3598L36.208 17.3694C37.3496 17.4044 38.3437 17.2103 39.28 16.4965C39.5109 16.3205 39.91 15.8281 40.2103 15.9775L40.2617 16.0098C40.4975 16.1919 40.3842 16.6622 40.3478 16.9066C40.0599 18.3786 38.7914 19.6371 37.4492 20.2213L36.8346 20.4904C36.2577 20.751 35.7749 21.0147 35.243 21.5236L35.0397 21.7029C34.5422 22.1072 33.9013 22.408 33.2926 22.5794L33.3943 22.9633C34.9121 22.5425 36.3285 22.6402 37.7195 23.4081L38.3221 23.7501C38.8882 24.0731 39.3801 24.3367 40.123 24.5166L40.3143 24.5573C40.6023 24.6103 40.8951 24.6332 41.1872 24.6266L41.4802 24.6111L41.6739 24.5884C41.849 24.5637 42.4632 24.4417 42.5768 24.4915L42.6485 24.5286C43.3219 24.9281 41.9083 25.974 41.7349 26.0927L41.5364 26.223C40.6681 26.765 39.7227 27.0189 38.7179 27.0134L38.2504 26.9931C37.7058 26.9479 37.1953 26.8445 36.6492 26.8831L36.4734 26.8974C36.064 26.9391 35.6684 27.0311 35.2597 27.1007L35.0062 27.1366C34.4361 27.2024 34.0039 27.1377 33.4098 27.0266L33.295 27.4332C34.9308 27.8184 36.1996 28.6615 37.0534 30.138C37.441 30.8638 37.8126 31.563 38.3747 32.1721C38.9635 32.8101 39.6255 33.05 40.3502 33.4552C40.4717 33.5233 40.4922 33.7783 40.3741 33.8797L40.2988 33.9383C39.9084 34.2162 39.324 34.2548 38.8662 34.2946C37.6087 34.3504 36.4 33.8952 35.4068 33.1443C35.0903 32.907 34.759 32.6349 34.4155 32.4304L34.2672 32.3467C33.8517 32.1272 33.3765 31.9893 32.9303 31.8396C32.2671 31.6172 31.8234 31.2925 31.316 30.8268C31.207 30.9136 31.0981 31.0291 30.9979 31.1281C32.1706 32.2906 32.8021 33.7278 32.7342 35.3565C32.6402 36.8172 32.8865 38.0663 33.826 39.232C33.9764 39.4186 34.5937 40.0631 34.101 40.2532C33.8574 40.3471 33.3886 40.2573 33.026 40.1492L32.7115 40.0416C31.4615 39.5443 30.5236 38.5295 29.9767 37.314C29.6056 36.422 29.3454 35.7991 28.7546 35.1209L28.4796 34.8255C28.0998 34.442 27.7567 33.6646 27.5409 33.149L27.1212 33.2411C27.6376 35.1302 27.3267 36.6235 26.2889 38.2323L26.1334 38.4823C25.3978 39.7197 25.2345 40.8102 25.5702 42.2562C25.6414 42.5629 25.4724 42.6954 25.178 42.7249L25.0931 42.7022C24.7758 42.5967 24.4622 42.2984 24.2238 42.0134L24.0133 41.7408C23.303 40.7301 22.9715 39.5039 23.0722 38.2778L23.0985 38.0326C23.1673 37.4819 23.2908 36.9182 23.2564 36.3621C23.2433 36.152 23.2082 35.9424 23.1631 35.7343L23.01 35.1161C22.8295 34.433 22.8568 33.9291 22.9706 33.2387C22.8576 33.1972 22.6484 33.1457 22.5257 33.112C22.05 35.0576 21.3295 35.9897 19.565 36.9684L19.1393 37.2183C18.7053 37.4872 18.2624 37.8106 17.9435 38.157L17.8 38.3208L17.5692 38.6246C17.3531 38.9387 17.1801 39.2822 17.0562 39.6446L16.9809 39.8921C16.8884 40.1778 16.7271 40.5538 16.4475 40.4338L16.3686 40.3884C16.1543 40.2354 16.0146 39.7982 15.9357 39.4437L15.8759 39.1304C15.6848 37.8803 15.9759 36.6187 16.652 35.5597L16.7919 35.3505C17.3912 34.5706 17.7485 34.0014 18.0248 33.1359L18.1384 32.7461C18.2733 32.2415 18.6974 31.6013 19.0233 31.1652C18.9319 31.0637 18.8215 30.9657 18.7207 30.8722C17.6741 32.0029 16.1957 32.6377 14.655 32.6169C13.7925 32.6066 12.9991 32.5049 12.1534 32.7628L11.9609 32.8238C11.5206 32.976 11.1309 33.2015 10.7639 33.5006L10.5714 33.6728C10.35 33.8739 10.0367 34.1377 9.83361 34.0674L9.79415 34.0495C9.26663 33.7221 9.93702 32.2229 10.1134 31.8923C10.3793 31.4035 10.7315 30.9666 11.1514 30.6032L11.3355 30.4525C11.8708 30.0398 12.3561 29.8367 12.8745 29.6167L13.4066 29.3823L13.7271 29.2244C13.9845 29.0899 14.4299 28.718 14.6754 28.5237C15.3492 27.9898 15.8758 27.6829 16.6939 27.4343C16.6546 27.2881 16.6147 27.1769 16.5635 27.035C14.9747 27.5057 13.5176 27.329 12.1224 26.5255L11.8437 26.3569C10.7236 25.6405 9.58026 25.0957 8.21929 25.4003L8.0746 25.4314C7.70138 25.5067 7.1103 25.5732 7.22439 25.0177C7.3174 24.5651 8.04536 24.0083 8.40344 23.7561C9.33138 23.1237 10.5576 22.8784 11.6703 22.9932C12.6094 23.1136 13.3545 23.1694 14.2437 23.0028L14.6347 22.9167C15.1896 22.7788 15.9932 22.8474 16.5623 22.9657C16.6051 22.8565 16.6551 22.6748 16.6903 22.5567C15.1493 22.2718 13.9977 21.4244 13.1806 20.1424L13.0216 19.8805C12.6584 19.251 12.3898 18.6568 11.9179 18.1096L11.7026 17.8776C11.3146 17.4913 10.8685 17.1598 10.3657 16.9305C10.1353 16.8292 9.90045 16.7823 9.68892 16.6387C9.51006 16.5379 9.49269 16.2526 9.6363 16.1114C9.92677 15.8266 10.6132 15.7682 10.9816 15.7347C12.1264 15.6226 13.4828 15.9925 14.3991 16.6938L14.7172 16.9305C15.4458 17.4587 16.0843 17.804 17.0036 18.1C17.5762 18.2845 18.2264 18.7658 18.6908 19.1678C18.8213 19.0604 18.9279 18.9499 19.0472 18.8306C17.9225 17.7291 17.315 16.5718 17.2643 15.0244L17.2619 14.7099C17.274 13.8878 17.3337 13.2583 17.1184 12.4989L17.0084 12.1653C16.9118 11.9072 16.8141 11.699 16.6939 11.4945L16.5659 11.29L16.3626 11.0018C16.1445 10.6992 15.8141 10.4378 15.6822 10.0822C15.6256 9.92885 15.8003 9.73101 15.9501 9.70794C16.5596 9.61415 17.335 9.90995 17.855 10.191L18.0379 10.2951C18.9384 10.8385 19.6283 11.6892 20.0361 12.6532L20.1927 13.0167C20.3531 13.3855 20.5271 13.7641 20.7332 14.0845L20.8193 14.2125C21.0288 14.509 21.2971 14.8039 21.5249 15.0806C21.9514 15.6044 22.2709 16.2072 22.4659 16.854L22.9299 16.7428C22.3868 15.2002 22.5669 13.745 23.3508 12.3769L23.5158 12.1055C23.8486 11.5829 24.218 10.9927 24.4211 10.3967L24.4964 10.142C24.6341 9.59972 24.6774 8.97021 24.5933 8.4129C24.5515 8.13792 24.4603 7.8242 24.4832 7.54595C24.491 7.45327 24.5437 7.39022 24.6076 7.3343L24.6746 7.28049ZM25.5451 9.32051C25.5248 9.68171 25.4709 10.0385 25.3873 10.368C25.1739 11.2079 24.6644 12.0072 24.3003 12.579L24.3015 12.5802L24.1365 12.8529C23.4866 13.9973 23.3501 15.1691 23.7969 16.4379C23.8833 16.6834 23.8605 16.9543 23.7359 17.1828C23.6112 17.4112 23.3958 17.5758 23.1428 17.636L22.6788 17.7472C22.206 17.8597 21.7274 17.5836 21.587 17.1183C21.4269 16.5876 21.1648 16.0937 20.8158 15.6642L20.4606 15.2433C20.3267 15.0826 20.187 14.9084 20.0696 14.7422C20.0658 14.7368 20.0613 14.731 20.0576 14.7255L19.9727 14.5975C19.969 14.592 19.9644 14.5864 19.9608 14.5808C19.711 14.1924 19.5123 13.7538 19.3509 13.3826L19.3497 13.3802L19.1931 13.0167L19.1895 13.0107C18.8495 12.2072 18.2823 11.5183 17.568 11.0855L17.4927 11.0413C17.6369 11.2882 17.7551 11.5404 17.8681 11.8424C18.2867 12.9611 18.193 13.8597 18.1802 14.7231C18.1594 16.1406 18.6408 17.1474 19.6905 18.1753C19.8654 18.3468 19.9642 18.5809 19.9655 18.8259C19.9668 19.0711 19.87 19.3078 19.6965 19.4811C19.59 19.5876 19.447 19.7349 19.2744 19.877C18.9287 20.161 18.4289 20.1542 18.0905 19.8614C17.6396 19.471 17.1062 19.098 16.7214 18.9741C15.7002 18.6453 14.976 18.2529 14.1779 17.6743L14.1684 17.6671L13.8503 17.4304L13.8407 17.4232C13.2684 16.9852 12.4483 16.7023 11.6751 16.6459C11.9178 16.8252 12.1425 17.021 12.3496 17.2271C13.0766 17.9507 13.4609 18.8045 13.8168 19.4214C14.5236 20.6463 15.5096 21.4047 16.8577 21.6539C17.1139 21.7013 17.3375 21.8562 17.4735 22.0784C17.6094 22.3006 17.6447 22.5702 17.5704 22.8198C17.5486 22.893 17.479 23.1447 17.4173 23.3017C17.2537 23.7183 16.814 23.956 16.3758 23.8649C15.8541 23.7564 15.2113 23.7192 14.8559 23.8075C13.6261 24.1133 12.6761 24.047 11.5687 23.9056C10.7162 23.8191 9.8101 23.9943 9.11135 24.3994C10.3664 24.4342 11.4327 25.0038 12.3388 25.5833C13.5988 26.3888 14.8689 26.5797 16.3028 26.1549L16.4786 26.1202C16.8874 26.0819 17.2824 26.3229 17.4269 26.7229C17.4778 26.864 17.5307 27.0084 17.5811 27.1964C17.7096 27.675 17.4346 28.1692 16.9605 28.3133C16.4465 28.4694 16.0787 28.6457 15.6727 28.9255L15.2458 29.2436C15.1419 29.3258 14.9453 29.4873 14.7662 29.625C14.5952 29.7566 14.3613 29.9298 14.1528 30.0388C14.1462 30.0422 14.1391 30.0451 14.1325 30.0483L13.812 30.2062C13.8065 30.2089 13.8008 30.212 13.7953 30.2146C12.9317 30.6179 12.5027 30.712 11.8963 31.1796L11.7445 31.3027C11.4297 31.5765 11.1658 31.9038 10.9588 32.2665C11.1813 32.1458 11.4149 32.041 11.662 31.9556L11.6823 31.9485L11.8748 31.8875L11.8856 31.8839C12.9107 31.5714 13.934 31.6898 14.667 31.6985C15.9473 31.7157 17.1765 31.1886 18.0463 30.2492L18.1814 30.1285C18.3274 30.0227 18.5033 29.962 18.686 29.9551C18.9293 29.9459 19.1664 30.0335 19.3449 30.199C19.419 30.2677 19.5783 30.4086 19.7061 30.5506C19.9991 30.8763 20.0209 31.3643 19.7587 31.7153C19.4297 32.1556 19.1098 32.6682 19.0257 32.9828C18.6973 34.2108 18.267 34.9316 17.5548 35.8635L17.4257 36.0536C17.0059 36.711 16.7682 37.4558 16.7393 38.2144C16.8477 38.0477 16.9658 37.887 17.0933 37.7337L17.1088 37.7158L17.2535 37.5507L17.2678 37.534C17.7945 36.9622 18.5439 36.4851 19.1189 36.166C19.942 35.7096 20.4454 35.305 20.8002 34.8435C21.1543 34.3829 21.4127 33.7978 21.6337 32.8943L21.66 32.8058C21.7318 32.6029 21.8733 32.4304 22.0606 32.3204C22.2743 32.1948 22.5294 32.1614 22.7685 32.2271C22.8341 32.2451 23.1263 32.3174 23.2875 32.3766C23.7009 32.5287 23.9486 32.9534 23.877 33.3882C23.7747 34.0088 23.7622 34.3704 23.8973 34.8817L24.0611 35.5394C24.1134 35.7814 24.1572 36.0418 24.1735 36.3059C24.2149 36.9758 24.0638 37.7131 24.0097 38.1462L24.0085 38.151C23.8917 39.0545 24.0625 39.9671 24.488 40.7626C24.4943 40.5592 24.5116 40.357 24.5418 40.1552C24.6541 39.4053 24.9296 38.711 25.3442 38.0135L25.3538 37.998L25.5092 37.748L25.5176 37.7349C25.9886 37.0047 26.267 36.3433 26.3834 35.6829C26.499 35.0263 26.4634 34.319 26.2351 33.4839C26.1688 33.2413 26.2043 32.9816 26.3343 32.7664C26.4643 32.5512 26.6772 32.3985 26.9227 32.3443L27.3436 32.2522L27.5062 32.2307C27.8831 32.216 28.2387 32.4357 28.3887 32.7939C28.4946 33.0469 28.6217 33.3409 28.763 33.6118C28.9125 33.8984 29.0425 34.089 29.1325 34.1798C30.0569 35.1132 30.3945 35.9253 30.8185 36.9445C31.1977 37.7838 31.7806 38.4785 32.5154 38.9211C31.8928 37.7867 31.7365 36.5864 31.817 35.311C31.8708 33.9722 31.3599 32.7812 30.351 31.781C30.1769 31.6085 30.0795 31.3732 30.0795 31.1281C30.0798 30.883 30.1778 30.6476 30.3522 30.4752C30.4172 30.411 30.5846 30.2355 30.7444 30.1081L30.8831 30.0173C31.2216 29.8359 31.6462 29.8824 31.9378 30.15C32.3945 30.5691 32.7275 30.8032 33.2221 30.9691C33.5646 31.0839 34.0528 31.2287 34.5052 31.4403L34.6965 31.5347L34.7204 31.5479L34.8675 31.6316L34.8842 31.6411C35.2837 31.8789 35.6867 32.2063 35.9569 32.4088L35.9604 32.4112C36.6801 32.9554 37.5051 33.2956 38.3484 33.3643C38.1261 33.2019 37.9053 33.0161 37.7003 32.7939C37.0536 32.0932 36.6331 31.2993 36.2582 30.5972C35.5469 29.3673 34.5063 28.6613 33.0846 28.3264C32.8407 28.2689 32.6305 28.1143 32.5034 27.8983C32.3765 27.6825 32.3433 27.4242 32.4113 27.1832L32.5261 26.7767L32.5895 26.614C32.7698 26.255 33.1701 26.0475 33.5784 26.1238C34.2238 26.2445 34.564 26.2876 35.1055 26.1955C35.4382 26.1388 35.933 26.0282 36.3802 25.9827L36.4005 25.9815L36.5763 25.9671H36.5846C37.222 25.9221 37.9221 26.0436 38.3269 26.0771C39.2548 26.1539 40.1048 25.9833 40.8847 25.5414C40.638 25.5317 40.3917 25.505 40.1481 25.4601C40.1407 25.4587 40.1328 25.4581 40.1254 25.4565L39.9341 25.4159C39.925 25.4139 39.9156 25.4121 39.9066 25.4099C39.0353 25.1988 38.4526 24.8821 37.8665 24.5477L37.2758 24.2117C36.1205 23.5737 34.9555 23.4832 33.6394 23.8482C33.4028 23.9138 33.1492 23.8819 32.9363 23.7597C32.7235 23.6374 32.5684 23.4349 32.5058 23.1977L32.4042 22.8138C32.2763 22.3292 32.5614 21.8317 33.0439 21.6957C33.6371 21.5286 34.2271 21.2243 34.608 20.8599C35.2433 20.2521 35.8286 19.9371 36.4567 19.6533L36.4675 19.6486L37.0809 19.3795C37.8705 19.0358 38.5911 18.4307 39.0336 17.7305C38.1186 18.1931 37.165 18.3181 36.1793 18.2877H36.1685L35.9389 18.2782L35.927 18.277C35.0129 18.2263 34.3183 18.3132 33.7136 18.5377C33.1106 18.7616 32.5325 19.147 31.8852 19.7885C31.5271 20.1433 30.9493 20.1422 30.5913 19.7873L30.2278 19.4273C29.8706 19.0732 29.8647 18.4972 30.2147 18.1359C30.6118 17.7262 30.9595 17.1345 31.0852 16.6364C31.3442 15.5297 31.893 14.8358 32.4113 14.136C32.9183 13.4518 33.2301 12.593 33.2711 11.7659C33.1031 12.0183 32.9154 12.2576 32.7079 12.4798L32.7067 12.4786C31.888 13.3628 31.0524 13.7058 30.3271 14.1312C29.2238 14.7784 28.5393 15.7423 28.3576 16.9807C28.3198 17.2385 28.174 17.4691 27.957 17.6133C27.7402 17.7572 27.4724 17.8025 27.2204 17.7377C27.12 17.7118 26.8841 17.6575 26.7014 17.5942C26.2741 17.4461 26.0187 17.0085 26.0988 16.5634C26.1349 16.3631 26.1639 16.0563 26.1645 15.7467C26.1651 15.4179 26.1332 15.1864 26.1 15.0866C25.7316 13.9802 25.7558 13.1977 25.8907 12.2454L25.8919 12.237L25.9505 11.8496L25.9517 11.8448C26.0793 11.0339 25.9208 10.0849 25.5451 9.32051ZM35.9485 38.3734C35.9488 38.3722 35.9506 38.371 35.9509 38.3699C35.9514 38.3659 35.9516 38.3619 35.9521 38.3579C35.9515 38.3632 35.9492 38.3682 35.9485 38.3734ZM35.9569 38.2826C35.9581 38.2469 35.9581 38.2129 35.9557 38.1809C35.9583 38.2149 35.958 38.2486 35.9569 38.2826ZM35.9401 38.0745C35.9363 38.0542 35.9325 38.0354 35.9282 38.0183C35.933 38.0369 35.9364 38.0557 35.9401 38.0745ZM35.903 37.9406C35.8959 37.9206 35.8935 37.9075 35.8923 37.9047C35.8882 37.8946 35.8809 37.8854 35.8767 37.876C35.8864 37.8974 35.8952 37.9187 35.903 37.9406ZM35.8265 37.7791C35.8164 37.7622 35.8117 37.7504 35.811 37.7492C35.7906 37.7179 35.7725 37.6947 35.7703 37.6918L35.7584 37.6751C35.7848 37.7079 35.8053 37.744 35.8265 37.7791ZM37.8582 14.4708C37.8251 14.4904 37.8022 14.5053 37.802 14.5055C37.7971 14.5088 37.7923 14.5113 37.7888 14.5138C37.8108 14.4976 37.8349 14.4849 37.8582 14.4708Z" fill="#020101"/>
<path id="Vector_2" d="M19.4895 30.7319C16.3126 27.6841 16.2164 22.635 19.2749 19.4682C22.3334 16.3014 27.3826 16.2219 30.5394 19.2909C33.6812 22.3455 33.7603 27.366 30.7161 30.5181C27.6719 33.6702 22.6515 33.7659 19.4895 30.7319Z" fill="#EFB366"/>
<path id="Vector_3" d="M30.5392 19.2909C33.681 22.3455 33.7601 27.366 30.7159 30.5181C27.6717 33.6702 22.6513 33.7659 19.4893 30.7319L19.5063 30.7007L19.4707 30.6382C19.6393 30.6487 20.237 31.0237 20.4372 31.1208C21.8502 31.7932 23.4289 32.0378 24.9791 31.8247C30.6275 31.0708 33.836 25.1414 30.9813 20.0616C30.8897 19.8986 30.5375 19.4263 30.5392 19.2909Z" fill="#E76F51"/>
<path id="Vector_4" d="M23.5738 33.3674C23.8696 33.3904 24.1739 33.4397 24.4774 33.4619C25.15 33.5059 25.8253 33.4775 26.4918 33.3777C26.6771 33.8796 26.7699 34.4111 26.7657 34.946C26.7503 36.6182 25.8766 37.5359 25.2086 38.9341C25.067 39.2307 24.964 39.6238 24.8871 39.9473C24.7572 40.5886 24.7782 41.0862 24.8146 41.7241C23.9254 40.7217 23.5671 39.4705 23.7103 38.1411C23.7806 37.488 23.8954 36.8557 23.8517 36.1948C23.8211 35.731 23.6903 35.3193 23.5833 34.8709C23.461 34.3396 23.5066 33.8972 23.5738 33.3674Z" fill="#E76F51"/>
<path id="Vector_5" d="M34.9668 23.3257C36.6223 23.2724 37.4504 24.03 38.8022 24.716C39.7268 25.1855 40.7778 25.3244 41.8076 25.2361C41.3186 25.77 40.5596 26.0847 39.8713 26.2615C38.6096 26.529 38.0083 26.2329 36.8437 26.249C35.6108 26.2661 34.8997 26.779 33.5583 26.4079C33.7041 25.2666 33.72 24.7175 33.5308 23.5723C34.0129 23.4055 34.4639 23.3543 34.9668 23.3257Z" fill="#E76F51"/>
<path id="Vector_6" d="M15.1752 23.4718C15.514 23.4196 16.1016 23.4889 16.4361 23.556C16.2725 24.6587 16.2614 25.3076 16.4384 26.4219C16.4085 26.4329 16.3786 26.4434 16.3486 26.4539C15.1795 26.8562 13.7016 26.6931 12.6458 26.0899C12.0581 25.7539 11.5952 25.4478 10.9775 25.1462C10.0549 24.73 9.179 24.5918 8.18066 24.7644C9.72327 23.1811 11.3143 23.6587 13.2452 23.7228C13.8399 23.7425 14.5615 23.5253 15.1752 23.4718Z" fill="#EFB366"/>
<path id="Vector_7" d="M39.6191 17.0623L39.6445 17.1017C39.6079 17.2963 39.4709 17.5772 39.3811 17.7488C38.6201 19.2039 37.1116 19.6158 35.7822 20.3422C35.4753 20.51 35.0698 20.8745 34.7842 21.1131C34.2385 21.5685 33.7517 21.7836 33.0823 21.9839C32.9558 21.6449 32.8105 21.3612 32.6465 21.0416C32.3657 20.5018 32.0527 20.0814 31.6831 19.6039C32.6472 18.4924 34.0442 17.8978 35.501 17.9667C37.1262 18.0435 38.2065 17.9816 39.6191 17.0623Z" fill="#E76F51"/>
<path id="Vector_8" d="M16.8523 28.0269C16.9418 28.041 17.0233 28.3157 17.0699 28.4226C17.3947 29.1682 17.8108 29.7471 18.308 30.3804C18.0375 30.7236 17.5295 31.1155 17.1526 31.3325C16.4558 31.729 15.6743 31.9529 14.8732 31.9856C13.5562 32.0452 12.6752 31.7632 11.3189 32.4277C10.9216 32.627 10.6943 32.7788 10.3311 33.0259C10.5877 32.1504 10.9876 31.5081 11.7093 30.9424C12.3532 30.3687 13.3826 30.1865 14.061 29.7434C15.1246 29.0486 15.5707 28.4482 16.8523 28.0269Z" fill="#EFB366"/>
<path id="Vector_9" d="M25.2339 8.36115C25.355 8.49242 25.4666 8.6319 25.5684 8.7786C26.1668 9.64803 26.3758 10.7703 26.2469 11.8042C26.1839 12.307 26.053 13.1402 26.1045 13.6091C26.2447 14.8867 26.6499 15.2506 26.4051 16.6118C25.7561 16.5306 25.3047 16.4998 24.6517 16.5076C24.2484 16.5294 23.9388 16.5605 23.541 16.6118C23.0676 15.352 23.1443 13.8375 23.8737 12.7074C24.8909 11.1314 25.336 10.2866 25.2339 8.36115Z" fill="#EFB366"/>
<path id="Vector_10" d="M16.7158 10.4178C17.0469 10.5024 17.3647 10.6322 17.6604 10.8035C18.1373 11.088 18.5548 11.4619 18.8901 11.9046C19.5651 12.7973 19.6221 13.4294 20.1072 14.258C20.718 15.3013 21.519 15.6925 21.8682 17.0445C21.5704 17.1712 21.2756 17.3048 20.9839 17.4452C20.4198 17.7336 20.023 18.0124 19.5086 18.3779C18.4809 17.5324 17.8207 16.1541 17.8733 14.8363C17.9458 13.0185 17.8359 11.939 16.7158 10.4178Z" fill="#EFB366"/>
<path id="Vector_11" d="M33.0986 28.0261C34.4895 28.2766 35.707 29.1104 36.4434 30.3169C36.8638 31.0137 37.146 31.6877 37.6895 32.3274C38.1958 32.9236 38.6228 33.2058 39.2541 33.6294C38.7373 33.6921 38.4727 33.687 37.958 33.6121C37.1833 33.4714 36.4517 33.1536 35.8203 32.6831C35.4395 32.3945 34.9426 31.9727 34.5237 31.7683C33.3298 31.1863 32.7734 31.3767 31.7446 30.3704C32.0078 29.9812 32.2524 29.687 32.4929 29.2688C32.7412 28.8374 32.8894 28.4719 33.0986 28.0261Z" fill="#E76F51"/>
<path id="Vector_12" d="M11.0489 16.3422C11.102 16.3378 11.1553 16.3347 11.2086 16.3328C11.7969 16.3083 12.3839 16.4052 12.9331 16.6176C13.9719 17.0163 14.438 17.5773 15.2962 18.0491C16.45 18.6834 17.2029 18.6254 18.2778 19.6331C17.8827 20.1312 17.5338 20.6643 17.2354 21.2258C17.1063 21.4688 17.0048 21.6986 16.8926 21.9494C15.4877 21.6993 14.2534 20.8629 13.5852 19.6132C12.7756 18.0992 12.2796 17.2548 10.7012 16.3938C10.8142 16.3691 10.9337 16.3569 11.0489 16.3422Z" fill="#EFB366"/>
<path id="Vector_13" d="M30.519 31.5427C30.8269 31.7932 31.1174 32.1941 31.3413 32.5117C32.5173 34.1799 31.854 35.6667 32.2664 37.4678C32.4795 38.3977 32.8408 38.771 33.2544 39.5356C32.668 39.3853 32.1956 39.0959 31.7297 38.7161C30.6562 37.8179 30.4749 36.6914 29.8467 35.5425C29.718 35.3066 29.4053 34.9263 29.2131 34.7251C28.6672 34.1531 28.4028 33.6863 28.1631 32.938C29.1667 32.4851 29.6462 32.2351 30.519 31.5427Z" fill="#E76F51"/>
<path id="Vector_14" d="M33.4507 10.8288C33.5288 11.0252 33.5571 11.2525 33.5635 11.4631C33.5935 12.4837 33.2698 13.4242 32.6877 14.2553C32.3701 14.7088 32.0122 15.1723 31.7644 15.664C31.6301 15.93 31.5103 16.2961 31.4209 16.5837C31.1902 17.327 30.957 17.8031 30.4229 18.3699C29.9207 18.0146 29.6443 17.8075 29.1033 17.5073C28.7913 17.3366 28.3914 17.173 28.062 17.0385C28.2229 15.5291 29.0471 14.5304 30.3337 13.7859C30.8845 13.4672 31.4241 13.215 31.9197 12.8062C32.6421 12.2102 33.0271 11.6339 33.4507 10.8288Z" fill="#EFB366"/>
<path id="Vector_15" d="M19.5009 31.5618C20.4698 32.2642 20.807 32.4499 21.9222 32.927C21.6464 34.3767 20.9752 35.4236 19.6956 36.1826C18.7782 36.7266 18.196 36.9585 17.4374 37.7737C17.0213 38.2385 16.8012 38.655 16.5439 39.2085C16.2043 38.0618 16.6466 36.5796 17.3502 35.6536C18.0169 34.7761 18.4392 34.0071 18.7281 32.9333C18.8437 32.5034 19.2363 31.9229 19.5009 31.5618Z" fill="#E76F51"/>
</g>
<path id="Union" d="M24.6611 4.79672C25.9078 4.76323 26.7815 5.49342 27.0977 5.7811C27.5339 6.1783 27.859 6.62409 28.0146 6.8436C28.0177 6.84794 28.0195 6.85383 28.0225 6.85825C28.8217 7.98099 29.2835 9.3815 29.375 10.7616C29.8489 10.4999 29.9669 10.4377 30.2109 10.1747C30.2151 10.17 30.2194 10.1646 30.2236 10.16C30.3754 9.99742 30.4992 9.81153 30.5938 9.61118C30.6011 9.5865 30.6098 9.55822 30.6338 9.47836C30.6565 9.40267 30.694 9.27794 30.7422 9.14633C30.7749 9.05707 30.8348 8.90343 30.9268 8.72739L31.0293 8.54575C31.2444 8.19572 31.7697 7.46391 32.7666 7.19418C33.9448 6.87569 34.8542 7.42129 35.2764 7.78891C35.6739 8.13512 35.9055 8.52555 36.0156 8.72934C36.1432 8.96561 36.2329 9.18798 36.2891 9.34164C36.9821 11.2392 36.68 13.2543 35.9072 14.8748C35.9763 14.8776 36.046 14.8798 36.1152 14.8836C36.9923 14.9322 37.393 14.8042 37.749 14.5409C37.7619 14.5291 37.7794 14.5146 37.8008 14.495C37.8702 14.4311 38.0289 14.2832 38.2148 14.1414C38.3862 14.0108 38.7237 13.7716 39.1807 13.618C39.6778 13.451 40.4786 13.3395 41.3154 13.7557C41.3197 13.7579 41.3239 13.7603 41.3281 13.7625C42.819 14.5129 42.8858 16.0333 42.8887 16.3807C42.8908 16.6503 42.863 16.8841 42.8428 17.0252L42.8135 17.2069C42.8114 17.2192 42.8091 17.2303 42.8076 17.2391C42.8062 17.2476 42.8046 17.2541 42.8037 17.2596C42.8023 17.268 42.8019 17.2715 42.8018 17.2723C42.7984 17.2946 42.793 17.3372 42.7842 17.3827C42.4158 19.2654 41.1823 20.7607 39.7988 21.7284C40.1563 21.9277 40.3427 22.0159 40.6963 22.1024C40.9048 22.1492 41.1194 22.1588 41.3301 22.1307H41.334C41.3369 22.1303 41.3397 22.1301 41.3418 22.1297C41.3457 22.1291 41.3496 22.1283 41.3525 22.1278C41.3862 22.1222 41.4026 22.1191 41.4609 22.1092C41.5478 22.0946 41.6691 22.0746 41.7939 22.0565C41.9112 22.0395 42.0804 22.0178 42.2549 22.0067C42.3363 22.0015 42.4744 21.994 42.6338 22.0018C42.7228 22.0062 43.1251 22.0231 43.5732 22.2196C43.5756 22.2206 43.5777 22.2224 43.5801 22.2235C44.0071 22.412 44.5487 22.7638 44.9238 23.3983C45.3161 24.0623 45.3587 24.7497 45.2734 25.2762C45.131 26.1537 44.6135 26.7749 44.415 27.0047C44.0365 27.443 43.5905 27.8046 43.3389 27.994L43.3242 28.0047L43.3232 28.0038L43.1572 28.1258C43.151 28.1303 43.144 28.1342 43.1377 28.1385C42.0104 28.9104 40.7803 29.3378 39.5059 29.4579C39.7241 29.8524 39.8939 30.1262 40.0859 30.3602L40.1982 30.4891L40.3252 30.6092C40.3678 30.6428 40.4143 30.6722 40.4736 30.7069L41.2158 31.1014L41.2236 31.1053L41.5547 31.286C41.5577 31.2876 41.5596 31.2892 41.5625 31.2909C42.6782 31.9161 42.8976 33.0213 42.9287 33.4911C42.9634 34.016 42.8593 35.0164 41.9893 35.7625L41.9883 35.7645C41.3424 36.3176 40.6228 36.5276 40.1748 36.6229C39.7249 36.7186 39.2703 36.7501 39.082 36.7664C39.0458 36.7696 39.0105 36.7718 38.9775 36.7733C37.6038 36.8342 36.3168 36.4953 35.1973 35.9256C35.1977 36.7079 35.3748 37.1971 35.751 37.6668C35.7609 37.6782 35.7723 37.6901 35.7832 37.703C35.824 37.7509 35.8819 37.8212 35.9473 37.9051C36.0722 38.0654 36.2518 38.3105 36.3896 38.5672C36.5115 38.7941 36.8398 39.4413 36.7568 40.2831C36.7089 40.7681 36.5247 41.2889 36.1494 41.743C35.8144 42.1483 35.4159 42.3877 35.0752 42.5311C35.0492 42.5441 35.0225 42.5576 34.9951 42.5682C34.6005 42.7205 34.2286 42.7626 33.958 42.7713H33.7236C33.4261 42.7627 33.1514 42.7218 32.9355 42.6795C32.5092 42.5959 32.094 42.4654 31.793 42.3456L31.4346 42.1913C30.1386 41.5909 29.1206 40.6429 28.3887 39.5497C28.3831 39.5584 28.3787 39.5692 28.373 39.578C28.0658 40.0545 27.9554 40.3693 27.9121 40.6092C27.8803 40.786 27.8698 41.0103 27.918 41.3338L27.9873 41.6942L27.9951 41.7362L28.0303 41.9227L28.0361 41.9598C28.1265 42.6006 28.0426 43.5151 27.3271 44.284C26.6444 45.0176 25.7919 45.1574 25.4258 45.1942C25.1648 45.2203 24.9007 45.2053 24.6455 45.1493C23.7714 44.9572 23.1475 44.44 22.832 44.1463C22.4686 43.808 22.1813 43.4459 21.9912 43.1786L21.9834 43.1678C21.1646 42.0027 20.6882 40.6419 20.5918 39.2401C20.1941 39.4741 19.8998 39.6944 19.7686 39.8368L19.7656 39.8397L19.6523 39.9754C19.5544 40.1067 19.476 40.2526 19.4189 40.4071C19.4167 40.415 19.416 40.4237 19.4141 40.4305C19.397 40.4885 19.3697 40.5749 19.3359 40.6727C19.2881 40.8113 19.2131 41.0125 19.124 41.2059L19.0303 41.3954C18.9042 41.6274 18.528 42.2767 17.7412 42.662C16.6684 43.1868 15.6048 42.8909 14.9277 42.4081L14.9268 42.4071C14.426 42.0495 14.145 41.6047 14.0059 41.3524C13.8505 41.0706 13.7465 40.7953 13.6777 40.5858C13.6089 40.3761 13.5562 40.1691 13.5146 39.9832L13.4238 39.5057C13.1882 37.9655 13.444 36.4342 14.0859 35.0838C13.8131 35.0758 13.631 35.0686 13.4209 35.0692C13.2347 35.0697 13.1097 35.0802 12.9932 35.1053L12.877 35.1366C12.8665 35.1397 12.8572 35.1415 12.8506 35.1434C12.8441 35.1452 12.8385 35.1476 12.8359 35.1483C12.668 35.1978 12.5173 35.2745 12.3438 35.4139C12.3231 35.4328 12.2656 35.4857 12.2393 35.5096C12.145 35.5952 11.9845 35.7375 11.7959 35.8788C11.6715 35.9719 11.4561 36.1254 11.1738 36.2616L10.8701 36.3895C10.4631 36.5355 9.48456 36.7752 8.48828 36.1581C7.32135 35.4349 7.14216 34.2407 7.11914 33.7323C7.09373 33.1674 7.20608 32.6525 7.29492 32.3241C7.47479 31.6594 7.75867 31.0405 7.91309 30.7469L7.91895 30.7362L7.93359 30.7069C8.39858 29.8521 9.03517 29.1011 9.80176 28.5018L9.80762 28.4969L9.82031 28.4881L10.0527 28.3153C10.0908 28.2882 10.1294 28.2628 10.167 28.2372C9.39556 27.7855 9.05289 27.7567 8.76074 27.8221C8.68579 27.8391 7.97805 28.0224 7.26367 27.9403C6.88904 27.8971 6.04584 27.7327 5.3916 26.9666C4.6598 26.1092 4.67221 25.1176 4.79492 24.5194L4.80176 24.4872L4.84766 24.2987C4.9868 23.8089 5.22385 23.4361 5.38867 23.2088C5.59276 22.9276 5.8173 22.6925 6.00195 22.5164C6.36617 22.1692 6.74923 21.8881 6.96875 21.7332L6.9873 21.7186L7.00684 21.7049C8.07591 20.9765 9.32264 20.6017 10.5293 20.5086C10.2553 20.0124 10.1807 19.8631 9.95215 19.6356C9.7399 19.4244 9.53794 19.2844 9.35547 19.1981C9.35296 19.1972 9.34961 19.1962 9.34668 19.1952L9.34473 19.1942C9.34353 19.1938 9.3417 19.1939 9.33984 19.1932C9.3354 19.1916 9.32901 19.1897 9.32227 19.1873C9.30884 19.1826 9.29091 19.1754 9.27246 19.1688C9.23654 19.156 9.19011 19.1392 9.1543 19.1258C8.98097 19.0612 8.67527 18.9381 8.34473 18.7215C7.46335 18.1619 7.12789 17.2718 7.07031 16.6024C7.01092 15.9088 7.20341 15.0236 7.89941 14.3407C7.90623 14.334 7.91388 14.3276 7.9209 14.3211L8.0127 14.2352C8.01873 14.2296 8.02506 14.224 8.03125 14.2186C8.68582 13.6484 9.45414 13.4688 9.76074 13.4032C10.1797 13.3135 10.587 13.2794 10.752 13.2645L11.082 13.2411C12.3174 13.1849 13.6432 13.4662 14.793 14.036C14.8022 13.4535 14.7922 13.3226 14.6846 13.035C14.6108 12.838 14.56 12.7381 14.3623 12.4686L14.3525 12.4549C14.352 12.4543 14.3506 12.4523 14.3486 12.45C14.3445 12.4454 14.3394 12.4389 14.3301 12.4286C14.2886 12.383 14.2239 12.3118 14.1064 12.1747C13.9552 11.998 13.6647 11.6496 13.4463 11.1649C13.4418 11.1549 13.4368 11.1438 13.4326 11.1336L13.3672 10.9715C13.3636 10.9627 13.3598 10.9531 13.3564 10.9442C12.9018 9.71693 13.475 8.72012 13.7764 8.32993C14.0995 7.91175 14.697 7.39154 15.5723 7.25668L15.6084 7.2518L15.8389 7.22543L15.8721 7.22153C16.5572 7.16896 17.1794 7.29682 17.627 7.42661C18.1654 7.58282 18.6538 7.80303 19.0342 8.00864C20.124 8.59773 20.9982 9.45003 21.6396 10.4207C21.9121 9.9753 22.0461 9.71463 22.0928 9.5311L22.1309 9.33578C22.1598 9.1413 22.1615 8.94333 22.1406 8.79477L22.1182 8.66196C22.1071 8.60923 22.0928 8.53492 22.0693 8.39731C22.034 8.18963 21.9743 7.79552 22.0117 7.34164L22.0439 7.09262C22.1427 6.52905 22.3999 6.09503 22.6475 5.79965L22.8174 5.61508C22.9822 5.44978 23.1248 5.34168 23.125 5.34164L23.1523 5.32016L23.2422 5.25473L23.2656 5.23813C23.6047 5.00427 23.998 4.85785 24.4072 4.81332L24.6611 4.79672ZM25.334 44.2801V44.2811V44.2801ZM24.9961 44.2762C25.0169 44.2786 25.0377 44.2805 25.0586 44.2821C25.0377 44.2805 25.0169 44.2787 24.9961 44.2762ZM23.458 43.4745H23.457H23.458ZM22.7402 42.6463V42.6454V42.6463ZM16.5723 42.0194C16.5998 42.0192 16.6275 42.018 16.6553 42.0164C16.6275 42.018 16.5998 42.0192 16.5723 42.0194ZM16.4658 42.0164C16.4875 42.0176 16.5093 42.0181 16.5312 42.0184C16.5093 42.0181 16.4875 42.0176 16.4658 42.0164ZM17.3379 41.8368C17.1244 41.9412 16.9105 41.9961 16.7031 42.0135C16.8681 41.9998 17.0373 41.9629 17.207 41.8954C17.2508 41.8779 17.295 41.8582 17.3389 41.8368C17.3988 41.8074 17.4546 41.7745 17.5078 41.7411C17.4545 41.7746 17.3979 41.8074 17.3379 41.8368ZM16.2305 41.9881C16.2457 41.991 16.261 41.9935 16.2764 41.9959C16.261 41.9935 16.2457 41.991 16.2305 41.9881ZM15.9463 41.909C15.9817 41.9217 16.0172 41.9345 16.0537 41.9452C16.0172 41.9346 15.9817 41.9216 15.9463 41.909ZM15.7549 41.8289C15.7819 41.8419 15.808 41.8571 15.8359 41.869C15.808 41.8571 15.7819 41.8419 15.7549 41.8289ZM33.9043 41.8553C33.9095 41.8552 33.9147 41.8545 33.9199 41.8543C33.8565 41.8562 33.7993 41.8558 33.75 41.8543L33.9043 41.8553ZM33.9775 41.8504C34.02 41.8482 34.0647 41.8446 34.1113 41.8397C34.0647 41.8446 34.02 41.8483 33.9775 41.8504ZM32.4854 41.6161C32.6775 41.6772 32.8932 41.7364 33.1113 41.7791C33.2036 41.7972 33.3057 41.8135 33.4131 41.827C33.3056 41.8134 33.2037 41.7963 33.1113 41.7782C32.893 41.7353 32.6775 41.6768 32.4854 41.6161ZM34.2236 41.8241C34.2618 41.8182 34.301 41.8119 34.3408 41.8036C34.3009 41.8118 34.2618 41.8182 34.2236 41.8241ZM24.0127 41.7411C24.0223 41.7546 24.0338 41.7672 24.0439 41.7811C24.0339 41.7673 24.0232 41.7544 24.0137 41.7411H24.0127ZM17.5518 41.7108C17.59 41.6851 17.6264 41.6588 17.6611 41.6317C17.6264 41.6588 17.59 41.6851 17.5518 41.7108ZM34.6836 41.702C34.7345 41.6818 34.7866 41.6583 34.8398 41.6317C34.7866 41.6583 34.7345 41.6818 34.6836 41.702ZM17.9238 41.3856C17.8588 41.4587 17.7834 41.5331 17.6963 41.6043C17.7833 41.533 17.8589 41.4588 17.9238 41.3856ZM34.9072 41.5946C34.9499 41.5712 34.9932 41.5465 35.0361 41.5184C34.9933 41.5465 34.9499 41.5711 34.9072 41.5946ZM26.9688 41.0243C26.9735 41.1802 26.9904 41.3484 27.0205 41.5331C26.9904 41.3484 26.9736 41.1802 26.9688 41.0243ZM31.5957 41.2459C31.7512 41.3259 31.9113 41.4001 32.0762 41.4676C31.9113 41.4001 31.7513 41.3259 31.5957 41.2459ZM35.1729 41.4198C35.1815 41.4129 35.1906 41.4064 35.1992 41.3993C35.1906 41.4064 35.1815 41.4129 35.1729 41.4198ZM15.1494 41.3827C15.1593 41.3934 15.1694 41.4042 15.1797 41.4149C15.1694 41.4042 15.1593 41.3934 15.1494 41.3827ZM17.9688 41.3338C17.9811 41.3189 17.9924 41.3036 18.0039 41.2889C17.9924 41.3036 17.9812 41.3189 17.9688 41.3338ZM35.3926 41.2118C35.3747 41.2317 35.3582 41.2526 35.3398 41.2713C35.3432 41.2679 35.3472 41.265 35.3506 41.2616L35.3926 41.2118ZM14.9482 41.1278C14.9735 41.1644 15.0003 41.2026 15.0303 41.2411C15.0003 41.2026 14.9735 41.1644 14.9482 41.1278ZM35.5576 40.9979C35.5634 40.989 35.5696 40.9804 35.5752 40.9715C35.5696 40.9804 35.5634 40.989 35.5576 40.9979ZM27.0527 40.2459C27.0349 40.3142 27.0196 40.3814 27.0078 40.4471C26.9789 40.608 26.9642 40.7796 26.9668 40.9696C26.9658 40.8939 26.9673 40.8212 26.9717 40.7508L27.0078 40.4471C27.0197 40.3813 27.0348 40.3143 27.0527 40.2459ZM35.7402 40.6366C35.7436 40.6275 35.7468 40.6183 35.75 40.6092C35.7468 40.6183 35.7436 40.6275 35.7402 40.6366ZM35.8428 40.1932H35.8438H35.8428ZM27.3701 39.4696C27.2697 39.6551 27.1926 39.8266 27.1338 39.9881C27.1927 39.8267 27.2698 39.6549 27.3701 39.4696ZM32.7109 40.0418H32.7119C32.6338 40.0108 32.5561 39.9773 32.4805 39.9422C32.5561 39.9773 32.6328 40.0108 32.7109 40.0418ZM14.332 39.367C14.2649 38.9285 14.2421 38.4902 14.2627 38.0575C14.242 38.4903 14.264 38.9285 14.3311 39.367C14.3455 39.4611 14.3686 39.5784 14.3965 39.7098C14.3687 39.5784 14.3464 39.4611 14.332 39.367ZM35.752 39.4032C35.7464 39.3859 35.7411 39.3689 35.7354 39.3524C35.7411 39.3689 35.7464 39.3859 35.752 39.4032ZM25.7676 39.1942C25.7701 39.1883 25.7728 39.1825 25.7754 39.1766C25.7728 39.1825 25.7701 39.1883 25.7676 39.1942ZM33.8262 39.2323V39.2313V39.2323ZM19.2363 39.075C19.1832 39.1229 19.1347 39.1692 19.0928 39.2147L19.0918 39.2166L19.0928 39.2157C19.1348 39.17 19.1831 39.123 19.2363 39.075ZM35.5811 39.0018V39.0008V39.0018ZM26.4756 37.9325C26.4165 38.0322 26.3539 38.1318 26.2891 38.2323C26.2469 38.2976 26.207 38.3632 26.168 38.4276L26.2891 38.2332C26.354 38.1326 26.4164 38.0323 26.4756 37.9325ZM35.9482 38.3739C35.9485 38.3727 35.9509 38.3711 35.9512 38.37C35.9517 38.3661 35.9517 38.3621 35.9521 38.3582C35.9515 38.3634 35.9489 38.3687 35.9482 38.3739ZM21.5918 37.5155C21.3089 37.7329 21.0067 37.9356 20.6846 38.1278V38.1288C20.8455 38.0327 21.0013 37.9336 21.1523 37.8319C21.3036 37.73 21.4502 37.6252 21.5918 37.5164V37.5155ZM35.9033 37.9403C35.8965 37.9213 35.8939 37.9086 35.8926 37.9051C35.8885 37.895 35.8812 37.8852 35.877 37.8758C35.8866 37.8971 35.8954 37.9185 35.9033 37.9403ZM35.8262 37.7791C35.8162 37.7623 35.8123 37.75 35.8115 37.7489C35.7918 37.7184 35.7735 37.6961 35.7705 37.6922L35.8262 37.7791ZM34.3799 36.9061C34.4201 37.0822 34.4735 37.2498 34.54 37.412C34.4736 37.2498 34.42 37.0822 34.3799 36.9061ZM14.6328 36.1629V36.1639V36.1629ZM39.0137 35.8495C39.1047 35.8416 39.228 35.8312 39.3691 35.8163C39.228 35.8312 39.1047 35.8416 39.0137 35.8495ZM37.1064 35.6698C37.3124 35.7208 37.5219 35.7616 37.7344 35.7928C37.5219 35.7616 37.3123 35.7209 37.1064 35.6698ZM39.9834 35.7245C40.0738 35.7052 40.1733 35.6803 40.2793 35.6493C40.1733 35.6802 40.0737 35.7052 39.9834 35.7245ZM9.93945 35.6385C9.97446 35.6378 10.0086 35.6362 10.042 35.6336C10.0086 35.6362 9.97446 35.6377 9.93945 35.6385ZM9.7334 35.6317C9.77489 35.6355 9.81553 35.6376 9.85547 35.6385C9.81553 35.6376 9.77489 35.6355 9.7334 35.6317ZM10.126 35.6258C10.1695 35.6206 10.2111 35.6137 10.251 35.6063C10.2111 35.6137 10.1695 35.6206 10.126 35.6258ZM9.59082 35.6141C9.59701 35.6152 9.60321 35.616 9.60938 35.617C9.60321 35.616 9.59701 35.6152 9.59082 35.6141ZM10.2842 35.6004C10.3335 35.5904 10.3796 35.58 10.4219 35.5682C10.3796 35.58 10.3334 35.5904 10.2842 35.6004ZM9.37793 35.5623C9.38901 35.5658 9.4001 35.5689 9.41113 35.5721C9.4001 35.5689 9.38901 35.5658 9.37793 35.5623ZM40.5332 35.5643C40.5622 35.5534 40.5916 35.5422 40.6211 35.5301C40.5916 35.5422 40.5622 35.5534 40.5332 35.5643ZM10.998 35.3114C10.9314 35.3521 10.8581 35.3954 10.7773 35.4344C10.845 35.4018 10.908 35.3671 10.9658 35.3329L10.998 35.3114ZM40.6719 35.5086C40.7166 35.4894 40.7614 35.4683 40.8066 35.4461C40.7614 35.4683 40.7166 35.4894 40.6719 35.5086ZM9.10254 35.45C9.13326 35.4657 9.16378 35.4805 9.19434 35.494C9.16379 35.4805 9.13325 35.4658 9.10254 35.45ZM34.2451 34.2235C34.3134 34.2756 34.3879 34.332 34.4697 34.3934C35.0068 34.7988 35.6062 35.1441 36.252 35.3973C35.6063 35.1439 35.0067 34.7988 34.4697 34.3934L34.2451 34.2235ZM8.97168 35.3768C9.01112 35.4012 9.05051 35.4237 9.08984 35.4442C9.05076 35.4238 9.01185 35.4011 8.97266 35.3768C8.95012 35.3628 8.9287 35.3473 8.90723 35.3329C8.92852 35.3472 8.94935 35.363 8.97168 35.3768ZM40.8467 35.4266C40.897 35.4011 40.9476 35.3741 40.998 35.3446C40.9476 35.3741 40.897 35.4011 40.8467 35.4266ZM41.209 35.2088C41.1509 35.2504 41.0921 35.2885 41.0332 35.3241C41.0919 35.2886 41.151 35.2512 41.209 35.2098L41.3916 35.0663L41.209 35.2088ZM8.27246 34.618C8.3122 34.6963 8.35837 34.7746 8.41211 34.8514C8.35837 34.7746 8.3122 34.6963 8.27246 34.618ZM12.5869 34.2635C12.4353 34.3073 12.2937 34.3648 12.1562 34.4383L12.3672 34.3397C12.4387 34.3107 12.5122 34.2854 12.5879 34.2635C12.595 34.2615 12.6023 34.2598 12.6094 34.2577L12.5869 34.2635ZM15.5527 34.3983H15.5537H15.5527ZM37.9346 34.244C38.011 34.2557 38.0879 34.2653 38.165 34.2733C38.0879 34.2652 38.011 34.2557 37.9346 34.244ZM39.4199 34.2362C39.3899 34.2405 39.36 34.2442 39.3301 34.2479C39.36 34.2442 39.3899 34.2405 39.4199 34.2362ZM39.6221 34.202C39.6026 34.2059 39.583 34.2092 39.5635 34.2127C39.583 34.2092 39.6026 34.2059 39.6221 34.202ZM13.9375 34.162L14.6348 34.1786L13.9385 34.162C13.9362 34.1619 13.9339 34.1611 13.9316 34.161C13.9336 34.161 13.9355 34.1619 13.9375 34.162ZM9.85449 34.0721C9.86502 34.0746 9.8757 34.0751 9.88672 34.076C9.87571 34.0751 9.86501 34.0746 9.85449 34.0721ZM9.96777 34.0721V34.0731V34.0721ZM9.84375 34.0692C9.84275 34.0689 9.84181 34.0685 9.84082 34.0682C9.83864 34.0675 9.83614 34.068 9.83398 34.0672L9.84375 34.0692ZM10.2168 33.9559C10.2073 33.9621 10.198 33.9686 10.1885 33.9745C10.198 33.9686 10.2073 33.9621 10.2168 33.9559ZM40.4121 33.8358H40.4131H40.4121ZM36.3955 33.7547H36.3965H36.3955ZM8.03809 33.4207C8.03728 33.4373 8.03667 33.4539 8.03613 33.4706C8.03668 33.4539 8.03727 33.4373 8.03809 33.4207ZM8.07129 33.0877C8.06074 33.1598 8.05318 33.2343 8.04688 33.3104C8.05326 33.2343 8.06067 33.1598 8.07129 33.0877ZM39.3115 32.9002V32.9012V32.9002ZM8.73438 31.1571C8.60618 31.3974 8.34251 31.9662 8.18066 32.5643L8.12207 32.8026C8.10502 32.8804 8.09067 32.9634 8.07715 33.0497C8.10573 32.8683 8.14417 32.7028 8.18164 32.5643C8.34356 31.9659 8.60723 31.3972 8.73535 31.1571L8.74121 31.1463L8.73438 31.1571ZM32.2139 32.8045V32.8055V32.8045ZM41.1133 32.0916L41.1143 32.0926C41.2043 32.1431 41.2861 32.1977 41.3594 32.2567C41.2861 32.1976 41.2044 32.1422 41.1143 32.0916L40.7832 31.911L41.1133 32.0916ZM31.875 31.2938H31.876H31.875ZM9.05957 30.6229C9.018 30.684 8.97884 30.7468 8.93945 30.8094C8.97885 30.7468 9.018 30.684 9.05957 30.6229ZM9.23633 30.3768C9.19532 30.4312 9.1564 30.4871 9.11719 30.5428C9.1564 30.4871 9.19532 30.4312 9.23633 30.3768ZM9.42383 30.1414C9.37846 30.1959 9.3345 30.2515 9.29102 30.3075C9.33451 30.2515 9.37845 30.1959 9.42383 30.1414ZM38.4062 29.3553L38.4316 29.4022L38.4326 29.4012L38.4062 29.3543L38.3018 29.1805L38.4062 29.3553ZM9.62305 29.9149C9.58061 29.9611 9.53808 30.0071 9.49707 30.0545C9.53809 30.0071 9.5806 29.961 9.62305 29.9149ZM12.1279 29.9539C12.0881 29.9742 12.0487 29.9959 12.0088 30.0174C12.0487 29.9959 12.0881 29.9742 12.1279 29.9539ZM9.85645 29.6737C9.80123 29.7276 9.74648 29.7819 9.69336 29.8377C9.74649 29.7819 9.80123 29.7276 9.85645 29.6737ZM12.874 29.617C12.8482 29.628 12.8226 29.6393 12.7969 29.6502C12.9943 29.5664 13.1957 29.481 13.4062 29.3827L12.874 29.617ZM10.1289 29.4217C10.0529 29.4875 9.97889 29.5555 9.90625 29.6248C9.97889 29.5555 10.0529 29.4875 10.1289 29.4217ZM36.1328 28.9334C36.2715 29.0708 36.4042 29.2171 36.5303 29.3729C36.4042 29.2171 36.2715 29.0708 36.1328 28.9334ZM38.5098 28.5711C38.575 28.5732 38.6401 28.5747 38.7051 28.575C38.6401 28.5747 38.575 28.5732 38.5098 28.5711ZM38.8652 28.5731C38.8978 28.5726 38.9304 28.5731 38.9629 28.5721C38.9304 28.5731 38.8978 28.5726 38.8652 28.5731ZM39.1621 28.5633C39.1934 28.5615 39.2246 28.5597 39.2559 28.5575C39.2246 28.5597 39.1934 28.5615 39.1621 28.5633ZM39.3975 28.5457C39.4516 28.5408 39.5056 28.5353 39.5596 28.5291C39.5056 28.5353 39.4516 28.5408 39.3975 28.5457ZM39.6777 28.5145C39.727 28.508 39.7761 28.5006 39.8252 28.493C39.7761 28.5006 39.727 28.508 39.6777 28.5145ZM11.875 28.3456C11.7635 28.3949 11.6485 28.4478 11.5303 28.5057L11.876 28.3456C11.9493 28.3131 12.0184 28.2835 12.083 28.2557L11.875 28.3456ZM39.9678 28.4696C40.0131 28.4616 40.0583 28.4531 40.1035 28.4442C40.0583 28.4531 40.0131 28.4616 39.9678 28.4696ZM40.2422 28.4159C40.2875 28.4059 40.3328 28.3955 40.3779 28.3846C40.3328 28.3955 40.2875 28.4059 40.2422 28.4159ZM40.5352 28.3436C40.5658 28.3354 40.5964 28.3269 40.627 28.3182C40.5964 28.3269 40.5658 28.3354 40.5352 28.3436ZM40.8096 28.2645C40.8406 28.2548 40.8714 28.2444 40.9023 28.2342C40.8714 28.2444 40.8406 28.2547 40.8096 28.2645ZM41.0605 28.1805C41.1095 28.1629 41.1583 28.1446 41.207 28.1258C41.1583 28.1446 41.1095 28.1629 41.0605 28.1805ZM41.3242 28.0789C41.3794 28.0565 41.4345 28.0337 41.4893 28.0096C41.4345 28.0337 41.3794 28.0565 41.3242 28.0789ZM9.09375 26.8807C9.22887 26.8881 9.36623 26.9099 9.50879 26.9461C9.55607 26.9582 9.60383 26.9719 9.65234 26.9872C9.94435 27.0789 10.2605 27.2293 10.623 27.4413C10.7439 27.5119 10.87 27.5893 11.002 27.6737C10.2096 27.1669 9.63334 26.9101 9.09375 26.8807ZM42.6182 27.3817C42.2818 27.612 41.9349 27.8064 41.5801 27.9686C41.8449 27.8476 42.1057 27.7094 42.3604 27.5506L42.6191 27.3817L42.7861 27.2596L42.6182 27.3817ZM35.0059 27.1366C35.0873 27.1272 35.1719 27.1154 35.2598 27.1004L35.0059 27.1366ZM33.8867 27.1092V27.1082L33.8486 27.1014C33.779 27.0908 33.708 27.0781 33.6348 27.0653L33.4102 27.0272L33.8867 27.1092ZM7.6084 27.0409C7.63922 27.0413 7.66981 27.0414 7.7002 27.0409C7.66981 27.0414 7.63922 27.0413 7.6084 27.0409ZM7.1123 26.9832C7.21155 27.0067 7.29939 27.0201 7.36914 27.0282C7.42963 27.0351 7.49048 27.0377 7.55078 27.0399C7.49044 27.0376 7.42966 27.0341 7.36914 27.0272C7.29947 27.0192 7.21137 27.0066 7.1123 26.9832ZM43.0615 27.0399C43.0973 27.0101 43.1343 26.9788 43.1719 26.9461C43.1343 26.9788 43.0973 27.01 43.0615 27.0399ZM8.95996 26.8778C8.82647 26.8799 8.69408 26.8957 8.56055 26.9256C8.51289 26.9363 8.36397 26.9712 8.16406 27.0008C8.25806 26.9869 8.34109 26.9735 8.40723 26.9598L8.56055 26.9266C8.6942 26.8967 8.82633 26.8798 8.95996 26.8778ZM43.7197 26.4051C43.7609 26.3575 43.8112 26.2949 43.8672 26.2215C43.8112 26.295 43.7609 26.3575 43.7197 26.4051ZM5.94238 26.1717C5.94732 26.1794 5.95292 26.1866 5.95801 26.1942C5.95292 26.1866 5.94732 26.1794 5.94238 26.1717ZM44.0039 26.0272C44.0251 25.9945 44.0474 25.9611 44.0684 25.9256C44.0474 25.9611 44.0251 25.9945 44.0039 26.0272ZM5.82812 25.9666C5.83304 25.977 5.83762 25.9876 5.84277 25.9979C5.83762 25.9876 5.83304 25.977 5.82812 25.9666ZM44.0801 25.9041C44.1034 25.8638 44.1262 25.8218 44.1484 25.7782C44.1263 25.8218 44.1034 25.8638 44.0801 25.9041ZM44.1709 25.7332C44.1928 25.688 44.2136 25.6411 44.2334 25.5926C44.2137 25.6411 44.1928 25.688 44.1709 25.7332ZM5.6875 25.536C5.6953 25.5755 5.70423 25.6152 5.71484 25.6551C5.70424 25.6152 5.69529 25.5755 5.6875 25.536ZM44.3906 24.8543C44.3887 24.9505 44.3802 25.0432 44.3662 25.1297C44.3424 25.2764 44.3033 25.4143 44.2549 25.5418C44.2782 25.4806 44.3 25.4172 44.3184 25.3514L44.3672 25.1288C44.3812 25.0423 44.3888 24.9503 44.3906 24.8543ZM5.6582 25.3241C5.66152 25.3627 5.66514 25.4018 5.6709 25.4413C5.66515 25.4018 5.66151 25.3627 5.6582 25.3241ZM8.21973 25.4002L8.21875 25.4012L8.21973 25.4002ZM8.96289 25.3143C9.12378 25.313 9.2819 25.3226 9.4375 25.3426C9.2819 25.3226 9.12379 25.313 8.96289 25.3143ZM5.65039 25.1034C5.64939 25.1528 5.64871 25.2033 5.65137 25.2547C5.64873 25.2033 5.64938 25.1528 5.65039 25.1034ZM44.3906 24.787C44.3902 24.7618 44.3901 24.7364 44.3887 24.7108C44.3901 24.7364 44.3903 24.7618 44.3906 24.787ZM44.3838 24.6571C44.381 24.6241 44.3776 24.591 44.373 24.5575C44.3776 24.591 44.3811 24.6241 44.3838 24.6571ZM42.7275 24.5877C42.7415 24.6007 42.7538 24.6139 42.7646 24.6278C42.7538 24.6139 42.7415 24.6007 42.7275 24.5877ZM40.9521 24.6248C41.0198 24.6271 41.0875 24.6268 41.1553 24.6258C41.0823 24.6269 41.0094 24.6265 40.9365 24.6239C40.9417 24.6241 40.9469 24.6247 40.9521 24.6248ZM41.29 24.62L41.4219 24.6141C41.4414 24.6126 41.461 24.612 41.4805 24.6102C41.4172 24.616 41.3534 24.617 41.29 24.62ZM40.7324 24.6122C40.7483 24.6135 40.7643 24.6139 40.7803 24.6151C40.7959 24.6162 40.8115 24.6171 40.8271 24.618C40.7707 24.6145 40.7145 24.61 40.6582 24.6043C40.683 24.6068 40.7076 24.6101 40.7324 24.6122ZM40.3145 24.5575L40.5078 24.5877C40.4435 24.5789 40.3793 24.5692 40.3154 24.5575H40.3145ZM44.3613 24.4803C44.3578 24.4605 44.3529 24.4407 44.3486 24.4207C44.3529 24.4408 44.3578 24.4605 44.3613 24.4803ZM44.3311 24.3416C44.3233 24.3117 44.3142 24.2819 44.3047 24.2518C44.3142 24.2819 44.3233 24.3117 44.3311 24.3416ZM5.9043 24.119C5.8803 24.1655 5.85723 24.2144 5.83496 24.2655C5.85717 24.2144 5.88036 24.1655 5.9043 24.119ZM44.2842 24.1864C44.2736 24.1568 44.2604 24.1281 44.248 24.0985C44.2604 24.1281 44.2737 24.1568 44.2842 24.1864ZM6.01855 23.9168C5.99201 23.959 5.96596 24.0046 5.93945 24.0526C5.96591 24.0046 5.99201 23.9591 6.01855 23.9168ZM6.63574 23.1805L6.4668 23.3543C6.52554 23.2926 6.58148 23.2332 6.63672 23.1805C6.71652 23.1044 6.79769 23.0315 6.87793 22.9627L6.63574 23.1805ZM40.0742 22.8739C40.201 22.9191 40.3359 22.9612 40.4912 22.9989L40.7305 23.0418C40.971 23.074 41.2152 23.0734 41.4561 23.0409H41.4551C41.1339 23.0842 40.807 23.0695 40.4902 22.9979C40.3353 22.9604 40.2007 22.9189 40.0742 22.8739ZM14.2432 23.0018H14.2441H14.2432ZM41.6143 23.0145L41.5654 23.0223L41.6143 23.0155C41.6994 23.0011 41.8111 22.9821 41.9248 22.9657L41.6143 23.0145ZM42.3125 22.9227C42.2433 22.9271 42.1734 22.9336 42.1074 22.9413C42.1737 22.9336 42.244 22.9271 42.3135 22.9227C42.3814 22.9184 42.4797 22.9135 42.5889 22.9188C42.4795 22.9134 42.3805 22.9184 42.3125 22.9227ZM10.9854 19.4627C11.0972 19.635 11.2045 19.8303 11.3418 20.0799C11.4335 20.2465 11.5388 20.4371 11.668 20.661C11.7513 20.8053 11.8388 20.9468 11.9297 21.0838C12.0204 21.2208 12.1144 21.3545 12.2119 21.4842L12.2139 21.4852C12.0183 21.2251 11.8356 20.9508 11.6689 20.662C11.3461 20.1023 11.1719 19.75 10.9854 19.4627ZM11.8311 21.4393L11.8691 21.4432L11.8311 21.4383L11.583 21.4178L11.8311 21.4393ZM10.1699 18.618H10.1709H10.1699ZM31.0566 18.5741V18.575V18.5741ZM9.47461 18.2655H9.47559H9.47461ZM18.209 17.8602C18.2332 17.8943 18.2571 17.9289 18.2822 17.9627C18.278 17.9571 18.2747 17.9508 18.2705 17.9452C18.2552 17.9245 18.2405 17.9035 18.2256 17.8827C18.2202 17.8751 18.2144 17.8678 18.209 17.8602ZM8.67578 17.8319C8.71339 17.8619 8.75268 17.891 8.79395 17.9188C8.75268 17.891 8.7134 17.8619 8.67578 17.8319ZM41.8936 17.1366C41.892 17.1469 41.8903 17.1574 41.8887 17.1678L41.8945 17.1366L41.9072 17.0565V17.0555C41.8993 17.1032 41.8958 17.1214 41.8936 17.1366ZM38.6309 16.9051C38.6419 16.8995 38.6531 16.8942 38.6641 16.8885C38.6531 16.8942 38.6419 16.8995 38.6309 16.9051ZM40.3555 16.8651C40.364 16.8128 40.3744 16.7529 40.3838 16.6893L40.3857 16.6727C40.3757 16.7425 40.3647 16.8083 40.3555 16.8651ZM40.3984 16.2918C40.4012 16.3139 40.4032 16.3363 40.4043 16.3592C40.4032 16.3363 40.4012 16.3139 40.3984 16.2918ZM40.3447 16.1092C40.3539 16.126 40.3613 16.1436 40.3682 16.162C40.376 16.1828 40.3806 16.2048 40.3857 16.2274C40.3869 16.2324 40.3896 16.237 40.3906 16.242C40.3809 16.1938 40.3667 16.1491 40.3447 16.1092ZM40.3047 16.0497C40.292 16.0352 40.2783 16.0217 40.2627 16.0096C40.2783 16.0217 40.292 16.0352 40.3047 16.0497ZM41.5342 15.0809C41.6235 15.1927 41.6965 15.3077 41.7529 15.4237C41.6965 15.3077 41.6235 15.1927 41.5342 15.0809ZM21.0361 14.494C21.1973 14.6941 21.3702 14.8924 21.5254 15.0809C21.3702 14.8924 21.1974 14.6941 21.0361 14.494ZM12.9062 14.3299C13.7939 14.5368 14.652 14.9198 15.3486 15.453C14.6519 14.9199 13.7942 14.5369 12.9062 14.3299ZM8.80469 14.7782C8.74746 14.8191 8.69081 14.863 8.63574 14.911L8.54199 14.9959C8.51303 15.0244 8.48541 15.0534 8.45898 15.0829L8.54297 14.9959L8.63574 14.911C8.69081 14.863 8.74746 14.8191 8.80469 14.7782ZM40.1113 14.3866C39.8656 14.3843 39.6458 14.4309 39.4727 14.4891C39.1535 14.5965 38.909 14.7661 38.7715 14.8709L38.7725 14.8719C38.9101 14.767 39.1542 14.5965 39.4736 14.4891C39.6465 14.4311 39.866 14.3844 40.1113 14.3866ZM40.9062 14.578L41.082 14.6766C41.136 14.7105 41.1867 14.7461 41.2344 14.7831C41.1378 14.7081 41.0288 14.6384 40.9053 14.577C40.8661 14.5575 40.826 14.5423 40.7871 14.5262C40.8264 14.5425 40.8667 14.5583 40.9062 14.578ZM8.97754 14.6659C8.93694 14.6899 8.8967 14.7158 8.85645 14.743C8.8967 14.7158 8.93694 14.6899 8.97754 14.6659ZM9.1377 14.5789C9.09929 14.5982 9.06011 14.6176 9.02148 14.6395C9.06011 14.6176 9.09929 14.5982 9.1377 14.5789ZM40.123 14.3866C40.2843 14.389 40.4556 14.4153 40.6328 14.4706C40.4556 14.4152 40.2843 14.3891 40.123 14.3866ZM10.8408 14.1776L10.4688 14.2157C10.3911 14.2252 10.3074 14.2368 10.2207 14.2508C10.1337 14.2648 10.0435 14.2813 9.95312 14.3006C10.0434 14.2813 10.1338 14.2658 10.2207 14.2518C10.4816 14.21 10.7146 14.19 10.8408 14.1786V14.1776ZM12.3105 14.2186L12.3115 14.2176L12.3105 14.2186ZM15.6924 13.3084C15.6984 13.3603 15.7017 13.4134 15.7051 13.4686C15.6975 13.3428 15.6852 13.2279 15.6621 13.1131L15.6924 13.3084ZM28.71 12.2166C28.5927 12.295 28.4784 12.3765 28.3672 12.4608V12.4618C28.4786 12.3773 28.5926 12.2951 28.71 12.2166ZM21.6133 12.3573L21.6143 12.3592C21.6279 12.3277 21.6431 12.2969 21.6572 12.2655C21.6433 12.2964 21.6268 12.3262 21.6133 12.3573ZM15.0947 11.9149C15.0972 11.9183 15.1011 11.9233 15.1035 11.9266C15.1307 11.9637 15.155 11.9995 15.1787 12.0331C15.1549 11.9993 15.1309 11.9629 15.1035 11.9256C15.1011 11.9223 15.0981 11.9183 15.0957 11.9149C15.0655 11.873 15.047 11.8524 15.0088 11.8104L15.0947 11.9149ZM21.8506 11.868C21.8292 11.909 21.8077 11.9499 21.7871 11.9911C21.8077 11.9499 21.8291 11.909 21.8506 11.868ZM34.1924 11.6961C34.1911 11.7486 34.1886 11.8009 34.1855 11.8534C34.1886 11.8009 34.1911 11.7486 34.1924 11.6961ZM22.0332 11.534C22.0197 11.5571 22.0083 11.5812 21.9951 11.6043C22.0494 11.5094 22.1054 11.4148 22.1641 11.3211L22.0332 11.534ZM14.6885 11.4393V11.4383V11.4393ZM34.0605 10.5252C34.0752 10.581 34.0884 10.6369 34.1006 10.6932C34.0884 10.6369 34.0752 10.581 34.0605 10.5252ZM20.3906 10.2811C20.4716 10.3765 20.5498 10.4737 20.625 10.5731C20.5498 10.4737 20.4716 10.3765 20.3906 10.2811ZM14.1357 10.3329C14.1442 10.3776 14.1555 10.4227 14.168 10.4686C14.1424 10.3744 14.1254 10.2825 14.1162 10.1932L14.1357 10.3329ZM26.8232 10.2957H26.8223H26.8232ZM31.4521 9.94614L31.3398 10.1717C31.3358 10.179 31.3312 10.186 31.3271 10.1932C31.3724 10.1125 31.4153 10.0298 31.4531 9.94516L31.4521 9.94614ZM33.0547 10.0526C33.0477 10.0732 33.041 10.0945 33.0342 10.1161C33.041 10.0945 33.0477 10.0732 33.0547 10.0526ZM19.9844 9.8436C20.0605 9.91822 20.134 9.99511 20.2061 10.0731C20.134 9.99509 20.0605 9.91823 19.9844 9.8436ZM14.1689 9.56332C14.1486 9.63822 14.1319 9.7171 14.1211 9.79965C14.1157 9.84076 14.1118 9.8828 14.1094 9.92563L14.1104 9.92661C14.1175 9.7978 14.1385 9.67648 14.1689 9.5643V9.56332ZM26.7109 9.81235V9.81137V9.81235ZM26.6387 9.57504V9.57407V9.57504ZM14.5947 8.78012C14.561 8.81758 14.53 8.8551 14.502 8.89145C14.4752 8.92611 14.4459 8.96653 14.416 9.01254C14.3859 9.0589 14.3552 9.11091 14.3252 9.16782H14.3262C14.386 9.05447 14.4492 8.961 14.5029 8.89145C14.5592 8.81859 14.6263 8.74172 14.7051 8.66684L14.5947 8.78012ZM19.082 9.10825V9.10727V9.10825ZM35.0898 8.96957C35.0725 8.94279 35.0542 8.91494 35.0342 8.88657C35.0541 8.91495 35.0725 8.94278 35.0898 8.96957ZM34.998 8.83481C34.9603 8.78401 34.9183 8.73196 34.8721 8.67953C34.9183 8.73197 34.9604 8.784 34.998 8.83481ZM18.5977 8.81625L18.3994 8.71274C18.3802 8.70317 18.3605 8.69396 18.3408 8.68442C18.4312 8.72825 18.517 8.77268 18.5977 8.81625ZM18.3086 8.66977C18.2287 8.63157 18.1457 8.59337 18.0596 8.55649C18.1457 8.59336 18.2287 8.63158 18.3086 8.66977ZM14.9746 8.452H14.9756H14.9746ZM17.7109 8.41879C17.8163 8.45667 17.9186 8.49735 18.0176 8.53891C17.9189 8.49745 17.817 8.45658 17.7119 8.41879H17.7109ZM33.0059 8.0809C33.054 8.06787 33.1016 8.05652 33.1484 8.0477C33.1016 8.05652 33.0541 8.06785 33.0059 8.0809C32.9236 8.10317 32.8458 8.13 32.7725 8.16098C32.8458 8.13003 32.9236 8.10317 33.0059 8.0809ZM33.9082 8.07407C33.9456 8.08382 33.982 8.09455 34.0176 8.10629C33.9466 8.08279 33.872 8.06264 33.7939 8.0477L33.9082 8.07407ZM27.2646 7.37582C27.3496 7.49437 27.4295 7.61726 27.5059 7.74301C27.4295 7.61725 27.3496 7.49438 27.2646 7.37582ZM23.0811 6.81918C23.0228 6.94791 22.9753 7.0926 22.9473 7.25278C22.9752 7.09254 23.0228 6.94788 23.0811 6.81918ZM26.4795 6.46078C26.5627 6.53658 26.641 6.6157 26.7148 6.69418C26.6408 6.61554 26.5629 6.53577 26.4795 6.45981C26.4423 6.42592 26.3983 6.38772 26.3486 6.34653C26.3985 6.38786 26.4422 6.42682 26.4795 6.46078ZM23.9355 5.90414C23.8847 5.93145 23.8347 5.96114 23.7871 5.99399H23.7881C23.8356 5.96122 23.8849 5.93133 23.9355 5.90414ZM24.0898 5.83188C24.0556 5.8457 24.0224 5.86157 23.9893 5.87778C24.0224 5.86159 24.0556 5.84567 24.0898 5.83188ZM24.3145 5.75961C24.2601 5.77246 24.2068 5.78889 24.1543 5.80746C24.2158 5.78576 24.2788 5.76863 24.3428 5.75473L24.3145 5.75961Z" fill="white" fill-opacity="0.3"/>
</g>
</g>
</g>
</svg>
