<svg width="50" height="50" viewBox="0 0 50 50" fill="none" xmlns="http://www.w3.org/2000/svg">
<rect width="50" height="50" fill="#BEBEBE"/>
<g id="Decorate Mode">
<path d="M-296.703 -1174.72V-1173.72H2723.3V-1174.72V-1175.72H-296.703V-1174.72ZM2725.3 -1172.72H2724.3V2365.28H2725.3H2726.3V-1172.72H2725.3ZM2723.3 2367.28V2366.28H-296.703V2367.28V2368.28H2723.3V2367.28ZM-298.703 2365.28H-297.703V-1172.72H-298.703H-299.703V2365.28H-298.703ZM-296.703 2367.28V2366.28C-297.255 2366.28 -297.703 2365.83 -297.703 2365.28H-298.703H-299.703C-299.703 2366.94 -298.36 2368.28 -296.703 2368.28V2367.28ZM2725.3 2365.28H2724.3C2724.3 2365.83 2723.85 2366.28 2723.3 2366.28V2367.28V2368.28C2724.95 2368.28 2726.3 2366.94 2726.3 2365.28H2725.3ZM2723.3 -1174.72V-1173.72C2723.85 -1173.72 2724.3 -1173.27 2724.3 -1172.72H2725.3H2726.3C2726.3 -1174.38 2724.95 -1175.72 2723.3 -1175.72V-1174.72ZM-296.703 -1174.72V-1175.72C-298.359 -1175.72 -299.703 -1174.38 -299.703 -1172.72H-298.703H-297.703C-297.703 -1173.27 -297.255 -1173.72 -296.703 -1173.72V-1174.72Z" fill="black" fill-opacity="0.1"/>
<g id="Stickers">
<rect x="-244.694" y="-302.219" width="374" height="551" rx="4.5" stroke="#9747FF" stroke-dasharray="10 5"/>
<g id="Property 1=watermelon">
<g id="Frame 184">
<g id="Vector">
<path d="M8.18654 11.7701C8.98999 11.9507 9.83147 12.1666 10.6224 12.3529L21.7255 14.9884C25.0069 15.7676 28.2403 16.5426 31.4604 17.3089L43.9982 20.2791C44.055 20.293 44.2229 20.3296 44.3616 20.4153C44.4389 20.4632 44.5348 20.5418 44.5989 20.6664C44.6665 20.7981 44.6781 20.9408 44.6509 21.0741C44.5169 21.7295 44.3582 22.3875 44.1703 23.0341C43.1026 26.7096 41.042 29.6752 38.1438 32.1139L38.1378 32.1186C36.4756 33.4688 34.6066 34.5434 32.6033 35.3004L32.6021 35.301C27.8509 37.0817 22.5873 36.9046 17.9663 34.8091C13.4025 32.7397 9.73885 28.7077 7.94445 24.0616C6.604 20.5909 6.33431 16.8101 7.23552 13.1952C7.30364 12.9219 7.37395 12.5079 7.51407 12.1605L7.52483 12.1366C7.57847 12.0171 7.66113 11.9254 7.76632 11.8628C7.81371 11.8346 7.85831 11.8166 7.88707 11.806C7.90595 11.799 7.94722 11.7856 7.95043 11.7845L8.06639 11.7438L8.18654 11.7701ZM27.495 36.0183C26.8996 36.0699 26.3025 36.0938 25.7059 36.0883C25.8579 36.0897 26.01 36.0894 26.162 36.0871C26.3142 36.0848 26.4665 36.0805 26.6187 36.0745C26.911 36.063 27.2031 36.0436 27.495 36.0183ZM13.2082 31.0917C14.667 32.4587 16.3338 33.5968 18.1438 34.4176C19.4143 34.9937 20.7347 35.4212 22.0794 35.6997L21.6323 35.6011C20.4421 35.324 19.2731 34.9296 18.1438 34.4176C16.1945 33.5337 14.4115 32.2814 12.8753 30.7719L13.2082 31.0917ZM37.7081 31.9106C37.7354 31.8889 37.7634 31.8679 37.7906 31.8461L37.8354 31.8096C37.7933 31.8437 37.7505 31.8769 37.7081 31.9106ZM41.5587 27.6875C41.4735 27.8166 41.3874 27.9451 41.2987 28.0719L41.4864 27.7981C41.511 27.7616 41.5345 27.7243 41.5587 27.6875ZM7.63243 13.3817C7.6201 13.4322 7.60843 13.4829 7.59656 13.5335C7.6149 13.4553 7.6339 13.3772 7.65335 13.2992L7.63243 13.3817ZM8.03531 12.2101C8.0193 12.216 8.00438 12.2225 7.99048 12.2304C8.0199 12.2137 8.05439 12.2038 8.09269 12.1904L8.03531 12.2101Z" fill="#020101"/>
<path d="M7.66167 10.2689C7.9 10.2036 8.15147 10.1967 8.39391 10.2498L8.51406 10.2761L8.52183 10.2779C8.92315 10.3681 9.35149 10.4715 9.77172 10.5738L10.9732 10.8643L10.9762 10.8649L22.0781 13.5003C25.3577 14.2791 28.599 15.0558 31.8136 15.8208L44.3508 18.791L44.3633 18.794C44.3543 18.7918 44.4066 18.8044 44.4446 18.8143C44.4914 18.8265 44.5529 18.8436 44.6228 18.8663C44.7208 18.8982 44.8589 18.9483 45.0107 19.0265L45.1661 19.1144C45.3644 19.237 45.6462 19.4542 45.8685 19.8078L45.9599 19.968C46.2071 20.4494 46.2371 20.9541 46.15 21.381C46.0089 22.0713 45.8404 22.7704 45.6395 23.4618C44.4792 27.4562 42.2347 30.6724 39.1289 33.2858C39.1202 33.2931 39.1108 33.2996 39.102 33.3067C37.3125 34.7602 35.301 35.9179 33.1442 36.733L33.1412 36.7336L33.1394 36.7348C28.0087 38.6577 22.3245 38.4662 17.3344 36.2034C12.3858 33.9595 8.44799 29.6134 6.51699 24.6137C5.06665 20.8584 4.77094 16.7561 5.75068 12.8261C5.77632 12.7232 5.90204 12.0671 6.09498 11.5888L6.11889 11.5332L6.12965 11.5093C6.30995 11.1085 6.60416 10.7747 6.98383 10.5487C7.14299 10.4541 7.28428 10.3981 7.35742 10.3711C7.37795 10.3636 7.39759 10.3573 7.40763 10.3538C7.41943 10.3498 7.4306 10.346 7.43931 10.343L7.44409 10.3419L7.56005 10.3006L7.66167 10.2689ZM7.95043 11.7845C7.94722 11.7856 7.90595 11.799 7.88707 11.806C7.85831 11.8166 7.81371 11.8346 7.76632 11.8628C7.66113 11.9254 7.57847 12.0171 7.52483 12.1366L7.51407 12.1605C7.37395 12.5079 7.30364 12.9219 7.23552 13.1952C6.33431 16.8101 6.604 20.5909 7.94445 24.0616C9.73885 28.7077 13.4025 32.7397 17.9663 34.8091C22.5873 36.9046 27.8509 37.0817 32.6021 35.301L32.6033 35.3004C34.6066 34.5434 36.4756 33.4688 38.1378 32.1186L38.1438 32.1139C41.042 29.6752 43.1026 26.7096 44.1703 23.0341C44.3582 22.3875 44.5169 21.7295 44.6509 21.0741C44.6781 20.9408 44.6665 20.7981 44.5989 20.6664C44.5348 20.5418 44.4389 20.4632 44.3616 20.4153C44.2229 20.3296 44.055 20.293 43.9982 20.2791L31.4604 17.3089C28.2403 16.5426 25.0069 15.7676 21.7255 14.9884L10.6224 12.3529C9.83147 12.1666 8.98999 11.9507 8.18654 11.7701L8.06639 11.7438L7.95043 11.7845ZM27.495 36.0183C27.2031 36.0436 26.911 36.063 26.6187 36.0745C26.4665 36.0805 26.3142 36.0848 26.162 36.0871C26.01 36.0894 25.8579 36.0897 25.7059 36.0883C26.3025 36.0938 26.8996 36.0699 27.495 36.0183ZM23.8845 35.9834C24.3384 36.0318 24.7939 36.0628 25.2498 36.0781C24.9458 36.0679 24.642 36.0521 24.3388 36.027C24.1872 36.0146 24.0358 35.9995 23.8845 35.9834ZM37.7906 31.8461C37.7634 31.8679 37.7354 31.8889 37.7081 31.9106C37.7505 31.8769 37.7933 31.8437 37.8354 31.8096L37.7906 31.8461ZM41.4864 27.7981L41.2987 28.0719C41.3874 27.9451 41.4735 27.8166 41.5587 27.6875C41.5345 27.7243 41.511 27.7616 41.4864 27.7981ZM7.59656 13.5335C7.60843 13.4829 7.6201 13.4322 7.63243 13.3817L7.65335 13.2992C7.6339 13.3772 7.6149 13.4553 7.59656 13.5335ZM13.2082 31.0917L13.1663 31.0526C13.2628 31.1435 13.3603 31.2333 13.4586 31.3222C13.3747 31.2462 13.2908 31.1691 13.2082 31.0917Z" fill="#E8E7E7"/>
</g>
<path id="Vector (Stroke)" d="M7.33755 9.08802C7.76636 8.97042 8.21891 8.95789 8.65531 9.05334L8.77608 9.07965L8.78924 9.08324L8.79163 9.08444C8.79353 9.08486 8.79571 9.08401 8.79761 9.08444L8.79641 9.08563C9.20657 9.17786 9.6408 9.28302 10.058 9.38458L10.0592 9.38338L11.2609 9.67396L11.2597 9.67516L32.0976 14.6293L44.6151 17.5949C44.6167 17.5952 44.6179 17.5959 44.6187 17.5961C44.6263 17.5977 44.6323 17.5992 44.6343 17.5997L44.6438 17.6021L44.6474 17.6032C44.651 17.6041 44.6537 17.6051 44.6558 17.6056L44.7503 17.6331C44.7554 17.6349 44.7607 17.6362 44.7658 17.6379C44.7594 17.6355 44.7539 17.6344 44.7503 17.6331C44.72 17.623 44.6948 17.6154 44.6941 17.6152C44.6821 17.6119 44.6724 17.6095 44.6713 17.6092L44.6618 17.6068C44.6667 17.608 44.673 17.6088 44.6797 17.6104C44.698 17.6149 44.7263 17.6227 44.7526 17.6296C44.8169 17.6463 44.9027 17.6704 45.0014 17.7025C45.069 17.7245 45.1543 17.7534 45.2513 17.7922L45.5718 17.9381L45.6136 17.9608L45.7691 18.0481L45.8097 18.0732C46.0752 18.2373 46.4465 18.516 46.7699 18.9569L46.9051 19.1566L46.9314 19.2008L47.0235 19.3611L47.0486 19.4089C47.3911 20.076 47.4683 20.7673 47.3918 21.3724L47.3499 21.6259C47.2398 22.1644 47.1128 22.7109 46.9673 23.257L46.8154 23.8034C45.5809 28.0531 43.1887 31.4693 39.9169 34.2224C39.9006 34.236 39.8865 34.2478 39.8762 34.2558C39.8721 34.259 39.8676 34.2616 39.8643 34.2642L39.154 34.8179C37.4524 36.0904 35.5794 37.1195 33.5887 37.8731C33.5823 37.8757 33.5761 37.879 33.5696 37.8815C28.1351 39.9182 22.1139 39.715 16.8285 37.3183C11.5722 34.9348 7.41561 30.3378 5.37525 25.0554C3.83695 21.0724 3.5195 16.7118 4.56212 12.5295C4.56614 12.5069 4.72844 11.7024 4.95912 11.1304L4.96988 11.1053L4.9938 11.0491L5.00217 11.0312L5.01293 11.0073L5.12653 10.7765C5.41195 10.2516 5.83267 9.80921 6.357 9.49698L6.35819 9.49579C6.60568 9.34871 6.82293 9.26271 6.93337 9.22195C6.95732 9.21314 6.9795 9.20625 6.99316 9.20162C7.00002 9.1993 7.00677 9.19669 7.0099 9.19564C7.02373 9.19089 7.03791 9.18552 7.05056 9.18129L7.06491 9.17771L7.14981 9.14662L7.19525 9.13107L7.29689 9.09998C7.31029 9.0958 7.32401 9.09174 7.33755 9.08802ZM8.5142 10.2766L8.39343 10.2503C8.15108 10.1973 7.89984 10.2041 7.66161 10.2695L7.55996 10.3006L7.44397 10.3424L7.43919 10.3436C7.43058 10.3465 7.41969 10.3504 7.4081 10.3544L7.35788 10.3711C7.28473 10.3981 7.14276 10.4547 6.98359 10.5493C6.60411 10.7753 6.31004 11.1089 6.1298 11.5095L6.11904 11.5334L6.09512 11.5884L5.96358 11.9699C5.84572 12.3608 5.76999 12.7487 5.75073 12.8261L5.58213 13.5651C4.81268 17.2677 5.15756 21.0936 6.51723 24.6142C8.44831 29.6137 12.3859 33.96 17.3344 36.2038C22.3244 38.4666 28.0085 38.6575 33.1391 36.7347L33.1415 36.7335H33.1439C35.3006 35.9184 37.3119 34.7598 39.1013 33.3064L39.1288 33.286C42.0405 30.836 44.1951 27.8559 45.4091 24.2016L45.6399 23.4614C45.7906 22.9429 45.923 22.42 46.0393 21.8997L46.1505 21.3808C46.2266 21.0072 46.213 20.5739 46.0429 20.1491L45.9604 19.9685L45.8683 19.8083C45.6462 19.455 45.3647 19.2374 45.1664 19.1147L45.0109 19.0262C44.8591 18.948 44.7203 18.8979 44.6223 18.866L44.4441 18.8146L44.3628 18.7943L44.3509 18.7907L31.813 15.8203C28.5986 15.0554 25.3574 14.2792 22.0781 13.5005L10.9763 10.865L10.9728 10.8638L9.77218 10.5744C9.35195 10.4721 8.9227 10.368 8.52138 10.2778L8.5142 10.2766ZM39.8523 34.275L39.8535 34.2726C39.8556 34.271 39.8594 34.2679 39.8643 34.2642C39.8581 34.2691 39.8542 34.2735 39.8523 34.275ZM13.3392 31.2102C13.3089 31.1823 13.2773 31.1557 13.2471 31.1276C13.2244 31.1065 13.2016 31.0855 13.179 31.0643L12.8753 30.7725C13.027 30.9215 13.1828 31.0662 13.3392 31.2102ZM44.938 17.7145L44.9368 17.7121C44.931 17.7092 44.9249 17.7066 44.9189 17.7037C44.9254 17.707 44.9315 17.711 44.938 17.7145ZM44.6618 17.6068L44.6558 17.6056H44.6582C44.6587 17.6058 44.6603 17.6065 44.6618 17.6068ZM7.99045 12.2306C8.0042 12.2228 8.01888 12.2161 8.03469 12.2102L8.09209 12.1899C8.05392 12.2033 8.01979 12.2139 7.99045 12.2306Z" fill="#020101"/>
<g id="Group 16">
<path id="Vector_2" d="M11.1265 13.1279C12.2135 13.3512 13.4717 13.6864 14.5683 13.9457C21.1344 15.5085 27.1741 16.9441 32.1207 18.1165L35.5825 18.9381L39.0636 19.767C39.6624 19.9097 40.4287 20.0698 41.0056 20.2447C40.4245 23.5534 38.7137 26.558 36.1653 28.7468C35.4376 29.3815 34.6487 29.943 33.8106 30.4225C30.142 32.5492 26.0673 33.1825 21.9538 32.0776C17.973 30.9924 14.5905 28.3625 12.5576 24.772C11.1234 22.2738 10.3751 19.3925 10.5296 16.501C10.5917 15.3381 10.8232 14.2487 11.1265 13.1279Z" fill="#E76F51"/>
<path id="Vector (Stroke)_2" d="M11.1265 13.1279C12.2135 13.3512 13.4717 13.6864 14.5683 13.9457C21.1344 15.5085 27.1741 16.9441 32.1207 18.1165L39.0636 19.767C39.6624 19.9097 40.4287 20.0697 41.0056 20.2446C40.4245 23.5533 38.7137 26.558 36.1653 28.7468C35.4376 29.3815 34.6487 29.943 33.8105 30.4225C30.1707 32.5325 26.1309 33.1725 22.0502 32.1032L21.9538 32.0776C17.973 30.9924 14.5905 28.3625 12.5576 24.7719C11.1458 22.3128 10.3986 19.4824 10.523 16.6365L10.5295 16.5009C10.5897 15.3744 10.8089 14.3168 11.0982 13.2329L11.1265 13.1279ZM14.5457 14.0407C13.4752 13.7875 12.2611 13.4648 11.1968 13.2422C10.9062 14.3284 10.687 15.3835 10.627 16.5062C10.476 19.3327 11.1938 22.1508 12.576 24.6067L12.6423 24.7233L12.6426 24.7238C14.6626 28.2917 18.0238 30.9051 21.9794 31.9834C26.0662 33.081 30.1142 32.4524 33.7616 30.3381L33.7621 30.3378C34.5946 29.8615 35.3782 29.3037 36.1011 28.6732L36.1014 28.6729L36.1017 28.6727C38.6109 26.5176 40.3026 23.566 40.8941 20.3133C40.369 20.16 39.709 20.0187 39.1559 19.8891L39.041 19.862L32.0982 18.2114L32.0982 18.2115C27.1515 17.0391 21.1119 15.6034 14.5457 14.0407Z" fill="black"/>
<path id="Vector_3" d="M25.7635 25.85C26.0316 26.1599 26.2411 27.6068 26.2789 28.0774C26.3226 28.6231 26.3252 29.3919 25.7778 29.6919C25.7552 29.6963 25.7324 29.7004 25.7094 29.704C24.2937 29.9274 25.3329 26.3756 25.7635 25.85Z" fill="black"/>
<path id="Vector_4" d="M22.1744 25.0049C22.392 25.2531 21.8794 29.1935 20.535 28.4738C20.3516 28.2895 20.2784 28.0559 20.3351 27.8022C20.5317 26.9229 21.4744 25.5287 22.1744 25.0049Z" fill="black"/>
<path id="Vector_5" d="M29.2168 25.2357C29.3033 25.2824 29.3894 25.3626 29.4529 25.4372C30.0037 26.0832 31.4058 28.0459 30.5753 28.7911C29.2303 29.3969 29.1063 25.9966 29.2168 25.2357Z" fill="black"/>
<path id="Vector_6" d="M19.3797 22.9162C19.5414 23.1619 18.1371 25.114 17.86 25.3179C17.4883 25.5911 17.4266 25.7455 16.9339 25.7351C16.7936 25.6594 16.7543 25.642 16.6422 25.5291C16.0399 24.5296 18.5885 23.0949 19.3797 22.9162Z" fill="black"/>
<path id="Vector_7" d="M32.0596 23.6537C32.8006 23.8441 35.6956 25.5164 34.5998 26.4501C34.2694 26.5789 33.9865 26.4835 33.7247 26.2644C33.1801 25.8089 32.1403 24.3111 32.0596 23.6537Z" fill="black"/>
<path id="Vector_8" d="M17.3626 20.1869C17.4384 20.1931 17.4835 20.1892 17.5472 20.2304L17.5463 20.2769C17.2254 20.6735 15.7684 21.568 15.2386 21.7227C14.8374 21.8398 14.5976 21.913 14.204 21.7252C14.1832 21.7051 14.163 21.6844 14.1435 21.663C13.715 21.1959 14.3049 20.684 14.7526 20.5351C15.5847 20.2583 16.4877 20.1455 17.3626 20.1869Z" fill="black"/>
<path id="Vector_9" d="M15.0007 16.2955C15.597 16.3921 16.6567 16.7471 17.1458 17.0622C16.7051 17.2479 15.7827 17.3758 15.3088 17.4396C14.8248 17.487 13.8376 17.5847 13.5026 17.136C13.4212 17.028 13.387 16.8917 13.408 16.7581C13.5157 16.0361 14.5108 16.2117 15.0007 16.2955Z" fill="black"/>
<path id="Vector_10" d="M35.7128 21.216C36.0745 21.2891 36.3432 21.3884 36.7106 21.5167C37.2897 21.719 37.7945 22.4739 37.0002 22.7783C36.6368 22.9175 36.1105 22.6374 35.7725 22.4561C35.2229 22.1412 34.2795 21.4879 33.8858 21.0182C34.4426 20.9774 35.1608 21.1108 35.7128 21.216Z" fill="black"/>
<path id="Vector_11" d="M9.4615 12.7355C9.94085 12.8334 10.48 12.9787 10.9598 13.0962C10.8522 13.4445 10.7602 13.7975 10.6838 14.1539C9.84262 18.0528 10.5914 22.1261 12.7642 25.4708C15.0031 29.0358 18.5845 31.5479 22.6987 32.439C26.8337 33.3447 31.0079 32.4638 34.549 30.1883C37.3013 28.4189 39.4032 25.8017 40.5369 22.7323C40.8417 21.887 41.0078 21.1466 41.1984 20.2741C41.649 20.3746 42.2445 20.511 42.6798 20.6448C42.578 21.1157 42.486 21.5379 42.3634 22.0048L42.3536 22.0437C42.0694 23.1804 41.5747 24.342 41.015 25.3667C39.5851 28.0305 37.4552 30.2533 34.8544 31.7954C30.9174 34.1907 26.1817 34.8995 21.7159 33.7622C17.2894 32.5902 13.506 29.7151 11.1912 25.7643C9.3242 22.6634 8.52933 19.0344 8.92929 15.4371C9.03644 14.5094 9.22905 13.6404 9.4615 12.7355Z" fill="#E8E7E7"/>
<path id="Vector (Stroke)_3" d="M9.46153 12.7355C9.94087 12.8334 10.48 12.9787 10.9598 13.0962C10.8522 13.4445 10.7602 13.7975 10.6839 14.154C9.84266 18.0528 10.5914 22.1261 12.7642 25.4708C15.0032 29.0358 18.5845 31.5479 22.6987 32.4389C26.8014 33.3376 30.9427 32.4775 34.4659 30.2414L34.549 30.1883C37.3013 28.4189 39.4032 25.8018 40.5369 22.7323C40.8417 21.887 41.0078 21.1466 41.1985 20.2741C41.649 20.3746 42.2445 20.511 42.6799 20.6448C42.5781 21.1156 42.486 21.538 42.3634 22.0048L42.3536 22.0437C42.0694 23.1804 41.5747 24.342 41.015 25.3667C39.5851 28.0306 37.4552 30.2534 34.8544 31.7954C30.9482 34.172 26.2556 34.8884 21.8206 33.7885L21.716 33.7622C17.2894 32.5902 13.5061 29.7151 11.1913 25.7643C9.33881 22.6877 8.54181 19.0911 8.92014 15.5214L8.92933 15.4371C9.02978 14.5674 9.2053 13.7493 9.41839 12.9048L9.46153 12.7355ZM10.8365 13.1662C10.4114 13.0607 9.95305 12.9396 9.53303 12.8502C9.31152 13.7205 9.1292 14.5575 9.02633 15.4479L9.01725 15.5317C8.64413 19.0523 9.42101 22.5992 11.2316 25.6416L11.2749 25.714L11.2752 25.7145L11.2755 25.7149C13.5771 29.6432 17.3388 32.502 21.74 33.6676C26.1803 34.7985 30.8891 34.0936 34.8037 31.712L34.8042 31.7117L34.8047 31.7114C37.3901 30.1784 39.5075 27.9687 40.929 25.3205L40.9294 25.3199C41.4861 24.3006 41.9771 23.1467 42.2589 22.02L42.2687 21.9811L42.269 21.98C42.3833 21.5446 42.4709 21.1481 42.5652 20.7123C42.175 20.5974 41.6789 20.482 41.2727 20.3908C41.0906 21.2224 40.9247 21.9449 40.6287 22.7654L40.6286 22.7658L40.6285 22.7661C39.4875 25.8555 37.3719 28.4896 34.6018 30.2704L34.6018 30.2704C31.0407 32.5588 26.8403 33.446 22.6781 32.5343L22.6781 32.5344C18.5382 31.6377 14.9345 29.11 12.6815 25.5227L12.6816 25.5227C10.4953 22.1564 9.74184 18.0572 10.5884 14.1335L10.603 14.0662C10.6696 13.7634 10.7475 13.4632 10.8365 13.1662Z" fill="black"/>
<path id="Vector_12" d="M7.95978 12.3795C8.37988 12.4632 8.86153 12.5927 9.28239 12.6951C9.19041 13.0314 9.10849 13.3705 9.03673 13.7117C8.06897 18.1006 8.92041 22.6942 11.3967 26.4447C13.8995 30.3709 17.8721 33.1297 22.4252 34.1034C26.945 35.0421 31.6523 34.1419 35.5068 31.6021C38.6523 29.582 41.0258 26.561 42.2438 23.0265C42.5229 22.2039 42.6749 21.5113 42.8515 20.6727C43.2715 20.7598 43.7897 20.8881 44.1999 21.0021C44.1089 21.4126 44.0094 21.8212 43.9018 22.2277C42.6574 26.8282 39.8786 30.4565 35.856 32.9785C31.6318 35.6089 26.5333 36.4478 21.6892 35.3094C16.8728 34.1585 12.7108 31.1418 10.1184 26.9226C8.01342 23.5439 6.98452 19.7049 7.35053 15.7253C7.46275 14.5048 7.68347 13.561 7.95978 12.3795Z" fill="#8AB17D"/>
<path id="Vector (Stroke)_4" d="M7.95978 12.3795C8.37988 12.4632 8.86155 12.5927 9.28241 12.6951C9.19043 13.0315 9.10847 13.3705 9.0367 13.7117C8.06895 18.1006 8.92042 22.6942 11.3967 26.4447C13.8799 30.3403 17.8101 33.0865 22.3186 34.0803L22.4252 34.1034C26.9096 35.0348 31.5788 34.1559 35.4163 31.6613L35.5068 31.6021C38.6523 29.582 41.0258 26.5609 42.2438 23.0265C42.5229 22.2039 42.6748 21.5113 42.8514 20.6727C43.2715 20.7598 43.7897 20.8881 44.1999 21.0021C44.1089 21.4126 44.0094 21.8212 43.9018 22.2277C42.6574 26.8282 39.8786 30.4566 35.856 32.9785L35.7568 33.0398C31.5522 35.6218 26.4955 36.4389 21.6892 35.3094C16.8728 34.1585 12.7108 31.1418 10.1184 26.9226C8.02986 23.5704 7.00067 19.7649 7.34221 15.8185L7.35054 15.7253C7.46277 14.5048 7.68347 13.561 7.95978 12.3795ZM9.16213 12.766C8.79474 12.6753 8.39545 12.5704 8.03327 12.4943C7.76708 13.633 7.55633 14.5531 7.44773 15.7342C7.08671 19.6598 8.09058 23.449 10.1524 26.7921L10.2013 26.871L10.2016 26.8715C12.7804 31.0686 16.9206 34.0694 21.7117 35.2144C26.5305 36.3468 31.6023 35.5123 35.8044 32.8956C39.8069 30.3862 42.5699 26.7778 43.8075 22.2022C43.9068 21.8271 43.9991 21.4502 44.0842 21.0717C43.7233 20.9733 43.2947 20.8673 42.9267 20.7883C42.7583 21.5852 42.6066 22.261 42.3362 23.0579L42.3361 23.0583C41.111 26.6132 38.7239 29.6517 35.5605 31.6836L35.5605 31.6836C31.6844 34.2377 26.9505 35.143 22.4053 34.199L22.4048 34.1989C17.8266 33.2198 13.8321 30.4461 11.3153 26.4985L11.2572 26.41C8.81128 22.654 7.97566 18.0715 8.94118 13.6916C9.00647 13.3811 9.08019 13.0725 9.16213 12.766Z" fill="black"/>
</g>
</g>
<path id="Union" d="M7.3374 9.08765C7.76608 8.9701 8.21852 8.95809 8.65479 9.05347L8.77588 9.07983L8.78955 9.08276L8.7915 9.08472C8.79337 9.08509 8.7955 9.0843 8.79736 9.08472L8.79639 9.08569C9.2065 9.17792 9.64098 9.28297 10.0581 9.38452L10.0591 9.38354L11.2612 9.67358L11.2593 9.67554L32.0972 14.6296L44.6147 17.5945C44.6164 17.5948 44.6178 17.5963 44.6187 17.5964C44.6261 17.598 44.6324 17.5989 44.6343 17.5994L44.644 17.6023L44.647 17.6033C44.6505 17.6041 44.6537 17.6047 44.6558 17.6052H44.6577L44.6597 17.6062L44.7505 17.6335C44.7202 17.6234 44.6946 17.6152 44.6938 17.615C44.6825 17.6118 44.6731 17.6096 44.6714 17.6091L44.6792 17.6101C44.6975 17.6146 44.7261 17.6228 44.7524 17.6296C44.8167 17.6464 44.9028 17.6708 45.0015 17.7029C45.0691 17.7249 45.1547 17.753 45.2515 17.7917L45.5718 17.9382L45.6138 17.9607L45.769 18.0476L45.8091 18.073C46.0745 18.2371 46.4466 18.5159 46.77 18.9568L46.9048 19.157L46.9312 19.2009L47.0229 19.3611L47.0483 19.4089C47.3908 20.076 47.4677 20.7677 47.3911 21.3728L47.3501 21.6257C47.24 22.1642 47.1128 22.7106 46.9673 23.2566L46.8149 23.8035C45.5805 28.053 43.1884 31.4693 39.9165 34.2224C39.9005 34.2359 39.8867 34.2476 39.8765 34.2556L39.8638 34.2644L39.8521 34.2751V34.2722L39.1538 34.8181C37.4523 36.0906 35.5789 37.1192 33.5884 37.8728C33.582 37.8753 33.5762 37.8792 33.5698 37.8816C28.1354 39.9183 22.1139 39.7148 16.8286 37.3181C11.5724 34.9346 7.41587 30.3378 5.37549 25.0554C3.83719 21.0724 3.51939 16.7113 4.56201 12.5291C4.56773 12.4982 4.72914 11.6994 4.9585 11.1306L4.96924 11.1052L4.99365 11.0496L5.00244 11.031L5.01318 11.0076L5.12646 10.7761C5.41188 10.2514 5.83271 9.809 6.35693 9.49683L6.35791 9.49585C6.60521 9.34888 6.82259 9.26321 6.93311 9.22241C6.95684 9.21368 6.97899 9.20653 6.99268 9.2019C6.99916 9.19971 7.00596 9.19719 7.00928 9.19604C7.02307 9.19131 7.03768 9.18562 7.05029 9.1814L7.06494 9.17749L7.1499 9.14624L7.19482 9.13062L7.29639 9.10034C7.30979 9.09616 7.32386 9.09136 7.3374 9.08765ZM19.7192 37.1121C20.0429 37.213 20.3685 37.3057 20.6958 37.3904C20.3685 37.3057 20.0429 37.213 19.7192 37.1121ZM18.7554 36.7859V36.7849V36.7859ZM33.9458 36.4109C33.8131 36.4672 33.6803 36.5232 33.5464 36.5769C33.8138 36.4696 34.0788 36.3568 34.3413 36.239L33.9458 36.4109ZM21.3833 35.5398C21.4637 35.5597 21.5439 35.5806 21.6245 35.5994C21.5439 35.5806 21.4637 35.5597 21.3833 35.5398ZM20.8657 35.4041C20.9529 35.4283 21.04 35.4524 21.1274 35.4753C21.04 35.4524 20.9529 35.4283 20.8657 35.4041ZM20.3911 35.2654C20.4967 35.2977 20.6024 35.3297 20.7085 35.3601C20.6024 35.3297 20.4967 35.2977 20.3911 35.2654ZM14.2427 34.4451C14.521 34.6382 14.8046 34.8238 15.0923 35.0027C14.8046 34.8238 14.521 34.6382 14.2427 34.4451ZM19.9575 35.1267C20.0466 35.1564 20.1356 35.1863 20.2251 35.2146C20.1356 35.1863 20.0466 35.1564 19.9575 35.1267ZM19.5142 34.9734C19.583 34.9983 19.6521 35.0226 19.7212 35.0466C19.6521 35.0226 19.583 34.9983 19.5142 34.9734ZM19.0552 34.8015C19.1207 34.8272 19.1866 34.8518 19.2524 34.8767C19.1866 34.8518 19.1207 34.8272 19.0552 34.8015ZM18.606 34.6189C18.6395 34.633 18.673 34.647 18.7065 34.6609C18.673 34.647 18.6395 34.633 18.606 34.6189ZM17.4468 34.0818C17.4896 34.1036 17.5327 34.1248 17.5757 34.1462C17.5327 34.1248 17.4896 34.1036 17.4468 34.0818ZM16.7388 33.7009C16.7987 33.735 16.8591 33.7682 16.9194 33.8015C16.8591 33.7682 16.7987 33.735 16.7388 33.7009ZM16.3843 33.4939C16.4784 33.5503 16.5733 33.6053 16.6685 33.6599C16.5733 33.6053 16.4784 33.5503 16.3843 33.4939ZM16.0688 33.3005C16.1569 33.3558 16.2455 33.41 16.3345 33.4636C16.2455 33.41 16.1569 33.3558 16.0688 33.3005ZM15.769 33.1082C15.8355 33.1516 15.9023 33.1945 15.9692 33.2371C15.9023 33.1945 15.8355 33.1516 15.769 33.1082ZM15.4722 32.9099C15.5144 32.9387 15.5567 32.9674 15.5991 32.9958C15.5567 32.9674 15.5144 32.9387 15.4722 32.9099ZM39.5044 32.9597C39.5627 32.9085 39.6215 32.858 39.6792 32.8064C39.6215 32.858 39.5627 32.9085 39.5044 32.9597ZM15.1489 32.6833C15.1873 32.7108 15.2256 32.7383 15.2642 32.7654C15.2256 32.7383 15.1873 32.7108 15.1489 32.6833ZM39.8345 32.6648C39.9705 32.5408 40.1055 32.4164 40.2378 32.2898C40.1055 32.4164 39.9705 32.5408 39.8345 32.6648ZM14.8794 32.4861C14.9164 32.5135 14.9526 32.5419 14.9897 32.5691C14.9526 32.5419 14.9164 32.5135 14.8794 32.4861ZM40.3579 32.1726C40.4855 32.0487 40.6118 31.924 40.7358 31.7976C40.6118 31.924 40.4855 32.0487 40.3579 32.1726ZM14.2759 32.0193C14.3072 32.0446 14.3381 32.0704 14.3696 32.0955C14.3381 32.0704 14.3072 32.0446 14.2759 32.0193ZM40.9624 31.5603C41.0505 31.4678 41.1389 31.3759 41.2251 31.282C41.1389 31.3758 41.0505 31.4678 40.9624 31.5603ZM9.79736 30.2869C10.0279 30.5738 10.2663 30.8546 10.5112 31.1296C10.2663 30.8546 10.0279 30.5738 9.79736 30.2869ZM41.4399 31.0417C41.5312 30.9393 41.6224 30.8372 41.7114 30.7332C41.6224 30.8372 41.5312 30.9393 41.4399 31.0417ZM41.9038 30.5037C41.9969 30.3916 42.0887 30.2787 42.1792 30.1648C42.0887 30.2787 41.9969 30.3916 41.9038 30.5037ZM42.3433 29.9539C42.4313 29.84 42.5186 29.7258 42.604 29.6101C42.5186 29.7258 42.4313 29.84 42.3433 29.9539ZM42.7876 29.3562C42.8638 29.2495 42.9391 29.1422 43.0132 29.0339C42.9391 29.1422 42.8638 29.2495 42.7876 29.3562ZM43.1987 28.7585C43.2689 28.6522 43.3377 28.545 43.4058 28.4373C43.3377 28.545 43.2689 28.6522 43.1987 28.7585ZM43.5786 28.158C43.6448 28.049 43.7098 27.9393 43.7739 27.8289C43.7098 27.9393 43.6448 28.049 43.5786 28.158ZM7.3335 26.4558C7.51911 26.8254 7.71696 27.1895 7.92432 27.5486C7.71696 27.1895 7.51911 26.8254 7.3335 26.4558ZM43.9458 27.5281C44.0072 27.4179 44.0671 27.3068 44.1265 27.1951C44.0671 27.3068 44.0072 27.4179 43.9458 27.5281ZM44.2856 26.8914C44.3516 26.7617 44.4148 26.6304 44.478 26.4988C44.4148 26.6304 44.3516 26.7617 44.2856 26.8914ZM44.5864 26.2722C44.6558 26.1227 44.7217 25.9712 44.7876 25.8191C44.7217 25.9712 44.6558 26.1227 44.5864 26.2722ZM44.8911 25.5818C44.9466 25.4489 44.9985 25.3142 45.0513 25.1794C44.9985 25.3142 44.9466 25.4489 44.8911 25.5818ZM45.6392 23.4617C45.4968 23.9516 45.3371 24.4294 45.1626 24.8962C45.2481 24.6674 45.3308 24.4362 45.4087 24.2019L45.6401 23.4617C45.6663 23.3716 45.6893 23.2805 45.7144 23.1902C45.6892 23.2806 45.6654 23.3715 45.6392 23.4617ZM6.26709 23.9304C6.31039 24.0558 6.35798 24.1798 6.40381 24.3044C6.35797 24.1798 6.31039 24.0558 6.26709 23.9304ZM6.04834 23.2566C6.06938 23.3253 6.09296 23.3932 6.11475 23.4617C6.09296 23.3932 6.06938 23.3253 6.04834 23.2566ZM5.84229 22.5359C5.87268 22.6503 5.90651 22.7638 5.93896 22.8777C5.90651 22.7638 5.87268 22.6503 5.84229 22.5359ZM45.8247 22.7781C45.8408 22.7162 45.857 22.6544 45.8726 22.5925C45.857 22.6544 45.8408 22.7162 45.8247 22.7781ZM5.66943 21.8357C5.69905 21.966 5.7319 22.0956 5.76416 22.2253C5.73189 22.0956 5.69905 21.966 5.66943 21.8357ZM46.1499 21.3806C46.1075 21.5882 46.0617 21.7969 46.0142 22.0056C46.0222 21.9703 46.0317 21.9354 46.0396 21.9001L46.1499 21.3806C46.1601 21.3305 46.1685 21.2794 46.1753 21.2273C46.1685 21.2794 46.1601 21.3305 46.1499 21.3806ZM5.51611 21.0906C5.54207 21.2292 5.57019 21.3675 5.59912 21.5056C5.57018 21.3675 5.54208 21.2292 5.51611 21.0906ZM46.1841 21.1414C46.1866 21.1135 46.1894 21.0856 46.1909 21.0574C46.1894 21.0856 46.1866 21.1136 46.1841 21.1414ZM46.1919 21.0261C46.1937 20.9797 46.1931 20.9329 46.1919 20.8855C46.1931 20.9328 46.1937 20.9797 46.1919 21.0261ZM46.1909 20.8562C46.1892 20.8122 46.1866 20.768 46.1821 20.7234C46.1866 20.768 46.1892 20.8122 46.1909 20.8562ZM5.3999 20.4041C5.41905 20.5309 5.44077 20.6574 5.4624 20.7839C5.44077 20.6574 5.41906 20.5309 5.3999 20.4041ZM46.1753 20.6609C46.1704 20.6232 46.1638 20.5855 46.1567 20.5476C46.1638 20.5855 46.1704 20.6232 46.1753 20.6609ZM46.147 20.4949C46.1377 20.4512 46.1261 20.4078 46.1138 20.364C46.126 20.4078 46.1377 20.4512 46.147 20.4949ZM45.9595 19.9675C46.0199 20.0852 46.0671 20.205 46.103 20.324C46.0854 20.2657 46.0658 20.2073 46.0425 20.1492L45.9604 19.9685L45.9595 19.9675ZM5.30713 19.696C5.32065 19.8147 5.33539 19.9331 5.35107 20.0515C5.33539 19.9331 5.32065 19.8147 5.30713 19.696ZM5.23975 18.9939C5.24849 19.1066 5.25834 19.2192 5.26904 19.3318C5.25834 19.2192 5.24849 19.1066 5.23975 18.9939ZM44.7964 18.9294C44.862 18.9557 44.9345 18.9871 45.0103 19.0261H45.0112C44.9352 18.987 44.8622 18.9548 44.7964 18.9285V18.9294ZM31.813 15.821L44.3306 18.7859L31.813 15.8201C28.5986 15.0551 25.357 14.2794 22.0776 13.5007C25.3571 14.2794 28.5985 15.0561 31.813 15.821ZM5.1958 18.2185C5.20069 18.3485 5.20589 18.4784 5.21338 18.6082C5.20589 18.4783 5.20069 18.3485 5.1958 18.2185ZM5.18213 17.5115C5.18229 17.6421 5.18227 17.7726 5.18506 17.9031C5.18227 17.7726 5.18229 17.6421 5.18213 17.5115ZM44.938 17.7146L44.937 17.7117C44.9312 17.7088 44.9245 17.7067 44.9185 17.7039C44.925 17.7072 44.9315 17.7112 44.938 17.7146ZM5.19287 16.8191C5.1888 16.937 5.18502 17.0548 5.18311 17.1726C5.18502 17.0548 5.1888 16.937 5.19287 16.8191ZM5.23486 16.0642C5.22578 16.1873 5.21522 16.3102 5.2085 16.4333C5.21521 16.3102 5.22578 16.1873 5.23486 16.0642ZM5.31006 15.2625C5.2919 15.419 5.27455 15.5755 5.26025 15.7322C5.27455 15.5755 5.2919 15.419 5.31006 15.2625ZM5.41553 14.4871C5.38787 14.6627 5.36111 14.8384 5.33838 15.0144C5.36111 14.8384 5.38787 14.6627 5.41553 14.4871ZM5.84521 12.4109C5.79517 12.6177 5.7622 12.7789 5.75049 12.8259C5.76219 12.7789 5.79523 12.6178 5.84521 12.4109ZM5.8833 12.2576C5.87888 12.2747 5.87484 12.2916 5.87061 12.3083C5.89773 12.201 5.92845 12.0853 5.96338 11.9695L5.8833 12.2576ZM8.03467 12.2097L7.99072 12.2302L8.03467 12.2107L8.09229 12.1902L8.03467 12.2097Z" fill="white" fill-opacity="0.3"/>
</g>
</g>
</g>
</svg>
