<svg width="50" height="50" viewBox="0 0 50 50" fill="none" xmlns="http://www.w3.org/2000/svg">
<rect width="50" height="50" fill="#BEBEBE"/>
<g id="Decorate Mode">
<path d="M-64.7026 -1296.97V-1295.97H2955.3V-1296.97V-1297.97H-64.7026V-1296.97ZM2957.3 -1294.97H2956.3V2243.03H2957.3H2958.3V-1294.97H2957.3ZM2955.3 2245.03V2244.03H-64.7026V2245.03V2246.03H2955.3V2245.03ZM-66.7026 2243.03H-65.7026V-1294.97H-66.7026H-67.7026V2243.03H-66.7026ZM-64.7026 2245.03V2244.03C-65.2549 2244.03 -65.7026 2243.59 -65.7026 2243.03H-66.7026H-67.7026C-67.7026 2244.69 -66.3595 2246.03 -64.7026 2246.03V2245.03ZM2957.3 2243.03H2956.3C2956.3 2243.59 2955.85 2244.03 2955.3 2244.03V2245.03V2246.03C2956.95 2246.03 2958.3 2244.69 2958.3 2243.03H2957.3ZM2955.3 -1296.97V-1295.97C2955.85 -1295.97 2956.3 -1295.52 2956.3 -1294.97H2957.3H2958.3C2958.3 -1296.62 2956.95 -1297.97 2955.3 -1297.97V-1296.97ZM-64.7026 -1296.97V-1297.97C-66.3594 -1297.97 -67.7026 -1296.62 -67.7026 -1294.97H-66.7026H-65.7026C-65.7026 -1295.52 -65.255 -1295.97 -64.7026 -1295.97V-1296.97Z" fill="black" fill-opacity="0.1"/>
<g id="Stickers">
<rect x="-12.6938" y="-424.466" width="374" height="551" rx="4.5" stroke="#9747FF" stroke-dasharray="10 5"/>
<g id="Property 1=sunglasses">
<g id="Frame 200">
<g id="Vector">
<path d="M15.5345 17.3819C16.8925 17.3399 18.4557 17.3718 19.7791 17.3716L32.3521 17.371C33.492 17.3702 34.767 17.3369 35.9929 17.4744C37.1567 17.605 38.5151 17.9403 39.607 18.5901C40.7599 19.2762 41.5891 20.3884 42.0169 21.5993L42.037 21.657C42.0795 21.7814 42.1184 21.9119 42.1543 22.0418C42.3698 22.0454 42.6614 22.0616 42.9147 22.1386C43.2296 22.2343 43.3901 22.4616 43.4549 22.5749C43.5244 22.6961 43.5577 22.8125 43.5747 22.8835C43.6098 23.0298 43.6209 23.1801 43.6257 23.2839C43.631 23.3974 43.6307 23.5088 43.6298 23.5927C43.6293 23.6336 43.6286 23.6755 43.6282 23.702C43.628 23.7166 43.6279 23.7277 43.6278 23.7364V23.7477C43.6293 23.8231 43.6363 24.0064 43.6189 24.1884C43.6029 24.3544 43.5568 24.6645 43.3524 24.9404C43.2682 25.0541 43.1571 25.1453 43.0292 25.2059C42.8355 25.2977 42.6227 25.3172 42.543 25.3246C42.5096 25.3277 42.4754 25.3302 42.441 25.3323C42.4339 25.4081 42.4259 25.4833 42.4169 25.5577C42.1647 27.6446 41.4303 29.2939 40.3414 30.4811C39.2506 31.6705 37.8457 32.35 36.3408 32.5598C33.3505 32.9766 30.0103 31.5473 27.7293 28.7094C27.7279 28.7077 27.7265 28.7059 27.7252 28.7042C26.8935 27.6532 26.2482 26.4674 25.8172 25.1981L25.8164 25.1957C25.6947 24.8338 25.6191 24.5025 25.5428 24.203C25.4966 24.0288 25.4695 23.853 25.4495 23.713C25.4267 23.554 25.4129 23.4414 25.3914 23.3232C25.3494 23.0935 25.3071 23.0387 25.3043 23.035L25.2973 23.0293C25.285 23.0201 25.2559 23.0022 25.2014 22.987C25.1296 22.9669 25.038 22.9588 24.9425 22.9702C24.7196 22.9966 24.6704 23.0894 24.678 23.0735C24.6465 23.1389 24.6069 23.2849 24.5612 23.5591C24.525 23.776 24.4783 24.1251 24.4157 24.3876C24.4154 24.3892 24.415 24.3907 24.4146 24.3922C23.9796 26.1744 23.1072 27.8202 21.8763 29.1807C20.4807 30.7373 18.5139 31.9854 16.4205 32.4493C14.3036 32.9184 12.022 32.5861 10.1506 30.9128C8.45767 29.3988 7.80106 27.3565 7.59308 25.3458C7.55459 25.3435 7.51605 25.3407 7.47822 25.3372C7.38351 25.3283 7.19821 25.308 7.02251 25.2352C6.90326 25.1857 6.79665 25.1101 6.71058 25.0139C6.56412 24.8503 6.5027 24.6675 6.47814 24.5884C6.4461 24.4852 6.42558 24.3804 6.41163 24.2889C6.38343 24.1038 6.37094 23.8974 6.36973 23.7048C6.36852 23.5123 6.37843 23.3056 6.40434 23.1201C6.41716 23.0283 6.4364 22.9232 6.46717 22.8196C6.49082 22.7399 6.5498 22.557 6.69343 22.3918L6.71086 22.3724C6.79939 22.2766 6.90863 22.2022 7.03036 22.1547C7.21301 22.0835 7.41478 22.0669 7.51194 22.0597C7.62843 22.0511 7.7545 22.0479 7.87227 22.0468C8.37333 20.3144 9.35067 19.1651 10.6611 18.449C12.0816 17.6728 13.8146 17.4507 15.5268 17.3822L15.5345 17.3819Z" fill="#020101"/>
<path d="M19.7788 16.1452H34.1582C34.8014 16.1546 35.4722 16.1828 36.1288 16.2565C37.3923 16.3982 38.9389 16.766 40.2328 17.5359C41.5701 18.3317 42.5304 19.5721 43.0668 20.9129C43.0813 20.9161 43.0965 20.9189 43.1111 20.9224L43.2701 20.9655L43.4052 21.0109C43.97 21.2234 44.2948 21.6152 44.4551 21.8623L44.5173 21.9651L44.5699 22.062C44.6841 22.2863 44.7383 22.486 44.7648 22.5965C44.8272 22.8565 44.8426 23.0987 44.8485 23.2255C44.8554 23.374 44.8555 23.5132 44.8545 23.6046C44.854 23.6472 44.8524 23.6986 44.8521 23.7182V23.7457C44.8544 23.8292 44.8607 24.0655 44.8378 24.3041C44.8155 24.5365 44.7416 25.1191 44.3355 25.6673C44.1314 25.9428 43.863 26.1639 43.5535 26.3106C43.5499 26.3124 43.5452 26.3137 43.5415 26.3154C43.2008 28.3357 42.4184 30.0265 41.2432 31.3078C39.9468 32.7212 38.2761 33.5249 36.5103 33.7712C33.0243 34.2571 29.2785 32.5905 26.7742 29.4747C26.7729 29.473 26.7681 29.4672 26.7646 29.4627C26.6504 29.3184 26.5399 29.1715 26.4322 29.0227C25.7969 28.1452 24.2217 28.1489 23.5814 29.0227C23.3333 29.3613 23.0669 29.688 22.7838 30.0008C21.2385 31.7227 19.0552 33.118 16.6853 33.6432C14.2593 34.1807 11.5532 33.8079 9.33475 31.8244C7.59258 30.2664 6.81437 28.2626 6.49235 26.337C6.22858 26.2175 5.99107 26.0449 5.7976 25.8287C5.47245 25.4652 5.34791 25.0767 5.30852 24.9498C5.25223 24.7684 5.22024 24.5985 5.2009 24.4715C5.16154 24.213 5.14617 23.945 5.14469 23.711C5.14324 23.477 5.15515 23.2085 5.19133 22.9493C5.20915 22.8217 5.23899 22.6517 5.29297 22.4698C5.33088 22.3421 5.45019 21.954 5.7689 21.5873L5.78205 21.5729L5.79879 21.5538L5.81195 21.5394C6.02638 21.3076 6.29104 21.127 6.58562 21.0121L6.72433 20.9631C6.81075 20.9357 6.89546 20.9152 6.97425 20.8985C7.62056 19.2885 8.69007 18.1296 10.0737 17.3733C11.7543 16.455 13.7275 16.2272 15.4775 16.1572H15.4907L15.4967 16.156C16.8788 16.1132 18.4941 16.1455 19.7788 16.1452ZM17.6694 17.359C16.9437 17.3563 16.2137 17.3595 15.5349 17.3805H15.5265C13.8146 17.449 12.0812 17.671 10.6609 18.4471L10.4193 18.587C9.23048 19.3096 8.34206 20.4213 7.87229 22.0453C7.7547 22.0463 7.62869 22.0498 7.51236 22.0584L7.42148 22.0656C7.31526 22.0766 7.16735 22.0996 7.03046 22.1529C6.90893 22.2003 6.79963 22.275 6.71118 22.3705L6.69343 22.3918C6.55026 22.5566 6.49097 22.7379 6.46724 22.8177C6.43648 22.9214 6.41716 23.0283 6.40434 23.1201L6.38712 23.2614C6.37347 23.4068 6.36883 23.5605 6.36973 23.7048C6.37095 23.8971 6.38291 24.1025 6.41104 24.2874C6.42495 24.3786 6.44611 24.4834 6.478 24.5863C6.50252 24.6653 6.5639 24.8485 6.70998 25.012C6.79593 25.1081 6.90306 25.1838 7.02209 25.2332C7.19748 25.3059 7.38282 25.3272 7.47768 25.3361C7.51532 25.3396 7.55418 25.3422 7.59248 25.3444C7.80045 27.3549 8.4577 29.3969 10.1503 30.9108C12.0215 32.584 14.3031 32.9163 16.4198 32.4474C18.5132 31.9836 20.4806 30.7359 21.8762 29.1793C23.1071 27.8189 23.9798 26.1724 24.4149 24.3902L24.4157 24.3876C24.4783 24.1252 24.5245 23.7748 24.5607 23.5579C24.6065 23.2841 24.6465 23.139 24.678 23.0735C24.6711 23.088 24.7209 22.9948 24.9422 22.9684C25.0376 22.9571 25.1299 22.9651 25.2017 22.9852C25.2561 23.0004 25.285 23.0201 25.2973 23.0293L25.3045 23.033C25.3074 23.0366 25.3487 23.0921 25.3906 23.3212C25.4122 23.4392 25.4266 23.5523 25.4492 23.711C25.4692 23.8509 25.4963 24.0272 25.5425 24.2013C25.6187 24.5006 25.6948 24.8322 25.8163 25.1938L25.8164 25.1957L25.9 25.4341C26.3291 26.6139 26.9454 27.7171 27.7248 28.7022L27.7293 28.7094C29.9389 31.4583 33.1429 32.8845 36.0595 32.5921L36.3408 32.5598C37.7517 32.3631 39.0749 31.7523 40.1335 30.6968L40.3416 30.4792C41.3623 29.3661 42.0713 27.8473 42.3637 25.9423L42.4163 25.5561C42.4253 25.482 42.4339 25.4078 42.441 25.3323L42.5431 25.3229C42.6228 25.3155 42.8351 25.296 43.0285 25.2045C43.1244 25.1591 43.2117 25.0968 43.2844 25.0204L43.3526 24.9391C43.5059 24.7321 43.5697 24.5054 43.5989 24.3352L43.6193 24.1869C43.6367 24.005 43.6291 23.8211 43.6276 23.7457V23.7002L43.63 23.5914L43.6257 23.2839C43.6221 23.206 43.6147 23.1 43.5965 22.9911L43.575 22.8823C43.558 22.8113 43.5237 22.6951 43.4542 22.5738C43.3894 22.4606 43.2296 22.233 42.9149 22.1373C42.6617 22.0604 42.3699 22.044 42.1544 22.0405C42.1365 21.9756 42.1177 21.9099 42.0982 21.8456L42.0372 21.6554L42.0169 21.5993C41.6159 20.4641 40.8617 19.4141 39.819 18.7222L39.6074 18.5882C38.6521 18.0197 37.4919 17.6917 36.4373 17.5312L35.9925 17.4726C35.3797 17.4039 34.7546 17.3785 34.1402 17.3697H19.7788L17.6694 17.359Z" fill="#E8E7E7"/>
<path d="M19.7787 15.2274L19.7788 16.1452L17.6741 16.135C16.937 16.1323 16.1877 16.1346 15.4967 16.156L15.4907 16.1572H15.4775C13.7275 16.2272 11.7543 16.455 10.0737 17.3733C8.69007 18.1296 7.62056 19.2885 6.97425 20.8985C6.89546 20.9152 6.81075 20.9357 6.72433 20.9631L6.58562 21.0121C6.29104 21.127 6.02638 21.3076 5.81195 21.5394L5.79879 21.5538L5.78205 21.5729L5.7689 21.5873C5.45019 21.954 5.33088 22.3421 5.29297 22.4698L5.22828 22.7298C5.21184 22.811 5.20024 22.8855 5.19133 22.9493L5.15414 23.3396C5.14683 23.4684 5.14397 23.594 5.14469 23.711C5.14617 23.945 5.16154 24.213 5.2009 24.4715C5.22024 24.5985 5.25223 24.7684 5.30852 24.9498C5.34791 25.0767 5.47245 25.4652 5.7976 25.8287C5.99107 26.0449 6.22858 26.2175 6.49235 26.337C6.81437 28.2626 7.59258 30.2664 9.33475 31.8244C11.4144 33.6837 13.9229 34.128 16.2272 33.7334L16.6853 33.6432C19.0552 33.118 21.2385 31.7227 22.7838 30.0008C22.9253 29.8444 23.0632 29.685 23.1962 29.5219L23.5814 29.0227C24.2217 28.1489 25.7969 28.1452 26.4322 29.0227C26.5399 29.1715 26.6504 29.3184 26.7646 29.4627C26.7681 29.4672 26.7729 29.473 26.7742 29.4747C29.2002 32.4929 32.7913 34.151 36.1825 33.81L36.5103 33.7712C38.1657 33.5403 39.7373 32.8192 40.9956 31.5655L41.2432 31.3078C42.4184 30.0265 43.2008 28.3357 43.5415 26.3154L43.5535 26.3106C43.7855 26.2007 43.9944 26.049 44.1704 25.864L44.3355 25.6673C44.6402 25.2561 44.7574 24.8254 44.8066 24.5378L44.8378 24.3041C44.8607 24.0655 44.8544 23.8292 44.8521 23.7457V23.7182L44.8545 23.6046L44.8485 23.2255C44.8441 23.1305 44.8339 22.9707 44.803 22.7872L44.7648 22.5965C44.7383 22.486 44.6841 22.2863 44.5699 22.062L44.5173 21.9651L44.4551 21.8623C44.3148 21.6461 44.0486 21.3194 43.606 21.0987L43.4052 21.0109L43.2701 20.9655L43.1111 20.9224C43.0965 20.9189 43.0813 20.9161 43.0668 20.9129C42.564 19.6559 41.6883 18.4876 40.479 17.6907L40.2328 17.5359C38.9389 16.766 37.3923 16.3982 36.1288 16.2565C35.4722 16.1828 34.8014 16.1546 34.1582 16.1452H19.7788L19.7787 15.2274H34.1712C34.6655 15.2346 35.1849 15.2527 35.7078 15.2944L36.2316 15.3434L36.7481 15.4115C37.9873 15.599 39.4376 15.9945 40.7026 16.7472C42.0916 17.5738 43.1107 18.8103 43.7375 20.1552C44.4426 20.423 44.8827 20.8837 45.1306 21.2243L45.2251 21.363L45.2406 21.3869L45.3028 21.4897C45.3101 21.5019 45.3176 21.5144 45.3243 21.5268L45.377 21.6237L45.3889 21.6452C45.5487 21.9591 45.6229 22.2359 45.658 22.3818C45.7407 22.7265 45.7588 23.0374 45.7656 23.183C45.7736 23.3554 45.7739 23.5136 45.7728 23.6147C45.7725 23.6424 45.7721 23.6712 45.7716 23.6924C45.7714 23.6979 45.7705 23.7032 45.7704 23.7079V23.7211L45.7728 23.9758C45.7715 24.0954 45.7668 24.242 45.7524 24.3919C45.7251 24.6768 45.6298 25.4631 45.0732 26.2143C44.8765 26.4798 44.637 26.7089 44.3665 26.8959C43.9657 28.8792 43.1464 30.5917 41.9199 31.929C40.4691 33.5105 38.5985 34.407 36.6369 34.6805C32.7786 35.2183 28.7292 33.3741 26.0578 30.0504C26.0531 30.0446 26.0491 30.0384 26.0446 30.0325L25.6883 29.5613C25.5853 29.4191 25.3468 29.2836 25.0091 29.2839C24.6715 29.2843 24.4291 29.4209 24.3227 29.5661C24.0565 29.9293 23.7697 30.2783 23.4665 30.6136C21.8088 32.4607 19.4624 33.9679 16.8837 34.5394C14.2266 35.128 11.2017 34.7256 8.72238 32.509C6.91201 30.8899 6.05375 28.8525 5.66594 26.9186C5.46498 26.7825 5.27759 26.6248 5.11349 26.4415C4.65471 25.9285 4.48283 25.3859 4.43189 25.2218C4.35742 24.9818 4.31661 24.7634 4.29317 24.6096C4.24557 24.2968 4.22788 23.9826 4.22621 23.7163C4.22457 23.4504 4.23743 23.1356 4.28122 22.8219C4.3028 22.6674 4.34138 22.449 4.41275 22.2084C4.46187 22.043 4.62602 21.5021 5.07522 20.9851L5.09196 20.9672L5.10751 20.9492L5.12186 20.9337L5.13501 20.9194L5.1374 20.9158C5.44603 20.5821 5.82732 20.322 6.25188 20.1564C6.26102 20.1529 6.27013 20.1489 6.27938 20.1457L6.30449 20.1361C7.04379 18.5413 8.18855 17.3576 9.63358 16.5679L9.98753 16.3849C11.7759 15.5146 13.7722 15.3061 15.4403 15.2393H15.4571C15.4607 15.2392 15.4642 15.2383 15.4678 15.2382C16.8683 15.1948 18.5228 15.2276 19.7787 15.2274ZM42.7091 23.6804L42.7115 23.5716L42.7068 23.3145C42.7038 23.2562 42.6994 23.1995 42.6912 23.1483L42.6816 23.0969L42.6721 23.0622C42.6673 23.0492 42.6622 23.0378 42.6577 23.0299C42.6564 23.0277 42.6541 23.0247 42.6518 23.0216C42.6498 23.019 42.6482 23.0169 42.647 23.0156L42.6458 23.0144C42.5917 22.9982 42.5165 22.9851 42.4222 22.9749C42.3285 22.9648 42.2314 22.9597 42.1388 22.9582C41.7316 22.9512 41.3778 22.6775 41.2694 22.2849C41.253 22.2255 41.236 22.1669 41.2192 22.1116L41.1714 21.9621L41.151 21.9047C40.8109 20.9421 40.1775 20.0686 39.3275 19.4988L39.1266 19.372C38.3085 18.8879 37.2788 18.5884 36.2997 18.4393L35.8908 18.3855L35.4579 18.3448C35.0266 18.3108 34.5856 18.2939 34.1401 18.2874L19.7739 18.2886L17.6645 18.2779C16.943 18.2752 16.2259 18.2777 15.5635 18.2982L14.9381 18.3305C13.4963 18.4265 12.1727 18.6679 11.1008 19.2536L10.8951 19.3708C9.91258 19.9681 9.16357 20.887 8.75467 22.3005C8.64189 22.6904 8.28639 22.9605 7.88055 22.9642C7.77492 22.9651 7.67198 22.9662 7.58399 22.9725L7.58519 22.9737L7.50626 22.9797C7.47721 22.9829 7.44827 22.9874 7.42136 22.9929C7.40333 22.9965 7.38954 23.0006 7.37951 23.0036C7.37616 23.0089 7.37191 23.0159 7.36755 23.0251C7.35948 23.0424 7.35308 23.0592 7.34722 23.079C7.33342 23.1255 7.32245 23.184 7.31374 23.2464L7.30178 23.3468L7.28743 23.6984C7.28847 23.8593 7.2988 24.0196 7.31853 24.1492L7.35559 24.3142L7.37592 24.3692C7.37995 24.3775 7.38476 24.3834 7.38788 24.3883C7.40333 24.3936 7.42545 24.4018 7.45485 24.4075C7.49261 24.4148 7.52912 24.4186 7.56366 24.4218L7.64737 24.4278L7.81119 24.4529C8.18209 24.5437 8.46546 24.8591 8.50595 25.2505C8.70112 27.1365 9.30444 28.9221 10.7624 30.2262C12.3732 31.6665 14.3364 31.9686 16.2212 31.5511C18.1057 31.1335 19.9092 29.9972 21.1921 28.5664L21.1957 28.5629C22.324 27.3156 23.1239 25.8057 23.5227 24.1719C23.5754 23.9502 23.6103 23.6767 23.6554 23.4066C23.6937 23.177 23.7418 22.9455 23.8157 22.7585C23.8215 22.7425 23.8254 22.7304 23.8276 22.725C23.8382 22.6992 23.848 22.6783 23.8491 22.676L23.8503 22.6736C23.9053 22.5595 23.9809 22.4618 24.0704 22.383L24.0811 22.3734L24.0847 22.3722C24.1198 22.3425 24.1571 22.3161 24.1959 22.2921C24.1391 22.3271 24.1007 22.3581 24.0883 22.3687C24.13 22.3322 24.1789 22.293 24.2378 22.2562C24.4031 22.153 24.6037 22.084 24.8345 22.0566C24.9886 22.0383 25.1473 22.0414 25.2996 22.0673L25.4491 22.1008C25.595 22.1417 25.7112 22.2029 25.8043 22.2658L25.8066 22.2646L25.8138 22.2694L25.8282 22.2802C25.8336 22.2841 25.8396 22.287 25.8449 22.2909L25.8425 22.2921C25.9118 22.3424 25.9751 22.4003 26.0279 22.4679C26.1668 22.6458 26.2432 22.875 26.2945 23.1555C26.3203 23.2965 26.3379 23.4412 26.3579 23.5812C26.3676 23.6491 26.3786 23.7154 26.3902 23.7797L26.4297 23.9662L26.432 23.9746C26.514 24.2965 26.5793 24.5783 26.6856 24.8954L26.7633 25.1202L26.9199 25.5243C27.3033 26.4595 27.8159 27.3377 28.4446 28.1324C30.4907 30.6779 33.4064 31.9344 35.9673 31.6779L36.2172 31.648C37.4422 31.4765 38.5758 30.952 39.4817 30.0504L39.6778 29.8447C40.5494 28.888 41.1877 27.5505 41.456 25.803L41.5062 25.4323C41.5146 25.3627 41.5211 25.3034 41.5265 25.2457L41.5564 25.0843C41.6579 24.7198 41.9776 24.4479 42.366 24.4158L42.4676 24.4075C42.4997 24.4044 42.531 24.4012 42.5657 24.3943C42.5918 24.3891 42.61 24.3816 42.6219 24.3776C42.6535 24.3292 42.6792 24.2629 42.6936 24.1791L42.7056 24.0822C42.7147 23.9715 42.711 23.8585 42.7091 23.7641V23.6804ZM43.8715 27.1721C43.8734 27.1714 43.876 27.1708 43.8786 27.1698L43.887 27.1662C43.8806 27.1687 43.8748 27.1709 43.8715 27.1721ZM25.5256 23.4233L25.5268 23.4209C25.5277 23.4187 25.5288 23.4155 25.5304 23.4114C25.5288 23.4154 25.5273 23.4194 25.5256 23.4233ZM25.5783 23.2368C25.5815 23.2186 25.5877 23.1989 25.5902 23.177C25.5912 23.1685 25.5891 23.1562 25.5902 23.1411C25.5878 23.1731 25.5841 23.2049 25.5783 23.2368ZM25.5938 23.079C25.5939 23.0461 25.593 23.0074 25.5878 22.9642C25.5924 23.0022 25.594 23.0404 25.5938 23.079ZM25.5818 22.9223C25.577 22.8936 25.5689 22.864 25.5603 22.8326C25.5684 22.8624 25.5767 22.8918 25.5818 22.9223ZM25.5137 22.7023L25.5149 22.6999C25.5057 22.6793 25.4955 22.6581 25.4838 22.6365C25.4953 22.6578 25.5039 22.6802 25.5137 22.7023ZM24.0476 22.4057L24.0142 22.4392C24.017 22.4362 24.0234 22.4287 24.0321 22.4201C24.035 22.4172 24.0406 22.4124 24.0476 22.4057ZM25.3307 22.4308C25.3252 22.4253 25.3209 22.4184 25.3152 22.4129C25.3031 22.4012 25.2894 22.3914 25.2769 22.3806C25.2956 22.3968 25.3135 22.4133 25.3307 22.4308ZM24.3167 22.2299C24.2817 22.2449 24.2493 22.2604 24.221 22.2766C24.262 22.2531 24.305 22.2337 24.349 22.2168C24.3356 22.2219 24.3246 22.2266 24.3167 22.2299ZM24.52 22.1702C24.4678 22.1792 24.4233 22.1909 24.3884 22.2024C24.4314 22.1882 24.4753 22.178 24.52 22.1702ZM24.8464 22.1725C24.8536 22.1739 24.862 22.1746 24.8691 22.1761C24.8676 22.1758 24.866 22.1753 24.8644 22.1749C24.8587 22.1738 24.8532 22.1724 24.8476 22.1713L24.8464 22.1725ZM43.6276 23.7457C43.6291 23.8211 43.6367 24.005 43.6193 24.1869L43.5989 24.3352C43.5697 24.5054 43.5059 24.7321 43.3526 24.9391L43.2844 25.0204C43.2117 25.0968 43.1244 25.1591 43.0285 25.2045L42.8825 25.2601C42.7374 25.3046 42.6029 25.319 42.543 25.3246L42.441 25.3323L42.4163 25.5561L42.3637 25.9423C42.0713 27.8473 41.3623 29.3661 40.3416 30.4792L40.1335 30.6968L39.9325 30.8899C38.9096 31.8273 37.6636 32.3753 36.3408 32.5598L36.0595 32.5921L35.7855 32.6142C33.0356 32.788 30.0686 31.4615 27.9399 28.9622L27.7293 28.7094L27.7248 28.7022C26.9454 27.7171 26.3291 26.6139 25.9 25.4341L25.8174 25.1967L25.8163 25.1938C25.7555 25.0129 25.7057 24.8397 25.662 24.6741L25.5425 24.2013C25.4963 24.0272 25.4692 23.8509 25.4492 23.711C25.4328 23.5964 25.4184 23.5059 25.4049 23.4198L25.3906 23.3212C25.3495 23.0965 25.3087 23.0385 25.3045 23.033L25.2973 23.0293C25.285 23.0201 25.2561 23.0004 25.2017 22.9852C25.1299 22.9651 25.0376 22.9571 24.9422 22.9684C24.7236 22.9945 24.6725 23.0854 24.678 23.0735L24.6252 23.2368C24.6055 23.3158 24.5836 23.4208 24.5607 23.5579C24.5245 23.7748 24.4783 24.1252 24.4157 24.3876L24.4149 24.3902L24.3286 24.7232C23.8698 26.3774 23.0301 27.9039 21.8762 29.1793C20.4806 30.7359 18.5132 31.9836 16.4198 32.4474L16.0215 32.5257C14.1531 32.8466 12.1857 32.5286 10.5053 31.2091L10.1503 30.9108C8.56347 29.4915 7.88637 27.6081 7.63661 25.7217L7.59248 25.3444L7.47768 25.3361C7.40648 25.3294 7.28413 25.3163 7.15351 25.2792L7.02209 25.2332C6.93287 25.1962 6.84996 25.1448 6.77803 25.0807L6.70998 25.012C6.63693 24.9302 6.58511 24.8435 6.54844 24.7674L6.478 24.5863C6.46205 24.5349 6.44824 24.4831 6.43723 24.4326L6.41104 24.2874C6.39698 24.195 6.38662 24.0972 6.37983 23.9985L6.36973 23.7048C6.36883 23.5605 6.37347 23.4068 6.38712 23.2614L6.40434 23.1201C6.41077 23.0741 6.41843 23.0236 6.42886 22.9725L6.46724 22.8177C6.49097 22.7379 6.55026 22.5566 6.69343 22.3918L6.71118 22.3705C6.79963 22.275 6.90893 22.2003 7.03046 22.1529C7.16735 22.0996 7.31526 22.0766 7.42148 22.0656L7.51236 22.0584L7.87227 22.0468C8.342 20.4231 9.23063 19.3097 10.4193 18.587L10.6609 18.4471C12.0812 17.671 13.8146 17.449 15.5265 17.3805H15.5349L16.5847 17.3607C16.9427 17.3576 17.3066 17.3576 17.6694 17.359L19.7788 17.3697H34.1402C34.7546 17.3785 35.3797 17.4039 35.9925 17.4726L36.4373 17.5312C37.4919 17.6917 38.6521 18.0197 39.6074 18.5882L39.819 18.7222C40.8617 19.4141 41.6159 20.4641 42.0169 21.5993L42.0372 21.6554L42.0982 21.8456C42.1177 21.9099 42.1365 21.9756 42.1544 22.0405C42.3699 22.044 42.6617 22.0604 42.9149 22.1373C43.2296 22.233 43.3894 22.4606 43.4542 22.5738C43.5237 22.6951 43.558 22.8113 43.575 22.8823L43.5965 22.9911C43.6147 23.1 43.6221 23.206 43.6257 23.2839L43.63 23.5914L43.6276 23.7002V23.7457Z" fill="#020101"/>
<path d="M15.5658 18.2437C16.9068 18.2022 18.4331 18.234 19.7839 18.2338L32.3573 18.2332C33.5304 18.2324 34.7376 18.2007 35.9016 18.3313C36.9953 18.454 38.2217 18.766 39.1714 19.3312C40.1457 19.911 40.8629 20.8721 41.2269 21.9368C41.3315 22.2425 41.4132 22.5968 41.49 22.915C41.8081 22.9094 42.3704 22.8729 42.6691 22.9636C42.8054 23.0051 42.7686 23.6187 42.7717 23.7659C42.7755 23.96 42.7894 24.2616 42.6652 24.4291C42.5057 24.5047 41.8564 24.4772 41.6225 24.4795C41.6251 24.8005 41.6053 25.137 41.5668 25.4556C40.6281 33.2244 32.6522 33.4554 28.405 28.1712C27.6344 27.1973 27.0365 26.0986 26.6371 24.9225C26.5285 24.5996 26.4642 24.315 26.3812 23.9893C26.2487 23.4978 26.2977 22.8141 25.923 22.4328C25.4102 21.9111 24.235 22.0217 23.9073 22.7005C23.7242 23.0799 23.6899 23.7398 23.5828 24.1892C23.1817 25.8325 22.3774 27.3499 21.2425 28.6043C18.662 31.4847 13.9844 33.183 10.7291 30.2722C9.05875 28.7784 8.50338 26.6595 8.39674 24.5001C8.14761 24.487 7.54433 24.5188 7.35681 24.441C7.19997 24.2658 7.1927 23.1363 7.34772 22.9581C7.54249 22.8822 8.2823 22.9168 8.55181 22.9141C9.30953 19.1175 12.1943 18.3786 15.5658 18.2437Z" fill="#E76F51"/>
<path d="M33.3708 19.104C34.1072 19.0753 34.8447 19.0923 35.5792 19.1546C39.0247 19.4484 40.855 21.0001 40.7658 24.624C40.6756 28.2827 38.5756 31.2631 34.5819 30.879C30.7444 30.415 27.4306 26.7401 27.1082 22.932C26.9991 21.6452 27.653 20.515 28.8411 19.9987C30.2495 19.3868 31.8495 19.1846 33.3708 19.104Z" fill="black"/>
<path d="M33.4341 19.5111C34.2121 19.459 35.4242 19.5203 36.1924 19.6284C37.4341 19.8032 38.7076 20.2087 39.4903 21.2519C40.3948 22.4724 40.5006 24.1653 40.3028 25.6237C39.8885 28.6804 37.7498 30.9594 34.4919 30.4717C34.2918 30.4566 33.8962 30.3603 33.6946 30.3062C32.4495 29.9719 31.2564 29.2503 30.3 28.37C28.7971 26.9867 27.6489 24.9247 27.503 22.8642C27.4576 22.2205 27.6774 21.416 28.1277 20.9617C29.2367 19.8428 31.9621 19.5709 33.4341 19.5111Z" fill="#8FB7B3"/>
<path d="M15.2006 19.104C17.0916 19.0221 19.553 19.2736 21.2795 20.0786C23.7162 21.2146 22.9488 24.144 21.9713 26.0332C20.8701 28.1614 18.9802 29.8839 16.6701 30.5987C12.0567 32.0033 9.08426 28.4891 9.2505 24.1271C9.39724 20.2759 11.8003 19.2903 15.2006 19.104Z" fill="black"/>
<path d="M15.4914 19.5122C17.2911 19.482 19.3756 19.6585 21.0459 20.4012C23.2705 21.3904 22.5364 24.0742 21.6649 25.7804C20.5717 27.9204 18.8001 29.4936 16.4974 30.2407C12.4632 31.47 9.73419 28.574 9.64515 24.6786C9.55245 20.623 11.9096 19.5869 15.4914 19.5122Z" fill="#8FB7B3"/>
<path d="M14.0436 20.2519C14.3688 20.2193 15.0808 20.2401 15.4093 20.2592C14.7888 20.3641 14.1781 20.5205 13.5835 20.7267C12.2191 21.2054 11.3499 21.9562 10.7238 23.2545C10.5525 23.6037 10.449 23.9219 10.3232 24.2888C10.3554 23.1191 10.6265 21.892 11.5455 21.0945C12.2346 20.4964 13.161 20.3218 14.0436 20.2519Z" fill="#E8E7E7"/>
<path d="M21.2823 19.0947C21.6748 19.1088 22.7948 19.0964 23.1958 19.095L26.2716 19.0947C26.8456 19.0951 28.1509 19.0767 28.7187 19.1056C28.0292 19.346 27.2653 19.7945 26.891 20.3845C26.7052 20.7158 26.6117 20.9168 26.4825 21.2849C25.4573 20.5802 24.5162 20.5402 23.5088 21.332C23.1874 20.2318 22.218 19.6907 21.2823 19.0947Z" fill="#E9E8E6"/>
<path d="M26.2716 19.0947C26.8456 19.0951 28.1509 19.0767 28.7187 19.1056C28.0292 19.346 27.2653 19.7945 26.891 20.3845C26.7052 20.7158 26.6117 20.9168 26.4825 21.2849C25.4573 20.5802 24.5162 20.5402 23.5088 21.332C23.1874 20.2318 22.218 19.6907 21.2823 19.0947C21.6748 19.1088 22.7948 19.0964 23.1958 19.095L26.2716 19.0947ZM27.2283 19.4731C26.8589 19.4747 26.509 19.4775 26.2716 19.4773L23.1971 19.4776C23.0579 19.4781 22.8239 19.48 22.5621 19.4816C23.0075 19.8157 23.4194 20.2147 23.6871 20.7456C24.1088 20.4961 24.5408 20.3654 24.9883 20.3646C25.4352 20.3638 25.868 20.4927 26.2915 20.7198C26.3657 20.5508 26.4467 20.3944 26.5573 20.1973L26.5679 20.1795C26.7371 19.9129 26.9676 19.6769 27.2283 19.4731Z" fill="#020101"/>
</g>
</g>
<path id="Union" d="M19.7783 15.2275H34.1709C34.6652 15.2347 35.1851 15.2523 35.708 15.2939L36.2314 15.3438L36.748 15.4111C37.9872 15.5986 39.4381 15.9944 40.7031 16.7471C42.0919 17.5737 43.1105 18.8104 43.7373 20.1553C44.4424 20.4231 44.8829 20.884 45.1309 21.2246L45.2256 21.3633L45.2412 21.3867L45.3027 21.4893C45.31 21.5012 45.3175 21.5141 45.3242 21.5264L45.377 21.624L45.3887 21.6455C45.5484 21.9594 45.6232 22.236 45.6582 22.3818C45.7409 22.7262 45.7588 23.0369 45.7656 23.1826C45.7736 23.3548 45.7736 23.5131 45.7725 23.6143C45.7721 23.642 45.772 23.6712 45.7715 23.6924C45.7713 23.6978 45.7706 23.7033 45.7705 23.708V23.7207L45.7725 23.9756C45.7712 24.0951 45.7673 24.2418 45.7529 24.3916C45.7256 24.6765 45.6296 25.4627 45.0732 26.2139C44.8765 26.4793 44.6366 26.7085 44.3662 26.8955C43.9654 28.8787 43.1464 30.5914 41.9199 31.9287C40.4691 33.5102 38.5983 34.4071 36.6367 34.6807C32.7786 35.2183 28.729 33.3743 26.0576 30.0508C26.053 30.045 26.0494 30.0381 26.0449 30.0322L25.6885 29.5615C25.5855 29.4192 25.3465 29.2839 25.0088 29.2842C24.6715 29.2847 24.4296 29.4213 24.3232 29.5664C24.0572 29.9295 23.7699 30.2781 23.4668 30.6133C21.8091 32.4603 19.4625 33.9676 16.8838 34.5391C14.2268 35.1277 11.2019 34.7255 8.72266 32.5088C6.91237 30.8898 6.05386 28.8527 5.66602 26.9189C5.46506 26.7828 5.27738 26.6247 5.11328 26.4414C4.65465 25.9285 4.48258 25.3857 4.43164 25.2217C4.35722 24.9818 4.3164 24.7631 4.29297 24.6094C4.24539 24.2967 4.22824 23.982 4.22656 23.7158C4.22494 23.4501 4.23753 23.1357 4.28125 22.8223C4.30284 22.6678 4.34172 22.4486 4.41309 22.208C4.46235 22.0421 4.62652 21.5019 5.0752 20.9854L5.0918 20.9668L5.10742 20.9492L5.12207 20.9336L5.13477 20.9189L5.1377 20.916C5.44633 20.5823 5.8274 20.3218 6.25195 20.1562C6.26104 20.1527 6.2701 20.1488 6.2793 20.1455L6.30469 20.1357C7.04399 18.541 8.18886 17.3571 9.63379 16.5674L9.9873 16.3848C11.7757 15.5144 13.7723 15.306 15.4404 15.2393H15.457C15.4606 15.2391 15.4642 15.2384 15.4678 15.2383C16.868 15.1949 18.5225 15.2277 19.7783 15.2275ZM14.4072 33.8594C14.5151 33.863 14.6228 33.8638 14.7305 33.8633C14.6228 33.8638 14.5151 33.8629 14.4072 33.8594ZM14.8486 33.8633C14.9658 33.8612 15.0826 33.8554 15.1992 33.8486C15.0826 33.8554 14.9658 33.8612 14.8486 33.8633ZM35.2178 33.8525C35.2383 33.8527 35.2588 33.8525 35.2793 33.8525C35.2588 33.8525 35.2383 33.8527 35.2178 33.8525ZM13.9551 33.832C14.0368 33.8392 14.1185 33.8439 14.2002 33.8486C14.1185 33.8439 14.0368 33.8391 13.9551 33.832ZM34.8799 33.8438C34.9362 33.8463 34.9925 33.8471 35.0488 33.8486C34.9925 33.8471 34.9362 33.8464 34.8799 33.8438ZM15.3164 33.8418C15.4611 33.8316 15.6054 33.8188 15.749 33.8018C15.6054 33.8188 15.4611 33.8316 15.3164 33.8418ZM34.5664 33.8242C34.6185 33.8284 34.6706 33.8307 34.7227 33.834C34.6706 33.8307 34.6185 33.8284 34.5664 33.8242ZM13.4941 33.7783C13.5745 33.7899 13.6549 33.7994 13.7354 33.8086C13.6549 33.7994 13.5745 33.7899 13.4941 33.7783ZM34.2432 33.792C34.2764 33.7958 34.3096 33.7993 34.3428 33.8027C34.3096 33.7993 34.2764 33.7958 34.2432 33.792ZM33.9062 33.7471C33.9612 33.7554 34.0163 33.7622 34.0713 33.7695C34.0163 33.7622 33.9612 33.7554 33.9062 33.7471ZM13.0117 33.6934C13.1037 33.7124 13.1959 33.7294 13.2881 33.7451C13.1959 33.7294 13.1037 33.7124 13.0117 33.6934ZM33.5703 33.6904C33.6337 33.7023 33.6972 33.713 33.7607 33.7236C33.6972 33.713 33.6337 33.7023 33.5703 33.6904ZM37.0391 33.6777C37.0729 33.6708 37.1069 33.6646 37.1406 33.6572C37.1069 33.6646 37.0729 33.6708 37.0391 33.6777ZM33.2559 33.626C33.3215 33.6405 33.3873 33.6538 33.4531 33.667C33.3873 33.6538 33.3215 33.6405 33.2559 33.626ZM12.5791 33.5908C12.6652 33.6138 12.7515 33.6343 12.8379 33.6543C12.7515 33.6344 12.6652 33.6138 12.5791 33.5908ZM37.3164 33.6162C37.3637 33.6048 37.4109 33.5933 37.458 33.5811C37.4109 33.5933 37.3637 33.6048 37.3164 33.6162ZM32.9551 33.5547C32.9973 33.5654 33.0398 33.5748 33.082 33.585C33.0398 33.5748 32.9973 33.5654 32.9551 33.5547ZM37.6152 33.5381C37.6688 33.5229 37.7222 33.5075 37.7754 33.4912C37.7222 33.5075 37.6688 33.5229 37.6152 33.5381ZM32.6582 33.4746C32.6702 33.478 32.6823 33.481 32.6943 33.4844C32.6823 33.481 32.6702 33.478 32.6582 33.4746ZM37.8936 33.4541C37.9638 33.4315 38.0339 33.4084 38.1035 33.3838C38.0339 33.4084 37.9638 33.4315 37.8936 33.4541ZM32.3174 33.3701C32.347 33.3797 32.3766 33.3891 32.4062 33.3984C32.3766 33.3891 32.347 33.3797 32.3174 33.3701ZM11.7969 33.3389C11.8189 33.3473 11.8412 33.355 11.8633 33.3633C11.8412 33.355 11.8189 33.3473 11.7969 33.3389ZM38.1855 33.3535C38.2556 33.3279 38.3252 33.3011 38.3945 33.2734C38.3252 33.3011 38.2556 33.3279 38.1855 33.3535ZM31.9922 33.2598C32.0327 33.2743 32.0736 33.2877 32.1143 33.3018C32.0736 33.2877 32.0327 33.2743 31.9922 33.2598ZM38.5205 33.2217C38.5762 33.1984 38.6314 33.174 38.6865 33.1494C38.6313 33.174 38.5762 33.1984 38.5205 33.2217ZM11.3418 33.1465C11.3763 33.1623 11.4107 33.1781 11.4453 33.1934C11.4107 33.1781 11.3763 33.1623 11.3418 33.1465ZM31.6924 33.1465C31.723 33.1585 31.7535 33.1709 31.7842 33.1826C31.7535 33.1709 31.723 33.1585 31.6924 33.1465ZM38.8193 33.0889C38.8716 33.0643 38.9238 33.0394 38.9756 33.0137C38.9237 33.0394 38.8716 33.0643 38.8193 33.0889ZM10.9258 32.9404C10.9547 32.9559 10.9837 32.9713 11.0127 32.9863C10.9837 32.9713 10.9547 32.9559 10.9258 32.9404ZM39.1182 32.9414C39.1678 32.9155 39.2174 32.8894 39.2666 32.8623C39.2174 32.8894 39.1678 32.9155 39.1182 32.9414ZM31.0088 32.8506C31.0718 32.8805 31.1349 32.9099 31.1982 32.9385C31.1349 32.9099 31.0718 32.8805 31.0088 32.8506ZM30.7246 32.7109C30.7862 32.7423 30.8482 32.7726 30.9102 32.8027C30.8482 32.7726 30.7862 32.7423 30.7246 32.7109ZM39.4072 32.7832C39.4538 32.7563 39.4998 32.7282 39.5459 32.7002C39.4998 32.7282 39.4538 32.7563 39.4072 32.7832ZM10.4775 32.6816C10.508 32.7006 10.5388 32.7189 10.5693 32.7373C10.5388 32.7189 10.508 32.7006 10.4775 32.6816ZM30.4609 32.5723C30.4954 32.591 30.5299 32.6096 30.5645 32.6279C30.5299 32.6096 30.4954 32.591 30.4609 32.5723ZM10.2598 32.541C10.2982 32.5667 10.3364 32.5923 10.375 32.6172C10.3364 32.5923 10.2982 32.5667 10.2598 32.541ZM39.6934 32.6084C39.7362 32.5811 39.7789 32.5536 39.8213 32.5254C39.7789 32.5536 39.7362 32.5811 39.6934 32.6084ZM39.9795 32.418C40.0387 32.3764 40.097 32.3335 40.1553 32.29C40.097 32.3335 40.0387 32.3764 39.9795 32.418ZM33.2559 32.3682C33.2767 32.3734 33.2975 32.3787 33.3184 32.3838C33.2975 32.3787 33.2767 32.3734 33.2559 32.3682ZM32.9678 32.29C33.001 32.2996 33.0341 32.3092 33.0674 32.3184C33.0341 32.3092 33.001 32.2996 32.9678 32.29ZM29.8145 32.1934C29.8716 32.2293 29.9288 32.2649 29.9863 32.2998C29.9288 32.2649 29.8716 32.2293 29.8145 32.1934ZM40.2217 32.2402C40.2772 32.1979 40.3321 32.1544 40.3867 32.1104C40.3321 32.1544 40.2772 32.1979 40.2217 32.2402ZM32.6934 32.2061C32.721 32.215 32.7487 32.2238 32.7764 32.2324C32.7487 32.2238 32.721 32.215 32.6934 32.2061ZM9.66699 32.1055C9.69266 32.1262 9.71836 32.1467 9.74414 32.167C9.71836 32.1467 9.69266 32.1262 9.66699 32.1055ZM32.4111 32.1104C32.442 32.1214 32.473 32.1319 32.5039 32.1426C32.473 32.1319 32.442 32.1214 32.4111 32.1104ZM29.5322 32.0107C29.5799 32.0427 29.6277 32.0743 29.6758 32.1055C29.6277 32.0743 29.5799 32.0427 29.5322 32.0107ZM38.1309 32.0576C38.1143 32.0648 38.0977 32.072 38.0811 32.0791C38.1129 32.0656 38.1451 32.0531 38.1768 32.0391C38.1617 32.0458 38.146 32.051 38.1309 32.0576ZM32.1152 31.998C32.1565 32.0144 32.1979 32.0302 32.2393 32.0459C32.2138 32.0362 32.1885 32.0265 32.1631 32.0166C32.15 32.0115 32.1371 32.0061 32.124 32.001C32.1212 31.9998 32.1181 31.9992 32.1152 31.998ZM40.5 32.0176C40.5226 31.9986 40.5449 31.9792 40.5674 31.96C40.5449 31.9792 40.5226 31.9986 40.5 32.0176ZM38.374 31.9463C38.3651 31.9506 38.3566 31.9557 38.3477 31.96C38.3621 31.953 38.3762 31.9455 38.3906 31.9385C38.3851 31.9412 38.3795 31.9436 38.374 31.9463ZM31.9004 31.9111C31.9175 31.9184 31.935 31.9245 31.9521 31.9316C31.9359 31.9248 31.9196 31.918 31.9033 31.9111C31.8969 31.9084 31.8902 31.9061 31.8838 31.9033L31.9004 31.9111ZM29.2246 31.7979C29.2779 31.836 29.3311 31.874 29.3848 31.9111C29.3311 31.874 29.2778 31.836 29.2246 31.7979ZM38.8555 31.6885C38.8411 31.697 38.8269 31.7055 38.8125 31.7139C38.8353 31.7006 38.8582 31.6874 38.8809 31.6738C38.8725 31.6789 38.8639 31.6835 38.8555 31.6885ZM28.9365 31.585C28.9917 31.627 29.0468 31.669 29.1025 31.71C29.0468 31.669 28.9917 31.627 28.9365 31.585ZM28.6523 31.3613C28.7082 31.4066 28.7638 31.452 28.8203 31.4961C28.7638 31.452 28.7082 31.4066 28.6523 31.3613ZM28.415 31.1641C28.4622 31.2043 28.509 31.2448 28.5566 31.2842C28.509 31.2448 28.4622 31.2043 28.415 31.1641ZM30.2598 31.0264C30.2829 31.0417 30.3059 31.0572 30.3291 31.0723C30.3059 31.0572 30.2829 31.0417 30.2598 31.0264ZM27.8955 30.6953C27.9338 30.7319 27.972 30.7686 28.0107 30.8047C27.972 30.7686 27.9338 30.7319 27.8955 30.6953ZM29.6279 30.5742C29.6982 30.6285 29.7686 30.6822 29.8398 30.7344C29.7686 30.6822 29.6982 30.6285 29.6279 30.5742ZM29.4717 30.4512C29.5106 30.4824 29.5496 30.5134 29.5889 30.5439C29.5496 30.5134 29.5106 30.4824 29.4717 30.4512ZM29.2256 30.248C29.2578 30.2755 29.2898 30.3031 29.3223 30.3301C29.2898 30.3031 29.2578 30.2755 29.2256 30.248ZM29.0684 30.1133C29.0774 30.1212 29.0867 30.1288 29.0957 30.1367C29.0675 30.112 29.0398 30.0866 29.0117 30.0615L29.0684 30.1133ZM43.8721 27.1719C43.8739 27.1712 43.8765 27.1709 43.8789 27.1699L43.8867 27.166C43.8808 27.1683 43.8754 27.1706 43.8721 27.1719ZM43.7002 26.2324C43.7158 26.2234 43.7308 26.2135 43.7461 26.2041C43.7308 26.2135 43.7158 26.2234 43.7002 26.2324ZM44.0195 26.0049C44.0285 25.9972 44.0381 25.9903 44.0469 25.9824C44.0381 25.9903 44.0285 25.9972 44.0195 26.0049ZM44.1846 25.8467C44.1717 25.8605 44.1587 25.8742 44.1455 25.8877C44.1536 25.8795 44.163 25.8726 44.1709 25.8643L44.1846 25.8467ZM44.3545 25.6396C44.3937 25.5852 44.4289 25.5302 44.4619 25.4756C44.4289 25.5302 44.3937 25.5852 44.3545 25.6396ZM44.4873 25.4316C44.5168 25.3804 44.5446 25.3299 44.5693 25.2793C44.5446 25.3299 44.5169 25.3804 44.4873 25.4316ZM25.8916 25.4092L25.8203 25.2051C25.8195 25.2027 25.8182 25.2006 25.8174 25.1982L25.8916 25.4092ZM44.7256 24.8809C44.6921 24.992 44.6487 25.1109 44.5918 25.2334C44.6486 25.1109 44.6921 24.992 44.7256 24.8809ZM44.7422 24.8184C44.7474 24.7994 44.7532 24.781 44.7578 24.7627C44.7531 24.781 44.7474 24.7994 44.7422 24.8184ZM44.8457 23.1816C44.8429 23.1325 44.8381 23.0722 44.8311 23.0039C44.838 23.0722 44.843 23.1325 44.8457 23.1816ZM7.87207 22.0449C7.75464 22.046 7.62885 22.05 7.5127 22.0586L7.87207 22.0469C7.88033 22.0183 7.88992 21.9901 7.89844 21.9619L7.87207 22.0449ZM44.4551 21.8623C44.4153 21.801 44.3649 21.7313 44.3037 21.6572C44.3649 21.7314 44.4153 21.801 44.4551 21.8623ZM44.2754 21.624C44.2587 21.6046 44.2409 21.5852 44.2227 21.5654C44.2409 21.5852 44.2587 21.6046 44.2754 21.624ZM44.1758 21.5146C44.1537 21.4922 44.1306 21.4698 44.1064 21.4473C44.1306 21.4698 44.1537 21.4922 44.1758 21.5146ZM44.0625 21.4082C44.0324 21.3816 44.0009 21.3551 43.9678 21.3291C44.0009 21.3552 44.0324 21.3816 44.0625 21.4082ZM8.19727 21.1445C8.17355 21.1982 8.15247 21.2535 8.12988 21.3086C8.15247 21.2535 8.17355 21.1982 8.19727 21.1445ZM43.9326 21.3008C43.8929 21.2709 43.8507 21.2422 43.8066 21.2139C43.8507 21.2422 43.8929 21.2709 43.9326 21.3008ZM42.8477 20.4209C42.9269 20.583 43.001 20.7472 43.0674 20.9131C43.001 20.7472 42.9269 20.583 42.8477 20.4209ZM8.62207 20.3477C8.57711 20.4187 8.5337 20.4913 8.49121 20.5654C8.49973 20.5506 8.50896 20.5362 8.51758 20.5215C8.54709 20.471 8.57674 20.4211 8.60742 20.3721C8.61246 20.364 8.617 20.3557 8.62207 20.3477ZM42.833 20.3906C42.7987 20.3212 42.7632 20.2522 42.7266 20.1836C42.7632 20.2522 42.7987 20.3212 42.833 20.3906ZM42.6631 20.0693C42.6445 20.036 42.6256 20.0028 42.6064 19.9697C42.6256 20.0028 42.6445 20.036 42.6631 20.0693ZM42.5137 19.8135C42.4983 19.7885 42.4834 19.7631 42.4678 19.7383C42.4834 19.7631 42.4983 19.7885 42.5137 19.8135ZM9.3252 19.4551C9.31186 19.4688 9.29934 19.4832 9.28613 19.4971C9.29934 19.4832 9.31186 19.4688 9.3252 19.4551ZM42.3809 19.6055C42.3573 19.5699 42.3338 19.5342 42.3096 19.499C42.3338 19.5342 42.3573 19.5699 42.3809 19.6055ZM9.39648 19.3818V19.3828V19.3818ZM42.2275 19.3828C42.2017 19.3469 42.1759 19.3109 42.1494 19.2754C42.1759 19.3109 42.2017 19.3469 42.2275 19.3828ZM42.0703 19.1719C42.0436 19.1375 42.0166 19.1033 41.9893 19.0693C42.0166 19.1033 42.0436 19.1375 42.0703 19.1719ZM41.8984 18.959C41.8724 18.9281 41.8459 18.8977 41.8193 18.8672C41.8459 18.8977 41.8725 18.9281 41.8984 18.959ZM41.7383 18.7754C41.7043 18.7378 41.6696 18.7009 41.6348 18.6641C41.6696 18.7009 41.7043 18.7378 41.7383 18.7754ZM41.3311 18.3613C41.293 18.3259 41.2539 18.2915 41.2148 18.2568C41.2538 18.2915 41.293 18.3259 41.3311 18.3613ZM41.1533 18.2021C41.1133 18.1675 41.0722 18.1343 41.0312 18.1006C41.0722 18.1343 41.1133 18.1675 41.1533 18.2021Z" fill="white" fill-opacity="0.3"/>
</g>
</g>
</g>
</svg>
