<svg width="50" height="50" viewBox="0 0 50 50" fill="none" xmlns="http://www.w3.org/2000/svg">
<rect width="50" height="50" fill="#BEBEBE"/>
<g id="Decorate Mode">
<path d="M-354.703 -1065.03V-1064.03H2665.3V-1065.03V-1066.03H-354.703V-1065.03ZM2667.3 -1063.03H2666.3V2474.97H2667.3H2668.3V-1063.03H2667.3ZM2665.3 2476.97V2475.97H-354.703V2476.97V2477.97H2665.3V2476.97ZM-356.703 2474.97H-355.703V-1063.03H-356.703H-357.703V2474.97H-356.703ZM-354.703 2476.97V2475.97C-355.255 2475.97 -355.703 2475.52 -355.703 2474.97H-356.703H-357.703C-357.703 2476.62 -356.36 2477.97 -354.703 2477.97V2476.97ZM2667.3 2474.97H2666.3C2666.3 2475.52 2665.85 2475.97 2665.3 2475.97V2476.97V2477.97C2666.95 2477.97 2668.3 2476.62 2668.3 2474.97H2667.3ZM2665.3 -1065.03V-1064.03C2665.85 -1064.03 2666.3 -1063.59 2666.3 -1063.03H2667.3H2668.3C2668.3 -1064.69 2666.95 -1066.03 2665.3 -1066.03V-1065.03ZM-354.703 -1065.03V-1066.03C-356.359 -1066.03 -357.703 -1064.69 -357.703 -1063.03H-356.703H-355.703C-355.703 -1063.59 -355.255 -1064.03 -354.703 -1064.03V-1065.03Z" fill="black" fill-opacity="0.1"/>
<g id="Stickers">
<rect x="-302.694" y="-192.534" width="374" height="551" rx="4.5" stroke="#9747FF" stroke-dasharray="10 5"/>
<g id="Property 1=sparkles">
<g id="Frame 162">
<g id="Vector">
<path d="M29.1314 14.7111C29.3508 14.6819 29.5737 14.7252 29.7663 14.8343C30.4047 15.2039 30.2137 15.891 30.2535 16.4972C30.2912 17.0503 30.3874 17.5979 30.5406 18.1307C31.33 20.9667 33.6557 23.1121 36.5461 23.6705C36.8114 23.7238 36.9731 23.7434 37.2364 23.7723C37.6171 23.8141 38.0557 23.7335 38.3789 23.9253C38.6197 24.0702 38.7913 24.3068 38.8541 24.5807C38.9186 24.8639 38.8572 25.1116 38.7023 25.352C38.321 25.9435 37.8181 25.8038 37.2308 25.8567C33.2816 26.2117 30.1416 30.022 30.2421 33.9282C30.259 34.5795 30.051 35.0103 29.3597 35.1297C28.919 35.1499 28.4662 34.9141 28.3445 34.4809C28.2524 34.1535 28.2963 33.6925 28.2722 33.3437C28.0283 29.8072 25.4875 26.6935 21.9842 25.956C21.7063 25.899 21.4248 25.8617 21.1417 25.8444C20.7662 25.8199 20.3924 25.8959 20.0589 25.6734C19.5706 25.3477 19.4469 24.6805 19.7798 24.1993C20.1219 23.6883 20.6821 23.8226 21.2018 23.7794C24.7546 23.4843 27.6721 20.6621 28.1943 17.1543C28.2388 16.8552 28.2738 16.5991 28.2817 16.295C28.2883 16.0393 28.2672 15.7159 28.3132 15.4727C28.3369 15.3423 28.3884 15.2186 28.4642 15.1099C28.6315 14.8695 28.8556 14.7658 29.1314 14.7111Z" fill="#020101"/>
<path d="M22.5421 24.9388C22.4327 24.9131 22.4325 24.7166 22.5419 24.691C23.1674 24.5449 23.7748 24.327 24.3517 24.0412C26.4217 23.0276 28.0324 21.2694 28.8611 19.1187C28.9637 18.8567 29.0529 18.5897 29.1283 18.3186C29.1416 18.2697 29.1533 18.2198 29.1647 18.1695C29.1866 18.0732 29.3085 18.0761 29.3338 18.1716C29.4296 18.5322 29.5556 18.8918 29.6919 19.2333C30.6088 21.5291 32.2801 23.2244 34.5244 24.2199C35.1877 24.4823 35.563 24.5925 36.119 24.7265C36.222 24.7513 36.2197 24.9051 36.1165 24.9289C33.8774 25.4446 32.1612 26.6248 30.7804 28.5526C30.234 29.3156 29.6278 30.5389 29.3619 31.5668C29.3348 31.6713 29.1657 31.674 29.1399 31.5692C29.0837 31.3405 29.0216 31.1217 28.9235 30.8549C28.8453 30.6425 28.6842 30.3003 28.6271 30.1207C27.5956 27.6182 25.1965 25.564 22.5421 24.9388Z" fill="#E9C46A"/>
<path d="M29.2513 17.9033C29.3775 17.9055 29.4881 17.9917 29.5226 18.1214C29.6158 18.4725 29.739 18.8244 29.8733 19.1608C30.7703 21.407 32.4031 23.0644 34.6006 24.0399C35.252 24.2975 35.6181 24.4049 36.1647 24.5366C36.3221 24.5745 36.3919 24.7139 36.3904 24.8306C36.3888 24.9469 36.3163 25.0833 36.1604 25.1192C34.0045 25.6158 32.3465 26.7391 31.0029 28.5782L30.9392 28.6663C30.4055 29.4116 29.8103 30.6132 29.551 31.6157C29.5092 31.7772 29.3625 31.8404 29.2529 31.8418C29.1429 31.8432 28.9912 31.7823 28.9503 31.6158C28.8988 31.4063 28.8428 31.2073 28.7576 30.9703L28.7402 30.9224C28.7032 30.822 28.646 30.6892 28.5877 30.5519C28.5334 30.4243 28.4768 30.2892 28.4442 30.1897C27.4354 27.7476 25.0884 25.7392 22.4974 25.1289C22.3181 25.0867 22.2648 24.9174 22.2647 24.815C22.2646 24.7127 22.3177 24.5428 22.4975 24.5008L22.5547 24.4872C23.1454 24.3448 23.7191 24.1366 24.2649 23.8662C26.2907 22.8743 27.8679 21.1532 28.6788 19.0485C28.779 18.7927 28.8665 18.5309 28.9401 18.2662C28.9522 18.2219 28.963 18.1756 28.9742 18.1263L28.9774 18.1136C29.0126 17.9838 29.1253 17.9012 29.2513 17.9033ZM29.3338 18.1716C29.3085 18.0761 29.1866 18.0732 29.1647 18.1695C29.1533 18.2198 29.1416 18.2697 29.1283 18.3186C29.0529 18.5897 28.9637 18.8567 28.8611 19.1187L28.8216 19.2192C27.9819 21.3242 26.3894 23.0435 24.3517 24.0412C23.7748 24.327 23.1674 24.5449 22.5419 24.691C22.4325 24.7166 22.4327 24.9131 22.5421 24.9388C25.1965 25.564 27.5956 27.6182 28.6271 30.1207C28.6842 30.3003 28.8453 30.6425 28.9235 30.8549C29.0216 31.1217 29.0837 31.3405 29.1399 31.5692C29.1649 31.6707 29.3244 31.6714 29.3589 31.5763L29.3619 31.5668C29.6278 30.5389 30.234 29.3156 30.7804 28.5526C32.1396 26.6549 33.8239 25.4817 36.012 24.9535L36.1165 24.9289C36.2165 24.9058 36.2217 24.7607 36.1284 24.7292L36.119 24.7265C35.563 24.5925 35.1877 24.4823 34.5244 24.2199C32.2801 23.2244 30.6088 21.5291 29.6919 19.2333C29.5556 18.8918 29.4296 18.5322 29.3338 18.1716Z" fill="#E9C46A"/>
<path d="M34.3375 24.2959C34.4582 24.2556 34.6286 24.2613 34.7475 24.3065C35.1574 24.4625 35.1184 25.2033 34.7116 25.367C33.138 26.0005 31.8572 27.0492 30.7804 28.5526C30.3562 29.1449 29.896 30.0146 29.587 30.855C29.496 31.1024 29.0145 31.1024 28.9235 30.8549C28.9219 30.8507 28.9203 30.8464 28.9187 30.8421C28.7456 30.3793 28.6792 29.8415 28.8168 29.3669C29.5156 26.9613 31.4866 25.1178 33.8759 24.4319C33.975 24.4034 34.1794 24.3487 34.3375 24.2959Z" fill="#F4A261"/>
<path d="M17.1371 25.7887C17.3051 25.7793 17.4502 25.7972 17.5999 25.8806C18.1053 26.162 17.9442 26.6753 17.9927 27.1654C18.0271 27.4909 18.0889 27.8131 18.1774 28.1283C18.6593 29.8036 20.0504 31.0602 21.7659 31.37C22.0321 31.4199 22.2399 31.4166 22.5103 31.4215C23.0994 31.432 23.4503 32.0929 23.1228 32.5898C22.8317 33.0469 22.5018 32.9214 22.0945 32.955C19.839 33.1414 18.0815 35.2772 17.9821 37.475C17.9532 38.114 18.0571 38.5631 17.2945 38.7116C16.7897 38.7106 16.4808 38.3919 16.4881 37.8979C16.4911 37.6932 16.4835 37.4301 16.4623 37.2317C16.4266 36.8904 16.3537 36.5542 16.2448 36.2287C15.6547 34.4878 14.1887 33.162 12.3282 32.955C12.0641 32.9362 11.7669 32.9989 11.5238 32.8648C10.8309 32.4598 11.0729 31.3956 11.9293 31.4197C14.4139 31.4903 16.4797 29.2277 16.4686 26.7963C16.4662 26.2576 16.5538 25.9099 17.1371 25.7887Z" fill="#020101"/>
<path d="M13.4579 32.307C13.3589 32.2763 13.3589 32.1189 13.4582 32.0892C13.8865 31.9613 14.2571 31.7977 14.6783 31.5458C15.8231 30.8629 16.6777 29.7915 17.0919 28.5342C17.1242 28.436 17.2951 28.435 17.3295 28.5326C17.332 28.5398 17.3346 28.5469 17.337 28.5539C17.7665 29.7624 18.5265 30.7698 19.6126 31.4656C19.8766 31.6348 20.1522 31.7617 20.4346 31.8949C20.6525 31.9802 20.8221 32.0392 21.0111 32.0946C21.1047 32.1221 21.1084 32.2538 21.0153 32.283C20.821 32.344 20.6384 32.4032 20.4218 32.4985C19.249 33.0209 18.2948 33.9354 17.7231 35.0852C17.6047 35.3218 17.4595 35.6696 17.3533 35.9952C17.3202 36.0969 17.1369 36.0963 17.1057 35.994C17.0572 35.8351 17.0004 35.6797 16.9228 35.4873C16.2565 33.9672 15.0352 32.7958 13.4579 32.307Z" fill="#E9C46A"/>
<path d="M17.2087 28.2647C17.3098 28.2641 17.4592 28.313 17.5137 28.4677C17.5162 28.4747 17.5187 28.4817 17.5211 28.4885C17.9372 29.6593 18.6711 30.6305 19.7179 31.3011C19.9673 31.461 20.2284 31.5817 20.5117 31.7152C20.7226 31.7977 20.8853 31.8542 21.0661 31.9072C21.3321 31.9852 21.3639 32.3783 21.0738 32.4693C20.8808 32.5299 20.7067 32.5866 20.5004 32.6773C19.3695 33.1813 18.4493 34.0633 17.898 35.1721C17.7841 35.3998 17.6423 35.7391 17.539 36.0558C17.4859 36.2185 17.3284 36.2668 17.228 36.2664C17.1276 36.266 16.9693 36.2161 16.9189 36.0511C16.8729 35.9002 16.8186 35.7514 16.743 35.5637C16.097 34.0913 14.9174 32.9638 13.4001 32.4936C13.2481 32.4465 13.1883 32.3063 13.1884 32.1975C13.1885 32.0887 13.2488 31.9479 13.4023 31.9021L13.4789 31.8786C13.8588 31.7591 14.1955 31.607 14.5781 31.3782C15.6823 30.7195 16.5068 29.6859 16.9064 28.4731L16.9115 28.4587C16.9674 28.3132 17.1108 28.2653 17.2087 28.2647ZM17.3295 28.5326C17.2951 28.435 17.1242 28.436 17.0919 28.5342C16.6777 29.7915 15.8231 30.8629 14.6783 31.5458C14.2571 31.7977 13.8865 31.9613 13.4582 32.0892C13.3589 32.1189 13.3589 32.2763 13.4579 32.307C15.0352 32.7958 16.2565 33.9672 16.9228 35.4873C17.0004 35.6797 17.0572 35.8351 17.1057 35.994C17.1369 36.0963 17.3202 36.0969 17.3533 35.9952C17.4529 35.6899 17.5867 35.3652 17.7006 35.1308L17.7231 35.0852C18.2948 33.9354 19.249 33.0209 20.4218 32.4985C20.6384 32.4032 20.821 32.344 21.0153 32.283C21.1055 32.2547 21.1048 32.1302 21.0196 32.0975L21.0111 32.0946C20.8457 32.0461 20.6952 31.9949 20.5142 31.9257L20.4346 31.8949C20.1522 31.7617 19.8766 31.6348 19.6126 31.4656C18.5265 30.7698 17.7665 29.7624 17.337 28.5539C17.3346 28.5469 17.332 28.5398 17.3295 28.5326Z" fill="#E9C46A"/>
<path d="M20.4095 31.9061C20.4256 31.8989 20.4439 31.8985 20.4604 31.9049C20.4845 31.9143 20.508 31.9233 20.531 31.932C20.7609 32.0194 20.7646 32.3575 20.5367 32.45C20.4993 32.4651 20.4611 32.4812 20.4218 32.4985C19.249 33.0209 18.2948 33.9354 17.7231 35.0852C17.6585 35.2143 17.5859 35.3766 17.5161 35.5502C17.4377 35.7449 17.0272 35.7507 16.9501 35.5555C16.9346 35.5163 16.9292 35.4652 16.9397 35.4244C17.0185 35.1201 17.0479 34.8497 17.1819 34.536C17.7057 33.3095 18.7727 32.3708 20.0591 32.0142C20.1543 31.9879 20.3246 31.9432 20.4095 31.9061Z" fill="#F4A261"/>
<path d="M16.824 12.5308C16.9549 12.5224 17.0414 12.5305 17.1646 12.5803C17.7708 12.8251 17.579 13.425 17.6452 13.9588C17.6872 14.3142 17.7828 14.6612 17.9286 14.9881C18.4278 16.1175 19.4023 16.9129 20.6308 17.104C20.9059 17.1712 21.2924 17.0953 21.5495 17.2019C21.9328 17.3608 22.0791 17.8247 21.8963 18.178C21.6187 18.7147 21.238 18.5583 20.7835 18.6206C20.5078 18.6594 20.237 18.728 19.9761 18.8251C18.6818 19.3055 17.8398 20.5204 17.6454 21.8606C17.5574 22.4665 17.8224 23.0124 17.0571 23.2702C16.1416 23.3427 16.2039 22.6785 16.1619 22.037C16.1505 21.8383 16.1198 21.6413 16.0702 21.4486C15.7088 19.9918 14.6438 18.9178 13.1525 18.6241C12.8296 18.5496 12.5062 18.6693 12.21 18.4848C11.8386 18.2533 11.7708 17.7752 12.0149 17.4296C12.2995 17.0453 12.8469 17.1765 13.3003 17.095C14.9754 16.7937 16.1613 15.271 16.1733 13.591C16.177 13.0747 16.1587 12.6521 16.824 12.5308Z" fill="#020101"/>
<path d="M16.7248 10.973C17.0305 10.9535 17.361 10.9763 17.7496 11.1332C18.1482 11.2943 18.5092 11.557 18.772 11.938C19.0226 12.3012 19.1147 12.6712 19.1535 12.9365C19.1899 13.1859 19.1887 13.4291 19.1894 13.5451L19.1965 13.7675V13.7723L19.1977 13.7771C19.2154 13.926 19.2489 14.0727 19.2994 14.2136L19.3556 14.3523L19.358 14.3583C19.6383 14.9921 20.1365 15.4041 20.7475 15.5385L20.8707 15.5612L20.9364 15.572L20.9448 15.5732C20.9834 15.5748 21.019 15.575 21.123 15.5768C21.2118 15.5783 21.3582 15.5823 21.5164 15.6007C21.6347 15.6145 21.7925 15.6393 21.9672 15.694L22.1478 15.7597L22.2661 15.8123C23.4593 16.3857 23.8398 17.8223 23.2838 18.8975C23.1326 19.1895 22.9184 19.4806 22.6105 19.713C22.2963 19.9502 21.9714 20.0605 21.7005 20.1124C21.4606 20.1584 21.2344 20.1617 21.1469 20.1638C21.0871 20.1653 21.0575 20.166 21.0285 20.1674C21.0081 20.1684 20.9986 20.1695 20.9962 20.1698C20.8344 20.193 20.6745 20.2336 20.5215 20.2906C19.848 20.5406 19.3182 21.2161 19.1918 22.0855C19.1887 22.1067 19.1852 22.1457 19.1858 22.2959C19.186 22.36 19.1864 22.4886 19.1774 22.6427C19.5219 22.4204 19.8845 22.3129 20.201 22.2672C20.4373 22.2332 20.66 22.2304 20.7917 22.229C20.9546 22.2271 21.0139 22.2267 21.0727 22.2218C23.88 21.9884 26.2298 19.7371 26.6487 16.9244C26.692 16.6336 26.7139 16.4572 26.7193 16.2548L26.7205 15.865C26.7219 15.7076 26.7271 15.4545 26.7755 15.1929C26.8393 14.842 26.9781 14.5085 27.182 14.216C27.658 13.5328 28.3126 13.2815 28.8275 13.1792L28.8765 13.1685L28.9255 13.1625C29.4126 13.0977 29.9065 13.1734 30.3497 13.3789L30.5362 13.4746L30.5494 13.4818C31.4097 13.9799 31.7061 14.7587 31.7847 15.3819C31.8183 15.6492 31.8157 15.903 31.8134 16.0575C31.8105 16.2471 31.8086 16.3228 31.8134 16.3947C31.8361 16.7255 31.8848 17.0537 31.9592 17.3764L32.0429 17.6993L32.0441 17.7053L32.0465 17.7113C32.6574 19.9055 34.4192 21.5833 36.6276 22.0914L36.8429 22.1357L36.8476 22.1369L36.8536 22.1381C37.0521 22.1779 37.1617 22.1924 37.4073 22.2194C37.4238 22.2212 37.4602 22.223 37.5508 22.2242C37.619 22.2251 37.7686 22.2253 37.9011 22.2314C38.148 22.2427 38.612 22.2792 39.0826 22.5291L39.1759 22.5817L39.1806 22.5841L39.1842 22.5865C39.7507 22.9273 40.1647 23.4704 40.3441 24.104L40.3776 24.2319C40.551 24.9928 40.357 25.6673 40.0153 26.1978C39.5701 26.8885 38.958 27.2256 38.328 27.3422C38.074 27.3891 37.8369 27.3971 37.6967 27.4008C37.6103 27.403 37.5488 27.404 37.4994 27.4055L37.3702 27.4127C34.3034 27.6888 31.7229 30.7429 31.8038 33.8879L31.805 34.0697C31.7973 34.5127 31.713 35.0773 31.3661 35.5967C30.9304 36.2488 30.2694 36.5581 29.6251 36.6693L29.5294 36.6861L29.4313 36.6908C28.4976 36.7337 27.2153 36.2388 26.84 34.9043L26.8054 34.7644C26.733 34.4406 26.7237 34.1323 26.7205 33.9477C26.7151 33.647 26.7219 33.5769 26.7133 33.4515C26.5142 30.5693 24.441 28.072 21.6671 27.4857C21.4623 27.4439 21.2547 27.4171 21.0464 27.4043L21.0405 27.4031C21.0075 27.401 20.9653 27.4005 20.8647 27.4008C20.7819 27.4009 20.6358 27.4023 20.4832 27.3924C20.2426 27.3767 19.9185 27.3303 19.572 27.1795C19.5984 27.3552 19.633 27.5298 19.6808 27.7009C19.9797 28.7331 20.8029 29.5235 21.8345 29.7864L22.0437 29.8318L22.0533 29.8342C22.1607 29.8543 22.2162 29.8535 22.5388 29.8593L22.7074 29.8677C24.4177 30.0176 25.39 31.9541 24.4401 33.4275C24.4357 33.4345 24.4315 33.4421 24.4269 33.4491L24.2966 33.6332C24.1559 33.8145 23.9835 33.9842 23.7728 34.1271C23.4786 34.3265 23.181 34.4237 22.9238 34.4691C22.6921 34.5099 22.482 34.5096 22.3881 34.5097C22.2608 34.5099 22.2445 34.5092 22.2231 34.5109C20.8699 34.6229 19.6131 36.0073 19.5433 37.5446C19.5407 37.6015 19.5388 37.6598 19.5373 37.7348C19.536 37.8024 19.5345 37.8958 19.5302 37.9883C19.5222 38.1608 19.5022 38.4649 19.3903 38.7883C19.2635 39.1542 19.0301 39.5173 18.6525 39.7987C18.3044 40.0578 17.9222 40.1806 17.593 40.2447L17.4435 40.2734H17.2916C16.707 40.2722 16.0733 40.0799 15.5864 39.5859C15.0999 39.0917 14.9167 38.4561 14.9252 37.8747L14.9228 37.6176C14.9198 37.5336 14.9146 37.4555 14.9084 37.3976V37.394C14.8848 37.1682 14.8366 36.9448 14.7649 36.7291C14.3497 35.5049 13.3626 34.6577 12.1928 34.5121C12.1826 34.5122 12.1686 34.513 12.1509 34.5133C12.1055 34.5141 11.9897 34.5172 11.8795 34.5145C11.6533 34.5089 11.2177 34.4801 10.7686 34.2323L10.7351 34.2132C9.73987 33.6314 9.39093 32.5281 9.63259 31.5908C9.88554 30.6106 10.7772 29.8232 11.974 29.8569C13.4792 29.8994 14.9135 28.4505 14.906 26.8029C14.9047 26.5184 14.9084 25.9291 15.2181 25.3739C15.4006 25.0469 15.6427 24.8059 15.9093 24.6289C15.8849 24.6178 15.8595 24.6076 15.8352 24.5954C15.332 24.3425 15.0225 23.9409 14.851 23.5503C14.6983 23.2021 14.6552 22.8633 14.6358 22.6594C14.6198 22.4912 14.6062 22.2003 14.6023 22.1405V22.1273C14.5967 22.0301 14.5811 21.9334 14.5569 21.8391L14.5533 21.826C14.3302 20.9269 13.7167 20.3318 12.8564 20.1602C12.8431 20.1601 12.8244 20.1601 12.7955 20.1602C12.7628 20.1604 12.7049 20.1599 12.6472 20.159C12.4106 20.1554 11.9013 20.1351 11.3832 19.8123C10.1746 19.0589 10.0291 17.5348 10.7387 16.5298L10.7483 16.5143L10.759 16.5011C11.2898 15.7846 12.0404 15.6395 12.4224 15.5971C12.6041 15.577 12.7987 15.5719 12.8804 15.5684C12.9337 15.5661 12.9685 15.5635 12.9952 15.5612C13.0109 15.5599 13.0204 15.5593 13.0239 15.5588C13.904 15.4004 14.6035 14.5656 14.6107 13.581C14.6115 13.4616 14.5825 12.843 14.814 12.3003C14.9584 11.962 15.1951 11.6432 15.5422 11.3987C15.8703 11.1676 16.2251 11.0526 16.5431 10.9945L16.634 10.9778L16.7248 10.973ZM17.1371 25.7887C16.5538 25.9099 16.4662 26.2576 16.4686 26.7963C16.4797 29.2277 14.4139 31.4903 11.9293 31.4197C11.0729 31.3956 10.8309 32.4598 11.5238 32.8648C11.7669 32.9989 12.0641 32.9362 12.3282 32.955C14.1887 33.162 15.6547 34.4878 16.2448 36.2287C16.3537 36.5542 16.4266 36.8904 16.4623 37.2317C16.4835 37.4301 16.4911 37.6932 16.4881 37.8979C16.4814 38.3608 16.7523 38.6693 17.202 38.707L17.2945 38.7116C18.0571 38.5631 17.9532 38.114 17.9821 37.475C18.0815 35.2772 19.839 33.1414 22.0945 32.955C22.5018 32.9214 22.8317 33.0469 23.1228 32.5898C23.4503 32.0929 23.0994 31.432 22.5103 31.4215C22.2399 31.4166 22.0321 31.4199 21.7659 31.37C20.0504 31.0602 18.6593 29.8036 18.1774 28.1283C18.0889 27.8131 18.0271 27.4909 17.9927 27.1654C17.9442 26.6753 18.1053 26.162 17.5999 25.8806C17.4502 25.7972 17.3051 25.7793 17.1371 25.7887ZM29.1314 14.7111C28.8556 14.7658 28.6315 14.8695 28.4642 15.1099L28.4125 15.1941C28.365 15.2808 28.331 15.375 28.3132 15.4727C28.2672 15.7159 28.2883 16.0393 28.2817 16.295L28.2714 16.5155C28.2561 16.7297 28.2276 16.9301 28.1943 17.1543L28.1387 17.4805C27.4895 20.8353 24.6435 23.4934 21.2018 23.7794L21.0058 23.7895C20.5458 23.7997 20.0791 23.7522 19.7798 24.1993C19.4469 24.6805 19.5706 25.3477 20.0589 25.6734C20.3924 25.8959 20.7662 25.8199 21.1417 25.8444C21.4248 25.8617 21.7063 25.899 21.9842 25.956C25.4875 26.6935 28.0283 29.8072 28.2722 33.3437C28.2963 33.6925 28.2524 34.1535 28.3445 34.4809C28.4586 34.8869 28.8638 35.1195 29.2771 35.1303L29.3597 35.1297C30.0075 35.0178 30.2305 34.6322 30.2421 34.0482V33.5674C30.3345 29.8513 33.3051 26.317 37.0461 25.8761L37.2308 25.8567C37.7808 25.8073 38.258 25.9267 38.6294 25.4552L38.7023 25.352C38.8379 25.1416 38.9015 24.9256 38.8721 24.6851L38.8541 24.5807C38.7913 24.3068 38.6197 24.0702 38.3789 23.9253C38.0963 23.7576 37.7254 23.7974 37.3822 23.7823L37.2364 23.7723C36.9731 23.7434 36.8114 23.7238 36.5461 23.6705C33.6557 23.1121 31.33 20.9667 30.5406 18.1307C30.3874 17.5979 30.2912 17.0503 30.2535 16.4972C30.2162 15.9288 30.3816 15.2893 29.8762 14.9071L29.7663 14.8343C29.5737 14.7252 29.3508 14.6819 29.1314 14.7111ZM16.7069 12.5586C16.1612 12.7069 16.1767 13.1073 16.1733 13.591C16.1612 15.2708 14.975 16.7953 13.3001 17.0966C12.8468 17.178 12.2991 17.0474 12.0146 17.4314C11.7711 17.7769 11.8385 18.2548 12.2095 18.4861C12.5055 18.6706 12.8299 18.55 13.1525 18.6241C14.6438 18.9178 15.7094 19.9937 16.0707 21.4505C16.1202 21.6429 16.1503 21.8404 16.1616 22.0388C16.2009 22.6401 16.1494 23.2609 16.897 23.2765L17.0573 23.2717C17.8223 23.0139 17.5577 22.4677 17.6456 21.8619C17.8401 20.5218 18.6818 19.3055 19.9761 18.8251C20.237 18.728 20.5078 18.6594 20.7835 18.6206C21.238 18.5583 21.6187 18.7147 21.8963 18.178C22.0791 17.8247 21.9328 17.3608 21.5495 17.2019C21.2924 17.0953 20.9059 17.1712 20.6308 17.104C19.4791 16.9249 18.5511 16.2153 18.0283 15.1965L17.929 14.9896C17.7832 14.6629 17.6876 14.3154 17.6456 13.9601C17.5795 13.4264 17.7705 12.8251 17.1646 12.5803C17.0414 12.5305 16.9549 12.524 16.8241 12.5323L16.7069 12.5586Z" fill="#E8E7E7"/>
<path d="M16.6667 10.0559C17.0753 10.0299 17.5488 10.0621 18.0933 10.2819C18.636 10.5013 19.1505 10.8692 19.5282 11.4167C19.8856 11.9349 20.0118 12.4549 20.0627 12.8038L20.089 13.0406C20.1083 13.2678 20.1077 13.46 20.1082 13.5392L20.1118 13.6803C20.122 13.7602 20.1398 13.8353 20.1644 13.904L20.1979 13.9865L20.266 14.1228C20.4357 14.4197 20.6757 14.5812 20.9416 14.6406L21.0182 14.6549L21.0301 14.6561C21.0514 14.6565 21.0843 14.6576 21.1389 14.6585C21.2377 14.6602 21.4192 14.6648 21.622 14.6884C21.7356 14.7016 21.8874 14.7243 22.0609 14.7673L22.2415 14.8175L22.2809 14.8307L22.4615 14.8965C22.4813 14.9037 22.502 14.9118 22.5213 14.9204L22.6397 14.973L22.6636 14.985C24.3593 15.7998 24.8749 17.8208 24.0997 19.3197C23.9006 19.7043 23.6043 20.1132 23.1634 20.4461C22.712 20.7868 22.2474 20.9424 21.8732 21.0141C21.5492 21.0762 21.2525 21.0803 21.1688 21.0823C21.1339 21.0831 21.1133 21.0831 21.0995 21.0835C21.0601 21.0899 21.0209 21.0976 20.9823 21.1074L20.8412 21.1517C20.7497 21.1856 20.6565 21.2414 20.5673 21.3167C20.6559 21.3134 20.7296 21.3113 20.7814 21.3107C20.8656 21.3098 20.9141 21.3091 20.95 21.3083C20.9823 21.3076 20.9925 21.3074 20.9966 21.3071L21.2179 21.2832C23.4909 20.9893 25.3935 19.1177 25.7403 16.7894L25.7858 16.457C25.7952 16.3709 25.7994 16.3025 25.8013 16.231L25.8025 15.8627V15.8567C25.804 15.6908 25.8081 15.3703 25.8719 15.0256C25.9595 14.5463 26.1494 14.0908 26.4279 13.6911L26.5547 13.5201C27.1937 12.7113 28.0216 12.4061 28.6306 12.2825L28.6796 12.2717L28.7657 12.2574L28.8075 12.2514C29.3845 12.1752 29.9687 12.2449 30.508 12.4499L30.7364 12.5455L30.7686 12.5623L30.9552 12.6579L30.9755 12.6687L30.9887 12.6759L31.009 12.6866C32.1907 13.3709 32.5939 14.4553 32.6963 15.2672C32.7386 15.6034 32.7345 15.9128 32.7321 16.0707C32.729 16.2766 32.7284 16.3078 32.7297 16.3314L32.7752 16.7535C32.7956 16.8913 32.8218 17.0281 32.8529 17.1637L32.9306 17.465L33.0406 17.8106C33.6414 19.5094 35.0706 20.7902 36.8337 21.1959L37.0274 21.2366L37.0334 21.2377C37.1882 21.2688 37.2691 21.28 37.4818 21.3035L37.4842 21.3047H37.4878C37.4933 21.3053 37.4989 21.3053 37.5045 21.3059C37.5 21.3054 37.4972 21.305 37.4938 21.3047C37.5076 21.3051 37.5298 21.3055 37.5631 21.3059L37.9434 21.3143L38.2172 21.3334C38.4911 21.3618 38.8679 21.4291 39.2695 21.6013L39.5135 21.7185L39.5338 21.7292L39.6271 21.7818L39.6259 21.783C39.6363 21.7889 39.6467 21.7947 39.657 21.801L39.6582 21.7998C39.6643 21.8035 39.67 21.808 39.6761 21.8117C39.6806 21.8146 39.686 21.8171 39.6904 21.8201L39.694 21.8225C40.3474 22.2263 40.8463 22.8297 41.1218 23.5384L41.2282 23.8541L41.233 23.8709L41.2665 23.9988C41.269 24.0085 41.2703 24.019 41.2725 24.0287C41.5103 25.0724 41.2373 25.9963 40.787 26.6953C40.1918 27.6187 39.3492 28.087 38.4946 28.2451C38.1658 28.3058 37.8685 28.3153 37.721 28.3192C37.617 28.322 37.5788 28.3224 37.5284 28.324L37.4412 28.3288C34.8951 28.5651 32.6523 31.1729 32.7214 33.8641C32.7215 33.87 32.7225 33.8762 32.7226 33.882L32.7238 34.0638C32.7238 34.071 32.7239 34.0782 32.7238 34.0853C32.7144 34.6232 32.6111 35.3849 32.1295 36.1062C31.5163 37.0236 30.5973 37.4337 29.7809 37.5746L29.7797 37.5734L29.6876 37.5902C29.6501 37.5968 29.6121 37.6015 29.574 37.6033L29.476 37.6081H29.4736C28.267 37.6634 26.4836 37.0305 25.9556 35.1532C25.953 35.1441 25.9507 35.1348 25.9484 35.1257L25.9137 34.9858C25.9121 34.9791 25.9104 34.9721 25.9089 34.9654C25.8152 34.5464 25.806 34.1601 25.8025 33.9646C25.7997 33.805 25.8002 33.7039 25.8001 33.6345C25.8001 33.5677 25.7986 33.5447 25.7965 33.5149L25.7762 33.2806C25.7554 33.0922 25.7241 32.9064 25.6853 32.7233C25.6144 33.1312 25.4606 33.5367 25.2142 33.9203L25.2226 33.9083C25.2214 33.9103 25.218 33.9164 25.2142 33.9227C25.2102 33.9292 25.2044 33.9383 25.1975 33.949C25.1907 33.9594 25.1831 33.97 25.1759 33.9801L25.0456 34.1642C25.0379 34.1751 25.0298 34.186 25.0217 34.1965C24.8283 34.4456 24.5875 34.6851 24.2887 34.8877C23.8681 35.1728 23.4427 35.3097 23.0833 35.3732C22.7663 35.4291 22.486 35.4281 22.3885 35.4282H22.2821C21.893 35.4658 21.4532 35.6935 21.0875 36.1038C20.7201 36.5162 20.4852 37.0511 20.4609 37.5866C20.4587 37.6351 20.4562 37.6857 20.4549 37.7528C20.4537 37.8169 20.4527 37.9233 20.4478 38.0302C20.4387 38.2247 20.4139 38.6372 20.2576 39.0885C20.0777 39.6079 19.7425 40.1317 19.2006 40.5354C18.7053 40.9041 18.1782 41.0666 17.768 41.1465H17.7656L17.6161 41.1752C17.5594 41.186 17.5017 41.1919 17.4439 41.1919H17.2897C16.5119 41.1903 15.6251 40.9328 14.9328 40.2305C14.2478 39.5348 14.0005 38.6541 14.0072 37.882L14.0048 37.65C14.0023 37.5803 13.9985 37.5255 13.9953 37.4957C13.9951 37.4939 13.9955 37.4916 13.9953 37.4897L13.957 37.2518C13.9405 37.175 13.9194 37.0992 13.8948 37.0246L13.8315 36.8548C13.4983 36.0455 12.8448 35.5403 12.131 35.4318C12.0728 35.4329 11.9627 35.4356 11.8572 35.433C11.578 35.426 10.9665 35.3896 10.3254 35.036L10.3134 35.03L10.2716 35.0061C8.89159 34.1993 8.40824 32.6611 8.74337 31.3613C9.09653 29.9929 10.3479 28.8923 11.9995 28.9386C12.9386 28.9652 13.9934 27.9839 13.9881 26.8065C13.9867 26.5088 13.9812 25.7067 14.4162 24.9268C14.4533 24.8603 14.4917 24.7958 14.5322 24.7342C14.3012 24.4752 14.1299 24.1937 14.0096 23.9199C13.7981 23.4373 13.7438 22.9817 13.7214 22.7468C13.704 22.5629 13.6871 22.2241 13.6856 22.2004C13.6851 22.1936 13.6859 22.1868 13.6856 22.18L13.6676 22.0676C13.6658 22.0608 13.6633 22.0541 13.6617 22.0473C13.5261 21.5011 13.2008 21.1902 12.7409 21.0775C12.7078 21.0773 12.67 21.0781 12.6333 21.0775C12.3497 21.0731 11.6322 21.0501 10.897 20.592C9.1933 19.53 9.01369 17.3997 9.97623 16.0169C9.99001 15.9955 10.005 15.9749 10.0205 15.9547L10.0408 15.9296C10.7998 14.9255 11.8564 14.7364 12.3212 14.6848L12.8401 14.6513L12.8832 14.6477C13.2934 14.5611 13.6887 14.1343 13.6927 13.5739C13.6925 13.5339 13.6913 13.4187 13.6916 13.3958C13.6928 13.295 13.697 13.1643 13.7107 13.0155C13.7373 12.7258 13.8019 12.331 13.969 11.9393C14.1746 11.4577 14.5151 10.9986 15.0129 10.6478C15.4797 10.319 15.9711 10.165 16.3785 10.0906L16.467 10.075C16.5059 10.0679 16.5458 10.0628 16.5854 10.0607L16.6667 10.0559ZM16.634 10.9778L16.5431 10.9945L16.2984 11.0496C16.0492 11.1173 15.7881 11.2255 15.5422 11.3987L15.4171 11.4932C15.1372 11.7227 14.9404 12.0043 14.814 12.3003C14.5825 12.843 14.6115 13.4616 14.6107 13.581C14.6035 14.5656 13.904 15.4004 13.0239 15.5588C13.0204 15.5593 13.0109 15.5599 12.9952 15.5612L12.4224 15.5971L12.2626 15.6187C11.8558 15.6847 11.2233 15.8745 10.759 16.5011L10.7483 16.5143L10.7387 16.5298L10.616 16.7236C10.0514 17.722 10.25 19.1059 11.3832 19.8123C11.9013 20.1351 12.4106 20.1554 12.6472 20.159L12.7955 20.1602C12.8244 20.1601 12.8431 20.1601 12.8564 20.1602C13.7167 20.3318 14.3302 20.9269 14.5533 21.826L14.5569 21.8391C14.5811 21.9334 14.5967 22.0301 14.6023 22.1273V22.1405C14.6062 22.2003 14.6198 22.4912 14.6358 22.6594C14.6552 22.8633 14.6983 23.2021 14.851 23.5503C15.0225 23.9409 15.332 24.3425 15.8352 24.5954C15.8595 24.6076 15.8849 24.6178 15.9093 24.6289C15.6427 24.8059 15.4006 25.0469 15.2181 25.3739L15.1157 25.5833C14.9076 26.0718 14.9049 26.554 14.906 26.8029C14.9135 28.4505 13.4792 29.8994 11.974 29.8569L11.7532 29.8606C10.6683 29.923 9.86973 30.6719 9.63259 31.5908L9.59477 31.7679C9.4374 32.6636 9.80189 33.6676 10.7351 34.2132L10.7686 34.2323C11.105 34.4178 11.4342 34.4805 11.6731 34.5027L11.8795 34.5145L12.1509 34.5133C12.1686 34.513 12.1826 34.5122 12.1928 34.5121C13.3626 34.6577 14.3497 35.5049 14.7649 36.7291C14.8366 36.9448 14.8848 37.1682 14.9084 37.394V37.3976C14.9146 37.4555 14.9198 37.5336 14.9228 37.6176L14.9252 37.8747C14.9167 38.4561 15.0999 39.0917 15.5864 39.5859C16.0125 40.018 16.5513 40.2197 17.0709 40.264L17.2916 40.2734H17.4435L17.593 40.2447C17.8809 40.1886 18.2096 40.0874 18.5202 39.8897L18.6525 39.7987C18.983 39.5524 19.2034 39.2433 19.3381 38.9247L19.3903 38.7883C19.4462 38.6265 19.4795 38.4696 19.4995 38.3316L19.5302 37.9883L19.5373 37.7348L19.5433 37.5446C19.6131 36.0073 20.8699 34.6229 22.2231 34.5109L22.3881 34.5097C22.4586 34.5097 22.5947 34.5102 22.7556 34.4931L22.9238 34.4691C23.1165 34.435 23.3324 34.3721 23.552 34.2587L23.7728 34.1271C23.9306 34.0201 24.0671 33.8979 24.1846 33.7672L24.2966 33.6332L24.4269 33.4491C24.4315 33.4421 24.4357 33.4345 24.4401 33.4275C25.39 31.9541 24.4177 30.0176 22.7074 29.8677L22.5388 29.8593C22.3774 29.8564 22.2828 29.8553 22.2151 29.8522L22.0533 29.8342L22.0437 29.8318L21.8345 29.7864C20.8029 29.5235 19.9797 28.7331 19.6808 27.7009C19.633 27.5298 19.5984 27.3552 19.572 27.1795C19.9185 27.3303 20.2426 27.3767 20.4832 27.3924C20.6358 27.4023 20.7819 27.4009 20.8647 27.4008C20.9653 27.4005 21.0075 27.401 21.0405 27.4031L21.0464 27.4043C21.2547 27.4171 21.4623 27.4439 21.6671 27.4857C24.441 28.072 26.5142 30.5693 26.7133 33.4515C26.7219 33.5769 26.7151 33.647 26.7205 33.9477C26.7237 34.1323 26.733 34.4406 26.8054 34.7644L26.84 34.9043C27.1919 36.1552 28.3408 36.6681 29.2524 36.6922L29.4313 36.6908L29.5294 36.6861L29.6251 36.6693C30.1889 36.5719 30.766 36.323 31.1931 35.8252L31.3661 35.5967C31.6262 35.2073 31.7382 34.7924 31.7815 34.4225L31.805 34.0697L31.8038 33.8879C31.7229 30.7429 34.3034 27.6888 37.3702 27.4127L37.4994 27.4055L37.6967 27.4008C37.8019 27.398 37.9617 27.3931 38.1419 27.371L38.328 27.3422C38.8792 27.2401 39.4172 26.9694 39.8411 26.4406L40.0153 26.1978C40.357 25.6674 40.5513 24.994 40.378 24.2332L40.3441 24.104C40.1872 23.5497 39.8502 23.065 39.3891 22.7241L39.1842 22.5865L39.1806 22.5841L39.1759 22.5817L39.0826 22.5291C38.612 22.2792 38.148 22.2427 37.9011 22.2314L37.5508 22.2242L37.4073 22.2194C37.2843 22.2059 37.1953 22.1956 37.1123 22.1836L36.8536 22.1381L36.8476 22.1369L36.8429 22.1357L36.6276 22.0914C34.5574 21.6151 32.8799 20.1107 32.1749 18.1167L32.0465 17.7113L32.0441 17.7053L32.0429 17.6993L31.9592 17.3764C31.8848 17.0537 31.8361 16.7255 31.8134 16.3947V16.0575C31.8151 15.9416 31.8176 15.7697 31.8042 15.5781L31.7847 15.3819C31.7061 14.7587 31.4097 13.9799 30.5494 13.4818L30.5362 13.4746L30.3497 13.3789C29.9065 13.1734 29.4126 13.0977 28.9255 13.1625L28.8765 13.1685L28.8275 13.1792L28.6282 13.2248C28.1515 13.3507 27.5984 13.6184 27.182 14.216L27.0414 14.4433C26.9134 14.6768 26.8233 14.9299 26.7755 15.1929C26.7271 15.4545 26.7219 15.7076 26.7205 15.865L26.7193 16.2548C26.7139 16.4572 26.692 16.6336 26.6487 16.9244L26.6037 17.1864C26.0824 19.8757 23.792 21.9955 21.0727 22.2218L20.7917 22.229L20.5351 22.2362C20.4336 22.2414 20.3188 22.2503 20.201 22.2672L19.9563 22.314C19.7046 22.3739 19.4358 22.476 19.1774 22.6427C19.1864 22.4886 19.186 22.36 19.1858 22.2959C19.1852 22.1457 19.1887 22.1067 19.1918 22.0855C19.3102 21.2706 19.7829 20.6256 20.3964 20.3421L20.5215 20.2906C20.6745 20.2336 20.8344 20.193 20.9962 20.1698L21.0285 20.1674L21.1469 20.1638C21.2127 20.1623 21.3566 20.1604 21.5252 20.14L21.7005 20.1124C21.9376 20.0669 22.2162 19.9764 22.4926 19.7956L22.6105 19.713C22.8414 19.5386 23.0202 19.3312 23.1586 19.1152L23.2838 18.8975C23.8398 17.8223 23.4593 16.3857 22.2661 15.8123L22.1478 15.7597L21.9672 15.694C21.8796 15.6666 21.7963 15.6467 21.7201 15.6319L21.5164 15.6007C21.4371 15.5915 21.3608 15.5863 21.2932 15.5829L21.123 15.5768L20.9448 15.5732L20.9364 15.572L20.8707 15.5612L20.7475 15.5385C20.1365 15.4041 19.6383 14.9921 19.358 14.3583L19.3556 14.3523L19.2994 14.2136C19.2742 14.1432 19.2533 14.0713 19.2364 13.9984L19.1977 13.7771L19.1965 13.7723V13.7675L19.1894 13.5451C19.189 13.487 19.1894 13.3971 19.185 13.2905L19.1535 12.9365C19.1196 12.7044 19.0446 12.3922 18.8586 12.0744L18.772 11.938C18.542 11.6046 18.2369 11.3613 17.8971 11.1979L17.7496 11.1332C17.361 10.9763 17.0305 10.9535 16.7248 10.973L16.634 10.9778ZM17.1371 25.7887C17.3051 25.7793 17.4502 25.7972 17.5999 25.8806C18.1053 26.162 17.9442 26.6753 17.9927 27.1654L18.0239 27.408C18.0601 27.6508 18.111 27.8919 18.1774 28.1283C18.6593 29.8036 20.0504 31.0602 21.7659 31.37C22.0321 31.4199 22.2399 31.4166 22.5103 31.4215C23.0994 31.432 23.4503 32.0929 23.1228 32.5898C22.832 33.0462 22.5022 32.9208 22.0956 32.9541L21.8851 32.9768C19.7315 33.2736 18.0787 35.3461 17.9821 37.475L17.9689 37.9166C17.9501 38.3194 17.8657 38.6002 17.2945 38.7116L17.202 38.707C16.8086 38.674 16.5516 38.4334 16.4981 38.0637L16.4881 37.8979C16.4911 37.6932 16.4835 37.4301 16.4623 37.2317C16.4355 36.9759 16.3877 36.7224 16.3199 36.4745L16.2448 36.2287C15.6547 34.4878 14.1887 33.162 12.3282 32.955C12.0975 32.9386 11.8411 32.9839 11.6181 32.9063L11.5238 32.8648C10.8743 32.4852 11.0466 31.5259 11.7759 31.4271L11.9293 31.4197C14.3358 31.4875 16.3499 29.3658 16.4634 27.023L16.4686 26.7963C16.4662 26.2576 16.5538 25.9099 17.1371 25.7887ZM17.2239 28.11C16.7372 30.0441 15.2027 31.7039 13.2336 32.1924C14.963 32.6557 16.306 33.9431 16.974 35.5561L17.1151 35.9328L17.1163 35.9364L17.206 36.2318C17.215 36.2646 17.2215 36.2981 17.2299 36.331C17.7176 34.4168 19.2101 32.6978 21.1904 32.1804C19.3225 31.6928 17.835 30.2561 17.2957 28.3814L17.2933 28.3766C17.2685 28.2884 17.2452 28.1992 17.2239 28.11ZM29.3241 33.5448C29.427 29.4093 32.7079 25.4624 36.9389 24.9638L36.9461 24.9626L37.1314 24.9423L37.1494 24.9411C37.3242 24.9254 37.4936 24.9235 37.6074 24.9208C37.7366 24.9177 37.8081 24.9133 37.8621 24.9052C37.8786 24.9027 37.8897 24.8999 37.8968 24.8981C37.8977 24.897 37.8991 24.8959 37.9003 24.8945L37.9326 24.849C37.9524 24.8175 37.9588 24.8009 37.9601 24.7964L37.9565 24.7809C37.9497 24.7565 37.9358 24.7369 37.9183 24.7223C37.9037 24.7194 37.8776 24.7146 37.8358 24.7115C37.7817 24.7075 37.7187 24.7065 37.6325 24.7055C37.5552 24.7047 37.447 24.7042 37.3419 24.6996C37.3353 24.6993 37.3281 24.6988 37.3216 24.6984L37.1757 24.6888C37.1625 24.6879 37.1494 24.6867 37.1362 24.6852C36.8651 24.6554 36.6729 24.6317 36.3721 24.5716C33.142 23.9475 30.5411 21.5517 29.6566 18.3834C29.4852 17.7871 29.3793 17.1759 29.3373 16.5598V16.5574C29.325 16.3698 29.3304 16.1804 29.3325 16.048C29.3349 15.8989 29.3343 15.802 29.3265 15.7204C29.3223 15.6759 29.3148 15.6489 29.311 15.6343L29.3026 15.6295C29.2933 15.6256 29.284 15.622 29.2739 15.6211C29.2451 15.6281 29.2275 15.634 29.2177 15.6379L29.2153 15.6414V15.6438C29.2084 15.6806 29.2021 15.7536 29.201 15.8866C29.2002 15.9729 29.203 16.194 29.1998 16.3195C29.1996 16.3262 29.2001 16.333 29.1998 16.3398L29.189 16.5598C29.1887 16.5666 29.1883 16.5745 29.1878 16.5813C29.1697 16.835 29.1347 17.0676 29.1017 17.2892C29.1008 17.295 29.1003 17.3014 29.0993 17.3072L29.0443 17.6336C29.0431 17.6408 29.0421 17.6481 29.0407 17.6552C28.3162 21.3987 25.1447 24.3723 21.2776 24.6936C21.2693 24.6943 21.2609 24.6955 21.2525 24.696L21.0564 24.7067C21.0466 24.7073 21.0364 24.7077 21.0265 24.7079C20.9617 24.7094 20.8956 24.7098 20.8424 24.7103C20.786 24.7109 20.739 24.7112 20.6953 24.7127C20.6126 24.7156 20.5632 24.7212 20.5327 24.7271C20.4942 24.7882 20.5127 24.8669 20.565 24.9052C20.5752 24.9079 20.5986 24.913 20.6439 24.916C20.6987 24.9196 20.7602 24.9198 20.8591 24.9196C20.9467 24.9194 21.0694 24.9186 21.1975 24.9268C21.5255 24.9468 21.8508 24.992 22.1685 25.0571H22.1733C26.1034 25.8846 28.9186 29.3608 29.189 33.2806C29.203 33.484 29.1986 33.7645 29.201 33.9048C29.2035 34.0527 29.2138 34.142 29.2225 34.1941C29.2274 34.1962 29.2324 34.2005 29.2392 34.2025C29.247 34.2049 29.2558 34.2045 29.2643 34.2061C29.2817 34.2016 29.2949 34.1978 29.305 34.1941C29.3117 34.1653 29.3224 34.1142 29.3241 34.0303V33.5448ZM21.0815 28.3288C21.3433 28.5961 21.6737 28.7942 22.0453 28.892L22.2343 28.9327C22.2377 28.9329 22.245 28.9345 22.257 28.9351C22.3083 28.9373 22.383 28.9379 22.5548 28.941C22.5644 28.9412 22.575 28.9417 22.5846 28.9422L22.7533 28.9506L22.7879 28.953C22.8622 28.9595 22.9357 28.9669 23.008 28.9781C22.5368 28.7032 22.0232 28.4989 21.4797 28.3838C21.3493 28.3573 21.2161 28.3404 21.0815 28.3288ZM16.8241 12.5323C16.9547 12.524 17.0423 12.5317 17.1653 12.5814C17.7707 12.8264 17.5795 13.4265 17.6456 13.9601C17.6876 14.3154 17.7832 14.6629 17.929 14.9896L18.0283 15.1965C18.5511 16.2152 19.4802 16.926 20.6319 17.1051C20.9069 17.1719 21.2934 17.0967 21.5503 17.2031C21.9329 17.3622 22.0786 17.8249 21.8963 18.178L21.8433 18.271C21.571 18.6965 21.2095 18.5624 20.7835 18.6206C20.5078 18.6594 20.237 18.728 19.9761 18.8251L19.7387 18.9239C18.579 19.4582 17.828 20.6055 17.6456 21.8619L17.6269 22.0856C17.6082 22.5995 17.7263 23.046 17.0573 23.2717L16.897 23.2765L16.7659 23.267C16.1555 23.1838 16.1984 22.6025 16.1616 22.0388C16.1503 21.8404 16.1202 21.6429 16.0707 21.4505C15.7319 20.0847 14.7734 19.0549 13.4261 18.6895L13.1525 18.6241C12.8701 18.5592 12.5859 18.6443 12.3212 18.5424L12.2095 18.4861C11.8385 18.2548 11.7711 17.7769 12.0146 17.4314C12.2635 17.0957 12.7137 17.1529 13.1259 17.1182L13.3001 17.0966C14.8699 16.814 16.0106 15.4574 16.1573 13.9052L16.1733 13.591C16.1767 13.1073 16.1612 12.7069 16.7069 12.5586L16.8241 12.5323ZM16.9011 14.851C16.4839 16.2636 15.4008 17.4466 13.9367 17.8859C15.4039 18.3778 16.4618 19.5303 16.8987 21.0058C17.2978 19.6716 18.248 18.4877 19.6562 17.9649L19.9001 17.8812C19.9014 17.8808 19.9024 17.8792 19.9037 17.8788C18.7185 17.527 17.7703 16.7063 17.2108 15.6163C17.207 15.609 17.2036 15.601 17.2 15.5936L17.1008 15.3867C17.0971 15.3792 17.0934 15.3717 17.09 15.364C17.0156 15.1972 16.9544 15.0252 16.9011 14.851ZM30.2421 34.0482C30.2305 34.6322 30.0075 35.0178 29.3597 35.1297L29.2771 35.1303L29.1232 35.1161C28.8178 35.067 28.5366 34.8964 28.3998 34.6246L28.3445 34.4809C28.2985 34.3172 28.286 34.1202 28.2826 33.9203L28.2722 33.3437C28.0283 29.8072 25.4875 26.6935 21.9842 25.956C21.8453 25.9275 21.7051 25.9046 21.5646 25.8858L21.1417 25.8444C20.8134 25.823 20.486 25.8781 20.1859 25.7435L20.0589 25.6734C19.6014 25.368 19.4643 24.7626 19.7231 24.2918L19.7798 24.1993C20.0042 23.8643 20.3228 23.8076 20.6618 23.7955L21.0058 23.7895L21.2018 23.7794C24.5358 23.5022 27.3106 20.9988 28.0709 17.7927L28.1387 17.4805L28.1943 17.1543C28.2109 17.0423 28.2262 16.936 28.2395 16.8313L28.2714 16.5155L28.2817 16.295C28.2867 16.1033 28.2761 15.8735 28.2898 15.6678L28.3132 15.4727C28.331 15.375 28.365 15.2808 28.4125 15.1941L28.4642 15.1099C28.6315 14.8695 28.8556 14.7658 29.1314 14.7111C29.3508 14.6819 29.5737 14.7252 29.7663 14.8343L29.8762 14.9071C30.3816 15.2893 30.2162 15.9288 30.2535 16.4972C30.2912 17.0503 30.3874 17.5979 30.5406 18.1307C31.33 20.9667 33.6557 23.1121 36.5461 23.6705C36.8114 23.7238 36.9731 23.7434 37.2364 23.7723L37.3822 23.7823C37.7254 23.7974 38.0963 23.7576 38.3789 23.9253C38.6197 24.0702 38.7913 24.3068 38.8541 24.5807L38.8721 24.6851C38.9015 24.9256 38.8379 25.1416 38.7023 25.352L38.6294 25.4552L38.558 25.5366C38.1978 25.9118 37.7474 25.8097 37.2319 25.8559L37.0461 25.8761C33.3051 26.317 30.3345 29.8513 30.2421 33.5674V34.0482ZM37.4938 21.3047C37.4916 21.3046 37.4896 21.3048 37.4878 21.3047C37.4858 21.3045 37.4838 21.3037 37.4818 21.3035C37.4841 21.3037 37.4882 21.3042 37.4938 21.3047Z" fill="#020101"/>
<path d="M14.101 17.9876C14.0067 17.954 14.0092 17.8051 14.1041 17.7732C15.4781 17.3112 16.4433 16.2088 16.8727 14.8183C16.8773 14.8033 16.8989 14.8031 16.9037 14.8181C17.2941 16.034 18.0648 16.9879 19.2053 17.5708C19.4061 17.6594 19.5597 17.722 19.733 17.7791C19.8243 17.8092 19.8291 17.9442 19.7396 17.9796C18.5968 18.4312 17.7814 19.0944 17.2131 20.2718C17.1293 20.4452 17.0547 20.6228 16.9893 20.8038C16.9565 20.8946 16.8201 20.895 16.7881 20.8039C16.7327 20.6463 16.6754 20.497 16.607 20.3207C16.56 20.2173 16.5088 20.1158 16.4537 20.0164C15.8849 18.9846 15.1496 18.3607 14.101 17.9876Z" fill="#E9C46A"/>
<path d="M16.689 14.7517C16.7552 14.5649 17.027 14.5628 17.0897 14.7584L17.1076 14.8131C17.4878 15.9549 18.2179 16.8453 19.2894 17.3944C19.4849 17.4806 19.6308 17.5398 19.7941 17.5936C19.9305 17.6386 19.9956 17.7616 19.9993 17.8707C20.003 17.9801 19.9461 18.108 19.8114 18.1612C18.7076 18.5974 17.9331 19.2295 17.389 20.3567C17.3082 20.524 17.2361 20.6955 17.173 20.8701C17.1238 21.0063 16.9978 21.0672 16.8887 21.0674C16.7794 21.0675 16.6522 21.0065 16.6038 20.8686C16.5501 20.7158 16.4944 20.5706 16.4269 20.3965C16.3826 20.2996 16.3346 20.2044 16.2829 20.1112C15.7364 19.1199 15.0377 18.5282 14.0355 18.1716C13.8909 18.1201 13.8346 17.9843 13.8363 17.8768C13.8379 17.7695 13.8978 17.6365 14.0418 17.5881L14.1028 17.5671C15.3772 17.1159 16.2791 16.0786 16.686 14.7608L16.689 14.7517ZM16.9037 14.8181C16.8989 14.8031 16.8773 14.8033 16.8727 14.8183C16.4433 16.2088 15.4781 17.3112 14.1041 17.7732C14.0092 17.8051 14.0067 17.954 14.101 17.9876C15.1496 18.3607 15.8849 18.9846 16.4537 20.0164C16.5088 20.1158 16.56 20.2173 16.607 20.3207C16.6754 20.497 16.7327 20.6463 16.7881 20.8039C16.8191 20.8921 16.9481 20.8945 16.9859 20.8121L16.9893 20.8038C17.0465 20.6454 17.1108 20.4897 17.1821 20.337L17.2131 20.2718C17.7725 19.1128 18.5714 18.452 19.6863 18.0009L19.7396 17.9796C19.8263 17.9453 19.8245 17.8176 19.7413 17.7823L19.733 17.7791C19.5597 17.722 19.4061 17.6594 19.2053 17.5708C18.0827 16.9971 17.3182 16.0638 16.9223 14.875L16.9037 14.8181Z" fill="#E9C46A"/>
<path d="M19.1724 17.589C19.1931 17.5774 19.2181 17.5763 19.2398 17.5858C19.2648 17.5968 19.2892 17.6074 19.313 17.6176C19.5266 17.7093 19.5367 18.0584 19.3271 18.1589C18.3972 18.6045 17.7105 19.2412 17.2131 20.2718C17.1887 20.3222 17.1651 20.3729 17.1423 20.4241C17.0528 20.6245 16.7266 20.6307 16.6477 20.4259C16.6235 20.363 16.6256 20.2859 16.6486 20.2225C16.6749 20.1499 16.7018 20.062 16.7149 20.0184C16.9894 19.1008 17.6097 18.3584 18.4536 17.9081C18.6746 17.7902 18.9564 17.7069 19.1724 17.589Z" fill="#F4A261"/>
</g>
</g>
<path id="Union" d="M16.6665 10.0559C17.075 10.0299 17.549 10.0618 18.0933 10.2815C18.636 10.5009 19.1511 10.8688 19.5288 11.4163C19.8862 11.9344 20.012 12.455 20.063 12.804L20.0894 13.0403C20.1086 13.2675 20.1075 13.46 20.1079 13.5393L20.1118 13.6799C20.1221 13.7596 20.14 13.835 20.1646 13.9036L20.1978 13.9866L20.2661 14.1223C20.4358 14.4192 20.676 14.5815 20.9419 14.6409L21.0181 14.6545L21.0308 14.6565C21.0521 14.6569 21.0849 14.6575 21.1392 14.6584C21.238 14.6601 21.4197 14.6652 21.6226 14.6887C21.736 14.7019 21.8878 14.7238 22.061 14.7668L22.2417 14.8176L22.2808 14.8303L22.4614 14.8967C22.4811 14.9039 22.5018 14.9117 22.521 14.9202L22.6401 14.9729L22.6636 14.9846C24.3593 15.7994 24.8751 17.8207 24.1001 19.3196C23.901 19.7042 23.6045 20.1136 23.1636 20.4465C22.7123 20.787 22.2476 20.9422 21.8735 21.0139C21.5502 21.0759 21.2537 21.0803 21.1694 21.0823C21.1349 21.0831 21.1139 21.0829 21.1001 21.0833C21.0609 21.0897 21.0214 21.0979 20.9829 21.1077L20.8413 21.1516C20.7499 21.1855 20.657 21.2415 20.5679 21.3167C20.6563 21.3134 20.73 21.3114 20.7817 21.3108C20.8655 21.3099 20.9139 21.3087 20.9497 21.3079C20.9815 21.3071 20.9923 21.3072 20.9966 21.3069L21.2183 21.2834C23.4912 20.9895 25.3939 19.1176 25.7407 16.7893L25.7856 16.4573C25.7951 16.3712 25.7994 16.3023 25.8013 16.2307L25.8022 15.8625V15.8567C25.8037 15.6908 25.8079 15.3703 25.8716 15.0256C25.9592 14.5463 26.1497 14.0904 26.4282 13.6907L26.5552 13.5198C27.194 12.7114 28.0215 12.4061 28.6304 12.2825L28.6802 12.2717L28.7661 12.2571L28.8081 12.2512C29.3849 12.1752 29.9691 12.2445 30.5083 12.4495L30.7368 12.5452L30.769 12.5627L30.9556 12.6575L30.9761 12.6682L30.9888 12.676L31.0093 12.6868C32.1908 13.371 32.5944 14.455 32.6968 15.2668C32.7391 15.603 32.7343 15.9126 32.7319 16.0706C32.7288 16.2762 32.7286 16.3077 32.73 16.3313L32.7749 16.7532C32.7953 16.8908 32.8219 17.0278 32.853 17.1633L32.9312 17.4651L33.0405 17.8108C33.6412 19.5094 35.0707 20.7898 36.8335 21.1956L37.0278 21.2366L37.0337 21.2375C37.1884 21.2686 37.2693 21.2804 37.4819 21.304L37.4839 21.3049H37.4878C37.4932 21.3055 37.4988 21.3053 37.5044 21.3059C37.5001 21.3054 37.497 21.3052 37.4937 21.3049C37.5074 21.3053 37.5298 21.3055 37.563 21.3059L37.9438 21.3147L38.2173 21.3333C38.4912 21.3617 38.8684 21.4287 39.27 21.6008L39.5132 21.718L39.5337 21.7288L39.6274 21.7815L39.6265 21.7834C39.6367 21.7891 39.6467 21.795 39.6567 21.801L39.6587 21.8C39.6647 21.8037 39.6703 21.8081 39.6763 21.8118C39.6808 21.8147 39.6864 21.8176 39.6909 21.8206L39.6938 21.8225C40.3472 22.2262 40.8461 22.8296 41.1216 23.5383L41.228 23.8538L41.2329 23.8713L41.2671 23.9993C41.2695 24.0088 41.2708 24.019 41.2729 24.0286C41.5107 25.0722 41.2379 25.9965 40.7876 26.6956C40.1924 27.619 39.3491 28.0873 38.4946 28.2454C38.1659 28.3061 37.8687 28.3157 37.7212 28.3196C37.6173 28.3223 37.5791 28.3229 37.5288 28.3245L37.4409 28.3284C34.8951 28.5649 32.6522 31.1734 32.7212 33.8645C32.7214 33.8702 32.7231 33.8764 32.7231 33.8821L32.7241 34.0637C32.7242 34.0709 32.7242 34.0781 32.7241 34.0852C32.7148 34.623 32.6109 35.3845 32.1294 36.1057C31.5162 37.0231 30.5971 37.4335 29.7808 37.5745L29.7798 37.5735L29.688 37.5901C29.6504 37.5967 29.6118 37.6019 29.5737 37.6038L29.4761 37.6077H29.4741C28.2676 37.663 26.4837 37.0306 25.9556 35.1536C25.953 35.1445 25.951 35.1344 25.9487 35.1252L25.9136 34.9856C25.9119 34.979 25.9102 34.9717 25.9087 34.9651C25.8151 34.5462 25.8057 34.1596 25.8022 33.9641C25.7994 33.8049 25.8003 33.7033 25.8003 33.634C25.8002 33.5676 25.7984 33.5446 25.7964 33.5149L25.7769 33.2805C25.7561 33.0922 25.7238 32.906 25.6851 32.7229C25.6141 33.1308 25.4608 33.5366 25.2144 33.9202L25.2231 33.9084C25.222 33.9104 25.2182 33.9168 25.2144 33.9231C25.2104 33.9295 25.2046 33.9389 25.1978 33.9495C25.1911 33.9596 25.1833 33.9698 25.1763 33.9797L25.0454 34.1643C25.0378 34.1751 25.0301 34.1861 25.022 34.1965C24.8286 34.4456 24.5874 34.6853 24.2886 34.8879C23.8681 35.1729 23.4429 35.3098 23.0835 35.3733C22.767 35.4291 22.487 35.4279 22.3892 35.428H22.2827C21.8936 35.4656 21.4531 35.6934 21.0874 36.1038C20.7201 36.516 20.4858 37.0509 20.4614 37.5862C20.4592 37.6346 20.4569 37.6861 20.4556 37.7532C20.4543 37.8173 20.4527 37.9237 20.4478 38.0305C20.4387 38.2251 20.4134 38.6371 20.2573 39.0881C20.0774 39.6075 19.7426 40.1317 19.2007 40.5354C18.7054 40.904 18.1782 41.0668 17.7681 41.1467H17.7661L17.6167 41.175C17.5599 41.1859 17.5016 41.1916 17.4438 41.1917H17.2896C16.5119 41.19 15.6253 40.9328 14.9331 40.2307C14.2481 39.535 14.0006 38.6542 14.0073 37.8821L14.0054 37.6497C14.0029 37.5801 13.9988 37.5251 13.9956 37.4954C13.9955 37.4936 13.9958 37.4912 13.9956 37.4895L13.9575 37.2522C13.941 37.1755 13.9196 37.0993 13.895 37.0247L13.8315 36.8547C13.4984 36.0455 12.845 35.5404 12.1313 35.4319C12.0731 35.433 11.9625 35.4355 11.8569 35.4329C11.5776 35.4259 10.9663 35.3897 10.3257 35.0364L10.314 35.0295L10.272 35.0061C8.89206 34.1994 8.40864 32.6613 8.74365 31.3616C9.0968 29.9932 10.3479 28.8924 11.9995 28.9387C12.9386 28.9653 13.9929 27.9841 13.9878 26.8069C13.9864 26.5092 13.9816 25.7069 14.4165 24.927C14.4535 24.8606 14.4923 24.7962 14.5327 24.7346C14.3018 24.4757 14.1305 24.1938 14.0103 23.9202C13.7987 23.4375 13.7435 22.9812 13.7212 22.7463C13.7038 22.5626 13.6876 22.2252 13.686 22.2004C13.6856 22.1937 13.6863 22.1867 13.686 22.1799L13.6675 22.0676C13.6656 22.0609 13.6633 22.0539 13.6616 22.0471C13.5261 21.5011 13.2006 21.19 12.7407 21.0774C12.7077 21.0772 12.6699 21.078 12.6333 21.0774C12.3496 21.073 11.632 21.0501 10.897 20.592C9.19343 19.53 9.01364 17.3996 9.97607 16.0168C9.98986 15.9954 10.0055 15.9745 10.021 15.9543L10.0405 15.9299C10.7995 14.9258 11.857 14.7364 12.3218 14.6848L12.8403 14.6516L12.8833 14.6477C13.2935 14.5611 13.6888 14.1339 13.6929 13.5735C13.6926 13.5331 13.6916 13.4187 13.6919 13.3958C13.6931 13.2951 13.6968 13.1645 13.7104 13.0159C13.737 12.7262 13.8023 12.3313 13.9692 11.9397C14.1749 11.4582 14.5154 10.9985 15.0132 10.6477C15.4798 10.319 15.971 10.1645 16.3784 10.0901L16.4673 10.0754C16.5062 10.0683 16.546 10.0629 16.5854 10.0608L16.6665 10.0559ZM17.5933 40.2444C17.6699 40.2294 17.7493 40.211 17.8306 40.1887C17.7493 40.211 17.6699 40.2295 17.5933 40.2444ZM16.6479 40.1907C16.6999 40.2041 16.7521 40.2149 16.8042 40.2249C16.7521 40.2149 16.6999 40.2041 16.6479 40.1907ZM16.437 40.1252C16.4808 40.141 16.5247 40.1552 16.5688 40.1682C16.5247 40.1552 16.4808 40.1409 16.437 40.1252ZM17.9136 40.1624C17.9686 40.1455 18.0246 40.1279 18.0806 40.1067C18.0246 40.1279 17.9686 40.1455 17.9136 40.1624ZM16.2231 40.0354C16.2697 40.0576 16.3164 40.0781 16.3638 40.0969C16.3164 40.0781 16.2697 40.0575 16.2231 40.0354ZM18.272 40.0256C18.292 40.0161 18.3116 40.0056 18.3315 39.9954C18.3116 40.0056 18.292 40.0161 18.272 40.0256ZM16.0366 39.9358C16.076 39.9592 16.1156 39.9814 16.1558 40.0022C16.1156 39.9814 16.076 39.9592 16.0366 39.9358ZM15.8267 39.7932C15.8667 39.8237 15.9064 39.8538 15.9478 39.8811C15.9064 39.8538 15.8667 39.8237 15.8267 39.7932ZM15.5864 39.5862C15.6444 39.645 15.7052 39.6988 15.7671 39.7493C15.7052 39.6988 15.6444 39.645 15.5864 39.5862ZM18.8364 39.6418C18.8564 39.6231 18.877 39.6054 18.896 39.5862C18.877 39.6054 18.8564 39.6231 18.8364 39.6418ZM18.9458 39.5334C18.9645 39.5131 18.9828 39.4927 19.0005 39.4719C18.9828 39.4927 18.9645 39.5131 18.9458 39.5334ZM19.0405 39.4221C19.0583 39.3998 19.0756 39.3774 19.0923 39.3547C19.0756 39.3774 19.0583 39.3998 19.0405 39.4221ZM19.1313 39.3C19.1531 39.2684 19.1742 39.2367 19.1938 39.2043C19.1742 39.2367 19.1531 39.2684 19.1313 39.3ZM19.2036 39.1868C19.2246 39.1515 19.2445 39.1161 19.2632 39.0803C19.2445 39.1161 19.2246 39.1515 19.2036 39.1868ZM19.3901 38.7883C19.3594 38.8772 19.3217 38.9656 19.2778 39.053C19.2992 39.0104 19.3202 38.9681 19.3384 38.925L19.3901 38.7883ZM16.77 38.551C16.7748 38.5547 16.7797 38.5582 16.7847 38.5618C16.7797 38.5582 16.7748 38.5547 16.77 38.551ZM16.6704 38.4563C16.6734 38.4598 16.6761 38.4636 16.6792 38.467C16.6761 38.4636 16.6734 38.4598 16.6704 38.4563ZM16.5874 38.3352C16.5905 38.341 16.5929 38.3471 16.5962 38.3528C16.5929 38.3471 16.5905 38.341 16.5874 38.3352ZM29.0737 36.6809C29.0887 36.6823 29.1037 36.6827 29.1187 36.6838C29.1037 36.6827 29.0887 36.6823 29.0737 36.6809ZM29.6255 36.6692C29.6993 36.6564 29.7732 36.6405 29.8472 36.6223C29.7732 36.6405 29.6993 36.6564 29.6255 36.6692ZM28.7124 36.6223C28.7267 36.6256 28.7411 36.6281 28.7554 36.6311C28.7411 36.6281 28.7267 36.6256 28.7124 36.6223ZM29.9263 36.5999C29.9801 36.5851 30.034 36.5699 30.0874 36.552C30.034 36.5699 29.9801 36.5851 29.9263 36.5999ZM28.5298 36.5745C28.5457 36.5792 28.5617 36.5837 28.5776 36.5881C28.5617 36.5837 28.5457 36.5792 28.5298 36.5745ZM28.3354 36.509C28.3601 36.5184 28.3849 36.5268 28.4097 36.5354C28.3849 36.5268 28.3601 36.5184 28.3354 36.509ZM30.1567 36.5266C30.2042 36.5093 30.2515 36.491 30.2983 36.4709C30.2515 36.491 30.2042 36.5093 30.1567 36.5266ZM28.1567 36.4329C28.1814 36.4443 28.2061 36.4554 28.231 36.4661C28.2061 36.4554 28.1814 36.4443 28.1567 36.4329ZM30.394 36.427C30.4374 36.4064 30.4804 36.3848 30.5229 36.3616C30.4804 36.3848 30.4374 36.4064 30.394 36.427ZM27.9683 36.3362C27.9941 36.3508 28.0202 36.3645 28.0464 36.3782C28.0202 36.3645 27.9941 36.3508 27.9683 36.3362ZM30.6108 36.3118C30.6534 36.2863 30.6944 36.2581 30.7358 36.2297C30.6945 36.2581 30.6534 36.2863 30.6108 36.3118ZM27.7915 36.2258C27.8212 36.246 27.851 36.2657 27.8813 36.2844C27.851 36.2657 27.8212 36.246 27.7915 36.2258ZM30.8257 36.1682C30.8406 36.1569 30.8549 36.1447 30.8696 36.1331C30.8549 36.1447 30.8406 36.1569 30.8257 36.1682ZM27.6392 36.1145C27.662 36.1327 27.6852 36.15 27.7085 36.1672C27.6852 36.15 27.662 36.1327 27.6392 36.1145ZM27.4624 35.9583C27.4874 35.9826 27.5127 36.0065 27.5386 36.0295C27.5127 36.0065 27.4874 35.9826 27.4624 35.9583ZM31.0151 36.009C31.0272 35.9977 31.0394 35.9865 31.0513 35.9749C31.0394 35.9865 31.0272 35.9977 31.0151 36.009ZM27.314 35.8C27.3421 35.8331 27.3703 35.8657 27.3999 35.8967C27.3703 35.8657 27.3421 35.8331 27.314 35.8ZM27.1812 35.6262C27.2055 35.6611 27.2295 35.6957 27.2554 35.7288C27.2295 35.6957 27.2055 35.6611 27.1812 35.6262ZM31.3735 35.5862C31.4079 35.5341 31.438 35.4807 31.4673 35.428C31.438 35.4807 31.4079 35.5341 31.3735 35.5862ZM27.0532 35.4211C27.0772 35.4646 27.1013 35.5071 27.1274 35.5481C27.1013 35.5071 27.0771 35.4646 27.0532 35.4211ZM26.9263 35.1545C26.9539 35.2238 26.9835 35.2906 27.0161 35.3547C26.9835 35.2906 26.9539 35.2238 26.9263 35.1545ZM31.5142 35.3391C31.5297 35.3081 31.5451 35.2774 31.5591 35.2463C31.5451 35.2774 31.5297 35.3081 31.5142 35.3391ZM31.5942 35.1633C31.6087 35.1278 31.6226 35.0924 31.6353 35.0569C31.6226 35.0924 31.6088 35.1278 31.5942 35.1633ZM26.8403 34.9045C26.8632 34.9858 26.8901 35.0638 26.9194 35.1389C26.8901 35.0638 26.8632 34.9858 26.8403 34.9045ZM31.689 34.8879C31.6933 34.8726 31.6976 34.8573 31.7017 34.842C31.6976 34.8573 31.6933 34.8726 31.689 34.8879ZM28.4712 34.7385C28.4762 34.7453 28.4807 34.7524 28.4858 34.759C28.4807 34.7524 28.4762 34.7453 28.4712 34.7385ZM31.7271 34.7366C31.7307 34.7202 31.7344 34.704 31.7378 34.6877C31.7344 34.704 31.7307 34.7202 31.7271 34.7366ZM22.3882 34.51C22.4294 34.51 22.493 34.5084 22.5708 34.5051C22.4929 34.5085 22.4293 34.51 22.3882 34.51ZM22.9243 34.469C22.9846 34.4583 23.0466 34.443 23.1108 34.426C23.0467 34.443 22.9846 34.4583 22.9243 34.469ZM11.4438 34.469C11.5044 34.4802 11.5619 34.4882 11.6157 34.4944C11.5619 34.4882 11.5044 34.4802 11.4438 34.469ZM11.2427 34.4241C11.2515 34.4265 11.2603 34.4286 11.269 34.4309C11.2603 34.4286 11.2515 34.4265 11.2427 34.4241ZM23.1401 34.4182C23.1933 34.4034 23.2472 34.3855 23.3022 34.3655C23.2472 34.3856 23.1933 34.4034 23.1401 34.4182ZM10.9692 34.3284C10.996 34.3397 11.0229 34.3496 11.0493 34.3596C11.0229 34.3496 10.996 34.3397 10.9692 34.3284ZM23.5718 34.2463C23.4986 34.2851 23.4257 34.3177 23.354 34.3459C23.419 34.3203 23.486 34.2932 23.5522 34.259L23.5718 34.2463ZM10.769 34.2327C10.8177 34.2595 10.8665 34.283 10.9146 34.3049C10.8665 34.283 10.8177 34.2595 10.769 34.2327ZM10.5591 34.0999C10.6153 34.1394 10.6738 34.1774 10.7349 34.2131C10.6738 34.1774 10.6153 34.1394 10.5591 34.0999ZM23.8062 34.1028C23.8411 34.0781 23.8749 34.0527 23.9077 34.0266C23.8749 34.0527 23.8411 34.0781 23.8062 34.1028ZM10.3989 33.9768C10.4429 34.0135 10.4891 34.0481 10.5366 34.0823C10.4891 34.0481 10.4429 34.0135 10.3989 33.9768ZM23.9546 33.9885C23.9869 33.9614 24.0182 33.9338 24.0483 33.9055C24.0182 33.9339 23.9869 33.9614 23.9546 33.9885ZM10.2505 33.8411C10.2806 33.8709 10.3121 33.8995 10.3442 33.928C10.3121 33.8995 10.2806 33.8709 10.2505 33.8411ZM10.1255 33.7083C10.1518 33.7388 10.1803 33.7677 10.2085 33.7971C10.1803 33.7677 10.1518 33.7388 10.1255 33.7083ZM10.0142 33.5676C10.0264 33.5842 10.0395 33.6001 10.0522 33.6165C10.0395 33.6001 10.0264 33.5842 10.0142 33.5676ZM9.9126 33.4172C9.92055 33.43 9.92879 33.4426 9.93701 33.4553C9.92879 33.4426 9.92055 33.43 9.9126 33.4172ZM9.81299 33.2395C9.82577 33.2648 9.83926 33.2898 9.85303 33.3147C9.83926 33.2898 9.82578 33.2648 9.81299 33.2395ZM9.73877 33.0793C9.75027 33.1072 9.76228 33.1349 9.7749 33.1624C9.76227 33.1349 9.75028 33.1072 9.73877 33.0793ZM9.67236 32.8967C9.68292 32.9298 9.69448 32.9626 9.70654 32.9954C9.69447 32.9626 9.68293 32.9298 9.67236 32.8967ZM9.62451 32.7229C9.63301 32.7588 9.64165 32.7947 9.65186 32.8303C9.64164 32.7947 9.63302 32.7588 9.62451 32.7229ZM9.59717 32.5901C9.59987 32.6054 9.60198 32.6207 9.60498 32.636C9.60197 32.6207 9.59987 32.6054 9.59717 32.5901ZM9.75635 31.2356C9.73502 31.284 9.71575 31.3333 9.69775 31.3831C9.71575 31.3333 9.73502 31.284 9.75635 31.2356ZM9.83838 31.0686C9.81436 31.1131 9.79207 31.1584 9.771 31.2043C9.79207 31.1584 9.81437 31.1131 9.83838 31.0686ZM9.92334 30.9231C9.90709 30.9486 9.89268 30.9751 9.87744 31.0012C9.89267 30.9751 9.90709 30.9486 9.92334 30.9231ZM10.0239 30.7786C10.0141 30.7916 10.0051 30.8053 9.99561 30.8186C10.0051 30.8053 10.0141 30.7917 10.0239 30.7786ZM10.1528 30.6213C10.1287 30.6482 10.1053 30.6755 10.0825 30.7034C10.1053 30.6755 10.1288 30.6482 10.1528 30.6213ZM10.27 30.5002C10.2464 30.5229 10.2232 30.546 10.2007 30.5696C10.2232 30.5459 10.2464 30.5229 10.27 30.5002ZM10.4126 30.3743C10.3891 30.3934 10.3659 30.4129 10.3433 30.4329C10.3659 30.4129 10.3891 30.3934 10.4126 30.3743ZM10.5659 30.261C10.5369 30.2808 10.5079 30.3005 10.48 30.3215C10.5079 30.3005 10.5369 30.2808 10.5659 30.261ZM10.7056 30.1731C10.6853 30.1849 10.6648 30.1959 10.645 30.2083C10.6648 30.1959 10.6853 30.1849 10.7056 30.1731ZM11.0698 30.0012C11.0363 30.0135 11.0029 30.0256 10.9702 30.0393C11.0029 30.0256 11.0363 30.0135 11.0698 30.0012ZM21.0815 28.3284C21.3433 28.5957 21.6738 28.794 22.0454 28.8918L22.2349 28.9329C22.2384 28.9332 22.2458 28.9343 22.2573 28.9348C22.3087 28.9371 22.3836 28.9376 22.5552 28.9407C22.5647 28.9409 22.575 28.9422 22.5845 28.9426L22.7534 28.9504L22.7886 28.9534C22.8627 28.9599 22.9362 28.9666 23.0083 28.9778C22.5371 28.7029 22.0234 28.4992 21.48 28.384C21.3496 28.3576 21.2161 28.34 21.0815 28.3284ZM37.6968 27.4006C37.7563 27.3991 37.8332 27.3955 37.9214 27.3899C37.8332 27.3956 37.7563 27.3991 37.6968 27.4006ZM38.3286 27.342C38.2442 27.3576 38.1612 27.368 38.0835 27.3762C38.1027 27.3742 38.1224 27.3738 38.1421 27.3713L38.3286 27.342C38.4016 27.3285 38.4741 27.3109 38.5464 27.2913C38.4741 27.3109 38.4016 27.3285 38.3286 27.342ZM38.6245 27.2668C38.6729 27.2521 38.7212 27.2368 38.769 27.219C38.7212 27.2368 38.6729 27.2521 38.6245 27.2668ZM38.8481 27.1877C38.8935 27.1691 38.9383 27.1488 38.9829 27.1272C38.9383 27.1488 38.8935 27.1691 38.8481 27.1877ZM39.0698 27.0823C39.1096 27.061 39.1489 27.0387 39.188 27.0149C39.1489 27.0387 39.1096 27.061 39.0698 27.0823ZM39.2759 26.9592C39.3216 26.9286 39.3662 26.896 39.4106 26.8616C39.3663 26.896 39.3216 26.9286 39.2759 26.9592ZM39.4663 26.8176C39.5169 26.776 39.5662 26.7317 39.6147 26.6848C39.5662 26.7317 39.5169 26.776 39.4663 26.8176ZM39.6646 26.6379C39.6756 26.6266 39.6868 26.6154 39.6978 26.6038C39.6868 26.6154 39.6756 26.6266 39.6646 26.6379ZM14.9438 26.2043C14.9381 26.2423 14.9333 26.2795 14.9292 26.3157C14.9333 26.2795 14.9381 26.2423 14.9438 26.2043ZM14.9761 26.0325C14.966 26.0793 14.9561 26.1251 14.9487 26.1702C14.9561 26.1251 14.966 26.0793 14.9761 26.0325ZM15.021 25.8557C15.0105 25.8919 15.0003 25.9276 14.9917 25.9631C15.0003 25.9276 15.0105 25.8919 15.021 25.8557ZM37.8188 25.8293C37.7911 25.831 37.7632 25.8332 37.7349 25.8342C37.7326 25.8343 37.7303 25.8351 37.728 25.8352C37.765 25.8338 37.8014 25.8318 37.8374 25.8293C37.8313 25.8298 37.825 25.829 37.8188 25.8293ZM38.0005 25.8108C37.991 25.8122 37.9817 25.8144 37.9722 25.8157C37.9879 25.8136 38.0035 25.8114 38.019 25.8088C38.0129 25.8099 38.0066 25.8098 38.0005 25.8108ZM38.1519 25.7795C38.1679 25.775 38.1839 25.7703 38.1997 25.7649C38.1839 25.7703 38.1679 25.775 38.1519 25.7795ZM38.2534 25.7444C38.2481 25.7465 38.2431 25.7492 38.2378 25.7512C38.2469 25.7477 38.2561 25.7443 38.2651 25.7405C38.2614 25.7421 38.2572 25.7428 38.2534 25.7444ZM38.478 25.6096C38.4739 25.6131 38.4695 25.6161 38.4653 25.6194C38.4424 25.6377 38.4196 25.6549 38.396 25.6702C38.4261 25.6506 38.4568 25.6303 38.4858 25.6057L38.4897 25.6018C38.4862 25.6049 38.4816 25.6067 38.478 25.6096ZM38.6294 25.4553C38.6053 25.4859 38.5801 25.5135 38.5552 25.5393C38.5802 25.5135 38.6053 25.4859 38.6294 25.4553ZM40.3774 24.2317C40.4642 24.6124 40.4598 24.9718 40.3901 25.302C40.4598 24.9724 40.4649 24.6139 40.3784 24.2336L40.3774 24.2317ZM40.3442 24.1038C40.3235 24.0305 40.2989 23.9586 40.272 23.8879C40.2989 23.9586 40.3235 24.0305 40.3442 24.1038ZM20.0542 23.9358C20.0387 23.9449 20.0234 23.9547 20.0083 23.9651C20.0234 23.9547 20.0387 23.9449 20.0542 23.9358ZM20.3325 23.8303C20.3249 23.8319 20.3176 23.8344 20.3101 23.8362C20.3294 23.8317 20.349 23.8281 20.3687 23.8245L20.3325 23.8303ZM20.5386 23.803C20.5163 23.8048 20.4942 23.8063 20.4722 23.8088C20.4942 23.8063 20.5163 23.8048 20.5386 23.803ZM40.2329 23.7952C40.216 23.7554 40.199 23.7158 40.1802 23.677C40.199 23.7158 40.216 23.7554 40.2329 23.7952ZM21.6343 23.7288C21.5123 23.7462 21.3897 23.7614 21.2661 23.7727C21.3897 23.7614 21.5123 23.7461 21.6343 23.7288ZM40.1216 23.5657C40.1042 23.534 40.0865 23.5028 40.0679 23.4719C40.0865 23.5028 40.1043 23.534 40.1216 23.5657ZM40.0132 23.385C39.9905 23.3506 39.9672 23.3167 39.9429 23.2834C39.9671 23.3167 39.9905 23.3506 40.0132 23.385ZM39.8755 23.1946C39.8527 23.166 39.8291 23.1382 39.8052 23.1106C39.8291 23.1382 39.8527 23.166 39.8755 23.1946ZM17.4624 23.0217C17.4599 23.0247 17.4572 23.0276 17.4546 23.0305C17.4531 23.0323 17.4523 23.0346 17.4507 23.0364C17.4567 23.0298 17.4617 23.0226 17.4673 23.0159C17.4657 23.0178 17.4641 23.0198 17.4624 23.0217ZM39.7231 23.0188C39.7009 22.9955 39.677 22.9739 39.6538 22.9514C39.6769 22.9739 39.7009 22.9955 39.7231 23.0188ZM17.5171 22.9465C17.516 22.9484 17.5153 22.9505 17.5142 22.9524C17.5123 22.9554 17.5102 22.9582 17.5083 22.9612C17.512 22.9554 17.5155 22.9495 17.519 22.9436C17.5184 22.9446 17.5177 22.9455 17.5171 22.9465ZM16.2358 22.7874C16.2377 22.7947 16.2406 22.8016 16.2427 22.8088C16.2352 22.7825 16.228 22.7556 16.2222 22.7278L16.2358 22.7874ZM17.6069 22.6672C17.6023 22.7005 17.5982 22.7332 17.5903 22.7649C17.5887 22.7717 17.5883 22.7787 17.5864 22.7854C17.598 22.743 17.6042 22.6989 17.6099 22.6536C17.6093 22.6582 17.6076 22.6626 17.6069 22.6672ZM16.2104 22.6653C16.2136 22.6845 16.2174 22.7033 16.2212 22.7219C16.2189 22.7107 16.2184 22.6991 16.2163 22.6877C16.2149 22.6802 16.2117 22.6729 16.2104 22.6653ZM19.9565 22.3137C19.8828 22.3313 19.8079 22.3538 19.7319 22.3792C19.8079 22.3538 19.8828 22.3313 19.9565 22.3137ZM25.2778 22.1526C25.3137 22.1243 25.3499 22.0965 25.3853 22.0676C25.3499 22.0965 25.3137 22.1243 25.2778 22.1526ZM25.6519 21.8381C25.6199 21.8668 25.5876 21.895 25.5552 21.9231C25.5876 21.895 25.6199 21.8668 25.6519 21.8381ZM19.3843 21.4133C19.3717 21.4416 19.3597 21.4703 19.3481 21.4993C19.3597 21.4703 19.3718 21.4416 19.3843 21.4133ZM15.9038 20.928C15.9696 21.0959 16.0261 21.2701 16.0708 21.4504C16.0541 21.3831 16.0348 21.3169 16.0151 21.2512C15.9834 21.1452 15.949 21.0411 15.9097 20.9397C15.9081 20.9356 15.9054 20.932 15.9038 20.928ZM17.7417 21.3899C17.7407 21.3937 17.7407 21.3978 17.7397 21.4016C17.7407 21.3978 17.7407 21.3937 17.7417 21.3899ZM37.4937 21.3049C37.4916 21.3049 37.4895 21.305 37.4878 21.3049C37.4858 21.3047 37.4839 21.3042 37.4819 21.304C37.4842 21.3041 37.4882 21.3044 37.4937 21.3049ZM23.9214 21.2102C23.9718 21.1763 24.0214 21.1411 24.0708 21.1057C24.0214 21.1411 23.9718 21.1763 23.9214 21.2102ZM15.8003 20.6858C15.8192 20.7259 15.8364 20.7669 15.854 20.8079C15.8364 20.7669 15.8191 20.7259 15.8003 20.6858ZM17.9888 20.7083C17.9759 20.7359 17.9649 20.7643 17.9526 20.7922C17.9471 20.8049 17.9415 20.8176 17.936 20.8303C17.9585 20.7777 17.9817 20.7256 18.0063 20.6741C18.0008 20.6856 17.9942 20.6966 17.9888 20.7083ZM18.1001 20.4895C18.0875 20.5128 18.0752 20.5363 18.063 20.5598C18.0538 20.5777 18.0446 20.5955 18.0356 20.6135C18.059 20.5667 18.0838 20.5207 18.1089 20.4749C18.1061 20.4798 18.1028 20.4845 18.1001 20.4895ZM21.147 20.1633C21.1873 20.1624 21.2567 20.1599 21.3433 20.1545C21.2566 20.16 21.1872 20.1624 21.147 20.1633ZM21.7007 20.1125C21.7641 20.1004 21.8304 20.0842 21.8989 20.0647C21.8304 20.0842 21.7641 20.1004 21.7007 20.1125ZM21.9585 20.0452C22.0112 20.0286 22.0651 20.0104 22.1196 19.9885C22.0651 20.0104 22.0112 20.0286 21.9585 20.0452ZM15.3276 19.927C15.3079 19.9024 15.2884 19.8778 15.2681 19.8538C15.2663 19.8517 15.264 19.85 15.2622 19.8479C15.2843 19.874 15.3062 19.9003 15.3276 19.927ZM22.2778 19.9182C22.2838 19.9152 22.2894 19.9115 22.2954 19.9084C22.2894 19.9115 22.2838 19.9152 22.2778 19.9182ZM11.1763 19.6663C11.2343 19.7115 11.2957 19.7541 11.3599 19.7952C11.2957 19.7541 11.2343 19.7115 11.1763 19.6663ZM18.6558 19.7131C18.6369 19.7334 18.6185 19.754 18.6001 19.7747C18.5941 19.7814 18.5885 19.7884 18.5825 19.7952C18.6127 19.7606 18.6438 19.727 18.6753 19.6936C18.669 19.7003 18.662 19.7064 18.6558 19.7131ZM15.1538 19.7258C15.1491 19.7208 15.1449 19.7152 15.1401 19.7102C15.1266 19.6958 15.1129 19.6815 15.0991 19.6672L15.0981 19.6663C15.1171 19.6858 15.1353 19.7059 15.1538 19.7258ZM10.9849 19.5002C11.0276 19.5418 11.0737 19.5804 11.1206 19.6194C11.0737 19.5804 11.0276 19.5418 10.9849 19.5002ZM22.7622 19.5852C22.7697 19.5784 22.7773 19.5716 22.7847 19.5647C22.7773 19.5716 22.7697 19.5784 22.7622 19.5852ZM14.9751 19.5461C14.969 19.5405 14.9636 19.5342 14.9575 19.5286C14.9504 19.522 14.9432 19.5155 14.936 19.509C14.9297 19.5033 14.9229 19.4981 14.9165 19.4924C14.9363 19.5101 14.9557 19.528 14.9751 19.5461ZM10.8276 19.3303C10.8568 19.3653 10.8886 19.3983 10.9204 19.4319C10.8886 19.3983 10.8568 19.3653 10.8276 19.3303ZM14.7876 19.3821C14.7846 19.3796 14.7819 19.3767 14.7788 19.3743C14.7663 19.3642 14.7533 19.3549 14.7407 19.345C14.7369 19.342 14.7329 19.3392 14.729 19.3362C14.7486 19.3514 14.7683 19.3664 14.7876 19.3821ZM10.686 19.1409C10.711 19.1783 10.7386 19.214 10.7661 19.2502C10.7386 19.214 10.711 19.1783 10.686 19.1409ZM14.5786 19.2249C14.5775 19.2241 14.5768 19.2227 14.5757 19.2219C14.5686 19.217 14.5614 19.2122 14.5542 19.2073C14.5503 19.2046 14.5464 19.2021 14.5425 19.1995C14.5547 19.2077 14.5665 19.2164 14.5786 19.2249ZM10.5718 18.9485C10.593 18.9886 10.6163 19.0276 10.6401 19.0667C10.6163 19.0276 10.593 18.9886 10.5718 18.9485ZM10.4761 18.7415C10.4916 18.7801 10.5091 18.8178 10.5269 18.8557C10.5091 18.8178 10.4916 18.7801 10.4761 18.7415ZM10.4028 18.5286C10.415 18.5707 10.4292 18.6121 10.4438 18.6536C10.4292 18.6121 10.415 18.5707 10.4028 18.5286ZM12.5444 18.5891C12.6057 18.5946 12.6676 18.597 12.73 18.5969C12.7225 18.5969 12.715 18.596 12.7075 18.5959H12.6714C12.6363 18.5954 12.6016 18.5927 12.5669 18.5901C12.5594 18.5896 12.5519 18.5898 12.5444 18.5891ZM10.353 18.3215C10.3602 18.3592 10.3693 18.3965 10.3784 18.4338C10.3693 18.3965 10.3602 18.3592 10.353 18.3215ZM32.0464 17.7112C32.114 17.9541 32.1986 18.1898 32.2935 18.4192C32.2522 18.3194 32.2115 18.2189 32.1753 18.1165L32.0464 17.7112ZM26.4067 17.9397C26.363 18.0722 26.3145 18.2027 26.2622 18.3313C26.3145 18.2027 26.363 18.0722 26.4067 17.9397ZM10.3218 18.0911C10.3252 18.1299 10.3291 18.1686 10.3345 18.2073C10.3291 18.1686 10.3252 18.1299 10.3218 18.0911ZM10.313 17.8792C10.3129 17.9182 10.3131 17.9573 10.3149 17.9963C10.3131 17.9573 10.3129 17.9182 10.313 17.8792ZM10.3247 17.6555C10.321 17.6936 10.3168 17.7316 10.3149 17.7698C10.3168 17.7316 10.321 17.6936 10.3247 17.6555ZM10.3608 17.4172C10.3513 17.4643 10.3411 17.5113 10.3345 17.5588C10.3411 17.5113 10.3513 17.4643 10.3608 17.4172ZM10.4146 17.2034C10.4006 17.2498 10.3856 17.2959 10.3745 17.343C10.3856 17.2959 10.4006 17.2498 10.4146 17.2034ZM10.5015 16.9592C10.4792 17.0117 10.4584 17.0646 10.4399 17.1184C10.4584 17.0646 10.4792 17.0117 10.5015 16.9592ZM11.1558 16.0901C11.135 16.1066 11.1138 16.1232 11.0933 16.1409C11.1138 16.1232 11.135 16.1066 11.1558 16.0901ZM31.814 16.0579C31.815 15.9881 31.815 15.8976 31.813 15.7952C31.8152 15.8976 31.815 15.9881 31.814 16.0579ZM11.5962 15.8206C11.5546 15.8398 11.5131 15.8613 11.4712 15.884C11.5131 15.8613 11.5546 15.8398 11.5962 15.8206ZM11.8188 15.7307C11.7767 15.7453 11.7342 15.7618 11.6909 15.7795C11.7342 15.7618 11.7767 15.7453 11.8188 15.7307ZM12.0415 15.6643C11.9929 15.6763 11.9427 15.6902 11.8911 15.7063C11.9427 15.6902 11.9929 15.6763 12.0415 15.6643ZM12.2632 15.6184C12.2074 15.6275 12.1468 15.639 12.0835 15.6536C12.147 15.639 12.2072 15.6275 12.2632 15.6184ZM12.855 15.5696C12.8643 15.5692 12.8728 15.5689 12.8804 15.5686C12.9337 15.5663 12.9689 15.563 12.9956 15.5608L12.855 15.5696ZM26.8296 14.9641C26.8115 15.0281 26.7966 15.093 26.7837 15.1584C26.7966 15.093 26.8116 15.0281 26.8296 14.9641ZM26.9146 14.717C26.8931 14.7707 26.8736 14.825 26.856 14.8801C26.8736 14.825 26.8931 14.7707 26.9146 14.717ZM27.0278 14.47C26.9969 14.528 26.9691 14.5875 26.9429 14.6477C26.969 14.5875 26.9969 14.528 27.0278 14.47ZM27.7427 13.6399C27.6991 13.6719 27.6564 13.7064 27.6138 13.7424C27.6564 13.7064 27.6991 13.6718 27.7427 13.6399ZM27.9604 13.4973C27.9132 13.5247 27.8666 13.5547 27.8198 13.5862C27.8666 13.5547 27.9132 13.5247 27.9604 13.4973ZM28.1753 13.387C28.1216 13.4116 28.0679 13.4386 28.0142 13.468C28.0679 13.4387 28.1215 13.4115 28.1753 13.387ZM28.4087 13.2922C28.3477 13.3136 28.2861 13.3377 28.2241 13.3645C28.2861 13.3377 28.3477 13.3135 28.4087 13.2922ZM28.4468 13.2786C28.4386 13.2813 28.4306 13.2845 28.4224 13.2874C28.4922 13.2634 28.5611 13.2427 28.6284 13.2249L28.4468 13.2786ZM19.1489 12.9124C19.1401 12.8553 19.1286 12.7938 19.1138 12.7288C19.1286 12.7938 19.1401 12.8553 19.1489 12.9124ZM19.0952 12.6575C19.0825 12.6085 19.0684 12.5579 19.0513 12.5061C19.0684 12.5579 19.0825 12.6085 19.0952 12.6575ZM18.7671 11.9309C18.7363 11.8866 18.7038 11.8441 18.6704 11.803C18.7038 11.8441 18.7362 11.8866 18.7671 11.9309ZM15.1011 11.8167C15.0813 11.8418 15.0619 11.8671 15.0435 11.8928C15.0619 11.8671 15.0812 11.8418 15.1011 11.8167ZM18.6519 11.7815C18.6227 11.7465 18.5929 11.7126 18.562 11.6799C18.5929 11.7126 18.6227 11.7465 18.6519 11.7815ZM15.3159 11.5813C15.2761 11.6185 15.2387 11.6573 15.2026 11.6965C15.268 11.6254 15.3395 11.5573 15.4175 11.4934L15.3159 11.5813ZM18.5405 11.6575C18.5116 11.6278 18.4819 11.5992 18.4517 11.5715C18.482 11.5992 18.5116 11.6278 18.5405 11.6575ZM18.4185 11.5422C18.39 11.5173 18.361 11.4933 18.3315 11.47C18.361 11.4933 18.39 11.5173 18.4185 11.5422ZM18.2954 11.4417C18.2573 11.4128 18.2188 11.3849 18.1792 11.3586C18.2188 11.3849 18.2573 11.4128 18.2954 11.4417ZM17.897 11.1975C17.9944 11.2443 18.0884 11.2985 18.1792 11.3586L18.145 11.3352C18.0651 11.2842 17.9819 11.2383 17.897 11.1975ZM15.7563 11.2659C15.7384 11.2757 15.7205 11.2857 15.7026 11.2961C15.7205 11.2857 15.7384 11.2757 15.7563 11.2659ZM16.2983 11.05C16.2236 11.0704 16.148 11.095 16.0718 11.1233C16.148 11.095 16.2235 11.0704 16.2983 11.05Z" fill="white" fill-opacity="0.3"/>
</g>
</g>
</g>
</svg>
