<svg width="50" height="50" viewBox="0 0 50 50" fill="none" xmlns="http://www.w3.org/2000/svg">
<rect width="50" height="50" fill="#BEBEBE"/>
<g id="Decorate Mode">
<path d="M-238.703 -1065.03V-1064.03H2781.3V-1065.03V-1066.03H-238.703V-1065.03ZM2783.3 -1063.03H2782.3V2474.97H2783.3H2784.3V-1063.03H2783.3ZM2781.3 2476.97V2475.97H-238.703V2476.97V2477.97H2781.3V2476.97ZM-240.703 2474.97H-239.703V-1063.03H-240.703H-241.703V2474.97H-240.703ZM-238.703 2476.97V2475.97C-239.255 2475.97 -239.703 2475.52 -239.703 2474.97H-240.703H-241.703C-241.703 2476.62 -240.36 2477.97 -238.703 2477.97V2476.97ZM2783.3 2474.97H2782.3C2782.3 2475.52 2781.85 2475.97 2781.3 2475.97V2476.97V2477.97C2782.95 2477.97 2784.3 2476.62 2784.3 2474.97H2783.3ZM2781.3 -1065.03V-1064.03C2781.85 -1064.03 2782.3 -1063.59 2782.3 -1063.03H2783.3H2784.3C2784.3 -1064.69 2782.95 -1066.03 2781.3 -1066.03V-1065.03ZM-238.703 -1065.03V-1066.03C-240.359 -1066.03 -241.703 -1064.69 -241.703 -1063.03H-240.703H-239.703C-239.703 -1063.59 -239.255 -1064.03 -238.703 -1064.03V-1065.03Z" fill="black" fill-opacity="0.1"/>
<g id="Stickers">
<rect x="-186.694" y="-192.534" width="374" height="551" rx="4.5" stroke="#9747FF" stroke-dasharray="10 5"/>
<g id="Property 1=hourglass">
<g id="Frame 158">
<path id="Vector" d="M18.5192 10.1292C18.679 10.1114 19.0394 10.1208 19.2126 10.1213L20.3984 10.1215L24.677 10.1199L29.2808 10.1194L30.7345 10.1179C31.4192 10.1175 31.8502 10.0629 32.4562 10.4716C33.3323 11.0627 33.5433 12.2463 32.9446 13.1134C32.5874 13.631 32.0546 13.8765 31.4429 13.9851C31.7097 14.6697 31.9189 15.2535 32.0019 15.9923C32.3243 18.8629 30.8539 21.5205 28.5832 23.196C28.2209 23.4544 27.8454 23.6977 27.4659 23.9298C27.1482 24.1241 26.7127 24.2411 26.5626 24.6221C26.4888 24.8062 26.5058 25.0143 26.6084 25.1839C26.7832 25.476 27.5368 25.8356 27.8762 26.0604C29.4855 27.1191 30.7833 28.5492 31.4979 30.356C32.2585 32.2795 32.2362 34.121 31.4292 36.0192C31.8888 36.0943 32.2409 36.1992 32.5966 36.5155C33.9133 37.6871 33.1936 39.762 31.4296 39.8743C31.1939 39.8925 30.8557 39.8817 30.6102 39.8805C30.1477 39.8772 29.685 39.8762 29.2224 39.8776L24.2742 39.8798L20.4713 39.8776L19.1771 39.88C19.0088 39.8798 18.8346 39.8841 18.6668 39.879C16.1616 39.8001 16.0022 36.3201 18.578 36.0315C18.5261 35.9157 18.4766 35.7989 18.4297 35.6811C18.1221 34.8783 17.9664 34.0255 17.9706 33.1657C17.9677 30.6037 19.2592 28.3005 21.2317 26.7157C21.8623 26.2091 22.4873 25.8544 23.1634 25.4271C23.5024 25.2129 23.5779 24.6687 23.2627 24.3874C23.0352 24.1843 22.7298 24.0468 22.4536 23.8938C22.2922 23.8024 22.1341 23.7056 21.9793 23.6036C20.4423 22.6072 19.2474 21.2929 18.5263 19.5922C17.951 18.2354 17.8019 16.5833 18.1526 15.1489C18.2545 14.732 18.4028 14.3729 18.5654 13.978C18.1128 13.9113 17.7689 13.8067 17.4082 13.506C17.0109 13.1742 16.7638 12.6965 16.7223 12.1805C16.6482 11.2944 17.1724 10.4719 18.034 10.2068C18.197 10.1567 18.3499 10.1434 18.5192 10.1292Z" fill="#020101"/>
<path id="Vector (Stroke)" d="M30.7333 8.55518C31.2972 8.55482 32.2544 8.45116 33.3298 9.17651C34.9403 10.2633 35.3137 12.4326 34.2306 14.0013L34.23 14.0007C33.9813 14.3611 33.6908 14.6415 33.3804 14.8601C33.4548 15.1574 33.5157 15.4738 33.5544 15.8177C33.9516 19.3543 32.1325 22.5186 29.5108 24.453C29.504 24.458 29.4975 24.4634 29.4907 24.4683C29.2962 24.607 29.0996 24.7403 28.9029 24.8693C30.6549 26.0614 32.1236 27.6899 32.9507 29.7814L33.0337 29.9974C33.6725 31.7223 33.7842 33.4274 33.3682 35.1323C33.415 35.1665 33.4618 35.2024 33.5086 35.2404L33.6349 35.3478L33.6356 35.3484C35.9935 37.4468 34.6708 41.217 31.5494 41.4318L31.55 41.4324C31.5451 41.4327 31.5402 41.4326 31.5353 41.433C31.5333 41.4331 31.5313 41.4335 31.5292 41.4336L31.5286 41.433C31.209 41.4556 30.7633 41.4436 30.6027 41.4427H30.5991C30.1417 41.4395 29.6841 41.4389 29.227 41.4403H20.4733L19.18 41.4427H19.1751C19.0647 41.4426 18.8146 41.4469 18.6191 41.4409H18.6179C16.4765 41.3734 15.212 39.7582 15.1553 38.087C15.1168 36.9505 15.6332 35.8168 16.6293 35.1244C16.4797 34.4811 16.4051 33.8211 16.4084 33.1578C16.4081 30.0516 17.9751 27.3275 20.253 25.4973C20.531 25.274 20.8138 25.073 21.0904 24.8882C19.346 23.7481 17.94 22.212 17.0877 20.2019C16.3969 18.5727 16.2093 16.6158 16.6153 14.8662C16.5464 14.8165 16.4768 14.7639 16.4078 14.7063L16.4065 14.7051C15.6884 14.1053 15.2418 13.2423 15.1657 12.3101C15.0337 10.7285 15.9772 9.2048 17.5748 8.71326L17.7029 8.67725C17.9972 8.60153 18.2545 8.58353 18.389 8.57227V8.5741C18.6748 8.5487 19.1585 8.55865 19.2166 8.55884L29.2795 8.55762L30.7333 8.55518ZM19.2123 10.1213L18.8608 10.1183C18.7291 10.1181 18.5988 10.1204 18.519 10.1293L18.2742 10.1543C18.1946 10.1656 18.1157 10.1818 18.0344 10.2068C17.1727 10.4719 16.648 11.2946 16.7221 12.1807C16.7636 12.6966 17.011 13.174 17.4081 13.5057C17.7688 13.8065 18.1128 13.9114 18.5654 13.9781C18.4028 14.3729 18.2547 14.732 18.1528 15.1488C17.8021 16.5832 17.951 18.2354 18.5263 19.5922C19.2474 21.2928 20.4422 22.607 21.9791 23.6034C22.1338 23.7055 22.2926 23.8026 22.4539 23.8939C22.7301 24.0469 23.0352 24.1847 23.2626 24.3877C23.5777 24.669 23.5025 25.2129 23.1637 25.4271L22.6651 25.7372C22.1745 26.041 21.7049 26.3357 21.232 26.7156L21.0489 26.8663C19.1798 28.4447 17.9681 30.6838 17.9709 33.1658C17.9667 34.0255 18.1222 34.8783 18.4299 35.681C18.4767 35.7988 18.5262 35.9156 18.5782 36.0314C16.0024 36.32 16.1616 39.7999 18.6667 39.879L19.1769 39.8802L20.4715 39.8778H29.2227L30.61 39.8802C30.8556 39.8815 31.194 39.8924 31.4297 39.8741C33.1937 39.7618 33.9134 37.6869 32.5967 36.5154C32.241 36.1991 31.8887 36.0942 31.4291 36.0192C32.1857 34.2396 32.2524 32.51 31.6312 30.7158L31.4981 30.3557C30.7835 28.5491 29.4854 27.1193 27.8763 26.0607C27.558 25.8498 26.8755 25.5202 26.6476 25.2391L26.6086 25.1836C26.5189 25.0353 26.4943 24.8576 26.539 24.6923L26.5628 24.6221C26.6942 24.2887 27.0439 24.1573 27.3422 23.9995L27.4661 23.9299C27.8456 23.6978 28.2208 23.4541 28.5831 23.1957C30.7827 21.5726 32.2314 19.0281 32.0267 16.2609L32.0016 15.9923C31.9186 15.2535 31.71 14.6694 31.4432 13.9849C32.0548 13.8762 32.5875 13.6308 32.9446 13.1133C33.5246 12.2732 33.3448 11.136 32.5363 10.5284L32.4564 10.4717C31.8504 10.0629 31.4193 10.1172 30.7346 10.1177L29.2807 10.1195L19.2123 10.1213Z" fill="#E8E7E7"/>
<path id="Vector (Stroke) (Stroke)" d="M30.7333 7.63628C31.2391 7.63587 32.4962 7.50593 33.8436 8.41474C35.8865 9.79338 36.3536 12.5425 34.9867 14.5228C34.9828 14.5286 34.9777 14.5339 34.9736 14.5396C34.7965 14.7937 34.5989 15.0135 34.3924 15.2092C34.4213 15.3718 34.4469 15.5401 34.4666 15.715C34.887 19.4584 33.0676 22.7763 30.4499 24.8856C31.766 25.9806 32.8845 27.3536 33.6271 29.0206L33.8053 29.4439L33.8077 29.4523L33.8914 29.6675L33.895 29.6783C34.5248 31.3791 34.6879 33.0831 34.3769 34.7879C37.1589 37.4501 35.4821 42.0568 31.6421 42.3441C31.6405 42.3443 31.639 42.3452 31.6373 42.3453C31.6351 42.3456 31.6296 42.3461 31.6254 42.3465C31.6234 42.3467 31.6226 42.3475 31.6206 42.3477C31.6122 42.3484 31.6045 42.3485 31.5979 42.3489C31.5946 42.3491 31.5907 42.3499 31.5871 42.3501C31.5776 42.3507 31.568 42.3498 31.5584 42.3501C31.3832 42.3611 31.1807 42.3646 31.0048 42.3644L30.5982 42.3609H30.5922C30.1386 42.3576 29.6844 42.3571 29.2302 42.3585H20.4746L19.182 42.3609H19.1736C19.095 42.3608 18.8277 42.3638 18.6188 42.3585L18.6176 42.3597C18.608 42.3597 18.5984 42.3588 18.5889 42.3585C16.0875 42.2796 14.5144 40.4767 14.2685 38.5128L14.2374 38.1182C14.1956 36.8833 14.6747 35.6438 15.6209 34.7616C15.5317 34.2314 15.4879 33.6933 15.4906 33.1533C15.4918 29.7913 17.1582 26.87 19.5419 24.8963C18.2502 23.8535 17.1743 22.5554 16.4245 20.967L16.2427 20.5604C15.5515 18.9299 15.3159 17.0125 15.6102 15.2236C14.8254 14.4789 14.3393 13.4697 14.2505 12.386L14.235 12.0141C14.2364 10.1609 15.3997 8.42219 17.3046 7.83598C17.3117 7.83378 17.3189 7.83082 17.3261 7.8288L17.4541 7.79293L17.4744 7.78815C17.8535 7.6906 18.1839 7.66739 18.3126 7.65661C18.3382 7.65448 18.3637 7.65541 18.3892 7.65541C18.5555 7.6443 18.7413 7.63925 18.8842 7.63867C18.9715 7.63832 19.0509 7.63809 19.1114 7.63867C19.1418 7.63897 19.1685 7.63963 19.188 7.63987C19.1977 7.63999 19.2058 7.6398 19.2119 7.63987C19.2158 7.63991 19.218 7.64105 19.219 7.64106L29.278 7.63987L30.7333 7.63628ZM31.6302 42.3465H31.6254C31.629 42.3462 31.6337 42.3457 31.6373 42.3453C31.6358 42.3455 31.6333 42.3462 31.6302 42.3465ZM29.2792 8.55704L19.2167 8.55943C19.1586 8.55924 18.675 8.5484 18.3892 8.57378C18.2547 8.58505 17.997 8.6021 17.7028 8.67781L17.5748 8.71369C15.9773 9.20526 15.0334 10.7291 15.1653 12.3106C15.2416 13.2426 15.6887 14.1049 16.4065 14.7046L16.4077 14.7058C16.4768 14.7634 16.5469 14.8163 16.6158 14.866C16.2098 16.6156 16.3974 18.5724 17.0882 20.2017C17.9404 22.2117 19.3462 23.7479 21.0905 24.888C20.8138 25.0727 20.5314 25.2745 20.2534 25.4978L19.8349 25.8506C17.7856 27.6693 16.4087 30.2458 16.4089 33.158C16.4057 33.821 16.4794 34.4809 16.629 35.1239C15.6329 35.8163 15.1173 36.9506 15.1558 38.0871C15.209 39.6537 16.3232 41.1709 18.2265 41.4102L18.6176 41.4413C18.8129 41.4472 19.0642 41.4424 19.1748 41.4425H19.1796L20.4734 41.4401H29.2266L30.5994 41.4425H30.603C30.7637 41.4433 31.209 41.4555 31.5285 41.4329L31.5297 41.4341C31.5316 41.434 31.5338 41.433 31.5357 41.4329C31.5405 41.4326 31.5453 41.4333 31.55 41.4329L31.5488 41.4317C34.5728 41.2237 35.9093 37.6787 33.846 35.5496L33.6355 35.3487L33.5088 35.2399C33.4622 35.2022 33.4155 35.1663 33.3688 35.1323C33.7588 33.5339 33.6847 31.9353 33.1476 30.3204L33.034 29.9976L32.9503 29.7811C32.1231 27.6899 30.6545 26.0609 28.9026 24.8688C29.0992 24.7398 29.2964 24.6069 29.4909 24.4682C29.4977 24.4634 29.5045 24.4576 29.5112 24.4527C32.0508 22.5787 33.8373 19.5505 33.5853 16.1479L33.5542 15.8179C33.5155 15.474 33.4552 15.1573 33.3808 14.8601C33.6911 14.6415 33.9811 14.3606 34.2298 14.0003L34.231 14.0015C35.314 12.4327 34.9398 10.2633 33.3294 9.17646C32.2542 8.45134 31.2971 8.55429 30.7333 8.55465L29.2792 8.55704ZM30.7345 10.1175C31.4192 10.1171 31.8505 10.0628 32.4565 10.4715L32.5366 10.5289C33.3447 11.1366 33.5242 12.273 32.9443 13.113C32.5873 13.6304 32.0551 13.876 31.4436 13.9847C31.7104 14.6692 31.919 15.2537 32.0021 15.9925L32.0272 16.2603C32.2319 19.0275 30.7829 21.5729 28.5833 23.1959L28.0308 23.5726C27.8444 23.6948 27.6561 23.8141 27.4664 23.9301L27.3421 23.9995C27.0438 24.1573 26.6937 24.2891 26.5624 24.6225L26.5385 24.6918C26.4938 24.8572 26.5193 25.035 26.609 25.1833L26.6473 25.2395C26.8752 25.5206 27.5583 25.8502 27.8766 26.061C29.4856 27.1196 30.7841 28.5498 31.4986 30.3563L31.6314 30.7162C32.2525 32.5103 32.1857 34.2402 31.4293 36.0196C31.8888 36.0946 32.2407 36.1996 32.5964 36.5158C33.913 37.6874 33.1932 39.7612 31.4293 39.8736C31.1936 39.8918 30.8555 39.882 30.6102 39.8808L29.223 39.8784H20.471L19.1772 39.8808L18.6666 39.8796C16.1617 39.8004 16.0025 36.3203 18.5781 36.0315C18.5262 35.9158 18.4767 35.7989 18.4298 35.6812C18.1222 34.8785 17.9665 34.025 17.9706 33.1652C17.968 30.6835 19.1797 28.444 21.0486 26.8658L21.2316 26.7151C21.4681 26.5252 21.704 26.3565 21.9419 26.1973L22.6653 25.737L23.164 25.4273C23.4816 25.2263 23.5674 24.7354 23.317 24.4431L23.2632 24.3881C23.1495 24.2866 23.0162 24.2004 22.877 24.1215L22.4537 23.8943C22.2924 23.8029 22.1337 23.7057 21.9789 23.6037C20.538 22.6695 19.3976 21.4557 18.6666 19.9063L18.5267 19.5918C17.9515 18.235 17.8017 16.5825 18.1524 15.1482C18.2543 14.7317 18.4024 14.3722 18.565 13.9776C18.169 13.9191 17.8562 13.8318 17.5426 13.6093L17.4086 13.5052C17.061 13.2149 16.8279 12.8133 16.7473 12.3716L16.7222 12.1803C16.653 11.3497 17.11 10.5754 17.8774 10.2634L18.034 10.2072C18.1154 10.1822 18.1947 10.166 18.2744 10.1546L18.5195 10.1295C18.5993 10.1207 18.7291 10.1186 18.8603 10.1187L19.2119 10.1211L29.2804 10.1199L30.7345 10.1175ZM30.7357 11.0359L29.2816 11.0383L19.2047 11.0395L18.8555 11.0371C18.7961 11.037 18.742 11.037 18.6965 11.0383C18.6735 11.039 18.6546 11.0399 18.6403 11.0407C18.6292 11.0413 18.623 11.0417 18.6212 11.0419L18.6128 11.0431L18.3928 11.0646C18.3562 11.0702 18.3286 11.0774 18.3043 11.0849C17.9287 11.2006 17.6692 11.5293 17.637 11.9292V12.1073C17.6588 12.3771 17.7889 12.6271 17.997 12.8009C18.1805 12.9539 18.3401 13.017 18.6989 13.07C18.9785 13.1112 19.224 13.2786 19.3637 13.5244C19.5034 13.7701 19.5216 14.0665 19.414 14.3279C19.2481 14.7306 19.1274 15.028 19.0445 15.3671C18.7424 16.6029 18.8718 18.0527 19.3721 19.2331L19.4965 19.5129C20.1025 20.7981 21.0282 21.8328 22.2193 22.659L22.4788 22.8324L22.4848 22.8372C22.6221 22.9277 22.7637 23.0132 22.9069 23.0943C23.0891 23.1942 23.5491 23.4126 23.8743 23.7029C24.2908 24.0749 24.4199 24.5938 24.3717 25.0326C24.3242 25.4649 24.0944 25.925 23.6542 26.2033L23.6483 26.2069L23.1496 26.5166L23.1484 26.5178C22.6605 26.82 22.2363 27.0857 21.8151 27.423L21.8163 27.4242L21.6405 27.5665L21.6417 27.5677C19.9461 28.9996 18.8866 30.995 18.889 33.1652V33.17C18.8854 33.9122 19.0195 34.6484 19.2836 35.3416L19.4164 35.6549C19.5365 35.9225 19.5211 36.2324 19.3757 36.4871C19.2303 36.7415 18.9721 36.9111 18.6809 36.9439C17.8957 37.0319 17.6192 37.5393 17.6346 38.0022C17.6506 38.4742 17.9655 38.938 18.6953 38.9612L29.2242 38.96L30.6113 38.9624H30.6149C30.9083 38.9639 31.1732 38.9731 31.3587 38.9588L31.3719 38.9576L31.5441 38.9349C32.3697 38.7646 32.644 37.7861 31.9865 37.201C31.8179 37.0513 31.6635 36.9885 31.281 36.926C31.0027 36.8805 30.7605 36.709 30.6245 36.462C30.4886 36.2151 30.4736 35.9191 30.5838 35.6596C31.2507 34.0909 31.3077 32.602 30.7692 31.0343L30.6436 30.6935L30.5193 30.397C29.8652 28.9334 28.761 27.7413 27.372 26.8275L27.3696 26.8263C27.2248 26.7304 27.0603 26.6475 26.7537 26.4628C26.5363 26.3318 26.166 26.1025 25.9346 25.8171C25.9215 25.8009 25.9084 25.7839 25.8963 25.7669L25.8569 25.7119C25.8449 25.6948 25.8342 25.677 25.8234 25.6592C25.6039 25.2963 25.5423 24.86 25.6524 24.4527L25.6691 24.3977L25.6931 24.3271L25.7086 24.2853C25.8675 23.8822 26.1502 23.6348 26.3794 23.4817C26.5619 23.3599 26.8123 23.2384 26.8996 23.1935L27.0036 23.1361C27.3597 22.9179 27.7067 22.6913 28.0392 22.4545C30.0325 20.9829 31.2817 18.7303 31.1124 16.3464L31.0885 16.0953L31.0586 15.8705C30.9762 15.3564 30.8169 14.907 30.5874 14.3184C30.4876 14.0623 30.5079 13.7748 30.6424 13.5351C30.777 13.2956 31.0117 13.1289 31.2822 13.0807C31.7499 12.9976 32.0185 12.838 32.1886 12.5916L32.2412 12.5079C32.4797 12.0798 32.3673 11.5511 31.9841 11.2631L31.9423 11.2332L31.8119 11.1531C31.6911 11.0885 31.5954 11.0638 31.4986 11.0503C31.4059 11.0374 31.3165 11.034 31.1997 11.0335L30.7357 11.0359Z" fill="#020101"/>
<path id="Vector_2" d="M20.638 13.6928L29.3292 13.6933C29.7161 14.1842 30.0432 14.8777 30.2199 15.4717C30.6486 16.9119 30.3599 18.3084 29.6506 19.6012C29.4941 19.5735 29.3372 19.5475 29.1802 19.5232C28.5342 19.4126 27.7947 19.3583 27.1412 19.32C25.6114 19.2328 24.0775 19.2384 22.5483 19.3368C21.8508 19.3808 21.0286 19.4365 20.3463 19.5834C20.0102 19.0794 19.7728 18.3444 19.6685 17.7457C19.4071 16.2453 19.7854 14.9202 20.638 13.6928Z" fill="#8FB7B3"/>
<path id="Vector_3" d="M20.8404 14.382C21.2871 14.3853 21.7611 14.3811 22.2053 14.4025C21.9239 14.7308 21.7596 14.8013 21.4947 15.2318C20.8599 16.2638 20.8705 17.0994 21.1185 18.2275C21.1443 18.4642 21.1012 18.664 20.844 18.7294C20.767 18.7498 20.6851 18.7364 20.6187 18.6925C20.3845 18.54 20.2831 18.079 20.2248 17.8245C19.9759 16.7362 20.2254 15.3206 20.8404 14.382Z" fill="#E8E7E7"/>
<path id="Vector_4" d="M24.9012 25.2795C24.9159 25.2987 24.9305 25.3179 24.9452 25.3371C24.9456 25.6217 24.8846 25.88 24.9124 26.1677L24.9889 26.1593C25.0428 25.9828 25.0213 25.5602 25.0813 25.3402C25.3209 26.3167 26.1255 26.826 26.9094 27.3378C29.0397 28.7287 30.7511 31.2111 30.3681 33.8554C28.7594 33.4577 27.1396 33.0306 25.9604 31.7513C25.8559 31.6296 25.7349 31.4867 25.6519 31.3503C25.4507 31.0197 25.3684 30.5368 24.8571 30.6801C24.5359 30.7703 24.5465 31.0643 24.3879 31.3021C23.3302 32.8889 21.3513 33.4037 19.6232 33.8507C19.41 31.5628 20.3886 29.5963 22.062 28.0779C22.5229 27.6598 23.061 27.3092 23.585 26.9759C24.2452 26.5559 24.7349 26.0679 24.9012 25.2795Z" fill="#8FB7B3"/>
<path id="Vector_5" d="M24.989 26.1593C25.5087 26.3018 25.5593 26.8843 25.1798 27.0692C24.7088 27.2981 24.1735 26.395 24.9125 26.1677L24.989 26.1593Z" fill="#020101"/>
<path id="Vector_6" d="M24.9474 26.5482C25.0076 26.5281 25.0729 26.5594 25.0949 26.6189C25.117 26.6784 25.088 26.7449 25.0292 26.7688C24.9896 26.7851 24.9441 26.7784 24.9109 26.7514C24.8774 26.7244 24.8615 26.6813 24.869 26.6389C24.8768 26.5966 24.9068 26.5619 24.9474 26.5482Z" fill="#F4A261"/>
<path id="Vector_7" d="M23.0696 27.9478C23.3926 27.9146 23.6512 28.1046 23.4278 28.4321C23.3271 28.5795 23.0648 28.7754 22.9198 28.9149C22.6375 29.1829 22.3787 29.4747 22.1463 29.7873C21.5683 30.5669 21.0967 31.5479 20.9702 32.5152C20.9304 32.8195 20.9036 33.0231 20.5816 33.1149C19.7633 33.1057 20.332 31.5872 20.4913 31.1647C20.9015 30.1011 21.5629 29.1528 22.4189 28.4012C22.6203 28.2275 22.8259 28.0576 23.0696 27.9478Z" fill="#E8E7E7"/>
<path id="Vector_8" d="M24.86 27.3617C25.0877 27.2853 25.3342 27.409 25.4095 27.6376C25.485 27.8659 25.3607 28.1125 25.1324 28.1873C24.9051 28.2618 24.6606 28.1381 24.5856 27.9105C24.5105 27.6831 24.6331 27.4376 24.86 27.3617Z" fill="#020101"/>
<path id="Vector_9" d="M24.9795 27.649C25.0344 27.6396 25.0875 27.6743 25.1007 27.7285C25.114 27.7829 25.0832 27.8383 25.0301 27.8555C24.9924 27.8678 24.9508 27.8577 24.9226 27.8297C24.8942 27.8015 24.884 27.76 24.8961 27.722C24.9081 27.684 24.9402 27.6557 24.9795 27.649Z" fill="#EFB366"/>
<path id="Vector_10" d="M24.8744 28.4642C25.0978 28.397 25.3343 28.5188 25.4096 28.74C25.4482 28.8535 25.4384 28.9778 25.3822 29.0837C25.3263 29.1897 25.2292 29.2678 25.1139 29.2994C24.8848 29.3622 24.6479 29.2289 24.5824 29.0003C24.5169 28.7717 24.6471 28.5327 24.8744 28.4642Z" fill="#020101"/>
<path id="Vector_11" d="M24.9602 28.7721C25.0155 28.7568 25.073 28.787 25.0918 28.8414C25.1105 28.8958 25.0836 28.9553 25.0306 28.9772C24.9934 28.9925 24.9508 28.986 24.9198 28.9602C24.8889 28.9342 24.8749 28.8933 24.8832 28.8539C24.8918 28.8146 24.9214 28.7829 24.9602 28.7721Z" fill="#EFB366"/>
<path id="Vector_12" d="M24.8852 29.5715C25.0325 29.5284 25.1915 29.5683 25.3013 29.6756C25.4111 29.783 25.4547 29.9414 25.4153 30.0899C25.3758 30.2385 25.2595 30.3542 25.1109 30.3929C24.886 30.4511 24.6563 30.3178 24.5944 30.0935C24.5328 29.8692 24.6622 29.6368 24.8852 29.5715Z" fill="#020101"/>
<path id="Vector_13" d="M24.9606 29.8584C25.0121 29.837 25.0712 29.8599 25.0949 29.9104C25.1186 29.9609 25.0984 30.0212 25.0492 30.0472C25.0153 30.065 24.9743 30.0627 24.9425 30.0414C24.9106 30.02 24.8933 29.9828 24.897 29.9445C24.9008 29.9063 24.9253 29.8732 24.9606 29.8584Z" fill="#EFB366"/>
<path id="Vector_14" d="M17.4903 37.8177C17.577 37.2572 18.0101 36.8399 18.5786 36.8138C18.9263 36.7976 19.2671 36.8005 19.6148 36.8007L21.2131 36.8009L26.288 36.8019L29.772 36.8005C30.2888 36.8005 30.8063 36.7903 31.3226 36.8072C32.0514 36.8314 32.4889 37.3241 32.4932 38.0463C32.4591 38.6104 31.9994 39.0604 31.4425 39.0917C31.1269 39.1095 30.8169 39.105 30.5012 39.1043L29.0123 39.0996L24.2483 39.1011L20.3076 39.0951C19.7125 39.0949 18.9025 39.1411 18.3213 39.0575C17.8548 38.9905 17.3757 38.3133 17.4903 37.8177Z" fill="#F4A261"/>
<path id="Vector_15" d="M17.4903 37.8177C17.4889 37.9054 17.4716 37.9813 17.524 38.0356C17.6359 38.0516 17.9083 38.044 18.0332 38.0436L18.9595 38.0422L22.2022 38.0391L32.4932 38.0463C32.4591 38.6104 31.9994 39.0604 31.4425 39.0917C31.1269 39.1095 30.8169 39.105 30.5012 39.1044L29.0123 39.0997L24.2483 39.1011L20.3076 39.0952C19.7125 39.095 18.9025 39.1412 18.3213 39.0575C17.8548 38.9905 17.3757 38.3133 17.4903 37.8177Z" fill="#E76F51"/>
<path id="Vector_16" d="M17.4892 11.8688C17.5855 11.322 18.008 10.9282 18.564 10.9176C18.8941 10.9113 19.2203 10.9099 19.5506 10.9097L21.3031 10.9098L26.6756 10.91L29.8682 10.9082C30.1869 10.9077 30.5073 10.912 30.8328 10.9058C31.4008 10.8949 31.9422 10.8839 32.2968 11.4122C32.4623 11.6586 32.5007 11.862 32.4864 12.1586C32.427 12.4917 32.2685 12.7844 31.9922 12.982C31.5747 13.2808 30.8079 13.1942 30.3024 13.1907L28.8014 13.1886L23.5323 13.1904L20.2604 13.193C19.654 13.1955 18.9383 13.2253 18.343 13.1567C18.1217 13.1312 17.7771 12.8498 17.6599 12.657C17.5108 12.4116 17.4301 12.1598 17.4892 11.8688Z" fill="#F4A261"/>
<path id="Vector_17" d="M17.4892 11.8688L17.4925 12.1503C18.0994 12.1161 19.0401 12.1584 19.6893 12.1588L24.4379 12.1581L29.8441 12.1591C30.6556 12.159 31.7002 12.1222 32.4864 12.1586C32.427 12.4917 32.2685 12.7844 31.9922 12.982C31.5747 13.2808 30.8079 13.1942 30.3024 13.1907L28.8014 13.1886L23.5323 13.1903L20.2604 13.193C19.654 13.1955 18.9383 13.2253 18.343 13.1567C18.1217 13.1312 17.7771 12.8498 17.6599 12.657C17.5108 12.4116 17.4301 12.1598 17.4892 11.8688Z" fill="#E76F51"/>
<path id="Vector_18" d="M20.5835 19.9839C20.9053 19.9215 21.5725 19.8667 21.9283 19.841C24.0838 19.6872 26.2673 19.6704 28.4195 19.8789C28.5666 19.8931 29.3426 19.9513 29.3983 20.0381C29.0106 20.7819 27.934 21.7697 27.2317 22.2376C26.8719 22.4774 26.431 22.7069 26.0855 22.9574C25.2938 23.5316 24.9114 24.3683 25.0812 25.3402C25.0212 25.5602 25.0426 25.9828 24.9888 26.1593L24.9122 26.1677C24.8845 25.88 24.9455 25.6218 24.9451 25.3371C24.9304 25.3179 24.9157 25.2987 24.901 25.2795C25.0077 24.227 24.6255 23.3667 23.7159 22.8394C22.4603 22.1116 21.4482 21.392 20.6609 20.1153L20.5835 19.9839Z" fill="#F4A261"/>
<path id="Vector_19" d="M20.5835 19.9839C20.9053 19.9215 21.5725 19.8667 21.9283 19.841C24.0838 19.6872 26.2673 19.6704 28.4195 19.8789C28.5666 19.8931 29.3426 19.9513 29.3983 20.0381C28.6362 20.3022 27.1731 20.3025 26.3328 20.3199C25.0285 20.3562 23.7232 20.3451 22.4196 20.2869C22.0319 20.2702 21.01 20.2281 20.6609 20.1153L20.5835 19.9839Z" fill="#E9C46A"/>
<path id="Vector_20" d="M19.7788 34.6246C20.253 34.7164 21.0448 34.798 21.5366 34.8405C24.3023 35.0797 27.4396 35.0666 30.1833 34.6358C30.1048 34.982 29.9617 35.2694 29.796 35.5782C29.6677 35.8199 29.5006 36.0807 29.3285 36.2907C28.9735 36.3089 28.5134 36.2981 28.153 36.2979L25.965 36.2934C24.1929 36.2899 22.4026 36.3093 20.6329 36.2905C20.2341 35.7164 19.989 35.2968 19.7788 34.6246Z" fill="#F4A261"/>
<path id="Vector_21" d="M24.9743 31.1414C25.0496 31.1768 25.2673 31.6176 25.3422 31.7245C26.3594 33.1746 28.3103 33.8405 29.926 34.2128C28.3752 34.4557 26.4833 34.5428 24.9135 34.5449C23.4962 34.5561 21.3929 34.4242 19.9893 34.2145C20.5006 34.102 21.0057 33.9626 21.5022 33.7963C22.703 33.3905 23.8445 32.8307 24.6244 31.7695C24.7654 31.5777 24.8686 31.3555 24.9743 31.1414Z" fill="#E9C46A"/>
<path id="Vector_22" d="M29.9557 13.7012C30.0914 13.6952 30.2352 13.6945 30.3718 13.6915C30.6452 14.0636 30.9474 14.8178 31.0745 15.2754C31.8274 17.9825 30.3979 20.8913 28.2274 22.506C27.946 22.7153 27.6562 22.9129 27.3585 23.0982C26.8533 23.4087 26.2411 23.6425 25.9443 24.1713C25.6527 24.6907 25.7326 25.3769 26.1191 25.8162C26.4999 26.21 27.0704 26.4771 27.5303 26.7788C30.7221 28.8725 32.3878 32.718 30.423 36.2775C30.3591 36.3339 30.0644 36.3018 29.9606 36.2969C30.2914 35.7369 30.537 35.2613 30.7052 34.623C31.4522 31.7865 30.0267 29.0937 27.815 27.3808C27.5762 27.1972 27.3308 27.0228 27.0792 26.8576C26.5652 26.5206 26.0726 26.263 25.7575 25.7038C25.3935 25.0542 25.4837 24.2441 25.9816 23.6908C26.3509 23.2817 27.0349 22.9746 27.5077 22.6546C29.951 21.0012 31.6816 17.8535 30.5593 14.9056C30.3952 14.4745 30.1848 14.1017 29.9557 13.7012Z" fill="#E8E7E7"/>
<path id="Vector_23" d="M19.5814 13.6923C19.7144 13.6871 19.8865 13.6942 20.0226 13.6962C19.8557 13.9958 19.6851 14.3088 19.5468 14.6203C18.1641 17.7342 20.0484 21.1957 22.7637 22.8384C23.393 23.2191 24.0628 23.5276 24.3429 24.2711C24.4468 24.5494 24.4749 24.8504 24.4239 25.1431C24.2582 26.1442 23.422 26.4809 22.6773 26.9896C22.3338 27.2241 21.9014 27.564 21.5911 27.8428C20.7679 28.591 20.1079 29.5016 19.6529 30.5176C18.9927 31.984 18.8908 33.6892 19.4564 35.2045C19.5471 35.4412 19.6548 35.6712 19.7786 35.8923C19.8464 36.0133 19.9529 36.1571 19.9978 36.2763L19.9762 36.3043L19.5691 36.3075C17.7109 33.1498 19.0974 29.3354 21.8234 27.2156C22.0939 27.0052 22.3882 26.8046 22.6742 26.6155C23.1854 26.2773 23.7395 26.073 24.0416 25.4987C24.3138 24.9914 24.2423 24.3682 23.8624 23.9361C23.5547 23.5833 22.8062 23.2236 22.3909 22.9627C20.1435 21.5515 18.487 18.9639 18.7429 16.2393C18.8313 15.2986 19.1394 14.5243 19.5814 13.6923Z" fill="#E8E7E7"/>
</g>
<path id="Union" d="M30.7329 7.63593C31.2387 7.63552 32.4959 7.50645 33.8433 8.41522C35.8862 9.79383 36.3536 12.5424 34.9868 14.5226C34.983 14.5282 34.9781 14.5338 34.9741 14.5392C34.797 14.7933 34.5985 15.0135 34.3921 15.2092C34.4209 15.3718 34.4466 15.5401 34.4663 15.715C34.8868 19.4584 33.0674 22.7767 30.4497 24.8859C31.7658 25.9809 32.8848 27.3536 33.6274 29.0207L33.8052 29.4435L33.8081 29.4523L33.8911 29.6672L33.895 29.6779C34.5249 31.3788 34.6885 33.0834 34.3774 34.7883C37.1589 37.4505 35.4819 42.0566 31.6421 42.3439C31.6405 42.3441 31.6388 42.3448 31.6372 42.3449C31.6357 42.3451 31.6334 42.3465 31.6304 42.3469H31.6255C31.6235 42.347 31.6226 42.3477 31.6206 42.3478C31.6123 42.3485 31.6047 42.3485 31.5981 42.3488C31.595 42.3491 31.5909 42.3495 31.5874 42.3498C31.5778 42.3504 31.5676 42.3495 31.5581 42.3498C31.383 42.3608 31.1802 42.3646 31.0044 42.3644L30.5981 42.3605H30.5923C30.1387 42.3573 29.6841 42.3572 29.23 42.3586H20.4751L19.1821 42.3605H19.1733C19.0943 42.3605 18.8273 42.3639 18.6187 42.3586L18.6177 42.3596C18.6083 42.3596 18.5988 42.3589 18.5894 42.3586C16.088 42.2797 14.5139 40.4767 14.2681 38.5129L14.2378 38.1183C14.196 36.8836 14.6746 35.6441 15.6206 34.7619C15.5314 34.2318 15.4881 33.6935 15.4907 33.1535C15.492 29.7918 17.1581 26.8703 19.5415 24.8967C18.2498 23.8538 17.1741 22.5554 16.4243 20.967L16.2427 20.5607C15.5515 18.9304 15.3157 17.0127 15.6099 15.2238C14.8251 14.4792 14.3393 13.4697 14.2505 12.3859L14.2349 12.0139C14.2364 10.1609 15.3997 8.42245 17.3042 7.83612C17.3113 7.83392 17.3195 7.83131 17.3267 7.82928L17.4546 7.79315L17.4741 7.78827C17.8533 7.69072 18.1843 7.66721 18.313 7.65643C18.3384 7.65434 18.3639 7.65545 18.3892 7.65546C18.5555 7.64434 18.7414 7.63944 18.8843 7.63885C18.9715 7.6385 19.0513 7.63827 19.1118 7.63885C19.142 7.63915 19.1686 7.63959 19.188 7.63983C19.1977 7.63995 19.2063 7.63976 19.2124 7.63983C19.2161 7.63995 19.2183 7.6408 19.2192 7.64081L29.2778 7.63983L30.7329 7.63593ZM18.6177 41.4416L19.1753 41.4426C19.065 41.4424 18.8151 41.4466 18.6196 41.4406H18.6177C18.6049 41.4402 18.5923 41.4382 18.5796 41.4377L18.6177 41.4416ZM18.0425 41.382C18.103 41.3925 18.1648 41.4025 18.2271 41.4103C18.1646 41.4025 18.1032 41.3926 18.0425 41.382ZM31.9419 41.382C31.9979 41.3724 32.0533 41.3628 32.1079 41.3508C32.0533 41.3628 31.9979 41.3724 31.9419 41.382ZM17.8696 41.3478C17.9131 41.3575 17.9571 41.366 18.0015 41.3742C17.9571 41.366 17.9131 41.3575 17.8696 41.3478ZM32.2368 41.3185C32.2768 41.3082 32.3168 41.2989 32.356 41.2873C32.3168 41.2989 32.2768 41.3082 32.2368 41.3185ZM17.5278 41.2551C17.5472 41.2613 17.5669 41.2667 17.5864 41.2726C17.5669 41.2667 17.5472 41.2613 17.5278 41.2551ZM17.356 41.1945C17.3929 41.2086 17.4305 41.2216 17.4683 41.2346C17.4305 41.2216 17.3929 41.2086 17.356 41.1945ZM32.5444 41.2248C32.5656 41.2172 32.587 41.2103 32.6079 41.2023C32.587 41.2103 32.5656 41.2172 32.5444 41.2248ZM17.228 41.1418C17.251 41.1516 17.274 41.1617 17.2974 41.1711C17.274 41.1617 17.251 41.1516 17.228 41.1418ZM32.7788 41.131C32.8009 41.1213 32.8234 41.1129 32.8452 41.1027C32.8234 41.1129 32.8009 41.1213 32.7788 41.131ZM32.9839 41.0324C33.0156 41.0158 33.0476 41.0001 33.0786 40.9826C33.0476 41.0001 33.0156 41.0158 32.9839 41.0324ZM33.188 40.9172C33.2242 40.895 33.2603 40.8731 33.2954 40.8498C33.2603 40.8731 33.2242 40.895 33.188 40.9172ZM16.6694 40.8391C16.6766 40.8439 16.6837 40.8489 16.6909 40.8537C16.6837 40.8489 16.6766 40.8439 16.6694 40.8391ZM33.4077 40.7707C33.4363 40.75 33.4649 40.7297 33.4927 40.7082C33.4649 40.7297 33.4363 40.75 33.4077 40.7707ZM33.5913 40.6271C33.6252 40.5988 33.6592 40.5707 33.6919 40.5412C33.6592 40.5707 33.6253 40.5988 33.5913 40.6271ZM33.7729 40.465C33.807 40.4322 33.841 40.3995 33.8735 40.3654C33.841 40.3995 33.807 40.4322 33.7729 40.465ZM33.9312 40.301C33.9636 40.2652 33.996 40.2295 34.0269 40.1926C33.996 40.2296 33.9636 40.2652 33.9312 40.301ZM34.104 40.0969C34.1279 40.0661 34.1506 40.0346 34.1733 40.0031C34.1506 40.0346 34.1279 40.0661 34.104 40.0969ZM15.7573 39.9289C15.7896 39.9766 15.8231 40.0234 15.8579 40.0695C15.8231 40.0234 15.7897 39.9766 15.7573 39.9289ZM34.2476 39.8957C34.2662 39.8677 34.2854 39.8402 34.3032 39.8117C34.2854 39.8402 34.2662 39.8677 34.2476 39.8957ZM15.6011 39.676C15.6272 39.7227 15.6538 39.7691 15.6821 39.8146C15.6538 39.7691 15.6272 39.7227 15.6011 39.676ZM34.3716 39.6955C34.3916 39.6606 34.4114 39.6256 34.4302 39.59C34.4114 39.6256 34.3916 39.6606 34.3716 39.6955ZM15.4526 39.3771C15.4772 39.433 15.5023 39.4886 15.5298 39.5432C15.5023 39.4885 15.4772 39.433 15.4526 39.3771ZM34.4849 39.4826C34.5019 39.4476 34.5188 39.4127 34.5347 39.3771C34.5188 39.4127 34.5019 39.4476 34.4849 39.4826ZM15.3306 39.0598C15.3539 39.1311 15.3788 39.2019 15.4067 39.2717C15.3788 39.2019 15.354 39.1311 15.3306 39.0598ZM34.5815 39.2648C34.5966 39.2276 34.6107 39.1902 34.6245 39.1525C34.6107 39.1902 34.5966 39.2276 34.5815 39.2648ZM34.6616 39.0461C34.6756 39.0036 34.6893 38.9611 34.7017 38.9182C34.6893 38.9611 34.6756 39.0036 34.6616 39.0461ZM15.2554 38.7961C15.2714 38.8619 15.2883 38.9275 15.3081 38.9924C15.2883 38.9275 15.2714 38.8619 15.2554 38.7961ZM34.73 38.8117C34.7416 38.7659 34.7534 38.7202 34.7632 38.674C34.7534 38.7202 34.7416 38.7659 34.73 38.8117ZM15.1919 38.466C15.2025 38.5399 15.2137 38.6136 15.229 38.6867C15.2137 38.6136 15.2025 38.5399 15.1919 38.466ZM34.7827 38.5724C34.7906 38.529 34.797 38.4854 34.8032 38.4416C34.797 38.4854 34.7906 38.529 34.7827 38.5724ZM33.271 38.0637C33.2665 38.1541 33.256 38.2439 33.2388 38.3322C33.256 38.2438 33.2665 38.1541 33.271 38.0637ZM34.8179 38.3322C34.8235 38.2809 34.8273 38.2295 34.8306 38.1779C34.8273 38.2295 34.8235 38.2809 34.8179 38.3322ZM34.8354 38.0939C34.8371 38.052 34.8373 38.01 34.8374 37.968C34.8373 38.01 34.8371 38.052 34.8354 38.0939ZM34.8364 37.8439C34.8353 37.8094 34.8328 37.775 34.8306 37.7404C34.8328 37.775 34.8353 37.8094 34.8364 37.8439ZM34.8188 37.5998C34.8149 37.5623 34.8104 37.5249 34.8052 37.4875C34.8104 37.5249 34.8149 37.5623 34.8188 37.5998ZM34.7866 37.3683C34.7792 37.3262 34.7703 37.2844 34.7612 37.2424C34.7703 37.2844 34.7792 37.3262 34.7866 37.3683ZM34.7339 37.1193C34.723 37.0765 34.7104 37.034 34.6978 36.9914C34.7104 37.034 34.723 37.0765 34.7339 37.1193ZM34.6655 36.8859C34.6486 36.8351 34.6294 36.7849 34.6099 36.7346C34.6294 36.7849 34.6486 36.8351 34.6655 36.8859ZM34.5796 36.6555C34.5612 36.6114 34.5404 36.5682 34.52 36.5246C34.5404 36.5682 34.5612 36.6114 34.5796 36.6555ZM16.4614 34.1486C16.4981 34.4768 16.5546 34.8027 16.6294 35.1242C16.4426 35.254 16.2721 35.3988 16.1196 35.5568C16.0688 35.6094 16.0201 35.6636 15.9731 35.7189C15.8793 35.8296 15.7935 35.9455 15.7153 36.0656C15.9499 35.7052 16.2561 35.3837 16.6294 35.1242C16.5546 34.8026 16.4984 34.4769 16.4614 34.1486ZM34.3462 36.1955C34.3031 36.1244 34.2565 36.0547 34.2075 35.9855C34.2565 36.0547 34.3031 36.1245 34.3462 36.1955ZM33.8462 35.55C33.9782 35.6862 34.0961 35.8283 34.2007 35.9748C34.0961 35.8283 33.9782 35.6862 33.8462 35.55ZM33.5786 33.8732C33.5402 34.293 33.471 34.7126 33.3687 35.132C33.4154 35.1661 33.4616 35.2026 33.5083 35.2404L33.5093 35.2394C33.4627 35.2017 33.4153 35.1661 33.3687 35.132C33.471 34.7126 33.5402 34.293 33.5786 33.8732ZM33.5864 33.7726C33.5921 33.701 33.5982 33.6295 33.6021 33.5578C33.5982 33.6295 33.5921 33.701 33.5864 33.7726ZM33.606 33.4455C33.6086 33.3804 33.6108 33.3153 33.6118 33.2502C33.6108 33.3153 33.6086 33.3804 33.606 33.4455ZM33.6138 33.1535C33.6141 33.0777 33.6135 33.0018 33.6118 32.926C33.6135 33.0018 33.6141 33.0777 33.6138 33.1535ZM33.6079 32.8322C33.605 32.7482 33.6016 32.6643 33.5962 32.5803C33.6016 32.6643 33.6051 32.7483 33.6079 32.8322ZM33.5923 32.5285C33.5878 32.4644 33.5827 32.4003 33.5767 32.3361C33.5827 32.4003 33.5878 32.4644 33.5923 32.5285ZM33.561 32.1857C33.5528 32.1122 33.5439 32.0386 33.5337 31.965C33.5438 32.0386 33.5528 32.1122 33.561 32.1857ZM33.5229 31.8928C33.5092 31.7991 33.4949 31.7053 33.478 31.6115C33.4949 31.7053 33.5092 31.7991 33.5229 31.8928ZM33.4712 31.5764C33.4546 31.4866 33.4369 31.3967 33.4175 31.3068C33.4369 31.3967 33.4546 31.4866 33.4712 31.5764ZM33.0337 29.9973C33.1927 30.4266 33.3179 30.8552 33.4116 31.2824C33.3414 30.9625 33.2547 30.6416 33.1479 30.3205L33.0337 29.9973ZM31.4985 30.3566L31.5659 30.5392C31.5434 30.4785 31.5226 30.4166 31.4985 30.3557V30.3566ZM31.0718 29.4465C31.1735 29.6338 31.27 29.825 31.3579 30.0217L31.2036 29.6955C31.1615 29.6113 31.1165 29.5289 31.0718 29.4465ZM30.2485 28.2014C30.3216 28.2934 30.3931 28.3867 30.4624 28.4816C30.3929 28.3865 30.3217 28.2926 30.2485 28.2004C30.1752 28.108 30.0998 28.0174 30.0229 27.9279C30.1 28.0175 30.1751 28.1088 30.2485 28.2014ZM17.9507 28.0402C17.8972 28.1229 17.8445 28.206 17.7935 28.2902C17.8445 28.206 17.8972 28.1229 17.9507 28.0402ZM18.2476 27.6057C18.1932 27.681 18.1388 27.7564 18.0864 27.8332C18.1388 27.7564 18.1932 27.681 18.2476 27.6057ZM29.5415 27.4094C29.4578 27.3256 29.3725 27.2431 29.2856 27.1623C29.3726 27.2431 29.4578 27.3256 29.5415 27.4094ZM18.5864 27.1623C18.5219 27.2424 18.4572 27.3225 18.395 27.4045C18.4572 27.3225 18.5218 27.2424 18.5864 27.1623ZM18.9204 26.7668C18.8553 26.8401 18.7902 26.9134 18.7271 26.9885C18.7902 26.9134 18.8552 26.8401 18.9204 26.7668ZM19.396 26.2639C19.2892 26.3696 19.1839 26.477 19.0815 26.5871C19.1839 26.477 19.2892 26.3696 19.396 26.2639ZM19.4585 26.2004C19.4522 26.2065 19.4462 26.2128 19.4399 26.2189C19.5685 26.0931 19.6999 25.9702 19.8345 25.8508L19.4585 26.2004ZM21.9419 26.1974L22.0728 26.1135C22.0995 26.096 22.126 26.0781 22.1528 26.0607C22.0826 26.1061 22.0117 26.1507 21.9419 26.1974ZM22.5854 25.7863C22.4675 25.8595 22.3509 25.9329 22.2349 26.007C22.3367 25.942 22.4392 25.8779 22.5425 25.8137L22.5854 25.7863ZM29.5454 25.3361C29.7549 25.4988 29.9592 25.6684 30.1577 25.8449C29.9592 25.6684 29.7549 25.4988 29.5454 25.3361ZM29.9761 24.0881C29.8774 24.1695 29.7776 24.2495 29.6763 24.3273C29.7776 24.2495 29.8774 24.1695 29.9761 24.0881ZM30.3638 23.7531C30.3895 23.7297 30.4154 23.7064 30.4409 23.6828C30.4154 23.7064 30.3895 23.7297 30.3638 23.7531ZM31.0884 23.0285C30.9036 23.2318 30.7107 23.4273 30.5112 23.6154C30.7107 23.4273 30.9036 23.2318 31.0884 23.0285ZM31.1577 22.9514C31.2019 22.9018 31.2463 22.8524 31.2896 22.8019C31.2463 22.8524 31.2019 22.9018 31.1577 22.9514ZM31.3677 22.7082C31.4039 22.665 31.4406 22.6221 31.4761 22.5783C31.4406 22.6221 31.4039 22.665 31.3677 22.7082ZM31.564 22.467C31.604 22.4162 31.644 22.3652 31.6831 22.3137C31.644 22.3652 31.604 22.4162 31.564 22.467ZM31.7183 22.2668C31.7625 22.2077 31.8061 22.1481 31.8491 22.0881C31.8061 22.1481 31.7625 22.2077 31.7183 22.2668ZM31.9468 21.9494C31.9717 21.9134 31.9966 21.8774 32.021 21.841C31.9966 21.8774 31.9717 21.9134 31.9468 21.9494ZM32.1138 21.6994C32.1307 21.6733 32.1479 21.6475 32.1646 21.6213C32.1479 21.6475 32.1307 21.6733 32.1138 21.6994ZM32.272 21.4465C32.2932 21.4114 32.3146 21.3764 32.3354 21.341C32.3146 21.3764 32.2932 21.4114 32.272 21.4465ZM32.4155 21.2033C32.4416 21.1574 32.4664 21.1109 32.4917 21.0646C32.4664 21.1109 32.4416 21.1574 32.4155 21.2033ZM32.5542 20.9494C32.5795 20.9015 32.6039 20.8532 32.6284 20.8049C32.6039 20.8532 32.5795 20.9015 32.5542 20.9494ZM32.6978 20.6652C32.7238 20.6117 32.7498 20.5581 32.7749 20.5041C32.7498 20.5581 32.7238 20.6117 32.6978 20.6652ZM32.8228 20.3976C32.8446 20.349 32.8662 20.3002 32.8872 20.2512C32.8662 20.3002 32.8446 20.349 32.8228 20.3976ZM32.9448 20.1135C32.9688 20.0548 32.9923 19.9959 33.0151 19.9367C32.9923 19.9959 32.9688 20.0548 32.9448 20.1135ZM33.0503 19.8449C33.072 19.7867 33.0922 19.7279 33.1128 19.6691C33.0922 19.7279 33.072 19.7867 33.0503 19.8449ZM33.1538 19.5539C33.1769 19.4849 33.1988 19.4155 33.2202 19.3459C33.1988 19.4155 33.1769 19.4849 33.1538 19.5539ZM33.2544 19.2326C33.2702 19.1788 33.2855 19.1247 33.3003 19.0705C33.2855 19.1247 33.2702 19.1788 33.2544 19.2326ZM33.3306 18.9601C33.3483 18.8919 33.3633 18.8229 33.3794 18.7541C33.3633 18.8229 33.3483 18.8919 33.3306 18.9601ZM33.3989 18.675C33.4152 18.6021 33.4294 18.5287 33.4438 18.4553C33.4294 18.5287 33.4152 18.6021 33.3989 18.675ZM33.4634 18.3557C33.4725 18.3067 33.4805 18.2574 33.4888 18.2082C33.4805 18.2574 33.4724 18.3067 33.4634 18.3557ZM33.5161 18.0461C33.5269 17.9735 33.5355 17.9005 33.5444 17.8273C33.5355 17.9005 33.5268 17.9735 33.5161 18.0461ZM33.5542 17.7473C33.5652 17.649 33.5748 17.5504 33.5825 17.4514C33.5748 17.5504 33.5652 17.649 33.5542 17.7473ZM33.6079 16.8264C33.607 17.0272 33.5992 17.2264 33.5845 17.424C33.5992 17.2264 33.607 17.0272 33.6079 16.8264ZM33.5854 16.1476C33.6006 16.3518 33.6072 16.5547 33.6079 16.756C33.6072 16.5548 33.6006 16.3518 33.5854 16.1476ZM33.3804 14.8605C33.4175 15.0091 33.4516 15.1623 33.481 15.3215L33.4341 15.0871C33.4174 15.0103 33.3999 14.9348 33.3813 14.8605H33.3804ZM34.3286 13.8527C34.2976 13.9028 34.2648 13.9522 34.231 14.0012C34.2648 13.9522 34.2976 13.9028 34.3286 13.8527ZM34.6323 13.2287H34.6333H34.6323ZM34.8462 12.0724C34.8448 12.1838 34.8388 12.2953 34.8267 12.4064C34.8388 12.2953 34.8449 12.1838 34.8462 12.0724ZM15.1655 12.3098C15.1408 12.0136 15.1537 11.7194 15.2017 11.4338C15.1536 11.7197 15.1408 12.0143 15.1655 12.3107C15.1751 12.4272 15.1905 12.5425 15.2114 12.6564L15.1841 12.4836C15.1765 12.4261 15.1703 12.3679 15.1655 12.3098ZM33.0942 11.2072C33.0927 11.2041 33.0919 11.2006 33.0903 11.1974C33.0919 11.2006 33.0927 11.2041 33.0942 11.2072ZM30.7329 8.55487L29.2798 8.55682V8.5578L30.7339 8.55487C30.8748 8.55477 31.0403 8.54841 31.2261 8.54999C31.0401 8.54835 30.874 8.55478 30.7329 8.55487Z" fill="white" fill-opacity="0.3"/>
</g>
</g>
</g>
</svg>
