<svg width="50" height="50" viewBox="0 0 50 50" fill="none" xmlns="http://www.w3.org/2000/svg">
<rect width="50" height="50" fill="#BEBEBE"/>
<g id="Decorate Mode">
<path d="M-64.7026 -949.034V-948.034H2955.3V-949.034V-950.034H-64.7026V-949.034ZM2957.3 -947.034H2956.3V2590.97H2957.3H2958.3V-947.034H2957.3ZM2955.3 2592.97V2591.97H-64.7026V2592.97V2593.97H2955.3V2592.97ZM-66.7026 2590.97H-65.7026V-947.034H-66.7026H-67.7026V2590.97H-66.7026ZM-64.7026 2592.97V2591.97C-65.2549 2591.97 -65.7026 2591.52 -65.7026 2590.97H-66.7026H-67.7026C-67.7026 2592.62 -66.3595 2593.97 -64.7026 2593.97V2592.97ZM2957.3 2590.97H2956.3C2956.3 2591.52 2955.85 2591.97 2955.3 2591.97V2592.97V2593.97C2956.95 2593.97 2958.3 2592.62 2958.3 2590.97H2957.3ZM2955.3 -949.034V-948.034C2955.85 -948.034 2956.3 -947.587 2956.3 -947.034H2957.3H2958.3C2958.3 -948.691 2956.95 -950.034 2955.3 -950.034V-949.034ZM-64.7026 -949.034V-950.034C-66.3594 -950.034 -67.7026 -948.691 -67.7026 -947.034H-66.7026H-65.7026C-65.7026 -947.587 -65.255 -948.034 -64.7026 -948.034V-949.034Z" fill="black" fill-opacity="0.1"/>
<g id="Stickers">
<rect x="-12.6938" y="-76.5342" width="374" height="551" rx="4.5" stroke="#9747FF" stroke-dasharray="10 5"/>
<g id="Property 1=snake">
<g id="Frame 116">
<path id="Vector" d="M28.8085 8.28637C29.9855 8.20019 31.3888 8.42927 32.319 9.21914C32.3825 9.26975 32.4987 9.4405 32.5654 9.47212C33.248 9.79575 33.8996 10.1299 34.5405 10.5332C34.905 10.754 35.0417 10.8743 34.9872 11.3276C34.883 12.1947 34.6598 12.4883 33.9216 12.8958C34.5409 13.3519 34.6779 13.3536 35.4096 13.571C35.0314 13.6189 34.7795 13.6076 34.403 13.5802C34.4958 13.8244 34.5646 14.0039 34.631 14.2583C34.4948 14.1526 34.2624 13.9239 34.1271 13.7989C33.8703 13.5623 33.6108 13.3289 33.3483 13.0987C33.0304 13.1561 32.7131 13.1928 32.3915 13.2251C31.7343 13.287 31.0949 13.2253 30.4367 13.3092C29.0722 13.483 27.5073 13.2631 26.476 12.2846C25.1242 12.2848 23.7446 12.185 22.4969 12.7807C21.1944 13.4024 20.5022 14.7541 21.2053 16.0991C21.4259 16.5145 21.7789 16.8443 22.2082 17.0364C23.8007 17.7531 25.5761 16.5926 27.0024 15.9599C27.5922 15.6806 28.2011 15.4674 28.8276 15.2921C31.0685 14.6649 33.5441 15.1233 35.299 16.6889C35.9125 17.2362 36.4706 17.9102 36.8461 18.6419C37.6464 20.1848 37.7948 21.9841 37.2587 23.6374C36.6847 25.3943 35.3095 26.7769 33.6889 27.6123C31.7045 28.6353 29.3407 28.7937 27.1664 28.4204C25.7394 28.1753 24.1663 27.6677 22.7841 27.221C22.3679 27.0891 21.9508 26.9602 21.5328 26.8343C20.389 26.4885 19.1069 26.1306 17.978 26.7171C17.4383 26.9915 17.0311 27.471 16.8476 28.0479C16.6749 28.6028 16.7341 29.2039 17.0117 29.7144C17.4764 30.5779 18.4432 31.0518 19.3856 31.1482C20.6272 31.2752 21.9512 30.9839 23.15 30.7049C24.0442 30.4961 24.9355 30.2747 25.8237 30.0408C27.0663 29.7239 28.5859 29.3631 29.8486 29.2449C30.8476 29.1436 31.8566 29.2427 32.8168 29.5364C34.5217 30.0535 36.0348 31.2188 36.8705 32.803C37.6659 34.293 37.8361 36.0381 37.3434 37.6536C36.8625 39.1499 35.8088 40.395 34.4128 41.117C33.5947 41.551 32.6882 41.7918 31.7626 41.8208C29.249 41.9075 27.4985 40.6026 25.1694 39.8631C24.6159 39.7115 24.1546 39.5972 23.5716 39.5415C22.0651 39.3972 20.5542 39.7234 19.1794 40.3384C18.688 40.5571 18.2132 40.9129 17.6979 41.065C17.4281 41.1446 17.142 40.9422 17.1253 40.6626C17.1086 40.3819 17.2933 40.1607 17.4588 39.9578C18.1962 39.0449 19.27 38.4046 20.3356 37.9649C22.9681 36.8787 25.7392 37.3748 28.3217 38.336C29.3014 38.7007 30.4159 39.0393 31.4965 38.9348C33.0893 38.7805 34.3852 37.4566 34.1906 35.8001C33.8967 33.7444 31.8864 32.9121 30.0129 33.197C28.7299 33.3921 27.6252 33.6736 26.3866 34.0027C24.7399 34.4402 23.096 34.855 21.4098 35.0752C19.1572 35.3611 16.7674 35.0232 14.939 33.5884C13.5699 32.5152 12.6487 30.9556 12.4498 29.2129C12.2609 27.5576 12.8227 25.8311 13.8731 24.5427C14.7024 23.5286 15.8133 22.7827 17.0657 22.3987C20.2789 21.4008 23.1617 22.7183 26.2026 23.6404C27.5317 24.0435 28.841 24.3611 30.2414 24.2097C31.2326 24.1042 32.1391 23.7619 32.7775 22.9682C33.5746 21.9776 33.5085 20.5823 32.4684 19.7877C30.6852 18.4252 28.6535 19.9082 26.9216 20.5797C26.0268 20.9266 25.1435 21.2273 24.1848 21.3342C22.4657 21.5551 20.6468 21.0985 19.2751 20.0343C18.0609 19.0923 17.2041 17.6724 17.0319 16.1325C16.8496 14.4493 17.3399 12.7623 18.396 11.4391C19.9796 9.46211 22.4574 8.63933 24.9223 8.66701C25.5407 8.66264 26.175 8.76887 26.7883 8.77641C26.9386 8.77824 27.4982 8.54602 27.6872 8.48845C28.0986 8.36325 28.3805 8.33269 28.8085 8.28637Z" fill="#020101"/>
<path id="Vector (Stroke)" d="M28.6947 6.72813C30.0747 6.62713 31.9595 6.86419 33.3303 8.02818L33.3291 8.0294C33.3538 8.05026 33.3762 8.06807 33.3938 8.08433C33.42 8.10866 33.4427 8.13109 33.4609 8.14964C33.4734 8.16241 33.4842 8.17582 33.4951 8.18748C34.1107 8.48566 34.7302 8.8085 35.3499 9.197L35.505 9.29221C35.7042 9.42095 36.0141 9.65174 36.238 10.0027C36.5959 10.5637 36.583 11.1415 36.5383 11.5139C36.4759 12.0326 36.3551 12.627 35.9768 13.1734C35.9642 13.1916 35.9506 13.2089 35.9377 13.2265C36.0058 13.4101 36.077 13.6119 36.1428 13.8637L36.6524 15.8169C37.261 16.4125 37.8237 17.1264 38.2332 17.9226L38.3236 18.1026C39.2365 19.9758 39.389 22.1327 38.7447 24.1195L38.7441 24.1225C38.0799 26.1558 36.5982 27.7209 34.9001 28.7246C36.2894 29.4811 37.4851 30.6235 38.2485 32.0669C39.2393 33.9228 39.4518 36.097 38.8381 38.1094L38.8344 38.1203L38.8308 38.1319C38.2234 40.0213 36.8928 41.5936 35.1302 42.5051L35.1296 42.5045C34.1045 43.0454 32.9702 43.3464 31.8117 43.3828L31.8111 43.3822C30.2554 43.4348 28.9639 43.0512 27.828 42.607C26.5981 42.1261 25.8309 41.7151 24.72 41.3601C24.2093 41.2208 23.8586 41.1386 23.4231 41.097H23.4224C22.237 40.9835 20.998 41.2368 19.8177 41.7648L19.8147 41.766C19.6508 41.8389 19.5087 41.925 19.2037 42.0937C18.9471 42.2357 18.5728 42.4359 18.1399 42.5637C16.9017 42.9289 15.6414 42.0338 15.5654 40.7552C15.5209 40.0061 15.8906 39.4211 16.1055 39.1421L16.2478 38.9706C17.0967 37.922 18.232 37.2027 19.3013 36.711C17.4517 36.6087 15.5665 36.0671 13.9748 34.8183L13.8192 34.6932C12.2269 33.3828 11.1389 31.5058 10.8974 29.3899C10.6569 27.2817 11.3685 25.142 12.6619 23.5555L12.6638 23.5537C13.6244 22.3791 14.8903 21.4954 16.3198 20.9988L16.6079 20.9048C16.949 20.799 17.2862 20.7156 17.6192 20.6515C16.4698 19.507 15.6664 17.9794 15.4793 16.3058L15.4787 16.3009C15.252 14.2079 15.8616 12.1096 17.1749 10.4641L17.1767 10.4623C19.145 8.00502 22.1479 7.07336 24.9398 7.10471L24.9392 7.10532C25.321 7.10423 25.6916 7.1344 25.9914 7.16026C26.2378 7.18151 26.4384 7.19964 26.6225 7.20847C26.6446 7.20089 26.67 7.1929 26.6982 7.18284C26.7807 7.15341 26.8593 7.12404 26.9503 7.09068C26.9925 7.07521 27.0381 7.05896 27.0815 7.04368C27.1223 7.02931 27.1762 7.01051 27.2316 6.99363H27.2323C27.797 6.82175 28.2082 6.77977 28.6403 6.73301L28.6672 6.72996L28.6947 6.72813ZM26.5572 8.76914C26.0937 8.74743 25.621 8.68526 25.1546 8.67027L24.9221 8.66721C22.4574 8.63957 19.9797 9.46206 18.3962 11.4388C17.3401 12.762 16.8498 14.4493 17.0321 16.1324C17.2042 17.6723 18.061 19.0925 19.2751 20.0344C20.6468 21.0986 22.4658 21.5548 24.1848 21.3338C25.0237 21.2403 25.8048 20.9985 26.5865 20.707L26.9216 20.5794C28.6535 19.9079 30.6853 18.4254 32.4685 19.7878C33.5084 20.5824 33.5744 21.9777 32.7773 22.9684C32.1389 23.7619 31.2324 24.1043 30.2413 24.2098C29.0159 24.3423 27.8602 24.1156 26.7 23.7868L26.2026 23.6404C23.1617 22.7183 20.2788 21.4011 17.0656 22.3989L16.8325 22.4746C15.6755 22.8766 14.6504 23.5918 13.8729 24.5425C12.8225 25.8308 12.2607 27.5576 12.4495 29.2129C12.6484 30.9555 13.5701 32.5152 14.9392 33.5885C16.7675 35.0231 19.157 35.3611 21.4095 35.0753C22.6742 34.9101 23.9154 34.6355 25.1516 34.324L26.3863 34.0029C27.47 33.715 28.4515 33.4632 29.5394 33.2741L30.013 33.1972C31.8864 32.9124 33.8962 33.7444 34.1903 35.7998C34.3848 37.4563 33.0889 38.7803 31.4962 38.9345C30.5508 39.0259 29.5796 38.7784 28.6953 38.4707L28.3217 38.3358C25.7393 37.3746 22.9683 36.8787 20.3359 37.9647L19.9361 38.1393C19.0067 38.5688 18.1039 39.1589 17.4587 39.9575C17.2933 40.1603 17.1088 40.3818 17.1254 40.6625C17.141 40.9246 17.3935 41.1193 17.6473 41.0769L17.698 41.0647C18.2132 40.9126 18.688 40.5571 19.1793 40.3384C20.5539 39.7234 22.0649 39.397 23.5714 39.5412C24.1544 39.5969 24.6158 39.7113 25.1693 39.8629C27.4983 40.6024 29.2488 41.9075 31.7623 41.8209C32.6877 41.7919 33.5944 41.5511 34.4124 41.1172C35.8084 40.3952 36.8624 39.1498 37.3433 37.6534C37.836 36.038 37.6657 34.2929 36.8703 32.803C36.0346 31.2188 34.5217 30.0535 32.817 29.5364C31.8568 29.2427 30.8472 29.1433 29.8482 29.2446C28.5856 29.3628 27.0662 29.7236 25.8236 30.0405C24.9355 30.2744 24.0444 30.4959 23.1502 30.7046L22.6949 30.8089C21.6981 31.0327 20.6359 31.2292 19.6193 31.1672L19.3856 31.1483C18.4433 31.0519 17.4766 30.5779 17.0119 29.7146C16.7343 29.2041 16.675 28.6026 16.8477 28.0477C17.0198 27.5069 17.3884 27.0517 17.8786 26.7709L17.9781 26.7171C19.107 26.1308 20.389 26.4886 21.5328 26.8343C21.9507 26.9603 22.3679 27.0889 22.784 27.2207C24.1662 27.6675 25.7393 28.1755 27.1663 28.4206C29.2727 28.7823 31.557 28.6448 33.5018 27.7059L33.6886 27.6125C35.3092 26.7771 36.6845 25.3942 37.2585 23.6373C37.7946 21.984 37.6461 20.1851 36.8459 18.6422C36.4704 17.9104 35.9122 17.2363 35.2987 16.6891C33.5438 15.1235 31.0686 14.6649 28.8277 15.292L28.3608 15.4311C27.8977 15.5781 27.4445 15.7502 27.0022 15.9597C25.5759 16.5923 23.8003 17.753 22.2078 17.0364C21.7787 16.8442 21.4256 16.5141 21.205 16.0989C20.5242 14.796 21.1524 13.4866 22.3763 12.8408L22.4971 12.7804C23.7448 12.1849 25.1243 12.2849 26.476 12.2848C27.5073 13.2632 29.0722 13.4827 30.4366 13.3089C31.0948 13.2251 31.7343 13.2872 32.3916 13.2253C32.713 13.1931 33.0302 13.1558 33.348 13.0984C33.6104 13.3286 33.87 13.5625 34.1268 13.7991C34.262 13.924 34.4947 14.1523 34.6309 14.258C34.5646 14.0038 34.4954 13.8241 34.4027 13.5799C34.7791 13.6073 35.0316 13.6187 35.4097 13.5708C34.6781 13.3534 34.541 13.3517 33.9217 12.8957C34.6138 12.5136 34.8529 12.2317 34.966 11.4834L34.9874 11.3277C35.035 10.9311 34.9359 10.7895 34.6663 10.6124L34.5406 10.5331C34.0599 10.2305 33.5729 9.96709 33.0715 9.71763L32.5655 9.47227C32.4989 9.44065 32.3824 9.26958 32.3189 9.21897C31.3888 8.42917 29.9851 8.20018 28.8082 8.28635C28.3804 8.33265 28.0983 8.36321 27.687 8.48838C27.4979 8.54602 26.9383 8.7783 26.7879 8.77647L26.5572 8.76914ZM31.9356 34.9868C31.5119 34.7516 30.9008 34.6428 30.248 34.742H30.2474C29.055 34.9234 28.0208 35.1853 26.7879 35.5129C26.2791 35.6481 25.7622 35.7821 25.2382 35.9115C26.509 36.0915 27.7324 36.4494 28.8668 36.8716L29.2202 36.9985C30.0301 37.2787 30.7359 37.4384 31.346 37.3794L31.5059 37.3568C32.2768 37.2114 32.7023 36.5905 32.6394 35.9951C32.5622 35.5055 32.3108 35.1951 31.9356 34.9868ZM21.0805 28.3297C19.8229 27.9496 19.1762 27.8556 18.6983 28.1039L18.6861 28.11C18.5213 28.1938 18.3959 28.3395 18.3382 28.5152C18.298 28.6471 18.3055 28.7884 18.3584 28.9144L18.3846 28.9675L18.3877 28.9742C18.5332 29.2445 18.9414 29.532 19.5449 29.5937H19.5443C20.4865 29.6901 21.5609 29.4702 22.795 29.183L23.3651 29.0475C22.999 28.9325 22.6459 28.8178 22.3122 28.7099V28.7106C21.9031 28.5809 21.4928 28.4542 21.0817 28.3303L21.0805 28.3297ZM31.52 21.0293C31.18 20.7695 30.8134 20.7109 30.1247 20.9176C29.7625 21.0263 29.3744 21.1925 28.9205 21.401C28.5012 21.5936 27.9776 21.8458 27.4862 22.0364C27.3147 22.1028 27.139 22.1688 26.9594 22.2341C28.1201 22.5721 29.0901 22.7628 30.0734 22.6565L30.0759 22.6559C30.8203 22.5766 31.2711 22.3483 31.5603 21.9887L31.6152 21.9137C31.7317 21.7385 31.7653 21.5654 31.7544 21.4321C31.7444 21.3113 31.6972 21.1891 31.5761 21.0769L31.52 21.0293ZM25.9176 13.8454C24.7031 13.8396 23.908 13.8385 23.1698 14.1909C22.809 14.3632 22.6141 14.5976 22.5368 14.7793C22.4739 14.9275 22.4536 15.1105 22.5869 15.3689C22.6444 15.4756 22.7355 15.5603 22.8463 15.61L22.8493 15.6118C23.1209 15.734 23.5035 15.75 24.164 15.5251C24.913 15.2701 25.453 14.9376 26.3686 14.5315C26.5055 14.4672 26.6426 14.4063 26.78 14.3484C26.4822 14.2107 26.1931 14.044 25.9176 13.8454ZM33.2345 8.06114C33.2363 8.06199 33.2381 8.06272 33.2399 8.06358H33.2406C33.2387 8.06268 33.237 8.06142 33.2351 8.06052L33.2345 8.06114Z" fill="#E8E7E7"/>
<path id="Vector (Stroke) (Stroke)" d="M28.6338 5.8127C30.1319 5.70413 32.2971 5.94523 33.9252 7.32777L34.0603 7.44256C34.638 7.72637 35.2321 8.03956 35.8313 8.41474L35.9855 8.50921L35.9951 8.51519L36.0035 8.52117C36.2494 8.68013 36.686 8.99683 37.0127 9.50889C37.5382 10.3328 37.5052 11.1661 37.4504 11.623C37.3929 12.1014 37.2783 12.7216 36.9446 13.3414L37.0318 13.632L37.4791 15.3467C37.9929 15.8762 38.4764 16.489 38.8686 17.1703L39.0503 17.5028L39.0539 17.5111L39.1448 17.6905L39.1496 17.7001C40.1567 19.7666 40.3311 22.1427 39.6375 24.3379L39.6339 24.3558L39.6171 24.4072C39.034 26.1923 37.8971 27.6342 36.5487 28.7013C37.5659 29.4744 38.438 30.4622 39.0587 31.6346L39.256 32.0268C40.1904 34.008 40.3585 36.2723 39.7164 38.3777L39.7128 38.3884L39.7092 38.3956L39.7104 38.3968L39.7068 38.4088L39.7056 38.4135C39.024 40.5336 37.5305 42.2982 35.5527 43.3211L34.956 43.6296L34.9356 43.6093C33.9576 44.0288 32.9094 44.2656 31.8409 44.2992L31.8421 44.3004H31.8397L31.4439 44.3136L31.4332 44.3028C29.8841 44.2876 28.5905 43.8908 27.4942 43.4622C26.8614 43.2147 26.338 42.9817 25.8679 42.7806C25.3961 42.5787 24.9601 42.4012 24.4497 42.2377C23.9732 42.1082 23.6871 42.0451 23.3388 42.0117H23.3353C22.3383 41.9162 21.2586 42.1268 20.1927 42.6036L20.1772 42.6096C20.0672 42.6595 19.9828 42.7129 19.6486 42.8978C19.3845 43.0439 18.9357 43.2861 18.4002 43.4442C16.592 43.9776 14.76 42.6746 14.649 40.8099C14.585 39.7327 15.1128 38.9272 15.3785 38.5822L15.388 38.569L15.3988 38.5558L15.5387 38.3884C15.9 37.943 16.302 37.5524 16.7249 37.2118C15.5678 36.8824 14.436 36.3479 13.4078 35.5413L13.3994 35.5341L13.244 35.4085L13.2356 35.4025C11.4711 33.9505 10.2557 31.8614 9.98545 29.4941C9.71453 27.1195 10.514 24.7363 11.9501 22.9747L11.98 22.9388L11.9848 22.9328C13.0438 21.6525 14.431 20.6865 15.9955 20.1383C15.2389 19.0559 14.722 17.7836 14.5677 16.4146L14.5653 16.4002C14.3126 14.0665 14.9927 11.7264 16.4571 9.89154L16.4894 9.85089L16.5001 9.83893C18.6918 7.1403 21.975 6.15807 24.9364 6.18818V6.18698C24.9379 6.18698 24.9397 6.18818 24.9412 6.18818C24.9442 6.18821 24.9478 6.18695 24.9508 6.18698L26.6966 6.20731C26.7241 6.19746 26.751 6.18649 26.7767 6.17742L26.9645 6.11524L27.0948 6.07577H27.1128C27.6945 5.91212 28.1394 5.86342 28.5417 5.81987V5.82107L28.5633 5.81748L28.5848 5.81509L28.6063 5.8139L28.6338 5.8115V5.8127ZM28.6673 6.72987L28.641 6.73346L28.3181 6.76933C28.1015 6.79575 27.8792 6.82874 27.6293 6.88652L27.2323 6.99414L27.0817 7.04317L26.9501 7.091L26.6978 7.18308L26.6225 7.20819C26.4384 7.19935 26.2374 7.1816 25.9911 7.16036C25.6914 7.13451 25.3205 7.10425 24.9388 7.10535L24.94 7.10415C22.1482 7.0728 19.1453 8.00487 17.1769 10.4619L17.1745 10.4643L16.9366 10.7776C15.7884 12.3716 15.2664 14.3388 15.4789 16.301V16.3058C15.666 17.9794 16.47 19.5068 17.6194 20.6513C17.2863 20.7154 16.9489 20.7991 16.6077 20.9048L16.3196 20.9992C14.8904 21.4959 13.6245 22.3791 12.664 23.5535L12.6616 23.5558C11.3684 25.1423 10.6573 27.2821 10.8978 29.3901C11.1394 31.5059 12.2269 33.3831 13.8192 34.6934L13.9746 34.8178C15.5663 36.0666 17.4522 36.6085 19.3019 36.7107C18.2325 37.2024 17.0968 37.9222 16.2478 38.9708L16.1055 39.1418C15.8906 39.4208 15.5206 40.0059 15.565 40.7549C15.6363 41.9534 16.7487 42.8156 17.9076 42.618L18.1395 42.5641C18.3557 42.5003 18.5578 42.4182 18.7374 42.3345L19.2038 42.0942C19.5087 41.9255 19.6511 41.8395 19.8149 41.7665L19.8172 41.7642C20.9975 41.2362 22.2371 40.9834 23.4226 41.0969H23.4237C23.859 41.1385 24.2096 41.2208 24.72 41.36C25.8308 41.715 26.5981 42.1263 27.8278 42.6072C28.9637 43.0513 30.2554 43.4347 31.811 43.3821L31.8122 43.3833C32.9704 43.3468 34.1044 43.0452 35.1293 42.5043L35.1305 42.5055C36.8931 41.594 38.223 40.0207 38.8303 38.1313L38.8351 38.1206L38.8387 38.1098C39.414 36.2233 39.2623 34.1945 38.4249 32.419L38.2492 32.0663C37.4858 30.623 36.289 29.4805 34.8998 28.7241C36.4918 27.7831 37.894 26.3491 38.6103 24.4981L38.7442 24.1227L38.7454 24.1191C39.3895 22.1325 39.2361 19.976 38.3233 18.103L38.2336 17.9225C37.8241 17.1263 37.2613 16.4123 36.6528 15.8167L36.1434 13.864C36.0776 13.6121 36.0058 13.4102 35.9377 13.2266L35.9772 13.174C36.2609 12.764 36.399 12.3265 36.477 11.9148L36.538 11.5142C36.5771 11.1883 36.5919 10.7049 36.355 10.2132L36.2378 10.0028C36.07 9.73967 35.8539 9.5441 35.6722 9.40844L35.5048 9.29245L35.3506 9.19679C34.7308 8.80829 34.1104 8.48572 33.4947 8.18754C33.4839 8.17594 33.4737 8.16197 33.4612 8.14928C33.4431 8.13084 33.4203 8.10886 33.3943 8.0847C33.3768 8.06854 33.3542 8.0504 33.3297 8.0297L33.3309 8.0285C31.9601 6.86452 30.0748 6.62768 28.6948 6.72868L28.6673 6.72987ZM28.8084 8.28679C29.9853 8.20062 31.3891 8.42972 32.3192 9.21951L32.4412 9.35224C32.4866 9.40526 32.5322 9.45586 32.5656 9.47182L33.0714 9.71815C33.5727 9.9676 34.0603 10.23 34.541 10.5325L34.6666 10.6126C34.936 10.7897 35.0347 10.9312 34.987 11.3277L34.9667 11.4831C34.8536 12.2314 34.6137 12.5133 33.9216 12.8954C34.5409 13.3513 34.6787 13.3536 35.4104 13.571C35.0322 13.6189 34.7788 13.6068 34.4023 13.5794C34.4951 13.8235 34.5643 14.0043 34.6307 14.2586C34.4946 14.1529 34.2625 13.9244 34.1273 13.7994C33.8705 13.5628 33.61 13.3289 33.3476 13.0987C33.0302 13.156 32.7133 13.1932 32.3922 13.2254L31.9019 13.2529C31.4139 13.2655 30.9307 13.2462 30.4371 13.3091L30.1788 13.3366C28.9652 13.4444 27.6334 13.2336 26.6751 12.4589L26.4766 12.2843C25.1249 12.2845 23.7446 12.1851 22.497 12.7806L22.3762 12.8404C21.1523 13.4862 20.5247 14.796 21.2056 16.0989C21.4261 16.514 21.7786 16.8443 22.2076 17.0364C23.4019 17.5739 24.6995 17.0556 25.8751 16.4959L27.0028 15.9602C27.445 15.7507 27.8981 15.5786 28.3612 15.4316L28.8275 15.2917C31.0684 14.6647 33.5443 15.1241 35.2991 16.6896C35.9125 17.2368 36.4711 17.9108 36.8465 18.6423C37.6465 20.1851 37.795 21.9841 37.259 23.6372L37.1419 23.9624C36.5119 25.565 35.2077 26.8287 33.6884 27.612L33.5019 27.7064L33.1336 27.8727C31.3965 28.6076 29.4243 28.7433 27.5636 28.4825L27.1666 28.4203C25.7396 28.1752 24.1662 27.6677 22.784 27.2209L21.5332 26.8347C20.3894 26.489 19.107 26.1311 17.9781 26.7175L17.8789 26.7713L17.7007 26.8837C17.2995 27.1663 16.9988 27.5742 16.8481 28.0472L16.7943 28.2577C16.6937 28.7514 16.7691 29.2675 17.0119 29.7142C17.4766 30.5775 18.4434 31.0515 19.3856 31.1479L19.6199 31.1671C20.3823 31.2135 21.1705 31.1153 21.9374 30.9686L22.6955 30.8095L23.1499 30.7043C24.0441 30.4956 24.9356 30.2745 25.8237 30.0406C27.0663 29.7237 28.5861 29.3624 29.8487 29.2442C30.8475 29.143 31.8568 29.2425 32.8167 29.536C34.5214 30.0531 36.0347 31.2188 36.8704 32.8029C37.6657 34.2927 37.8364 36.0377 37.344 37.653C36.863 39.1492 35.8089 40.3953 34.4131 41.1172C33.595 41.5512 32.6874 41.7913 31.762 41.8204C29.2488 41.9068 27.4984 40.6023 25.1696 39.8628C24.7546 39.7492 24.391 39.6566 23.9894 39.5938L23.572 39.5412C22.0657 39.397 20.5545 39.7239 19.1799 40.3388L18.8128 40.5229C18.448 40.7222 18.0845 40.9505 17.6983 41.0646L17.6469 41.0766C17.425 41.1134 17.2045 40.9694 17.1423 40.7573L17.1255 40.6628C17.113 40.4523 17.2139 40.275 17.3348 40.114L17.4591 39.9573C18.1043 39.1588 19.0075 38.5692 19.9368 38.1397L20.3362 37.9651C22.9685 36.8791 25.7393 37.3747 28.3217 38.3358L28.696 38.4709C29.4698 38.7401 30.3101 38.9638 31.1414 38.954L31.4965 38.9349C32.9895 38.7902 34.2216 37.6174 34.2098 36.1069L34.1906 35.7995C33.8965 33.7443 31.8859 32.9127 30.0126 33.1975L29.539 33.274C28.4515 33.4631 27.4703 33.7156 26.3869 34.0035L25.1517 34.3239C23.9157 34.6355 22.6745 34.9097 21.41 35.0749L20.9855 35.1215C19.0021 35.3017 16.9475 34.9813 15.2888 33.8444L14.9396 33.5885C13.6561 32.5823 12.7655 31.1485 12.4954 29.5372L12.45 29.2131C12.2611 27.5579 12.8226 25.8307 13.873 24.5424C14.6504 23.5917 15.6756 22.8769 16.8325 22.4749L17.0657 22.3983C20.2789 21.4005 23.1619 22.7187 26.2028 23.6407L26.7002 23.7866C27.8603 24.1154 29.0157 24.3423 30.241 24.2099C31.1699 24.1111 32.0248 23.8038 32.6541 23.1122L32.7772 22.9687C33.5246 22.0399 33.5133 20.755 32.6517 19.9434L32.4687 19.7879C30.6856 18.4255 28.6533 19.908 26.9214 20.5795L26.5866 20.7075L25.9995 20.9143C25.4108 21.1097 24.8145 21.2639 24.1855 21.3341L23.8614 21.3675C22.3482 21.487 20.7847 21.0912 19.5374 20.2268L19.2755 20.0342C18.0614 19.0923 17.2044 17.6723 17.0322 16.1324C16.85 14.4492 17.3405 12.7621 18.3966 11.4389C19.9802 9.46225 22.4575 8.63944 24.9221 8.66705L25.1553 8.67064C25.6215 8.68566 26.0946 8.74699 26.5579 8.7687L26.7875 8.77587C26.8626 8.77678 27.0406 8.72009 27.2228 8.6551L27.6867 8.48888C28.098 8.36371 28.3806 8.33309 28.8084 8.28679ZM28.8801 9.20157C28.5771 9.23443 28.3865 9.25703 28.1794 9.30561L27.9546 9.36659C27.8855 9.38768 27.7627 9.4371 27.5313 9.51965C27.4357 9.55375 27.3262 9.59134 27.224 9.62129C27.1729 9.63624 27.1125 9.65256 27.0506 9.66554C26.9999 9.67614 26.8965 9.6957 26.7767 9.69424H26.7588L26.528 9.68706H26.5149C26.2613 9.67518 26.006 9.65162 25.7783 9.63206C25.5499 9.61245 25.3432 9.59602 25.1433 9.58901L24.9101 9.58542C22.6389 9.56036 20.47 10.3175 19.1129 12.0105L19.1141 12.0117C18.2098 13.1447 17.7893 14.5894 17.9446 16.0307L17.9781 16.2675C18.1776 17.4511 18.8678 18.5551 19.8388 19.3084H19.8376C21.0052 20.2142 22.5772 20.6145 24.0683 20.4229L24.0826 20.4205C24.8121 20.3392 25.5126 20.1275 26.2661 19.8465L26.595 19.7209C26.992 19.5667 27.4004 19.3684 27.8852 19.1458C28.3516 18.9316 28.8733 18.7024 29.4123 18.5407C30.5116 18.2109 31.8103 18.1297 33.0259 19.0585C34.5287 20.2068 34.5706 22.2049 33.4935 23.5439C32.6499 24.5925 31.4752 25.0025 30.339 25.1235L30.3378 25.1223C28.9394 25.2731 27.6505 25.0104 26.4503 24.6703L26.4407 24.6679L25.9433 24.5208L25.9361 24.5197C24.3332 24.0336 22.9621 23.5079 21.5081 23.1983C20.1026 22.8991 18.7475 22.8385 17.3384 23.276L17.1339 23.3418C16.1371 23.6882 15.2543 24.3046 14.5845 25.1235L14.5833 25.1223C13.6761 26.2353 13.2039 27.7202 13.3624 29.1091C13.5317 30.592 14.3183 31.9349 15.5064 32.8663C16.9795 34.022 18.9287 34.3856 20.8994 34.2068L21.294 34.1637C22.5063 34.0052 23.7071 33.7405 24.9269 33.4331L26.1549 33.1138C27.2389 32.8258 28.2531 32.5651 29.3824 32.3688L29.3919 32.3676L29.8655 32.2911L29.875 32.2887C30.9785 32.1209 32.1606 32.275 33.1395 32.8184C34.143 33.3755 34.9083 34.3344 35.0995 35.6692L35.1006 35.6812L35.103 35.6931C35.3675 37.9472 33.5981 39.6534 31.585 39.8485C30.4369 39.9594 29.3113 39.6572 28.3935 39.3379L28.3839 39.3343L28.0096 39.1992L28.0012 39.1968C25.5003 38.266 23.0008 37.8594 20.6866 38.8141L20.6854 38.8129L20.4594 38.9122C21.4879 38.639 22.5686 38.5232 23.6593 38.6276C24.1569 38.6751 24.5755 38.7601 24.9926 38.8656L25.4123 38.9768L25.4303 38.9815L25.447 38.9875C26.6355 39.3649 27.8027 39.934 28.7307 40.2969C29.5948 40.6349 30.4174 40.8735 31.3327 40.9032H31.7333C32.5185 40.8785 33.2885 40.6747 33.9826 40.3065L33.991 40.3017C35.1714 39.6912 36.0619 38.6373 36.4686 37.372C36.859 36.0802 36.7548 34.6926 36.1816 33.4773L36.0585 33.231C35.3478 31.8841 34.0426 30.8677 32.55 30.4149H32.5488C31.7054 30.1569 30.8181 30.0688 29.9408 30.1578L29.9336 30.159C28.7535 30.2695 27.3011 30.6107 26.0569 30.9279C25.1608 31.1639 24.2617 31.3881 23.3592 31.5987L23.3556 31.5999L22.9 31.704L22.8964 31.7052C21.8919 31.9306 20.7199 32.1547 19.5637 32.0842L19.5542 32.083H19.5458L19.3114 32.0639L19.2923 32.0615C18.1515 31.9448 16.8574 31.3623 16.2048 30.1518V30.153C15.8087 29.4246 15.7251 28.5663 15.9716 27.7746L15.9728 27.7698C16.2147 27.0095 16.7328 26.3687 17.4221 25.9737L17.4328 25.9678L17.4424 25.963L17.5417 25.9092L17.5548 25.902C19.0652 25.1174 20.7194 25.6291 21.7963 25.9546H21.7975L23.0614 26.3456L23.0662 26.3468L24.1305 26.6876C25.2073 27.0255 26.3092 27.3411 27.322 27.5151C29.1723 27.8328 31.1155 27.7289 32.7748 27.0272L33.1025 26.8789L33.2675 26.7964L33.5377 26.6506C34.8676 25.8938 35.9315 24.7399 36.3849 23.3538C36.8452 21.9342 36.718 20.3891 36.031 19.0645L36.0286 19.0609C35.7142 18.4484 35.2337 17.8615 34.6881 17.3748H34.6869C33.1894 16.0389 31.0463 15.625 29.0751 16.1766L28.6386 16.307L28.3193 16.4134C28.0024 16.5243 27.6942 16.6484 27.395 16.7901L27.3854 16.7948L27.3746 16.7996C26.7807 17.0631 25.8274 17.5793 24.9639 17.8734C24.0485 18.1852 22.9365 18.3702 21.8322 17.8734C21.2167 17.5977 20.7099 17.1248 20.3936 16.5294L20.3912 16.5246C19.9292 15.6406 19.8986 14.7091 20.2226 13.8867C20.5398 13.0819 21.1722 12.4379 21.9481 12.0284L21.9565 12.0236L21.9661 12.0189L22.0869 11.9591L22.1012 11.9519C23.5851 11.2437 25.2359 11.3661 26.4766 11.366H26.8425L27.108 11.6183C27.8555 12.3275 29.0901 12.5547 30.3211 12.3979C30.7099 12.3484 31.0834 12.3432 31.4068 12.3405C31.5761 12.3391 31.7307 12.3383 31.878 12.3345L32.3061 12.3106C32.6166 12.2794 32.9042 12.2453 33.185 12.1946L33.3428 12.1647L33.478 12.0918C33.7948 11.9169 33.888 11.8263 33.9288 11.7725C33.9585 11.7333 34.0125 11.6461 34.0579 11.3456L34.0615 11.3169L34.0507 11.3098V11.3086C33.6062 11.0289 33.1504 10.7821 32.6708 10.5432L32.165 10.2981V10.2969C32.0712 10.2514 32.0015 10.2012 31.9629 10.1702C31.9194 10.1352 31.8838 10.1006 31.8589 10.0757C31.8104 10.0273 31.7673 9.97866 31.7429 9.95014C31.7205 9.92396 31.71 9.91051 31.701 9.89991C31.0285 9.3453 29.9243 9.12603 28.8801 9.20157ZM30.4909 34.715C31.0506 34.6726 31.5647 34.7808 31.9354 34.9864C32.3106 35.1947 32.5626 35.5061 32.6397 35.9957C32.7023 36.5908 32.2767 37.2111 31.5061 37.3565L31.3459 37.3792C30.8882 37.4234 30.3769 37.3447 29.8081 37.1843L29.2197 36.9989L28.867 36.871C27.7329 36.4489 26.5095 36.092 25.239 35.912C25.7626 35.7827 26.279 35.6477 26.7875 35.5126C28.0202 35.185 29.0549 34.9238 30.2469 34.7425H30.2481L30.4909 34.715ZM29.5522 35.7948C29.349 35.8343 29.1481 35.8791 28.9459 35.9239C29.0236 35.9519 29.1012 35.9791 29.1779 36.0076L29.5211 36.1308L30.0652 36.303C30.563 36.4427 30.9454 36.493 31.2478 36.4656L31.3459 36.4513C31.66 36.3882 31.723 36.1946 31.7237 36.1081C31.7046 36.0098 31.6786 35.9557 31.6556 35.9239C31.629 35.8872 31.5829 35.8413 31.4906 35.79C31.272 35.6687 30.8712 35.5763 30.3856 35.6501L29.5522 35.7948ZM18.698 28.1034C19.1758 27.8552 19.8236 27.9494 21.0812 28.3294L21.0824 28.3306L22.3129 28.7109V28.7097C22.6464 28.8175 22.9993 28.932 23.3652 29.0469L22.7948 29.1832C21.7153 29.4345 20.758 29.6345 19.9045 29.6161L19.5446 29.5934C18.9414 29.5315 18.5338 29.2441 18.3883 28.974L18.3847 28.968L18.3584 28.9142C18.3056 28.7882 18.2978 28.6466 18.338 28.5148C18.3958 28.3392 18.5213 28.1932 18.686 28.1094L18.698 28.1034ZM30.125 20.9179C30.8136 20.7112 31.1805 20.7694 31.5204 21.0291L31.5767 21.077C31.6975 21.1892 31.7449 21.3114 31.7548 21.4321C31.7657 21.5654 31.7314 21.7389 31.6149 21.914L31.5599 21.9882C31.2707 22.3477 30.8203 22.5762 30.0759 22.6554L30.0735 22.6566L29.7052 22.6829C28.845 22.713 27.9753 22.5302 26.9597 22.2345C27.1392 22.1692 27.3145 22.1024 27.4858 22.036C27.7317 21.9407 27.986 21.8301 28.2308 21.7191L28.9208 21.401C29.2611 21.2447 29.5644 21.1124 29.8475 21.01L30.125 20.9179ZM25.9182 13.846C26.1935 14.0444 26.4827 14.2107 26.7803 14.3483C26.6431 14.4061 26.5058 14.467 26.369 14.5312C25.4534 14.9373 24.9129 15.2699 24.1639 15.5249C23.5038 15.7497 23.1213 15.7342 22.8498 15.6122L22.8462 15.6098C22.7632 15.5726 22.6908 15.516 22.6357 15.4448L22.5867 15.3695C22.4535 15.111 22.4735 14.9269 22.5365 14.7787C22.6041 14.6198 22.7625 14.4212 23.0423 14.2586L23.1702 14.1904C23.9083 13.8382 24.7039 13.8401 25.9182 13.846ZM33.2352 8.06079C33.2371 8.06168 33.2394 8.0623 33.2412 8.06318H33.24C33.2383 8.06236 33.2358 8.06161 33.234 8.06079H33.2352ZM33.7028 7.27037C33.7058 7.27214 33.7087 7.27393 33.7087 7.27396C33.7087 7.27396 33.707 7.27264 33.7052 7.27156L33.7028 7.27037Z" fill="#020101"/>
<path id="Vector_2" d="M28.8565 8.87201C29.6346 8.77354 31.0564 9.0118 31.7212 9.47125C31.8611 9.568 32.0079 9.85362 32.1678 9.92909C32.9559 10.3005 33.7017 10.6709 34.4126 11.183C34.4 11.4563 34.3226 11.8611 34.1409 12.0612C33.72 12.5249 32.5862 12.6103 31.9891 12.6498C32.022 12.3008 32.096 12.2339 32.1585 11.9259C32.138 11.8535 32.1585 11.8823 32.0887 11.8413L32.0452 11.8584C31.8821 12.0553 31.8416 12.416 31.8108 12.6595C31.1131 12.695 29.7496 12.6018 29.3589 11.8801C29.3089 11.7875 29.3206 11.7492 29.2142 11.7491L29.1736 11.7911C29.0877 12.2278 29.6946 12.5709 30.0037 12.7432C29.9388 12.7522 29.8736 12.7581 29.8082 12.7612C28.5315 12.8263 27.545 12.5022 26.5916 11.6469C26.2073 11.6985 25.7786 11.707 25.3899 11.6966C23.6246 11.6497 21.3995 12.0413 20.5857 13.8613C20.2716 14.5543 20.2513 15.3449 20.5297 16.0529C20.8005 16.7417 21.3343 17.2944 22.0132 17.589C23.2789 18.1314 24.4524 17.7464 25.6453 17.2632C26.0027 17.7173 26.386 17.7881 26.9163 17.6426C27.0166 17.8439 27.1094 18.0618 27.2784 18.2112L27.314 18.2073C27.3321 18.038 27.1587 17.7227 27.0799 17.5581C27.3323 17.342 27.4644 17.1885 27.5149 16.853C27.8487 17.0817 28.0054 17.1123 28.4021 17.0652C28.4666 17.2183 28.535 17.6202 28.6856 17.6854L28.7032 17.6701C28.7464 17.4754 28.6463 17.1973 28.587 17.0049C28.8799 16.8479 29.0899 16.575 29.1395 16.2436C29.4358 16.5623 29.5879 16.6133 30.0098 16.6548L30.0262 16.8214C30.0391 16.9491 30.0577 17.2562 30.1604 17.34L30.1917 17.3128C30.253 17.0814 30.219 16.8645 30.1983 16.6278C30.5608 16.5316 30.7483 16.3858 30.9083 16.0459C31.1199 16.4039 31.2691 16.5074 31.6321 16.667C31.5984 16.9037 31.5101 17.1428 31.5672 17.3837L31.5994 17.3948C31.7244 17.2305 31.7781 16.9113 31.823 16.7035C32.1966 16.6998 32.3814 16.6795 32.6565 16.4123C32.8023 16.7699 32.8992 16.8591 33.1858 17.109C33.0938 17.2661 32.825 17.678 32.8655 17.8373L32.907 17.842C33.0909 17.7047 33.2088 17.4356 33.3182 17.2288C33.6961 17.3865 33.8938 17.4211 34.3069 17.3086C34.3279 17.6824 34.387 17.8628 34.5684 18.1872C34.4332 18.2977 34.0843 18.5523 34.0542 18.715L34.0896 18.7365C34.2852 18.6912 34.5193 18.4587 34.6766 18.321C34.9817 18.5431 35.1761 18.6229 35.5523 18.6307C35.4615 18.984 35.4263 19.2535 35.5267 19.6073C35.3155 19.6973 34.9954 19.8166 34.8353 19.968L34.8392 20.004C35.0066 20.0323 35.4161 19.8575 35.5945 19.7925C35.8294 20.1077 36.0083 20.2246 36.3582 20.3845C36.1023 20.6437 36.0457 20.872 35.9773 21.211C35.7576 21.2602 35.2554 21.2424 35.1187 21.3623L35.1211 21.4105L35.1675 21.4486C35.4239 21.4702 35.7007 21.4335 35.9571 21.4045C36.0684 21.8189 36.1866 22.0375 36.5291 22.3069C36.1648 22.4506 36.0293 22.5946 35.8128 22.8996C35.6097 22.8349 35.1629 22.6485 34.9642 22.6904L34.962 22.7252C35.1167 22.8673 35.5269 23.0108 35.7364 23.0947C35.7283 23.4867 35.7464 23.7203 35.9454 24.0675C35.5667 24.0762 35.3516 24.1468 35.0362 24.3504C34.8677 24.2205 34.5713 23.9783 34.3707 23.9401L34.3479 23.9684C34.4288 24.1409 34.7554 24.3787 34.9158 24.5086C34.7437 24.7918 34.7054 25.0156 34.7044 25.3384C34.324 25.2498 34.1075 25.2698 33.7483 25.4131C33.6451 25.2481 33.4524 24.9146 33.2942 24.8323L33.2666 24.8521C33.2759 25.0313 33.4991 25.3626 33.5989 25.53C33.3768 25.76 33.274 25.9841 33.2127 26.293C32.8367 26.0764 32.6443 26.0432 32.2149 26.0564C32.1614 25.9314 31.9964 25.4819 31.8624 25.4778C31.8309 25.6299 31.9781 25.9678 32.0379 26.126C31.6685 26.3313 31.5442 26.4607 31.3833 26.8499C31.1373 26.6011 30.9104 26.5112 30.5718 26.4819C30.5308 26.2752 30.4964 26.0137 30.3758 25.8452L30.3387 25.8428C30.275 25.9985 30.3636 26.3215 30.4007 26.4968C30.0442 26.5706 29.8458 26.6555 29.6241 26.9502C29.3865 26.7034 29.2164 26.613 28.886 26.5493C28.8804 26.4168 28.8887 25.9734 28.7728 25.9014C28.6775 26.0122 28.7059 26.3733 28.7093 26.5313C28.3516 26.5877 28.128 26.6585 27.8855 26.9492C27.709 26.6372 27.4891 26.5222 27.1753 26.3965C27.2151 26.1917 27.2579 25.9087 27.2242 25.7034L27.1961 25.6875C27.0794 25.8145 27.0196 26.1858 26.9803 26.3687C26.6202 26.3626 26.4173 26.3931 26.1167 26.5955C26.0169 26.4434 25.7779 26.0891 25.5816 26.1069L25.5613 26.1433C25.637 26.3386 26.0135 26.6428 25.941 26.8186C25.7576 26.9258 25.3033 26.7131 25.1023 26.7954L25.1014 26.8364C25.2005 26.9658 25.7698 27.0327 25.9651 27.104C26.3755 27.2537 26.4637 27.3406 26.66 27.7034C25.9913 27.5994 25.4629 27.3911 24.8313 27.2415C22.653 26.7256 19.5478 24.99 17.4522 26.344C16.8153 26.7505 16.37 27.3975 16.2179 28.1375C16.0684 28.8582 16.2149 29.6087 16.6244 30.2202C18.3341 32.7727 22.2638 31.509 24.6705 30.9348C26.3887 30.4871 28.0438 30.075 29.8047 29.8335C33.7857 29.2878 37.7911 32.6863 36.9292 36.8833C36.646 38.2913 35.8086 39.5264 34.6058 40.311C33.8519 40.8079 32.9881 41.1138 32.0894 41.2019C29.1983 41.4817 27.3011 39.6389 24.574 39.0994C22.6642 38.7217 21.0068 38.9212 19.2136 39.6853C18.8015 39.8611 18.3009 40.095 17.933 40.3416L17.8993 40.3645C18.7 39.3328 19.9947 38.6831 21.21 38.2742C23.6115 37.5515 25.9168 38.083 28.2029 38.9204C30.0501 39.5969 32.2164 40.0483 33.7972 38.512C34.4329 37.8972 34.7957 37.0532 34.8042 36.169C34.804 35.2315 34.4275 34.3335 33.7593 33.6763C32.5032 32.4273 30.6639 32.3962 29.0357 32.7417C28.7862 32.7947 27.8084 33.0369 27.6253 33.0374C27.3875 32.7214 27.9688 32.271 28.2613 32.26C28.3897 32.2551 28.9541 32.2251 28.991 32.165L28.9693 32.1133C28.7737 32.0061 28.4012 32.043 28.1863 32.0596C28.1324 31.8701 28.0528 31.5164 27.9092 31.3936L27.8738 31.4036C27.8255 31.5818 27.9537 31.8955 28.0149 32.0791C27.6727 32.2393 27.5352 32.3784 27.3746 32.7114C27.1077 32.499 26.8931 32.4468 26.566 32.4409C26.49 32.2366 26.4271 31.929 26.2725 31.7798L26.2425 31.7874C26.2059 31.9671 26.3223 32.3081 26.3758 32.4946C26.0074 32.6638 25.9002 32.7754 25.7474 33.1465C25.492 32.8848 25.2903 32.8657 24.95 32.8518C24.8938 32.6633 24.814 32.3267 24.6802 32.1973L24.6438 32.2097C24.6019 32.4014 24.7105 32.7024 24.7669 32.8987C24.3798 33.0747 24.2556 33.1538 24.0898 33.5542C24.0662 33.5278 24.0412 33.5027 24.015 33.479C23.7814 33.2637 23.5683 33.2087 23.2603 33.2202C23.2115 33.0161 23.1599 32.7183 23.0255 32.5669L22.9897 32.5689C22.9258 32.7341 23.0217 33.0689 23.0626 33.251C22.6778 33.3799 22.4927 33.6169 22.3271 33.9678C22.0768 33.656 21.9103 33.5833 21.5294 33.511C21.498 33.311 21.466 32.9793 21.3454 32.8279L21.3066 32.8296C21.2308 32.9968 21.3037 33.335 21.3325 33.5264C20.9317 33.6531 20.7263 33.7883 20.5004 34.1455C20.231 33.8164 20.0942 33.7156 19.6781 33.6162C19.6983 33.4204 19.7568 33.0701 19.6751 32.9028H19.6365C19.5268 33.0574 19.513 33.4055 19.4933 33.6043C19.1362 33.6284 18.8211 33.7554 18.6145 34.0593C18.4561 33.6636 18.3241 33.5347 17.9415 33.3533C17.9967 33.1856 18.15 32.8013 18.0827 32.6399L18.0405 32.6401C17.8962 32.8003 17.8397 33.0662 17.7789 33.2776C17.5781 33.2695 17.3316 33.2622 17.1391 33.3264C17.029 33.363 16.9671 33.417 16.8436 33.4414C16.7658 33.3594 16.8206 33.2517 16.757 33.1333C16.6624 32.9573 16.5522 32.8379 16.4168 32.6958C16.5058 32.5342 16.7204 32.1748 16.7135 31.9998L16.6796 31.9907C16.5154 32.0989 16.3449 32.4136 16.236 32.5916C15.8228 32.4255 15.6239 32.4114 15.1899 32.5049C15.3314 32.1067 15.2323 31.8342 15.0512 31.4815C15.2128 31.3901 15.6354 31.1812 15.6823 31.0237L15.6405 31.0034C15.4117 31.0283 15.1367 31.2014 14.9287 31.3157C14.6705 31.1201 14.4645 31.0276 14.1447 30.9934C14.3111 30.6267 14.3013 30.4138 14.2771 30.0222C14.4457 29.9724 14.8984 29.8613 14.9967 29.7312L14.978 29.7026C14.7754 29.665 14.4298 29.7712 14.2177 29.8223C14.0472 29.5227 13.9 29.3533 13.5894 29.1975C13.8717 28.948 13.9485 28.7451 14.034 28.3975L14.341 28.4107C14.4624 28.4153 14.776 28.4407 14.8619 28.3611L14.8561 28.3113C14.7592 28.2356 14.2348 28.2188 14.0561 28.1953C13.988 27.8594 13.8772 27.6174 13.6376 27.3718C14.0034 27.2532 14.1757 27.1113 14.4136 26.8206C14.5817 26.8821 15.107 27.1008 15.2481 27.0371L15.2456 27.0254C15.0386 26.8374 14.7609 26.7695 14.5105 26.636L14.4865 26.6228C14.5382 26.2715 14.5545 26.0745 14.4394 25.7266C14.8037 25.6812 14.9813 25.6243 15.2777 25.4016C15.4015 25.5022 15.8795 25.9202 15.9975 25.9087L16.0145 25.8674C15.9625 25.7156 15.57 25.3977 15.4264 25.2581C15.5672 24.9439 15.6786 24.7295 15.5987 24.3821L15.5893 24.342C15.6731 24.3234 15.6691 24.3121 15.7696 24.3869C15.9552 24.5247 16.3662 24.4255 16.5867 24.3677L16.5972 24.3875C16.6687 24.5227 16.8613 24.9324 16.9989 24.9749L17.0431 24.9441C17.0608 24.8259 16.815 24.4165 16.742 24.2572C17.0484 23.9775 17.1258 23.8151 17.1854 23.4107C17.5089 23.7023 17.7346 23.7479 18.152 23.7798C18.2005 23.9851 18.2535 24.2788 18.3849 24.4368L18.4223 24.4343C18.4749 24.2641 18.3761 23.9255 18.334 23.74C18.6952 23.587 18.8522 23.4482 19.0386 23.103C19.262 23.4376 19.52 23.5713 19.9025 23.6474C19.8955 23.8887 19.8532 24.0936 19.9295 24.3253L19.9646 24.3373C20.0655 24.1973 20.0654 23.8373 20.0758 23.6534C20.4339 23.5719 20.5982 23.4907 20.8546 23.234C21.0556 23.6016 21.1941 23.7176 21.58 23.8755C21.5446 24.0245 21.4064 24.4612 21.4913 24.5903L21.5315 24.5752C21.6617 24.3988 21.7126 24.1227 21.7661 23.9054C22.1126 23.8984 22.3244 23.8505 22.5893 23.6199C22.7617 23.9861 22.8829 24.0896 23.2143 24.2876C23.1604 24.4485 22.9886 24.8828 23.0774 25.0132C23.2142 24.9558 23.3368 24.4885 23.3828 24.3412C23.7832 24.3459 23.9844 24.3343 24.3 24.0621C24.4043 24.4071 24.5191 24.5615 24.8235 24.7312C24.7696 24.9019 24.5806 25.2835 24.6556 25.4395L24.7107 25.4509C24.8121 25.3919 24.9371 24.9441 24.993 24.7974C25.2415 24.8408 25.8414 24.8721 26.004 24.6553C26.0108 24.5723 26.0223 24.6067 25.98 24.5454C25.8624 24.5242 25.6583 24.6123 25.524 24.626C24.7859 24.7014 24.5689 24.3321 24.4859 23.6852C26.2037 24.2537 27.6065 24.8049 29.4856 24.8345C31.5892 24.8674 33.8418 23.8877 33.9056 21.4788C33.939 20.2176 33.0542 19.203 31.8758 18.8114C29.9637 18.1763 28.2012 19.4829 26.4854 20.1288C26.3121 20.1936 25.6778 20.431 25.5015 20.4339L25.4727 20.3973C25.4622 20.2538 25.4996 20.0861 25.5437 19.9494C25.7371 19.3498 26.4932 19.5096 26.7876 19.3798C26.7896 19.3063 26.7999 19.3399 26.7474 19.2785C26.573 19.2059 26.1949 19.2563 26.0066 19.2943C25.9302 19.1001 25.8433 18.8262 25.6934 18.6908L25.6543 18.6969C25.6131 18.8599 25.7596 19.1894 25.8228 19.3573C25.4908 19.5649 25.3782 19.6987 25.2647 20.0685C24.9886 19.8256 24.7684 19.7681 24.4134 19.7478C24.3617 19.5422 24.3047 19.2476 24.1815 19.0858L24.1435 19.0858C24.0869 19.2485 24.1841 19.5973 24.2235 19.7776C23.9634 19.8479 23.5771 20.0265 23.5035 20.3132C23.4912 20.3612 23.4853 20.349 23.4432 20.3766C23.2315 20.0441 23.0375 19.9231 22.6724 19.7956C22.7026 19.5663 22.7497 19.3271 22.6952 19.1024L22.6656 19.0849C22.5545 19.1918 22.5087 19.61 22.4822 19.7732C22.1409 19.8037 21.8628 19.8657 21.5984 20.1023C21.4703 19.7099 21.3651 19.5603 21.0186 19.3321C21.1002 19.1557 21.2792 18.8121 21.2556 18.6241L21.2213 18.6057C21.0753 18.7018 20.926 19.0565 20.8421 19.2263C20.4809 19.1625 20.3412 19.1433 19.9812 19.2318C20.0063 18.844 19.9024 18.5915 19.6993 18.2722C19.8216 18.1664 20.2196 17.853 20.2151 17.7114C20.057 17.7157 19.6948 18.047 19.5709 18.1534C19.2185 17.9507 19.0867 17.9455 18.6878 17.9256C18.7802 17.5701 18.7929 17.3086 18.7041 16.9553C18.9005 16.856 19.2568 16.6941 19.4008 16.547L19.3987 16.5129C19.2017 16.5032 18.7954 16.6965 18.6086 16.7828C18.2893 16.4936 18.1038 16.3911 17.6644 16.3792C17.5798 15.8264 17.5688 15.2647 17.6316 14.709C17.8186 13.1472 18.6933 11.7154 19.9301 10.7569C21.9664 9.17874 24.4915 9.1015 26.9363 9.41385C27.6263 9.08758 28.0809 8.94439 28.8565 8.87201Z" fill="#287271"/>
<path id="Vector_3" d="M30.781 10.019C31.1062 9.94531 31.4292 10.1501 31.5012 10.4756C31.5735 10.8011 31.3672 11.1232 31.0415 11.1939C30.7178 11.2641 30.398 11.0595 30.3264 10.7361C30.2547 10.4127 30.4578 10.0921 30.781 10.019Z" fill="#020101"/>
<path id="Vector_4" d="M31.8481 10.5941C32.1448 10.5771 32.9551 10.7704 32.9133 11.1479C32.7546 11.1608 32.5007 10.8971 32.3611 10.8537C32.2163 10.8088 32.0571 10.7817 31.9009 10.7352C31.8345 10.6692 31.8599 10.71 31.8481 10.5941Z" fill="#020101"/>
<path id="Vector_5" d="M33.3831 11.3622C33.6412 11.4288 33.8197 11.6888 33.8306 11.9495C33.5096 11.9398 33.3438 11.6626 33.3831 11.3622Z" fill="#020101"/>
<path id="Vector_6" d="M34.2065 25.4939C34.6514 25.4649 34.7847 25.6318 35.0186 25.9624C34.7935 26.1892 34.4736 26.4229 34.2163 26.6152C34.1917 26.6113 34.1309 26.5808 34.1062 26.5681C33.863 26.4414 33.6956 26.4163 33.4253 26.3921C33.4888 25.8782 33.6821 25.5845 34.2065 25.4939Z" fill="#287271"/>
<path id="Vector_7" d="M35.6107 24.2967C35.7716 24.2822 35.8644 24.2875 36.0255 24.2949L36.235 24.4368C36.0145 24.8675 35.733 25.2171 35.4173 25.5769L35.2032 25.7994C34.6927 25.2703 34.9073 24.5086 35.6107 24.2967Z" fill="#287271"/>
<path id="Vector_8" d="M13.0503 29.3921C13.9445 29.3442 14.3405 30.2165 13.88 30.9248C13.7884 31.0293 13.7452 31.0569 13.6339 31.1374C13.3264 30.6245 13.1477 29.979 13.0503 29.3921Z" fill="#287271"/>
<path id="Vector_9" d="M36.033 18.4752C36.3201 18.6854 36.7113 19.8079 36.7969 20.176C36.7054 20.1857 36.5994 20.1855 36.5064 20.1877C36.2952 20.1491 36.1019 20.0437 35.9551 19.887C35.5613 19.4685 35.6131 18.8565 36.033 18.4752Z" fill="#287271"/>
<path id="Vector_10" d="M13.1395 27.3596C13.8561 27.6057 14.0077 28.4207 13.4845 28.9666C13.3121 29.0908 13.2248 29.1008 13.021 29.1443C12.9218 28.5581 12.9984 27.9314 13.1395 27.3596Z" fill="#287271"/>
<path id="Vector_11" d="M32.8886 15.9434C33.3934 16.1025 34.1217 16.4893 34.5277 16.8232C34.4728 16.8884 34.3988 16.9594 34.3383 17.021C33.7477 17.3682 32.9977 16.9118 32.8734 16.2744C32.8541 16.1759 32.8756 16.0445 32.8886 15.9434Z" fill="#287271"/>
<path id="Vector_12" d="M36.738 20.4306C36.7836 20.4338 36.828 20.4256 36.8407 20.4531C37.0302 20.8679 37.0143 21.8255 36.9684 22.2237C36.8197 22.1717 36.7702 22.1477 36.632 22.0751C36.4999 21.9782 36.391 21.8527 36.3139 21.708C36.1911 21.4794 36.1689 21.2099 36.2526 20.9643C36.3412 20.6977 36.4911 20.5479 36.738 20.4306Z" fill="#287271"/>
<path id="Vector_13" d="M13.9329 25.5034C14.3169 25.7241 14.4031 26.2034 14.23 26.5989C14.1083 26.8767 13.867 27.0093 13.5915 27.106C13.4491 27.1299 13.3538 27.1226 13.2114 27.1179C13.4 26.4573 13.5699 26.0823 13.9329 25.5034Z" fill="#287271"/>
<path id="Vector_14" d="M15.4459 32.6711C16.2173 32.623 16.7228 33.0962 16.5676 33.8809L16.3508 33.7803C15.8652 33.5491 15.417 33.2463 15.021 32.8823C15.1757 32.7627 15.2586 32.7224 15.4459 32.6711Z" fill="#287271"/>
<path id="Vector_15" d="M36.7695 22.49C36.8367 22.4865 36.8591 22.4777 36.9177 22.5089C36.9636 22.7041 36.52 24.1198 36.3394 24.1579L36.242 24.0943C35.6922 23.4607 35.919 22.6733 36.7695 22.49Z" fill="#287271"/>
<path id="Vector_16" d="M34.7275 17.0064C34.9387 17.0934 35.8222 18.0453 35.8737 18.251C35.8337 18.3197 35.7727 18.3401 35.7001 18.3785C34.8601 18.5012 34.174 17.6415 34.7275 17.0064Z" fill="#287271"/>
<path id="Vector_17" d="M15.1725 24.0639L15.2087 24.078C15.3308 24.2248 15.3935 24.3583 15.3914 24.5539C15.3907 24.8108 15.2845 25.0559 15.0976 25.2319C14.8631 25.4541 14.6362 25.4863 14.3329 25.4755C14.2301 25.4157 14.1677 25.3567 14.0781 25.2797C14.3443 24.8906 14.8234 24.3609 15.1725 24.0639Z" fill="#287271"/>
<path id="Vector_18" d="M16.856 23.0942L16.8955 23.1198C16.9742 23.3107 16.962 23.4784 16.8862 23.6715C16.7953 23.9023 16.6122 24.0846 16.381 24.1744C16.1219 24.2745 15.9042 24.2402 15.6587 24.1317C15.5459 24.0617 15.4946 24.0019 15.4033 23.9084C15.8483 23.5354 16.3173 23.2995 16.856 23.0942Z" fill="#287271"/>
<path id="Vector_19" d="M14.0238 31.2253C14.8756 31.2014 15.3212 32.0491 14.8263 32.6982C14.4378 32.3667 14.0125 31.8123 13.7788 31.3601C13.8575 31.3147 13.9435 31.2695 14.0238 31.2253Z" fill="#287271"/>
<path id="Vector_20" d="M31.0381 15.6146C31.6577 15.6274 32.0859 15.701 32.6826 15.8808C32.6201 16.0471 32.5884 16.1322 32.4785 16.2724C32.3425 16.3929 32.2246 16.4568 32.0403 16.4821C31.8052 16.513 31.5674 16.4459 31.3831 16.2964C31.1411 16.1026 31.0752 15.9016 31.0381 15.6146Z" fill="#287271"/>
<path id="Vector_21" d="M18.5201 22.6899C18.6041 22.6769 18.7765 22.6779 18.8682 22.6756C18.8245 23.3628 18.3168 23.6484 17.6742 23.4734C17.4015 23.3356 17.3265 23.2361 17.1753 22.978C17.6119 22.8338 18.0628 22.7372 18.5201 22.6899Z" fill="#287271"/>
<path id="Vector_22" d="M17.3599 33.4997C18.0292 33.4455 18.3808 33.812 18.4218 34.4541L17.9372 34.3537C17.5042 34.2314 17.1693 34.1462 16.7476 33.9694C16.7625 33.9399 16.7781 33.9106 16.7946 33.8818C16.9364 33.6367 17.1031 33.5664 17.3599 33.4997Z" fill="#287271"/>
<path id="Vector_23" d="M30.6509 15.6109L30.7434 15.6255L30.7668 15.6741C30.7595 16.3285 30.0811 16.6175 29.5105 16.2967C29.3169 16.1512 29.2493 16.0224 29.1606 15.8104C29.6213 15.6796 30.1731 15.6345 30.6509 15.6109Z" fill="#287271"/>
<path id="Vector_24" d="M19.1304 22.6439C19.5626 22.6048 20.3646 22.6775 20.8017 22.7419C20.7494 22.9636 20.7292 23.0137 20.5816 23.186C20.0602 23.6162 19.1859 23.3428 19.1304 22.6439Z" fill="#287271"/>
<path id="Vector_25" d="M19.4481 33.8225C19.9671 33.8311 20.2616 34.0366 20.3835 34.542C20.1079 34.563 19.9276 34.5688 19.6512 34.5666C19.3108 34.5486 19.0049 34.5242 18.6685 34.4705C18.8472 34.0701 18.9856 33.8843 19.4481 33.8225Z" fill="#287271"/>
<path id="Vector_26" d="M20.3331 19.3925C20.9858 19.3892 21.4528 19.7867 21.3544 20.4655C21.232 20.4304 21.1011 20.381 20.98 20.3384C20.5989 20.1868 20.1136 19.9291 19.7944 19.6718C19.9859 19.4519 20.0523 19.4341 20.3331 19.3925Z" fill="#287271"/>
<path id="Vector_27" d="M32.3435 26.249C32.3699 26.2473 32.3965 26.2461 32.4229 26.2449C32.7043 26.2344 32.8845 26.3223 33.0898 26.5112C32.7983 26.6619 32.5974 26.8215 32.5024 27.1555C32.4763 27.2478 32.4875 27.3276 32.4578 27.4106L32.4136 27.3718C32.1108 27.1116 31.9109 27.0825 31.5337 27.0381C31.6794 26.5732 31.8655 26.365 32.3435 26.249Z" fill="#287271"/>
<path id="Vector_28" d="M18.6583 18.169C19.4969 18.0658 20.0133 18.7966 19.617 19.5259C19.363 19.3654 18.5521 18.5559 18.4873 18.263C18.5404 18.1931 18.5585 18.2057 18.6583 18.169Z" fill="#287271"/>
<path id="Vector_29" d="M24.2897 20.0003C24.7431 19.9709 25.0893 20.0433 25.2734 20.5074C25.0007 20.5953 24.7941 20.6359 24.5151 20.6922C24.2821 20.7287 23.9283 20.7926 23.6864 20.7836C23.6238 20.7812 23.6059 20.7442 23.5765 20.7025C23.5539 20.3695 23.9927 20.0778 24.2897 20.0003Z" fill="#287271"/>
<path id="Vector_30" d="M30.343 26.6899C30.8108 26.6482 31.0425 26.7261 31.3257 27.1035C30.9927 27.2344 30.7949 27.3208 30.6221 27.6528C30.6194 27.6628 30.5977 27.7048 30.5923 27.7156L30.5576 27.7082C30.3 27.4199 30.094 27.3586 29.7275 27.303C29.8401 26.9094 29.9541 26.7949 30.343 26.6899Z" fill="#287271"/>
<path id="Vector_31" d="M22.2655 20.0236C22.9073 19.9951 23.153 20.1838 23.3157 20.7985C23.135 20.8041 22.9305 20.7861 22.748 20.7743C22.3633 20.7307 21.9873 20.6695 21.6221 20.5384C21.6472 20.4888 21.6738 20.4399 21.7018 20.3919C21.8379 20.1628 22.0247 20.086 22.2655 20.0236Z" fill="#287271"/>
<path id="Vector_32" d="M28.8875 15.8734L28.9219 15.897C29.0701 16.5499 28.3745 17.1376 27.7085 16.7196C27.5781 16.5909 27.5479 16.5451 27.4604 16.3929C27.9092 16.1767 28.4082 16.0069 28.8875 15.8734Z" fill="#287271"/>
<path id="Vector_33" d="M26.7766 26.5447C27.2747 26.5232 27.554 26.7409 27.7327 27.187C27.4048 27.2175 27.2751 27.2348 27.0098 27.4402L26.8616 27.5908C26.6396 27.2263 26.5264 27.0979 26.1245 26.9275L26.1367 26.9101C26.3213 26.6523 26.4824 26.5957 26.7766 26.5447Z" fill="#287271"/>
<path id="Vector_34" d="M21.0269 22.7891C21.4386 22.8287 22.2115 23.0184 22.6077 23.1431C22.5411 23.2907 22.5286 23.3347 22.4209 23.4636C21.7826 23.943 21.1073 23.5731 21.0269 22.7891Z" fill="#287271"/>
<path id="Vector_35" d="M28.5879 26.7371C29.0862 26.719 29.3413 26.8516 29.5667 27.2952C29.2476 27.3469 29.1084 27.3804 28.8525 27.5864L28.7446 27.7127C28.6863 27.7222 28.6724 27.6782 28.6108 27.6111C28.408 27.3901 28.2297 27.3123 27.9604 27.2044C27.9722 27.1846 27.9844 27.1653 27.9966 27.1458C28.1599 26.8901 28.3005 26.8023 28.5879 26.7371Z" fill="#287271"/>
<path id="Vector_36" d="M22.8381 23.2003C23.1676 23.2781 23.9994 23.514 24.2758 23.636C24.2124 23.7907 24.1929 23.8482 24.077 23.9697C23.7154 24.2184 23.2529 24.1895 22.9626 23.8285C22.8046 23.632 22.809 23.4406 22.8381 23.2003Z" fill="#287271"/>
<path id="Vector_37" d="M21.4093 33.7466C21.863 33.748 22.1053 33.8948 22.2611 34.333C22.0077 34.3838 21.783 34.415 21.5277 34.4497C21.2332 34.4917 20.9365 34.5164 20.6392 34.5234C20.7787 34.0666 20.9356 33.8462 21.4093 33.7466Z" fill="#287271"/>
<path id="Vector_38" d="M23.2638 33.428C23.3765 33.4175 23.4902 33.4307 23.5975 33.4666C23.8498 33.5537 23.9649 33.7439 24.0781 33.9641C23.8081 34.0369 23.4854 34.0974 23.2077 34.1558C23.0462 34.1919 22.693 34.2857 22.5483 34.2637C22.509 34.1463 22.5859 33.9329 22.6458 33.8296C22.7895 33.5818 23.0035 33.4932 23.2638 33.428Z" fill="#287271"/>
<path id="Vector_39" d="M27.1702 16.5262C27.4761 16.4883 27.22 17.8712 26.135 17.4137C25.9985 17.3154 25.9749 17.293 25.8638 17.1709C26.1633 16.982 26.8269 16.6855 27.1702 16.5262Z" fill="#287271"/>
<path id="Vector_40" d="M24.9239 33.084C25.3853 33.0578 25.5228 33.1557 25.7513 33.5537C25.5159 33.6325 25.2811 33.6858 25.0403 33.7444C24.8453 33.7905 24.5711 33.8645 24.3681 33.8843C24.3154 33.8896 24.2957 33.8503 24.2693 33.8156C24.2537 33.7224 24.2979 33.6145 24.3468 33.5361C24.5308 33.2417 24.6167 33.1738 24.9239 33.084Z" fill="#287271"/>
<path id="Vector_41" d="M26.6314 32.6462C27.0164 32.636 27.2073 32.8086 27.3794 33.1265C27.1287 33.1992 26.8596 33.2642 26.6057 33.3301C26.5108 33.3518 25.9744 33.5386 25.9636 33.4263C25.9192 32.9605 26.2359 32.7351 26.6314 32.6462Z" fill="#287271"/>
<path id="Vector_42" d="M17.7104 16.6241C18.4685 16.6383 18.7333 17.2886 18.4097 17.9202C18.3862 17.9555 18.3607 17.9867 18.3347 18.0204L18.2988 18.0121C18.0597 17.7436 17.8143 16.9831 17.7104 16.6241Z" fill="#287271"/>
<path id="Vector_43" d="M27.4468 27.4212C28.0178 27.3833 28.2969 27.4429 28.5913 27.9607C28.4531 27.9578 28.3215 27.9502 28.1836 27.9419C27.7959 27.9173 27.3765 27.8699 27.0039 27.7632C27.1482 27.5725 27.2249 27.499 27.4468 27.4212Z" fill="#287271"/>
<path id="Vector_44" d="M29.6448 27.4995C30.0491 27.5112 30.2219 27.613 30.4451 27.9368C30.1814 27.9636 29.8757 27.9707 29.6082 27.981C29.335 27.9888 29.1125 27.9973 28.8394 27.978C29.0547 27.5779 29.2117 27.54 29.6448 27.4995Z" fill="#287271"/>
<path id="Vector_45" d="M31.4985 27.274C31.9041 27.2522 31.9939 27.2984 32.2876 27.5603C32.0244 27.6553 31.7246 27.721 31.4509 27.7837C31.2131 27.8277 30.9949 27.8699 30.7534 27.8953C30.9238 27.4632 31.0608 27.3797 31.4985 27.274Z" fill="#287271"/>
<path id="Vector_46" d="M33.5076 26.6162C33.7432 26.5957 33.842 26.6372 34.0454 26.7317C33.7434 26.9431 33.4207 27.1038 33.0869 27.2561C32.9421 27.321 32.8198 27.3687 32.6714 27.4238C32.7776 26.8667 32.9446 26.7234 33.5076 26.6162Z" fill="#287271"/>
</g>
<path id="Union" d="M28.6343 5.81305C30.1323 5.70454 32.2973 5.94528 33.9253 7.3277L34.0601 7.44293C34.6378 7.72674 35.2323 8.03943 35.8315 8.41461L35.9858 8.50934L35.9956 8.5152L36.0034 8.52106C36.2494 8.68002 36.6864 8.99728 37.0132 9.50934C37.5382 10.3329 37.5055 11.1657 37.4507 11.6226C37.3932 12.1009 37.2786 12.7216 36.9448 13.3414L37.0317 13.6324L37.479 15.3463C37.9929 15.8757 38.4765 16.4891 38.8687 17.1705L39.0503 17.5025L39.0542 17.5113L39.145 17.69L39.1499 17.6998C40.157 19.7662 40.3308 22.1423 39.6372 24.3375L39.6343 24.356L39.6177 24.4068C39.0345 26.1918 37.8976 27.6346 36.5493 28.7017C37.5662 29.4747 38.4385 30.4621 39.0591 31.6343L39.2563 32.0269C40.1907 34.008 40.3583 36.2722 39.7163 38.3775L39.7134 38.3882L39.7095 38.3961L39.7104 38.397L39.7065 38.4088L39.7056 38.4136C39.024 40.5335 37.5308 42.2979 35.5532 43.3209L34.9556 43.6295L34.936 43.6089C33.9581 44.0284 32.9097 44.2658 31.8413 44.2994L31.8423 44.3004H31.8394L31.4438 44.314L31.4331 44.3033C29.8843 44.288 28.5908 43.891 27.4946 43.4625C26.8618 43.215 26.3378 42.9819 25.8677 42.7808C25.3959 42.579 24.96 42.4014 24.4497 42.2379C23.9734 42.1085 23.6874 42.0448 23.3394 42.0113H23.3354C22.3385 41.9158 21.2588 42.1273 20.1929 42.6041L20.1772 42.6099C20.0674 42.6598 19.9829 42.7132 19.6489 42.898C19.3848 43.0441 18.9354 43.2858 18.3999 43.4439C16.5919 43.977 14.7601 42.6746 14.6489 40.8101C14.5849 39.7332 15.1127 38.9278 15.3784 38.5826L15.3882 38.5689L15.3989 38.5562L15.5386 38.3882C15.8998 37.9428 16.3022 37.5521 16.7251 37.2115C15.5679 36.8821 14.4359 36.3482 13.4077 35.5416L13.3999 35.5338L13.2437 35.4088L13.2358 35.4029C11.4714 33.9508 10.2561 31.8609 9.98584 29.4937C9.71505 27.1193 10.5146 24.7367 11.9507 22.9752L11.98 22.939L11.9849 22.9332C13.0438 21.6529 14.4311 20.6865 15.9956 20.1382C15.239 19.0559 14.7221 17.7836 14.5679 16.4146L14.5649 16.4C14.3123 14.0663 14.9932 11.726 16.4575 9.89117L16.4897 9.85114L16.5005 9.83844C18.6921 7.14028 21.9749 6.15806 24.936 6.18805V6.18707C24.9374 6.18707 24.9395 6.18788 24.9409 6.18805C24.9439 6.18808 24.9477 6.18709 24.9507 6.18707L26.6968 6.20758C26.7242 6.19773 26.7511 6.18638 26.7769 6.17731L26.9644 6.11481L27.0952 6.07574H27.1128C27.6943 5.91213 28.1392 5.86342 28.5415 5.81989V5.82086L28.5845 5.815L28.606 5.81403L28.6343 5.8111V5.81305ZM32.6753 43.3062C32.3899 43.348 32.1008 43.3733 31.811 43.3824L31.812 43.3834C32.1016 43.3743 32.39 43.3481 32.6753 43.3062ZM17.6772 42.6431C17.6038 42.647 17.5308 42.6464 17.4585 42.6422C17.606 42.6509 17.7565 42.6435 17.9077 42.6177L17.6772 42.6431ZM17.2466 42.6168C17.2908 42.6242 17.3354 42.6289 17.3804 42.6334C17.3354 42.6289 17.2908 42.6242 17.2466 42.6168ZM17.0386 42.5709C17.0752 42.5812 17.1126 42.588 17.1499 42.5963C17.1126 42.588 17.0752 42.5811 17.0386 42.5709ZM16.8237 42.4966C16.8642 42.5131 16.9053 42.5277 16.9468 42.5416C16.9052 42.5277 16.8642 42.5131 16.8237 42.4966ZM16.6431 42.4117C16.678 42.4301 16.7135 42.4471 16.7495 42.4634C16.7135 42.4471 16.678 42.4301 16.6431 42.4117ZM18.7788 42.313C18.6769 42.3616 18.5682 42.4116 18.4526 42.4566C18.5525 42.4177 18.6481 42.3763 18.7378 42.3345L18.7788 42.313ZM16.4565 42.3013C16.4872 42.3219 16.5186 42.341 16.5503 42.3599C16.5186 42.341 16.4872 42.3219 16.4565 42.3013ZM36.647 41.4673C36.2809 41.7901 35.8824 42.0785 35.4556 42.3267L35.771 42.1334C36.0802 41.9325 36.3726 41.7094 36.647 41.4673ZM16.2837 42.1705C16.3114 42.1937 16.3397 42.2161 16.3687 42.2379C16.3397 42.2161 16.3114 42.1937 16.2837 42.1705ZM19.2036 42.0933V42.0943V42.0933ZM16.1255 42.023C16.154 42.0525 16.1832 42.0812 16.2134 42.1089C16.1832 42.0812 16.154 42.0525 16.1255 42.023ZM15.9819 41.858C16.0087 41.8924 16.0361 41.926 16.0649 41.9586C16.0361 41.926 16.0086 41.8924 15.9819 41.858ZM15.8599 41.6812C15.8822 41.7174 15.9047 41.7531 15.9292 41.7877C15.9047 41.7531 15.8822 41.7174 15.8599 41.6812ZM15.7515 41.48C15.7714 41.5227 15.7912 41.5652 15.814 41.606C15.7912 41.5652 15.7714 41.5227 15.7515 41.48ZM15.6675 41.2711C15.6833 41.3183 15.6991 41.3652 15.7183 41.4107C15.6991 41.3652 15.6833 41.3183 15.6675 41.2711ZM15.6001 41.0172C15.6116 41.0765 15.6246 41.1348 15.6411 41.192C15.6246 41.1348 15.6116 41.0765 15.6001 41.0172ZM15.5659 40.7554L15.5649 40.7545C15.5696 40.832 15.5792 40.9085 15.5923 40.983C15.5793 40.9086 15.5705 40.8328 15.5659 40.7554ZM15.6597 39.9888H15.6606H15.6597ZM30.6108 38.9283C30.6571 38.9328 30.7033 38.9367 30.7495 38.94C30.6817 38.9352 30.6141 38.9279 30.5464 38.9205C30.5679 38.9228 30.5893 38.9262 30.6108 38.9283ZM31.4966 38.9341C31.4834 38.9354 31.4698 38.9359 31.4565 38.9371L31.4966 38.9351C31.5945 38.9256 31.6912 38.9103 31.7866 38.8922L31.4966 38.9341ZM29.5054 38.7213C29.5254 38.7266 29.5458 38.7307 29.5659 38.7359C29.5212 38.7243 29.4766 38.713 29.4321 38.7007C29.4566 38.7075 29.4809 38.7147 29.5054 38.7213ZM19.0688 38.6002C19.0015 38.6407 18.9337 38.6806 18.8677 38.7232C18.9338 38.6806 19.0015 38.6407 19.0688 38.6002ZM33.1909 38.2339C33.22 38.2099 33.2497 38.1867 33.2778 38.1617C33.2497 38.1867 33.22 38.2099 33.1909 38.2339ZM38.8384 38.1089L38.8315 38.1285L38.8354 38.1207L38.8384 38.1099C38.8761 37.9863 38.9095 37.8616 38.9409 37.7369C38.9095 37.8614 38.876 37.9856 38.8384 38.1089ZM33.5444 37.8912C33.5494 37.8854 33.5541 37.8794 33.5591 37.8736C33.5858 37.8422 33.6119 37.8104 33.6372 37.7779C33.6433 37.77 33.6497 37.7624 33.6558 37.7545C33.6202 37.8013 33.5829 37.8466 33.5444 37.8912ZM20.8315 37.7789L20.8306 37.7798L20.8315 37.7789ZM31.5063 37.356V37.357V37.356ZM27.5552 36.4293C28.0035 36.5635 28.4413 36.7133 28.8667 36.8716L29.2202 36.9986C29.4226 37.0686 29.6186 37.1307 29.8081 37.1841L29.2202 36.9986L28.8667 36.8707C28.5833 36.7652 28.2944 36.6635 28.0005 36.5679C27.8536 36.5201 27.7054 36.474 27.5562 36.4293H27.5552ZM39.0972 36.9537C39.1139 36.8396 39.1274 36.7253 39.1392 36.6109C39.1274 36.7253 39.114 36.8396 39.0972 36.9537ZM31.4907 35.7896C31.2722 35.6683 30.8708 35.5762 30.3853 35.65L29.5522 35.7945C29.349 35.834 29.148 35.8795 28.9458 35.9244C29.0235 35.9524 29.1015 35.9789 29.1782 36.0074L29.521 36.1304L30.0649 36.3033C30.5626 36.443 30.9452 36.4927 31.2476 36.4654L31.3462 36.4517C31.6602 36.3886 31.7234 36.1945 31.7241 36.108C31.7051 36.01 31.6787 35.9562 31.6558 35.9244C31.6292 35.8877 31.5831 35.841 31.4907 35.7896ZM39.1519 36.4722C39.1585 36.3941 39.1651 36.3161 39.1694 36.2379C39.1651 36.3161 39.1585 36.3941 39.1519 36.4722ZM39.1763 36.0728C39.179 35.9921 39.1809 35.9114 39.1812 35.8306C39.1808 35.9114 39.1791 35.9921 39.1763 36.0728ZM34.1899 35.7994H34.1909H34.1899ZM39.1802 35.7066C39.1793 35.6313 39.1774 35.5562 39.1743 35.481C39.1773 35.5562 39.1793 35.6313 39.1802 35.7066ZM39.1665 35.3306C39.1623 35.2609 39.1569 35.1913 39.1509 35.1216C39.1569 35.1913 39.1624 35.2609 39.1665 35.3306ZM21.4233 35.0728C21.4188 35.0734 21.4142 35.0742 21.4097 35.0748C21.2688 35.0926 21.1276 35.1088 20.9858 35.1216C21.1275 35.1088 21.2689 35.0936 21.4097 35.0757C21.548 35.0577 21.6859 35.0368 21.8237 35.0162C21.6905 35.0361 21.5571 35.0553 21.4233 35.0728ZM31.9351 34.9869H31.936H31.9351ZM22.519 34.9009C22.4176 34.919 22.3161 34.9368 22.2144 34.9537C22.3161 34.9368 22.4176 34.919 22.519 34.9009ZM39.1313 34.9136C39.1255 34.8615 39.1187 34.8094 39.1118 34.7574C39.1187 34.8094 39.1255 34.8615 39.1313 34.9136ZM33.77 34.6255C33.8204 34.7059 33.8669 34.7895 33.9097 34.8765C33.8669 34.7895 33.8204 34.7059 33.77 34.6255ZM30.5884 34.7105C30.477 34.7155 30.3633 34.7243 30.2485 34.7418H30.2476L30.2466 34.7427H30.2485L30.4907 34.7154C30.5233 34.7129 30.5561 34.712 30.5884 34.7105ZM13.8188 34.6939V34.6929V34.6939ZM39.0845 34.565C39.0749 34.5046 39.0642 34.4445 39.0532 34.3843C39.0641 34.4445 39.075 34.5046 39.0845 34.565ZM39.0181 34.1998C39.003 34.1269 38.9863 34.0544 38.9692 33.982C38.9863 34.0545 39.0031 34.1269 39.0181 34.1998ZM38.937 33.8453C38.9179 33.7701 38.8969 33.6954 38.8755 33.6207C38.8968 33.6954 38.9179 33.7701 38.937 33.8453ZM38.8325 33.4732C38.8109 33.4028 38.7868 33.3331 38.7632 33.2632C38.7868 33.3331 38.8109 33.4028 38.8325 33.4732ZM38.7104 33.1099C38.6884 33.0487 38.6647 32.9881 38.6411 32.9273C38.6647 32.9881 38.6884 33.0487 38.7104 33.1099ZM11.7886 32.2242C11.8402 32.3205 11.8942 32.4153 11.9497 32.5093C11.8942 32.4153 11.8402 32.3205 11.7886 32.2242ZM36.1382 29.5435C36.9944 30.2238 37.7236 31.0744 38.2485 32.067L38.2495 32.066C37.8678 31.3443 37.3774 30.6979 36.8091 30.1373C36.7381 30.0672 36.6657 29.9986 36.5923 29.9312C36.4454 29.7965 36.2939 29.6672 36.1382 29.5435ZM19.8833 31.1773C19.9061 31.1777 19.9289 31.1771 19.9517 31.1773C19.869 31.1766 19.7867 31.1733 19.7046 31.1695C19.7641 31.1723 19.8236 31.1762 19.8833 31.1773ZM12.5571 29.857C12.5672 29.9022 12.5793 29.9469 12.5903 29.9918C12.5778 29.9404 12.5645 29.8892 12.5532 29.8375L12.5571 29.857ZM28.3472 29.4644H28.3481H28.3472ZM18.3882 28.9742C18.4791 29.1429 18.6723 29.318 18.9517 29.441C18.6725 29.318 18.4791 29.1429 18.3882 28.9742L18.3853 28.9683L18.3843 28.9673L18.3882 28.9742ZM29.8481 29.2447C29.6695 29.2614 29.4857 29.2825 29.2983 29.3082C29.486 29.2825 29.6703 29.2614 29.8491 29.2447H29.8481ZM22.7944 29.1832C22.7843 29.1855 22.7742 29.1877 22.7642 29.19C22.7744 29.1876 22.7851 29.1856 22.7954 29.1832L23.3647 29.0474L23.3628 29.0464L22.7944 29.1832ZM12.4204 28.2779H12.4214H12.4204ZM28.3032 28.563C28.3618 28.5678 28.4204 28.5718 28.479 28.5757C28.4676 28.575 28.4562 28.5746 28.4448 28.5738C28.4194 28.572 28.394 28.5699 28.3687 28.5679C28.3468 28.5663 28.325 28.5648 28.3032 28.563ZM27.563 28.483H27.564H27.563ZM26.0737 28.1929V28.192V28.1929ZM35.7036 28.192C35.7312 28.1717 35.7592 28.152 35.7866 28.1314C35.7592 28.152 35.7312 28.1717 35.7036 28.192ZM35.9517 28.0035C35.997 27.9679 36.0426 27.9326 36.0874 27.8961C36.0426 27.9326 35.997 27.9679 35.9517 28.0035ZM36.2378 27.7701C36.2822 27.7323 36.3268 27.6945 36.3706 27.6558C36.3268 27.6945 36.2822 27.7323 36.2378 27.7701ZM33.689 27.6119V27.6129V27.6119ZM36.5249 27.5152C36.5582 27.4844 36.5917 27.4538 36.6245 27.4224C36.5917 27.4538 36.5582 27.4844 36.5249 27.5152ZM17.2827 27.2642C17.2794 27.2681 17.2772 27.273 17.2739 27.2769C17.2901 27.2577 17.3079 27.2399 17.3247 27.2213C17.3113 27.2361 17.2957 27.249 17.2827 27.2642ZM36.7983 27.2515C36.8311 27.2185 36.8637 27.1854 36.896 27.1519C36.8637 27.1855 36.8311 27.2185 36.7983 27.2515ZM37.0269 27.0123C37.0754 26.9596 37.1231 26.9061 37.1704 26.8521C37.1231 26.9061 37.0754 26.9596 37.0269 27.0123ZM37.2524 26.7574C37.3018 26.6993 37.3501 26.6402 37.3979 26.5806C37.3501 26.6402 37.3018 26.6993 37.2524 26.7574ZM12.7964 26.4429H12.7974H12.7964ZM37.4995 26.4537C37.54 26.4013 37.5793 26.348 37.6187 26.2945C37.5794 26.348 37.54 26.4013 37.4995 26.4537ZM37.7144 26.1617C37.7663 26.088 37.8161 26.0127 37.8657 25.9371C37.8161 26.0127 37.7663 26.088 37.7144 26.1617ZM37.9097 25.8716C37.9638 25.7873 38.0158 25.7015 38.0669 25.6148C38.0159 25.7015 37.9638 25.7873 37.9097 25.8716ZM38.1274 25.5123C38.1607 25.4538 38.1914 25.394 38.2231 25.3345C38.1914 25.394 38.1606 25.4538 38.1274 25.5123ZM39.0718 22.6529C39.0087 23.1474 38.9006 23.6387 38.7446 24.1197V24.1226C38.6224 24.4969 38.4713 24.8549 38.2974 25.1968C38.4122 24.971 38.518 24.7386 38.6108 24.4986L38.7446 24.1226L38.7456 24.1187C38.9014 23.638 39.0088 23.1471 39.0718 22.6529ZM13.8726 24.5425H13.8735H13.8726ZM15.6704 23.0093C15.6222 23.0374 15.5743 23.066 15.5269 23.0953C15.5743 23.066 15.6222 23.0374 15.6704 23.0093ZM16.1567 22.7515C16.0907 22.783 16.0253 22.8156 15.9604 22.8492C16.0253 22.8156 16.0907 22.783 16.1567 22.7515ZM16.5386 22.5855C16.5608 22.5766 16.5827 22.5668 16.605 22.5582C16.5827 22.5668 16.5608 22.5766 16.5386 22.5855ZM16.8325 22.4742V22.4752V22.4742ZM31.6147 21.9136L31.5601 21.9879C31.4516 22.1227 31.3205 22.2395 31.1597 22.3365L31.311 22.2339C31.4056 22.1607 31.4877 22.0787 31.5601 21.9888L31.6157 21.9136H31.6147ZM33.2261 22.1099C33.2373 22.0712 33.2482 22.0327 33.2573 21.9937C33.2582 21.9899 33.2584 21.9858 33.2593 21.982C33.2494 22.0248 33.2384 22.0674 33.2261 22.1099ZM30.5854 20.8111C30.4489 20.8306 30.2967 20.8659 30.1245 20.9175H30.1255C30.2973 20.866 30.4491 20.8306 30.5854 20.8111ZM25.3491 21.1089C25.3913 21.0977 25.4331 21.0856 25.4751 21.0738C25.4331 21.0856 25.3913 21.0977 25.3491 21.1089ZM25.6587 21.0211C25.6972 21.0095 25.7356 20.9978 25.7739 20.9859C25.7356 20.9978 25.6972 21.0095 25.6587 21.0211ZM19.2749 20.0347V20.0338V20.0347ZM31.2681 19.2642C31.2616 19.2632 31.255 19.2623 31.2485 19.2613C31.255 19.2623 31.2616 19.2632 31.2681 19.2642ZM37.313 16.5347C37.6623 16.9591 37.977 17.425 38.2329 17.9224H38.2339C38.1826 17.8228 38.1286 17.7245 38.0728 17.6275C37.8498 17.2402 37.5924 16.8742 37.313 16.5347ZM15.521 16.6177H15.522H15.521ZM27.4126 15.7779C27.275 15.8354 27.138 15.8953 27.0024 15.9595C26.8243 16.0386 26.6407 16.1265 26.4526 16.2173C26.6407 16.1265 26.8242 16.0386 27.0024 15.9595C27.0457 15.9391 27.0899 15.9207 27.1333 15.9009C27.2148 15.8639 27.2962 15.8273 27.3784 15.7925C27.3898 15.7877 27.4012 15.7827 27.4126 15.7779ZM15.4331 15.5318C15.4339 15.5985 15.4375 15.6652 15.4399 15.732C15.4375 15.6652 15.4339 15.5985 15.4331 15.5318ZM27.728 15.6519C27.6884 15.667 27.6493 15.6832 27.6099 15.6988C27.6493 15.6832 27.6884 15.667 27.728 15.6519ZM23.2104 15.6978C23.1632 15.6949 23.1188 15.6888 23.0767 15.6812C23.1188 15.6888 23.1632 15.6949 23.2104 15.6978ZM22.8491 15.6119C22.861 15.6172 22.874 15.6206 22.8862 15.6255C22.8742 15.6207 22.8617 15.6171 22.8501 15.6119L22.8462 15.6099L22.8491 15.6119ZM24.436 15.4254C24.3478 15.4596 24.2572 15.4931 24.1636 15.525C24.1188 15.5402 24.075 15.5529 24.0327 15.566C24.0751 15.5529 24.1197 15.5402 24.1646 15.525C24.258 15.4931 24.348 15.4596 24.436 15.4254ZM15.438 15.1509C15.4347 15.2423 15.4343 15.3338 15.4341 15.4254C15.4343 15.3338 15.4347 15.2423 15.438 15.1509ZM15.4595 14.7886C15.4547 14.8465 15.4522 14.9045 15.4487 14.9625C15.4522 14.9045 15.4547 14.8465 15.4595 14.7886ZM26.3687 14.5308V14.5318V14.5308ZM15.5015 14.4048C15.4945 14.4578 15.4888 14.5109 15.4829 14.564C15.4888 14.5109 15.4945 14.4578 15.5015 14.4048ZM22.9292 14.3297C22.9155 14.3392 22.9031 14.3502 22.8901 14.3599C22.9073 14.3471 22.9244 14.3334 22.9429 14.3209L22.9292 14.3297ZM15.5591 14.0357C15.5493 14.0903 15.5404 14.145 15.5317 14.1998C15.5404 14.145 15.5493 14.0903 15.5591 14.0357ZM25.9175 13.8453C25.1589 13.8416 24.5641 13.8403 24.0444 13.9254C24.3564 13.8745 24.6954 13.8549 25.0806 13.8482C25.3372 13.8436 25.6151 13.8448 25.9185 13.8463L25.9175 13.8453ZM34.1265 13.7994H34.1274H34.1265ZM15.6372 13.6509C15.6212 13.7204 15.6064 13.7901 15.5923 13.8599C15.6064 13.7901 15.6212 13.7204 15.6372 13.6509ZM15.7251 13.3043C15.7115 13.3533 15.6987 13.4025 15.686 13.4517C15.6987 13.4025 15.7115 13.3533 15.7251 13.3043ZM35.9771 13.1734C35.9702 13.1834 35.9628 13.1931 35.9556 13.2027L35.9771 13.1744C36.0237 13.107 36.0658 13.038 36.105 12.9693C36.0658 13.0378 36.0236 13.1061 35.9771 13.1734ZM15.8413 12.9244C15.8172 12.997 15.794 13.0699 15.772 13.1431C15.794 13.0699 15.8172 12.997 15.8413 12.9244ZM36.1216 12.938C36.1521 12.8829 36.1803 12.8276 36.2065 12.772C36.1803 12.8276 36.1521 12.883 36.1216 12.938ZM15.9673 12.5709C15.9405 12.6405 15.915 12.7105 15.8901 12.7808C15.915 12.7105 15.9405 12.6405 15.9673 12.5709ZM36.3696 12.3521C36.3292 12.483 36.2794 12.614 36.2192 12.7447C36.2793 12.614 36.3293 12.483 36.3696 12.3521ZM16.1138 12.2193C16.084 12.2867 16.0547 12.3543 16.0269 12.4224C16.0547 12.3543 16.084 12.2867 16.1138 12.2193ZM36.396 12.2603C36.4021 12.2385 36.4079 12.2167 36.4136 12.1949C36.4079 12.2167 36.4021 12.2385 36.396 12.2603ZM16.2563 11.9146C16.2299 11.9682 16.2034 12.0216 16.1782 12.0757C16.2034 12.0216 16.2299 11.9682 16.2563 11.9146ZM16.6606 11.19C16.6136 11.2648 16.5665 11.3394 16.522 11.4156C16.5665 11.3395 16.6136 11.2648 16.6606 11.19ZM34.9937 11.2427C34.9917 11.2696 34.9914 11.2981 34.9878 11.3277C34.9914 11.2981 34.9917 11.2696 34.9937 11.2427ZM36.5591 11.1392C36.5589 11.1104 36.5584 11.0811 36.5571 11.0513C36.5584 11.0811 36.5589 11.1104 36.5591 11.1392ZM36.5532 10.9732C36.5506 10.9376 36.5469 10.9015 36.5425 10.8648C36.5469 10.9015 36.5506 10.9376 36.5532 10.9732ZM19.0298 10.7515C18.974 10.8042 18.919 10.8578 18.8647 10.9127C18.919 10.8578 18.974 10.8042 19.0298 10.7515ZM36.5317 10.7857C36.5269 10.755 36.5205 10.7242 36.5142 10.6929C36.5205 10.7242 36.5269 10.755 36.5317 10.7857ZM17.1772 10.4615L17.1743 10.4644H17.1753L17.1772 10.4625V10.4615ZM34.7642 10.6812C34.7501 10.6704 34.7346 10.6608 34.7192 10.65C34.7346 10.6608 34.7501 10.6704 34.7642 10.6812ZM36.4927 10.5953C36.4817 10.5519 36.4679 10.5085 36.4536 10.4644C36.4679 10.5085 36.4817 10.5519 36.4927 10.5953ZM36.4351 10.4068C36.4218 10.3699 36.406 10.3336 36.3901 10.2964C36.406 10.3336 36.4218 10.3699 36.4351 10.4068ZM36.1099 9.82672C36.1049 9.82056 36.1002 9.81423 36.0952 9.80817C36.1002 9.81423 36.1049 9.82056 36.1099 9.82672ZM19.0552 8.73785C18.8254 8.89189 18.602 9.05837 18.3853 9.23688C18.602 9.05838 18.8254 8.89188 19.0552 8.73785ZM35.8462 9.55035C35.7947 9.50461 35.7436 9.46352 35.6948 9.42633C35.7436 9.46351 35.7946 9.50462 35.8462 9.55035ZM34.8862 8.91754C35.0408 9.00696 35.1954 9.09988 35.3501 9.19684L35.4771 9.27496L35.3511 9.19684C35.1963 9.09982 35.041 9.00698 34.8862 8.91754ZM19.7622 8.3111V8.31207V8.3111ZM33.4614 8.14996V8.14899V8.14996ZM33.2358 8.0611C33.2373 8.06175 33.2393 8.06333 33.2407 8.06403L33.2388 8.06207C33.2378 8.06171 33.2368 8.06146 33.2358 8.0611ZM21.0034 7.7525C20.7774 7.8353 20.5546 7.92779 20.3345 8.02789C20.5546 7.92781 20.7774 7.83528 21.0034 7.7525ZM22.1938 7.39996C21.9201 7.464 21.6483 7.53903 21.3794 7.62555C21.6483 7.53906 21.9201 7.46398 22.1938 7.39996ZM31.9253 7.19098C31.8259 7.15093 31.7261 7.11309 31.6255 7.07867C31.7261 7.11307 31.8259 7.15095 31.9253 7.19098ZM26.6978 7.18317H26.6987H26.6978ZM24.9399 7.10406C24.5909 7.10015 24.2385 7.11094 23.8853 7.13824C24.2381 7.11099 24.5902 7.10115 24.939 7.10504L24.9399 7.10406ZM27.6294 6.88629V6.88727V6.88629ZM29.7944 6.72418C29.9451 6.73398 30.098 6.74984 30.2524 6.7691C30.098 6.74986 29.9451 6.73397 29.7944 6.72418Z" fill="white" fill-opacity="0.3"/>
</g>
</g>
</g>
</svg>
