<svg width="50" height="50" viewBox="0 0 50 50" fill="none" xmlns="http://www.w3.org/2000/svg">
<rect width="50" height="50" fill="#BEBEBE"/>
<g id="Decorate Mode">
<path d="M-238.703 -1007.03V-1006.03H2781.3V-1007.03V-1008.03H-238.703V-1007.03ZM2783.3 -1005.03H2782.3V2532.97H2783.3H2784.3V-1005.03H2783.3ZM2781.3 2534.97V2533.97H-238.703V2534.97V2535.97H2781.3V2534.97ZM-240.703 2532.97H-239.703V-1005.03H-240.703H-241.703V2532.97H-240.703ZM-238.703 2534.97V2533.97C-239.255 2533.97 -239.703 2533.52 -239.703 2532.97H-240.703H-241.703C-241.703 2534.62 -240.36 2535.97 -238.703 2535.97V2534.97ZM2783.3 2532.97H2782.3C2782.3 2533.52 2781.85 2533.97 2781.3 2533.97V2534.97V2535.97C2782.95 2535.97 2784.3 2534.62 2784.3 2532.97H2783.3ZM2781.3 -1007.03V-1006.03C2781.85 -1006.03 2782.3 -1005.59 2782.3 -1005.03H2783.3H2784.3C2784.3 -1006.69 2782.95 -1008.03 2781.3 -1008.03V-1007.03ZM-238.703 -1007.03V-1008.03C-240.359 -1008.03 -241.703 -1006.69 -241.703 -1005.03H-240.703H-239.703C-239.703 -1005.59 -239.255 -1006.03 -238.703 -1006.03V-1007.03Z" fill="black" fill-opacity="0.1"/>
<g id="Stickers">
<rect x="-186.694" y="-134.534" width="374" height="551" rx="4.5" stroke="#9747FF" stroke-dasharray="10 5"/>
<g id="Property 1=key">
<g id="Frame 134">
<path id="Vector" d="M31.9321 8.20826C33.6149 8.76981 34.9851 10.4058 35.0678 12.2311C35.1092 12.2587 35.1522 12.2892 35.2007 12.322C35.9837 12.8521 36.5688 13.577 36.965 14.4191L36.9641 14.4187C37.5408 15.638 37.6412 17.025 37.2523 18.3098L37.1683 18.5661L37.1675 18.5679C36.142 21.383 33.1556 22.8828 30.3123 21.9235C30.0561 22.1011 29.8466 22.2194 29.5662 22.3377C29.5496 22.5745 29.4999 22.7977 29.4039 23.0084C29.2972 23.2426 29.1399 23.4417 28.9395 23.6221C28.927 24.0692 28.807 24.4645 28.5476 24.7807C28.293 25.0911 27.9355 25.2872 27.5118 25.3978L24.1275 33.1216C24.6986 33.3649 25.2756 33.6193 25.8469 33.8718C25.8536 33.8747 25.8607 33.8783 25.8671 33.8816C26.1242 34.0135 26.4247 34.1235 26.764 34.2607C27.0866 34.3911 27.44 34.5446 27.7291 34.7546C28.2203 35.1116 28.209 35.6599 28.1095 36.0623C28.0108 36.4614 27.7919 36.8678 27.6817 37.0956C27.5945 37.2757 27.5295 37.4542 27.4545 37.6464C27.3832 37.8292 27.3008 38.0311 27.1873 38.2107C27.0697 38.3968 26.9111 38.5706 26.6827 38.6917C26.6355 38.7167 26.5854 38.7358 26.5347 38.7551C26.5604 38.8114 26.5834 38.8698 26.6013 38.93C26.6886 39.2254 26.6659 39.5487 26.4793 39.8579C26.4034 39.9835 26.3222 40.1882 26.217 40.4648C26.1175 40.7263 26.0014 41.0371 25.8643 41.3231C25.729 41.6055 25.5565 41.8997 25.3258 42.1143C25.0829 42.34 24.7612 42.4876 24.37 42.4254C24.0166 42.3692 23.6015 42.2134 23.2259 42.0537C22.8624 41.8992 22.4498 41.7022 22.1952 41.5908L20.6761 40.9332C20.4155 41.2474 20.1444 41.4823 19.6836 41.6758C17.7884 42.4717 15.6067 40.7018 16.1891 38.6502C16.3451 38.101 16.6816 37.4327 16.8872 36.9624L18.2372 33.8713L22.8303 23.3241C22.6668 22.9497 22.5833 22.5661 22.6384 22.1827C22.6944 21.7931 22.8867 21.4464 23.2009 21.141C23.1879 20.8503 23.2376 20.5851 23.3528 20.3401C23.4565 20.1196 23.6053 19.93 23.7801 19.7603C23.717 19.5201 23.6605 19.2333 23.6222 19.0077C19.2539 16.5505 20.1597 10.1064 25.0397 8.91337C25.9442 8.6923 26.6386 8.76627 27.4551 8.92183C28.7854 7.91693 30.3094 7.64238 31.9321 8.20826ZM30.6346 11.8612C30.4543 11.8241 30.3437 11.8191 30.2486 11.8326C30.215 11.8374 30.18 11.8449 30.1414 11.8562C30.2457 12.258 30.2271 12.659 30.0837 13.023C29.8975 13.4953 29.5171 13.8713 29.0071 14.0954L29.0066 14.0941C28.5079 14.3161 27.9413 14.3308 27.4325 14.1326L27.4316 14.1322C26.9397 13.9396 26.5471 13.5546 26.3449 13.0665L26.3453 13.0656C26.3011 12.9588 26.2685 12.8501 26.2439 12.7434C25.7052 12.6893 25.2478 12.9683 24.9641 13.4119C24.6356 13.9259 24.5793 14.6066 24.9069 15.135C25.1031 15.4514 25.3876 15.7058 25.7172 15.8055C25.9049 15.8399 26.0309 15.7762 26.3323 15.6506C26.6385 15.523 27.0333 15.3933 27.5864 15.5738C27.9356 15.6878 28.1722 15.8012 28.3717 15.9916C28.5002 16.1143 28.6102 16.2705 28.7269 16.4403C29.7084 16.2867 30.7187 16.7527 31.0206 17.8136L31.0215 17.814C31.0679 17.9778 31.0812 18.0442 31.1099 18.0953C31.1958 18.2027 31.356 18.295 31.5866 18.3435C31.8189 18.3924 32.0716 18.3866 32.2641 18.3458C32.9407 18.2021 33.4035 17.7081 33.5513 17.1543C33.6797 16.6732 33.5733 16.1422 33.1349 15.7383C32.7331 15.9616 32.3085 16.0789 31.7633 15.9673C31.2354 15.8629 30.7713 15.5523 30.4747 15.1034L30.4733 15.1017C30.1779 14.65 30.057 14.0844 30.1784 13.5415L30.2294 13.356C30.3681 12.9322 30.6504 12.567 31.0314 12.327C31.0575 12.3105 31.0867 12.2963 31.1155 12.2806C31.0847 12.2099 31.0497 12.1546 31.0115 12.1085C30.938 12.0199 30.8273 11.9392 30.6346 11.8612Z" fill="#020101" stroke="#020101" stroke-width="0.75" stroke-linejoin="round"/>
<path id="Vector (Stroke)" d="M32.3291 7.09005C34.2357 7.73524 35.8452 9.48023 36.1896 11.5748C37.0038 12.2078 37.6154 13.0156 38.0382 13.9143L38.0377 13.9141C38.7395 15.3997 38.8619 17.0894 38.388 18.6543L38.285 18.9654L38.2833 18.9693L38.2819 18.974C37.121 22.1608 33.8524 23.9814 30.5882 23.2326C30.5578 23.3217 30.5246 23.4116 30.4841 23.5006C30.3739 23.7424 30.235 23.9555 30.0784 24.1461C29.9985 24.6291 29.8127 25.1087 29.465 25.5327C29.1594 25.9052 28.7868 26.1634 28.3938 26.3407L25.6918 32.5073C25.9048 32.6011 26.1168 32.6945 26.3263 32.7871L26.3682 32.8053L26.4084 32.8262C26.6024 32.9257 26.8137 33.0005 27.2088 33.1603C27.5339 33.2917 28.0089 33.4916 28.427 33.7954L28.4264 33.7952C29.5108 34.5832 29.4016 35.7791 29.2614 36.3464C29.1244 36.9008 28.8226 37.4618 28.7496 37.6129L28.6636 37.8103C28.6343 37.8832 28.6019 37.9677 28.5591 38.0774C28.4887 38.258 28.3709 38.558 28.1894 38.8451C28.096 38.9928 27.9794 39.1451 27.8361 39.2912C27.8311 39.6857 27.7251 40.0901 27.4947 40.4717L27.4945 40.4722C27.4897 40.4816 27.475 40.511 27.4502 40.5693C27.4152 40.6516 27.3763 40.7523 27.3252 40.8868C27.2321 41.1315 27.0975 41.4954 26.9342 41.8361C26.7779 42.1622 26.5276 42.6168 26.1328 42.9838C25.7158 43.3713 25.0979 43.6874 24.3376 43.6166L24.1836 43.5974C23.675 43.5165 23.144 43.3081 22.7619 43.1457C22.4302 43.0047 21.8803 42.7479 21.7203 42.6779L20.9234 42.3327C20.7055 42.4928 20.4518 42.6399 20.1437 42.7693C17.4012 43.9217 14.1732 41.4069 15.0476 38.3264C15.2329 37.6738 15.6412 36.8512 15.8004 36.487L17.1496 33.3979L21.5574 23.275C21.4502 22.889 21.3995 22.4641 21.4643 22.0136C21.5383 21.4994 21.7451 21.0523 22.036 20.6708C22.0728 20.3864 22.152 20.1067 22.2795 19.8355C22.3133 19.7636 22.3498 19.6944 22.3879 19.6279C17.8297 16.3886 19.0999 9.14423 24.7581 7.76109L24.9837 7.71039C25.812 7.53928 26.5084 7.57039 27.1754 7.67003C28.7072 6.68982 30.4747 6.44818 32.3077 7.08271C32.3109 7.0838 32.3144 7.08464 32.3177 7.08573C32.3215 7.08707 32.3255 7.08814 32.3293 7.08949L32.3291 7.09005ZM34.6969 12.4326C34.7103 10.7071 33.4231 9.10033 31.8136 8.56323C30.2598 8.01973 28.8174 8.3048 27.5492 9.32241C26.6749 9.14891 26.0139 9.06163 25.1291 9.27787L24.9154 9.33449C20.494 10.5962 19.7826 16.5796 23.9624 18.7672C24.006 19.0642 24.1071 19.6005 24.2062 19.8826C23.744 20.2652 23.5033 20.6751 23.5903 21.2947C22.8934 21.8779 22.8549 22.5473 23.2411 23.3193L18.5813 34.0209L17.2311 37.1123C17.0108 37.6162 16.6964 38.2359 16.5497 38.7526C16.0595 40.4791 17.9111 42.0139 19.5386 41.3302C20.0235 41.1266 20.2583 40.8842 20.5623 40.4756L22.3456 41.2472C22.8799 41.481 23.7087 41.9019 24.3116 42.0333L24.4289 42.0558C25.4378 42.2159 25.7696 40.3072 26.158 39.6644C26.416 39.2372 26.2143 38.8093 25.8832 38.4856C26.9481 38.5006 26.9621 37.7216 27.3442 36.9327C27.5804 36.4443 28.0834 35.5576 27.5626 35.1013L27.5088 35.0585C27.0121 34.6976 26.2497 34.4996 25.6954 34.2153C25.0055 33.9104 24.3131 33.603 23.6321 33.3183L27.2443 25.0748C28.1542 24.8996 28.597 24.3733 28.5646 23.4506C29.036 23.0848 29.2116 22.6787 29.1976 22.0832C29.6398 21.9169 29.8702 21.7876 30.255 21.5068C32.8671 22.4913 35.6554 21.213 36.7176 18.6877L36.8151 18.4394C37.2381 17.2571 37.2045 15.9627 36.7269 14.8079L36.6257 14.5789C36.2783 13.8403 35.7795 13.2048 35.124 12.7258L34.9909 12.6325C34.8941 12.567 34.7909 12.5016 34.6969 12.4326ZM30.7449 11.5004C31.24 11.6925 31.4571 11.9657 31.5656 12.478C31.461 12.5256 31.3271 12.5848 31.2314 12.6451C30.881 12.8658 30.6338 13.2176 30.545 13.622C30.4467 14.0596 30.543 14.523 30.7874 14.8965C31.0287 15.2619 31.4063 15.5152 31.8359 15.6001C32.3576 15.7076 32.7382 15.5649 33.1655 15.2833C34.6206 16.3054 33.9796 18.3648 32.342 18.7125C31.8567 18.8155 31.1197 18.7362 30.8008 18.3118C30.7265 18.1967 30.6967 18.0454 30.66 17.9158C30.4089 17.0342 29.5379 16.6408 28.663 16.8329L28.601 16.8425C28.5759 16.8457 28.5529 16.8475 28.5509 16.8446L28.312 16.501C28.108 16.2172 27.963 16.0909 27.4704 15.9301C26.6101 15.6492 26.2937 16.3081 25.6272 16.1708C25.2338 16.0576 24.9113 15.7878 24.6809 15.4705L24.5881 15.3323C23.7562 13.9903 24.9196 11.9846 26.5668 12.423C26.5894 12.5928 26.6257 12.7645 26.6916 12.9231C26.8343 13.2677 27.0945 13.5486 27.4232 13.7175L27.5684 13.7827C27.9846 13.9449 28.4486 13.934 28.8565 13.7519C29.7181 13.3732 30.0654 12.5212 29.6732 11.6482C30.0793 11.4416 30.3042 11.4049 30.7449 11.5004Z" fill="#E8E7E7"/>
<path id="Vector (Stroke) (Stroke)" d="M32.66 6.23465C34.7424 6.95383 36.5112 8.79576 37.024 11.0734C37.8273 11.7652 38.4378 12.6067 38.8686 13.5219L39.0108 13.8421C39.6377 15.3463 39.7584 17.0107 39.3603 18.5844L39.2673 18.9208L39.2604 18.9426L39.1574 19.2538C39.1538 19.2651 39.1488 19.2776 39.1448 19.2887C37.9164 22.6599 34.5917 24.7004 31.1195 24.2575C31.061 24.3546 31.0008 24.4481 30.9366 24.5365C30.8152 25.0748 30.581 25.6207 30.176 26.1147C29.8579 26.5025 29.4871 26.7925 29.1029 27.0089L26.8993 32.0398C27.0252 32.0979 27.1782 32.1574 27.5529 32.3089C27.8816 32.4418 28.4502 32.6771 28.9674 33.053C28.9691 33.0542 28.9708 33.0553 28.9724 33.0565C30.3254 34.0437 30.3422 35.4724 30.2136 36.2672L30.1533 36.5671L30.0831 36.8182C29.9018 37.399 29.6194 37.925 29.5769 38.0129L29.5162 38.1521L29.4153 38.4108C29.3448 38.5915 29.1991 38.9659 28.9656 39.3353C28.8964 39.4447 28.8165 39.5552 28.7276 39.6659C28.6752 40.0797 28.5402 40.4919 28.3142 40.8841L28.3148 40.8857L28.2962 40.9284C28.2692 40.9919 28.2357 41.0768 28.1838 41.2134C28.0955 41.4456 27.9466 41.85 27.7632 42.2327C27.5901 42.5939 27.2794 43.1718 26.7582 43.6562C26.198 44.1768 25.332 44.6319 24.2521 44.5313C24.243 44.5304 24.2338 44.5296 24.2247 44.5285L24.0704 44.5082C24.0602 44.5069 24.0499 44.5056 24.0397 44.504C23.4116 44.404 22.792 44.1558 22.4033 43.9906C22.0879 43.8565 21.4529 43.5637 21.3524 43.5197L21.0049 43.3683C20.8482 43.4561 20.6804 43.54 20.4991 43.6162C17.1219 45.0346 13.0583 41.9735 14.1648 38.0755C14.3727 37.3433 14.8326 36.4098 14.9595 36.1196L20.595 23.1848C20.5172 22.7868 20.4887 22.3488 20.5557 21.8829C20.6417 21.2854 20.8622 20.7588 21.1666 20.3072C21.1927 20.1749 21.2268 20.0437 21.2678 19.9131C16.7838 16.0357 18.372 8.37649 24.5407 6.86853L24.5566 6.86502L24.7821 6.81455L24.798 6.81104C25.6166 6.64191 26.3252 6.64459 26.9753 6.71747C28.6703 5.74075 30.6136 5.52982 32.5934 6.21086C32.5844 6.20791 32.5775 6.20465 32.5732 6.20336L32.5792 6.20465C32.5832 6.20587 32.5885 6.20818 32.595 6.21024L32.5934 6.21086C32.5939 6.211 32.5997 6.21164 32.6053 6.21344C32.6115 6.21541 32.6212 6.21874 32.6326 6.22271C32.6419 6.22598 32.6508 6.2311 32.66 6.23465ZM32.3178 7.08599C32.3146 7.08491 32.3107 7.08387 32.3074 7.08279C30.4748 6.4485 28.7076 6.68979 27.176 7.66974C26.5091 7.5701 25.8123 7.53891 24.9841 7.70998L24.7582 7.76154L24.4962 7.83C19.0619 9.36953 17.9017 16.4392 22.3886 19.6279C22.3506 19.6943 22.3139 19.7633 22.2801 19.835C22.1527 20.1061 22.0729 20.3862 22.0361 20.6705C21.7452 21.0519 21.5379 21.4996 21.4639 22.0138C21.3992 22.4641 21.4501 22.8894 21.5573 23.2753L15.801 36.4875L15.4347 37.2983C15.2895 37.6311 15.1409 37.9997 15.0482 38.326C14.2012 41.3103 17.2036 43.7634 19.8854 42.8662L20.1443 42.769C20.4522 42.6396 20.7061 42.4926 20.924 42.3326L21.7203 42.6782L22.7625 43.1453C23.0968 43.2874 23.545 43.4649 23.9926 43.5613L24.1841 43.5977L24.3377 43.6164C25.098 43.6872 25.716 43.3709 26.1331 42.9834C26.4293 42.7081 26.6444 42.3837 26.7992 42.101L26.9341 41.8363C27.0158 41.6659 27.091 41.4896 27.1567 41.3255L27.3258 40.8865L27.4509 40.5693C27.4756 40.5113 27.4898 40.4817 27.4945 40.4722C27.7248 40.0908 27.8321 39.6853 27.837 39.291C27.9802 39.145 28.0961 38.992 28.1894 38.8445C28.3708 38.5575 28.4886 38.2574 28.559 38.0768C28.6017 37.9675 28.6342 37.8833 28.6633 37.8105L28.7493 37.6132C28.8224 37.4622 29.1248 36.9012 29.2619 36.3469C29.402 35.7797 29.5105 34.5835 28.4261 33.7954C28.0081 33.4916 27.5342 33.2923 27.2091 33.1608L26.7337 32.9707L26.4091 32.8266L26.3688 32.8052L26.3272 32.787L25.6923 32.5078L28.3939 26.34C28.7375 26.185 29.0657 25.9685 29.3469 25.6674L29.4657 25.5326C29.8133 25.1087 29.9991 24.6289 30.079 24.1459C30.1964 24.0029 30.3041 23.8474 30.3969 23.6766L30.484 23.5006C30.5245 23.4118 30.5584 23.3221 30.5888 23.2332C33.751 23.9584 36.9173 22.2719 38.1675 19.2686L38.2826 18.9744L38.2834 18.9695L38.2853 18.9652L38.3883 18.6539C38.8621 17.089 38.7396 15.3993 38.0378 13.9138C37.615 13.0152 37.0041 12.2078 36.1899 11.5748C35.8456 9.48026 34.2359 7.73487 32.3292 7.08967L32.3178 7.08599ZM31.8137 8.56334C33.4231 9.1004 34.7106 10.7069 34.6972 12.4323C34.7911 12.5012 34.8943 12.5665 34.9911 12.632L35.124 12.7252C35.7794 13.2041 36.279 13.84 36.6265 14.5785L36.7275 14.8077C37.2052 15.9626 37.2378 17.257 36.8149 18.4393L36.7182 18.688C35.656 21.2132 32.8674 22.4914 30.2556 21.5072L29.99 21.6915C29.7421 21.8542 29.5299 21.9588 29.1984 22.0835C29.2122 22.6789 29.0361 23.0852 28.5648 23.451C28.5971 24.3735 28.154 24.8997 27.2442 25.0748L23.6321 33.3176C24.3131 33.6024 25.0059 33.9106 25.6957 34.2154C26.25 34.4997 27.0125 34.698 27.5091 35.0589L27.5627 35.1006C28.0835 35.5569 27.5809 36.445 27.3446 36.9334L27.2155 37.2267C26.9424 37.904 26.8148 38.4985 25.8832 38.4854C26.2142 38.809 26.4166 39.2373 26.1586 39.6645C25.7702 40.3073 25.4381 42.2158 24.4293 42.0559L24.3114 42.0332L24.0762 41.9712C23.5066 41.7994 22.8138 41.452 22.3463 41.2475L20.563 40.4757L20.3431 40.7529C20.126 41.0031 19.9024 41.1772 19.5387 41.3299C17.962 41.9921 16.1758 40.5729 16.5112 38.9139L16.5504 38.7523C16.6971 38.2356 17.0109 37.6156 17.2311 37.1119L18.5818 34.0208L23.2417 23.3192C22.8555 22.5471 22.8935 21.8773 23.5905 21.2942C23.5146 20.7525 23.689 20.3709 24.0431 20.0279L24.2068 19.8827C24.1077 19.6006 24.0062 19.0637 23.9626 18.7667C19.7831 16.579 20.4943 10.5957 24.9157 9.33408L25.1291 9.27836C26.0138 9.06214 26.6751 9.14846 27.5493 9.32192C28.7382 8.36797 30.0805 8.05822 31.5239 8.471L31.8137 8.56334ZM31.078 10.6441C31.4205 10.7771 31.7485 10.9703 32.0076 11.2826C32.2646 11.5924 32.3919 11.9451 32.4645 12.2878C32.5537 12.709 32.3377 13.1357 31.9457 13.3139C31.8867 13.3407 31.8411 13.3618 31.7952 13.384C31.7736 13.3944 31.7557 13.403 31.7419 13.4104L31.7211 13.4222C31.6145 13.4893 31.5316 13.5864 31.4814 13.6999L31.4427 13.8187L31.4408 13.8231C31.401 14.0006 31.4381 14.2105 31.5549 14.3906C31.6607 14.5505 31.8256 14.6616 32.014 14.6989L32.0211 14.7007C32.218 14.7412 32.3497 14.7215 32.6609 14.5164L32.7832 14.4484C33.0766 14.3138 33.4238 14.3425 33.6937 14.532C34.7537 15.2767 35.0776 16.4501 34.8008 17.4875C34.5314 18.4972 33.7005 19.3625 32.5337 19.6106C32.1685 19.688 31.7328 19.6957 31.3201 19.6088C30.9196 19.5244 30.4112 19.3218 30.0667 18.8631C30.0537 18.8458 30.0419 18.8276 30.0301 18.8094C29.8618 18.5485 29.7843 18.1944 29.7777 18.1672L29.7321 18.0534C29.6038 17.7987 29.305 17.6326 28.8608 17.7299C28.8419 17.7341 28.8221 17.737 28.803 17.7399L28.7414 17.7496C28.7335 17.7508 28.7254 17.7525 28.7175 17.7536C28.6968 17.7562 28.6588 17.7609 28.6168 17.7632C28.5997 17.7641 28.5523 17.766 28.4946 17.7621C28.4686 17.7604 28.4046 17.7556 28.3261 17.7357C28.2861 17.7255 28.2162 17.704 28.136 17.6632C28.0621 17.6257 27.9199 17.5417 27.8021 17.3756L27.7975 17.3684L27.5663 17.0368C27.4906 16.9316 27.4721 16.9203 27.4701 16.9192C27.4576 16.9104 27.3992 16.8728 27.1855 16.803C27.0574 16.7613 27.0102 16.7696 26.8294 16.8449C26.6547 16.9178 26.1125 17.2081 25.4426 17.0702C25.4194 17.0654 25.3958 17.0595 25.3731 17.053C24.735 16.8692 24.2548 16.4471 23.9375 16.0101C23.9309 16.0011 23.9245 15.9915 23.9183 15.9822L23.8259 15.8441C23.8198 15.835 23.8136 15.826 23.8078 15.8167C23.1753 14.7963 23.3244 13.5754 23.8743 12.7152C24.4388 11.8323 25.5212 11.1941 26.804 11.5355L26.9332 11.5801C27.2256 11.707 27.4341 11.9797 27.4769 12.3022C27.4938 12.4296 27.5164 12.5144 27.5398 12.5709C27.5982 12.7118 27.7052 12.8266 27.8387 12.8967L27.9122 12.9288C28.0976 12.9981 28.3021 12.994 28.4822 12.9136L28.4874 12.9107C28.7239 12.8067 28.835 12.666 28.8812 12.5488C28.9264 12.4339 28.9417 12.26 28.8358 12.0242C28.6353 11.5775 28.8206 11.0525 29.2569 10.8303C29.4956 10.7088 29.7584 10.5958 30.0669 10.5519C30.3799 10.5073 30.6659 10.544 30.9393 10.6033L31.078 10.6441ZM30.7452 11.5009C30.3045 11.4053 30.0798 11.4419 29.6739 11.6485C30.0657 12.5212 29.7181 13.3726 28.8569 13.7512C28.449 13.9333 27.9852 13.9444 27.569 13.7823L27.4237 13.7177C27.0951 13.5488 26.8352 13.2675 26.6925 12.923C26.6266 12.7644 26.5901 12.5923 26.5675 12.4225C24.9203 11.9841 23.7568 13.9905 24.5888 15.3326L24.6812 15.4707C24.8827 15.7482 25.1547 15.9894 25.483 16.1213L25.627 16.171C26.2935 16.3082 26.6105 15.6487 27.4709 15.9295C27.9634 16.0904 28.1084 16.2171 28.3123 16.501L28.5511 16.845L28.6019 16.8423L28.6635 16.8326C29.5382 16.6406 30.4097 17.034 30.6609 17.9155C30.6975 18.045 30.7269 18.1967 30.8012 18.3118C31.1201 18.7362 31.8569 18.8148 32.3421 18.7119C33.9798 18.3642 34.6208 16.305 33.1657 15.2829C32.7385 15.5644 32.3581 15.7072 31.8367 15.5999C31.4608 15.5256 31.1242 15.3229 30.8843 15.0285L30.7879 14.8965C30.5742 14.5697 30.4733 14.1741 30.5173 13.7872L30.545 13.6219C30.6227 13.2681 30.8221 12.9546 31.1053 12.7339L31.2313 12.6453C31.2792 12.6151 31.3368 12.5846 31.3953 12.5563L31.5663 12.4782C31.4578 11.9659 31.2401 11.693 30.7452 11.5009ZM19.4237 34.3876L18.0726 37.4798C17.8161 38.0664 17.5574 38.567 17.4333 39.0039C17.1698 39.9339 18.2118 40.8919 19.1834 40.4838L19.3656 40.3949C19.527 40.3007 19.6388 40.1795 19.8261 39.9277L19.9296 39.8098C20.1927 39.5595 20.5853 39.4847 20.9276 39.6328L22.7109 40.4046L22.7142 40.406C22.857 40.4685 23.0185 40.5428 23.1762 40.6151C23.338 40.6893 23.5026 40.7645 23.6671 40.8355C23.9938 40.9766 24.2732 41.0796 24.48 41.1284C24.5329 41.0653 24.6086 40.9521 24.6985 40.7644C24.807 40.5381 24.9007 40.2851 25.007 40.0054C25.0916 39.7831 25.2036 39.49 25.3363 39.2527C25.316 39.2227 25.2847 39.1848 25.241 39.1421C24.9727 38.8795 24.8909 38.4795 25.0351 38.1328C25.1793 37.7859 25.5212 37.5625 25.8969 37.5678C26.0024 37.5693 26.0537 37.5558 26.0716 37.55C26.076 37.5448 26.084 37.5354 26.0941 37.5194C26.1336 37.4568 26.1766 37.3613 26.2489 37.176C26.3124 37.0133 26.4019 36.7713 26.5175 36.5326L26.7161 36.1247C26.7785 35.9874 26.8235 35.8689 26.8499 35.7696C26.8537 35.7552 26.8543 35.7414 26.8569 35.7296C26.7156 35.6461 26.5273 35.5599 26.2793 35.4597C26.0139 35.3524 25.6414 35.2116 25.325 35.0543C24.6321 34.7482 23.949 34.4456 23.2784 34.1653C23.0513 34.0703 22.8715 33.8884 22.7799 33.6598C22.6884 33.4313 22.6919 33.1752 22.7906 32.9497L26.4033 24.7058C26.5246 24.4292 26.7747 24.2296 27.0713 24.1725C27.3911 24.1109 27.5062 24.012 27.5485 23.9604C27.5875 23.9125 27.6578 23.7918 27.647 23.4828C27.6366 23.1881 27.7688 22.9066 28.0017 22.7256C28.1478 22.6122 28.2019 22.5298 28.2282 22.4721C28.256 22.4111 28.2847 22.3073 28.28 22.1047C28.2709 21.7144 28.5096 21.3614 28.875 21.224C29.2322 21.0896 29.39 21.0016 29.7141 20.7652L29.8115 20.7033C30.0453 20.5741 30.3257 20.5522 30.5792 20.6477C32.7051 21.449 34.9787 20.4257 35.8629 18.3519L35.9503 18.1304L36.0632 17.7635C36.2844 16.8999 36.2199 15.9857 35.878 15.1589L35.7951 14.9689C35.5063 14.3552 35.101 13.8464 34.5827 13.4676L34.4637 13.3844C34.3946 13.3381 34.2589 13.2495 34.1542 13.1727C33.9164 12.9981 33.7772 12.72 33.7795 12.425C33.7893 11.1425 32.7995 9.86046 31.5229 9.43445L31.5103 9.4303C30.2703 8.99666 29.1574 9.20914 28.1242 10.0381C27.9126 10.2078 27.6364 10.2763 27.3703 10.2235C26.5364 10.0581 26.0345 10.0023 25.347 10.1703L25.3464 10.1687L25.1674 10.2172C21.6403 11.2239 20.998 15.8561 24.0784 17.7763L24.3887 17.9532L24.4827 18.0099C24.6921 18.1536 24.8334 18.3796 24.8708 18.6341C24.9134 18.9247 25.005 19.3849 25.0727 19.5778C25.2002 19.9406 25.0883 20.345 24.792 20.5903C24.62 20.7326 24.553 20.8294 24.524 20.8909C24.5021 20.9377 24.4783 21.0121 24.5001 21.1674C24.544 21.4813 24.4224 21.796 24.1793 21.9994C23.9639 22.1798 23.928 22.3024 23.9187 22.3672C23.9064 22.4532 23.9177 22.6193 24.0624 22.9085C24.1841 23.1518 24.1922 23.4366 24.0836 23.686L19.4237 34.3876Z" fill="#020101"/>
<path id="Vector_2" d="M27.7488 10.4849C27.9988 10.286 28.1841 10.0887 28.4654 9.89552C29.2025 9.38926 30.0494 9.23187 30.9228 9.38936C31.824 9.54333 32.6247 10.0549 33.1428 10.8077C33.6165 11.3991 33.7407 12.362 33.6823 13.0957C34.7355 13.5966 35.4479 14.275 35.8482 15.3922C36.2103 16.4024 36.1514 17.5155 35.6848 18.4818C35.2143 19.4803 34.3581 20.245 33.3125 20.6007C32.1852 20.9928 31.2099 20.8561 30.1581 20.3393C30.1387 20.3299 30.1195 20.3202 30.1005 20.3101C29.4285 20.9785 28.8238 21.3008 27.8363 21.2955C27.5807 21.2924 27.326 21.2663 27.0751 21.2176C27.453 21.4471 28.0083 21.811 28.1606 22.2558C28.2424 22.4949 28.0553 22.6535 27.8279 22.6841C26.9634 22.8003 26.0516 22.4368 25.3496 21.9549C25.062 21.7564 24.7063 21.4389 24.6193 21.0884C24.5754 20.9117 24.6946 20.8282 24.8355 20.7688C24.9824 20.7381 25.0693 20.7371 25.217 20.7313C25.5814 20.6929 26.0636 20.8229 26.4059 20.9273C25.3362 20.1063 24.952 19.4093 25.0024 18.0712C24.0518 17.7397 23.3046 17.2377 22.7837 16.3519C22.5494 15.9534 22.2584 15.2535 22.2638 14.7851C22.1958 14.0782 22.22 13.5455 22.4553 12.8632C22.8048 11.8596 23.5407 11.037 24.4996 10.5777C25.592 10.0527 26.6354 10.096 27.7488 10.4849ZM29.6745 11.6555C30.0668 12.5281 29.7193 13.3793 28.8574 13.7577C28.4495 13.9397 27.9855 13.951 27.5692 13.7889C27.1722 13.6336 26.8556 13.3233 26.6924 12.9297C26.6265 12.7711 26.59 12.5994 26.5675 12.4296C24.9199 11.9914 23.7562 13.996 24.5884 15.3373C24.8212 15.7125 25.1782 16.0464 25.6277 16.1756C26.2945 16.3128 26.6107 15.6543 27.4713 15.935C28.1283 16.1494 28.1668 16.3024 28.5518 16.8491C28.5559 16.8549 28.6436 16.8415 28.664 16.8372C29.5393 16.6451 30.4106 17.0384 30.6617 17.9199C30.6984 18.0495 30.7282 18.2005 30.8026 18.3156C31.1215 18.7398 31.8585 18.8189 32.3439 18.716C33.9819 18.3685 34.6231 16.3103 33.1677 15.2887C32.7403 15.5701 32.3596 15.7127 31.8379 15.6053C31.4081 15.5204 31.0304 15.267 30.789 14.9016C30.5445 14.5282 30.4481 14.0653 30.5464 13.628C30.6353 13.2238 30.8824 12.872 31.2329 12.6514C31.3287 12.5911 31.4626 12.532 31.5672 12.4845C31.4587 11.9724 31.2417 11.6998 30.7465 11.5077C30.3056 11.4122 30.0807 11.4489 29.6745 11.6555Z" fill="#8FB7B3"/>
<path id="Vector_3" d="M27.7488 10.4849C27.9988 10.286 28.1841 10.0887 28.4654 9.89552C29.2025 9.38926 30.0494 9.23187 30.9228 9.38936C31.824 9.54333 32.6247 10.0549 33.1428 10.8077C32.958 10.7227 32.6389 10.4157 32.4376 10.2872C31.5618 9.72269 30.479 9.58029 29.4869 9.8991C29.1593 10.0025 28.9779 10.103 28.6983 10.2696C28.5294 10.3702 28.0049 10.8705 27.8915 10.8713C27.6592 10.8731 27.1085 10.6817 26.811 10.6414C25.1596 10.4178 23.5837 11.3362 22.8545 12.8153C22.6693 13.1908 22.5052 13.576 22.4067 13.9862C22.3637 14.1655 22.3215 14.6615 22.2638 14.7851C22.1958 14.0782 22.22 13.5455 22.4553 12.8632C22.8048 11.8596 23.5407 11.037 24.4996 10.5777C25.592 10.0527 26.6354 10.096 27.7488 10.4849Z" fill="#E8E7E7"/>
<path id="Vector_4" d="M25.2171 20.7313C25.3839 21.1508 26.018 21.4654 26.0493 21.6414C25.8826 21.6641 25.3785 21.3347 25.2338 21.2274C25.0576 21.0968 24.9304 20.969 24.8355 20.7688C24.9824 20.7381 25.0694 20.7372 25.2171 20.7313Z" fill="#E8E7E7"/>
<path id="Vector_5" d="M31.1664 10.5793C32.0303 10.9629 32.5273 11.5057 32.6377 12.4832C32.7616 13.5794 31.4624 13.2285 31.5615 14.0243C31.5892 14.232 31.703 14.4185 31.8754 14.5381C32.2738 14.8203 32.5981 14.3099 32.9674 14.2532C33.2784 14.2086 33.6922 14.3986 33.9383 14.5801C35.1801 15.4961 35.3374 17.2701 34.4488 18.4871C33.9684 19.1449 33.2717 19.5975 32.472 19.7435C31.5584 19.9101 30.3274 19.624 29.8459 18.7602C29.7035 18.4396 29.7667 18.1267 29.4316 17.9068C28.8829 17.5468 28.3209 18.1769 28.4552 18.7323C28.5482 19.117 28.8987 19.3581 29.2158 19.5581C28.6342 19.7175 28.1159 19.6566 27.5533 19.4761C26.9458 19.2331 26.4423 18.7856 26.1299 18.2111C26.1924 18.228 26.2553 18.2435 26.3186 18.2576C26.8845 18.3877 27.5269 18.3249 27.6428 17.6278C27.6719 17.4591 27.6305 17.2858 27.5282 17.1486C27.1244 16.6144 26.6436 17.0924 26.2663 17.2053C25.4358 17.454 24.3414 16.7704 23.8751 16.1088C23.3927 15.4384 23.2007 14.602 23.3425 13.7886C23.6116 12.2767 25.0074 11.098 26.59 11.3786C27.0685 11.476 27.5386 11.6781 27.6063 12.2259C27.6417 12.5125 27.7461 12.818 28.077 12.8534C28.52 12.9008 28.951 12.5528 28.7744 12.0896C28.5299 11.4486 28.5124 11.2219 29.1218 10.7954C29.7544 10.3707 30.4628 10.3334 31.1664 10.5793ZM29.6741 11.6555C30.0664 12.528 29.7189 13.3793 28.8571 13.7577C28.4491 13.9397 27.9852 13.951 27.5688 13.7889C27.1718 13.6335 26.8552 13.3233 26.692 12.9296C26.6261 12.7711 26.5897 12.5994 26.5671 12.4296C24.9195 11.9914 23.7559 13.996 24.588 15.3373C24.8208 15.7125 25.1778 16.0463 25.6274 16.1756C26.2941 16.3128 26.6104 15.6542 27.4709 15.935C28.1279 16.1493 28.1664 16.3024 28.5514 16.8491C28.5556 16.8549 28.6432 16.8415 28.6637 16.8372C29.5389 16.6451 30.4103 17.0384 30.6613 17.9199C30.6981 18.0495 30.7278 18.2005 30.8022 18.3156C31.1212 18.7398 31.8582 18.8188 32.3435 18.716C33.9815 18.3684 34.6227 16.3103 33.1673 15.2887C32.7399 15.5701 32.3593 15.7127 31.8375 15.6053C31.4077 15.5204 31.03 15.267 30.7886 14.9016C30.5442 14.5282 30.4478 14.0653 30.546 13.628C30.6349 13.2238 30.8821 12.872 31.2326 12.6514C31.3283 12.5911 31.4622 12.532 31.5668 12.4845C31.4583 11.9724 31.2414 11.6997 30.7462 11.5077C30.3053 11.4122 30.0804 11.4489 29.6741 11.6555Z" fill="#020101"/>
<path id="Vector_6" d="M24.3057 23.4413C24.7118 23.6557 25.1112 23.8779 25.5173 24.0918C25.778 24.2291 26.0992 24.3433 26.3497 24.4863C26.1507 24.9619 25.9464 25.4352 25.7373 25.9062L21.7373 35.093L20.4433 38.0571C20.2736 38.4489 19.9688 39.2207 19.7863 39.5707C19.1417 39.5277 18.6132 39.3698 18.0772 39.0025C17.9115 38.874 17.8201 38.8012 17.6744 38.6531C17.8784 38.1219 18.1906 37.4553 18.4243 36.9186L19.8814 33.5779L24.0446 24.045L24.3057 23.4413Z" fill="#8FB7B3"/>
<path id="Vector_7" d="M24.0445 24.045C24.2275 24.1 24.3662 24.1555 24.5323 24.2537C24.1525 24.9888 23.7216 26.057 23.3851 26.8293L21.4458 31.2755L19.1966 36.4293C18.8563 37.2084 18.3755 38.2248 18.077 39.0026C17.9114 38.874 17.82 38.8013 17.6742 38.6532C17.8782 38.122 18.1904 37.4553 18.4241 36.9187L19.8813 33.5779L24.0445 24.045Z" fill="#E8E7E7"/>
<path id="Vector_8" d="M24.3057 23.4413C24.7117 23.6557 25.1111 23.8779 25.5172 24.0918C25.7779 24.2291 26.0991 24.3432 26.3497 24.4863C26.1506 24.9619 25.9463 25.4352 25.7372 25.9062C25.5599 25.098 25.3099 24.6137 24.5324 24.2537C24.3663 24.1555 24.2276 24.0999 24.0446 24.045L24.3057 23.4413Z" fill="#287271"/>
<path id="Vector_9" d="M22.9448 34.1564C24.1426 34.6771 25.5538 35.2491 26.7195 35.8024C26.6183 36.0388 26.1237 37.3196 25.9344 37.4325C25.7272 37.5559 24.4514 36.6335 24.3104 36.9894C24.2149 37.2304 23.6704 38.3314 23.7041 38.5148C23.924 38.876 25.2906 39.033 25.1409 39.404C25.0481 39.6339 24.5817 40.8099 24.4369 40.9549C24.2625 40.9843 21.1169 39.5635 20.6642 39.3699L20.3083 39.2072L21.066 37.445C21.2908 37.5365 21.514 37.6323 21.7354 37.7322C22.3131 37.9892 22.2874 37.9235 22.5669 37.2953C22.679 37.0437 22.9621 36.5171 22.9314 36.2467C22.9217 36.1608 22.6707 36.064 22.5835 36.0266C22.3396 35.9513 22.0714 35.8132 21.8385 35.7012C22.077 35.1347 22.3333 34.5616 22.5788 33.9968L22.9448 34.1564Z" fill="#8FB7B3"/>
<path id="Vector_10" d="M21.0661 37.445C21.2909 37.5365 21.5141 37.6323 21.7356 37.7322C21.6242 37.6968 21.5358 37.6694 21.4271 37.6243L20.6644 39.37L20.3084 39.2073L21.0661 37.445Z" fill="#287271"/>
<path id="Vector_11" d="M22.5785 33.9968L22.9445 34.1564L22.1969 35.8515C22.3061 35.8993 22.4853 35.972 22.5832 36.0266C22.3393 35.9513 22.0711 35.8132 21.8382 35.7012C22.0767 35.1347 22.333 34.5616 22.5785 33.9968Z" fill="#287271"/>
<path id="Vector_12" d="M24.7083 22.1925C25.4654 22.3429 26.9054 22.9707 27.4721 23.5534C27.6402 23.7262 27.5231 23.9342 27.3138 24.0332C26.8538 24.2506 26.3027 24.1221 25.8392 23.9763C25.1613 23.7435 24.4067 23.371 24.0692 22.7028C23.9691 22.5045 23.9447 22.2619 24.2152 22.1912C24.4094 22.1457 24.5158 22.1657 24.7083 22.1925Z" fill="#8FB7B3"/>
<path id="Vector_13" d="M24.7079 22.1924C24.9639 22.4692 25.2089 22.629 25.5281 22.8299C25.6566 22.9108 25.8253 23.0068 25.9312 23.1103L25.9205 23.1246C25.4741 23.0728 24.5132 22.5418 24.2148 22.1911C24.409 22.1457 24.5155 22.1657 24.7079 22.1924Z" fill="#E8E7E7"/>
<path id="Vector_14" d="M19.479 40.0532L19.5144 40.0758C19.4818 40.1768 19.3105 40.2784 19.2164 40.33C18.9524 40.4748 18.6405 40.5043 18.3542 40.4115C17.9881 40.2966 17.7917 40.0703 17.619 39.7493C17.5356 39.5525 17.5216 39.3998 17.5005 39.1907C18.0456 39.6106 18.8112 39.9101 19.479 40.0532Z" fill="#8FB7B3"/>
</g>
<path id="Union" d="M26.975 6.71724C28.67 5.74053 30.6133 5.52937 32.5931 6.2104C32.5841 6.20745 32.5769 6.20486 32.5726 6.20357L32.5785 6.20455C32.5826 6.20577 32.5886 6.20834 32.5951 6.2104H32.5931C32.5937 6.21055 32.5993 6.21157 32.6048 6.21333C32.611 6.21529 32.6209 6.21817 32.6322 6.22212C32.6415 6.22539 32.6503 6.23126 32.6595 6.23482C34.7417 6.95395 36.5108 8.79525 37.0238 11.0727C37.8271 11.7645 38.4377 12.6068 38.8685 13.5219L39.0101 13.8422C39.6369 15.3464 39.7577 17.0108 39.3597 18.5844L39.267 18.9204L39.2601 18.9418L39.1566 19.2534C39.153 19.2646 39.1489 19.2774 39.1449 19.2885C37.9166 22.6596 34.5916 24.6999 31.1195 24.2573C31.061 24.3544 31.0001 24.4481 30.9359 24.5366C30.8145 25.0747 30.5801 25.6208 30.1752 26.1147C29.8573 26.5022 29.4868 26.792 29.1029 27.0083L26.8988 32.0395C27.0247 32.0977 27.1776 32.1576 27.5521 32.309C27.8808 32.4419 28.4499 32.6773 28.9672 33.0532C28.9687 33.0543 28.9705 33.055 28.972 33.0561C30.325 34.0434 30.3419 35.4722 30.2132 36.267L30.1527 36.5669L30.0824 36.8178C29.9011 37.3987 29.6191 37.9252 29.5765 38.0131L29.516 38.1518L29.4154 38.4106C29.3449 38.5914 29.1987 38.9661 28.9652 39.3354C28.8961 39.4447 28.8158 39.5549 28.7269 39.6655C28.6746 40.0793 28.5398 40.492 28.3138 40.8842L28.3148 40.8852L28.2963 40.9282C28.2693 40.9917 28.2349 41.0768 28.183 41.2133C28.0946 41.4456 27.9464 41.8503 27.763 42.2329C27.5899 42.594 27.2791 43.1715 26.7582 43.6557C26.1979 44.1763 25.3312 44.6313 24.2513 44.5307C24.2423 44.5299 24.233 44.5289 24.224 44.5278L24.0697 44.5083C24.0595 44.507 24.0495 44.505 24.0394 44.5034C23.4113 44.4034 22.7914 44.1558 22.4027 43.9907C22.0872 43.8566 21.4523 43.563 21.3519 43.519L21.0043 43.3676C20.8476 43.4555 20.6797 43.5395 20.4984 43.6157C17.1214 45.0339 13.0584 41.9734 14.1644 38.0756C14.3723 37.3436 14.8323 36.41 14.9593 36.1196L20.5951 23.184C20.5173 22.7861 20.4881 22.3481 20.555 21.8823C20.641 21.2849 20.8621 20.7585 21.1664 20.3071C21.1925 20.1747 21.2269 20.0431 21.2679 19.9126C16.7839 16.0352 18.3717 8.3766 24.5404 6.86861L24.556 6.8647L24.7816 6.81392L24.7972 6.81099C25.6158 6.64187 26.3249 6.64435 26.975 6.71724ZM23.5228 43.4311C23.5875 43.4519 23.653 43.4721 23.7191 43.4907C23.653 43.4721 23.5876 43.4519 23.5228 43.4311ZM23.1625 43.3051C23.2331 43.332 23.3057 43.3594 23.3802 43.3852C23.3057 43.3594 23.2331 43.332 23.1625 43.3051ZM21.7201 42.6782L22.7621 43.145L21.7201 42.6772L20.9232 42.3325L21.7201 42.6782ZM18.6068 43.0512C18.6471 43.0526 18.6875 43.0512 18.7279 43.0512C18.6875 43.0512 18.6471 43.0526 18.6068 43.0512ZM18.8539 43.0512C18.8968 43.0498 18.9397 43.0454 18.9828 43.0424C18.9397 43.0454 18.8968 43.0498 18.8539 43.0512ZM18.3646 43.0346C18.3763 43.0358 18.388 43.0365 18.3998 43.0376C18.388 43.0365 18.3763 43.0358 18.3646 43.0346ZM19.1185 43.0327C19.1371 43.0307 19.1556 43.0271 19.1742 43.0249C19.1556 43.0271 19.1371 43.0307 19.1185 43.0327ZM18.1068 42.9995C18.1295 43.0033 18.1523 43.0068 18.1752 43.0102C18.1523 43.0068 18.1295 43.0033 18.1068 42.9995ZM17.8519 42.9467C17.8837 42.9544 17.9156 42.9614 17.9476 42.9682C17.9156 42.9614 17.8837 42.9544 17.8519 42.9467ZM26.1937 42.9223C26.2126 42.9036 26.2312 42.8847 26.2494 42.8657C26.2312 42.8848 26.2126 42.9036 26.1937 42.9223ZM17.6009 42.8774C17.6453 42.8913 17.6899 42.9042 17.7347 42.9165C17.6899 42.9042 17.6453 42.8913 17.6009 42.8774ZM17.3754 42.7993C17.4119 42.8132 17.4487 42.8265 17.4857 42.8393C17.4487 42.8265 17.4119 42.8132 17.3754 42.7993ZM26.3002 42.812C26.3222 42.7877 26.3427 42.7624 26.3636 42.7377C26.3427 42.7624 26.3222 42.7877 26.3002 42.812ZM17.1459 42.7036C17.1747 42.7167 17.2037 42.7292 17.2328 42.7417C17.2037 42.7292 17.1747 42.7167 17.1459 42.7036ZM16.9154 42.5903C16.9472 42.6073 16.9798 42.6229 17.0121 42.6391C16.9798 42.6229 16.9472 42.6073 16.9154 42.5903ZM16.6927 42.4604C16.7276 42.4821 16.7627 42.5033 16.7982 42.5239C16.7627 42.5033 16.7276 42.4821 16.6927 42.4604ZM16.4877 42.3237C16.5224 42.3484 16.5576 42.3724 16.5931 42.396C16.5576 42.3724 16.5224 42.3484 16.4877 42.3237ZM26.9339 41.8354C26.8591 41.9916 26.7606 42.1762 26.6371 42.3676C26.6963 42.276 26.7519 42.1874 26.7992 42.101L26.9339 41.8364V41.8354ZM16.2992 42.1811C16.3243 42.2013 16.3497 42.2211 16.3754 42.2407C16.3497 42.2211 16.3243 42.2013 16.2992 42.1811ZM16.099 42.0102C16.1263 42.0353 16.154 42.0601 16.182 42.0844C16.154 42.0601 16.1263 42.0353 16.099 42.0102ZM15.9007 41.8139C15.9367 41.8521 15.9736 41.8895 16.0111 41.9262C15.9736 41.8895 15.9367 41.8521 15.9007 41.8139ZM15.7523 41.6469C15.7796 41.6795 15.807 41.712 15.8353 41.7436C15.807 41.712 15.7796 41.6795 15.7523 41.6469ZM27.4496 40.5688C27.4146 40.651 27.3766 40.752 27.3255 40.8862L27.4505 40.5688C27.4752 40.5109 27.4897 40.4816 27.4945 40.4721C27.4897 40.4816 27.4743 40.5107 27.4496 40.5688ZM15.6058 41.4604C15.6251 41.4866 15.6444 41.5128 15.6644 41.5385C15.6444 41.5128 15.6252 41.4866 15.6058 41.4604ZM19.5384 41.3295C19.4764 41.3556 19.4135 41.3772 19.3509 41.3969C19.3622 41.3934 19.3739 41.3909 19.3851 41.3872L19.3959 41.3833C19.4435 41.3671 19.4911 41.3494 19.5384 41.3295ZM15.4603 41.2475C15.4778 41.275 15.4949 41.3026 15.513 41.3295C15.4949 41.3026 15.4778 41.275 15.4603 41.2475ZM15.3246 41.0161C15.3441 41.0524 15.3634 41.0888 15.3841 41.1245C15.3634 41.0888 15.3441 41.0524 15.3246 41.0161ZM15.2172 40.7993C15.2341 40.8366 15.2507 40.874 15.2689 40.9106C15.2507 40.874 15.2341 40.8366 15.2172 40.7993ZM15.1175 40.5551C15.133 40.5974 15.1483 40.6396 15.1654 40.6811C15.1483 40.6396 15.133 40.5974 15.1175 40.5551ZM15.0404 40.3198C15.0533 40.3643 15.0659 40.4088 15.0804 40.4526C15.0659 40.4088 15.0533 40.3643 15.0404 40.3198ZM14.9711 40.0346C14.9822 40.0904 14.9935 40.1459 15.0072 40.2006C14.9935 40.1459 14.9822 40.0904 14.9711 40.0346ZM27.8295 39.4389C27.8256 39.4886 27.821 39.5385 27.8138 39.5883C27.8282 39.4888 27.8351 39.3892 27.8363 39.2905L27.8295 39.4389ZM14.932 39.7983C14.9385 39.8487 14.9449 39.899 14.9535 39.9487C14.9449 39.899 14.9385 39.8487 14.932 39.7983ZM14.9105 39.5629C14.9131 39.6064 14.9141 39.6498 14.9183 39.6928C14.9141 39.6498 14.9131 39.6064 14.9105 39.5629ZM16.5492 38.7524C16.5433 38.7732 16.5388 38.7942 16.5336 38.8149C16.539 38.7941 16.5442 38.7732 16.5502 38.7524C16.5685 38.6879 16.5886 38.6215 16.6117 38.5542C16.5886 38.6215 16.5675 38.6878 16.5492 38.7524ZM29.3099 36.1069C29.2957 36.195 29.2786 36.2755 29.2611 36.3461C29.2439 36.4156 29.225 36.4853 29.2035 36.5542C29.225 36.4856 29.244 36.4162 29.2611 36.3471C29.2786 36.2763 29.2957 36.1953 29.3099 36.1069ZM21.4369 22.5092C21.4403 22.6163 21.4491 22.7216 21.4632 22.8247C21.4703 22.8766 21.4782 22.9281 21.4877 22.979C21.5065 23.0799 21.5303 23.1786 21.557 23.2749L15.8002 36.4868L17.1498 33.3979L21.557 23.2749C21.49 23.0335 21.4453 22.7768 21.4369 22.5083V22.5092ZM28.8754 26.0688C28.8923 26.0572 28.9093 26.0457 28.9261 26.0336C28.9093 26.0457 28.8923 26.0572 28.8754 26.0688ZM28.9906 25.9868C29.0116 25.9709 29.0315 25.9535 29.0521 25.937C29.0315 25.9535 29.0116 25.9709 28.9906 25.9868ZM29.1097 25.8901C29.1313 25.8718 29.153 25.8535 29.1742 25.8344C29.153 25.8535 29.1313 25.8718 29.1097 25.8901ZM29.347 25.6665C29.3251 25.69 29.3022 25.7123 29.2797 25.7348C29.302 25.7125 29.3253 25.6908 29.347 25.6674L29.4652 25.5327L29.347 25.6665ZM29.8724 24.8608C29.8225 24.9775 29.7642 25.0924 29.6966 25.2045C29.7642 25.0924 29.8225 24.9775 29.8724 24.8608ZM29.9974 24.5063H29.9984H29.9974ZM30.222 23.9526C30.2388 23.9287 30.2557 23.9049 30.2718 23.8803C30.2557 23.9049 30.2388 23.9287 30.222 23.9526ZM30.4838 23.5004C30.4563 23.5607 30.4277 23.6195 30.3968 23.6762L30.4838 23.5004C30.5242 23.4116 30.5579 23.3217 30.5882 23.2329C30.8934 23.3028 31.1988 23.3494 31.5023 23.3754C31.1987 23.3494 30.8935 23.3019 30.5882 23.2319C30.5579 23.3209 30.5243 23.4115 30.4838 23.5004ZM31.8226 23.395C31.9176 23.3984 32.0123 23.3996 32.1068 23.3989C32.0123 23.3996 31.9176 23.3984 31.8226 23.395ZM32.6966 23.3676C32.5073 23.3863 32.3165 23.397 32.1244 23.3989C32.3165 23.397 32.5073 23.3863 32.6966 23.3676ZM31.5189 23.3764C31.6142 23.3844 31.7092 23.3903 31.8041 23.394C31.7092 23.3903 31.6142 23.3844 31.5189 23.3764ZM33.2757 23.2836C33.0981 23.3175 32.9187 23.3447 32.7377 23.3637C32.9187 23.3447 33.0981 23.3175 33.2757 23.2836ZM33.3011 23.2788C33.3866 23.2621 33.4715 23.2441 33.556 23.2241C33.4715 23.2441 33.3866 23.2621 33.3011 23.2788ZM33.6566 23.1987C33.7114 23.1848 33.7663 23.171 33.8207 23.1557C33.7663 23.171 33.7114 23.1848 33.6566 23.1987ZM33.9476 23.1176C34.0055 23.1 34.0632 23.0821 34.1205 23.0629C34.0632 23.0821 34.0055 23.1001 33.9476 23.1176ZM34.1918 23.0385C34.2599 23.0149 34.3276 22.9902 34.3949 22.9643C34.3276 22.9902 34.2599 23.0149 34.1918 23.0385ZM34.4681 22.936C34.5373 22.9084 34.606 22.8799 34.6742 22.8501C34.606 22.8799 34.5373 22.9084 34.4681 22.936ZM34.7308 22.8247C34.7948 22.7959 34.8582 22.7657 34.9213 22.7348C34.8582 22.7657 34.7948 22.7959 34.7308 22.8247ZM35.0072 22.6919C35.0676 22.6612 35.1274 22.6296 35.1869 22.5971C35.1274 22.6296 35.0676 22.6612 35.0072 22.6919ZM35.2582 22.5581C35.3117 22.5279 35.3647 22.4969 35.4173 22.4653C35.3647 22.4969 35.3117 22.528 35.2582 22.5581ZM35.5316 22.395C35.5782 22.3657 35.6243 22.3356 35.6703 22.3051C35.6243 22.3356 35.5782 22.3657 35.5316 22.395ZM35.7591 22.2465C35.8174 22.2065 35.8749 22.1654 35.932 22.1235C35.8749 22.1654 35.8174 22.2065 35.7591 22.2465ZM21.6 21.4633C21.5374 21.6373 21.491 21.8206 21.4632 22.0131H21.4642C21.4919 21.8206 21.5375 21.6372 21.6 21.4633ZM36.0004 22.0717C36.0425 22.0399 36.0839 22.007 36.1254 21.9741C36.0839 22.007 36.0425 22.0399 36.0004 22.0717ZM36.2416 21.8823C36.2851 21.8462 36.3278 21.8092 36.3705 21.7719C36.3278 21.8092 36.2851 21.8462 36.2416 21.8823ZM36.4623 21.6909C36.5013 21.6555 36.5392 21.6188 36.5775 21.5825C36.5392 21.6188 36.5013 21.6555 36.4623 21.6909ZM36.6654 21.4975C36.7098 21.4538 36.754 21.4098 36.7972 21.3647C36.754 21.4098 36.7098 21.4538 36.6654 21.4975ZM36.8734 21.2846C36.9091 21.2461 36.944 21.2068 36.9789 21.1674C36.944 21.2068 36.9091 21.2461 36.8734 21.2846ZM37.0707 21.062C37.1258 20.997 37.1799 20.931 37.2328 20.8637C37.1799 20.931 37.1258 20.997 37.0707 21.062ZM37.2425 20.851C37.2888 20.7918 37.3338 20.7314 37.3783 20.6704C37.3338 20.7314 37.2888 20.7918 37.2425 20.851ZM37.4398 20.5864C37.4777 20.5326 37.5137 20.4774 37.5502 20.4223C37.5137 20.4774 37.4777 20.5326 37.4398 20.5864ZM37.89 19.854C37.7984 20.0264 37.6995 20.1931 37.5951 20.3549C37.6995 20.1931 37.7984 20.0264 37.89 19.854ZM22.1927 20.0395C22.2186 19.9709 22.2479 19.903 22.2797 19.8354V19.8344C22.2478 19.9022 22.2187 19.9707 22.1927 20.0395ZM38.2816 18.9741C38.2594 19.035 38.235 19.0948 38.2113 19.1547L38.2826 18.9741V18.9711L38.2816 18.9741ZM20.4369 17.4614C20.4506 17.4862 20.4647 17.5109 20.4789 17.5356C20.4647 17.5109 20.4507 17.4862 20.4369 17.4614ZM20.3314 17.2622C20.3494 17.2975 20.3683 17.3325 20.3871 17.3676C20.3683 17.3325 20.3494 17.2975 20.3314 17.2622ZM19.8959 16.1723C19.909 16.2164 19.9228 16.2603 19.9369 16.3042C19.9228 16.2603 19.909 16.2164 19.8959 16.1723ZM19.8382 15.9653C19.8477 16.0015 19.8574 16.0376 19.8675 16.0737C19.8574 16.0376 19.8477 16.0015 19.8382 15.9653ZM19.7367 15.5112C19.7445 15.5526 19.7525 15.5939 19.7611 15.6352C19.7525 15.5939 19.7445 15.5526 19.7367 15.5112ZM19.6234 14.4086C19.6238 14.4285 19.6238 14.4484 19.6244 14.4682C19.6238 14.4484 19.6238 14.4285 19.6234 14.4086ZM37.8705 13.5815C37.8869 13.612 37.9014 13.6435 37.9173 13.6743C37.8443 13.5332 37.7678 13.3939 37.6849 13.2583L37.8705 13.5815ZM19.6625 13.5317C19.661 13.5447 19.6599 13.5577 19.6586 13.5708C19.6599 13.5577 19.661 13.5447 19.6625 13.5317ZM37.2601 12.645V12.644V12.645ZM19.9418 12.2133C19.938 12.2251 19.9337 12.2367 19.93 12.2485C19.9337 12.2367 19.938 12.2251 19.9418 12.2133ZM20.1039 11.7553C20.0954 11.7767 20.0877 11.7984 20.0795 11.8198C20.0877 11.7984 20.0954 11.7767 20.1039 11.7553ZM20.2123 11.5004C20.1907 11.5488 20.1692 11.5971 20.1488 11.646C20.1692 11.5971 20.1907 11.5488 20.2123 11.5004ZM20.5297 10.8784C20.5001 10.9295 20.4709 10.9808 20.4427 11.0327C20.4709 10.9808 20.5001 10.9295 20.5297 10.8784ZM21.9925 9.13814C21.9567 9.16809 21.9212 9.19835 21.8861 9.22896C21.9212 9.19835 21.9567 9.16809 21.9925 9.13814ZM23.263 8.30708C22.8945 8.49172 22.5524 8.70483 22.2377 8.94283C22.5524 8.70485 22.8945 8.4917 23.263 8.30708ZM24.4955 7.82955C24.3569 7.86881 24.2212 7.91215 24.0882 7.95845C24.2212 7.91215 24.3569 7.86881 24.4955 7.82955ZM33.0277 7.38228V7.3813V7.38228ZM24.9838 7.70943L24.7582 7.76119L24.9838 7.7104C25.0874 7.689 25.1888 7.67008 25.2884 7.65474C25.1888 7.67007 25.0873 7.68804 24.9838 7.70943ZM26.4076 7.59322C26.5835 7.60059 26.7552 7.61509 26.9242 7.63521C26.7552 7.6151 26.5835 7.60059 26.4076 7.59322Z" fill="white" fill-opacity="0.3"/>
</g>
</g>
</g>
</svg>
