<svg width="44" height="44" viewBox="0 0 44 44" fill="none" xmlns="http://www.w3.org/2000/svg">
<rect width="44" height="44" fill="#BEBEBE"/>
<g id="Decorate Mode">
<path d="M-357.86 -1180.97V-1179.97H2662.14V-1180.97V-1181.97H-357.86V-1180.97ZM2664.14 -1178.97H2663.14V2359.03H2664.14H2665.14V-1178.97H2664.14ZM2662.14 2361.03V2360.03H-357.86V2361.03V2362.03H2662.14V2361.03ZM-359.86 2359.03H-358.86V-1178.97H-359.86H-360.86V2359.03H-359.86ZM-357.86 2361.03V2360.03C-358.413 2360.03 -358.86 2359.59 -358.86 2359.03H-359.86H-360.86C-360.86 2360.69 -359.517 2362.03 -357.86 2362.03V2361.03ZM2664.14 2359.03H2663.14C2663.14 2359.59 2662.69 2360.03 2662.14 2360.03V2361.03V2362.03C2663.8 2362.03 2665.14 2360.69 2665.14 2359.03H2664.14ZM2662.14 -1180.97V-1179.97C2662.69 -1179.97 2663.14 -1179.52 2663.14 -1178.97H2664.14H2665.14C2665.14 -1180.62 2663.8 -1181.97 2662.14 -1181.97V-1180.97ZM-357.86 -1180.97V-1181.97C-359.517 -1181.97 -360.86 -1180.62 -360.86 -1178.97H-359.86H-358.86C-358.86 -1179.52 -358.413 -1179.97 -357.86 -1179.97V-1180.97Z" fill="black" fill-opacity="0.1"/>
<g id="Stickers">
<rect x="-305.852" y="-308.466" width="374" height="551" rx="4.5" stroke="#9747FF" stroke-dasharray="10 5"/>
<g id="Property 1=palm tree">
<g id="Frame 186">
<path id="Subtract" d="M16.1004 7.79388C17.365 7.80063 18.4377 8.11909 19.3308 8.7074C20.2256 9.29681 20.9494 10.1634 21.5052 11.2787C21.5329 11.3341 21.589 11.3697 21.6509 11.3712C21.7129 11.3725 21.7707 11.3392 21.8008 11.285C22.1796 10.6031 22.4725 10.1746 23.0215 9.60211C24.7415 7.80872 27.6507 7.25529 29.8297 8.49169C30.0603 8.62257 30.2231 8.85314 30.2063 9.10017C30.1866 9.39005 30.005 9.56228 29.719 9.71127C29.5748 9.78639 29.4164 9.849 29.251 9.91759C29.0916 9.98371 28.9243 10.0561 28.7815 10.1464C28.0288 10.5795 27.4161 11.0479 26.7659 11.6177C26.7098 11.6668 26.6929 11.7472 26.7246 11.8146C26.7563 11.8819 26.8287 11.9204 26.9022 11.9086C27.5041 11.8123 28.1169 11.8053 28.7209 11.8883C30.284 12.1017 31.6958 12.9351 32.6382 14.2005C32.8267 14.4536 33.0573 14.8047 33.231 15.172C33.4071 15.5444 33.5134 15.9098 33.4827 16.1999C33.462 16.3946 33.3417 16.543 33.1741 16.6261C33.004 16.7104 32.7956 16.7216 32.6209 16.6454C32.6165 16.6435 32.6119 16.6417 32.6074 16.6402C32.5423 16.6183 32.4735 16.5989 32.411 16.5812C32.3627 16.5675 32.3177 16.5545 32.2757 16.541L32.2344 16.5269C31.5489 16.284 30.8531 16.2351 30.1833 16.1273C30.1027 16.1144 30.0245 16.1617 29.9984 16.2391C29.9724 16.3165 30.0063 16.4012 30.0783 16.4396C30.1633 16.485 30.237 16.5243 30.3129 16.5713C31.7059 17.4435 32.6983 18.8306 33.0743 20.4306C33.3013 21.4013 33.3002 22.4115 33.0706 23.3816C33.0218 23.584 32.9478 23.8466 32.8309 24.0653C32.7115 24.2887 32.5689 24.4277 32.4005 24.455C32.1657 24.4929 31.9697 24.3593 31.767 24.1024C31.6677 23.9766 31.5761 23.8332 31.4844 23.6877C31.3951 23.5461 31.3034 23.3983 31.2097 23.2803C30.5748 22.4819 29.9457 21.7951 29.1037 21.1869C29.0447 21.1443 28.9648 21.1451 28.9063 21.1885C28.8479 21.2319 28.8241 21.3082 28.8478 21.377C29.1726 22.32 29.3757 23.1538 29.3398 24.1437C29.302 25.1769 29.0438 26.2246 28.5104 27.1036C28.376 27.325 28.192 27.6307 27.9714 27.8792C27.7445 28.1347 27.5162 28.2865 27.2997 28.2788C27.0932 28.2714 26.9612 28.1513 26.8568 27.9461C26.7473 27.7311 26.6919 27.4707 26.6217 27.2289C25.8547 24.5857 24.3083 22.4718 22.5237 20.4572C22.4848 20.4134 22.4257 20.3932 22.368 20.4039C22.314 20.414 22.2687 20.4503 22.2463 20.5001L22.2422 20.51C22.2005 20.622 22.1608 20.7625 22.1299 20.8688C21.318 23.649 21.5623 27.4037 22.9781 29.9669C22.9785 29.9677 22.9787 29.9687 22.9791 29.9695C23.6928 31.2123 24.4287 32.128 25.54 33.0584H25.5405C25.7545 33.237 25.975 33.4075 26.2023 33.5692C26.3411 33.6677 26.4831 33.7573 26.6191 33.8445C26.7564 33.9324 26.8888 34.0188 27.0171 34.114C27.114 34.186 27.1647 34.2575 27.1879 34.3292C27.2112 34.4014 27.2125 34.4931 27.1769 34.6159C27.1388 34.747 27.049 34.8569 26.9278 34.9204C26.8955 34.9374 26.8257 34.9563 26.7147 34.97C26.6089 34.9832 26.4829 34.9897 26.3517 34.9925C26.0845 34.9982 25.824 34.988 25.6638 34.9878L23.8994 34.9868L22.062 34.992C21.8668 34.9929 21.5727 35.0022 21.2707 35.0009C20.9656 34.9995 20.6983 34.9866 20.5718 34.9518C20.5594 34.9483 20.5319 34.9352 20.4888 34.8995C20.4474 34.8653 20.4001 34.8173 20.3483 34.7564C20.2446 34.6347 20.1329 34.474 20.0234 34.3005C19.8593 34.0404 19.7064 33.7626 19.5998 33.5645L19.51 33.3969C17.7197 30.0002 17.3436 26.0337 18.4638 22.361C18.4858 22.2887 18.4569 22.2104 18.3928 22.1704C18.3286 22.1304 18.2454 22.1386 18.1901 22.1902C17.8482 22.5094 17.5925 22.8503 17.3199 23.192C16.3921 24.3556 15.6598 25.6499 15.0787 27.0122C14.9362 27.3379 14.8485 27.5249 14.5684 27.6248C14.3155 27.7153 14.0528 27.5894 13.8847 27.3371C13.6542 26.9911 13.4743 26.5604 13.3415 26.1504C12.898 24.7799 12.9282 23.2218 13.4047 21.8633C13.5387 21.4811 13.7043 21.1298 13.8884 20.7638C13.9209 20.6991 13.9081 20.621 13.8565 20.57C13.805 20.5191 13.7266 20.5069 13.6622 20.5403C12.9813 20.8935 12.1537 21.5746 11.632 22.1182C11.4003 22.3603 11.1766 22.6098 10.9609 22.8666L10.9598 22.8677C10.9154 22.9213 10.8593 22.9936 10.8 23.0688C10.7396 23.1453 10.6739 23.2273 10.6078 23.3054C10.5414 23.3837 10.4763 23.4554 10.4171 23.5122C10.355 23.5718 10.311 23.6031 10.2866 23.614C10.0848 23.7043 9.9479 23.7001 9.85304 23.6637C9.75498 23.6259 9.66945 23.5416 9.59607 23.4103C9.44593 23.1418 9.38597 22.7495 9.35372 22.4618V22.4603L9.34797 22.4107C9.23714 21.4276 9.35822 20.433 9.70105 19.5066L9.77261 19.3222C10.3638 17.8867 11.3763 16.6919 12.7377 15.9414C13.0714 15.7574 13.4178 15.6218 13.7844 15.4692C13.8549 15.4398 13.8967 15.3661 13.8858 15.2906C13.8748 15.2151 13.8138 15.1566 13.738 15.1485C13.0539 15.0752 12.364 15.0736 11.6796 15.1433L11.6247 15.149C11.3525 15.1792 11.0963 15.2293 10.8324 15.277C10.7101 15.299 10.5633 15.3392 10.4239 15.3741C10.2795 15.4103 10.1346 15.4433 9.99668 15.4582C9.71544 15.4885 9.52107 15.4397 9.41117 15.2597C9.2889 15.0594 9.32084 14.7946 9.45557 14.4888C9.5879 14.1884 9.79816 13.8971 9.95698 13.6766C11.3602 11.7291 13.989 10.797 16.3218 11.3242C16.3938 11.3404 16.4678 11.3075 16.5041 11.2432C16.5403 11.1789 16.5302 11.0984 16.479 11.0452C16.0305 10.581 15.517 10.1988 14.9941 9.84603C14.8795 9.76869 14.7376 9.69073 14.5998 9.6136C14.4586 9.53459 14.317 9.45379 14.1892 9.36551C13.9251 9.18292 13.77 9.00136 13.7636 8.79515V8.7941L13.763 8.77948C13.7615 8.63061 13.8181 8.4867 13.9213 8.37887L13.9218 8.37835C14.1081 8.18222 14.4816 8.03793 14.9194 7.9417C15.3451 7.84816 15.7946 7.80742 16.1004 7.79388Z" fill="#020101"/>
<path id="Subtract (Stroke)" d="M16.1074 6.4566C17.6022 6.46461 18.9338 6.84479 20.066 7.59053C20.683 7.99695 21.2213 8.50033 21.6878 9.08224C21.8004 8.95124 21.9216 8.81661 22.056 8.67641L22.2576 8.4748C24.3145 6.50478 27.5969 5.85403 30.2285 7.18836L30.4892 7.32833L30.4897 7.32886C31.0151 7.62721 31.6022 8.27743 31.54 9.19088C31.4731 10.1755 30.7787 10.6664 30.3367 10.8967V10.8973C30.3309 10.9003 30.3247 10.9026 30.3189 10.9056C31.6622 11.3782 32.8467 12.2423 33.7102 13.4017L33.8868 13.6488C34.0711 13.9177 34.2723 14.2471 34.4394 14.6004C34.6446 15.0345 34.8825 15.6757 34.8123 16.3402V16.3413C34.7363 17.056 34.2827 17.5683 33.7682 17.8236L33.7677 17.8241C33.6767 17.8692 33.5813 17.9068 33.483 17.938C33.8893 18.6097 34.1927 19.3461 34.3757 20.1243L34.3762 20.1259C34.6502 21.2978 34.6486 22.5176 34.3715 23.6891L34.3704 23.6948C34.3164 23.9186 34.2108 24.3192 34.01 24.6951V24.6956C33.8254 25.041 33.4078 25.646 32.6144 25.7747H32.6134C31.6204 25.935 30.9905 25.2765 30.7174 24.9306C30.687 24.8921 30.6581 24.8525 30.6297 24.8136C30.5173 25.833 30.2141 26.8731 29.6535 27.797C29.5314 27.9981 29.286 28.412 28.9708 28.767C28.6979 29.0743 28.1079 29.6452 27.2519 29.6147L27.2514 29.6141C26.8753 29.6007 26.5154 29.4755 26.2125 29.237C25.9343 29.0179 25.7672 28.7532 25.6651 28.5528V28.5523C25.4795 28.1875 25.3666 27.7028 25.3371 27.6012C24.8685 25.9866 24.0687 24.5706 23.0531 23.208C22.8645 25.3198 23.2273 27.651 24.1468 29.3175C24.7855 30.4271 25.4198 31.2128 26.3896 32.0262C26.3919 32.0281 26.3946 32.0295 26.3969 32.0314C26.585 32.1883 26.7779 32.3377 26.9756 32.4785C27.0823 32.5542 27.192 32.6238 27.3402 32.7187C27.4097 32.7633 27.4863 32.8123 27.5663 32.866L27.8139 33.04L27.815 33.041C28.0451 33.2122 28.2682 33.4515 28.4062 33.7738L28.46 33.9174V33.9185C28.587 34.3121 28.5482 34.6867 28.461 34.9876L28.4605 34.9892C28.3295 35.4398 28.0317 35.8216 27.6301 36.0589L27.5486 36.1043C27.3529 36.207 27.1479 36.255 27.0022 36.2793L26.879 36.2971C26.708 36.3182 26.5304 36.3257 26.3797 36.3289C26.1084 36.3347 25.7348 36.3248 25.6615 36.3247V36.3242L23.9018 36.3237L22.0675 36.3284C21.9537 36.3289 21.5445 36.339 21.2647 36.3378C21.0984 36.3371 20.926 36.3333 20.7685 36.3232C20.6707 36.3169 20.5245 36.3053 20.371 36.2762L20.2164 36.2407C19.9385 36.164 19.7389 36.0144 19.6372 35.9304C19.515 35.8295 19.4116 35.719 19.3301 35.6233C19.167 35.4317 19.0164 35.2103 18.8924 35.0138C18.7029 34.7135 18.5325 34.4026 18.4223 34.1979L18.4213 34.1958L18.3314 34.0282C18.33 34.0255 18.3281 34.023 18.3267 34.0203C17.1892 31.8621 16.5758 29.493 16.5018 27.0992C16.4356 27.2438 16.3712 27.3895 16.3085 27.5364C16.3069 27.5402 16.305 27.5441 16.3033 27.5479C16.2467 27.6773 16.13 27.9573 15.9455 28.2039C15.7119 28.5162 15.4031 28.7459 15.0179 28.8834C14.0024 29.2463 13.1581 28.6575 12.772 28.078V28.0786C12.4467 27.5904 12.221 27.0314 12.069 26.5618C11.8123 25.7688 11.689 24.9292 11.6913 24.0907C11.6702 24.1164 11.6496 24.1437 11.6276 24.1696C11.5468 24.2651 11.4484 24.3756 11.3424 24.4772C11.2584 24.5579 11.0778 24.7241 10.8347 24.8335L10.8321 24.8345C10.4047 25.0256 9.88891 25.1098 9.37333 24.9118L9.37281 24.9113C8.87974 24.7216 8.59012 24.3507 8.429 24.0625C8.13052 23.5287 8.05484 22.879 8.02473 22.6105C8.02411 22.605 8.02372 22.5994 8.02317 22.5938L8.01951 22.564L8.01899 22.5604C7.88476 21.3698 8.03136 20.1646 8.44676 19.0421L8.45407 19.0228L8.52563 18.8384L8.53607 18.8128C8.8351 18.0868 9.22869 17.4077 9.71022 16.7967C9.26789 16.7679 8.70692 16.6047 8.32036 16.0347L8.2697 15.9563C7.79277 15.1749 8.04883 14.3645 8.23157 13.9496C8.43023 13.4987 8.72813 13.0941 8.87192 12.8946L9.03853 12.6731C10.0375 11.3989 11.4566 10.5187 12.9976 10.107C12.7198 9.82396 12.4446 9.40756 12.4267 8.83676C12.4266 8.83345 12.4268 8.83014 12.4267 8.82683L12.4257 8.79288C12.4206 8.29624 12.6094 7.8152 12.9548 7.45421L12.9762 7.4328V7.43332C13.2427 7.16217 13.5582 6.99555 13.8046 6.89116C14.0737 6.77716 14.3603 6.69547 14.6319 6.63576H14.6324C15.1572 6.52047 15.6882 6.4738 16.0411 6.45817L16.1074 6.4566ZM16.1001 7.79371C15.7944 7.80725 15.3449 7.84798 14.9192 7.94152C14.4814 8.03775 14.1079 8.18204 13.9216 8.37817L13.9211 8.37869C13.8179 8.48653 13.7613 8.63044 13.7628 8.7793L13.7633 8.79393V8.79497C13.7698 9.00119 13.9249 9.18274 14.189 9.36533C14.3167 9.45362 14.4583 9.53442 14.5995 9.61343C14.7374 9.69056 14.8792 9.76851 14.9939 9.84586C15.5168 10.1986 16.0303 10.5809 16.4788 11.0451C16.53 11.0982 16.5401 11.1787 16.5039 11.243C16.4676 11.3073 16.3936 11.3403 16.3216 11.324C13.9888 10.7968 11.36 11.7289 9.95675 13.6765C9.79793 13.8969 9.58767 14.1883 9.45533 14.4886C9.32061 14.7945 9.28867 15.0592 9.41094 15.2596C9.52083 15.4395 9.71521 15.4884 9.99644 15.458C10.1344 15.4432 10.2793 15.4102 10.4237 15.374C10.563 15.339 10.7098 15.2989 10.8321 15.2768C11.0961 15.2292 11.3522 15.179 11.6245 15.1488L11.6793 15.1431C12.3638 15.0735 13.0536 15.075 13.7377 15.1483C13.8136 15.1564 13.8745 15.2149 13.8855 15.2904C13.8965 15.3659 13.8547 15.4397 13.7842 15.469C13.4176 15.6216 13.0711 15.7572 12.7375 15.9412C11.3761 16.6918 10.3636 17.8865 9.77237 19.3221L9.70082 19.5065C9.35798 20.4328 9.23691 21.4275 9.34774 22.4105L9.35348 22.4601V22.4617C9.38573 22.7493 9.4457 23.1416 9.59583 23.4102C9.66922 23.5414 9.75474 23.6258 9.85281 23.6635C9.94767 23.6999 10.0845 23.7041 10.2863 23.6139C10.3108 23.6029 10.3548 23.5716 10.4169 23.512C10.4761 23.4553 10.5412 23.3835 10.6075 23.3052C10.6737 23.2271 10.7393 23.1451 10.7998 23.0686C10.8591 22.9934 10.9152 22.9211 10.9596 22.8675L10.9606 22.8665C11.1763 22.6097 11.4 22.3601 11.6318 22.118C12.1535 21.5744 12.9811 20.8934 13.662 20.5401C13.7263 20.5067 13.8047 20.5189 13.8563 20.5699C13.9078 20.6208 13.9207 20.6989 13.8882 20.7636C13.704 21.1296 13.5385 21.4809 13.4045 21.8631C12.928 23.2217 12.8978 24.7798 13.3413 26.1502C13.474 26.5602 13.6539 26.9909 13.8845 27.3369C14.0526 27.5892 14.3152 27.7151 14.5682 27.6247C14.8482 27.5248 14.936 27.3378 15.0785 27.012C15.6595 25.6497 16.3919 24.3554 17.3197 23.1919C17.5923 22.8501 17.848 22.5092 18.1899 22.1901C18.2452 22.1385 18.3284 22.1302 18.3925 22.1702C18.4567 22.2103 18.4856 22.2885 18.4636 22.3609C17.3434 26.0335 17.7195 30 19.5097 33.3967L19.5996 33.5644C19.7062 33.7624 19.8591 34.0402 20.0232 34.3003C20.1327 34.4738 20.2444 34.6345 20.348 34.7563C20.3999 34.8171 20.4471 34.8651 20.4886 34.8994C20.5317 34.935 20.5592 34.9482 20.5716 34.9516C20.6981 34.9864 20.9654 34.9993 21.2704 35.0007C21.5725 35.002 21.8666 34.9927 22.0617 34.9918L23.8992 34.9866L25.6636 34.9876C25.8238 34.9879 26.0843 34.998 26.3514 34.9923C26.4827 34.9896 26.6087 34.983 26.7145 34.9699C26.8255 34.9561 26.8952 34.9372 26.9276 34.9203C27.0487 34.8567 27.1386 34.7468 27.1767 34.6158C27.2122 34.4929 27.211 34.4012 27.1877 34.329C27.1645 34.2574 27.1137 34.1859 27.0169 34.1138C26.8886 34.0186 26.7561 33.9323 26.6189 33.8443C26.4829 33.7571 26.3409 33.6675 26.2021 33.569C25.9748 33.4074 25.7543 33.2368 25.5403 33.0582H25.5398C24.4285 32.1278 23.6926 31.2122 22.9789 29.9693C22.9785 29.9685 22.9783 29.9675 22.9779 29.9667C21.562 27.4035 21.3177 23.6488 22.1296 20.8686C22.1605 20.7624 22.2002 20.6218 22.2419 20.5098L22.2461 20.4999C22.2684 20.4501 22.3137 20.4139 22.3678 20.4038C22.4254 20.393 22.4845 20.4133 22.5235 20.457C24.3081 22.4716 25.8544 24.5856 26.6215 27.2288C26.6916 27.4706 26.7471 27.7309 26.8565 27.9459C26.961 28.1511 27.093 28.2713 27.2994 28.2786C27.5159 28.2864 27.7443 28.1345 27.9711 27.879C28.1918 27.6306 28.3758 27.3249 28.5101 27.1034C29.0435 26.2244 29.3017 25.1768 29.3396 24.1435C29.3755 23.1536 29.1724 22.3199 28.8476 21.3768C28.8238 21.308 28.8476 21.2317 28.9061 21.1883C28.9645 21.1449 29.0444 21.1441 29.1035 21.1867C29.9455 21.7949 30.5745 22.4817 31.2094 23.2801C31.3032 23.3981 31.3949 23.5459 31.4842 23.6875C31.5758 23.833 31.6674 23.9765 31.7667 24.1022C31.9695 24.3591 32.1655 24.4927 32.4003 24.4548C32.5687 24.4275 32.7113 24.2886 32.8307 24.0651C32.9475 23.8464 33.0216 23.5839 33.0704 23.3814C33.2999 22.4113 33.3011 21.4011 33.0741 20.4304C32.698 18.8304 31.7057 17.4433 30.3126 16.5711C30.2368 16.5241 30.1631 16.4848 30.0781 16.4395C30.0061 16.401 29.9721 16.3163 29.9982 16.2389C30.0243 16.1615 30.1025 16.1142 30.1831 16.1271C30.8529 16.2349 31.5487 16.2838 32.2342 16.5267L32.2755 16.5408C32.3175 16.5544 32.3625 16.5674 32.4107 16.581C32.4733 16.5987 32.5421 16.6181 32.6071 16.64C32.6117 16.6416 32.6163 16.6433 32.6207 16.6453C32.7953 16.7214 33.0037 16.7103 33.1738 16.6259C33.3414 16.5428 33.4618 16.3945 33.4825 16.1997C33.5132 15.9096 33.4069 15.5442 33.2308 15.1718C33.0571 14.8046 32.8265 14.4534 32.6379 14.2003C31.6955 12.9349 30.2838 12.1016 28.7206 11.8881C28.1167 11.8051 27.5038 11.8122 26.902 11.9084C26.8285 11.9202 26.7561 11.8817 26.7244 11.8144C26.6927 11.747 26.7096 11.6666 26.7656 11.6175C27.4159 11.0478 28.0286 10.5793 28.7812 10.1462C28.924 10.0559 29.0913 9.98353 29.2508 9.91741C29.4162 9.84883 29.5745 9.78621 29.7188 9.7111C30.0048 9.5621 30.1864 9.38988 30.2061 9.1C30.2229 8.85297 30.06 8.6224 29.8295 8.49151C27.6504 7.25511 24.7413 7.80855 23.0212 9.60194C22.4722 10.1744 22.1794 10.6029 21.8006 11.2848C21.7705 11.339 21.7127 11.3724 21.6507 11.371C21.5888 11.3696 21.5326 11.3339 21.505 11.2785C20.9491 10.1632 20.2254 9.29663 19.3306 8.70723C18.4375 8.11892 17.3647 7.80045 16.1001 7.79371ZM24.2277 29.4914C24.2272 29.49 24.2267 29.4886 24.2262 29.4872C24.2212 29.4743 24.2144 29.4588 24.2069 29.4413C24.2152 29.4607 24.2225 29.4775 24.2277 29.4914ZM24.1964 29.4167C24.1955 29.4147 24.1948 29.4125 24.1938 29.4104C24.1897 29.4014 24.1841 29.3923 24.1792 29.3822C24.1852 29.3946 24.1915 29.4059 24.1964 29.4167ZM24.2439 29.5374C24.2435 29.5361 24.2434 29.5346 24.2429 29.5332C24.2404 29.526 24.2362 29.5153 24.2314 29.5024C24.2371 29.5176 24.2414 29.53 24.2439 29.5374Z" fill="#E8E7E7"/>
<path id="Subtract (Stroke) (Stroke)" d="M17.6486 34.4511C17.647 34.4485 17.6452 34.4432 17.6423 34.4385C17.6379 34.4313 17.6309 34.4206 17.6235 34.4072L17.6172 34.3947C16.7723 32.7915 16.203 31.0775 15.9143 29.3223C15.7228 29.4505 15.5148 29.558 15.2884 29.6389C13.8951 30.1368 12.7614 29.3888 12.2074 28.6662L12.104 28.5231C11.7222 27.95 11.4695 27.3143 11.3058 26.8086C11.1804 26.4212 11.0857 26.0246 11.0175 25.6239C10.4764 25.8351 9.79257 25.9319 9.08569 25.6604L9.08464 25.6594C8.35359 25.378 7.94129 24.8342 7.72854 24.4537C7.34207 23.7622 7.25635 22.9609 7.22705 22.6996C7.22574 22.6878 7.22534 22.6778 7.22496 22.6734C7.22441 22.6696 7.22336 22.6658 7.22287 22.6619L7.22392 22.6609C7.22347 22.6574 7.22222 22.654 7.22183 22.6505C7.07357 21.3355 7.23521 20.004 7.69406 18.7639L7.69615 18.7577L7.70346 18.7389L7.7066 18.7326L7.77764 18.5477L7.79331 18.5101L7.79436 18.5069C7.9767 18.0642 8.19258 17.6373 8.43898 17.2292C8.15789 17.0611 7.88555 16.8231 7.65645 16.4853C7.65323 16.4806 7.65016 16.4755 7.64705 16.4707L7.59585 16.3923C7.59214 16.3866 7.58897 16.3804 7.5854 16.3746C6.89399 15.2417 7.28833 14.1009 7.49764 13.6258C7.73577 13.0854 8.08555 12.6143 8.22167 12.4254L8.23107 12.4118L8.39719 12.1903C8.40037 12.1861 8.40437 12.1819 8.40763 12.1777C9.29793 11.0424 10.4802 10.1953 11.7822 9.66926C11.6943 9.43024 11.6339 9.16149 11.6245 8.86166C11.6243 8.85798 11.6245 8.85447 11.6245 8.85121L11.6234 8.81778C11.6232 8.81228 11.6235 8.80657 11.6234 8.80107C11.6162 8.09585 11.8849 7.4126 12.3756 6.89959L12.3871 6.88706L12.4091 6.86512C12.7773 6.49255 13.1968 6.27748 13.4915 6.15259C13.8194 6.01367 14.1568 5.91835 14.46 5.8517L14.4662 5.85065C15.0484 5.72323 15.6263 5.67315 16.0062 5.65633H16.0219L16.0887 5.65424H16.1117C17.7446 5.66298 19.2324 6.08018 20.5081 6.92049C20.942 7.20635 21.3387 7.53414 21.7012 7.8963L21.7033 7.89525C23.9838 5.71133 27.6292 4.97083 30.5911 6.47229C30.5967 6.47514 30.6033 6.4787 30.6089 6.48169L30.869 6.62169L30.8847 6.63109C31.5793 7.0255 32.4308 7.92504 32.3411 9.24509C32.2993 9.85914 32.0821 10.3343 31.8083 10.6984C32.7094 11.1974 33.5133 11.8692 34.1694 12.6845L34.3543 12.9227L34.3637 12.9352L34.5403 13.1818L34.5487 13.1953C34.7503 13.4895 34.9753 13.8566 35.1651 14.2579C35.3881 14.7296 35.7041 15.536 35.6102 16.4247C35.5238 17.2368 35.0968 17.8624 34.5675 18.2656C34.8178 18.7925 35.0158 19.3472 35.1525 19.9236C35.1542 19.9302 35.1562 19.9369 35.1578 19.9435C35.46 21.2362 35.4582 22.5817 35.1525 23.8739C35.1519 23.8769 35.1512 23.8803 35.1505 23.8833C35.093 24.1214 34.9686 24.604 34.7179 25.0733C34.4964 25.4877 33.9142 26.3762 32.7433 26.5662H32.7402L32.7412 26.5673C32.101 26.6706 31.5704 26.5362 31.1501 26.3218C30.9674 26.97 30.7045 27.6109 30.3393 28.2128C30.2234 28.4039 29.9423 28.8815 29.5714 29.2993C29.2721 29.6364 28.4644 30.4603 27.2238 30.4162L27.2228 30.4151C26.7517 30.3982 26.2909 30.2581 25.8865 29.9899L25.7162 29.8677C25.3142 29.551 25.0823 29.176 24.9504 28.917L24.8637 28.732C24.7833 28.5464 24.721 28.3615 24.6757 28.2138C24.6301 28.0656 24.5723 27.8469 24.567 27.8252C24.4081 27.2775 24.2057 26.7526 23.9673 26.2424C24.1335 27.2324 24.4275 28.16 24.8428 28.917L25.0653 29.291C25.5846 30.1272 26.1201 30.7505 26.8926 31.4004L26.9114 31.415L27.1737 31.626C27.262 31.6943 27.3511 31.7605 27.4411 31.8245C27.5287 31.8866 27.6184 31.9436 27.7734 32.0429L28.0137 32.1996L28.0283 32.209L28.2749 32.3835L28.2926 32.3981L28.2937 32.3971C28.5704 32.6029 28.8565 32.8926 29.0616 33.2841L29.1441 33.4585L29.1577 33.492L29.212 33.6362C29.2163 33.6476 29.2177 33.66 29.2214 33.6717H29.2235C29.4129 34.2586 29.3497 34.8034 29.2319 35.2106C29.2289 35.2207 29.2258 35.2309 29.2225 35.2409V35.243L29.2204 35.242C29.0279 35.8763 28.6066 36.4139 28.0387 36.7495C28.033 36.7529 28.0268 36.7568 28.021 36.76L27.9395 36.8049C27.9335 36.8083 27.9278 36.8122 27.9217 36.8154C27.6204 36.9734 27.3221 37.039 27.135 37.0703C27.1292 37.0713 27.1231 37.0726 27.1173 37.0734L26.994 37.0912C26.9889 37.0919 26.9834 37.0926 26.9783 37.0933C26.7673 37.1194 26.5572 37.1275 26.3964 37.1309C26.1201 37.1367 25.694 37.1268 25.6609 37.1267L25.6598 37.1257H23.9036L22.07 37.1298L22.0711 37.1309L21.2614 37.1403C21.0871 37.1395 20.8969 37.1351 20.717 37.1236C20.609 37.1166 20.4241 37.1024 20.2218 37.064C20.2118 37.0621 20.2015 37.06 20.1915 37.0578L20.0369 37.0222C20.0257 37.0197 20.0145 37.0169 20.0035 37.0139C19.5671 36.8936 19.2649 36.6629 19.1269 36.549C18.9566 36.4083 18.8192 36.2607 18.7195 36.1436C18.5207 35.9101 18.3465 35.6518 18.2138 35.4415C18.0093 35.1174 17.8287 34.7869 17.7165 34.5785C17.7158 34.5773 17.715 34.5756 17.7144 34.5744L17.6235 34.4072C17.6325 34.4241 17.641 34.4376 17.6454 34.4448C17.6469 34.4472 17.6476 34.4495 17.6486 34.4511ZM16.0417 6.45766C15.6889 6.47329 15.1571 6.51998 14.6323 6.63527L14.4265 6.68437C14.2186 6.7379 14.0069 6.80567 13.8049 6.89124L13.6085 6.98213C13.4034 7.08572 13.1761 7.23027 12.9764 7.43347L12.9555 7.45436C12.6102 7.81531 12.4208 8.29613 12.4258 8.79271L12.4268 8.82718C12.4269 8.83032 12.4268 8.83346 12.4268 8.83659C12.4447 9.40739 12.7205 9.82397 12.9983 10.107C11.4574 10.5187 10.0377 11.3988 9.03867 12.673L8.87255 12.8945L8.57271 13.328C8.45545 13.5104 8.33143 13.7243 8.23211 13.9497L8.16107 14.1231C7.9962 14.5668 7.8525 15.2731 8.26972 15.9567L8.32092 16.035C8.70747 16.6047 9.26822 16.7678 9.71045 16.7966C9.22893 17.4076 8.83516 18.087 8.53614 18.813L8.52569 18.8381L8.45465 19.023L8.44733 19.0418L8.3042 19.4671C7.99973 20.4659 7.90154 21.5189 8.01898 22.5606L8.02003 22.5637L8.02316 22.594C8.0237 22.5995 8.02463 22.6053 8.02525 22.6108C8.05538 22.8794 8.13119 23.5293 8.42957 24.063C8.59075 24.351 8.88021 24.7218 9.373 24.9113L9.56628 24.973C10.0164 25.0871 10.4583 25.0013 10.8325 24.834L10.8346 24.833C11.0773 24.7238 11.2581 24.5585 11.3424 24.4778C11.4484 24.3761 11.5468 24.265 11.6276 24.1695C11.6495 24.1437 11.6703 24.1168 11.6913 24.0912C11.6891 24.9295 11.8129 25.7692 12.0695 26.5621C12.2216 27.0317 12.4474 27.5911 12.7727 28.0791C13.1347 28.6222 13.899 29.1731 14.8298 28.941L15.0179 28.8835C15.4029 28.746 15.712 28.5165 15.9456 28.2044C16.13 27.9579 16.2473 27.6778 16.304 27.5483C16.3056 27.5446 16.3076 27.5406 16.3092 27.5368C16.3718 27.3899 16.4362 27.2436 16.5025 27.0991C16.5765 29.4928 17.1891 31.8624 18.3266 34.0206C18.328 34.0232 18.3304 34.0253 18.3318 34.0279L18.4217 34.1961L18.4227 34.1982L18.6275 34.5702C18.7076 34.711 18.7982 34.8641 18.8929 35.0142C19.0168 35.2106 19.1677 35.4319 19.3306 35.6233C19.4122 35.719 19.5157 35.8296 19.6378 35.9305C19.7396 36.0145 19.9389 36.1642 20.2166 36.2407L20.3712 36.2763C20.5245 36.3054 20.6705 36.317 20.7682 36.3233L21.2645 36.3379C21.5443 36.3391 21.9542 36.329 22.0679 36.3285L23.9025 36.3233L25.6619 36.3243C25.7357 36.3245 26.1087 36.3342 26.3797 36.3285C26.4551 36.3269 26.5374 36.3251 26.622 36.3202L26.8791 36.2972L27.0023 36.2794C27.148 36.2551 27.3531 36.2065 27.5488 36.1039L27.6302 36.059C28.0319 35.8217 28.3298 35.4397 28.4608 34.9891C28.5479 34.6882 28.5868 34.3118 28.4598 33.9182L28.4065 33.7741C28.2685 33.4517 28.0453 33.2119 27.8152 33.0406L27.8141 33.0396L27.5665 32.8662L27.3408 32.7188L26.9762 32.4786C26.7786 32.3379 26.5855 32.1883 26.3974 32.0314L26.3901 32.0262C25.4203 31.2128 24.7857 30.4267 24.147 29.3171C23.2277 27.6507 22.8646 25.3199 23.0531 23.2084C24.0687 24.5708 24.8684 25.987 25.337 27.6016C25.3629 27.6911 25.4529 28.073 25.5992 28.4113L25.665 28.5523C25.767 28.7526 25.9345 29.0176 26.2125 29.2367C26.5154 29.4752 26.876 29.6003 27.252 29.6138C28.108 29.6443 28.6978 29.0738 28.9707 28.7665C29.1282 28.5891 29.2684 28.3972 29.3844 28.2243L29.654 27.797C30.2146 26.873 30.5174 25.8325 30.6298 24.8131C30.6581 24.8519 30.6872 24.8917 30.7175 24.9301C30.9906 25.276 31.6208 25.9347 32.6138 25.7743L32.759 25.745C33.3659 25.5945 33.731 25.1602 33.9302 24.8361L34.0106 24.6951C34.1611 24.4132 34.258 24.1173 34.3199 23.8927L34.3711 23.6952L34.3721 23.689C34.6146 22.6639 34.6457 21.6018 34.4661 20.5672L34.3763 20.1263V20.1242C34.1934 19.346 33.8893 18.6092 33.483 17.9375C33.5321 17.922 33.5808 17.9053 33.6282 17.8863L33.7682 17.8236C34.2827 17.5683 34.737 17.0559 34.813 16.3411C34.8656 15.8429 34.7448 15.3566 34.5946 14.962L34.44 14.6006C34.3146 14.3354 34.1696 14.0836 34.0273 13.8609L33.8873 13.6488L33.7108 13.4022C32.8473 12.2428 31.6627 11.3778 30.3195 10.9052L30.3372 10.8969C30.7793 10.6665 31.4728 10.1752 31.5398 9.19076C31.5941 8.39159 31.1517 7.79431 30.6883 7.4575L30.4898 7.32899L30.2286 7.18795C27.597 5.85383 24.3149 6.50515 22.2581 8.4751L22.0564 8.67674C21.922 8.81692 21.8003 8.95112 21.6876 9.08211C21.2212 8.5003 20.683 7.99654 20.0662 7.59018C18.934 6.84453 17.6022 6.46462 16.1075 6.45661L16.0417 6.45766ZM16.1002 7.79391C17.3647 7.80066 18.4376 8.11882 19.3306 8.70704C20.2253 9.29637 20.949 10.1631 21.5048 11.2782C21.5256 11.3198 21.5628 11.3507 21.6061 11.3639L21.6511 11.3712C21.713 11.3725 21.7704 11.3387 21.8005 11.2845C22.1319 10.6879 22.3975 10.2851 22.8264 9.81031L23.0218 9.6024C24.7419 7.80902 27.6504 7.25545 29.8295 8.49182C30.0599 8.62267 30.2234 8.8529 30.2066 9.09987L30.191 9.2033C30.1391 9.43249 29.969 9.58069 29.7187 9.71105C29.5746 9.78613 29.416 9.84936 29.2507 9.91792L29.0104 10.0224C28.9307 10.06 28.853 10.1005 28.7816 10.1457L28.5058 10.3107C27.8754 10.6984 27.3352 11.1192 26.7662 11.6177C26.7103 11.6668 26.693 11.7468 26.7244 11.8142C26.7561 11.8814 26.8286 11.9199 26.902 11.9082C27.5039 11.8119 28.1171 11.8054 28.721 11.8883C30.284 12.1018 31.6954 12.9351 32.6378 14.2004C32.8264 14.4535 33.0576 14.8048 33.2312 15.172C33.4072 15.5444 33.5137 15.91 33.483 16.2001L33.4705 16.2701C33.4314 16.4303 33.3206 16.5535 33.1738 16.6263L33.04 16.6755C32.9248 16.7046 32.8015 16.7042 32.6879 16.6702L32.6211 16.6452L32.6075 16.6399L32.4111 16.5814C32.3628 16.5678 32.3173 16.5543 32.2753 16.5407L32.2345 16.5271C31.5491 16.2843 30.8533 16.2347 30.1836 16.127C30.1031 16.1141 30.0249 16.1615 29.9987 16.2387C29.9727 16.3161 30.0062 16.4008 30.0781 16.4393C30.1631 16.4847 30.2374 16.524 30.3132 16.571C31.7062 17.4432 32.6985 18.8305 33.0745 20.4303C33.3015 21.401 33.2999 22.4117 33.0703 23.3818C33.0215 23.5841 32.9478 23.8465 32.8311 24.0651L32.7371 24.2166C32.6387 24.3511 32.5269 24.4342 32.4006 24.4548L32.3139 24.461C32.1728 24.4583 32.0444 24.3912 31.918 24.2709L31.7665 24.1027C31.7167 24.0397 31.6691 23.972 31.6223 23.9021L31.4844 23.6879C31.4397 23.617 31.3944 23.5442 31.3486 23.4748L31.2096 23.2805C30.5747 22.4821 29.9454 21.7949 29.1034 21.1867C29.0443 21.1443 28.9643 21.1444 28.9059 21.1878C28.8475 21.2312 28.8237 21.3081 28.8474 21.3769C29.1722 22.3199 29.3754 23.1535 29.3395 24.1434C29.3016 25.1767 29.0433 26.2243 28.5099 27.1032C28.3755 27.3247 28.1915 27.6311 27.9708 27.8795L27.8016 28.0508C27.6317 28.2008 27.4623 28.2843 27.3001 28.2786L27.2259 28.2702C27.1079 28.2483 27.0165 28.184 26.9407 28.0832L26.8571 27.9464C26.8024 27.8389 26.7607 27.7196 26.7244 27.5974L26.622 27.2286C25.855 24.5855 24.308 22.472 22.5234 20.4575C22.4845 20.4137 22.4254 20.3935 22.3678 20.4042C22.3138 20.4144 22.2689 20.4507 22.2466 20.5003L22.2424 20.5097L22.1296 20.8691L21.9896 21.4009C21.3527 24.1136 21.6506 27.564 22.9779 29.9669L22.979 29.969C23.6035 31.0566 24.2454 31.8938 25.1406 32.7094L25.5397 33.0584C25.7536 33.2369 25.9749 33.4076 26.2021 33.5693C26.3408 33.6677 26.483 33.757 26.6189 33.8441C26.7561 33.932 26.8888 34.0184 27.017 34.1136C27.1138 34.1856 27.1651 34.2572 27.1883 34.3288C27.2116 34.401 27.2124 34.4933 27.1768 34.6161C27.1387 34.7469 27.049 34.8567 26.9282 34.9202L26.8509 34.9463C26.8155 34.9548 26.7705 34.9634 26.715 34.9703L26.5426 34.9849C26.4815 34.9886 26.4171 34.9909 26.3515 34.9923L25.664 34.9881L23.8994 34.987L22.0617 34.9923C21.8665 34.9931 21.5726 35.002 21.2708 35.0006L21.2739 34.1982C21.5892 34.1996 21.8143 34.191 22.0585 34.1899L23.8973 34.1847L25.664 34.1857C25.671 34.1857 25.6789 34.1857 25.6859 34.1857C25.4608 34.0236 25.2418 33.8547 25.0298 33.6779C25.0281 33.6765 25.0263 33.6752 25.0246 33.6738C23.9826 32.8014 23.2442 31.933 22.5694 30.8477L22.2831 30.3692C22.2804 30.3643 22.2784 30.3592 22.2758 30.3545L22.1358 30.0913C20.7284 27.3319 20.5232 23.5073 21.3596 20.6435C21.3864 20.5511 21.4358 20.3759 21.4902 20.2297C21.4941 20.2192 21.4983 20.2087 21.5027 20.1984L21.5069 20.189L21.5142 20.1712C21.6426 19.8852 21.905 19.6745 22.2215 19.6154C22.5551 19.5534 22.8972 19.6697 23.1231 19.9236L23.1242 19.9247C24.9361 21.97 26.5755 24.1914 27.392 27.005C27.4189 27.0975 27.4391 27.1743 27.4568 27.2391C27.5864 27.073 27.7085 26.8787 27.8246 26.6874C28.2728 25.9488 28.5042 25.0409 28.5381 24.1142L28.5402 23.8007C28.5241 23.0799 28.3598 22.4247 28.0889 21.6381C27.9509 21.2371 28.0899 20.7951 28.4274 20.5442C28.7227 20.3252 29.1149 20.2927 29.4387 20.4544L29.5735 20.5359C30.4992 21.2045 31.1805 21.9549 31.8375 22.7811C31.965 22.9414 32.0836 23.1329 32.1635 23.2596C32.1903 23.3021 32.2152 23.3412 32.2387 23.3776C32.2558 23.3192 32.2748 23.259 32.2899 23.1969C32.4907 22.348 32.4915 21.4638 32.293 20.6142L32.2251 20.3551C31.856 19.0719 31.0265 17.9658 29.8901 17.2532C29.84 17.2222 29.7893 17.1948 29.701 17.1477C29.2853 16.9258 29.0861 16.4343 29.2381 15.9828L29.3081 15.8229C29.5025 15.471 29.9017 15.2695 30.3111 15.335C30.8874 15.4278 31.7185 15.4952 32.4926 15.7676L32.5229 15.777L32.6221 15.8062C32.5948 15.7244 32.5581 15.6267 32.5051 15.5147C32.3609 15.2098 32.162 14.9051 31.9942 14.68C31.1805 13.5874 29.9619 12.8677 28.6123 12.6834C28.0871 12.6113 27.5524 12.6174 27.0285 12.7012C26.6005 12.7694 26.1814 12.5452 25.9983 12.1568C25.8143 11.7649 25.9133 11.2981 26.2376 11.0139L26.7432 10.5855C27.2433 10.1783 27.756 9.81295 28.3522 9.46762C28.5597 9.3364 28.7861 9.2414 28.9435 9.17614C29.0479 9.13286 29.1292 9.09801 29.1995 9.06748C27.3931 8.19129 25.0274 8.66962 23.6006 10.1572C23.1092 10.6696 22.8554 11.039 22.5025 11.6742C22.3288 11.987 21.9948 12.1815 21.6333 12.1736C21.2739 12.1652 20.9475 11.9585 20.787 11.6376C20.2815 10.6233 19.6442 9.87487 18.8898 9.37777C18.1434 8.88613 17.2304 8.60465 16.1107 8.59629C15.8347 8.60966 15.4472 8.6468 15.092 8.7248C14.9827 8.74882 14.8852 8.77613 14.8005 8.80315C14.8576 8.83713 14.9208 8.87315 14.9917 8.91285C15.1156 8.98213 15.2937 9.07957 15.4431 9.18031C15.9159 9.49931 16.4091 9.86015 16.864 10.2961L17.0562 10.4873L17.0572 10.4884C17.3184 10.7596 17.3943 11.1512 17.2693 11.4934L17.2035 11.6366C16.9936 12.009 16.5635 12.2011 16.1452 12.1067C14.1113 11.6471 11.8142 12.4711 10.6079 14.145C10.5023 14.2916 10.4013 14.4353 10.3175 14.5734C10.4269 14.5453 10.5683 14.5085 10.6894 14.4867C10.9373 14.4419 11.2298 14.3848 11.5367 14.3509H11.5409L11.5963 14.3446H11.5983C12.338 14.2693 13.084 14.2716 13.8237 14.3509C14.262 14.3979 14.6151 14.7353 14.6794 15.1741C14.7427 15.6117 14.5022 16.039 14.0932 16.2095C13.7034 16.3718 13.4095 16.4871 13.1247 16.6441C11.9363 17.2994 11.0423 18.3473 10.5149 19.628L10.5139 19.6269L10.4491 19.7972C10.1535 20.6017 10.0492 21.4648 10.1451 22.3182L10.1503 22.3673C10.1505 22.3689 10.1501 22.371 10.1503 22.3726C10.1578 22.4392 10.1673 22.5028 10.1764 22.5627C10.2275 22.498 10.2915 22.4163 10.3415 22.3558C10.3481 22.3479 10.3555 22.3406 10.3624 22.3328C10.5844 22.0693 10.8136 21.8119 11.0519 21.5629C11.6128 20.9785 12.5106 20.2334 13.2929 19.8275L13.4371 19.7669C13.78 19.6544 14.1606 19.7425 14.4202 19.9988C14.7185 20.2937 14.7943 20.7479 14.6052 21.1241C14.4261 21.4801 14.2789 21.7952 14.1622 22.1281C13.7425 23.3249 13.7167 24.7036 14.1047 25.9028C14.1847 26.1497 14.2804 26.3872 14.3847 26.5955C14.9822 25.2154 15.7358 23.8911 16.6926 22.6912L17.1137 22.1667C17.2699 21.9807 17.4443 21.7885 17.6423 21.6036L17.7698 21.5033C18.0364 21.3271 18.3751 21.2933 18.6724 21.4155L18.8177 21.4897L18.9483 21.5869C19.2294 21.8363 19.3425 22.2305 19.2314 22.5951C18.1735 26.0634 18.5273 29.8093 20.2166 33.0177L20.3065 33.1838L20.4872 33.5129C20.5544 33.6311 20.628 33.7544 20.7024 33.8723C20.785 34.0031 20.8603 34.1094 20.9218 34.1878C21.0179 34.1935 21.1375 34.1976 21.2739 34.1982L21.2708 35.0006L20.8539 34.9891C20.7938 34.9853 20.7394 34.9795 20.692 34.9734L20.5718 34.9515C20.5656 34.9498 20.5554 34.9461 20.5415 34.9379L20.4893 34.8993C20.4479 34.8651 20.4001 34.817 20.3482 34.7561C20.2964 34.6952 20.243 34.6243 20.1884 34.5472L20.0233 34.3006C19.9413 34.1706 19.8624 34.0356 19.7903 33.9088L19.6002 33.5641L19.5103 33.3969C17.776 30.1063 17.3685 26.2807 18.3632 22.7058L18.4635 22.3611C18.4855 22.2887 18.4566 22.2099 18.3924 22.1699C18.3283 22.1301 18.2449 22.1382 18.1898 22.1897C17.8478 22.5088 17.592 22.8499 17.3195 23.1916C16.3917 24.3552 15.6595 25.6501 15.0785 27.0123L14.9782 27.2307C14.8802 27.4255 14.7786 27.5496 14.5686 27.6246L14.4735 27.6486C14.2831 27.677 14.0948 27.5897 13.9522 27.425L13.8843 27.3373C13.7113 27.0777 13.5671 26.7701 13.4497 26.4597L13.341 26.1504C12.9252 24.8656 12.9257 23.4154 13.3201 22.1197L13.4047 21.8627C13.4717 21.6717 13.5461 21.4882 13.6273 21.3069L13.8885 20.7636C13.921 20.6989 13.9076 20.6212 13.8561 20.5703C13.8045 20.5194 13.7261 20.5067 13.6618 20.54C12.981 20.8933 12.1534 21.5742 11.6318 22.1176C11.4 22.3598 11.1767 22.6099 10.961 22.8667L10.96 22.8678C10.9157 22.9214 10.8594 22.9933 10.8001 23.0684L10.6079 23.3055L10.4167 23.5124L10.3373 23.5813C10.3156 23.5978 10.2983 23.6083 10.2861 23.6137C10.1347 23.6814 10.0199 23.6961 9.93194 23.6837L9.85254 23.6639C9.77906 23.6355 9.71255 23.5807 9.65299 23.4999L9.59657 23.41C9.44644 23.1415 9.38644 22.749 9.35419 22.4614L9.34792 22.4102C9.23716 21.4273 9.35833 20.433 9.70105 19.5068L9.77209 19.3218C10.3263 17.9761 11.2513 16.8422 12.4864 16.0872L12.7382 15.941C13.0716 15.7572 13.4176 15.6213 13.784 15.4687C13.8545 15.4394 13.8963 15.3656 13.8853 15.2901C13.877 15.2336 13.8409 15.187 13.7913 15.1637L13.738 15.148C13.054 15.0747 12.3642 15.0732 11.6798 15.1428L11.6245 15.1491C11.3524 15.1792 11.0963 15.2289 10.8325 15.2765L10.424 15.3737L10.2078 15.4238C10.1363 15.4385 10.0657 15.4509 9.99672 15.4583L9.80239 15.4656C9.65366 15.4579 9.53854 15.4138 9.45658 15.3214L9.41165 15.2598C9.30471 15.0846 9.31498 14.8597 9.40956 14.6016L9.45553 14.4888C9.52161 14.3388 9.60701 14.1909 9.69583 14.0531L9.95702 13.677C11.3602 11.7295 13.9889 10.797 16.3217 11.3242C16.3756 11.3363 16.4306 11.3209 16.4701 11.2855L16.5046 11.2427C16.5404 11.1786 16.5303 11.0982 16.4795 11.0452C16.031 10.581 15.5167 10.1986 14.9938 9.84583C14.9366 9.80725 14.8726 9.76857 14.8058 9.72986L14.5999 9.61389C14.5292 9.5743 14.4581 9.53391 14.3889 9.4927L14.1894 9.36524C13.9252 9.18265 13.7696 9.00101 13.7631 8.7948V8.77913C13.7616 8.63049 13.818 8.48673 13.9209 8.37898L13.9219 8.37794C14.0617 8.2309 14.3067 8.11306 14.6052 8.02272L14.9196 7.94122C15.3452 7.84774 15.7946 7.80745 16.1002 7.79391ZM22.2173 30.2219C22.2177 30.2229 22.2178 30.2244 22.2184 30.226C22.2197 30.2299 22.2218 30.2361 22.2246 30.2438C22.2225 30.238 22.2217 30.2327 22.2205 30.2292C22.2194 30.2261 22.2179 30.2235 22.2173 30.2219ZM24.2264 29.4874C24.2269 29.4887 24.2269 29.4903 24.2274 29.4916C24.2222 29.4777 24.2149 29.4608 24.2066 29.4414C24.2141 29.4589 24.2214 29.4745 24.2264 29.4874ZM24.194 29.4101C24.1949 29.412 24.1953 29.4145 24.1961 29.4163C24.1912 29.4056 24.1853 29.3941 24.1794 29.3819C24.1842 29.3918 24.1899 29.4012 24.194 29.4101ZM25.0194 29.3307C25.0187 29.3281 25.018 29.3251 25.0173 29.3223L25.0037 29.2784C25.0105 29.2987 25.0157 29.3165 25.0194 29.3307Z" fill="#020101"/>
<path id="Vector" d="M20.1449 19.917C20.526 19.1646 20.8869 18.5492 21.4793 17.9313C21.6755 18.207 21.876 18.5167 22.0626 18.8011C21.4895 20.1175 21.164 21.6053 21.0058 23.0279C20.6021 23.0467 20.1649 23.0635 19.7663 23.1222C20.1333 23.2075 20.5925 23.239 20.9744 23.293C20.9401 24.1578 20.9303 24.6172 20.9689 25.4861C20.5824 25.5089 20.0634 25.5268 19.6952 25.5974C20.0736 25.6522 20.5944 25.6768 20.9853 25.7051C21.0734 26.4672 21.1798 27.1565 21.3679 27.8983C21.0452 27.9066 20.0375 27.9752 19.7506 28.039C20.3007 28.0738 20.8644 28.0608 21.4193 28.0864C21.6994 29.2218 22.1076 30.0385 22.6629 31.052C22.3232 31.0517 20.8858 31.1693 20.6233 31.2524C21.3005 31.3145 22.1479 31.3158 22.8314 31.3207C23.2471 31.8765 23.5325 32.2476 23.9818 32.7803C23.7892 32.7887 23.4316 32.8473 23.2285 32.8757L23.2693 32.9341C23.5301 32.9303 23.8937 32.9614 24.1616 32.977C24.5238 33.3445 24.8917 33.697 25.2969 34.0169C25.5298 34.201 25.7544 34.3415 25.9888 34.5126C24.3711 34.5627 22.5316 34.5467 20.9049 34.5313C20.5297 34.1167 19.9678 32.9563 19.7222 32.4327C19.989 32.4233 21.2523 32.3623 21.437 32.3013C21.3285 32.2646 19.8737 32.261 19.6507 32.2555C19.2535 31.4139 18.9836 30.3882 18.78 29.4859C18.9812 29.4833 20.4821 29.4285 20.5367 29.3547C20.3468 29.295 19.0615 29.3313 18.7607 29.324C18.5904 28.5108 18.5273 27.7268 18.5106 26.8991C18.9149 26.8656 19.5708 26.8809 19.9468 26.8059C19.4951 26.7555 18.9653 26.7538 18.5043 26.7374C18.4759 26.1261 18.5669 25.0056 18.6726 24.4042C19.0635 24.3796 19.6011 24.3786 19.974 24.3206C19.6172 24.2615 19.0932 24.2299 18.7198 24.1973C18.9096 23.2179 19.0972 22.4985 19.408 21.5635C19.7902 21.5431 20.1891 21.5488 20.5653 21.5102C20.3101 21.4384 19.7794 21.4032 19.4916 21.3746C19.6373 21.0159 19.8879 20.4276 20.072 20.0965C20.4678 20.0942 20.8634 20.0818 21.2585 20.0591C20.9962 19.986 20.4315 19.944 20.1449 19.917Z" fill="#E76F51"/>
<path id="Vector_2" d="M23.2697 32.9352C23.1919 32.9365 23.1147 32.9455 23.0449 32.9145C23.1085 32.8755 23.148 32.8837 23.2289 32.8766L23.2697 32.9352Z" fill="#020101"/>
<path id="Vector_3" d="M21.2803 33.906C21.5936 33.883 23.4885 33.8514 23.7065 33.9043L23.692 33.9337C23.4346 33.9645 22.9741 33.9713 22.705 33.9711C22.3134 33.9709 21.6861 33.9907 21.3014 33.9489L21.2803 33.906Z" fill="#020101"/>
<path id="Vector_4" d="M15.6792 15.7123C16.239 15.6871 16.7451 15.7388 17.2935 15.8257C18.9551 16.0892 20.0414 16.7741 21.3075 17.8012C19.7843 17.6018 17.3107 18.2193 15.8627 18.7095C15.8984 18.2307 15.9823 17.7198 16.0226 17.2256C15.6181 17.6549 15.3487 18.3867 15.1714 18.9405C14.7763 19.086 14.3684 19.2731 13.9822 19.4448C13.9167 18.9452 13.8596 18.4615 13.755 17.968C13.5929 18.3443 13.4992 18.7157 13.424 19.1163C13.3867 19.3278 13.3578 19.5729 13.3262 19.7877C12.9114 20.036 12.5063 20.2999 12.1115 20.5789C11.9642 20.1703 11.8405 19.6405 11.6795 19.1804C11.541 19.7431 11.5096 20.4796 11.5341 21.0603C10.8299 21.6921 10.4631 22.1167 9.90305 22.8689C9.86281 22.6134 9.82342 22.3381 9.80708 22.0806C9.70545 20.4789 10.3023 18.9085 11.3636 17.7171C12.5403 16.3962 13.9538 15.8164 15.6792 15.7123Z" fill="#2A9D8F" stroke="#020101" stroke-width="0.1"/>
<path id="Vector_5" d="M26.5018 16.1607C27.2269 16.1379 27.951 16.2299 28.6474 16.4331C30.133 16.8892 31.3815 17.908 32.1263 19.272C32.8587 20.6418 32.9523 22.1403 32.5053 23.6143C32.1534 23.0807 31.8412 22.6396 31.4074 22.1625C31.1928 21.9268 30.959 21.7161 30.753 21.4879C30.8332 20.8687 30.7707 20.1918 30.5993 19.5927C30.4429 20.0115 30.296 20.5151 30.1599 20.9456C30.0132 20.8454 29.8385 20.7023 29.6956 20.5915C29.4335 20.3996 29.1645 20.217 28.8894 20.0442C28.764 19.3326 28.6578 18.8693 28.3887 18.188C28.3008 18.6797 28.2573 19.1589 28.198 19.6536C27.873 19.4604 27.4601 19.2764 27.1154 19.1191C26.8603 18.5738 26.7556 18.2408 26.4229 17.7C26.4327 18.0682 26.4995 18.5574 26.541 18.9318C25.4007 18.4838 24.3334 18.1037 23.1086 17.9348C22.6012 17.8648 22.1992 17.8449 21.6929 17.8112C21.9285 17.6723 22.1774 17.4859 22.431 17.3373C23.8037 16.5335 24.9204 16.2034 26.5018 16.1607Z" fill="#8AB17D" stroke="#020101" stroke-width="0.1"/>
<path id="Vector_6" d="M27.677 12.3834C29.7976 12.1083 32.4478 13.753 32.9972 15.8495C32.7176 15.7774 32.3966 15.6596 32.1082 15.5792C31.6552 15.4528 31.2771 15.3876 30.8115 15.3086C30.4291 14.7345 30.0998 14.4 29.5538 13.9875C29.6989 14.4183 29.8763 14.8344 30.0188 15.2758C29.4886 15.2729 28.9181 15.2908 28.3966 15.389C28.065 14.9551 27.6126 14.357 27.1809 14.022C27.3102 14.5265 27.51 14.9998 27.6527 15.4998L27.3129 15.5904C27.1965 15.6294 27.079 15.673 26.9583 15.6937C26.4515 15.2761 25.9685 15.0541 25.3822 14.7928C25.5204 15.0666 25.9397 15.6509 26.1265 15.9248C24.4346 16.2395 22.9762 16.753 21.5752 17.7634C21.684 17.4995 21.771 17.224 21.8742 16.9568C22.8145 14.5227 24.9981 12.5889 27.677 12.3834Z" fill="#8AB17D" stroke="#020101" stroke-width="0.1"/>
<path id="Vector_7" d="M21.6138 17.9083C23.3471 17.9644 25.0705 18.2567 26.4611 19.3638C27.7614 20.399 28.5595 21.6546 28.7504 23.3284C28.928 24.8324 28.5062 26.3458 27.5759 27.541C27.5386 27.4314 27.5021 27.3036 27.4714 27.1916C27.3283 26.6712 27.1363 26.1873 26.9307 25.6889L26.81 25.3873C27.0574 24.9358 27.1726 24.5453 27.2858 24.0501C27.0896 24.2015 26.7119 24.5703 26.5206 24.7454C26.2875 24.3442 26.077 23.9232 25.8328 23.5062C26.039 23.0283 26.2271 22.5674 26.337 22.0568C26.0915 22.2309 25.6637 22.6949 25.4538 22.9272C25.1689 22.5156 24.9183 22.1613 24.616 21.7599C24.7899 21.1555 24.8167 20.7882 24.8039 20.1748C24.6088 20.3976 24.3192 20.9162 24.1411 21.1971C23.7847 20.7345 21.6586 18.2613 21.6138 17.9083Z" fill="#8AB17D" stroke="#020101" stroke-width="0.1"/>
<path id="Vector_8" d="M14.5002 11.7228C15.4091 11.6368 16.5523 11.8802 17.3702 12.2643C17.8504 12.4899 18.546 12.9155 18.9369 13.298C19.8062 14.1485 20.4739 15.2855 20.9247 16.4087C21.1066 16.862 21.2316 17.2879 21.3975 17.7355C20.7661 17.2154 20.1051 16.741 19.3747 16.3691C18.7315 16.0416 18.0526 15.7707 17.398 15.4663C17.6689 15.1151 17.8668 14.8627 18.0657 14.4625C17.6283 14.6094 17.3727 14.743 16.9801 14.9839L16.7382 15.1458C16.4393 15.0211 16.1025 14.9054 15.7955 14.7952C16.0142 14.3989 16.2393 13.9728 16.3942 13.5485C15.8519 13.848 15.4719 14.1437 15.0768 14.6175C14.5373 14.487 14.0989 14.3985 13.5504 14.3031C13.7444 13.956 13.9953 13.4751 14.1229 13.106C13.5375 13.3578 13.0781 13.7814 12.6429 14.2345C11.6204 14.2668 10.9304 14.3068 9.9248 14.5708C10.1214 14.2044 10.3594 13.8618 10.6339 13.5495C11.5946 12.4664 13.0632 11.81 14.5002 11.7228Z" fill="#2A9D8F" stroke="#020101" stroke-width="0.1"/>
<path id="Vector_9" d="M20.0353 17.8898C20.4755 17.8599 20.9511 17.8741 21.3939 17.8835C20.921 18.5088 20.3309 19.0427 19.772 19.5829C19.4345 19.9145 19.1023 20.2514 18.7755 20.5934C18.542 20.2604 18.3342 19.7988 18.0829 19.4947C18.1152 20.0583 18.1372 20.5026 18.2477 21.0558C17.938 21.3333 17.6254 21.6602 17.3243 21.9541C17.0276 21.6071 16.7605 21.2411 16.4519 20.888C16.5383 21.467 16.658 21.9686 16.8626 22.518L16.0186 23.6328C15.738 23.2734 15.4883 22.8829 15.2067 22.5155C15.2109 22.9026 15.2889 23.3007 15.3664 23.6791C15.4217 23.9175 15.4862 24.1099 15.566 24.3383C14.9914 25.3124 14.7098 25.8854 14.2707 26.9335C13.8753 26.2883 13.6557 25.3618 13.6058 24.6277C13.4343 22.1058 14.7956 19.6876 17.0975 18.6091C18.1033 18.1378 18.9418 17.9756 20.0353 17.8898Z" fill="#8AB17D" stroke="#020101" stroke-width="0.1"/>
<path id="Vector_10" d="M26.9726 8.30939C27.7803 8.21711 28.8678 8.4303 29.5684 8.84702C28.7281 9.20671 28.2557 9.454 27.4859 9.97004C26.924 9.79643 26.5678 9.67536 25.9811 9.6157C26.2229 9.86515 26.6367 10.1886 26.9188 10.3944C26.7314 10.5689 26.5413 10.7406 26.3488 10.9095C25.7819 10.8753 25.2849 10.859 24.7202 10.9169C25.0676 11.1123 25.4199 11.2991 25.777 11.4769C25.5707 11.6997 25.3621 11.9201 25.1508 12.138C24.5071 12.1903 23.9786 12.266 23.3689 12.4902C23.7624 12.6256 24.1318 12.7108 24.5317 12.8166L23.7875 13.7873C23.6013 14.0571 23.3964 14.3387 23.1816 14.5874C22.4091 15.4814 21.9045 16.4905 21.54 17.6081C21.5456 14.9433 21.4737 12.3765 23.3083 10.1785C24.2354 9.06788 25.5291 8.42221 26.9726 8.30939Z" fill="#2A9D8F" stroke="#020101" stroke-width="0.1"/>
<path id="Vector_11" d="M15.6783 8.26624C15.7669 8.25511 15.9395 8.25197 16.0333 8.24931C17.3671 8.22421 18.6566 8.72809 19.6201 9.65085C20.9314 10.8995 21.4424 12.5903 21.4974 14.358C21.5085 14.7151 21.4822 15.1596 21.4718 15.5216C21.4464 16.2245 21.4392 16.9278 21.4498 17.6311C21.18 16.6879 20.8987 16.0031 20.4399 15.1361C20.2374 14.7834 19.9924 14.3882 19.7443 14.0663C19.2259 13.394 18.7658 12.6927 18.2483 12.0196C18.6614 11.8997 19.0718 11.7713 19.4795 11.6344C18.8627 11.4937 18.4117 11.4201 17.7883 11.3359C17.616 11.1654 17.1462 10.6304 17.0043 10.4429C17.3704 10.2211 17.7312 10.0064 18.0815 9.75981C17.4383 9.74938 17.1093 9.8159 16.4992 9.93544C15.7378 9.28252 15.3304 8.99918 14.4331 8.54026C14.84 8.36701 15.2441 8.30796 15.6783 8.26624Z" fill="#2A9D8F" stroke="#020101" stroke-width="0.1"/>
</g>
<path id="Union" d="M16.1118 5.6543C17.7447 5.66304 19.2326 6.0806 20.5083 6.9209C20.9421 7.20672 21.3392 7.5344 21.7017 7.89648L21.7036 7.89551C23.9841 5.7116 27.6294 4.9712 30.5913 6.47266C30.5968 6.47546 30.6034 6.47852 30.6089 6.48145L30.8687 6.62207L30.8843 6.63086C31.5789 7.02527 32.431 7.92508 32.3413 9.24512C32.2995 9.85917 32.082 10.3342 31.8081 10.6982C32.7092 11.1973 33.5133 11.8693 34.1694 12.6846L34.354 12.9229L34.3638 12.9355L34.5405 13.1816L34.5483 13.1953C34.75 13.4895 34.9758 13.8565 35.1655 14.2578C35.3886 14.7296 35.7038 15.5362 35.6099 16.4248C35.5235 17.2368 35.0971 17.8625 34.5679 18.2656C34.8182 18.7925 35.0161 19.3475 35.1528 19.9238C35.1545 19.9302 35.1562 19.9369 35.1577 19.9434C35.46 21.2361 35.4585 22.5818 35.1528 23.874C35.1521 23.877 35.1516 23.8808 35.1509 23.8838C35.0934 24.122 34.9687 24.6043 34.7183 25.0732C34.4967 25.4876 33.9144 26.3763 32.7437 26.5664H32.7407L32.7417 26.5674C32.1014 26.6707 31.5702 26.5367 31.1499 26.3223C30.9673 26.9703 30.7045 27.6111 30.3394 28.2129C30.2234 28.4041 29.9426 28.8821 29.5718 29.2998C29.2724 29.6369 28.4645 30.46 27.2241 30.416L27.2231 30.415C26.7521 30.3981 26.2906 30.2585 25.8862 29.9902L25.7163 29.8682C25.3143 29.5515 25.0826 29.176 24.9507 28.917L24.8638 28.7324C24.7833 28.5468 24.7206 28.3615 24.6753 28.2139C24.6298 28.0656 24.5722 27.8469 24.5669 27.8252C24.408 27.2776 24.2056 26.7524 23.9673 26.2422C24.1334 27.2323 24.428 28.16 24.8433 28.917L25.0649 29.291C25.5842 30.1273 26.1206 30.7505 26.8931 31.4004L26.9116 31.415L27.1733 31.626C27.2615 31.6941 27.351 31.7602 27.4409 31.8242C27.5284 31.8863 27.619 31.9437 27.7739 32.043L28.0142 32.1992L28.0288 32.209L28.2749 32.3838L28.2925 32.3984L28.2935 32.3975C28.5702 32.6033 28.857 32.8927 29.062 33.2842L29.144 33.459L29.1577 33.4922L29.2124 33.6357C29.2167 33.6472 29.2174 33.6602 29.2212 33.6719H29.2231C29.4125 34.2588 29.3498 34.8037 29.2319 35.2109C29.229 35.221 29.2255 35.2313 29.2222 35.2412V35.2432L29.2202 35.2422C29.0277 35.8765 28.6064 36.4144 28.0386 36.75C28.033 36.7533 28.0267 36.7566 28.021 36.7598L27.9399 36.8047C27.9339 36.808 27.9275 36.8122 27.9214 36.8154C27.6202 36.9733 27.3223 37.039 27.1353 37.0703C27.1296 37.0713 27.1234 37.0724 27.1177 37.0732L26.9937 37.0908C26.9887 37.0915 26.983 37.0931 26.978 37.0938C26.7671 37.1199 26.5567 37.1275 26.396 37.1309C26.1197 37.1367 25.6938 37.1271 25.6606 37.127L25.6597 37.126H23.9038L22.0698 37.1299L22.0708 37.1309L21.2612 37.1406C21.0871 37.1398 20.897 37.1355 20.7173 37.124C20.6093 37.1171 20.4243 37.1028 20.2222 37.0645C20.2122 37.0626 20.2018 37.0599 20.1919 37.0576L20.0366 37.0225C20.0255 37.0199 20.0144 37.0167 20.0034 37.0137C19.5674 36.8934 19.2655 36.6628 19.1274 36.5488C18.9571 36.4082 18.819 36.2606 18.7192 36.1436C18.5205 35.9102 18.346 35.6517 18.2134 35.4414C18.009 35.1174 17.8284 34.7865 17.7163 34.5781C17.7157 34.577 17.7149 34.5753 17.7144 34.5742L17.6235 34.4072L17.6177 34.3945C16.7727 32.7914 16.2033 31.0775 15.9146 29.3223C15.7232 29.4504 15.5149 29.5578 15.2886 29.6387C13.8952 30.1366 12.7615 29.3886 12.2075 28.666L12.104 28.5234C11.7222 27.9504 11.4698 27.3142 11.3062 26.8086C11.1808 26.4212 11.0854 26.0247 11.0171 25.624C10.4761 25.8351 9.79215 25.9316 9.08545 25.6602L9.08447 25.6592C8.35388 25.3778 7.9418 24.8345 7.729 24.4541C7.34254 23.7626 7.25635 22.9605 7.22705 22.6992C7.22581 22.688 7.22547 22.6783 7.2251 22.6738C7.22456 22.67 7.22364 22.6659 7.22314 22.6621L7.22412 22.6611C7.22368 22.6576 7.22257 22.6539 7.22217 22.6504C7.07393 21.3355 7.23501 20.0037 7.69385 18.7637L7.6958 18.7578L7.70361 18.7393L7.70654 18.7324L7.77783 18.5479L7.79346 18.5098L7.79443 18.5068C7.97673 18.0643 8.19265 17.6375 8.43896 17.2295C8.15791 17.0615 7.88582 16.8231 7.65674 16.4854C7.65352 16.4806 7.65009 16.4755 7.64697 16.4707L7.59619 16.3926C7.59254 16.3869 7.58894 16.3808 7.58545 16.375C6.89412 15.2423 7.28822 14.1012 7.49756 13.626C7.73566 13.0857 8.08602 12.6147 8.22217 12.4258L8.23096 12.4121L8.39697 12.1904C8.40015 12.1862 8.40445 12.1819 8.40771 12.1777C9.298 11.0424 10.4807 10.1949 11.7827 9.66895C11.6948 9.42996 11.6339 9.16109 11.6245 8.86133C11.6244 8.85789 11.6246 8.85462 11.6245 8.85156L11.6235 8.81738C11.6234 8.81201 11.6236 8.80614 11.6235 8.80078C11.6164 8.09568 11.8848 7.41234 12.3755 6.89941L12.3872 6.88672L12.4087 6.86523C12.7769 6.49267 13.197 6.27724 13.4917 6.15234C13.8195 6.01348 14.1573 5.9182 14.4604 5.85156L14.4663 5.85059C15.0485 5.72317 15.6265 5.67307 16.0063 5.65625H16.022L16.0884 5.6543H16.1118ZM20.7681 36.3232L21.2642 36.3379V36.3369C21.0982 36.3362 20.9262 36.3333 20.769 36.3232C20.7201 36.3201 20.6584 36.3159 20.5903 36.3086C20.6582 36.3159 20.7192 36.3201 20.7681 36.3232ZM19.8608 36.0889C19.9094 36.1176 19.9637 36.1458 20.0229 36.1719C20.0823 36.198 20.1468 36.2221 20.2163 36.2412V36.2402C20.0082 36.1828 19.844 36.0849 19.7319 36.0039L19.8608 36.0889ZM28.5327 34.6211C28.5269 34.6802 28.5159 34.7372 28.5054 34.793C28.5158 34.7375 28.5269 34.6808 28.5327 34.6221V34.6211ZM19.7896 33.9092H19.7905H19.7896ZM24.7896 32.375C24.9563 32.5408 25.1333 32.7028 25.3198 32.8662C25.1329 32.7025 24.9556 32.5401 24.7886 32.374L24.7896 32.375ZM27.3403 32.7188C27.4098 32.7633 27.4869 32.8125 27.5669 32.8662L27.3413 32.7188L26.9761 32.4785L27.3403 32.7188ZM26.397 32.0312C26.4911 32.1098 26.5866 32.1862 26.6831 32.2607L26.3979 32.0312L26.3901 32.0264L26.397 32.0312ZM18.3521 30.4678C18.3572 30.4864 18.3625 30.5049 18.3677 30.5234C18.3625 30.5049 18.3572 30.4864 18.3521 30.4678ZM25.019 29.3311C25.0184 29.3285 25.0178 29.325 25.0171 29.3223L25.0034 29.2783C25.0102 29.2985 25.0153 29.3168 25.019 29.3311ZM15.2925 28.7627C15.2057 28.8085 15.1144 28.8494 15.0181 28.8838C14.768 28.9731 14.5282 29.0039 14.3032 28.9922C14.4711 29.0009 14.6472 28.9869 14.8296 28.9414C14.8917 28.9259 14.9545 28.9065 15.0181 28.8838C15.1143 28.8494 15.2058 28.8094 15.2925 28.7637V28.7627ZM14.146 28.9766C14.1782 28.9812 14.2108 28.9835 14.2437 28.9863C14.2108 28.9835 14.1782 28.9812 14.146 28.9766ZM13.9771 28.9434C14.0095 28.9514 14.0424 28.9577 14.0757 28.9639C14.0424 28.9577 14.0095 28.9513 13.9771 28.9434ZM13.8306 28.9004C13.8646 28.9119 13.8991 28.9221 13.9341 28.9316C13.8991 28.9221 13.8646 28.9119 13.8306 28.9004ZM13.6782 28.8418C13.7105 28.8559 13.7435 28.8684 13.7769 28.8809C13.7435 28.8684 13.7105 28.8559 13.6782 28.8418ZM13.5454 28.7773C13.5742 28.7927 13.6035 28.8073 13.6333 28.8213C13.6035 28.8073 13.5742 28.7927 13.5454 28.7773ZM13.4214 28.7051C13.4454 28.7201 13.4698 28.7349 13.4946 28.749C13.4698 28.7349 13.4454 28.7201 13.4214 28.7051ZM13.3022 28.625C13.3194 28.6374 13.3364 28.6501 13.354 28.6621C13.3364 28.6501 13.3194 28.6374 13.3022 28.625ZM15.9458 28.2041C15.8581 28.3213 15.7598 28.4271 15.6509 28.5205C15.7598 28.4271 15.8582 28.3212 15.9458 28.2041C15.9918 28.1426 16.0341 28.0794 16.0718 28.0166V28.0156C16.034 28.0786 15.992 28.1424 15.9458 28.2041ZM13.1626 28.5156C13.1879 28.5373 13.2141 28.5583 13.2407 28.5791C13.2141 28.5583 13.1879 28.5373 13.1626 28.5156ZM13.0493 28.4111C13.0782 28.4396 13.1081 28.4677 13.1392 28.4951C13.1081 28.4677 13.0782 28.4396 13.0493 28.4111ZM12.9702 28.3281C12.9896 28.3494 13.0092 28.3708 13.0298 28.3916C13.0092 28.3708 12.9896 28.3494 12.9702 28.3281ZM27.0083 28.1582C27.0254 28.1742 27.0434 28.1882 27.062 28.2012C27.0471 28.1908 27.0329 28.1794 27.019 28.167C27.0156 28.1639 27.0117 28.1614 27.0083 28.1582ZM25.4673 28.0508C25.4815 28.0949 25.4968 28.1404 25.5132 28.1865C25.4968 28.1404 25.4815 28.095 25.4673 28.0508ZM26.9878 28.1396H26.9888H26.9878ZM17.8833 27.8457C17.8908 27.9334 17.8996 28.0209 17.9087 28.1084C17.9073 28.0954 17.9061 28.0824 17.9048 28.0693C17.8984 28.0062 17.8927 27.9431 17.8872 27.8799C17.8862 27.8685 17.8843 27.8571 17.8833 27.8457ZM25.4233 27.9131C25.4263 27.9231 25.43 27.9331 25.4331 27.9434C25.3841 27.7802 25.3513 27.6494 25.3374 27.6016L25.4233 27.9131ZM16.3091 27.5361C16.3075 27.5399 16.3049 27.5441 16.3032 27.5479L16.3042 27.5488C16.3058 27.5452 16.3075 27.5408 16.3091 27.5371C16.3715 27.3908 16.4355 27.2446 16.5015 27.1006V27.0996C16.4354 27.2439 16.3716 27.3895 16.3091 27.5361ZM25.0396 26.7129V26.7139V26.7129ZM30.5083 25.5801L30.5093 25.5791L30.5083 25.5801ZM32.9585 25.6807C32.9673 25.6773 32.9762 25.6744 32.9849 25.6709C32.9762 25.6744 32.9673 25.6773 32.9585 25.6807ZM23.0376 25.2256H23.0386H23.0376ZM33.1597 25.5889C33.1718 25.5823 33.1839 25.5761 33.1958 25.5693C33.1839 25.5761 33.1718 25.5823 33.1597 25.5889ZM33.3345 25.4824C33.3404 25.4783 33.3462 25.4739 33.3521 25.4697C33.3462 25.4739 33.3404 25.4783 33.3345 25.4824ZM33.3706 25.4551C33.4256 25.4147 33.4767 25.3719 33.5249 25.3281C33.4768 25.372 33.4256 25.4146 33.3706 25.4551ZM33.5669 25.2881C33.6051 25.2513 33.6415 25.2145 33.6753 25.1768C33.6416 25.2145 33.6051 25.2513 33.5669 25.2881ZM33.7153 25.1299C33.7466 25.0929 33.7759 25.0561 33.8032 25.0195C33.776 25.0561 33.7466 25.0929 33.7153 25.1299ZM9.78467 25.0117C9.83544 25.0177 9.88582 25.022 9.93604 25.0234C9.88581 25.022 9.83544 25.0177 9.78467 25.0117ZM9.98584 25.0234C10.0235 25.0235 10.0609 25.0228 10.0981 25.0205C10.0609 25.0228 10.0235 25.0235 9.98584 25.0234ZM10.1919 25.0117C10.2171 25.0089 10.2421 25.0058 10.2671 25.002C10.2421 25.0058 10.2171 25.0089 10.1919 25.0117ZM9.62354 24.9844C9.66638 24.9937 9.70887 25.002 9.75146 25.0078C9.70886 25.002 9.66638 24.9937 9.62354 24.9844ZM10.3569 24.9863C10.3849 24.9807 10.4124 24.9735 10.4399 24.9668C10.4124 24.9735 10.3849 24.9807 10.3569 24.9863ZM33.9292 24.8359C33.9011 24.8817 33.8694 24.9295 33.8345 24.9785C33.8695 24.9293 33.902 24.8818 33.9302 24.8359L34.0103 24.6953L33.9292 24.8359ZM10.52 24.9473C10.5567 24.9368 10.5926 24.9243 10.6284 24.9121C10.5926 24.9243 10.5567 24.9368 10.52 24.9473ZM10.6772 24.8955C10.7014 24.8867 10.7249 24.8767 10.7485 24.8672C10.7249 24.8767 10.7014 24.8867 10.6772 24.8955ZM13.0405 24.5498C13.0412 24.5609 13.0427 24.5719 13.0435 24.583C13.0406 24.5407 13.0387 24.4984 13.0366 24.4561L13.0405 24.5498ZM8.71143 24.4541C8.74942 24.4957 8.79056 24.5363 8.83447 24.5762C8.79054 24.5363 8.74943 24.4957 8.71143 24.4541ZM34.0942 24.5205C34.1084 24.4893 34.1232 24.4587 34.1362 24.4277C34.1232 24.4587 34.1085 24.4893 34.0942 24.5205ZM18.0474 24.1006H18.0483C18.0503 24.0895 18.0522 24.0784 18.0542 24.0674C18.0645 24.009 18.0763 23.9509 18.0874 23.8926C18.0742 23.962 18.0595 24.0311 18.0474 24.1006ZM32.1382 24.4209C32.155 24.4281 32.1718 24.4342 32.189 24.4395C32.1718 24.4342 32.155 24.4281 32.1382 24.4209ZM34.1558 24.3789C34.1862 24.3034 34.2137 24.2295 34.2378 24.1582C34.2137 24.2294 34.1863 24.3034 34.1558 24.3789ZM34.3716 23.6895L34.3706 23.6953C34.3445 23.8037 34.3048 23.9529 34.2495 24.1211C34.2763 24.0396 34.3005 23.9628 34.3198 23.8926L34.3716 23.6953L34.3726 23.6895C34.4029 23.5612 34.4299 23.432 34.4536 23.3027L34.4624 23.248C34.4364 23.3957 34.4062 23.5431 34.3716 23.6895ZM31.4839 23.6875H31.4849H31.4839ZM34.4731 23.1768C34.4915 23.0666 34.5074 22.9563 34.521 22.8457C34.5074 22.9563 34.4915 23.0667 34.4731 23.1768ZM34.5366 22.7021C34.5475 22.5974 34.5574 22.4927 34.564 22.3877C34.5573 22.4927 34.5475 22.5974 34.5366 22.7021ZM34.5679 22.292C34.5732 22.1872 34.5766 22.0824 34.5776 21.9775C34.5766 22.0824 34.5732 22.1872 34.5679 22.292ZM7.97217 21.6865C7.97194 21.7887 7.97513 21.8909 7.979 21.9932C7.97511 21.8909 7.97197 21.7887 7.97217 21.6865ZM34.5786 21.8525C34.5779 21.7359 34.5748 21.6194 34.5688 21.5029C34.5748 21.6194 34.5779 21.7359 34.5786 21.8525ZM7.98291 21.293C7.97858 21.3736 7.97687 21.4544 7.9751 21.5352C7.97685 21.4544 7.97861 21.3736 7.98291 21.293ZM34.564 21.4141C34.5561 21.2876 34.5458 21.1612 34.5317 21.0352C34.5458 21.1612 34.5561 21.2876 34.564 21.4141ZM8.01611 20.8867C8.00841 20.9586 8.00225 21.0305 7.99658 21.1025C8.00223 21.0305 8.00844 20.9586 8.01611 20.8867ZM8.07373 20.4658C8.06181 20.5387 8.04936 20.6114 8.03955 20.6846C8.04934 20.6114 8.06183 20.5387 8.07373 20.4658ZM8.15381 20.0488C8.13778 20.1214 8.12085 20.1937 8.10693 20.2666C8.12083 20.1937 8.13779 20.1214 8.15381 20.0488ZM34.1196 19.2676C34.2212 19.5464 34.3069 19.8322 34.3755 20.124H34.3765C34.3536 20.0267 34.3289 19.93 34.3022 19.834C34.2224 19.5463 34.1254 19.2651 34.0132 18.9912L34.1196 19.2676ZM8.25928 19.6279C8.2378 19.7043 8.21586 19.7805 8.19678 19.8574C8.21585 19.7805 8.2378 19.7043 8.25928 19.6279ZM33.4829 17.9385V17.9375V17.9385ZM34.812 16.3398V16.3408C34.7788 16.6533 34.674 16.9277 34.5229 17.1582C34.6743 16.9276 34.7797 16.6534 34.813 16.3408C34.8212 16.2626 34.8235 16.1847 34.8237 16.1074C34.8234 16.1844 34.8202 16.2619 34.812 16.3398ZM11.1567 17.1641C11.1366 17.1853 11.118 17.208 11.0981 17.2295C11.1099 17.2168 11.1215 17.204 11.1333 17.1914C11.1415 17.1827 11.1485 17.1728 11.1567 17.1641ZM11.3569 16.9619C11.3715 16.9478 11.3872 16.9349 11.4019 16.9209C11.4062 16.9168 11.4102 16.9123 11.4146 16.9082C11.3955 16.9262 11.3758 16.9437 11.3569 16.9619ZM11.7827 16.584C11.7558 16.6058 11.7301 16.6291 11.7036 16.6514C11.7084 16.6473 11.7135 16.6437 11.7183 16.6396C11.74 16.6215 11.7607 16.6019 11.7827 16.584ZM8.47314 16.2305C8.48588 16.2446 8.50021 16.257 8.51318 16.2705C8.47298 16.2288 8.43278 16.185 8.39502 16.1367L8.47314 16.2305ZM34.8228 16.0615C34.8218 16.0011 34.8191 15.9413 34.814 15.8818C34.819 15.9413 34.8219 16.0011 34.8228 16.0615ZM8.18994 15.8115C8.21399 15.8599 8.24057 15.9088 8.27002 15.957V15.9561C8.24065 15.9079 8.21394 15.8598 8.18994 15.8115ZM34.7319 15.4004C34.7665 15.5378 34.7946 15.6809 34.8101 15.8281C34.7945 15.6809 34.7665 15.5378 34.7319 15.4004ZM8.12744 15.6719C8.14454 15.7149 8.16399 15.7577 8.18506 15.8008C8.16398 15.7577 8.14455 15.7149 8.12744 15.6719ZM8.07764 15.5293C8.08607 15.557 8.096 15.5845 8.10596 15.6123C8.096 15.5845 8.08607 15.557 8.07764 15.5293ZM8.04346 15.3965C8.05093 15.4299 8.05928 15.4634 8.06885 15.4971C8.05928 15.4634 8.05093 15.4299 8.04346 15.3965ZM9.63916 15.4375C9.64919 15.4407 9.65992 15.4417 9.67041 15.4443C9.6691 15.444 9.66781 15.4437 9.6665 15.4434C9.65738 15.441 9.64794 15.4403 9.63916 15.4375ZM34.7241 15.3691C34.7117 15.3214 34.6981 15.2746 34.6841 15.2285C34.6981 15.2746 34.7117 15.3214 34.7241 15.3691ZM8.01611 15.249C8.02011 15.2776 8.02535 15.3061 8.03076 15.335C8.02534 15.3061 8.02011 15.2776 8.01611 15.249ZM9.41064 15.2598C9.42446 15.2824 9.44005 15.3027 9.45654 15.3213C9.44016 15.3028 9.42536 15.2822 9.41162 15.2598C9.39633 15.2347 9.38313 15.2087 9.37256 15.1816L9.41064 15.2598ZM8.00732 15.1641C8.00913 15.1832 8.0098 15.2024 8.01221 15.2217C8.0098 15.2024 8.00913 15.1832 8.00732 15.1641ZM9.33545 15.0078L9.33643 15.0088L9.33545 15.0078ZM8.02783 14.6279C8.02117 14.6691 8.01575 14.7111 8.01123 14.7539C8.01575 14.7111 8.02116 14.6691 8.02783 14.6279ZM34.439 14.6006C34.4412 14.6054 34.4435 14.6104 34.4458 14.6152L34.4399 14.6006C34.4 14.5162 34.3571 14.4337 34.314 14.3525C34.357 14.4336 34.3991 14.5163 34.439 14.6006ZM9.45557 14.4883C9.4387 14.5266 9.42321 14.5646 9.40967 14.6016L9.45557 14.4893C9.48869 14.4141 9.52604 14.3387 9.56689 14.2656C9.52613 14.3386 9.48864 14.4133 9.45557 14.4883ZM8.08545 14.3623C8.07123 14.4141 8.05694 14.4677 8.04541 14.5234C8.05694 14.4677 8.07123 14.4141 8.08545 14.3623ZM34.3022 14.3311C34.2716 14.274 34.2401 14.2181 34.2085 14.1631C34.24 14.2181 34.2717 14.274 34.3022 14.3311ZM9.95654 13.6768C9.87713 13.787 9.78473 13.9148 9.6958 14.0527L9.95752 13.6768C10.0014 13.6159 10.0461 13.5559 10.0923 13.4971C10.0461 13.556 10.0004 13.6159 9.95654 13.6768ZM10.5376 12.9941C10.4847 13.047 10.4331 13.1013 10.3823 13.1562C10.4836 13.0466 10.5893 12.9411 10.6987 12.8398L10.5376 12.9941ZM33.2769 12.876C33.3565 12.9642 33.4347 13.054 33.5103 13.1465C33.4347 13.054 33.3565 12.9642 33.2769 12.876ZM29.6489 12.0938C29.9058 12.1726 30.1566 12.2674 30.3989 12.3799C30.1566 12.2674 29.9058 12.1726 29.6489 12.0938ZM11.5845 12.1621H11.5854H11.5845ZM31.5269 11.4609C31.8813 11.6652 32.218 11.8999 32.5337 12.1621C32.3548 12.0135 32.1699 11.8726 31.978 11.7422C31.9048 11.6925 31.8303 11.6446 31.7554 11.5977C31.6051 11.5034 31.4513 11.4149 31.2944 11.332L31.5269 11.4609ZM10.2612 11.46C10.1247 11.5662 9.99063 11.676 9.86182 11.792C9.99062 11.6759 10.1247 11.5663 10.2612 11.46ZM13.2173 11.4326C13.0017 11.4949 12.7894 11.5682 12.5815 11.6523C12.7893 11.5682 13.0017 11.4949 13.2173 11.4326ZM28.5181 11.8633C28.5857 11.8703 28.6537 11.8794 28.7212 11.8887C28.8188 11.902 28.9159 11.9174 29.0122 11.9355C28.9158 11.9174 28.8188 11.901 28.7212 11.8877C28.6536 11.8784 28.5858 11.8703 28.5181 11.8633ZM21.604 11.3633C21.619 11.3681 21.6347 11.3707 21.6509 11.3711C21.6314 11.3706 21.6129 11.3652 21.5952 11.3584C21.5983 11.3596 21.6008 11.3623 21.604 11.3633ZM21.6958 11.3662H21.6968H21.6958ZM30.3188 10.9053C30.403 10.9349 30.487 10.9654 30.5698 10.998C30.4872 10.9655 30.4037 10.9348 30.3198 10.9053L30.3276 10.9014C30.3247 10.9027 30.3217 10.9038 30.3188 10.9053ZM14.9907 11.1787C15.1393 11.1785 15.2879 11.1838 15.436 11.1943C15.2879 11.1838 15.1393 11.1785 14.9907 11.1787ZM23.7183 8.98828C23.4698 9.17264 23.236 9.37737 23.021 9.60156L23.022 9.60254C23.237 9.37835 23.4698 9.17264 23.7183 8.98828ZM31.5386 8.91895C31.5379 8.90945 31.5365 8.90005 31.5356 8.89062C31.5365 8.90006 31.5379 8.90945 31.5386 8.91895ZM31.5249 8.79297C31.5223 8.77491 31.5192 8.75705 31.5161 8.73926C31.5192 8.75706 31.5223 8.77491 31.5249 8.79297ZM31.5005 8.65918C31.4959 8.63816 31.4911 8.61731 31.4858 8.59668C31.4911 8.61731 31.4959 8.63816 31.5005 8.65918ZM29.4126 8.28027C29.5542 8.34377 29.6932 8.4148 29.8296 8.49219C29.8583 8.50847 29.8862 8.52572 29.9126 8.54492C29.8862 8.52564 29.8584 8.50755 29.8296 8.49121C29.6933 8.4139 29.5541 8.34372 29.4126 8.28027ZM31.4634 8.51758C31.4581 8.50017 31.4526 8.48293 31.4468 8.46582C31.4526 8.48293 31.4581 8.50017 31.4634 8.51758ZM25.1392 8.21484C24.9947 8.2696 24.8523 8.32972 24.7124 8.39551C24.8522 8.32972 24.9947 8.2696 25.1392 8.21484ZM31.3687 8.27051C31.3495 8.22956 31.3297 8.1893 31.3081 8.15039C31.3297 8.1893 31.3495 8.22955 31.3687 8.27051ZM14.3257 8.12207C14.3368 8.11737 14.3485 8.11397 14.3599 8.10938C14.3655 8.10709 14.3708 8.10382 14.3765 8.10156C14.3593 8.10836 14.3423 8.11503 14.3257 8.12207ZM28.9819 8.11133V8.11035V8.11133ZM26.4819 7.87598C26.253 7.90603 26.0256 7.94933 25.8013 8.00586C26.0256 7.94933 26.2531 7.90604 26.4819 7.87598ZM17.0132 7.85645C17.1594 7.87644 17.3026 7.90133 17.4429 7.93066L17.23 7.88965C17.1585 7.87732 17.0862 7.86643 17.0132 7.85645ZM16.1001 7.79395C15.9474 7.80071 15.7588 7.81436 15.5552 7.83789C15.7588 7.81435 15.9474 7.80072 16.1001 7.79395ZM31.0356 7.77051C31.0276 7.76158 31.0194 7.75289 31.0112 7.74414C31.0194 7.75289 31.0276 7.76158 31.0356 7.77051ZM18.9478 6.99805C19.3394 7.15948 19.7121 7.3578 20.0659 7.59082V7.58984C19.9954 7.54343 19.9241 7.49865 19.8521 7.45508C19.5627 7.27999 19.2612 7.12723 18.9478 6.99805ZM30.8687 7.60449C30.8309 7.57051 30.7911 7.54014 30.7524 7.50977C30.7911 7.54015 30.8309 7.5705 30.8687 7.60449ZM28.9546 6.70605C29.3904 6.82015 29.8179 6.98001 30.229 7.18848V7.1875C30.1467 7.14576 30.0635 7.10624 29.98 7.06836C29.8132 6.99275 29.6441 6.9247 29.4731 6.86426C29.3877 6.83403 29.3017 6.80579 29.2153 6.7793C29.0424 6.72623 28.8677 6.68092 28.6919 6.64258L28.9546 6.70605ZM13.355 7.12891C13.3145 7.15513 13.2742 7.18314 13.2339 7.21289C13.2742 7.18314 13.3145 7.15513 13.355 7.12891ZM13.5591 7.00879C13.5152 7.03203 13.4703 7.05681 13.4253 7.08398C13.4703 7.05681 13.5152 7.03203 13.5591 7.00879ZM14.1606 6.76074C14.1322 6.76976 14.104 6.77945 14.0757 6.78906C14.104 6.77948 14.1322 6.76973 14.1606 6.76074Z" fill="white" fill-opacity="0.3"/>
</g>
</g>
</g>
</svg>
