<svg width="50" height="50" viewBox="0 0 50 50" fill="none" xmlns="http://www.w3.org/2000/svg">
<rect width="50" height="50" fill="#BEBEBE"/>
<g id="Decorate Mode">
<path d="M-296.703 -1007.03V-1006.03H2723.3V-1007.03V-1008.03H-296.703V-1007.03ZM2725.3 -1005.03H2724.3V2532.97H2725.3H2726.3V-1005.03H2725.3ZM2723.3 2534.97V2533.97H-296.703V2534.97V2535.97H2723.3V2534.97ZM-298.703 2532.97H-297.703V-1005.03H-298.703H-299.703V2532.97H-298.703ZM-296.703 2534.97V2533.97C-297.255 2533.97 -297.703 2533.52 -297.703 2532.97H-298.703H-299.703C-299.703 2534.62 -298.36 2535.97 -296.703 2535.97V2534.97ZM2725.3 2532.97H2724.3C2724.3 2533.52 2723.85 2533.97 2723.3 2533.97V2534.97V2535.97C2724.95 2535.97 2726.3 2534.62 2726.3 2532.97H2725.3ZM2723.3 -1007.03V-1006.03C2723.85 -1006.03 2724.3 -1005.59 2724.3 -1005.03H2725.3H2726.3C2726.3 -1006.69 2724.95 -1008.03 2723.3 -1008.03V-1007.03ZM-296.703 -1007.03V-1008.03C-298.359 -1008.03 -299.703 -1006.69 -299.703 -1005.03H-298.703H-297.703C-297.703 -1005.59 -297.255 -1006.03 -296.703 -1006.03V-1007.03Z" fill="black" fill-opacity="0.1"/>
<g id="Stickers">
<rect x="-244.694" y="-134.534" width="374" height="551" rx="4.5" stroke="#9747FF" stroke-dasharray="10 5"/>
<g id="Property 1=five-point star">
<g id="Frame 136">
<path id="Vector" d="M24.8032 7.34564C25.3445 7.31753 25.7226 7.44606 26.0024 7.7558C26.127 7.89369 26.2185 8.05337 26.2964 8.20404C26.3357 8.28009 26.3743 8.36117 26.4126 8.43939L26.5347 8.68158L26.5356 8.68353L27.4907 10.539L28.4575 12.4286C28.7764 13.0603 29.0927 13.6931 29.4087 14.3251C30.0129 15.5337 30.6156 16.7394 31.231 17.9326C32.0783 18.0738 33.0258 18.1907 33.8882 18.3124H33.8872L40.0239 19.162L40.0269 19.163L42.2173 19.4804H42.2163C42.4339 19.5114 42.8486 19.5485 43.2075 19.6181C43.3942 19.6543 43.5891 19.7022 43.7661 19.7714C43.939 19.839 44.1216 19.9374 44.2612 20.0869C44.5216 20.3656 44.6575 20.7386 44.6372 21.1191V21.121C44.632 21.2073 44.6112 21.3215 44.5845 21.4238C44.562 21.5096 44.5169 21.6628 44.4302 21.7734C44.1024 22.1915 43.6662 22.5487 43.3149 22.8535L43.313 22.8554L41.6743 24.2499L41.6724 24.2519L35.314 29.6132C35.4196 30.2793 35.5067 31.0493 35.5894 31.6816L36.1431 35.871L36.5923 39.2079L36.731 40.1826C36.7766 40.5139 36.8182 40.8481 36.8462 41.1738C36.9429 42.3009 35.7445 42.9738 34.8062 42.5175C34.2978 42.2702 33.856 41.9942 33.4019 41.7216V41.7206L31.3081 40.4706L25.0122 36.7324C24.4952 37.0133 24.0034 37.3339 23.4644 37.6523L23.4634 37.6513L17.9536 40.9247L17.9546 40.9257L16.3345 41.8935C15.9862 42.1017 15.6342 42.3251 15.23 42.5146C14.7539 42.7375 14.2322 42.7093 13.8286 42.4638C13.4184 42.2143 13.1588 41.7567 13.1899 41.1992C13.2139 40.7691 13.2752 40.3488 13.3276 39.9453L13.5933 37.872C13.9416 35.1124 14.3178 32.3566 14.7212 29.6044C14.4727 29.3749 14.1281 29.1006 13.8628 28.8828V28.8818C13.4405 28.5339 13.021 28.1825 12.605 27.8271L8.11963 24.037V24.038C7.59868 23.6086 7.08414 23.1715 6.57568 22.7275C6.43318 22.6031 6.17308 22.3942 5.95557 22.1806C5.74789 21.9766 5.49398 21.6911 5.41748 21.372L5.4165 21.3691C5.32873 20.9894 5.39833 20.5899 5.60986 20.2626C5.84417 19.897 6.21576 19.7373 6.54443 19.6542C6.85853 19.5748 7.23197 19.5463 7.46045 19.5136H7.46143L9.28076 19.2548H9.28271L15.6235 18.3779H15.6255L17.7329 18.0947C18.0558 18.051 18.4899 17.9988 18.8081 17.9404C19.1744 17.1658 19.5562 16.4025 19.9429 15.6425C21.2144 13.1431 22.4796 10.634 23.7729 8.14154C23.8736 7.94768 23.9837 7.77573 24.1479 7.63861C24.3132 7.50065 24.5036 7.42292 24.7183 7.36029L24.8032 7.34564Z" fill="#020101" stroke="#020101" stroke-width="0.75" stroke-linejoin="round"/>
<path id="Vector (Stroke)" d="M24.7416 6.15975C25.5257 6.11903 26.296 6.3106 26.8827 6.95992C27.1123 7.214 27.2603 7.48367 27.3509 7.65878C27.3977 7.74936 27.4442 7.8445 27.4796 7.91696L27.5864 8.12997L27.5913 8.14034L28.5447 9.99154C29.2007 11.2557 29.8387 12.5313 30.4704 13.7946C30.9846 14.8232 31.4948 15.8435 32.0115 16.8543C32.6683 16.9515 33.3623 17.0393 34.0501 17.1363L40.1865 17.9859C40.1898 17.9864 40.1931 17.9873 40.1963 17.9878L42.3832 18.3045C42.4912 18.3199 43.0469 18.3772 43.4336 18.4522C43.6568 18.4955 43.9282 18.5605 44.1978 18.6659C44.4515 18.7651 44.8186 18.9437 45.1292 19.2762C45.6104 19.7913 45.8607 20.4799 45.8231 21.1823C45.823 21.1856 45.8227 21.1888 45.8225 21.1921C45.8114 21.3774 45.7736 21.5714 45.7334 21.7249C45.7113 21.8095 45.6182 22.1814 45.3648 22.505L45.3654 22.5056C44.9491 23.0368 44.4001 23.484 44.0934 23.7501C44.0897 23.7533 44.0856 23.7566 44.0818 23.7599L42.4436 25.1545L42.4381 25.1594L36.5836 30.0953C36.6518 30.602 36.713 31.1142 36.7667 31.5254L37.3197 35.7124L37.7683 39.0461L37.9069 40.0208C37.9544 40.3671 37.9992 40.7263 38.0289 41.0719C38.2147 43.2367 35.9439 44.3916 34.2863 43.5853C33.7197 43.3096 33.2219 42.9984 32.7934 42.7412L30.6986 41.4906L25.0016 38.108C24.7221 38.2775 24.4284 38.4624 24.0684 38.675L24.0678 38.6744L18.56 41.9471L18.5593 41.9465L16.9437 42.9127C16.6709 43.0758 16.3126 43.3019 15.9098 43.5047L15.734 43.5902C14.9178 43.9725 13.9735 43.9415 13.2114 43.4779C12.4219 42.9975 11.9489 42.1222 12.0042 41.1329L12.0316 40.771C12.0428 40.6518 12.0553 40.5344 12.0689 40.4206L12.4149 37.7216C12.7369 35.1712 13.0831 32.6241 13.4519 30.08C13.3426 29.9908 13.227 29.8963 13.1095 29.7999L13.1077 29.7987C12.6814 29.4476 12.2586 29.0922 11.8388 28.7336L7.36428 24.9543C6.83458 24.5177 6.31081 24.074 5.79385 23.6225C5.7085 23.5481 5.37167 23.2728 5.12307 23.0287C4.91489 22.8242 4.425 22.3297 4.26186 21.6486C4.26091 21.6447 4.26035 21.6404 4.25942 21.6364C4.09994 20.9465 4.22564 20.2217 4.60793 19.6259C5.0788 18.8883 5.79827 18.6178 6.25283 18.5029C6.64466 18.4038 7.19697 18.3517 7.29226 18.3381H7.29409L9.11355 18.0793L9.11965 18.0787L15.4606 17.2016L15.4667 17.201L17.5755 16.9178C17.7216 16.8981 17.8677 16.8792 18.007 16.861C18.2953 16.2673 18.5899 15.6821 18.8841 15.1038L20.7908 11.3508C21.4287 10.0977 22.0702 8.84432 22.7183 7.5953C22.8468 7.34756 23.0444 7.01313 23.3866 6.72738C23.7326 6.43857 24.1014 6.30297 24.3852 6.22018C24.5012 6.18632 24.6209 6.16603 24.7416 6.15975ZM24.8228 7.71981L24.6885 7.76315C24.3993 7.86785 24.2658 8.00502 24.105 8.3149L23.1406 10.185C22.1803 12.0579 21.2311 13.9367 20.2769 15.8125L19.6604 17.038C19.4578 17.4475 19.2583 17.8585 19.0641 18.2728L19.036 18.2795C18.6962 18.3555 18.1402 18.4186 17.783 18.4669L15.6748 18.7495L9.33328 19.6266L7.51382 19.8847C6.97276 19.9622 6.24346 19.9666 5.92446 20.4664C5.76802 20.7084 5.71672 21.0041 5.78164 21.2849C5.88006 21.6949 6.50014 22.1651 6.82168 22.4458C7.32757 22.8876 7.84023 23.3217 8.35854 23.7489L12.8471 27.5404C13.2619 27.8948 13.6797 28.2458 14.1007 28.5926C14.4017 28.8397 14.857 29.1971 15.12 29.4654C14.7062 32.2796 14.3208 35.098 13.9646 37.92L13.6997 39.9921C13.6461 40.405 13.5873 40.8073 13.5642 41.2202C13.5203 42.0099 14.2349 42.4621 14.932 42.2309L15.0712 42.1754C15.2623 42.0858 15.44 41.9883 15.615 41.8867L17.7622 40.6037L23.2737 37.3292C23.7711 37.0355 24.2646 36.7147 24.7715 36.435L24.9894 36.3178C25.021 36.3013 25.1061 36.3535 25.1328 36.3691L31.5 40.149L33.5947 41.3996C34.0568 41.6769 34.4802 41.942 34.9699 42.1803C35.6589 42.5154 36.4876 42.0372 36.4762 41.28L36.4726 41.2061C36.4176 40.5675 36.3089 39.9012 36.2205 39.2591L35.7713 35.9211L35.2177 31.7304C35.1244 31.0171 35.031 30.1634 34.9107 29.463L41.4304 23.9649L43.0692 22.5703C43.4347 22.2532 43.8357 21.9244 44.1355 21.5418C44.2033 21.4552 44.2559 21.2088 44.2625 21.0987C44.2754 20.8549 44.2013 20.6157 44.055 20.4231L43.9878 20.3431C43.7305 20.0669 43.1164 19.9689 42.6127 19.9067L42.1635 19.8512L39.9723 19.5338L33.8358 18.6842C32.9225 18.5552 31.8835 18.4298 30.9837 18.2728C29.6898 15.7716 28.4575 13.2153 27.158 10.7111L26.2022 8.85568C25.8355 8.1563 25.7519 7.67156 24.8228 7.71981Z" fill="#E8E7E7"/>
<path id="Vector (Stroke) (Stroke)" d="M24.6939 5.24217C25.6619 5.19189 26.7377 5.43051 27.5638 6.34469C27.8736 6.68769 28.0653 7.0411 28.1664 7.23675C28.2187 7.33787 28.2706 7.44235 28.3052 7.51298L28.408 7.71865L29.3598 9.56854C30.0196 10.8398 30.661 12.1218 31.2922 13.3843C31.7343 14.2686 32.1728 15.143 32.6136 16.0103C33.1202 16.081 33.6352 16.15 34.1789 16.2267L40.3121 17.0757C40.3336 17.0787 40.3518 17.0821 40.3623 17.0841H40.3659L42.5123 17.395C42.5123 17.395 42.514 17.3959 42.5159 17.3962C42.518 17.3965 42.5207 17.3969 42.5243 17.3974C42.5319 17.3984 42.542 17.3995 42.5542 17.401C42.579 17.404 42.61 17.4073 42.6475 17.4117C42.7211 17.4205 42.8158 17.4319 42.9201 17.4452C43.1249 17.4714 43.3851 17.507 43.6089 17.5504C43.8605 17.5993 44.191 17.6778 44.532 17.8111C44.8487 17.9349 45.3582 18.1755 45.8008 18.6494L46.0304 18.922C46.5308 19.5807 46.7851 20.3986 46.7407 21.2311C46.7403 21.2376 46.7396 21.2444 46.7395 21.2466C46.7238 21.5087 46.6726 21.7645 46.6223 21.9569C46.5985 22.0477 46.4709 22.5684 46.1045 23.0475C46.0987 23.0554 46.095 23.0649 46.089 23.0726C45.6048 23.6904 44.9711 24.2054 44.6959 24.4442C44.6909 24.4485 44.6858 24.4523 44.6827 24.4549C44.6799 24.4573 44.6768 24.4586 44.6755 24.4597L44.6743 24.4621L43.0528 25.8397L43.054 25.8409L43.0481 25.8456C43.0421 25.8509 43.0362 25.8561 43.0301 25.8612L37.557 30.4746C37.6003 30.8144 37.6436 31.1435 37.6778 31.4049L38.2302 35.5901L38.6774 38.9168L38.8162 39.8914L38.8174 39.8962C38.8657 40.2485 38.9124 40.6249 38.9441 40.9927C39.0689 42.4499 38.3516 43.6026 37.3274 44.2273C36.3295 44.836 35.016 44.9617 33.8847 44.4115C33.2725 44.1136 32.7314 43.7756 32.3206 43.529L30.228 42.2794L25.006 39.1787C24.8593 39.2685 24.7035 39.3668 24.536 39.4657C24.5348 39.4664 24.5325 39.4662 24.5312 39.4669L19.0294 42.7362C19.0282 42.7369 19.0259 42.7367 19.0246 42.7374L17.4151 43.7012C17.1656 43.8503 16.7647 44.1031 16.3233 44.3254L16.3114 44.3302L16.1356 44.4163L16.1236 44.4223C15.0454 44.9272 13.7747 44.8946 12.7348 44.262C11.6517 43.6031 11.0131 42.4042 11.087 41.0812C11.0873 41.0753 11.0877 41.0692 11.0882 41.0633L11.1157 40.701L11.1169 40.6854C11.1287 40.5587 11.1431 40.4337 11.1575 40.3123V40.304L11.5043 37.6051C11.8052 35.2212 12.1286 32.8406 12.4705 30.4626C12.0589 30.123 11.6508 29.78 11.246 29.4342L6.77972 25.6627C6.24408 25.2212 5.71401 24.7722 5.19052 24.315L4.92027 24.0842C4.78285 23.9654 4.6172 23.8182 4.48022 23.6837C4.26766 23.4749 3.5989 22.8209 3.36933 21.8625C3.36766 21.8555 3.36581 21.8491 3.36454 21.8433L3.30236 21.493C3.19753 20.6708 3.38412 19.8338 3.83569 19.1301C4.49018 18.1063 5.47841 17.7515 6.02757 17.6126C6.27433 17.5502 6.55138 17.507 6.75939 17.4787C6.86697 17.464 6.9641 17.4527 7.03801 17.444C7.05334 17.4422 7.12851 17.4334 7.13009 17.4333C7.15352 17.4305 7.16175 17.4285 7.16238 17.4285L7.16596 17.4273L8.98476 17.1702L8.99791 17.1678L15.3691 16.2877H15.3715L17.3995 16.0139C17.6207 15.5659 17.8438 15.1237 18.0656 14.6877L19.9717 10.9353L19.9729 10.9341C20.6113 9.68006 21.2533 8.42406 21.9029 7.17218C22.0532 6.88242 22.319 6.42225 22.7985 6.02182C23.2839 5.61679 23.7908 5.43748 24.1283 5.33903C24.3124 5.2853 24.5022 5.25215 24.6939 5.24217ZM24.7417 6.15934C24.621 6.16562 24.5014 6.18647 24.3854 6.22033L24.1582 6.29327C23.9185 6.37986 23.6463 6.51075 23.3869 6.72734L23.2649 6.83616C22.996 7.09502 22.8309 7.37868 22.7184 7.59549L20.7908 11.3503L18.8847 15.1039L18.007 16.8605C17.8677 16.8786 17.7214 16.8981 17.5753 16.9179L15.4671 17.2013H15.4612L9.11989 18.079H9.11391L7.29391 18.3385C7.19863 18.3521 6.64421 18.4044 6.25238 18.5035L6.07062 18.5537C5.62199 18.6926 5.02006 18.9811 4.60817 19.6263L4.47663 19.8547C4.19857 20.402 4.11947 21.0327 4.259 21.6365C4.25991 21.6404 4.26164 21.6445 4.26258 21.6484C4.42571 22.3295 4.91537 22.8239 5.12355 23.0284C5.37215 23.2725 5.70905 23.5483 5.79439 23.6227C6.31126 24.0741 6.83487 24.5183 7.36446 24.9548L11.8391 28.7335C12.2589 29.0921 12.6816 29.4479 13.1078 29.7989L13.1102 29.8001C13.2275 29.8964 13.3431 29.9908 13.4522 30.0799C13.0834 32.624 12.7374 35.1718 12.4155 37.7222L12.0687 40.4211L12.0316 40.7715L12.0041 41.1326C11.9489 42.1219 12.4224 42.9973 13.2119 43.4776C13.9739 43.9411 14.9177 43.9722 15.7338 43.59L15.9096 43.5051C16.1108 43.4038 16.3013 43.2964 16.4752 43.1942L16.9439 42.9132L18.5595 41.947L24.0685 38.6741C24.4282 38.4616 24.7219 38.2779 25.0012 38.1085L30.6991 41.4902L32.793 42.741C33.2215 42.9982 33.7199 43.3095 34.2865 43.5852C35.8925 44.3664 38.0734 43.3068 38.0389 41.2714L38.0293 41.0717C38.0145 40.8989 37.9952 40.7229 37.9743 40.5467L37.9074 40.0206L37.7686 39.046L37.3202 35.7121L36.7666 31.5257C36.7128 31.1145 36.6518 30.6021 36.5836 30.0955L42.4382 25.1593L42.4442 25.1545L44.0824 23.7602L44.0932 23.7506C44.3615 23.5178 44.8159 23.1458 45.2041 22.7007L45.3655 22.5058C45.5553 22.2634 45.6553 21.9927 45.7027 21.8374L45.7338 21.725C45.774 21.5714 45.8112 21.3769 45.8223 21.1916L45.8235 21.1821C45.8609 20.4797 45.6099 19.791 45.1287 19.276C44.8957 19.0266 44.6313 18.8634 44.4065 18.7558L44.1984 18.6661C44.0638 18.6135 43.9283 18.5706 43.799 18.5358L43.4343 18.4521C43.241 18.4146 43.0049 18.382 42.8041 18.3564L42.3832 18.305L40.1961 17.9881C40.193 17.9876 40.1896 17.9861 40.1865 17.9857L34.0497 17.1367C33.3623 17.0397 32.6687 16.9516 32.0121 16.8545L30.4707 13.7945C29.8391 12.5311 29.2003 11.256 28.5443 9.99185L27.5913 8.14077L27.5865 8.13L27.3509 7.65886C27.283 7.52754 27.1827 7.34307 27.04 7.15185L26.8834 6.96052C26.2967 6.3112 25.5258 6.11861 24.7417 6.15934ZM24.823 7.71985C25.752 7.67164 25.8351 8.15655 26.2018 8.85585L27.1584 10.7117C28.4578 13.2157 29.6899 15.7717 30.9837 18.2727C31.8835 18.4297 32.9225 18.5551 33.8357 18.6841L39.9725 19.5343L42.1632 19.8511L42.6128 19.9062C43.1163 19.9683 43.7305 20.0666 43.9879 20.3426L44.0549 20.4227C44.2012 20.6153 44.2759 20.8547 44.263 21.0984C44.2564 21.2084 44.204 21.4552 44.1362 21.542L43.8935 21.8194C43.6372 22.088 43.3436 22.3327 43.0696 22.5704L41.4302 23.9647L34.9107 29.4629C35.031 30.1633 35.1248 31.0168 35.218 31.7301L35.7717 35.9214L36.2201 39.2588C36.3084 39.9007 36.4175 40.5671 36.4724 41.2056L36.476 41.2797C36.4867 41.9895 35.7595 42.4546 35.1008 42.234L34.9705 42.1802C34.4809 41.9419 34.0574 41.6766 33.5953 41.3993L31.5003 40.1485L25.1327 36.3686C25.1056 36.3527 25.0207 36.3019 24.9892 36.3184L24.7716 36.4356L24.3937 36.652C24.0178 36.8739 23.6462 37.1086 23.2733 37.3288L17.7619 40.6041L15.6154 41.8872L15.3488 42.0355C15.2587 42.0837 15.1668 42.1306 15.0713 42.1754L14.9326 42.2304L14.8011 42.2662C14.1921 42.3947 13.6067 42.0172 13.5646 41.3646V41.2199C13.5877 40.8072 13.6462 40.4046 13.6998 39.9919L13.9652 37.9195C14.2324 35.8033 14.5158 33.689 14.8154 31.5771L15.1204 29.4653C14.8573 29.197 14.4013 28.8394 14.1004 28.5924C13.6794 28.2457 13.2618 27.8944 12.8472 27.5401L8.35817 23.7494C8.09899 23.5358 7.84189 23.3197 7.58569 23.1025L6.82158 22.446C6.50003 22.1653 5.87965 21.6949 5.78124 21.2849C5.72444 21.0391 5.75703 20.7817 5.87092 20.5591L5.92473 20.467C6.24373 19.9672 6.97288 19.9621 7.51394 19.8846L9.33393 19.6263L15.6752 18.7498L17.7834 18.4664C18.0513 18.4302 18.4308 18.3857 18.7472 18.3337L19.0366 18.2799L19.0641 18.2727C19.2582 17.8585 19.4582 17.448 19.6608 17.0386L20.2766 15.813C21.2308 13.9373 22.1803 12.0582 23.1405 10.1856L24.1055 8.31535C24.2663 8.00547 24.3999 7.8676 24.6891 7.7629L24.823 7.71985ZM24.9199 8.73507L24.9211 8.73627L23.9573 10.6065C22.9981 12.477 22.0512 14.3508 21.0957 16.2291L21.0945 16.2279L20.4811 17.4512C20.2815 17.8547 20.0861 18.2577 19.8964 18.6625C19.7778 18.9156 19.5499 19.1009 19.2781 19.166L19.2494 19.1731L19.2363 19.1755C18.8456 19.2628 18.2197 19.3341 17.9066 19.3764L17.9054 19.3776L15.7972 19.6598L15.796 19.6586L9.46069 20.5351L9.46188 20.5363L7.64308 20.7922L7.64428 20.7934C7.5081 20.8129 7.30579 20.8347 7.19825 20.8484C7.06125 20.866 6.95233 20.884 6.86104 20.907C6.75511 20.9338 6.70937 20.9587 6.69363 20.9692C6.67978 20.9923 6.67401 21.0192 6.67449 21.0469C6.6772 21.0509 6.6805 21.0552 6.68406 21.0601C6.72009 21.1098 6.77847 21.1763 6.86223 21.2586C7.045 21.4381 7.22038 21.5746 7.42545 21.7536C7.67469 21.9713 7.92614 22.1876 8.1788 22.4018L8.94291 23.0403L8.95128 23.0475L13.4403 26.8393L13.4439 26.8417C13.8548 27.1929 14.2686 27.5402 14.6851 27.8833C14.9493 28.1002 15.4669 28.5072 15.7757 28.822C15.9767 29.027 16.0709 29.3151 16.0292 29.5992C15.6162 32.4073 15.2319 35.2198 14.8764 38.0355L14.8752 38.0367L14.611 40.109C14.5828 40.3261 14.5547 40.5254 14.532 40.7153L14.4818 41.2714C14.4789 41.3232 14.4888 41.3451 14.4902 41.3479C14.4919 41.3514 14.494 41.3543 14.4986 41.3574C14.5086 41.3643 14.5531 41.3847 14.6349 41.3598L14.7006 41.3335C14.8483 41.2634 14.9922 41.1861 15.1443 41.098L17.2919 39.8149L17.2931 39.8137L22.8045 36.5396L22.8069 36.5384C23.2511 36.2761 23.813 35.9149 24.328 35.6308L24.3363 35.626L24.554 35.5088L24.5635 35.5041L24.6855 35.4514C24.803 35.4097 24.9081 35.3982 24.9821 35.3964C25.0821 35.3941 25.1647 35.4076 25.2176 35.4191C25.3205 35.4417 25.4023 35.4763 25.4424 35.4945L25.5967 35.5758L25.6015 35.5794L31.9691 39.3593L31.9714 39.3605L34.0653 40.6113L34.0677 40.6125C34.5486 40.9011 34.9277 41.1381 35.3711 41.3539C35.4208 41.3779 35.4755 41.375 35.5194 41.3491C35.5397 41.337 35.5491 41.3242 35.5528 41.318C35.5548 41.3147 35.5578 41.3095 35.5576 41.2941L35.5552 41.269C35.5026 40.6666 35.4033 40.0525 35.3113 39.3844L35.3101 39.382L34.8617 36.0434L34.8605 36.041L34.3068 31.8509C34.2096 31.1071 34.1217 30.2947 34.0055 29.6184C33.9504 29.2973 34.0697 28.971 34.3188 28.761L40.8382 23.2627L42.4741 21.8708C42.8336 21.559 43.12 21.3159 43.3422 21.0553C43.3429 21.052 43.3441 21.0489 43.3446 21.0457V21.0433C43.3445 21.0247 43.3391 21.0077 43.3303 20.9919C43.2954 20.9758 43.2385 20.9547 43.1545 20.9321C42.9724 20.8832 42.7476 20.849 42.5004 20.8185L42.0316 20.7599L39.8409 20.4431L33.7101 19.5941H33.7077C32.8222 19.469 31.745 19.3383 30.8259 19.1779C30.5433 19.1286 30.3 18.9496 30.1682 18.6948C29.5178 17.4376 28.8829 16.1676 28.2513 14.9042C27.6187 13.6386 26.9889 12.3788 26.3429 11.1338L26.3417 11.1314L25.3886 9.28155C25.3365 9.18217 25.2906 9.08838 25.2511 9.00771C25.2098 8.92333 25.1782 8.85864 25.1471 8.79845C25.1006 8.7085 25.0689 8.66444 25.0526 8.6418C25.0359 8.6393 25.011 8.6392 24.9761 8.63821C24.9648 8.65556 24.9457 8.68547 24.9199 8.73507ZM3.36096 21.8242C3.36194 21.8292 3.36288 21.8357 3.36454 21.8433L3.35857 21.8146C3.35801 21.8118 3.35755 21.8084 3.35737 21.8075C3.35751 21.8082 3.35932 21.8159 3.36096 21.8242Z" fill="#020101"/>
<path id="Vector_2" d="M25.8159 26.7053C26.4858 26.8813 27.2485 27.1553 27.906 27.385C29.9226 28.0898 32.0344 28.6807 34.0271 29.4443L35.0186 36.8118L35.3567 39.2612C35.4287 39.7888 35.5149 40.3525 35.553 40.8806C35.4802 40.8052 35.2759 40.49 35.2061 40.387L34.3635 39.1226L31.9636 35.5908C30.6707 33.6936 29.3669 31.8037 28.052 29.9216C27.3362 28.8982 26.4756 27.7371 25.8159 26.7053Z" fill="#E9C46A"/>
<path id="Vector_3" d="M24.1249 26.71C24.1458 26.7114 24.1334 26.7083 24.1584 26.7285C24.0534 26.9602 23.4634 27.78 23.2996 28.0164L21.1912 31.0247C18.9126 34.27 16.6773 37.5454 14.4859 40.8503L14.4634 40.8481C14.465 40.6636 14.5527 40.0867 14.5807 39.8621C14.6802 39.0647 14.7857 38.2683 14.8975 37.4727L15.6512 31.979C15.7658 31.1448 15.9064 30.2749 16.0042 29.4434C18.6493 28.4878 21.4526 27.6028 24.1249 26.71Z" fill="#EFB366"/>
<path id="Vector_4" d="M43.0261 21.3904L43.0513 21.3851L43.0747 21.4012C42.9536 21.5652 42.1675 22.2073 41.9663 22.3747L40.2026 23.8526L36.1062 27.2944C35.5208 27.7817 34.8074 28.4206 34.2126 28.8628C32.1938 28.1838 30.1714 27.5154 28.1455 26.8572C27.4514 26.6343 26.7275 26.4023 26.0483 26.1399C26.6567 25.9866 27.304 25.7788 27.9133 25.6042L32.2256 24.3632L43.0261 21.3904Z" fill="#EFB366"/>
<path id="Vector_5" d="M6.94482 21.3839C8.53237 21.8242 10.1232 22.2527 11.7171 22.6693C15.8157 23.7801 19.9011 24.939 23.9725 26.1458C23.3634 26.3884 22.5167 26.6379 21.8821 26.8452C20.8169 27.1772 19.7308 27.5552 18.6717 27.9146L15.8213 28.8755L10.1726 24.1166C9.13423 23.2488 7.91006 22.2945 6.94482 21.3839Z" fill="#E9C46A"/>
<path id="Vector_6" d="M19.2546 19.1265L19.325 19.1169C19.4398 19.1472 19.8769 19.7935 19.9784 19.9306L21.0876 21.4216L24.1986 25.5972C23.0883 25.2861 21.9806 24.9663 20.8754 24.6377L14.8542 22.9161C12.3313 22.2138 9.66067 21.5628 7.17334 20.7982C8.26211 20.6875 9.48284 20.4693 10.5788 20.3134L15.7227 19.6118C16.8782 19.4523 18.1023 19.258 19.2546 19.1265Z" fill="#EFB366"/>
<path id="Vector_7" d="M30.6621 19.1138C31.873 19.2504 33.1516 19.4482 34.3618 19.6203L39.2866 20.3112C40.3513 20.4617 41.8101 20.7056 42.8596 20.7923C41.9009 21.1101 40.793 21.3866 39.8113 21.6531L35.3464 22.8783C33.1748 23.4792 31.0071 24.0939 28.8435 24.7222C27.8411 25.009 26.8557 25.3242 25.8462 25.584L30.6621 19.1138Z" fill="#E9C46A"/>
<path id="Vector_8" d="M24.7037 27.0437C24.7576 27.2676 24.7227 29.3928 24.7203 29.7322L24.7095 35.4666C24.2969 35.7456 23.6292 36.1096 23.1927 36.3652L20.6718 37.8499C18.7951 38.9524 16.9394 40.1138 15.0502 41.1882L15.0117 41.2014C15.0199 40.9343 23.7417 28.3152 24.7037 27.0437Z" fill="#E9C46A"/>
<path id="Vector_9" d="M25.2959 27.0664C25.4158 27.1523 26.5925 28.8567 26.748 29.0779C28.6638 31.8059 30.5515 34.5537 32.4109 37.3206C33.2888 38.6213 34.1907 39.8965 35.0364 41.2192C34.7976 41.1257 33.8606 40.5413 33.6226 40.3967L31.5151 39.1406L25.3188 35.4622C25.2815 32.6748 25.3633 29.8513 25.2959 27.0664Z" fill="#EFB366"/>
<path id="Vector_10" d="M24.7015 9.03143C24.7379 9.07411 24.7318 9.40233 24.7323 9.4795L24.722 17.2877L24.7183 22.1006C24.7198 23.1306 24.7391 24.2439 24.7174 25.2678C24.0136 24.3999 23.3078 23.421 22.649 22.5182C21.7435 21.2534 20.7445 19.9689 19.8159 18.7116C19.8781 18.5501 19.9633 18.3975 20.038 18.2414C20.555 17.1611 21.1238 16.1073 21.6646 15.039L23.4224 11.5641C23.8402 10.7268 24.2531 9.84808 24.7015 9.03143Z" fill="#E9C46A"/>
<path id="Vector_11" d="M25.313 9.07416C25.4358 9.22584 25.916 10.1861 26.0273 10.405L27.5254 13.3682L29.282 16.8243C29.5491 17.3468 30.0242 18.216 30.2397 18.7339C29.3079 19.9595 28.3843 21.1913 27.469 22.4292C26.7649 23.3892 26.0481 24.3399 25.3188 25.281L25.313 9.07416Z" fill="#EFB366"/>
</g>
<path id="Union" d="M24.6934 5.2417C25.6613 5.19142 26.7375 5.43032 27.5635 6.34424C27.8733 6.68722 28.0648 7.04116 28.166 7.23682C28.2183 7.33794 28.2701 7.44256 28.3047 7.51318L28.4082 7.71826L29.3594 9.56885C30.0191 10.8401 30.6608 12.1218 31.292 13.3843C31.7341 14.2685 32.1725 15.143 32.6133 16.0103C33.1199 16.0809 33.635 16.1503 34.1787 16.2271L40.3115 17.0757C40.333 17.0787 40.3518 17.0825 40.3623 17.0845H40.3662L42.5127 17.395C42.5133 17.3953 42.5143 17.3958 42.5156 17.396C42.5177 17.3963 42.5209 17.3965 42.5244 17.397C42.5319 17.3979 42.5417 17.3994 42.5537 17.4009C42.5785 17.4039 42.61 17.4072 42.6475 17.4116C42.721 17.4204 42.8157 17.4315 42.9199 17.4448C43.1246 17.4709 43.3847 17.5069 43.6084 17.5503C43.8601 17.5991 44.1912 17.6777 44.5322 17.811C44.8488 17.9348 45.3584 18.1753 45.8008 18.6489L46.0303 18.9224C46.5306 19.581 46.7846 20.3986 46.7402 21.231C46.7399 21.2375 46.7394 21.2443 46.7393 21.2466C46.7236 21.5085 46.6724 21.7642 46.6221 21.9565C46.5983 22.0473 46.4708 22.5683 46.1045 23.0474C46.0987 23.0552 46.0949 23.065 46.0889 23.0728C45.6048 23.6905 44.9705 24.2051 44.6953 24.4438C44.6905 24.448 44.6857 24.452 44.6826 24.4546C44.68 24.4568 44.6772 24.4584 44.6758 24.4595L44.6738 24.4624L43.0527 25.8394L43.0537 25.8413L43.0479 25.8452C43.042 25.8504 43.0362 25.8558 43.0303 25.8608L37.5566 30.4741C37.5999 30.8139 37.6436 31.1435 37.6777 31.4048L38.2305 35.5903L38.6777 38.9165L38.8164 39.8911L38.8174 39.896C38.8657 40.2483 38.9127 40.6248 38.9443 40.9927C39.0692 42.4499 38.3513 43.6023 37.3271 44.2271C36.3293 44.8357 35.016 44.9617 33.8848 44.4116C33.2726 44.1138 32.7311 43.7754 32.3203 43.5288L30.2275 42.2798L25.0059 39.1782C24.8592 39.2679 24.7035 39.3665 24.5361 39.4653C24.5349 39.4661 24.5325 39.4666 24.5312 39.4673L19.0293 42.7358C19.0281 42.7366 19.0257 42.7371 19.0244 42.7378L17.415 43.7007C17.1655 43.8498 16.7646 44.1034 16.3232 44.3257L16.3115 44.3306L16.1357 44.4165L16.123 44.4224C15.0449 44.9271 13.7742 44.8947 12.7344 44.2622C11.6515 43.6033 11.0132 42.4043 11.0869 41.0815C11.0872 41.0756 11.0874 41.0689 11.0879 41.063L11.1152 40.7007L11.1172 40.6851C11.1291 40.5584 11.1428 40.4333 11.1572 40.312V40.3042L11.5039 37.605C11.8048 35.2211 12.1288 32.8404 12.4707 30.4624C12.0592 30.1229 11.6509 29.7798 11.2461 29.4341L6.7793 25.6626C6.24372 25.2212 5.71385 24.772 5.19043 24.3149L4.91992 24.0845C4.78265 23.9658 4.61737 23.8185 4.48047 23.6841C4.26793 23.4754 3.59878 22.821 3.36914 21.8628C3.36747 21.8558 3.36552 21.8491 3.36426 21.8433L3.30176 21.4927C3.19702 20.6707 3.38446 19.834 3.83594 19.1304C4.49037 18.1067 5.47816 17.7517 6.02734 17.6128C6.27389 17.5505 6.55083 17.5074 6.75879 17.479C6.86637 17.4643 6.96417 17.4525 7.03809 17.4438C7.0537 17.442 7.12686 17.4335 7.12988 17.4331C7.15242 17.4305 7.16094 17.4284 7.16211 17.4282L7.16602 17.4272L8.98438 17.1704L8.99805 17.1675L15.3691 16.2876H15.3711L17.3994 16.0142C17.6205 15.5663 17.8437 15.1239 18.0654 14.688L19.9717 10.9351L19.9727 10.9341C20.611 9.68012 21.2528 8.42414 21.9023 7.17236C22.0527 6.88261 22.3193 6.4224 22.7988 6.02197C23.284 5.61714 23.7905 5.43782 24.1279 5.33936C24.312 5.28566 24.5018 5.2517 24.6934 5.2417ZM14.1025 43.812C14.1648 43.823 14.2272 43.8329 14.29 43.8394C14.2272 43.8329 14.1648 43.823 14.1025 43.812ZM35.5254 43.8394C35.5387 43.8388 35.5521 43.8391 35.5654 43.8384C35.5521 43.8391 35.5387 43.8388 35.5254 43.8394ZM35.1221 43.8247C35.1644 43.8295 35.2066 43.8337 35.249 43.8364C35.2066 43.8337 35.1644 43.8295 35.1221 43.8247ZM35.6846 43.8286C35.6982 43.8273 35.7119 43.8262 35.7256 43.8247C35.7119 43.8262 35.6982 43.8273 35.6846 43.8286ZM34.9756 43.8042C35.0143 43.8108 35.0529 43.817 35.0918 43.8218C35.0529 43.817 35.0143 43.8108 34.9756 43.8042ZM35.8506 43.8071C35.863 43.8052 35.8754 43.8034 35.8877 43.8013C35.8754 43.8034 35.863 43.8052 35.8506 43.8071ZM34.8193 43.7729C34.8531 43.7808 34.8869 43.7879 34.9209 43.7944C34.8869 43.7879 34.8531 43.7808 34.8193 43.7729ZM36 43.7788C36.016 43.7754 36.0319 43.7718 36.0479 43.7681C36.0319 43.7718 36.016 43.7754 36 43.7788ZM34.667 43.7319C34.6982 43.7413 34.7293 43.7511 34.7607 43.7593C34.7293 43.7511 34.6982 43.7413 34.667 43.7319ZM36.1562 43.7407C36.1735 43.7359 36.1908 43.7312 36.208 43.7261C36.1908 43.7312 36.1735 43.7359 36.1562 43.7407ZM34.4678 43.6636C34.5124 43.6811 34.5573 43.6975 34.6025 43.7124C34.5573 43.6975 34.5124 43.6811 34.4678 43.6636ZM36.2988 43.6968C36.3224 43.6889 36.3458 43.6809 36.3691 43.6724C36.3458 43.6809 36.3224 43.6889 36.2988 43.6968ZM36.4629 43.6353C36.4779 43.6291 36.4929 43.6231 36.5078 43.6167C36.4929 43.6231 36.4779 43.6291 36.4629 43.6353ZM36.6006 43.5747C36.6265 43.5624 36.6522 43.5497 36.6777 43.5366C36.6522 43.5497 36.6265 43.5624 36.6006 43.5747ZM15.9102 43.5044L15.9092 43.5054L15.9102 43.5044ZM36.7383 43.5054C36.7631 43.4918 36.7871 43.4768 36.8115 43.4624C36.7871 43.4768 36.7631 43.4918 36.7383 43.5054ZM36.8926 43.4136C36.9132 43.4004 36.9338 43.3873 36.9541 43.3735C36.9338 43.3873 36.9132 43.4004 36.8926 43.4136ZM37.0146 43.3306C37.0377 43.314 37.0605 43.2971 37.083 43.2798C37.0605 43.2971 37.0377 43.314 37.0146 43.3306ZM37.1494 43.2271C37.1663 43.2131 37.1827 43.1985 37.1992 43.1841C37.1827 43.1985 37.1663 43.2131 37.1494 43.2271ZM37.2705 43.1216C37.2918 43.1016 37.3124 43.0808 37.333 43.0601C37.3124 43.0808 37.2918 43.1016 37.2705 43.1216ZM37.377 43.0142C37.3972 42.9927 37.417 42.9709 37.4365 42.9487C37.417 42.9709 37.3972 42.9927 37.377 43.0142ZM37.4961 42.8794C37.5065 42.8666 37.5162 42.8533 37.5264 42.8403C37.5162 42.8533 37.5065 42.8666 37.4961 42.8794ZM32.793 42.7407C32.8619 42.7821 32.9333 42.8239 33.0059 42.8677C32.9336 42.824 32.8627 42.782 32.7939 42.7407L31.915 42.2163L32.793 42.7407ZM37.5938 42.7515C37.6061 42.734 37.617 42.7156 37.6289 42.6978C37.617 42.7156 37.6061 42.734 37.5938 42.7515ZM37.8359 42.3208C37.8467 42.296 37.8572 42.271 37.8672 42.2456C37.8572 42.271 37.8467 42.296 37.8359 42.3208ZM12.0684 40.4214L12.0312 40.771L12.0039 41.1323V41.1333L12.0322 40.771C12.0434 40.6518 12.0558 40.5342 12.0693 40.4204L12.0684 40.4214ZM25.002 38.1079L25.001 38.1089L25.002 38.1079ZM13.1074 29.7993V29.7983V29.7993ZM42.4434 25.1548H42.4443H42.4434ZM44.2393 23.6226C44.361 23.5182 44.5031 23.3956 44.6523 23.2583C44.5031 23.3956 44.361 23.5182 44.2393 23.6226ZM44.8906 23.0317C44.9335 22.9892 44.976 22.9454 45.0186 22.9009C44.976 22.9454 44.9335 22.9892 44.8906 23.0317ZM45.0439 22.8745C45.0977 22.8177 45.1521 22.7603 45.2041 22.7007C45.1521 22.7604 45.0977 22.8176 45.0439 22.8745ZM45.4727 22.3472C45.4847 22.3277 45.4958 22.308 45.5068 22.2886C45.4958 22.308 45.4847 22.3277 45.4727 22.3472ZM45.6416 22.0073C45.667 21.9425 45.6877 21.8849 45.7021 21.8374C45.6877 21.8849 45.667 21.9426 45.6416 22.0073ZM4.21387 21.3862C4.22483 21.4699 4.23963 21.5533 4.25879 21.6362H4.25977C4.24059 21.5533 4.22484 21.4699 4.21387 21.3862ZM4.19434 21.1353C4.19655 21.1998 4.20198 21.2641 4.20898 21.3286C4.20197 21.2642 4.19656 21.1998 4.19434 21.1353ZM4.19922 20.8755C4.19534 20.9353 4.19411 20.9951 4.19434 21.0552C4.1941 20.9951 4.19536 20.9353 4.19922 20.8755ZM4.22461 20.6401C4.21555 20.6982 4.20828 20.7564 4.20312 20.8149C4.20827 20.7564 4.21556 20.6982 4.22461 20.6401ZM4.28027 20.3784C4.26463 20.438 4.24969 20.4976 4.23828 20.5581C4.24968 20.4976 4.26464 20.438 4.28027 20.3784ZM4.35938 20.1265C4.33494 20.1919 4.31207 20.2577 4.29297 20.3247C4.31206 20.2577 4.33495 20.1919 4.35938 20.1265ZM4.97754 19.1782C4.96215 19.1929 4.94585 19.2069 4.93066 19.2222C4.94585 19.2069 4.96215 19.1929 4.97754 19.1782ZM44.96 19.1147C44.9522 19.1081 44.9443 19.1017 44.9365 19.0952C44.9443 19.1017 44.9522 19.1081 44.96 19.1147ZM44.7295 18.9399C44.7474 18.9519 44.7652 18.9644 44.7832 18.9771C44.7652 18.9643 44.7474 18.9519 44.7295 18.9399ZM5.39355 18.8579C5.3474 18.8863 5.30171 18.9172 5.25586 18.9497C5.30173 18.9173 5.34739 18.8863 5.39355 18.8579ZM44.4062 18.7554C44.4729 18.7873 44.5424 18.8253 44.6143 18.8677C44.5425 18.8252 44.4729 18.7873 44.4062 18.7554ZM5.61914 18.7339C5.57131 18.7575 5.52297 18.7826 5.47461 18.8101C5.52298 18.7826 5.5713 18.7574 5.61914 18.7339ZM6.07031 18.5532C5.94721 18.5913 5.81292 18.6416 5.67383 18.7065C5.81293 18.6417 5.94722 18.5913 6.07031 18.5532ZM43.4336 18.4526C43.6012 18.4852 43.7962 18.5293 43.9971 18.5942C43.9301 18.5725 43.8636 18.5531 43.7988 18.5356L43.4346 18.4517L43.4336 18.4526ZM9.11426 18.0786L9.11328 18.0796L9.11426 18.0786ZM31.2402 15.3315C31.4878 15.824 31.736 16.3141 31.9854 16.8022L30.4707 13.7944L31.2402 15.3315ZM24.3252 7.98584C24.3305 7.98033 24.3364 7.97553 24.3418 7.97021C24.3443 7.96778 24.3462 7.96479 24.3486 7.9624C24.3407 7.97002 24.3329 7.97781 24.3252 7.98584ZM24.4482 7.88135C24.4331 7.89166 24.4185 7.90237 24.4043 7.91357C24.4005 7.91657 24.3973 7.92027 24.3936 7.92334C24.3959 7.92144 24.398 7.91936 24.4004 7.91748C24.4181 7.90325 24.4368 7.89026 24.4561 7.87744C24.459 7.87549 24.4619 7.8735 24.4648 7.87158C24.4594 7.87508 24.4535 7.87775 24.4482 7.88135ZM24.4873 7.85693C24.5012 7.84856 24.5155 7.84037 24.5303 7.83252C24.5163 7.83994 24.5025 7.8471 24.4893 7.85498C24.4862 7.85679 24.4835 7.859 24.4805 7.86084C24.4827 7.85947 24.4851 7.85829 24.4873 7.85693ZM22.8223 7.40674C22.8013 7.44234 22.7829 7.47767 22.7646 7.51123C22.783 7.47767 22.8013 7.44232 22.8223 7.40674ZM27.2432 7.46436C27.2271 7.43662 27.2105 7.40775 27.1924 7.37842C27.2105 7.40775 27.2271 7.43662 27.2432 7.46436ZM22.9551 7.20166C22.9225 7.24815 22.8931 7.29448 22.8652 7.33936C22.8931 7.2945 22.9224 7.24812 22.9551 7.20166ZM23.1689 6.93408C23.1358 6.96993 23.1049 7.00637 23.0752 7.04248C23.1321 6.97335 23.1946 6.90386 23.2646 6.83643L23.1689 6.93408ZM26.5586 6.66064C26.6276 6.71365 26.6955 6.77066 26.7607 6.8335C26.6955 6.77069 26.6276 6.71365 26.5586 6.66064ZM24.7412 6.15967C24.6206 6.16597 24.5007 6.1864 24.3848 6.22021L24.1582 6.29346C24.0822 6.32093 24.003 6.3534 23.9219 6.39111C24.0883 6.31391 24.2473 6.26061 24.3857 6.22021C24.5017 6.18643 24.6216 6.16594 24.7422 6.15967C24.8398 6.15461 24.9373 6.15318 25.0342 6.15576C24.9371 6.15314 24.8391 6.15459 24.7412 6.15967Z" fill="white" fill-opacity="0.3"/>
</g>
</g>
</g>
</svg>
