<svg width="50" height="50" viewBox="0 0 50 50" fill="none" xmlns="http://www.w3.org/2000/svg">
<rect width="50" height="50" fill="#BEBEBE"/>
<g id="Decorate Mode">
<path d="M-180.281 -1181.03V-1180.03H2839.72V-1181.03V-1182.03H-180.281V-1181.03ZM2841.72 -1179.03H2840.72V2358.97H2841.72H2842.72V-1179.03H2841.72ZM2839.72 2360.97V2359.97H-180.281V2360.97V2361.97H2839.72V2360.97ZM-182.281 2358.97H-181.281V-1179.03H-182.281H-183.281V2358.97H-182.281ZM-180.281 2360.97V2359.97C-180.834 2359.97 -181.281 2359.52 -181.281 2358.97H-182.281H-183.281C-183.281 2360.62 -181.938 2361.97 -180.281 2361.97V2360.97ZM2841.72 2358.97H2840.72C2840.72 2359.52 2840.27 2359.97 2839.72 2359.97V2360.97V2361.97C2841.38 2361.97 2842.72 2360.62 2842.72 2358.97H2841.72ZM2839.72 -1181.03V-1180.03C2840.27 -1180.03 2840.72 -1179.59 2840.72 -1179.03H2841.72H2842.72C2842.72 -1180.69 2841.38 -1182.03 2839.72 -1182.03V-1181.03ZM-180.281 -1181.03V-1182.03C-181.938 -1182.03 -183.281 -1180.69 -183.281 -1179.03H-182.281H-181.281C-181.281 -1179.59 -180.834 -1180.03 -180.281 -1180.03V-1181.03Z" fill="black" fill-opacity="0.1"/>
<g id="Stickers">
<rect x="-128.272" y="-308.534" width="374" height="551" rx="4.5" stroke="#9747FF" stroke-dasharray="10 5"/>
<g id="Property 1=cloud">
<g id="Frame 182">
<path id="Union" d="M22.1123 13.3287C24.2326 12.3366 26.9617 12.1526 29.2368 12.9724L29.4533 13.0465C31.6754 13.8379 33.5107 15.4566 34.5724 17.5702L34.6669 17.7615C34.8958 18.2396 35.0835 18.7435 35.2253 19.2634C35.2732 19.2632 35.321 19.2628 35.3688 19.2634L35.3748 19.2646H35.3796L35.4334 19.2658H35.4442C38.2833 19.3427 40.603 21.4955 40.9687 24.2343C43.5762 24.7711 45.6659 26.8043 46.229 29.4659L46.2912 29.8043C46.8417 33.2958 44.4073 36.704 40.9723 37.3653L40.158 37.522L40.1101 37.4741C39.4729 37.5217 38.8787 37.5063 38.5592 37.5076L16.0831 37.5148L15.6048 37.516L11.9708 37.5208H11.9696C10.8701 37.5229 8.62236 37.7938 6.53951 36.3429C5.67152 35.7382 4.94919 34.9923 4.43851 34.0506C3.93319 33.1186 3.71041 32.1345 3.63852 31.1591L3.63733 31.1376L3.63494 31.1029L3.63374 31.0683V31.0479L3.63135 30.7861C3.64503 29.4787 4.05231 28.2033 4.80322 27.1281C5.83507 25.6477 7.35748 24.723 9.07578 24.4233C9.08135 24.4223 9.08696 24.4206 9.09252 24.4197C9.10301 24.2872 9.11711 24.1524 9.13677 24.0167L9.13796 24.0107L9.13916 24.0059V24.0023C9.41922 22.149 10.4192 20.4805 11.9218 19.3603L11.9254 19.3579L11.9277 19.3555L11.9337 19.3519L11.9373 19.3495C13.6083 18.1237 15.5461 17.7885 17.3267 18.1609C18.3051 15.987 20.1633 14.2409 22.1123 13.3287Z" fill="#E8E7E7"/>
<path id="Union (Stroke)" d="M21.7236 12.4967C24.0488 11.4089 27.0219 11.2044 29.5333 12.1045L29.5345 12.1033L29.751 12.1774L29.7617 12.181C32.2061 13.0517 34.2247 14.8328 35.3927 17.1579L35.3963 17.1639L35.4908 17.3552L35.4955 17.3648C35.6519 17.6915 35.7879 18.0298 35.9081 18.3752C38.7864 18.6431 41.1252 20.7505 41.7639 23.4872C44.3472 24.2438 46.3911 26.3178 47.0624 28.995L47.127 29.276L47.1318 29.3L47.194 29.6384L47.1987 29.6611C47.8272 33.647 45.0615 37.5134 41.1456 38.2672L40.3313 38.4238C40.1884 38.4513 40.044 38.4421 39.908 38.4035C39.664 38.4161 39.4303 38.4244 39.2228 38.4262L16.0843 38.4322L15.6071 38.4346L11.9719 38.4394L10.9603 38.4633C9.75597 38.4731 7.95331 38.3478 6.23812 37.246L6.01451 37.0965C5.04976 36.4243 4.22124 35.5763 3.6313 34.4885C3.0488 33.4142 2.80129 32.2953 2.7225 31.2264L2.7213 31.2096L2.72011 31.1881L2.7213 31.1869L2.71891 31.1666C2.71819 31.1561 2.71688 31.1448 2.71652 31.1343L2.71532 31.0996V31.0566L2.71293 30.7947C2.71288 30.7888 2.71287 30.7826 2.71293 30.7768C2.72854 29.285 3.19297 27.8291 4.04983 26.6023C5.09453 25.1037 6.58304 24.1057 8.26619 23.6618C8.62137 21.6603 9.72108 19.864 11.3501 18.6407C11.3751 18.6205 11.4021 18.6031 11.4291 18.5857C13.0925 17.3784 14.996 16.9428 16.8053 17.1483C17.9332 15.0595 19.7838 13.4047 21.7236 12.4967ZM29.2368 12.9726C26.9616 12.1529 24.2326 12.3368 22.1122 13.329L21.7475 13.5095C19.9341 14.461 18.2438 16.1233 17.3267 18.1612L16.9907 18.099C15.3046 17.8336 13.5037 18.2007 11.9373 19.3498L11.9337 19.3522L11.9277 19.3558L11.9253 19.3581L11.9217 19.3605C10.4192 20.4807 9.41916 22.1493 9.13911 24.0026V24.0062L9.13792 24.011L9.13672 24.0169L9.09248 24.4199C9.08693 24.4209 9.08128 24.4225 9.07574 24.4235L8.75646 24.4869C7.16939 24.8408 5.77063 25.7404 4.80318 27.1284L4.66686 27.3317C4.00315 28.3626 3.64413 29.5605 3.6313 30.7863L3.63369 31.0482V31.0685L3.63489 31.1032L3.63728 31.1379L3.63848 31.1594C3.71039 32.1347 3.93319 33.119 4.43846 34.0508C4.94914 34.9925 5.67154 35.7385 6.53946 36.3432C8.62228 37.7939 10.8701 37.5232 11.9696 37.521L15.6048 37.5162L16.0831 37.515L38.5592 37.5079C38.8787 37.5065 39.4729 37.5219 40.1101 37.4744L40.1579 37.5222L40.9723 37.3656C44.3 36.725 46.6888 33.5059 46.3342 30.131L46.2911 29.8046L46.229 29.4662C45.6659 26.8046 43.5761 24.7714 40.9687 24.2346C40.6029 21.4958 38.2832 19.3429 35.4441 19.2661H35.4334L35.3795 19.2649H35.3748L35.3688 19.2637C35.321 19.263 35.2731 19.2634 35.2253 19.2637L35.1105 18.8762C34.9872 18.493 34.8384 18.1202 34.6669 17.7618L34.5724 17.5704C33.5107 15.4569 31.6753 13.8382 29.4532 13.0468L29.2368 12.9726Z" fill="#020101"/>
<path id="Vector" d="M19.2413 20.7362C19.534 18.5621 21.2843 16.5454 23.2337 15.6331C24.7938 14.9031 26.8545 14.7821 28.474 15.3845C30.1609 15.9335 31.5577 17.1354 32.3523 18.7217C32.9838 19.9599 33.2182 21.4355 32.8965 22.7961C33.6449 22.093 34.3431 21.7935 35.379 21.8081C37.1468 21.8331 38.5698 23.3133 38.5252 25.0783C38.5099 25.6841 38.2851 26.1246 37.9834 26.6405C37.9549 26.6897 37.9961 26.7299 38.0319 26.7652C38.2291 26.8655 38.7077 26.7105 38.9011 26.684C39.262 26.6348 39.5731 26.6239 39.9155 26.6464C41.8132 26.7675 43.3977 28.1387 43.7902 29.9993C44.2582 32.1878 42.7162 34.458 40.5375 34.8772C39.9254 34.9952 39.2197 34.9711 38.5939 34.9737L15.6464 34.9817L12.0093 34.9877C10.5425 34.9905 9.30597 35.1492 8.03689 34.2651C6.83622 33.4288 6.3223 32.4121 6.2166 30.9774C6.19122 30.125 6.44134 29.2869 6.92986 28.5874C7.55959 27.6826 8.47919 27.1167 9.56143 26.929C10.521 26.76 11.5093 26.9399 12.3475 27.4366C12.5834 27.5769 12.8079 27.7633 13.0347 27.9191C13.1652 28.0083 13.2416 28.0679 13.4013 28.036C13.6028 27.9834 13.7622 27.7228 13.6871 27.5219C13.5879 27.2572 13.3567 27.1056 13.1359 26.9399C12.7491 26.6498 12.3151 26.472 11.8844 26.2563C11.6867 25.6356 11.6014 25.0345 11.6953 24.3866C11.8754 23.1945 12.5186 22.1218 13.4851 21.4013C15.6068 19.8448 18.4132 20.5511 19.7937 22.7267C19.994 23.0042 20.1043 23.3942 20.2972 23.6676C20.4693 23.9116 21.0482 23.7918 21.0306 23.4323C21.0226 23.1489 20.8476 22.8792 20.7302 22.6296C20.3634 21.8495 19.8311 21.3343 19.2413 20.7362Z" fill="#E8E7E7"/>
<path id="Vector (Stroke)" d="M22.8198 14.7486C24.5982 13.9164 26.9205 13.7719 28.7948 14.4621C30.7217 15.0947 32.3169 16.4704 33.2255 18.2843C33.6501 19.1189 33.9218 20.0542 33.9961 21.0107C34.4378 20.8776 34.8988 20.8247 35.3928 20.8317L35.4469 20.8328C37.7325 20.8945 39.5593 22.8121 39.5015 25.1029C39.4965 25.3009 39.475 25.4862 39.4411 25.6605C39.6182 25.656 39.7946 25.6599 39.9777 25.6719C42.3129 25.8208 44.2628 27.5081 44.7458 29.7977C45.3286 32.531 43.4265 35.3158 40.722 35.8362L40.7219 35.8362C39.9942 35.9763 39.1587 35.9479 38.5979 35.9502L15.648 35.9582L15.648 35.9582L12.0112 35.9641L12.0112 35.9642C10.6917 35.9668 9.06192 36.1693 7.4787 35.0665C6.77525 34.5765 6.23364 34.0045 5.85764 33.3112C5.48369 32.6216 5.30283 31.8658 5.24266 31.0491L5.24109 31.0278L5.24047 31.0065C5.20884 29.9441 5.52056 28.8997 6.12925 28.0282C6.91362 26.902 8.06502 26.198 9.39201 25.9673C9.85564 25.8856 10.3247 25.8696 10.7861 25.9171C10.6769 25.3877 10.6433 24.8363 10.7288 24.2466L10.7296 24.2407C10.9482 22.7942 11.7287 21.4925 12.9015 20.6183L12.9044 20.6161L12.9075 20.6139C14.6193 19.3581 16.6734 19.3103 18.3533 20.148C18.861 17.7716 20.7639 15.7108 22.8198 14.7486ZM28.474 15.3845C26.8545 14.7821 24.7938 14.9031 23.2337 15.6331C21.2843 16.5454 19.534 18.562 19.2413 20.7362C19.8311 21.3343 20.3634 21.8495 20.7302 22.6296C20.8476 22.8792 21.0226 23.1489 21.0306 23.4323L21.031 23.449C21.0302 23.7899 20.4844 23.9041 20.3056 23.6788L20.2972 23.6677C20.1043 23.3943 19.994 23.0042 19.7937 22.7267C18.4132 20.5511 15.6069 19.8448 13.4851 21.4013C12.5186 22.1218 11.8754 23.1945 11.6953 24.3866L11.687 24.4472C11.6068 25.072 11.6929 25.655 11.8844 26.2563C12.3151 26.472 12.7491 26.6498 13.1359 26.9399C13.3567 27.1056 13.5879 27.2572 13.6871 27.5219C13.7622 27.7228 13.6028 27.9834 13.4013 28.036C13.2616 28.0639 13.1856 28.0217 13.0814 27.951L13.0347 27.9191C12.8078 27.7633 12.5834 27.5769 12.3475 27.4366C11.5093 26.9399 10.5209 26.76 9.56143 26.929L9.51083 26.9381C8.45053 27.1345 7.54975 27.6968 6.92986 28.5874L6.90711 28.6203C6.43357 29.313 6.19162 30.1383 6.2166 30.9774C6.3223 32.412 6.83622 33.4288 8.03688 34.2651C9.30596 35.1491 10.5425 34.9905 12.0093 34.9877L15.6464 34.9817L38.5939 34.9737C39.2197 34.9711 39.9254 34.9951 40.5375 34.8772C42.7162 34.458 44.2582 32.1878 43.7902 29.9992C43.3977 28.1387 41.8132 26.7675 39.9155 26.6465C39.5731 26.6239 39.262 26.6348 38.9011 26.684C38.7077 26.7105 38.2291 26.8655 38.0318 26.7652C37.9961 26.7299 37.9549 26.6898 37.9834 26.6405C38.2852 26.1246 38.5099 25.6841 38.5252 25.0783C38.5694 23.3271 37.1689 21.8562 35.4204 21.809L35.379 21.8081C34.3431 21.7935 33.6449 22.093 32.8965 22.7961C33.2182 21.4355 32.9839 19.9599 32.3523 18.7217C31.5578 17.1354 30.1609 15.9335 28.474 15.3845Z" fill="#020101"/>
<path id="Vector_2" d="M28.4742 15.3845C30.1611 15.9335 31.5579 17.1354 32.3525 18.7216C32.984 19.9599 33.2184 21.4355 32.8967 22.7961C33.6451 22.0929 34.3433 21.7935 35.3792 21.8081C37.147 21.8331 38.57 23.3133 38.5254 25.0783C38.5101 25.6841 38.2853 26.1246 37.9836 26.6405C37.9551 26.6897 37.9963 26.7299 38.0321 26.7652C38.2293 26.8655 38.7079 26.7105 38.9013 26.684C39.2622 26.6348 39.5733 26.6239 39.9157 26.6464C41.8134 26.7675 43.3979 28.1387 43.7904 29.9993C44.2584 32.1878 42.7164 34.458 40.5377 34.8772C39.9256 34.9952 39.2199 34.9711 38.5941 34.9736L36.0457 34.9742L27.5596 34.9762L15.6466 34.9817L12.0095 34.9876C10.5427 34.9905 9.30617 35.1492 8.03709 34.2651C6.83642 33.4288 6.32249 32.412 6.2168 30.9774C6.37253 31.191 6.88993 31.5241 7.12763 31.6496C9.87884 33.1037 13.5506 31.6955 14.9685 29.0211C16.4894 29.2871 17.9205 29.1041 19.2599 28.3066C19.2571 28.5244 19.2582 28.7787 19.2804 28.9942C19.3625 29.8038 19.7675 30.5463 20.4038 31.0536C21.565 31.9884 23.3757 31.9356 24.5223 31.0043C24.8038 30.7759 24.9796 30.5595 25.2033 30.28C26.2758 31.1905 27.6594 31.6504 29.0635 31.5635C31.5193 31.4339 33.5816 29.5049 33.4084 26.963C33.348 25.9545 32.8827 25.0132 32.1184 24.3527C30.9881 23.3808 29.3017 23.26 28.2712 24.405C28.0343 24.6684 27.873 25.1319 27.4909 25.1436C27.2049 25.1524 26.8799 24.7591 26.6826 24.5621C26.9239 24.3355 27.2975 24.1161 27.5679 23.885C29.3227 22.3851 30.3856 20.115 29.8467 17.7945C29.7297 17.2909 29.5112 16.6818 29.2278 16.2494C29.1363 16.1095 29.0331 15.9777 28.9193 15.8553C28.8027 15.7294 28.5237 15.515 28.4742 15.3845Z" fill="#8FB7B3"/>
</g>
<path id="Union_2" d="M21.7236 12.4966C24.0487 11.4089 27.0218 11.2041 29.5332 12.1041L29.5342 12.1031L29.751 12.1773L29.7617 12.1812C32.2061 13.0518 34.2246 14.8328 35.3926 17.1578L35.3965 17.1636L35.4912 17.355L35.4951 17.3648C35.6515 17.6915 35.788 18.0302 35.9082 18.3755C38.7864 18.6435 41.1249 20.7503 41.7637 23.4869C44.3469 24.2435 46.3911 26.3176 47.0625 28.9947L47.127 29.2759L47.1318 29.3004L47.1943 29.6382L47.1992 29.6607C47.8277 33.6466 45.0614 37.5133 41.1455 38.2672L40.3311 38.4234C40.1883 38.4508 40.044 38.4423 39.9082 38.4039C39.6642 38.4165 39.4301 38.4245 39.2227 38.4263L16.084 38.4322L15.6074 38.4341L11.9717 38.439L10.96 38.4634C9.75563 38.4732 7.95329 38.3474 6.23828 37.2457L6.01465 37.0963C5.04994 36.4241 4.22078 35.5766 3.63086 34.4888C3.04836 33.4145 2.80145 32.2951 2.72266 31.2261L2.72168 31.2095L2.71973 31.188L2.72168 31.1871L2.71875 31.1666C2.71803 31.1561 2.71716 31.1448 2.7168 31.1343L2.71582 31.0992V31.0562L2.71289 30.7945C2.71284 30.7887 2.71283 30.7827 2.71289 30.7769C2.7285 29.2852 3.19295 27.829 4.0498 26.6021C5.09451 25.1036 6.58349 24.1055 8.2666 23.6617C8.62182 21.6602 9.72159 19.8635 11.3506 18.6402C11.3753 18.6203 11.402 18.6028 11.4287 18.5855C13.0921 17.3782 14.9963 16.9425 16.8057 17.148C17.9336 15.0593 19.7839 13.4046 21.7236 12.4966ZM38.5596 37.5074V37.5084V37.5074ZM41.5947 37.2115C41.3913 37.2724 41.1841 37.3251 40.9727 37.3658C41.1841 37.3251 41.3913 37.2724 41.5947 37.2115ZM42.1982 36.9976C42.0255 37.0688 41.8488 37.1318 41.6689 37.188C41.8488 37.1318 42.0255 37.0688 42.1982 36.9976ZM42.3008 36.9527C42.3607 36.9268 42.4206 36.9012 42.4795 36.8736C42.4206 36.9012 42.3607 36.9268 42.3008 36.9527ZM42.6094 36.8101C42.6628 36.7836 42.716 36.757 42.7686 36.7291C42.716 36.757 42.6628 36.7836 42.6094 36.8101ZM42.8682 36.6744C42.9233 36.6439 42.978 36.6127 43.0322 36.5806C42.978 36.6127 42.9233 36.6439 42.8682 36.6744ZM43.1523 36.5084C43.2033 36.4768 43.2537 36.4446 43.3037 36.4117C43.2537 36.4446 43.2033 36.4768 43.1523 36.5084ZM6.54004 36.3433H6.53906H6.54004ZM43.4053 36.3433C43.4612 36.305 43.5166 36.2661 43.5713 36.2261C43.5166 36.2661 43.4612 36.305 43.4053 36.3433ZM43.6387 36.1754C43.6937 36.1341 43.7481 36.0922 43.8018 36.0494C43.7481 36.0922 43.6937 36.1341 43.6387 36.1754ZM43.9082 35.9615C43.954 35.9233 44.0001 35.8856 44.0449 35.8463C44.0001 35.8856 43.954 35.9233 43.9082 35.9615ZM44.1338 35.7662C44.1819 35.7225 44.2296 35.6784 44.2764 35.6334C44.2296 35.6784 44.1819 35.7225 44.1338 35.7662ZM5.35547 35.3228V35.3238V35.3228ZM44.3594 35.5513C44.4042 35.5066 44.4486 35.4615 44.4922 35.4156C44.4486 35.4615 44.4042 35.5066 44.3594 35.5513ZM44.5898 35.3101C44.6214 35.2755 44.6528 35.2409 44.6836 35.2056C44.6528 35.2409 44.6214 35.2755 44.5898 35.3101ZM44.8057 35.0621C44.8342 35.0276 44.8618 34.9926 44.8896 34.9576C44.8618 34.9926 44.8342 35.0276 44.8057 35.0621ZM44.9736 34.8511C45.0147 34.7973 45.0552 34.7431 45.0947 34.688C45.0552 34.7431 45.0147 34.7973 44.9736 34.8511ZM45.1572 34.5982C45.1912 34.5492 45.2241 34.4996 45.2568 34.4498C45.2241 34.4996 45.1912 34.5492 45.1572 34.5982ZM4.43848 34.0504C4.31227 33.8176 4.20336 33.5817 4.11035 33.3433C4.2034 33.5818 4.31219 33.8184 4.43848 34.0513V34.0504ZM45.3379 34.3238C45.3664 34.2782 45.3944 34.2323 45.4219 34.1861C45.3944 34.2323 45.3664 34.2782 45.3379 34.3238ZM45.4902 34.0709C45.5221 34.0147 45.5527 33.9579 45.583 33.9009C45.5527 33.9579 45.5221 34.0147 45.4902 34.0709ZM45.6387 33.7945C45.6701 33.7327 45.7009 33.6707 45.7305 33.608C45.7009 33.6707 45.6701 33.7327 45.6387 33.7945ZM45.7734 33.5142C45.7993 33.4573 45.8244 33.4 45.8486 33.3423C45.8244 33.4 45.7993 33.4573 45.7734 33.5142ZM45.9014 33.2144C45.9197 33.1682 45.9368 33.1214 45.9541 33.0748C45.9368 33.1214 45.9197 33.1682 45.9014 33.2144ZM46.0068 32.9283C46.0237 32.8793 46.0399 32.8302 46.0557 32.7808C46.0399 32.8302 46.0237 32.8793 46.0068 32.9283ZM46.1016 32.6334C46.12 32.5708 46.1377 32.508 46.1543 32.4449C46.1377 32.508 46.12 32.5708 46.1016 32.6334ZM46.1816 32.3365C46.1937 32.2869 46.2039 32.2369 46.2148 32.1871C46.2039 32.2369 46.1937 32.2869 46.1816 32.3365ZM46.252 32.0103C46.2651 31.9416 46.2762 31.8725 46.2871 31.8033C46.2762 31.8725 46.2651 31.9416 46.252 32.0103ZM46.3008 31.7242C46.3116 31.6499 46.3199 31.5753 46.3281 31.5005C46.3199 31.5753 46.3116 31.6499 46.3008 31.7242ZM3.63867 31.1588V31.1597V31.1588ZM46.3389 31.4078C46.3476 31.3166 46.3536 31.2252 46.3584 31.1334C46.3536 31.2252 46.3476 31.3166 46.3389 31.4078ZM46.3613 31.0943C46.3651 31.0135 46.3665 30.9324 46.3672 30.8511C46.3665 30.9324 46.3651 31.0135 46.3613 31.0943ZM3.63086 30.7867L3.63184 30.7857L3.63086 30.7867ZM46.3682 30.773C46.3678 30.6814 46.3657 30.5896 46.3613 30.4976C46.3657 30.5896 46.3678 30.6814 46.3682 30.773ZM3.65234 30.3287C3.64679 30.3972 3.64206 30.4659 3.63867 30.5347C3.64257 30.4554 3.6485 30.3764 3.65527 30.2974L3.65234 30.3287ZM3.71191 29.8316C3.70246 29.891 3.69433 29.9506 3.68652 30.0103C3.69433 29.9506 3.70246 29.891 3.71191 29.8316ZM3.75098 29.6109C3.74112 29.6615 3.73229 29.7124 3.72363 29.7632C3.73229 29.7124 3.74112 29.6615 3.75098 29.6109ZM4.05078 28.5543C4.04343 28.5737 4.03646 28.5933 4.0293 28.6129C4.05382 28.546 4.07973 28.4797 4.10645 28.4136L4.05078 28.5543ZM4.1748 28.2496C4.1536 28.2981 4.13328 28.347 4.11328 28.3961C4.13328 28.347 4.1536 28.2981 4.1748 28.2496ZM4.80273 27.1285H4.80371H4.80273ZM5.21094 26.6021C5.16038 26.6611 5.11127 26.7216 5.0625 26.7828C5.11127 26.7216 5.16038 26.6611 5.21094 26.6021ZM6.60449 25.3834C6.56213 25.4108 6.52027 25.4389 6.47852 25.4673C6.52027 25.4389 6.56213 25.4108 6.60449 25.3834ZM6.86133 25.2252C6.82915 25.2439 6.79749 25.2635 6.76562 25.2828C6.79749 25.2635 6.82915 25.2439 6.86133 25.2252ZM7.14551 25.0699C7.10114 25.0928 7.05652 25.1153 7.0127 25.1392C7.05652 25.1153 7.10114 25.0928 7.14551 25.0699ZM7.40625 24.9429C7.3704 24.9595 7.33436 24.9756 7.29883 24.9927C7.33436 24.9756 7.3704 24.9595 7.40625 24.9429ZM7.70996 24.8121C7.66685 24.8294 7.62375 24.8466 7.58105 24.8648C7.62375 24.8466 7.66685 24.8294 7.70996 24.8121ZM8.0625 24.6812C7.9915 24.7052 7.92059 24.7292 7.85059 24.7554C7.92059 24.7292 7.9915 24.7052 8.0625 24.6812ZM9.13867 24.0025V24.0064H9.13965V24.0025C9.15453 23.904 9.17151 23.806 9.19043 23.7086C9.17149 23.806 9.15357 23.9039 9.13867 24.0025ZM11.7666 19.481C11.6404 19.5807 11.517 19.6832 11.3984 19.7906C11.517 19.6832 11.6403 19.5807 11.7666 19.481ZM12.2334 19.1431C12.1796 19.1786 12.1275 19.2172 12.0742 19.2545C12.1342 19.2125 12.1933 19.1701 12.2539 19.1304L12.2334 19.1431ZM35.1104 18.8765L35.0137 18.5904C35.004 18.5634 34.9924 18.5372 34.9824 18.5103C35.0272 18.6314 35.0707 18.7532 35.1104 18.8765ZM12.8662 18.772C12.8214 18.7953 12.777 18.8199 12.7324 18.8443C12.777 18.8199 12.8214 18.7953 12.8662 18.772ZM13.1943 18.6129C13.138 18.6384 13.0823 18.6657 13.0264 18.6929C13.0823 18.6657 13.138 18.6384 13.1943 18.6129ZM13.5244 18.4732C13.4574 18.4994 13.3909 18.5277 13.3242 18.5562C13.3909 18.5277 13.4574 18.4994 13.5244 18.4732ZM34.9551 18.438C34.9239 18.3561 34.8919 18.2747 34.8584 18.1939C34.8919 18.2747 34.9239 18.3561 34.9551 18.438ZM13.833 18.3619C13.7814 18.3792 13.7301 18.3979 13.6787 18.4166C13.7301 18.3979 13.7814 18.3792 13.833 18.3619ZM14.1865 18.2545C14.1239 18.2717 14.0614 18.29 13.999 18.3091C14.0614 18.29 14.1239 18.2717 14.1865 18.2545ZM14.5117 18.1744C14.4475 18.1886 14.3833 18.2031 14.3193 18.2193C14.3833 18.2031 14.4475 18.1885 14.5117 18.1744ZM14.833 18.1109C14.7783 18.1202 14.7236 18.1305 14.6689 18.1412C14.7236 18.1305 14.7783 18.1202 14.833 18.1109ZM16.3398 18.0289C16.5504 18.0414 16.76 18.0633 16.9678 18.0953C16.76 18.0633 16.5504 18.0414 16.3398 18.0289ZM15.2197 18.0572C15.1445 18.0654 15.0693 18.0747 14.9941 18.0855C15.0693 18.0747 15.1445 18.0654 15.2197 18.0572ZM34.8086 18.0748C34.7631 17.9694 34.7163 17.8644 34.667 17.7613C34.7164 17.8644 34.7631 17.9693 34.8086 18.0748ZM15.5605 18.0289C15.4756 18.0338 15.3906 18.0392 15.3057 18.0474C15.3906 18.0393 15.4756 18.0337 15.5605 18.0289ZM15.8955 18.0181C15.8148 18.0187 15.7341 18.0205 15.6533 18.024C15.7341 18.0205 15.8148 18.0187 15.8955 18.0181ZM16.1953 18.023C16.126 18.0204 16.0567 18.0176 15.9873 18.0172C16.0567 18.0176 16.1261 18.0204 16.1953 18.023ZM17.9473 17.0142C17.9021 17.0853 17.8587 17.1577 17.8154 17.23C17.8587 17.1577 17.9021 17.0853 17.9473 17.0142ZM18.1748 16.6724C18.1319 16.7339 18.0903 16.7964 18.0488 16.8589C18.0903 16.7964 18.1319 16.7339 18.1748 16.6724ZM18.4395 16.3121C18.408 16.353 18.3775 16.3946 18.3467 16.4361C18.3775 16.3946 18.408 16.353 18.4395 16.3121ZM18.7109 15.9732C18.661 16.0327 18.6121 16.0931 18.5635 16.1539C18.6121 16.0931 18.661 16.0327 18.7109 15.9732ZM18.9893 15.6548C18.9339 15.7156 18.8792 15.7772 18.8252 15.8394C18.8792 15.7772 18.9339 15.7156 18.9893 15.6548ZM19.3027 15.3267C19.244 15.3857 19.1853 15.4449 19.1279 15.5054C19.1854 15.4449 19.244 15.3857 19.3027 15.3267ZM19.6455 14.9976C19.5646 15.0719 19.4842 15.1471 19.4053 15.2242C19.4842 15.1471 19.5645 15.0718 19.6455 14.9976ZM19.9268 14.7486C19.8537 14.8109 19.7806 14.8735 19.709 14.938C19.7806 14.8735 19.8537 14.8109 19.9268 14.7486ZM20.2422 14.4898C20.1747 14.5429 20.1075 14.5969 20.041 14.6519C20.1075 14.5969 20.1747 14.5429 20.2422 14.4898ZM20.542 14.2632C20.4894 14.3015 20.4368 14.34 20.3848 14.3795C20.4368 14.34 20.4894 14.3015 20.542 14.2632ZM21.4092 13.6959C21.2549 13.7851 21.1026 13.8808 20.9512 13.98C21.2129 13.8086 21.4788 13.6506 21.748 13.5093L21.4092 13.6959Z" fill="white" fill-opacity="0.3"/>
</g>
</g>
</g>
</svg>
