<svg width="50" height="50" viewBox="0 0 50 50" fill="none" xmlns="http://www.w3.org/2000/svg">
<rect width="50" height="50" fill="#BEBEBE"/>
<g id="Decorate Mode">
<path d="M-354.703 -1232.65V-1231.65H2665.3V-1232.65V-1233.65H-354.703V-1232.65ZM2667.3 -1230.65H2666.3V2307.35H2667.3H2668.3V-1230.65H2667.3ZM2665.3 2309.35V2308.35H-354.703V2309.35V2310.35H2665.3V2309.35ZM-356.703 2307.35H-355.703V-1230.65H-356.703H-357.703V2307.35H-356.703ZM-354.703 2309.35V2308.35C-355.255 2308.35 -355.703 2307.9 -355.703 2307.35H-356.703H-357.703C-357.703 2309.01 -356.36 2310.35 -354.703 2310.35V2309.35ZM2667.3 2307.35H2666.3C2666.3 2307.9 2665.85 2308.35 2665.3 2308.35V2309.35V2310.35C2666.95 2310.35 2668.3 2309.01 2668.3 2307.35H2667.3ZM2665.3 -1232.65V-1231.65C2665.85 -1231.65 2666.3 -1231.2 2666.3 -1230.65H2667.3H2668.3C2668.3 -1232.31 2666.95 -1233.65 2665.3 -1233.65V-1232.65ZM-354.703 -1232.65V-1233.65C-356.359 -1233.65 -357.703 -1232.31 -357.703 -1230.65H-356.703H-355.703C-355.703 -1231.2 -355.255 -1231.65 -354.703 -1231.65V-1232.65Z" fill="black" fill-opacity="0.1"/>
<g id="Stickers">
<rect x="-302.694" y="-360.151" width="374" height="551" rx="4.5" stroke="#9747FF" stroke-dasharray="10 5"/>
<g id="Property 1=cresent moon">
<g id="Frame 198">
<path id="Vector" d="M24.0325 10.8535C24.2979 10.8362 24.6482 10.7844 24.8662 10.9698C25.1452 11.2071 24.9043 11.5842 24.7172 11.7925C24.4836 11.8734 24.3061 11.905 24.062 12.0169C23.0852 12.4644 22.0867 13.1997 21.3492 13.9749C19.3964 16.0167 18.3452 18.7572 18.4315 21.5812C18.5041 24.2585 19.6361 26.7976 21.579 28.6409C23.6331 30.593 26.3899 31.6304 29.2212 31.5171C32.4111 31.4165 35.583 29.8176 37.4836 27.2434C37.6377 27.0349 37.7685 26.792 37.8879 26.5657C38.0424 26.2729 38.2119 25.8904 38.6064 25.8921C39.007 25.8938 39.1355 26.208 39.0993 26.5632C39.0473 27.1135 38.957 27.6628 38.8315 28.2029C38.1601 31.0146 36.6416 33.5525 34.4814 35.4736C34.0415 35.8455 33.6401 36.1853 33.1692 36.5178C30.9809 38.0723 28.3964 38.9741 25.716 39.1186C21.9818 39.3227 18.3225 38.0149 15.5637 35.4897C9.66812 30.1592 9.30299 21.2268 14.6579 15.4683C17.0891 12.8539 20.4393 11.0266 24.0325 10.8535Z" fill="#020101"/>
<path id="Vector (Stroke)" d="M24.552 9.27535C24.8284 9.2904 25.3245 9.35685 25.7861 9.70564L25.8783 9.7795L25.9973 9.88936C26.2638 10.1563 26.4489 10.4951 26.5216 10.8763C26.5988 11.2811 26.5312 11.6331 26.4527 11.8748C26.3052 12.3285 26.0315 12.6675 25.8795 12.8367L25.6098 13.137L25.2283 13.2689C25.142 13.2988 25.0648 13.3225 25.0018 13.3415C24.9229 13.3653 24.9053 13.3706 24.8529 13.3867C24.7842 13.4078 24.7493 13.4205 24.7125 13.4373C23.9313 13.7953 23.0931 14.4084 22.4811 15.0517L22.478 15.0548C20.8667 16.7396 19.9762 18.983 19.989 21.3084L19.9933 21.5336V21.5391C20.0528 23.7318 20.953 25.8147 22.5025 27.3595L22.6544 27.5072L22.655 27.5084C24.4029 29.1695 26.749 30.0522 29.1583 29.9559H29.1651L29.1718 29.9553C31.9036 29.8691 34.6217 28.4882 36.2262 26.3151H36.2268C36.3012 26.2145 36.382 26.0712 36.5058 25.8366V25.836C36.5353 25.7801 36.7127 25.4081 36.9611 25.1127C37.2673 24.7486 37.8126 24.3263 38.6127 24.3297C39.2817 24.3325 39.9423 24.634 40.3382 25.2617C40.6682 25.7852 40.69 26.3421 40.6543 26.7094L40.6549 26.71C40.5962 27.3317 40.4943 27.9502 40.3534 28.5564L40.3522 28.5612L40.351 28.5655C39.6053 31.6885 37.9186 34.5074 35.5194 36.6411L35.5048 36.6545L35.4901 36.6673C35.0585 37.0321 34.6071 37.4139 34.0735 37.791L34.0741 37.7916C31.6449 39.5172 28.7757 40.5187 25.8002 40.6792L25.7996 40.6785C21.6495 40.9049 17.5829 39.4528 14.5154 36.6484C7.97496 30.7345 7.56432 20.802 13.5138 14.4041C16.1633 11.5551 19.8678 9.4987 23.9307 9.29488V9.29427C23.9624 9.29216 24.2805 9.26057 24.552 9.27535ZM24.8664 10.9697C24.6484 10.7844 24.298 10.8364 24.0326 10.8537C20.4394 11.0268 17.0888 12.8542 14.6576 15.4686L14.411 15.7408C9.31579 21.5053 9.75998 30.2427 15.5634 35.4899C18.3221 38.0151 21.9817 39.3226 25.716 39.1185C28.3964 38.974 30.9808 38.0722 33.169 36.5178C33.6399 36.1853 34.0413 35.8453 34.4812 35.4735C36.5739 33.6123 38.0644 31.1725 38.7659 28.4654L38.8312 28.203C38.9567 27.6629 39.0471 27.1132 39.0991 26.5629C39.1329 26.2299 39.0222 25.9329 38.678 25.8958L38.6066 25.8922C38.2121 25.8905 38.0421 26.2727 37.8876 26.5654C37.7682 26.7917 37.6376 27.035 37.4835 27.2435C35.5829 29.8176 32.4111 31.4165 29.2212 31.5172C26.3899 31.6305 23.6331 30.5927 21.579 28.6406C19.6969 26.855 18.5755 24.4167 18.4412 21.8321L18.4314 21.5813C18.3478 18.8455 19.3319 16.1883 21.1688 14.1685L21.3489 13.9751C22.0403 13.2483 22.9615 12.5567 23.8788 12.1043L24.0619 12.017C24.1839 11.9611 24.2893 11.9251 24.3933 11.8931L24.7174 11.7924C24.9044 11.5842 25.1451 11.2069 24.8664 10.9697Z" fill="#E8E7E7"/>
<path id="Vector (Stroke) (Stroke)" d="M24.6017 8.35782C24.9144 8.37486 25.4964 8.44452 26.0869 8.80146L26.3392 8.97246L26.3607 8.9892L26.4528 9.06334L26.5006 9.10519L26.6202 9.21401L26.6477 9.24032C27.0396 9.63288 27.3154 10.1363 27.4238 10.704C27.5383 11.3041 27.4361 11.8182 27.3257 12.158C27.1204 12.7898 26.7496 13.2428 26.5628 13.4507L26.2926 13.7508C26.1885 13.8666 26.057 13.9547 25.9099 14.0055L25.5285 14.1371C25.4251 14.1729 25.3343 14.2007 25.2678 14.2208C25.1874 14.2451 25.1725 14.2498 25.1231 14.265C25.1095 14.2692 25.0988 14.2712 25.092 14.2734C25.0859 14.2754 25.0829 14.2768 25.0824 14.277C25.0824 14.277 25.0845 14.2769 25.0872 14.2758L24.8421 14.3978C24.2461 14.7136 23.6174 15.1895 23.1464 15.6844C23.1412 15.6899 23.1362 15.6958 23.1309 15.7012C21.6914 17.2123 20.8965 19.2212 20.9079 21.3035H20.9067L20.9115 21.5139L20.9306 21.8798C21.0674 23.698 21.851 25.4096 23.1429 26.7013L23.2947 26.8483C24.8619 28.3344 26.9634 29.1241 29.1218 29.0378H29.1433C31.6055 28.96 34.0565 27.707 35.487 25.7697L35.4906 25.7638C35.5182 25.7252 35.5713 25.6409 35.6939 25.4086V25.4074C35.6911 25.4126 35.7662 25.2612 35.8565 25.1049C35.9495 24.944 36.0862 24.7261 36.2583 24.5213C36.6764 24.0242 37.4588 23.4069 38.6164 23.4116C39.5573 23.4156 40.53 23.845 41.1144 24.7713C41.5941 25.5321 41.6152 26.3209 41.5688 26.7981C41.5061 27.4612 41.398 28.1197 41.2483 28.764L41.2447 28.7795L41.2435 28.7843L41.2352 28.813C40.4417 32.1051 38.6609 35.0763 36.1303 37.3271L36.1256 37.3318C36.1204 37.3366 36.1153 37.3416 36.11 37.3462L36.0945 37.3581L36.0825 37.3689C35.6608 37.7253 35.1888 38.1228 34.6308 38.5193C34.6222 38.5258 34.6146 38.5345 34.6057 38.5408C32.1956 40.2527 29.3761 41.2912 26.4385 41.5542L25.8501 41.596C21.4555 41.8358 17.1485 40.2982 13.8994 37.3294C6.97988 31.0726 6.54216 20.552 12.8411 13.7783C15.6166 10.7938 19.5258 8.60546 23.8603 8.38054C23.8635 8.3803 23.8667 8.37837 23.8699 8.37815C23.8847 8.37641 24.2698 8.33979 24.6017 8.35782ZM23.9297 9.29413L23.9309 9.29532C19.8682 9.49913 16.1638 11.555 13.5143 14.4037L13.2393 14.7063C7.57846 21.1109 8.07732 30.8263 14.5152 36.6478C17.487 39.3647 21.3967 40.8125 25.4113 40.6944L25.7999 40.6789C28.5893 40.5284 31.2855 39.6391 33.6132 38.1067L34.0736 37.791C34.3404 37.6025 34.5863 37.4124 34.8198 37.2242L35.4906 36.667L35.5049 36.655L35.5193 36.6407C37.9184 34.507 39.6058 31.6885 40.3515 28.5655L40.3539 28.5559C40.4947 27.9499 40.5965 27.3311 40.6552 26.7096H40.654C40.6853 26.3882 40.6732 25.9212 40.4483 25.4588L40.3383 25.2615C39.992 24.7123 39.4427 24.4125 38.8627 24.3444L38.6128 24.33C37.8127 24.3267 37.2676 24.7491 36.9614 25.1132L36.7892 25.3428C36.6338 25.5738 36.5284 25.7926 36.5058 25.8355V25.8367C36.444 25.9539 36.3929 26.0484 36.348 26.1261L36.2272 26.315H36.226C34.6216 28.488 31.9038 29.8688 29.172 29.955L29.1649 29.9562H29.1589C26.7495 30.0525 24.4028 29.1695 22.655 27.5084V27.5072L22.5019 27.3589C20.9527 25.8143 20.0526 23.7314 19.9931 21.539V21.533L19.9896 21.3082C19.9768 18.9829 20.8667 16.739 22.478 15.0543L22.4816 15.0519C23.0936 14.4086 23.9318 13.7954 24.7129 13.4375C24.7496 13.4208 24.7843 13.4072 24.8528 13.3861L25.0023 13.3419L25.2283 13.2689L25.6098 13.1374L25.88 12.8373C26.013 12.6892 26.2386 12.4107 26.3918 12.0397L26.4528 11.8746C26.5215 11.6632 26.5814 11.3674 26.5437 11.0256L26.5222 10.8762C26.4494 10.495 26.2636 10.1565 25.9972 9.88963L25.8788 9.77962L25.7867 9.70548C25.3251 9.35668 24.8279 9.29005 24.5515 9.275C24.2807 9.26032 23.9637 9.2919 23.9309 9.29413L23.9285 9.25467L23.9297 9.29413ZM24.0325 10.8534C24.2978 10.8361 24.648 10.7845 24.866 10.9694C25.1447 11.2066 24.9046 11.5838 24.7177 11.7921L24.3937 11.8926L24.2346 11.9464C24.1801 11.9663 24.1233 11.9891 24.0624 12.0169L23.8783 12.1042C22.9613 12.5565 22.0405 13.2479 21.3492 13.9745L21.1686 14.1682C19.3317 16.1878 18.3479 18.8452 18.4314 21.5809L18.441 21.832C18.5753 24.4165 19.6967 26.8552 21.5788 28.6408C23.6328 30.5929 26.3898 31.6299 29.2211 31.5167C32.3113 31.4192 35.3852 29.9164 37.3022 27.4821L37.484 27.243C37.5609 27.1388 37.6313 27.0256 37.698 26.9105L37.8882 26.5649C38.0426 26.2723 38.2126 25.89 38.6068 25.8917L38.6786 25.8953C39.0222 25.9326 39.1331 26.2299 39.0995 26.5625L39.0529 26.9751C38.9996 27.3873 38.9258 27.7981 38.8316 28.2032L38.7659 28.465C38.0644 31.1721 36.574 33.6124 34.4813 35.4736L33.8368 36.0105C33.6228 36.1834 33.4048 36.3514 33.1696 36.5175C30.9814 38.0719 28.3965 38.9738 25.7162 39.1184C21.9822 39.3224 18.3226 38.0152 15.5639 35.4903C9.76055 30.2431 9.31596 21.5052 14.4112 15.7406L14.6575 15.468C17.0887 12.8538 20.4395 11.0265 24.0325 10.8534ZM22.2364 12.0169C19.6225 12.5909 17.2038 14.0792 15.3367 16.0838L15.3379 16.085L15.0916 16.3577C10.4864 21.5766 10.7311 29.3938 15.6847 34.3388L16.1798 34.8087L16.1834 34.8123C18.7599 37.1707 22.1781 38.3918 25.666 38.2012C28.1729 38.066 30.5909 37.2227 32.6374 35.7689L32.6398 35.7677C33.0728 35.462 33.444 35.1471 33.8882 34.7717C35.8356 33.0335 37.2235 30.7588 37.8774 28.2355L37.8786 28.2259C35.782 30.7745 32.53 32.3286 29.2569 32.4339C26.1783 32.5568 23.181 31.4293 20.9474 29.3069L20.5719 28.9338C18.7452 27.0263 17.6612 24.5232 17.5238 21.8798V21.8679L17.5143 21.6168L17.5131 21.6096C17.4222 18.6355 18.4926 15.7468 20.4894 13.5511L20.4966 13.5428L20.6771 13.3491L20.6831 13.3419C21.1315 12.8706 21.6657 12.4151 22.2364 12.0169Z" fill="#020101"/>
<path id="Vector_2" d="M21.8522 12.2162L21.8612 12.2227C21.861 12.2258 20.8861 13.0947 20.6578 13.3265C18.5292 15.4877 17.4642 18.422 17.4946 21.4322C17.5032 24.3155 18.6585 27.0769 20.7056 29.1074C22.9914 31.3403 25.7768 32.5254 28.9902 32.4819C31.6145 32.4431 34.1523 31.5388 36.2097 29.9094C36.7995 29.4419 37.218 29.0195 37.7434 28.481C37.6216 29.0691 37.3745 29.6931 37.1355 30.2439C36.2761 32.2251 34.9087 33.9067 33.24 35.2725C31.5561 36.6038 29.5786 37.5142 27.4721 37.9275C24.0453 38.6013 20.4916 37.8657 17.6139 35.887C14.733 33.9219 12.7425 30.9006 12.0739 27.478C10.9801 21.7589 13.8583 16.0174 18.9922 13.2906C19.9247 12.7953 20.807 12.4151 21.8522 12.2162Z" fill="#8FB7B3"/>
</g>
<path id="Union" d="M24.6016 8.35736C24.9142 8.37439 25.4965 8.44475 26.0869 8.8017L26.3389 8.9726L26.3604 8.9892L26.4531 9.06342L26.501 9.10541L26.6201 9.21381L26.6475 9.24017C27.0393 9.63274 27.3155 10.1364 27.4238 10.704C27.5383 11.3042 27.4365 11.8183 27.3262 12.1581C27.1209 12.7899 26.7493 13.2432 26.5625 13.4511L26.293 13.7509C26.1889 13.8666 26.0572 13.9549 25.9102 14.0058L25.5283 14.1367C25.425 14.1724 25.3341 14.2006 25.2676 14.2206C25.1874 14.2449 25.1724 14.2494 25.123 14.2646C25.1095 14.2688 25.0986 14.2712 25.0918 14.2734L25.0869 14.2753L24.8418 14.3974C24.2458 14.7133 23.6174 15.1896 23.1465 15.6845C23.1413 15.69 23.1362 15.6958 23.1309 15.7011C21.6914 17.2122 20.8967 19.2214 20.9082 21.3036H20.9062L20.9111 21.5136L20.9307 21.8798C21.0675 23.6978 21.8509 25.4095 23.1426 26.7011L23.2949 26.8486C24.8621 28.3345 26.9637 29.1243 29.1221 29.038H29.1436C31.6056 28.9602 34.0569 27.7067 35.4873 25.7695L35.4902 25.7636C35.5179 25.725 35.5718 25.6405 35.6943 25.4081V25.4072C35.699 25.3975 35.7707 25.2529 35.8564 25.1044C35.9494 24.9436 36.0859 24.7259 36.2578 24.5214C36.6759 24.0243 37.4587 23.4073 38.6162 23.412C39.5572 23.4161 40.5298 23.8452 41.1143 24.7714C41.5939 25.5321 41.6147 26.3205 41.5684 26.7978C41.5056 27.4607 41.3977 28.1194 41.248 28.7636L41.2451 28.7792L41.2432 28.7841L41.2354 28.8134C40.4418 32.1054 38.6604 35.0764 36.1299 37.3271L36.126 37.332C36.1208 37.3367 36.1157 37.342 36.1104 37.3466L36.0947 37.3583L36.082 37.3691C35.6604 37.7254 35.1886 38.1231 34.6309 38.5195C34.6223 38.526 34.6143 38.5347 34.6055 38.541C32.1954 40.2528 29.376 41.2916 26.4385 41.5546L25.8506 41.5956C21.4559 41.8354 17.1486 40.2978 13.8994 37.329C6.98013 31.0722 6.54202 20.5518 12.8408 13.7783C15.6164 10.7937 19.5258 8.60571 23.8604 8.3808C23.8635 8.38055 23.8669 8.37808 23.8701 8.37787C23.8884 8.3758 24.2713 8.33944 24.6016 8.35736ZM25.0264 40.7001C25.0498 40.7 25.0732 40.6994 25.0967 40.6992C25.0732 40.6994 25.0498 40.7 25.0264 40.7001ZM23.9053 40.665C23.9209 40.666 23.9365 40.6669 23.9521 40.6679C23.9365 40.6669 23.9209 40.666 23.9053 40.665ZM23.5 40.6318C23.5676 40.6382 23.6354 40.6438 23.7031 40.6494C23.6354 40.6438 23.5676 40.6382 23.5 40.6318ZM23.166 40.5966C23.1816 40.5984 23.1973 40.5997 23.2129 40.6015C23.1973 40.5997 23.1816 40.5984 23.166 40.5966ZM26.7559 40.5956C26.7877 40.592 26.8197 40.5897 26.8516 40.5859C26.8197 40.5897 26.7877 40.592 26.7559 40.5956ZM22.7754 40.5468C22.8111 40.5519 22.847 40.5556 22.8828 40.5605C22.847 40.5556 22.8111 40.5519 22.7754 40.5468ZM27.2217 40.5351C27.2757 40.5272 27.3299 40.5201 27.3838 40.5117C27.3299 40.5201 27.2757 40.5272 27.2217 40.5351ZM22.4072 40.4892C22.443 40.4952 22.4789 40.5001 22.5146 40.5058C22.4789 40.5001 22.443 40.4952 22.4072 40.4892ZM27.7441 40.4492C27.7978 40.4395 27.8517 40.4311 27.9053 40.4208C27.8517 40.4311 27.7978 40.4395 27.7441 40.4492ZM21.6631 40.3456C21.6969 40.353 21.7308 40.36 21.7646 40.3671C21.7308 40.36 21.6969 40.353 21.6631 40.3456ZM28.2539 40.3495C28.3145 40.3366 28.3752 40.3242 28.4355 40.3105C28.3752 40.3242 28.3145 40.3366 28.2539 40.3495ZM21.2793 40.2568C21.3401 40.2717 21.4009 40.2866 21.4619 40.3007C21.4009 40.2866 21.3401 40.2717 21.2793 40.2568ZM28.748 40.2353C28.8243 40.2164 28.9006 40.1977 28.9766 40.1777C28.9006 40.1977 28.8243 40.2163 28.748 40.2353ZM20.9355 40.1689C20.9785 40.1804 21.0214 40.1919 21.0645 40.2031C21.0214 40.1919 20.9785 40.1804 20.9355 40.1689ZM29.2314 40.1074C29.3287 40.0799 29.4258 40.0517 29.5225 40.0224C29.4258 40.0517 29.3287 40.0799 29.2314 40.1074ZM20.5605 40.0624C20.6093 40.0769 20.6581 40.0914 20.707 40.1054C20.6581 40.0914 20.6093 40.0769 20.5605 40.0624ZM20.1738 39.9423C20.2436 39.965 20.3137 39.987 20.3838 40.0087C20.3137 39.987 20.2436 39.965 20.1738 39.9423ZM29.7207 39.9599C29.8242 39.927 29.9275 39.8934 30.0303 39.8583C29.9275 39.8934 29.8242 39.927 29.7207 39.9599ZM19.8174 39.8222C19.893 39.8488 19.9689 39.8749 20.0449 39.9003C19.9689 39.8749 19.893 39.8488 19.8174 39.8222ZM30.2373 39.7861C30.337 39.7506 30.4362 39.7142 30.5352 39.6767C30.4362 39.7142 30.337 39.7506 30.2373 39.7861ZM19.4756 39.6972C19.5395 39.7214 19.6037 39.7451 19.668 39.7685C19.6037 39.7451 19.5395 39.7214 19.4756 39.6972ZM19.1572 39.5722C19.2057 39.5918 19.2541 39.6117 19.3027 39.6308C19.2541 39.6117 19.2057 39.5918 19.1572 39.5722ZM30.7432 39.5966C30.8512 39.5539 30.9583 39.5089 31.0654 39.4638C30.9583 39.5089 30.8512 39.5539 30.7432 39.5966ZM31.2236 39.3974C31.3347 39.3492 31.4447 39.2988 31.5547 39.248C31.4447 39.2988 31.3347 39.3492 31.2236 39.3974ZM18.1123 39.1044C18.1601 39.128 18.2078 39.1517 18.2559 39.1747C18.2078 39.1517 18.1601 39.128 18.1123 39.1044ZM31.7314 39.166C31.8245 39.1216 31.9166 39.0754 32.0088 39.0292C31.9166 39.0754 31.8245 39.1216 31.7314 39.166ZM24.3203 39.1249H24.3213H24.3203ZM22.2617 38.8759C22.3747 38.8982 22.488 38.9189 22.6016 38.9384C22.488 38.9189 22.3747 38.8982 22.2617 38.8759ZM32.2217 38.9218C32.3202 38.8705 32.4181 38.818 32.5156 38.7646C32.4181 38.818 32.3202 38.8705 32.2217 38.9218ZM17.4297 38.746C17.4892 38.7791 17.5485 38.8124 17.6084 38.8447C17.5485 38.8124 17.4892 38.7791 17.4297 38.746ZM21.2578 38.6386H21.2568H21.2578ZM32.6924 38.6679C32.8237 38.5938 32.9537 38.5173 33.083 38.4394C32.9537 38.5173 32.8237 38.5938 32.6924 38.6679ZM17.1123 38.5644C17.1615 38.5933 17.2103 38.6229 17.2598 38.6513C17.2103 38.6229 17.1615 38.5933 17.1123 38.5644ZM16.8174 38.3867C16.859 38.4124 16.9005 38.4385 16.9424 38.4638C16.9005 38.4385 16.859 38.4124 16.8174 38.3867ZM17.4941 36.9697C17.5914 37.0315 17.6894 37.092 17.7881 37.1513C17.8869 37.2107 17.9868 37.2683 18.0869 37.3251C17.987 37.2684 17.8877 37.2106 17.7891 37.1513C17.6904 37.092 17.5924 37.0315 17.4951 36.9697H17.4941ZM35.4902 36.6669L35.5049 36.6552L35.5117 36.6474L35.4902 36.6669ZM15.8242 35.7236C15.9123 35.8002 16.002 35.8749 16.0918 35.9492C16.0022 35.8751 15.9131 35.8001 15.8252 35.7236H15.8242ZM13.3779 35.5126C13.4087 35.5466 13.4406 35.5795 13.4717 35.6132C13.4349 35.5734 13.3976 35.5342 13.3613 35.4941L13.3779 35.5126ZM14.5381 34.4667C14.6185 34.5554 14.7002 34.6433 14.7832 34.7304C14.7003 34.6435 14.6193 34.5552 14.5391 34.4667C14.534 34.4611 14.5285 34.4558 14.5234 34.4501L14.5381 34.4667ZM13.7207 33.4785C13.6935 33.4425 13.6655 33.4072 13.6387 33.371C13.795 33.5819 13.9584 33.7891 14.1279 33.9931C14.027 33.8716 13.9283 33.7489 13.832 33.6249C13.7944 33.5764 13.7576 33.5273 13.7207 33.4785ZM13.5996 33.3173C13.5909 33.3055 13.5829 33.2931 13.5742 33.2812C13.5829 33.2931 13.5909 33.3055 13.5996 33.3173ZM39.3828 31.3925C39.2188 31.7545 39.0413 32.1099 38.8506 32.4579H38.8516C38.9468 32.2841 39.0383 32.1081 39.127 31.9306C39.3045 31.5753 39.4688 31.2132 39.6191 30.8447L39.3828 31.3925ZM13.1201 32.6201C13.1181 32.6169 13.1163 32.6135 13.1143 32.6103L13.0469 32.5078C13.0707 32.5455 13.0959 32.5825 13.1201 32.6201ZM37.1816 32.2245C37.1692 32.2451 37.1581 32.2665 37.1455 32.287C37.1605 32.2625 37.1746 32.2374 37.1895 32.2128C37.187 32.2168 37.1841 32.2205 37.1816 32.2245ZM12.8652 32.2128C12.9036 32.277 12.9429 32.3406 12.9824 32.4042C12.9511 32.3538 12.9212 32.3026 12.8906 32.2519C12.8783 32.2314 12.8658 32.2109 12.8535 32.1904C12.8478 32.1808 12.8416 32.1716 12.8359 32.162C12.8459 32.1789 12.8552 32.1961 12.8652 32.2128ZM10.9434 31.9521C10.9688 32.0032 10.9955 32.0536 11.0215 32.1044C10.9955 32.0536 10.9688 32.0032 10.9434 31.9521ZM12.6592 31.8574C12.6635 31.865 12.6686 31.8722 12.6729 31.8798C12.6686 31.8722 12.6635 31.865 12.6592 31.8574ZM10.7803 31.6132C10.7983 31.6517 10.8166 31.6901 10.835 31.7285C10.8166 31.6901 10.7983 31.6517 10.7803 31.6132ZM10.6318 31.2851C10.6459 31.3171 10.6605 31.3489 10.6748 31.3808C10.6605 31.3489 10.6459 31.3171 10.6318 31.2851ZM10.4971 30.9726C10.5163 31.0191 10.5369 31.065 10.5566 31.1113C10.5229 31.032 10.4894 30.9527 10.457 30.873L10.4971 30.9726ZM11.9434 30.3788C12.0069 30.5321 12.0734 30.6844 12.1426 30.8359C12.1277 30.8034 12.1132 30.7708 12.0986 30.7382C12.0822 30.7015 12.0659 30.6647 12.0498 30.6279C12.0288 30.5799 12.0087 30.5315 11.9883 30.4833C11.9735 30.4484 11.9579 30.4139 11.9434 30.3788ZM10.334 30.5595C10.3659 30.6433 10.3982 30.7271 10.4316 30.8105C10.3982 30.7271 10.3659 30.6433 10.334 30.5595ZM10.2012 30.1962C10.2226 30.2569 10.2444 30.3174 10.2666 30.3779C10.2444 30.3174 10.2226 30.2569 10.2012 30.1962ZM40.3535 28.5566L40.3525 28.5615L40.3506 28.5654C40.2107 29.151 40.0385 29.7263 39.834 30.288L40.0283 29.7216C40.1505 29.3415 40.2584 28.9557 40.3516 28.5654L40.3535 28.5556V28.5566ZM11.8164 30.0624L11.8174 30.0634L11.8164 30.0624ZM11.6982 29.7451C11.7178 29.7996 11.7385 29.8538 11.7588 29.9081C11.7449 29.8708 11.7314 29.8333 11.7178 29.7958C11.7009 29.7494 11.6843 29.7028 11.668 29.6562C11.6668 29.6529 11.6652 29.6497 11.6641 29.6464C11.6756 29.6793 11.6865 29.7123 11.6982 29.7451ZM27.3711 29.8476C27.5178 29.8714 27.6653 29.8916 27.8135 29.9081C27.6653 29.8916 27.5178 29.8714 27.3711 29.8476ZM9.96582 29.4745C9.98395 29.5353 10.0036 29.5956 10.0225 29.6562C10.0036 29.5956 9.98395 29.5353 9.96582 29.4745ZM11.4854 29.1044C11.5407 29.2862 11.6011 29.4666 11.6641 29.6464C11.6433 29.587 11.6235 29.5273 11.6035 29.4677C11.591 29.4303 11.5786 29.3929 11.5664 29.3554C11.5415 29.279 11.5167 29.2026 11.4932 29.1259C11.4909 29.1186 11.4876 29.1117 11.4854 29.1044ZM9.86914 29.1337C9.88468 29.1905 9.9008 29.2471 9.91699 29.3036C9.9008 29.2471 9.88468 29.1905 9.86914 29.1337ZM9.77246 28.7636C9.78367 28.8089 9.79502 28.8542 9.80664 28.8994C9.79502 28.8541 9.78367 28.8089 9.77246 28.7636ZM9.68359 28.3837C9.69462 28.4336 9.70625 28.4834 9.71777 28.5331C9.70625 28.4834 9.69462 28.4336 9.68359 28.3837ZM9.60449 28.0087C9.61807 28.0782 9.63293 28.1474 9.64746 28.2167C9.63294 28.1474 9.61806 28.0782 9.60449 28.0087ZM9.53418 27.6181C9.54889 27.7052 9.56485 27.792 9.58105 27.8788C9.56485 27.792 9.54889 27.7052 9.53418 27.6181ZM40.6025 27.1757L40.6035 27.1747L40.6025 27.1757ZM9.49414 27.3749C9.50097 27.4196 9.50938 27.4641 9.5166 27.5087C9.50056 27.4095 9.48481 27.3103 9.4707 27.2109L9.49414 27.3749ZM22.6543 27.5068H22.6553H22.6543ZM9.42383 26.8486C9.43648 26.9558 9.44996 27.0629 9.46484 27.1699C9.44996 27.0629 9.43648 26.9558 9.42383 26.8486ZM21.9521 26.7558C21.9783 26.7874 22.0066 26.8173 22.0332 26.8486C21.9184 26.7138 21.806 26.5775 21.7002 26.4365L21.9521 26.7558ZM9.39062 26.5449C9.39574 26.597 9.40158 26.649 9.40723 26.7011C9.40159 26.649 9.39574 26.597 9.39062 26.5449ZM40.665 26.4765C40.6653 26.4547 40.6654 26.4326 40.665 26.4101C40.6654 26.4326 40.6652 26.4547 40.665 26.4765ZM40.6631 26.3603C40.6619 26.3268 40.6609 26.2926 40.6582 26.2578C40.6609 26.2926 40.6619 26.3268 40.6631 26.3603ZM9.35938 26.1874C9.36309 26.237 9.36789 26.2864 9.37207 26.3359C9.36789 26.2864 9.36308 26.237 9.35938 26.1874ZM10.9365 26.2968C10.934 26.2695 10.932 26.2421 10.9297 26.2148C10.932 26.2421 10.934 26.2695 10.9365 26.2968ZM40.6523 26.1913C40.6482 26.1516 40.6431 26.1112 40.6367 26.0703C40.6432 26.1112 40.6482 26.1516 40.6523 26.1913ZM40.625 26.0058C40.6181 25.9684 40.6107 25.9306 40.6016 25.8925C40.6107 25.9306 40.618 25.9684 40.625 26.0058ZM9.33496 25.7802C9.33846 25.8522 9.34218 25.9241 9.34668 25.996C9.34219 25.9241 9.33846 25.8522 9.33496 25.7802ZM40.5879 25.8359C40.5724 25.7778 40.5545 25.719 40.5332 25.6601C40.5546 25.719 40.5723 25.7778 40.5879 25.8359ZM36.6348 25.5937C36.5804 25.6893 36.5409 25.7675 36.5195 25.8095C36.5408 25.7674 36.5805 25.6893 36.6348 25.5937ZM9.32129 25.4072C9.32258 25.4596 9.32435 25.512 9.32617 25.5644C9.32436 25.512 9.32258 25.4596 9.32129 25.4072ZM36.6826 25.5117C36.6778 25.5198 36.6736 25.5281 36.6689 25.5361C36.7046 25.4754 36.7443 25.4093 36.7891 25.3427L36.6826 25.5117ZM9.31641 24.9687C9.3161 25.0546 9.31724 25.1406 9.31836 25.2265C9.31725 25.1406 9.31609 25.0546 9.31641 24.9687ZM40.2129 25.0869C40.2044 25.0761 40.1962 25.0652 40.1875 25.0546C40.1962 25.0652 40.2044 25.0761 40.2129 25.0869ZM10.8799 24.8066C10.8793 24.8456 10.8792 24.8847 10.8789 24.9238C10.8795 24.8378 10.8816 24.7519 10.8838 24.666C10.8826 24.7128 10.8806 24.7597 10.8799 24.8066ZM40.0566 24.9111C40.048 24.9024 40.0391 24.8941 40.0303 24.8857C40.0391 24.8941 40.048 24.9024 40.0566 24.9111ZM9.32129 24.6513C9.31933 24.733 9.31806 24.8147 9.31738 24.8964C9.31806 24.8147 9.31932 24.733 9.32129 24.6513ZM39.877 24.7519C39.8716 24.7477 39.8657 24.7443 39.8604 24.7402C39.8657 24.7443 39.8716 24.7477 39.877 24.7519ZM39.5137 24.5302C39.5029 24.5251 39.4923 24.5195 39.4814 24.5146C39.4923 24.5195 39.5029 24.5251 39.5137 24.5302ZM39.3184 24.4501C39.2597 24.4295 39.1999 24.4127 39.1396 24.3974C39.1999 24.4127 39.2597 24.4295 39.3184 24.4501ZM38.6133 24.33C38.7778 24.3308 38.9418 24.3494 39.1016 24.3867C39.0228 24.3683 38.9427 24.3541 38.8623 24.3447L38.6133 24.33ZM10.915 24.0156C10.9097 24.0894 10.9046 24.1633 10.9004 24.2372C10.9046 24.1633 10.9097 24.0894 10.915 24.0156ZM9.35742 23.9013C9.35252 23.969 9.34777 24.0367 9.34375 24.1044C9.34777 24.0367 9.35251 23.969 9.35742 23.9013ZM10.9219 23.9208C10.9241 23.8922 10.9272 23.8636 10.9297 23.8349C10.9305 23.8248 10.9308 23.8147 10.9316 23.8046C10.9282 23.8434 10.925 23.8821 10.9219 23.9208ZM9.39062 23.5126C9.38337 23.5868 9.3763 23.661 9.37012 23.7353C9.3763 23.661 9.38337 23.5868 9.39062 23.5126ZM10.9902 23.2597C10.9779 23.3563 10.9673 23.453 10.957 23.5497C10.9673 23.453 10.9779 23.3563 10.9902 23.2597ZM9.43164 23.1396C9.42166 23.2213 9.412 23.3029 9.40332 23.3847C9.412 23.3029 9.42166 23.2213 9.43164 23.1396ZM11.0059 23.1396C11.0004 23.1796 10.9953 23.2197 10.9902 23.2597C11.0034 23.1564 11.0177 23.0532 11.0332 22.9501C11.0237 23.0132 11.0145 23.0764 11.0059 23.1396ZM9.47559 22.8076C9.46855 22.8564 9.46165 22.9052 9.45508 22.954C9.46165 22.9052 9.46855 22.8564 9.47559 22.8076ZM9.57617 22.1923C9.57267 22.2112 9.56886 22.2301 9.56543 22.249C9.58368 22.1485 9.60377 22.0484 9.62402 21.9482L9.57617 22.1923ZM9.67969 21.6855C9.66206 21.7655 9.64427 21.8455 9.62793 21.9257C9.64427 21.8455 9.66206 21.7655 9.67969 21.6855ZM11.5 20.9042C11.4682 21.0071 11.4385 21.1104 11.4092 21.2138C11.4385 21.1104 11.4682 21.0071 11.5 20.9042ZM19.9971 20.874L19.998 20.873L19.9971 20.874ZM10.0283 20.3759C10.0238 20.3903 10.0191 20.4045 10.0146 20.4189C10.0468 20.3154 10.0808 20.2123 10.1152 20.1093L10.0283 20.3759ZM10.1982 19.8681C10.1718 19.9432 10.1454 20.0183 10.1201 20.0937C10.1454 20.0183 10.1718 19.9432 10.1982 19.8681ZM11.8604 19.8828C11.8688 19.8615 11.8782 19.8405 11.8867 19.8193C11.8976 19.7923 11.9079 19.7651 11.9189 19.7382C11.8992 19.7864 11.8795 19.8345 11.8604 19.8828ZM20.4443 18.4413C20.3205 18.8157 20.2202 19.1981 20.1465 19.5869C20.2202 19.1981 20.3206 18.8157 20.4443 18.4413ZM12.0762 19.3701C12.0848 19.3506 12.0928 19.3309 12.1016 19.3115C12.0928 19.3309 12.0848 19.3506 12.0762 19.3701ZM10.4912 19.1015C10.4547 19.1899 10.4186 19.2783 10.3838 19.3671C10.4186 19.2783 10.4547 19.1899 10.4912 19.1015ZM12.2617 18.9697C12.248 18.9981 12.2352 19.0271 12.2217 19.0556C12.2352 19.0271 12.248 18.9981 12.2617 18.9697ZM10.6406 18.7509C10.6075 18.8258 10.5758 18.9012 10.5439 18.9765C10.5758 18.9012 10.6075 18.8258 10.6406 18.7509ZM18.7168 18.8115C18.7216 18.7915 18.7275 18.7718 18.7324 18.7519C18.7275 18.7718 18.7216 18.7915 18.7168 18.8115ZM10.9736 18.0468C10.8564 18.2794 10.7454 18.5142 10.6406 18.7509C10.7454 18.5142 10.8564 18.2794 10.9736 18.0468ZM20.9795 17.1611C20.826 17.4602 20.6911 17.768 20.5723 18.082C20.6911 17.768 20.8261 17.4602 20.9795 17.1611ZM11.1865 17.6396C11.1342 17.7361 11.0833 17.8332 11.0332 17.9306C11.0833 17.8332 11.1342 17.7361 11.1865 17.6396ZM11.2158 17.5849C11.2059 17.6031 11.1964 17.6214 11.1865 17.6396C11.2496 17.5231 11.3145 17.4072 11.3809 17.2919L11.2158 17.5849ZM13.2393 14.706C12.6191 15.4076 12.0732 16.1493 11.6006 16.9208C12.0731 16.1494 12.6193 15.4084 13.2393 14.707V14.706ZM19.5137 16.6005C19.5105 16.6069 19.508 16.6136 19.5049 16.6201C19.5385 16.5516 19.5733 16.4837 19.6084 16.416C19.5766 16.4774 19.5442 16.5385 19.5137 16.6005ZM23.8252 13.9365C23.4779 14.1657 23.1413 14.4293 22.8379 14.706C23.1412 14.4293 23.478 14.1657 23.8252 13.9365ZM14.0234 13.8788C13.9271 13.9741 13.8322 14.0707 13.7383 14.1679C13.8322 14.0707 13.9271 13.9741 14.0234 13.8788ZM25.8799 12.8369L25.6094 13.1367V13.1376L25.8799 12.8369C25.9156 12.7971 25.9571 12.7472 26.0029 12.6894C25.957 12.7472 25.9156 12.7971 25.8799 12.8369ZM26.0605 12.6122C26.0899 12.5727 26.1211 12.5309 26.1514 12.4853C26.1211 12.5308 26.09 12.5727 26.0605 12.6122ZM26.3242 12.1865C26.3475 12.1393 26.3706 12.0907 26.3916 12.04C26.3706 12.0907 26.3475 12.1393 26.3242 12.1865ZM24.0625 12.0165L24.0166 12.039C24.0317 12.032 24.0465 12.0244 24.0615 12.0175L24.0625 12.0165ZM24.7168 11.7929H24.7178H24.7168ZM26.4531 11.8749C26.4709 11.8203 26.4869 11.7595 26.502 11.6943C26.4869 11.7596 26.4709 11.8202 26.4531 11.8749ZM26.5225 11.5829C26.5287 11.5472 26.5346 11.5106 26.5391 11.4726C26.5345 11.5106 26.5287 11.5473 26.5225 11.5829ZM24.5762 10.8466C24.6838 10.8637 24.7844 10.9001 24.8662 10.9697C24.8837 10.9845 24.8995 10.9997 24.9131 11.0156C24.8996 10.9997 24.8837 10.9845 24.8662 10.9697C24.8391 10.9467 24.81 10.9273 24.7793 10.9111C24.7174 10.8784 24.6489 10.8581 24.5771 10.8466C24.5411 10.8409 24.5041 10.8379 24.4668 10.8359C24.5037 10.8379 24.5404 10.8409 24.5762 10.8466ZM26.4473 10.5986C26.479 10.688 26.5033 10.7808 26.5215 10.8759H26.5225C26.5043 10.7807 26.4791 10.688 26.4473 10.5986ZM25.7861 9.70599L25.8779 9.77924H25.8789L25.7871 9.70502L25.7861 9.70599ZM23.9297 9.29388L23.9307 9.29486V9.29388L23.9287 9.25482L23.9297 9.29388Z" fill="white" fill-opacity="0.3"/>
</g>
</g>
</g>
</svg>
