<svg width="50" height="50" viewBox="0 0 50 50" fill="none" xmlns="http://www.w3.org/2000/svg">
<rect width="50" height="50" fill="#BEBEBE"/>
<g id="Decorate Mode">
<path d="M-121.803 -891.034V-890.034H2898.2V-891.034V-892.034H-121.803V-891.034ZM2900.2 -889.034H2899.2V2648.97H2900.2H2901.2V-889.034H2900.2ZM2898.2 2650.97V2649.97H-121.803V2650.97V2651.97H2898.2V2650.97ZM-123.803 2648.97H-122.803V-889.034H-123.803H-124.803V2648.97H-123.803ZM-121.803 2650.97V2649.97C-122.356 2649.97 -122.803 2649.52 -122.803 2648.97H-123.803H-124.803C-124.803 2650.62 -123.46 2651.97 -121.803 2651.97V2650.97ZM2900.2 2648.97H2899.2C2899.2 2649.52 2898.75 2649.97 2898.2 2649.97V2650.97V2651.97C2899.85 2651.97 2901.2 2650.62 2901.2 2648.97H2900.2ZM2898.2 -891.034V-890.034C2898.75 -890.034 2899.2 -889.587 2899.2 -889.034H2900.2H2901.2C2901.2 -890.691 2899.85 -892.034 2898.2 -892.034V-891.034ZM-121.803 -891.034V-892.034C-123.46 -892.034 -124.803 -890.691 -124.803 -889.034H-123.803H-122.803C-122.803 -889.587 -122.356 -890.034 -121.803 -890.034V-891.034Z" fill="black" fill-opacity="0.1"/>
<g id="Stickers">
<rect x="-69.7944" y="-18.5342" width="374" height="551" rx="4.5" stroke="#9747FF" stroke-dasharray="10 5"/>
<g id="Property 1=round cactus">
<g id="Frame 106">
<g id="Vector">
<path d="M38.6331 12.1495C38.7081 11.8963 38.8004 11.2244 39.0344 11.1169C39.2301 11.1412 39.2196 11.326 39.2011 11.4796C39.1613 11.8101 39.1008 12.1421 39.053 12.4717C39.2796 12.2729 39.7597 11.6255 40.0087 11.6255C40.0913 11.6659 40.0625 11.6356 40.0992 11.7182C40.0906 11.9883 39.6093 12.5449 39.4329 12.8274C39.7662 12.7517 40.2644 12.5229 40.6131 12.5202C40.6709 12.5197 40.6969 12.5619 40.7274 12.6003C40.7643 12.897 39.9783 13.1332 39.739 13.2272C40.2479 13.9221 40.4596 14.5158 40.6498 15.341C40.883 15.197 41.4836 14.7635 41.7397 14.8468C41.8071 14.9144 41.7883 14.8758 41.8071 14.9614C41.734 15.2372 41.0494 15.5709 40.779 15.7818L40.7521 15.8031C41.0101 15.7997 41.8802 15.7418 41.9771 15.9873C41.884 16.2178 40.9932 16.2513 40.7497 16.2637C40.978 16.3673 41.8714 16.7156 41.9282 16.9601C41.8545 17.1974 41.5336 17.0575 41.367 16.9929C41.1632 16.9139 40.9613 16.8289 40.7576 16.749C40.6955 17.9627 40.5436 18.5058 40.1194 19.6322C40.3489 19.6282 41.0877 19.5595 41.1844 19.806C41.1477 19.9576 41.0461 19.9778 40.9083 20.0012C40.5752 20.0575 40.2191 20.0776 39.883 20.1027C40.1125 20.3415 40.5145 20.5808 40.7007 20.8601C40.7321 20.9071 40.7116 20.9505 40.6957 20.9942C40.4774 21.1651 39.8733 20.6686 39.6652 20.5221C39.1792 21.3614 38.8093 21.8163 38.1304 22.495C38.3694 22.5981 39.0228 22.835 39.0951 23.0717C39.0692 23.1663 39.0925 23.125 39.0154 23.1956C38.8128 23.2686 37.9964 22.926 37.7307 22.8383C37.8795 23.1155 38.3291 23.7017 38.2918 23.9584C38.0723 24.2534 37.56 23.3966 37.387 23.2195L37.3629 23.1952C37.3639 23.5573 37.4089 23.9218 37.3722 24.2841C37.3584 24.4199 37.3115 24.5884 37.1382 24.5207C36.9618 24.3224 36.943 23.7396 36.9278 23.4738C36.3768 23.8578 35.9747 24.0594 35.3832 24.3515C35.7936 25.2797 36.0221 25.8967 36.2822 26.8757C36.5191 26.7205 37.0597 26.3216 37.3077 26.3632C37.3851 26.4187 37.3601 26.3832 37.3891 26.4703C37.337 26.7274 36.6391 27.1761 36.4001 27.3484C36.6769 27.3287 37.4196 27.2499 37.6231 27.407C37.6595 27.4915 37.6564 27.4494 37.6324 27.5382C37.4655 27.7107 36.6791 27.7824 36.3989 27.8221C36.7771 27.9738 37.2858 28.144 37.625 28.3608C37.6905 28.4027 37.6893 28.4456 37.6979 28.5072C37.6193 28.6993 37.3848 28.6217 37.2242 28.5729C36.984 28.4996 36.7402 28.4065 36.5034 28.3215C36.5953 29.4065 36.5208 30.2051 36.4006 31.2799C36.6519 31.208 37.3777 30.9342 37.5593 31.1323C37.5729 31.2077 37.5667 31.2054 37.5372 31.2784C37.3472 31.4732 36.6024 31.6655 36.3108 31.7745C36.4627 31.8138 36.6238 31.849 36.7771 31.885C36.9771 31.9342 37.4553 32.0192 37.5208 32.2377C37.3882 32.4841 36.4474 32.2684 36.1911 32.2296C36.4396 32.4579 36.6964 32.6448 36.9549 32.859C37.0561 32.9428 37.1304 33.0133 37.1394 33.142C37.1063 33.2299 37.1342 33.1984 37.0573 33.2437C36.7774 33.2561 36.2989 32.8914 36.0699 32.7283C35.5403 34.7112 34.3008 36.7078 32.8559 38.1515C33.775 38.1577 34.6938 38.1577 35.6129 38.1518C35.5736 38.1184 35.536 38.0834 35.5001 38.0468C35.1282 37.6669 34.9102 37.0623 34.9178 36.5303C34.9228 36.1706 35.1344 35.7226 35.5627 35.7754C35.9157 35.819 36.2011 36.1613 36.4136 36.4231C36.8243 34.5053 38.5053 34.4755 38.0735 36.6105C39.6388 35.8009 39.9406 37.1996 38.7576 38.1475C39.4574 38.1618 40.1589 38.1534 40.8592 38.1532C41.1318 38.153 41.4965 38.1051 41.7576 38.1696C41.8228 38.1856 41.8735 38.2394 41.9047 38.2972C41.9525 38.3853 41.9628 38.4788 41.9285 38.5731C41.899 38.654 41.8468 38.7192 41.7647 38.7507C41.6112 38.8092 36.799 38.7697 36.1563 38.7697L10.8122 38.7685C10.0434 38.7666 9.2662 38.7642 8.49887 38.7733C7.94291 38.7799 7.97859 38.1846 8.33845 38.1577C8.5862 38.1391 9.017 38.1527 9.28022 38.1537C9.94723 38.1587 10.6142 38.1579 11.2812 38.1518C10.1302 37.2841 10.3582 35.7985 11.9479 36.609C11.4924 34.5317 13.2368 34.5107 13.6227 36.4303C13.673 36.3612 13.7254 36.2936 13.7796 36.2277C13.9539 36.0185 14.2856 35.7416 14.5304 35.7571C15.4205 35.8133 15.0941 37.2886 14.7458 37.7564C14.6183 37.9275 14.5514 38.013 14.4241 38.1477C15.3171 38.1682 16.28 38.156 17.1747 38.1525C15.7668 36.8454 14.4528 34.5938 13.967 32.7348C13.7453 32.8842 13.1943 33.3151 12.9346 33.2463C12.8383 33.1228 12.931 33.0149 13.0253 32.9257C13.2879 32.6769 13.5967 32.4648 13.8763 32.2344C13.5083 32.2542 13.0663 32.3848 12.6902 32.3629C12.6328 32.3596 12.6013 32.3172 12.5676 32.2746C12.5359 32.0582 12.8137 31.9906 12.9856 31.949C13.2334 31.889 13.4876 31.8393 13.7367 31.7826C13.4306 31.685 12.7829 31.5081 12.5161 31.3046C12.4668 31.267 12.4774 31.2146 12.4792 31.1613C12.6516 30.8926 13.3611 31.2061 13.6174 31.2934C13.4792 30.0799 13.4584 29.5517 13.5138 28.3232C13.2777 28.411 12.5311 28.735 12.3297 28.5755C12.2644 28.2589 13.333 27.9476 13.5988 27.8167C13.3354 27.7681 12.5058 27.7019 12.3846 27.5125C12.3739 27.4208 12.3639 27.4615 12.4136 27.3858C12.6582 27.2425 13.336 27.3325 13.6525 27.3525C13.3498 27.1392 12.9672 26.8926 12.7084 26.6336C12.6435 26.5686 12.6424 26.5189 12.6494 26.4341C12.752 26.2649 12.969 26.388 13.1047 26.4653C13.3267 26.5917 13.5488 26.7403 13.7644 26.8781C13.9338 25.9957 14.296 25.178 14.6601 24.3634C14.04 24.0558 13.6607 23.8367 13.09 23.4538C13.0841 23.679 13.0619 24.4016 12.8547 24.5247C12.6955 24.5169 12.6671 24.377 12.6565 24.2428C12.6285 23.8881 12.6626 23.5166 12.6922 23.1633C12.5002 23.3752 12.114 24.0253 11.8358 24.0347C11.7543 23.9943 11.7868 24.0232 11.7389 23.9408C11.7203 23.6769 12.1565 23.1653 12.3044 22.8672L12.3197 22.8357C12.109 22.892 11.2563 23.2557 11.1156 23.2171C10.4785 23.0424 11.7711 22.5502 11.9032 22.4913C11.2487 21.8386 10.8365 21.3198 10.3669 20.5331C10.1995 20.6511 10.0302 20.7662 9.85884 20.8784C9.72311 20.9654 9.55911 21.076 9.39581 21.0408C9.32712 20.9794 9.35192 21.0166 9.32704 20.9204C9.36694 20.7152 9.94896 20.2952 10.146 20.1168C9.79253 20.063 9.28382 20.076 8.94271 19.9629C8.88622 19.9442 8.86563 19.887 8.84866 19.8336C8.89886 19.5523 9.67503 19.6224 9.90657 19.6254C9.4912 18.6336 9.315 17.8185 9.26937 16.7511C9.03583 16.8433 8.34902 17.1986 8.14995 17.0459C8.07866 16.9014 8.1794 16.8191 8.29546 16.749C8.60148 16.564 8.9564 16.4094 9.27908 16.2576C9.00686 16.2508 8.29444 16.2337 8.10453 16.044C8.07792 15.9604 8.07925 16.0028 8.11053 15.9126C8.25405 15.7763 9.05799 15.8016 9.30719 15.7968C9.01845 15.6092 8.5235 15.3259 8.29901 15.0716C8.25714 15.0242 8.2628 14.9739 8.27159 14.9154C8.43969 14.6733 9.1801 15.2008 9.37639 15.3157C9.52702 14.5417 9.86837 13.8738 10.2855 13.2174C10.0334 13.1003 9.39415 12.9109 9.31083 12.6665C9.38044 12.3031 10.3475 12.7669 10.6383 12.8433C10.4569 12.5425 9.92871 11.9991 9.93716 11.7053C9.98327 11.6265 9.95156 11.6574 10.0428 11.6176C10.263 11.6291 10.7622 12.2437 10.9841 12.4468C10.9159 12.1151 10.8338 11.7059 10.8227 11.3673C10.8182 11.2317 10.8468 11.1887 10.9374 11.0971C10.9684 11.1052 11.0333 11.1221 11.0561 11.1424C11.2377 11.3033 11.3382 11.9348 11.3892 12.1631C11.9333 11.7234 12.8852 11.4608 13.5749 11.4885C14.7973 11.5374 15.5197 11.9792 16.3379 12.8114C16.4364 12.5653 16.7085 11.8887 16.9488 11.815C17.045 11.8389 17.0011 11.817 17.0779 11.8958C17.1524 12.0811 16.7741 12.9236 16.6812 13.1643C16.9335 13.0321 17.5473 12.535 17.801 12.6214C17.9038 12.7614 17.8235 12.8506 17.7147 12.9523C17.4711 13.1801 17.1837 13.3549 16.9288 13.5712C17.2845 13.5617 18.0639 13.5059 18.3147 13.7364L18.3163 13.7982C18.1278 14.003 17.4262 13.9905 17.1424 14.0038C17.4697 14.7906 17.5635 15.5196 17.5509 16.3582C17.7718 16.2463 18.3853 15.8817 18.6092 16.0097C18.7036 16.2118 18.4263 16.3636 18.2751 16.4504C18.038 16.5867 17.797 16.7161 17.5597 16.8531C17.8191 16.924 18.5878 17.0754 18.7056 17.2824C18.709 17.3775 18.7198 17.3341 18.6703 17.417C18.4594 17.5452 17.8169 17.3527 17.5374 17.2912C17.5406 17.3696 17.5449 17.448 17.5505 17.5262C17.6165 18.4446 17.9728 19.1154 18.6621 19.7089C19.2945 19.2654 19.9425 18.9261 20.6424 18.6025C20.4557 18.4061 19.9003 17.9738 19.923 17.707C20.1083 17.4246 20.9102 18.2376 21.1208 18.407C21.023 18.1138 20.7226 17.3766 20.8392 17.1224C20.9141 17.0614 20.8729 17.0765 20.9653 17.0707C21.173 17.1696 21.4139 17.9148 21.5432 18.1855C21.5627 17.9748 21.695 16.8196 21.988 16.8892C22.1612 17.0945 22.064 17.7771 22.0404 18.0581C22.8033 17.8186 23.5344 17.716 24.3265 17.6563C24.195 17.4138 23.7441 16.715 23.8725 16.4865C24.0238 16.3851 24.1153 16.4928 24.2043 16.6169C24.41 16.9033 24.5799 17.2189 24.7798 17.5103C24.806 17.1661 24.7677 16.7353 24.855 16.3953C24.8693 16.3393 24.9281 16.3012 24.9781 16.2767C25.1742 16.2913 25.1854 16.5384 25.1983 16.6989C25.2207 16.9798 25.2257 17.2685 25.2349 17.5504C25.4642 17.2303 25.6739 16.7572 25.95 16.4791C25.9917 16.4372 26.045 16.4482 26.0924 16.4547C26.2416 16.5709 26.1564 16.7647 26.0876 16.91C25.9686 17.161 25.8239 17.41 25.6894 17.6531C26.5553 17.705 27.1804 17.8312 28.0036 18.0777C27.9767 17.8297 27.8336 17.0088 28.0702 16.8876C28.3597 16.9273 28.4758 17.949 28.4963 18.2109C28.5718 18.0241 28.6434 17.8312 28.7208 17.6461C28.8026 17.4501 28.895 17.0888 29.1349 17.0713C29.3001 17.1773 29.2256 17.406 29.1816 17.5672C29.1066 17.842 29.0147 18.1152 28.9264 18.386C29.1568 18.1977 29.751 17.6058 30.0271 17.6333C30.1042 17.6837 30.0785 17.6505 30.1102 17.7338C30.083 17.9794 29.6001 18.3795 29.4037 18.6043C30.2025 18.9754 30.6234 19.219 31.3618 19.713C32.1702 19.0099 32.3727 18.316 32.501 17.2933C32.2632 17.345 31.4589 17.5576 31.3073 17.3584L31.3206 17.2996C31.5308 17.0317 32.1468 16.9351 32.4806 16.8586C32.2482 16.714 31.4192 16.3469 31.393 16.109C31.4258 16.0051 31.3965 16.045 31.4787 15.9814C31.7624 15.9262 32.2294 16.2164 32.4848 16.3596C32.4715 15.4606 32.5355 14.8663 32.8852 14.0182C32.5722 13.9935 32.2325 13.9856 31.9245 13.9419C31.8419 13.9302 31.8014 13.8983 31.756 13.8306C31.75 13.7816 31.735 13.7247 31.7829 13.6856C32.0064 13.5026 32.8364 13.5715 33.1028 13.5813C32.8512 13.3676 32.2154 12.9973 32.1671 12.7196C32.1937 12.6298 32.1711 12.6705 32.2501 12.6016C32.4465 12.5457 33.0802 13.0132 33.3311 13.1393L33.3637 13.1554C33.2259 12.8133 33.049 12.4464 32.9554 12.0928C32.9259 11.9812 32.9343 11.9441 32.9904 11.8574C33.2023 11.7699 33.3215 12.0011 33.4039 12.1648C33.5077 12.3711 33.605 12.5877 33.7029 12.7972C34.242 12.1506 34.9883 11.7105 35.815 11.5515C36.8128 11.3602 37.7955 11.5839 38.6331 12.1495Z" fill="#020101"/>
<path d="M24.7478 18.4877C24.8028 19.7512 24.7666 21.2242 24.7664 22.5013C24.6031 22.4031 24.1798 22.0988 23.998 22.2164C23.8899 22.4346 24.111 22.5385 24.27 22.6537C24.4302 22.7696 24.6038 22.8797 24.7688 22.9902L24.7685 26.0402C24.6133 25.9081 24.1497 25.4594 23.9462 25.5817C23.8735 25.8702 24.5536 26.3758 24.7564 26.5265C24.7638 27.2918 24.7942 28.3639 24.7569 29.1142C24.5317 29.2237 23.9323 29.4734 23.9387 29.7571L23.9811 29.7945C24.244 29.8545 24.5248 29.6874 24.7623 29.5722C24.7745 31.1922 24.7764 32.8121 24.7676 34.4322C24.5664 34.307 24.1609 33.9685 23.9544 34.1601C23.9397 34.2058 23.9223 34.2296 23.9366 34.2698C24.0043 34.4612 24.5821 34.779 24.7659 34.9042C24.783 35.6569 24.7614 36.5838 24.755 37.3453C24.7561 37.6109 24.7607 37.8863 24.7573 38.1508C24.5136 38.1522 22.9978 38.1893 22.8725 38.1125L22.8349 38.0427C21.3174 34.9635 20.9105 30.909 21.2121 27.5115C21.4349 25.0016 22.2571 22.1429 23.5579 19.9797C23.8725 19.4566 24.2767 18.8758 24.7478 18.4877Z" fill="#78A79F"/>
<path d="M22.8349 38.0427C22.988 37.9577 23.4574 37.8555 23.6584 37.7955C24.0379 37.682 24.4053 37.5314 24.755 37.3453C24.7561 37.6109 24.7607 37.8863 24.7573 38.1508C24.5136 38.1522 22.9978 38.1893 22.8725 38.1125L22.8349 38.0427Z" fill="#287271"/>
<path d="M25.2441 18.5122C25.6193 18.7698 26.1194 19.4505 26.3758 19.8496C28.7454 23.5399 29.3938 29.4577 28.5314 33.6743C28.2905 35.2296 27.8149 36.7395 27.1208 38.1522L25.257 38.1518C25.2563 37.8459 25.242 37.3646 25.2629 37.0651C25.2717 36.3424 25.2596 35.6055 25.2658 34.8778C25.4753 34.7683 26.1341 34.4167 26.0715 34.1356C25.8702 34.0168 25.4405 34.3006 25.2558 34.4065C25.2986 32.8297 25.2306 31.1566 25.2558 29.5641C25.4496 29.6546 25.8935 29.9104 26.0665 29.7383C26.0735 29.4603 25.4767 29.2292 25.2577 29.1283C25.2513 29.0185 25.2529 28.9028 25.2544 28.7924C25.2653 28.038 25.2446 27.2804 25.2625 26.5263C25.4738 26.3904 26.1494 25.8793 26.0713 25.6074C26.0173 25.5572 26.0218 25.5529 25.9501 25.5437C25.7528 25.5979 25.4281 25.9007 25.2577 26.0392C25.2229 25.0754 25.2579 23.965 25.2491 22.9825C25.4265 22.8684 26.3043 22.4123 25.954 22.1919C25.7514 22.1692 25.4427 22.394 25.2553 22.5087C25.2365 21.1828 25.2606 19.8456 25.2441 18.5122Z" fill="#78A79F"/>
<path d="M25.2629 37.0651C26.5986 36.231 27.8018 35.0839 28.5314 33.6743C28.2905 35.2296 27.8149 36.7395 27.1208 38.1522L25.257 38.1518C25.2563 37.8459 25.242 37.3646 25.2629 37.0651Z" fill="#287271"/>
<path d="M26.1228 18.5693C26.7624 18.8487 27.3692 19.1983 27.9316 19.6115C28.4427 19.9856 29.0759 20.6207 29.4834 21.1038C31.0135 22.9251 32.0071 25.1362 32.3527 27.4897C32.5079 28.4958 32.5808 29.2609 32.5493 30.2902C32.4624 32.925 31.5948 35.4748 30.0564 37.616C29.9214 37.7983 29.7814 37.9769 29.6372 38.1518C29.0247 38.1525 28.3734 38.1632 27.7643 38.1471C28.0395 37.5489 28.2799 36.9354 28.4848 36.3099C28.5882 35.9864 28.6986 35.5198 28.8007 35.2287C28.9197 34.6965 29.0326 34.2004 29.1223 33.6622C29.3282 33.8214 29.521 33.9757 29.741 34.1154C29.8702 34.1259 29.9604 34.1326 29.9969 33.9869C29.9769 33.8893 29.9742 33.8943 29.9055 33.8181L29.2297 33.2337C29.4977 33.1652 30.2687 32.9866 30.3689 32.7265C30.2694 32.4901 29.467 32.7377 29.2585 32.786C29.4363 31.6065 29.4625 30.3471 29.4591 29.1552C29.6634 29.2559 30.2699 29.6077 30.4479 29.3923C30.4675 29.2342 30.4018 29.1897 30.2625 29.1228C29.9854 28.9893 29.7003 28.8772 29.4246 28.7389C29.67 28.5639 30.3665 28.3087 30.4472 28.0533C30.4272 27.9619 30.4479 28.0005 30.3832 27.9336C30.1616 27.8538 29.6591 28.15 29.4218 28.2609C29.3484 27.2535 29.1966 25.9591 28.9628 24.9755C29.2121 25.0093 29.805 25.184 29.9297 24.9312C29.9019 24.5844 29.0878 24.7301 28.8805 24.5452C28.8502 24.3241 29.4358 23.8228 29.4777 23.5818C29.497 23.4721 29.4996 23.3399 29.368 23.3144C29.188 23.3663 28.8631 23.8005 28.7262 23.9664C28.1425 21.9666 27.4784 20.1891 26.1228 18.5693Z" fill="#78A79F"/>
<path d="M32.3527 27.4897C32.5079 28.4958 32.5808 29.2609 32.5493 30.2902C32.4624 32.925 31.5948 35.4748 30.0564 37.616C29.9214 37.7983 29.7814 37.9769 29.6372 38.1518C29.0247 38.1525 28.3734 38.1632 27.7643 38.1471C28.0395 37.5489 28.2799 36.9354 28.4848 36.3099C28.5882 35.9864 28.6986 35.5198 28.8007 35.2287C28.9197 34.6965 29.0326 34.2004 29.1223 33.6622C29.3282 33.8214 29.521 33.9757 29.741 34.1154C29.8702 34.1259 29.9604 34.1326 29.9969 33.9869C29.9769 33.8893 29.9742 33.8943 29.9055 33.8181C30.2582 33.3168 30.2767 33.1499 30.5393 32.65C31.1279 31.5284 31.5954 30.4543 31.9258 29.2268C32.008 28.9185 32.0829 28.6084 32.1505 28.2968C32.1913 28.1111 32.2804 27.6375 32.3527 27.4897Z" fill="#287271"/>
<path d="M29.1223 33.6622C29.3282 33.8214 29.521 33.9757 29.741 34.1154C29.4539 34.4689 29.1663 34.9306 28.8586 35.2557C28.811 35.2398 28.829 35.2513 28.8007 35.2287C28.9197 34.6965 29.0326 34.2004 29.1223 33.6622Z" fill="#78A79F"/>
<path d="M23.7442 18.6568L23.7654 18.683C23.5629 18.9856 23.3665 19.2164 23.1524 19.5597C22.2465 21.0123 21.7702 22.3428 21.2777 23.9577C21.1526 23.7919 20.8787 23.3978 20.7037 23.3303C20.6222 23.3317 20.6141 23.3247 20.5456 23.3704C20.4093 23.6843 21.1355 24.2295 21.1162 24.5378C20.9749 24.7259 20.1683 24.5629 20.0999 24.8959C20.1866 25.1677 20.7919 25.0197 21.0257 24.9956C20.89 25.6421 20.7932 26.2436 20.6934 26.8932C20.5318 26.7868 20.3685 26.6828 20.2036 26.5814C20.0662 26.4988 19.8739 26.3803 19.7138 26.4198C19.5664 26.5921 19.8663 26.8002 19.9947 26.8932C20.199 27.0413 20.4102 27.1853 20.6177 27.3291C20.3943 27.3943 19.5301 27.5945 19.533 27.8628C19.7262 28.0232 20.3746 27.7899 20.6049 27.7226C20.4853 29.0084 20.5787 30.0244 20.6067 31.2719C20.3689 31.2046 19.7851 30.9577 19.5961 31.112C19.5399 31.3219 19.785 31.3931 19.9457 31.4612C20.1657 31.5547 20.4069 31.6345 20.6326 31.7159C20.485 31.8323 19.4803 32.4326 19.8575 32.5923C20.1066 32.583 20.469 32.2976 20.6803 32.1493C20.7918 33.1279 20.9197 34.0167 21.1468 34.9782C20.8401 34.9337 20.511 34.8418 20.2048 34.8408C20.1509 34.8789 20.1554 34.8808 20.11 34.9315C20.0885 35.0251 20.084 34.9815 20.121 35.0674C20.3275 35.2524 20.9608 35.3417 21.2442 35.3757C21.4143 36.12 21.9075 37.4642 22.2328 38.1498C21.6038 38.1533 20.9747 38.1536 20.3457 38.1505C20.1847 37.9205 19.9922 37.6906 19.8252 37.4523C19.4127 36.8653 19.0533 36.2429 18.751 35.5923C17.2067 32.1948 17.0708 28.3236 18.373 24.8261C19.146 22.7265 20.4598 20.8162 22.2823 19.473C22.76 19.1209 23.2079 18.9048 23.7442 18.6568Z" fill="#78A79F"/>
<path d="M27.2451 18.5133C27.6436 18.5821 28.148 18.7873 28.5286 18.9282C32.7716 20.4981 35.9773 24.8369 35.9228 29.4056C35.8883 32.2975 34.8845 34.8904 33.0056 37.0823C32.6778 37.4648 32.3317 37.7997 31.9737 38.1518C31.4489 38.1546 30.9237 38.153 30.3989 38.1468C31.2256 37.1001 31.8447 35.8462 32.2994 34.5988C32.411 34.2875 32.5034 33.9695 32.5988 33.6529C32.7504 33.7824 33.4079 34.3332 33.55 34.0195C33.5119 33.7736 32.9109 33.4437 32.7024 33.2477C32.9399 33.1894 33.7609 33.0278 33.8597 32.8169C33.8568 32.725 33.8711 32.7655 33.8133 32.6919C33.5976 32.5879 33.0654 32.7286 32.8145 32.7764C33.0551 31.4882 33.1249 30.7238 33.1254 29.3968C33.3255 29.4946 33.8119 29.8664 33.9909 29.7231C34.1401 29.3485 33.1811 29.1464 33.1232 28.9198C33.3165 28.7719 34.0637 29.0128 34.1825 28.7598C34.1346 28.502 33.4591 28.5653 33.2379 28.5613C33.4512 28.4156 33.9587 28.1542 33.9906 27.8912L33.9613 27.8607C33.7181 27.8029 33.2737 28.0895 33.0382 28.2159C32.9444 27.2245 32.7088 26.2706 32.4408 25.3164C32.6786 25.3352 33.203 25.4178 33.377 25.2816C33.4179 25.1983 33.4096 25.2414 33.401 25.1473C33.2701 24.9707 32.556 24.9298 32.2987 24.8827C32.4831 24.6901 33.112 24.1347 33.0337 23.8775C32.8342 23.652 32.2951 24.2915 32.1399 24.4461C31.9433 24.0048 31.7359 23.5219 31.5084 23.0964C30.6962 21.5788 29.5831 20.1417 28.1918 19.1127C27.9021 18.8986 27.5541 18.6965 27.2451 18.5133Z" fill="#287271"/>
<path d="M22.7338 18.518L22.7674 18.519C22.7545 18.5545 22.3428 18.7742 22.2712 18.8214C20.4517 20.0209 19.0298 21.8479 18.1578 23.833C18.0671 24.0395 17.9912 24.2453 17.8939 24.4482C17.7294 24.2888 17.2474 23.7281 17.016 23.8485C16.9313 23.9919 16.991 24.0864 17.0897 24.2025C17.2844 24.4318 17.5035 24.6594 17.7073 24.8806C17.4746 24.916 16.7311 24.967 16.6481 25.1938C16.6971 25.4702 17.3735 25.3224 17.5957 25.2952C17.2837 26.2207 17.1191 27.2531 16.9766 28.2164C16.7803 28.1053 16.4126 27.8748 16.1874 27.8251C16.1267 27.8118 16.0907 27.8551 16.0499 27.8906C15.9718 28.1422 16.5613 28.4333 16.7504 28.5375C16.527 28.5528 15.9561 28.5559 15.8178 28.7284C15.8077 28.803 15.8012 28.7687 15.8393 28.8346C16.0875 28.9743 16.7968 28.7808 16.8847 28.9058C16.8177 29.1393 15.9506 29.33 16.0151 29.6975C16.1902 29.8779 16.7214 29.4833 16.9074 29.3719C16.9119 30.5259 16.9634 31.6601 17.2183 32.7906C16.9614 32.7363 16.3799 32.5568 16.1772 32.7149C16.1344 32.8051 16.1385 32.7606 16.1525 32.8505C16.279 33.0119 17.0802 33.179 17.3232 33.24C17.1253 33.4073 16.5276 33.7991 16.5166 34.0341C16.5643 34.1207 16.5305 34.0909 16.62 34.1281C16.8828 34.1112 17.2118 33.8129 17.4245 33.6461C17.5138 33.9338 17.605 34.2209 17.6979 34.5073C18.136 35.8153 18.7792 37.045 19.6036 38.1509C19.0925 38.154 18.5814 38.1538 18.0702 38.1504C17.6933 37.7808 17.3101 37.4039 16.9665 37.0033C15.7852 35.616 14.9333 33.9793 14.4744 32.2162C13.7302 29.4616 14.1189 26.5237 15.5538 24.0575C17.1609 21.29 19.6314 19.3436 22.7338 18.518Z" fill="#78A79F"/>
<path d="M36.6388 12.2292C36.8838 12.4905 37.1306 12.8993 37.2656 13.2291C38.034 15.1057 37.9169 17.0418 37.1766 18.8873C36.5624 20.4184 35.5879 21.5801 34.2156 22.483C34.0283 22.2696 33.869 22.065 33.6948 21.841L33.3037 21.3911C33.8645 20.9271 34.234 20.3891 34.5953 19.7712C34.8721 19.6939 35.4927 19.5208 35.6015 19.2276C35.5427 19.0328 34.9695 19.2343 34.8221 19.2775C35.0454 18.7268 35.273 17.9803 35.3215 17.3975C35.5239 17.2445 36.1897 16.8038 36.1666 16.5473C36.1133 16.4704 36.1473 16.496 36.0626 16.4644C35.8371 16.4806 35.571 16.7213 35.3918 16.863C35.4687 16.3033 35.4929 15.4893 35.6169 14.939C35.655 14.7702 36.1535 14.5161 36.1928 14.2641C36.1592 14.1717 36.1873 14.2057 36.113 14.1527C35.9602 14.141 35.8478 14.2423 35.7217 14.3301C35.9143 13.5566 36.1511 12.8754 36.6388 12.2292Z" fill="#78A79F"/>
<path d="M33.6948 21.841C34.8897 21.3315 35.723 20.8102 36.5366 19.7693C36.7347 19.5158 36.9673 19.0844 37.1766 18.8873C36.5624 20.4184 35.5879 21.5801 34.2156 22.483C34.0283 22.2696 33.869 22.065 33.6948 21.841Z" fill="#287271"/>
<path d="M15.8206 22.4813C15.3984 22.2007 15.0975 21.9951 14.7176 21.6409C13.19 20.2008 12.299 18.2114 12.242 16.1128C12.2022 14.8369 12.4944 13.188 13.3927 12.2338C13.8348 12.7563 14.1538 13.6514 14.305 14.3206C14.175 14.2321 14.0245 14.1008 13.8703 14.1665C13.7179 14.3864 14.2248 14.6898 14.38 14.8528L14.401 14.8753C14.514 15.2934 14.5664 16.3715 14.6247 16.8727C14.4477 16.7177 14.1148 16.3669 13.8826 16.4951C13.8647 16.531 13.8412 16.56 13.8498 16.5936C13.9107 16.8337 14.4922 17.2457 14.6813 17.3925C14.7494 18.0816 14.9256 18.6271 15.135 19.2745C14.9469 19.2072 14.634 19.0674 14.4552 19.1927C14.359 19.4618 14.9318 19.5998 15.1107 19.6578C15.1944 19.6857 15.2804 19.717 15.3655 19.7384C15.7294 20.31 16.187 20.9743 16.729 21.3929L16.0942 22.1428C16.0067 22.2586 15.9131 22.3695 15.8206 22.4813Z" fill="#78A79F"/>
<path d="M15.1107 19.6578C15.1944 19.6857 15.2804 19.717 15.3655 19.7384C15.7294 20.31 16.187 20.9743 16.729 21.3929L16.0942 22.1428C15.5318 21.4468 15.1979 20.5446 15.1107 19.6578Z" fill="#287271"/>
<path d="M37.2839 12.1977C39.9473 12.9442 40.5708 16.1184 39.8688 18.4657C39.1961 20.7143 37.7891 22.3616 35.7548 23.4922C35.5356 23.6141 35.3125 23.7288 35.0857 23.836C34.9043 23.5409 34.7193 23.2307 34.5256 22.945C34.8479 22.7301 35.1228 22.5139 35.4322 22.2823C35.7005 22.3396 36.5491 22.422 36.7093 22.1496C36.6672 21.9141 35.98 21.9437 35.7864 21.9361C36.3665 21.3864 36.8052 20.8227 37.2259 20.1453C37.4777 20.0626 38.4146 19.9213 38.3487 19.5983C38.203 19.432 37.6696 19.6128 37.456 19.6641C37.7638 18.9762 37.9312 18.5278 38.1149 17.7951C38.3032 17.8911 38.6434 18.0933 38.8452 18.0072C38.9145 17.7984 38.4072 17.5265 38.2489 17.4275C38.5013 17.2543 39.0428 16.944 39.1559 16.6916C39.1554 16.5968 39.1678 16.6386 39.123 16.5599C38.9128 16.4643 38.4765 16.8271 38.2842 16.9573C38.332 16.3427 38.3463 15.9716 38.3358 15.3567C38.5129 15.1368 38.9302 14.453 38.7529 14.1847C38.5453 14.141 38.3432 14.6125 38.2592 14.7736C38.2373 14.6632 38.2009 14.5095 38.1959 14.4007C38.0447 13.6512 37.8543 13.1446 37.4953 12.4783C37.4222 12.374 37.3668 12.2968 37.2839 12.1977Z" fill="#287271"/>
<path d="M37.4953 12.4783C37.721 12.461 37.8537 12.8549 37.9685 13.0234C38.2372 13.4188 38.2843 13.9197 38.251 14.3889C38.2098 14.4083 38.2287 14.4085 38.1959 14.4007C38.0447 13.6512 37.8543 13.1446 37.4953 12.4783Z" fill="#78A79F"/>
<path d="M12.7051 12.207C12.7241 12.2112 12.7129 12.2066 12.7329 12.2303C12.0932 12.9448 11.9134 13.864 11.7543 14.7747C11.6611 14.612 11.4319 14.1441 11.2275 14.1787C11.0272 14.4208 11.5302 15.1478 11.6818 15.3478C11.667 15.8868 11.6898 16.4263 11.75 16.9621C11.5587 16.8385 11.1543 16.4525 10.9278 16.5381C10.839 16.6853 10.9189 16.7744 11.0316 16.8758C11.2598 17.0813 11.5317 17.2561 11.7762 17.4425C11.6431 17.5257 11.002 17.8802 11.2124 18.0573C11.4414 18.0919 11.6946 17.9256 11.8906 17.8147C12.106 18.5561 12.2385 18.9828 12.5705 19.6838C12.3604 19.6213 11.8364 19.4202 11.6731 19.5847C11.6483 19.6743 11.6475 19.6316 11.6698 19.7175C11.8113 19.8969 12.5576 20.0793 12.786 20.1459C13.3264 20.8881 13.5439 21.2971 14.2509 21.9568C14.0167 21.9493 13.5516 21.917 13.3854 22.0707C13.3529 22.1551 13.3578 22.1124 13.3732 22.2039C13.4155 22.2637 13.4463 22.2678 13.5146 22.2947C13.8498 22.357 14.2459 22.36 14.5775 22.2755C14.8792 22.5089 15.1896 22.7307 15.5081 22.9406C15.3165 23.1981 15.1157 23.5601 14.9293 23.8411C14.6061 23.6765 14.2916 23.5218 13.9808 23.3347C12.2244 22.2779 10.9048 20.6956 10.2485 18.7482C9.75978 17.2979 9.71174 15.6075 10.4215 14.2202C10.9372 13.2123 11.6311 12.5629 12.7051 12.207Z" fill="#287271"/>
<path d="M14.0902 12.2782L14.0326 12.2115L14.0446 12.1872C14.5094 12.1826 15.3533 12.6668 15.6796 13.0086C16.5692 13.9405 16.965 14.9566 16.9384 16.2346C16.9035 17.9153 16.9297 18.8684 18.1421 20.106C17.7908 20.3958 17.4473 20.695 17.1121 21.0032C16.7267 20.6569 16.2651 20.1725 16.0028 19.7238C16.1033 19.4439 16.3628 18.759 16.2857 18.4938C16.2111 18.4267 16.2533 18.4487 16.1531 18.4276C15.9219 18.4855 15.8025 18.9938 15.7311 19.2083C15.4211 18.5757 15.3481 18.0611 15.2177 17.3991C15.352 17.2303 16.0175 16.3665 15.7913 16.1491C15.525 16.152 15.2866 16.6506 15.1387 16.8474C15.0964 16.2446 15.0274 15.6186 14.9698 15.0152C15.0717 14.8446 15.1794 14.6559 15.2499 14.47C15.3274 14.2659 15.4887 13.934 15.149 13.9107C15.0291 14.0927 14.9426 14.2689 14.8436 14.4621C14.7184 13.6966 14.4636 12.9581 14.0902 12.2782Z" fill="#287271"/>
<path d="M14.0902 12.2782C14.7067 12.3824 15.147 13.3334 15.149 13.9107C15.0291 14.0927 14.9426 14.2689 14.8436 14.4621C14.7184 13.6966 14.4636 12.9581 14.0902 12.2782Z" fill="#78A79F"/>
<path d="M35.6975 12.2376C35.8225 12.1964 35.8832 12.1828 36.0132 12.1592C35.5159 12.8987 35.3595 13.6071 35.195 14.4647C35.1065 14.2864 34.9803 13.9937 34.7923 13.9094C34.4786 13.9732 34.9584 14.8692 35.0594 15.0131C34.9958 15.6245 34.9356 16.2362 34.8792 16.8483C34.7494 16.6552 34.5055 16.2226 34.2912 16.1751C34.2029 16.2004 34.2393 16.1773 34.1789 16.2488C34.141 16.5476 34.6002 17.1422 34.793 17.3939C34.6804 18.0106 34.545 18.5904 34.2698 19.1622C34.2167 18.9964 34.0449 18.3596 33.814 18.41C33.5992 18.6417 33.8897 19.464 34.0141 19.7138C33.6876 20.1964 33.3648 20.6286 32.9035 20.9913C32.763 20.8571 32.0741 20.2325 31.9351 20.1633L31.9142 20.1268C31.9063 20.1575 32.4769 19.3851 32.5262 19.3128C33.6495 17.6616 32.609 15.7981 33.5464 14.0905C34.0703 13.136 34.658 12.5616 35.6975 12.2376Z" fill="#78A79F"/>
<path d="M31.9351 20.1633L31.9142 20.1268C31.9063 20.1575 32.4769 19.3851 32.5262 19.3128C33.6495 17.6616 32.609 15.7981 33.5464 14.0905C34.0703 13.136 34.658 12.5616 35.6975 12.2376C35.6597 12.4273 35.4071 12.506 35.2627 12.635C34.4236 13.3848 33.862 14.4571 33.64 15.5553C33.4352 16.5667 33.514 17.6435 33.1444 18.6201C32.9911 19.0246 32.4222 20.1563 31.9351 20.1633Z" fill="#78A79F"/>
<path d="M12.5347 35.6835C12.5769 35.7047 12.6092 35.7249 12.6382 35.7628C13.0737 36.3338 13.1563 36.9827 13.0965 37.6587C13.0461 37.618 13.0018 37.549 12.9627 37.4978C12.609 37.0325 12.4366 36.2624 12.5347 35.6835Z" fill="#78A79F"/>
<path d="M37.4444 35.6695C37.4687 35.6978 37.4908 35.7376 37.4956 35.774C37.5901 36.481 37.3373 37.0737 36.9595 37.6245C36.9174 37.5829 36.9138 37.4791 36.9107 37.4188C36.8834 36.8887 37.0959 36.0699 37.4444 35.6695Z" fill="#78A79F"/>
<path d="M38.7535 37.0091C38.7819 37.0172 38.7635 37.0098 38.8016 37.0432C38.7645 37.3805 38.4231 37.6704 38.1577 37.8518C37.9026 38.0263 37.6797 38.0989 37.3722 38.1136L37.342 38.1158L37.3298 38.0896C37.7271 37.5666 38.1351 37.2212 38.7535 37.0091Z" fill="#E76F51"/>
<path d="M11.203 36.9823C11.7704 37.0911 12.3641 37.6769 12.7113 38.1092C12.0677 38.1049 11.3341 37.6341 11.203 36.9823Z" fill="#E76F51"/>
<path d="M14.4281 36.4553L14.4546 36.4827C14.5771 37.0509 14.0859 37.6674 13.658 37.9854C13.6403 37.9664 13.6364 37.9457 13.6408 37.9178C13.7149 37.456 14.0807 36.7448 14.4281 36.4553Z" fill="#E76F51"/>
<path d="M35.5512 36.4716C35.9646 36.6723 36.3003 37.5714 36.396 37.996C35.8487 37.7385 35.5464 37.0536 35.5512 36.4716Z" fill="#E76F51"/>
<path d="M38.7926 9.5511C39.6859 9.59105 40.6223 10.0465 41.1547 10.5853C41.8261 11.2649 42.5288 12.4439 42.0804 13.3613C42.5102 13.4644 42.8355 13.7026 43.0749 14.0771C43.2845 14.4052 43.4069 14.8722 43.3069 15.2453C43.4347 15.482 43.5256 16.0132 43.6241 16.2632C43.6241 17.0707 43.6275 18.2464 42.1166 18.574C42.4712 18.871 42.6155 19.281 42.7788 19.6967C43.0757 20.5221 42.7782 21.2992 41.9778 21.9259C41.5388 22.2696 41.1154 22.5694 40.5263 22.5508C40.8972 23.5868 39.6022 25.2369 38.5851 25.4924C39.3406 26.5003 39.6171 29.1389 38.4382 29.8843C39.6403 30.771 38.9522 32.6675 38.5431 33.7411C39.012 34.0145 39.3326 34.4611 39.498 34.9245C40.2893 35.1426 40.8703 35.8182 40.9822 36.6255C41.3613 36.603 41.7478 36.5987 42.1189 36.6897C42.4293 36.7656 43.0469 37.2071 43.244 37.5699C43.9705 38.9076 42.9131 40.2492 41.5534 40.2911C36.1224 40.4576 30.6827 40.4422 25.2426 40.3949V40.4124C19.641 40.463 14.0399 40.4812 8.44782 40.3098C7.08793 40.268 6.03051 38.9264 6.75727 37.5886C6.95448 37.226 7.57072 36.7845 7.88119 36.7083C8.25248 36.6173 8.63983 36.6216 9.01911 36.6442C9.13102 35.8369 9.71188 35.1611 10.5033 34.9432C10.6688 34.4797 10.9892 34.0331 11.4582 33.7598C11.0491 32.6862 10.3604 30.7909 11.5619 29.9042C10.3831 29.1585 10.6606 26.5188 11.4162 25.5111C10.399 25.2557 9.1029 23.6056 9.47381 22.5695C8.88466 22.5879 8.46132 22.2883 8.02227 21.9446C7.22203 21.3179 6.92554 20.5407 7.22246 19.7154C7.38563 19.3 7.52938 18.8907 7.88353 18.5938C6.37319 18.2661 6.37602 17.0904 6.37602 16.283C6.47459 16.0333 6.56534 15.5008 6.69315 15.264C6.59348 14.8909 6.71567 14.4237 6.92516 14.0958C7.16456 13.7212 7.48991 13.483 7.91967 13.3799C7.47181 12.4626 8.17412 11.2835 8.84539 10.6039C9.37781 10.0651 10.3152 9.61085 11.2087 9.57092C11.7636 9.61095 11.891 9.87169 12.1542 10.155C13.4316 9.81438 14.818 9.98293 15.9772 10.6167C16.6505 10.1782 17.3127 10.2718 18.0303 10.6494C18.3267 10.8512 18.2842 11.0192 18.3871 11.2172C18.5967 11.2775 18.8749 11.5584 19.012 11.7337C19.6134 12.503 20.065 13.9678 19.4457 14.7895C19.7441 15.0283 19.9661 15.3734 20.094 15.7747C20.6624 15.4104 22.0716 15.2481 22.6671 15.5741C23.1187 15.0004 23.9857 14.8174 24.7587 14.7662V14.7615C24.7888 14.7577 24.8186 14.7562 24.8473 14.7522C24.9586 14.7479 25.0721 14.7462 25.1866 14.7475H25.2426C26.0267 14.7641 26.849 14.9406 27.333 15.5555C27.9283 15.2294 29.3374 15.3918 29.9061 15.756C30.034 15.3544 30.2569 15.0086 30.5555 14.7697C29.9362 13.9479 30.3877 12.483 30.9893 11.7138C31.1264 11.5385 31.4046 11.2587 31.6142 11.1985C31.717 11.0006 31.6746 10.8326 31.9709 10.6307C32.6885 10.2533 33.3509 10.1584 34.0241 10.5969C35.1833 9.96313 36.5696 9.79562 37.8471 10.1364C38.1103 9.85296 38.2373 9.59103 38.7926 9.5511ZM39.0344 11.1169C38.8004 11.2244 38.7081 11.8963 38.6331 12.1495C37.073 11.0965 34.9204 11.3374 33.7029 12.7972C33.5999 12.5764 33.3452 11.7108 32.9904 11.8574C32.7805 12.1814 33.2422 12.8539 33.3637 13.1554C33.0903 13.0212 32.5694 12.5108 32.2501 12.6016C31.9201 12.8893 32.9238 13.4295 33.1028 13.5813C32.8364 13.5715 32.0064 13.5026 31.7829 13.6856C31.4433 13.9647 32.8447 14.015 32.8852 14.0182C32.5355 14.8663 32.4715 15.4606 32.4848 16.3596C32.2294 16.2164 31.7624 15.9262 31.4787 15.9814C31.1105 16.2664 32.3054 16.7499 32.4806 16.8586C32.1868 16.9258 31.3892 16.9898 31.3073 17.3584C31.4598 17.5568 32.2634 17.345 32.501 17.2933C32.3727 18.316 32.1702 19.0099 31.3618 19.713C30.7294 19.3011 30.0897 18.923 29.4037 18.6043C29.6001 18.3795 30.083 17.9794 30.1102 17.7338C29.9614 17.3426 29.0787 18.2615 28.9264 18.386C29.0054 18.144 29.4403 17.2675 29.1349 17.0713C28.7832 17.0969 28.6087 17.9327 28.4963 18.2109C28.4758 17.949 28.3597 16.9273 28.0702 16.8876C27.8336 17.0088 27.9767 17.8297 28.0036 18.0777C27.1804 17.8312 26.5553 17.705 25.6894 17.6531C25.8076 17.4398 26.387 16.6841 26.0924 16.4547C25.7281 16.4045 25.4089 17.3073 25.2349 17.5504C25.2345 17.5363 25.2364 17.5189 25.2367 17.499C25.2307 17.5105 25.226 17.5212 25.2204 17.5293C25.2082 17.3685 25.2456 17.0712 25.2332 16.8053C25.2228 16.6736 25.2031 16.5494 25.1656 16.4544C25.133 16.3837 25.0875 16.3278 25.0222 16.2958C24.8438 16.3096 24.7819 16.5733 24.7634 16.8613C24.7601 17.1065 24.7909 17.3645 24.7798 17.5103C24.7742 17.5022 24.7695 17.4918 24.7634 17.4804C24.7643 17.5165 24.7664 17.5465 24.7657 17.569C24.5917 17.3258 24.2719 16.4237 23.9076 16.4742C23.614 16.7043 24.1934 17.4602 24.311 17.6727C23.4454 17.7246 22.8206 17.8508 21.9979 18.0971C22.0248 17.8489 22.1666 17.0281 21.9302 16.9067C21.6411 16.9474 21.5252 17.9682 21.5047 18.23C21.3923 17.952 21.2173 17.1158 20.8658 17.0898C20.5603 17.2859 20.9955 18.1628 21.0745 18.4049C20.9223 18.2805 20.0405 17.3621 19.8911 17.752C19.9182 17.9975 20.3998 18.398 20.5965 18.6229C19.9107 18.9415 19.271 19.32 18.6389 19.7317C17.8308 19.0288 17.6281 18.335 17.4998 17.3125C17.738 17.3643 18.5419 17.5767 18.6937 17.3778C18.6118 17.009 17.813 16.9449 17.5197 16.8776C17.6937 16.7693 18.8896 16.286 18.5223 16.0008C18.2387 15.9457 17.7717 16.2353 17.5162 16.3786C17.5295 15.4796 17.4647 14.8855 17.1151 14.0375C17.1556 14.0343 18.5564 13.9841 18.218 13.7052C17.9946 13.5223 17.1651 13.5904 16.8982 13.6003C17.077 13.4486 18.0806 12.9086 17.7505 12.6209C17.4313 12.5302 16.9105 13.0403 16.6371 13.1747C16.7585 12.8733 17.2198 12.2012 17.0102 11.8771C16.6554 11.7306 16.4008 12.5962 16.2978 12.8168C15.0802 11.3566 12.9275 11.1152 11.3672 12.1685C11.2923 11.9152 11.2001 11.2431 10.9662 11.1356C10.575 11.1843 10.9145 12.2647 10.9475 12.4903C10.8106 12.3697 10.0646 11.3712 9.90169 11.7372C9.9104 12.0072 10.3911 12.5647 10.5674 12.8471C10.2855 12.7828 9.5002 12.3334 9.27327 12.6197C9.2371 12.9161 10.0226 13.1518 10.262 13.2458C9.75313 13.9406 9.54155 14.5347 9.35139 15.3596C9.18575 15.2574 8.28423 14.5689 8.19365 14.9807C8.29807 15.3726 8.95793 15.5898 9.24879 15.8225C8.99076 15.8191 8.12031 15.7612 8.02343 16.0067C8.11707 16.2369 9.0077 16.2705 9.25112 16.283C9.02287 16.3865 8.12948 16.7345 8.0724 16.979C8.18224 17.3316 9.03527 16.8495 9.24296 16.768C9.30509 17.9814 9.45662 18.5251 9.88071 19.6513C9.65074 19.6472 8.91311 19.579 8.81624 19.825C8.90548 20.1918 9.84521 20.1008 10.1174 20.1211C9.93341 20.3126 9.18928 20.6956 9.30475 21.013C9.5231 21.1837 10.1273 20.6873 10.3354 20.5408C10.8214 21.3799 11.1912 21.8351 11.8697 22.5135C11.6884 22.5917 10.6648 22.9208 10.9848 23.2142C11.1873 23.2873 12.0037 22.9454 12.2696 22.8575C12.1209 23.1345 11.6724 23.7197 11.7088 23.9767C11.9366 24.2829 12.5046 23.351 12.6381 23.2142C12.6376 23.3815 12.4635 24.6959 12.8631 24.5399C13.0392 24.3412 13.0577 23.7586 13.0729 23.4929C13.6239 23.8768 14.0263 24.0788 14.6177 24.3708C14.2074 25.2989 13.979 25.9161 13.7188 26.895C13.5525 26.786 12.7356 26.1158 12.6112 26.4892C12.6634 26.7463 13.3621 27.1948 13.6011 27.3672C13.4088 27.3534 12.2652 27.1773 12.3676 27.5572C12.5345 27.7298 13.3221 27.8019 13.6022 27.8417C13.3014 27.9623 12.3556 28.1424 12.3023 28.5261C12.4394 28.8615 13.2867 28.4162 13.4973 28.3407C13.4055 29.4255 13.4797 30.2241 13.5999 31.2986C13.3484 31.2266 12.6228 30.9539 12.441 31.1517C12.3722 31.5405 13.4386 31.7002 13.6897 31.7941C13.3798 31.8742 12.5821 31.9145 12.4795 32.2569C12.6122 32.5032 13.5534 32.2876 13.8098 32.2488C13.6936 32.3555 12.5934 33.0553 12.9435 33.2619C13.2235 33.2741 13.7021 32.9096 13.931 32.7466C14.4607 34.7295 15.7005 36.7267 17.1454 38.1704C16.2265 38.1765 15.307 38.1763 14.3881 38.1704C14.8376 37.7881 15.6553 35.6445 14.4382 35.7943C14.0852 35.8379 13.7996 36.1807 13.5871 36.4425C13.1765 34.5249 11.4954 34.4947 11.9269 36.629C10.3619 35.82 10.0597 37.2191 11.2425 38.1669C10.385 38.1844 9.2552 38.2852 8.19715 38.2077C7.98989 38.3254 8.01212 38.6839 8.23563 38.7696C13.6762 38.4701 19.2081 38.4685 24.7587 38.5446V38.5329C30.4713 38.4502 36.1664 38.4424 41.7647 38.7507C41.9883 38.665 42.0113 38.3056 41.8041 38.1878C40.7459 38.2654 39.6151 38.165 38.7576 38.1475C39.9406 37.1996 39.6388 35.8009 38.0735 36.6105C38.5053 34.4755 36.8243 34.5053 36.4136 36.4231C36.2011 36.1613 35.9157 35.819 35.5627 35.7754C34.3446 35.6251 35.1634 37.7703 35.6129 38.1518C34.6938 38.1577 33.775 38.1577 32.8559 38.1515C34.3008 36.7078 35.5403 34.7112 36.0699 32.7283C36.2989 32.8914 36.7774 33.2561 37.0573 33.2437C37.4068 33.0368 36.3072 32.3363 36.1911 32.2296C36.4474 32.2684 37.387 32.4832 37.5208 32.2377C37.4181 31.8953 36.6206 31.8546 36.3108 31.7745C36.562 31.6806 37.6293 31.5215 37.5593 31.1323C37.3777 30.9342 36.6519 31.208 36.4006 31.2799C36.5208 30.2051 36.5953 29.4065 36.5034 28.3215C36.7139 28.3971 37.5602 28.842 37.6979 28.5072C37.6446 28.1235 36.6997 27.9428 36.3989 27.8221C36.6791 27.7824 37.4655 27.7107 37.6324 27.5382C37.7354 27.1579 36.5924 27.3347 36.4001 27.3484C36.6391 27.1761 37.337 26.7274 37.3891 26.4703C37.2647 26.0969 36.4486 26.7667 36.2822 26.8757C36.0221 25.8967 35.7936 25.2797 35.3832 24.3515C35.9747 24.0594 36.3768 23.8578 36.9278 23.4738C36.943 23.7396 36.9618 24.3224 37.1382 24.5207C37.5376 24.6767 37.3636 23.3636 37.3629 23.1952C37.4967 23.3326 38.0641 24.2644 38.2918 23.9584C38.3291 23.7017 37.8795 23.1155 37.7307 22.8383C37.9964 22.926 38.8128 23.2686 39.0154 23.1956C39.3361 22.902 38.3115 22.5731 38.1304 22.495C38.8093 21.8163 39.1792 21.3614 39.6652 20.5221C39.8733 20.6686 40.4774 21.1651 40.6957 20.9942C40.8115 20.6769 40.0674 20.2943 39.883 20.1027C40.1559 20.0825 41.0957 20.1729 41.1844 19.806C41.0877 19.5595 40.3489 19.6282 40.1194 19.6322C40.5436 18.5058 40.6955 17.9627 40.7576 16.749C40.965 16.8303 41.8181 17.3123 41.9282 16.9601C41.8714 16.7156 40.978 16.3673 40.7497 16.2637C40.9932 16.2513 41.884 16.2178 41.9771 15.9873C41.8802 15.7418 41.0101 15.7997 40.7521 15.8031C41.0431 15.5706 41.7025 15.353 41.8071 14.9614C41.7165 14.5495 40.8154 15.2387 40.6498 15.341C40.4596 14.5158 40.2479 13.9221 39.739 13.2272C39.9783 13.1332 40.7643 12.897 40.7274 12.6003C40.5002 12.3141 39.7144 12.7634 39.4329 12.8274C39.6093 12.5449 40.0906 11.9883 40.0992 11.7182C39.9364 11.3512 39.1892 12.3522 39.053 12.4717C39.0856 12.2472 39.4252 11.1664 39.0344 11.1169ZM24.7587 16.9965C24.7568 17.0779 24.7571 17.1585 24.7587 17.2332V16.9965Z" fill="#E8E7E7"/>
<path d="M43.6241 16.2632C43.5256 16.0132 43.4347 15.482 43.3069 15.2453C43.4069 14.8722 43.2845 14.4052 43.0749 14.0771C42.8355 13.7026 42.5102 13.4644 42.0804 13.3613C42.5288 12.4439 41.8261 11.2649 41.1547 10.5853C40.6223 10.0465 39.6859 9.59105 38.7926 9.5511C38.2373 9.59103 38.1103 9.85296 37.8471 10.1364C36.5696 9.79562 35.1833 9.96313 34.0241 10.5969C33.3509 10.1584 32.6885 10.2533 31.9709 10.6307C31.6746 10.8326 31.717 11.0006 31.6142 11.1985C31.4046 11.2587 31.1264 11.5385 30.9893 11.7138C30.3877 12.483 29.9362 13.9479 30.5555 14.7697C30.2569 15.0086 30.034 15.3544 29.9061 15.756C29.3374 15.3918 27.9283 15.2294 27.333 15.5555C26.849 14.9406 26.0267 14.7641 25.2426 14.7475H25.1866C25.0721 14.7462 24.9586 14.7479 24.8473 14.7522C24.8186 14.7562 24.7888 14.7577 24.7587 14.7615V14.7662C23.9857 14.8174 23.1187 15.0004 22.6671 15.5741C22.0716 15.2481 20.6624 15.4104 20.094 15.7747C19.9661 15.3734 19.7441 15.0283 19.4457 14.7895C20.065 13.9678 19.6134 12.503 19.012 11.7337C18.8749 11.5584 18.5967 11.2775 18.3871 11.2172C18.2842 11.0192 18.3267 10.8512 18.0303 10.6494C17.3127 10.2718 16.6505 10.1782 15.9772 10.6167C14.818 9.98293 13.4316 9.81438 12.1542 10.155C11.891 9.87169 11.7636 9.61095 11.2087 9.57092C10.3152 9.61085 9.37781 10.0651 8.84539 10.6039C8.17412 11.2835 7.47181 12.4626 7.91967 13.3799C7.48991 13.483 7.16456 13.7212 6.92516 14.0958C6.71567 14.4237 6.59348 14.8909 6.69315 15.264C6.56534 15.5008 6.47459 16.0333 6.37602 16.283C6.37602 17.0904 6.37319 18.2661 7.88353 18.5938C7.52938 18.8907 7.38563 19.3 7.22246 19.7154C6.92554 20.5407 7.22203 21.3179 8.02227 21.9446C8.46132 22.2883 8.88466 22.5879 9.47381 22.5695C9.1029 23.6056 10.399 25.2557 11.4162 25.5111C10.6606 26.5188 10.3831 29.1585 11.5619 29.9042C10.3604 30.7909 11.0491 32.6862 11.4582 33.7598C10.9892 34.0331 10.6688 34.4797 10.5033 34.9432C9.71188 35.1611 9.13102 35.8369 9.01911 36.6442C8.63983 36.6216 8.25248 36.6173 7.88119 36.7083C7.57072 36.7845 6.95448 37.226 6.75727 37.5886C6.03051 38.9264 7.08793 40.268 8.44782 40.3098C14.0399 40.4812 19.641 40.463 25.2426 40.4124V40.3949C30.6827 40.4422 36.1224 40.4576 41.5534 40.2911C42.9131 40.2492 43.9705 38.9076 43.244 37.5699C43.0469 37.2071 42.4293 36.7656 42.1189 36.6897C41.7478 36.5987 41.3613 36.603 40.9822 36.6255C40.8703 35.8182 40.2893 35.1426 39.498 34.9245C39.3326 34.4611 39.012 34.0145 38.5431 33.7411C38.9522 32.6675 39.6403 30.771 38.4382 29.8843C39.6171 29.1389 39.3406 26.5003 38.5851 25.4924C39.6022 25.2369 40.8972 23.5868 40.5263 22.5508C41.1154 22.5694 41.5388 22.2696 41.9778 21.9259C42.7782 21.2992 43.0757 20.5221 42.7788 19.6967C42.6155 19.281 42.4712 18.871 42.1166 18.574C43.6275 18.2464 43.6241 17.0707 43.6241 16.2632ZM39.0344 11.1169C39.4252 11.1664 39.0856 12.2472 39.053 12.4717C39.1892 12.3522 39.9364 11.3512 40.0992 11.7182C40.0906 11.9883 39.6093 12.5449 39.4329 12.8274C39.7144 12.7634 40.5002 12.3141 40.7274 12.6003C40.7643 12.897 39.9783 13.1332 39.739 13.2272C40.2479 13.9221 40.4596 14.5158 40.6498 15.341C40.8154 15.2387 41.7165 14.5495 41.8071 14.9614C41.7025 15.353 41.0431 15.5706 40.7521 15.8031C41.0101 15.7997 41.8802 15.7418 41.9771 15.9873C41.884 16.2178 40.9932 16.2513 40.7497 16.2637C40.978 16.3673 41.8714 16.7156 41.9282 16.9601C41.8181 17.3123 40.965 16.8303 40.7576 16.749C40.6955 17.9627 40.5436 18.5058 40.1194 19.6322C40.3489 19.6282 41.0877 19.5595 41.1844 19.806C41.0957 20.1729 40.1559 20.0825 39.883 20.1027C40.0674 20.2943 40.8115 20.6769 40.6957 20.9942C40.4774 21.1651 39.8733 20.6686 39.6652 20.5221C39.1792 21.3614 38.8093 21.8163 38.1304 22.495C38.3115 22.5731 39.3361 22.902 39.0154 23.1956C38.8128 23.2686 37.9964 22.926 37.7307 22.8383C37.8795 23.1155 38.3291 23.7017 38.2918 23.9584C38.0641 24.2644 37.4967 23.3326 37.3629 23.1952C37.3636 23.3636 37.5376 24.6767 37.1382 24.5207C36.9618 24.3224 36.943 23.7396 36.9278 23.4738C36.3768 23.8578 35.9747 24.0594 35.3832 24.3515C35.7936 25.2797 36.0221 25.8967 36.2822 26.8757C36.4486 26.7667 37.2647 26.0969 37.3891 26.4703C37.337 26.7274 36.6391 27.1761 36.4001 27.3484C36.5924 27.3347 37.7354 27.1579 37.6324 27.5382C37.4655 27.7107 36.6791 27.7824 36.3989 27.8221C36.6997 27.9428 37.6446 28.1235 37.6979 28.5072C37.5602 28.842 36.7139 28.3971 36.5034 28.3215C36.5953 29.4065 36.5208 30.2051 36.4006 31.2799C36.6519 31.208 37.3777 30.9342 37.5593 31.1323C37.6293 31.5215 36.562 31.6806 36.3108 31.7745C36.6206 31.8546 37.4181 31.8953 37.5208 32.2377C37.387 32.4832 36.4474 32.2684 36.1911 32.2296C36.3072 32.3363 37.4068 33.0368 37.0573 33.2437C36.7774 33.2561 36.2989 32.8914 36.0699 32.7283C35.5403 34.7112 34.3008 36.7078 32.8559 38.1515C33.775 38.1577 34.6938 38.1577 35.6129 38.1518C35.1634 37.7703 34.3446 35.6251 35.5627 35.7754C35.9157 35.819 36.2011 36.1613 36.4136 36.4231C36.8243 34.5053 38.5053 34.4755 38.0735 36.6105C39.6388 35.8009 39.9406 37.1996 38.7576 38.1475C39.6151 38.165 40.7459 38.2654 41.8041 38.1878C42.0113 38.3056 41.9883 38.665 41.7647 38.7507C36.1664 38.4424 30.4713 38.4502 24.7587 38.5329V38.5446C19.2081 38.4685 13.6762 38.4701 8.23563 38.7696C8.01212 38.6839 7.98989 38.3254 8.19715 38.2077C9.2552 38.2852 10.385 38.1844 11.2425 38.1669C10.0597 37.2191 10.3619 35.82 11.9269 36.629C11.4954 34.4947 13.1765 34.5249 13.5871 36.4425C13.7996 36.1807 14.0852 35.8379 14.4382 35.7943C15.6553 35.6445 14.8376 37.7881 14.3881 38.1704C15.307 38.1763 16.2265 38.1765 17.1454 38.1704C15.7005 36.7267 14.4607 34.7295 13.931 32.7466C13.7021 32.9096 13.2235 33.2741 12.9435 33.2619C12.5934 33.0553 13.6936 32.3555 13.8098 32.2488C13.5534 32.2876 12.6122 32.5032 12.4795 32.2569C12.5821 31.9145 13.3798 31.8742 13.6897 31.7941C13.4386 31.7002 12.3722 31.5405 12.441 31.1517C12.6228 30.9539 13.3484 31.2266 13.5999 31.2986C13.4797 30.2241 13.4055 29.4255 13.4973 28.3407C13.2867 28.4162 12.4394 28.8615 12.3023 28.5261C12.3556 28.1424 13.3014 27.9623 13.6022 27.8417C13.3221 27.8019 12.5345 27.7298 12.3676 27.5572C12.2652 27.1773 13.4088 27.3534 13.6011 27.3672C13.3621 27.1948 12.6634 26.7463 12.6112 26.4892C12.7356 26.1158 13.5525 26.786 13.7188 26.895C13.979 25.9161 14.2074 25.2989 14.6177 24.3708C14.0263 24.0788 13.6239 23.8768 13.0729 23.4929C13.0577 23.7586 13.0392 24.3412 12.8631 24.5399C12.4635 24.6959 12.6376 23.3815 12.6381 23.2142C12.5046 23.351 11.9366 24.2829 11.7088 23.9767C11.6724 23.7197 12.1209 23.1345 12.2696 22.8575C12.0037 22.9454 11.1873 23.2873 10.9848 23.2142C10.6648 22.9208 11.6884 22.5917 11.8697 22.5135C11.1912 21.8351 10.8214 21.3799 10.3354 20.5408C10.1273 20.6873 9.5231 21.1837 9.30475 21.013C9.18928 20.6956 9.93341 20.3126 10.1174 20.1211C9.84521 20.1008 8.90548 20.1918 8.81624 19.825C8.91311 19.579 9.65074 19.6472 9.88071 19.6513C9.45662 18.5251 9.30509 17.9814 9.24296 16.768C9.03527 16.8495 8.18224 17.3316 8.0724 16.979C8.12948 16.7345 9.02287 16.3865 9.25112 16.283C9.0077 16.2705 8.11707 16.2369 8.02343 16.0067C8.12031 15.7612 8.99076 15.8191 9.24879 15.8225C8.95793 15.5898 8.29807 15.3726 8.19365 14.9807C8.28423 14.5689 9.18575 15.2574 9.35139 15.3596C9.54155 14.5347 9.75313 13.9406 10.262 13.2458C10.0226 13.1518 9.2371 12.9161 9.27327 12.6197C9.5002 12.3334 10.2855 12.7828 10.5674 12.8471C10.3911 12.5647 9.9104 12.0072 9.90169 11.7372C10.0646 11.3712 10.8106 12.3697 10.9475 12.4903C10.9145 12.2647 10.575 11.1843 10.9662 11.1356C11.2001 11.2431 11.2923 11.9152 11.3672 12.1685C12.9275 11.1152 15.0802 11.3566 16.2978 12.8168C16.4008 12.5962 16.6554 11.7306 17.0102 11.8771C17.2198 12.2012 16.7585 12.8733 16.6371 13.1747C16.9105 13.0403 17.4313 12.5302 17.7505 12.6209C18.0806 12.9086 17.077 13.4486 16.8982 13.6003C17.1651 13.5904 17.9946 13.5223 18.218 13.7052C18.5564 13.9841 17.1556 14.0343 17.1151 14.0375C17.4647 14.8855 17.5295 15.4796 17.5162 16.3786C17.7717 16.2353 18.2387 15.9457 18.5223 16.0008C18.8896 16.286 17.6937 16.7693 17.5197 16.8776C17.813 16.9449 18.6118 17.009 18.6937 17.3778C18.5419 17.5767 17.738 17.3643 17.4998 17.3125C17.6281 18.335 17.8308 19.0288 18.6389 19.7317C19.271 19.32 19.9107 18.9415 20.5965 18.6229C20.3998 18.398 19.9182 17.9975 19.8911 17.752C20.0405 17.3621 20.9223 18.2805 21.0745 18.4049C20.9955 18.1628 20.5603 17.2859 20.8658 17.0898C21.2173 17.1158 21.3923 17.952 21.5047 18.23C21.5252 17.9682 21.6411 16.9474 21.9302 16.9067C22.1666 17.0281 22.0248 17.8489 21.9979 18.0971C22.8206 17.8508 23.4454 17.7246 24.311 17.6727C24.1934 17.4602 23.614 16.7043 23.9076 16.4742C24.2719 16.4237 24.5917 17.3258 24.7657 17.569C24.7664 17.5465 24.7643 17.5165 24.7634 17.4804C24.7695 17.4918 24.7742 17.5022 24.7798 17.5103C24.7909 17.3645 24.7601 17.1065 24.7634 16.8613C24.7819 16.5733 24.8438 16.3096 25.0222 16.2958C25.0875 16.3278 25.133 16.3837 25.1656 16.4544C25.2031 16.5494 25.2228 16.6736 25.2332 16.8053C25.2456 17.0712 25.2082 17.3685 25.2204 17.5293C25.226 17.5212 25.2307 17.5105 25.2367 17.499C25.2364 17.5189 25.2345 17.5363 25.2349 17.5504C25.4089 17.3073 25.7281 16.4045 26.0924 16.4547C26.387 16.6841 25.8076 17.4398 25.6894 17.6531C26.5553 17.705 27.1804 17.8312 28.0036 18.0777C27.9767 17.8297 27.8336 17.0088 28.0702 16.8876C28.3597 16.9273 28.4758 17.949 28.4963 18.2109C28.6087 17.9327 28.7832 17.0969 29.1349 17.0713C29.4403 17.2675 29.0054 18.144 28.9264 18.386C29.0787 18.2615 29.9614 17.3426 30.1102 17.7338C30.083 17.9794 29.6001 18.3795 29.4037 18.6043C30.0897 18.923 30.7294 19.3011 31.3618 19.713C32.1702 19.0099 32.3727 18.316 32.501 17.2933C32.2634 17.345 31.4598 17.5568 31.3073 17.3584C31.3892 16.9898 32.1868 16.9258 32.4806 16.8586C32.3054 16.7499 31.1105 16.2664 31.4787 15.9814C31.7624 15.9262 32.2294 16.2164 32.4848 16.3596C32.4715 15.4606 32.5355 14.8663 32.8852 14.0182C32.8447 14.015 31.4433 13.9647 31.7829 13.6856C32.0064 13.5026 32.8364 13.5715 33.1028 13.5813C32.9238 13.4295 31.9201 12.8893 32.2501 12.6016C32.5694 12.5108 33.0903 13.0212 33.3637 13.1554C33.2422 12.8539 32.7805 12.1814 32.9904 11.8574C33.3452 11.7108 33.5999 12.5764 33.7029 12.7972C34.9204 11.3374 37.073 11.0965 38.6331 12.1495C38.7081 11.8963 38.8004 11.2244 39.0344 11.1169ZM12.7919 36.8529C12.7422 37.0449 12.631 37.2196 12.4666 37.3437C12.2891 37.4777 12.0719 37.5363 11.858 37.5198C11.9188 37.5775 11.9704 37.6419 12.0119 37.7122C12.5565 37.695 13.1018 37.6816 13.6477 37.669C13.6922 37.6032 13.7448 37.5416 13.8074 37.4883C13.7728 37.5178 13.7817 37.52 13.8237 37.4568C13.8545 37.4103 13.8884 37.3451 13.9275 37.2668C13.7564 37.3374 13.5655 37.3583 13.3783 37.3134C13.1215 37.2518 12.9096 37.0809 12.7919 36.8529ZM37.2069 36.8342C37.089 37.0613 36.879 37.2322 36.6228 37.2936C36.4344 37.3387 36.2421 37.3176 36.0702 37.2458C36.1099 37.3256 36.1462 37.3911 36.1774 37.4382C36.1985 37.4699 36.2119 37.4848 36.2147 37.4883L36.1926 37.4685C36.2556 37.522 36.3086 37.5841 36.3535 37.6504C36.8985 37.6629 37.443 37.6775 37.9869 37.6947C38.0281 37.6244 38.0793 37.5601 38.1396 37.5023C37.9266 37.5181 37.7102 37.4586 37.5334 37.3251C37.3689 37.2009 37.2566 37.0264 37.2069 36.8342ZM38.1315 12.8914C36.9307 12.0809 35.2982 12.2832 34.3913 13.3706C34.3242 13.451 34.2435 13.5161 34.1558 13.5676C34.1093 13.657 34.0505 13.7413 33.9739 13.8125C33.9704 13.8157 33.9657 13.8175 33.9622 13.8206C33.9544 13.8484 33.9483 13.8772 33.9377 13.9046C33.8975 14.0083 33.8369 14.0992 33.7652 14.1785C33.754 14.24 33.7382 14.3015 33.7139 14.3604C33.424 15.0638 33.3683 15.5297 33.3804 16.3471C33.3818 16.4391 33.3663 16.5284 33.3408 16.6141C33.3764 16.739 33.3863 16.8724 33.3641 17.0058C33.3626 17.0153 33.3578 17.0245 33.356 17.0338C33.3918 17.1523 33.4056 17.2783 33.3898 17.4046C33.3227 17.9391 33.2283 18.4698 33.0097 18.9774C32.7834 19.5026 32.4442 19.9581 31.9499 20.3881C31.6482 20.6505 31.2089 20.6819 30.8738 20.4639C30.2621 20.0655 29.6599 19.7114 29.0258 19.4169C28.9459 19.3798 28.8745 19.3295 28.8101 19.2723C28.6737 19.2544 28.5398 19.207 28.4207 19.1254C28.4086 19.1172 28.3985 19.1062 28.3869 19.0975C28.3781 19.0964 28.3689 19.0977 28.3601 19.0963C28.2383 19.0775 28.1265 19.0322 28.0267 18.9704C27.9332 18.9728 27.8388 18.9629 27.7468 18.9354C26.9785 18.7054 26.4218 18.5943 25.6366 18.5472C25.5071 18.5394 25.384 18.5021 25.2728 18.4434C25.1945 18.4467 25.1159 18.438 25.0373 18.4201C25.0332 18.4214 25.0297 18.4247 25.0256 18.4259C24.9278 18.4555 24.8277 18.466 24.7295 18.462C24.618 18.5212 24.4945 18.5592 24.3646 18.567C23.5792 18.6141 23.0227 18.7252 22.2543 18.9552C22.1616 18.9829 22.0663 18.9929 21.9722 18.9902C21.8728 19.0513 21.7619 19.0963 21.641 19.1149C21.6318 19.1164 21.6223 19.115 21.6131 19.1161C21.6017 19.1247 21.5922 19.136 21.5804 19.1441C21.4606 19.2261 21.3259 19.2745 21.1887 19.2922C21.1246 19.3489 21.0535 19.3987 20.9741 19.4356C20.3406 19.7298 19.7392 20.084 19.1274 20.4825C18.7922 20.7006 18.3529 20.6692 18.0512 20.4068C17.557 19.9769 17.2189 19.5212 16.9926 18.996C16.774 18.4887 16.6784 17.9589 16.6114 17.4244C16.5955 17.2983 16.6071 17.1719 16.6428 17.0536C16.641 17.0443 16.6386 17.0351 16.637 17.0257C16.6146 16.8917 16.6222 16.757 16.658 16.6316C16.6329 16.5464 16.6194 16.4571 16.6207 16.3658C16.6328 15.5483 16.5772 15.0826 16.2872 14.3791C16.2631 14.3204 16.246 14.2596 16.2348 14.1984C16.1633 14.1192 16.1036 14.0279 16.0634 13.9244C16.0525 13.8964 16.0445 13.8677 16.0366 13.8393C16.0335 13.8365 16.0303 13.8339 16.0272 13.8311C15.9508 13.76 15.8906 13.6766 15.8442 13.5874C15.7568 13.536 15.6767 13.4706 15.6099 13.3904C14.7029 12.3027 13.0695 12.1004 11.8685 12.9112C11.8085 12.9517 11.7437 12.9823 11.6773 13.0068C11.5996 13.1166 11.4976 13.2103 11.3742 13.2773C11.3637 13.283 11.3521 13.2861 11.3415 13.2913C11.3272 13.3162 11.3141 13.3421 11.2972 13.3659C11.2407 13.4453 11.1714 13.512 11.0955 13.5676C11.0674 13.6404 11.0318 13.7109 10.9847 13.7751C10.5716 14.3393 10.3972 14.8076 10.2234 15.5613C10.2056 15.6385 10.1759 15.7109 10.1395 15.7793C10.1438 15.8691 10.135 15.9592 10.1115 16.0486C10.1176 16.0711 10.1269 16.0931 10.1313 16.1163C10.1587 16.2607 10.1468 16.4045 10.1068 16.5383C10.1227 16.598 10.1339 16.6596 10.1371 16.7225C10.1934 17.82 10.3181 18.2709 10.7189 19.3353C10.7392 19.3893 10.7525 19.4451 10.7621 19.5009C10.8438 19.5858 10.9096 19.6875 10.9533 19.8017C10.9697 19.8446 10.9822 19.8882 10.9917 19.9322C11.0366 19.9806 11.077 20.0339 11.1107 20.092C11.5518 20.8537 11.8706 21.2484 12.5027 21.8805C12.5504 21.9281 12.5912 21.9809 12.6263 22.0367C12.7508 22.0908 12.864 22.1731 12.9551 22.2815C12.9919 22.3253 13.0223 22.3728 13.0496 22.4214C13.1529 22.475 13.2429 22.5466 13.3165 22.6325C13.4109 22.6592 13.5018 22.7006 13.5847 22.7584C14.077 23.1014 14.4284 23.2784 15.0141 23.5675C15.4443 23.7799 15.6301 24.2946 15.4361 24.7334C15.0416 25.6258 14.83 26.1985 14.5839 27.1247C14.5634 27.2016 14.5318 27.2741 14.4929 27.3415C14.4954 27.4272 14.4844 27.5127 14.4615 27.598C14.474 27.6424 14.4849 27.6875 14.4906 27.7344C14.5134 27.9236 14.4728 28.1071 14.3868 28.2661C14.391 28.3157 14.3934 28.366 14.3892 28.4165C14.3051 29.4095 14.3705 30.1363 14.4894 31.1995C14.4967 31.2649 14.4952 31.33 14.4883 31.3942C14.5505 31.5183 14.5827 31.6565 14.5815 31.8011C14.5933 31.8213 14.6074 31.8403 14.6177 31.8617C14.6838 31.9997 14.7103 32.1486 14.7028 32.2942C14.743 32.3628 14.7751 32.4371 14.7961 32.5158C15.2798 34.3265 16.4295 36.1895 17.7784 37.5373C17.8018 37.5607 17.8222 37.5865 17.8425 37.6119C20.1011 37.601 22.3657 37.6164 24.6304 37.6469C24.6681 37.6415 24.7067 37.6381 24.7458 37.6375C27.2185 37.6017 29.6915 37.5814 32.1574 37.5932C32.1779 37.5676 32.1991 37.5422 32.2227 37.5186C33.5716 36.1708 34.7214 34.3078 35.2051 32.4971L35.24 32.3933C35.2565 32.3526 35.2752 32.3131 35.2972 32.2756C35.2895 32.1296 35.3172 31.9803 35.3835 31.8419C35.3932 31.8215 35.4061 31.8029 35.4173 31.7836C35.4157 31.6378 35.4489 31.4982 35.5117 31.3732C35.5051 31.3098 35.5045 31.2455 35.5117 31.1808C35.6306 30.1176 35.6961 29.3899 35.612 28.3966C35.6077 28.3462 35.609 28.2958 35.6131 28.2462C35.5273 28.0874 35.4877 27.9035 35.5105 27.7146C35.5161 27.6683 35.525 27.6232 35.5374 27.5794C35.5145 27.4943 35.5046 27.4083 35.507 27.3229C35.4683 27.2555 35.4377 27.1828 35.4173 27.106C35.1712 26.18 34.9594 25.6069 34.565 24.7147C34.371 24.2759 34.5568 23.7612 34.9871 23.5489C35.5728 23.2597 35.9241 23.0828 36.4164 22.7397L36.519 22.6779C36.5719 22.6508 36.6271 22.6298 36.6834 22.6138C36.7566 22.5283 36.8466 22.4576 36.9493 22.4039C36.9766 22.3548 37.0078 22.307 37.0449 22.2629C37.1357 22.1547 37.2484 22.0721 37.3725 22.018C37.4077 21.962 37.4494 21.9096 37.4972 21.8618C38.1301 21.229 38.4496 20.8346 38.8905 20.0733C38.924 20.0155 38.9636 19.9618 39.0082 19.9136C39.0177 19.8695 39.0314 19.826 39.0479 19.783C39.0912 19.6699 39.1561 19.569 39.2367 19.4845C39.2462 19.4276 39.2603 19.3706 39.281 19.3155C39.6818 18.2512 39.8066 17.801 39.8628 16.7039L39.8745 16.5966C39.8792 16.5694 39.886 16.5427 39.8931 16.5162C39.8538 16.383 39.8426 16.24 39.8698 16.0964C39.8742 16.0733 39.8824 16.0512 39.8885 16.0288C39.8652 15.9399 39.8551 15.85 39.8593 15.7607C39.8232 15.6926 39.7955 15.6195 39.7777 15.5426C39.604 14.789 39.4295 14.3206 39.0164 13.7565C38.9692 13.6921 38.9326 13.6219 38.9045 13.549C38.8283 13.4932 38.7594 13.4258 38.7028 13.3461C38.6863 13.3229 38.6725 13.2981 38.6585 13.2738C38.6477 13.2685 38.6364 13.2644 38.6258 13.2587C38.5018 13.1913 38.3981 13.0975 38.3203 12.987C38.2547 12.9625 38.1908 12.9314 38.1315 12.8914ZM44.5194 16.2632C44.5194 16.6336 44.5328 17.32 44.2594 17.9537C44.0887 18.3493 43.8219 18.6934 43.4491 18.9611C43.4631 18.9933 43.4772 19.0246 43.4899 19.0555L43.6124 19.3691L43.6217 19.3936C43.837 19.9921 43.8441 20.609 43.631 21.1926C43.4225 21.7632 43.0251 22.2431 42.5292 22.6313C42.2617 22.8407 41.9112 23.1099 41.4624 23.2807C41.3796 23.8707 41.0957 24.4224 40.8084 24.8302C40.5418 25.2084 40.1853 25.5823 39.7835 25.8748C40.0019 26.466 40.1206 27.1431 40.1321 27.7706C40.1416 28.2839 40.0825 28.8262 39.9106 29.32C39.8424 29.5159 39.7506 29.7114 39.6355 29.8983C40.0004 30.52 40.0458 31.235 39.9852 31.8325C39.9273 32.4038 39.7615 32.9711 39.6005 33.4426C39.8322 33.677 40.018 33.9406 40.1601 34.2145C40.8323 34.5173 41.3579 35.0619 41.6478 35.7255C41.8679 35.7371 42.0992 35.7628 42.3322 35.8199C42.667 35.9018 43.016 36.1196 43.2649 36.3084C43.5192 36.5013 43.8422 36.7948 44.0309 37.142C44.5599 38.116 44.446 39.144 43.9225 39.918C43.4157 40.6673 42.5444 41.1567 41.5814 41.1865C36.1897 41.3518 30.7927 41.3364 25.408 41.2903C25.3569 41.2999 25.3045 41.3073 25.2507 41.3078C19.6471 41.3585 14.0306 41.3772 8.41978 41.2052C7.45672 41.1755 6.58545 40.686 6.07866 39.9367C5.55509 39.1626 5.44114 38.1346 5.97023 37.1607C6.15872 36.8141 6.48092 36.5213 6.73506 36.3282C6.98368 36.1394 7.33295 35.9207 7.66777 35.8386C7.90064 35.7815 8.13202 35.7557 8.35216 35.7441C8.64186 35.0807 9.16793 34.5361 9.83984 34.2331C9.98168 33.9597 10.1669 33.6956 10.3983 33.4613C10.2374 32.9902 10.0728 32.423 10.0147 31.8524C9.95404 31.2555 9.99936 30.5407 10.3633 29.9193C10.248 29.7321 10.1576 29.5349 10.0893 29.3387C9.91768 28.8447 9.85821 28.3026 9.86782 27.7892C9.87957 27.1622 9.99829 26.4855 10.2164 25.8946C9.81473 25.6022 9.45945 25.2269 9.19277 24.8488C8.90521 24.4411 8.61934 23.8896 8.53637 23.2994C8.08816 23.1286 7.73818 22.8593 7.47074 22.6499C6.9749 22.2616 6.57828 21.7819 6.37013 21.2112C6.15725 20.6274 6.16423 20.0106 6.37946 19.4123C6.38238 19.4041 6.38563 19.3958 6.38879 19.3878C6.43211 19.2775 6.48364 19.1373 6.55085 18.982C6.17795 18.7144 5.9125 18.369 5.74171 17.9735C5.46821 17.3398 5.48055 16.6537 5.48055 16.283C5.48055 16.1704 5.50219 16.0589 5.54351 15.9542C5.56712 15.8943 5.59517 15.7796 5.65777 15.5415C5.68324 15.4446 5.72201 15.3015 5.77319 15.1532C5.72532 14.5764 5.92019 14.0053 6.17076 13.6131C6.36395 13.3109 6.6039 13.0621 6.88662 12.8704C6.86383 12.3961 6.97851 11.9424 7.13496 11.5623C7.39264 10.9363 7.81174 10.3762 8.20875 9.97432C8.89487 9.28013 10.0436 8.72697 11.169 8.67668L11.2727 8.67785C11.7053 8.70905 12.0523 8.8387 12.3442 9.06842C12.3874 9.10246 12.4254 9.13943 12.4619 9.17335C13.6448 8.9723 14.8735 9.12753 15.969 9.61523C16.3112 9.47651 16.6657 9.41529 17.0288 9.43218C17.4162 9.45022 17.7811 9.55395 18.1189 9.69917L18.4476 9.85657L18.5339 9.90903C18.8173 10.1021 18.9948 10.3272 19.104 10.5829C19.1056 10.5866 19.106 10.5909 19.1075 10.5946C19.1939 10.6556 19.2668 10.7145 19.3197 10.7613C19.4762 10.8995 19.6172 11.0542 19.7173 11.1822L19.8595 11.3781C20.1837 11.8532 20.4449 12.457 20.5649 13.0698C20.6569 13.5393 20.6811 14.1004 20.5148 14.6332C20.5192 14.6394 20.5233 14.6457 20.5276 14.6519C20.7841 14.5882 21.046 14.5458 21.2889 14.5237C21.6287 14.4927 22.0432 14.4883 22.4385 14.5633C22.7154 14.3604 23.0193 14.2217 23.3083 14.1249C23.7467 13.9781 24.2056 13.9115 24.6117 13.8801C24.6233 13.8782 24.635 13.8746 24.6467 13.8731C24.6649 13.8708 24.681 13.8696 24.6934 13.8684C24.7049 13.8673 24.7172 13.8654 24.7225 13.8649C24.7257 13.8646 24.7295 13.8649 24.7295 13.8649C24.7295 13.8649 24.7247 13.8656 24.7213 13.8661C24.7515 13.8618 24.7818 13.8591 24.8123 13.8579C24.9345 13.8532 25.0599 13.8508 25.1865 13.8521H25.2425C25.2736 13.8521 25.3043 13.8537 25.3346 13.8568C26.0102 13.8786 26.8806 14.0107 27.572 14.5423C27.9641 14.4694 28.3744 14.4743 28.711 14.505C28.954 14.5272 29.2159 14.5695 29.4724 14.6332C29.4769 14.6268 29.4806 14.6198 29.4852 14.6134C29.319 14.0807 29.3443 13.5195 29.4362 13.05C29.5734 12.3496 29.8944 11.6604 30.2838 11.1624C30.3844 11.0339 30.526 10.8794 30.6826 10.7415C30.7352 10.6951 30.807 10.6362 30.8924 10.5759C30.894 10.5721 30.8955 10.568 30.8971 10.5643C31.0064 10.3086 31.1838 10.0834 31.4672 9.89038L31.5535 9.83791C31.9785 9.61434 32.455 9.43809 32.9712 9.41353C33.334 9.39633 33.6887 9.45697 34.031 9.59541C35.1266 9.10758 36.3555 8.95369 37.538 9.1547C37.5745 9.12077 37.6127 9.08383 37.6558 9.04977C37.9476 8.81939 38.2948 8.6892 38.7284 8.65803L38.8322 8.65686C39.9585 8.70722 41.1059 9.26238 41.7912 9.95567C42.1882 10.3575 42.6073 10.9176 42.865 11.5436C43.0215 11.9238 43.1362 12.3774 43.1133 12.8518C43.3961 13.0434 43.636 13.2923 43.8292 13.5944C44.0795 13.9864 44.2748 14.5575 44.2268 15.1346C44.2778 15.2823 44.3167 15.4249 44.3422 15.5217C44.4047 15.7591 44.4338 15.8738 44.4576 15.9344C44.4988 16.0389 44.5194 16.1508 44.5194 16.2632Z" fill="#020101"/>
<path d="M12.5347 35.6835C12.5769 35.7047 12.6092 35.7249 12.6382 35.7628C13.0737 36.3338 13.1563 36.9827 13.0965 37.6587C13.0461 37.618 13.0018 37.549 12.9627 37.4978C12.609 37.0325 12.4366 36.2624 12.5347 35.6835Z" fill="#78A79F"/>
<path d="M11.203 36.9823C11.7704 37.0911 12.3641 37.6769 12.7113 38.1092C12.0677 38.1049 11.3341 37.6341 11.203 36.9823Z" fill="#E76F51"/>
<path d="M14.4281 36.4553L14.4546 36.4827C14.5771 37.0509 14.0859 37.6674 13.658 37.9854C13.6403 37.9664 13.6364 37.9457 13.6408 37.9178C13.7149 37.456 14.0807 36.7448 14.4281 36.4553Z" fill="#E76F51"/>
<path d="M37.4444 35.6695C37.4687 35.6978 37.4908 35.7376 37.4956 35.774C37.5901 36.481 37.3373 37.0737 36.9595 37.6245C36.9174 37.5829 36.9138 37.4791 36.9107 37.4188C36.8834 36.8887 37.0959 36.0699 37.4444 35.6695Z" fill="#78A79F"/>
<path d="M38.7535 37.0091C38.7819 37.0172 38.7635 37.0098 38.8016 37.0432C38.7645 37.3805 38.4231 37.6704 38.1577 37.8518C37.9026 38.0263 37.6797 38.0989 37.3722 38.1136L37.342 38.1158L37.3298 38.0896C37.7271 37.5666 38.1351 37.2212 38.7535 37.0091Z" fill="#E76F51"/>
<path d="M35.5512 36.4716C35.9646 36.6723 36.3003 37.5714 36.396 37.996C35.8487 37.7385 35.5464 37.0536 35.5512 36.4716Z" fill="#E76F51"/>
</g>
</g>
<path id="Union" d="M38.832 8.65717C39.9583 8.70753 41.1057 9.26271 41.791 9.95599C42.188 10.3579 42.6075 10.9179 42.8652 11.5439C43.0216 11.9239 43.1361 12.3774 43.1133 12.8515C43.396 13.0432 43.6359 13.2925 43.8291 13.5947C44.0794 13.9866 44.2746 14.5577 44.2266 15.1347C44.2776 15.2823 44.3163 15.4247 44.3418 15.5214C44.4043 15.7587 44.4332 15.8739 44.457 15.9345C44.4982 16.039 44.5195 16.1513 44.5195 16.2636C44.5195 16.6342 44.5321 17.3205 44.2588 17.954C44.0881 18.3493 43.8218 18.6933 43.4492 18.9609C43.4632 18.9932 43.4776 19.0247 43.4902 19.0556L43.6123 19.3691L43.6211 19.3935C43.8363 19.9919 43.8438 20.6088 43.6309 21.1923C43.4223 21.763 43.0251 22.2435 42.5293 22.6318C42.2618 22.8412 41.9107 23.1104 41.4619 23.2812C41.379 23.8708 41.0958 24.4224 40.8086 24.83C40.542 25.2083 40.1849 25.5824 39.7832 25.8749C40.0015 26.4661 40.1203 27.1431 40.1318 27.7704C40.1413 28.2837 40.082 28.8264 39.9102 29.3203C39.842 29.516 39.7507 29.7116 39.6357 29.8984C40.0006 30.52 40.0459 31.2355 39.9854 31.8329C39.9274 32.4039 39.7615 32.971 39.6006 33.4423C39.8323 33.6767 40.0181 33.941 40.1602 34.2148C40.8322 34.5176 41.3576 35.0621 41.6475 35.7255C41.8675 35.7371 42.0991 35.7632 42.332 35.8203C42.6668 35.9021 43.0157 36.1198 43.2646 36.3085C43.5189 36.5014 43.8415 36.7952 44.0303 37.1425C44.5591 38.1164 44.4454 39.1439 43.9219 39.9179C43.4151 40.6671 42.544 41.1567 41.5811 41.1865C36.1895 41.3517 30.7927 41.3361 25.4082 41.29C25.3572 41.2995 25.3047 41.307 25.251 41.3076C19.6475 41.3582 14.0307 41.377 8.41992 41.205C7.45687 41.1753 6.58492 40.6857 6.07812 39.9365C5.55484 39.1625 5.44097 38.1348 5.96973 37.1611C6.15821 36.8145 6.48121 36.5211 6.73535 36.3281C6.98395 36.1393 7.33332 35.9209 7.66797 35.8388C7.90058 35.7818 8.13164 35.7557 8.35156 35.7441C8.64127 35.0807 9.16794 34.5363 9.83984 34.2333C9.98169 33.9599 10.1671 33.6952 10.3984 33.4609C10.2376 32.9898 10.0727 32.4229 10.0146 31.8525C9.95397 31.2556 9.99931 30.5403 10.3633 29.9189C10.2481 29.7317 10.157 29.5349 10.0889 29.3388C9.91721 28.8448 9.85758 28.3023 9.86719 27.789C9.87896 27.162 9.99771 26.4853 10.2158 25.8945C9.81429 25.6021 9.45898 25.2266 9.19238 24.8486C8.90496 24.4409 8.61915 23.8897 8.53613 23.2997C8.08806 23.129 7.73812 22.8597 7.4707 22.6503C6.97487 22.262 6.57827 21.7816 6.37012 21.2109C6.15734 20.6272 6.16371 20.0103 6.37891 19.412L6.55078 18.9824C6.17789 18.7147 5.912 18.369 5.74121 17.9736C5.4678 17.34 5.48047 16.6539 5.48047 16.2831C5.48047 16.1706 5.50165 16.0587 5.54297 15.954C5.56656 15.8942 5.59473 15.7797 5.65723 15.5419C5.6827 15.4451 5.72225 15.3015 5.77344 15.1533C5.72557 14.5764 5.92033 14.0054 6.1709 13.6132C6.36408 13.3111 6.60401 13.0617 6.88672 12.8701C6.864 12.396 6.97838 11.9425 7.13477 11.5624C7.39244 10.9364 7.81197 10.3765 8.20898 9.97455C8.89511 9.2804 10.0437 8.72698 11.1689 8.6767L11.2725 8.67767C11.705 8.70887 12.052 8.8387 12.3438 9.0683C12.387 9.10234 12.4254 9.13985 12.4619 9.17377C13.6447 8.97273 14.8734 9.12751 15.9688 9.61517C16.3109 9.47649 16.6654 9.41571 17.0283 9.43256C17.4158 9.45059 17.7814 9.55394 18.1191 9.69916L18.4473 9.85638L18.5342 9.90912C18.8174 10.1021 18.9943 10.3274 19.1035 10.5829C19.1051 10.5866 19.1059 10.591 19.1074 10.5947C19.1937 10.6556 19.2664 10.7149 19.3193 10.7617C19.4758 10.8999 19.6167 11.0546 19.7168 11.1826L19.8594 11.3779C20.1835 11.853 20.4444 12.4575 20.5645 13.0703C20.6563 13.5397 20.6809 14.1011 20.5146 14.6337C20.519 14.6398 20.5231 14.6462 20.5273 14.6523C20.7839 14.5886 21.0462 14.5455 21.2891 14.5234C21.6288 14.4924 22.0433 14.4885 22.4385 14.5634C22.7154 14.3606 23.0197 14.2217 23.3086 14.1249C23.7468 13.9783 24.2054 13.9113 24.6113 13.8798C24.6229 13.8779 24.6348 13.8745 24.6465 13.873C24.6647 13.8707 24.681 13.8693 24.6934 13.8681C24.7049 13.867 24.7174 13.8656 24.7227 13.8652C24.7258 13.8649 24.7295 13.8652 24.7295 13.8652C24.7295 13.8652 24.7241 13.8657 24.7207 13.8661C24.7509 13.8619 24.7821 13.8595 24.8125 13.8583C24.9346 13.8536 25.06 13.8512 25.1865 13.8525H25.2422C25.2731 13.8525 25.3039 13.8533 25.334 13.8564C26.0096 13.8782 26.8809 14.0103 27.5723 14.5419C27.9642 14.4691 28.3744 14.4742 28.7109 14.5048C28.9539 14.527 29.2162 14.57 29.4727 14.6337C29.4772 14.6273 29.4808 14.6196 29.4854 14.6132C29.3192 14.0805 29.3446 13.5192 29.4365 13.0497C29.5737 12.3495 29.8938 11.66 30.2832 11.162C30.3837 11.0336 30.5261 10.879 30.6826 10.7411C30.7353 10.6948 30.8074 10.6363 30.8926 10.5761C30.8941 10.5724 30.8949 10.5681 30.8965 10.5644C31.0057 10.3088 31.1835 10.0836 31.4668 9.89056L31.5537 9.83783C31.9786 9.6144 32.4548 9.43862 32.9707 9.414C33.3335 9.39681 33.689 9.45721 34.0312 9.59564C35.1268 9.1079 36.3556 8.95422 37.5381 9.15521C37.5745 9.12133 37.6122 9.08377 37.6553 9.04974C37.9471 8.81937 38.2949 8.68932 38.7285 8.65814L38.832 8.65717ZM21.8711 16.9296C21.8688 16.9311 21.8675 16.9339 21.8652 16.9355C21.8672 16.9335 21.8691 16.9315 21.8711 16.9296Z" fill="white" fill-opacity="0.3"/>
</g>
</g>
</g>
</svg>
