<svg width="50" height="50" viewBox="0 0 50 50" fill="none" xmlns="http://www.w3.org/2000/svg">
<rect width="50" height="50" fill="#BEBEBE"/>
<g id="Decorate Mode">
<path d="M-121.803 -1123.03V-1122.03H2898.2V-1123.03V-1124.03H-121.803V-1123.03ZM2900.2 -1121.03H2899.2V2416.97H2900.2H2901.2V-1121.03H2900.2ZM2898.2 2418.97V2417.97H-121.803V2418.97V2419.97H2898.2V2418.97ZM-123.803 2416.97H-122.803V-1121.03H-123.803H-124.803V2416.97H-123.803ZM-121.803 2418.97V2417.97C-122.356 2417.97 -122.803 2417.52 -122.803 2416.97H-123.803H-124.803C-124.803 2418.62 -123.46 2419.97 -121.803 2419.97V2418.97ZM2900.2 2416.97H2899.2C2899.2 2417.52 2898.75 2417.97 2898.2 2417.97V2418.97V2419.97C2899.85 2419.97 2901.2 2418.62 2901.2 2416.97H2900.2ZM2898.2 -1123.03V-1122.03C2898.75 -1122.03 2899.2 -1121.59 2899.2 -1121.03H2900.2H2901.2C2901.2 -1122.69 2899.85 -1124.03 2898.2 -1124.03V-1123.03ZM-121.803 -1123.03V-1124.03C-123.46 -1124.03 -124.803 -1122.69 -124.803 -1121.03H-123.803H-122.803C-122.803 -1121.59 -122.356 -1122.03 -121.803 -1122.03V-1123.03Z" fill="black" fill-opacity="0.1"/>
<g id="Stickers">
<rect x="-69.7944" y="-250.534" width="374" height="551" rx="4.5" stroke="#9747FF" stroke-dasharray="10 5"/>
<g id="Property 1=peace">
<g id="Frame 168">
<path id="Vector" d="M24.6834 9.26235C33.3702 9.08743 40.5534 15.9891 40.7257 24.6759C40.898 33.363 33.9943 40.5439 25.3074 40.7138C16.6241 40.8837 9.44647 33.9834 9.27415 25.3002C9.10186 16.6167 16.0001 9.43717 24.6834 9.26235Z" fill="#020101"/>
<path id="Vector (Stroke)" d="M24.6521 7.70029C34.2019 7.508 42.0988 15.0951 42.2883 24.6449C42.4777 34.1949 34.8879 42.0893 25.3382 42.2761C15.7923 42.4628 7.90205 34.8771 7.71245 25.3315V25.3309C7.52321 15.785 15.1064 7.89252 24.6521 7.70029ZM24.6839 9.26218L24.278 9.27561C15.7865 9.66184 9.10474 16.7526 9.27434 25.3004C9.44675 33.9835 16.6244 40.8835 25.3077 40.7136C33.8588 40.5463 40.6821 33.5856 40.7288 25.0819L40.7258 24.676C40.5534 15.9892 33.3706 9.08738 24.6839 9.26218Z" fill="#E8E7E7"/>
<path id="Vector (Stroke) (Stroke)" d="M24.6341 6.78189C34.6908 6.57969 43.0064 14.5699 43.2059 24.6267C43.4054 34.6838 35.4132 42.9968 25.3564 43.1937C15.3036 43.3904 6.994 35.4025 6.79411 25.3501V25.3489L6.79053 24.879C6.84475 15.0384 14.7385 6.98117 24.6341 6.78189ZM24.6521 7.70026L24.206 7.71461C15.0192 8.13253 7.75931 15.6888 7.70889 24.885L7.71248 25.331C7.89912 34.7277 15.5478 42.2253 24.8924 42.2789L25.3384 42.2766C34.888 42.0896 42.477 34.1945 42.2876 24.6446C42.098 15.095 34.2017 7.50797 24.6521 7.70026ZM24.6843 9.26196C33.3707 9.08747 40.5534 15.9893 40.7259 24.6757L40.7283 25.0823C40.6813 33.5858 33.8583 40.5464 25.3073 40.7137L24.902 40.716C16.4019 40.6672 9.4439 33.8475 9.27418 25.2999C9.10482 16.7524 15.7865 9.6614 24.2778 9.27512L24.6843 9.26196ZM24.713 10.1791L24.3184 10.1923L24.3196 10.1935C16.3245 10.5572 10.0329 17.2335 10.1926 25.282C10.3549 33.458 17.1132 39.9551 25.2894 39.7953C33.3373 39.6379 39.7599 33.0898 39.8099 25.0883L39.8075 24.6936L39.7956 24.3122C39.4343 16.3168 32.76 10.0229 24.713 10.1791Z" fill="#020101"/>
<path id="Vector_2" d="M24.2135 10.1996C32.3906 9.75577 39.3757 16.0323 39.8059 24.2102C40.2358 32.388 33.9478 39.3626 25.769 39.7791C17.6099 40.1944 10.6554 33.9243 10.2264 25.7659C9.79732 17.6074 16.0557 10.6424 24.2135 10.1996Z" fill="#78A79F"/>
<path id="Vector_3" d="M23.767 12.4125C23.8412 12.4027 23.8387 12.4026 23.9126 12.4149C23.9733 12.5118 23.9355 13.4849 23.9351 13.6754L23.9314 16.2545L23.937 24.2143C23.3862 24.7454 22.8413 25.2825 22.3026 25.8257C21.2323 26.8687 20.1741 27.9241 19.1281 28.9915C17.8086 30.3062 16.4993 31.6309 15.2002 32.9656C14.8139 32.4905 14.4637 31.9873 14.1524 31.46C13.1766 29.8174 12.5875 27.9744 12.4297 26.0706C12.1364 22.7041 13.2141 19.3619 15.4186 16.801C17.5534 14.2834 20.4607 12.6887 23.767 12.4125Z" fill="#020101"/>
<path id="Vector_4" d="M22.726 13.7285C22.7427 13.7307 22.7575 13.7403 22.773 13.747C22.8005 14.0959 22.7839 14.7178 22.7846 15.0922L22.7875 17.7174L22.7896 21.6759C22.79 22.3486 22.8069 23.0739 22.7888 23.7409C20.2961 26.2056 17.8172 28.6844 15.3521 31.1766C15.1309 30.8848 14.8906 30.4361 14.7233 30.1089C14.2326 29.1175 13.8849 28.0613 13.6904 26.9722C13.1792 24.0014 13.8593 20.9486 15.5832 18.4755C17.2937 16.0497 19.7658 14.2407 22.726 13.7285Z" fill="#E8E7E7"/>
<path id="Vector (Stroke)_2" d="M22.7519 13.5348C22.7885 13.5397 22.817 13.5519 22.8311 13.5584C22.8381 13.5616 22.8451 13.565 22.8474 13.5662L22.8501 13.5675L22.9584 13.614L22.9677 13.7316C22.9925 14.0455 22.9827 14.5744 22.9804 14.9441L22.98 15.0918V15.092L22.9829 17.7172L22.9849 21.6758C22.9853 22.3419 23.0022 23.0759 22.984 23.7462L22.9819 23.8246L22.9261 23.8797C20.434 26.344 17.9556 28.8222 15.4909 31.3139L15.3325 31.4741L15.1965 31.2945C14.9634 30.9872 14.716 30.5237 14.5494 30.1979L14.5482 30.1956C14.0494 29.1876 13.6958 28.1138 13.4982 27.0065L13.4981 27.0059L13.498 27.0053C12.978 23.9838 13.6697 20.879 15.423 18.3638L15.4233 18.3634L15.4236 18.363C17.1582 15.9031 19.6723 14.0587 22.6928 13.536L22.7222 13.5309L22.7519 13.5348ZM22.726 13.7284C19.7658 14.2407 17.2937 16.0497 15.5832 18.4755L15.543 18.5336C13.8487 20.9963 13.1832 24.0245 13.6905 26.9722C13.8849 28.0613 14.2326 29.1175 14.7233 30.1089C14.8906 30.4361 15.1309 30.8848 15.3521 31.1766C17.6631 28.8402 19.9863 26.5155 22.3216 24.2032L22.7888 23.7408C22.8069 23.0739 22.79 22.3486 22.7896 21.6759L22.7846 15.0922C22.7839 14.7412 22.7985 14.1726 22.7776 13.8155L22.773 13.747C22.7575 13.7403 22.7427 13.7307 22.726 13.7284Z" fill="#E8E7E7"/>
<path id="Vector_5" d="M26.121 12.3873C27.8754 12.529 29.5788 13.0447 31.1171 13.8996C34.029 15.5179 36.1877 18.2164 37.1269 21.4126C38.0954 24.7322 37.6847 28.302 35.9877 31.3149C35.6655 31.8513 35.2397 32.5041 34.83 32.9704C32.8251 30.9206 30.8063 28.8843 28.7739 26.8616L27.0776 25.178C26.7792 24.8826 26.3788 24.5093 26.1108 24.1992L26.1196 16.6775L26.1118 14.0552C26.1086 13.5324 26.0881 12.8984 26.121 12.3873Z" fill="#020101"/>
<path id="Vector_6" d="M27.2695 13.7127C28.4858 13.9859 29.4563 14.2778 30.5486 14.905C35.9424 18.0023 37.9597 24.3754 35.3723 30.0035C35.1462 30.4544 34.9783 30.7493 34.7092 31.1778C32.2205 28.7256 29.7827 26.1727 27.271 23.7376L27.2695 13.7127Z" fill="#E8E7E7"/>
<path id="Vector (Stroke)_3" d="M27.3124 13.5221C28.5377 13.7973 29.5295 14.0946 30.6459 14.7356C36.1276 17.8834 38.1793 24.3654 35.5498 30.085L35.5484 30.088L35.5469 30.091C35.3178 30.548 35.1468 30.8483 34.8747 31.2816L34.7454 31.4875L34.5722 31.3169C32.0737 28.8551 29.6502 26.3161 27.1351 23.8778L27.0757 23.8202L27.0742 13.4686L27.3124 13.5221ZM27.2711 23.7376C29.7828 26.1726 32.2205 28.7256 34.7093 31.1777C34.9615 30.7761 35.1249 30.4917 35.3306 30.0862L35.3724 30.0034C37.9497 24.3974 35.9581 18.0521 30.6117 14.9414L30.5486 14.905C29.4564 14.2778 28.4859 13.9858 27.2696 13.7127L27.2711 23.7376Z" fill="#E8E7E7"/>
<path id="Vector_7" d="M23.9079 27.313C23.9112 27.316 23.915 27.3184 23.9176 27.3218C23.9587 27.3753 23.9319 36.5738 23.9422 37.5777C23.592 37.5728 23.1273 37.501 22.7791 37.4444C21.2407 37.1944 19.883 36.671 18.5433 35.8836C17.8779 35.4664 17.2819 35.0518 16.6938 34.5291C16.953 34.2256 17.3591 33.8502 17.6483 33.5618L19.273 31.9295C20.8126 30.3851 22.3292 28.8201 23.9079 27.313Z" fill="#020101"/>
<path id="Vector_8" d="M22.7503 30.074C22.7517 30.0753 22.7533 30.0765 22.7544 30.0779C22.8214 30.1685 22.7866 35.6419 22.7807 36.2618C21.6048 36.0272 20.625 35.7161 19.5648 35.1453C19.1658 34.9373 18.7696 34.7073 18.4136 34.4315C18.8487 33.9593 19.3769 33.4444 19.8334 32.9859L22.7503 30.074Z" fill="#E8E7E7"/>
<path id="Vector (Stroke)_4" d="M22.882 29.9294C22.8825 29.9299 22.8831 29.9304 22.8837 29.931C22.8866 29.9336 22.8931 29.9395 22.9006 29.9481L22.9084 29.9574L22.9101 29.9596L22.9117 29.9618C22.9381 29.9975 22.9463 30.0349 22.9472 30.0388C22.9504 30.0517 22.9525 30.0641 22.9539 30.0737C22.9568 30.0933 22.9589 30.1165 22.9608 30.1407C22.9645 30.19 22.9677 30.2569 22.9705 30.3375C22.976 30.4993 22.9801 30.7248 22.9831 30.9929C22.9892 31.5297 22.991 32.2427 22.9904 32.9715C22.9894 34.4291 22.9792 35.953 22.9762 36.2635L22.974 36.4994L22.7427 36.4532C21.5534 36.2159 20.5549 35.8997 19.4748 35.3184C19.0712 35.108 18.6634 34.8719 18.2942 34.5858L18.126 34.4555L18.2702 34.299C18.7087 33.8232 19.2419 33.3033 19.6952 32.848L22.7442 29.8043L22.882 29.9294ZM19.8336 32.9858C19.3771 33.4443 18.849 33.9592 18.4138 34.4314C18.7698 34.7073 19.166 34.9373 19.565 35.1453C20.6252 35.7161 21.6051 36.0271 22.781 36.2617C22.7868 35.6466 22.8211 30.2538 22.7562 30.081L22.7546 30.0779C22.7535 30.0764 22.7519 30.0752 22.7506 30.074L19.8336 32.9858Z" fill="#E8E7E7"/>
<path id="Vector_9" d="M26.1152 27.2791C26.2599 27.3682 26.925 28.0389 27.0795 28.1934L29.2263 30.3572C30.154 31.2715 31.0744 32.1929 31.9877 33.1214C32.3429 33.4783 33.0573 34.1553 33.3625 34.5237C32.8666 34.9979 32.1288 35.4654 31.5532 35.8314C29.8422 36.837 28.1152 37.4251 26.1252 37.5655C26.0929 34.8821 26.1418 32.1924 26.1161 29.5081C26.1091 28.7703 26.1 28.0167 26.1152 27.2791Z" fill="#020101"/>
<path id="Vector_10" d="M27.2705 30.0889C27.47 30.2147 28.3025 31.0801 28.521 31.2977C29.5671 32.3321 30.6042 33.3756 31.6318 34.4283C31.2856 34.6968 30.8621 34.9246 30.479 35.1407C29.4739 35.6749 28.3914 36.0489 27.2708 36.2493L27.2705 30.0889Z" fill="#E8E7E7"/>
<path id="Vector (Stroke)_5" d="M27.3742 29.9237C27.4426 29.9668 27.5458 30.0582 27.6521 30.1574C27.7639 30.2618 27.8952 30.3903 28.0259 30.5205C28.1569 30.6508 28.2882 30.7839 28.4002 30.8977C28.5125 31.0118 28.6041 31.1053 28.6579 31.1588L29.05 31.5474C29.9641 32.4552 30.8713 33.37 31.7711 34.2919L31.924 34.4485L31.751 34.5826C31.3906 34.8622 30.951 35.0984 30.5745 35.3108L30.5724 35.312L30.5702 35.3132C29.5471 35.8569 28.4452 36.2376 27.3046 36.4416L27.0749 36.4827L27.0747 29.7349L27.3742 29.9237ZM27.2703 36.2493C28.3909 36.0489 29.4734 35.6749 30.4785 35.1407C30.8616 34.9246 31.2852 34.6968 31.6314 34.4283C30.6038 33.3756 29.5667 32.3321 28.5205 31.2977C28.302 31.0801 27.4695 30.2147 27.27 30.0889L27.2703 36.2493Z" fill="#E8E7E7"/>
</g>
<path id="Union" d="M24.6338 6.78137C34.6905 6.57917 43.0065 14.5703 43.2061 24.6271C43.4053 34.6839 35.413 42.9966 25.3564 43.1935C15.3037 43.3901 6.99383 35.4021 6.79395 25.3497V25.3488L6.79004 24.879C6.84426 15.0385 14.7383 6.98081 24.6338 6.78137ZM27.5381 42.0939C27.2503 42.1362 26.9603 42.1723 26.668 42.2003C26.9603 42.1723 27.2503 42.1362 27.5381 42.0939ZM22.7021 42.1281C22.8112 42.1425 22.9206 42.1547 23.0303 42.1671C22.9206 42.1547 22.8112 42.1425 22.7021 42.1281ZM22.3135 42.0724L22.7021 42.1281C22.5619 42.1094 22.4224 42.0885 22.2832 42.0665C22.2933 42.0681 22.3033 42.0708 22.3135 42.0724ZM21.4629 41.9171C21.4963 41.9241 21.53 41.9299 21.5635 41.9366C21.53 41.9299 21.4963 41.9241 21.4629 41.9171ZM21.042 41.8234C21.0901 41.8346 21.1383 41.8457 21.1865 41.8566C21.1383 41.8457 21.0901 41.8346 21.042 41.8234ZM30.4648 41.3976C30.1959 41.4871 29.9242 41.5711 29.6494 41.6476C29.9242 41.5711 30.1959 41.4871 30.4648 41.3976ZM19.8359 41.4943C19.8616 41.5023 19.8874 41.5098 19.9131 41.5177C19.8874 41.5098 19.8616 41.5023 19.8359 41.4943ZM19.4297 41.3615C19.4654 41.3736 19.5013 41.3856 19.5371 41.3976C19.5013 41.3856 19.4654 41.3736 19.4297 41.3615ZM19.0127 41.214C19.082 41.2396 19.152 41.2635 19.2217 41.2882C19.152 41.2635 19.082 41.2396 19.0127 41.214ZM18.6406 41.0714C18.6991 41.0945 18.7577 41.1173 18.8164 41.1398C18.7577 41.1173 18.6991 41.0945 18.6406 41.0714ZM18.2471 40.9103C18.3035 40.9342 18.3603 40.9572 18.417 40.9806C18.3603 40.9572 18.3035 40.9342 18.2471 40.9103ZM17.8701 40.7443C17.9272 40.7701 17.9846 40.7952 18.042 40.8204C17.9846 40.7952 17.9272 40.7701 17.8701 40.7443ZM17.4619 40.5529C17.5322 40.587 17.603 40.6202 17.6738 40.6534C17.603 40.6202 17.5322 40.587 17.4619 40.5529ZM17.1143 40.379C17.1701 40.4077 17.2261 40.4359 17.2822 40.464C17.2261 40.4359 17.1701 40.4077 17.1143 40.379ZM28.7979 40.255H28.7988H28.7979ZM16.7578 40.1906C16.8075 40.2175 16.8573 40.2441 16.9072 40.2706C16.8573 40.2441 16.8075 40.2175 16.7578 40.1906ZM16.3955 39.9884C16.4479 40.0185 16.5009 40.0477 16.5537 40.0773C16.5009 40.0477 16.4479 40.0185 16.3955 39.9884ZM29.9121 39.9337C29.8962 39.9389 29.8802 39.9442 29.8643 39.9493C29.8802 39.9442 29.8962 39.9389 29.9121 39.9337ZM16.0332 39.7736C16.0861 39.8057 16.1391 39.8377 16.1924 39.8693C16.1391 39.8377 16.0861 39.8057 16.0332 39.7736ZM15.7051 39.5695C15.7466 39.596 15.7883 39.6224 15.8301 39.6486C15.7883 39.6224 15.7466 39.596 15.7051 39.5695ZM30.9824 39.5382C30.9646 39.5455 30.9466 39.5524 30.9287 39.5597C30.9466 39.5524 30.9646 39.5455 30.9824 39.5382ZM34.9482 39.1329V39.1339V39.1329ZM15.0195 39.1085C15.05 39.1301 15.0807 39.1516 15.1113 39.173C15.0807 39.1516 15.05 39.1301 15.0195 39.1085ZM14.6729 38.8566C14.7147 38.8877 14.7567 38.9185 14.7988 38.9493C14.7567 38.9185 14.7147 38.8877 14.6729 38.8566ZM14.3574 38.6154C14.3905 38.6412 14.4238 38.6669 14.457 38.6925C14.4238 38.6669 14.3905 38.6412 14.3574 38.6154ZM14.0039 38.3312C14.0567 38.3748 14.1097 38.4181 14.1631 38.4611C14.1097 38.4181 14.0567 38.3748 14.0039 38.3312ZM13.7109 38.0851C13.7562 38.1241 13.802 38.1627 13.8477 38.2013C13.802 38.1627 13.7562 38.1241 13.7109 38.0851ZM36.5713 37.837V37.838V37.837ZM13.0615 37.4952C13.121 37.552 13.1809 37.6083 13.2412 37.6642C13.1809 37.6083 13.121 37.552 13.0615 37.4952ZM12.8135 37.2531C12.8556 37.2949 12.8979 37.3366 12.9404 37.3781C12.8979 37.3366 12.8556 37.2949 12.8135 37.2531ZM12.2451 36.6613C12.2787 36.6979 12.3128 36.7342 12.3467 36.7706C12.3128 36.7342 12.2787 36.6979 12.2451 36.6613ZM35.7549 36.464C35.6946 36.5206 35.6335 36.5763 35.5723 36.632C35.6335 36.5763 35.6946 36.5206 35.7549 36.464ZM11.9512 36.3322C11.9862 36.3724 12.0213 36.4124 12.0566 36.4523C12.0213 36.4124 11.9862 36.3724 11.9512 36.3322ZM11.7061 36.0441C11.734 36.0776 11.7618 36.1113 11.79 36.1447C11.7618 36.1113 11.734 36.0776 11.7061 36.0441ZM11.4443 35.7218C11.4767 35.7626 11.5092 35.8033 11.542 35.8439C11.5092 35.8033 11.4767 35.7626 11.4443 35.7218ZM11.1846 35.3859C11.2153 35.4267 11.2462 35.4674 11.2773 35.5079C11.2462 35.4674 11.2153 35.4267 11.1846 35.3859ZM10.9355 35.047C10.9722 35.0982 11.0087 35.1495 11.0459 35.2003C11.0087 35.1495 10.9722 35.0982 10.9355 35.047ZM10.7051 34.7169C10.737 34.7638 10.7684 34.811 10.8008 34.8575C10.7684 34.811 10.737 34.7638 10.7051 34.7169ZM10.4482 34.3302C10.4899 34.3949 10.5318 34.4594 10.5742 34.5236C10.5318 34.4594 10.4899 34.3949 10.4482 34.3302ZM10.2305 33.9825C10.2714 34.0496 10.3127 34.1163 10.3545 34.1827C10.3127 34.1163 10.2714 34.0496 10.2305 33.9825ZM10.002 33.5968C10.0459 33.6732 10.0897 33.7497 10.1348 33.8253C10.0897 33.7497 10.0459 33.6732 10.002 33.5968ZM38.1504 33.6173C38.1078 33.6821 38.065 33.7466 38.0215 33.8107C38.065 33.7466 38.1078 33.6821 38.1504 33.6173ZM9.78906 33.2159C9.83943 33.3089 9.89038 33.4014 9.94238 33.4933C9.89038 33.4014 9.83943 33.3089 9.78906 33.2159ZM38.3535 33.298C38.3212 33.3497 38.2897 33.4019 38.2568 33.4532C38.2897 33.4019 38.3212 33.3497 38.3535 33.298ZM38.5518 32.9728C38.523 33.0214 38.4941 33.07 38.4648 33.1183C38.4561 33.1328 38.4483 33.1478 38.4395 33.1622C38.4777 33.0996 38.5144 33.036 38.5518 32.9728ZM38.6592 32.7911C38.6877 32.7413 38.7152 32.6909 38.7432 32.6407C38.7152 32.6909 38.6877 32.7413 38.6592 32.7911ZM9.4502 32.5568C9.47739 32.6125 9.50446 32.6683 9.53223 32.7238C9.50446 32.6683 9.47738 32.6125 9.4502 32.5568ZM9.06152 31.7013C9.1016 31.7964 9.14187 31.8913 9.18359 31.9855C9.14187 31.8913 9.1016 31.7964 9.06152 31.7013ZM8.94629 31.42C8.96848 31.4754 8.98995 31.531 9.0127 31.5861C8.98996 31.531 8.96848 31.4754 8.94629 31.42ZM8.76953 30.9601C8.79893 31.04 8.82786 31.12 8.8584 31.1993C8.82786 31.12 8.79893 31.04 8.76953 30.9601ZM39.5537 30.9601C39.534 31.008 39.5143 31.0559 39.4941 31.1036C39.4964 31.0983 39.4997 31.0934 39.502 31.088L39.5537 30.9601ZM8.62598 30.5568C8.6525 30.6348 8.67943 30.7126 8.70703 30.7902C8.67943 30.7126 8.6525 30.6348 8.62598 30.5568ZM39.7119 30.5587C39.6826 30.6361 39.6535 30.7134 39.623 30.7902C39.6535 30.7134 39.6826 30.6361 39.7119 30.5587ZM39.9561 29.8634C39.9326 29.9354 39.9102 30.0077 39.8857 30.0792C39.8448 30.199 39.8026 30.3182 39.7588 30.4366C39.8287 30.2474 39.8933 30.0559 39.9561 29.8634ZM8.50195 30.1749C8.52673 30.2539 8.55127 30.3328 8.57715 30.4113C8.55127 30.3328 8.52673 30.2539 8.50195 30.1749ZM40.0625 29.5284C40.0452 29.5859 40.0277 29.6432 40.0098 29.7003C40.0063 29.7113 40.0035 29.7225 40 29.7335C40.0069 29.7116 40.0147 29.69 40.0215 29.6681L40.0625 29.5284ZM40.1289 29.3029C40.1252 29.3158 40.1219 29.3289 40.1182 29.3419C40.1219 29.3289 40.1262 29.3159 40.1299 29.3029C40.1529 29.2222 40.1736 29.1409 40.1953 29.0597C40.1736 29.1409 40.1519 29.2221 40.1289 29.3029ZM8.16309 28.9347C8.18288 29.0195 8.2026 29.1043 8.22363 29.1886C8.2026 29.1043 8.18288 29.0195 8.16309 28.9347ZM7.7627 23.6027C7.7346 23.9576 7.71916 24.3155 7.71289 24.6759C7.7194 24.3016 7.73656 23.93 7.7666 23.5616L7.7627 23.6027ZM7.85938 22.6964C7.85133 22.7572 7.84432 22.8181 7.83691 22.879C7.84432 22.8181 7.85133 22.7572 7.85938 22.6964ZM7.91895 22.2843C7.91053 22.3379 7.90343 22.3917 7.89551 22.4454C7.90343 22.3917 7.91053 22.3379 7.91895 22.2843ZM8.06348 21.4865C8.05379 21.5335 8.04543 21.5809 8.03613 21.6281C8.04543 21.5809 8.05379 21.5335 8.06348 21.4865ZM8.26953 20.6027C8.24807 20.6847 8.22828 20.7672 8.20801 20.8497C8.22828 20.7672 8.24807 20.6847 8.26953 20.6027ZM8.40039 20.13C8.35459 20.2867 8.31097 20.4442 8.26953 20.6027C8.31097 20.4442 8.35459 20.2867 8.40039 20.13ZM8.49512 19.8185C8.46272 19.922 8.43088 20.0257 8.40039 20.13C8.43088 20.0257 8.46272 19.922 8.49512 19.8185ZM8.62891 19.4103C8.60206 19.4891 8.57651 19.5683 8.55078 19.6476C8.57651 19.5683 8.60206 19.4891 8.62891 19.4103ZM8.7627 19.0323C8.73603 19.105 8.71028 19.178 8.68457 19.2511C8.71028 19.178 8.73603 19.105 8.7627 19.0323ZM8.86426 18.7599C8.84796 18.8021 8.83238 18.8445 8.81641 18.8868C8.85567 18.7828 8.8963 18.6794 8.9375 18.5763L8.86426 18.7599ZM9.08887 18.2101C9.03816 18.3289 8.98853 18.4483 8.94043 18.5685C8.98852 18.4483 9.03817 18.3289 9.08887 18.2101ZM9.2373 17.8702C9.19756 17.9581 9.15842 18.0463 9.12012 18.1349C9.15842 18.0463 9.19757 17.9581 9.2373 17.8702ZM9.42578 17.4679C9.38097 17.5605 9.33714 17.6537 9.29395 17.7472C9.33714 17.6537 9.38097 17.5605 9.42578 17.4679ZM40.3574 17.0363C40.4455 17.2061 40.5326 17.3768 40.6152 17.5499C40.5326 17.3768 40.4455 17.2061 40.3574 17.0363ZM9.52148 17.2716C9.506 17.3026 9.49186 17.3343 9.47656 17.3654C9.5284 17.26 9.58086 17.155 9.63477 17.0509L9.52148 17.2716ZM9.78613 16.7657C9.73906 16.8527 9.6921 16.9397 9.64648 17.0275C9.6921 16.9397 9.73906 16.8527 9.78613 16.7657ZM10.0049 16.3741C9.9577 16.4561 9.9111 16.5384 9.86523 16.6212C9.9111 16.5384 9.9577 16.4561 10.0049 16.3741ZM10.1914 16.0568C10.1501 16.1251 10.1097 16.1939 10.0693 16.2628C10.1097 16.1939 10.1501 16.1251 10.1914 16.0568ZM11.9111 16.2628L11.9502 16.2062C11.9552 16.1988 11.9598 16.1911 11.9648 16.1837C11.947 16.2101 11.9288 16.2363 11.9111 16.2628ZM10.4219 15.6857C10.3743 15.7601 10.3277 15.8351 10.2812 15.9103C10.3277 15.8351 10.3743 15.7601 10.4219 15.6857ZM10.6836 15.2882C10.6183 15.3844 10.5546 15.4817 10.4912 15.5792C10.5546 15.4817 10.6183 15.3844 10.6836 15.2882ZM10.9424 14.9171C10.8545 15.0396 10.7683 15.1634 10.6836 15.2882C10.7683 15.1634 10.8545 15.0396 10.9424 14.9171ZM11.1738 14.6036C11.0958 14.7074 11.0181 14.8116 10.9424 14.9171C11.0181 14.8116 11.0958 14.7074 11.1738 14.6036ZM12.5312 13.0079C12.1185 13.4375 11.7281 13.8884 11.3613 14.3585C11.7281 13.8884 12.1186 13.4375 12.5312 13.0079ZM14.6885 11.1066C14.5017 11.2456 14.3176 11.388 14.1367 11.5343C14.3176 11.388 14.5017 11.2456 14.6885 11.1066ZM15.0303 10.8585C14.9598 10.9083 14.89 10.959 14.8203 11.0099C14.89 10.959 14.9598 10.9083 15.0303 10.8585ZM15.3633 10.6281C15.2825 10.6824 15.2029 10.7384 15.123 10.7941C15.2029 10.7384 15.2825 10.6824 15.3633 10.6281ZM16.0693 10.1788C15.8557 10.308 15.6449 10.4413 15.4375 10.5792C15.6449 10.4413 15.8557 10.3079 16.0693 10.1788ZM16.4326 9.96497C16.3346 10.021 16.2374 10.078 16.1406 10.1359C16.2374 10.078 16.3346 10.021 16.4326 9.96497ZM16.7793 9.77258C16.686 9.82312 16.5933 9.87469 16.501 9.92688C16.5933 9.87469 16.686 9.82312 16.7793 9.77258ZM17.1299 9.58704C17.0527 9.62654 16.9759 9.66654 16.8994 9.70715C16.9759 9.66654 17.0527 9.62653 17.1299 9.58704ZM17.5195 9.39465C17.435 9.43528 17.3504 9.47574 17.2666 9.5177C17.3504 9.47574 17.435 9.43528 17.5195 9.39465ZM17.8604 9.2345C17.791 9.26599 17.7222 9.2988 17.6533 9.33118C17.7222 9.2988 17.791 9.26599 17.8604 9.2345ZM18.6396 8.90442C18.5603 8.93582 18.4811 8.96759 18.4023 9.00012C18.4811 8.96759 18.5603 8.93582 18.6396 8.90442ZM19.0488 8.74817C18.9648 8.77896 18.8813 8.81085 18.7979 8.8429C18.8813 8.81085 18.9648 8.77896 19.0488 8.74817ZM19.4502 8.60754C19.3572 8.63903 19.2642 8.67023 19.1719 8.70325C19.2642 8.67023 19.3572 8.63903 19.4502 8.60754ZM19.8936 8.46301C19.7867 8.49598 19.6802 8.52961 19.5742 8.56458C19.6802 8.52961 19.7867 8.49598 19.8936 8.46301ZM20.2803 8.34875C20.1701 8.37992 20.0604 8.41215 19.9512 8.44543C20.0604 8.41216 20.1701 8.37992 20.2803 8.34875ZM20.623 8.25598C20.5395 8.27776 20.4561 8.2994 20.373 8.32239C20.4561 8.2994 20.5395 8.27776 20.623 8.25598ZM21.0244 8.15735C20.9573 8.17314 20.8901 8.18863 20.8232 8.2052C20.8901 8.18863 20.9573 8.17314 21.0244 8.15735ZM21.4316 8.06653C21.3609 8.08136 21.2901 8.09575 21.2197 8.11145C21.2901 8.09576 21.3609 8.08136 21.4316 8.06653ZM23.6807 7.74719C23.318 7.77463 22.9585 7.81304 22.6025 7.86243C22.9585 7.81305 23.318 7.77463 23.6807 7.74719Z" fill="white" fill-opacity="0.3"/>
</g>
</g>
</g>
</svg>
