<svg width="50" height="50" viewBox="0 0 50 50" fill="none" xmlns="http://www.w3.org/2000/svg">
<rect width="50" height="50" fill="#BEBEBE"/>
<g id="Decorate Mode">
<path d="M-121.803 -1239.03V-1238.03H2898.2V-1239.03V-1240.03H-121.803V-1239.03ZM2900.2 -1237.03H2899.2V2300.97H2900.2H2901.2V-1237.03H2900.2ZM2898.2 2302.97V2301.97H-121.803V2302.97V2303.97H2898.2V2302.97ZM-123.803 2300.97H-122.803V-1237.03H-123.803H-124.803V2300.97H-123.803ZM-121.803 2302.97V2301.97C-122.356 2301.97 -122.803 2301.52 -122.803 2300.97H-123.803H-124.803C-124.803 2302.62 -123.46 2303.97 -121.803 2303.97V2302.97ZM2900.2 2300.97H2899.2C2899.2 2301.52 2898.75 2301.97 2898.2 2301.97V2302.97V2303.97C2899.85 2303.97 2901.2 2302.62 2901.2 2300.97H2900.2ZM2898.2 -1239.03V-1238.03C2898.75 -1238.03 2899.2 -1237.59 2899.2 -1237.03H2900.2H2901.2C2901.2 -1238.69 2899.85 -1240.03 2898.2 -1240.03V-1239.03ZM-121.803 -1239.03V-1240.03C-123.46 -1240.03 -124.803 -1238.69 -124.803 -1237.03H-123.803H-122.803C-122.803 -1237.59 -122.356 -1238.03 -121.803 -1238.03V-1239.03Z" fill="black" fill-opacity="0.1"/>
<g id="Stickers">
<rect x="-69.7944" y="-366.534" width="374" height="551" rx="4.5" stroke="#9747FF" stroke-dasharray="10 5"/>
<g id="Property 1=saturn">
<g id="Frame 190">
<path id="Vector" d="M24.6961 14.5854C24.8924 14.5638 25.2379 14.5853 25.44 14.5937C26.3915 14.6333 27.3104 14.7859 28.2193 15.075C30.8639 15.9 33.0621 17.7597 34.3138 20.2311C34.8976 20.3499 35.5165 20.3806 36.1073 20.4751C38.3104 20.827 41.2743 21.4559 43.1398 22.7062C43.7892 23.1414 44.4645 23.7471 44.6195 24.5518C44.7286 25.1182 44.5746 25.6826 44.2491 26.1506C42.8356 28.1834 38.4869 29.0874 36.1852 29.4863C35.5255 29.6008 34.858 29.6685 34.1993 29.7849C33.7716 30.5718 33.4376 31.0984 32.8309 31.7656C30.8387 33.9568 28.3133 35.04 25.3934 35.2068C24.2452 35.2212 23.3056 35.1428 22.1844 34.8377C19.4682 34.0735 17.1677 32.26 15.7903 29.7974C15.5679 29.7439 15.238 29.7083 14.9991 29.6731C14.5698 29.6079 14.1412 29.5386 13.7134 29.4646C12.8845 29.3201 12.0668 29.1533 11.254 28.9392C9.81187 28.543 8.34053 28.137 7.07327 27.3281C3.98182 25.3547 5.54432 23.0641 8.29942 21.9427C10.365 21.1019 12.3857 20.6924 14.5953 20.386C14.9352 20.3389 15.3388 20.3012 15.671 20.2365L15.7002 20.2306C17.6318 16.704 20.697 14.8303 24.6961 14.5854ZM35.3692 26.1167C36.1732 25.9324 37.0372 25.7119 37.7826 25.3462C38.0126 25.2227 38.889 24.7766 38.548 24.429C37.8441 23.712 36.2997 23.3986 35.3517 23.2013C35.4747 24.1828 35.4996 25.1328 35.3692 26.1167ZM12.3676 25.3899C12.9345 25.6428 14.0382 25.9939 14.6444 26.0982C14.5622 25.5115 14.5368 24.918 14.5686 24.3263C14.5809 24.1304 14.6799 23.3649 14.6593 23.234L14.6169 23.2244C13.7223 23.388 12.7401 23.6471 11.9285 24.0651C11.2783 24.4 11.2514 24.7378 11.8836 25.1309C12.04 25.2261 12.2016 25.3125 12.3676 25.3899Z" fill="#020101"/>
<path id="Vector (Stroke)" d="M24.6005 13.0263C24.9469 12.9994 25.4111 13.0285 25.5051 13.0324C26.5845 13.0774 27.6417 13.2517 28.6929 13.586L28.6923 13.5866C31.4719 14.4559 33.8226 16.317 35.3073 18.8003C35.3327 18.8032 35.3586 18.807 35.3848 18.81C35.6627 18.8417 36.014 18.8778 36.3541 18.9321H36.3535C38.5343 19.2805 41.8242 19.9435 44.0097 21.4083C44.7102 21.8778 45.8716 22.7912 46.1539 24.2562C46.3547 25.2987 46.0588 26.2847 45.5319 27.0425C44.5161 28.5033 42.64 29.3685 41.055 29.9099C39.3842 30.4806 37.624 30.8225 36.4523 31.0256C36.091 31.0883 35.7315 31.1375 35.4056 31.1825C35.3296 31.193 35.2551 31.2034 35.1822 31.2136C34.8529 31.7599 34.5019 32.2509 33.9871 32.817C31.692 35.3413 28.768 36.5789 25.4825 36.7666C25.4594 36.7679 25.4361 36.7687 25.4129 36.769C24.1626 36.7847 23.0714 36.6986 21.774 36.3454C21.7697 36.3443 21.7654 36.343 21.7612 36.3418C18.896 35.5357 16.4349 33.7112 14.8288 31.2264C14.8103 31.2238 14.791 31.222 14.7714 31.2191L14.7647 31.2179C14.3255 31.1512 13.8859 31.0801 13.447 31.0042L13.4451 31.0036C12.588 30.8542 11.7245 30.6788 10.856 30.45C10.8507 30.4487 10.8454 30.4472 10.8402 30.4458C9.43812 30.0606 7.73212 29.6023 6.23261 28.6452C5.30998 28.0563 4.57782 27.3464 4.16535 26.4889C3.73196 25.5878 3.71195 24.6444 4.02497 23.7826C4.60006 22.1996 6.18778 21.1149 7.71027 20.4952C9.94739 19.5846 12.1127 19.1526 14.3808 18.8381C14.5118 18.82 14.6267 18.8068 14.7305 18.7942C16.9487 15.2195 20.3492 13.2861 24.6005 13.0257V13.0263ZM24.6964 14.5852L24.324 14.6133C20.5066 14.9491 17.5716 16.8141 15.7004 20.2303L15.6711 20.2364L15.4105 20.2804C15.1409 20.3205 14.8499 20.3506 14.595 20.386C12.3856 20.6924 10.3648 21.1022 8.29926 21.943L8.04475 22.051C5.45117 23.2067 4.07833 25.4164 7.07307 27.3281C8.34033 28.1369 9.81184 28.5432 11.254 28.9394C12.0667 29.1535 12.8843 29.3198 13.7131 29.4643C14.1409 29.5383 14.5698 29.6079 14.9991 29.6731L15.4007 29.7286C15.5408 29.7486 15.6789 29.7709 15.7901 29.7976C17.1675 32.2601 19.4681 34.0737 22.1842 34.8379C23.1651 35.1049 24.0073 35.1982 24.9716 35.2077L25.3934 35.2065C28.222 35.045 30.6805 34.0237 32.6425 31.968L32.8311 31.7654C33.4377 31.0983 33.7719 30.5715 34.1995 29.7848C34.8581 29.6683 35.5255 29.6008 36.185 29.4863C38.4148 29.0999 42.5655 28.2394 44.108 26.3381L44.249 26.1507C44.5541 25.7119 44.7084 25.1883 44.6365 24.6578L44.6195 24.5516C44.4838 23.8476 43.9499 23.2959 43.3835 22.8774L43.14 22.7059C41.5077 21.612 39.0343 20.9942 36.9656 20.6209L36.1075 20.4751C35.5167 20.3807 34.8974 20.3498 34.3137 20.2309C33.1011 17.8369 31.0002 16.0167 28.4659 15.1552L28.2193 15.0753C27.4239 14.8223 26.6208 14.6735 25.795 14.6139L25.4398 14.5937C25.2377 14.5853 24.8926 14.5636 24.6964 14.5852ZM35.3519 23.2015C36.2998 23.3989 37.8438 23.7121 38.5477 24.4289C38.8887 24.7766 38.0123 25.2228 37.7823 25.3463C37.037 25.7119 36.1728 25.9322 35.369 26.1166C35.4993 25.1328 35.4749 24.1829 35.3519 23.2015ZM14.6591 23.2339C14.6797 23.3648 14.5811 24.1305 14.5688 24.3264C14.537 24.9181 14.5623 25.5116 14.6445 26.0982C14.0383 25.994 12.9342 25.6426 12.3673 25.3896C12.2843 25.351 12.2025 25.3101 12.1219 25.2669L11.8839 25.1308C11.2912 24.7624 11.2775 24.4425 11.8137 24.128L11.9284 24.0652C12.74 23.6471 13.7224 23.3877 14.617 23.2241L14.6591 23.2339ZM37.3813 23.7697C37.3948 23.7585 37.3917 23.7591 37.3776 23.7722C37.3788 23.7713 37.3802 23.7707 37.3813 23.7697Z" fill="#E8E7E7"/>
<path id="Vector (Stroke) (Stroke)" d="M24.5891 12.1086C24.9955 12.0836 25.4877 12.1123 25.5434 12.1146C26.6981 12.1627 27.8369 12.3504 28.9717 12.7113C28.9746 12.7122 28.9772 12.714 28.9801 12.7149C31.8217 13.607 34.2448 15.462 35.8499 17.9381C36.0523 17.9615 36.2782 17.9901 36.4992 18.0254H36.5004C38.6693 18.372 42.1491 19.0552 44.5218 20.6454C45.2526 21.1352 46.6985 22.2295 47.0556 24.0821C47.3106 25.4053 46.9312 26.6396 46.2867 27.5666C45.0895 29.2882 42.9576 30.23 41.3517 30.7785C39.6107 31.3731 37.793 31.7249 36.6092 31.9301C36.3052 31.9828 36.0039 32.0259 35.7303 32.064C35.4351 32.5157 35.1051 32.9528 34.6672 33.4344C32.1938 36.1548 29.0351 37.4831 25.535 37.683C25.4989 37.6851 25.4622 37.6873 25.425 37.6878C24.1148 37.7042 22.9338 37.6124 21.5327 37.231L21.5124 37.225V37.2262C18.5665 36.3974 16.0208 34.5653 14.2934 32.0712C13.9597 32.0188 13.6251 31.9675 13.2913 31.9097C13.289 31.9093 13.2864 31.9077 13.2841 31.9073C12.4117 31.7552 11.5223 31.5752 10.6223 31.3381L10.5972 31.331C9.21729 30.9518 7.37426 30.4628 5.73868 29.4189C4.7282 28.7738 3.84829 27.9492 3.33753 26.8874C2.79356 25.7564 2.7671 24.5552 3.16175 23.4686C3.87022 21.5188 5.75744 20.2984 7.36376 19.6445C9.67905 18.7021 11.9088 18.2568 14.1881 17.9381C16.5757 14.3333 20.1619 12.377 24.5449 12.1086C24.5596 12.1077 24.5744 12.1088 24.5891 12.1086ZM24.6011 13.0258C20.3498 13.2862 16.9492 15.2197 14.731 18.7943C14.6272 18.807 14.5116 18.8204 14.3807 18.8385L13.5352 18.9617C11.5707 19.2675 9.66805 19.698 7.71054 20.4947L7.42474 20.6167C5.99363 21.2523 4.56428 22.299 4.02511 23.7831L3.92347 24.1096C3.72361 24.8797 3.78584 25.7009 4.16502 26.4892C4.57745 27.3466 5.31004 28.0563 6.23254 28.6452C7.73191 29.6022 9.43795 30.0609 10.8399 30.4461C10.8452 30.4475 10.8514 30.4483 10.8567 30.4497C11.725 30.6784 12.5885 30.8539 13.4455 31.0033L13.4467 31.0045L14.7645 31.2174L14.7717 31.2186L14.8291 31.2269C16.4351 33.7114 18.8963 35.5352 21.7611 36.3413C21.7653 36.3425 21.77 36.3438 21.7742 36.3449C23.0716 36.6981 24.1628 36.7851 25.413 36.7694L25.4824 36.767C28.5624 36.5911 31.3248 35.4918 33.5492 33.2753L33.9868 32.8173C34.5016 32.2512 34.8534 31.7601 35.1826 31.2138L35.4062 31.1827C35.569 31.1602 35.7401 31.1367 35.9157 31.1109L36.4526 31.026C37.4778 30.8483 38.9539 30.5642 40.4262 30.1137L41.0552 29.9104C42.541 29.4029 44.2823 28.61 45.3313 27.3095L45.5322 27.0429C46.0262 26.3324 46.3175 25.4206 46.1863 24.4504L46.154 24.2567C45.9071 22.975 44.9876 22.115 44.2922 21.6056L44.01 21.4083C41.8244 19.9435 38.5341 19.2802 36.3533 18.9318H36.3545C36.0144 18.8775 35.6626 18.8415 35.3847 18.8098C35.3586 18.8069 35.3322 18.8032 35.307 18.8003C33.8223 16.3172 31.4723 14.4559 28.6931 13.5866V13.5854C27.7734 13.2929 26.849 13.1237 25.9093 13.0557L25.5051 13.033C25.4343 13.03 25.1558 13.0121 24.8749 13.015L24.6011 13.0258ZM24.6967 14.5851C24.893 14.5636 25.2385 14.5851 25.4405 14.5935L25.7957 14.6138C26.6213 14.6735 27.4243 14.8224 28.2195 15.0754L28.4659 15.1555C31.0002 16.0169 33.1019 17.8365 34.3145 20.2304C34.8981 20.3492 35.5175 20.3812 36.1082 20.4756L36.9656 20.6215C39.0342 20.9947 41.5084 21.6118 43.1406 22.7057L43.3834 22.8779C43.9497 23.2964 44.4841 23.8481 44.6198 24.552L44.6366 24.6573C44.7084 25.1877 44.5542 25.712 44.2491 26.1508L44.108 26.3385L43.9562 26.5131C42.3083 28.2926 38.3448 29.1115 36.1847 29.4859C35.5253 29.6003 34.8581 29.6684 34.1997 29.7848L33.8912 30.3325C33.5884 30.8437 33.2864 31.2649 32.8317 31.765L32.6428 31.9683L32.2697 32.3414C30.3726 34.1482 28.0457 35.055 25.3939 35.2065L24.9718 35.2077C24.1282 35.1994 23.378 35.1271 22.5467 34.9303L22.1844 34.8382C19.638 34.1218 17.4572 32.4824 16.0595 30.2512L15.7905 29.798C15.6793 29.7712 15.5408 29.7486 15.4007 29.7286L14.9989 29.6736L13.7134 29.4643C12.8846 29.3198 12.0664 29.1535 11.2537 28.9394C9.90181 28.568 8.52453 28.187 7.31353 27.4745L7.07318 27.3287C4.07844 25.4169 5.45178 23.2062 8.04536 22.0504L8.30006 21.9428C10.3653 21.1023 12.3856 20.6923 14.5947 20.3859L15.4102 20.2807L15.6709 20.2364L15.7008 20.2304C17.5721 16.8142 20.5074 14.9497 24.3249 14.6138L24.6967 14.5851ZM24.7972 15.4975C24.787 15.4986 24.7764 15.5003 24.7661 15.5011L24.4038 15.5274C20.8865 15.8371 18.2265 17.5299 16.5056 20.6717C16.3764 20.9072 16.1503 21.0749 15.8874 21.1297L15.8587 21.1357C15.8472 21.138 15.8355 21.1397 15.824 21.1416L15.5633 21.1859C15.5575 21.1869 15.5512 21.1874 15.5454 21.1883C15.2999 21.2248 14.9021 21.2709 14.7215 21.2959C12.5511 21.5969 10.6181 21.9907 8.6576 22.787L8.6588 22.7882L8.41725 22.8887L8.41844 22.8899C7.20661 23.43 6.51498 24.1227 6.34016 24.68C6.26498 24.9201 6.27341 25.1642 6.41549 25.4429C6.56943 25.7445 6.9048 26.131 7.56704 26.5538C8.69781 27.2755 10.032 27.6506 11.4976 28.0533C12.2743 28.2575 13.0619 28.418 13.8713 28.5591H13.8701C14.2916 28.632 14.7145 28.7006 15.1376 28.7648H15.1364L15.5262 28.8186L15.531 28.8198C15.6026 28.83 15.682 28.8417 15.763 28.8557L16.0045 28.9047L16.0966 28.9322C16.3058 29.0062 16.4823 29.154 16.5917 29.3495C17.85 31.5991 19.952 33.2552 22.4331 33.9533H22.4319C23.3218 34.195 24.0827 34.2792 24.9801 34.2882H25.3556C27.9716 34.1358 30.1971 33.1992 31.9779 31.3334L32.1513 31.148C32.6922 30.5531 32.9863 30.0933 33.3925 29.346C33.526 29.1005 33.7644 28.9296 34.0395 28.8808C34.3885 28.8191 34.7372 28.7708 35.0666 28.7253C35.4015 28.6791 35.7169 28.6358 36.0281 28.5818C37.1304 28.3908 38.6722 28.0876 40.1153 27.6085C41.5896 27.1189 42.7838 26.5001 43.3822 25.7741L43.5041 25.6115C43.6908 25.3368 43.7623 25.0468 43.7266 24.7816V24.7804L43.7182 24.7254L43.6811 24.5903C43.5707 24.2748 43.2862 23.9468 42.8381 23.6157H42.8369L42.6193 23.4627C41.162 22.4901 38.8696 21.8972 36.8125 21.5255V21.5267L35.9539 21.3808H35.9527C35.6868 21.3387 35.4153 21.3099 35.1037 21.2744C34.8003 21.2398 34.4647 21.199 34.1303 21.1309C33.8555 21.0748 33.6209 20.8956 33.4942 20.6454C32.3901 18.466 30.4776 16.8091 28.1705 16.0248V16.0236L27.9409 15.9495C27.2208 15.7205 26.4918 15.5849 25.7371 15.5298L25.4023 15.5107V15.5119C25.1405 15.5009 24.9031 15.486 24.7972 15.4975ZM34.7294 22.5264C34.9473 22.3254 35.2488 22.2424 35.539 22.3027C36.004 22.3996 36.6772 22.5369 37.3255 22.7476C37.9493 22.9503 38.6894 23.2626 39.2029 23.7855H39.2041C39.3534 23.9378 39.4796 24.1443 39.5257 24.4002C39.5712 24.6526 39.5248 24.8775 39.4552 25.0483C39.33 25.3551 39.101 25.5665 38.9661 25.6785C38.6748 25.9204 38.3051 26.1086 38.2176 26.1556C38.2076 26.1609 38.1966 26.1662 38.1865 26.1711C37.3363 26.5881 36.3791 26.8274 35.5749 27.0118C35.2815 27.079 34.9735 26.9979 34.751 26.7953C34.5285 26.5927 34.4197 26.2936 34.4592 25.9954C34.5769 25.1062 34.5568 24.2372 34.4412 23.3156C34.4044 23.0214 34.5115 22.7274 34.7294 22.5264ZM14.5457 22.3087C14.6389 22.3014 14.7329 22.3079 14.8243 22.3291L14.8673 22.3398L14.9989 22.3805C15.2971 22.499 15.5159 22.7672 15.5669 23.0908C15.5833 23.1954 15.5808 23.2948 15.58 23.3311C15.5788 23.3854 15.5754 23.4427 15.5717 23.4961C15.5641 23.6043 15.5526 23.7307 15.5406 23.8489C15.5137 24.1132 15.4903 24.3098 15.4856 24.3846C15.4577 24.9143 15.4802 25.4454 15.5537 25.9702C15.5944 26.2606 15.494 26.553 15.2835 26.7571C15.073 26.9611 14.7783 27.0529 14.4895 27.0034C13.7978 26.8844 12.6204 26.508 11.9939 26.2285L11.9795 26.2226V26.2214C11.8818 26.1758 11.7848 26.128 11.6889 26.0767C11.6814 26.0727 11.6736 26.0689 11.6662 26.0647L11.4283 25.9284C11.4185 25.9228 11.4091 25.9164 11.3996 25.9104C11.2103 25.7928 11.0158 25.6489 10.8579 25.4692C10.699 25.2885 10.531 25.0184 10.5087 24.6668C10.4618 23.9239 11.0574 23.5071 11.3493 23.3359L11.3732 23.3228L11.4868 23.2594C11.4937 23.2556 11.5014 23.2522 11.5084 23.2486C12.4359 22.7709 13.5196 22.4913 14.4524 22.3207L14.5457 22.3087ZM35.3524 23.202C35.4754 24.1831 35.4994 25.1327 35.3692 26.1161C36.173 25.9318 37.037 25.7117 37.7823 25.346C38.0123 25.2225 38.8887 24.7765 38.5476 24.4289C37.8438 23.7123 36.3004 23.3993 35.3524 23.202ZM14.6174 23.2235C13.7228 23.3871 12.7397 23.6473 11.9281 24.0653L11.8145 24.1275C11.2783 24.442 11.2914 24.7624 11.8838 25.1308L12.1218 25.2671C12.2022 25.3101 12.2843 25.3505 12.3669 25.3891C12.9339 25.642 14.0387 25.9939 14.6449 26.0982C14.5627 25.5116 14.5378 24.9177 14.5696 24.326C14.5789 24.1788 14.6361 23.7124 14.6557 23.4328L14.6593 23.2343L14.6174 23.2235ZM36.6762 23.184C36.6747 23.1859 36.6722 23.1875 36.6702 23.19C36.6804 23.1776 36.6915 23.1661 36.7025 23.1542C36.6943 23.1634 36.6849 23.1732 36.6762 23.184Z" fill="#020101"/>
<path id="Vector_2" d="M15.6957 26.3157C15.6421 26.0813 15.5946 25.6828 15.5777 25.4341C15.4109 22.9837 16.2444 20.7163 17.8194 18.8676C19.4303 16.9808 21.7241 15.8104 24.1972 15.6135C26.019 15.4557 27.8479 15.8256 29.4651 16.6793C29.7324 16.823 30.1191 17.0286 30.3442 17.2207C32.3283 18.4901 33.8066 20.7704 34.2854 23.0584C34.5271 24.2132 34.5151 25.1755 34.342 26.3291C33.3884 26.4993 32.4297 26.6394 31.4675 26.7493C30.2229 26.9099 28.8315 27.0007 27.5786 27.0561C24.8069 27.1948 22.0284 27.1208 19.2679 26.8349C18.2486 26.7302 17.0073 26.5801 15.9994 26.3833L15.6957 26.3157Z" fill="#E9C46A"/>
<path id="Vector_3" d="M30.3442 17.2207C32.3284 18.4901 33.8066 20.7704 34.2854 23.0584C34.5271 24.2132 34.5151 25.1755 34.342 26.3291C33.3884 26.4993 32.4297 26.6394 31.4675 26.7493C31.9412 25.6892 32.2097 24.5488 32.2583 23.3889C32.3337 21.7799 31.9993 20.1786 31.2878 18.7392C31.082 18.323 30.8174 17.8132 30.5076 17.4729C30.4336 17.3761 30.3962 17.3339 30.3442 17.2207Z" fill="#F4A261"/>
<path id="Vector_4" d="M15.6957 26.3157C15.6421 26.0813 15.5946 25.6829 15.5777 25.4341C15.4109 22.9837 16.2444 20.7163 17.8194 18.8676C19.4303 16.9808 21.7241 15.8104 24.1972 15.6135C26.019 15.4557 27.8479 15.8256 29.4651 16.6793C29.7324 16.823 30.1191 17.0286 30.3442 17.2207C30.3962 17.3339 30.4336 17.3761 30.5075 17.4729L30.4641 17.4855C28.0925 16.1344 25.2819 15.7789 22.6488 16.497C20.2746 17.1475 18.3886 18.7116 17.1783 20.837C16.3971 22.2156 15.9802 23.7707 15.9672 25.3552C15.9615 25.6868 15.9861 26.0491 15.9994 26.3833L15.6957 26.3157Z" fill="#E8E7E7"/>
<path id="Vector_5" d="M28.3057 30.2959C28.7625 30.2522 29.2324 30.251 29.6902 30.2158C30.7827 30.1323 31.8955 30.0649 32.9812 29.9209C31.7114 31.9807 29.6125 33.4094 27.27 33.9644C24.7888 34.5554 22.1749 34.1416 19.9977 32.8132C19.1032 32.2576 18.3047 31.5608 17.6333 30.7495C17.4073 30.4866 17.1985 30.2092 17.0083 29.9194C17.7993 30.0342 18.6736 30.0972 19.47 30.1602C21.5251 30.3179 23.5859 30.387 25.647 30.3677C26.5403 30.3579 27.4246 30.3059 28.3057 30.2959Z" fill="#F4A261"/>
<path id="Vector_6" d="M17.0083 29.9194C17.7993 30.0342 18.6736 30.0972 19.47 30.1602C21.5251 30.3179 23.5859 30.387 25.647 30.3677C26.5403 30.3579 27.4246 30.3059 28.3057 30.2959C28.2178 30.4236 27.8135 30.5962 27.6482 30.6753C26.531 31.2102 25.4741 31.6055 24.2543 31.8301C22.3931 32.1602 20.4771 31.9763 18.7127 31.2981C18.3915 31.1729 18.0773 30.9219 17.7726 30.7588C17.744 30.7437 17.6683 30.7471 17.6333 30.7495C17.4073 30.4866 17.1985 30.2092 17.0083 29.9194Z" fill="#E9C46A"/>
<path id="Vector_7" d="M34.7664 21.2329C37.0763 21.5363 39.5426 21.9776 41.6571 22.9779C45.8294 24.9517 42.4373 26.8801 39.8526 27.6497C37.1197 28.4631 34.4737 28.8645 31.648 29.1169C28.8714 29.3491 26.0846 29.4377 23.2988 29.3828C19.6325 29.3115 15.8855 29.0012 12.2958 28.2134C10.8688 27.8862 9.38038 27.4565 8.0721 26.7966C7.2458 26.3931 5.89663 25.3708 6.62696 24.3127C7.56573 22.9525 9.7566 22.3831 11.2493 21.9655C12.4394 21.6597 14.0093 21.3628 15.2325 21.2555L15.1122 21.6001C14.7308 21.6817 14.299 21.7239 13.9 21.8069C12.4421 22.1059 10.9229 22.4506 9.63101 23.2093C8.868 23.6574 8.04244 24.6028 8.70911 25.4651C9.79302 26.8667 12.6152 27.5478 14.2458 27.8704C16.3135 28.2737 18.4049 28.5439 20.5072 28.6794C23.9572 28.9011 27.419 28.8596 30.8629 28.5547C34.0369 28.2664 37.7462 27.8018 40.5457 26.2012C41.3006 25.7695 41.9422 24.7573 41.2987 24.0027C39.9449 22.4152 36.8346 21.9019 34.922 21.5955C34.8746 21.4731 34.8194 21.3529 34.7664 21.2329Z" fill="#F4A261"/>
<path id="Vector_8" d="M34.9814 21.7415C36.1759 21.9259 37.0619 22.0735 38.2384 22.4268C39.0644 22.6628 39.967 23.0137 40.6584 23.5262C41.0148 23.7905 41.3769 24.1651 41.4362 24.6255C41.4767 24.9385 41.3505 25.2388 41.1647 25.4844C39.9953 27.03 35.6281 27.8491 33.7633 28.1013C28.2553 28.8457 22.402 28.9649 16.8895 28.1958C15.4512 27.9951 14.0123 27.7525 12.6135 27.3565C11.5018 27.0418 10.2444 26.6611 9.31825 25.9465C8.97602 25.6824 8.65021 25.3115 8.59958 24.8655C8.56259 24.5396 8.69181 24.232 8.8901 23.9799C9.95128 22.6308 13.3635 21.9573 14.9948 21.7652L15.0153 21.8008C14.9948 21.9416 14.9421 22.093 14.9001 22.2307C13.7796 22.3456 12.1498 22.8432 11.1647 23.4029C10.5316 23.7627 9.96022 24.563 10.5002 25.2351C11.4311 26.3943 13.8097 26.9324 15.1915 27.2063C19.0167 27.9649 22.9852 28.1638 26.871 28.0391C29.4018 27.9805 31.9245 27.728 34.4167 27.2839C35.3481 27.1113 40.8254 26.1091 39.5622 24.0228C38.9384 22.9925 36.3361 22.4399 35.1066 22.2099C35.0729 22.0562 35.0241 21.8939 34.9814 21.7415Z" fill="#F4A261"/>
</g>
<path id="Union" d="M24.5894 12.1089C24.9956 12.0839 25.4876 12.1124 25.5435 12.1148C26.6982 12.1629 27.8374 12.3505 28.9722 12.7115C28.9749 12.7124 28.9772 12.7145 28.98 12.7154C31.8216 13.6075 34.245 15.4619 35.8501 17.938C36.0525 17.9615 36.2786 17.9896 36.4995 18.0249H36.5005C38.6694 18.3715 42.1493 19.0549 44.522 20.6451C45.2528 21.1349 46.699 22.23 47.0562 24.0826C47.3109 25.4056 46.9309 26.6401 46.2866 27.5669C45.0894 29.2883 42.9578 30.2304 41.3521 30.7788C39.6111 31.3735 37.7927 31.725 36.6089 31.9302C36.3051 31.9829 36.0034 32.026 35.73 32.064C35.4348 32.5155 35.1051 32.9527 34.6675 33.4341C32.1941 36.1545 29.0347 37.4832 25.5347 37.6831C25.4988 37.6852 25.4623 37.6875 25.4253 37.688C24.1151 37.7045 22.9339 37.6124 21.5327 37.231L21.5122 37.2251V37.2261C18.5665 36.3972 16.0209 34.5649 14.2935 32.0708C13.9598 32.0185 13.6253 31.9674 13.2915 31.9097C13.2894 31.9093 13.2868 31.9083 13.2847 31.9077C12.4123 31.7556 11.5225 31.5755 10.6226 31.3384L10.5972 31.3306C9.21731 30.9515 7.37427 30.4623 5.73877 29.4185C4.72839 28.7734 3.84813 27.9489 3.3374 26.8872C2.79355 25.7563 2.767 24.5548 3.16162 23.4683C3.87016 21.5185 5.75751 20.298 7.36377 19.6441C9.67895 18.7017 11.9088 18.2567 14.188 17.938C16.5756 14.3332 20.1625 12.3773 24.5454 12.1089C24.56 12.1081 24.5748 12.1091 24.5894 12.1089ZM25.4829 36.7661C25.4598 36.7675 25.4358 36.7688 25.4126 36.7691C25.2564 36.771 25.1026 36.7716 24.9507 36.7701C25.1028 36.7716 25.2572 36.771 25.4136 36.7691L25.4829 36.7671C25.6835 36.7557 25.8827 36.7386 26.0806 36.7193C25.8827 36.7386 25.6835 36.7547 25.4829 36.7661ZM26.2056 36.7056C26.3617 36.689 26.5171 36.6716 26.6714 36.6499C26.5171 36.6716 26.3617 36.689 26.2056 36.7056ZM26.8091 36.6275C26.9623 36.6044 27.1148 36.5804 27.2661 36.5523C27.1148 36.5804 26.9623 36.6044 26.8091 36.6275ZM27.395 36.5259C27.5332 36.4988 27.6706 36.4704 27.8071 36.439C27.6706 36.4704 27.5332 36.4988 27.395 36.5259ZM28.0386 36.3824C28.1491 36.3548 28.2593 36.3269 28.3687 36.2964C28.2593 36.3269 28.1491 36.3548 28.0386 36.3824ZM28.5933 36.23C28.7025 36.1973 28.8114 36.1641 28.9194 36.1284C28.8114 36.1641 28.7025 36.1973 28.5933 36.23ZM29.1538 36.0474C29.2499 36.0135 29.3458 35.9792 29.4409 35.9429C29.3458 35.9792 29.2499 36.0135 29.1538 36.0474ZM29.6987 35.8404C29.79 35.803 29.8809 35.7648 29.9712 35.7251C29.8809 35.7648 29.79 35.803 29.6987 35.8404ZM30.2241 35.6109C30.3106 35.5704 30.3964 35.5285 30.4819 35.4859C30.3964 35.5285 30.3106 35.5704 30.2241 35.6109ZM30.7886 35.3296C30.8123 35.3169 30.8362 35.3044 30.8599 35.2915C30.8362 35.3044 30.8123 35.3169 30.7886 35.3296ZM24.6157 35.1997L24.9722 35.2076C24.8409 35.2063 24.7119 35.2024 24.5845 35.1978C24.5949 35.1982 24.6053 35.1994 24.6157 35.1997ZM31.769 34.7398C31.7786 34.7334 31.7879 34.7267 31.7974 34.7202C31.7879 34.7267 31.7786 34.7334 31.769 34.7398ZM32.2241 34.4175C32.2368 34.4081 32.2495 34.3987 32.2622 34.3892C32.2495 34.3987 32.2368 34.4081 32.2241 34.4175ZM33.0991 33.7007C33.1268 33.6757 33.1546 33.6508 33.1821 33.6255C33.1546 33.6508 33.1268 33.6757 33.0991 33.7007ZM16.5718 33.3521V33.3511V33.3521ZM18.3843 32.8716C18.4506 32.9253 18.5178 32.9778 18.5854 33.0298C18.5796 33.0253 18.5737 33.0207 18.5679 33.0161C18.5114 32.9725 18.4555 32.9281 18.3999 32.8833C18.3948 32.8792 18.3893 32.8757 18.3843 32.8716ZM14.8999 31.3306C15.0805 31.6038 15.2694 31.8702 15.4702 32.1265C15.2694 31.8701 15.0805 31.6038 14.8999 31.3306ZM35.4058 31.1822C35.3298 31.1926 35.2551 31.2032 35.1821 31.2134H35.1831L35.4067 31.1831C35.5693 31.1607 35.7402 31.1366 35.9155 31.1109L35.4058 31.1822ZM16.6587 31.1118H16.6597H16.6587ZM33.4614 30.9898C33.4353 31.0261 33.4094 31.0629 33.3823 31.0992C33.3617 31.1268 33.341 31.1545 33.3198 31.1822C33.353 31.1388 33.3867 31.0965 33.4185 31.0533C33.4336 31.0326 33.4466 31.0105 33.4614 30.9898ZM36.4526 31.0259L37.2993 30.8716C37.3179 30.8681 37.3363 30.8635 37.355 30.8599C37.0281 30.9231 36.7246 30.9788 36.4526 31.0259ZM38.145 30.6978C38.2469 30.6758 38.3502 30.6539 38.4546 30.6304C38.3502 30.6539 38.2469 30.6758 38.145 30.6978ZM33.8911 30.3326C33.8406 30.4178 33.7899 30.5005 33.7388 30.5816C33.7899 30.5005 33.8406 30.4178 33.8911 30.3326ZM38.6655 30.5816C38.7841 30.554 38.904 30.5253 39.0249 30.4956C38.904 30.5253 38.7841 30.554 38.6655 30.5816ZM39.229 30.4458C39.3976 30.4032 39.5676 30.3579 39.7388 30.3111C39.5676 30.3579 39.3976 30.4032 39.229 30.4458ZM42.271 29.4419C41.8594 29.6203 41.4485 29.7753 41.0552 29.9097C40.6413 30.0511 40.2217 30.1778 39.8071 30.2925C40.0126 30.2357 40.2197 30.177 40.4263 30.1138L41.0552 29.9107C41.4485 29.7763 41.8594 29.6204 42.271 29.4419ZM42.3267 29.4185C42.405 29.3841 42.4829 29.3482 42.561 29.312C42.4829 29.3482 42.405 29.3841 42.3267 29.4185ZM42.6421 29.274C42.7188 29.2378 42.7953 29.2006 42.8716 29.1626C42.7953 29.2006 42.7188 29.2378 42.6421 29.274ZM37.4194 29.2534C37.4925 29.2386 37.5665 29.2242 37.6411 29.2085C37.5665 29.2242 37.4925 29.2386 37.4194 29.2534ZM38.1792 29.0894C38.0995 29.1075 38.0203 29.1249 37.9419 29.1421C38.0203 29.1249 38.0995 29.1075 38.1792 29.0894ZM42.9409 29.1275C43.0105 29.0922 43.08 29.0568 43.1489 29.0201C43.08 29.0568 43.0105 29.0923 42.9409 29.1275ZM43.2681 28.9556C43.3268 28.9232 43.3848 28.8895 43.4429 28.856C43.3848 28.8895 43.3268 28.9233 43.2681 28.9556ZM43.5591 28.7876C43.6179 28.7526 43.676 28.7166 43.7339 28.6802C43.676 28.7166 43.6179 28.7526 43.5591 28.7876ZM43.8433 28.6118C43.9006 28.5746 43.9569 28.5361 44.0132 28.4976C43.9569 28.5361 43.9006 28.5746 43.8433 28.6118ZM44.1196 28.4243C44.1843 28.3784 44.2481 28.3315 44.311 28.2837C44.2481 28.3315 44.1843 28.3784 44.1196 28.4243ZM9.08545 28.2837C9.02344 28.2615 8.96253 28.2364 8.90088 28.2134C8.88756 28.2084 8.87414 28.2038 8.86084 28.1988C8.93571 28.227 9.01004 28.2567 9.08545 28.2837ZM44.3901 28.2222C44.4457 28.1787 44.5003 28.1344 44.5542 28.0894C44.5002 28.1344 44.4457 28.1788 44.3901 28.2222ZM8.3667 27.9995C8.47359 28.0453 8.58063 28.0907 8.68896 28.1333C8.68137 28.1303 8.67409 28.1266 8.6665 28.1236C8.57672 28.0881 8.48772 28.0509 8.39893 28.0132C8.38818 28.0087 8.37743 28.0041 8.3667 27.9995ZM44.6538 28.0044C44.7061 27.959 44.7576 27.9128 44.8081 27.8658C44.7576 27.9128 44.7061 27.959 44.6538 28.0044ZM8.18799 27.9224C8.18588 27.9214 8.18424 27.9194 8.18213 27.9185C8.14117 27.9 8.0988 27.8847 8.05811 27.8658C8.1009 27.8857 8.14491 27.903 8.18799 27.9224ZM44.9009 27.7798C44.9399 27.7419 44.9764 27.7016 45.0142 27.6626C44.9764 27.7016 44.9399 27.7419 44.9009 27.7798ZM7.55713 27.6138H7.55811H7.55713ZM45.5317 27.0425C45.4683 27.1337 45.4014 27.2225 45.3315 27.3091L45.5327 27.0425C45.5413 27.0301 45.5487 27.0169 45.5571 27.0044C45.5486 27.017 45.5404 27.0301 45.5317 27.0425ZM4.33447 26.8042C4.39577 26.9068 4.46219 27.0069 4.53271 27.105L4.43018 26.9556C4.39731 26.9056 4.36502 26.8554 4.33447 26.8042ZM45.6909 26.7915C45.6997 26.7767 45.7097 26.7626 45.7183 26.7476C45.7097 26.7626 45.6997 26.7767 45.6909 26.7915ZM45.8413 26.5132C45.8521 26.491 45.8621 26.4683 45.8726 26.4458C45.8621 26.4683 45.8521 26.491 45.8413 26.5132ZM4.02881 26.1665C4.0363 26.1868 4.04436 26.2069 4.05225 26.2271C4.04435 26.2069 4.0363 26.1868 4.02881 26.1665ZM45.9819 26.187C45.9909 26.1634 45.9998 26.1397 46.0083 26.1158C45.9998 26.1397 45.9909 26.1634 45.9819 26.187ZM46.0259 26.065C46.0397 26.024 46.0525 25.9826 46.0649 25.9409C46.0525 25.9826 46.0397 26.024 46.0259 26.065ZM3.92725 25.8443C3.9343 25.8709 3.941 25.8977 3.94873 25.9243C3.94099 25.8977 3.93431 25.8709 3.92725 25.8443ZM46.0757 25.9038C46.0814 25.8839 46.0888 25.8644 46.0942 25.8443L46.1157 25.7564C46.1036 25.806 46.0897 25.855 46.0757 25.9038ZM36.9028 25.7017C36.8019 25.7356 36.7003 25.7684 36.5981 25.7993L36.9038 25.7017H36.9028ZM46.1255 25.7134C46.1335 25.6788 46.1409 25.6439 46.1479 25.6089C46.141 25.6439 46.1335 25.6788 46.1255 25.7134ZM5.46729 25.5415C5.47052 25.5516 5.47364 25.5617 5.47705 25.5718C5.47363 25.5617 5.47052 25.5516 5.46729 25.5415ZM46.1577 25.5562C46.1606 25.5405 46.1648 25.5251 46.1675 25.5093L46.1841 25.396C46.1767 25.4498 46.1675 25.5031 46.1577 25.5562ZM12.3667 25.3892C12.3774 25.3939 12.3889 25.398 12.3999 25.4029C12.389 25.3981 12.3782 25.3939 12.3677 25.3892L12.2515 25.3316C12.29 25.3506 12.3278 25.371 12.3667 25.3892ZM46.2065 24.6441C46.2263 24.8944 46.2177 25.1399 46.186 25.3784C46.2258 25.0787 46.2289 24.768 46.186 24.4507L46.2065 24.6441ZM5.38037 25.1226C5.38199 25.1422 5.38591 25.1616 5.38818 25.1812C5.38668 25.1681 5.3855 25.1551 5.38428 25.1421C5.38303 25.1287 5.38132 25.1154 5.38037 25.1021C5.37981 25.0943 5.37887 25.0865 5.37842 25.0786C5.37927 25.0933 5.37916 25.108 5.38037 25.1226ZM5.37451 24.9409C5.37418 24.9588 5.37626 24.9767 5.37646 24.9947C5.37637 24.9868 5.37645 24.979 5.37646 24.9712C5.37649 24.9562 5.37607 24.9413 5.37646 24.9263C5.37668 24.9182 5.37614 24.91 5.37646 24.9019C5.37595 24.9149 5.37475 24.9279 5.37451 24.9409ZM3.82666 24.6714C3.82526 24.687 3.82394 24.7027 3.82275 24.7183C3.82394 24.7027 3.82526 24.687 3.82666 24.6714ZM5.4165 24.5826C5.4133 24.5974 5.41154 24.6126 5.40869 24.6275C5.41106 24.6151 5.41388 24.6027 5.4165 24.5904C5.4185 24.5809 5.42023 24.5715 5.42236 24.562C5.42406 24.5546 5.42546 24.547 5.42725 24.5396C5.4238 24.554 5.41961 24.5681 5.4165 24.5826ZM46.1538 24.2564L46.1001 24.021C46.0987 24.0158 46.0966 24.0107 46.0952 24.0054C46.1174 24.0872 46.1373 24.1708 46.1538 24.2564ZM5.61182 24.0484C5.6028 24.0659 5.59398 24.0835 5.58545 24.1011C5.59398 24.0835 5.6028 24.0659 5.61182 24.0484ZM46.0659 23.9097C46.0497 23.8562 46.0336 23.8033 46.0151 23.7515C46.0336 23.8033 46.0497 23.8562 46.0659 23.9097ZM45.9858 23.6734C45.9663 23.6224 45.9458 23.5723 45.9243 23.523C45.9458 23.5723 45.9663 23.6224 45.9858 23.6734ZM45.8872 23.44C45.8631 23.3883 45.8381 23.3375 45.812 23.2876C45.8381 23.3375 45.8631 23.3883 45.8872 23.44ZM6.10205 23.3658C6.08153 23.3878 6.06126 23.4099 6.0415 23.4322C6.06126 23.4099 6.08153 23.3878 6.10205 23.3658ZM43.7476 23.1753C43.7656 23.1915 43.7845 23.2067 43.8022 23.2232C43.8061 23.2268 43.8101 23.2303 43.814 23.2339C43.8079 23.2283 43.8025 23.222 43.7964 23.2163C43.7573 23.1803 43.7165 23.1463 43.6763 23.1118C43.7004 23.1325 43.7238 23.1541 43.7476 23.1753ZM45.7778 23.2232C45.7467 23.1663 45.7146 23.1106 45.6812 23.0562C45.7146 23.1106 45.7467 23.1663 45.7778 23.2232ZM6.47119 23.0142C6.43142 23.0479 6.39195 23.0813 6.354 23.1158C6.39194 23.0813 6.43142 23.0479 6.47119 23.0142ZM4.43506 22.9673C4.40708 23.0105 4.38138 23.055 4.35498 23.0992C4.38138 23.055 4.40708 23.0105 4.43506 22.9673ZM43.6108 23.0552C43.6052 23.0505 43.5999 23.0452 43.5942 23.0406C43.5251 22.984 43.4542 22.9298 43.3833 22.8775C43.4601 22.9342 43.5362 22.9935 43.6108 23.0552ZM45.6704 23.0386C45.6324 22.9774 45.5927 22.9181 45.5522 22.8599C45.5927 22.9181 45.6324 22.9774 45.6704 23.0386ZM4.604 22.7222C4.57073 22.7669 4.53987 22.8132 4.5083 22.8589C4.53988 22.8132 4.57073 22.7669 4.604 22.7222ZM7.11084 22.5454C7.04112 22.5894 6.97318 22.6346 6.90674 22.6802C6.97318 22.6346 7.04112 22.5894 7.11084 22.5454ZM4.79639 22.4829C4.76418 22.5209 4.73263 22.5593 4.70166 22.5982C4.73264 22.5593 4.76418 22.5209 4.79639 22.4829ZM45.1655 22.3794C45.1438 22.3557 45.1221 22.3322 45.1001 22.3091C45.1221 22.3322 45.1437 22.3557 45.1655 22.3794ZM5.00342 22.2515C4.97235 22.284 4.94277 22.3179 4.9126 22.3511C4.94277 22.3179 4.97235 22.284 5.00342 22.2515ZM5.21143 22.0454C5.18228 22.073 5.154 22.1013 5.12549 22.1294C5.154 22.1013 5.18228 22.073 5.21143 22.0454ZM44.8726 22.0845C44.8452 22.059 44.8179 22.0338 44.7905 22.0093C44.8179 22.0338 44.8452 22.059 44.8726 22.0845ZM5.47217 21.813C5.42587 21.8521 5.37951 21.8909 5.33447 21.9312C5.37952 21.8909 5.42586 21.8521 5.47217 21.813ZM5.71045 21.6216C5.65947 21.6608 5.60883 21.7002 5.55908 21.7408C5.60884 21.7003 5.65946 21.6608 5.71045 21.6216ZM5.9458 21.4478C5.9014 21.4791 5.85762 21.5112 5.81396 21.5435C5.85762 21.5112 5.90139 21.4791 5.9458 21.4478ZM6.2085 21.2701C6.16268 21.2996 6.11697 21.3294 6.07178 21.3599C6.11698 21.3294 6.16267 21.2996 6.2085 21.2701ZM6.45752 21.1158C6.41763 21.1395 6.3779 21.1636 6.33838 21.188C6.37791 21.1636 6.41763 21.1395 6.45752 21.1158ZM7.71045 20.4947L7.50928 20.5796C7.57634 20.5506 7.64354 20.5229 7.71045 20.4956C7.74007 20.4836 7.76972 20.4714 7.79932 20.4595C7.76985 20.4713 7.73994 20.4827 7.71045 20.4947ZM35.6597 20.4136H35.6606H35.6597ZM8.48779 20.1968C8.4468 20.2116 8.40578 20.2266 8.36475 20.2417C8.40578 20.2266 8.4468 20.2116 8.48779 20.1968ZM40.6929 19.9058V19.9048V19.9058ZM10.0317 19.7027C9.96279 19.722 9.89368 19.7412 9.82471 19.7613C9.89368 19.7412 9.9628 19.722 10.0317 19.7027ZM10.8706 19.4839C10.7003 19.5254 10.5301 19.5686 10.3599 19.6138C10.5301 19.5686 10.7003 19.5253 10.8706 19.4839ZM38.1626 19.2593C38.4871 19.3263 38.8202 19.4004 39.1577 19.482C38.8202 19.4004 38.4871 19.3263 38.1626 19.2593ZM11.7065 19.2945C11.5231 19.333 11.3398 19.3732 11.1567 19.4156C11.3398 19.3732 11.5231 19.333 11.7065 19.2945ZM16.269 19.2876C16.31 19.226 16.3522 19.1654 16.394 19.105C16.3522 19.1654 16.31 19.226 16.269 19.2876ZM14.3804 18.8384L13.5356 18.9615C13.0019 19.0445 12.4727 19.1383 11.9458 19.2447C12.7496 19.0825 13.5588 18.9525 14.3813 18.8384C14.5121 18.8203 14.6272 18.8071 14.731 18.7945L14.3804 18.8384ZM35.8462 18.8628C36.0114 18.8826 36.1849 18.905 36.355 18.9322C36.1849 18.905 36.0113 18.8826 35.8462 18.8628ZM17.3413 17.9136C17.2969 17.9621 17.2532 18.0115 17.2095 18.0611C17.2532 18.0115 17.2969 17.9621 17.3413 17.9136ZM17.8022 17.4419C17.76 17.4825 17.7179 17.5235 17.6763 17.565C17.7179 17.5235 17.76 17.4825 17.8022 17.4419ZM18.0474 17.2134C17.9997 17.2563 17.9528 17.3003 17.9058 17.3443C17.9528 17.3003 17.9997 17.2563 18.0474 17.2134ZM18.5181 16.8159C18.5057 16.8257 18.4933 16.8354 18.481 16.8452C18.4933 16.8354 18.5057 16.8257 18.5181 16.8159ZM19.8599 15.9214C19.8441 15.9302 19.8278 15.938 19.812 15.9468C19.8278 15.938 19.8441 15.9302 19.8599 15.9214ZM20.2319 15.7251C20.1684 15.7568 20.1052 15.7888 20.0425 15.8218C20.1052 15.7888 20.1684 15.7568 20.2319 15.7251ZM20.7075 15.5025C20.6867 15.5116 20.6658 15.5206 20.645 15.5298C20.7212 15.496 20.7983 15.4642 20.8755 15.4322C20.8193 15.4554 20.7631 15.4783 20.7075 15.5025ZM28.4663 15.1558C28.4952 15.1656 28.5235 15.177 28.5522 15.187C28.5701 15.1933 28.5881 15.1992 28.606 15.2056C28.5593 15.189 28.5132 15.1708 28.4663 15.1548V15.1558ZM28.0542 15.0249C28.0004 15.0088 27.9469 14.9923 27.8931 14.9771C27.9469 14.9922 28.0004 15.0088 28.0542 15.0249ZM28.6929 13.5865L29.2085 13.7613C29.5493 13.8853 29.8829 14.0246 30.2085 14.1783C29.7204 13.9479 29.2141 13.7495 28.6929 13.5865V13.5855C28.5648 13.5447 28.4364 13.5072 28.3081 13.4712C28.4365 13.5073 28.5647 13.5457 28.6929 13.5865ZM28.2515 13.4556C28.1464 13.4267 28.0413 13.3994 27.936 13.3736C28.0413 13.3994 28.1464 13.4267 28.2515 13.4556ZM27.8315 13.3482C27.7408 13.3268 27.65 13.3068 27.5591 13.2876C27.65 13.3068 27.7408 13.3267 27.8315 13.3482ZM27.4233 13.2593C27.3518 13.2451 27.2801 13.2321 27.2085 13.2193C27.2801 13.2322 27.3518 13.2451 27.4233 13.2593ZM27.0298 13.188C26.968 13.1779 26.9061 13.1689 26.8442 13.1597C26.9061 13.1689 26.968 13.1779 27.0298 13.188ZM25.5054 13.0327C25.4654 13.0311 25.3593 13.0258 25.2241 13.021C25.3594 13.0255 25.4656 13.0311 25.5054 13.0327Z" fill="white" fill-opacity="0.3"/>
</g>
</g>
</g>
</svg>
