<svg width="50" height="50" viewBox="0 0 50 50" fill="none" xmlns="http://www.w3.org/2000/svg">
<rect width="50" height="50" fill="#BEBEBE"/>
<g id="Decorate Mode">
<path d="M-238.703 -1181.03V-1180.03H2781.3V-1181.03V-1182.03H-238.703V-1181.03ZM2783.3 -1179.03H2782.3V2358.97H2783.3H2784.3V-1179.03H2783.3ZM2781.3 2360.97V2359.97H-238.703V2360.97V2361.97H2781.3V2360.97ZM-240.703 2358.97H-239.703V-1179.03H-240.703H-241.703V2358.97H-240.703ZM-238.703 2360.97V2359.97C-239.255 2359.97 -239.703 2359.52 -239.703 2358.97H-240.703H-241.703C-241.703 2360.62 -240.36 2361.97 -238.703 2361.97V2360.97ZM2783.3 2358.97H2782.3C2782.3 2359.52 2781.85 2359.97 2781.3 2359.97V2360.97V2361.97C2782.95 2361.97 2784.3 2360.62 2784.3 2358.97H2783.3ZM2781.3 -1181.03V-1180.03C2781.85 -1180.03 2782.3 -1179.59 2782.3 -1179.03H2783.3H2784.3C2784.3 -1180.69 2782.95 -1182.03 2781.3 -1182.03V-1181.03ZM-238.703 -1181.03V-1182.03C-240.359 -1182.03 -241.703 -1180.69 -241.703 -1179.03H-240.703H-239.703C-239.703 -1179.59 -239.255 -1180.03 -238.703 -1180.03V-1181.03Z" fill="black" fill-opacity="0.1"/>
<g id="Stickers">
<rect x="-186.694" y="-308.534" width="374" height="551" rx="4.5" stroke="#9747FF" stroke-dasharray="10 5"/>
<g id="Property 1=right flipflop">
<g id="Frame 164">
<path id="Vector" d="M15.8095 9.11531C16.0319 8.98406 16.4048 8.83903 16.6523 8.7622C21.0331 7.40245 25.9002 10.2722 28.1602 13.9715C29.6465 16.4045 30.0726 19.0288 30.816 21.7241C30.9364 22.1602 31.1104 22.4877 31.2683 22.8959C31.454 23.3902 31.6034 23.8973 31.7149 24.4135C31.8352 24.9909 31.9021 25.6015 31.9554 26.1886C31.9894 26.5596 31.9215 26.9927 32.0444 27.3464C32.3791 28.309 32.8017 29.2218 33.2423 30.1383L34.5207 32.7842C34.9075 33.5923 35.2857 34.3308 35.5411 35.1925C36.1995 37.4157 35.5669 39.5468 33.7393 41.0021C32.2735 42.0336 30.7084 42.4635 28.9371 41.9705C26.5161 41.2967 25.5735 39.2694 24.7053 37.14C24.3469 36.2492 23.997 35.3549 23.6557 34.4574C23.4297 33.8573 23.0975 32.9715 22.7945 32.4154C22.6571 32.163 21.8352 31.5655 21.5758 31.3235C20.9251 30.7163 20.3125 30.0797 19.7824 29.3583C19.0119 28.3092 18.4091 27.1463 17.9958 25.9118C17.9038 25.6389 17.6855 24.7117 17.6013 24.5771C17.4374 24.3153 16.9148 23.7457 16.6914 23.4568C16.0463 22.6332 15.4685 21.7591 14.9634 20.843C13.4281 18.0403 12.0546 14.3352 13.6352 11.2458C14.1207 10.2969 14.8836 9.62137 15.8095 9.11531Z" fill="#020101"/>
<path id="Vector (Stroke)" d="M15.0599 7.7453C15.4261 7.53724 15.9005 7.35936 16.1887 7.2699C18.8488 6.44426 21.5783 6.92672 23.8926 8.06857C26.2023 9.20814 28.2077 11.0528 29.4932 13.157C31.1307 15.8374 31.6354 18.82 32.3219 21.3089C32.4185 21.6587 32.4846 21.7101 32.7253 22.3324L32.7302 22.3462C32.9426 22.9116 33.1137 23.4922 33.2414 24.0836L33.2429 24.0896L33.244 24.0952C33.3833 24.7639 33.4559 25.4478 33.5102 26.0457L33.5111 26.0461C33.5259 26.2079 33.5282 26.3591 33.5286 26.4712C33.5291 26.6162 33.5275 26.6551 33.5288 26.7533C33.5296 26.8158 33.5318 26.8529 33.5334 26.8712C33.8347 27.73 34.2182 28.5629 34.6487 29.4584L35.9273 32.1041L35.9298 32.1096C36.2915 32.8652 36.7392 33.7386 37.0385 34.7487C37.8721 37.5636 37.0528 40.3605 34.7122 42.2243L34.6764 42.2533L34.6382 42.28C32.9338 43.4796 30.9633 44.0831 28.7341 43.5329L28.5177 43.4757C25.2816 42.5751 24.1028 39.802 23.2579 37.7297L23.2551 37.7235C22.8931 36.8236 22.5398 35.9195 22.195 35.0128L22.1929 35.0083C21.9731 34.4244 21.7114 33.7368 21.4861 33.2875C21.4254 33.2313 21.3412 33.1577 21.2339 33.0689C21.1135 32.9692 20.9974 32.8767 20.8704 32.7735C20.7624 32.6858 20.62 32.569 20.5092 32.4656C19.8205 31.823 19.132 31.1125 18.5229 30.2837L18.5226 30.2831C17.6563 29.1034 16.9784 27.796 16.5137 26.4079L16.5142 26.4077C16.4744 26.2891 16.4319 26.1372 16.3993 26.0174C16.367 25.8992 16.3192 25.7192 16.2872 25.6011C16.2568 25.4889 16.2295 25.3923 16.2068 25.3151C16.2045 25.3122 16.2019 25.3094 16.1995 25.3064C16.1391 25.2306 16.0633 25.1405 15.9762 25.0378C15.8242 24.8585 15.595 24.5939 15.4548 24.4126L15.4551 24.4118C14.761 23.5247 14.1382 22.5839 13.5944 21.5975L13.5926 21.5936C12.7881 20.1249 11.9809 18.3422 11.5992 16.4631C11.2157 14.5748 11.2436 12.4889 12.2437 10.5341C12.906 9.23949 13.9323 8.36027 15.0594 7.74418L15.0599 7.7453ZM16.6517 8.76236C16.4043 8.83919 16.0315 8.98389 15.8091 9.1151L15.6372 9.21196C14.7887 9.70663 14.0902 10.3564 13.6351 11.246L13.4954 11.5374C12.1405 14.5661 13.4758 18.1277 14.963 20.8429C15.4681 21.759 16.046 22.6331 16.6911 23.4566C16.9146 23.7455 17.4372 24.3153 17.6011 24.577C17.6854 24.7118 17.9031 25.6388 17.9951 25.9118C18.4084 27.1462 19.0113 28.3092 19.7818 29.3583C20.3118 30.0796 20.9245 30.7164 21.5752 31.3236C21.8345 31.5656 22.6566 32.1632 22.7941 32.4156C23.0969 32.9716 23.4294 33.857 23.6554 34.4571L24.1736 35.8011C24.3485 36.2482 24.5256 36.6945 24.7048 37.1399L24.8689 37.538C25.6967 39.5177 26.667 41.339 28.9366 41.9707C30.5973 42.4329 32.0768 42.0838 33.463 41.1883L33.739 41.0019C35.5093 39.5922 36.1581 37.5484 35.5986 35.401L35.5407 35.1926C35.3492 34.5463 35.0885 33.9692 34.807 33.3801L34.5202 32.7844L33.2421 30.1384C32.8015 29.222 32.3785 28.309 32.0438 27.3463C31.9209 26.9927 31.9888 26.5597 31.9548 26.1887C31.9081 25.6749 31.8514 25.143 31.7573 24.6313L31.7146 24.4134C31.631 24.0262 31.526 23.6442 31.4004 23.2689L31.2678 22.8961C31.1099 22.4878 30.936 22.16 30.8156 21.7239C30.0955 19.1129 29.6729 16.5688 28.296 14.2004L28.1597 13.9714C25.9351 10.3299 21.1841 7.49242 16.8575 8.70172L16.6517 8.76236Z" fill="#E8E7E7"/>
<path id="Vector (Stroke) (Stroke)" d="M14.6815 6.9088C15.1112 6.67536 15.6112 6.48703 15.9166 6.39225C18.853 5.48088 21.8279 6.02562 24.299 7.24474C26.7631 8.46052 28.9005 10.4242 30.2774 12.6781C32.0035 15.5036 32.5528 18.6926 33.2072 21.0651C33.2399 21.1833 33.2628 21.241 33.3111 21.3515C33.3679 21.4817 33.4538 21.6683 33.5823 22.0005L33.59 22.0233L33.7523 22.4815C33.9051 22.9381 34.0321 23.4032 34.1345 23.8748L34.1361 23.8754L34.1375 23.8813C34.139 23.8876 34.1408 23.894 34.1421 23.9002L34.143 23.9051L34.1429 23.9078C34.2918 24.6228 34.3679 25.3424 34.4227 25.9426C34.4234 25.9491 34.4256 25.9554 34.4262 25.962C34.4447 26.1641 34.4471 26.3476 34.4475 26.4685C34.448 26.6093 34.4455 26.6355 34.4457 26.69C34.7223 27.4549 35.0698 28.2135 35.4762 29.0588L36.7543 31.7039C36.7556 31.7066 36.7569 31.7099 36.7582 31.7126L37.0404 32.2989C37.3397 32.9244 37.6759 33.6655 37.9196 34.4882C38.8553 37.6481 37.9275 40.8335 35.2891 42.9377L35.2906 42.9383L35.2548 42.9664C35.2381 42.9799 35.2206 42.9934 35.203 43.0057L35.1657 43.0306C33.297 44.3455 31.0584 45.0519 28.5146 44.4242L28.4997 44.4204L28.2835 44.3637L27.9305 44.2574C24.4752 43.1274 23.2138 40.0522 22.4079 38.0758C22.4066 38.0725 22.4048 38.0692 22.4035 38.066C22.0392 37.1604 21.6834 36.2512 21.3366 35.3394C21.3356 35.3369 21.3341 35.3342 21.3331 35.3318C21.1345 34.8043 20.9193 34.2479 20.7352 33.8513C20.7089 33.8288 20.6808 33.803 20.6487 33.7764C20.532 33.6798 20.4271 33.5967 20.2907 33.4858C20.1854 33.4002 20.0194 33.2645 19.8826 33.1368C19.2606 32.5564 18.6219 31.9067 18.0329 31.156L17.7823 30.8272C16.8596 29.5708 16.1376 28.1776 15.6426 26.6993L15.6381 26.6777C15.5913 26.5359 15.5443 26.3725 15.5134 26.2589C15.4823 26.1448 15.4299 25.9474 15.401 25.8411C15.3925 25.8096 15.3839 25.7797 15.376 25.7513C15.3459 25.7154 15.3127 25.6752 15.2756 25.6314C15.1377 25.4688 14.8858 25.1776 14.729 24.9748C14.7254 24.9702 14.7218 24.9647 14.7183 24.96C13.9999 24.04 13.3546 23.0645 12.7905 22.0414C12.7894 22.0395 12.7886 22.0368 12.7875 22.0349L12.4769 21.4523C11.7544 20.0558 11.0566 18.4013 10.7 16.646C10.2897 14.6256 10.3023 12.3115 11.4259 10.1153C12.1923 8.61754 13.3738 7.61917 14.6189 6.93858C14.6392 6.92748 14.6606 6.91827 14.6815 6.9088ZM15.0604 7.74539C13.9332 8.36147 12.9065 9.23967 12.2441 10.5343L12.0672 10.9023C11.2416 12.749 11.2399 14.6931 11.5994 16.4632L11.6763 16.8145C12.0824 18.5639 12.8391 20.2171 13.5933 21.5939L13.5947 21.5972C14.1386 22.5836 14.7616 23.525 15.4557 24.4121C15.5959 24.5933 15.8242 24.8579 15.9762 25.0372C16.0632 25.1399 16.1392 25.2304 16.1995 25.3062C16.2019 25.3091 16.205 25.3117 16.2073 25.3145C16.23 25.3916 16.2572 25.4889 16.2876 25.6011L16.3995 26.0178L16.515 26.408C16.9216 27.6222 17.4898 28.7754 18.2061 29.8347L18.5228 30.2832C19.1319 31.112 19.8203 31.8233 20.509 32.4659C20.6197 32.5692 20.7626 32.6855 20.8706 32.7732C20.9976 32.8764 21.1133 32.9696 21.2336 33.0692C21.3409 33.1581 21.4259 33.2317 21.4867 33.2879C21.7119 33.7371 21.9736 34.4242 22.1934 35.0079L22.1953 35.0122C22.5402 35.9189 22.8933 36.8236 23.2553 37.7236L23.2583 37.7301C24.1032 39.8023 25.2825 42.5749 28.5182 43.4755L28.7345 43.5322C30.9636 44.0823 32.9337 43.4794 34.6381 42.2799L34.676 42.2535L34.7125 42.2238C36.9797 40.4183 37.8199 37.7373 37.1124 35.0126L37.0387 34.7492C36.7395 33.7393 36.2917 32.8655 35.93 32.1099L35.9276 32.1045L34.649 29.4583C34.2185 28.5629 33.8349 27.7294 33.5336 26.8707C33.532 26.8522 33.5296 26.8151 33.5288 26.7533L33.5292 26.4708C33.529 26.4147 33.5276 26.3489 33.5251 26.2769L33.5107 26.0457C33.4699 25.5973 33.4193 25.1005 33.3376 24.5981L33.2444 24.0954L33.2416 24.0835C33.1139 23.4921 32.9428 22.9109 32.7304 22.3456L32.7256 22.3321C32.485 21.71 32.4187 21.658 32.3221 21.3083C31.6357 18.8195 31.1302 15.837 29.4928 13.1568C28.2876 11.1842 26.4502 9.43947 24.3222 8.2902L23.8932 8.06877C21.7234 6.99824 19.1884 6.5073 16.6881 7.13052L16.189 7.26931C15.9009 7.35875 15.4265 7.53738 15.0604 7.74539ZM15.809 9.11534C16.0314 8.98413 16.4046 8.83926 16.6521 8.76244L16.8572 8.70209C21.1837 7.4928 25.9348 10.3301 28.1594 13.9715L28.2965 14.2008C29.6731 16.569 30.0952 19.1131 30.8152 21.7238C30.9356 22.1599 31.1099 22.4878 31.2677 22.896L31.4005 23.2691C31.5261 23.6444 31.6308 24.0266 31.7144 24.4137L31.7582 24.6315L31.8209 25.0181C31.8788 25.4077 31.92 25.8036 31.9551 26.1891C31.9889 26.56 31.9209 26.9932 32.0437 27.3467L32.3099 28.0598C32.5908 28.7657 32.9121 29.4508 33.2425 30.1381L34.8077 33.3804C35.0891 33.9692 35.349 34.5464 35.5405 35.1923L35.5985 35.401C36.1581 37.5484 35.5096 39.5921 33.7395 41.0018L33.4629 41.1879C32.0766 42.0834 30.5971 42.4329 28.9364 41.9707C26.667 41.339 25.697 39.5175 24.8692 37.5379L24.7053 37.1395C24.5262 36.6942 24.3483 36.2483 24.1733 35.8012L23.656 34.4575C23.43 33.8574 23.0967 32.9715 22.7938 32.4155C22.6559 32.1629 21.8344 31.5654 21.5752 31.3234C21.006 30.7923 20.4663 30.2383 19.9852 29.6252L19.7822 29.3576C19.1082 28.4398 18.5615 27.4354 18.1587 26.3716L17.9955 25.9112C17.9035 25.638 17.6852 24.7128 17.6009 24.5775C17.437 24.3157 16.9145 23.7457 16.691 23.4568C16.046 22.6332 15.4684 21.7587 14.9633 20.8426C13.4761 18.1275 12.1411 14.5662 13.496 11.5376L13.6353 11.2458C14.0904 10.3563 14.7889 9.70635 15.6374 9.21171L15.809 9.11534ZM16.2762 9.90652C16.2711 9.90954 16.2655 9.9121 16.2604 9.91503L16.0986 10.0043L16.1002 10.0049C15.3707 10.4302 14.8148 10.9602 14.4564 11.6568L14.33 11.9191C13.7603 13.1976 13.7373 14.6294 14.0602 16.1121C14.3843 17.5998 15.0462 19.0814 15.768 20.3995L16.1411 21.0469C16.3989 21.4732 16.6737 21.8891 16.9649 22.2934L17.4147 22.8902L17.4178 22.894C17.5128 23.0169 17.6742 23.2036 17.8692 23.4337C17.9927 23.5793 18.1484 23.7632 18.2708 23.9302L18.38 24.0895L18.4599 24.2423C18.4801 24.288 18.4931 24.3258 18.5005 24.346C18.5228 24.4068 18.545 24.4727 18.5641 24.5351C18.6025 24.6607 18.6433 24.8108 18.6818 24.9531C18.767 25.268 18.8317 25.517 18.8658 25.6182L18.8668 25.6204C19.2498 26.7642 19.8078 27.842 20.5216 28.8141C21.0051 29.4721 21.5733 30.0664 22.2016 30.6526C22.306 30.75 22.5148 30.909 22.8164 31.1587C22.9484 31.268 23.0913 31.389 23.2145 31.5058C23.2867 31.5743 23.4052 31.6891 23.507 31.8287L23.6005 31.9766L23.7288 32.2244C24.0281 32.8337 24.3246 33.6283 24.5147 34.133L25.0306 35.4707C25.2039 35.9136 25.3796 36.3558 25.5571 36.7971L25.7176 37.1879C26.5404 39.155 27.3685 40.5811 29.1834 41.0862C30.5408 41.4639 31.7468 41.1988 32.948 40.4276L33.184 40.2678C34.6512 39.0894 35.1773 37.4281 34.7096 35.6329L34.6596 35.4507C34.4901 34.8794 34.2568 34.3579 33.9801 33.7788L33.6939 33.1838L32.4153 30.5377C31.973 29.6176 31.5299 28.6628 31.1768 27.6474C31.0645 27.3239 31.0512 27.0034 31.0483 26.7864C31.0447 26.514 31.0534 26.4117 31.0406 26.2723L30.9626 25.5197C30.9327 25.2735 30.8971 25.0322 30.854 24.798L30.8136 24.5905C30.7378 24.2423 30.6424 23.8981 30.5292 23.56L30.411 23.2275C30.3015 22.9444 30.065 22.4549 29.9307 21.9681L29.663 20.9628C29.0686 18.6551 28.638 16.6149 27.5023 14.6615L27.3759 14.4497C26.3538 12.7769 24.7388 11.2749 22.8831 10.3377C21.0293 9.40153 18.9975 9.0575 17.1053 9.58627L16.924 9.6384C16.7069 9.70583 16.4109 9.8271 16.2762 9.90652Z" fill="#020101"/>
<path id="Vector_2" d="M22.3162 28.4978C22.0295 27.8547 21.2779 27.148 20.8581 26.5686C20.5927 26.2025 20.3502 26.1121 20.2816 25.6063C19.9953 23.4965 19.9427 21.3164 20.4143 19.229C20.4926 18.8828 20.6097 18.4849 20.8112 18.1876C20.9739 17.9567 21.1978 17.9378 21.4531 17.9059C21.7867 17.932 22.3106 18.1187 22.6473 18.2513C24.9512 19.1586 27.1482 20.7661 28.8125 22.5891C28.9281 22.716 29.1206 22.9933 29.1666 23.1606C29.3833 23.9516 29.2677 24.858 29.2309 25.6481C29.1772 27.2284 28.5349 29.3067 29.5245 30.6932C29.6878 30.922 30.0415 31.1233 30.3185 31.135C31.3062 31.1772 31.7079 30.1779 31.9356 29.408C32.4321 30.4569 32.9366 31.5023 33.4492 32.5434C34.3167 34.3388 35.4134 36.2199 34.6976 38.2734C34.3983 39.1327 33.7734 39.9476 33.0097 40.4451C31.4731 41.5769 29.1484 41.6357 27.6708 40.379C26.4148 39.3107 25.9003 37.8476 25.3101 36.3641C24.8939 35.3178 24.5173 34.2575 24.0926 33.2178C24.5254 33.3888 24.8317 33.4531 25.2895 33.4545C26.033 33.3428 26.5388 32.9544 26.3823 32.1224C26.1902 31.1016 25.0893 30.3248 24.2842 29.7623C23.6131 29.3665 22.9631 28.9311 22.3162 28.4978Z" fill="#E8E7E7"/>
<path id="Vector_3" d="M22.3162 28.4978C22.0295 27.8547 21.2779 27.148 20.8581 26.5686C20.5927 26.2025 20.3502 26.1121 20.2816 25.6063C19.9953 23.4965 19.9427 21.3164 20.4143 19.229C20.4926 18.8828 20.6097 18.4849 20.8112 18.1876C20.9739 17.9567 21.1978 17.9378 21.4531 17.9059C20.7749 19.4603 20.7226 23.4493 21.1428 25.2681C21.2041 25.5335 21.9933 26.2566 22.1486 26.5325C22.6349 27.1629 23.067 27.7947 23.4991 28.4586C23.6909 28.7533 24.1646 29.4697 24.2842 29.7623C23.6131 29.3665 22.9631 28.9311 22.3162 28.4978Z" fill="#8FB7B3"/>
<path id="Vector_4" d="M24.0927 33.218C24.5255 33.389 24.8317 33.4533 25.2895 33.4548C25.5655 34.265 25.8557 35.0701 26.1601 35.8698C26.964 38.0167 28.0216 40.6615 30.6697 40.8824C31.5666 40.9573 32.1958 40.7709 33.0098 40.4453C31.4732 41.5771 29.1484 41.6359 27.6709 40.3792C26.4149 39.3109 25.9003 37.8478 25.3102 36.3643C24.8939 35.318 24.5174 34.2577 24.0927 33.218Z" fill="#8FB7B3"/>
<path id="Vector_5" d="M17.3655 22.9203C17.0441 22.4588 16.7284 22.0831 16.4058 21.5868C15.4043 20.0223 14.5189 18.2562 14.0717 16.4468C13.3528 13.5376 13.9392 10.264 17.2941 9.47017C19.2534 8.91899 21.5149 9.52344 23.2642 10.475C26.3615 12.16 28.3173 15.112 29.0879 18.5217C29.1975 18.8967 29.2928 19.3319 29.375 19.7135C29.1558 19.4855 28.9555 19.2513 28.7387 19.019C26.9312 17.0807 24.249 15.3994 21.6291 14.8886C21.2617 14.817 20.8622 14.8054 20.491 14.79C20.2369 14.253 20.0478 13.5631 19.5175 13.2431C19.1929 13.1578 18.9152 13.1287 18.6123 13.3114C17.5831 13.9326 18.4049 14.9451 18.7289 15.726C17.5826 17.2754 17.3506 19.1232 17.2905 21.0029C17.2987 21.0804 17.2924 21.2158 17.2928 21.2986C17.2958 21.8405 17.3329 22.3794 17.3655 22.9203Z" fill="#E4E4E2"/>
<path id="Vector_6" d="M17.3655 22.9203C17.0441 22.4588 16.7284 22.0831 16.4058 21.5868C15.4043 20.0223 14.5189 18.2562 14.0717 16.4468C13.3528 13.5376 13.9392 10.264 17.2941 9.47017C16.243 9.95451 15.4292 10.8393 15.0343 11.9273C14.0429 14.6671 15.4112 18.3047 16.9774 20.5897C17.0565 20.705 17.1923 20.9086 17.2905 21.0029C17.2987 21.0804 17.2924 21.2158 17.2928 21.2986C17.2958 21.8405 17.3329 22.3794 17.3655 22.9203Z" fill="#8FB7B3"/>
<path id="Vector_7" d="M19.5176 13.2432C19.7534 13.2186 19.9896 13.2865 20.1767 13.4324C20.4743 13.665 20.6234 14.1458 20.8063 14.4929C21.0649 14.5097 21.4121 14.5261 21.6629 14.5657C23.7102 14.8894 25.949 15.9656 27.5847 17.2141C27.8904 17.4473 28.1867 17.6926 28.4726 17.9496C28.5638 18.0322 29.037 18.4929 29.0879 18.5217C29.1975 18.8968 29.2928 19.332 29.375 19.7136C29.1559 19.4856 28.9556 19.2513 28.7387 19.0191C26.9312 17.0808 24.249 15.3994 21.6292 14.8886C21.2617 14.817 20.8622 14.8055 20.4911 14.7901C20.2369 14.2531 20.0478 13.5632 19.5176 13.2432Z" fill="#8FB7B3"/>
<path id="Vector_8" d="M19.7808 15.7822C20.5829 15.3417 21.3671 15.5159 22.2095 15.7551C23.9299 16.2435 25.6029 17.2205 26.9765 18.3514C28.5459 19.6435 29.9437 21.3522 30.6386 23.2811C30.7482 23.5906 30.9171 24.0987 30.946 24.4154C30.7953 24.134 30.6576 23.8817 30.4841 23.6133C29.9679 22.8183 29.369 22.0804 28.6974 21.4116C27.0579 19.7706 24.1707 17.7655 21.8681 17.2687C21.5346 17.2076 21.2086 17.1582 20.8821 17.2812C20.4607 17.4375 20.1441 17.8231 19.9851 18.2393C19.5217 19.452 19.3888 20.8524 19.3541 22.1386C19.3118 23.7084 19.4337 25.2589 19.7911 26.7862C19.9873 27.6247 20.2921 28.4022 20.6086 29.1978C20.399 28.9613 20.0419 28.458 19.8658 28.1829C18.1141 25.4462 17.6253 21.6714 18.2811 18.5225C18.4918 17.511 18.8851 16.3646 19.7808 15.7822Z" fill="#2A9D8F"/>
<path id="Vector_9" d="M30.07 24.2833C30.1984 24.4601 30.3721 24.8465 30.4711 25.0549C31.0149 26.1985 31.3548 27.4529 31.2571 28.7304C31.2185 29.2357 31.0782 29.9189 30.678 30.2917C30.558 30.4034 30.4291 30.4018 30.2777 30.3814C29.3558 29.9048 29.8498 27.0403 29.9332 26.1561C29.9901 25.5325 30.0358 24.9084 30.07 24.2833Z" fill="#2A9D8F"/>
<path id="Vector_10" d="M21.0899 28.4978C21.145 28.516 21.5374 28.815 21.5958 28.8668C22.484 29.6565 25.791 31.1089 25.668 32.4364C25.4928 32.8842 24.8458 32.6856 24.5156 32.5455C22.7636 31.801 21.7826 30.1811 21.0899 28.4978Z" fill="#2A9D8F"/>
<path id="Vector_11" d="M18.8875 13.9811C19.108 13.8667 19.2661 13.9305 19.4155 14.124C19.5094 14.2458 19.8147 14.8663 19.7983 14.9836L19.6956 15.0385L19.2861 15.2357C19.1372 14.9463 18.9315 14.554 18.8338 14.2478C18.7986 14.1374 18.8307 14.0733 18.8875 13.9811Z" fill="#2A9D8F"/>
</g>
<path id="Union" d="M15.917 6.39233C18.8533 5.48115 21.8279 6.02583 24.2988 7.24487C26.763 8.46066 28.9004 10.4246 30.2773 12.6785C32.0033 15.5039 32.5527 18.6928 33.207 21.0652C33.2397 21.1833 33.2624 21.2411 33.3105 21.3513C33.3674 21.4815 33.4535 21.6685 33.582 22.0007L33.5898 22.0232L33.752 22.4812C33.9047 22.9377 34.0323 23.4032 34.1348 23.8748L34.1357 23.8757L34.1377 23.8816C34.1391 23.8877 34.1413 23.894 34.1426 23.9001V23.908C34.2915 24.623 34.3681 25.343 34.4229 25.9431C34.4236 25.9493 34.4251 25.9554 34.4258 25.9617C34.4443 26.1637 34.4469 26.3476 34.4473 26.4685C34.4477 26.6093 34.4451 26.6357 34.4453 26.6902C34.7219 27.4552 35.0702 28.214 35.4766 29.0593L36.7539 31.7039C36.7552 31.7065 36.7565 31.7099 36.7578 31.7126L37.04 32.2986C37.3393 32.9241 37.6761 33.6654 37.9199 34.488C38.8556 37.648 37.9275 40.834 35.2891 42.9382H35.291L35.2549 42.9666C35.2383 42.98 35.2206 42.9933 35.2031 43.0056L35.166 43.031C33.2974 44.3459 31.0584 45.0522 28.5146 44.4246L28.5 44.4207L28.2832 44.364L27.9307 44.2576C24.4755 43.1276 23.214 40.0523 22.4082 38.0759C22.4069 38.0727 22.4046 38.0694 22.4033 38.0662C22.0391 37.1607 21.6837 36.2514 21.3369 35.3396C21.336 35.3371 21.3339 35.3343 21.333 35.3318C21.1344 34.8043 20.9194 34.248 20.7354 33.8513C20.709 33.8289 20.6806 33.8028 20.6484 33.7761C20.532 33.6797 20.4271 33.5967 20.291 33.4861C20.1856 33.4004 20.0196 33.2642 19.8828 33.1365C19.2609 32.5562 18.6222 31.9067 18.0332 31.156L17.7822 30.8269C16.8596 29.5706 16.1375 28.1772 15.6426 26.699L15.6377 26.6775C15.591 26.5357 15.5446 26.372 15.5137 26.2585C15.4826 26.1446 15.4302 25.9479 15.4014 25.8416C15.3929 25.8102 15.3838 25.78 15.376 25.7517C15.3459 25.7158 15.3125 25.6754 15.2754 25.6316C15.1375 25.469 14.8854 25.1781 14.7285 24.9753C14.7249 24.9707 14.7213 24.9644 14.7178 24.9597C13.9996 24.0399 13.354 23.0647 12.79 22.0417C12.789 22.0398 12.7882 22.0368 12.7871 22.0349L12.4766 21.4529C11.7541 20.0564 11.0568 18.4015 10.7002 16.6462C10.2899 14.6259 10.3022 12.3112 11.4258 10.115C12.1922 8.61735 13.3741 7.61878 14.6191 6.93823C14.6393 6.92723 14.6609 6.91834 14.6816 6.90894C15.1113 6.67552 15.6117 6.48711 15.917 6.39233ZM35.3301 41.6765C35.1375 41.8668 34.9313 42.0497 34.7119 42.2244L34.6943 42.239L34.7129 42.2244C34.9254 42.0551 35.1252 41.878 35.3125 41.6941L35.3301 41.6765ZM32.5156 41.7029C32.4646 41.7256 32.4137 41.7481 32.3623 41.7693C32.4137 41.7481 32.4646 41.7256 32.5156 41.7029ZM35.7715 41.198C35.8017 41.1623 35.832 41.1267 35.8613 41.0906C35.832 41.1267 35.8017 41.1623 35.7715 41.198ZM24.9912 41.0427C25.0114 41.0695 25.0331 41.0952 25.0537 41.1218C24.9305 40.963 24.8133 40.8012 24.7031 40.6365L24.9912 41.0427ZM35.8955 41.0466C35.9334 40.9992 35.9704 40.9512 36.0068 40.9031C35.9704 40.9512 35.9334 40.9992 35.8955 41.0466ZM36.0938 40.7859C36.1162 40.7549 36.1393 40.7244 36.1611 40.6931C36.1393 40.7244 36.1162 40.7549 36.0938 40.7859ZM36.2471 40.5662C36.2656 40.5383 36.2837 40.5102 36.3018 40.4822C36.2837 40.5102 36.2656 40.5383 36.2471 40.5662ZM36.3691 40.3748C36.3928 40.3364 36.4166 40.2982 36.4395 40.2595C36.4166 40.2982 36.3928 40.3364 36.3691 40.3748ZM36.4834 40.1814C36.5124 40.1307 36.5417 40.0803 36.5693 40.0291C36.5417 40.0803 36.5124 40.1307 36.4834 40.1814ZM36.623 39.9265C36.644 39.886 36.6645 39.8453 36.6846 39.8044C36.6645 39.8453 36.644 39.886 36.623 39.9265ZM36.7412 39.6853C36.753 39.6601 36.764 39.6345 36.7754 39.6091C36.764 39.6345 36.753 39.66 36.7412 39.6853ZM36.8359 39.4714C36.8495 39.4393 36.8629 39.4071 36.876 39.3748C36.8629 39.4071 36.8495 39.4393 36.8359 39.4714ZM36.9258 39.2458C36.9387 39.2117 36.9515 39.1776 36.9639 39.1433C36.9515 39.1776 36.9387 39.2117 36.9258 39.2458ZM37.0039 39.032C37.0231 38.9755 37.0419 38.919 37.0596 38.8621C37.0419 38.919 37.0231 38.9755 37.0039 39.032ZM37.0732 38.8152C37.092 38.7529 37.11 38.6905 37.127 38.6277C37.1101 38.6905 37.092 38.7529 37.0732 38.8152ZM37.1514 38.5349C37.1625 38.4908 37.1723 38.4464 37.1826 38.4021C37.1724 38.4464 37.1625 38.4908 37.1514 38.5349ZM37.2041 38.3093C37.2149 38.2594 37.2247 38.2092 37.2344 38.1589C37.2247 38.2092 37.2149 38.2594 37.2041 38.3093ZM37.252 38.0662C37.2618 38.0107 37.2709 37.955 37.2793 37.8992C37.2709 37.955 37.2618 38.0107 37.252 38.0662ZM37.292 37.8103C37.2994 37.7564 37.3054 37.7024 37.3115 37.6482C37.3054 37.7023 37.2994 37.7564 37.292 37.8103ZM24.9453 37.7146C24.9387 37.699 24.9324 37.6833 24.9258 37.6677C24.9074 37.6243 24.8874 37.5814 24.8691 37.5378L24.9453 37.7146ZM37.3193 37.5828C37.3259 37.5191 37.3312 37.4553 37.3359 37.3914C37.3312 37.4553 37.3259 37.5191 37.3193 37.5828ZM37.3398 37.3347C37.3442 37.2685 37.3481 37.2021 37.3506 37.1355C37.3481 37.2021 37.3442 37.2685 37.3398 37.3347ZM37.3525 37.0779C37.3545 37.0081 37.3546 36.9381 37.3545 36.8679C37.3546 36.9381 37.3545 37.0081 37.3525 37.0779ZM37.3545 36.823C37.3539 36.7567 37.352 36.6903 37.3496 36.6238C37.352 36.6903 37.3539 36.7567 37.3545 36.823ZM37.3477 36.5603C37.3446 36.4927 37.341 36.425 37.3359 36.3572C37.341 36.425 37.3446 36.4927 37.3477 36.5603ZM37.2422 35.6189C37.2833 35.852 37.3145 36.0841 37.333 36.3152C37.3146 36.0841 37.2833 35.8521 37.2422 35.6189ZM37.2275 35.531C37.2155 35.4672 37.2022 35.4035 37.1885 35.3396C37.2022 35.4035 37.2155 35.4672 37.2275 35.531ZM35.5508 35.2322L35.5449 35.2078C35.5473 35.2158 35.5485 35.2242 35.5508 35.2322ZM37.0381 34.7488C37.0819 34.8966 37.1206 35.0446 37.1553 35.1921C37.1412 35.1325 37.1278 35.0722 37.1123 35.0125L37.0391 34.7498C37.0016 34.6234 36.9615 34.4988 36.9199 34.3767L37.0381 34.7488ZM34.6484 29.4587L35.9268 32.1042L35.9297 32.1101L35.9277 32.1042L34.6484 29.4587ZM20.9678 30.7302C21.0107 30.7738 21.0523 30.8189 21.0957 30.8621C21.0727 30.8392 21.0512 30.8148 21.0283 30.7917C21.008 30.7713 20.988 30.7507 20.9678 30.7302ZM20.4102 30.1375C20.5017 30.2415 20.5958 30.343 20.6904 30.4441C20.6852 30.4385 20.681 30.4321 20.6758 30.4265C20.5744 30.3178 20.4738 30.2085 20.376 30.0964C20.3719 30.0918 20.3674 30.0875 20.3633 30.0828L20.4102 30.1375ZM17.9189 29.3923C18.0118 29.5415 18.1075 29.689 18.2061 29.8347L18.376 30.075C18.2177 29.8511 18.0637 29.6246 17.9189 29.3923ZM19.7812 29.3582C19.9138 29.5386 20.0521 29.7138 20.1943 29.8845L20.0146 29.6619C19.9358 29.5622 19.8579 29.4611 19.7822 29.3582C19.7268 29.2826 19.6738 29.2053 19.6201 29.1287L19.6182 29.1267C19.6723 29.204 19.7254 29.282 19.7812 29.3582ZM17.667 28.9705C17.7243 29.07 17.784 29.1682 17.8438 29.2664C17.784 29.1682 17.7243 29.07 17.667 28.9705ZM17.4248 28.53C17.4627 28.6018 17.5019 28.6728 17.541 28.7439C17.5018 28.6728 17.4628 28.6017 17.4248 28.53ZM19.1445 28.3982C19.1894 28.4728 19.2348 28.5471 19.2812 28.6208C19.2763 28.6131 19.2715 28.6052 19.2666 28.5974C19.2372 28.5505 19.2085 28.5031 19.1797 28.4558C19.168 28.4366 19.1561 28.4175 19.1445 28.3982ZM17.1875 28.0603C17.2245 28.1372 17.2624 28.2136 17.3008 28.2898C17.2623 28.2136 17.2246 28.1371 17.1875 28.0603ZM18.9863 28.1326C19.0049 28.1652 19.0251 28.1968 19.0439 28.2292C19.0343 28.2127 19.0251 28.196 19.0156 28.1794C18.9862 28.1282 18.9574 28.0767 18.9287 28.0251C18.9247 28.0179 18.92 28.0109 18.916 28.0037L18.9863 28.1326ZM16.9951 27.6433C17.017 27.6929 17.039 27.7424 17.0615 27.7917C17.039 27.7424 17.0171 27.6929 16.9951 27.6433ZM16.791 27.158C16.815 27.2182 16.8384 27.2787 16.8633 27.3386C16.8384 27.2787 16.8151 27.2182 16.791 27.158ZM33.5283 26.4714L33.5293 26.4705L33.5283 26.4714ZM33.4551 25.5046C33.4413 25.3765 33.4279 25.2459 33.4111 25.114C33.428 25.2459 33.4412 25.3765 33.4551 25.5046ZM31.8809 25.4753C31.8766 25.4395 31.8726 25.4037 31.8682 25.3679C31.8726 25.4037 31.8766 25.4395 31.8809 25.4753ZM33.3369 24.5984C33.3638 24.7636 33.3873 24.9281 33.4082 25.0906C33.3873 24.9282 33.3647 24.7635 33.3379 24.5984L33.2441 24.0955L33.3369 24.5984ZM31.6387 24.0896C31.6654 24.1972 31.6914 24.3053 31.7148 24.4138L31.6475 24.1238C31.6447 24.1124 31.6415 24.101 31.6387 24.0896ZM32.7256 22.3328L32.7305 22.3464C32.8293 22.6095 32.9183 22.8761 32.999 23.1453C32.9183 22.8758 32.8294 22.6086 32.7305 22.3455L32.7256 22.3318V22.3328ZM32.3223 21.3083V21.3093V21.3083ZM13.2988 21.0417C13.3455 21.1318 13.3935 21.2203 13.4404 21.3083C13.3935 21.2203 13.3455 21.1318 13.2988 21.0417ZM13.0166 20.4792C13.0846 20.6192 13.1544 20.7565 13.2236 20.8923C13.1544 20.7565 13.0846 20.6192 13.0166 20.4792ZM12.7451 19.8982C12.7817 19.9794 12.8202 20.0593 12.8574 20.1394C12.8201 20.0593 12.7817 19.9794 12.7451 19.8982ZM12.4756 19.2722C12.5176 19.3743 12.5612 19.4753 12.6045 19.5759C12.5612 19.4753 12.5176 19.3743 12.4756 19.2722ZM12.2354 18.656C12.2682 18.7448 12.3028 18.8328 12.3369 18.9207C12.3028 18.8328 12.2682 18.7449 12.2354 18.656ZM14.0234 18.9207C13.9966 18.858 13.9696 18.7953 13.9434 18.7322C13.9347 18.7112 13.9247 18.6907 13.916 18.6697L14.0234 18.9207ZM13.6846 18.072C13.6991 18.1116 13.7147 18.1507 13.7295 18.1902C13.7147 18.1507 13.6991 18.1116 13.6846 18.072ZM13.1406 16.197C13.1539 16.2609 13.1673 16.3247 13.1816 16.3884C13.1673 16.3247 13.1539 16.2609 13.1406 16.197ZM13.1016 16.0056C13.108 16.0395 13.1153 16.0733 13.1221 16.1072C13.1155 16.0743 13.1097 16.0414 13.1035 16.0085C13.0997 15.9884 13.0965 15.9682 13.0928 15.948C13.0861 15.9118 13.0785 15.8758 13.0723 15.8396L13.1016 16.0056ZM12.9902 15.2625C12.9991 15.3416 13.0086 15.4207 13.0195 15.4998C13.0086 15.4207 12.9991 15.3415 12.9902 15.2625ZM11.4004 15.0476C11.4045 15.1024 11.41 15.157 11.415 15.2117C11.41 15.157 11.4045 15.1024 11.4004 15.0476ZM12.9688 15.0476C12.971 15.0723 12.9722 15.0971 12.9746 15.1218C12.9722 15.0971 12.9709 15.0723 12.9688 15.0476ZM12.9424 14.6697C12.9455 14.7387 12.9493 14.8077 12.9541 14.8767C12.9493 14.8077 12.9455 14.7387 12.9424 14.6697ZM11.3799 14.6912C11.382 14.7433 11.3848 14.7954 11.3877 14.8474C11.3848 14.7954 11.382 14.7433 11.3799 14.6912ZM12.9336 14.3376C12.934 14.4063 12.9354 14.475 12.9375 14.5437C12.9354 14.475 12.934 14.4063 12.9336 14.3376ZM11.3721 14.3376C11.3724 14.396 11.3727 14.4543 11.374 14.5125C11.3727 14.4543 11.3724 14.396 11.3721 14.3376ZM12.9385 14.0632C12.9371 14.1091 12.9351 14.155 12.9346 14.2009C12.9351 14.155 12.9371 14.1091 12.9385 14.0632ZM11.376 13.9929C11.3744 14.0415 11.3748 14.09 11.374 14.1384C11.3748 14.09 11.3744 14.0415 11.376 13.9929ZM11.3955 13.6189C11.391 13.6808 11.388 13.7427 11.3848 13.8044C11.388 13.7426 11.391 13.6808 11.3955 13.6189ZM11.4336 13.2332C11.4256 13.3013 11.4175 13.3692 11.4111 13.4373C11.4175 13.3692 11.4256 13.3013 11.4336 13.2332ZM13.0244 13.1316C13.0134 13.2002 13.0031 13.2688 12.9941 13.3376C13.0031 13.2688 13.0134 13.2002 13.0244 13.1316ZM11.4824 12.8845C11.4725 12.9465 11.4616 13.0081 11.4531 13.0701C11.4616 13.0081 11.4725 12.9465 11.4824 12.8845ZM13.4512 11.6414C13.3019 11.9921 13.1868 12.3493 13.1045 12.7117C13.1269 12.6129 13.1525 12.5147 13.1797 12.4167C13.2261 12.2497 13.281 12.0843 13.3418 11.9197C13.3762 11.8266 13.4119 11.7336 13.4512 11.6414ZM11.5518 12.5066C11.5386 12.5698 11.5253 12.6328 11.5137 12.696C11.5253 12.6328 11.5386 12.5698 11.5518 12.5066ZM11.6396 12.1296C11.6218 12.1983 11.6048 12.2669 11.5889 12.3357C11.6048 12.2669 11.6218 12.1983 11.6396 12.1296ZM11.7607 11.7107C11.7318 11.8012 11.7031 11.8914 11.6777 11.9822C11.7031 11.8914 11.7318 11.8012 11.7607 11.7107ZM26.3623 11.7263C26.3947 11.7581 26.426 11.7909 26.458 11.823C26.426 11.7909 26.3947 11.7581 26.3623 11.7263ZM28.5479 11.8181C28.5137 11.7755 28.4801 11.7324 28.4453 11.6902C28.4801 11.7324 28.5137 11.7755 28.5479 11.8181ZM11.7949 11.5994C11.791 11.611 11.788 11.6229 11.7842 11.6345C11.8241 11.5138 11.8667 11.3933 11.9131 11.2732L11.7949 11.5994ZM28.3047 11.5242C28.2466 11.4559 28.1885 11.3874 28.1289 11.3201C28.1885 11.3874 28.2466 11.4559 28.3047 11.5242ZM27.9658 11.1394C27.9218 11.0914 27.8778 11.0433 27.833 10.9958C27.8778 11.0433 27.9218 11.0914 27.9658 11.1394ZM27.6543 10.8103C27.5991 10.7539 27.5435 10.6979 27.4873 10.6423C27.5435 10.6979 27.5991 10.7539 27.6543 10.8103ZM27.3438 10.5027C27.2843 10.4456 27.2246 10.3889 27.1641 10.3328C27.2246 10.3889 27.2843 10.4456 27.3438 10.5027ZM26.9854 10.1697C26.9375 10.1268 26.8893 10.084 26.8408 10.0417C26.8893 10.084 26.9374 10.1268 26.9854 10.1697ZM26.6152 9.84937C26.554 9.7982 26.4918 9.74816 26.4297 9.698C26.4918 9.74815 26.554 9.79821 26.6152 9.84937ZM26.2725 9.57202C26.2003 9.51543 26.127 9.46023 26.0537 9.40503C26.127 9.46022 26.2003 9.51544 26.2725 9.57202ZM25.9033 9.29175C25.8212 9.23162 25.7377 9.17333 25.6543 9.11499C25.7377 9.17332 25.8212 9.23162 25.9033 9.29175ZM15.6367 9.21167C15.6007 9.23269 15.5658 9.25551 15.5303 9.2771C15.5404 9.27095 15.5504 9.26464 15.5605 9.25854C15.5861 9.24319 15.6118 9.22674 15.6377 9.21167H15.6367ZM25.5342 9.03003C25.4453 8.96929 25.3549 8.91094 25.2646 8.85229C25.3549 8.91093 25.4453 8.9693 25.5342 9.03003ZM16.6514 8.76245C16.5896 8.78162 16.5203 8.80544 16.4473 8.83179C16.5205 8.80535 16.5905 8.78166 16.6523 8.76245L16.8574 8.7019L16.6514 8.76245ZM23.8926 8.06909C24.3123 8.2762 24.722 8.50656 25.1191 8.75757C24.8585 8.59285 24.593 8.436 24.3223 8.28979C24.1807 8.21335 24.0376 8.14016 23.8936 8.06909C23.7529 7.9997 23.6104 7.9323 23.4668 7.86792C23.6102 7.93222 23.7521 7.99979 23.8926 8.06909ZM17.749 8.51147C17.7031 8.51853 17.6572 8.52506 17.6113 8.53296C17.6572 8.52506 17.7031 8.51852 17.749 8.51147ZM20.1016 8.49878C20.1283 8.50243 20.1549 8.50661 20.1816 8.5105C20.1549 8.50661 20.1283 8.50243 20.1016 8.49878ZM18.1592 8.45972C18.1139 8.46422 18.0687 8.46906 18.0234 8.47437C18.0687 8.46907 18.1139 8.46422 18.1592 8.45972ZM19.6904 8.45288C19.725 8.45594 19.7594 8.46014 19.7939 8.46362C19.7594 8.46014 19.725 8.45594 19.6904 8.45288ZM19.2822 8.42651C19.3086 8.42758 19.335 8.42911 19.3613 8.43042C19.335 8.42911 19.3086 8.42758 19.2822 8.42651ZM18.957 8.42065C18.9294 8.42063 18.9017 8.4204 18.874 8.42065C18.9017 8.4204 18.9294 8.42063 18.957 8.42065ZM23.2969 7.79565C23.2105 7.75846 23.1244 7.72059 23.0371 7.6853C23.1244 7.72059 23.2105 7.75846 23.2969 7.79565ZM22.8555 7.61499C22.7672 7.58093 22.679 7.54644 22.5898 7.5144C22.679 7.54644 22.7672 7.58092 22.8555 7.61499ZM22.415 7.45483C22.3207 7.42257 22.2261 7.39099 22.1309 7.36108C22.2261 7.39099 22.3207 7.42257 22.415 7.45483ZM16.1895 7.26929L16.1885 7.27026L16.1895 7.26929ZM21.9424 7.30444C21.8644 7.28141 21.7865 7.25846 21.708 7.23706C21.7865 7.25846 21.8644 7.2814 21.9424 7.30444ZM21.4414 7.1687C21.3754 7.15242 21.3095 7.13594 21.2432 7.12085C21.3095 7.13594 21.3754 7.15241 21.4414 7.1687ZM20.9844 7.06616C20.9174 7.05262 20.8504 7.03939 20.7832 7.0271C20.8504 7.03939 20.9174 7.05261 20.9844 7.06616ZM20.5215 6.98218C20.4487 6.97073 20.3758 6.95987 20.3027 6.94995C20.3758 6.95988 20.4487 6.97073 20.5215 6.98218ZM20.0537 6.91968C19.9718 6.91057 19.8898 6.90241 19.8076 6.89526C19.8898 6.90241 19.9718 6.91056 20.0537 6.91968ZM18.125 6.89233C18.0553 6.89837 17.9858 6.90718 17.916 6.91479C17.9858 6.90718 18.0553 6.89837 18.125 6.89233ZM19.6084 6.87964C19.5038 6.87263 19.399 6.86772 19.2939 6.86401C19.399 6.86773 19.5038 6.87263 19.6084 6.87964ZM18.6104 6.86304C18.5462 6.86528 18.4822 6.86925 18.418 6.8728C18.4822 6.86925 18.5462 6.86528 18.6104 6.86304ZM18.8555 6.85913C18.9448 6.85828 19.034 6.85753 19.123 6.85913C19.034 6.85753 18.9448 6.85828 18.8555 6.85913Z" fill="white" fill-opacity="0.3"/>
</g>
</g>
</g>
</svg>
