<svg width="50" height="50" viewBox="0 0 50 50" fill="none" xmlns="http://www.w3.org/2000/svg">
<rect width="50" height="50" fill="#BEBEBE"/>
<g id="Decorate Mode">
<path d="M-121.803 -1007.03V-1006.03H2898.2V-1007.03V-1008.03H-121.803V-1007.03ZM2900.2 -1005.03H2899.2V2532.97H2900.2H2901.2V-1005.03H2900.2ZM2898.2 2534.97V2533.97H-121.803V2534.97V2535.97H2898.2V2534.97ZM-123.803 2532.97H-122.803V-1005.03H-123.803H-124.803V2532.97H-123.803ZM-121.803 2534.97V2533.97C-122.356 2533.97 -122.803 2533.52 -122.803 2532.97H-123.803H-124.803C-124.803 2534.62 -123.46 2535.97 -121.803 2535.97V2534.97ZM2900.2 2532.97H2899.2C2899.2 2533.52 2898.75 2533.97 2898.2 2533.97V2534.97V2535.97C2899.85 2535.97 2901.2 2534.62 2901.2 2532.97H2900.2ZM2898.2 -1007.03V-1006.03C2898.75 -1006.03 2899.2 -1005.59 2899.2 -1005.03H2900.2H2901.2C2901.2 -1006.69 2899.85 -1008.03 2898.2 -1008.03V-1007.03ZM-121.803 -1007.03V-1008.03C-123.46 -1008.03 -124.803 -1006.69 -124.803 -1005.03H-123.803H-122.803C-122.803 -1005.59 -122.356 -1006.03 -121.803 -1006.03V-1007.03Z" fill="black" fill-opacity="0.1"/>
<g id="Stickers">
<rect x="-69.7944" y="-134.534" width="374" height="551" rx="4.5" stroke="#9747FF" stroke-dasharray="10 5"/>
<g id="Property 1=crown">
<g id="Frame 128">
<g id="Vector">
<path d="M24.5768 16.1791C25.6487 15.9477 26.7038 16.6348 26.9254 17.7091C27.0827 18.4727 26.776 19.2233 26.1987 19.6696C26.6636 20.7413 27.2777 21.9123 28.0537 22.865C28.1954 23.039 28.3408 23.2029 28.4888 23.356C28.5025 23.3442 28.5157 23.3316 28.5301 23.3205C29.4104 22.6399 30.2003 21.7854 30.8693 20.8565C30.6267 20.6133 30.4476 20.3006 30.3678 19.9402C30.1434 18.9275 30.7853 17.9255 31.7991 17.7055C32.7909 17.4904 33.7698 18.104 34.013 19.083L34.0239 19.13L34.0339 19.177C34.1948 20.0008 33.787 20.8102 33.0758 21.1882C33.0829 21.2181 33.0892 21.2487 33.0936 21.2796C33.2328 22.2592 33.5042 23.1832 33.8787 24.1271C34.3059 23.9413 34.7279 23.7262 35.1298 23.4945L35.2191 23.4417C35.6688 23.1732 36.142 22.8256 36.6489 22.4763C36.6709 22.4612 36.6934 22.4467 36.7163 22.4335C36.6065 22.1135 36.5789 21.7651 36.6463 21.4211C36.7825 20.7258 37.2837 20.1578 37.9569 19.936C38.6197 19.7179 39.3471 19.8686 39.8683 20.3294L39.8928 20.3518C40.6808 21.0733 40.7462 22.2933 40.0396 23.0943C39.548 23.6516 38.8087 23.8631 38.1303 23.7076C38.1268 23.7156 38.1242 23.7242 38.1204 23.7321C37.1823 25.6962 36.4081 27.7345 35.8063 29.8262C35.7186 30.1434 35.649 30.4532 35.577 30.7811C35.5058 31.1047 35.4309 31.4544 35.3388 31.8112C35.2673 32.0881 35.0804 32.3207 34.8263 32.4511C34.7839 32.5099 34.7362 32.565 34.6816 32.6136C34.5086 32.7675 34.3103 32.8595 34.1843 32.9119C34.0397 32.972 33.8829 33.0226 33.7314 33.0654C33.4274 33.1515 33.0746 33.2261 32.7389 33.288C32.0636 33.4124 31.3754 33.5004 31.1049 33.533C31.103 33.5332 31.101 33.5338 31.0992 33.534C29.4376 33.7244 27.7675 33.8308 26.0953 33.8532C23.2273 33.9076 20.1581 33.8154 17.263 33.2906C17.0277 33.2479 16.7113 33.1861 16.3953 33.0989C16.0957 33.0161 15.7185 32.8903 15.4023 32.6914C15.2834 32.6166 15.184 32.5181 15.1071 32.4046C14.8604 32.2616 14.6862 32.0202 14.6286 31.7407C14.2076 29.6941 13.5906 27.6926 12.7862 25.7642C12.5043 25.0873 12.1818 24.4114 11.8533 23.7123C11.784 23.7274 11.7133 23.7401 11.6412 23.7478C10.9369 23.8226 10.247 23.5117 9.83584 22.935C9.42476 22.3583 9.35586 21.6049 9.65615 20.9635C9.95657 20.3221 10.5797 19.8922 11.286 19.8389C12.3551 19.7581 13.2914 20.5502 13.3885 21.6181C13.4142 21.9005 13.3777 22.1743 13.2919 22.4267C13.3041 22.4346 13.317 22.4423 13.329 22.4507C14.2465 23.1006 15.2846 23.7714 16.353 24.2211C16.7556 23.2884 17.0319 22.3059 17.1695 21.2989C16.5867 21.0849 16.1246 20.5868 15.9826 19.9407L15.9727 19.8937C15.7775 18.884 16.4318 17.9052 17.4395 17.6997C18.1005 17.565 18.7828 17.7956 19.2266 18.3036L19.2475 18.3276C19.6748 18.8338 19.8039 19.529 19.5849 20.1559C19.5122 20.3641 19.4048 20.5542 19.27 20.7201C19.3108 20.7636 19.343 20.8026 19.3608 20.8241C19.4062 20.8784 19.4537 20.9383 19.4956 20.9923C19.5383 21.0473 19.5803 21.103 19.6152 21.149C19.6523 21.1978 19.6773 21.2309 19.6936 21.2519C19.8419 21.4405 19.9952 21.6252 20.1528 21.8061C20.6348 22.3596 21.0568 22.7423 21.6269 23.2327C21.8377 23.0051 22.0435 22.7563 22.2412 22.4894C22.9029 21.5965 23.4299 20.5736 23.766 19.6748L23.7728 19.6571C23.4197 19.3792 23.1586 18.9805 23.0608 18.5063C22.8422 17.4461 23.5187 16.4076 24.5768 16.1791ZM30.64 32.5765C30.7041 32.5696 30.7686 32.5638 30.8327 32.5566L30.9853 32.5394C30.8703 32.5526 30.7551 32.5641 30.64 32.5765ZM28.1341 24.405C28.1581 24.4265 28.1826 24.4475 28.2068 24.4687L28.2062 24.4676C28.1823 24.4467 28.1578 24.4263 28.1341 24.405ZM14.0154 24.1145C14.1255 24.1831 14.2379 24.2497 14.3507 24.3167C14.2343 24.2475 14.1185 24.1786 14.0049 24.1077L14.0154 24.1145ZM13.1529 23.5488C13.2234 23.5971 13.2955 23.6445 13.3676 23.693C13.2944 23.6437 13.2214 23.5953 13.1498 23.5462L12.7502 23.2672L13.1529 23.5488ZM27.1171 23.2949C27.133 23.3155 27.1496 23.3356 27.1657 23.356C27.1434 23.3276 27.1208 23.2995 27.0988 23.2709L27.1171 23.2949ZM11.4829 22.7558C11.4896 22.7555 11.4965 22.7558 11.5033 22.7553L11.5357 22.7522C11.5181 22.754 11.5004 22.7549 11.4829 22.7558ZM38.0243 22.5866C38.0772 22.6233 38.133 22.6538 38.1904 22.6785C38.1333 22.6539 38.078 22.6235 38.0253 22.5871L38.0243 22.5866ZM39.2477 22.4743C39.2558 22.4662 39.2644 22.4587 39.2723 22.4502L39.289 22.4319C39.2759 22.4468 39.2615 22.4604 39.2477 22.4743ZM26.3847 22.2251C26.4087 22.2643 26.4335 22.3031 26.4578 22.3421C26.4298 22.2972 26.4017 22.2524 26.3743 22.2073L26.3847 22.2251ZM32.1356 21.6405C32.1517 21.7408 32.1697 21.8403 32.1883 21.9393C32.1629 21.8042 32.1397 21.6681 32.1188 21.5308L32.1356 21.6405ZM37.6231 21.6452C37.6223 21.6502 37.6217 21.6554 37.621 21.6604C37.6233 21.6448 37.6258 21.629 37.6289 21.6134L37.6231 21.6452ZM25.8817 21.3334C25.9207 21.408 25.9623 21.4817 26.0029 21.5564C25.9605 21.4783 25.9172 21.401 25.8764 21.3229L25.8817 21.3334ZM18.64 19.8258C18.6315 19.8501 18.6201 19.8731 18.6097 19.8963C18.6161 19.882 18.6238 19.8682 18.6295 19.8535L18.64 19.8258ZM16.9433 19.6169C16.9451 19.6369 16.9484 19.6568 16.9516 19.6769C16.9483 19.6563 16.9452 19.6358 16.9433 19.6153V19.6169ZM18.5156 19.0177C18.5076 19.0068 18.5008 18.9948 18.4921 18.9843L18.4728 18.9618C18.4883 18.9795 18.5018 18.999 18.5156 19.0177ZM17.6177 18.6849C17.6039 18.6881 17.5904 18.6926 17.5769 18.6964C17.5975 18.6906 17.6183 18.6846 17.6396 18.6802L17.6177 18.6849Z" fill="#020101"/>
<path d="M24.2945 14.8722C26.093 14.484 27.8631 15.6371 28.2348 17.4396C28.4171 18.3241 28.2277 19.1969 27.7762 19.8985C28.0363 20.4288 28.3276 20.9496 28.6491 21.4243C28.8509 21.2191 29.0474 21.0038 29.2362 20.7787C29.163 20.6042 29.1045 20.421 29.0623 20.2302L29.0304 20.0672C28.7469 18.3876 29.8323 16.7644 31.5153 16.3991C33.1622 16.042 34.7889 17.0179 35.2681 18.6056L35.3109 18.7613L35.313 18.7701L35.3151 18.7795L35.3261 18.8266L35.3292 18.8407L35.3323 18.8542L35.3465 18.9211C35.5518 19.9724 35.2172 21.0074 34.5321 21.7357C34.5667 21.8976 34.6066 22.0588 34.6496 22.2204C34.847 22.0974 35.0493 21.9615 35.2728 21.8057C35.2722 21.593 35.2921 21.3784 35.3339 21.1647L35.3841 20.9479C35.6696 19.8776 36.4768 19.0159 37.5383 18.6662C38.5835 18.3222 39.725 18.5233 40.5859 19.1886L40.7541 19.328L40.7624 19.3353L40.7708 19.3432L40.7954 19.3656C42.0791 20.5411 42.2232 22.5037 41.15 23.8508L41.0424 23.9793C40.4875 24.6083 39.7457 24.9728 38.9749 25.0679C38.2273 26.7256 37.5985 28.4347 37.0948 30.1825C37.0176 30.4619 36.9553 30.7413 36.8833 31.069C36.8316 31.304 36.7726 31.5751 36.7046 31.8588L36.6336 32.1461C36.4933 32.6895 36.1629 33.157 35.7121 33.4735C35.6684 33.5199 35.6222 33.5674 35.5711 33.6129C35.2301 33.9163 34.8668 34.077 34.6977 34.1473C34.4869 34.2349 34.2752 34.3017 34.0954 34.3526C33.7337 34.455 33.3349 34.5382 32.9811 34.6034C32.2996 34.7289 31.6141 34.8177 31.308 34.8551C31.3004 34.8563 31.2925 34.857 31.2834 34.8583C31.2866 34.8578 31.2898 34.8571 31.2928 34.8567C31.2831 34.8579 31.274 34.8598 31.2651 34.8609H31.2636L31.1049 33.533C31.3078 33.5085 31.7456 33.4535 32.2367 33.3747L32.7389 33.288C32.9907 33.2416 33.252 33.1883 33.4952 33.1282L33.7314 33.0654C33.8451 33.0333 33.9617 32.9974 34.0739 32.9558L34.1843 32.9119C34.2946 32.866 34.4601 32.7904 34.6156 32.669L34.6816 32.6136C34.7362 32.565 34.7839 32.5099 34.8263 32.4511C35.0487 32.3369 35.2196 32.145 35.3067 31.9131L35.3388 31.8112C35.3848 31.6328 35.4264 31.4566 35.4656 31.2842L35.577 30.7811C35.649 30.4532 35.7186 30.1434 35.8063 29.8262C36.3705 27.8652 37.0861 25.9515 37.9463 24.1015L38.1204 23.7321C38.1242 23.7242 38.1268 23.7156 38.1303 23.7076C38.8087 23.8631 39.548 23.6516 40.0396 23.0943C40.7462 22.2933 40.6808 21.0733 39.8928 20.3518L39.8683 20.3294C39.3471 19.8686 38.6197 19.7179 37.9569 19.936C37.2837 20.1578 36.7825 20.7258 36.6463 21.4211C36.5789 21.7651 36.6065 22.1135 36.7163 22.4335C36.6934 22.4467 36.6709 22.4612 36.6489 22.4763C36.142 22.8256 35.6688 23.1732 35.2191 23.4417L35.1298 23.4945L34.8246 23.6653C34.5164 23.8323 34.199 23.9877 33.8787 24.1271C33.5042 23.1832 33.2328 22.2592 33.0936 21.2796C33.0892 21.2487 33.0829 21.2181 33.0758 21.1882C33.7425 20.8338 34.1424 20.1008 34.0572 19.3317L34.0339 19.177L34.0239 19.13L34.013 19.083C33.7698 18.104 32.7909 17.4904 31.7991 17.7055L31.705 17.729C30.746 17.9889 30.1505 18.9593 30.3678 19.9402C30.4476 20.3006 30.6267 20.6133 30.8693 20.8565C30.2003 21.7854 29.4104 22.6399 28.5301 23.3205C28.5157 23.3316 28.5025 23.3442 28.4888 23.356L28.2688 23.1189C28.1962 23.0371 28.1246 22.952 28.0537 22.865C27.2777 21.9123 26.6636 20.7413 26.1987 19.6696C26.74 19.2512 27.0432 18.5657 26.9493 17.8523L26.9254 17.7091C26.7038 16.6348 25.6487 15.9477 24.5768 16.1791C23.5187 16.4076 22.8422 17.4461 23.0608 18.5063C23.1586 18.9805 23.4197 19.3792 23.7728 19.6571L23.766 19.6748L23.6311 20.0176C23.296 20.8277 22.8202 21.7081 22.2412 22.4894C22.0435 22.7563 21.8377 23.0051 21.6269 23.2327L21.224 22.8812C20.9059 22.5975 20.6252 22.3287 20.3313 22.0068L20.1528 21.8061C20.074 21.7157 19.9962 21.6248 19.9196 21.5325L19.6936 21.2519L19.6152 21.149L19.4956 20.9923L19.3608 20.8241C19.343 20.8026 19.3108 20.7636 19.27 20.7201C19.4048 20.5542 19.5122 20.3641 19.5849 20.1559C19.8039 19.529 19.6748 18.8338 19.2475 18.3276L19.2266 18.3036C18.7828 17.7956 18.1005 17.565 17.4395 17.6997C16.4318 17.9052 15.7775 18.884 15.9727 19.8937L15.9826 19.9407C16.1246 20.5868 16.5867 21.0849 17.1695 21.2989C17.0319 22.3059 16.7556 23.2884 16.353 24.2211C15.2846 23.7714 14.2465 23.1006 13.329 22.4507C13.317 22.4423 13.3041 22.4346 13.2919 22.4267C13.367 22.2059 13.4042 21.9692 13.3952 21.7242L13.3885 21.6181C13.2914 20.5502 12.3551 19.7581 11.286 19.8389L11.1547 19.8535C10.5031 19.947 9.93782 20.3621 9.65615 20.9635C9.35586 21.6049 9.42476 22.3583 9.83584 22.935C10.247 23.5117 10.9369 23.8226 11.6412 23.7478C11.7133 23.7401 11.784 23.7274 11.8533 23.7123C12.1818 24.4114 12.5043 25.0873 12.7862 25.7642C13.5906 27.6926 14.2076 29.6941 14.6286 31.7407C14.6862 32.0202 14.8604 32.2616 15.1071 32.4046C15.184 32.5181 15.2834 32.6166 15.4023 32.6914C15.7185 32.8903 16.0957 33.0161 16.3953 33.0989C16.7113 33.1861 17.0277 33.2479 17.263 33.2906C20.1581 33.8154 23.2273 33.9076 26.0953 33.8532C27.7675 33.8308 29.4376 33.7244 31.0992 33.534C31.101 33.5338 31.103 33.5332 31.1049 33.533L31.2636 34.8609C31.2596 34.8614 31.2557 34.8625 31.2515 34.863C29.5453 35.0585 27.8299 35.1681 26.1129 35.191C23.2096 35.2458 20.0427 35.1541 17.0246 34.607C16.7777 34.5622 16.4139 34.4916 16.0394 34.3881C15.7027 34.2951 15.1741 34.1284 14.6901 33.824C14.4967 33.7023 14.3274 33.5554 14.1834 33.392C13.7422 33.0525 13.4328 32.5641 13.3189 32.0108C12.9151 30.0482 12.3236 28.1285 11.5522 26.2793C11.3863 25.881 11.2038 25.4824 11.0105 25.0674C10.1112 24.9509 9.28626 24.4681 8.74707 23.7118C8.05624 22.7427 7.94 21.4757 8.44513 20.3968C8.95036 19.3181 9.99779 18.5956 11.185 18.5058C12.9824 18.37 14.5571 19.7018 14.7204 21.4975L14.7314 21.6751C14.7329 21.7147 14.7324 21.7543 14.7325 21.7936C15.0176 21.9839 15.3065 22.1663 15.5965 22.3369C15.6311 22.2085 15.6627 22.0795 15.6921 21.9498C15.1957 21.5136 14.8288 20.9209 14.6766 20.2281L14.6755 20.2229L14.6739 20.2176L14.664 20.1706L14.6619 20.1591L14.6598 20.1482C14.3254 18.4186 15.4463 16.7417 17.1725 16.3897C18.2339 16.1733 19.3274 16.5073 20.0863 17.2667L20.2336 17.4245L20.2357 17.4266L20.2566 17.4506L20.2691 17.4652C20.9939 18.3238 21.2169 19.4996 20.8573 20.565C20.9561 20.687 21.0567 20.8085 21.1608 20.9281C21.2643 21.0468 21.3649 21.1567 21.4654 21.2619C21.7537 20.8226 22.0075 20.3598 22.2165 19.91C22.0243 19.6143 21.8762 19.2834 21.785 18.9248L21.7511 18.7769C21.3844 16.9982 22.5193 15.2555 24.2945 14.8722ZM31.3717 34.8436C31.3666 34.8447 31.3573 34.8464 31.3471 34.8483C31.3497 34.8479 31.3523 34.8477 31.3545 34.8473C31.3635 34.8456 31.3708 34.844 31.3748 34.8431L31.3717 34.8436ZM30.8327 32.5566C30.7686 32.5638 30.7041 32.5696 30.64 32.5765C30.7551 32.5641 30.8703 32.5526 30.9853 32.5394L30.8327 32.5566ZM28.2062 24.4676L28.2068 24.4687C28.1826 24.4475 28.1581 24.4265 28.1341 24.405C28.1578 24.4263 28.1823 24.4467 28.2062 24.4676ZM14.3507 24.3167C14.2379 24.2497 14.1255 24.1831 14.0154 24.1145L14.0049 24.1077C14.1185 24.1786 14.2343 24.2475 14.3507 24.3167ZM11.22 24.0837C11.2213 24.0839 11.2233 24.0835 11.2257 24.0837L11.2179 24.0832C11.2185 24.0833 11.2193 24.0837 11.22 24.0837ZM13.1498 23.5462C13.2214 23.5953 13.2944 23.6437 13.3676 23.693C13.2955 23.6445 13.2234 23.5971 13.1529 23.5488L12.7699 23.2814L13.1498 23.5462ZM40.1805 23.4329C40.1785 23.4348 40.176 23.4368 40.1758 23.437L40.1769 23.4365L40.1805 23.4329ZM27.1657 23.356C27.1496 23.3356 27.133 23.3155 27.1171 23.2949L27.0988 23.2709C27.1208 23.2995 27.1434 23.3276 27.1657 23.356ZM11.5033 22.7553C11.4965 22.7558 11.4896 22.7555 11.4829 22.7558C11.5004 22.7549 11.5181 22.754 11.5357 22.7522L11.5033 22.7553ZM38.0253 22.5871C38.0351 22.5939 38.0455 22.6001 38.0555 22.6065C38.0452 22.5999 38.0344 22.5936 38.0243 22.5866L38.0253 22.5871ZM39.2723 22.4502C39.2644 22.4587 39.2558 22.4662 39.2477 22.4743C39.2615 22.4604 39.2759 22.4468 39.289 22.4319L39.2723 22.4502ZM26.4578 22.3421C26.4335 22.3031 26.4087 22.2643 26.3847 22.2251L26.3743 22.2073C26.4017 22.2524 26.4298 22.2972 26.4578 22.3421ZM32.1883 21.9393C32.1697 21.8403 32.1517 21.7408 32.1356 21.6405L32.1188 21.5308C32.1397 21.6681 32.1629 21.8042 32.1883 21.9393ZM37.621 21.6604C37.6217 21.6554 37.6223 21.6502 37.6231 21.6452L37.6289 21.6134C37.6258 21.629 37.6233 21.6448 37.621 21.6604ZM36.2956 21.4813L36.2961 21.4802C36.2964 21.4783 36.297 21.4743 36.2977 21.4693C36.2969 21.475 36.2959 21.4793 36.2956 21.4813ZM18.6295 19.8535C18.6238 19.8682 18.6161 19.882 18.6097 19.8963C18.6201 19.8731 18.6315 19.8501 18.64 19.8258L18.6295 19.8535ZM18.4921 18.9843C18.5008 18.9948 18.5076 19.0068 18.5156 19.0177C18.5018 18.999 18.4883 18.9795 18.4728 18.9618L18.4921 18.9843ZM17.5769 18.6964C17.5904 18.6926 17.6039 18.6881 17.6177 18.6849L17.6396 18.6802C17.6183 18.6846 17.5975 18.6906 17.5769 18.6964ZM17.2049 17.4125C17.2056 17.4123 17.2059 17.4122 17.2085 17.4114C17.2101 17.411 17.2125 17.4102 17.2153 17.4093C17.2102 17.4108 17.206 17.4121 17.2049 17.4125Z" fill="#E8E7E7"/>
<path d="M24.1251 14.0876C26.3093 13.6161 28.4583 14.9751 28.9853 17.1278C29.5437 16.3827 30.3639 15.8281 31.3455 15.615L31.5387 15.5784C33.4661 15.257 35.3316 16.3747 35.9759 18.1903L36.0364 18.3742L36.0417 18.393L36.0824 18.5403C36.4405 18.2668 36.8458 18.0495 37.287 17.9041L37.5326 17.832C38.6809 17.5316 39.8983 17.7452 40.8716 18.4056L41.0764 18.5539L41.0983 18.5706L41.2665 18.7106L41.2822 18.7242L41.2906 18.7315L41.3115 18.7503L41.3167 18.7556L41.3365 18.7733C41.3415 18.7779 41.3463 18.7833 41.3512 18.788C42.9343 20.2509 43.1082 22.6797 41.7774 24.3503C41.7734 24.3554 41.7691 24.3609 41.7649 24.3659L41.6573 24.4945C41.6529 24.4997 41.6482 24.505 41.6437 24.5101C41.0664 25.1644 40.3254 25.5849 39.5395 25.7753C38.8808 27.28 38.3207 28.8261 37.8658 30.4047C37.7962 30.6579 37.739 30.9155 37.6673 31.2415C37.6162 31.4741 37.5546 31.7535 37.4845 32.046L37.4834 32.0512L37.4124 32.3385L37.4103 32.3469C37.2283 33.0517 36.8073 33.6576 36.237 34.0802C36.1979 34.1202 36.1549 34.1668 36.1044 34.2118C35.6631 34.6043 35.2012 34.8063 35.0053 34.8878C34.7545 34.992 34.5098 35.0694 34.3136 35.1249C33.9175 35.237 33.491 35.3253 33.1268 35.3924C32.4221 35.5222 31.7183 35.6133 31.4061 35.6515C31.4018 35.6521 31.3956 35.6529 31.3904 35.6536C31.3887 35.6538 31.3869 35.6534 31.3852 35.6536C31.3784 35.6546 31.3703 35.6567 31.3611 35.6578C31.3594 35.658 31.3576 35.6576 31.3559 35.6578C31.3519 35.6583 31.3477 35.6593 31.3434 35.6598C29.6115 35.8583 27.8698 35.9687 26.1269 35.9921C23.2013 36.0473 19.975 35.9573 16.8817 35.3966C16.6271 35.3503 16.2347 35.2745 15.8255 35.1615C15.4664 35.0623 14.847 34.8709 14.2625 34.5033C14.0222 34.3521 13.8117 34.1715 13.6294 33.9736C13.0725 33.5208 12.6808 32.8881 12.5334 32.1724C12.14 30.2601 11.5632 28.3899 10.8117 26.5882L10.8106 26.5871C10.6999 26.3214 10.5801 26.0544 10.4533 25.7774C9.51578 25.5467 8.67302 24.9895 8.09424 24.1779C7.23559 22.9733 7.09006 21.3978 7.71812 20.0563C8.34615 18.7154 9.64841 17.8173 11.1241 17.7056C12.1678 17.6267 13.1517 17.946 13.924 18.5362C14.2961 17.0957 15.4586 15.9204 17.0123 15.6035C18.2563 15.35 19.5352 15.7011 20.4716 16.5281L20.6544 16.6995L20.6732 16.7193L20.8205 16.8771C20.8277 16.8848 20.8345 16.8921 20.8414 16.9001L20.8623 16.9241L20.8654 16.9283L20.878 16.9429L20.8821 16.9481C20.9247 16.9985 20.9646 17.0507 21.0044 17.1027C21.3756 15.6346 22.5465 14.4284 24.1251 14.0876ZM31.4614 35.6421C31.4575 35.6426 31.4542 35.6429 31.452 35.6431C31.4537 35.6429 31.4559 35.6435 31.4583 35.6431C31.4626 35.6425 31.4688 35.6412 31.4761 35.64C31.4701 35.6409 31.4651 35.6416 31.4614 35.6421ZM28.2348 17.4396C27.8631 15.6371 26.093 14.484 24.2945 14.8722L24.1303 14.9119C22.4501 15.3641 21.396 17.0538 21.7511 18.7769L21.785 18.9248L21.8642 19.1881C21.9533 19.4464 22.0723 19.6881 22.2165 19.91C22.0075 20.3598 21.7537 20.8226 21.4654 21.2619C21.3649 21.1567 21.2643 21.0468 21.1608 20.9281C21.0567 20.8085 20.9561 20.687 20.8573 20.565C21.2169 19.4996 20.9939 18.3238 20.2691 17.4652L20.2566 17.4506L20.2357 17.4266L20.2336 17.4245L20.0863 17.2667C19.3274 16.5073 18.2339 16.1733 17.1725 16.3897C15.4463 16.7417 14.3254 18.4186 14.6598 20.1482L14.6619 20.1591L14.664 20.1706L14.6739 20.2176L14.6766 20.2281C14.8288 20.9209 15.1957 21.5136 15.6921 21.9498C15.6627 22.0795 15.6311 22.2085 15.5965 22.3369C15.3065 22.1663 15.0176 21.9839 14.7325 21.7936C14.7324 21.7543 14.7329 21.7147 14.7314 21.6751L14.7204 21.4975C14.5571 19.7018 12.9824 18.37 11.185 18.5058L10.9642 18.5299C9.86901 18.6872 8.91879 19.3855 8.44513 20.3968L8.35752 20.6017C7.95682 21.6333 8.09951 22.8034 8.74707 23.7118C9.28626 24.4681 10.1112 24.9509 11.0105 25.0674C11.1071 25.2748 11.2008 25.4781 11.2912 25.6792L11.5522 26.2793C12.3236 28.1285 12.9151 30.0482 13.3189 32.0108C13.4328 32.5641 13.7422 33.0525 14.1834 33.392C14.3274 33.5554 14.4967 33.7023 14.6901 33.824C15.1741 34.1284 15.7027 34.2951 16.0394 34.3881C16.4139 34.4916 16.7777 34.5622 17.0246 34.607C20.0427 35.1541 23.2096 35.2458 26.1129 35.191L26.7569 35.1782C28.2587 35.1392 29.7587 35.034 31.2515 34.863L31.2636 34.8609H31.2651C31.274 34.8598 31.2831 34.8579 31.2928 34.8567C31.2898 34.8571 31.2866 34.8578 31.2834 34.8583C31.2925 34.857 31.3004 34.8563 31.308 34.8551C31.5375 34.8271 31.9803 34.77 32.4748 34.6903L32.9811 34.6034C33.2463 34.5545 33.5372 34.4956 33.8184 34.426L34.0954 34.3526C34.1852 34.3272 34.283 34.298 34.3847 34.264L34.6977 34.1473C34.8459 34.0857 35.1429 33.9547 35.443 33.7197L35.5711 33.6129C35.6222 33.5674 35.6684 33.5199 35.7121 33.4735C36.1064 33.1965 36.4091 32.8037 36.5724 32.3459L36.6336 32.1461L36.7046 31.8588L36.8833 31.069C36.9553 30.7413 37.0176 30.4619 37.0948 30.1825C37.5985 28.4347 38.2273 26.7256 38.9749 25.0679C39.6491 24.9846 40.3015 24.6952 40.8256 24.203L41.0424 23.9793L41.15 23.8508C42.156 22.5879 42.0927 20.7845 41.0231 19.5956L40.7954 19.3656L40.7708 19.3432L40.7541 19.328L40.5859 19.1886C39.725 18.5233 38.5835 18.3222 37.5383 18.6662L37.3424 18.7378C36.3781 19.1245 35.6519 19.9448 35.3841 20.9479L35.3339 21.1647C35.2921 21.3784 35.2722 21.593 35.2728 21.8057C35.0493 21.9615 34.847 22.0974 34.6496 22.2204C34.6066 22.0588 34.5667 21.8976 34.5321 21.7357C35.2172 21.0074 35.5518 19.9724 35.3465 18.9211L35.3323 18.8542L35.3261 18.8266L35.3109 18.7613L35.2681 18.6056C34.7889 17.0179 33.1622 16.042 31.5153 16.3991C29.8323 16.7644 28.7469 18.3876 29.0304 20.0672L29.0623 20.2302L29.1379 20.5108C29.1669 20.602 29.1997 20.6917 29.2362 20.7787C29.0474 21.0038 28.8509 21.2191 28.6491 21.4243C28.3276 20.9496 28.0363 20.4288 27.7762 19.8985C28.2277 19.1969 28.4171 18.3241 28.2348 17.4396ZM31.3545 34.8473C31.3523 34.8477 31.3497 34.8479 31.3471 34.8483C31.3517 34.8475 31.3562 34.8457 31.3601 34.8449C31.3584 34.8453 31.3564 34.8469 31.3545 34.8473ZM24.5768 16.1791C25.6487 15.9477 26.7038 16.6348 26.9254 17.7091L26.9493 17.8523C27.0432 18.5657 26.74 19.2512 26.1987 19.6696C26.6636 20.7413 27.2777 21.9123 28.0537 22.865C28.1246 22.952 28.1962 23.0371 28.2688 23.1189L28.4888 23.356C28.5025 23.3442 28.5157 23.3316 28.5301 23.3205C29.4104 22.6399 30.2003 21.7854 30.8693 20.8565C30.6267 20.6133 30.4476 20.3006 30.3678 19.9402C30.1505 18.9593 30.746 17.9889 31.705 17.729L31.7991 17.7055C32.7909 17.4904 33.7698 18.104 34.013 19.083L34.0239 19.13L34.0339 19.177L34.0572 19.3317C34.1424 20.1008 33.7425 20.8338 33.0758 21.1882C33.0829 21.2181 33.0892 21.2487 33.0936 21.2796C33.2328 22.2592 33.5042 23.1832 33.8787 24.1271C34.199 23.9877 34.5164 23.8323 34.8246 23.6653L35.1298 23.4945L35.2191 23.4417C35.4438 23.3076 35.6744 23.154 35.9121 22.99L36.6489 22.4763L36.7163 22.4335C36.6065 22.1135 36.5789 21.7651 36.6463 21.4211C36.7825 20.7258 37.2837 20.1578 37.9569 19.936C38.6197 19.7179 39.3471 19.8686 39.8683 20.3294L39.8928 20.3518C40.6808 21.0733 40.7462 22.2933 40.0396 23.0943C39.548 23.6516 38.8087 23.8631 38.1303 23.7076C38.1268 23.7156 38.1242 23.7242 38.1204 23.7321L37.9463 24.1015C37.0861 25.9515 36.3705 27.8652 35.8063 29.8262C35.7186 30.1434 35.649 30.4532 35.577 30.7811L35.4656 31.2842C35.4264 31.4566 35.3848 31.6328 35.3388 31.8112L35.3067 31.9131L35.2706 31.9979C35.1766 32.1917 35.0208 32.3511 34.8263 32.4511L34.7587 32.537C34.7346 32.5643 34.7089 32.5893 34.6816 32.6136L34.6156 32.669C34.4601 32.7904 34.2946 32.866 34.1843 32.9119L34.0739 32.9558C33.9617 32.9974 33.8451 33.0333 33.7314 33.0654L33.4952 33.1282L33.1205 33.213C32.9933 33.2398 32.8648 33.2648 32.7389 33.288L32.2367 33.3747L31.5628 33.4742L31.1049 33.533C31.103 33.5332 31.101 33.5338 31.0992 33.534C29.4376 33.7244 27.7675 33.8308 26.0953 33.8532C23.4065 33.9042 20.5406 33.8267 17.8074 33.3844L17.263 33.2906C17.0277 33.2479 16.7113 33.1861 16.3953 33.0989C16.1707 33.0368 15.9023 32.9506 15.6489 32.8275L15.4023 32.6914C15.313 32.6352 15.2344 32.5662 15.1683 32.4869L15.1071 32.4046C14.8604 32.2616 14.6862 32.0202 14.6286 31.7407C14.2076 29.6941 13.5906 27.6926 12.7862 25.7642C12.5043 25.0873 12.1818 24.4114 11.8533 23.7123C11.784 23.7274 11.7133 23.7401 11.6412 23.7478C10.9809 23.8179 10.3334 23.5493 9.9163 23.0401L9.83584 22.935C9.45044 22.3943 9.36554 21.6988 9.60392 21.0854L9.65615 20.9635C9.93782 20.3621 10.5031 19.947 11.1547 19.8535L11.286 19.8389C12.3551 19.7581 13.2914 20.5502 13.3885 21.6181L13.3952 21.7242C13.4042 21.9692 13.367 22.2059 13.2919 22.4267C13.3041 22.4346 13.317 22.4423 13.329 22.4507C14.2465 23.1006 15.2846 23.7714 16.353 24.2211C16.7053 23.4049 16.961 22.5512 17.1116 21.6757L17.1695 21.2989C16.6597 21.1116 16.2416 20.7074 16.0501 20.1764L15.9826 19.9407L15.9727 19.8937C15.7775 18.884 16.4318 17.9052 17.4395 17.6997C18.1005 17.565 18.7828 17.7956 19.2266 18.3036L19.2475 18.3276C19.6748 18.8338 19.8039 19.529 19.5849 20.1559L19.524 20.3091C19.4567 20.4582 19.371 20.5957 19.27 20.7201C19.3108 20.7636 19.343 20.8026 19.3608 20.8241L19.4956 20.9923L19.6152 21.149L19.6936 21.2519L19.9196 21.5325C19.9962 21.6248 20.074 21.7157 20.1528 21.8061L20.3313 22.0068C20.6252 22.3287 20.9059 22.5975 21.224 22.8812L21.6269 23.2327C21.7323 23.119 21.8359 23.0001 21.9384 22.8761L22.2412 22.4894C22.7476 21.806 23.1758 21.0466 23.4993 20.3248L23.6311 20.0176L23.766 19.6748L23.7728 19.6571C23.464 19.414 23.2258 19.0789 23.1054 18.6814L23.0608 18.5063C22.8422 17.4461 23.5187 16.4076 24.5768 16.1791ZM26.1091 17.7547C25.9296 17.1854 25.3419 16.8351 24.7457 16.9638C24.1182 17.0995 23.7165 17.7161 23.8461 18.345C23.9042 18.626 24.0587 18.8615 24.2693 19.0272C24.5452 19.2445 24.6475 19.6164 24.5221 19.9445L24.5158 19.9623L24.5127 19.9696L24.3779 20.3112L24.3727 20.3248C24.0155 21.1882 23.5085 22.128 22.886 22.9681C22.672 23.2569 22.4471 23.5285 22.2153 23.7788C21.9202 24.0971 21.4252 24.123 21.0984 23.8373L20.6962 23.4852L20.6899 23.48C20.3575 23.1836 20.0563 22.8953 19.7392 22.5481L19.7329 22.5407L19.5543 22.3412L19.5469 22.3339C19.4641 22.2387 19.3819 22.1415 19.3014 22.0445L19.2952 22.0372L19.0695 21.7572C19.0647 21.7512 19.0595 21.7445 19.0549 21.7384L18.9765 21.636L18.8689 21.4949L18.7446 21.3393L18.7341 21.3267C18.7183 21.3079 18.7033 21.2888 18.685 21.2693C18.5319 21.106 18.4613 20.8942 18.4708 20.6842C18.4065 20.6728 18.3419 20.6569 18.2796 20.6288C17.901 20.458 17.7193 20.0293 17.8482 19.6436L17.8785 19.5673L17.8805 19.5621C17.8819 19.5592 17.8826 19.5562 17.8837 19.5538C17.8853 19.5503 17.8878 19.5466 17.8889 19.5444L17.8952 19.5256C17.8872 19.5158 17.8787 19.5065 17.8711 19.4963C17.8657 19.489 17.8603 19.4812 17.8576 19.4775L17.8555 19.4744C17.852 19.4694 17.8484 19.4653 17.8461 19.4618C17.8444 19.4597 17.8425 19.4577 17.8408 19.4556C17.8349 19.4571 17.8291 19.4594 17.8231 19.4608C17.8225 19.4609 17.8201 19.4615 17.8189 19.4618L17.8199 19.4608C17.8189 19.461 17.8179 19.4616 17.8168 19.4618L17.8158 19.4629C17.813 19.4637 17.809 19.4646 17.8043 19.466L17.8053 19.465C17.8043 19.4652 17.8034 19.4667 17.8022 19.467C17.7999 19.4677 17.7968 19.4683 17.7938 19.4691C17.4157 19.5754 17.0252 19.3923 16.8577 19.0523C16.7537 19.2566 16.7137 19.4954 16.7595 19.7376L16.7679 19.7753C16.8504 20.1404 17.1122 20.4237 17.4459 20.5463C17.7997 20.6762 18.0151 21.0349 17.9641 21.4082C17.8165 22.4885 17.5205 23.5412 17.0897 24.5394C16.9152 24.9435 16.4475 25.1321 16.0418 24.9615C15.7301 24.8303 15.4227 24.6816 15.1213 24.5227C15.1028 24.5921 15.0793 24.6615 15.0409 24.7264C14.8288 25.0836 14.3827 25.2162 14.0139 25.045L13.9407 25.0074C13.8282 24.9406 13.7091 24.87 13.5907 24.7964C13.5865 24.7937 13.5824 24.7908 13.5782 24.788L13.5678 24.7807C13.4515 24.7052 13.3641 24.6032 13.3024 24.4892C13.2267 24.4831 13.1516 24.4684 13.0788 24.4401C13.2341 24.7781 13.3857 25.1165 13.527 25.4556L13.8269 26.2006C14.5058 27.9452 15.0374 29.7444 15.4149 31.579L15.4274 31.6187C15.4387 31.6443 15.4546 31.6677 15.4755 31.6866L15.51 31.7106L15.5852 31.7608C15.6575 31.8145 15.7204 31.8802 15.7712 31.9551C15.7886 31.9809 15.8093 31.9998 15.8297 32.0126C16.0452 32.1481 16.3318 32.2494 16.6091 32.326C16.8897 32.4035 17.178 32.4601 17.4062 32.5015L17.937 32.5924C20.6011 33.0235 23.4123 33.1017 26.0798 33.0511H26.084C27.3538 33.0341 28.6226 32.9659 29.887 32.8505C29.8654 32.791 29.8491 32.7282 29.842 32.6624C29.7979 32.2495 30.0753 31.8762 30.4731 31.7921L30.5546 31.7796L30.8941 31.743C31.3342 31.6933 31.7321 32.0093 31.7822 32.4493C31.7892 32.5107 31.7867 32.5711 31.7801 32.63C31.8852 32.6145 31.996 32.6001 32.1092 32.582L32.6034 32.4973C32.8417 32.4533 33.0827 32.4033 33.3023 32.349L33.5123 32.2936C33.6082 32.2665 33.6996 32.2373 33.7829 32.2069L33.8759 32.1714C33.9583 32.1371 34.0429 32.0947 34.113 32.0418L34.1475 32.0126C34.1513 32.0091 34.162 32.0013 34.1757 31.9823L34.2353 31.9081C34.2991 31.8387 34.3756 31.7811 34.4599 31.7378C34.5027 31.7158 34.5342 31.6794 34.5518 31.6375L34.5644 31.5947C34.6062 31.4319 34.6466 31.2693 34.6835 31.1068L34.7932 30.6084C34.8652 30.2808 34.9386 29.9524 35.0324 29.6128L35.0345 29.6044C35.6102 27.6037 36.3415 25.6505 37.2191 23.7631L37.2202 23.7589L37.3863 23.4069C37.3892 23.3997 37.3926 23.391 37.3967 23.3818C37.4266 23.3146 37.4668 23.2546 37.5117 23.2C37.43 23.1318 37.3659 23.0508 37.3184 22.9607C37.2618 23.0255 37.1956 23.0839 37.1178 23.1289C37.116 23.13 37.1114 23.1324 37.1042 23.1373C36.6271 23.4661 36.1096 23.8446 35.63 24.1309L35.6269 24.133L35.5381 24.1862C35.5325 24.1896 35.526 24.1925 35.5203 24.1957L35.2153 24.3659L35.2069 24.3712C34.8802 24.5481 34.5418 24.714 34.1987 24.8633C33.9996 24.9499 33.7737 24.9523 33.5729 24.8695C33.372 24.7866 33.2132 24.6254 33.1331 24.4234C32.9004 23.8371 32.7034 23.2514 32.5501 22.6515C32.4838 22.6852 32.4137 22.7143 32.3369 22.7288C31.9015 22.8107 31.4818 22.5238 31.3998 22.0884C31.3804 21.9854 31.361 21.8781 31.3434 21.7687L31.3423 21.7624L31.3256 21.6527C31.3227 21.6338 31.3209 21.614 31.3193 21.5952C30.6561 22.4726 29.8843 23.2878 29.0209 23.9554C29.028 23.9498 29.0335 23.9453 29.0365 23.9428L29.0324 23.947C29.0282 23.9507 29.0215 23.9569 29.0135 23.9637C28.9738 23.998 28.9311 24.0273 28.8871 24.0525C28.8988 24.0716 28.9136 24.0888 28.9237 24.1089L28.9247 24.11C29.0963 24.453 29.0006 24.8702 28.697 25.1046C28.3936 25.3388 27.9668 25.3255 27.6783 25.0733C27.6639 25.0606 27.6261 25.0275 27.5968 25.0012C27.3462 24.7751 27.2719 24.4274 27.3816 24.1288C27.0784 24.2135 26.7408 24.115 26.5343 23.8519C26.5299 23.8463 26.5251 23.8409 26.5155 23.8289C26.5073 23.8187 26.4951 23.803 26.4821 23.7861L26.4779 23.7809L26.4601 23.7569C26.3185 23.5705 26.2722 23.3425 26.3107 23.1289C26.0978 23.0891 25.9007 22.9657 25.7769 22.7675C25.7588 22.7386 25.7258 22.6871 25.6996 22.6442L25.6933 22.6327L25.6828 22.6149C25.4594 22.235 25.5836 21.7453 25.9618 21.519C26.026 21.4805 26.0946 21.4553 26.1634 21.4364C25.8989 20.9463 25.6646 20.4557 25.4624 19.9894C25.3164 19.6527 25.4176 19.26 25.7079 19.0356C26.0292 18.7872 26.2072 18.3816 26.154 17.9626L26.1394 17.8717L26.1091 17.7547ZM30.64 32.5765C30.7041 32.5696 30.7686 32.5638 30.8327 32.5566L30.9853 32.5394C30.8703 32.5526 30.7551 32.5641 30.64 32.5765ZM14.0154 24.1145C14.1255 24.1831 14.2379 24.2497 14.3507 24.3167C14.2343 24.2475 14.1185 24.1786 14.0049 24.1077L14.0154 24.1145ZM11.2257 24.0837C11.2233 24.0835 11.2213 24.0839 11.22 24.0837C11.2193 24.0837 11.2185 24.0833 11.2179 24.0832L11.2257 24.0837ZM13.3676 23.693C13.2955 23.6445 13.2234 23.5971 13.1529 23.5488L13.1498 23.5462C13.2214 23.5953 13.2944 23.6437 13.3676 23.693ZM11.4829 22.7558C11.4896 22.7555 11.4965 22.7558 11.5033 22.7553L11.5357 22.7522C11.5181 22.754 11.5004 22.7549 11.4829 22.7558ZM11.3539 20.6382L11.2567 20.6497C10.8767 20.7083 10.547 20.953 10.3823 21.3048C10.2052 21.6835 10.2459 22.1287 10.4888 22.4697C10.5454 22.5491 10.6118 22.6193 10.6842 22.6807C10.7182 22.3171 10.9963 22.0188 11.3602 21.963L11.4417 21.9546L11.45 21.9536C11.453 21.9535 11.4558 21.9537 11.4584 21.9536L11.5399 21.9505C11.9264 21.9521 12.258 22.2319 12.3245 22.6149C12.3787 22.5787 12.4364 22.549 12.4969 22.5272C12.482 22.4093 12.4922 22.287 12.5324 22.1688C12.577 22.0375 12.5983 21.8978 12.593 21.754L12.5888 21.6914L12.5731 21.5754C12.4634 21.0063 11.9435 20.5976 11.3539 20.6382ZM39.2477 22.4743C39.2558 22.4662 39.2644 22.4587 39.2723 22.4502L39.289 22.4319C39.2759 22.4468 39.2615 22.4604 39.2477 22.4743ZM39.3254 20.9224C39.0184 20.6576 38.5945 20.5714 38.2075 20.6988C38.0946 20.7361 37.9911 20.7914 37.8972 20.8587C38.2614 20.9877 38.4891 21.364 38.4185 21.7561L38.4154 21.7666L38.4164 21.7676C38.4163 21.7686 38.4161 21.7712 38.4154 21.776C38.4104 21.81 38.4013 21.8429 38.3924 21.8752C38.423 21.891 38.4529 21.9079 38.4812 21.9275C38.4716 21.9208 38.4635 21.9161 38.4582 21.9128C38.4593 21.9135 38.4611 21.9142 38.4624 21.9149L38.4864 21.9296C38.5247 21.9539 38.5593 21.9827 38.5919 22.0121C38.6176 21.9759 38.6463 21.9411 38.6787 21.9087C38.6873 21.9 38.6951 21.892 38.6996 21.8878C38.9684 21.5969 39.4032 21.5504 39.7255 21.7603C39.7155 21.4596 39.5895 21.1632 39.3504 20.9443L39.3254 20.9224ZM32.1356 21.6405C32.1517 21.7408 32.1697 21.8403 32.1883 21.9393C32.1629 21.8042 32.1397 21.6681 32.1188 21.5308L32.1356 21.6405ZM38.4572 21.9118L38.4582 21.9128C38.457 21.9121 38.4558 21.9112 38.4551 21.9108L38.454 21.9097C38.4549 21.9102 38.4561 21.9111 38.4572 21.9118ZM38.4164 21.7624C38.4163 21.7635 38.4156 21.7649 38.4154 21.7666C38.4158 21.764 38.4173 21.7617 38.4175 21.7603C38.4174 21.7611 38.4166 21.7611 38.4164 21.7624ZM33.2302 19.2654C33.0864 18.7133 32.5318 18.3682 31.9692 18.4902L31.9681 18.4892L31.9138 18.5027C31.4007 18.6421 31.0705 19.1397 31.1334 19.6624L31.1511 19.7669L31.1961 19.9163C31.2505 20.0599 31.3335 20.1861 31.4374 20.2903C31.5952 20.4486 31.6714 20.6587 31.6683 20.8691C31.7644 20.8037 31.8758 20.7572 31.9984 20.7385C32.1344 20.7179 32.2661 20.736 32.3871 20.7793C32.4603 20.6561 32.5662 20.5513 32.6995 20.4805C33.08 20.2782 33.3074 19.8579 33.2595 19.4211L33.2438 19.3187L33.2386 19.2968L33.2302 19.2654ZM18.6097 19.8963C18.6161 19.882 18.6238 19.8682 18.6295 19.8535L18.64 19.8258C18.6315 19.8501 18.6201 19.8731 18.6097 19.8963ZM17.8053 19.465C17.8063 19.4647 17.8076 19.4652 17.8085 19.465C17.812 19.464 17.814 19.4641 17.8147 19.4639C17.8141 19.4641 17.8105 19.4638 17.8053 19.465ZM18.5156 19.0177C18.5076 19.0068 18.5008 18.9948 18.4921 18.9843L18.4728 18.9618C18.4883 18.9795 18.5018 18.999 18.5156 19.0177ZM17.2085 17.4114C17.2059 17.4122 17.2056 17.4123 17.2049 17.4125C17.206 17.4121 17.2102 17.4108 17.2153 17.4093C17.2125 17.4102 17.2101 17.411 17.2085 17.4114Z" fill="#020101"/>
<path fill-rule="evenodd" clip-rule="evenodd" d="M31.9405 17.3692C32.9529 17.1495 33.9524 17.7761 34.2006 18.7756L34.2119 18.8235L34.222 18.8716C34.3862 19.7126 33.9699 20.5388 33.244 20.9246C33.2513 20.9551 33.2573 20.9862 33.2618 21.0178C33.4177 22.1152 33.7354 23.1445 34.1772 24.2069C34.2867 24.4702 34.2812 24.7674 34.162 25.0264C34.0428 25.2855 33.8208 25.483 33.5495 25.5711C32.5588 25.8931 31.5548 25.9901 30.4774 25.7356C30.4705 25.734 30.4637 25.7323 30.457 25.7305C29.7182 25.5399 29.0703 25.1948 28.5073 24.6336C28.2992 24.4261 28.1904 24.139 28.2088 23.8457C28.2273 23.5524 28.3712 23.2812 28.6037 23.1015C29.5024 22.4067 30.3083 21.5342 30.9913 20.5859C30.7436 20.3377 30.5612 20.0185 30.4797 19.6506C30.2506 18.6168 30.9055 17.5937 31.9405 17.3692ZM31.8799 21.1002C31.1378 22.1451 30.2451 23.1241 29.2287 23.9099C29.6517 24.3316 30.134 24.5919 30.7122 24.7411C31.5774 24.9455 32.389 24.8739 33.2337 24.5993C32.7826 23.5148 32.443 22.4352 32.2667 21.2741L32.2501 21.1615C32.1224 21.1442 32.0053 21.1311 31.8799 21.1002ZM33.2142 19.0446C33.1082 18.5665 32.6358 18.2639 32.1571 18.3678C31.6755 18.4723 31.3707 18.9484 31.4773 19.4295C31.5838 19.9107 32.0613 20.2134 32.5419 20.1047C33.0197 19.9967 33.3203 19.5228 33.2142 19.0446Z" fill="#020101"/>
<path fill-rule="evenodd" clip-rule="evenodd" d="M17.2818 17.3634C17.9565 17.2258 18.6533 17.4611 19.1063 17.9798L19.1274 18.0043C19.5636 18.521 19.6955 19.2306 19.472 19.8706C19.3977 20.0832 19.288 20.2775 19.1502 20.447C19.1919 20.4914 19.225 20.5309 19.2432 20.5527C19.2896 20.6083 19.338 20.6696 19.3808 20.7248C19.4244 20.7809 19.4675 20.8375 19.5031 20.8845C19.541 20.9343 19.5664 20.968 19.5831 20.9894C19.7344 21.182 19.8906 21.3707 20.0514 21.5554C20.5838 22.1666 21.0441 22.5743 21.7021 23.1374C21.9179 23.322 22.0471 23.5882 22.0587 23.872C22.0703 24.1558 21.9633 24.4316 21.7633 24.6333C21.1766 25.2251 20.5969 25.5036 19.8996 25.7189C19.8739 25.7268 19.848 25.7337 19.8218 25.7396C18.7839 25.9723 17.7014 25.9062 16.6996 25.549C16.4311 25.4532 16.2148 25.2497 16.1029 24.9876C15.9911 24.7254 15.9937 24.4284 16.1104 24.1684C16.5568 23.1728 16.8584 22.1185 17.0061 21.0376C16.4111 20.8192 15.9393 20.3106 15.7944 19.651L15.7845 19.6029C15.5852 18.5722 16.2531 17.5731 17.2818 17.3634ZM18.3738 21.1151C18.2562 21.1314 18.1384 21.1469 18.0206 21.1615L18.005 21.2723C17.8396 22.4161 17.5158 23.5316 17.0428 24.5865C17.8371 24.8697 18.6934 24.9293 19.5184 24.7596L19.5982 24.7425C20.1858 24.5611 20.6016 24.3537 21.0377 23.9138C20.3722 23.3444 19.8647 22.8968 19.2809 22.2265C19.1081 22.028 18.9403 21.8252 18.7777 21.6182C18.6905 21.5063 18.4552 21.1858 18.3738 21.1151ZM18.3368 18.652C18.1255 18.4102 17.8006 18.3004 17.486 18.3646L17.4636 18.3694C16.9967 18.477 16.6963 18.9358 16.7878 19.4089C16.8807 19.8895 17.3434 20.2057 17.825 20.1177C18.131 20.0617 18.385 19.8507 18.4969 19.5619L18.5073 19.5337C18.6098 19.2401 18.5519 18.9149 18.3562 18.675L18.3368 18.652Z" fill="#020101"/>
<path d="M23.8742 30.7107C24.6078 30.6806 25.4247 30.6975 26.1604 30.7111C28.1488 30.7337 30.1336 30.8888 32.1015 31.1746C32.506 31.2363 33.9974 31.4786 34.2199 31.7808L34.2036 31.8248C33.8225 32.1639 31.6461 32.4476 31.1099 32.5122C29.4459 32.7029 27.7734 32.8096 26.0988 32.8318C23.1995 32.8868 20.1433 32.7921 17.284 32.2738C16.8224 32.1899 16.135 32.0468 15.7464 31.8024C16.536 30.9771 22.4634 30.7303 23.8742 30.7107Z" fill="#F4A261"/>
<path d="M23.8463 29.6892C24.6107 29.6585 25.4524 29.676 26.1733 29.6894C28.1431 29.7118 30.1093 29.8614 32.0597 30.1364L32.2484 30.1634L32.2555 30.1644C32.4648 30.1964 32.9711 30.2771 33.4628 30.3927C33.7059 30.4499 33.9733 30.5219 34.209 30.6098C34.3265 30.6536 34.459 30.7098 34.5859 30.7818C34.6957 30.8441 34.8893 30.9664 35.0428 31.1751C35.2465 31.4517 35.2975 31.8122 35.1786 32.1345L35.1623 32.1785C35.1043 32.3359 35.0083 32.4766 34.8829 32.5882C34.7063 32.7453 34.5042 32.8391 34.3756 32.8926C34.2279 32.954 34.0678 33.0056 33.9132 33.0494C33.6028 33.1372 33.2428 33.2132 32.9001 33.2764C32.2107 33.4034 31.5083 33.4935 31.2321 33.5268C31.2302 33.527 31.2282 33.5272 31.2262 33.5275C29.53 33.7218 27.8252 33.8306 26.1181 33.8534C23.1902 33.909 20.0572 33.815 17.1018 33.2792C16.8616 33.2356 16.5385 33.1724 16.2158 33.0833C15.91 32.9988 15.5251 32.8704 15.2023 32.6673C14.9425 32.5039 14.7699 32.2324 14.7322 31.9277C14.6946 31.6231 14.7958 31.3177 15.008 31.0959C15.2804 30.8113 15.6525 30.6527 15.9211 30.5569C16.2254 30.4483 16.5797 30.3595 16.9482 30.2849C17.6883 30.135 18.588 30.0222 19.4805 29.9372C21.2587 29.7678 23.1093 29.7 23.8463 29.6892ZM26.1604 30.7111C25.4247 30.6975 24.6078 30.6806 23.8742 30.7107C22.4634 30.7303 16.536 30.9771 15.7464 31.8024C16.135 32.0468 16.8224 32.1899 17.284 32.2738C20.1433 32.7921 23.1995 32.8868 26.0988 32.8318C27.7211 32.8103 29.3414 32.7095 30.9538 32.5299L31.1099 32.5122C31.6378 32.4486 33.7548 32.1727 34.1845 31.8406L34.2036 31.8248L34.2199 31.7808C34.0113 31.4975 32.6874 31.2668 32.1895 31.1882L32.1015 31.1746C30.1951 30.8977 28.2728 30.7435 26.3468 30.7136L26.1604 30.7111Z" fill="#020101"/>
<path d="M31.8799 21.1002C32.0053 21.1311 32.1224 21.1442 32.2501 21.1615C32.4212 22.3656 32.7681 23.4798 33.2337 24.5993C32.389 24.8739 31.5774 24.9455 30.7122 24.7411C30.134 24.5919 29.6517 24.3316 29.2287 23.9099C30.2451 23.1241 31.1378 22.1451 31.8799 21.1002Z" fill="#F4A261"/>
<path d="M18.3738 21.1151C18.4552 21.1858 18.6905 21.5063 18.7777 21.6182C18.9403 21.8252 19.1081 22.028 19.2809 22.2265C19.8647 22.8968 20.3722 23.3444 21.0377 23.9138C20.6016 24.3537 20.1858 24.5611 19.5982 24.7425C18.7487 24.9329 17.8627 24.8789 17.0428 24.5865C17.5311 23.4976 17.8604 22.3441 18.0206 21.1615C18.1384 21.1469 18.2562 21.1314 18.3738 21.1151Z" fill="#F4A261"/>
<path d="M24.6973 19.7378C24.8865 19.7383 25.0757 19.7367 25.2649 19.7331C26.2542 22.0288 27.9762 24.9781 30.644 25.5014C32.3794 25.8416 34.3691 25.0187 35.851 24.1641C36.3846 23.8564 36.9597 23.4336 37.4714 23.081C36.4889 25.1379 35.6786 27.2726 35.0485 29.4633C34.8518 30.1731 34.7409 30.8295 34.5643 31.5138C32.3005 30.5774 27.7973 30.4844 25.299 30.4549C22.31 30.4645 18.2407 30.52 15.4133 31.4909C14.9702 29.3374 14.321 27.2315 13.4746 25.2023C13.1732 24.4787 12.8286 23.7577 12.4948 23.0471C14.6328 24.5615 17.6981 26.41 20.3753 25.1774C22.3706 24.2587 23.9508 21.7336 24.6973 19.7378Z" fill="#EFB366"/>
<path d="M25.284 18.7114C25.6838 18.7188 26.0441 18.9593 26.2033 19.3287C26.6802 20.4352 27.314 21.6503 28.1173 22.6365C28.9241 23.6269 29.8304 24.3005 30.8407 24.4986C32.184 24.7619 33.8859 24.1177 35.3405 23.2789L35.4319 23.2252C35.8911 22.9511 36.3741 22.5961 36.8916 22.2395C37.2727 21.9769 37.7827 22.0032 38.1348 22.3037C38.4868 22.6042 38.593 23.1037 38.3935 23.5213C37.4358 25.5264 36.6458 27.6072 36.0314 29.7425C35.9419 30.0665 35.8705 30.3828 35.7969 30.7175C35.7243 31.048 35.6478 31.4048 35.5538 31.7691C35.4798 32.0556 35.2854 32.2959 35.0207 32.428C34.756 32.5601 34.4471 32.5711 34.1737 32.458C33.2001 32.0553 31.647 31.8058 29.9344 31.6626C28.256 31.5221 26.5407 31.4915 25.2945 31.4768C22.2627 31.4866 18.3798 31.5526 15.7452 32.4574C15.4674 32.5528 15.162 32.524 14.9069 32.3784C14.6517 32.2329 14.4716 31.9846 14.4124 31.6969C13.9825 29.6075 13.3527 27.5644 12.5315 25.5957C12.241 24.8984 11.9085 24.2023 11.5699 23.4817C11.3726 23.0617 11.483 22.5613 11.8389 22.2635C12.1948 21.9656 12.7067 21.945 13.0854 22.2133C14.139 22.9595 15.3481 23.7335 16.582 24.182C17.8109 24.6287 18.9452 24.7108 19.9479 24.2491C20.7304 23.8889 21.5007 23.1747 22.1836 22.2531C22.8591 21.3416 23.397 20.2973 23.7402 19.3798L23.755 19.3427C23.9139 18.9634 24.2861 18.7149 24.7 18.716C24.8817 18.7164 25.0635 18.7149 25.2452 18.7114H25.284ZM25.2649 19.7331C25.0757 19.7367 24.8865 19.7383 24.6973 19.7378C23.9508 21.7336 22.3706 24.2587 20.3753 25.1774L20.3125 25.2057C17.6503 26.3812 14.6161 24.5497 12.4948 23.0471C12.8286 23.7577 13.1732 24.4787 13.4746 25.2023C14.321 27.2315 14.9702 29.3374 15.4133 31.4909C18.2407 30.52 22.31 30.4645 25.299 30.4549C27.7973 30.4844 32.3005 30.5774 34.5643 31.5138C34.7409 30.8295 34.8518 30.1731 35.0485 29.4633C35.6786 27.2726 36.4889 25.1379 37.4714 23.081C36.9597 23.4336 36.3846 23.8564 35.851 24.1641C34.3691 25.0187 32.3794 25.8416 30.644 25.5014L30.5817 25.4887C27.9494 24.9321 26.2465 22.0108 25.2649 19.7331Z" fill="#020101"/>
<path d="M24.7834 16.8099C25.3227 16.6935 25.8534 17.0392 25.9647 17.5795C26.0761 18.1198 25.7256 18.6472 25.1842 18.7536C24.6501 18.8586 24.131 18.5135 24.0211 17.9803C23.9111 17.4471 24.2513 16.9248 24.7834 16.8099Z" fill="#EFB366"/>
<path d="M24.5679 15.8111C25.6622 15.5749 26.7395 16.2764 26.9655 17.3732C27.1915 18.4696 26.4803 19.5402 25.3813 19.7562C24.297 19.9693 23.2434 19.269 23.0202 18.1866C22.7971 17.1043 23.4877 16.0443 24.5679 15.8111ZM25.9647 17.5795C25.8534 17.0392 25.3227 16.6935 24.7834 16.8099C24.2513 16.9248 23.9111 17.4471 24.0211 17.9803C24.131 18.5135 24.6501 18.8586 25.1842 18.7536C25.7256 18.6472 26.0761 18.1198 25.9647 17.5795Z" fill="#020101"/>
<path d="M11.077 20.566C11.6118 20.5256 12.0801 20.9219 12.1287 21.456C12.1772 21.9902 11.7882 22.4644 11.2548 22.5212C10.9025 22.5586 10.5573 22.4034 10.3517 22.1149C10.146 21.8264 10.1117 21.4494 10.262 21.1286C10.4122 20.8077 10.7237 20.5927 11.077 20.566Z" fill="#EFB366"/>
<path d="M11 19.5472C12.0915 19.4647 13.0472 20.2733 13.1463 21.3635C13.2454 22.4536 12.4514 23.4215 11.3629 23.5373C10.6439 23.6138 9.93936 23.2969 9.51959 22.708C9.09985 22.1193 9.0299 21.35 9.33653 20.6952C9.64321 20.0403 10.279 19.6016 11 19.5472ZM11.077 20.566C10.7237 20.5927 10.4122 20.8077 10.262 21.1286C10.1117 21.4494 10.146 21.8264 10.3517 22.1149C10.5509 22.3943 10.8811 22.5488 11.2218 22.5241L11.2548 22.5212C11.7882 22.4644 12.1772 21.9902 12.1287 21.456C12.0801 20.9219 11.6118 20.5256 11.077 20.566Z" fill="#020101"/>
<path d="M38.2182 22.2925C37.9485 22.0632 37.8236 21.7062 37.8916 21.3588C37.9596 21.0113 38.2098 20.7277 38.546 20.617C38.8824 20.5062 39.252 20.5857 39.5133 20.8247C39.9069 21.1851 39.9393 21.7942 39.5863 22.1944C39.2333 22.5946 38.6247 22.6382 38.2182 22.2925Z" fill="#EFB366"/>
<path d="M38.2265 19.6464C38.9032 19.4236 39.6458 19.5776 40.1779 20.0481L40.2031 20.0708C41.0075 20.8073 41.074 22.0527 40.3526 22.8705C39.631 23.6884 38.3872 23.7775 37.5562 23.071C37.0054 22.6025 36.7496 21.8728 36.8888 21.1623C37.0278 20.4525 37.5392 19.8728 38.2265 19.6464ZM39.5133 20.8247C39.252 20.5857 38.8824 20.5062 38.546 20.617C38.2098 20.7277 37.9596 21.0113 37.8916 21.3588L37.8858 21.3914C37.8315 21.7284 37.957 22.0704 38.2182 22.2925C38.6184 22.6328 39.2143 22.5958 39.5695 22.2129L39.5863 22.1944C39.9393 21.7942 39.9069 21.1851 39.5133 20.8247Z" fill="#020101"/>
<path d="M17.486 18.3646C17.8006 18.3004 18.1255 18.4102 18.3368 18.652C18.548 18.8939 18.6131 19.2306 18.5073 19.5337C18.4014 19.8369 18.1408 20.0599 17.825 20.1177C17.3434 20.2057 16.8807 19.8895 16.7878 19.4089C16.6948 18.9282 17.0063 18.4624 17.486 18.3646Z" fill="#EFB366"/>
<path d="M32.1571 18.3678C32.6358 18.2639 33.1082 18.5665 33.2142 19.0446C33.3203 19.5228 33.0197 19.9967 32.5419 20.1047C32.0613 20.2134 31.5838 19.9107 31.4773 19.4295C31.3707 18.9484 31.6755 18.4723 32.1571 18.3678Z" fill="#EFB366"/>
<path d="M39.5133 20.8247C39.9069 21.1851 39.9393 21.7942 39.5863 22.1944C39.2333 22.5946 38.6247 22.6382 38.2182 22.2925C38.312 22.2446 38.405 22.1951 38.4974 22.144C39.0351 21.8401 39.3523 21.4202 39.5133 20.8247Z" fill="#E8E7E7"/>
</g>
</g>
<path id="Union" d="M24.1247 14.0873C26.3089 13.6159 28.458 14.9747 28.9851 17.1274C29.5435 16.3823 30.3639 15.8277 31.3454 15.6147L31.5388 15.5785C33.4659 15.2573 35.331 16.3745 35.9753 18.1899L36.0359 18.3735L36.0417 18.393L36.0818 18.5404C36.4399 18.2669 36.8456 18.0491 37.2869 17.9037L37.532 17.8315C38.6803 17.5311 39.8976 17.7454 40.8708 18.4057L41.0759 18.5531L41.0984 18.5707L41.2663 18.7104L41.2898 18.7309L41.3113 18.7504L41.3162 18.7553L41.3357 18.7729C41.3405 18.7773 41.3456 18.7829 41.3503 18.7875C42.9334 20.2504 43.1078 22.6795 41.7771 24.35C41.773 24.3551 41.7686 24.3606 41.7644 24.3656L41.657 24.4945C41.6526 24.4997 41.6477 24.5051 41.6433 24.5102C41.0661 25.1643 40.3246 25.5844 39.5388 25.7748C38.8801 27.2794 38.3198 28.8261 37.865 30.4047C37.7954 30.6577 37.7384 30.9158 37.6667 31.2416C37.6156 31.474 37.5542 31.7531 37.4841 32.0453L37.4831 32.0512L37.4119 32.3383L37.4099 32.3461C37.2279 33.0508 36.8071 33.6569 36.237 34.0795C36.198 34.1195 36.1547 34.1664 36.1042 34.2113C35.663 34.6039 35.2005 34.8057 35.0046 34.8871C34.7539 34.9914 34.5093 35.0689 34.3132 35.1244C33.9171 35.2365 33.4908 35.3249 33.1267 35.392C32.4223 35.5218 31.7184 35.6126 31.406 35.6508C31.4018 35.6514 31.3955 35.653 31.3904 35.6537C31.3887 35.654 31.3862 35.6535 31.3845 35.6537C31.3779 35.6547 31.37 35.6565 31.3611 35.6576C31.3594 35.6578 31.3569 35.6574 31.3552 35.6576C31.3513 35.6582 31.3468 35.6591 31.3425 35.6596C29.6109 35.858 27.8694 35.9682 26.1267 35.9916C23.2012 36.0468 19.9748 35.9566 16.8816 35.3959C16.6269 35.3497 16.2342 35.2746 15.8249 35.1615C15.4659 35.0624 14.8468 34.8708 14.2624 34.5033C14.0222 34.3522 13.8109 34.171 13.6287 33.9731C13.0719 33.5203 12.6803 32.8878 12.5329 32.1723C12.1395 30.2601 11.5627 28.3899 10.8113 26.5883L10.8103 26.5863C10.6996 26.3207 10.5796 26.0537 10.4529 25.7768C9.51539 25.546 8.67225 24.9887 8.09349 24.1772C7.23517 22.9727 7.08962 21.3973 7.71752 20.0561C8.34555 18.7152 9.64812 17.8172 11.1238 17.7055C12.1674 17.6267 13.1513 17.9455 13.9236 18.5356C14.2957 17.0952 15.4588 15.9198 17.0124 15.6029C18.2563 15.3496 19.5351 15.7008 20.4714 16.5277L20.654 16.6996L20.6726 16.7192L20.8201 16.8764C20.8272 16.884 20.8337 16.8919 20.8406 16.8998L20.862 16.9242L20.865 16.9281L20.8777 16.9428L20.8816 16.9477C20.924 16.9979 20.964 17.05 21.0037 17.102C21.375 15.634 22.5463 14.4282 24.1247 14.0873ZM31.4519 35.643C31.4535 35.6428 31.4555 35.6433 31.4578 35.643L31.4607 35.642C31.4571 35.6425 31.454 35.6427 31.4519 35.643ZM27.821 35.1381C27.8539 35.1366 27.8868 35.1348 27.9197 35.1332C27.8868 35.1348 27.8539 35.1366 27.821 35.1381ZM28.9148 35.0746C28.9766 35.0704 29.0385 35.0664 29.1003 35.0619C29.0385 35.0664 28.9766 35.0704 28.9148 35.0746ZM30.0769 34.9828C30.1287 34.9781 30.1804 34.9731 30.2322 34.9682C30.1804 34.9731 30.1287 34.9781 30.0769 34.9828ZM31.3591 34.8481C31.4846 34.8325 31.6572 34.8089 31.8591 34.7807C31.6572 34.8089 31.4846 34.8325 31.3591 34.8481ZM31.3562 34.8461L31.3542 34.8471C31.3633 34.8454 31.3707 34.844 31.3747 34.8432H31.3708C31.3674 34.8439 31.3622 34.845 31.3562 34.8461ZM32.9812 34.6029C33.1348 34.5746 33.2967 34.5414 33.4607 34.5063C33.2967 34.5415 33.1349 34.5746 32.9812 34.6029ZM34.697 34.1469C34.4892 34.2333 34.2805 34.2994 34.1023 34.35C34.1901 34.3251 34.2856 34.2971 34.3845 34.2641L34.697 34.1469C34.7359 34.1307 34.7848 34.1088 34.8415 34.0824C34.7848 34.1088 34.7359 34.1307 34.697 34.1469ZM34.8962 34.0561C34.9431 34.0333 34.994 34.0075 35.0476 33.9779C34.994 34.0076 34.9431 34.0333 34.8962 34.0561ZM35.112 33.9389C35.1624 33.9095 35.215 33.8778 35.2683 33.8422C35.215 33.8778 35.1624 33.9095 35.112 33.9389ZM35.7253 33.4623C35.7745 33.4272 35.8217 33.3896 35.8679 33.351C35.8217 33.3896 35.7746 33.4272 35.7253 33.4623ZM35.906 33.3188C35.9432 33.2863 35.9794 33.2529 36.0144 33.2182C35.9794 33.2529 35.9432 33.2863 35.906 33.3188ZM36.0603 33.1713C36.0875 33.1428 36.1136 33.1133 36.1394 33.0834C36.1136 33.1133 36.0875 33.1428 36.0603 33.1713ZM36.197 33.0141C36.2173 32.9887 36.2374 32.9632 36.2566 32.9369C36.2374 32.9632 36.2173 32.9887 36.197 33.0141ZM36.3142 32.8549C36.333 32.8268 36.3503 32.7979 36.3679 32.769C36.3504 32.7979 36.333 32.8268 36.3142 32.8549ZM36.4119 32.6967C36.4403 32.6457 36.4673 32.5937 36.4919 32.5404C36.4673 32.5937 36.4403 32.6457 36.4119 32.6967ZM36.4978 32.5278C36.5221 32.4745 36.5439 32.42 36.5642 32.3647C36.5439 32.42 36.5221 32.4745 36.4978 32.5278ZM11.2908 25.6791L11.5515 26.2787C11.3856 25.8805 11.2037 25.4817 11.0105 25.0668C11.1071 25.2743 11.2004 25.478 11.2908 25.6791ZM38.9802 25.0668C39.071 25.0554 39.161 25.0388 39.2507 25.0199C39.161 25.0388 39.071 25.0555 38.9802 25.0668ZM39.3142 25.0043C39.3796 24.9892 39.4449 24.9736 39.5095 24.9545C39.4449 24.9736 39.3797 24.9892 39.3142 25.0043ZM39.613 24.9203C39.669 24.9018 39.725 24.8833 39.78 24.8617C39.725 24.8833 39.669 24.9018 39.613 24.9203ZM39.8767 24.8207C39.9284 24.7985 39.9793 24.7744 40.03 24.7494C39.9793 24.7744 39.9284 24.7985 39.8767 24.8207ZM40.1335 24.6967C40.1833 24.67 40.2324 24.6422 40.281 24.6127C40.2324 24.6422 40.1833 24.67 40.1335 24.6967ZM40.3757 24.5541C40.426 24.5212 40.4744 24.4855 40.5232 24.4496C40.4744 24.4855 40.426 24.5212 40.3757 24.5541ZM40.6091 24.3861C40.6674 24.3402 40.7243 24.292 40.78 24.2416C40.7243 24.292 40.6674 24.3402 40.6091 24.3861ZM41.3132 23.6244C41.3187 23.6162 41.3244 23.6082 41.3298 23.6C41.3244 23.6082 41.3187 23.6162 41.3132 23.6244ZM41.4607 23.3813C41.4719 23.3608 41.4831 23.3404 41.4939 23.3197C41.4831 23.3404 41.4719 23.3608 41.4607 23.3813ZM41.5378 23.227C41.5634 23.1739 41.5885 23.1209 41.6111 23.0668C41.5885 23.1209 41.5634 23.1739 41.5378 23.227ZM8.34545 22.9584C8.35486 22.9834 8.36569 23.0078 8.37572 23.0326C8.36569 23.0078 8.35486 22.9834 8.34545 22.9584ZM41.6736 22.9018C41.6883 22.8602 41.7025 22.8187 41.7156 22.7768C41.7025 22.8187 41.6883 22.8602 41.6736 22.9018ZM8.27611 22.7514C8.28651 22.7858 8.29778 22.8198 8.30931 22.8539C8.29778 22.8198 8.28651 22.7858 8.27611 22.7514ZM8.22045 22.5424C8.23086 22.5872 8.24233 22.6318 8.25463 22.6762C8.24233 22.6318 8.23086 22.5872 8.22045 22.5424ZM41.7488 22.6576C41.7641 22.6008 41.7795 22.5442 41.7917 22.4867C41.7795 22.5442 41.7641 22.6008 41.7488 22.6576ZM8.18334 22.3608C8.18947 22.396 8.19656 22.4311 8.20385 22.4662C8.19656 22.4311 8.18947 22.396 8.18334 22.3608ZM41.8152 22.3617C41.8249 22.3055 41.8338 22.2493 41.8406 22.1928C41.8338 22.2493 41.8249 22.3055 41.8152 22.3617ZM8.15306 22.1391C8.15655 22.1723 8.16029 22.2055 8.16478 22.2387C8.16029 22.2055 8.15655 22.1723 8.15306 22.1391ZM41.8523 22.0688C41.8567 22.0144 41.8603 21.9601 41.862 21.9057C41.8603 21.9601 41.8567 22.0144 41.8523 22.0688ZM8.13842 21.9389C8.1399 21.9728 8.14078 22.0066 8.1433 22.0404C8.14078 22.0066 8.1399 21.9728 8.13842 21.9389ZM8.13646 21.6908C8.13503 21.7364 8.13406 21.782 8.13451 21.8276C8.13406 21.782 8.13503 21.7364 8.13646 21.6908ZM41.864 21.7758C41.8636 21.7187 41.8615 21.6618 41.8581 21.6049C41.8615 21.6618 41.8636 21.7187 41.864 21.7758ZM8.14916 21.4906C8.14482 21.5375 8.14075 21.5843 8.13842 21.6313C8.14075 21.5843 8.14482 21.5375 8.14916 21.4906ZM41.8484 21.4799C41.8429 21.4237 41.8362 21.3678 41.8279 21.3119C41.8362 21.3678 41.8429 21.4237 41.8484 21.4799ZM8.1726 21.2983C8.16635 21.3392 8.16068 21.3802 8.15599 21.4213C8.16068 21.3802 8.16635 21.3392 8.1726 21.2983ZM41.8074 21.1879C41.7968 21.1315 41.7838 21.0758 41.7703 21.0199C41.7838 21.0758 41.7968 21.1315 41.8074 21.1879ZM41.738 20.8949C41.7227 20.8411 41.7053 20.7879 41.6872 20.7348C41.7053 20.7879 41.7227 20.8411 41.738 20.8949ZM41.6492 20.6244C41.6257 20.5627 41.5993 20.5022 41.572 20.4418C41.5993 20.5022 41.6257 20.5627 41.6492 20.6244ZM41.532 20.352C41.4999 20.2863 41.4641 20.2224 41.4275 20.1586C41.4641 20.2224 41.5 20.2863 41.532 20.352ZM35.6804 20.2104C35.6653 20.2378 35.6508 20.2655 35.6365 20.2934C35.6508 20.2655 35.6653 20.2378 35.6804 20.2104ZM14.6765 20.2279L14.6755 20.2221L14.6736 20.2172L14.6765 20.2279ZM35.7732 20.0522C35.7627 20.0689 35.7531 20.086 35.7429 20.1029C35.7531 20.086 35.7627 20.0689 35.7732 20.0522ZM41.3855 20.0844C41.3374 20.0054 41.2855 19.9284 41.2302 19.8529C41.2854 19.9284 41.3374 20.0054 41.3855 20.0844ZM8.78099 19.8334C8.75417 19.8697 8.72924 19.9073 8.70385 19.9447C8.72924 19.9073 8.75417 19.8697 8.78099 19.8334ZM35.8806 19.891C35.8692 19.9071 35.8585 19.9236 35.8474 19.9399C35.8585 19.9236 35.8692 19.9071 35.8806 19.891ZM22.0925 19.7006C22.1317 19.7719 22.1726 19.8419 22.2165 19.9096C22.1726 19.8419 22.1317 19.7718 22.0925 19.7006ZM41.2185 19.8354C41.2087 19.8222 41.1982 19.8094 41.1882 19.7963C41.1982 19.8094 41.2087 19.8221 41.2185 19.8354ZM8.90111 19.6811C8.87308 19.7146 8.84583 19.7489 8.81908 19.7836C8.84583 19.7489 8.87308 19.7146 8.90111 19.6811ZM36.1365 19.5746C36.1147 19.5985 36.0931 19.6224 36.072 19.6469C36.0931 19.6224 36.1147 19.5985 36.1365 19.5746ZM21.9812 19.4779C22.0067 19.534 22.0339 19.5889 22.0622 19.643C22.0338 19.5889 22.0067 19.534 21.9812 19.4779ZM9.06029 19.5043C9.03085 19.5348 9.00265 19.5664 8.97435 19.5981C9.00265 19.5664 9.03085 19.5348 9.06029 19.5043ZM36.2781 19.4281C36.2549 19.4506 36.2322 19.4734 36.2097 19.4965C36.2322 19.4734 36.2549 19.4506 36.2781 19.4281ZM9.19896 19.3676C9.16814 19.3959 9.13888 19.4259 9.10912 19.4555C9.13888 19.4259 9.16814 19.3959 9.19896 19.3676ZM21.8787 19.227C21.9006 19.2881 21.9237 19.3484 21.949 19.4076C21.9237 19.3485 21.9006 19.2881 21.8787 19.227ZM36.4304 19.2904C36.4028 19.314 36.3751 19.3373 36.3484 19.3617C36.3751 19.3373 36.4028 19.314 36.4304 19.2904ZM9.364 19.227C9.33089 19.2536 9.29843 19.2811 9.26635 19.309C9.29843 19.2811 9.33089 19.2536 9.364 19.227ZM36.5798 19.1703C36.5478 19.1946 36.5152 19.2182 36.4841 19.2436C36.5152 19.2182 36.5478 19.1946 36.5798 19.1703ZM9.52611 19.1049C9.49513 19.1269 9.46453 19.1493 9.43431 19.1723C9.46453 19.1493 9.49513 19.1269 9.52611 19.1049ZM9.69017 18.9945C9.65682 19.0153 9.62413 19.0371 9.59154 19.059C9.62413 19.0371 9.65682 19.0153 9.69017 18.9945ZM36.8201 19.0024C36.834 18.9936 36.8489 18.9865 36.863 18.9779C36.8489 18.9865 36.834 18.9936 36.8201 19.0024ZM9.89623 18.8774C9.85432 18.8994 9.81211 18.9209 9.77123 18.9447C9.81211 18.9209 9.85432 18.8994 9.89623 18.8774ZM10.0788 18.7875C10.0371 18.8063 9.99567 18.8256 9.95482 18.8461C9.99567 18.8256 10.0371 18.8063 10.0788 18.7875ZM10.2878 18.7026C10.2385 18.7208 10.1896 18.7396 10.1413 18.7602C10.1896 18.7396 10.2385 18.7208 10.2878 18.7026ZM10.4734 18.6401C10.4286 18.6537 10.3836 18.6666 10.3396 18.682C10.3836 18.6666 10.4286 18.6537 10.4734 18.6401ZM21.6853 17.9623C21.6836 18.0006 21.6827 18.039 21.6824 18.0776C21.6827 18.039 21.6836 18.0006 21.6853 17.9623ZM21.696 17.8012C21.6939 17.8239 21.6928 17.8467 21.6912 17.8695C21.6928 17.8467 21.6939 17.8239 21.696 17.8012ZM21.74 17.4906C21.737 17.5062 21.7349 17.5219 21.7322 17.5375C21.7349 17.5219 21.737 17.5062 21.74 17.4906ZM21.8142 17.183C21.8091 17.2005 21.8044 17.2182 21.7995 17.2358C21.8044 17.2181 21.8091 17.2005 21.8142 17.183ZM21.9148 16.8891C21.9085 16.9049 21.9032 16.921 21.8972 16.9369C21.9032 16.921 21.9085 16.9049 21.9148 16.8891ZM22.0369 16.6186C22.0302 16.6318 22.0238 16.6453 22.0173 16.6586C22.0238 16.6453 22.0302 16.6318 22.0369 16.6186ZM22.2038 16.3285C22.176 16.3722 22.1506 16.4173 22.1247 16.4623C22.1506 16.4173 22.176 16.3722 22.2038 16.3285ZM22.3796 16.0766C22.3451 16.1211 22.3142 16.1681 22.282 16.2143C22.3142 16.1681 22.3451 16.1211 22.3796 16.0766ZM23.3542 15.2309C23.3153 15.253 23.2768 15.2756 23.239 15.2992C23.2768 15.2756 23.3153 15.253 23.3542 15.2309ZM23.3757 15.2172C23.4041 15.2013 23.4337 15.1874 23.4626 15.1723C23.4337 15.1874 23.4041 15.2013 23.3757 15.2172ZM23.8601 14.9965C23.8962 14.9834 23.9327 14.9713 23.9695 14.9594L23.9744 14.9574C23.9359 14.9698 23.8978 14.9828 23.8601 14.9965Z" fill="white" fill-opacity="0.3"/>
</g>
</g>
</g>
</svg>
