<svg width="50" height="50" viewBox="0 0 50 50" fill="none" xmlns="http://www.w3.org/2000/svg">
<rect width="50" height="50" fill="#BEBEBE"/>
<g id="Decorate Mode">
<path d="M-121.803 -1065.03V-1064.03H2898.2V-1065.03V-1066.03H-121.803V-1065.03ZM2900.2 -1063.03H2899.2V2474.97H2900.2H2901.2V-1063.03H2900.2ZM2898.2 2476.97V2475.97H-121.803V2476.97V2477.97H2898.2V2476.97ZM-123.803 2474.97H-122.803V-1063.03H-123.803H-124.803V2474.97H-123.803ZM-121.803 2476.97V2475.97C-122.356 2475.97 -122.803 2475.52 -122.803 2474.97H-123.803H-124.803C-124.803 2476.62 -123.46 2477.97 -121.803 2477.97V2476.97ZM2900.2 2474.97H2899.2C2899.2 2475.52 2898.75 2475.97 2898.2 2475.97V2476.97V2477.97C2899.85 2477.97 2901.2 2476.62 2901.2 2474.97H2900.2ZM2898.2 -1065.03V-1064.03C2898.75 -1064.03 2899.2 -1063.59 2899.2 -1063.03H2900.2H2901.2C2901.2 -1064.69 2899.85 -1066.03 2898.2 -1066.03V-1065.03ZM-121.803 -1065.03V-1066.03C-123.46 -1066.03 -124.803 -1064.69 -124.803 -1063.03H-123.803H-122.803C-122.803 -1063.59 -122.356 -1064.03 -121.803 -1064.03V-1065.03Z" fill="black" fill-opacity="0.1"/>
<g id="Stickers">
<rect x="-69.7944" y="-192.534" width="374" height="551" rx="4.5" stroke="#9747FF" stroke-dasharray="10 5"/>
<g id="Property 1=eye">
<g id="Frame 154">
<path id="Vector" d="M24.7562 13.2927C26.7784 13.1946 29.3915 13.7222 31.2758 14.3737C35.5861 15.8642 39.3566 18.7804 42.0411 22.4498C42.4891 23.0623 43.3798 24.3218 43.7067 24.9936C43.6263 25.1841 43.5033 25.3838 43.3973 25.5625C39.651 31.8752 32.7968 36.6045 25.3478 36.7168C23.1362 36.751 20.9351 36.4075 18.8391 35.7009C18.0922 35.456 17.3377 35.1294 16.6284 34.7915C12.9232 32.9973 9.75969 30.2534 7.45972 26.8391C7.13054 26.3557 6.56638 25.532 6.31299 25.0305C6.4425 24.7436 6.79717 24.2054 6.97375 23.9316C7.89978 22.4663 8.97637 21.1018 10.186 19.8603C13.954 15.9546 19.2934 13.3917 24.7562 13.2927Z" fill="#020101"/>
<path id="Vector (Stroke)" d="M24.6804 11.7324C26.964 11.6217 29.784 12.2045 31.7867 12.897C36.4208 14.4994 40.4448 17.6217 43.3022 21.5274L43.7081 22.0913C44.1829 22.7628 44.8116 23.6928 45.1119 24.31L45.422 24.9478L45.1467 25.6008C45.0143 25.9147 44.8193 26.2282 44.7415 26.3595V26.3601C40.7718 33.0492 33.4612 38.1565 25.3713 38.2785L25.372 38.2791C22.9869 38.3159 20.6131 37.9459 18.3523 37.1853C17.5172 36.9115 16.6961 36.5543 15.9567 36.202L15.9518 36.2002L15.9475 36.1978C11.9963 34.2844 8.62292 31.3584 6.16907 27.7182L6.16846 27.7188C5.86933 27.2795 5.22964 26.3509 4.91846 25.7351L4.58154 25.0686L4.88916 24.3875C5.0807 23.9633 5.53045 23.2868 5.66064 23.085H5.66125C6.64369 21.5323 7.78477 20.0858 9.06702 18.7698C13.0807 14.6122 18.7806 11.8536 24.6804 11.7324ZM24.7561 13.2925C19.2934 13.3916 13.9543 15.9549 10.1864 19.8605C8.97681 21.1019 7.90012 22.4663 6.97412 23.9315L6.62561 24.476C6.49867 24.6806 6.37787 24.8873 6.31311 25.0308C6.56656 25.5323 7.13083 26.3559 7.45996 26.8392C9.75993 30.2535 12.9236 32.9974 16.6287 34.7915C17.3379 35.1294 18.0926 35.4561 18.8394 35.7009C20.9353 36.4075 23.1366 36.7507 25.3481 36.7166C32.797 36.6042 39.6512 31.8751 43.3975 25.5624C43.477 25.4283 43.5663 25.2825 43.6398 25.1376L43.7069 24.9935C43.38 24.3217 42.4893 23.0621 42.0413 22.4496C39.4405 18.8949 35.8206 16.047 31.6781 14.5175L31.2759 14.374C29.3916 13.7225 26.7783 13.1945 24.7561 13.2925Z" fill="#E8E7E7"/>
<path id="Vector (Stroke) (Stroke)" d="M24.6363 10.8148C27.0734 10.6968 30.0148 11.312 32.0872 12.0286C36.6102 13.5926 40.5605 16.5415 43.4748 20.2365L44.044 20.985L44.0476 20.991L44.4541 21.5554L44.4577 21.5614C44.8683 22.1421 45.4354 22.9712 45.797 23.6349L45.9381 23.9076V23.9088L46.2478 24.5461C46.3635 24.7841 46.3709 25.0604 46.2681 25.3042L45.9931 25.9571V25.9583C45.8319 26.3403 45.5998 26.7144 45.5339 26.8253C45.5332 26.8265 45.5323 26.8276 45.5315 26.8289C41.4309 33.7386 33.8526 39.0678 25.386 39.1957V39.1969C22.8967 39.2354 20.419 38.85 18.0594 38.0562V38.055C17.175 37.7645 16.3168 37.3912 15.5614 37.0314L15.5626 37.0278C15.5576 37.0254 15.5521 37.0243 15.5471 37.0218V37.0242C11.4582 35.0441 7.96658 32.0181 5.42351 28.2543C5.41898 28.248 5.41353 28.2415 5.40916 28.2351C5.12663 27.8202 4.44345 26.8321 4.09857 26.1497L3.76255 25.4824C3.63738 25.2346 3.63041 24.9438 3.74462 24.6908L4.05193 24.0092C4.2796 23.5051 4.78321 22.7514 4.88899 22.5874C5.77744 21.1841 6.79194 19.8651 7.91912 18.6461L8.4094 18.1283C12.5678 13.8225 18.48 10.95 24.6363 10.816V10.8148ZM24.6805 11.732C18.7808 11.8532 13.0808 14.6118 9.06708 18.7692C7.94517 19.9207 6.93101 21.1723 6.03695 22.5073L5.66147 23.0849H5.66027C5.52997 23.2868 5.08053 23.963 4.88899 24.3871L4.58167 25.0687L4.91888 25.7347C5.23002 26.3505 5.8693 27.2792 6.16848 27.7185H6.16968C8.62351 31.3586 11.9966 34.2846 15.9477 36.1979L15.9524 36.2003L15.9572 36.2015C16.6966 36.5537 17.5173 36.9118 18.3524 37.1856C20.4717 37.8986 22.6904 38.2678 24.9245 38.281L25.3717 38.2786C33.4614 38.1565 40.7715 33.049 44.7411 26.3601V26.3589C44.8191 26.2275 45.0142 25.9145 45.1465 25.6008L45.4227 24.9479L45.1118 24.3093C44.8114 23.6922 44.1826 22.7624 43.7079 22.0912L43.3026 21.5279C40.5346 17.7445 36.6715 14.6959 32.22 13.0522L31.7871 12.8967C29.7844 12.2043 26.9641 11.6213 24.6805 11.732ZM24.7559 13.2925C26.7781 13.1945 29.3922 13.722 31.2765 14.3735L31.6783 14.517C35.8208 16.0465 39.4403 18.8951 42.041 22.4499C42.4889 23.0623 43.3797 24.3215 43.7067 24.9933L43.6398 25.138C43.5664 25.2828 43.4765 25.4286 43.397 25.5625L43.0371 26.1497C39.2221 32.1662 32.5638 36.608 25.3478 36.7169L25.3346 35.7985C32.4067 35.6917 38.9928 31.1852 42.6078 25.0938L42.6604 24.9993C42.2873 24.3749 41.6721 23.5009 41.2996 22.9916C38.7996 19.5747 35.3265 16.8461 31.3698 15.3828L30.968 15.2393V15.2381C29.1539 14.612 26.6657 14.1193 24.8001 14.2097C24.791 14.2101 24.7817 14.2107 24.7726 14.2109C19.5784 14.3052 14.4646 16.7492 10.8476 20.4984L10.844 20.5019C9.67929 21.6974 8.64217 23.0109 7.75051 24.4217L7.74812 24.4265L7.40493 24.9587L7.40613 24.9599C7.3922 24.9823 7.37851 25.0043 7.36547 25.0256C7.44586 25.1575 7.5354 25.2987 7.62854 25.4418L8.21926 26.3219L8.22166 26.3266C10.4299 29.6046 13.4671 32.2395 17.0239 33.963L17.5464 34.2045C17.8967 34.3621 18.25 34.5112 18.6011 34.6434L19.1261 34.8287L19.1332 34.8311C21.1299 35.5041 23.2277 35.8311 25.3346 35.7985L25.3478 36.7169L24.5191 36.7121C22.5877 36.6596 20.6729 36.3186 18.8391 35.7005C18.2792 35.5168 17.7148 35.2874 17.1686 35.0416L16.6293 34.7916C12.9243 32.9975 9.75989 30.2538 7.45994 26.8396C7.13081 26.3563 6.56662 25.5319 6.31317 25.0304C6.37797 24.887 6.49842 24.6801 6.62528 24.4756L6.97445 23.9315C7.78462 22.6496 8.71017 21.4449 9.73912 20.3321L10.1863 19.861C13.8364 16.0775 18.9611 13.5535 24.2441 13.3093L24.7559 13.2925Z" fill="#020101"/>
<path id="Vector_2" d="M24.4255 14.1463C25.7179 14.0512 27.9753 14.3224 29.2192 14.6306C35.0954 16.0868 39.6393 19.9147 42.7519 25.0024C42.111 26.1531 41.0466 27.5681 40.1852 28.5588C37.0737 32.1379 32.9067 34.7114 28.2175 35.5735C27.3285 35.737 26.5651 35.7974 25.6686 35.8591C25.1908 35.8701 24.695 35.8735 24.2192 35.854C17.5456 35.5818 11.5406 31.5366 7.93525 26.0454C7.71804 25.7146 7.47468 25.355 7.28906 25.0078C8.12593 23.5991 9.10115 22.2773 10.2002 21.062C13.1319 17.8419 17.0912 15.3868 21.3801 14.5069C22.3844 14.3086 23.4025 14.188 24.4255 14.1463Z" fill="#E8E7E7"/>
<path id="Vector_3" d="M24.9747 15.1465C25.212 15.34 25.4737 17.8519 25.5772 18.3129C25.9449 17.518 26.1653 16.7096 26.3748 15.8627C26.4324 15.6291 26.4871 15.3965 26.5628 15.1679C26.8968 16.1623 26.8213 17.4843 26.7381 18.5045C27.3431 17.7552 27.6861 16.729 28.0091 15.8238C28.0418 15.7322 28.0645 15.5481 28.137 15.4859L28.1702 15.5176C28.347 16.6789 28.2366 17.6208 27.9793 18.7494C28.6985 18.1023 29.0958 17.1464 29.4781 16.2763C29.5508 16.1108 29.6109 15.9513 29.7088 15.7979C29.7522 17.1335 29.6172 17.8402 29.1873 19.0936C30.1802 18.3313 30.6131 17.345 31.1954 16.3001C31.2432 17.4946 30.8555 18.4536 30.4244 19.5198C30.9812 19.1419 31.6502 18.4434 32.035 17.8982C32.2413 17.6059 32.4478 17.2529 32.6495 16.9471C32.5804 18.2711 32.1326 18.9868 31.5713 20.0879C32.2249 19.7288 32.9949 19.0171 33.4505 18.4396C33.6502 18.1865 33.8328 17.9217 34.0415 17.6759C33.9151 18.7825 33.2974 19.8119 32.6993 20.7224C33.8313 20.1818 34.5267 19.5032 35.3521 18.5935C35.22 19.3359 34.8318 20.0273 34.3948 20.6357C34.2159 20.8846 33.9954 21.1271 33.8221 21.3794L33.8079 21.4004C35.0149 20.923 35.6971 20.3962 36.6451 19.5311C36.3055 20.538 35.5772 21.4087 34.8199 22.1351C35.534 21.8978 36.1568 21.6398 36.8057 21.2546C37.1199 21.068 37.429 20.8548 37.7437 20.6606C37.326 21.4735 36.5538 22.3444 35.8084 22.8757C36.931 22.6601 37.6336 22.3519 38.6243 21.8249C38.0528 22.7284 37.4881 23.1194 36.6412 23.7039C37.8709 23.5896 38.2559 23.4526 39.4024 23.0355C38.876 23.7562 38.2063 24.1464 37.4183 24.5198C38.1504 24.5147 39.1687 24.3407 39.879 24.1711C39.2212 24.8592 38.7198 25.0186 37.8182 25.3101C38.5689 25.5127 39.283 25.8682 39.805 26.4558C39.0342 26.1946 38.2051 26.0999 37.3978 26.0552C38.2522 26.4282 38.6214 26.6048 39.2525 27.2886C38.4808 27.0701 37.6829 26.8369 36.8851 26.7451C37.503 27.2136 38.107 27.4307 38.564 28.2036C37.7859 27.8762 37 27.5576 36.1558 27.4456C36.8448 27.9336 37.3365 28.45 37.7842 29.1651C37.1407 28.8264 36.0999 28.2573 35.3941 28.1543C35.5345 28.3198 35.7432 28.5176 35.896 28.6804C36.3428 29.1565 36.5892 29.4903 36.8533 30.0777C36.0694 29.625 35.5223 29.0545 34.5091 28.8428C35.0906 29.4856 35.6248 30.1394 35.857 30.9988C35.1458 30.3767 34.4922 29.8396 33.5987 29.4893C34.1807 30.3863 34.429 30.7788 34.7278 31.8494C34.2229 31.3496 33.2007 30.26 32.5572 30.0835C32.9769 30.8626 33.4102 31.7254 33.4893 32.6184C32.9363 31.9322 32.2273 30.9981 31.4393 30.6006C31.8387 31.5823 32.138 32.0989 32.2139 33.2473C31.6919 32.5747 31.0604 31.4712 30.2869 31.0789C30.6197 32.1216 30.8846 32.6609 30.855 33.8418C30.733 33.6602 30.5774 33.3509 30.4612 33.1502C30.0828 32.4961 29.6976 31.9307 29.1368 31.416C29.4192 32.533 29.5181 33.1453 29.4607 34.3094C28.9668 33.3631 28.7654 32.5535 27.9529 31.7136C28.1519 32.7676 28.1844 33.5584 28.0008 34.6255C27.6607 33.7302 27.3877 32.7029 26.7488 31.9497C26.7972 33.093 26.7935 33.7049 26.5281 34.8367C26.4273 34.5884 26.3587 34.2764 26.2798 34.0166C26.0904 33.3938 25.8846 32.6367 25.5784 32.0659C25.5152 32.3584 25.47 32.7488 25.4217 33.0525C25.3475 33.5362 25.2515 34.0159 25.1341 34.491C25.0962 34.645 25.0564 34.7691 25.0076 34.9197C24.7352 34.3555 24.5064 32.709 24.4129 32.0435C23.9742 32.8379 23.7647 33.9761 23.4735 34.8511C23.1915 33.9483 23.2034 32.8633 23.218 31.927C22.7015 32.5069 22.2617 33.8682 22.0008 34.6282C21.7821 33.6604 21.862 32.6743 22.0224 31.7068C21.3149 32.4773 20.9622 33.3369 20.5766 34.2859C20.4103 33.4204 20.609 32.2508 20.8549 31.4129C20.3064 31.8897 19.9177 32.4693 19.5615 33.0977C19.4274 33.3345 19.3133 33.5828 19.17 33.814L19.1529 33.8413C19.0767 32.8526 19.3445 31.9824 19.6885 31.0767C18.906 31.5645 18.2873 32.5142 17.7927 33.2805C17.7969 32.3001 18.1678 31.4771 18.5506 30.6043C17.6472 31.0869 17.1438 31.8396 16.5162 32.6004C16.6008 31.6658 17.0205 30.8733 17.4552 30.0664C16.5893 30.4124 15.9257 31.2068 15.29 31.8438C15.4802 30.8738 15.8813 30.2991 16.4219 29.5056C15.6028 29.7674 14.8405 30.4434 14.1884 30.9854C14.3877 30.1614 14.9359 29.4724 15.4891 28.8565C14.6778 29.0103 13.836 29.6341 13.1691 30.107C13.4421 29.3396 14.0559 28.7244 14.6208 28.1614C13.723 28.3665 13.0668 28.7437 12.2731 29.1614C12.6104 28.4558 13.2598 27.9104 13.8717 27.4441C12.926 27.5977 12.3346 27.8252 11.4745 28.2119C11.8498 27.5364 12.5189 27.1636 13.1154 26.7381C12.1932 26.8833 11.6894 27.0283 10.7973 27.2935C11.2827 26.6831 11.8416 26.3906 12.5348 26.0652C11.8367 26.0803 10.9339 26.2176 10.2629 26.4261C10.7113 25.8257 11.5016 25.5393 12.1789 25.2964C11.3864 25.0886 10.7247 24.7708 10.1621 24.1718C10.9588 24.3905 11.7649 24.4766 12.587 24.5086C11.7214 24.1023 11.1993 23.7663 10.6052 23.0179C11.569 23.4522 12.3406 23.6079 13.3852 23.6819C12.5794 23.1395 11.9162 22.6683 11.4055 21.8064C12.3002 22.3545 13.1917 22.7173 14.2326 22.874C13.4621 22.2591 12.7659 21.5925 12.3239 20.6935C13.3212 21.3863 13.9999 21.771 15.1827 22.1007C14.408 21.3739 13.7508 20.5942 13.4348 19.5539C14.3533 20.4169 15.0315 20.9681 16.2561 21.395C15.5428 20.5524 14.8896 19.6862 14.6864 18.5602C15.4503 19.4364 16.2323 20.279 17.3508 20.7093C17.2087 20.4773 17.0286 20.2463 16.8804 20.0047C16.4171 19.2492 16.1689 18.5764 15.9882 17.7162C16.7072 18.5932 17.3812 19.587 18.4804 20.0927C17.8899 19.0778 17.4996 18.1808 17.3687 16.991C17.5579 17.2284 17.7465 17.5598 17.9293 17.8134C18.3923 18.4556 18.9604 19.1456 19.6391 19.5605C19.1346 18.5419 18.8349 17.4662 18.812 16.3264C19.3006 17.2463 19.9704 18.5328 20.8621 19.1109C20.4615 17.944 20.211 17.0679 20.2824 15.7932C20.6738 16.6069 21.2887 18.1884 22.0501 18.7313C21.8124 17.6789 21.6102 16.4739 21.8124 15.3952C21.9117 15.6244 22.0207 15.9874 22.1095 16.2312C22.4336 17.121 22.6935 17.749 23.275 18.5073C23.2022 17.5063 23.0596 16.1642 23.401 15.1844C23.773 16.3444 23.824 17.1221 24.4353 18.3024C24.4822 18.0449 24.502 17.6929 24.5362 17.4233C24.6228 16.736 24.7425 15.7977 24.9747 15.1465Z" fill="#020101"/>
<path id="Vector_4" d="M25.1396 19.5117C25.4619 19.5308 25.7829 19.567 26.101 19.6204C25.9357 20.3576 25.8027 21.1016 25.7016 21.8503C25.9433 21.3876 26.2382 20.2128 26.3764 19.6792C26.7124 19.7566 26.9372 19.8341 27.2524 19.9741C27.1342 20.2662 26.6406 21.399 26.59 21.6209L26.7126 21.5518C27.0275 21.4538 27.3342 21.4457 27.6518 21.5443C27.7065 21.5656 27.7812 21.5977 27.8356 21.6141C28.0034 21.725 28.3923 22.0262 28.4443 22.219L28.5261 22.3949C28.6286 22.7271 28.613 23.0175 28.5161 23.3499L28.475 23.4386C28.6062 23.4646 29.8752 22.8325 30.1074 22.7295C30.2819 23.066 30.3549 23.2856 30.466 23.6424C29.9628 23.7623 28.5869 24.1845 28.1052 24.3942C28.9243 24.2623 29.7387 24.1024 30.5468 23.9148C30.6354 24.2276 30.6811 24.5974 30.6916 24.9219C29.8747 24.9302 29.0585 24.9807 28.2468 25.073C29.059 25.1558 29.8745 25.2039 30.6909 25.2168C30.6884 25.5503 30.6528 25.8826 30.5842 26.209C29.8317 26.023 28.9338 25.8716 28.1726 25.7661C28.6914 26.023 29.9047 26.3194 30.5102 26.491C30.4186 26.8616 30.3386 27.0913 30.1923 27.4397C29.455 27.0935 28.7109 26.7615 27.9609 26.4436C27.9665 26.4488 27.9719 26.4539 27.9772 26.459L28.0051 26.4837C28.4121 26.8494 29.5207 27.396 30.0478 27.7205C29.8793 28.0327 29.7592 28.2412 29.5441 28.5215C28.8854 28.0401 28.2111 27.491 27.5415 27.0371C27.8703 27.5015 28.9013 28.376 29.3444 28.77C29.1289 29.0276 28.9382 29.2136 28.6843 29.4331C28.309 28.9693 27.4331 27.9617 27.0231 27.5803C27.2312 28.034 28.0886 29.1553 28.4279 29.6243C28.1918 29.8213 27.8698 29.999 27.5942 30.1321C27.3413 29.6262 26.726 28.3924 26.3945 27.9551C26.6433 28.709 27.0156 29.5579 27.3403 30.2776C27.0471 30.4322 26.716 30.5359 26.3959 30.616C26.2197 29.7869 26.0104 28.9737 25.7155 28.1785C25.7121 28.6341 26.0185 30.18 26.121 30.6761C25.8063 30.752 25.4777 30.7832 25.1547 30.7903C25.1159 29.9805 25.1306 29.0852 25.0019 28.2866C24.8796 28.8977 24.8793 30.146 24.8757 30.7893C24.475 30.7896 24.2723 30.7515 23.8857 30.6739C24.0377 29.8535 24.2088 29.0127 24.3076 28.1865C24.0119 28.826 23.7733 29.9112 23.6177 30.6092C23.2444 30.5093 23.0247 30.4334 22.6738 30.2722C22.9714 29.5467 23.3658 28.6809 23.5987 27.9485C23.2297 28.4314 22.6945 29.5635 22.4163 30.136C22.1162 29.9939 21.8513 29.8137 21.5936 29.6065C22.015 29.0872 22.6459 28.1238 23.0006 27.5657C22.6023 27.8968 21.7052 28.9942 21.3615 29.4261C21.1307 29.2486 20.8813 28.9844 20.6812 28.7688C21.2017 28.3096 22.0147 27.5784 22.4608 27.0659C22.2551 27.1721 21.9206 27.4275 21.7267 27.5723L20.4687 28.5288C20.2607 28.2891 20.1004 27.9964 19.9588 27.7146C20.6237 27.3335 21.493 26.8716 22.0917 26.4368C21.3642 26.741 20.5167 27.0696 19.8144 27.4212C19.6769 27.1392 19.5769 26.7698 19.4932 26.4656C19.9513 26.3631 21.4327 25.9732 21.7796 25.7888C21.0946 25.8501 20.1103 26.054 19.422 26.1885C19.3519 25.8628 19.3333 25.5435 19.3115 25.2124C19.8532 25.1873 21.1247 25.1768 21.622 25.0755L21.6123 25.0579C21.4214 25.0142 21.1386 25.0091 20.9384 24.9905C20.3999 24.9407 19.8703 24.9229 19.3301 24.9112C19.343 24.5584 19.388 24.2575 19.4645 23.9146C20.2498 24.0972 21.0414 24.2517 21.8378 24.3778C21.3398 24.1311 20.1016 23.7863 19.5477 23.6355C19.643 23.2829 19.7357 23.0465 19.8812 22.7176C20.629 23.0693 21.2955 23.3623 22.0757 23.6374C21.4476 23.2105 20.6896 22.8234 20.0278 22.428C20.184 22.1536 20.3721 21.9022 20.5635 21.6522C21.2437 22.1526 21.7107 22.5428 22.4493 23.0019C21.9902 22.4857 21.2749 21.8865 20.7479 21.4295C20.9776 21.1833 21.1715 20.9951 21.4299 20.7809C21.8822 21.3256 22.4837 21.9939 22.9911 22.4937C22.7484 22.0131 22.0014 21.0648 21.6606 20.5939C21.9414 20.3901 22.1629 20.2514 22.4701 20.0908C22.8696 20.7884 23.1 21.4196 23.6147 22.0962C23.3692 21.4159 23.0326 20.622 22.7267 19.9641C23.0097 19.85 23.3224 19.7562 23.6169 19.6767C23.8117 20.3825 24.0138 21.1995 24.304 21.8639C24.2512 21.3101 24.0277 20.1747 23.8955 19.6167C24.2461 19.5583 24.519 19.5277 24.8706 19.5148C24.8745 20.1884 24.8833 21.1463 24.9968 21.8048C25.1088 21.2941 25.1286 20.0646 25.1396 19.5117Z" fill="#2A9D8F"/>
<path id="Vector_5" d="M26.7122 21.5518C27.0272 21.4538 27.3338 21.4456 27.6514 21.5443C27.7061 21.5656 27.7808 21.5977 27.8353 21.6141C28.003 21.725 28.3919 22.0262 28.4439 22.219L28.5257 22.3949C28.6283 22.727 28.6126 23.0175 28.5157 23.3498L28.4747 23.4386C28.2413 23.8177 28.1075 23.9625 27.7157 24.1779C27.7674 24.2391 27.7845 24.3535 27.8011 24.4336C27.9063 24.9346 27.8709 25.4549 27.6988 25.9368C27.4405 26.6712 26.9312 27.2254 26.2286 27.5564C25.533 27.8853 24.7349 27.9221 24.012 27.659C23.3025 27.3963 22.7254 26.8638 22.4066 26.1778C21.7594 24.7561 22.4553 23.0537 23.8673 22.4627C24.4761 22.208 25.2943 22.1014 25.9168 22.3422C26.0645 22.0818 26.1842 21.9284 26.4256 21.7454L26.5897 21.6208L26.7122 21.5518Z" fill="#020101"/>
<path id="Vector_6" d="M26.7124 21.5518C27.0274 21.4538 27.334 21.4456 27.6517 21.5443C27.7063 21.5656 27.7811 21.5977 27.8355 21.6141C28.0032 21.725 28.3921 22.0262 28.4441 22.219L28.5259 22.3949C28.6285 22.727 28.6128 23.0175 28.5159 23.3498L28.4749 23.4386C28.2415 23.8177 28.1077 23.9625 27.7159 24.1779C27.439 24.3036 27.064 24.3222 26.7757 24.233C26.4217 24.1231 26.127 23.8751 25.9581 23.5451C25.7515 23.1329 25.785 22.7621 25.917 22.3422C26.0647 22.0818 26.1844 21.9284 26.4258 21.7454L26.5899 21.6208L26.7124 21.5518Z" fill="#E8E7E7"/>
<path id="Vector_7" d="M28.8877 20.1904C29.1682 20.2141 29.7822 20.4834 30.0667 20.6002C32.1814 21.4844 34.083 22.8102 35.6438 24.4885C35.9102 24.773 36.2729 25.1656 36.4978 25.482C36.3103 25.7481 36.0918 25.9832 35.8779 26.2268C34.769 27.4917 33.4551 28.4278 31.9941 29.2473C30.7639 29.9304 29.5884 30.3377 28.2417 30.6941C31.3489 28.761 32.4517 24.7644 30.3164 21.6453C29.9617 21.127 29.4158 20.543 28.8877 20.1904Z" fill="#E8E7E7"/>
<path id="Vector_8" d="M20.9125 20.2636L20.945 20.2615C20.938 20.3105 20.7673 20.4465 20.7197 20.4891C20.1788 20.9729 19.724 21.5136 19.3707 22.1529C18.5658 23.5975 18.3735 25.3044 18.8368 26.8921C19.2917 28.4375 20.3823 29.9163 21.807 30.6899C20.3297 30.3052 19.5178 30.0415 18.1463 29.3215C16.5932 28.4717 14.5291 26.9631 13.5366 25.4719C13.715 25.1814 14.214 24.6465 14.4561 24.391C16.2439 22.5147 18.459 21.0987 20.9125 20.2636Z" fill="#E8E7E7"/>
<path id="Vector_9" d="M27.5171 20.0938C27.8137 20.2569 28.0522 20.4007 28.324 20.6065C28.114 20.8983 27.8457 21.2495 27.6516 21.5443C27.334 21.4456 27.0273 21.4538 26.7124 21.5518C26.9922 21.252 27.3025 20.4767 27.5171 20.0938Z" fill="#2A9D8F"/>
<path id="Vector_10" d="M28.5256 22.3948C28.8325 22.1535 29.1431 21.9172 29.4578 21.6861C29.6377 21.9231 29.824 22.179 29.969 22.4388C29.5872 22.6583 28.8308 23.0736 28.5156 23.3498C28.6125 23.0174 28.6282 22.727 28.5256 22.3948Z" fill="#2A9D8F"/>
<path id="Vector_11" d="M27.8354 21.6141C28.0737 21.3675 28.3311 21.0511 28.5564 20.7864C28.8391 21.0013 29.0408 21.188 29.2732 21.4604C29.1174 21.5955 28.5095 22.0981 28.4441 22.2189C28.3921 22.0262 28.0032 21.7249 27.8354 21.6141Z" fill="#2A9D8F"/>
</g>
<path id="Union" d="M24.6362 10.8145C27.0733 10.6964 30.0149 11.3118 32.0874 12.0284C36.6104 13.5924 40.5608 16.5414 43.4751 20.2364L44.0444 20.9854L44.0474 20.9913L44.4546 21.5557L44.4575 21.5616C44.8681 22.1423 45.4358 22.9711 45.7974 23.6348L45.938 23.9073V23.9083L46.2476 24.546C46.3632 24.7838 46.3707 25.06 46.2681 25.3038L45.9937 25.9571V25.9581C45.8325 26.3401 45.5996 26.7144 45.5337 26.8253C45.533 26.8264 45.5324 26.828 45.5317 26.8292C41.4311 33.7388 33.8527 39.0674 25.3862 39.1954V39.1973C22.897 39.2358 20.4196 38.8495 18.0601 38.0557V38.0547C17.1757 37.7643 16.3173 37.3911 15.562 37.0313L15.563 37.0274C15.558 37.025 15.5523 37.024 15.5474 37.0215V37.0245C11.4585 35.0444 7.96641 32.0178 5.42334 28.254C5.41895 28.2479 5.41392 28.2416 5.40967 28.2354C5.12714 27.8205 4.44401 26.8319 4.09912 26.1495L3.76318 25.4825C3.63801 25.2347 3.63043 24.9435 3.74463 24.6905L4.05225 24.0089C4.27998 23.5047 4.7834 22.7509 4.88916 22.587C5.77752 21.1839 6.7924 19.8654 7.91943 18.6465L8.40967 18.128C12.568 13.8224 18.4801 10.9505 24.6362 10.8165V10.8145ZM24.4937 38.2735C24.6371 38.2773 24.7807 38.2805 24.9243 38.2813C24.7807 38.2805 24.6371 38.2773 24.4937 38.2735ZM24.0396 38.2569C24.184 38.2638 24.3285 38.2686 24.4731 38.2725C24.3285 38.2686 24.184 38.2638 24.0396 38.2569ZM23.6177 38.2315C23.7397 38.2398 23.8617 38.2478 23.9839 38.254C23.8617 38.2478 23.7397 38.2398 23.6177 38.2315ZM22.7466 38.1544C22.8204 38.1625 22.8943 38.1695 22.9683 38.1768C22.8943 38.1695 22.8204 38.1625 22.7466 38.1544ZM22.3325 38.1036C22.4158 38.1144 22.4991 38.125 22.5825 38.1348C22.4991 38.125 22.4158 38.1144 22.3325 38.1036ZM21.8755 38.0391C21.9734 38.0541 22.0713 38.0685 22.1694 38.0821C22.0713 38.0685 21.9734 38.0541 21.8755 38.0391ZM21.4526 37.9708C21.5508 37.9878 21.6491 38.0039 21.7476 38.0196C21.6491 38.0039 21.5508 37.9878 21.4526 37.9708ZM21.0317 37.8926C21.1199 37.9098 21.2081 37.9264 21.2964 37.9424C21.2081 37.9264 21.1199 37.9098 21.0317 37.8926ZM20.5757 37.7979C20.6765 37.8199 20.7773 37.8419 20.8784 37.8624C20.7773 37.8419 20.6765 37.8199 20.5757 37.7979ZM20.2114 37.7159C20.296 37.7359 20.3806 37.7555 20.4653 37.7745C20.3806 37.7555 20.296 37.7359 20.2114 37.7159ZM31.2524 37.3057H31.2534H31.2524ZM19.4429 37.5186C19.4832 37.5298 19.5236 37.5409 19.564 37.5518C19.5236 37.5409 19.4832 37.5298 19.4429 37.5186ZM18.4751 37.2247C18.7091 37.3018 18.9439 37.3756 19.1802 37.4444C18.9439 37.3756 18.7091 37.3018 18.4751 37.2247ZM29.7065 36.1212C29.6037 36.1476 29.5012 36.1755 29.3979 36.2003C29.4184 36.1954 29.4391 36.1916 29.4595 36.1866L29.7065 36.1212ZM15.9478 36.1983L15.9497 36.1993L15.9478 36.1973C15.7425 36.0979 15.5395 35.9945 15.3374 35.8897C15.5396 35.9946 15.7424 36.0989 15.9478 36.1983ZM13.0981 34.5782C13.2928 34.7065 13.4906 34.8302 13.689 34.9532C13.2585 34.6864 12.8359 34.4082 12.4233 34.1163L13.0981 34.5782ZM8.33936 30.4874C8.53632 30.7054 8.73752 30.9192 8.94189 31.1299C8.73751 30.9192 8.53632 30.7054 8.33936 30.4874ZM6.89111 28.7276C7.04125 28.928 7.19422 29.1259 7.3501 29.3214C7.19422 29.1259 7.04125 28.928 6.89111 28.7276ZM6.16846 27.7188H6.16943C6.2323 27.8121 6.29872 27.9029 6.36279 27.9952C6.29861 27.9027 6.23143 27.8122 6.16846 27.7188ZM43.7065 24.9932H43.7075H43.7065ZM5.29736 23.6524C5.1829 23.8379 5.0648 24.0394 4.97217 24.2178L5.07275 24.0333C5.14385 23.9071 5.22109 23.776 5.29736 23.6524ZM6.41162 21.9639C6.28483 22.1434 6.15993 22.3243 6.0376 22.5069V22.5079C6.16007 22.325 6.28468 22.1436 6.41162 21.9639ZM43.7085 22.0909L43.3032 21.5284L43.3022 21.5274L43.7085 22.0909ZM41.478 21.712C41.5259 21.7723 41.5733 21.8329 41.6206 21.8936C41.5733 21.8329 41.5259 21.7723 41.478 21.712ZM6.79346 21.4366C6.71137 21.5469 6.63163 21.659 6.55127 21.7706C6.63163 21.659 6.71138 21.5469 6.79346 21.4366ZM7.19287 20.9141C7.10326 21.0285 7.01497 21.144 6.92725 21.2598C7.01497 21.144 7.10326 21.0285 7.19287 20.9141ZM7.61768 20.3848C7.51746 20.5062 7.41882 20.6289 7.3208 20.752C7.41882 20.6289 7.51747 20.5062 7.61768 20.3848ZM42.4058 20.376C42.3312 20.2857 42.257 20.1949 42.1812 20.1055C42.257 20.1949 42.3312 20.2856 42.4058 20.376ZM8.06689 19.8565C7.95756 19.9821 7.8496 20.1088 7.74268 20.2364C7.8496 20.1088 7.95756 19.9821 8.06689 19.8565ZM42.0259 19.9258C41.9783 19.8709 41.9313 19.8154 41.8833 19.7608C41.9313 19.8154 41.9783 19.8709 42.0259 19.9258ZM8.51318 19.3575C8.39636 19.485 8.28076 19.6135 8.1665 19.7432C8.28076 19.6135 8.39636 19.485 8.51318 19.3575ZM41.438 19.2696C41.3877 19.2154 41.3374 19.1612 41.2866 19.1075C41.3374 19.1612 41.3877 19.2154 41.438 19.2696ZM8.65186 19.2061C8.63914 19.2198 8.62645 19.2334 8.61377 19.2471C8.76289 19.0862 8.91371 18.9268 9.06689 18.7696L8.65186 19.2061ZM41.1362 18.9503C41.082 18.8938 41.0279 18.8372 40.9731 18.7813C41.0279 18.8372 41.082 18.8938 41.1362 18.9503ZM40.8218 18.629C40.774 18.581 40.7264 18.533 40.6782 18.4854C40.7264 18.533 40.774 18.581 40.8218 18.629ZM40.5347 18.3458C40.4596 18.2728 40.3841 18.2001 40.3081 18.128C40.3841 18.2001 40.4596 18.2728 40.5347 18.3458ZM40.2485 18.0714C40.169 17.9965 40.0888 17.9225 40.0083 17.8487C40.0888 17.9225 40.169 17.9965 40.2485 18.0714ZM10.2397 17.6378V17.6387V17.6378ZM39.5034 17.3975C39.4524 17.3532 39.4015 17.3086 39.3501 17.2647C39.4015 17.3086 39.4524 17.3532 39.5034 17.3975ZM39.1636 17.1075C39.1123 17.0646 39.0609 17.022 39.0093 16.9796C39.0609 17.022 39.1123 17.0646 39.1636 17.1075ZM11.4927 16.586V16.587V16.586ZM38.814 16.8204C38.7673 16.7827 38.7203 16.7454 38.6733 16.7081C38.7203 16.7454 38.7673 16.7827 38.814 16.8204ZM38.481 16.5557C38.4069 16.4981 38.332 16.4416 38.2573 16.3848C38.332 16.4416 38.4069 16.4981 38.481 16.5557ZM38.1636 16.3135C38.0885 16.257 38.0128 16.2012 37.937 16.1456C38.0128 16.2012 38.0885 16.257 38.1636 16.3135ZM37.7153 15.9844C37.6755 15.9558 37.6352 15.9278 37.5952 15.8995C37.6352 15.9278 37.6755 15.9558 37.7153 15.9844ZM37.3813 15.7491C37.3359 15.7176 37.2903 15.6865 37.2446 15.6553C37.2903 15.6865 37.3359 15.7176 37.3813 15.7491ZM36.978 15.4756C36.931 15.4445 36.8837 15.4137 36.8364 15.3829C36.8837 15.4137 36.931 15.4445 36.978 15.4756ZM36.6372 15.254C36.5676 15.2095 36.4974 15.1659 36.4272 15.1221C36.4974 15.1659 36.5676 15.2095 36.6372 15.254ZM14.2153 14.7481V14.7471V14.7481ZM36.2476 15.0108C36.1885 14.9747 36.1292 14.939 36.0698 14.9034C36.1292 14.939 36.1885 14.9747 36.2476 15.0108ZM35.8677 14.7823C35.7994 14.7422 35.7303 14.7035 35.6616 14.6641C35.7303 14.7035 35.7994 14.7422 35.8677 14.7823ZM35.5015 14.5723C35.4332 14.5339 35.3641 14.4968 35.2954 14.459C35.3641 14.4968 35.4332 14.5339 35.5015 14.5723ZM34.6997 14.1417C34.5879 14.0844 34.4756 14.0282 34.3628 13.9727C34.4756 14.0282 34.5879 14.0844 34.6997 14.1417ZM31.4019 12.7686C31.533 12.8109 31.6615 12.8533 31.7866 12.8965C32.0721 12.9952 32.3556 13.1 32.6362 13.21C32.4982 13.1559 32.3594 13.1032 32.2202 13.0518L31.7876 12.8965C31.6626 12.8533 31.5338 12.8108 31.4028 12.7686H31.4019ZM28.3394 12.0137C28.6493 12.0683 28.9573 12.1284 29.2603 12.1944C28.9573 12.1284 28.6493 12.0683 28.3394 12.0137ZM23.5776 11.7852C23.2105 11.8131 22.8445 11.8518 22.48 11.8995C22.8445 11.8518 23.2105 11.8131 23.5776 11.7852ZM24.6929 11.7315C25.2603 11.7046 25.8606 11.72 26.4731 11.7696C25.8606 11.72 25.2603 11.7046 24.6929 11.7315Z" fill="white" fill-opacity="0.3"/>
</g>
</g>
</g>
</svg>
