<svg width="50" height="50" viewBox="0 0 50 50" fill="none" xmlns="http://www.w3.org/2000/svg">
<rect width="50" height="50" fill="#BEBEBE"/>
<g id="Decorate Mode">
<path d="M-354.703 -891.034V-890.034H2665.3V-891.034V-892.034H-354.703V-891.034ZM2667.3 -889.034H2666.3V2648.97H2667.3H2668.3V-889.034H2667.3ZM2665.3 2650.97V2649.97H-354.703V2650.97V2651.97H2665.3V2650.97ZM-356.703 2648.97H-355.703V-889.034H-356.703H-357.703V2648.97H-356.703ZM-354.703 2650.97V2649.97C-355.255 2649.97 -355.703 2649.52 -355.703 2648.97H-356.703H-357.703C-357.703 2650.62 -356.36 2651.97 -354.703 2651.97V2650.97ZM2667.3 2648.97H2666.3C2666.3 2649.52 2665.85 2649.97 2665.3 2649.97V2650.97V2651.97C2666.95 2651.97 2668.3 2650.62 2668.3 2648.97H2667.3ZM2665.3 -891.034V-890.034C2665.85 -890.034 2666.3 -889.587 2666.3 -889.034H2667.3H2668.3C2668.3 -890.691 2666.95 -892.034 2665.3 -892.034V-891.034ZM-354.703 -891.034V-892.034C-356.359 -892.034 -357.703 -890.691 -357.703 -889.034H-356.703H-355.703C-355.703 -889.587 -355.255 -890.034 -354.703 -890.034V-891.034Z" fill="black" fill-opacity="0.1"/>
<g id="Stickers">
<rect x="-302.694" y="-18.5342" width="374" height="551" rx="4.5" stroke="#9747FF" stroke-dasharray="10 5"/>
<g id="Property 1=flower">
<g id="Frame 114">
<path id="Vector" d="M24.4743 10.0632C25.2311 9.95326 26.3644 10.1482 27.0741 10.4276C28.5138 10.9942 29.6706 12.1076 30.2919 13.5246C31.0414 15.2537 30.8149 16.9049 30.1391 18.6007C30.278 18.4714 30.4203 18.3458 30.5658 18.224C31.9401 17.0644 33.665 16.3795 35.4816 16.5428C37.0451 16.6704 38.4916 17.4218 39.495 18.6277C40.4867 19.8262 40.9557 21.3725 40.7973 22.92C40.6359 24.4959 39.8446 25.9397 38.6034 26.924C37.0338 28.1799 35.234 28.4487 33.2944 28.2365C33.3735 28.2785 33.4516 28.322 33.5292 28.3667C35.1344 29.2898 36.4059 30.6318 36.9052 32.4599C37.3068 33.9301 37.0951 35.6604 36.3239 36.9814C35.5314 38.361 34.2209 39.3667 32.6833 39.7754C30.4521 40.3559 28.1132 39.5554 26.6518 37.7978C25.8908 36.8825 25.4233 35.8979 25.1232 34.7556L24.998 34.1992C24.7038 36.1599 23.5602 38.0505 21.8573 39.0918C20.5215 39.916 18.911 40.1694 17.3867 39.7956C15.8476 39.4013 14.5307 38.4067 13.7301 37.0344C12.9214 35.6609 12.7006 34.0193 13.1178 32.4809C13.4977 31.0442 14.432 29.8051 15.6221 28.9345C15.9905 28.6648 16.3318 28.4707 16.7257 28.2397C16.5749 28.2612 16.4327 28.2639 16.2825 28.2746C14.3259 28.4133 12.5977 27.9973 11.0995 26.6496C9.94027 25.6042 9.24816 24.1381 9.17777 22.5787C9.10883 21.0573 9.6466 19.5708 10.673 18.4457C11.7384 17.2899 13.2162 16.6002 14.7864 16.526C16.8679 16.4356 18.4243 17.2967 19.8995 18.6472C19.583 17.9635 19.3764 17.2342 19.2871 16.4862C18.9308 13.2344 21.2234 10.3995 24.4743 10.0632Z" fill="#020101"/>
<path id="Vector (Stroke)" d="M24.3136 8.50978C25.397 8.37 26.7724 8.62951 27.6468 8.97365C29.3566 9.64665 30.7515 10.9284 31.5677 12.565L31.7233 12.897L31.7257 12.9031C32.0987 13.7636 32.2774 14.6043 32.3141 15.422C33.343 15.0521 34.4589 14.8817 35.6216 14.9862L35.621 14.9868C37.4743 15.1412 39.1973 15.9865 40.4513 17.3483L40.6961 17.6284L40.6991 17.6315C41.9578 19.1526 42.553 21.1152 42.352 23.0789C42.1479 25.072 41.1474 26.8976 39.5791 28.1436L39.5798 28.1442C38.8012 28.7671 37.9818 29.1896 37.142 29.4607C37.7025 30.2066 38.1445 31.0658 38.4128 32.048C38.9221 33.9127 38.6618 36.0768 37.6736 37.7694L37.673 37.7688C36.6724 39.505 35.0216 40.7709 33.085 41.2857L33.0771 41.2875C30.238 42.0262 27.2848 41.0024 25.4507 38.7966C25.2935 38.6076 25.147 38.4158 25.0101 38.2217C24.3894 39.0944 23.6034 39.8558 22.6724 40.4251L22.6718 40.4245C20.9807 41.4658 18.9431 41.786 17.0144 41.3131C17.0094 41.3119 17.0043 41.3108 16.9992 41.3095C15.0573 40.812 13.3951 39.5577 12.3837 37.8274L12.2903 37.6632C11.3452 35.9614 11.099 33.9553 11.6098 32.0718C11.8662 31.1076 12.3144 30.2293 12.8897 29.4601C11.8931 29.1388 10.9409 28.6088 10.0546 27.8115L10.0534 27.8097C8.67573 26.5673 7.81844 24.8563 7.64311 23.0184L7.61686 22.6492C7.52924 20.7143 8.2134 18.8238 9.51872 17.3928L9.52421 17.3867C10.8681 15.9289 12.7322 15.0585 14.7128 14.9649H14.7189C15.8256 14.9168 16.8093 15.0882 17.7005 15.4141C17.8935 11.8383 20.6217 8.8911 24.3136 8.50917V8.50978ZM27.0743 10.4275C26.3645 10.1482 25.231 9.95317 24.4742 10.0631C21.2235 10.3995 18.9312 13.2342 19.2874 16.4859C19.3766 17.2339 19.5832 17.9634 19.8996 18.6471C18.4245 17.2966 16.8681 16.4358 14.7867 16.5261C13.2164 16.6004 11.7383 17.2899 10.6729 18.4457C9.64667 19.5707 9.10928 21.0572 9.17814 22.5784C9.24853 24.1377 9.94039 25.604 11.0995 26.6494C12.5978 27.9971 14.3261 28.4135 16.2826 28.2748C16.4328 28.2641 16.575 28.2609 16.7257 28.2394C16.3319 28.4704 15.9907 28.6648 15.6222 28.9346C14.4322 29.8052 13.4979 31.044 13.118 32.4807C12.7008 34.0191 12.9214 35.661 13.7301 37.0346C14.5307 38.4068 15.8477 39.4015 17.3868 39.7958C18.9111 40.1696 20.5218 39.9157 21.8576 39.0914C23.5604 38.0502 24.7037 36.1595 24.9978 34.1989L25.1236 34.7555C25.4236 35.8978 25.891 36.8823 26.6519 37.7975C28.1133 39.5551 30.4522 40.3556 32.6834 39.775C34.221 39.3663 35.5317 38.3611 36.3241 36.9815C37.0472 35.7429 37.2784 34.1447 36.9736 32.7383L36.9052 32.46C36.4059 30.6319 35.1346 29.2894 33.5293 28.3664C33.4517 28.3217 33.3734 28.2783 33.2944 28.2363C35.234 28.4485 37.0342 28.1799 38.6038 26.9241C39.7674 26.0012 40.5351 24.6744 40.7596 23.2138L40.7974 22.9202C40.9559 21.3727 40.4866 19.8261 39.4949 18.6276C38.5542 17.4972 37.2243 16.7659 35.7736 16.5737L35.4819 16.5426C33.6652 16.3794 31.9403 17.0645 30.5661 18.2241C30.4206 18.3459 30.2783 18.4714 30.1394 18.6007C30.8152 16.9049 31.0415 15.2536 30.292 13.5244C29.6707 12.1075 28.5139 10.9941 27.0743 10.4275Z" fill="#E8E7E7"/>
<path id="Vector (Stroke) (Stroke)" d="M24.2368 7.5959C25.5002 7.44322 27.0113 7.73713 27.9832 8.11965C29.7845 8.82873 31.2753 10.1383 32.2103 11.8146L32.3897 12.1554L32.3993 12.1758L32.5547 12.507C32.5622 12.523 32.5697 12.5396 32.5762 12.556L32.5786 12.562H32.5774C32.8209 13.1283 32.9901 13.6893 33.0964 14.2433C33.928 14.0591 34.802 13.9902 35.7032 14.0711C35.7066 14.0714 35.7106 14.072 35.714 14.0723C37.6605 14.2383 39.4779 15.0836 40.8559 16.4459L41.1273 16.7258L41.1429 16.7437L41.388 17.0247C41.3943 17.0318 41.4011 17.039 41.4072 17.0462C42.8225 18.7569 43.4914 20.9641 43.2654 23.1723C43.0362 25.4107 41.9141 27.4623 40.154 28.8618C39.6255 29.2847 39.0766 29.6229 38.5169 29.8938C38.8435 30.4783 39.1102 31.1148 39.299 31.8059C39.8716 33.9022 39.5823 36.321 38.4667 38.2321C37.344 40.1775 35.4926 41.5961 33.3212 42.1734C33.3115 42.176 33.3012 42.1783 33.2913 42.1806L33.283 42.183L33.2818 42.1818C30.2237 42.9669 27.0631 41.9365 25.0033 39.679C24.4642 40.2624 23.8465 40.7831 23.151 41.2084C23.1469 41.2109 23.142 41.2119 23.1379 41.2144C21.2405 42.3773 18.9573 42.7358 16.7954 42.2057V42.2045L16.7715 42.1997C14.5918 41.6413 12.7265 40.2327 11.5913 38.2907L11.5853 38.2811L11.4921 38.1173L11.4873 38.1089C10.4263 36.1983 10.1497 33.9457 10.7232 31.831C10.9071 31.1409 11.1785 30.4934 11.5148 29.8938C10.7924 29.5447 10.097 29.0856 9.44009 28.4947C9.43003 28.4857 9.42103 28.4755 9.41139 28.466C7.87889 27.0715 6.92516 25.1591 6.72923 23.1053C6.72854 23.0981 6.72735 23.091 6.72684 23.0838L6.70053 22.7143C6.69997 22.7065 6.69969 22.6982 6.69933 22.6904C6.60081 20.5124 7.37061 18.3842 8.8398 16.7736L8.84937 16.764C10.3568 15.129 12.4475 14.1522 14.6693 14.0472C14.6836 14.0465 14.698 14.046 14.7123 14.046H14.7183C15.502 14.0152 16.2343 14.0848 16.9221 14.2349C17.5967 10.7349 20.4696 7.98386 24.2189 7.5959C24.2247 7.59529 24.231 7.59639 24.2368 7.5959ZM27.6472 8.97345C26.8275 8.65084 25.5671 8.40261 24.5202 8.48796L24.3133 8.50948C20.6216 8.89153 17.8937 11.8383 17.7006 15.414C16.8094 15.0881 15.825 14.9163 14.7183 14.9644H14.7123C12.7319 15.0581 10.8676 15.9293 9.52379 17.387L9.51901 17.393C8.21369 18.824 7.52889 20.7148 7.6165 22.6497L7.64281 23.018C7.81815 24.8559 8.67587 26.5671 10.0535 27.8095L10.0547 27.8119L10.3895 28.0977C11.1793 28.7379 12.0177 29.1785 12.8899 29.4597C12.3148 30.2289 11.8656 31.1072 11.6093 32.0713C11.0984 33.9549 11.3457 35.961 12.2909 37.6629L12.3841 37.8279C13.3955 39.5578 15.0571 40.8125 16.9987 41.31C17.0037 41.3113 17.0092 41.3124 17.0142 41.3136C18.9429 41.7865 20.9805 41.4653 22.6715 40.4239L22.6727 40.4251C23.6036 39.8559 24.3898 39.0939 25.0105 38.2213C25.1474 38.4154 25.2934 38.6075 25.4505 38.7965C27.2846 41.0022 30.2382 42.026 33.0773 41.2873L33.0845 41.2861C35.0209 40.7714 36.6721 39.5052 37.6727 37.7693H37.6739C38.6001 36.1826 38.8864 34.1816 38.499 32.4014L38.4129 32.0474C38.1446 31.0655 37.7022 30.2067 37.1418 29.4609C37.9815 29.1898 38.8015 28.7673 39.58 28.1444L39.5788 28.1432C41.0489 26.9752 42.0201 25.2981 42.304 23.4509L42.3518 23.079C42.5528 21.1153 41.9579 19.1521 40.6993 17.631L40.6957 17.6286L40.4517 17.3488C39.1977 15.987 37.4741 15.1414 35.6207 14.9871L35.6219 14.9859C34.4593 14.8814 33.3432 15.0524 32.3144 15.4223C32.2777 14.6047 32.099 13.7633 31.726 12.9028L31.7236 12.8968L31.5682 12.5644C30.8031 11.0304 29.5288 9.80873 27.9641 9.10738L27.6472 8.97345ZM24.4736 10.0628C25.2304 9.95286 26.3647 10.1482 27.0744 10.4275C28.514 10.9941 29.671 12.1078 30.2923 13.5246C31.0417 15.2537 30.815 16.905 30.1392 18.6008C30.2781 18.4715 30.4207 18.3458 30.5661 18.2241C31.9404 17.0645 33.6654 16.3796 35.482 16.5428L35.7738 16.5739C37.2244 16.766 38.5545 17.4968 39.4951 18.6271C40.4867 19.8255 40.9557 21.3726 40.7973 22.92L40.759 23.2141C40.5345 24.6746 39.7677 26.0019 38.6042 26.9247C37.0347 28.1805 35.2334 28.4486 33.2937 28.2364C33.3728 28.2784 33.4517 28.3221 33.5293 28.3668C35.1344 29.2899 36.4058 30.632 36.905 32.46L36.9732 32.7386C37.278 34.1449 37.0469 35.7428 36.3239 36.9813C35.5315 38.3607 34.2212 39.3658 32.6839 39.7746C30.5921 40.3189 28.405 39.65 26.9357 38.1161L26.6523 37.798C25.8915 36.8829 25.4241 35.8979 25.1241 34.7559L24.9973 34.1987C24.7031 36.1593 23.56 38.0505 21.8572 39.0918C20.5217 39.9157 18.9113 40.1697 17.3873 39.7962C15.8485 39.4019 14.5312 38.407 13.7306 37.0351C12.9725 35.7476 12.7303 34.2237 13.0466 32.7709L13.1183 32.4803C13.4984 31.0438 14.4325 29.8053 15.6223 28.9348C15.9908 28.665 16.3321 28.4698 16.726 28.2388C16.5753 28.2603 16.4326 28.264 16.2824 28.2747C14.4482 28.4047 12.8147 28.0468 11.3832 26.8912L11.0998 26.6496C10.0132 25.6696 9.33681 24.3194 9.19854 22.8697L9.17821 22.578C9.10947 21.0569 9.64682 19.5702 10.6729 18.4453C11.7383 17.2897 13.2164 16.6003 14.7865 16.5261C16.8679 16.4357 18.4246 17.2969 19.8997 18.6474C19.5833 17.9637 19.3767 17.2334 19.2874 16.4854C18.9316 13.2341 21.2234 10.3994 24.4736 10.0628ZM26.7384 11.2825C26.1357 11.0453 25.1657 10.8904 24.6063 10.9716C24.594 10.9734 24.5816 10.9751 24.5692 10.9764C21.8279 11.2601 19.9034 13.6357 20.1986 16.3766C20.2764 17.0289 20.4574 17.6653 20.7331 18.2612C20.9169 18.6583 20.7945 19.1305 20.4414 19.3888C20.0882 19.6468 19.6017 19.6196 19.2791 19.3242C17.9082 18.0693 16.5792 17.3666 14.8283 17.442L14.8295 17.4432C13.5006 17.5062 12.2502 18.0903 11.3486 19.0683L11.3474 19.0671C10.4872 20.0118 10.0376 21.2605 10.0954 22.5373C10.1547 23.8508 10.7373 25.0861 11.7133 25.9668L11.9548 26.1725C13.1698 27.1553 14.559 27.476 16.2166 27.3587C16.4234 27.3439 16.4872 27.3455 16.5957 27.33C17.03 27.2682 17.4483 27.5222 17.593 27.9363C17.7376 28.3506 17.5685 28.8097 17.19 29.0316C16.7833 29.2701 16.4879 29.4399 16.1652 29.6762H16.164C15.1177 30.4417 14.3239 31.5122 14.0056 32.7159L14.0044 32.7207C13.674 33.9392 13.8168 35.2353 14.399 36.3487L14.521 36.5687L14.5234 36.5723C15.1991 37.7304 16.3103 38.5697 17.6085 38.9041C18.8929 39.2182 20.2497 39.0043 21.3753 38.3098L21.3789 38.3074C22.8247 37.423 23.8313 35.7845 24.0897 34.0623L24.128 33.9045C24.2482 33.5487 24.5776 33.2958 24.9638 33.2815C25.4054 33.2653 25.7968 33.5656 25.8942 33.9966L26.0185 34.5478C26.2895 35.5678 26.6999 36.4195 27.3578 37.2109C28.5994 38.7039 30.5755 39.372 32.4483 38.8862C33.7487 38.5402 34.8573 37.691 35.5275 36.5245L35.531 36.5185C36.129 35.4943 36.3315 34.1436 36.0811 32.9574L36.0189 32.7015C35.626 31.2632 34.6585 30.1468 33.3404 29.3234L33.0713 29.162C33.0024 29.1224 32.9326 29.084 32.8632 29.0472C32.4745 28.8405 32.2866 28.387 32.416 27.9662C32.5455 27.5452 32.9563 27.275 33.3942 27.3229C35.1832 27.5185 36.7116 27.2623 38.0303 26.2072L38.0326 26.2048C39.0143 25.4263 39.6621 24.3066 39.8514 23.0742L39.8861 22.8028C40.0122 21.5086 39.6174 20.2167 38.7884 19.2142C38.0005 18.2678 36.8889 17.6539 35.6757 17.4875L35.3888 17.4564C33.8665 17.3229 32.3809 17.8942 31.158 18.926L31.1556 18.9284C31.0225 19.0398 30.8915 19.1546 30.7646 19.2728C30.4502 19.5654 29.9747 19.6015 29.6203 19.3589C29.2659 19.1162 29.1277 18.6602 29.2866 18.2612C29.9093 16.6985 30.0669 15.3176 29.4505 13.8929C28.9266 12.6986 27.9518 11.7602 26.7384 11.2825Z" fill="#020101"/>
<path id="Vector_2" d="M27.3167 26.7834C27.47 26.8288 27.7397 26.9448 27.9036 27.0078C28.2271 27.131 28.551 27.2521 28.876 27.3713C29.5608 27.6225 30.2407 27.8867 30.9155 28.1635C32.2246 28.6955 33.4873 29.2331 34.5173 30.2294C35.5208 31.2006 36.1484 32.4951 36.1865 33.8945C36.2268 35.217 35.739 36.5014 34.8306 37.4636C32.584 39.8298 28.9626 39.4518 27.0854 36.8561C25.5706 34.7614 25.6721 32.0451 25.4539 29.5829C25.415 29.1433 25.3938 28.6476 25.3862 28.2087L25.8103 28.1208C26.0315 28.5595 26.2957 29.2731 26.4902 29.7433C26.8699 30.6694 27.2732 31.5856 27.6992 32.4912C27.887 32.8918 28.0798 33.3327 28.2932 33.7145L28.3096 33.7228C28.3328 33.464 26.3813 28.6899 26.1011 27.9833C26.2427 27.9199 26.2954 27.8984 26.4248 27.8046C26.562 28.0036 26.7314 28.2001 26.8765 28.3981C27.4224 29.1567 27.9788 29.9077 28.5457 30.6503C29.6013 32.0605 30.6099 33.4453 31.7373 34.8044C31.6511 34.6115 31.4111 34.2524 31.2927 34.07C30.9446 33.538 30.5872 33.0121 30.2205 32.4929C29.0613 30.8525 27.8794 29.2282 26.6753 27.6203L26.9185 27.3776C28.4165 28.632 30.2915 30.0451 31.8882 31.2036C31.7817 31.0441 31.3589 30.6677 31.2043 30.529C29.8892 29.3459 28.4741 28.2717 27.1091 27.145C27.1924 27.0156 27.2451 26.9194 27.3167 26.7834Z" fill="#E76F51"/>
<path id="Vector_3" d="M22.6143 26.7993C22.684 26.8139 22.8297 27.0729 22.8758 27.1452C21.6606 28.1777 20.3614 29.1498 19.1727 30.2206C18.8016 30.5546 18.423 30.8757 18.0742 31.2343C18.9795 30.6411 19.9333 29.8754 20.7895 29.2121C21.5683 28.6088 22.3252 28.0004 23.0759 27.362C23.1624 27.4528 23.251 27.5334 23.3429 27.6186C22.8327 28.3425 22.2407 29.0659 21.7229 29.7797C21.0113 30.7609 20.2747 31.7827 19.5855 32.7744C19.3176 33.1599 18.4784 34.4023 18.3061 34.798C19.7237 33.0956 20.9972 31.2187 22.3482 29.4616C22.7723 28.9098 23.1457 28.3608 23.5943 27.8181C23.7201 27.8867 23.7837 27.9196 23.9213 27.9721C23.7434 28.4413 23.5144 28.9199 23.3315 29.3893C22.7703 30.8303 22.1973 32.2536 21.7106 33.7214L21.7446 33.7202C21.9456 33.3588 22.1593 32.8415 22.3427 32.4594C23.0226 31.0432 23.5556 29.5324 24.1912 28.1042C24.3346 28.1452 24.487 28.1826 24.632 28.2204C24.5971 28.5517 24.6008 28.9169 24.571 29.256C24.391 31.3046 24.4323 33.6586 23.6462 35.5788C23.0766 36.9706 22.0079 38.1364 20.6055 38.6953C19.3983 39.1733 18.0507 39.153 16.8584 38.6389C15.6307 38.1032 14.6669 37.1008 14.1801 35.853C13.0859 33.0356 14.6526 30.2775 17.2278 29.0107C18.9868 28.1452 20.7864 27.4955 22.6143 26.7993Z" fill="#E76F51"/>
<path id="Vector_4" d="M14.9578 17.4382C15.2544 17.4322 15.551 17.4518 15.8442 17.4968C18.8077 17.9547 20.4573 20.6535 22.2583 22.7477C22.5544 23.092 22.8779 23.4888 23.1462 23.8522L22.8551 24.1501C22.5941 23.9174 21.797 23.4221 21.484 23.2239C20.5936 22.6602 19.6744 22.0958 18.7508 21.5876C18.4532 21.4239 17.9062 21.0816 17.6041 20.9706C19.3124 22.2109 20.9614 23.2235 22.7046 24.3952C22.6553 24.4885 22.6048 24.601 22.5585 24.6975C19.8342 23.8259 17.1045 22.7597 14.3241 22.0718C14.6602 22.2438 15.3242 22.4754 15.6959 22.6125C16.6077 22.9451 17.5218 23.2715 18.438 23.5919C19.7809 24.0531 21.1142 24.5518 22.4621 25.0092L22.3988 25.3561C21.9561 25.2861 21.3541 25.2392 20.9073 25.1989C20.1525 25.1298 19.3971 25.0666 18.6413 25.009C18.0786 24.9675 17.5184 24.9274 16.9547 24.904C16.6812 24.8925 16.4091 24.8537 16.1342 24.8625L16.1397 24.8774C16.5458 24.9892 17.3208 25.0649 17.766 25.1325C19.2885 25.3635 20.8681 25.4643 22.3899 25.6616C22.4039 25.8015 22.4262 25.9396 22.4474 26.0786C21.6859 26.258 20.925 26.4592 20.1607 26.6245C17.3267 27.237 14.138 28.1713 11.7176 25.9733C10.7394 25.0961 10.157 23.8611 10.1028 22.5483C10.0459 21.2476 10.5093 19.9777 11.3906 19.0194C12.3331 18.0064 13.5877 17.4912 14.9578 17.4382Z" fill="#E76F51"/>
<path id="Vector_5" d="M34.7136 17.4367C35.1951 17.4087 35.7017 17.4677 36.1692 17.5816C37.4438 17.889 38.5403 18.6984 39.2095 19.826C39.8948 20.9549 40.0598 22.2828 39.7466 23.5595C39.4246 24.8364 38.6052 25.9314 37.4712 26.6006C35.6343 27.6953 33.5898 27.3942 31.6045 27.0078C30.2488 26.7439 28.906 26.4035 27.5676 26.0651C27.5981 25.9162 27.6045 25.811 27.616 25.6596C29.186 25.4731 30.7893 25.3667 32.3594 25.1257C32.9268 25.0385 33.5059 24.9839 34.0654 24.854C33.5903 24.8401 32.6296 24.9299 32.1248 24.9638C30.6226 25.0681 29.1221 25.1943 27.6238 25.3425L27.5435 24.9865C28.7019 24.6297 30.0605 24.1484 31.1946 23.7384L33.9492 22.7579C34.3335 22.6211 35.3223 22.2819 35.6396 22.0944C35.1602 22.2235 34.677 22.35 34.1995 22.4857C31.9226 23.1329 29.7004 23.9701 27.447 24.6906L27.3008 24.4C27.7124 24.097 28.2249 23.7884 28.6572 23.504C29.8909 22.6926 31.2114 21.8944 32.3811 20.9903C31.9436 21.1896 31.5161 21.4479 31.0938 21.6784C29.7239 22.426 28.4385 23.32 27.1165 24.1301L26.8569 23.8545C27.7847 22.6975 28.731 21.49 29.7075 20.376C31.095 18.7935 32.512 17.5813 34.7136 17.4367Z" fill="#E76F51"/>
<path id="Vector_6" d="M24.8317 10.9675C25.8168 10.9298 26.8908 11.2328 27.7035 11.7918C28.7755 12.5196 29.5146 13.643 29.7589 14.9153C30.1835 17.2131 28.7924 19.4855 27.5839 21.331C27.1352 22.0214 26.6779 22.7062 26.2121 23.3853C26.0944 23.3188 25.9474 23.2505 25.8241 23.1896C26.2494 21.2892 26.8546 19.3581 27.1066 17.4187C26.8615 18.0714 26.6012 19.0739 26.4147 19.7544C26.1003 20.8669 25.8066 21.9853 25.5343 23.1088L25.1745 23.0593C25.1903 20.5713 25.1818 17.85 25.0263 15.382C25.0243 15.2778 25.0295 15.2378 24.997 15.1412C24.9508 15.2999 24.9291 16.4641 24.9223 16.6704C24.8576 18.7967 24.8351 20.924 24.8551 23.0511C24.7194 23.0621 24.6188 23.0774 24.4862 23.0994C24.3453 22.6598 24.2138 22.1187 24.0923 21.6655L23.4269 19.1979C23.2826 18.6649 23.0898 17.9171 22.8892 17.4128C23.0783 18.7075 23.3985 20.0379 23.705 21.3085C23.8551 21.9308 24.0325 22.5462 24.1732 23.1722L23.7993 23.3553C23.4618 22.9204 22.9778 22.1553 22.6717 21.6894C21.6161 20.0822 20.2973 18.0905 20.1864 16.1209C20.111 14.8095 20.5605 13.522 21.4358 12.5427C22.3331 11.5403 23.5017 11.0386 24.8317 10.9675Z" fill="#E76F51"/>
<path id="Vector_7" d="M24.9317 23.8081C25.9163 23.768 26.749 24.5291 26.7979 25.5134C26.8465 26.4975 26.0928 27.3371 25.1091 27.3945C24.113 27.4526 23.2606 26.6874 23.2112 25.6909C23.1619 24.6943 23.9346 23.8486 24.9317 23.8081Z" fill="#E9C46A"/>
</g>
<path id="Union" d="M24.2379 7.59563C25.5012 7.44301 27.0121 7.73755 27.984 8.12005C29.7853 8.82911 31.2765 10.1381 32.2115 11.8144L32.3902 12.1552L32.4 12.1757L32.5553 12.5068C32.5628 12.5228 32.5702 12.5401 32.5768 12.5566L32.5797 12.5624H32.5787C32.8221 13.1285 32.9909 13.6893 33.0973 14.2431C33.9287 14.0589 34.8026 13.9904 35.7037 14.0712C35.7071 14.0715 35.712 14.0719 35.7154 14.0722C37.6617 14.2383 39.4791 15.084 40.857 16.4462L41.1285 16.7255L41.1442 16.7441L41.3893 17.0243C41.3954 17.0313 41.4019 17.0387 41.4078 17.0458C42.8232 18.7565 43.4922 20.9646 43.2662 23.1728C43.0369 25.4111 41.9149 27.4628 40.1549 28.8622C39.6266 29.2849 39.0777 29.6227 38.5182 29.8935C38.8447 30.4779 39.1116 31.1146 39.3004 31.8056C39.873 33.9019 39.583 36.3213 38.4674 38.2324C37.3446 40.1776 35.4931 41.5965 33.3219 42.1738C33.3123 42.1763 33.3022 42.1784 33.2926 42.1806L33.2838 42.1825L33.2828 42.1816C30.2248 42.9668 27.0643 41.9361 25.0045 39.6786C24.4654 40.2621 23.8475 40.7837 23.152 41.2089C23.148 41.2113 23.1433 41.2125 23.1393 41.2148C21.242 42.3777 18.9583 42.736 16.7965 42.206V42.205L16.7721 42.2001C14.5926 41.6417 12.7275 40.2328 11.5924 38.2909L11.5865 38.2812L11.4928 38.1171L11.4879 38.1093C10.4269 36.1987 10.1507 33.9457 10.7242 31.831C10.9082 31.1409 11.18 30.4931 11.5162 29.8935C10.7939 29.5444 10.0979 29.0859 9.44103 28.495C9.43097 28.486 9.42234 28.4752 9.41271 28.4658C7.88022 27.0713 6.92603 25.1592 6.73009 23.1054C6.72941 23.0982 6.72865 23.0911 6.72814 23.0839L6.70177 22.7148C6.70121 22.7069 6.70017 22.6982 6.69982 22.6904C6.60132 20.5125 7.37127 18.384 8.84044 16.7734L8.85021 16.7636C10.3576 15.1287 12.4489 14.1518 14.6705 14.0468C14.6847 14.0461 14.6993 14.0458 14.7135 14.0458H14.7193C15.503 14.0151 16.2357 14.0852 16.9234 14.2353C17.598 10.7354 20.4703 7.98377 24.2193 7.59563C24.2252 7.59503 24.2321 7.59613 24.2379 7.59563ZM17.0006 41.3095C16.5153 41.1852 16.0467 41.0142 15.6022 40.7997C16.0466 41.0142 16.5144 41.1861 16.9996 41.3105C17.0046 41.3118 17.0102 41.3122 17.0152 41.3134C17.377 41.4021 17.7426 41.4627 18.109 41.496C17.7426 41.4627 17.3769 41.4021 17.0152 41.3134C17.0103 41.3122 17.0055 41.3107 17.0006 41.3095ZM32.8756 41.3359C32.8219 41.3482 32.7682 41.3599 32.7145 41.371C32.7682 41.3599 32.8219 41.3482 32.8756 41.3359ZM35.4322 40.2031C35.2784 40.3094 35.1192 40.4081 34.9576 40.5029C35.1192 40.4081 35.2784 40.3095 35.4322 40.2031ZM23.0152 40.2031C22.9036 40.2799 22.7896 40.3537 22.6734 40.4247C22.7896 40.3537 22.9036 40.2799 23.0152 40.2031ZM36.5563 39.2499C36.4703 39.3386 36.3827 39.4255 36.2926 39.5097C36.4725 39.3415 36.6442 39.1641 36.8072 38.9784L36.5563 39.2499ZM16.5475 39.5126C16.5729 39.5234 16.599 39.5325 16.6246 39.5429C16.5081 39.4955 16.3927 39.446 16.2799 39.3915L16.5475 39.5126ZM24.4606 38.914C24.3008 39.0952 24.1343 39.2707 23.9586 39.4374L24.2447 39.1523C24.3187 39.0747 24.3897 38.9943 24.4606 38.914ZM22.1705 38.8867C22.0686 38.9581 21.9644 39.0267 21.858 39.0917C21.7831 39.138 21.7071 39.1819 21.6305 39.2245C21.7072 39.1818 21.7839 39.1381 21.859 39.0917C22.0717 38.9616 22.2756 38.8181 22.4703 38.663L22.1705 38.8867ZM14.5172 38.0888C14.6194 38.1985 14.7237 38.3058 14.8336 38.4072C14.7237 38.3058 14.6194 38.1985 14.5172 38.0888ZM37.8727 37.4013C37.9157 37.3159 37.9571 37.2298 37.9967 37.1425C37.9571 37.2298 37.9157 37.3159 37.8727 37.4013ZM38.0582 37.0009C38.0903 36.9258 38.1224 36.8506 38.152 36.7743C38.1224 36.8506 38.0903 36.9258 38.0582 37.0009ZM38.1734 36.7167C38.2037 36.6366 38.2319 36.5558 38.2594 36.4745C38.2319 36.5558 38.2037 36.6366 38.1734 36.7167ZM38.3131 36.3095C38.3336 36.244 38.3539 36.1784 38.3727 36.1122C38.3539 36.1784 38.3336 36.244 38.3131 36.3095ZM38.4215 35.9296C38.4353 35.876 38.4489 35.8224 38.4615 35.7685C38.4489 35.8224 38.4353 35.876 38.4215 35.9296ZM38.5016 35.5839C38.512 35.5338 38.5224 35.4838 38.5318 35.4335C38.5224 35.4838 38.512 35.5338 38.5016 35.5839ZM38.5729 35.1952C38.5785 35.1592 38.5834 35.123 38.5885 35.0868C38.5834 35.123 38.5785 35.1592 38.5729 35.1952ZM38.6149 34.8818C38.6221 34.819 38.6287 34.7562 38.6344 34.6933C38.6287 34.7562 38.6221 34.819 38.6149 34.8818ZM37.0699 34.6484C37.0675 34.6716 37.0629 34.6945 37.0602 34.7177C37.0591 34.7268 37.0593 34.736 37.0582 34.745C37.0621 34.7128 37.0675 34.6807 37.0709 34.6484H37.0699ZM38.649 34.5058C38.652 34.4612 38.6547 34.4166 38.6568 34.372C38.6546 34.4166 38.652 34.4612 38.649 34.5058ZM38.6647 34.1552C38.6659 34.0959 38.6657 34.0367 38.6656 33.9775C38.6657 34.0367 38.6659 34.0959 38.6647 34.1552ZM11.61 32.0712C11.4824 32.5418 11.4028 33.0207 11.3688 33.4999C11.3555 33.6874 11.3513 33.875 11.3522 34.0624C11.3492 33.3961 11.4334 32.7268 11.6109 32.0722C11.643 31.9518 11.6776 31.8324 11.7154 31.7148V31.7138C11.6775 31.8316 11.642 31.9507 11.61 32.0712ZM38.6647 33.8173C38.6628 33.7342 38.6594 33.6512 38.6549 33.5683C38.6594 33.6512 38.6628 33.7342 38.6647 33.8173ZM38.6481 33.4531C38.6441 33.3956 38.6387 33.3384 38.6334 33.2812C38.6387 33.3384 38.6441 33.3956 38.6481 33.4531ZM37.0328 33.0585C37.0453 33.1379 37.0568 33.2176 37.066 33.2978C37.0568 33.2176 37.0453 33.1379 37.0328 33.0585ZM12.1315 30.6923C12.0232 30.9107 11.9247 31.135 11.8375 31.3652L11.9772 31.0243C12.0261 30.9122 12.0774 30.8014 12.1315 30.6923ZM12.484 30.0566V30.0575V30.0566ZM34.9234 29.3574L34.9244 29.3564L34.9234 29.3574ZM37.4567 29.3515V29.3525V29.3515ZM12.5533 29.3417C12.6232 29.3679 12.694 29.3909 12.7643 29.415C12.6939 29.3909 12.6232 29.3679 12.5533 29.3417ZM12.2096 29.2031C12.2633 29.2262 12.3176 29.2476 12.3717 29.2695C12.3176 29.2476 12.2633 29.2262 12.2096 29.2031ZM11.859 29.04C11.9183 29.0692 11.978 29.0974 12.0377 29.1249C11.978 29.0974 11.9183 29.0693 11.859 29.04ZM11.5201 28.8622C11.5768 28.8938 11.6339 28.9241 11.691 28.954C11.634 28.9241 11.5768 28.8939 11.5201 28.8622ZM11.15 28.6415C11.2236 28.6882 11.2974 28.7336 11.3717 28.7773C11.2974 28.7336 11.2236 28.6882 11.15 28.6415ZM10.7994 28.4062C10.8811 28.4643 10.9629 28.5209 11.0455 28.5751C10.9629 28.5209 10.8811 28.4643 10.7994 28.4062ZM33.5299 28.3671V28.3661V28.3671ZM10.4215 28.122C10.5184 28.1998 10.6161 28.2747 10.7145 28.3466C10.6161 28.2747 10.5184 28.1998 10.4215 28.122ZM16.2838 28.2743L15.9918 28.29C16.0884 28.2859 16.186 28.2823 16.2838 28.2753V28.2743ZM40.3326 27.455C40.3428 27.4443 40.3528 27.4335 40.3629 27.4228C40.3528 27.4335 40.3428 27.4443 40.3326 27.455ZM40.5475 27.2177C40.5633 27.1997 40.5797 27.1822 40.5953 27.164C40.5797 27.1822 40.5633 27.1997 40.5475 27.2177ZM40.7535 26.9726C40.785 26.9333 40.8166 26.8943 40.8473 26.8544C40.8166 26.8943 40.785 26.9333 40.7535 26.9726ZM40.9488 26.7187C40.9859 26.6683 41.0225 26.6176 41.0582 26.5663C41.0225 26.6176 40.9859 26.6683 40.9488 26.7187ZM41.1735 26.3954C41.1954 26.3619 41.2165 26.3278 41.2379 26.2939C41.2165 26.3278 41.1954 26.3619 41.1735 26.3954ZM41.3492 26.1132C41.378 26.0647 41.4065 26.0159 41.4342 25.9667C41.4065 26.0159 41.378 26.0646 41.3492 26.1132ZM41.5299 25.7919C41.5487 25.7564 41.5664 25.7203 41.5846 25.6845C41.5664 25.7203 41.5487 25.7564 41.5299 25.7919ZM41.6813 25.4882C41.7061 25.4355 41.7299 25.3823 41.7535 25.329C41.7299 25.3823 41.7061 25.4355 41.6813 25.4882ZM41.8209 25.1738C41.8479 25.1087 41.8738 25.0433 41.899 24.9775C41.8738 25.0433 41.8479 25.1087 41.8209 25.1738ZM41.9498 24.8408C41.9688 24.788 41.9867 24.7348 42.0045 24.6816C41.9867 24.7348 41.9688 24.788 41.9498 24.8408ZM42.069 24.4843C42.0867 24.4261 42.1025 24.3673 42.1188 24.3085C42.1025 24.3673 42.0867 24.4261 42.069 24.4843ZM40.5065 24.2333C40.4978 24.2584 40.49 24.2836 40.4811 24.3085C40.4965 24.2657 40.5116 24.2228 40.526 24.1796C40.52 24.1977 40.5127 24.2153 40.5065 24.2333ZM7.68419 23.3613C7.70499 23.5069 7.73202 23.6513 7.76134 23.7949C7.70917 23.5392 7.66912 23.2803 7.64415 23.0185L7.68419 23.3613ZM40.7604 23.2138C40.7457 23.309 40.7278 23.404 40.7086 23.498C40.7279 23.4038 40.7457 23.3092 40.7604 23.2138ZM40.6998 17.6318C40.9357 17.9169 41.1491 18.217 41.3375 18.5302C41.1491 18.2168 40.9358 17.916 40.6998 17.6308V17.6318ZM39.9615 16.8622C40.1321 17.0159 40.2961 17.1785 40.4527 17.3486L40.2125 17.0995C40.1305 17.0185 40.047 16.9392 39.9615 16.8622ZM30.6256 17.0204C30.6471 16.9153 30.6666 16.8102 30.6832 16.705C30.6666 16.8102 30.6471 16.9152 30.6256 17.0204ZM37.8746 17.2773C37.8843 17.2827 37.8943 17.2874 37.9039 17.2929C37.8943 17.2874 37.8843 17.2827 37.8746 17.2773ZM37.0152 16.8808C37.0528 16.8945 37.0903 16.9083 37.1276 16.9228C37.1327 16.9248 37.138 16.9266 37.1432 16.9286C37.0815 16.9044 37.0192 16.8815 36.9567 16.8593C36.9763 16.8663 36.9957 16.8736 37.0152 16.8808ZM36.7682 16.7968C36.7486 16.7906 36.7292 16.7842 36.7096 16.7783C36.7292 16.7842 36.7486 16.7906 36.7682 16.7968ZM10.9244 16.1982C11.3319 15.93 11.764 15.7018 12.2145 15.5175C11.764 15.7019 11.3319 15.93 10.9244 16.1982ZM16.2916 15.0497C16.6633 15.1079 17.0199 15.1924 17.3629 15.2997L17.7018 15.414C17.2563 15.2511 16.7873 15.1274 16.2916 15.0497ZM14.3434 14.9911C14.098 15.0149 13.855 15.0513 13.6149 15.0986C13.9752 15.0277 14.3423 14.9823 14.7135 14.9648L14.3434 14.9911ZM31.2399 11.9755C31.3578 12.1664 31.4681 12.3632 31.569 12.5654L31.7242 12.8974V12.8964L31.569 12.5644C31.4682 12.3624 31.3578 12.1662 31.2399 11.9755ZM31.2272 11.956C31.1737 11.8702 31.1189 11.7854 31.0621 11.7021C31.1189 11.7854 31.1737 11.8702 31.2272 11.956ZM31.0045 11.62C30.9596 11.556 30.9146 11.4921 30.8678 11.4296C30.9146 11.4921 30.9596 11.556 31.0045 11.62ZM30.8072 11.3515C30.7607 11.291 30.714 11.2307 30.6656 11.1718C30.714 11.2307 30.7607 11.291 30.8072 11.3515ZM30.5943 11.0878C30.5487 11.0339 30.5028 10.9803 30.4557 10.9277C30.5028 10.9803 30.5487 11.0339 30.5943 11.0878ZM30.36 10.8232C30.3148 10.7746 30.2688 10.7269 30.2223 10.6796C30.2687 10.7269 30.3148 10.7746 30.36 10.8232ZM30.1529 10.6093C30.0959 10.5527 30.038 10.497 29.9791 10.4423C30.038 10.497 30.0959 10.5527 30.1529 10.6093ZM29.8854 10.3574C29.84 10.3167 29.794 10.2768 29.7477 10.2372C29.794 10.2768 29.84 10.3167 29.8854 10.3574ZM29.6402 10.1464C29.5916 10.1064 29.5425 10.067 29.4928 10.0283C29.5425 10.067 29.5916 10.1064 29.6402 10.1464ZM29.3922 9.9511C29.3321 9.90585 29.2711 9.86173 29.2096 9.81829C29.2711 9.86175 29.3321 9.90584 29.3922 9.9511ZM29.1256 9.75872C29.0665 9.71821 29.0062 9.67939 28.9459 9.64056C29.0062 9.6794 29.0665 9.7182 29.1256 9.75872ZM28.8385 9.5722C28.7901 9.54222 28.7411 9.5132 28.692 9.48431C28.7411 9.51321 28.7901 9.54221 28.8385 9.5722ZM26.941 8.74505C27.1982 8.81363 27.4378 8.89082 27.6481 8.97356C27.772 9.02236 27.8937 9.07569 28.0143 9.13079C27.9979 9.12329 27.9819 9.11474 27.9654 9.10735L27.6481 8.97356C27.4378 8.8908 27.1983 8.81364 26.941 8.74505ZM26.777 8.70501C26.6942 8.68481 26.6105 8.66351 26.525 8.64544C26.6105 8.66351 26.6942 8.6848 26.777 8.70501ZM24.9332 8.47161C24.7933 8.47213 24.6554 8.47726 24.5211 8.48821L24.3141 8.5097C24.0833 8.53358 23.8562 8.56683 23.6334 8.61028C23.8564 8.56679 24.0841 8.53359 24.3151 8.5097L24.5211 8.48821C24.6554 8.47726 24.7933 8.47213 24.9332 8.47161ZM26.3707 8.61614C26.2849 8.59966 26.1984 8.58325 26.1109 8.56927C26.1984 8.58326 26.2849 8.59965 26.3707 8.61614ZM25.9332 8.54388C25.8478 8.53211 25.7622 8.52067 25.6764 8.51165C25.7622 8.52067 25.8478 8.5321 25.9332 8.54388ZM25.5065 8.497C25.4213 8.48998 25.3363 8.48335 25.2516 8.47942C25.3363 8.48335 25.4213 8.48998 25.5065 8.497Z" fill="white" fill-opacity="0.3"/>
</g>
</g>
</g>
</svg>
