<svg width="50" height="50" viewBox="0 0 50 50" fill="none" xmlns="http://www.w3.org/2000/svg">
<rect width="50" height="50" fill="#BEBEBE"/>
<g id="Decorate Mode">
<path d="M-296.703 -891.034V-890.034H2723.3V-891.034V-892.034H-296.703V-891.034ZM2725.3 -889.034H2724.3V2648.97H2725.3H2726.3V-889.034H2725.3ZM2723.3 2650.97V2649.97H-296.703V2650.97V2651.97H2723.3V2650.97ZM-298.703 2648.97H-297.703V-889.034H-298.703H-299.703V2648.97H-298.703ZM-296.703 2650.97V2649.97C-297.255 2649.97 -297.703 2649.52 -297.703 2648.97H-298.703H-299.703C-299.703 2650.62 -298.36 2651.97 -296.703 2651.97V2650.97ZM2725.3 2648.97H2724.3C2724.3 2649.52 2723.85 2649.97 2723.3 2649.97V2650.97V2651.97C2724.95 2651.97 2726.3 2650.62 2726.3 2648.97H2725.3ZM2723.3 -891.034V-890.034C2723.85 -890.034 2724.3 -889.587 2724.3 -889.034H2725.3H2726.3C2726.3 -890.691 2724.95 -892.034 2723.3 -892.034V-891.034ZM-296.703 -891.034V-892.034C-298.359 -892.034 -299.703 -890.691 -299.703 -889.034H-298.703H-297.703C-297.703 -889.587 -297.255 -890.034 -296.703 -890.034V-891.034Z" fill="black" fill-opacity="0.1"/>
<g id="Stickers">
<rect x="-244.694" y="-18.5342" width="374" height="551" rx="4.5" stroke="#9747FF" stroke-dasharray="10 5"/>
<g id="Property 1=mushroom">
<g id="Frame 112">
<g id="Vector">
<path d="M25.6679 9.21603C26.1263 9.16814 26.6892 9.22343 27.2281 9.33816C27.769 9.45334 28.3028 9.63167 28.701 9.84073L28.7041 9.84256L28.7077 9.84439C30.0376 10.6109 31.3006 11.618 32.4572 12.6443C32.9815 13.1096 33.6087 13.5847 34.2696 14.0878C34.9279 14.589 35.6174 15.1166 36.2549 15.681C37.525 16.8057 38.6227 18.1054 38.852 19.687C38.9394 20.2899 38.8143 20.7938 38.543 21.2093C38.2746 21.6203 37.8713 21.9327 37.4206 22.1742C36.5229 22.655 35.3853 22.8803 34.5829 23.0224C33.7072 23.1774 32.6635 23.3405 31.7445 23.4126C31.231 23.4527 30.7166 23.4858 30.202 23.5115H30.2002C29.8362 23.5265 29.4776 23.5304 29.1254 23.55C29.2758 23.948 29.4715 24.3966 29.6762 24.7444L29.8912 25.0937C30.0102 25.3012 30.1047 25.5105 30.166 25.7135C30.2472 25.9825 30.274 26.254 30.2081 26.4976C30.1402 26.7488 29.9773 26.9535 29.7166 27.0838C29.5168 27.1836 29.2651 27.237 28.9618 27.2438C29.1891 28.1932 29.456 28.9414 29.7648 29.9222L29.8057 30.0541C30.1567 31.2014 30.3992 32.441 30.4603 33.6588C30.7018 33.2691 31.0108 32.8081 31.3354 32.3733C31.596 32.0243 31.8697 31.6881 32.1305 31.4177C32.3858 31.1529 32.6481 30.9305 32.8853 30.8351L32.9097 30.8253C33.1645 30.7275 33.4025 30.7084 33.5991 30.8149C33.8014 30.9247 33.8998 31.135 33.9448 31.3535C34.0338 31.7869 33.9478 32.4185 33.8067 33.0499C33.623 33.8722 33.3304 34.7551 33.121 35.3387C33.2762 35.2285 33.4348 35.1223 33.593 35.0272C34.5742 34.4382 35.266 34.1386 35.7242 34.0746C35.9534 34.0427 36.1636 34.0642 36.3178 34.1821C36.4789 34.3055 36.5291 34.4943 36.5254 34.6792C36.5217 34.8628 36.4661 35.0722 36.3807 35.2898C36.2943 35.5099 36.1728 35.7508 36.0271 36.0006C35.8274 36.343 35.5789 36.708 35.3053 37.0681C35.8157 36.93 36.5055 36.7749 37.0689 36.7432C37.2834 36.7311 37.4903 36.7362 37.6661 36.7713C37.8371 36.8054 38.012 36.8742 38.121 37.018C38.2389 37.1733 38.2449 37.367 38.1791 37.5651C38.1148 37.7585 37.9761 37.9799 37.7644 38.2338C37.2562 38.8435 36.569 39.3219 35.8824 39.7214L37.0145 39.7232C37.3149 39.722 37.7473 39.6953 38.0722 39.7379C38.2066 39.7556 38.3258 39.8027 38.4142 39.8862C38.5052 39.9723 38.5487 40.084 38.5516 40.1977C38.5569 40.4137 38.4197 40.6193 38.2365 40.7509L38.1907 40.7839L38.1345 40.7876C37.7009 40.8149 36.963 40.79 36.5321 40.7888L12.8911 40.79C12.6933 40.7906 12.4958 40.7925 12.2975 40.7943C12.0993 40.7961 11.8999 40.7973 11.6997 40.798C11.5382 40.7984 11.3811 40.7474 11.268 40.6325C11.1521 40.5148 11.1041 40.3527 11.1238 40.1781C11.1397 40.0378 11.2296 39.9261 11.3162 39.8563C11.4037 39.7858 11.5247 39.728 11.6508 39.7275L11.8316 39.7269C12.2539 39.726 12.6779 39.7289 13.0981 39.7293C14.0096 39.7367 14.9224 39.7362 15.8338 39.7287C15.4823 39.5263 15.0572 39.262 14.6815 38.9788C14.3285 38.7127 13.9972 38.414 13.8217 38.1208C13.7333 37.9731 13.6719 37.8066 13.688 37.6348C13.705 37.4537 13.8042 37.3014 13.9658 37.1853C14.1444 37.0571 14.4144 37.0205 14.6809 37.0168C14.9594 37.0129 15.2825 37.0458 15.6048 37.0943C15.984 37.1514 16.3712 37.2319 16.6979 37.3074C16.3937 36.9177 15.9888 36.3564 15.6995 35.8266C15.585 35.6169 15.486 35.4071 15.4186 35.2117C15.3523 35.0193 15.3102 34.8244 15.3264 34.6499C15.3435 34.4656 15.4277 34.2955 15.6103 34.1955C15.7785 34.1035 16 34.0885 16.2583 34.1253C16.7095 34.1897 17.3209 34.48 17.882 34.8123C18.1904 34.9949 18.493 35.1965 18.7583 35.3912C18.6141 34.992 18.4779 34.5775 18.3803 34.1876L18.3473 34.0526C18.2601 33.6912 18.1086 33.0131 18.0298 32.3532C17.9848 31.9771 17.9624 31.5968 17.9919 31.2809C18.0067 31.1229 18.0352 30.9724 18.0853 30.8436C18.1351 30.716 18.2119 30.5946 18.3327 30.5163L18.3473 30.5072C18.4968 30.415 18.678 30.3883 18.8481 30.4339C19.1291 30.508 19.4237 30.753 19.6993 31.0452C19.9831 31.346 20.2764 31.7293 20.5524 32.1254C20.9244 32.6594 21.2707 33.226 21.5282 33.6637C21.6356 32.801 21.8246 32.0157 22.0351 31.2424C22.2952 30.2869 22.585 29.3608 22.8051 28.3119C22.8676 28.0141 22.9494 27.5915 22.9926 27.2518C22.9345 27.2552 22.8746 27.257 22.8149 27.256C22.6664 27.2535 22.5046 27.2351 22.3661 27.1821C22.0044 27.0441 21.7757 26.8363 21.6748 26.5654C21.577 26.3028 21.6144 26.02 21.6962 25.7605C21.7785 25.4995 21.9146 25.2354 22.0455 24.9972C22.1806 24.7511 22.3057 24.5397 22.388 24.3579C22.5239 24.0579 22.6281 23.8245 22.7263 23.5646C21.5971 23.5242 19.8907 23.4319 18.2423 23.1994C17.3501 23.0736 16.4704 22.9064 15.7062 22.6822C14.9461 22.4593 14.2812 22.1745 13.8345 21.8053C13.3392 21.3958 13.0537 20.8754 12.9998 20.228C12.8957 18.9755 13.5395 17.864 14.2925 16.9872C15.5831 15.4847 17.7108 14.0264 19.2602 12.8152C20.4624 11.8755 21.84 10.6168 23.2307 9.89447C23.9962 9.49688 24.8148 9.28094 25.6679 9.21603ZM12.8911 40.5946L36.5327 40.5934L15.4668 40.5922L12.8911 40.5946ZM11.6765 40.6025H11.6991C11.6767 40.6026 11.6553 40.5995 11.6343 40.597C11.6482 40.5987 11.662 40.602 11.6765 40.6025ZM37.9702 40.597C38.0088 40.5957 38.046 40.5965 38.0814 40.5946L38.1223 40.5928C38.075 40.5958 38.024 40.5952 37.9702 40.597ZM11.4365 40.0102C11.4044 40.0364 11.3761 40.067 11.3553 40.1L11.3315 40.1476C11.3512 40.0967 11.3895 40.0486 11.4365 40.0102ZM15.9486 39.5681C16.2514 39.7418 16.4953 39.8684 16.5972 39.9162L16.3224 39.7763C16.2156 39.7195 16.0887 39.6484 15.9486 39.5681ZM11.6136 39.9272C11.6265 39.925 11.639 39.9229 11.6514 39.9229H11.6386C11.6303 39.9234 11.622 39.9258 11.6136 39.9272ZM37.5214 38.2143C37.5421 38.1911 37.5635 38.1683 37.5837 38.1446L37.6142 38.1086L37.5214 38.2143ZM14.0574 37.3612C14.0541 37.3638 14.0509 37.3671 14.0477 37.3697C14.058 37.3613 14.0686 37.3523 14.08 37.3441L14.0574 37.3612ZM21.7432 33.5336C21.7096 33.7785 21.6823 34.0293 21.6632 34.2877L21.6998 33.8847C21.7126 33.7662 21.7273 33.6493 21.7432 33.5336ZM32.9396 31.0238C32.9262 31.0296 32.9125 31.0365 32.8987 31.0433C32.9188 31.0333 32.9386 31.0243 32.9579 31.0165L32.9396 31.0238ZM18.4261 30.6891C18.418 30.695 18.4106 30.702 18.4029 30.7087C18.4148 30.6983 18.4271 30.6884 18.4401 30.68L18.4261 30.6891ZM18.8487 30.6397C18.8385 30.6361 18.8288 30.6317 18.8187 30.6287L18.7974 30.6226C18.8143 30.627 18.8313 30.6336 18.8487 30.6397ZM29.6701 30.291C29.6526 30.2311 29.637 30.1708 29.6188 30.1115L29.5785 29.9808L29.6701 30.291ZM28.8586 27.049L28.8604 27.0484L28.7151 27.0441L28.8586 27.049ZM29.6701 25.1077C29.6573 25.0867 29.6457 25.0647 29.6323 25.0436L29.6005 24.9942L29.6701 25.1077ZM22.5657 24.4385L22.5572 24.4562C22.56 24.4502 22.563 24.4444 22.5657 24.4385ZM29.573 23.3362C29.7243 23.3315 29.8755 23.3278 30.0255 23.3228L30.1196 23.3185C29.9389 23.3253 29.7559 23.3305 29.573 23.3362ZM31.1644 23.2581C31.2887 23.2496 31.4133 23.2417 31.5375 23.2324L31.7293 23.2178C31.5411 23.2325 31.3528 23.2453 31.1644 23.2581ZM34.5487 22.83C34.4541 22.8467 34.3573 22.8621 34.2592 22.8789C34.3006 22.8718 34.3418 22.8658 34.3826 22.8587L34.5487 22.83ZM38.6712 19.8402C38.669 19.8161 38.6688 19.7915 38.6658 19.7669L38.659 19.715C38.6652 19.7573 38.6674 19.7992 38.6712 19.8402ZM14.4409 17.1143L14.3719 17.1961C14.3638 17.2058 14.3556 17.2156 14.3475 17.2254C14.3784 17.1881 14.4095 17.1508 14.4409 17.1143ZM23.257 10.1015C23.2173 10.1226 23.1776 10.1449 23.1379 10.1668C23.199 10.1331 23.26 10.0996 23.3211 10.0679L23.257 10.1015ZM28.8091 10.1314C28.7837 10.1162 28.7583 10.1006 28.7328 10.0856L28.61 10.0142C28.6766 10.0525 28.7429 10.0918 28.8091 10.1314ZM37.1434 22.096L37.1629 22.0862C37.1147 22.1096 37.0657 22.1319 37.0164 22.154C37.059 22.1349 37.1016 22.1161 37.1434 22.096Z" fill="#020101"/>
<path d="M25.5493 7.6578C26.2164 7.59485 26.9369 7.67738 27.5535 7.80863C28.1114 7.92742 28.7002 8.10968 29.2127 8.34967L29.4276 8.45654L29.4551 8.4718C29.4661 8.47777 29.4773 8.48328 29.4881 8.48951C30.9497 9.33192 32.3034 10.4174 33.4946 11.4744C33.9654 11.8922 34.5402 12.3285 35.2166 12.8435C35.8702 13.341 36.604 13.9022 37.291 14.5106C38.6209 15.6882 40.0865 17.3052 40.3993 19.4624C40.5393 20.4282 40.339 21.3182 39.8521 22.0638C39.3921 22.7681 38.7477 23.2365 38.1588 23.552C37.0141 24.1651 35.6439 24.4217 34.8551 24.5614C33.9648 24.719 32.862 24.8924 31.8666 24.9705C31.7679 24.9782 31.6685 24.9841 31.5698 24.9913C31.6036 25.0798 31.6349 25.17 31.6626 25.2618C31.7935 25.6957 31.8854 26.2831 31.717 26.9057C31.5752 27.4298 31.2743 27.8763 30.8559 28.2033L31.2559 29.4521L31.2578 29.4588L31.2987 29.5907L31.3005 29.5962C31.3364 29.7137 31.3698 29.8328 31.4037 29.9523C31.6512 29.7398 31.9564 29.5234 32.302 29.3843L32.3044 29.3831L32.3288 29.3734C32.3355 29.3707 32.3424 29.3686 32.349 29.366C32.8016 29.1922 33.5711 29.0215 34.344 29.4405C35.0372 29.8167 35.3189 30.4417 35.4353 30.8689L35.4762 31.0386L35.503 31.1888C35.5699 31.6274 35.5448 32.097 35.4878 32.5292C35.4945 32.5282 35.5012 32.5271 35.5079 32.5262L35.6716 32.5079C36.0555 32.4758 36.6186 32.506 37.1463 32.8541L37.2672 32.9402L37.2684 32.9408C37.9747 33.4819 38.0977 34.254 38.0886 34.7105C38.0848 34.8991 38.0587 35.0803 38.0226 35.2491C38.3268 35.3155 38.8616 35.4836 39.28 35.966L39.3667 36.0729L39.4595 36.2054C39.8893 36.8709 39.8181 37.5882 39.6622 38.0575C39.591 38.2717 39.4916 38.4716 39.3807 38.6559C39.4169 38.6857 39.453 38.7167 39.4882 38.75C39.8533 39.0955 40.0491 39.5357 40.1007 39.9719L40.1141 40.1582C40.1363 41.0564 39.5963 41.6972 39.1493 42.0188L39.1041 42.0524C38.8662 42.2237 38.585 42.3246 38.2925 42.3437L38.2363 42.3474H38.2327C37.7323 42.3789 36.8575 42.3526 36.5277 42.3516L12.8953 42.3522C12.7032 42.3528 12.5117 42.3554 12.3115 42.3571C12.1107 42.3589 11.9082 42.3602 11.7045 42.3608C11.2244 42.3621 10.6265 42.2086 10.1541 41.7288C9.65978 41.2267 9.50566 40.5733 9.57029 40.0018C9.64971 39.3009 10.0714 38.8518 10.3354 38.6388C10.6118 38.4162 11.0659 38.1661 11.6447 38.1638L11.8261 38.1631H11.8285C11.9425 38.1629 12.0582 38.1636 12.1741 38.1638C12.1298 37.9614 12.1084 37.7348 12.1314 37.489C12.1986 36.7726 12.601 36.2407 13.0541 35.9153L13.1683 35.839C13.4065 35.6902 13.6554 35.5986 13.8852 35.5428C13.806 35.2721 13.7325 34.9074 13.7698 34.5053C13.8239 33.923 14.1255 33.2261 14.8598 32.8242L14.9728 32.7662C15.5394 32.4975 16.1109 32.5251 16.4786 32.5775H16.4823L16.4774 32.5384C16.4275 32.1201 16.3907 31.6128 16.4353 31.1351C16.4576 30.8965 16.5068 30.5886 16.6289 30.2753C16.7474 29.9714 16.9894 29.5236 17.482 29.2042C17.4892 29.1995 17.4966 29.1948 17.5039 29.1902L17.5186 29.181C17.5212 29.1794 17.5239 29.1777 17.5265 29.1761C18.04 28.8595 18.6617 28.7673 19.2461 28.9221C19.9462 29.1067 20.4804 29.6023 20.7826 29.9162C20.9333 29.3828 21.0738 28.8768 21.199 28.3322C20.8199 28.0828 20.4827 27.7337 20.2702 27.2587L20.2098 27.1109C19.9365 26.377 20.0778 25.6955 20.2055 25.2905C20.2377 25.1883 20.2738 25.0881 20.3123 24.9919C19.581 24.9339 18.7984 24.8562 18.0242 24.747C17.0912 24.6155 16.1301 24.4354 15.2665 24.1822C14.4395 23.9396 13.5308 23.5824 12.8385 23.0103C12.0347 22.3458 11.5325 21.4443 11.4419 20.3576C11.2861 18.4813 12.2551 16.9596 13.1066 15.9682C14.5314 14.3093 16.887 12.6854 18.2972 11.5831C19.3479 10.7618 20.9483 9.31783 22.5101 8.50661L22.6927 8.41501C23.5946 7.97703 24.5429 7.74022 25.5054 7.66207C25.5151 7.66106 25.5249 7.65997 25.5347 7.65902C25.5396 7.65864 25.5445 7.65817 25.5493 7.6578ZM27.2281 9.33816C26.6892 9.22343 26.1263 9.16814 25.6679 9.21603C24.8148 9.28094 23.9962 9.49688 23.2307 9.89447C21.84 10.6168 20.4624 11.8755 19.2602 12.8152C17.7108 14.0264 15.5831 15.4847 14.2925 16.9872C13.5395 17.864 12.8957 18.9755 12.9998 20.228C13.0537 20.8754 13.3392 21.3958 13.8345 21.8053C14.2812 22.1745 14.9461 22.4593 15.7062 22.6822C16.4704 22.9064 17.3501 23.0736 18.2423 23.1994C19.8907 23.4319 21.5971 23.5242 22.7263 23.5646C22.6281 23.8245 22.5239 24.0579 22.388 24.3579C22.3057 24.5397 22.1806 24.7511 22.0455 24.9972C21.9146 25.2354 21.7785 25.4995 21.6962 25.7605C21.6144 26.02 21.577 26.3028 21.6748 26.5654C21.7757 26.8363 22.0044 27.0441 22.3661 27.1821C22.5046 27.2351 22.6664 27.2535 22.8149 27.256C22.8746 27.257 22.9345 27.2552 22.9926 27.2518C22.9494 27.5915 22.8676 28.0141 22.8051 28.3119C22.585 29.3608 22.2952 30.2869 22.0351 31.2424C21.8246 32.0157 21.6356 32.801 21.5282 33.6637C21.2707 33.226 20.9244 32.6594 20.5524 32.1254C20.2764 31.7293 19.9831 31.346 19.6993 31.0452C19.4237 30.753 19.1291 30.508 18.8481 30.4339C18.678 30.3883 18.4968 30.415 18.3473 30.5072L18.3327 30.5163C18.2119 30.5946 18.1351 30.716 18.0853 30.8436C18.0352 30.9724 18.0067 31.1229 17.9919 31.2809C17.9624 31.5968 17.9848 31.9771 18.0298 32.3532C18.1086 33.0131 18.2601 33.6912 18.3473 34.0526L18.3803 34.1876C18.4779 34.5775 18.6141 34.992 18.7583 35.3912C18.493 35.1965 18.1904 34.9949 17.882 34.8123C17.3209 34.48 16.7095 34.1897 16.2583 34.1253C16 34.0885 15.7785 34.1035 15.6103 34.1955C15.4277 34.2955 15.3435 34.4656 15.3264 34.6499C15.3102 34.8244 15.3523 35.0193 15.4186 35.2117C15.486 35.4071 15.585 35.6169 15.6995 35.8266C15.9888 36.3564 16.3937 36.9177 16.6979 37.3074C16.3712 37.2319 15.984 37.1514 15.6048 37.0943C15.2825 37.0458 14.9594 37.0129 14.6809 37.0168C14.4144 37.0205 14.1444 37.0571 13.9658 37.1853C13.8042 37.3014 13.705 37.4537 13.688 37.6348C13.6719 37.8066 13.7333 37.9731 13.8217 38.1208C13.9972 38.414 14.3285 38.7127 14.6815 38.9788C15.0572 39.262 15.4823 39.5263 15.8338 39.7287C14.9224 39.7362 14.0107 39.7363 13.0993 39.7289C12.6791 39.7284 12.2538 39.726 11.8316 39.7269L11.6508 39.7275C11.5247 39.728 11.4037 39.7858 11.3162 39.8563C11.2296 39.9261 11.1397 40.0378 11.1238 40.1781C11.1041 40.3527 11.1521 40.5148 11.268 40.6325C11.3811 40.7474 11.5382 40.7984 11.6997 40.798C11.8999 40.7973 12.0993 40.7961 12.2975 40.7943C12.4958 40.7925 12.6933 40.7906 12.8911 40.79L36.5321 40.7888C36.963 40.79 37.7009 40.8149 38.1345 40.7876L38.1907 40.7839L38.2365 40.7509C38.4197 40.6193 38.5569 40.4137 38.5516 40.1977C38.5487 40.084 38.5052 39.9723 38.4142 39.8862C38.3258 39.8027 38.2066 39.7556 38.0722 39.7379C37.7473 39.6953 37.3149 39.722 37.0145 39.7232L35.8824 39.7214C36.569 39.3219 37.2562 38.8435 37.7644 38.2338C37.9761 37.9799 38.1148 37.7585 38.1791 37.5651C38.2449 37.367 38.2389 37.1733 38.121 37.018C38.012 36.8742 37.8371 36.8054 37.6661 36.7713C37.4903 36.7362 37.2834 36.7311 37.0689 36.7432C36.5055 36.7749 35.8157 36.93 35.3053 37.0681C35.5789 36.708 35.8274 36.343 36.0271 36.0006C36.1728 35.7508 36.2943 35.5099 36.3807 35.2898C36.4661 35.0722 36.5217 34.8628 36.5254 34.6792C36.5291 34.4943 36.4789 34.3055 36.3178 34.1821C36.1636 34.0642 35.9534 34.0427 35.7242 34.0746C35.266 34.1386 34.5742 34.4382 33.593 35.0272C33.4348 35.1223 33.2762 35.2285 33.121 35.3387C33.3304 34.7551 33.623 33.8722 33.8067 33.0499C33.9478 32.4185 34.0338 31.7869 33.9448 31.3535C33.8998 31.135 33.8014 30.9247 33.5991 30.8149C33.4025 30.7084 33.1645 30.7275 32.9097 30.8253L32.8853 30.8351C32.6481 30.9305 32.3858 31.1529 32.1305 31.4177C31.8697 31.6881 31.596 32.0243 31.3354 32.3733C31.0108 32.8081 30.7018 33.2691 30.4603 33.6588C30.3992 32.441 30.1567 31.2014 29.8057 30.0541L29.7648 29.9222C29.456 28.9414 29.1891 28.1932 28.9618 27.2438C29.2651 27.237 29.5168 27.1836 29.7166 27.0838C29.9773 26.9535 30.1402 26.7488 30.2081 26.4976C30.274 26.254 30.2472 25.9825 30.166 25.7135C30.1047 25.5105 30.0102 25.3012 29.8912 25.0937L29.6762 24.7444C29.4715 24.3966 29.2758 23.948 29.1254 23.55C29.4776 23.5304 29.8362 23.5265 30.2002 23.5115H30.202C30.7166 23.4858 31.231 23.4527 31.7445 23.4126C32.6635 23.3405 33.7072 23.1774 34.5829 23.0224C35.3853 22.8803 36.5229 22.655 37.4206 22.1742C37.8713 21.9327 38.2746 21.6203 38.543 21.2093C38.8143 20.7938 38.9394 20.2899 38.852 19.687C38.6227 18.1054 37.525 16.8057 36.2549 15.681C35.6174 15.1166 34.9279 14.589 34.2696 14.0878C33.6087 13.5847 32.9815 13.1096 32.4572 12.6443C31.3006 11.618 30.0376 10.6109 28.7077 9.84439L28.7041 9.84256L28.701 9.84073C28.3028 9.63167 27.769 9.45334 27.2281 9.33816ZM11.6991 40.6025H11.6765C11.662 40.602 11.6482 40.5987 11.6343 40.597C11.6553 40.5995 11.6767 40.6026 11.6991 40.6025ZM38.0814 40.5946C38.046 40.5965 38.0088 40.5957 37.9702 40.597C38.024 40.5952 38.075 40.5958 38.1223 40.5928L38.0814 40.5946ZM36.5327 40.5934L12.8911 40.5946L15.4668 40.5922L36.5327 40.5934ZM11.3522 40.1063L11.3553 40.1C11.3581 40.0955 11.3619 40.0911 11.365 40.0867C11.3605 40.0932 11.3562 40.0996 11.3522 40.1063ZM11.6514 39.9229C11.639 39.9229 11.6265 39.925 11.6136 39.9272C11.622 39.9258 11.6303 39.9234 11.6386 39.9229H11.6514ZM16.5972 39.9162C16.5449 39.8916 16.4552 39.8461 16.3394 39.7844L16.5972 39.9162ZM12.4599 38.4343L12.4593 38.4331L12.4581 38.4312L12.4599 38.4343ZM11.3088 38.3934L11.307 38.394C11.307 38.394 11.3142 38.3928 11.3204 38.3915C11.3277 38.3901 11.3395 38.3881 11.3546 38.3854L11.3577 38.3842C11.3328 38.3883 11.314 38.3923 11.3088 38.3934ZM37.5837 38.1446C37.5635 38.1683 37.5421 38.1911 37.5214 38.2143L37.6142 38.1086L37.5837 38.1446ZM12.3262 37.5213C12.3258 37.5264 12.3252 37.5313 12.325 37.5354C12.3253 37.5299 12.3263 37.5233 12.3268 37.5159L12.3262 37.5213ZM12.328 37.5055V37.503L12.3292 37.4957C12.3289 37.4991 12.3283 37.5024 12.328 37.5055ZM14.0477 37.3697C14.0509 37.3671 14.0541 37.3638 14.0574 37.3612L14.08 37.3441C14.0686 37.3523 14.058 37.3613 14.0477 37.3697ZM32.8987 31.0433C32.9125 31.0365 32.9262 31.0296 32.9396 31.0238L32.9579 31.0165C32.9386 31.0243 32.9188 31.0333 32.8987 31.0433ZM18.4029 30.7087C18.4106 30.702 18.418 30.695 18.4261 30.6891L18.4401 30.68C18.4271 30.6884 18.4148 30.6983 18.4029 30.7087ZM18.8187 30.6287C18.8288 30.6317 18.8385 30.6361 18.8487 30.6397C18.8313 30.6336 18.8143 30.627 18.7974 30.6226L18.8187 30.6287ZM29.6188 30.1115C29.637 30.1708 29.6526 30.2311 29.6701 30.291L29.5785 29.9808L29.6188 30.1115ZM30.0242 28.4336C30.0165 28.4361 30.0104 28.4386 30.0071 28.4397L30.0041 28.4409C30.0073 28.4398 30.0171 28.4368 30.0297 28.4323L30.0242 28.4336ZM28.8604 27.0484L28.8586 27.049L28.7596 27.0449L28.8604 27.0484ZM31.6077 26.0544V26.0599C31.6073 26.0536 31.6068 26.0473 31.6064 26.041C31.6067 26.0448 31.6073 26.0494 31.6077 26.0544ZM29.6323 25.0436C29.6457 25.0647 29.6573 25.0867 29.6701 25.1077L29.6005 24.9942L29.6323 25.0436ZM22.5572 24.4562C22.56 24.4502 22.563 24.4444 22.5657 24.4385L22.5572 24.4562ZM30.0255 23.3228C29.8755 23.3278 29.7243 23.3315 29.573 23.3362C29.7559 23.3305 29.9389 23.3253 30.1196 23.3185L30.0255 23.3228ZM31.5375 23.2324C31.4133 23.2417 31.2887 23.2496 31.1644 23.2581C31.3528 23.2453 31.5411 23.2325 31.7293 23.2178L31.5375 23.2324ZM34.5487 22.83L34.3826 22.8587C34.3418 22.8658 34.3006 22.8718 34.2592 22.8789C34.3573 22.8621 34.4541 22.8467 34.5487 22.83ZM37.1434 22.096C37.1016 22.1161 37.059 22.1349 37.0164 22.154C37.0657 22.1319 37.1147 22.1096 37.1629 22.0862L37.1434 22.096ZM38.6658 19.7669C38.6688 19.7915 38.669 19.8161 38.6712 19.8402C38.6674 19.7992 38.6652 19.7573 38.659 19.715L38.6658 19.7669ZM40.2295 19.7146V19.7195L40.2301 19.7232C40.2301 19.7232 40.2298 19.7189 40.2295 19.7146ZM23.1379 10.1668C23.1776 10.1449 23.2173 10.1226 23.257 10.1015L23.3211 10.0679C23.26 10.0996 23.199 10.1331 23.1379 10.1668ZM28.7328 10.0856C28.7583 10.1006 28.7837 10.1162 28.8091 10.1314L28.6197 10.0192L28.7328 10.0856ZM12.463 38.4428L12.4648 38.4465C12.4648 38.4465 12.4615 38.4384 12.4599 38.4343C12.4612 38.4377 12.463 38.4428 12.463 38.4428Z" fill="#E8E7E7"/>
<path d="M25.478 6.7244C26.2661 6.65246 27.0808 6.74952 27.7485 6.89164C28.3598 7.02181 29.0194 7.2242 29.61 7.50077C29.6166 7.50384 29.6231 7.50732 29.6296 7.51054L29.8444 7.61674L29.8835 7.63749L29.903 7.64847L29.9079 7.65092C29.9155 7.65493 29.9338 7.66529 29.9555 7.67777C31.4958 8.56565 32.9049 9.69801 34.1169 10.7735C34.5555 11.1627 35.0982 11.5756 35.7844 12.0979C36.4354 12.5936 37.1956 13.1738 37.912 13.8081C39.2779 15.0176 40.9648 16.8258 41.3276 19.3282C41.499 20.5113 41.2528 21.6328 40.6367 22.5765C40.0618 23.4566 39.2733 24.0184 38.6017 24.3782C37.3097 25.0702 35.8011 25.3457 35.019 25.4842C34.3418 25.604 33.5287 25.7347 32.7241 25.8272C32.7628 26.2259 32.7497 26.6766 32.6215 27.1504C32.4875 27.6458 32.2469 28.0905 31.9245 28.4676L31.9416 28.5188C31.9465 28.5168 31.9513 28.5147 31.9562 28.5127L31.9807 28.503L32.0124 28.4908L32.0295 28.4847C32.6006 28.2683 33.6802 28.0144 34.7907 28.6165L34.9726 28.7227C35.8441 29.2731 36.197 30.0983 36.3398 30.6221C36.3422 30.631 36.345 30.64 36.3471 30.649L36.3874 30.8186C36.3917 30.8367 36.3963 30.8553 36.3996 30.8736L36.4265 31.0237L36.4301 31.0469C36.4588 31.2348 36.469 31.4241 36.4741 31.6097C36.7576 31.6573 37.0644 31.7451 37.3725 31.9026L37.663 32.0711L37.6899 32.0906L37.8107 32.1761L37.8083 32.1773C37.8181 32.1842 37.8293 32.1895 37.8388 32.1968C38.8116 32.9422 39.0116 33.9791 39.0229 34.6101C39.3 34.7468 39.598 34.9429 39.8725 35.2254L39.9885 35.3523L40.008 35.3755L40.0947 35.4817L40.135 35.5354L40.2277 35.6673L40.2473 35.6966C40.8833 36.6812 40.7624 37.7204 40.5524 38.3528C40.5368 38.3998 40.5172 38.4454 40.4999 38.4908C40.7519 38.8416 40.9138 39.2302 40.9931 39.6224L41.0322 39.8616L41.0358 39.9043L41.0493 40.0911L41.0517 40.135C41.0839 41.4394 40.3056 42.3361 39.7077 42.7705L39.6638 42.8047L39.6516 42.8133C39.2711 43.0871 38.8215 43.249 38.3539 43.2796L38.2978 43.2832C38.2922 43.2836 38.2862 43.283 38.2807 43.2832C38.0111 43.2997 37.6432 43.3017 37.3078 43.2991L36.5253 43.2893H12.8986L12.32 43.2942L11.7072 43.2979C11.0387 43.2997 10.175 43.0862 9.48554 42.386C8.76323 41.652 8.5471 40.7028 8.63837 39.8958C8.75634 38.856 9.37969 38.2045 9.74677 37.9085C10.067 37.6504 10.5694 37.3584 11.2141 37.2615C11.3486 36.2934 11.9095 35.5823 12.5068 35.1534C12.5153 35.1472 12.5249 35.1421 12.5336 35.1363L12.6472 35.0594C12.6552 35.054 12.6634 35.0486 12.6716 35.0435C12.7243 35.0105 12.7786 34.9821 12.8315 34.9532C12.8203 34.7851 12.819 34.6057 12.8364 34.4185L12.8815 34.1048C13.0289 33.3557 13.4744 32.5136 14.4099 32.0015L14.4318 31.9905L14.5441 31.9319C14.5529 31.9274 14.562 31.9227 14.571 31.9185C14.8834 31.7704 15.1929 31.6879 15.4804 31.6451C15.4789 31.4492 15.4837 31.2482 15.5024 31.0481C15.5293 30.7606 15.5901 30.3583 15.7551 29.9349L15.8234 29.7713C16.0051 29.3681 16.3451 28.8241 16.9721 28.4175L17.0075 28.3955L17.0222 28.3858L17.0319 28.3797L17.0344 28.3785C17.7666 27.9269 18.6528 27.7956 19.4855 28.0159L19.6406 28.0599C19.5581 27.9291 19.4814 27.7902 19.4147 27.6411C19.4106 27.632 19.4063 27.6224 19.4025 27.6131L19.3415 27.4654C19.3379 27.4566 19.3351 27.4474 19.3317 27.4385C19.1113 26.8466 19.0903 26.287 19.1401 25.826C18.7296 25.7834 18.3111 25.7346 17.8937 25.6758C16.9364 25.5408 15.9264 25.3521 15.0031 25.0813C14.1357 24.8269 13.0813 24.4261 12.2419 23.7325C11.3152 22.9662 10.701 21.9253 10.5353 20.6856L10.5073 20.4353C10.3202 18.1844 11.4857 16.4167 12.3957 15.3572C13.901 13.6047 16.3906 11.8838 17.7204 10.8443C18.6851 10.0901 20.4143 8.53844 22.0783 7.67411L22.0893 7.66801L22.2724 7.57645L22.2834 7.57157C23.2934 7.08115 24.3492 6.81885 25.4084 6.73051C25.4121 6.73011 25.4308 6.72689 25.4438 6.72562H25.4609C25.4609 6.72562 25.4701 6.725 25.478 6.7244ZM27.5535 7.80863C26.9369 7.67738 26.2164 7.59485 25.5493 7.6578L25.5054 7.66207C24.5429 7.74022 23.5946 7.97703 22.6927 8.41501L22.5101 8.50661C20.9483 9.31783 19.3479 10.7618 18.2972 11.5831C16.887 12.6854 14.5314 14.3093 13.1066 15.9682L12.7839 16.3643C12.0302 17.3453 11.3057 18.716 11.4419 20.3576C11.5325 21.4443 12.0347 22.3458 12.8385 23.0103C13.5308 23.5824 14.4395 23.9396 15.2665 24.1822C16.1301 24.4354 17.0912 24.6155 18.0242 24.747C18.7984 24.8562 19.581 24.9339 20.3123 24.9919C20.2738 25.0881 20.2377 25.1883 20.2055 25.2905C20.0778 25.6955 19.9365 26.377 20.2098 27.1109L20.2702 27.2587C20.4827 27.7337 20.8199 28.0828 21.199 28.3322C21.0738 28.8768 20.9333 29.3828 20.7826 29.9162C20.5181 29.6415 20.0759 29.2275 19.5002 29.0047L19.2461 28.9221C18.6617 28.7673 18.04 28.8595 17.5265 29.1761L17.5039 29.1902L17.482 29.2042C16.9894 29.5236 16.7474 29.9714 16.6289 30.2753L16.5497 30.5086C16.4835 30.7383 16.452 30.9564 16.4353 31.1351C16.3907 31.6128 16.4275 32.1201 16.4774 32.5384L16.4823 32.5775H16.4786C16.1109 32.5251 15.5394 32.4975 14.9728 32.7662L14.8598 32.8242C14.1255 33.2261 13.8239 33.923 13.7698 34.5053L13.7604 34.7994C13.7691 35.084 13.8258 35.3399 13.8852 35.5428C13.6554 35.5986 13.4065 35.6902 13.1683 35.839L13.0541 35.9153C12.601 36.2407 12.1986 36.7726 12.1314 37.489C12.1084 37.7348 12.1298 37.9614 12.1741 38.1638H11.6447C11.0659 38.1661 10.6118 38.4162 10.3354 38.6388C10.0714 38.8518 9.64971 39.3009 9.57029 40.0018L9.55634 40.2193C9.54925 40.7341 9.72151 41.2894 10.1541 41.7288C10.5673 42.1482 11.0769 42.3192 11.5192 42.3543L11.7045 42.3608C11.9082 42.3602 12.1107 42.3589 12.3115 42.3571C12.5117 42.3554 12.7032 42.3528 12.8953 42.3522L36.5277 42.3516C36.8575 42.3526 37.7323 42.3789 38.2327 42.3474H38.2363L38.2925 42.3437C38.5117 42.3293 38.7249 42.2689 38.9179 42.1675L39.1041 42.0524L39.1493 42.0188C39.5683 41.7172 40.0693 41.1347 40.1118 40.323L40.1141 40.1582L40.1007 39.9719C40.0491 39.5357 39.8533 39.0955 39.4882 38.75C39.453 38.7167 39.4169 38.6857 39.3807 38.6559C39.4639 38.5176 39.5407 38.3702 39.6039 38.2149L39.6622 38.0575C39.8181 37.5882 39.8893 36.8709 39.4595 36.2054L39.3667 36.0729L39.28 35.966C38.8616 35.4836 38.3268 35.3155 38.0226 35.2491C38.0406 35.1649 38.0568 35.0771 38.0683 34.9873L38.0886 34.7105C38.0977 34.254 37.9747 33.4819 37.2684 32.9408L37.1463 32.8541C36.6186 32.506 36.0555 32.4758 35.6716 32.5079L35.5079 32.5262C35.5012 32.5271 35.4945 32.5282 35.4878 32.5292C35.5305 32.2053 35.555 31.8601 35.5366 31.523L35.503 31.1888L35.4762 31.0386L35.4353 30.8689C35.3189 30.4417 35.0372 29.8167 34.344 29.4405C33.5711 29.0215 32.8016 29.1922 32.349 29.366L32.3288 29.3734L32.3044 29.3831L32.302 29.3843C31.9564 29.5234 31.6512 29.7398 31.4037 29.9523C31.3698 29.8328 31.3364 29.7137 31.3005 29.5962L31.2987 29.5907L31.2578 29.4588L31.2559 29.4521L30.8559 28.2033C31.2743 27.8763 31.5752 27.4298 31.717 26.9057C31.8854 26.2831 31.7935 25.6957 31.6626 25.2618C31.6349 25.17 31.6036 25.0798 31.5698 24.9913C31.6685 24.9841 31.7679 24.9782 31.8666 24.9705C32.6129 24.9119 33.4201 24.7998 34.1523 24.6809L34.8551 24.5614C35.6439 24.4217 37.0141 24.1651 38.1588 23.552C38.7477 23.2365 39.3921 22.7681 39.8521 22.0638C40.339 21.3182 40.5393 20.4282 40.3993 19.4624C40.0865 17.3052 38.6209 15.6882 37.291 14.5106C36.9477 14.2066 36.5918 13.9144 36.2409 13.636L35.2166 12.8435C34.5402 12.3285 33.9654 11.8922 33.4946 11.4744C32.4524 10.5497 31.2855 9.60314 30.0312 8.81669L29.4881 8.48951C29.4773 8.48328 29.4661 8.47777 29.4551 8.4718L29.4276 8.45654L29.2127 8.34967C28.7002 8.10968 28.1114 7.92742 27.5535 7.80863ZM25.6679 9.21603C26.1263 9.16814 26.6892 9.22343 27.2281 9.33816C27.769 9.45334 28.3028 9.63167 28.701 9.84073L28.7041 9.84256L28.7077 9.84439C30.0376 10.6109 31.3006 11.618 32.4572 12.6443C32.9815 13.1096 33.6087 13.5847 34.2696 14.0878C34.9279 14.589 35.6174 15.1166 36.2549 15.681C37.525 16.8057 38.6227 18.1054 38.852 19.687C38.9394 20.2899 38.8143 20.7938 38.543 21.2093L38.4357 21.3582C38.1726 21.6966 37.815 21.9629 37.4206 22.1742C36.5229 22.655 35.3853 22.8803 34.5829 23.0224C33.7072 23.1774 32.6635 23.3405 31.7445 23.4126C31.231 23.4527 30.7166 23.4858 30.202 23.5115H30.2002C29.8362 23.5265 29.4776 23.5304 29.1254 23.55C29.2758 23.948 29.4715 24.3966 29.6762 24.7444L29.8912 25.0937C30.0102 25.3012 30.1047 25.5105 30.166 25.7135C30.2472 25.9825 30.274 26.254 30.2081 26.4976L30.1777 26.5889C30.0974 26.7982 29.9447 26.9698 29.7166 27.0838C29.5168 27.1836 29.2651 27.237 28.9618 27.2438C29.1891 28.1932 29.456 28.9414 29.7648 29.9222L29.8057 30.0541C30.1567 31.2014 30.3992 32.441 30.4603 33.6588C30.7018 33.2691 31.0108 32.8081 31.3354 32.3733C31.596 32.0243 31.8697 31.6881 32.1305 31.4177C32.3858 31.1529 32.6481 30.9305 32.8853 30.8351L32.9097 30.8253C33.1645 30.7275 33.4025 30.7084 33.5991 30.8149C33.8014 30.9247 33.8998 31.135 33.9448 31.3535C34.0338 31.7869 33.9478 32.4185 33.8067 33.0499L33.6518 33.6714C33.4822 34.2939 33.2781 34.9009 33.121 35.3387C33.2762 35.2285 33.4348 35.1223 33.593 35.0272C34.4514 34.5119 35.0887 34.2179 35.5414 34.1097L35.7242 34.0746C35.9534 34.0427 36.1636 34.0642 36.3178 34.1821C36.4789 34.3055 36.5291 34.4943 36.5254 34.6792L36.5131 34.8213C36.4919 34.9677 36.4446 35.1269 36.3807 35.2898C36.2943 35.5099 36.1728 35.7508 36.0271 36.0006C35.8274 36.343 35.5789 36.708 35.3053 37.0681C35.8157 36.93 36.5055 36.7749 37.0689 36.7432C37.2834 36.7311 37.4903 36.7362 37.6661 36.7713C37.8371 36.8054 38.012 36.8742 38.121 37.018C38.2389 37.1733 38.2449 37.367 38.1791 37.5651C38.1148 37.7585 37.9761 37.9799 37.7644 38.2338C37.2562 38.8435 36.569 39.3219 35.8824 39.7214L37.0145 39.7232C37.3149 39.722 37.7473 39.6953 38.0722 39.7379C38.2066 39.7556 38.3258 39.8027 38.4142 39.8862C38.5052 39.9723 38.5487 40.084 38.5516 40.1977C38.5569 40.4137 38.4197 40.6193 38.2365 40.7509L38.1907 40.7839L38.1345 40.7876C37.7009 40.8149 36.963 40.79 36.5321 40.7888L12.8911 40.79C12.6933 40.7906 12.4958 40.7925 12.2975 40.7943C12.0993 40.7961 11.8999 40.7973 11.6997 40.798C11.5382 40.7984 11.3811 40.7474 11.268 40.6325C11.1521 40.5148 11.1041 40.3527 11.1238 40.1781C11.1397 40.0378 11.2296 39.9261 11.3162 39.8563C11.4037 39.7858 11.5247 39.728 11.6508 39.7275L11.8316 39.7269C12.2538 39.726 12.6791 39.7284 13.0993 39.7289C14.0107 39.7363 14.9224 39.7362 15.8338 39.7287C15.4823 39.5263 15.0572 39.262 14.6815 38.9788C14.3285 38.7127 13.9972 38.414 13.8217 38.1208C13.7333 37.9731 13.6719 37.8066 13.688 37.6348C13.705 37.4537 13.8042 37.3014 13.9658 37.1853C14.1444 37.0571 14.4144 37.0205 14.6809 37.0168C14.9594 37.0129 15.2825 37.0458 15.6048 37.0943C15.984 37.1514 16.3712 37.2319 16.6979 37.3074C16.3937 36.9177 15.9888 36.3564 15.6995 35.8266C15.585 35.6169 15.486 35.4071 15.4186 35.2117C15.3523 35.0193 15.3102 34.8244 15.3264 34.6499C15.3435 34.4656 15.4277 34.2955 15.6103 34.1955C15.7785 34.1035 16 34.0885 16.2583 34.1253C16.7095 34.1897 17.3209 34.48 17.882 34.8123C18.1904 34.9949 18.493 35.1965 18.7583 35.3912C18.6141 34.992 18.4779 34.5775 18.3803 34.1876L18.3473 34.0526C18.2819 33.7816 18.18 33.3321 18.1 32.8462L18.0298 32.3532C17.9848 31.9771 17.9624 31.5968 17.9919 31.2809C18.0067 31.1229 18.0352 30.9724 18.0853 30.8436C18.1351 30.716 18.2119 30.5946 18.3327 30.5163L18.3473 30.5072C18.4968 30.415 18.678 30.3883 18.8481 30.4339C19.1291 30.508 19.4237 30.753 19.6993 31.0452C19.9831 31.346 20.2764 31.7293 20.5524 32.1254C20.9244 32.6594 21.2707 33.226 21.5282 33.6637C21.6087 33.017 21.7349 32.413 21.8818 31.8257L22.0351 31.2424C22.2952 30.2869 22.585 29.3608 22.8051 28.3119C22.8676 28.0141 22.9494 27.5915 22.9926 27.2518C22.9345 27.2552 22.8746 27.257 22.8149 27.256C22.6664 27.2535 22.5046 27.2351 22.3661 27.1821C22.0044 27.0441 21.7757 26.8363 21.6748 26.5654C21.6016 26.3684 21.6045 26.1591 21.645 25.9578L21.6962 25.7605C21.7785 25.4995 21.9146 25.2354 22.0455 24.9972C22.1806 24.7511 22.3057 24.5397 22.388 24.3579C22.5239 24.0579 22.6281 23.8245 22.7263 23.5646C21.7382 23.5293 20.3081 23.4535 18.8618 23.2796L18.2423 23.1994C17.5734 23.1051 16.9109 22.9864 16.2995 22.8389L15.7062 22.6822C15.0411 22.4871 14.4488 22.2441 14.0119 21.9392L13.8345 21.8053C13.4012 21.4471 13.128 21.0034 13.0305 20.4646L12.9998 20.228C12.9087 19.132 13.3904 18.1435 14.0168 17.3262L14.2925 16.9872C15.5831 15.4847 17.7108 14.0264 19.2602 12.8152C20.4624 11.8755 21.84 10.6168 23.2307 9.89447C23.9005 9.54657 24.6111 9.33784 25.3498 9.2476L25.6679 9.21603ZM11.6765 40.6025H11.6991C11.6767 40.6026 11.6553 40.5995 11.6343 40.597C11.6482 40.5987 11.662 40.602 11.6765 40.6025ZM37.9702 40.597C38.0088 40.5957 38.046 40.5965 38.0814 40.5946L38.1223 40.5928C38.075 40.5958 38.024 40.5952 37.9702 40.597ZM12.8911 40.5946L36.5327 40.5934L15.4668 40.5922L12.8911 40.5946ZM11.6386 39.9229C11.6303 39.9234 11.622 39.9258 11.6136 39.9272C11.6265 39.925 11.639 39.9229 11.6514 39.9229H11.6386ZM25.7648 10.1485C25.7563 10.1494 25.7478 10.1503 25.7392 10.1509C25.1827 10.1933 24.6513 10.3079 24.1486 10.5049C24.0631 10.667 23.9301 10.8065 23.7556 10.898L23.7531 10.8992C23.7033 10.9251 23.6514 10.9542 23.592 10.9871C23.4141 11.0855 23.2181 11.1176 23.0305 11.0957C21.9647 11.7723 20.9169 12.709 19.8371 13.553C18.2041 14.8295 16.2131 16.1884 15.0031 17.5972C14.3093 18.405 13.8609 19.2715 13.9338 20.1497C13.9657 20.5334 14.1215 20.8257 14.4318 21.0823L14.5539 21.1751C14.8636 21.3899 15.3401 21.597 15.9699 21.7818C16.6744 21.9884 17.5059 22.1489 18.3735 22.2713C19.9741 22.4969 21.6428 22.5878 22.7595 22.6277C23.0612 22.6385 23.3393 22.7938 23.5065 23.0452C23.6738 23.2967 23.7097 23.6135 23.603 23.896C23.5613 24.0063 23.5165 24.111 23.4724 24.2159C23.5208 24.413 23.5099 24.6261 23.4199 24.825C23.4099 24.8471 23.4013 24.8651 23.3954 24.8763C23.3925 24.8818 23.3899 24.8864 23.3881 24.8897C23.3864 24.8928 23.3845 24.897 23.3845 24.897L23.3893 24.886C23.2894 25.0792 23.13 25.2193 22.9462 25.3035C22.918 25.354 22.8915 25.4027 22.8669 25.4475C22.7706 25.6228 22.6926 25.7768 22.6374 25.9126L22.5898 26.042C22.5651 26.1203 22.5563 26.1759 22.5544 26.2117C22.554 26.2185 22.5531 26.2243 22.5532 26.2288C22.5699 26.2425 22.6131 26.2722 22.7009 26.3057C22.7052 26.3068 22.7135 26.3086 22.7265 26.3106C22.7528 26.3146 22.7879 26.3172 22.8303 26.3179C22.8608 26.3184 22.8971 26.3179 22.9377 26.3155C23.2159 26.2992 23.4871 26.4073 23.6774 26.6109C23.8678 26.8145 23.9577 27.0924 23.9228 27.3689C23.8747 27.7472 23.7864 28.2004 23.7226 28.5042C23.495 29.5889 23.1889 30.575 22.9401 31.4888C22.7343 32.2449 22.5573 32.9809 22.4579 33.7788C22.4084 34.1771 22.1112 34.4995 21.7182 34.5808C21.3251 34.6622 20.9232 34.4849 20.7197 34.139C20.4677 33.7107 20.1358 33.1665 19.7834 32.6607C19.5195 32.2819 19.2554 31.9407 19.0168 31.6878C18.9825 31.6514 18.9484 31.6188 18.9167 31.5877C18.9165 31.7741 18.9314 31.997 18.9606 32.242C19.0328 32.8459 19.1742 33.4805 19.2585 33.8301L19.2902 33.9595L19.4453 34.5015C19.5046 34.6883 19.5711 34.8804 19.6406 35.0728C19.7804 35.4607 19.6498 35.8952 19.3195 36.1421C18.9893 36.3888 18.5363 36.3907 18.2038 36.147C17.9624 35.9699 17.6851 35.7847 17.4042 35.6184C17.0106 35.3854 16.6561 35.2167 16.3935 35.1253C16.4295 35.2032 16.4738 35.2869 16.5229 35.3767C16.7769 35.8419 17.1463 36.3579 17.4372 36.7305C17.6812 37.0434 17.7017 37.4762 17.4885 37.8108C17.275 38.1457 16.8732 38.3104 16.4863 38.221C16.1734 38.1487 15.8122 38.073 15.4658 38.0208C15.2678 37.991 15.0841 37.9734 14.9238 37.9634C15.0133 38.0439 15.1197 38.1343 15.246 38.2295C15.5477 38.4569 15.8964 38.6749 16.2067 38.857C16.3914 38.8304 16.5858 38.8576 16.7646 38.9485L17.0222 39.0804C17.2617 39.2024 17.4234 39.4146 17.4933 39.6541H34.947C34.9687 39.3513 35.1372 39.0699 35.4108 38.9107C35.8489 38.6558 36.2507 38.3834 36.5912 38.0867C36.6086 37.9591 36.6536 37.8343 36.7243 37.7205C36.3395 37.7762 35.9126 37.8751 35.55 37.9732C35.1627 38.0779 34.7511 37.9239 34.527 37.5911C34.3033 37.2584 34.3164 36.8203 34.5588 36.501C34.8144 36.1646 35.0402 35.8308 35.2167 35.5281C35.3002 35.385 35.3679 35.2509 35.4243 35.1314C35.116 35.2532 34.6762 35.4701 34.0754 35.8308C33.9434 35.9102 33.8056 36.0025 33.664 36.1031C33.3301 36.3402 32.8807 36.3322 32.5544 36.0848C32.2282 35.8372 32.0999 35.4069 32.2382 35.0215C32.4427 34.452 32.7201 33.6112 32.8913 32.845C32.9698 32.4935 33.0134 32.1971 33.0317 31.9661C32.9867 31.9726 32.9423 31.976 32.8974 31.9759C32.868 32.0046 32.8372 32.0349 32.8058 32.0674C32.5826 32.299 32.3347 32.6022 32.0869 32.9341C31.7802 33.3449 31.4856 33.7832 31.2568 34.1524C31.0407 34.5008 30.6235 34.6684 30.2265 34.5662C29.8294 34.4638 29.544 34.1152 29.5234 33.7056C29.4788 32.8182 29.3289 31.9099 29.1059 31.0347C28.9518 30.9181 28.8304 30.7557 28.7714 30.5562L28.7702 30.5537C28.763 30.5293 28.7572 30.511 28.7531 30.4964L28.6823 30.2571L28.6567 30.1534C28.6248 29.9849 28.643 29.817 28.6982 29.6639C28.4898 29.0185 28.2941 28.4111 28.1183 27.7242C27.9297 27.546 27.8136 27.2933 27.8229 27.0137C27.8403 26.4975 28.2722 26.0923 28.7885 26.1079L28.8886 26.1104C29.0384 26.1149 29.1787 26.1578 29.3036 26.2251C29.3063 26.1863 29.306 26.1086 29.2682 25.9834C29.2643 25.9703 29.257 25.958 29.2524 25.9444C29.1004 25.8687 28.9656 25.7531 28.8703 25.5977L28.8007 25.4842C28.6825 25.2912 28.6457 25.0721 28.675 24.864C28.5103 24.5373 28.3634 24.1876 28.2477 23.8814C28.1422 23.602 28.1764 23.2882 28.3393 23.0379C28.4826 22.8177 28.711 22.6691 28.9667 22.6253C29.1002 22.5112 29.2641 22.4313 29.4477 22.4068L29.5441 22.3982C29.7301 22.3924 29.9082 22.3878 30.0849 22.3811C30.2714 22.3743 30.4469 22.4231 30.5964 22.5118C30.7374 22.4042 30.9104 22.3355 31.1005 22.3225C31.1061 22.3222 31.1121 22.3217 31.1176 22.3213C31.3005 22.3089 31.4787 22.2961 31.6559 22.2823C31.8621 22.2665 32.0579 22.3214 32.2211 22.4226C32.6656 22.3738 33.1286 22.3094 33.5786 22.2383C33.6927 22.1168 33.8377 22.023 34.007 21.9759L34.101 21.9539L34.3854 21.9063H34.3891C34.5944 21.8708 34.7948 21.9061 34.9677 21.993C35.3783 21.9096 35.809 21.8049 36.2153 21.667C36.295 21.5356 36.407 21.4219 36.5473 21.3411L36.6376 21.2959C36.6825 21.2758 36.7198 21.2586 36.7536 21.2422C36.9252 21.159 37.1099 21.1321 37.2858 21.1556C37.4936 21.0105 37.6522 20.8589 37.7582 20.6966C37.8212 20.6002 37.8701 20.4924 37.9023 20.3694C37.8144 20.2421 37.7532 20.0936 37.7375 19.9287C37.736 19.9126 37.7347 19.8971 37.7338 19.886C37.7328 19.8731 37.7321 19.8657 37.7314 19.8579C37.7311 19.8542 37.7314 19.8494 37.7314 19.8494L37.7289 19.8348C37.7053 19.6515 37.7377 19.4743 37.8107 19.3184C37.4961 18.2803 36.6975 17.3252 35.633 16.3826C35.0254 15.8446 34.3628 15.3367 33.7018 14.8335C33.0506 14.3377 32.3916 13.8391 31.8354 13.3455C30.9002 12.5156 29.9141 11.7186 28.8972 11.0603C28.7068 11.0785 28.5092 11.0429 28.332 10.9383L28.1428 10.826C27.9946 10.7384 27.8828 10.6147 27.8046 10.4744C27.5724 10.3909 27.3089 10.3134 27.0331 10.2547C26.5489 10.1516 26.0907 10.1144 25.7648 10.1485ZM11.3546 38.3854C11.3395 38.3881 11.3277 38.3901 11.3204 38.3915C11.3142 38.3928 11.307 38.394 11.307 38.394L11.3088 38.3934C11.314 38.3923 11.3328 38.3883 11.3577 38.3842L11.3546 38.3854ZM37.5214 38.2143C37.5421 38.1911 37.5635 38.1683 37.5837 38.1446L37.6142 38.1086L37.5214 38.2143ZM10.9919 37.5105L11.0029 37.5069L11.0078 37.5057C11.002 37.5076 10.9964 37.5089 10.9919 37.5105ZM11.0419 37.4947C11.0388 37.4956 11.0351 37.4962 11.0322 37.4971L11.0395 37.4959C11.0434 37.4947 11.0475 37.4934 11.0517 37.4922C11.0706 37.4869 11.0933 37.4804 11.1188 37.4751L11.0419 37.4947ZM14.0574 37.3612C14.0541 37.3638 14.0509 37.3671 14.0477 37.3697C14.058 37.3613 14.0686 37.3523 14.08 37.3441L14.0574 37.3612ZM32.9396 31.0238C32.9262 31.0296 32.9125 31.0365 32.8987 31.0433C32.9188 31.0333 32.9386 31.0243 32.9579 31.0165L32.9396 31.0238ZM18.4261 30.6891C18.418 30.695 18.4106 30.702 18.4029 30.7087C18.4148 30.6983 18.4271 30.6884 18.4401 30.68L18.4261 30.6891ZM18.8487 30.6397C18.8385 30.6361 18.8288 30.6317 18.8187 30.6287L18.7974 30.6226C18.8143 30.627 18.8313 30.6336 18.8487 30.6397ZM29.6701 30.291C29.6526 30.2311 29.637 30.1708 29.6188 30.1115L29.5785 29.9808L29.6701 30.291ZM30.0041 28.4409L30.0071 28.4397C30.0104 28.4386 30.0165 28.4361 30.0242 28.4336L30.0297 28.4323C30.0171 28.4368 30.0073 28.4398 30.0041 28.4409ZM28.8586 27.049L28.8604 27.0484L28.7596 27.0449L28.8586 27.049ZM29.6701 25.1077C29.6573 25.0867 29.6457 25.0647 29.6323 25.0436L29.6005 24.9942L29.6701 25.1077ZM23.2233 24.7774L23.3979 24.8677C23.4004 24.8626 23.4047 24.8569 23.4077 24.8506L23.2294 24.7676C23.2278 24.7711 23.225 24.7739 23.2233 24.7774ZM29.573 23.3362C29.7243 23.3315 29.8755 23.3278 30.0255 23.3228L30.1196 23.3185C29.9389 23.3253 29.7559 23.3305 29.573 23.3362ZM31.1644 23.2581C31.2887 23.2496 31.4133 23.2417 31.5375 23.2324L31.7293 23.2178C31.5411 23.2325 31.3528 23.2453 31.1644 23.2581ZM34.2592 22.8789C34.3006 22.8718 34.3418 22.8658 34.3826 22.8587L34.5487 22.83C34.4541 22.8467 34.3573 22.8621 34.2592 22.8789ZM37.0164 22.154C37.059 22.1349 37.1016 22.1161 37.1434 22.096L37.1629 22.0862C37.1147 22.1096 37.0657 22.1319 37.0164 22.154ZM38.6712 19.8402C38.669 19.8161 38.6688 19.7915 38.6658 19.7669L38.659 19.715C38.6652 19.7573 38.6674 19.7992 38.6712 19.8402ZM23.257 10.1015C23.2173 10.1226 23.1776 10.1449 23.1379 10.1668C23.199 10.1331 23.26 10.0996 23.3211 10.0679L23.257 10.1015ZM28.8091 10.1314C28.7837 10.1162 28.7583 10.1006 28.7328 10.0856L28.6197 10.0192L28.8091 10.1314Z" fill="#020101"/>
<path d="M25.635 10.1097C26.8402 9.99923 27.8395 10.3612 28.8716 10.9327C28.8325 11.3453 28.8424 11.6608 29.039 12.0377C29.249 12.4398 29.6084 12.7433 30.04 12.8829C30.4555 13.0129 30.8216 12.9534 31.1958 12.7588C31.5074 12.991 31.8087 13.237 32.0986 13.4961C32.0184 13.7048 31.962 13.852 31.9346 14.0743C31.8804 14.4824 31.9964 14.8947 32.2551 15.2148C32.8265 15.9225 33.7985 15.9633 34.491 15.3975C34.7935 15.6062 35.0473 15.8209 35.3199 16.0643C34.9506 16.5386 34.7564 17.0263 34.7468 17.6319C34.7268 18.9026 35.981 19.7887 37.1516 19.2486C37.4027 19.1329 37.5691 18.9704 37.7554 18.7723C38.1608 19.4514 38.3438 20.3162 37.8637 21.0055C35.4413 19.8804 28.9958 19.5544 26.2197 19.5423C23.3768 19.5436 16.3422 19.8539 13.9796 21.0044C13.4452 20.2 13.7469 19.1829 14.2413 18.4366C14.574 18.7651 14.8437 18.9978 15.3077 19.1233C16.5109 19.4486 17.7912 18.5811 18.0818 17.4C18.2975 16.5231 18.1444 15.8839 17.7013 15.1235C18.0375 14.862 18.3767 14.6045 18.719 14.3511C19.1607 14.7849 19.658 15.0467 20.2896 15.0472C20.8815 15.0441 21.4482 14.8069 21.8659 14.3876C22.4213 13.825 22.5737 13.1576 22.5669 12.3944C23.9238 12.5085 24.5882 11.6717 24.4676 10.359C24.871 10.2091 25.21 10.1534 25.635 10.1097Z" fill="#E76F51"/>
<path d="M21.0266 16.2552C21.814 16.1491 22.5376 16.7036 22.6398 17.4916C22.7421 18.2795 22.1842 19.0004 21.3958 19.0989C20.6127 19.1967 19.8978 18.6433 19.7962 17.8607C19.6946 17.0782 20.2445 16.3606 21.0266 16.2552Z" fill="#020101"/>
<path d="M21.1049 16.9478C21.5094 16.8864 21.8878 17.1621 21.9535 17.5659C22.0191 17.9696 21.7476 18.351 21.3445 18.421C21.0799 18.467 20.811 18.3672 20.6404 18.1598C20.4698 17.9524 20.4238 17.6694 20.5199 17.4186C20.616 17.1678 20.8394 16.988 21.1049 16.9478Z" fill="#EFB366"/>
<path d="M31.3076 15.9671C32.0703 15.8632 32.773 16.3973 32.8769 17.1601C32.9808 17.9229 32.4468 18.6255 31.684 18.7294C30.9212 18.8334 30.2185 18.2993 30.1144 17.5364C30.0105 16.7736 30.5448 16.071 31.3076 15.9671Z" fill="#020101"/>
<path d="M31.3229 16.6606C31.5708 16.6017 31.8315 16.6805 32.0051 16.8671C32.1787 17.0537 32.2388 17.3192 32.1622 17.5623C32.0855 17.8055 31.8841 17.9887 31.6351 18.042C31.2557 18.1233 30.8815 17.8841 30.7959 17.5056C30.7105 17.1272 30.9455 16.7504 31.3229 16.6606Z" fill="#EFB366"/>
<path d="M24.698 13.9681C25.4477 13.8787 26.1286 14.4124 26.2211 15.1618C26.3134 15.9112 25.7824 16.5942 25.0332 16.6894C24.28 16.7851 23.5925 16.2505 23.4997 15.497C23.4069 14.7434 23.9441 14.058 24.698 13.9681Z" fill="#020101"/>
<path d="M24.6913 14.6605C24.933 14.5994 25.1888 14.6733 25.3607 14.8537C25.5329 15.0342 25.5942 15.2933 25.5217 15.5318C25.449 15.7703 25.2537 15.9512 25.0103 16.0052C24.6415 16.087 24.2754 15.8576 24.1882 15.4901C24.101 15.1225 24.325 14.753 24.6913 14.6605Z" fill="#EFB366"/>
<path d="M28.9117 13.5091C29.5122 13.4604 30.0398 13.904 30.0952 14.5038C30.1503 15.1037 29.7125 15.6362 29.1135 15.6981C28.72 15.7387 28.3349 15.5647 28.1054 15.2426C27.8758 14.9204 27.837 14.4998 28.004 14.1411C28.1707 13.7824 28.5174 13.541 28.9117 13.5091Z" fill="#020101"/>
<path d="M28.9024 14.2024C29.1166 14.1489 29.334 14.2766 29.3917 14.4896C29.4493 14.7026 29.3259 14.9226 29.1139 14.9843C28.9732 15.0253 28.8213 14.9871 28.7169 14.8843C28.6123 14.7816 28.5715 14.6304 28.6098 14.489C28.6484 14.3476 28.7602 14.238 28.9024 14.2024Z" fill="#EFB366"/>
<path d="M27.2073 16.7901C27.7965 16.6892 28.3552 17.0875 28.4522 17.6775C28.5491 18.2675 28.147 18.8235 27.5563 18.9164C26.9714 19.0083 26.4218 18.6109 26.3258 18.0266C26.2299 17.4422 26.6236 16.89 27.2073 16.7901Z" fill="#020101"/>
<path d="M27.2419 17.4817C27.4402 17.4052 27.6633 17.5025 27.7422 17.7C27.8211 17.8976 27.7264 18.1218 27.5298 18.2029C27.4004 18.2562 27.2525 18.236 27.1424 18.1499C27.0324 18.0638 26.977 17.9251 26.9975 17.7869C27.018 17.6486 27.1115 17.532 27.2419 17.4817Z" fill="#EFB366"/>
<path d="M26.3928 10.9553C26.9758 10.8933 27.4999 11.3125 27.5674 11.8949C27.6347 12.4772 27.2204 13.0052 26.6386 13.0781C26.0492 13.152 25.5128 12.7309 25.4445 12.1408C25.376 11.5508 25.8021 11.0182 26.3928 10.9553Z" fill="#020101"/>
<path d="M26.4321 11.6358C26.6394 11.5973 26.8395 11.7315 26.8825 11.938C26.9253 12.1444 26.7954 12.3473 26.5902 12.3947C26.4531 12.4263 26.3099 12.3813 26.2154 12.2772C26.1212 12.1731 26.0905 12.026 26.1356 11.8929C26.1806 11.7598 26.2941 11.6614 26.4321 11.6358Z" fill="#EFB366"/>
<path d="M18.7639 31.3423C19.0553 31.5706 19.6423 32.344 19.8604 32.6636C21.0694 34.434 21.9317 36.408 22.7271 38.3894C22.7686 38.4925 22.8811 38.6597 22.9983 38.6909C23.5183 38.819 23.4849 38.3315 23.4736 37.986C23.4393 36.936 23.4625 35.5616 23.8213 34.5708C24.5465 35.451 24.7469 36.7332 25.0036 37.8032C25.0446 37.9739 25.2257 38.0938 25.4036 38.0745C25.4321 38.0716 25.46 38.0649 25.4868 38.0547C25.6035 38.0095 25.6975 37.867 25.7113 37.7466C25.8929 36.1584 26.388 34.184 27.3897 32.9037C27.5775 33.5468 27.555 34.554 27.4783 35.2272C27.4214 35.7103 27.3385 36.1898 27.2305 36.6642C27.1775 36.8876 26.9628 37.4787 27.068 37.6729C27.1137 37.7562 27.1934 37.8158 27.2864 37.8363C27.5772 37.8987 27.8201 37.4139 27.9829 37.2113C28.3447 36.7604 28.7409 36.2116 29.2161 35.8809L29.2428 35.8629C29.2467 36.5594 28.9024 37.3511 28.7496 38.0275C28.6984 38.2551 28.7996 38.4624 29.0442 38.4779C29.0632 38.4792 29.0825 38.4792 29.1016 38.4774C29.1466 38.4737 29.1923 38.4619 29.2329 38.4418C29.4424 38.3382 29.755 37.2262 29.8473 36.9766C30.5262 35.1389 31.6822 32.9084 33.1739 31.5934C33.0938 33.0272 32.5625 34.6848 31.9746 35.9907C31.8371 36.291 31.6939 36.5885 31.545 36.8834C31.4799 37.014 31.4104 37.1416 31.3466 37.2739C31.1863 37.6061 31.5435 37.9336 31.8391 37.6739C32.0963 37.4473 32.3152 37.1718 32.5702 36.936C33.2471 36.3204 33.9909 35.7822 34.7875 35.3318C35.0972 35.1664 35.3307 35.0652 35.6624 34.9504C35.2595 35.8841 34.2575 37.1737 33.4524 37.8702C33.0777 38.1942 32.7455 38.6778 33.4972 38.6968C33.635 38.7003 34.1682 38.3726 34.3423 38.3263C35.257 37.9736 36.276 37.6021 37.2673 37.5752C36.39 38.5536 34.65 39.5363 33.3137 39.8751C33.0695 39.937 32.1683 39.8969 31.8695 39.8962L22.1689 39.8932C21.1108 39.8927 19.8765 39.9125 18.8382 39.8932C17.5822 39.8697 15.4733 38.7136 14.6212 37.8213C15.574 37.8957 16.513 38.0941 17.4145 38.4114C17.6718 38.5037 18.3733 38.8747 18.5944 38.7668C18.6664 38.731 18.7211 38.6679 18.7466 38.5915C18.7883 38.468 18.7492 38.3214 18.6674 38.2289C18.4139 37.9427 18.1087 37.6714 17.8413 37.3931C17.1554 36.689 16.5955 35.8725 16.1857 34.9791C16.9267 35.1923 17.7045 35.7103 18.3254 36.1634C18.9375 36.6101 19.4531 37.1265 19.9752 37.6682C20.0419 37.7152 20.1232 37.82 20.2108 37.8079C20.9557 37.6978 20.2037 36.7374 20.0377 36.3635C19.3778 34.877 18.7419 32.9864 18.7639 31.3423Z" fill="#8AB17D"/>
<path d="M24.6108 25.8894C24.9601 26.5291 25.3708 27.1771 26.2778 26.9451C26.7856 26.8152 27.0502 26.3339 27.2788 25.8974C27.5301 26.231 27.6579 26.3495 27.9936 26.5963C28.069 27.2711 28.4225 28.4367 28.6438 29.0949C29.3186 31.0998 29.8461 33.0936 29.558 35.2323C28.8869 35.1511 28.4294 35.6936 28.0186 36.1459C28.2033 35.3666 28.4247 32.7364 27.7361 32.2784C27.6218 32.2029 27.4821 32.1762 27.348 32.2044C26.9906 32.2806 26.7087 32.7379 26.5261 33.0243C25.8517 34.1532 25.6365 34.8328 25.2931 36.0764C25.1019 35.4687 24.2465 33.2148 23.4067 34.0013C22.9505 34.4284 22.8172 36.1543 22.7847 36.7927C22.6614 36.5258 22.4679 36.0888 22.4113 35.8004C22.0317 33.8667 22.695 31.9952 23.2043 30.1639C23.524 29.0145 23.7854 27.762 23.9166 26.5971C24.2016 26.391 24.4039 26.1699 24.6108 25.8894Z" fill="#EFB366"/>
<path d="M25.0079 20.09C25.8204 20.0605 26.7862 20.0747 27.5933 20.1092C27.7073 22.1896 28.177 23.9927 29.2588 25.7697C29.3536 25.8968 29.5282 26.37 29.2668 26.4244C28.7916 26.5233 28.1765 26.1132 27.9025 25.7538C27.7541 25.5538 27.5918 25.0945 27.3554 24.993C26.8325 24.7685 26.6596 25.7811 26.5077 26.0823C26.2958 26.4251 25.9797 26.5871 25.6153 26.342C25.3135 26.1362 25.2315 25.7778 25.1411 25.4489C24.9728 24.8372 24.4943 24.8283 24.2172 25.373C23.9514 25.8951 23.5069 26.3826 22.8912 26.436C22.7407 26.4489 22.6318 26.4516 22.5081 26.3517C22.3547 26.0717 22.7201 25.5812 22.8784 25.2807C23.8089 23.5133 24.1414 22.0848 24.2287 20.12C24.4571 20.0977 24.7728 20.0973 25.0079 20.09Z" fill="#EFB366"/>
<path d="M17.0908 15.5513C17.2101 15.5833 17.2992 15.8044 17.3459 15.9155C17.5491 16.3925 17.5517 16.9313 17.3533 17.4104C16.9899 18.2687 16.1001 18.7084 15.2172 18.3288C14.943 18.1891 14.8455 18.0675 14.674 17.8292C15.1851 17.1218 16.4162 16.0908 17.0908 15.5513Z" fill="#EFB366"/>
<path d="M23.0107 20.2069C23.174 20.1956 23.3571 20.1964 23.5222 20.1936C23.0612 21.0044 21.2998 22.3332 20.3125 22.5795C20.0688 22.6403 18.5503 22.4054 18.2125 22.3613L17.4413 22.2515C19.4169 21.8544 20.9514 21.3737 22.62 20.2206L23.0107 20.2069Z" fill="#EFB366"/>
<path d="M28.3213 20.1814C28.4768 20.1838 29.0563 20.1797 29.1637 20.2318C29.6363 20.4607 30.1125 20.8225 30.5906 21.0597C31.7924 21.656 33.0513 21.9603 34.352 22.2444L34.0208 22.2898C33.1997 22.4245 32.3434 22.5201 31.5168 22.6153C30.4179 22.1263 28.9527 21.2206 28.3213 20.1814Z" fill="#EFB366"/>
<path d="M30.6926 20.3186C31.1244 20.3112 32.0084 20.4038 32.456 20.4584C33.8451 20.6274 35.9754 20.841 37.2299 21.3778C37.1275 21.4494 37.0231 21.5021 36.9133 21.5614C35.8881 21.9734 35.8329 21.8704 34.7991 21.6427C33.4145 21.3377 31.927 21.0521 30.6926 20.3186Z" fill="#EFB366"/>
<path d="M21.0175 20.3352L21.0327 20.3469C20.9878 20.4038 20.7642 20.5099 20.6885 20.5475C19.1914 21.2911 17.5388 21.4984 15.9531 21.8968C15.6242 21.8173 15.3014 21.7144 14.9871 21.589C14.8235 21.5129 14.7327 21.462 14.5782 21.3677C16.3304 20.7386 19.1506 20.4462 21.0175 20.3352Z" fill="#EFB366"/>
<path d="M21.6476 12.0699C21.7138 12.1048 21.7364 12.1725 21.7683 12.2422C21.9241 12.5826 21.8999 13.0235 21.7652 13.3692C21.5989 13.7875 21.2719 14.1219 20.8573 14.2974C20.4605 14.4655 20.0961 14.4442 19.7042 14.2851C19.529 14.1854 19.4348 14.1013 19.2827 13.97C20.079 13.3433 20.853 12.6978 21.6476 12.0699Z" fill="#EFB366"/>
<path d="M35.8543 16.4815C36.3752 16.9184 36.9948 17.533 37.374 18.0982C37.2387 18.3391 37.141 18.4487 36.9124 18.5973C35.75 19.1293 34.9021 17.5761 35.8543 16.4815Z" fill="#EFB366"/>
<path d="M23.4336 21.3399L23.4514 21.3623C23.4445 21.7122 23.2621 22.4094 23.1666 22.7512L21.7998 22.6973L21.7495 22.6866L21.744 22.6603C22.4869 22.1768 22.7798 21.9976 23.4336 21.3399Z" fill="#EFB366"/>
<path d="M28.4056 21.357C28.7912 21.6201 29.2063 22.1234 29.6458 22.3637C29.7289 22.4092 30.0937 22.6243 30.1202 22.6802C29.7027 22.7247 29.0964 22.7235 28.6723 22.7257C28.5298 22.235 28.4499 21.8704 28.4056 21.357Z" fill="#EFB366"/>
<path d="M23.7715 10.7063L23.8056 10.7443C23.8271 10.9014 23.8401 11.0005 23.7903 11.158C23.7097 11.4059 23.5347 11.612 23.3032 11.7317C22.9956 11.8869 22.7159 11.8522 22.4044 11.7524C22.3468 11.7197 22.3407 11.7136 22.2905 11.6696L22.2921 11.6289C22.5605 11.3455 23.4115 10.8827 23.7715 10.7063Z" fill="#EFB366"/>
<path d="M32.6531 13.9656C32.84 14.0846 33.7621 14.8008 33.9038 14.9636C33.8776 15.0115 33.8393 15.017 33.7797 15.0477C33.5949 15.1076 33.4418 15.1304 33.2491 15.0869C33.0312 15.0389 32.842 14.9057 32.7233 14.7169C32.5655 14.4626 32.5873 14.237 32.6531 13.9656Z" fill="#EFB366"/>
<path d="M29.5407 11.4717C29.7603 11.56 30.4902 12.166 30.6611 12.3536C30.1523 12.4951 29.6423 11.9459 29.5407 11.4717Z" fill="#EFB366"/>
</g>
</g>
<path id="Union" d="M25.478 6.72424C26.2662 6.65233 27.0809 6.74913 27.7485 6.89124C28.3598 7.0214 29.0193 7.22408 29.6099 7.50061C29.6164 7.50365 29.623 7.50718 29.6294 7.51038L29.8442 7.61682L29.8833 7.63733L29.9028 7.64807L29.9077 7.651C29.9153 7.65501 29.9339 7.66491 29.9556 7.67737C31.4958 8.56518 32.9048 9.69768 34.1167 10.7731C34.5553 11.1623 35.0985 11.5759 35.7847 12.0983C36.4356 12.5938 37.1954 13.1741 37.9116 13.8082C39.2774 15.0176 40.9647 16.8256 41.3276 19.3278C41.4991 20.5109 41.2524 21.6331 40.6362 22.5768C40.0614 23.4566 39.2735 24.0188 38.6021 24.3785C37.3101 25.0705 35.8012 25.3455 35.019 25.484C34.3419 25.6039 33.5287 25.7342 32.7241 25.8268C32.7629 26.2254 32.7496 26.6763 32.6216 27.15C32.4875 27.6454 32.2467 28.0903 31.9243 28.4674L31.9419 28.5192C31.9467 28.5171 31.9517 28.5143 31.9565 28.5123L31.981 28.5026L32.0122 28.4908L32.0298 28.485C32.601 28.2686 33.6801 28.0148 34.7905 28.6168L34.9722 28.7223C35.8434 29.2725 36.1965 30.0979 36.3394 30.6217C36.3418 30.6306 36.345 30.6401 36.3472 30.649L36.3872 30.819C36.3915 30.837 36.3966 30.8554 36.3999 30.8737L36.4263 31.024L36.4302 31.0465C36.4588 31.2344 36.4691 31.4244 36.4741 31.61C36.7576 31.6576 37.0645 31.7455 37.3726 31.903L37.6626 32.0709L37.6899 32.0905L37.811 32.1764L37.8081 32.1774C37.8178 32.1842 37.8289 32.1897 37.8384 32.1969C38.8111 32.9422 39.0117 33.979 39.0229 34.61C39.3 34.7466 39.598 34.9427 39.8726 35.2252L39.9888 35.3522L40.0083 35.3756L40.0942 35.4821L40.1353 35.5358L40.228 35.6676L40.2476 35.6969C40.8833 36.6815 40.7622 37.7208 40.5522 38.3531C40.5367 38.4 40.5167 38.4456 40.4995 38.4908C40.7515 38.8417 40.9133 39.2305 40.9927 39.6227L41.0317 39.8619L41.0356 39.9039L41.0493 40.0914L41.0513 40.1354C41.0834 41.4394 40.3053 42.3357 39.7075 42.7701L39.6636 42.8043L39.6519 42.8131C39.2715 43.0869 38.8215 43.2493 38.354 43.2799L38.2974 43.2828C38.292 43.2831 38.2862 43.2826 38.2808 43.2828C38.0113 43.2993 37.6434 43.302 37.3081 43.2994L36.5249 43.2897H12.8989L12.3198 43.2946L11.7075 43.2975C11.0392 43.2993 10.1753 43.0863 9.48584 42.3864C8.76364 41.6525 8.54701 40.7031 8.63818 39.8961C8.75613 38.8566 9.37948 38.2049 9.74658 37.9088C10.0668 37.6507 10.5697 37.3583 11.2144 37.2614C11.349 36.2933 11.9092 35.5819 12.5063 35.153C12.5149 35.1468 12.525 35.1422 12.5337 35.1364L12.647 35.0592C12.655 35.0538 12.6632 35.0487 12.6714 35.0436C12.7242 35.0106 12.7786 34.9817 12.8315 34.9528C12.8204 34.7848 12.8191 34.6056 12.8364 34.4186L12.8813 34.1051C13.0288 33.3561 13.4743 32.5137 14.4097 32.0016L14.4321 31.9908L14.5444 31.9323C14.5531 31.9278 14.562 31.9228 14.5708 31.9186C14.8831 31.7705 15.1926 31.688 15.48 31.6451C15.4785 31.4494 15.4838 31.2484 15.5024 31.0485C15.5293 30.7609 15.5904 30.3586 15.7554 29.9352L15.8237 29.7711C16.0054 29.368 16.3453 28.8241 16.9722 28.4176L17.0073 28.3951L17.022 28.3854L17.0317 28.3795L17.0347 28.3785C17.7669 27.9271 18.6532 27.7959 19.4858 28.0162L19.6401 28.0602C19.5577 27.9294 19.4812 27.7902 19.4146 27.6412C19.4105 27.6321 19.4066 27.6222 19.4028 27.6129L19.3413 27.4655C19.3377 27.4566 19.3349 27.447 19.3315 27.4381C19.1113 26.8463 19.0904 26.2867 19.1401 25.8258C18.7297 25.7832 18.3113 25.7342 17.894 25.6754C16.9369 25.5404 15.9265 25.3523 15.0034 25.0817C14.136 24.8272 13.0811 24.4257 12.2417 23.7321C11.3152 22.9658 10.7013 21.9248 10.5356 20.6852L10.5073 20.4352C10.3204 18.1843 11.486 16.4165 12.396 15.3571C13.9013 13.6047 16.3904 11.8838 17.7202 10.8444C18.6849 10.0902 20.4146 8.53877 22.0786 7.67444L22.0894 7.6676L22.272 7.57678L22.2837 7.5719C23.2936 7.08153 24.3495 6.81844 25.4087 6.7301C25.4132 6.72955 25.4313 6.72644 25.4438 6.72522H25.4604C25.4604 6.72522 25.4702 6.72484 25.478 6.72424ZM11.144 42.2906C11.272 42.323 11.3978 42.3445 11.519 42.3541C11.3978 42.3445 11.272 42.3229 11.144 42.2906ZM38.4302 42.3268C38.4475 42.3241 38.4647 42.3213 38.4819 42.318C38.4647 42.3213 38.4475 42.3241 38.4302 42.3268ZM10.9565 42.234C11.0018 42.2499 11.0472 42.2634 11.0923 42.276C11.0471 42.2635 11.0018 42.2498 10.9565 42.234ZM38.7524 42.2408C38.7636 42.2365 38.7746 42.2317 38.7856 42.2272C38.7746 42.2317 38.7636 42.2365 38.7524 42.2408ZM10.7729 42.1598C10.8093 42.1764 10.8458 42.1914 10.8823 42.2057C10.8458 42.1914 10.8093 42.1764 10.7729 42.1598ZM10.5679 42.0524C10.6105 42.078 10.6535 42.1017 10.6968 42.1237C10.6534 42.1017 10.6106 42.0779 10.5679 42.0524ZM10.3892 41.9313C10.4293 41.9614 10.4691 41.9907 10.5103 42.0172C10.4691 41.9907 10.4293 41.9615 10.3892 41.9313ZM10.1538 41.7291C10.2085 41.7846 10.2651 41.8354 10.3228 41.8824C10.2651 41.8354 10.2085 41.7846 10.1538 41.7291ZM39.4067 41.8004C39.4311 41.777 39.4559 41.7533 39.48 41.7281C39.4559 41.7533 39.4311 41.777 39.4067 41.8004ZM39.5444 41.6559C39.5758 41.6205 39.608 41.5849 39.6382 41.5465C39.608 41.5849 39.5758 41.6205 39.5444 41.6559ZM9.99561 41.5475C10.0041 41.5584 10.0132 41.5689 10.022 41.5797C10.0132 41.5689 10.0041 41.5584 9.99561 41.5475ZM39.7612 41.3766C39.7683 41.3657 39.7748 41.3544 39.7817 41.3434C39.7748 41.3544 39.7683 41.3657 39.7612 41.3766ZM9.74756 41.1364C9.76783 41.1808 9.79017 41.2246 9.81396 41.2682C9.79017 41.2246 9.76782 41.1808 9.74756 41.1364ZM39.894 41.1432C39.8992 41.1328 39.9047 41.1225 39.9097 41.1119C39.9047 41.1225 39.8992 41.1328 39.894 41.1432ZM9.66455 40.9225C9.68088 40.9723 9.69888 41.0218 9.71924 41.0709C9.69889 41.0218 9.68087 40.9723 9.66455 40.9225ZM39.9458 41.0309C39.958 41.0023 39.9699 40.9735 39.981 40.944C39.9699 40.9735 39.958 41.0023 39.9458 41.0309ZM39.9917 40.9137C40.0051 40.8762 40.0183 40.8383 40.0298 40.7994C40.0183 40.8384 40.0051 40.8762 39.9917 40.9137ZM9.604 40.6979C9.61524 40.7514 9.62848 40.8048 9.64404 40.858C9.62849 40.8048 9.61523 40.7514 9.604 40.6979ZM40.0376 40.7721C40.0497 40.7286 40.0614 40.6845 40.0708 40.6393C40.0614 40.6845 40.0497 40.7286 40.0376 40.7721ZM9.58545 40.611C9.58753 40.6234 9.59096 40.6356 9.59326 40.6481C9.58054 40.5793 9.57094 40.5105 9.56494 40.442L9.58545 40.611ZM40.0728 40.6266C40.0808 40.5869 40.0875 40.5465 40.0933 40.5055C40.0875 40.5465 40.0808 40.5869 40.0728 40.6266ZM9.56201 40.4137C9.56257 40.4212 9.56333 40.4287 9.56396 40.4362C9.5578 40.3634 9.55517 40.291 9.55615 40.2194L9.56201 40.4137ZM39.4946 38.4508C39.4986 38.4432 39.5015 38.435 39.5054 38.4274C39.5015 38.435 39.4986 38.4432 39.4946 38.4508ZM11.0317 37.4967L11.0396 37.4957L11.0415 37.4948C11.0385 37.4956 11.0346 37.4958 11.0317 37.4967ZM13.8354 35.3492C13.8491 35.408 13.8635 35.4638 13.8784 35.5162C13.8635 35.4638 13.849 35.408 13.8354 35.3492ZM13.7896 35.11C13.7985 35.1701 13.8091 35.2281 13.8208 35.2838C13.8092 35.2281 13.7984 35.1701 13.7896 35.11ZM13.7603 34.7994C13.763 34.8881 13.7711 34.9739 13.7817 35.0563C13.7712 34.9739 13.763 34.8881 13.7603 34.7994ZM35.4878 32.5289L35.5161 32.2828C35.5174 32.2692 35.5178 32.2555 35.519 32.2418L35.4878 32.5289ZM35.5278 32.1227C35.5327 32.0536 35.5363 31.9842 35.5386 31.9147C35.5363 31.9842 35.5327 32.0536 35.5278 32.1227ZM35.5405 31.8248C35.542 31.7244 35.542 31.6239 35.5366 31.524C35.542 31.6239 35.542 31.7244 35.5405 31.8248ZM16.4917 30.7506C16.4833 30.7925 16.4767 30.8336 16.4702 30.8737C16.4768 30.8336 16.4832 30.7924 16.4917 30.7506ZM16.5493 30.5084C16.5306 30.5732 16.516 30.6375 16.5024 30.6998C16.5323 30.5637 16.572 30.4197 16.6284 30.275L16.5493 30.5084ZM20.4937 29.6373C20.456 29.6037 20.4165 29.5698 20.3755 29.5358C20.4165 29.5698 20.456 29.6037 20.4937 29.6373ZM20.313 29.485C20.278 29.4571 20.2418 29.4295 20.2046 29.402C20.2418 29.4295 20.278 29.4571 20.313 29.485ZM20.1284 29.3473C20.0923 29.322 20.055 29.2975 20.0171 29.2731C20.055 29.2975 20.0923 29.322 20.1284 29.3473ZM19.9272 29.2164C19.8892 29.1936 19.8498 29.1725 19.8101 29.151C19.8498 29.1725 19.8892 29.1936 19.9272 29.2164ZM28.7896 27.0455L28.8179 27.0465L28.8052 27.0455H28.7896ZM31.8667 24.9703C32.0916 24.9527 32.3219 24.9291 32.5542 24.903C32.322 24.9291 32.0917 24.9527 31.8667 24.9703ZM32.7778 24.8756C32.9564 24.854 33.1354 24.8311 33.313 24.8063C33.1354 24.8311 32.9564 24.8539 32.7778 24.8756ZM33.4575 24.7858C33.6777 24.754 33.8954 24.7222 34.1069 24.6881C33.8954 24.7222 33.6777 24.754 33.4575 24.7858ZM11.4263 20.024C11.4276 20.1229 11.4323 20.2229 11.4399 20.3239C11.4323 20.2229 11.4276 20.1229 11.4263 20.024ZM11.4341 19.6871C11.4297 19.7649 11.4278 19.8433 11.4272 19.9225C11.4278 19.8433 11.4297 19.7649 11.4341 19.6871ZM11.4595 19.3942C11.4517 19.461 11.445 19.5283 11.4399 19.5963C11.445 19.5283 11.4517 19.461 11.4595 19.3942ZM11.5093 19.0641C11.4972 19.1293 11.4857 19.195 11.4761 19.2614C11.4857 19.195 11.4972 19.1293 11.5093 19.0641ZM11.5698 18.7828C11.5552 18.8426 11.5404 18.9027 11.5278 18.9635C11.5404 18.9027 11.5552 18.8426 11.5698 18.7828ZM11.645 18.5074C11.6287 18.5615 11.6119 18.6156 11.5972 18.6705C11.6119 18.6156 11.6287 18.5615 11.645 18.5074ZM12.0249 17.5592C11.9931 17.6223 11.9631 17.6867 11.9331 17.7516C11.9631 17.6867 11.9931 17.6223 12.0249 17.5592ZM12.1753 17.278C12.1235 17.3696 12.0732 17.4634 12.0249 17.5592C12.0732 17.4634 12.1235 17.3696 12.1753 17.278ZM12.2983 17.0709C12.2569 17.1389 12.2151 17.2075 12.1753 17.278C12.2151 17.2075 12.2569 17.1389 12.2983 17.0709ZM32.3784 10.5231C32.3075 10.4651 32.2364 10.4069 32.1646 10.3492C32.2364 10.4069 32.3075 10.4651 32.3784 10.5231ZM32.0034 10.2213C31.9036 10.1424 31.8031 10.0638 31.7017 9.98596C31.8031 10.0638 31.9036 10.1424 32.0034 10.2213ZM31.5054 9.83655C31.4082 9.76345 31.3099 9.69157 31.2114 9.61975C31.3099 9.69157 31.4082 9.76344 31.5054 9.83655ZM31.0229 9.48303C30.9113 9.40337 30.7984 9.32529 30.6851 9.24768C30.7984 9.3253 30.9113 9.40336 31.0229 9.48303ZM30.5337 9.14319C30.4329 9.07546 30.3301 9.01075 30.228 8.94495C30.3301 9.01076 30.4329 9.07546 30.5337 9.14319Z" fill="white" fill-opacity="0.3"/>
</g>
</g>
</g>
</svg>
