<svg width="50" height="50" viewBox="0 0 50 50" fill="none" xmlns="http://www.w3.org/2000/svg">
<rect width="50" height="50" fill="#BEBEBE"/>
<g id="Decorate Mode">
<path d="M-238.703 -949.034V-948.034H2781.3V-949.034V-950.034H-238.703V-949.034ZM2783.3 -947.034H2782.3V2590.97H2783.3H2784.3V-947.034H2783.3ZM2781.3 2592.97V2591.97H-238.703V2592.97V2593.97H2781.3V2592.97ZM-240.703 2590.97H-239.703V-947.034H-240.703H-241.703V2590.97H-240.703ZM-238.703 2592.97V2591.97C-239.255 2591.97 -239.703 2591.52 -239.703 2590.97H-240.703H-241.703C-241.703 2592.62 -240.36 2593.97 -238.703 2593.97V2592.97ZM2783.3 2590.97H2782.3C2782.3 2591.52 2781.85 2591.97 2781.3 2591.97V2592.97V2593.97C2782.95 2593.97 2784.3 2592.62 2784.3 2590.97H2783.3ZM2781.3 -949.034V-948.034C2781.85 -948.034 2782.3 -947.587 2782.3 -947.034H2783.3H2784.3C2784.3 -948.691 2782.95 -950.034 2781.3 -950.034V-949.034ZM-238.703 -949.034V-950.034C-240.359 -950.034 -241.703 -948.691 -241.703 -947.034H-240.703H-239.703C-239.703 -947.587 -239.255 -948.034 -238.703 -948.034V-949.034Z" fill="black" fill-opacity="0.1"/>
<g id="Stickers">
<rect x="-186.694" y="-76.5342" width="374" height="551" rx="4.5" stroke="#9747FF" stroke-dasharray="10 5"/>
<g id="Property 1=cherry blossom">
<g id="Frame 122">
<path id="Vector" d="M26.1435 12.328C26.6829 12.2656 27.229 12.3383 27.7334 12.5395C28.5708 12.8812 29.1016 13.4621 29.4463 14.2812C30.4985 13.8728 31.5015 13.9075 32.4641 14.5275C33.1413 14.9685 33.6164 15.6599 33.7849 16.4503C33.9507 17.2216 33.7983 18.1354 33.3708 18.8025C33.8564 18.6839 34.2134 18.6672 34.7078 18.7612C34.8113 18.3911 34.9224 18.1375 35.1457 17.8178C35.5637 17.2221 36.2012 16.8167 36.9177 16.6903C38.5134 16.4093 40.0059 17.3971 40.282 19.011C40.6343 18.999 41.0071 18.9761 41.3513 19.046C42.9617 19.3729 43.9695 20.9832 43.6155 22.5778C43.4311 23.4084 42.9114 24.0486 42.2102 24.5046C42.7595 25.393 42.758 26.4882 42.2476 27.3923C41.8743 28.0669 41.2427 28.5607 40.4978 28.7605C39.5681 29.0085 38.9028 28.8117 38.1052 28.3557C37.533 28.8896 36.9409 29.0861 36.1685 29.0954C37.5981 29.7036 38.6423 30.1284 40.156 30.5327C40.5893 30.6489 41.0254 30.7556 41.4634 30.853C41.8674 30.9392 42.7856 31.0229 42.9424 31.4292C43.2556 32.2417 43.0957 33.5114 42.7898 34.3076C42.5188 35.0127 42.0889 35.9536 41.3938 36.3071C40.9678 36.508 40.6162 36.2382 40.2703 36.02C38.8296 35.1106 37.2461 34.288 35.6765 33.622C35.7224 33.8068 35.8313 34.1589 35.9353 34.3032C36.5176 35.1098 36.956 35.9704 36.2038 36.8496C35.8555 37.2568 35.2434 37.6423 34.6851 37.6894C34.0442 37.7436 33.8906 37.2988 33.5139 36.9182C33.2671 36.7248 33.0012 36.5734 32.7668 36.3615C31.9939 35.6628 31.977 34.572 32.1477 33.6162C32.2424 33.0859 32.4238 32.3991 32.4097 31.8613C32.3913 31.1633 31.5027 30.278 31.0344 29.8562C30.4324 29.311 29.7622 28.8464 29.0408 28.4738C26.8813 27.362 24.7092 27.1789 22.3201 27.4995C21.5744 27.5996 20.9138 27.7238 20.1959 27.9538C20.7581 29.3505 20.6622 30.7573 19.5374 31.8527C18.7841 32.5864 18.0099 32.8098 16.9716 32.7971C16.9832 33.4484 16.9112 33.873 16.5807 34.4538C16.1323 35.2285 15.3954 35.7939 14.5311 36.0263C12.7879 36.4995 11.0654 35.5595 10.6001 33.7985C10.1046 33.9758 9.55788 34.0446 9.03559 33.9685C8.20671 33.8427 7.46181 33.3928 6.96515 32.7175C6.19347 31.6699 6.10326 30.3667 6.71239 29.2126C6.97829 28.7089 7.29513 28.4282 7.74228 28.0969C6.93937 27.03 6.81352 25.6997 7.47812 24.5236C7.91003 23.7597 8.62714 23.1981 9.47231 22.962C10.4591 22.6886 11.2762 22.8746 12.1421 23.3658C12.6526 22.6721 13.3092 22.2282 14.1616 22.0697C15.0544 21.9064 15.9753 22.109 16.717 22.632C17.5686 23.2276 17.9241 23.9775 18.0948 24.9692C18.9187 24.6442 20.2369 24.3784 21.1092 24.1928C20.3158 22.9427 20.2585 21.9024 20.9674 20.6071C20.6405 20.4124 20.356 20.1543 20.1304 19.8479C19.6349 19.1621 19.4766 18.3323 19.619 17.5043C19.7657 16.6507 20.2433 15.8896 20.9481 15.3863C21.6911 14.8628 22.5351 14.7669 23.4106 14.9191C23.6916 13.4533 24.6516 12.5179 26.1435 12.328Z" fill="#020101"/>
<path id="Vector (Stroke)" d="M25.964 10.7755C26.6612 10.6949 27.3664 10.7671 28.0307 10.9855L28.3127 11.088L28.3236 11.0929C29.115 11.4158 29.7284 11.8932 30.1956 12.4869C31.2382 12.3571 32.2977 12.5618 33.3102 13.2139L33.3169 13.2181C34.214 13.8023 34.876 14.6775 35.1974 15.6894C35.6402 15.427 36.1305 15.2428 36.647 15.1517C38.6093 14.8062 40.5305 15.7479 41.4035 17.4729C41.4895 17.4838 41.5762 17.4975 41.6623 17.515C44.1563 18.0213 45.6786 20.4959 45.1413 22.9166C44.96 23.7332 44.5727 24.4135 44.0713 24.9631C44.3277 26.0423 44.1595 27.1841 43.6081 28.1608L43.6074 28.1601C43.3247 28.6673 42.9477 29.1077 42.5021 29.462C42.5698 29.4777 42.6397 29.4951 42.7102 29.5145C42.9183 29.5718 43.2054 29.666 43.4854 29.8282C43.737 29.9741 44.1283 30.2593 44.357 30.7633L44.4003 30.8664V30.8671C44.6731 31.5748 44.7046 32.3549 44.6566 32.9917C44.6072 33.6482 44.4606 34.3155 44.2483 34.8679C44.1015 35.2499 43.8845 35.7699 43.5782 36.2632C43.2827 36.7389 42.8156 37.3372 42.1023 37.6999L42.0816 37.7103L42.0602 37.7201C41.3785 38.0416 40.7319 37.964 40.2505 37.7823C39.8745 37.6404 39.5097 37.3877 39.4369 37.3417L39.4363 37.3411C38.9985 37.0647 38.5456 36.7975 38.0838 36.5397C37.9867 36.9437 37.8014 37.3394 37.5155 37.7121L37.391 37.8653C36.8502 38.4974 35.8861 39.1557 34.8166 39.246L34.8172 39.2466C34.4665 39.2762 34.1054 39.2422 33.7521 39.1141C33.4004 38.9866 33.1366 38.7947 32.944 38.6179C32.7679 38.4562 32.6275 38.2826 32.5576 38.1974C32.5155 38.146 32.4857 38.1106 32.463 38.0839C32.4076 38.0441 32.3419 37.9982 32.2409 37.9276C32.1046 37.8323 31.9124 37.6954 31.719 37.5205C30.2992 36.2369 30.4232 34.3843 30.6094 33.3414L30.6997 32.8812C30.7303 32.7314 30.758 32.5955 30.7821 32.4625C30.8203 32.2521 30.8395 32.1002 30.8456 31.9944C30.8128 31.9316 30.7542 31.8379 30.6607 31.7185C30.4581 31.4599 30.1942 31.2024 29.9887 31.0172L29.9856 31.0141C29.4843 30.5602 28.9262 30.1734 28.3255 29.863L27.9879 29.6982C26.296 28.916 24.5612 28.7755 22.5283 29.0482C22.3703 29.0694 22.2189 29.0917 22.0724 29.1153C22.1828 30.3965 21.8339 31.7062 20.7815 32.8159L20.6277 32.9722C19.917 33.6643 19.1681 34.043 18.37 34.2234C18.2778 34.5447 18.1405 34.8728 17.9391 35.2268L17.933 35.2366C17.2781 36.3679 16.2021 37.1937 14.9398 37.5339L14.9405 37.5345C12.8793 38.0939 10.7729 37.2859 9.67801 35.5558C9.39156 35.5687 9.10062 35.5573 8.81009 35.5149L8.80582 35.5137L8.80154 35.5131C7.56314 35.3252 6.45025 34.6528 5.70767 33.6435L5.70706 33.6442C4.57503 32.1073 4.4455 30.1597 5.33048 28.483C5.47485 28.2095 5.63227 27.9777 5.79678 27.775C5.31134 26.4917 5.38382 25.0535 6.11783 23.7546L6.24234 23.5477C6.88635 22.5296 7.88616 21.783 9.05179 21.4573L9.05545 21.456C10.0554 21.179 10.9484 21.2349 11.7727 21.4988C12.3601 21.0203 13.0595 20.6856 13.876 20.5338L13.8809 20.5326C15.1842 20.2942 16.5283 20.5897 17.612 21.3517H17.6126C18.1972 21.7605 18.6218 22.2273 18.9328 22.7341C18.9243 22.6515 18.9175 22.568 18.9138 22.4839C18.8925 21.9866 18.9598 21.5098 19.0939 21.0495C19.0168 20.9607 18.9423 20.8693 18.8723 20.7743L18.8638 20.7633C18.0968 19.7017 17.8736 18.4363 18.0795 17.2391C18.296 15.9801 19.0003 14.8572 20.0399 14.1147L20.0442 14.1117L20.0485 14.1092C20.7746 13.5976 21.5486 13.3628 22.3086 13.306C22.5411 12.8274 22.851 12.3907 23.2443 12.0151C23.9789 11.3137 24.9152 10.9093 25.9463 10.7779L25.9555 10.7767L25.964 10.7755ZM27.7334 12.5394C27.2291 12.3382 26.6827 12.2659 26.1435 12.3282C24.6517 12.5183 23.6919 13.4534 23.4109 14.9192L23.2467 14.8935C22.43 14.7806 21.6446 14.8954 20.9482 15.3861C20.2434 15.8893 19.7661 16.6506 19.6194 17.504L19.5962 17.6597C19.4981 18.4355 19.6664 19.2048 20.1309 19.8478L20.2182 19.9607C20.4282 20.2179 20.6818 20.4367 20.9677 20.607C20.2588 21.9023 20.3159 22.9427 21.1093 24.1929C20.2369 24.3785 18.9186 24.6443 18.0948 24.9692C17.9347 24.0395 17.6123 23.3225 16.871 22.7457L16.7172 22.6322C15.9755 22.1092 15.0544 21.9061 14.1617 22.0694C13.3092 22.2279 12.6524 22.6721 12.142 23.3658L11.9803 23.2773C11.1734 22.8532 10.3974 22.7055 9.47232 22.9618C8.62719 23.198 7.9102 23.7598 7.4783 24.5237C6.81373 25.6997 6.93972 27.0298 7.74258 28.0967C7.29546 28.428 6.9782 28.7088 6.71231 29.2124C6.10318 30.3664 6.19393 31.67 6.96561 32.7176C7.46226 33.3928 8.20714 33.8425 9.03592 33.9683C9.55815 34.0444 10.1048 33.9758 10.6002 33.7986C11.0656 35.5595 12.7882 36.4995 14.5315 36.0264C15.3417 35.8084 16.0396 35.2976 16.4932 34.5963L16.5811 34.4541C16.9116 33.8733 16.9834 33.4484 16.9717 32.797C17.9451 32.8089 18.6865 32.6135 19.396 31.9846L19.5376 31.8528C20.6624 30.7573 20.7584 29.3505 20.1962 27.9538C20.7346 27.7814 21.2406 27.6683 21.7746 27.5803L22.3202 27.4997C24.7093 27.1792 26.8814 27.3621 29.0408 28.4739C29.7622 28.8464 30.4328 29.3111 31.0348 29.8563C31.5031 30.2783 32.3916 31.1634 32.4099 31.8613C32.4241 32.3991 32.2428 33.0858 32.1481 33.6161L32.1182 33.7967C31.9822 34.7067 32.0424 35.7064 32.767 36.3614C33.0014 36.5733 33.2673 36.7247 33.5141 36.9181C33.8908 37.2987 34.0445 37.7438 34.6853 37.6896C35.2088 37.6453 35.7792 37.3035 36.1355 36.9254L36.2039 36.8497C36.9561 35.9706 36.5176 35.11 35.9353 34.3033C35.8314 34.1591 35.7225 33.807 35.6765 33.6222C37.2461 34.2882 38.83 35.1108 40.2707 36.0203C40.5949 36.2248 40.9242 36.4746 41.315 36.3395L41.3937 36.3071C42.0019 35.9978 42.4076 35.2389 42.6809 34.5817L42.7902 34.3076C43.0961 33.5115 43.2559 32.2417 42.9428 31.4292C42.8252 31.1245 42.279 31.0009 41.8429 30.922L41.4633 30.853C41.0254 30.7556 40.5892 30.6488 40.1559 30.5326C38.6424 30.1283 37.5981 29.7033 36.1685 29.0952C36.9409 29.0859 37.5329 28.8894 38.1051 28.3555C38.8529 28.783 39.4847 28.9828 40.3268 28.8016L40.4977 28.7607C41.2425 28.561 41.8743 28.0668 42.2476 27.3923C42.7581 26.4883 42.7596 25.3932 42.2104 24.5047C42.8678 24.0772 43.3654 23.4875 43.5769 22.7311L43.6154 22.5779C43.9583 21.033 43.0234 19.4737 41.5005 19.0806L41.3516 19.0458C41.0074 18.9759 40.6345 18.999 40.2823 19.011L40.253 18.8614C39.9129 17.3366 38.4638 16.4183 36.918 16.6904L36.7843 16.7173C36.1225 16.8681 35.538 17.2594 35.1461 17.8177C34.9228 18.1374 34.8114 18.3912 34.7079 18.7613C34.2136 18.6673 33.8567 18.6836 33.3712 18.8022C33.7719 18.1769 33.9308 17.3346 33.8125 16.5964L33.7851 16.4506C33.6271 15.7096 33.1996 15.0556 32.5888 14.6134L32.4643 14.5273C31.5017 13.9074 30.4988 13.873 29.4467 14.2814L29.3795 14.1306C29.0341 13.3905 28.5185 12.8598 27.7334 12.5394Z" fill="#E8E7E7"/>
<path id="Vector (Stroke) (Stroke)" d="M25.8586 9.86339C26.6881 9.76746 27.5269 9.85354 28.3172 10.1133C28.3262 10.1163 28.3357 10.1196 28.3447 10.1229L28.6269 10.2245L28.6855 10.2484L28.6963 10.2532L28.6951 10.2544C29.4478 10.5655 30.0729 11.0006 30.582 11.5351C31.6691 11.4955 32.7656 11.7718 33.8035 12.4391L33.8095 12.4439L33.8178 12.4487C34.601 12.9587 35.2335 13.6541 35.6689 14.4624C35.9339 14.3696 36.2078 14.2966 36.488 14.2472C38.6763 13.862 40.8457 14.8157 41.9899 16.6483C44.9177 17.3252 46.6717 20.2576 46.0376 23.1151C45.8571 23.9284 45.5049 24.6284 45.0523 25.2173C45.2198 26.3832 44.9921 27.5773 44.4077 28.6122C44.3089 28.7891 44.1983 28.9576 44.0813 29.1204C44.3715 29.3077 44.7635 29.621 45.0559 30.1189L45.1934 30.3844L45.2041 30.4071L45.2472 30.5111C45.2505 30.5191 45.2512 30.5281 45.2544 30.5362H45.2568C45.5978 31.4208 45.6257 32.3539 45.5724 33.0605C45.5169 33.7984 45.3531 34.5545 45.1061 35.1974C44.9525 35.5971 44.7106 36.1803 44.3587 36.7472C44.024 37.2861 43.4468 38.0459 42.5184 38.5181L42.5136 38.5217L42.4921 38.5313C42.4825 38.5361 42.4731 38.5412 42.4634 38.5456L42.4419 38.5552L42.4407 38.554C41.4854 39.0005 40.5772 38.8871 39.9259 38.6413C39.6691 38.5443 39.4338 38.4168 39.2647 38.3172C39.1775 38.266 39.1019 38.2189 39.0446 38.1821C39.0162 38.1638 38.9922 38.1473 38.9741 38.1355C38.9649 38.1295 38.958 38.1259 38.9526 38.1223L38.9466 38.1175L38.5221 37.8581C38.4385 37.9981 38.3474 38.1366 38.2446 38.2706C38.2394 38.2774 38.2333 38.2842 38.2279 38.2909L38.1035 38.4452C38.0989 38.4509 38.094 38.4563 38.0892 38.4619C37.4362 39.2251 36.2649 40.0454 34.894 40.1611C34.4312 40.2002 33.9344 40.1567 33.4388 39.977C32.9454 39.798 32.58 39.5301 32.3231 39.2942C32.0927 39.0827 31.9138 38.8613 31.8472 38.78C31.8429 38.7748 31.8392 38.7693 31.8352 38.7645C31.8024 38.7414 31.763 38.7147 31.7144 38.6808C31.572 38.5812 31.3413 38.4164 31.1034 38.2012C29.3019 36.5724 29.5109 34.2701 29.7055 33.1801L29.7079 33.1646L29.7988 32.7042L29.8 32.697C29.8308 32.5462 29.8568 32.4202 29.8789 32.2988C29.8835 32.2734 29.8846 32.2485 29.8885 32.2259C29.7381 32.0448 29.5445 31.8531 29.3743 31.6997C29.3727 31.6983 29.3711 31.6964 29.3695 31.6949L29.0287 31.4056C28.6786 31.1277 28.3013 30.8841 27.9034 30.6785H27.9022L27.6021 30.5314C26.2035 29.8849 24.7543 29.7244 22.9983 29.9192C22.9238 31.1512 22.4569 32.3835 21.4474 33.448L21.4366 33.4599L21.2823 33.6166C21.2778 33.6212 21.2726 33.6252 21.268 33.6297C20.5829 34.2968 19.8513 34.7247 19.0773 34.9774C18.984 35.2083 18.8733 35.4421 18.7377 35.6805C18.7347 35.6858 18.7301 35.6908 18.7269 35.6961C17.9573 37.0256 16.6977 37.9981 15.2185 38.4081C15.206 38.4121 15.1941 38.4178 15.1814 38.4213C12.9179 39.0355 10.5787 38.2556 9.20127 36.4721C9.02834 36.4642 8.85338 36.4488 8.67752 36.4231L8.67632 36.4219V36.4231L8.67154 36.4219L8.66436 36.4207C7.19098 36.1972 5.86591 35.3999 4.97893 34.2025C4.97549 34.198 4.97154 34.1939 4.96817 34.1894C3.62421 32.3648 3.47153 30.0375 4.51855 28.0538C4.60169 27.8963 4.68897 27.7498 4.77924 27.6125C4.38665 26.2082 4.53869 24.6829 5.31854 23.3029L5.3305 23.2814L5.45605 23.0745L5.46682 23.0566C6.22464 21.8587 7.39694 20.9778 8.76481 20.5849C8.77977 20.5799 8.79505 20.5747 8.81025 20.5705C9.80739 20.2943 10.7288 20.3002 11.5845 20.4976C12.1896 20.0871 12.8799 19.7938 13.6532 19.6426L13.658 19.6414C13.6769 19.6366 13.6962 19.6329 13.7154 19.6294C15.0186 19.3911 16.3556 19.604 17.5132 20.2177C17.0898 19.2051 16.9972 18.1159 17.1748 17.0836C17.4322 15.5862 18.27 14.2502 19.5066 13.3671L19.5102 13.3647L19.5257 13.3539C20.2358 12.855 20.9862 12.5784 21.7272 12.4547C21.9679 12.0561 22.2607 11.6843 22.6097 11.351L22.7807 11.1955C23.6463 10.4383 24.7063 10.0101 25.8299 9.86698V9.86818L25.8347 9.86698L25.8586 9.86339ZM25.5645 10.8404C24.6846 11.0153 23.8873 11.4011 23.2446 12.0146L23.1011 12.1593C22.7752 12.5011 22.5118 12.8873 22.3083 13.3061C21.5484 13.3629 20.7743 13.5981 20.0483 14.1096L20.0447 14.112L20.0399 14.1144C19.0003 14.8569 18.2965 15.9801 18.08 17.239L18.0465 17.4638C17.904 18.5932 18.1443 19.7677 18.8633 20.763L18.8728 20.7738C18.9428 20.8688 19.0169 20.9612 19.0941 21.05C18.9601 21.5101 18.8921 21.9867 18.9135 22.4838C18.9171 22.5677 18.9242 22.6513 18.9326 22.7337C18.6217 22.2271 18.1969 21.7601 17.6125 21.3514C16.5288 20.5894 15.1837 20.2939 13.8804 20.5322L13.8756 20.5334C13.0593 20.6853 12.3595 21.0201 11.7722 21.4984C10.948 21.2348 10.0551 21.1796 9.05539 21.4566L9.0518 21.4578L8.83536 21.5236C7.76272 21.8777 6.84664 22.5936 6.24289 23.548L6.11733 23.7549L5.98818 24C5.37726 25.2329 5.34177 26.5721 5.79686 27.7751C5.63236 27.9778 5.47486 28.2096 5.3305 28.4831C4.5009 30.0548 4.56272 31.8647 5.50628 33.3511L5.70717 33.6441C6.40338 34.5903 7.42563 35.2401 8.57109 35.4725L8.80188 35.5131H8.80546L8.81025 35.5155C9.10072 35.5578 9.392 35.5691 9.67839 35.5562C10.7734 37.286 12.8801 38.0933 14.9411 37.534H14.9399C16.202 37.1937 17.278 36.3681 17.9329 35.2369L17.9389 35.2273C18.1403 34.8734 18.2784 34.5442 18.3706 34.2229C19.0687 34.065 19.729 33.7556 20.3592 33.2172L20.6283 32.9721L20.7813 32.8154C21.8335 31.7059 22.183 30.3966 22.0728 29.1156L22.5284 29.0487C24.5612 28.7759 26.2964 28.9157 27.9883 29.698L28.3256 29.863C28.9263 30.1734 29.484 30.5606 29.9853 31.0145L29.9889 31.0169L30.3261 31.3398C30.4431 31.4597 30.5596 31.5895 30.6609 31.7189C30.754 31.8378 30.8122 31.9312 30.8451 31.9939C30.8389 32.0997 30.8199 32.2522 30.7817 32.4626L30.6992 32.8812L30.6095 33.3416L30.5449 33.7673C30.4158 34.8381 30.4767 36.3975 31.7192 37.5208C31.9124 37.6955 32.1044 37.8322 32.2406 37.9274C32.3416 37.998 32.4076 38.0443 32.463 38.0841C32.4857 38.1108 32.5153 38.1463 32.5575 38.1977C32.6273 38.2828 32.7678 38.4559 32.9437 38.6174C33.1362 38.7941 33.4005 38.9861 33.7521 39.1136C34.1054 39.2417 34.4668 39.276 34.8175 39.2464H34.8163C35.8858 39.1561 36.85 38.4973 37.3909 37.8652L37.5152 37.7122C37.801 37.3394 37.9873 36.9431 38.0844 36.5391C38.3154 36.6681 38.5438 36.8001 38.7696 36.9337L39.4368 37.3415C39.5096 37.3875 39.8741 37.6407 40.25 37.7827C40.7314 37.9644 41.3787 38.042 42.0604 37.7205L42.0819 37.7098L42.1023 37.7002C42.8155 37.3375 43.2824 36.7386 43.5779 36.2629C43.8074 35.8932 43.9871 35.5086 44.1243 35.1783L44.2487 34.8674C44.4609 34.3151 44.607 33.6474 44.6565 32.9912C44.7044 32.3546 44.6732 31.5749 44.4006 30.8675V30.8663L44.3575 30.7634C44.1859 30.3851 43.9221 30.13 43.6951 29.9646L43.4858 29.8283C43.2058 29.666 42.9178 29.5723 42.7097 29.515C42.6393 29.4957 42.5692 29.478 42.5017 29.4624C42.8916 29.1523 43.2289 28.7757 43.4966 28.3467L43.6078 28.1602C44.1591 27.1836 44.3281 26.0417 44.0717 24.9626C44.5102 24.4818 44.8619 23.9013 45.0642 23.2168L45.1408 22.9166C45.6614 20.5715 44.2494 18.1755 41.893 17.5679L41.6622 17.5153C41.5763 17.4978 41.4898 17.4844 41.4039 17.4734C40.531 15.7485 38.6094 14.8057 36.6471 15.1512L36.2644 15.2373C35.8881 15.3398 35.5296 15.4926 35.1978 15.6893C34.8763 14.6774 34.2139 13.8017 33.3168 13.2176L33.3108 13.214C32.2984 12.562 31.2384 12.3571 30.1958 12.487L30.014 12.2693C29.5728 11.7758 29.0156 11.3752 28.3232 11.0927L28.3124 11.0879L28.0302 10.985C27.3661 10.7668 26.6609 10.6952 25.9639 10.7758L25.9555 10.777L25.9459 10.7782L25.5645 10.8404ZM26.1432 12.3279C26.6825 12.2655 27.2293 12.3384 27.7336 12.5396C28.5187 12.86 29.0337 13.3911 29.379 14.1312L29.4472 14.2818C30.4992 13.8736 31.5018 13.9073 32.4642 14.527L32.5886 14.6131C33.1993 15.0553 33.6276 15.71 33.7855 16.451L33.813 16.5969C33.9311 17.3348 33.7721 18.1767 33.3718 18.8019C33.8568 18.6835 34.2136 18.6674 34.7075 18.7613C34.811 18.3912 34.923 18.1375 35.1463 17.8178C35.5382 17.2595 36.1227 16.8685 36.7846 16.7177L36.9185 16.6902C38.4641 16.4183 39.9135 17.337 40.2536 18.8617L40.2823 19.0112C40.6344 18.9992 41.0072 18.976 41.3513 19.0459L41.5008 19.0806C43.0235 19.4738 43.9579 21.0334 43.6149 22.5782L43.5767 22.7313C43.3651 23.4876 42.8672 24.0772 42.2099 24.5047C42.7591 25.393 42.7586 26.4885 42.2481 27.3925C41.8749 28.067 41.2424 28.5608 40.4975 28.7605L40.3265 28.8011C39.4845 28.9822 38.8525 28.7827 38.1047 28.3551C37.5325 28.8889 36.9411 29.086 36.1688 29.0953C37.5981 29.7033 38.6423 30.1284 40.1555 30.5326C40.5888 30.6488 41.0258 30.7557 41.4637 30.8531L41.8428 30.9225C42.2789 31.0014 42.8253 31.1248 42.9429 31.4295C43.2559 32.242 43.0957 33.5117 42.7898 34.3078L42.681 34.5816C42.4078 35.2387 42.0022 35.9976 41.3944 36.3071L41.3154 36.3394C40.9246 36.4745 40.5945 36.2247 40.2703 36.0201C38.8297 35.1108 37.2455 34.2885 35.6761 33.6226C35.722 33.8074 35.8317 34.1587 35.9356 34.303C36.5178 35.1096 36.9556 35.9709 36.2034 36.85L36.1353 36.9253C35.7791 37.3032 35.2092 37.645 34.686 37.6894L34.5712 37.6942C34.1702 37.6903 33.9793 37.4661 33.7664 37.2063L33.5141 36.9182C33.2673 36.7248 33.0011 36.5728 32.7667 36.3609C32.0426 35.7059 31.9827 34.7068 32.1186 33.7971L32.1485 33.6166C32.2314 33.1526 32.3803 32.5682 32.4068 32.0692L32.4104 31.8612C32.3965 31.3376 31.8926 30.7089 31.4442 30.2492L31.0352 29.8558C30.4332 29.3107 29.7621 28.846 29.0406 28.4735C26.8813 27.3619 24.7093 27.1796 22.3203 27.5001L21.775 27.5802C21.2412 27.6682 20.7348 27.7809 20.1966 27.9533C20.7587 29.35 20.6624 30.7574 19.5377 31.8528L19.3966 31.9843L19.1275 32.2008C18.4971 32.6591 17.823 32.8079 16.9715 32.7975C16.9831 33.4484 16.9118 33.8733 16.5817 34.4536L16.4932 34.5959C16.0397 35.297 15.342 35.8081 14.5321 36.0261C12.7888 36.4992 11.0657 35.5593 10.6003 33.7983C10.1666 33.9535 9.69376 34.0252 9.23236 33.9897L9.03625 33.9681C8.20747 33.8424 7.4618 33.3925 6.96514 32.7174C6.19377 31.6698 6.10379 30.3664 6.71283 29.2125C6.97866 28.709 7.29543 28.428 7.74241 28.0968C6.98977 27.0967 6.8326 25.8652 7.36334 24.7462L7.47814 24.5238C7.91003 23.7599 8.62759 23.1983 9.47272 22.9621C10.3977 22.7059 11.1735 22.8537 11.9803 23.2778L12.1417 23.3663C12.6521 22.6726 13.3092 22.2286 14.1614 22.07C15.054 21.9067 15.9752 22.1092 16.7168 22.632L16.8711 22.7456C17.6124 23.3224 17.9344 24.0401 18.0944 24.9698C18.9181 24.6449 20.2366 24.3782 21.109 24.1926C20.3654 23.0207 20.2686 22.0328 20.8435 20.8467L20.9679 20.6076C20.682 20.4372 20.4281 20.2178 20.2181 19.9607L20.1308 19.8482C19.6663 19.2054 19.4982 18.4358 19.5963 17.66L19.619 17.5045C19.7657 16.6511 20.244 15.8888 20.9487 15.3856C21.6451 14.8952 22.4305 14.7812 23.247 14.8941L23.4109 14.9192C23.6918 13.4535 24.6516 12.5181 26.1432 12.3279ZM26.2533 13.2391C25.6782 13.3135 25.257 13.523 24.957 13.8095C24.6547 14.0983 24.4229 14.5168 24.3125 15.0926C24.2191 15.5781 23.7583 15.9028 23.2698 15.8268L23.1167 15.8017C22.4724 15.7134 21.938 15.812 21.4773 16.1365C20.9743 16.4974 20.6324 17.0414 20.5254 17.6516L20.5063 17.7831C20.4374 18.3421 20.5593 18.8656 20.8674 19.2982L20.9344 19.3843C21.0758 19.5564 21.2457 19.7039 21.4378 19.8184C21.8621 20.0712 22.0107 20.6143 21.7738 21.0476C21.4748 21.594 21.3767 22.0118 21.3924 22.3773C21.4082 22.7461 21.5439 23.1636 21.885 23.7011C22.046 23.9549 22.072 24.2718 21.9556 24.5489C21.839 24.826 21.5943 25.028 21.3003 25.0906C20.3865 25.2851 19.1654 25.5342 18.4316 25.8236C18.1746 25.9249 17.8856 25.9052 17.6448 25.7698C17.4039 25.6343 17.2361 25.3976 17.1892 25.1253C17.0546 24.3435 16.8136 23.8646 16.3067 23.4703H16.3055L16.1883 23.383L15.979 23.2515C15.4803 22.97 14.8967 22.8682 14.3288 22.9717C13.7268 23.0837 13.2672 23.3868 12.8819 23.9103C12.6094 24.2807 12.1051 24.3917 11.7017 24.171L11.539 24.0825H11.5378C10.9041 23.7524 10.372 23.6658 9.71785 23.847L9.71666 23.8458C9.10688 24.0169 8.59006 24.4241 8.27812 24.9758C7.80332 25.8161 7.88089 26.7527 8.47662 27.5444C8.62377 27.7399 8.6863 27.9862 8.65121 28.2284C8.61608 28.4706 8.48554 28.6889 8.28888 28.8346C7.8864 29.1328 7.69671 29.3161 7.52477 29.6418C7.10607 30.4354 7.1389 31.2975 7.60609 32.0286L7.70534 32.1733C8.05621 32.6502 8.58212 32.9689 9.16779 33.0593C9.52541 33.1115 9.92076 33.066 10.2906 32.9338C10.5328 32.8472 10.8009 32.8666 11.0284 32.9864C11.2274 33.0913 11.38 33.2648 11.4589 33.4731L11.5594 33.7912C11.9672 34.891 13.0969 35.4638 14.2906 35.14H14.2929C14.8828 34.9814 15.3912 34.6085 15.7219 34.0973L15.7949 33.9789C16.0152 33.5859 16.0624 33.3322 16.0532 32.813C16.0488 32.5648 16.146 32.3254 16.321 32.1493C16.4961 31.9734 16.7353 31.8761 16.9835 31.8791C17.7922 31.8889 18.2886 31.7365 18.7808 31.3027L18.8955 31.1951C19.6866 30.4247 19.8056 29.4433 19.344 28.2965C19.2488 28.0599 19.2571 27.7943 19.3655 27.5635C19.4739 27.3328 19.6728 27.1571 19.9156 27.0792C20.5048 26.8904 21.0565 26.7676 21.6255 26.6738L21.6399 26.6714L22.1864 26.5913L22.1983 26.5889C24.717 26.251 27.0909 26.4374 29.4616 27.658H29.4628C30.2539 28.0666 30.9893 28.5763 31.6499 29.1742L31.8603 29.3691C32.0894 29.5875 32.3662 29.8735 32.6137 30.1894C32.9105 30.5684 33.31 31.1688 33.3276 31.8372L33.324 32.1135C33.3095 32.3908 33.267 32.6657 33.2235 32.9051C33.1937 33.0692 33.16 33.2316 33.1302 33.3774C33.0996 33.5275 33.0738 33.6587 33.0525 33.778L33.0513 33.7768L33.025 33.9311L33.0262 33.9323C32.9014 34.7677 33.0166 35.3496 33.3826 35.6805C33.455 35.746 33.5414 35.81 33.6624 35.8946L34.0809 36.1947L34.167 36.2724C34.2972 36.404 34.4065 36.5383 34.4767 36.624C34.5443 36.7064 34.5807 36.7481 34.607 36.7747C34.8427 36.7548 35.2165 36.5607 35.4668 36.2952L35.5087 36.2473C35.6956 36.027 35.7019 35.8831 35.6713 35.7355C35.625 35.5131 35.4719 35.2308 35.1906 34.8411V34.8399C35.0554 34.6523 34.9662 34.4183 34.9191 34.2862C34.8621 34.1259 34.8147 33.9624 34.7852 33.8438C34.7013 33.5061 34.816 33.1502 35.0806 32.9242C35.3452 32.6983 35.7145 32.6413 36.0348 32.7771C37.6481 33.4617 39.2764 34.3071 40.7606 35.2441C40.8047 35.2719 40.8524 35.3022 40.8885 35.3254C40.9273 35.3502 40.9603 35.3711 40.9914 35.3899C41.021 35.4079 41.0468 35.4199 41.0667 35.4306C41.1641 35.3583 41.2793 35.2404 41.4039 35.0575C41.5656 34.8203 41.7078 34.5303 41.8332 34.2288L41.9349 33.9717C42.0518 33.665 42.1496 33.2402 42.1824 32.8058C42.2086 32.4573 42.1872 32.1579 42.1357 31.9341C42.0897 31.9189 42.0346 31.901 41.9683 31.8851L41.679 31.8253L41.2987 31.7571C41.2871 31.755 41.2755 31.7525 41.264 31.75C40.8133 31.6497 40.3637 31.5396 39.9176 31.4199V31.4187C38.3404 30.9973 37.2477 30.5528 35.8088 29.9407C35.4091 29.7707 35.1829 29.3433 35.2671 28.9171C35.3513 28.4909 35.7236 28.1821 36.158 28.1769C36.7375 28.1699 37.0982 28.0386 37.4781 27.6843L37.5953 27.591C37.8812 27.4002 38.2559 27.384 38.5615 27.5587C39.1966 27.9217 39.5917 28.0195 40.1304 27.9043L40.2596 27.872C40.7635 27.7369 41.192 27.4041 41.4446 26.9477L41.4482 26.9405C41.8015 26.3145 41.7941 25.5782 41.429 24.9878C41.1667 24.5633 41.2917 24.0066 41.71 23.7346C42.2154 23.4058 42.5464 22.9902 42.6882 22.4957L42.7217 22.3666C42.9523 21.2973 42.299 20.2357 41.2712 19.9702H41.27L41.1684 19.9463L41.0021 19.9236C40.8261 19.9096 40.6151 19.9181 40.3134 19.9284C39.8628 19.9436 39.4673 19.6294 39.3806 19.187L39.3567 19.0614L39.3053 18.8749C39.0079 17.9645 38.0972 17.4159 37.0776 17.5954L37.0764 17.5942L36.9735 17.6157C36.5392 17.7185 36.1564 17.9779 35.8985 18.3451L35.8973 18.3439C35.7412 18.5675 35.6717 18.7251 35.5924 19.0088C35.4639 19.4681 35.0051 19.7531 34.5365 19.6641C34.1809 19.5965 33.9569 19.6042 33.5894 19.694C33.2249 19.783 32.8427 19.6417 32.6244 19.3364C32.4062 19.0309 32.3956 18.623 32.5981 18.3069C32.8694 17.8834 32.9903 17.2715 32.9054 16.7416V16.7404L32.8839 16.6316C32.772 16.1194 32.4766 15.6665 32.054 15.3592L31.962 15.2971C31.2831 14.8617 30.5961 14.8207 29.7784 15.138C29.322 15.3148 28.8069 15.1021 28.6078 14.6549L28.5408 14.5043H28.5396C28.2843 13.9646 27.9353 13.6145 27.3893 13.391C27.029 13.248 26.6388 13.1952 26.2533 13.2391Z" fill="#020101"/>
<path id="Vector_2" d="M25.2968 23.8873C25.3322 23.9304 25.4243 24.35 25.4458 24.4313C25.7934 25.7492 27.3239 26.2431 28.5119 25.7688C28.6936 25.6962 28.8574 25.6047 29.0285 25.5119C30.2526 25.6735 31.5317 25.3596 32.6342 24.8374C32.7841 25.1801 32.8815 25.2978 33.1416 25.5617C32.2475 25.9953 31.7832 26.1657 30.8193 26.3967C31.0659 26.7202 31.9538 27.4533 32.2883 27.7224C34.4794 29.4851 36.5957 30.5156 39.2795 31.3159C39.7836 31.4689 40.2936 31.6022 40.8083 31.7155C41.1447 31.7875 41.7453 31.8786 42.0454 31.999L42.0781 32.0124C42.1914 33.0117 41.8508 34.5817 41.1096 35.2922C41.0097 35.2565 40.9055 35.196 40.8139 35.1423C40.2814 34.8303 39.76 34.5022 39.218 34.2067C38.0212 33.5542 36.7763 32.9978 35.5568 32.3901C35.2536 32.239 34.9421 32.0871 34.633 31.9487C34.5959 32.4707 34.5869 32.9128 34.6491 33.4377C34.7131 33.9843 34.9108 34.5419 35.2167 34.997C35.8117 35.8815 35.7548 36.2927 34.6965 36.6899C34.6062 36.5617 34.444 36.2641 34.3344 36.1748C33.9807 35.8867 33.4855 35.7946 33.2546 35.3247C32.6013 33.9951 33.9362 32.531 33.2365 30.9938C32.4758 29.3234 30.3835 27.9013 28.7663 27.2109C26.5561 26.2673 24.244 26.1726 21.9053 26.5273C20.8547 26.6867 19.6154 26.9711 18.6389 27.3723C18.0025 27.0305 17.3408 27.0009 16.6382 27.1174C16.9234 26.7739 17.0496 26.6391 17.263 26.2431C18.0198 26.0595 18.7874 25.7297 19.5507 25.5427C20.0397 25.4228 20.5181 25.3042 21.0109 25.1967C21.4739 25.0944 21.9405 25.01 22.4099 24.9436C23.0136 24.861 23.7006 24.8181 24.2703 24.6223C24.6435 24.4941 25.0046 24.1472 25.2968 23.8873Z" fill="#8AB17D"/>
<path id="Vector_3" d="M17.1856 27.3191C17.2978 27.3061 17.4522 27.3176 17.5652 27.3298C18.4616 27.4272 19.176 27.9631 19.4321 28.8361C19.6007 29.4255 19.5304 30.0573 19.2366 30.5954C18.9398 31.1274 18.4459 31.5214 17.8613 31.6928C17.2385 31.8725 16.6325 31.8139 16.067 31.4961C15.9222 31.4148 15.7876 31.3166 15.6659 31.2038C15.4869 31.0388 14.1422 29.612 14.1138 29.509C14.1468 29.4218 14.1207 29.4568 14.1949 29.4006C14.282 29.3886 14.4497 29.4892 14.5258 29.5373C14.8422 29.737 15.2081 29.8615 15.5022 30.0935C15.5022 30.0935 15.5343 30.1836 15.5374 30.1919C15.6052 30.3354 15.8488 30.3032 15.8965 30.114C15.8315 29.7343 14.2317 29.4099 14.3204 29.0854C14.5026 29.0344 15.2797 29.2229 15.5112 29.2546C15.7524 29.2878 15.9635 29.4694 16.2124 29.2422C16.2827 29.0122 15.9376 29.0769 15.8766 29.0673C15.6859 29.0376 14.4106 28.8964 14.3587 28.8398C14.4441 28.6723 15.3511 28.5927 15.5685 28.5503C15.7596 28.5129 16.2137 28.6616 16.2225 28.2893C16.224 28.2277 16.1795 28.2046 16.1367 28.1721C15.8638 28.1228 15.8805 28.2946 15.7339 28.309C15.4976 28.3325 14.467 28.6274 14.3084 28.5422C14.3517 28.4941 14.3802 28.4782 14.4416 28.4533C15.16 28.1611 15.8324 27.7819 16.5349 27.4621C16.7207 27.3776 16.9853 27.3393 17.1856 27.3191Z" fill="#F4A261"/>
<path id="Vector_4" d="M22.5765 15.8438C23.8904 15.729 24.5376 16.7013 25.2029 17.6454C25.3704 17.8828 26.2505 18.7606 26.2939 18.9347L26.2612 18.9547C25.9929 18.8923 24.9995 18.1391 24.7085 17.9355C24.6477 17.742 24.4807 17.5345 24.3187 17.7752C24.2903 18.0597 24.6643 18.1046 24.8091 18.233C24.9436 18.3522 26.0994 19.055 26.144 19.155L26.125 19.2035C25.9912 19.256 24.8052 18.7364 24.5749 18.6735C24.4675 18.6442 24.2345 18.4852 24.0855 18.4496C23.9637 18.4834 23.9015 18.5156 23.9444 18.6549C24.0978 18.8165 24.3776 18.8117 24.581 18.8794C24.8137 18.9569 25.0439 19.0452 25.2737 19.1317C25.4597 19.1951 25.9189 19.3336 26.0503 19.4493L26.0329 19.4734C25.5449 19.5046 24.9045 19.368 24.405 19.3495C24.1603 19.3405 23.8109 19.1582 23.6678 19.4002C23.6493 19.7874 24.06 19.5345 24.1107 19.5455C24.3729 19.602 25.9726 19.5938 26.041 19.7057C25.991 19.7646 25.0559 19.8763 24.885 19.8942C23.8202 20.0059 22.2339 20.4233 21.3312 19.6509C19.866 18.3969 20.6153 16.053 22.5765 15.8438Z" fill="#F4A261"/>
<path id="Vector_5" d="M9.43721 28.539C10.2449 28.4975 10.9116 28.6247 11.6982 28.7526C11.8311 28.7744 12.1925 28.8049 12.2963 28.8518L12.299 28.8994C12.2124 28.956 10.8417 29.1088 10.6283 29.1262C10.4864 29.0358 10.2793 28.9741 10.1938 29.1664C10.2188 29.5566 10.7438 29.3342 10.9677 29.3247C11.2503 29.3127 12.1134 29.1081 12.3419 29.1787L12.3479 29.2031C12.2073 29.3725 11.3638 29.708 11.1193 29.8303C11.019 29.8803 10.7481 29.9528 10.6613 30.0231C10.6022 30.1452 10.5994 30.2268 10.7355 30.2956C10.9594 30.3193 11.0522 30.112 11.2405 30.0185C11.6169 29.832 11.9946 29.6469 12.3708 29.4597C12.4261 29.4323 12.4619 29.4453 12.5124 29.4658C12.4992 29.6457 11.1585 30.623 11.0394 30.8381C11.0328 31.0654 11.2602 31.1196 11.4145 30.944C11.4905 30.6621 11.7744 30.4531 11.9868 30.2582C12.1601 30.0996 12.4784 29.7192 12.678 29.6323L12.7074 29.6516C12.7147 29.7595 12.627 29.8779 12.5684 29.9655C12.1153 30.6445 11.7638 31.4099 11.2919 32.0729C10.66 33.0126 8.99893 33.2473 8.14517 32.4902C6.58104 31.1027 7.35911 28.7524 9.43721 28.539Z" fill="#F4A261"/>
<path id="Vector_6" d="M13.865 29.6603C14.0293 29.7526 15.4022 31.3979 15.5818 31.6628C15.6982 31.8347 15.8329 32.1005 15.8938 32.3124C16.0494 32.8537 15.9786 33.4313 15.7067 33.924C15.4019 34.476 14.936 34.8632 14.3281 35.0402C13.753 35.2077 13.1217 35.1484 12.5926 34.8632C12.0949 34.5947 11.7263 34.0749 11.5714 33.5375C11.2651 32.475 11.9652 31.4836 12.4736 30.59C12.5511 30.4418 12.8291 29.8586 12.9411 29.8012C13.0297 29.9601 12.6623 31.0458 12.6092 31.342L12.6028 31.3791C12.0928 31.7746 12.7182 31.9645 12.7651 31.7106C12.8399 31.3051 12.9212 30.8791 13.0335 30.4765C13.085 30.2919 13.1008 30.0268 13.1835 29.8659L13.2224 29.8542C13.3193 29.9899 13.3924 31.4567 13.4145 31.7011C13.4209 31.7714 13.4538 31.778 13.5082 31.8149C13.8167 31.8405 13.7191 31.5334 13.6817 31.3766C13.6052 31.0561 13.4077 30.0803 13.5159 29.8166L13.5512 29.8102C13.7872 30.0517 14.1563 31.5217 14.4003 31.6257C14.6066 31.633 14.7242 31.4203 14.6088 31.2546C14.612 31.256 14.4846 31.2021 14.4843 31.2018C14.2088 30.7868 13.9876 30.2597 13.8151 29.7897C13.7926 29.7285 13.8397 29.6948 13.865 29.6603Z" fill="#F4A261"/>
<path id="Vector_7" d="M10.1037 23.8756C10.3897 23.8488 10.6783 23.8764 10.954 23.9569C12.5267 24.4267 12.5872 26.3015 12.9943 27.623C13.0233 27.717 13.0758 27.8667 13.0475 27.9604L13.013 27.9624C12.7015 27.6533 12.432 27.0222 12.1662 26.6599C12.0349 26.4807 12.1428 26.3381 11.9791 26.2226C11.8727 26.197 11.7514 26.2222 11.6967 26.3293C11.6075 26.5041 11.9082 26.6128 11.9479 26.6968C12.1192 27.0596 12.6778 27.7419 12.7867 28.0793L12.7611 28.1238L12.7187 28.1335C12.3475 27.9145 11.9074 27.3784 11.5671 27.0925C11.4894 26.9861 11.4773 26.7932 11.3198 26.7632C11.1821 26.7366 11.1081 26.7805 11.0874 26.9275C11.1536 27.1374 11.291 27.1265 11.4316 27.258C11.597 27.4128 11.7593 27.5713 11.9258 27.7261C12.0456 27.8371 12.4743 28.1841 12.5361 28.2793L12.5179 28.3135C12.4431 28.3323 11.2703 27.8035 11.1739 27.7217C10.5432 27.186 10.3633 27.7969 10.7151 27.8852C10.748 27.8723 10.8272 27.8396 10.854 27.8516C11.1388 27.9773 12.1716 28.3376 12.329 28.5378L12.3182 28.5786C12.2919 28.5871 12.2869 28.5901 12.2617 28.5942C12.051 28.6289 9.84608 28.2148 9.54835 28.1169C9.30042 28.0359 9.0679 27.9138 8.86063 27.7556C8.42667 27.4253 8.1544 26.98 8.08597 26.436C8.00946 25.8296 8.1775 25.2175 8.55301 24.7349C8.95167 24.2255 9.46837 23.954 10.1037 23.8756Z" fill="#F4A261"/>
<path id="Vector_8" d="M14.4873 23.0442C16.3314 22.7883 17.7697 24.8259 16.7821 26.4409C16.3214 27.1941 15.2948 27.7497 14.5501 28.177C14.4665 28.2251 14.2757 28.3169 14.1848 28.2881L14.1869 28.2527C14.3465 28.0139 15.0196 27.4045 15.2426 27.1511C15.3079 27.092 15.4575 27.0944 15.5177 27.0371C15.6804 26.8825 15.4235 26.6194 15.2575 26.7146C15.1538 26.7846 15.0754 27.0166 14.9953 27.0886C14.7688 27.2922 14.2256 27.9868 13.9871 28.0793L13.9495 28.0588C13.9327 27.987 13.9605 27.9516 13.9924 27.8816L14.0061 27.8523C14.1454 27.5112 14.3064 27.1765 14.4617 26.8427C14.555 26.6421 14.7983 26.5061 14.6551 26.2863C14.5658 26.2336 14.3962 26.2392 14.3767 26.3452C14.3372 26.5603 13.834 27.9065 13.6537 27.9189C13.5669 27.771 13.6906 26.6579 13.6845 26.4245C13.6849 26.4421 13.959 25.9546 13.5769 25.9939C13.5154 26.0005 13.4597 26.0332 13.4237 26.0835C13.2742 26.289 13.471 26.3628 13.4688 26.4279C13.4618 26.6333 13.4637 27.7961 13.3854 27.903L13.3421 27.8969C13.2109 27.7277 12.809 25.822 12.7397 25.4736C12.491 24.2238 13.2563 23.2384 14.4873 23.0442Z" fill="#F4A261"/>
<path id="Vector_9" d="M30.5112 15.0127C31.0537 14.9608 31.5955 15.1179 32.0256 15.4521C32.9507 16.1651 33.1672 17.4662 32.4341 18.4057C31.8733 19.1246 30.9705 19.1983 30.1313 19.2734C29.6062 19.3203 29.0667 19.402 28.5396 19.443C28.4341 19.4518 28.1089 19.5119 28.0425 19.4586L28.0674 19.4019C28.2773 19.2425 29.4468 18.8577 29.7566 18.7838C30.0247 18.8708 30.2412 18.7705 30.0657 18.513C29.8533 18.3809 29.5811 18.6392 29.3884 18.6772C29.1113 18.7319 28.2119 19.2092 28.009 19.1836L28.0017 19.1459C28.0676 19.0471 28.1772 18.9911 28.28 18.9247C28.6855 18.6234 29.0776 18.3146 29.5249 18.0815C29.6062 18.039 29.6082 18.0213 29.6321 17.9348C29.6111 17.8341 29.6331 17.8784 29.5576 17.8005C29.5117 17.7873 29.4414 17.7656 29.4001 17.8017C29.1951 17.9805 28.0154 18.9787 27.834 18.9896L27.8071 18.9488C28.0459 18.5795 28.4854 18.1858 28.7612 17.8276C28.8782 17.6757 29.199 17.5234 29.0403 17.2912C28.8635 17.2011 28.6443 17.3448 28.7156 17.545C28.6274 17.7726 27.7751 18.7365 27.5688 18.9017C27.6379 18.6726 27.7832 18.3906 27.8967 18.1748C28.5869 16.8624 28.7654 15.2325 30.5112 15.0127Z" fill="#F4A261"/>
<path id="Vector_10" d="M26.3622 13.2807C26.3891 13.2791 26.416 13.2779 26.4428 13.277C27.0153 13.2567 27.6052 13.5026 28.0178 13.8951C28.4138 14.2743 28.6423 14.7958 28.6523 15.3441C28.6557 15.5604 28.6201 15.7895 28.5619 15.9898C28.4487 16.3808 27.5173 18.547 27.353 18.7154L27.3058 18.7093C27.2731 18.6231 27.5366 17.1126 27.5676 16.9045C27.9457 16.6516 27.5275 16.4167 27.3325 16.6074C27.3066 16.6802 27.3095 16.6693 27.3188 16.7301C27.363 17.0252 27.1862 18.4017 27.1061 18.6365L27.0646 18.6409C26.9567 18.5163 26.7963 17.124 26.7873 16.8683C26.7834 16.7626 26.8207 16.4887 26.5424 16.5535C26.3898 16.6904 26.4931 16.8145 26.5756 16.9609C26.6205 17.1845 26.8456 18.5067 26.8005 18.6624C26.6608 18.6374 25.9743 16.8374 25.8325 16.7448C25.6262 16.7137 25.5068 16.9065 25.6257 17.0696C25.6484 17.079 25.6708 17.0888 25.6933 17.0988C25.7192 17.1106 25.7797 17.1357 25.7929 17.1587C26.0578 17.6202 26.4487 18.3648 26.6279 18.851L26.6386 18.8811C26.247 18.5882 24.8144 16.7748 24.593 16.3499C24.4711 16.1171 24.3945 15.8632 24.3676 15.6017C24.307 15.0615 24.4665 14.5197 24.8098 14.0984C25.2346 13.5851 25.7079 13.3424 26.3622 13.2807Z" fill="#F4A261"/>
<path id="Vector_11" d="M25.995 19.9446C26.0387 19.9402 26.039 19.9451 26.0839 19.954L26.087 19.9985C25.911 20.1867 24.7838 20.5296 24.4887 20.6444C24.3544 20.6966 24.2297 20.5139 24.105 20.7562C24.1077 20.868 24.0898 20.8215 24.1472 20.905C24.4765 21.0527 25.7938 20.2398 26.1705 20.1797L26.2057 20.209C26.1554 20.3785 24.9037 21.123 24.6986 21.2733C24.6207 21.3304 24.5902 21.3836 24.58 21.4768L24.6212 21.5273C24.9591 21.6214 26.0331 20.3634 26.3998 20.3569L26.4166 20.3803C26.3424 20.5462 25.6193 21.3019 25.4603 21.4935C25.3549 21.612 25.1857 21.7232 25.1027 21.8539C25.0463 21.9422 25.1242 22.0516 25.233 22.069C25.3756 22.0271 25.6666 21.5753 25.7711 21.4379C26.0053 21.1311 26.2457 20.8292 26.4923 20.5325C26.5468 20.4875 26.5465 20.491 26.6141 20.4675L26.6398 20.4835C26.6386 20.4983 25.391 23.2328 25.2794 23.4052C24.9828 23.8644 24.5036 24.2238 23.9633 24.3332C23.3989 24.4475 22.8502 24.2911 22.3783 23.9759C21.94 23.6831 21.606 23.1923 21.5081 22.6723C21.4101 22.1445 21.526 21.5994 21.8303 21.1571C22.433 20.2972 23.5014 20.323 24.454 20.1953C24.9694 20.1226 25.483 20.039 25.995 19.9446Z" fill="#F4A261"/>
<path id="Vector_12" d="M27.507 20.4385C27.5134 20.4409 27.52 20.443 27.5263 20.4457C27.6591 20.5037 29.0278 22.2679 29.2072 22.5295C29.3215 22.6964 29.4252 22.8719 29.5036 23.0586C29.7028 23.5251 29.7053 24.0522 29.5109 24.5205C29.0659 25.5769 27.7434 25.9697 26.7294 25.529C26.281 25.3364 25.9299 24.9699 25.7565 24.5136C25.3713 23.5111 25.8969 22.7994 26.2578 21.8932C26.3508 21.6594 26.4626 21.4251 26.5659 21.1952C26.6682 20.9533 26.7404 20.7381 26.8813 20.5155C26.8459 20.8784 26.7199 21.9387 26.6206 22.2714C26.2356 22.643 26.7949 22.7948 26.8305 22.5191C26.9184 21.8378 26.9377 21.1253 27.061 20.4486C27.1696 20.8422 27.2075 21.5713 27.2846 21.9999C27.3054 22.1156 27.29 22.2858 27.319 22.435C27.3884 22.5127 27.3474 22.4855 27.448 22.518C27.5434 22.4965 27.5019 22.5183 27.5737 22.4444C27.644 22.2267 27.4975 22.0127 27.4585 21.7846C27.384 21.3486 27.3149 20.9123 27.2522 20.4744C27.5026 20.7021 27.8046 21.677 27.9487 22.0292C27.997 22.1352 28.0305 22.3692 28.1687 22.3969C28.3029 22.4238 28.3908 22.3504 28.4077 22.2264C28.3811 22.1535 28.3256 22.0815 28.2658 22.0341C28.143 21.9399 28.081 21.7459 28.0244 21.5974C27.896 21.2617 27.5817 20.7829 27.507 20.4385Z" fill="#F4A261"/>
<path id="Vector_13" d="M30.8789 19.4093C31.1094 19.3965 31.3091 19.3975 31.5376 19.4441C32.0356 19.5413 32.4731 19.836 32.7502 20.261C33.0347 20.6926 33.1191 21.2261 33.0146 21.7294C32.9131 22.2317 32.6113 22.671 32.1787 22.9458C31.7266 23.236 31.1777 23.3351 30.6526 23.2213C29.8792 23.052 29.6138 22.5935 29.1523 22.0186C28.9458 21.7642 28.7358 21.5126 28.5227 21.2637C28.3293 21.0361 27.7805 20.443 27.6587 20.2528C27.9824 20.3988 28.8892 21.0764 29.1284 21.3689C29.1768 21.4281 29.1782 21.4396 29.2554 21.5108L29.2737 21.5273C29.3948 21.4861 29.4573 21.482 29.4819 21.3489C29.4724 21.3228 29.4629 21.2968 29.4531 21.2708C29.0427 20.9264 28.123 20.4536 27.7754 20.0995C28.2349 20.1956 29.1514 20.6534 29.5938 20.8755C29.6692 20.9135 29.7329 20.9381 29.8149 20.9082C29.8691 20.8275 29.8506 20.8729 29.8523 20.7602C29.7358 20.5827 28.3005 20.1663 27.9973 19.9992L27.9902 19.9576C28.2478 19.7817 29.8125 20.3605 30.0378 20.1493C30.1284 19.7613 29.5691 19.9659 29.5735 19.9667C29.3579 19.9276 28.1387 19.8052 28.0603 19.7282C28.1006 19.6828 28.1719 19.6672 28.2332 19.6653C29.116 19.638 30.0029 19.4679 30.8789 19.4093Z" fill="#F4A261"/>
<path id="Vector_14" d="M40.5715 19.994C40.8127 19.9707 41.0564 19.9912 41.2903 20.0546C41.7908 20.1917 42.2144 20.5256 42.4644 20.9802C42.7227 21.4443 42.7822 21.9931 42.6296 22.5018C42.4817 22.9913 42.1187 23.4019 41.6667 23.6468C40.8074 24.1105 39.8044 23.8007 38.9138 23.6071C38.7732 23.5765 37.9868 23.4115 37.9375 23.3168C38.0388 23.2396 39.3391 23.2591 39.5505 23.2686C39.6719 23.3447 39.6965 23.3789 39.8347 23.333C39.8943 23.275 39.8906 23.2798 39.9063 23.1979C39.887 23.1129 39.8884 23.119 39.8271 23.0561C39.7739 23.0347 38.1702 23.1083 37.9561 23.1116L37.9551 23.0877C38.0703 22.9603 39.4712 22.6314 39.645 22.5136C39.7024 22.419 39.697 22.465 39.6907 22.3752C39.6855 22.3707 39.6809 22.3655 39.6751 22.3618C39.5024 22.2521 38.3076 22.8089 38.021 22.8896C37.9597 22.9069 37.9307 22.9095 37.876 22.8779C37.9043 22.6402 39.1499 21.9978 39.3052 21.8262C39.3289 21.7326 39.3311 21.7775 39.2983 21.6866C39.2373 21.6267 39.2434 21.6267 39.1597 21.6144C39.0395 21.6369 37.9575 22.6675 37.7532 22.6511L37.7388 22.6067C37.7935 22.4696 38.1321 22.0623 38.2419 21.929C38.9807 21.0327 39.3098 20.1418 40.5715 19.994Z" fill="#F4A261"/>
<path id="Vector_15" d="M37.7605 23.5338C38.1296 23.6097 38.4749 23.7307 38.8418 23.8117C39.7805 24.0187 40.7832 24.037 41.3708 24.9221C41.6501 25.3425 41.7239 25.9101 41.6204 26.3957C41.5176 26.8647 41.2341 27.2741 40.8315 27.5356C40.3669 27.8352 39.8721 27.9192 39.3328 27.7978C38.8867 27.6958 38.501 27.4174 38.2637 27.0261C38.0234 26.6374 37.4075 24.5703 37.3301 24.0979L37.3472 24.0473C37.4524 24.0852 37.6033 24.4143 37.6655 24.5317C37.7429 24.5732 37.7419 24.5918 37.8032 24.5742L37.8179 24.4741C37.7317 24.324 37.5405 24.0222 37.5242 23.8678L37.5535 23.8934C37.9189 24.2189 38.2378 24.6433 38.5679 25.0051C38.6265 25.0691 38.7644 25.1545 38.8557 25.1572L38.8848 25.1233C38.8313 24.7966 37.9243 24.1498 37.6531 23.7128C38.0637 23.9068 38.4741 24.2313 38.8726 24.457C39.0056 24.5324 39.0884 24.6792 39.2512 24.6557C39.3313 24.5986 39.3025 24.635 39.3389 24.5422C39.3293 24.487 39.3313 24.4524 39.2776 24.4187C38.823 24.1336 38.1284 23.9325 37.7605 23.5338Z" fill="#F4A261"/>
<path id="Vector_16" d="M37.8179 24.4741C37.9099 24.6325 38.3667 25.3691 38.3867 25.4448C38.3501 25.5139 38.3535 25.5095 38.2837 25.5451C38.2378 25.5432 38.167 25.5478 38.1423 25.4975C37.9827 25.1699 37.8594 24.8444 37.6655 24.5317C37.7429 24.5732 37.7419 24.5917 37.8032 24.5742L37.8179 24.4741Z" fill="#020101"/>
<path id="Vector_17" d="M37.2697 17.6004C37.4887 17.5837 37.7092 17.6025 37.9223 17.6562C38.4167 17.7794 38.8417 18.0945 39.1035 18.5319C39.3413 18.9362 39.4008 19.455 39.2778 19.9055C39.2321 20.0698 39.1652 20.2274 39.0791 20.3745C38.9399 20.614 37.686 22.4144 37.572 22.4789L37.5375 22.4584C37.5327 22.3058 37.9177 21.3363 38.0039 21.1576L38.017 21.1306C38.1462 21.0559 38.1796 21.0583 38.2045 20.9091C38.1628 20.816 38.1943 20.8509 38.1066 20.8C37.957 20.7916 37.8972 20.872 37.8518 20.996C37.7597 21.2482 37.4897 22.2778 37.3068 22.3954C37.2614 22.3382 37.3715 21.1854 37.3842 21.0288C37.3832 20.9013 37.5285 20.8821 37.4611 20.6398C37.3276 20.53 37.1708 20.6463 37.1745 20.819C37.1796 21.0632 37.1784 22.2074 37.0873 22.3533C36.9238 22.3257 36.7729 20.7598 36.6342 20.6428C36.5517 20.6255 36.5571 20.6283 36.4772 20.6584C36.4619 20.678 36.4465 20.6976 36.4311 20.7171C36.5451 21.0369 36.8764 22.0486 36.8342 22.3332L36.8005 22.3501C36.7473 22.3077 36.6848 22.2279 36.6599 22.1672C36.3952 21.5238 35.9597 20.8514 35.7019 20.2175C35.6479 20.0852 35.6105 19.9466 35.5905 19.8051C35.4365 18.6941 36.1567 17.7448 37.2697 17.6004Z" fill="#F4A261"/>
<path id="Vector_18" d="M36.5968 23.9798L36.6302 24.005C36.6866 24.2464 36.2101 25.2204 36.3851 25.4765L36.4466 25.487C36.4628 25.4792 36.4786 25.4711 36.4947 25.4633C36.5758 25.2087 36.6888 24.2432 36.8309 24.0703C37.1058 24.1146 36.5621 25.5878 37.057 25.5839C37.1398 25.5278 37.1107 25.5644 37.1456 25.4692C37.1207 25.363 37.1171 25.3857 37.0333 25.2927C37.0199 25.0944 37.0253 24.2518 37.0663 24.0804L37.0919 24.0857C37.181 24.2658 37.2601 24.696 37.3324 24.9091C37.5045 25.4162 37.6686 25.8776 37.7931 26.4001C37.9813 27.4055 37.2626 28.1633 36.2743 28.0893C35.8216 28.0563 35.4012 27.8425 35.108 27.4958C34.8575 27.1957 34.7396 26.8066 34.7811 26.4177C34.8556 25.7338 35.2882 25.3769 35.7391 24.915C36.0126 24.6347 36.2989 24.2188 36.5968 23.9798Z" fill="#F4A261"/>
<path id="Vector_19" d="M36.1069 24.8574L36.1421 24.8776C36.2397 25.1132 36.1191 25.2267 35.9179 25.3349C35.7683 25.1313 35.9543 25.0214 36.1069 24.8574Z" fill="#020101"/>
<path id="Vector_20" d="M34.0486 19.6505C35.3496 19.523 35.6912 20.6757 36.1931 21.6198C36.2329 21.6946 36.6311 22.448 36.6348 22.4691C36.3743 22.5112 35.7776 21.5576 35.6191 21.3629C35.491 21.3196 35.426 21.3568 35.3945 21.4829C35.4021 21.5062 35.4097 21.5295 35.4172 21.5528C35.7056 21.7854 36.2102 22.3153 36.4172 22.5854L36.408 22.6239C36.1956 22.6586 35.312 21.7745 35.1504 21.8334C35.0937 21.9085 35.1025 21.8691 35.1089 21.9515C35.1775 22.0552 35.3503 22.1299 35.467 22.194C35.5969 22.2782 36.2314 22.6788 36.3047 22.7568L36.2952 22.8021C36.0742 22.8365 35.1714 22.3044 34.9226 22.2695C34.8528 22.306 34.8821 22.28 34.8428 22.3612C34.9509 22.5303 36.0942 22.8114 36.2349 22.9411L36.2253 22.9807C36.1255 23.0294 35.7058 22.9288 35.5674 22.9097C34.5925 22.7746 33.918 22.6848 33.2126 21.943C33.3965 21.2895 33.2986 20.8911 33.0557 20.2876C33.3389 19.8913 33.5664 19.74 34.0486 19.6505Z" fill="#F4A261"/>
<path id="Vector_21" d="M33.9009 22.8508C34.3565 22.8492 34.826 22.9709 35.2759 23.0493C35.6353 23.112 35.9834 23.1522 36.3443 23.2024C36.337 23.2049 36.3294 23.2074 36.3218 23.2099L36.2845 23.2215C35.8035 23.3734 35.3924 23.3251 34.9231 23.3536C34.8677 23.3955 34.8731 23.3998 34.8457 23.4657L34.8697 23.5144C35.1868 23.6922 36.0979 23.3115 36.2447 23.463C35.9886 23.7065 35.0892 23.7858 35.0401 24.0147L35.0787 24.0477C35.3406 24.0872 35.8567 23.7148 36.2649 23.6704L36.2872 23.6905C36.1392 23.9232 35.4712 24.1518 35.273 24.428C35.3079 24.5073 35.3504 24.5295 35.418 24.574C35.6045 24.5869 35.5249 24.4097 35.7149 24.2742C35.9866 24.0809 36.1946 23.9075 36.5115 23.7833C36.4969 23.8087 36.4815 23.8335 36.4651 23.8578C36.3528 24.0243 36.0501 24.2877 35.9029 24.4487C35.4615 24.9319 35.0806 25.4927 34.3904 25.6091C34.0171 25.6719 33.6343 25.5818 33.3279 25.3594C33.0113 25.1279 32.7999 24.78 32.7398 24.3926C32.626 23.6181 33.1043 22.9469 33.9009 22.8508Z" fill="#F4A261"/>
<path id="Vector_22" d="M13.2213 28.0888C13.645 28.0251 14.0411 28.3139 14.1097 28.7368C14.1782 29.1599 13.8936 29.559 13.4714 29.6323C13.1942 29.6804 12.9126 29.5756 12.734 29.3584C12.5553 29.1411 12.5073 28.8444 12.6081 28.5817C12.7089 28.319 12.9431 28.1308 13.2213 28.0888Z" fill="#F4A261"/>
<path id="Vector_23" d="M26.9583 18.8385C27.375 18.7898 27.7542 19.0837 27.8108 19.4995C27.8674 19.9152 27.5811 20.2999 27.1665 20.3646C26.8911 20.4076 26.6138 20.2984 26.4417 20.0791C26.2695 19.8599 26.2295 19.5648 26.3364 19.3074C26.4436 19.0501 26.6814 18.8708 26.9583 18.8385Z" fill="#F4A261"/>
<path id="Vector_24" d="M36.9347 22.5361C37.3063 22.4605 37.6683 22.7018 37.7418 23.0738C37.815 23.4457 37.5716 23.8064 37.1993 23.8775C36.8299 23.9481 36.473 23.7072 36.4003 23.3383C36.3275 22.9694 36.5663 22.611 36.9347 22.5361Z" fill="#F4A261"/>
</g>
<path id="Union" d="M25.8589 9.86372C26.6883 9.76784 27.5267 9.85399 28.3169 10.1137C28.3258 10.1166 28.3354 10.1193 28.3443 10.1225L28.6265 10.2241L28.6851 10.2485L28.6958 10.2534L28.6949 10.2543C29.4474 10.5653 30.0726 11.0003 30.5816 11.5346C31.6686 11.495 32.7655 11.7717 33.8033 12.4389L33.8091 12.4438L33.8179 12.4487C34.601 12.9586 35.2331 13.6542 35.6685 14.4623C35.9334 14.3695 36.2077 14.2969 36.4878 14.2475C38.676 13.8623 40.8455 14.8155 41.9898 16.6479C44.9175 17.3248 46.6715 20.2573 46.0376 23.1147C45.8571 23.928 45.5049 24.6283 45.0523 25.2172C45.2198 26.383 44.992 27.5769 44.4078 28.6118C44.309 28.7886 44.1986 28.9578 44.0816 29.1206C44.3718 29.3079 44.7639 29.6209 45.0562 30.1186L45.1929 30.3842L45.2037 30.4067L45.2476 30.5112C45.2509 30.5191 45.2513 30.5286 45.2544 30.5366H45.2564C45.5973 31.4211 45.626 32.3544 45.5728 33.061C45.5172 33.7987 45.353 34.5549 45.106 35.1977C44.9524 35.5974 44.7107 36.1808 44.3589 36.7475C44.0242 37.2865 43.4464 38.0459 42.5181 38.518L42.5132 38.5219L42.4917 38.5317C42.4824 38.5364 42.4729 38.541 42.4634 38.5454L42.4419 38.5551L42.441 38.5541C41.4858 39.0006 40.5776 38.8868 39.9263 38.6411C39.6695 38.5441 39.4333 38.4164 39.2642 38.3168C39.1772 38.2657 39.1016 38.2188 39.0445 38.1821C39.0161 38.1638 38.9922 38.147 38.9742 38.1352C38.9651 38.1293 38.9581 38.126 38.9527 38.1225L38.9468 38.1176L38.522 37.8579C38.4384 37.9979 38.3474 38.1369 38.2447 38.2709C38.2396 38.2776 38.2334 38.284 38.2281 38.2905L38.1031 38.4448C38.0984 38.4505 38.0942 38.4568 38.0894 38.4623C37.4364 39.2255 36.2649 40.0458 34.8941 40.1616C34.4313 40.2006 33.9346 40.1566 33.439 39.977C32.9456 39.798 32.5797 39.5302 32.3228 39.2944C32.0924 39.0828 31.9138 38.861 31.8472 38.7797C31.843 38.7745 31.8395 38.7689 31.8355 38.7641C31.8027 38.7411 31.7629 38.715 31.7144 38.6811C31.572 38.5815 31.341 38.4167 31.1031 38.2016C29.3015 36.5728 29.511 34.2701 29.7056 33.1801L29.7076 33.1645L29.7984 32.7045L29.8003 32.6967C29.8311 32.5462 29.8564 32.4204 29.8785 32.2993C29.8831 32.2739 29.8844 32.2486 29.8882 32.226C29.7379 32.045 29.5447 31.853 29.3746 31.6997C29.373 31.6982 29.3712 31.6962 29.3697 31.6948L29.0288 31.4057C28.6789 31.1279 28.3016 30.8837 27.9038 30.6782H27.9019L27.6021 30.5317C26.2035 29.8852 24.7544 29.7246 22.9986 29.9194C22.9241 31.1512 22.457 32.3834 21.4478 33.4477L21.4371 33.4594L21.2828 33.6166C21.2783 33.6212 21.2727 33.6249 21.2681 33.6293C20.5832 34.2963 19.8515 34.7243 19.0777 34.977C18.9844 35.2078 18.8734 35.4418 18.7378 35.6801C18.7349 35.6853 18.7302 35.6906 18.7271 35.6957C17.9575 37.0253 16.6975 37.9977 15.2183 38.4077C15.2059 38.4116 15.1939 38.4179 15.1812 38.4213C12.9179 39.0355 10.5791 38.2553 9.2017 36.4721C9.02877 36.4642 8.85315 36.4489 8.67729 36.4233L8.67631 36.4223V36.4233L8.67143 36.4223L8.66459 36.4204C7.19127 36.1969 5.86602 35.3999 4.97904 34.2026C4.9756 34.1981 4.97167 34.1935 4.9683 34.1889C3.62458 32.3645 3.4714 30.0377 4.51811 28.0541C4.60117 27.8968 4.68866 27.7499 4.77885 27.6127C4.38627 26.2085 4.53908 24.6831 5.31889 23.3032L5.33061 23.2817L5.45561 23.0747L5.46635 23.0561C6.22417 21.8583 7.39735 20.9773 8.76518 20.5844C8.77992 20.5795 8.79512 20.5749 8.8101 20.5707C9.80724 20.2945 10.7288 20.3002 11.5845 20.4975C12.1896 20.0871 12.8798 19.7943 13.6529 19.643L13.6578 19.6411C13.6767 19.6363 13.6962 19.6329 13.7154 19.6293C15.0186 19.391 16.3557 19.6036 17.5132 20.2172C17.0899 19.2047 16.9968 18.1156 17.1744 17.0834C17.4318 15.5861 18.2698 14.2498 19.5064 13.3666L19.5103 13.3647L19.5259 13.354C20.236 12.8551 20.9862 12.5783 21.7271 12.4545C21.9678 12.056 22.2609 11.6843 22.6099 11.351L22.7808 11.1957C23.6464 10.4386 24.7061 10.0098 25.8296 9.86665V9.8686L25.8345 9.86665L25.8589 9.86372ZM32.4634 38.0844V38.0834V38.0844ZM40.2505 37.7827C40.2034 37.7649 40.1561 37.7457 40.1099 37.725C40.1559 37.7456 40.2027 37.7649 40.2496 37.7827C40.4302 37.8508 40.6346 37.9039 40.855 37.9272C40.6349 37.9039 40.4311 37.8508 40.2505 37.7827ZM42.1021 37.7006V37.6997V37.7006ZM34.2056 37.6118V37.6108V37.6118ZM35.5025 37.4145C35.4716 37.4319 35.4402 37.4482 35.4087 37.4643C35.4402 37.4482 35.4716 37.4319 35.5025 37.4145ZM38.7691 36.934L39.1021 37.1372C38.8294 36.9707 38.5524 36.8065 38.271 36.6469C38.4381 36.7419 38.6047 36.8368 38.7691 36.934ZM36.0083 37.0473C35.9864 37.0674 35.964 37.0872 35.941 37.1069C35.964 37.0872 35.9864 37.0674 36.0083 37.0473ZM31.2876 37.0551C31.299 37.0697 31.3102 37.0845 31.3218 37.0991C31.3102 37.0845 31.299 37.0697 31.2876 37.0551ZM37.9937 36.8413C38.0057 36.8076 38.0162 36.7735 38.0269 36.7397C38.0162 36.7735 38.0057 36.8076 37.9937 36.8413ZM31.1216 36.8217C31.1302 36.8349 31.1382 36.8486 31.147 36.8618C31.1382 36.8486 31.1302 36.8349 31.1216 36.8217ZM30.9527 36.5307C30.9798 36.5825 31.0085 36.6338 31.0386 36.685C31.0085 36.6338 30.9798 36.5825 30.9527 36.5307ZM30.814 36.2338C30.8396 36.2959 30.8666 36.3579 30.896 36.4194C30.8666 36.3579 30.8396 36.2959 30.814 36.2338ZM41.2535 36.3569C41.2737 36.3518 41.2944 36.3464 41.315 36.3393C41.2944 36.3464 41.2738 36.3518 41.2535 36.3569ZM43.5874 36.2465C43.6504 36.1444 43.7087 36.0407 43.7642 35.9379C43.7087 36.0408 43.6504 36.1444 43.5874 36.2465ZM30.7124 35.9594C30.7343 36.0266 30.7578 36.0938 30.7837 36.1606C30.7578 36.0938 30.7343 36.0266 30.7124 35.9594ZM14.5318 36.0258C14.4227 36.0554 14.3133 36.0804 14.2046 36.0991H14.2056C14.3139 36.0804 14.423 36.0563 14.5318 36.0268V36.0258ZM30.564 35.351C30.5934 35.5282 30.634 35.707 30.688 35.8852C30.634 35.707 30.5934 35.5282 30.564 35.351ZM43.8462 35.7807C43.8792 35.7159 43.9109 35.6518 43.941 35.5883C43.9109 35.6518 43.8791 35.7159 43.8462 35.7807ZM9.02787 35.5415C9.10053 35.5483 9.17316 35.5529 9.24565 35.5561L9.02787 35.5405C8.95533 35.5337 8.88267 35.5257 8.8101 35.5151L9.02787 35.5415ZM15.6372 35.4985C15.6436 35.4939 15.6495 35.4885 15.6558 35.4838C15.6495 35.4885 15.6436 35.4939 15.6372 35.4985ZM8.34623 35.4204C8.41477 35.4378 8.48376 35.4538 8.55326 35.4682C8.48376 35.4538 8.41477 35.4378 8.34623 35.4204ZM43.9966 35.4682C44.0422 35.3681 44.0859 35.2712 44.1246 35.1782V35.1772C44.0858 35.2706 44.0423 35.3677 43.9966 35.4682ZM8.12943 35.3588C8.17866 35.3739 8.22808 35.3883 8.27787 35.4018C8.22808 35.3883 8.17866 35.3739 8.12943 35.3588ZM7.91752 35.2895C7.96208 35.3055 8.0072 35.3198 8.05229 35.3344C8.0072 35.3198 7.96207 35.3055 7.91752 35.2895ZM30.5318 35.1293C30.5381 35.1832 30.5469 35.2371 30.5552 35.2915C30.5434 35.2138 30.5328 35.1367 30.5249 35.06L30.5318 35.1293ZM7.69389 35.2026C7.74649 35.2245 7.79963 35.2451 7.85307 35.2651C7.79964 35.2451 7.74648 35.2245 7.69389 35.2026ZM7.49076 35.1118C7.54277 35.1364 7.59506 35.1603 7.64799 35.1831C7.59507 35.1603 7.54276 35.1364 7.49076 35.1118ZM11.2632 35.0766H11.2642H11.2632ZM7.2808 35.0063C7.33483 35.0352 7.38971 35.0625 7.44486 35.0893C7.38972 35.0625 7.33482 35.0352 7.2808 35.0063ZM30.5054 34.8032C30.5093 34.879 30.5146 34.9555 30.522 35.0327C30.5146 34.9555 30.5093 34.879 30.5054 34.8032ZM7.0933 34.8998C7.14292 34.9294 7.19302 34.9581 7.24369 34.9858C7.19303 34.958 7.14291 34.9294 7.0933 34.8998ZM6.89897 34.7778C6.94533 34.8086 6.99218 34.8385 7.03959 34.8676C6.99219 34.8385 6.94532 34.8086 6.89897 34.7778ZM30.4986 34.5219C30.4986 34.5962 30.5004 34.6714 30.5035 34.7475C30.5004 34.6714 30.4985 34.5962 30.4986 34.5219ZM6.71244 34.6479C6.75707 34.6807 6.80246 34.7124 6.84818 34.7436C6.80247 34.7124 6.75706 34.6807 6.71244 34.6479ZM32.0611 34.562C32.0615 34.6076 32.062 34.6532 32.064 34.6987C32.062 34.6532 32.0615 34.6076 32.0611 34.562ZM6.50834 34.4897C6.56011 34.5323 6.61307 34.5734 6.66654 34.6137C6.61309 34.5734 6.5601 34.5323 6.50834 34.4897ZM42.7896 34.3081H42.7906C42.8288 34.2086 42.864 34.1012 42.897 33.9887C42.864 34.1012 42.8278 34.2085 42.7896 34.3081ZM32.0621 34.4536C32.0617 34.4738 32.0602 34.4939 32.0601 34.5141C32.0602 34.4939 32.0617 34.4738 32.0621 34.4536ZM30.5035 34.2758C30.5004 34.3482 30.4989 34.4218 30.4986 34.4965C30.4989 34.4218 30.5004 34.3482 30.5035 34.2758ZM6.35014 34.352C6.39733 34.3945 6.4449 34.4365 6.49369 34.477C6.44492 34.4365 6.39732 34.3945 6.35014 34.352ZM18.3697 34.2231C18.3589 34.2605 18.3465 34.2978 18.3345 34.3354C18.3466 34.2976 18.3599 34.2606 18.3706 34.2231C18.4655 34.2016 18.5594 34.1761 18.6529 34.1489C18.5591 34.1762 18.4648 34.2016 18.3697 34.2231ZM5.84135 33.8178C5.98916 34.0003 6.15038 34.1696 6.32182 34.3266C6.09719 34.1208 5.89078 33.893 5.70756 33.644L5.84135 33.8178ZM32.0777 34.1411C32.0753 34.1683 32.0757 34.1958 32.0738 34.2231C32.0756 34.1961 32.0754 34.169 32.0777 34.142V34.1411ZM30.5152 34.0971C30.5119 34.1434 30.5077 34.1902 30.5054 34.2377C30.5077 34.1902 30.5119 34.1434 30.5152 34.0971ZM18.7496 34.1186C18.8047 34.1012 18.8599 34.0835 18.9146 34.0639C18.8599 34.0835 18.8047 34.1012 18.7496 34.1186ZM19.0689 34.0043C19.1058 33.9896 19.1426 33.9743 19.1792 33.9584C19.1426 33.9743 19.1058 33.9895 19.0689 34.0043ZM32.1177 33.7963C32.1123 33.8324 32.1098 33.8693 32.105 33.9057C32.1062 33.8966 32.1077 33.8875 32.1089 33.8784C32.1126 33.8514 32.1147 33.8242 32.1187 33.7973L32.148 33.6166V33.6157L32.1177 33.7963ZM19.3247 33.892C19.3695 33.8707 19.4141 33.8487 19.4585 33.8256C19.4141 33.8487 19.3695 33.8707 19.3247 33.892ZM19.5855 33.7573C19.6363 33.7288 19.6864 33.6983 19.7369 33.6674C19.6864 33.6983 19.6363 33.7288 19.5855 33.7573ZM19.8394 33.604C19.91 33.5581 19.9805 33.5103 20.0503 33.4594C19.9805 33.5103 19.91 33.5581 19.8394 33.604ZM20.6275 32.9721C20.4542 33.1408 20.2781 33.2901 20.1001 33.4233C20.1868 33.3585 20.2734 33.2903 20.3589 33.2172L20.6285 32.9721L20.7046 32.894L20.6275 32.9721ZM5.33256 33.0551C5.38429 33.1505 5.43996 33.2444 5.49858 33.3373C5.43996 33.2444 5.38429 33.1505 5.33256 33.0551ZM30.6988 32.8813H30.6997H30.6988ZM5.18315 32.7543C5.22075 32.8366 5.26173 32.9177 5.30424 32.9985C5.26173 32.9177 5.22076 32.8366 5.18315 32.7543ZM17.9595 32.7143C17.9732 32.7115 17.9869 32.7085 18.0005 32.7055C17.9869 32.7085 17.9732 32.7115 17.9595 32.7143ZM18.232 32.645C18.2644 32.6353 18.2967 32.6255 18.3287 32.6147C18.2967 32.6255 18.2644 32.6353 18.232 32.645ZM5.05717 32.4526C5.07853 32.5091 5.10292 32.5646 5.1265 32.6206C5.10291 32.5646 5.07853 32.5091 5.05717 32.4526ZM18.6783 32.4711C18.7107 32.4552 18.7428 32.4386 18.7749 32.4213C18.7429 32.4386 18.7107 32.4552 18.6783 32.4711ZM4.95365 32.145C4.96928 32.1967 4.98699 32.2479 5.00443 32.2993C4.98699 32.2479 4.96929 32.1967 4.95365 32.145ZM19.1412 32.1889L19.1275 32.2006C19.1254 32.2022 19.1227 32.203 19.1206 32.2045C19.0757 32.2371 19.0304 32.2679 18.9849 32.2973C19.0569 32.2507 19.128 32.2003 19.1988 32.1459C19.1797 32.1606 19.1603 32.1748 19.1412 32.1889ZM4.86674 31.8159C4.87956 31.8728 4.89475 31.9292 4.90971 31.9858C4.89475 31.9292 4.87956 31.8728 4.86674 31.8159ZM30.6607 31.7192C30.694 31.7617 30.7218 31.8016 30.7466 31.8373C30.7217 31.8015 30.6941 31.7609 30.6607 31.7182C30.6306 31.6798 30.5974 31.643 30.565 31.6049C30.5974 31.6432 30.6305 31.6807 30.6607 31.7192ZM4.80619 31.4926C4.81642 31.5596 4.82822 31.6262 4.84135 31.6928C4.82822 31.6262 4.81642 31.5596 4.80619 31.4926ZM4.76908 31.1811C4.77459 31.2457 4.78239 31.3101 4.79057 31.3745C4.78239 31.3101 4.77459 31.2457 4.76908 31.1811ZM44.357 30.7631L44.3999 30.8666L44.4585 31.0375C44.4399 30.9808 44.4225 30.9236 44.4009 30.8676V30.8666L44.358 30.7631C44.3321 30.7061 44.3026 30.6526 44.273 30.601C44.3025 30.6525 44.3311 30.7062 44.357 30.7631ZM4.75346 30.853C4.75436 30.912 4.75621 30.9708 4.75932 31.0297C4.75621 30.9708 4.75436 30.912 4.75346 30.853ZM29.398 30.5327C29.601 30.6835 29.797 30.844 29.9849 31.0141H29.9859C29.7979 30.8439 29.6012 30.6835 29.398 30.5327ZM4.76029 30.5112C4.75635 30.5802 4.7534 30.6492 4.75248 30.7182C4.7534 30.6492 4.75635 30.5802 4.76029 30.5112ZM44.2437 30.5532C44.2204 30.5152 44.1963 30.4788 44.1714 30.4438C44.1963 30.4788 44.2204 30.5152 44.2437 30.5532ZM43.9361 30.1674C44.0079 30.2374 44.0782 30.3172 44.1451 30.4067C44.0782 30.3172 44.0079 30.2374 43.9361 30.1674ZM4.78666 30.2182C4.7806 30.269 4.77448 30.3197 4.77006 30.3706C4.77448 30.3197 4.7806 30.269 4.78666 30.2182ZM43.9175 30.1498C43.8927 30.1263 43.8671 30.1048 43.8423 30.0834C43.867 30.1049 43.8927 30.1263 43.9175 30.1498ZM4.84037 29.8745C4.82891 29.9337 4.81735 29.9928 4.80815 30.0522C4.81735 29.9928 4.82891 29.9337 4.84037 29.8745ZM43.4859 29.8286H43.4849H43.4859ZM22.0728 29.1157C22.0866 29.2758 22.0934 29.4365 22.0923 29.5971C22.0934 29.4365 22.0866 29.2759 22.0728 29.1157ZM4.9224 29.519C4.90231 29.5928 4.88327 29.6665 4.86674 29.7407C4.88326 29.6665 4.90232 29.5928 4.9224 29.519ZM5.03959 29.1459C5.00575 29.2402 4.97468 29.3349 4.94682 29.4301C4.97468 29.3349 5.00575 29.2402 5.03959 29.1459ZM42.5581 29.4145C42.5938 29.3851 42.6289 29.3551 42.6636 29.3247C42.6289 29.3551 42.5938 29.3851 42.5581 29.4145ZM42.7154 29.2778C42.7449 29.251 42.7744 29.2243 42.8033 29.1967C42.7744 29.2243 42.7449 29.251 42.7154 29.2778ZM42.857 29.1459C42.8894 29.1139 42.9213 29.0814 42.9527 29.0483C42.9212 29.0813 42.8894 29.1139 42.857 29.1459ZM5.14994 28.8657C5.11509 28.9472 5.0806 29.0284 5.05033 29.1108C5.0806 29.0284 5.11509 28.9472 5.14994 28.8657ZM24.0015 28.9252C23.7638 28.9317 23.5224 28.9455 23.2769 28.9663C23.5224 28.9455 23.7638 28.9317 24.0015 28.9252ZM39.4419 28.85C39.4569 28.8518 39.4718 28.8534 39.4869 28.8549C39.4718 28.8534 39.4569 28.8518 39.4419 28.85ZM40.1714 28.8305C40.1152 28.8397 40.0599 28.8472 40.0054 28.853C40.0826 28.8448 40.1611 28.832 40.2417 28.8168C40.2181 28.8213 40.1948 28.8267 40.1714 28.8305ZM39.356 28.8393C39.3537 28.8389 39.3515 28.8377 39.3492 28.8373C39.3378 28.8356 39.3263 28.8354 39.315 28.8334L39.356 28.8393ZM40.5523 28.7426C40.5339 28.7479 40.5161 28.7552 40.4976 28.7602L40.4205 28.7778L40.4976 28.7612C40.5161 28.7562 40.5339 28.748 40.5523 28.7426ZM43.273 28.6694C43.2875 28.6501 43.3027 28.6313 43.3169 28.6118C43.3027 28.6313 43.2876 28.6501 43.273 28.6694ZM38.4927 28.5571C38.5496 28.5842 38.6054 28.6113 38.6617 28.6352C38.6053 28.6113 38.5496 28.5842 38.4927 28.5571ZM20.6412 27.8217C20.6375 27.8227 20.6341 27.8246 20.6304 27.8256C20.6341 27.8246 20.6375 27.8227 20.6412 27.8217ZM5.64408 27.2983C5.65869 27.3536 5.67532 27.4084 5.69193 27.4633C5.67532 27.4084 5.65869 27.3536 5.64408 27.2983ZM5.58549 27.0454C5.59741 27.1032 5.61045 27.1608 5.62455 27.2182C5.61045 27.1608 5.59742 27.1032 5.58549 27.0454ZM5.5435 26.8168C5.55116 26.8662 5.56063 26.9152 5.56986 26.9643C5.56063 26.9152 5.55116 26.8662 5.5435 26.8168ZM5.51225 26.5698C5.51614 26.6083 5.52107 26.6466 5.52592 26.685C5.52107 26.6466 5.51614 26.6083 5.51225 26.5698ZM5.49467 26.3295C5.49671 26.3713 5.50029 26.4129 5.50346 26.4545C5.50029 26.4129 5.49672 26.3713 5.49467 26.3295ZM5.48979 26.0766C5.48956 26.1147 5.49004 26.1528 5.49076 26.1909C5.49004 26.1528 5.48957 26.1147 5.48979 26.0766ZM44.0708 24.9633C44.1665 25.3661 44.2036 25.7776 44.1831 26.186C44.19 26.0508 44.1908 25.9152 44.1851 25.7797C44.1734 25.506 44.1358 25.2318 44.0718 24.9623L44.0708 24.9633ZM5.4976 25.8237C5.49507 25.8654 5.49314 25.907 5.49174 25.9487C5.49313 25.907 5.49507 25.8654 5.4976 25.8237ZM5.52006 25.5707C5.51462 25.6176 5.50941 25.6645 5.50541 25.7114C5.5094 25.6645 5.51462 25.6176 5.52006 25.5707ZM5.55619 25.3217C5.54866 25.3657 5.54193 25.4096 5.53568 25.4536C5.54192 25.4096 5.54867 25.3657 5.55619 25.3217ZM5.61674 25.0239C5.60243 25.0837 5.58955 25.1436 5.57768 25.2036C5.58955 25.1436 5.60244 25.0837 5.61674 25.0239ZM5.67045 24.8227C5.65581 24.8738 5.64129 24.9248 5.62846 24.976C5.64129 24.9247 5.65581 24.8738 5.67045 24.8227ZM44.2583 24.7426C44.3113 24.677 44.362 24.6094 44.4117 24.5405C44.3621 24.6094 44.3113 24.677 44.2583 24.7426ZM18.0484 24.7368C18.0402 24.6984 18.0328 24.6601 18.024 24.6225C18.0328 24.6601 18.0402 24.6984 18.0484 24.7368ZM44.4576 24.476C44.4911 24.4277 44.5234 24.3785 44.5552 24.3286C44.5235 24.3785 44.4911 24.4277 44.4576 24.476ZM44.6119 24.2387C44.6472 24.1802 44.6815 24.1207 44.7144 24.06C44.6815 24.1207 44.6472 24.1801 44.6119 24.2387ZM44.7456 24.0004C44.78 23.9346 44.813 23.8676 44.8443 23.7993C44.813 23.8676 44.78 23.9346 44.7456 24.0004ZM44.8638 23.7553C44.8944 23.6865 44.9234 23.6166 44.9507 23.5454C44.9234 23.6166 44.8944 23.6865 44.8638 23.7553ZM8.32084 23.5444H8.31986H8.32084ZM44.979 23.4721C45.0094 23.3887 45.0383 23.304 45.064 23.2172V23.2163C45.0383 23.3033 45.0095 23.3884 44.979 23.4721ZM9.47221 22.9614V22.9623C9.47337 22.962 9.47495 22.9617 9.47611 22.9614C9.47499 22.9617 9.47333 22.9611 9.47221 22.9614ZM11.1011 22.9301C11.077 22.924 11.053 22.9181 11.0288 22.9125C11.053 22.9181 11.077 22.924 11.1011 22.9301ZM6.76908 22.8598C6.75523 22.8749 6.74174 22.8904 6.72807 22.9057C6.74174 22.8904 6.75522 22.8749 6.76908 22.8598ZM18.9312 22.7319L18.9331 22.7338C18.9247 22.6513 18.9172 22.5679 18.9136 22.4838L18.9312 22.7319ZM7.23295 22.4174C7.21206 22.4349 7.19105 22.4523 7.17045 22.4702C7.19105 22.4523 7.21205 22.4349 7.23295 22.4174ZM13.5581 22.2416C13.4669 22.2777 13.3785 22.3178 13.2925 22.3618C13.3785 22.3178 13.4669 22.2776 13.5581 22.2416ZM7.78764 22.0151C7.74837 22.0395 7.70898 22.0638 7.67045 22.0893C7.70899 22.0638 7.74837 22.0395 7.78764 22.0151ZM45.2456 22.0698C45.2461 22.0541 45.2473 22.0385 45.2476 22.0229C45.2473 22.0385 45.2461 22.0541 45.2456 22.0698ZM14.4976 22.0248L14.4966 22.0258L14.4976 22.0248ZM43.6763 21.7055C43.6795 21.746 43.6787 21.7868 43.6802 21.8276C43.6787 21.7868 43.6795 21.746 43.6763 21.7055ZM43.6392 21.4174C43.644 21.4443 43.6469 21.4714 43.6509 21.4985C43.6469 21.4714 43.644 21.4443 43.6392 21.4174ZM11.9976 21.3256C11.9208 21.3808 11.8453 21.4378 11.772 21.4975L11.773 21.4985C11.8463 21.4388 11.9208 21.3808 11.9976 21.3256ZM45.2222 21.4575C45.219 21.4272 45.2163 21.3968 45.2124 21.3666C45.2163 21.3968 45.219 21.4272 45.2222 21.4575ZM16.9771 20.9731C17.1965 21.0827 17.4097 21.2092 17.6128 21.352V21.351C17.3419 21.1605 17.0542 20.9997 16.7554 20.8686L16.9771 20.9731ZM11.1412 21.3422L11.1402 21.3413L11.1412 21.3422ZM18.7339 20.5747C18.7751 20.6381 18.818 20.701 18.8628 20.7631L18.8726 20.7739C18.9424 20.8687 19.0164 20.9606 19.0933 21.0493H19.0943C19.0172 20.9604 18.9426 20.8689 18.8726 20.7739L18.8638 20.7631C18.8159 20.6968 18.7698 20.6298 18.7261 20.562L18.7339 20.5747ZM13.5747 20.5991C13.2798 20.6729 13.0014 20.7723 12.7388 20.894C13.089 20.7316 13.4675 20.6095 13.8755 20.5336L13.5747 20.5991ZM15.5894 20.5209C15.9098 20.5749 16.2246 20.6599 16.5288 20.7758L16.2994 20.6948C16.0673 20.6192 15.8299 20.5614 15.5894 20.5209ZM45.0455 20.5991C45.0373 20.5727 45.0296 20.5462 45.021 20.52C45.0297 20.5462 45.0373 20.5727 45.0455 20.5991ZM18.6021 20.3569C18.6398 20.4228 18.6788 20.4885 18.7203 20.5532C18.6788 20.4885 18.6398 20.4228 18.6021 20.3569ZM14.6158 20.4536C14.3705 20.4612 14.1247 20.488 13.8804 20.5327L14.1255 20.4946C14.2888 20.4731 14.4524 20.4586 14.6158 20.4536ZM44.982 20.4096C44.9709 20.3787 44.9605 20.3475 44.9488 20.3168C44.9605 20.3475 44.9709 20.3787 44.982 20.4096ZM18.5083 20.186C18.525 20.2183 18.5436 20.2496 18.5611 20.2817C18.5364 20.2365 18.5118 20.1916 18.4888 20.1459L18.5083 20.186ZM44.8882 20.1674C44.8819 20.1524 44.8752 20.1375 44.8687 20.1225C44.8752 20.1375 44.8819 20.1524 44.8882 20.1674ZM18.4029 19.9633C18.4197 20.001 18.4376 20.0383 18.4556 20.0756C18.4376 20.0383 18.4197 20.001 18.4029 19.9633ZM44.8247 20.0248C44.8067 19.9859 44.7882 19.9471 44.7691 19.9086C44.7882 19.9471 44.8067 19.9859 44.8247 20.0248ZM20.2681 20.017C20.2651 20.0135 20.2623 20.0098 20.2593 20.0063C20.2623 20.0098 20.2651 20.0135 20.2681 20.017ZM18.313 19.7495C18.324 19.778 18.3365 19.806 18.3482 19.8344C18.3365 19.806 18.3241 19.778 18.313 19.7495ZM44.73 19.8325C44.7119 19.7977 44.6934 19.7632 44.6744 19.729C44.6934 19.7632 44.7119 19.7977 44.73 19.8325ZM18.2369 19.5336C18.2489 19.5703 18.2619 19.6066 18.2749 19.643C18.2619 19.6066 18.2489 19.5703 18.2369 19.5336ZM44.6099 19.6166C44.5985 19.5974 44.5874 19.5781 44.5757 19.559C44.5874 19.5781 44.5985 19.5974 44.6099 19.6166ZM18.1665 19.2983C18.1794 19.346 18.1931 19.3935 18.2076 19.4409C18.1931 19.3935 18.1794 19.346 18.1665 19.2983ZM44.4996 19.4399C44.4813 19.412 44.4628 19.3843 44.4439 19.3569C44.4628 19.3843 44.4813 19.412 44.4996 19.4399ZM44.3941 19.2856C44.3667 19.2474 44.3387 19.2097 44.3101 19.1723C44.3387 19.2097 44.3667 19.2474 44.3941 19.2856ZM18.1167 19.0922C18.1271 19.1395 18.138 19.1868 18.1499 19.2338C18.138 19.1868 18.1271 19.1395 18.1167 19.0922ZM44.2466 19.0913C44.2284 19.0685 44.2096 19.0463 44.191 19.0239C44.2096 19.0462 44.2284 19.0685 44.2466 19.0913ZM18.0777 18.895C18.084 18.9311 18.09 18.9673 18.0972 19.0034C18.09 18.9673 18.084 18.9311 18.0777 18.895ZM44.1206 18.9418C44.0927 18.9099 44.0645 18.8782 44.0357 18.8471C44.0646 18.8782 44.0927 18.9099 44.1206 18.9418ZM43.9761 18.7836C43.9419 18.7482 43.907 18.7135 43.8716 18.6791C43.907 18.7135 43.9419 18.7482 43.9761 18.7836ZM18.0425 18.6577C18.0468 18.6928 18.0511 18.728 18.0562 18.7631C18.0511 18.728 18.0468 18.6928 18.0425 18.6577ZM43.8345 18.643C43.7934 18.604 43.7512 18.5662 43.7085 18.5288C43.7512 18.5662 43.7934 18.604 43.8345 18.643ZM18.023 18.4643C18.0253 18.4933 18.028 18.5223 18.0308 18.5512C18.0279 18.5223 18.0253 18.4933 18.023 18.4643ZM43.6617 18.4877C43.6332 18.4634 43.6039 18.4401 43.5747 18.4165C43.6039 18.4401 43.6332 18.4634 43.6617 18.4877ZM43.482 18.3422C43.4621 18.3269 43.4416 18.3123 43.4214 18.2973C43.4416 18.3123 43.462 18.3269 43.482 18.3422ZM43.3042 18.2123C43.2683 18.1875 43.2316 18.1639 43.1949 18.1401C43.2316 18.1639 43.2683 18.1875 43.3042 18.2123ZM43.1275 18.0961C43.1049 18.0821 43.082 18.0688 43.0591 18.0551C43.082 18.0688 43.1049 18.0821 43.1275 18.0961ZM39.7535 17.7739C39.7818 17.8117 39.81 17.8496 39.8365 17.8891C39.81 17.8496 39.7818 17.8117 39.7535 17.7739ZM42.7535 17.8872C42.6904 17.8559 42.6261 17.8266 42.5611 17.7983C42.6261 17.8266 42.6904 17.8559 42.7535 17.8872ZM42.4126 17.7377C42.4625 17.7574 42.5122 17.777 42.5611 17.7983C42.5122 17.777 42.4625 17.7574 42.4126 17.7377ZM37.7398 15.0893C37.3814 15.0668 37.0149 15.0861 36.647 15.1508L36.6099 15.1586C36.6223 15.1563 36.6346 15.154 36.647 15.1518C37.3831 15.0222 38.1134 15.0737 38.7847 15.2797C38.5607 15.2109 38.3304 15.1588 38.0953 15.1254C37.9778 15.1088 37.8592 15.0968 37.7398 15.0893ZM21.0796 15.2983C21.0504 15.3167 21.0217 15.3363 20.9927 15.3559C21.0655 15.3066 21.1388 15.2606 21.2134 15.2192L21.0796 15.2983ZM34.981 15.1352H34.982H34.981ZM34.3501 14.1391C34.476 14.2909 34.5924 14.4502 34.6978 14.6166L34.5894 14.4526C34.5519 14.3986 34.5129 14.3457 34.4732 14.2934C34.4332 14.2408 34.3923 14.189 34.3501 14.1381V14.1391ZM32.2828 14.4174H32.2837H32.2828ZM29.3433 14.061C29.3548 14.0844 29.3683 14.1074 29.3794 14.1313L29.4468 14.2817L29.3794 14.1303C29.3682 14.1063 29.3549 14.0835 29.3433 14.06V14.061ZM29.2017 13.8002C29.2255 13.8404 29.2495 13.8807 29.272 13.9223C29.2494 13.8807 29.2256 13.8404 29.2017 13.8002ZM33.3111 13.2143H33.3101L33.3169 13.2182C33.4289 13.2911 33.5377 13.368 33.6421 13.4497C33.5375 13.3678 33.4291 13.2902 33.3169 13.2172L33.3111 13.2143ZM29.105 13.644C29.0948 13.6287 29.0852 13.6131 29.0747 13.5981C29.0852 13.6131 29.0948 13.6287 29.105 13.644ZM28.7339 13.1909C28.7241 13.1811 28.7146 13.1712 28.7046 13.1616C28.7146 13.1712 28.7241 13.1811 28.7339 13.1909ZM31.5689 12.518C31.9246 12.5808 32.2788 12.6889 32.6294 12.8452C32.2788 12.689 31.9247 12.5808 31.5689 12.518ZM28.2798 12.8237C28.2721 12.8187 28.2642 12.814 28.2564 12.809C28.2642 12.814 28.2721 12.8187 28.2798 12.8237ZM22.6744 12.6821C22.666 12.694 22.6581 12.7062 22.6499 12.7182C22.6581 12.7062 22.666 12.694 22.6744 12.6821ZM29.6246 11.8872C29.7628 12.0077 29.8926 12.135 30.0132 12.27L30.1958 12.4868L30.0142 12.269C29.8936 12.1341 29.7629 12.0077 29.6246 11.8872ZM23.2447 12.0141L23.1958 12.0639C23.2121 12.0478 23.2281 12.0309 23.2447 12.0151C23.254 12.0062 23.2636 11.9975 23.273 11.9887C23.2638 11.9974 23.2538 12.0053 23.2447 12.0141ZM29.5601 11.8325C29.5131 11.7931 29.4656 11.7539 29.4165 11.7163C29.4656 11.754 29.5131 11.7931 29.5601 11.8325ZM23.5103 11.7817C23.4968 11.7926 23.4836 11.8038 23.4703 11.8149C23.4836 11.8038 23.4968 11.7926 23.5103 11.7817ZM29.3296 11.6518C29.2832 11.6179 29.2362 11.5846 29.188 11.5522C29.2362 11.5846 29.2833 11.6179 29.3296 11.6518ZM29.0982 11.4936C29.0499 11.4628 29.0007 11.4331 28.9507 11.4038C29.0007 11.4331 29.05 11.4628 29.0982 11.4936ZM28.8501 11.3452C28.7985 11.3166 28.7454 11.2901 28.6919 11.2631C28.7454 11.2902 28.7985 11.3166 28.8501 11.3452ZM28.0298 10.9848L28.0308 10.9858L28.313 11.0883L28.3238 11.0932C28.4155 11.1306 28.5044 11.1708 28.5913 11.2123C28.5041 11.1707 28.4147 11.1297 28.3228 11.0922L28.3121 11.0873L28.0298 10.9848ZM24.7388 11.0795C24.6737 11.1044 24.6092 11.13 24.5455 11.1577C24.6091 11.13 24.6737 11.1045 24.7388 11.0795ZM25.0992 10.9575C25.0237 10.9798 24.9485 11.002 24.8746 11.0278C24.9485 11.002 25.0237 10.9798 25.0992 10.9575ZM25.2388 10.9155C25.2303 10.9177 25.2219 10.92 25.2134 10.9223C25.3287 10.8911 25.4456 10.8638 25.564 10.8403L25.2388 10.9155ZM25.9644 10.7758H25.9634H25.9644Z" fill="white" fill-opacity="0.3"/>
</g>
</g>
</g>
</svg>
