<svg width="50" height="50" viewBox="0 0 50 50" fill="none" xmlns="http://www.w3.org/2000/svg">
<rect width="50" height="50" fill="#BEBEBE"/>
<g id="Decorate Mode">
<path d="M-354.737 -1123.03V-1122.03H2665.26V-1123.03V-1124.03H-354.737V-1123.03ZM2667.26 -1121.03H2666.26V2416.97H2667.26H2668.26V-1121.03H2667.26ZM2665.26 2418.97V2417.97H-354.737V2418.97V2419.97H2665.26V2418.97ZM-356.737 2416.97H-355.737V-1121.03H-356.737H-357.737V2416.97H-356.737ZM-354.737 2418.97V2417.97C-355.289 2417.97 -355.737 2417.52 -355.737 2416.97H-356.737H-357.737C-357.737 2418.62 -356.394 2419.97 -354.737 2419.97V2418.97ZM2667.26 2416.97H2666.26C2666.26 2417.52 2665.82 2417.97 2665.26 2417.97V2418.97V2419.97C2666.92 2419.97 2668.26 2418.62 2668.26 2416.97H2667.26ZM2665.26 -1123.03V-1122.03C2665.82 -1122.03 2666.26 -1121.59 2666.26 -1121.03H2667.26H2668.26C2668.26 -1122.69 2666.92 -1124.03 2665.26 -1124.03V-1123.03ZM-354.737 -1123.03V-1124.03C-356.394 -1124.03 -357.737 -1122.69 -357.737 -1121.03H-356.737H-355.737C-355.737 -1121.59 -355.289 -1122.03 -354.737 -1122.03V-1123.03Z" fill="black" fill-opacity="0.1"/>
<g id="Stickers">
<rect x="-302.728" y="-250.534" width="374" height="551" rx="4.5" stroke="#9747FF" stroke-dasharray="10 5"/>
<g id="Property 1=lightning bol">
<g id="Frame 176">
<g id="Vector">
<path d="M25.9944 9.39115L29.0391 9.38637L32.0582 9.38577C32.5625 9.38549 33.0902 9.3783 33.6062 9.38876C33.8077 9.39285 34.0019 9.43886 34.1883 9.53682L34.1895 9.53741C34.4924 9.69577 34.7178 9.97197 34.8109 10.301C34.8915 10.5833 34.8837 10.9256 34.7435 11.2144C34.5749 11.5617 34.332 11.9238 34.1524 12.2132L29.6636 19.5348C29.3341 20.0756 28.998 20.5864 28.6827 21.1038C28.8273 21.1052 28.9673 21.1069 29.0911 21.1067L32.5047 21.1026C32.6606 21.1023 32.9088 21.0867 33.119 21.1103C33.3564 21.137 33.611 21.2155 33.842 21.4243C34.4276 21.9538 34.3651 22.7878 33.9172 23.3121C33.7529 23.5043 33.5937 23.6747 33.4265 23.8512L32.568 24.7568L29.4505 28.0815L29.4493 28.0827C27.2182 30.4448 25.1252 32.8164 22.8983 35.1942L19.85 38.5547C19.5701 38.8651 19.2916 39.177 19.0148 39.4902C18.8939 39.6266 18.654 39.94 18.4047 40.1547C18.1546 40.37 17.7475 40.6184 17.2758 40.4287L17.274 40.4281C17.043 40.3356 16.8596 40.1519 16.7683 39.9207L16.757 39.8896C16.6434 39.5743 16.7131 39.2976 16.8071 39.0729L16.9128 38.8222C17.0179 38.5745 17.1209 38.3342 17.2208 38.0861C17.6145 37.1106 18.015 36.1379 18.422 35.1679L21.2996 28.1884L18.1277 28.1872L17.0191 28.1902C16.8577 28.1905 16.5128 28.2009 16.2979 28.1687C16.0365 28.1302 15.7916 28.0166 15.5934 27.8415C15.3304 27.612 15.1645 27.3287 15.1051 27.0129C15.0463 26.7001 15.0971 26.3824 15.2209 26.0845L15.311 25.8684C15.5218 25.3646 15.7355 24.8629 15.951 24.3622C16.3135 23.5193 16.6713 22.6741 17.0232 21.8267L20.1372 14.3725L21.1175 12.018L21.3026 11.5583C21.3803 11.3644 21.4693 11.1442 21.5557 10.9416C21.6457 10.7303 21.7409 10.5176 21.8327 10.3362C21.919 10.1655 22.0201 9.98627 22.1258 9.86875C22.4487 9.50984 22.865 9.41449 23.2392 9.39473H23.2458C24.1062 9.36417 25.1391 9.38633 25.9944 9.39115ZM17.1456 39.2556C17.1398 39.2706 17.1353 39.2861 17.1301 39.301C17.1393 39.2746 17.1481 39.2473 17.1594 39.2204L17.1456 39.2556ZM16.7803 27.8087C16.8071 27.8086 16.8338 27.8095 16.8597 27.8093L17.0185 27.8081C16.9496 27.8082 16.8666 27.8084 16.7803 27.8087ZM15.5642 26.2535C15.5593 26.2657 15.555 26.2783 15.5504 26.2905C15.5578 26.2707 15.5655 26.2507 15.5737 26.2308L15.5642 26.2535ZM33.4659 23.2452C33.4994 23.2079 33.5338 23.1709 33.5674 23.1324L33.6265 23.0637C33.5729 23.1264 33.5191 23.186 33.4659 23.2452ZM22.3969 10.1392C22.3901 10.1473 22.3842 10.1568 22.3772 10.1661C22.3887 10.1509 22.3991 10.1364 22.41 10.1243L22.3969 10.1392ZM34.0121 9.87532C34.0269 9.883 34.0409 9.89191 34.0551 9.90039C34.0473 9.89573 34.0398 9.89049 34.0318 9.88606L34.0121 9.87532ZM33.5984 9.77084C33.6238 9.77136 33.6489 9.77388 33.6736 9.77621C33.6579 9.77473 33.6419 9.77218 33.6259 9.77144L33.5984 9.77084Z" fill="#020101"/>
<path d="M26.0011 7.86362L29.0368 7.85885H32.0571C32.534 7.85858 33.1004 7.85035 33.6373 7.86123C34.0309 7.86923 34.4287 7.95697 34.8116 8.14183C34.8318 8.1508 34.8516 8.16063 34.8713 8.17048L34.8731 8.17108C34.8815 8.17537 34.8898 8.17923 34.8982 8.18362L35.0224 8.25287C35.6331 8.61315 36.085 9.19544 36.2803 9.88209C36.4473 10.4672 36.4479 11.2043 36.1185 11.8826C35.9041 12.3242 35.5866 12.8008 35.451 13.0193L34.4636 14.6318L34.463 14.633L31.4308 19.5762L32.5024 19.575L32.7777 19.5697C32.8942 19.5695 33.0329 19.5721 33.1633 19.581L33.2899 19.5923L33.4684 19.6174C33.8963 19.6908 34.4026 19.8716 34.8666 20.2908C36.1463 21.4481 35.9645 23.1734 35.1591 24.2078L35.0791 24.3057C34.8883 24.5289 34.7066 24.7225 34.5358 24.9027L33.6773 25.8089L30.5652 29.1277L30.5604 29.1325L29.7174 30.0315C27.7883 32.1038 26.0589 34.054 24.0298 36.2213L20.9821 39.5824C20.7066 39.8877 20.4322 40.1942 20.16 40.5024L20.157 40.5048C20.1553 40.5067 19.7539 41.0105 19.4018 41.3137C19.0591 41.6087 18.0564 42.3472 16.7768 41.8737C16.7723 41.8721 16.7674 41.8707 16.7625 41.8689C16.7479 41.8638 16.7311 41.8572 16.7123 41.8498L16.7051 41.8474C16.084 41.5986 15.5926 41.1044 15.347 40.4821C15.3422 40.47 15.3371 40.4579 15.3326 40.4457L15.3213 40.4146L15.3189 40.408C15.0204 39.5792 15.2339 38.8734 15.3971 38.4833L15.3989 38.4797L15.5046 38.229L15.5058 38.2254C15.6139 37.9706 15.7098 37.747 15.8031 37.5156C16.1994 36.5333 16.603 35.5533 17.0126 34.5771L19.0161 29.7163H18.1314L17.0233 29.7193H17.0216C16.9652 29.7195 16.4396 29.7344 16.0753 29.6805H16.0735H16.0711C15.5217 29.5987 15.0071 29.36 14.5888 28.9928C14.088 28.5555 13.7308 27.9748 13.6031 27.2961C13.4785 26.6334 13.5966 26.0112 13.8097 25.4985L13.8103 25.4967L13.9004 25.2806L13.901 25.2794C14.1143 24.7695 14.33 24.2623 14.547 23.7582C14.9071 22.9209 15.2628 22.0821 15.612 21.2413L15.6132 21.2377L18.7272 13.7841L19.6997 11.4474L19.8848 10.9877C19.963 10.7927 20.0571 10.5608 20.1498 10.343C20.2453 10.119 20.3551 9.87144 20.4686 9.64687C20.5569 9.47239 20.7357 9.12937 20.9898 8.84689C21.701 8.05654 22.597 7.89866 23.1587 7.869L23.1916 7.8684C24.0931 7.83638 25.185 7.859 26.0011 7.86362ZM16.8025 41.8826C16.8122 41.8858 16.8203 41.8883 16.8251 41.8898C16.8201 41.8882 16.8112 41.8853 16.8013 41.882C16.7962 41.8804 16.7904 41.8783 16.7839 41.8761C16.7909 41.8784 16.797 41.8809 16.8025 41.8826ZM16.7296 41.8564C16.7425 41.8613 16.7544 41.8658 16.7648 41.8695C16.7675 41.8704 16.7701 41.871 16.7726 41.8719C16.7584 41.8666 16.7439 41.862 16.7296 41.8564ZM19.2227 40.9603L19.2209 40.9621L19.2239 40.9597L19.2227 40.9603ZM29.0391 9.38637L25.9944 9.39115C25.1391 9.38633 24.1062 9.36417 23.2458 9.39473H23.2392C22.865 9.41449 22.4487 9.50984 22.1258 9.86875C22.0201 9.98627 21.919 10.1655 21.8327 10.3362C21.7409 10.5176 21.6457 10.7303 21.5557 10.9416C21.4693 11.1442 21.3803 11.3644 21.3026 11.5583L21.1175 12.018L20.1372 14.3725L17.0232 21.8267C16.6713 22.6741 16.3135 23.5193 15.951 24.3622L15.311 25.8684L15.2209 26.0845C15.0971 26.3824 15.0463 26.7001 15.1051 27.0129C15.1645 27.3287 15.3304 27.612 15.5934 27.8415C15.7916 28.0166 16.0365 28.1302 16.2979 28.1687C16.5128 28.2009 16.8577 28.1905 17.0191 28.1902L18.1277 28.1872L21.2996 28.1884L18.422 35.1679C18.015 36.1379 17.6145 37.1106 17.2208 38.0861C17.1209 38.3342 17.0179 38.5745 16.9128 38.8222L16.8071 39.0729C16.7131 39.2976 16.6434 39.5743 16.757 39.8896L16.7683 39.9207C16.8596 40.1519 17.043 40.3356 17.274 40.4281L17.2758 40.4287C17.7475 40.6184 18.1546 40.37 18.4047 40.1547C18.654 39.9401 18.8933 39.6281 19.0143 39.4916L19.0148 39.4902C19.2916 39.177 19.5701 38.8651 19.85 38.5547L22.8983 35.1942C25.1252 32.8164 27.2182 30.4448 29.4493 28.0827L29.4505 28.0815L32.568 24.7568L33.4265 23.8512C33.5937 23.6747 33.7529 23.5043 33.9172 23.3121C34.3651 22.7878 34.4276 21.9538 33.842 21.4243C33.611 21.2155 33.3564 21.137 33.119 21.1103C32.9088 21.0867 32.6606 21.1023 32.5047 21.1026L29.0911 21.1067C28.9673 21.1069 28.8273 21.1052 28.6827 21.1038C28.998 20.5865 29.3343 20.077 29.6637 19.5362L34.1524 12.2132C34.332 11.9238 34.5749 11.5617 34.7435 11.2144C34.8837 10.9256 34.8915 10.5833 34.8109 10.301C34.7178 9.97197 34.4924 9.69577 34.1895 9.53741C34.0031 9.43947 33.8076 9.39286 33.6062 9.38876C33.0902 9.3783 32.5625 9.38549 32.0582 9.38577L29.0391 9.38637ZM17.1301 39.301C17.1353 39.2861 17.1398 39.2706 17.1456 39.2556L17.1594 39.2204C17.1481 39.2473 17.1393 39.2746 17.1301 39.301ZM15.6855 38.8003L15.6861 38.7985L15.6872 38.7967L15.6855 38.8003ZM16.8597 27.8093C16.8338 27.8095 16.8071 27.8086 16.7803 27.8087C16.8666 27.8084 16.9496 27.8082 17.0185 27.8081L16.8597 27.8093ZM15.5504 26.2905C15.555 26.2783 15.5593 26.2657 15.5642 26.2535L15.5737 26.2308C15.5655 26.2507 15.5578 26.2707 15.5504 26.2905ZM33.5674 23.1324C33.5338 23.1709 33.4994 23.2079 33.4659 23.2452C33.5191 23.186 33.5729 23.1264 33.6265 23.0637L33.5674 23.1324ZM22.3772 10.1661C22.3842 10.1568 22.3901 10.1473 22.3969 10.1392L22.41 10.1243C22.3991 10.1364 22.3887 10.1509 22.3772 10.1661ZM34.0121 9.87532L34.0318 9.88606C34.0398 9.89049 34.0473 9.89573 34.0551 9.90039C34.0409 9.89191 34.0269 9.883 34.0121 9.87532ZM33.6259 9.77144C33.6419 9.77218 33.6579 9.77473 33.6736 9.77621C33.6489 9.77388 33.6238 9.77136 33.5984 9.77084L33.6259 9.77144ZM21.1349 9.27613L21.1367 9.27374C21.1367 9.27374 21.1393 9.27064 21.1409 9.26837C21.1389 9.27108 21.1361 9.27494 21.1361 9.27494L21.1349 9.27613ZM34.8636 8.60391L34.8654 8.6051C34.8654 8.6051 34.8602 8.60187 34.8558 8.59913C34.8591 8.60122 34.8636 8.60391 34.8636 8.60391ZM33.8248 8.25645C33.8293 8.25697 33.8355 8.25705 33.8355 8.25705H33.8379L33.8248 8.25645Z" fill="#E8E7E7"/>
<path d="M14.7345 20.9741C14.7357 20.9701 14.738 20.9639 14.7405 20.9562C14.7452 20.9415 14.7527 20.9176 14.7644 20.8893L14.7667 20.8845L17.8799 13.4318L18.8484 11.1044L19.0335 10.6447C19.1123 10.4479 19.2093 10.2094 19.3057 9.98311C19.4039 9.75265 19.5239 9.48421 19.6508 9.23319C19.7418 9.05332 19.9656 8.61398 20.3076 8.23368C21.2527 7.18336 22.4383 6.98905 23.1103 6.95355L23.1748 6.95116C24.0979 6.91908 25.2159 6.94189 26.0049 6.94638L29.0357 6.94161H32.0569L32.0571 7.85885H29.0368L26.0011 7.86362L24.6281 7.85275C24.1405 7.85052 23.6423 7.85239 23.1916 7.8684L23.1587 7.869C22.597 7.89866 21.701 8.05654 20.9898 8.84689C20.7357 9.12937 20.5569 9.47239 20.4686 9.64687C20.3551 9.87144 20.2453 10.119 20.1498 10.343L19.8848 10.9877L19.6997 11.4474L18.7272 13.7841L15.6132 21.2377L15.612 21.2413L14.547 23.7582L13.901 25.2794L13.8103 25.4967L13.8097 25.4985C13.5966 26.0112 13.4785 26.6334 13.6031 27.2961C13.7308 27.9748 14.088 28.5555 14.5888 28.9928C15.0071 29.36 15.5217 29.5987 16.0711 29.6805H16.0753C16.439 29.7343 16.964 29.7195 17.0216 29.7193H17.0233L18.1314 29.7163H19.0161L17.0126 34.5771L16.4027 36.0443L15.8031 37.5156L15.5058 38.2254L15.5046 38.229L15.3989 38.4797L15.3971 38.4833C15.2339 38.8734 15.0204 39.5792 15.3189 40.408L15.3213 40.4146L15.3326 40.4457C15.3371 40.4579 15.3422 40.47 15.347 40.4821C15.5926 41.1044 16.084 41.5986 16.7051 41.8474L16.7123 41.8498C16.7311 41.8572 16.7479 41.8638 16.7625 41.8689C16.7674 41.8707 16.7723 41.8721 16.7768 41.8737C18.0564 42.3472 19.0591 41.6087 19.4018 41.3137C19.5778 41.1622 19.7665 40.9609 19.9112 40.797L20.157 40.5048L20.16 40.5024C20.4322 40.1942 20.7066 39.8877 20.9821 39.5824L24.0298 36.2213C26.0589 34.054 27.7883 32.1038 29.7174 30.0315L30.5604 29.1325L30.5652 29.1277L33.6773 25.8089L34.5358 24.9027C34.6213 24.8125 34.7092 24.7187 34.7999 24.6198L35.0791 24.3057L35.1591 24.2078C35.9142 23.238 36.1218 21.6612 35.09 20.5143L34.8666 20.2908C34.4026 19.8716 33.8963 19.6908 33.4684 19.6174L33.2899 19.5923L33.1633 19.581C33.0329 19.5721 32.8942 19.5695 32.7777 19.5697L32.5024 19.575L31.4308 19.5762L34.463 14.633L35.451 13.0193C35.5527 12.8555 35.7566 12.5466 35.9427 12.2162L36.1185 11.8826C36.4067 11.2891 36.4418 10.6508 36.3343 10.1085L36.2803 9.88209C36.085 9.19544 35.6331 8.61315 35.0224 8.25287L34.8982 8.18362L34.8731 8.17108L34.8713 8.17048C34.8516 8.16063 34.8318 8.1508 34.8116 8.14183C34.4287 7.95697 34.0309 7.86923 33.6373 7.86123C33.1004 7.85035 32.534 7.85858 32.0571 7.85885L32.0569 6.94161C32.5155 6.94135 33.1066 6.93286 33.6559 6.944C34.1659 6.95436 34.6842 7.06849 35.1832 7.30463L35.1844 7.30344C35.1932 7.30737 35.2023 7.31151 35.2106 7.31538L35.2094 7.31657C35.2264 7.32444 35.242 7.33177 35.2548 7.33807C35.2636 7.34208 35.2725 7.34573 35.2811 7.35001L35.3241 7.3715L35.3444 7.38225L35.4686 7.45151L35.4889 7.46345C36.3011 7.94284 36.9019 8.71734 37.1619 9.63084L37.2335 9.92699C37.3749 10.6386 37.3313 11.484 36.9434 12.2831C36.7036 12.7769 36.346 13.3138 36.2316 13.4975L36.2328 13.4987L35.2512 15.0989C35.2488 15.103 35.2478 15.1079 35.2453 15.112L33.0671 18.661L33.226 18.6658L33.2451 18.667L33.3716 18.6789L33.417 18.6837L33.5961 18.7088L33.6236 18.7136C34.1124 18.7974 34.6933 18.9917 35.2465 19.4145L35.4817 19.6104L35.5151 19.6426C37.1951 21.1942 36.9051 23.4588 35.8829 24.7715C35.8786 24.7771 35.8743 24.7827 35.8698 24.7882L35.7898 24.8861C35.7856 24.8913 35.781 24.8966 35.7767 24.9017C35.5697 25.1438 35.3734 25.3515 35.2011 25.5334L34.3437 26.4397L34.3425 26.4385L31.2341 29.7547L31.2293 29.7595L31.2258 29.7619C31.2192 29.7687 31.2141 29.7747 31.2102 29.7786L31.2019 29.7881L30.3875 30.6551L30.3887 30.6563C28.5158 32.6681 26.7036 34.7057 24.7116 36.8336L24.7093 36.8384L21.6618 40.1988L21.6606 40.1976C21.3872 40.5006 21.1165 40.8053 20.8474 41.1099L20.8438 41.1147C20.7983 41.174 20.3712 41.6901 20.0007 42.0091C19.6161 42.3401 18.3041 43.3392 16.5854 42.7734C16.5772 42.7711 16.5681 42.7701 16.5592 42.7674L16.5544 42.7662C16.5496 42.7647 16.5403 42.7605 16.5281 42.7566C16.5248 42.7556 16.521 42.7554 16.5174 42.7543C16.5101 42.7519 16.5037 42.7498 16.4995 42.7483C16.4958 42.747 16.4936 42.7468 16.4911 42.7459L16.4815 42.7411L16.478 42.7399H16.4756C16.4712 42.7385 16.4654 42.7363 16.4589 42.734C16.4426 42.7282 16.4258 42.7219 16.4135 42.7172C16.4055 42.7142 16.3978 42.7116 16.3908 42.7089C16.382 42.7057 16.3732 42.7028 16.3645 42.6993C15.5089 42.3566 14.8327 41.6753 14.4945 40.8185L14.4885 40.8042C14.4849 40.7953 14.4787 40.779 14.4718 40.76L14.4598 40.729L14.4563 40.7182C14.0467 39.5804 14.3466 38.6169 14.5506 38.1293C14.5537 38.1218 14.5568 38.114 14.5602 38.1066L14.6593 37.8726L14.6617 37.8666C14.7717 37.6073 14.8627 37.3941 14.9518 37.1728C14.9534 37.1688 14.955 37.1648 14.9566 37.1608C15.3531 36.1783 15.7577 35.1986 16.1675 34.222L17.6447 30.6336L17.0261 30.636H17.0237C17.0155 30.6362 16.8357 30.6402 16.6487 30.6372C16.4542 30.634 16.1833 30.6242 15.9406 30.5882L15.9346 30.587C15.2118 30.4791 14.5344 30.1663 13.9846 29.6842C13.3414 29.1226 12.8707 28.3622 12.7021 27.4655C12.5379 26.5924 12.696 25.7877 12.9624 25.1465L12.9636 25.1441L13.0543 24.9279L13.0579 24.922C13.272 24.4102 13.4866 23.9009 13.7039 23.3958C14.0602 22.5676 14.4122 21.7387 14.7572 20.9084C14.7489 20.9297 14.743 20.9471 14.7393 20.9586C14.737 20.9657 14.7356 20.9705 14.7345 20.9741ZM16.7252 42.802H16.7287C16.7287 42.802 16.7238 42.8014 16.7192 42.8008L16.7252 42.802ZM16.5735 42.771C16.5778 42.7722 16.5831 42.7734 16.5831 42.7734H16.5795C16.5795 42.7734 16.5722 42.7707 16.5651 42.7686C16.5684 42.7696 16.5735 42.771 16.5735 42.771ZM16.8251 41.8898L16.8287 41.8904L16.8251 41.8898ZM19.8335 41.6449C19.8255 41.6521 19.8167 41.6583 19.8085 41.6652C19.793 41.678 19.7813 41.6879 19.775 41.6926C19.778 41.6904 19.7849 41.6859 19.7929 41.6795C19.7973 41.676 19.8019 41.6707 19.8085 41.6652C19.8148 41.6599 19.8243 41.6532 19.8335 41.6449ZM19.8885 41.59C19.8855 41.5931 19.8797 41.5999 19.8717 41.6079L19.8932 41.5864C19.8932 41.5864 19.8905 41.5878 19.8885 41.59ZM20.7172 41.2305C20.7024 41.2418 20.69 41.2504 20.6826 41.2556C20.6897 41.2506 20.7014 41.2432 20.7148 41.2329C20.7238 41.2261 20.7341 41.2165 20.7459 41.2066C20.7351 41.2156 20.7256 41.2241 20.7172 41.2305ZM25.9944 9.39115L29.0391 9.38637L32.0582 9.38577C32.5625 9.38549 33.0902 9.3783 33.6062 9.38876C33.8076 9.39286 34.0031 9.43947 34.1895 9.53741C34.4924 9.69577 34.7178 9.97197 34.8109 10.301C34.8915 10.5833 34.8837 10.9256 34.7435 11.2144L34.6052 11.477C34.4574 11.7389 34.287 11.9963 34.1524 12.2132L29.6637 19.5362C29.3343 20.077 28.998 20.5865 28.6827 21.1038C28.8273 21.1052 28.9673 21.1069 29.0911 21.1067L32.5047 21.1026C32.6606 21.1023 32.9095 21.0878 33.1197 21.1114C33.3568 21.1382 33.6112 21.2157 33.842 21.4243C34.4272 21.9539 34.3652 22.7893 33.9174 23.3134C33.7532 23.5055 33.5936 23.6748 33.4265 23.8512L32.568 24.7568L29.4493 28.0827L29.4489 28.0841C27.2181 30.4459 25.1249 32.8167 22.8983 35.1942L19.85 38.5547C19.5701 38.8651 19.2916 39.177 19.0148 39.4902L19.0143 39.4916C18.8933 39.6281 18.6545 39.9412 18.4053 40.1558L18.3038 40.237C18.0519 40.4261 17.6884 40.5946 17.2758 40.4287L17.2733 40.4292L17.1897 40.3898C16.9986 40.2895 16.8482 40.1229 16.7683 39.9207L16.757 39.8896C16.6434 39.5743 16.7131 39.2976 16.8071 39.0729L16.9128 38.8222C17.0179 38.5745 17.1209 38.3342 17.2208 38.0861C17.4176 37.5985 17.6165 37.1121 17.8166 36.6259L18.422 35.1679L21.2996 28.1884L18.1277 28.1872L17.0189 28.1916C16.8574 28.1919 16.5124 28.2023 16.2976 28.1701C16.0364 28.1315 15.7912 28.0178 15.5931 27.8429C15.3303 27.6134 15.1642 27.3297 15.1047 27.0141C15.0459 26.7014 15.0972 26.3823 15.2209 26.0845L15.311 25.8684L15.951 24.3622C16.3135 23.5193 16.6713 22.6741 17.0232 21.8267L21.1175 12.018L21.3026 11.5583C21.3803 11.3644 21.4693 11.1442 21.5557 10.9416C21.6457 10.7303 21.7409 10.5176 21.8327 10.3362C21.919 10.1655 22.0201 9.98627 22.1258 9.86875C22.4487 9.50984 22.865 9.41449 23.2392 9.39473H23.2458L23.9175 9.38126C24.1489 9.37911 24.3856 9.37891 24.6221 9.38007L25.9944 9.39115ZM17.1456 39.2556C17.1398 39.2706 17.1353 39.2861 17.1301 39.301C17.1393 39.2746 17.1481 39.2473 17.1594 39.2204L17.1456 39.2556ZM25.9894 10.3091C25.1196 10.3042 24.1338 10.282 23.3037 10.3103C23.2756 10.4465 23.2197 10.5782 23.1282 10.6936C23.1234 10.7004 23.1157 10.7105 23.1067 10.7223L23.1055 10.7211C23.1029 10.7241 23.101 10.7277 23.0983 10.7307L23.0924 10.7378C23.0978 10.7318 23.1017 10.7256 23.1055 10.7211L23.1067 10.7223C22.953 10.9242 22.732 11.0446 22.4989 11.0758C22.4664 11.1485 22.4328 11.224 22.3998 11.3015C22.3176 11.4943 22.231 11.707 22.1538 11.8997V11.9021L21.9687 12.3619L21.9639 12.3714L20.9835 14.7263L17.8692 22.1778C17.5164 23.0272 17.1577 23.8755 16.7944 24.7202L16.7956 24.7213L16.355 25.7567C16.5015 25.9982 16.5372 26.3022 16.4206 26.583L16.4195 26.5866L16.4099 26.6105C16.3446 26.7863 16.231 26.9295 16.0899 27.032C16.1122 27.0636 16.1387 27.0957 16.1723 27.1276C16.3337 26.9835 16.5444 26.8931 16.7777 26.8923C16.8641 26.892 16.9474 26.8924 17.0165 26.8923C17.3221 26.8918 17.5922 27.0412 17.7593 27.2709L21.3 27.2721C21.6059 27.2722 21.8917 27.425 22.0618 27.6793C22.232 27.9336 22.2644 28.2562 22.1478 28.5391L19.2699 35.5189L19.2675 35.5237C18.8623 36.4894 18.464 37.458 18.0722 38.429C18.0291 38.536 17.9821 38.6411 17.9384 38.7455C18.0184 38.8767 18.0675 39.0249 18.0745 39.1802C18.1174 39.1306 18.1596 39.0827 18.1999 39.0345C18.2393 38.9874 18.2865 38.9293 18.3277 38.8828C18.332 38.878 18.3364 38.8732 18.3408 38.8685C18.6152 38.558 18.892 38.2483 19.1696 37.9406L19.1708 37.9394L22.2195 34.5791L22.229 34.5683L23.8578 32.8082C25.491 31.0269 27.1348 29.198 28.7825 27.4536L31.8993 24.1302L31.9028 24.1267L32.5692 23.4233C32.5154 23.1501 32.5838 22.8559 32.7841 22.6328C32.8048 22.6098 32.8187 22.5934 32.8307 22.5802C32.8595 22.548 32.8851 22.5179 32.9107 22.4883L32.931 22.4656C33.0355 22.3442 33.1669 22.2611 33.3072 22.2089C33.2878 22.1733 33.2633 22.1376 33.2272 22.105C33.1963 22.0771 33.1683 22.0621 33.1412 22.0512C33.1118 22.0394 33.0726 22.0289 33.017 22.0226C32.9673 22.017 32.8956 22.0145 32.7996 22.0154C32.7536 22.0158 32.7081 22.0166 32.6587 22.0178C32.6127 22.0189 32.5568 22.0201 32.5059 22.0202L29.0918 22.025C28.9617 22.0251 28.8151 22.0228 28.6738 22.0214C28.344 22.0181 28.041 21.8381 27.8809 21.5497C27.7209 21.2613 27.7285 20.9095 27.9 20.6278C28.0625 20.3612 28.2295 20.0969 28.3932 19.8385C28.5584 19.5778 28.7206 19.3211 28.8804 19.0587L28.8816 19.0575L33.3704 11.7349L33.3728 11.7302C33.5787 11.3985 33.7774 11.1049 33.9186 10.8142C33.9186 10.8142 33.9188 10.8093 33.9198 10.8071C33.8058 10.7901 33.693 10.7524 33.5878 10.6901L33.5711 10.6889C33.5671 10.6885 33.5639 10.6877 33.5639 10.6877C33.2702 10.6767 33.0156 10.5268 32.8558 10.3043C32.5932 10.3048 32.3284 10.303 32.0593 10.3031H29.0393L29.0405 10.3043L25.9954 10.3091H25.9894ZM14.8718 38.3765C14.8685 38.3829 14.8651 38.3907 14.8611 38.3992L14.879 38.3634C14.8769 38.3673 14.8743 38.3717 14.8718 38.3765ZM16.1305 30.5954C16.1305 30.5954 16.1255 30.5964 16.1221 30.5966C16.1151 30.597 16.1025 30.5963 16.0875 30.5966L16.0887 30.5978C16.1034 30.5975 16.1153 30.597 16.1221 30.5966L16.1329 30.5954H16.1305ZM16.7803 27.8087C16.8071 27.8086 16.8343 27.8108 16.8601 27.8106L17.0189 27.8094C16.9501 27.8095 16.8665 27.8084 16.7803 27.8087ZM33.466 23.2466C33.4995 23.2093 33.5338 23.1708 33.5674 23.1324L33.626 23.0651C33.5726 23.1274 33.519 23.1876 33.466 23.2466ZM23.1007 10.7271L23.1055 10.7211L22.9742 10.622L23.1007 10.7271ZM33.5448 10.6853C33.5448 10.6853 33.549 10.686 33.5543 10.6865H33.5567C33.5535 10.6861 33.5484 10.6853 33.5484 10.6853H33.5448ZM22.3969 10.1392C22.3901 10.1473 22.3842 10.1568 22.3772 10.1661C22.3887 10.1509 22.3991 10.1364 22.41 10.1243L22.3969 10.1392ZM34.0551 9.90039C34.0473 9.89573 34.0398 9.89049 34.0318 9.88606L34.0121 9.87532C34.0269 9.883 34.0409 9.89191 34.0551 9.90039ZM33.5984 9.77084C33.6238 9.77136 33.6489 9.77388 33.6736 9.77621C33.6579 9.77473 33.6419 9.77218 33.6259 9.77144L33.5984 9.77084ZM33.8379 8.25705H33.8355C33.8355 8.25705 33.8293 8.25697 33.8248 8.25645L33.8379 8.25705ZM33.8768 7.3715C33.8928 7.37223 33.9091 7.37274 33.9257 7.37389L33.9281 7.34643C33.9133 7.34492 33.8965 7.34607 33.878 7.34523L33.8768 7.3715ZM33.6356 7.36195C33.6254 7.36424 33.6151 7.36752 33.6045 7.37031C33.6168 7.36725 33.629 7.3645 33.6415 7.36195H33.6356ZM33.7359 7.34762C33.7588 7.3454 33.7817 7.34452 33.8051 7.34404C33.7929 7.34447 33.78 7.34184 33.7669 7.34284C33.7569 7.34361 33.7467 7.34641 33.7359 7.34762ZM23.1186 10.7068L23.1139 10.7139L23.1115 10.7151C23.1143 10.7114 23.1186 10.7068 23.1186 10.7068Z" fill="#020101"/>
<path d="M29.9955 10.0163C31.1486 10 32.3081 10.0318 33.4622 10.0114C33.5748 10.0094 33.6938 10.0063 33.8046 10.0175C34.1419 10.0514 34.2104 10.3874 34.0604 10.6477C33.8933 10.9382 33.722 11.2169 33.5493 11.5006L32.5031 13.2122L28.9366 19.0219C28.3567 19.9643 27.6761 21.0089 27.1394 21.9718C27.6543 21.9895 28.23 21.9785 28.7498 21.9786L31.5549 21.9787L32.5806 21.9752C32.7426 21.9741 33.0604 21.9641 33.2102 21.9834C33.3042 21.9956 33.3905 22.0416 33.453 22.1127C33.6201 22.3038 33.5176 22.5741 33.3685 22.7407C33.0484 23.098 32.7099 23.4395 32.3815 23.7902L30.1726 26.1518C27.1455 29.3837 24.1416 32.6373 21.1613 35.9123L18.4626 38.8869C18.2154 39.1549 17.9685 39.4235 17.7208 39.691C17.6667 39.7495 17.5662 39.8708 17.4858 39.8704C17.451 39.7945 17.8449 38.8458 17.9125 38.7221C18.4341 37.3743 19.0544 35.9413 19.6117 34.6038L21.7248 29.4615C22.0129 28.7595 22.3261 28.0504 22.6009 27.3443L18.5722 27.3482C17.8698 27.3487 17.1654 27.3517 16.4632 27.3507C16.2659 27.3503 16.0902 27.3327 15.951 27.1765C15.822 27.0319 15.7981 26.8809 15.8096 26.6961C15.8604 26.4639 16.1273 25.8832 16.2321 25.6302L17.3803 22.9138L20.9036 14.4735L22.093 11.6483L22.4361 10.8289C22.5119 10.6459 22.6236 10.3273 22.7483 10.1963C22.9739 9.95949 23.5741 10.0174 23.8789 10.0177L25.2593 10.0186L29.9955 10.0163Z" fill="#EFB366"/>
<path d="M29.9955 10.0163C31.1486 10 32.3081 10.0318 33.4622 10.0114C33.5748 10.0094 33.6938 10.0063 33.8046 10.0175C34.1419 10.0514 34.2104 10.3874 34.0604 10.6477C33.8933 10.9382 33.722 11.2169 33.5493 11.5006L32.5031 13.2122L28.9366 19.0219C28.3567 19.9643 27.6761 21.0089 27.1394 21.9718C27.6543 21.9895 28.23 21.9785 28.7498 21.9786L31.5549 21.9787L32.5806 21.9752C32.7426 21.9741 33.0604 21.9641 33.2102 21.9834C33.3042 21.9956 33.3905 22.0416 33.453 22.1127C33.6201 22.3038 33.5176 22.5741 33.3685 22.7407C33.0484 23.098 32.7099 23.4395 32.3815 23.7902L30.1726 26.1518C27.1455 29.3837 24.1416 32.6373 21.1613 35.9123L18.4626 38.8869C18.2154 39.1549 17.9685 39.4235 17.7208 39.691C17.6667 39.7495 17.5662 39.8708 17.4858 39.8704C17.451 39.7945 17.8449 38.8458 17.9125 38.7221L17.9497 38.7199C18.0451 38.6681 18.3166 38.2678 18.401 38.1559L19.343 36.9057L21.5247 34.0584C23.2908 31.7841 25.097 29.5409 26.942 27.3302L30.8648 22.7125L24.4223 22.7083C24.723 22.0483 25.06 21.3808 25.3779 20.7274C25.8837 19.6765 26.3959 18.6287 26.9147 17.584C28.1664 15.0772 29.3947 12.5587 30.5999 10.0291C30.4151 10.0303 30.1758 10.032 29.9955 10.0163Z" fill="#F4A261"/>
<path d="M22.6009 27.3443L18.5722 27.3482C17.8698 27.3487 17.1654 27.3517 16.4632 27.3507C16.2659 27.3503 16.0902 27.3327 15.951 27.1765C15.822 27.0319 15.7981 26.8809 15.8096 26.6961C15.9041 26.7329 17.4355 26.7116 17.6712 26.7116L22.8675 26.7131C22.8304 26.8054 22.6412 27.2843 22.6009 27.3443Z" fill="#F4A261"/>
<path d="M17.502 23.513C17.6243 23.2716 17.795 22.8405 17.9021 22.5817C18.0915 22.1212 18.2868 21.6632 18.488 21.2077C19.5898 18.7115 20.6595 16.2012 21.6967 13.6775L22.4942 11.7728C22.6245 11.4631 22.7482 11.1478 22.892 10.8447C22.9821 10.6781 23.166 10.5415 23.353 10.5228C23.6055 10.4976 23.8474 10.527 24.0984 10.5399C24.2938 10.55 24.4878 10.563 24.6822 10.5743L27.675 10.7662C28.0392 10.7893 28.5805 10.85 28.9184 10.8495L28.9384 10.8493C28.8896 10.8637 28.847 10.8754 28.7996 10.8949C27.8113 10.8856 26.6864 10.9469 25.6849 10.9701L24.5866 10.9923C24.2698 10.9991 23.7615 10.9721 23.5306 11.2283C23.2764 11.5103 23.1031 12.0003 22.9394 12.3555L22.269 13.7888C21.607 15.1977 20.9373 16.603 20.2597 18.0045L18.5031 21.6018C18.2107 22.1928 17.8158 22.9258 17.558 23.5211L17.502 23.513Z" fill="#E8E7E7"/>
<path d="M17.502 23.513L17.558 23.5211C17.5106 23.6542 17.353 23.9467 17.273 24.0673C17.2637 24.0097 17.4622 23.5928 17.502 23.513Z" fill="#E9C46A"/>
<path d="M28.9384 10.8493C29.0283 10.845 29.1176 10.8653 29.2071 10.88C29.0774 10.8935 28.9301 10.9069 28.7996 10.8949C28.847 10.8754 28.8896 10.8637 28.9384 10.8493Z" fill="#E9C46A"/>
</g>
</g>
<path id="Union" d="M26.0054 6.94604L29.0356 6.94116H32.0571C32.5157 6.9409 33.1066 6.93296 33.6558 6.94409C34.1658 6.95446 34.6842 7.06835 35.1831 7.30444L35.1841 7.30347C35.1928 7.30737 35.2022 7.31135 35.2104 7.31519L35.2095 7.31616C35.2262 7.32392 35.2417 7.3314 35.2544 7.33765C35.2631 7.34164 35.2722 7.3461 35.2808 7.35034L35.3237 7.37183L35.3442 7.38257L35.4683 7.4519L35.4888 7.46362C36.301 7.94296 36.9016 8.71725 37.1616 9.63062L37.2339 9.92749C37.3752 10.6389 37.3307 11.4841 36.9429 12.283C36.7031 12.7768 36.3463 13.3141 36.2319 13.4978L36.2329 13.4988L35.2515 15.0994C35.2492 15.1034 35.248 15.1081 35.2456 15.1121L33.0669 18.6609L33.2261 18.6658L33.2446 18.6667L33.3716 18.6794L33.4175 18.6833L33.5962 18.7087L33.6235 18.7136C34.1123 18.7975 34.6935 18.992 35.2466 19.4148L35.4819 19.6101L35.5151 19.6423C37.1949 21.1938 36.9052 23.4585 35.8833 24.7712C35.879 24.7768 35.8741 24.7824 35.8696 24.7878L35.7896 24.8865C35.7854 24.8916 35.7811 24.8971 35.7769 24.9021C35.5699 25.1442 35.3729 25.3511 35.2007 25.533L34.3433 26.4402L34.3423 26.4382L31.2339 29.7546L31.229 29.7595L31.2261 29.7615C31.2195 29.7683 31.2143 29.7752 31.2104 29.7791L31.2017 29.7878L30.3872 30.655L30.3882 30.656C28.5154 32.6678 26.7033 34.7058 24.7114 36.8337L24.7095 36.8386L21.6616 40.199L21.6606 40.198C21.3873 40.501 21.1162 40.8056 20.8472 41.1101L20.8442 41.115C20.7987 41.1744 20.371 41.6905 20.0005 42.0095C19.6154 42.3408 18.3037 43.3389 16.5854 42.7732C16.5772 42.771 16.568 42.77 16.5591 42.7673L16.5542 42.7664C16.5493 42.7648 16.5399 42.7605 16.5278 42.7566C16.5246 42.7556 16.5206 42.7558 16.5171 42.7546L16.4907 42.7458L16.4819 42.741L16.478 42.74H16.4751C16.4708 42.7385 16.4648 42.7364 16.4585 42.7341C16.4424 42.7284 16.4259 42.7222 16.4136 42.7175C16.4057 42.7145 16.398 42.7114 16.3911 42.7087C16.3824 42.7056 16.3734 42.7024 16.3647 42.699C15.5091 42.3563 14.8328 41.6749 14.4946 40.8181L14.4888 40.8044C14.4852 40.7956 14.479 40.7792 14.4722 40.7605L14.4595 40.7292L14.4565 40.7185C14.047 39.5809 14.3463 38.6173 14.5503 38.1296C14.5534 38.1221 14.5567 38.1136 14.5601 38.1062L14.6597 37.8728L14.6616 37.8669C14.7717 37.6076 14.8625 37.3939 14.9517 37.1726C14.9532 37.1687 14.9549 37.1648 14.9565 37.1609C15.353 36.1785 15.7578 35.1989 16.1675 34.2224L17.645 30.6335L17.0259 30.6365H17.0239C17.0158 30.6367 16.8358 30.6405 16.6489 30.6375C16.4545 30.6343 16.1836 30.6245 15.9409 30.5886L15.9351 30.5867C15.2123 30.4788 14.5346 30.1663 13.9849 29.6843C13.3417 29.1227 12.8703 28.3623 12.7017 27.4656C12.5375 26.5925 12.696 25.7874 12.9624 25.1462L12.9634 25.1443L13.0542 24.9275L13.0581 24.9216C13.2721 24.4101 13.4863 23.901 13.7036 23.3962C14.0598 22.568 14.4124 21.7383 14.7573 20.908C14.7495 20.9281 14.7435 20.9454 14.7397 20.9568L14.7407 20.9558C14.7455 20.9411 14.7527 20.9174 14.7642 20.8894L14.7671 20.8845L17.8804 13.4314L18.8481 11.1042L19.0337 10.6443C19.1125 10.4476 19.2098 10.2093 19.3062 9.98315C19.4043 9.75272 19.5239 9.48412 19.6509 9.23315C19.7419 9.05332 19.9654 8.61427 20.3071 8.23413C21.252 7.18404 22.4378 6.98942 23.1099 6.95386L23.1743 6.95093C24.0975 6.91885 25.2164 6.94155 26.0054 6.94604ZM16.7251 42.8025H16.729C16.729 42.8025 16.7238 42.8011 16.7192 42.8005L16.7251 42.8025ZM16.5835 42.7732H16.5796L16.5737 42.7712C16.578 42.7724 16.5835 42.7732 16.5835 42.7732ZM16.7651 41.8699C16.7676 41.8707 16.7706 41.871 16.7729 41.8718C16.7588 41.8666 16.7442 41.8617 16.73 41.8562C16.7427 41.8611 16.7547 41.8662 16.7651 41.8699ZM19.7749 41.6931C19.7778 41.6909 19.7845 41.6857 19.7925 41.6794C19.7969 41.6759 19.8015 41.6703 19.8081 41.6648C19.7926 41.6776 19.7812 41.6884 19.7749 41.6931ZM19.8882 41.5896C19.8852 41.5927 19.8795 41.6002 19.8716 41.6082L19.8931 41.5867C19.8924 41.5871 19.8898 41.5879 19.8882 41.5896ZM20.6821 41.2556C20.6892 41.2507 20.7011 41.2433 20.7144 41.2332L20.7173 41.2302C20.7025 41.2416 20.6896 41.2504 20.6821 41.2556ZM20.1567 40.5046C20.1532 40.509 19.9287 40.792 19.6685 41.0603C19.7557 40.9706 19.8393 40.8786 19.9116 40.7966L20.1567 40.5046ZM14.8716 38.3767C14.8683 38.383 14.8648 38.3909 14.8608 38.3992L14.8794 38.363C14.8773 38.367 14.8741 38.3719 14.8716 38.3767ZM16.1226 30.5964C16.1155 30.5968 16.1024 30.5962 16.0874 30.5964L16.0884 30.5974C16.1031 30.5972 16.1157 30.5968 16.1226 30.5964L16.1333 30.5955H16.1304C16.1297 30.5956 16.1256 30.5962 16.1226 30.5964ZM13.8101 25.4968L13.9009 25.281V25.2791L13.8101 25.4968ZM35.4263 23.7947C35.3474 23.9411 35.2582 24.08 35.1587 24.2078C35.2582 24.08 35.3474 23.9411 35.4263 23.7947ZM35.4448 23.7585C35.4768 23.6973 35.5067 23.6348 35.5347 23.571C35.5067 23.6348 35.4768 23.6973 35.4448 23.7585ZM35.5601 23.5085C35.5812 23.4573 35.6021 23.4059 35.6206 23.3533C35.6021 23.4059 35.5812 23.4573 35.5601 23.5085ZM35.6646 23.2156C35.6757 23.1783 35.687 23.1411 35.6968 23.1033C35.687 23.1411 35.6757 23.1783 35.6646 23.2156ZM35.7251 22.9812C35.7331 22.9442 35.7409 22.9072 35.7476 22.8699C35.7409 22.9072 35.7331 22.9442 35.7251 22.9812ZM35.7661 22.7498C35.7727 22.7015 35.7775 22.653 35.7817 22.6042C35.7775 22.653 35.7727 22.7015 35.7661 22.7498ZM35.7896 22.4988C35.7921 22.4478 35.7926 22.3967 35.7925 22.3455C35.7926 22.3967 35.7921 22.4478 35.7896 22.4988ZM35.7915 22.2537C35.7896 22.197 35.7852 22.1405 35.7798 22.0837C35.7852 22.1405 35.7896 22.197 35.7915 22.2537ZM35.77 21.9871C35.7631 21.9335 35.7538 21.8803 35.7437 21.8269C35.7538 21.8803 35.7631 21.9335 35.77 21.9871ZM35.7241 21.7322C35.7121 21.6794 35.6974 21.6273 35.6821 21.575C35.6974 21.6273 35.7121 21.6795 35.7241 21.7322ZM35.6528 21.4753C35.6357 21.4244 35.6156 21.3744 35.5952 21.324C35.6156 21.3744 35.6358 21.4244 35.6528 21.4753ZM35.5552 21.2244C35.5288 21.1659 35.4984 21.1089 35.4673 21.0515C35.4984 21.1089 35.5288 21.1659 35.5552 21.2244ZM35.4263 20.9744C35.4191 20.9621 35.4112 20.9504 35.4038 20.9382C35.4112 20.9504 35.4191 20.9622 35.4263 20.9744ZM35.27 20.7361C35.2666 20.7314 35.2627 20.7271 35.2593 20.7224C35.2627 20.7271 35.2666 20.7314 35.27 20.7361ZM35.4507 13.0193L34.4634 14.6316V14.6335L35.4507 13.0193C35.508 12.927 35.597 12.7881 35.6978 12.6257C35.597 12.7881 35.508 12.927 35.4507 13.0193ZM36.1187 11.8826C36.1578 11.802 36.1911 11.7203 36.2212 11.6384C36.1911 11.7203 36.1578 11.802 36.1187 11.8826ZM36.2476 11.5564C36.265 11.5036 36.2814 11.4511 36.2954 11.3982C36.2814 11.4511 36.265 11.5037 36.2476 11.5564ZM36.3286 11.2566C36.3351 11.2256 36.3408 11.1947 36.3462 11.1638C36.3408 11.1947 36.3351 11.2256 36.3286 11.2566ZM36.3657 11.03C36.3706 10.9902 36.3752 10.9505 36.3784 10.9109C36.3752 10.9505 36.3707 10.9902 36.3657 11.03ZM36.3862 10.7908C36.3881 10.7416 36.3887 10.6928 36.3882 10.6443C36.3887 10.6928 36.3882 10.7416 36.3862 10.7908ZM36.3862 10.5564C36.3845 10.514 36.381 10.4721 36.3774 10.4304C36.381 10.4721 36.3845 10.514 36.3862 10.5564ZM33.8765 7.37183C33.8924 7.37254 33.9089 7.37265 33.9253 7.37378L33.9282 7.34644C33.9135 7.34495 33.8968 7.34626 33.8784 7.34546L33.8765 7.37183ZM33.605 7.36987C33.617 7.36691 33.629 7.36455 33.6411 7.36206H33.6353C33.6254 7.36431 33.6153 7.36714 33.605 7.36987ZM33.7358 7.34741C33.7588 7.34519 33.7818 7.34497 33.8052 7.34448C33.793 7.34491 33.7801 7.34157 33.7671 7.34253C33.7571 7.3433 33.7467 7.3462 33.7358 7.34741Z" fill="white" fill-opacity="0.3"/>
</g>
</g>
</g>
</svg>
