<svg width="50" height="50" viewBox="0 0 50 50" fill="none" xmlns="http://www.w3.org/2000/svg">
<rect width="50" height="50" fill="#BEBEBE"/>
<g id="Decorate Mode">
<path d="M-64.7368 -1007.03V-1006.03H2955.26V-1007.03V-1008.03H-64.7368V-1007.03ZM2957.26 -1005.03H2956.26V2532.97H2957.26H2958.26V-1005.03H2957.26ZM2955.26 2534.97V2533.97H-64.7368V2534.97V2535.97H2955.26V2534.97ZM-66.7368 2532.97H-65.7368V-1005.03H-66.7368H-67.7368V2532.97H-66.7368ZM-64.7368 2534.97V2533.97C-65.2891 2533.97 -65.7368 2533.52 -65.7368 2532.97H-66.7368H-67.7368C-67.7368 2534.62 -66.3937 2535.97 -64.7368 2535.97V2534.97ZM2957.26 2532.97H2956.26C2956.26 2533.52 2955.82 2533.97 2955.26 2533.97V2534.97V2535.97C2956.92 2535.97 2958.26 2534.62 2958.26 2532.97H2957.26ZM2955.26 -1007.03V-1006.03C2955.82 -1006.03 2956.26 -1005.59 2956.26 -1005.03H2957.26H2958.26C2958.26 -1006.69 2956.92 -1008.03 2955.26 -1008.03V-1007.03ZM-64.7368 -1007.03V-1008.03C-66.3936 -1008.03 -67.7368 -1006.69 -67.7368 -1005.03H-66.7368H-65.7368C-65.7368 -1005.59 -65.2891 -1006.03 -64.7368 -1006.03V-1007.03Z" fill="black" fill-opacity="0.1"/>
<g id="Stickers">
<rect x="-12.728" y="-134.534" width="374" height="551" rx="4.5" stroke="#9747FF" stroke-dasharray="10 5"/>
<g id="Property 1=diamond">
<g id="Frame 130">
<path id="Vector" d="M17.4122 15.2486C17.5008 15.147 17.6274 15.0864 17.7622 15.0833C18.3014 15.0709 18.8779 15.0807 19.4124 15.0802L32.0089 15.0816C32.2781 15.0816 32.6366 15.2477 32.8113 15.4526C33.7142 16.5113 36.3011 19.5342 37.1466 20.5221C37.3037 20.7057 37.3001 20.9737 37.1416 21.1561L25.3775 34.6868C25.1837 34.9097 24.8379 34.9105 24.6431 34.6886L12.7906 21.1881C12.6294 21.0045 12.629 20.7299 12.7896 20.5458L17.4122 15.2486Z" fill="#020101"/>
<path id="Vector (Stroke)" d="M18.1568 13.5174C18.5936 13.5147 19.0405 13.5202 19.4106 13.5198L32.0087 13.5217C32.431 13.5217 32.8144 13.6418 33.1004 13.774C33.3508 13.8899 33.6418 14.068 33.8934 14.325L33.9982 14.4402L38.3319 19.5077C39.0019 20.2906 38.9747 21.4257 38.3191 22.1799L26.5548 35.7106C25.741 36.6465 24.2889 36.6503 23.4706 35.7185L11.6179 22.2177C10.9409 21.4465 10.9389 20.2931 11.6136 19.5199L16.2362 14.2226L16.3075 14.1452C16.6735 13.767 17.1799 13.5361 17.7265 13.5235L18.1568 13.5174ZM19.4124 15.0802C18.8779 15.0807 18.301 15.0709 17.7619 15.0833C17.6272 15.0864 17.5006 15.1475 17.412 15.249L12.7894 20.5458C12.6288 20.7298 12.6294 21.0046 12.7906 21.1882L24.6427 34.689C24.8254 34.8971 25.141 34.9091 25.3394 34.7262L25.3772 34.6872L37.1415 21.1565C37.3 20.9741 37.3035 20.7056 37.1463 20.522C36.3006 19.5339 33.7143 16.5113 32.8115 15.4526C32.6586 15.2734 32.3649 15.124 32.1136 15.0894L32.0087 15.082L19.4124 15.0802Z" fill="#E8E7E7"/>
<path id="Vector (Stroke) (Stroke)" d="M18.151 12.6007C18.5836 12.5981 19.0635 12.6034 19.4096 12.6031L32.0091 12.6043C32.4521 12.6044 32.8531 12.6981 33.1818 12.8169L33.4851 12.941L33.7394 13.0712C33.9587 13.1933 34.1934 13.3522 34.4165 13.556L34.5491 13.6838L34.5718 13.7077L34.6769 13.8223L34.6948 13.8438L39.0295 18.9118C40.0021 20.0482 39.9583 21.693 39.0116 22.7821L27.2468 36.3118C26.0689 37.6666 23.9669 37.6729 22.7819 36.3238L10.9287 22.8227C9.94878 21.7063 9.94578 20.0362 10.9228 18.9166L15.5453 13.6193C15.5507 13.6132 15.5565 13.6074 15.562 13.6014L15.6337 13.5238L15.6492 13.5071C16.1787 12.9602 16.9122 12.6249 17.7056 12.6067H17.7139L18.1438 12.6007H18.151ZM17.727 13.5238C17.1805 13.5364 16.6732 13.7666 16.3072 14.1448L16.2367 14.2224L11.6142 19.5196L11.4948 19.6689C10.9417 20.4354 10.9834 21.4943 11.6178 22.2172L23.4709 35.7183C24.2382 36.592 25.5624 36.6432 26.3954 35.8748L26.5554 35.71L38.319 22.1802C38.9337 21.473 38.9962 20.4307 38.4492 19.6582L38.3322 19.5077L33.9986 14.4397L33.8935 14.3251C33.642 14.0682 33.3509 13.8904 33.1006 13.7746C32.8504 13.6589 32.5256 13.5522 32.1656 13.5274L32.0091 13.5214L19.4108 13.5202C19.0408 13.5205 18.5937 13.5151 18.1569 13.5178L17.727 13.5238ZM32.0091 15.0822L32.1142 15.0893C32.3654 15.1241 32.6588 15.2733 32.8116 15.4524C33.7143 16.5109 36.3004 19.5331 37.1464 20.5215C37.3035 20.7051 37.3002 20.9744 37.1416 21.1568L25.3768 34.6866L25.3398 34.726C25.1414 34.9089 24.8251 34.897 24.6424 34.689L12.7904 21.1879C12.6295 21.0042 12.6287 20.7294 12.7892 20.5454L17.4118 15.2493C17.5003 15.1479 17.6271 15.0866 17.7617 15.0834C18.3007 15.071 18.8777 15.0803 19.412 15.0798L32.0091 15.0822ZM17.9742 15.9993L13.7266 20.8654L25.0078 33.7133L36.2066 20.8332C35.1884 19.6435 32.9433 17.0204 32.1142 16.0482C32.1274 16.0636 32.132 16.0661 32.1226 16.059C32.1139 16.0525 32.0991 16.0422 32.0784 16.0315C32.0581 16.021 32.0373 16.0127 32.0187 16.0064C32.0114 16.004 32.0046 16.0018 31.9996 16.0005L31.9793 15.9981L19.412 15.9969C18.9212 15.9973 18.4408 15.9929 17.9742 15.9993Z" fill="#020101"/>
<path id="Vector_2" d="M25.3618 21.0272C26.862 21.0088 28.4223 21.0162 29.9233 21.0286C29.2009 22.8871 28.4602 24.7384 27.701 26.5822C27.4202 27.2664 27.0847 28.1891 26.7863 28.8422C26.4397 27.2434 26.1626 25.5737 25.877 23.9618C25.7052 22.992 25.5181 21.9953 25.3618 21.0272Z" fill="#8FB7B3"/>
<path id="Vector_3" d="M19.9624 21.0247L24.5094 21.0282C24.322 22.1578 24.1039 23.321 23.9012 24.4498C23.7179 25.5103 23.5268 26.5693 23.3277 27.6267C23.2588 27.985 23.1791 28.4403 23.0849 28.7863C22.5875 27.6651 22.106 26.4525 21.6507 25.3102C21.0932 23.9117 20.467 22.4371 19.9624 21.0247Z" fill="#8FB7B3"/>
<path id="Vector_4" d="M24.933 22.0828C25.0076 22.3463 25.0835 22.8422 25.1359 23.125C25.273 23.866 25.4054 24.608 25.533 25.3508L26.1034 28.4769C26.1471 28.7165 26.4036 29.9417 26.3488 30.0857C25.8858 31.3016 25.4205 32.5242 24.9379 33.7324C24.8535 33.6315 23.6185 30.3221 23.4937 29.999C23.6905 28.7263 23.972 27.3465 24.2025 26.0729C24.4372 24.7765 24.6602 23.3623 24.933 22.0828Z" fill="#E8E7E7"/>
<path id="Vector_5" d="M30.5627 21.0242C31.6545 21.0156 32.8543 21.0084 33.9408 21.033C33.4524 21.5871 32.9042 22.3041 32.4152 22.8864L29.0824 26.8071C28.6403 27.327 27.9706 28.1749 27.5112 28.6385C27.7819 28.0163 28.0482 27.2844 28.3067 26.6449L30.5627 21.0242Z" fill="#8FB7B3"/>
<path id="Vector_6" d="M15.9546 21.0259L19.3275 21.0274C20.0408 22.8913 20.8069 24.7512 21.5343 26.611C21.8001 27.2907 22.1059 27.9472 22.365 28.6415C22.311 28.6035 22.0142 28.2507 21.9424 28.167L20.6069 26.5783C19.0393 24.7116 17.4901 22.9284 15.9546 21.0259Z" fill="#8FB7B3"/>
<path id="Vector_7" d="M24.9434 15.8828C25.2843 16.1046 25.7762 16.3717 26.1362 16.5753C26.6955 16.8907 27.2529 17.2099 27.808 17.533C27.5025 17.8586 27.0713 18.2398 26.7399 18.5535L24.9308 20.2685C23.97 19.3839 22.985 18.4246 22.0347 17.5198C23.0053 16.9646 23.9783 16.4534 24.9434 15.8828Z" fill="#E8E7E7"/>
<path id="Vector_8" d="M34.6219 21.0244C35.1522 21.0201 35.6904 21.0314 36.2223 21.0309C35.6397 21.6611 35.051 22.3922 34.4872 23.0455L30.8973 27.2122C30.6364 27.5117 30.3659 27.8024 30.0864 28.0842C31.5806 25.7197 33.0925 23.3664 34.6219 21.0244Z" fill="#8FB7B3"/>
<path id="Vector_9" d="M13.6675 21.0222L15.2725 21.0302C16.3831 22.7465 17.481 24.471 18.566 26.2037C18.8993 26.7274 19.2574 27.2372 19.5882 27.7631C19.6522 27.8648 19.7116 27.9483 19.7574 28.0609C19.6149 27.9366 19.0774 27.3163 18.9352 27.1537C18.3681 26.51 17.8085 25.8596 17.2566 25.2029L13.6675 21.0222Z" fill="#8FB7B3"/>
<path id="Vector_10" d="M21.5672 17.8917C21.7638 18.0296 22.4141 18.6712 22.6008 18.8531C23.1433 19.3851 23.691 19.9116 24.2439 20.4326C23.7562 20.4497 23.2158 20.4408 22.7236 20.4414C21.8973 20.4408 20.8319 20.476 20.0288 20.4331C20.1746 20.1449 20.4174 19.767 20.5897 19.4831C20.9109 18.9498 21.2367 18.4193 21.5672 17.8917Z" fill="#E8E7E7"/>
<path id="Vector_11" d="M28.2719 17.9064C28.4402 18.0555 29.6725 20.1184 29.8515 20.4332C29.039 20.4648 28.0698 20.44 27.2423 20.441C26.715 20.4424 26.154 20.4535 25.6294 20.4321C26.2128 19.8561 26.8032 19.2874 27.4009 18.7263C27.6823 18.461 27.9845 18.1562 28.2719 17.9064Z" fill="#E8E7E7"/>
<path id="Vector_12" d="M31.9283 18.4123C32.4774 18.6878 33.1375 19.0782 33.6866 19.38C34.2687 19.7 35.0079 20.0841 35.5619 20.4279L34.4682 20.4376L32.1868 20.4417C31.7571 20.4424 31.2456 20.4567 30.8237 20.4293C30.9847 20.0818 31.2198 19.6717 31.4029 19.3358C31.5642 19.0394 31.749 18.6912 31.9283 18.4123Z" fill="#E8E7E7"/>
<path id="Vector_13" d="M17.9188 18.4403C17.9247 18.4409 17.9307 18.4407 17.9364 18.4422C18.0391 18.4693 18.9406 20.2138 19.0574 20.436C18.6225 20.4525 18.135 20.4428 17.6957 20.4426C16.9621 20.4444 16.2286 20.4422 15.4951 20.436L14.2886 20.4314C14.6484 20.2122 15.1241 19.9723 15.5013 19.7651L17.9188 18.4403Z" fill="#E8E7E7"/>
<path id="Vector_14" d="M18.79 25.4046C18.915 25.4963 19.5902 26.3096 19.731 26.4761L21.8 28.9163C22.1401 29.3151 22.5883 29.8005 22.9131 30.2129C22.9878 30.3078 23.1799 30.8449 23.2381 30.9905C23.5048 31.6592 23.7638 32.3308 24.015 33.0054C23.8289 32.8343 23.098 31.8636 22.9179 31.6184C21.4588 29.6329 20.1033 27.4907 18.79 25.4046Z" fill="#8FB7B3"/>
<path id="Vector_15" d="M31.04 25.4144C31.0197 25.6356 28.6439 29.1744 28.3225 29.6683C27.7224 30.5899 26.6313 32.1278 25.9042 32.9611C25.8915 32.8835 26.1673 32.2137 26.2182 32.0803L26.6192 31.0388C26.9255 30.2308 26.9417 30.2182 27.5059 29.5681L28.3617 28.5788L31.04 25.4144Z" fill="#8FB7B3"/>
<path id="Vector_16" d="M18.7788 15.7465C19.2833 15.7143 20.0372 15.737 20.5668 15.7366L24.0073 15.7369L23.0855 16.2569C22.5553 16.5555 22.0226 16.8496 21.4873 17.1391C20.6152 16.6694 19.626 16.229 18.7788 15.7465Z" fill="#E8E7E7"/>
<path id="Vector_17" d="M25.8945 15.7434C26.2599 15.7112 27.1125 15.7355 27.5188 15.7355L31.1014 15.7461C30.8339 15.9001 30.4332 16.0869 30.1482 16.2296L28.3735 17.1448C27.6445 16.7691 26.5977 16.1736 25.8945 15.7434Z" fill="#E8E7E7"/>
<path id="Vector_18" d="M17.4412 16.1583C17.4927 16.2226 17.7429 17.6406 17.7818 17.8433C16.8466 18.4052 15.676 19.001 14.7066 19.5202L14.4341 19.6635C14.8759 19.1953 15.3443 18.6239 15.761 18.1311L17.4412 16.1583Z" fill="#E8E7E7"/>
<path id="Vector_19" d="M32.4014 16.1534C32.5314 16.2431 33.3446 17.2362 33.5193 17.4392C34.1539 18.1764 34.7825 18.9669 35.4529 19.6738L35.2235 19.5506C34.25 18.9677 33.0295 18.4285 32.104 17.8238C32.1937 17.2654 32.2929 16.7085 32.4014 16.1534Z" fill="#E8E7E7"/>
<path id="Vector_20" d="M28.9214 17.8015L31.3157 18.2689C31.1311 18.6463 30.8884 19.0912 30.6816 19.4567L30.3335 20.0826C29.8569 19.3278 29.3974 18.5516 28.9214 17.8015Z" fill="#8FB7B3"/>
<path id="Vector_21" d="M20.9021 17.8137C20.8948 17.9016 19.6992 19.8584 19.5506 20.0838C19.4341 19.8907 19.3051 19.6388 19.1959 19.4369C18.9927 19.0782 18.7477 18.6305 18.5728 18.2611C18.8201 18.2321 19.1827 18.1513 19.4301 18.1018C19.9198 18.0008 20.4105 17.9048 20.9021 17.8137Z" fill="#8FB7B3"/>
<path id="Vector_22" d="M31.7861 16.0778L31.7974 16.0871C31.8236 16.1549 31.5678 17.5406 31.5369 17.7189C30.9554 17.6124 30.3667 17.4925 29.7854 17.3797C29.6155 17.3444 29.4857 17.3229 29.3135 17.3009C30.0734 16.9024 31.0181 16.437 31.7861 16.0778Z" fill="#8FB7B3"/>
<path id="Vector_23" d="M18.0317 16.0522C18.4194 16.2118 18.7971 16.4364 19.1725 16.6224C19.6225 16.8453 20.0603 17.0639 20.5043 17.2994C20.3718 17.3149 20.2358 17.3464 20.1046 17.3734C19.5739 17.4543 18.8818 17.6154 18.3352 17.7216C18.258 17.2309 18.1442 16.5227 18.0317 16.0522Z" fill="#8FB7B3"/>
</g>
<path id="Union" d="M19.4096 12.6028L32.0082 12.6038C32.451 12.6039 32.8524 12.698 33.1811 12.8167L33.4848 12.9407L33.7387 13.0716C33.958 13.1936 34.1933 13.3521 34.4164 13.556L34.5483 13.6839L34.5717 13.7073L34.6762 13.8226L34.6947 13.844L39.0287 18.9114C40.0013 20.0478 39.9578 21.6935 39.0111 22.7825L27.2465 36.3118C26.0686 37.6666 23.9666 37.6726 22.7817 36.3235L10.9281 22.8226C9.94829 21.7062 9.94533 20.0359 10.9223 18.9163L15.5453 13.6194C15.5506 13.6134 15.5565 13.6078 15.5619 13.6019L15.6332 13.5237L15.6488 13.5071C16.1783 12.9602 16.9122 12.625 17.7055 12.6067H17.7133L18.143 12.6009H18.1508C18.5834 12.5982 19.0635 12.6031 19.4096 12.6028ZM24.8559 36.4065C24.8894 36.409 24.9228 36.4116 24.9565 36.4124C24.9228 36.4116 24.8894 36.409 24.8559 36.4065ZM25.0668 36.4124C25.0975 36.4115 25.128 36.4088 25.1586 36.4065C25.128 36.4088 25.0975 36.4115 25.0668 36.4124ZM24.6498 36.3812C24.6846 36.3873 24.7193 36.3924 24.7543 36.3968C24.7193 36.3924 24.6846 36.3873 24.6498 36.3812ZM25.2758 36.3948C25.3022 36.3914 25.3286 36.3876 25.3549 36.3831C25.3286 36.3876 25.3022 36.3914 25.2758 36.3948ZM24.4369 36.3314C24.4765 36.3428 24.516 36.3536 24.5561 36.3626C24.516 36.3536 24.4765 36.3428 24.4369 36.3314ZM25.476 36.3597C25.5062 36.3526 25.5359 36.3437 25.5658 36.3353C25.5359 36.3437 25.5062 36.3526 25.476 36.3597ZM24.2475 36.2659C24.2831 36.2802 24.3187 36.2938 24.3549 36.306C24.3187 36.2938 24.2831 36.2802 24.2475 36.2659ZM25.6713 36.304C25.7083 36.2914 25.7443 36.2758 25.7807 36.261C25.7443 36.2758 25.7083 36.2914 25.6713 36.304ZM25.8578 36.2298C25.8972 36.2119 25.9356 36.1918 25.974 36.1712C25.9356 36.1918 25.8972 36.2119 25.8578 36.2298ZM24.0443 36.1712C24.0819 36.1913 24.1192 36.2112 24.1576 36.2288C24.1192 36.2112 24.0819 36.1913 24.0443 36.1712ZM23.8647 36.0628C23.9021 36.0881 23.9392 36.1134 23.9779 36.136C23.9392 36.1134 23.9021 36.0881 23.8647 36.0628ZM26.0502 36.1302C26.0799 36.1126 26.1082 36.0927 26.1371 36.0735C26.1082 36.0927 26.0799 36.1126 26.0502 36.1302ZM23.6996 35.9378C23.7294 35.9628 23.7586 35.9881 23.7895 36.011C23.7586 35.9881 23.7294 35.9628 23.6996 35.9378ZM23.4701 35.7181C23.5191 35.7739 23.5711 35.8262 23.6244 35.8753C23.5711 35.8262 23.5191 35.7739 23.4701 35.7181ZM38.3188 22.18L26.5541 35.7103C26.5285 35.7397 26.4998 35.7657 26.4731 35.7933L26.5551 35.7103L38.3188 22.18C38.3587 22.134 38.3958 22.0861 38.4311 22.0374C38.3958 22.086 38.3587 22.134 38.3188 22.18ZM25.3695 34.6927L25.3393 34.7259L25.3774 34.6868C25.3753 34.6892 25.3716 34.6904 25.3695 34.6927ZM38.4467 22.014C38.4749 21.974 38.5017 21.9334 38.5268 21.8919C38.5017 21.9334 38.4749 21.974 38.4467 22.014ZM11.4008 21.9202C11.4182 21.9492 11.4375 21.9769 11.4565 22.0052C11.4375 21.9769 11.4182 21.9492 11.4008 21.9202ZM11.31 21.7513C11.33 21.793 11.3524 21.8337 11.3754 21.8743C11.3524 21.8337 11.33 21.793 11.31 21.7513ZM38.5629 21.8274C38.5812 21.7945 38.5993 21.7616 38.6156 21.7278C38.5993 21.7616 38.5812 21.7945 38.5629 21.8274ZM11.2426 21.5931C11.2581 21.6339 11.2752 21.6742 11.2934 21.7142C11.2752 21.6742 11.2581 21.6339 11.2426 21.5931ZM38.6518 21.6478C38.6619 21.6244 38.6719 21.6011 38.6811 21.5774C38.6719 21.6011 38.6619 21.6244 38.6518 21.6478ZM11.1879 21.428C11.1981 21.4638 11.2099 21.4992 11.2221 21.5345C11.2099 21.4992 11.1981 21.4638 11.1879 21.428ZM38.7143 21.4837C38.7216 21.4619 38.7292 21.4403 38.7358 21.4183C38.7292 21.4403 38.7216 21.4619 38.7143 21.4837ZM11.1459 21.2532C11.1531 21.2906 11.162 21.3276 11.1713 21.3646C11.162 21.3276 11.1531 21.2906 11.1459 21.2532ZM38.768 21.2952C38.7716 21.2793 38.7745 21.2633 38.7777 21.2474C38.7745 21.2633 38.7717 21.2793 38.768 21.2952ZM11.1215 21.0843C11.1251 21.1179 11.1289 21.1514 11.1342 21.1849C11.1289 21.1514 11.1251 21.1179 11.1215 21.0843ZM38.7953 21.1517C38.7992 21.1269 38.8031 21.1023 38.8061 21.0774C38.8031 21.1023 38.7992 21.1269 38.7953 21.1517ZM11.1098 20.9075C11.1104 20.9395 11.1115 20.9713 11.1137 21.0032C11.1116 20.9714 11.1104 20.9395 11.1098 20.9075ZM38.8149 20.9866C38.8171 20.957 38.8188 20.9274 38.8197 20.8978C38.8188 20.9274 38.8171 20.957 38.8149 20.9866ZM11.1166 20.6976C11.1127 20.7447 11.1104 20.7919 11.1098 20.8392C11.1104 20.7919 11.1127 20.7447 11.1166 20.6976ZM38.8207 20.8118C38.8204 20.7857 38.819 20.7598 38.8178 20.7337C38.819 20.7598 38.8204 20.7857 38.8207 20.8118ZM11.1371 20.5296C11.1293 20.577 11.1231 20.6245 11.1186 20.6722C11.1231 20.6245 11.1293 20.5769 11.1371 20.5296ZM38.8109 20.6331C38.8089 20.6122 38.8068 20.5914 38.8041 20.5706C38.8068 20.5914 38.8089 20.6122 38.8109 20.6331ZM11.1752 20.3499C11.1624 20.3991 11.1511 20.4485 11.142 20.4983C11.1511 20.4485 11.1624 20.3991 11.1752 20.3499ZM38.7875 20.4622C38.7825 20.435 38.7761 20.4082 38.7699 20.3812C38.7761 20.4082 38.7825 20.435 38.7875 20.4622ZM11.226 20.1819C11.2096 20.2284 11.195 20.2753 11.182 20.3226C11.195 20.2753 11.2096 20.2284 11.226 20.1819ZM38.7514 20.303C38.7423 20.2692 38.731 20.2359 38.7201 20.2024C38.731 20.2359 38.7423 20.2692 38.7514 20.303ZM11.2904 20.0228C11.2715 20.0647 11.2537 20.1069 11.2377 20.1497C11.2537 20.1069 11.2715 20.0647 11.2904 20.0228ZM38.6986 20.1351C38.6844 20.0961 38.6675 20.0581 38.6508 20.0198C38.6675 20.0581 38.6844 20.0961 38.6986 20.1351ZM11.392 19.8255C11.362 19.8763 11.3342 19.9281 11.309 19.9808C11.3342 19.9281 11.362 19.8763 11.392 19.8255ZM38.6293 19.969C38.608 19.9238 38.5848 19.8793 38.56 19.8353C38.5848 19.8793 38.608 19.9238 38.6293 19.969ZM38.5492 19.8148C38.5329 19.7865 38.5144 19.7594 38.4965 19.7317C38.5144 19.7594 38.5329 19.7865 38.5492 19.8148ZM16.6059 13.8899C16.5583 13.9231 16.5128 13.9592 16.4682 13.9964C16.5632 13.9172 16.665 13.8463 16.7729 13.7855L16.6059 13.8899ZM32.9799 13.7249C32.9505 13.7129 32.921 13.6993 32.89 13.6878C32.921 13.6993 32.9505 13.7129 32.9799 13.7249ZM32.7895 13.6546C32.7413 13.6388 32.6921 13.6224 32.641 13.6087C32.6921 13.6223 32.7413 13.6388 32.7895 13.6546ZM32.4408 13.5628C32.4298 13.5608 32.4187 13.5588 32.4076 13.5569C32.4187 13.5588 32.4298 13.5608 32.4408 13.5628Z" fill="white" fill-opacity="0.3"/>
</g>
</g>
</g>
</svg>
