<svg width="50" height="50" viewBox="0 0 50 50" fill="none" xmlns="http://www.w3.org/2000/svg">
<rect width="50" height="50" fill="#BEBEBE"/>
<g id="Decorate Mode">
<path d="M-64.7026 -1122.97V-1121.97H2955.3V-1122.97V-1123.97H-64.7026V-1122.97ZM2957.3 -1120.97H2956.3V2417.03H2957.3H2958.3V-1120.97H2957.3ZM2955.3 2419.03V2418.03H-64.7026V2419.03V2420.03H2955.3V2419.03ZM-66.7026 2417.03H-65.7026V-1120.97H-66.7026H-67.7026V2417.03H-66.7026ZM-64.7026 2419.03V2418.03C-65.2549 2418.03 -65.7026 2417.59 -65.7026 2417.03H-66.7026H-67.7026C-67.7026 2418.69 -66.3595 2420.03 -64.7026 2420.03V2419.03ZM2957.3 2417.03H2956.3C2956.3 2417.59 2955.85 2418.03 2955.3 2418.03V2419.03V2420.03C2956.95 2420.03 2958.3 2418.69 2958.3 2417.03H2957.3ZM2955.3 -1122.97V-1121.97C2955.85 -1121.97 2956.3 -1121.52 2956.3 -1120.97H2957.3H2958.3C2958.3 -1122.62 2956.95 -1123.97 2955.3 -1123.97V-1122.97ZM-64.7026 -1122.97V-1123.97C-66.3594 -1123.97 -67.7026 -1122.62 -67.7026 -1120.97H-66.7026H-65.7026C-65.7026 -1121.52 -65.255 -1121.97 -64.7026 -1121.97V-1122.97Z" fill="black" fill-opacity="0.1"/>
<g id="Stickers">
<rect x="-12.6938" y="-250.466" width="374" height="551" rx="4.5" stroke="#9747FF" stroke-dasharray="10 5"/>
<g id="Property 1=speech bubble">
<g id="Frame 166">
<path id="Union" d="M19.7487 9.57797L30.1545 9.57917L30.9736 9.57319C31.9429 9.5664 33.2824 9.57524 34.2585 9.75136C37.39 10.3008 40.1712 12.0809 41.9821 14.6936C43.7685 17.2265 44.4826 20.3636 43.9683 23.4204L43.9671 23.424V23.43C43.9662 23.4351 43.9652 23.4395 43.9648 23.442V23.4456C43.4197 26.6142 41.6156 29.428 38.9627 31.2457C38.9591 31.2482 38.9533 31.2504 38.9496 31.2529C37.3784 32.3406 35.521 33.0267 33.6869 33.2833C32.3711 33.4673 30.9547 33.4149 29.9979 33.4149H26.3459C26.3167 33.4827 26.289 33.5527 26.2574 33.6217L26.2538 33.6277L26.2251 33.6899L26.2228 33.6959C25.1874 35.9066 23.297 37.841 21.2877 39.0183C20.5686 39.4448 19.8137 39.8067 19.0336 40.1029C18.9642 40.1352 18.8992 40.1659 18.8507 40.1866C18.815 40.2018 18.7834 40.2144 18.761 40.2237C18.7505 40.228 18.7401 40.2311 18.7347 40.2333L18.7383 40.2321C17.8042 40.6303 16.7223 40.4342 15.9879 39.7322C15.2523 39.0286 15.007 37.9534 15.3661 37.001L15.6483 36.2501C16.0445 35.1802 16.3631 34.2458 16.5727 33.3359C16.372 33.3131 16.1612 33.2827 15.9401 33.2439L15.8732 33.2331L15.8684 33.2319C12.641 32.669 9.77043 30.8392 7.89721 28.1486C7.89427 28.1444 7.89051 28.1403 7.88883 28.1378L7.88525 28.1331C6.13029 25.5839 5.45571 22.443 6.00905 19.3978L6.01024 19.3882L6.06884 19.0965C6.70335 16.0935 8.45507 13.4379 10.9752 11.673L10.9788 11.6706L10.9812 11.6694C12.3737 10.6999 13.9615 10.0448 15.6328 9.75136L15.6376 9.75017L15.6448 9.74897C17.0388 9.51087 18.7801 9.57802 19.7487 9.57797Z" fill="#E8E7E7"/>
<path id="Union (Stroke)" d="M19.749 8.65924L30.1476 8.66044L30.9668 8.65446L30.9739 9.57283L30.1548 9.57881L19.749 9.57761C18.7804 9.57766 17.039 9.51056 15.6451 9.74861L15.6379 9.7498L15.6331 9.751L15.0101 9.87775C13.5677 10.213 12.1999 10.8209 10.9815 11.669L10.9791 11.6702L10.9755 11.6726C8.45551 13.4375 6.70377 16.0932 6.06919 19.0961L6.0106 19.3879L6.0094 19.3974C5.45608 22.4426 6.13071 25.5836 7.8856 28.1327L7.88918 28.1375C7.89084 28.1399 7.89464 28.1441 7.89755 28.1482C9.77077 30.8389 12.6414 32.6687 15.8687 33.2316L15.8735 33.2327L15.9404 33.2435C16.1615 33.2824 16.3724 33.3128 16.573 33.3356C16.3635 34.2453 16.0447 35.18 15.6487 36.2497L15.3665 37.0007C15.0073 37.953 15.2527 39.0283 15.9883 39.7319C16.7226 40.4339 17.8045 40.6299 18.7386 40.2317L18.735 40.2329C18.7405 40.2307 18.751 40.2276 18.7613 40.2233C18.7837 40.2141 18.8155 40.2014 18.851 40.1863C18.8995 40.1655 18.9647 40.1348 19.034 40.1026C19.8139 39.8064 20.569 39.4445 21.288 39.018C23.1716 37.9142 24.9505 36.1452 26.0186 34.1069L26.2231 33.6955L26.2254 33.6895L26.2541 33.6274L26.2577 33.6214C26.2893 33.5525 26.3171 33.4822 26.3462 33.4145H29.9982C30.8353 33.4145 32.0242 33.4547 33.1897 33.3416L33.6872 33.283C35.5212 33.0264 37.3787 32.3402 38.9499 31.2525L38.963 31.2453C41.6157 29.4277 43.42 26.6138 43.965 23.4452V23.4416C43.9655 23.4391 43.9665 23.4345 43.9674 23.4297V23.4237L43.9686 23.4201C44.4827 20.3634 43.7687 17.2261 41.9824 14.6932C40.2845 12.2438 37.7337 10.526 34.8411 9.86819L34.2588 9.751C33.2827 9.57489 31.9431 9.56604 30.9739 9.57283L30.9668 8.65446C31.9234 8.64776 33.3479 8.65334 34.4214 8.84698L34.4202 8.84818C37.7922 9.4407 40.7868 11.3573 42.7369 14.1706H42.7357C44.6587 16.9005 45.4278 20.2799 44.8738 23.5731C44.8735 23.5748 44.8717 23.5762 44.8714 23.5779C44.8708 23.5818 44.8721 23.586 44.8714 23.5899C44.8708 23.5934 44.8708 23.5971 44.8702 23.6007C44.8696 23.6041 44.8684 23.608 44.8678 23.6114L44.8666 23.6102C44.8654 23.6166 44.8648 23.6217 44.8642 23.6246V23.6282C44.2715 27.0303 42.332 30.0507 39.482 32.0035C39.4698 32.0118 39.4574 32.0175 39.4473 32.0238C37.7555 33.1888 35.7709 33.9192 33.8139 34.193C32.416 34.3884 30.9057 34.3329 29.9982 34.3329H26.9322C25.7897 36.6221 23.8315 38.5897 21.7556 39.8072C21.0092 40.2499 20.2276 40.626 19.4214 40.936L19.2109 41.0317L19.1117 41.0724C19.1003 41.0771 19.0895 41.0809 19.0806 41.0843L19.0794 41.0831C19.0706 41.0868 19.0619 41.0903 19.0531 41.0939C19.0474 41.0959 19.0429 41.098 19.0411 41.0987H19.0399C17.8615 41.5762 16.5205 41.3698 15.5458 40.5677L15.3533 40.3955C14.3523 39.438 14.0174 37.9741 14.5067 36.6766L14.7889 35.9269C15.0385 35.2526 15.2471 34.6471 15.4191 34.0782C12.0852 33.419 9.12844 31.5007 7.17171 28.7115C7.16851 28.7074 7.16326 28.7013 7.15736 28.6935L7.15019 28.684C7.14282 28.6741 7.13562 28.6642 7.12866 28.6541C5.23609 25.905 4.50869 22.5175 5.10538 19.2336C5.10688 19.2249 5.10842 19.216 5.11017 19.2073L5.16876 18.9155L5.16996 18.906C5.85261 15.6757 7.73727 12.8191 10.4482 10.9205L10.4697 10.9061L10.4817 10.899C11.9777 9.86278 13.6811 9.16185 15.4741 8.84698V8.84818C15.4784 8.8474 15.4829 8.84531 15.4872 8.84459H15.4908V8.8434C16.9848 8.58833 18.8432 8.65929 19.749 8.65924ZM19.0662 41.0891C19.0612 41.0909 19.057 41.0937 19.0531 41.0951V41.0939C19.0562 41.0927 19.0608 41.0912 19.0662 41.0891ZM39.3911 32.0573L39.3684 32.0692C39.3716 32.0676 39.377 32.0663 39.3827 32.0633C39.3853 32.0619 39.3877 32.0591 39.3911 32.0573ZM44.8678 23.6114C44.8668 23.6167 44.8659 23.6211 44.8654 23.6234C44.865 23.6256 44.8643 23.6276 44.8642 23.6282L44.8678 23.6114Z" fill="#020101"/>
<path id="Vector (Stroke)" d="M15.9544 11.2846C17.1778 11.0755 18.7153 11.136 19.7961 11.136L19.7962 12.1125L19.5771 12.1119C18.4683 12.1065 17.1655 12.0683 16.119 12.2472C14.811 12.4768 13.5689 12.9889 12.4791 13.7476C10.4224 15.1879 9.01326 17.3779 8.55465 19.8465L8.535 19.9584C8.13748 22.3106 8.6719 24.7269 10.0277 26.6933C11.5254 28.8447 13.8267 30.3017 16.4118 30.7358C17.5526 30.9387 18.3309 30.8278 19.4331 30.8818C19.4658 33.4174 18.6754 35.5444 17.7894 37.8921C17.8741 37.8557 18.0086 37.8029 18.085 37.76C18.7631 37.509 19.4172 37.1975 20.0391 36.8286C21.632 35.8985 23.1261 34.3638 23.9325 32.6929L23.9704 32.6132C24.2414 32.0344 24.3999 31.4968 24.5613 30.883C25.1992 30.8559 25.9344 30.8711 26.5772 30.8708L30.0447 30.8706C31.1109 30.8706 32.2227 30.9127 33.2802 30.7771L33.3824 30.7634C34.8609 30.5566 36.3474 30.0007 37.574 29.146C39.6492 27.7243 41.0642 25.528 41.5019 23.0526L41.512 22.9941C41.9153 20.5973 41.3555 18.1382 39.9546 16.1521C38.5291 14.0854 36.3331 12.6778 33.8599 12.2457C32.8528 12.0626 31.2608 12.1136 30.2022 12.1135L19.7962 12.1125L19.7961 11.136L30.2022 11.137C31.1799 11.137 32.9069 11.0814 34.028 11.2837C36.7557 11.7603 39.1782 13.3115 40.7526 15.5892C42.3019 17.7858 42.9211 20.5054 42.475 23.1562C42.4749 23.1568 42.4748 23.1574 42.4747 23.158C42.0048 25.918 40.4357 28.3693 38.1259 29.9516L38.1259 29.9516C36.7657 30.8978 35.1346 31.5044 33.5176 31.7306C32.3418 31.8949 31.089 31.8471 30.0447 31.8471L26.5775 31.8473C26.5774 31.8473 26.5774 31.8474 26.5773 31.8474L26.5772 31.8473C26.1517 31.8475 25.7197 31.8417 25.3054 31.8438C25.1928 32.2103 25.0605 32.579 24.8834 32.9656L24.8548 33.0274C23.9662 34.9249 22.3061 36.6341 20.5372 37.6685L20.5373 37.6685C19.8814 38.0575 19.1928 38.3874 18.4794 38.6551C18.3484 38.7194 18.1927 38.7816 18.1746 38.7894C17.8148 38.9439 17.3975 38.8685 17.1144 38.5978C16.8314 38.3272 16.7375 37.9136 16.8757 37.5473C17.6446 35.5099 18.2842 33.7712 18.4275 31.8418C18.2681 31.8423 18.1046 31.8428 17.9279 31.8412C17.4256 31.8365 16.8895 31.8119 16.2501 31.6989L16.1835 31.6875C13.3664 31.1962 10.8612 29.5998 9.22622 27.2513C9.22539 27.2501 9.22457 27.2489 9.22374 27.2477C7.69977 25.0374 7.11371 22.3133 7.59382 19.6719C7.59404 19.6706 7.59426 19.6694 7.59449 19.6681C8.09984 16.948 9.65265 14.5348 11.9189 12.9477L11.9211 12.9462C13.1274 12.1063 14.5023 11.5395 15.9501 11.2853L15.9544 11.2846Z" fill="#020101"/>
<g id="Union_2">
<path fill-rule="evenodd" clip-rule="evenodd" d="M19.5775 12.112L30.2025 12.1132C31.2608 12.1132 32.8526 12.062 33.8597 12.245C36.3328 12.6771 38.5291 14.0857 39.9547 16.1525C41.3555 18.1386 41.9156 20.5978 41.5123 22.9945L41.5025 23.0531C41.0648 25.5283 39.6493 27.724 37.5743 29.1456C36.3477 30.0004 34.8609 30.5563 33.3824 30.7631L33.2811 30.7765C32.488 30.8782 31.6638 30.8809 30.8519 30.8754L30.045 30.8705H26.577C25.9343 30.8707 25.1993 30.8556 24.5616 30.8827C24.4002 31.4965 24.2418 32.0348 23.9708 32.6137L23.9329 32.693C23.1266 34.3639 21.6318 35.8987 20.0389 36.8287C19.4172 37.1975 18.7636 37.5093 18.0858 37.7601C18.0094 37.803 17.8751 37.8556 17.7903 37.892C18.6762 35.5445 19.4661 33.417 19.4334 30.8815C18.3314 30.8276 17.5527 30.939 16.4122 30.7362C13.8272 30.3021 11.5256 28.8445 10.0279 26.6933C8.67219 24.727 8.13753 22.3107 8.53498 19.9586L8.55451 19.8463C9.01319 17.378 10.4227 15.188 12.4791 13.7477C13.5688 12.989 14.8114 12.4771 16.1192 12.2475C17.1657 12.0686 18.4688 12.1065 19.5775 12.112ZM19.5701 13.6745C18.3774 13.6686 17.2576 13.6373 16.3829 13.7868C15.3026 13.9775 14.2757 14.4007 13.3751 15.027C11.6582 16.2294 10.4807 18.0565 10.0938 20.1161L10.0743 20.2284C9.74804 22.1745 10.1908 24.1734 11.3109 25.8009L11.4305 25.9682C12.6486 27.6271 14.4478 28.7661 16.4683 29.1579L16.671 29.1945L16.6856 29.1969C17.1389 29.2775 17.5243 29.2979 17.9515 29.3019C18.25 29.3047 18.6457 29.2983 19.0733 29.3068L19.5103 29.3214L19.6629 29.3361C20.4135 29.4468 20.986 30.0884 20.9959 30.862C21.0128 32.1749 20.8309 33.3866 20.5467 34.5375C21.3732 33.8128 22.0854 32.925 22.5255 32.0131L22.556 31.9508C22.7658 31.5027 22.8955 31.0748 23.0504 30.486L23.0882 30.3639C23.2987 29.7658 23.8538 29.3487 24.4957 29.3214C25.1771 29.2925 25.9843 29.3082 26.577 29.308H30.045C31.0528 29.308 31.9116 29.3376 32.7318 29.2653L33.0821 29.2274L33.1749 29.214C34.4247 29.0378 35.6724 28.5665 36.6807 27.8639C36.6841 27.8616 36.6883 27.8589 36.6917 27.8566C38.4202 26.6722 39.5986 24.8428 39.9632 22.7809L39.973 22.7272C40.3054 20.7392 39.8397 18.6994 38.6778 17.0521C38.6748 17.0478 38.6722 17.043 38.6693 17.0387C37.4817 15.317 35.6514 14.1443 33.5911 13.7843C33.5879 13.7838 33.5846 13.7837 33.5814 13.7831C32.7564 13.6331 31.3873 13.6757 30.2025 13.6757L19.5701 13.6745Z" fill="#E8E7E7"/>
<path fill-rule="evenodd" clip-rule="evenodd" d="M19.796 9.57289L30.2025 9.57411L31.0216 9.56801C31.991 9.56122 33.3303 9.57002 34.3065 9.74623C37.4382 10.2957 40.2189 12.0759 42.0299 14.6889C43.8164 17.222 44.5303 20.3587 44.0159 23.4157C44.0157 23.417 44.015 23.4181 44.0147 23.4193V23.4242C44.0138 23.4295 44.0127 23.4339 44.0123 23.4364C44.012 23.4377 44.0123 23.4397 44.0123 23.4401C43.4673 26.6089 41.6629 29.4227 39.0098 31.2404C39.0062 31.2429 39.0013 31.2452 38.9976 31.2477C37.4262 32.3356 35.5683 33.0212 33.734 33.2777C32.4179 33.4617 31.0018 33.4096 30.045 33.4096H26.3939C26.3647 33.4774 26.3364 33.5468 26.3048 33.6159L26.3011 33.622L26.273 33.6842L26.2706 33.6903C25.2353 35.9012 23.3446 37.8352 21.3353 39.0126C20.6159 39.4393 19.861 39.8015 19.0806 40.0978C19.0112 40.1301 18.9473 40.1601 18.8987 40.1808C18.8627 40.1962 18.831 40.2093 18.8084 40.2186C18.7979 40.223 18.7882 40.2262 18.7828 40.2284L18.7852 40.2272C17.851 40.6255 16.7693 40.429 16.035 39.7267C15.2993 39.0231 15.0545 37.9484 15.4136 36.996L15.6956 36.2453C16.0919 35.1751 16.4101 34.2403 16.6197 33.3302C16.4189 33.3074 16.2086 33.2776 15.9874 33.2387L15.9202 33.2277L15.9153 33.2265C12.6879 32.6635 9.81738 30.8342 7.94416 28.1434C7.94123 28.1393 7.93851 28.1349 7.93684 28.1325L7.93317 28.1276C6.17813 25.5783 5.50351 22.4375 6.05695 19.3922L6.05817 19.3825L6.11677 19.0907C6.75129 16.0877 8.50262 13.4326 11.0228 11.6676L11.0264 11.6652L11.0289 11.664C12.4214 10.6945 14.0085 10.0397 15.6798 9.74623L15.6846 9.74501L15.692 9.74379C17.086 9.50563 18.8272 9.57294 19.796 9.57289ZM19.796 11.1354C18.7152 11.1354 17.1776 11.0753 15.9544 11.2843L15.9508 11.2855C14.5031 11.5397 13.1275 12.1059 11.9212 12.9457L11.9188 12.9481C9.65284 14.5352 8.1004 16.9482 7.59504 19.6681L7.59382 19.6718C7.11378 22.3131 7.7008 25.0373 9.22468 27.2475C9.22542 27.2485 9.22636 27.25 9.22712 27.2511C10.862 29.5994 13.3671 31.1959 16.1839 31.6871L16.251 31.6994C16.8901 31.8123 17.4262 31.8363 17.9283 31.841C18.1048 31.8426 18.2684 31.8427 18.4276 31.8422C18.2842 33.7714 17.6448 35.5106 16.876 37.5477C16.738 37.914 16.8324 38.327 17.1153 38.5975C17.3983 38.8681 17.8151 38.9436 18.1749 38.7892C18.1933 38.7813 18.3492 38.7192 18.48 38.6549C19.1932 38.3872 19.8825 38.0575 20.5382 37.6686C22.3068 36.6342 23.9673 34.9249 24.8558 33.0275L24.8839 32.9652C25.0609 32.5788 25.1937 32.2097 25.3062 31.8434L26.5782 31.8471H30.045L30.8629 31.8519C31.7108 31.8577 32.6362 31.8531 33.5179 31.7299C35.1348 31.5037 36.7659 30.8974 38.126 29.9513C40.4357 28.369 42.0055 25.918 42.4754 23.1581V23.1557C42.9213 20.5052 42.302 17.786 40.753 15.5897C39.1786 13.312 36.7559 11.7597 34.0281 11.2831C32.9072 11.0808 31.1801 11.1367 30.2025 11.1366L19.796 11.1354Z" fill="#E8E7E7"/>
</g>
<path id="Vector" d="M33.8598 12.2448C36.333 12.6769 38.529 14.0845 39.9546 16.1513C41.3554 18.1374 41.9153 20.5964 41.5119 22.9932C41.0864 25.4925 39.6655 27.7122 37.574 29.1451C36.3474 29.9998 34.8608 30.5557 33.3823 30.7625C32.2944 30.9146 31.1452 30.8697 30.0447 30.8697L26.5771 30.8699C25.9343 30.8702 25.1992 30.855 24.5613 30.8821C24.3999 31.4959 24.2414 32.0335 23.9703 32.6124C23.1735 34.314 21.6573 35.8829 20.039 36.8277C19.4171 37.1966 18.7631 37.5081 18.085 37.7591C18.1174 37.7051 18.1103 37.7195 18.1492 37.678C18.7138 37.0755 19.2208 36.3978 19.6888 35.7247C21.3285 33.3663 22.1125 30.9395 22.1204 28.0635L26.3921 28.0599C27.1694 28.0594 28.0595 28.074 28.8286 28.0477C31.1096 27.97 33.6728 26.8013 35.2212 25.1207C36.6885 23.5524 37.4697 21.4637 37.3916 19.3175C37.3054 16.9905 36.376 14.7742 34.7766 13.0817C34.4477 12.733 34.195 12.5527 33.8598 12.2448Z" fill="#8FB7B3"/>
</g>
<path id="Union_3" d="M19.7485 8.65906L30.1479 8.66003L30.9663 8.65417C31.923 8.64748 33.3479 8.65292 34.4214 8.84656L34.4204 8.84851C37.7923 9.4411 40.7868 11.3575 42.7368 14.1708H42.7358C44.6588 16.9006 45.4276 20.2799 44.8735 23.5731C44.8733 23.5748 44.8719 23.5763 44.8716 23.578C44.871 23.5818 44.8722 23.5859 44.8716 23.5897L44.8677 23.6112L44.8667 23.6102C44.8654 23.6166 44.8644 23.622 44.8638 23.6249V23.6278C44.2711 27.0299 42.3319 30.051 39.4819 32.0038C39.4698 32.0121 39.4569 32.018 39.4468 32.0243C37.7551 33.1891 35.7707 33.9195 33.814 34.1932C32.4163 34.3886 30.9061 34.3329 29.9985 34.3329H26.9321C25.7897 36.6221 23.8313 38.59 21.7554 39.8075C21.0091 40.2501 20.2275 40.6264 19.4214 40.9364L19.2104 41.0321L19.1118 41.0721C19.1005 41.0768 19.0895 41.0805 19.0806 41.0839L19.0796 41.0829C19.0709 41.0865 19.0619 41.0901 19.0532 41.0936C19.048 41.0955 19.0435 41.0977 19.0415 41.0985H19.0396C17.8612 41.576 16.5201 41.3693 15.5454 40.5673L15.353 40.3954C14.3521 39.4378 14.0171 37.974 14.5063 36.6766L14.7886 35.9266C15.0382 35.2525 15.2475 34.6469 15.4194 34.078C12.0856 33.4189 9.12812 31.501 7.17139 28.7118C7.1682 28.7078 7.16361 28.701 7.15771 28.6932L7.1499 28.6844C7.14254 28.6746 7.13538 28.6643 7.12842 28.6542C5.23584 25.9051 4.50829 22.5172 5.10498 19.2333C5.10646 19.2246 5.10813 19.2155 5.10986 19.2069L5.16846 18.9159L5.16943 18.9061C5.85206 15.676 7.73703 12.8194 10.4478 10.9208L10.4692 10.9061L10.4819 10.8993C11.9779 9.86315 13.6812 9.16142 15.4741 8.84656V8.84851C15.4783 8.84774 15.4826 8.84536 15.4868 8.8446H15.4907V8.84363C16.9845 8.5886 18.8425 8.65908 19.7485 8.65906ZM31.0737 33.4188C31.2377 33.4193 31.4068 33.4197 31.5796 33.4178C31.4068 33.4198 31.2377 33.4193 31.0737 33.4188ZM32.3081 33.4003C32.325 33.3996 32.3419 33.3981 32.3589 33.3973C32.3419 33.3981 32.325 33.3996 32.3081 33.4003ZM39.3687 32.0692C39.3719 32.0677 39.3769 32.0662 39.3823 32.0634C39.3849 32.062 39.3877 32.0593 39.3911 32.0575L39.3687 32.0692ZM44.8657 23.6229C44.8653 23.6249 44.864 23.627 44.8638 23.6278L44.8677 23.6112C44.8668 23.6161 44.8662 23.6206 44.8657 23.6229ZM7.81494 14.9198C7.63295 15.1953 7.46515 15.4798 7.30615 15.7694C7.46503 15.4801 7.6331 15.1961 7.81494 14.9208V14.9198ZM8.84814 13.5712V13.5721V13.5712ZM10.5122 12.0135C10.2093 12.2479 9.91867 12.4957 9.64111 12.7557L10.0669 12.3759C10.2123 12.252 10.3605 12.1309 10.5122 12.0135ZM10.981 11.6688L10.979 11.6698L10.9751 11.6727L10.981 11.6698V11.6688ZM12.9878 10.5487C12.9412 10.569 12.8945 10.5893 12.8481 10.6102C12.8945 10.5893 12.9412 10.569 12.9878 10.5487ZM13.4819 10.3456C13.4306 10.3652 13.3796 10.3858 13.3286 10.4061C13.3797 10.3858 13.4306 10.3652 13.4819 10.3456ZM14.0005 10.161C13.9607 10.1741 13.921 10.1875 13.8813 10.201C13.921 10.1875 13.9607 10.1741 14.0005 10.161ZM14.5317 10.0009C14.4979 10.0103 14.464 10.0195 14.4302 10.0292C14.464 10.0195 14.4979 10.0103 14.5317 10.0009ZM15.6333 9.75085L15.6323 9.75183L15.6333 9.75085ZM16.1821 9.67273C16.1879 9.67206 16.1939 9.67241 16.1997 9.67175C16.2053 9.6711 16.2107 9.66947 16.2163 9.66882C16.2049 9.6701 16.1935 9.67143 16.1821 9.67273Z" fill="white" fill-opacity="0.3"/>
</g>
</g>
</g>
</svg>
