<svg width="50" height="50" viewBox="0 0 50 50" fill="none" xmlns="http://www.w3.org/2000/svg">
<rect width="50" height="50" fill="#BEBEBE"/>
<g id="Decorate Mode">
<path d="M-180.281 -1065.03V-1064.03H2839.72V-1065.03V-1066.03H-180.281V-1065.03ZM2841.72 -1063.03H2840.72V2474.97H2841.72H2842.72V-1063.03H2841.72ZM2839.72 2476.97V2475.97H-180.281V2476.97V2477.97H2839.72V2476.97ZM-182.281 2474.97H-181.281V-1063.03H-182.281H-183.281V2474.97H-182.281ZM-180.281 2476.97V2475.97C-180.834 2475.97 -181.281 2475.52 -181.281 2474.97H-182.281H-183.281C-183.281 2476.62 -181.938 2477.97 -180.281 2477.97V2476.97ZM2841.72 2474.97H2840.72C2840.72 2475.52 2840.27 2475.97 2839.72 2475.97V2476.97V2477.97C2841.38 2477.97 2842.72 2476.62 2842.72 2474.97H2841.72ZM2839.72 -1065.03V-1064.03C2840.27 -1064.03 2840.72 -1063.59 2840.72 -1063.03H2841.72H2842.72C2842.72 -1064.69 2841.38 -1066.03 2839.72 -1066.03V-1065.03ZM-180.281 -1065.03V-1066.03C-181.938 -1066.03 -183.281 -1064.69 -183.281 -1063.03H-182.281H-181.281C-181.281 -1063.59 -180.834 -1064.03 -180.281 -1064.03V-1065.03Z" fill="black" fill-opacity="0.1"/>
<g id="Stickers">
<rect x="-128.272" y="-192.534" width="374" height="551" rx="4.5" stroke="#9747FF" stroke-dasharray="10 5"/>
<g id="Property 1=glass ball">
<g id="Frame 156">
<path id="Vector" d="M15.8606 10.0763C16.4787 9.64455 17.0054 9.29927 17.6659 8.94637C20.7991 7.28327 24.4039 6.73273 27.8908 7.38477C31.1189 7.95722 34.1423 9.69204 36.3658 12.0891C36.8934 12.6681 37.3814 13.2819 37.8266 13.9263C40.227 17.4169 41.1352 21.721 40.35 25.8837C39.8552 28.577 38.6397 31.0856 36.8325 33.1428C36.0799 33.9899 35.1566 34.8076 34.2667 35.5127C34.9315 36.008 35.274 36.7564 35.1921 37.5916C35.1542 37.9764 35.0321 38.2495 34.8557 38.5897C36.1496 39.38 37.2742 40.5522 37.6334 42.0648C37.8513 42.982 37.1847 42.878 36.5458 42.8793L35.4115 42.878L31.4322 42.8646L16.3574 42.8614L14.0039 42.8587C13.5922 42.8593 13.1717 42.8684 12.7603 42.8492C12.5987 42.8416 12.521 42.774 12.4197 42.6557C12.3501 42.3957 12.4186 42.0905 12.4945 41.8366C12.9424 40.3385 13.9266 39.4246 15.2445 38.693C14.6261 37.6571 14.6764 36.915 15.3876 35.9263C15.4558 35.8625 15.5933 35.7581 15.61 35.6819C15.5839 35.6042 15.5665 35.5752 15.5815 35.4941C15.6251 35.4535 15.6361 35.4508 15.6603 35.3977C15.2866 35.1489 14.8517 34.7838 14.5148 34.4906C14.3967 34.3748 14.2654 34.26 14.1422 34.1487C13.8618 33.8813 13.615 33.6188 13.3469 33.3398C13.1386 33.1066 12.9315 32.8542 12.7292 32.6142C12.7033 32.5691 12.6871 32.5569 12.6505 32.5192C12.5937 32.4329 12.5226 32.3403 12.4606 32.2567C12.1043 31.7763 11.7862 31.2822 11.476 30.771L11.3341 30.5239C11.3067 30.4517 11.2185 30.299 11.1785 30.2249C10.8068 29.5319 10.6208 29.0506 10.3306 28.3399C9.93368 27.1635 9.61823 26.037 9.49219 24.8004C9.4824 24.7042 9.46861 24.568 9.44819 24.4754L9.44129 24.4452C9.37198 23.4482 9.34068 22.6217 9.42674 21.6223C9.65762 18.7393 10.6768 15.9754 12.3729 13.6326C12.7824 13.0621 13.0901 12.6511 13.579 12.1286C14.084 11.5869 14.6227 11.0778 15.192 10.6041C15.411 10.4214 15.6421 10.26 15.8606 10.0763ZM14.8421 31.1068C14.8309 31.0609 14.2938 30.5304 14.202 30.434C14.1517 30.3778 14.101 30.322 14.0499 30.2666C14.0208 30.2243 13.9936 30.1976 13.9588 30.1605C13.7485 29.898 13.5435 29.6315 13.3437 29.3607C12.2852 27.9315 11.5633 26.2814 11.232 24.5339C10.9273 22.9348 11.0046 21.3181 11.2512 19.7169C11.7267 17.2698 12.6316 15.2401 14.3138 13.3753C14.339 13.3553 14.4684 13.2136 14.4985 13.1817C14.5974 13.0825 14.6723 12.995 14.763 12.888C14.809 12.8632 15.0656 12.6027 15.1245 12.5499C15.5411 12.1758 15.9927 11.7973 16.4456 11.4693C16.8118 11.236 17.1504 11.0094 17.5372 10.8049C17.8414 10.6441 18.161 10.5056 18.4624 10.3453L18.8073 10.193C19.2698 10.0017 19.5988 9.87227 20.0749 9.72529C20.2566 9.6592 20.4904 9.59575 20.6787 9.53912C21.057 9.42076 21.6995 9.29929 22.097 9.26575C22.6481 9.27988 23.1482 9.20281 23.7325 9.23338C27.2076 9.41514 30.2162 10.7073 32.6149 13.2545C34.8599 15.6385 36.0115 18.9274 35.8997 22.1915C35.7942 25.2759 34.421 28.6538 32.1612 30.7805C29.6867 33.1396 26.371 34.4106 22.9534 34.3095C20.3908 34.2274 18.0021 33.4575 15.9237 31.9453C15.7342 31.8074 14.9767 31.2546 14.8421 31.1068ZM16.6005 35.4131C17.2961 35.4472 18.1662 35.4164 18.8814 35.4162L23.069 35.4211L26.6826 35.4135C27.2811 35.4135 28.1398 35.4436 28.7086 35.4068C29.0764 35.343 29.3112 35.1508 29.6196 34.963C30.8713 34.2003 32.009 33.3975 33.0654 32.3748C33.9875 31.4822 34.8835 30.3458 35.5401 29.2386C36.806 27.0702 37.5151 24.6221 37.6041 22.1129C37.7807 17.6962 35.9094 13.445 32.5326 10.5925C32.0408 10.175 31.5419 9.83467 31.0191 9.46163C30.8366 9.33133 30.0526 8.95376 29.9638 8.85224L29.9164 8.79774C29.9086 8.78864 29.901 8.77955 29.8935 8.77046C27.4918 7.84398 24.7285 7.70634 22.2101 8.17739C21.9389 8.21314 21.5268 8.30756 21.2583 8.38558C21.0873 8.43151 20.8299 8.49389 20.6731 8.56021C20.5495 8.59646 20.2683 8.67359 20.1673 8.7269C19.08 9.08195 17.6759 9.74055 16.7425 10.4133C16.6771 10.4563 16.2793 10.7265 16.2321 10.7822C15.7383 11.13 15.2683 11.5386 14.8274 11.9503C14.7995 11.9778 14.7135 12.0596 14.6944 12.0858C13.1397 13.5962 11.9333 15.4277 11.1595 17.4524C11.0718 17.6862 10.8756 18.1915 10.8328 18.4163C10.7358 18.6684 10.5145 19.488 10.4835 19.7566C10.4601 19.8176 10.4273 19.9756 10.4281 20.0391C10.3311 20.4169 10.2556 21.191 10.2214 21.5831C9.96248 24.708 10.6721 27.8368 12.2538 30.5443C12.4455 30.8693 12.7357 31.3253 12.9652 31.6215C13.0346 31.751 13.1949 31.9569 13.2883 32.0828C13.3373 32.1489 13.4177 32.2647 13.4706 32.3218C13.5717 32.4559 13.6797 32.5845 13.7942 32.7074C14.5977 33.7137 15.6025 34.6074 16.6005 35.4131Z" fill="#020101"/>
<path id="Vector (Stroke)" d="M17.5286 8.68761C20.7203 6.99342 24.3926 6.43256 27.9446 7.09679L27.9445 7.09683C31.2133 7.67713 34.2694 9.42262 36.5274 11.8328L36.5806 11.8899L36.5815 11.8909L36.5824 11.8918C37.0852 12.4437 37.5528 13.0267 37.9823 13.6373L38.0677 13.7598L38.068 13.7603C40.5127 17.3152 41.4376 21.6987 40.6379 25.9381C40.1334 28.6829 38.8944 31.2395 37.0526 33.3362L37.0521 33.3368L37.0516 33.3374C36.3623 34.1132 35.5365 34.8608 34.7256 35.5199C35.2838 36.0652 35.5633 36.8083 35.4837 37.6202V37.6203C35.4504 37.9587 35.3584 38.2216 35.2356 38.4835C36.4751 39.2956 37.5568 40.4743 37.9184 41.9971L37.9291 42.0444C37.9798 42.2794 37.9859 42.4927 37.9217 42.6758C37.8471 42.8883 37.6938 43.017 37.5209 43.0871C37.3615 43.1516 37.1822 43.1683 37.0253 43.1733C36.873 43.1782 36.687 43.172 36.5464 43.1723H36.5455L35.4112 43.171H35.4105L31.4312 43.1575L16.357 43.1544L14.0042 43.1516C13.6006 43.1523 13.1673 43.1614 12.7467 43.1419H12.7466C12.623 43.1361 12.5129 43.1054 12.4122 43.0425C12.3196 42.9847 12.2507 42.9087 12.1972 42.8463L12.1539 42.7958L12.1367 42.7315C12.0436 42.3839 12.138 42.0063 12.2138 41.7527L12.2366 41.6783C12.6926 40.2263 13.6336 39.3035 14.8479 38.5828C14.6173 38.1349 14.501 37.7106 14.5249 37.2758C14.5534 36.7593 14.7775 36.2728 15.1498 35.7553L15.1665 35.732L15.1875 35.7124C15.209 35.6922 15.2358 35.6691 15.2556 35.6517C15.2674 35.6413 15.2784 35.6315 15.2887 35.6222C15.282 35.5787 15.2814 35.5365 15.2858 35.4933C14.952 35.2505 14.5999 34.9531 14.3224 34.7116L14.3158 34.7058L14.3096 34.6997C14.1972 34.5895 14.0742 34.4822 13.9457 34.366L13.9428 34.3634L13.9401 34.3608C13.6537 34.0877 13.4009 33.8188 13.1357 33.5429L13.132 33.539L13.1284 33.535C12.9164 33.2975 12.704 33.0389 12.5052 32.803L12.4883 32.7829L12.4751 32.7601C12.4743 32.7586 12.4736 32.7575 12.4731 32.7567C12.4719 32.7554 12.4699 32.7533 12.4663 32.7497C12.4613 32.7446 12.4507 32.734 12.4403 32.7233L12.421 32.7035L12.4058 32.6803C12.3549 32.603 12.2919 32.5211 12.2253 32.4312L12.1576 32.3392C11.8212 31.878 11.5187 31.4061 11.2256 30.923L11.2237 30.92L11.222 30.9169L11.0684 30.6496L11.0601 30.6277C11.0545 30.6128 11.0352 30.5734 11.0032 30.5143C10.9888 30.4876 10.9739 30.4606 10.9596 30.4348C10.9457 30.4098 10.9317 30.3845 10.9207 30.3643L10.9205 30.3639L10.9203 30.3634C10.54 29.6543 10.3482 29.158 10.0593 28.4507L10.0559 28.4423L10.053 28.4336C9.65319 27.2486 9.33002 26.0984 9.20075 24.8301L9.2007 24.83C9.19037 24.7285 9.17827 24.613 9.16256 24.5406L9.15059 24.4882L9.14901 24.4655C9.0793 23.4626 9.04688 22.6188 9.13485 21.5972C9.37029 18.6613 10.4084 15.8466 12.1356 13.4608C12.5215 12.923 12.8237 12.5179 13.273 12.0278L13.365 11.9284C13.8784 11.3779 14.426 10.8604 15.0046 10.3789C15.1195 10.283 15.237 10.1933 15.3483 10.108C15.4614 10.0214 15.5687 9.93901 15.672 9.85209L15.6821 9.84365L15.6928 9.83617C16.3155 9.40118 16.8529 9.04862 17.5279 8.68799L17.5282 8.6878L17.5286 8.68761ZM27.8908 7.3848C24.4039 6.73276 20.7991 7.28329 17.6659 8.94639C17.0054 9.29928 16.4787 9.64457 15.8606 10.0764L15.8194 10.1105C15.6132 10.2803 15.3973 10.4328 15.192 10.6041L15.0856 10.6933C14.5555 11.1416 14.0524 11.6208 13.579 12.1286L13.4894 12.2253C13.0513 12.7031 12.7568 13.0977 12.3729 13.6326C10.6768 15.9754 9.6576 18.7394 9.42672 21.6223C9.34066 22.6218 9.37196 23.4482 9.44127 24.4452L9.44818 24.4754C9.4686 24.568 9.4824 24.7042 9.49219 24.8004C9.61823 26.037 9.93369 27.1635 10.3306 28.3399C10.6208 29.0506 10.8069 29.5319 11.1785 30.225C11.2185 30.2991 11.3067 30.4517 11.3341 30.5239L11.476 30.771C11.7862 31.2822 12.1043 31.7763 12.4606 32.2567C12.5226 32.3403 12.5937 32.4329 12.6505 32.5193C12.6871 32.5569 12.7033 32.5692 12.7292 32.6142C12.9315 32.8542 13.1386 33.1066 13.3469 33.3398C13.615 33.6188 13.8618 33.8813 14.1422 34.1487C14.2653 34.2601 14.3967 34.3748 14.5148 34.4906C14.8517 34.7839 15.2866 35.1489 15.6603 35.3977C15.6362 35.4508 15.6251 35.4535 15.5815 35.4942C15.5665 35.5752 15.5839 35.6043 15.61 35.6819C15.5933 35.7581 15.4558 35.8626 15.3876 35.9264L15.3547 35.9725C14.675 36.9382 14.6358 37.6733 15.2445 38.6931C13.9267 39.4246 12.9424 40.3385 12.4945 41.8366C12.4186 42.0905 12.3501 42.3957 12.4197 42.6557C12.521 42.774 12.5987 42.8416 12.7603 42.8492C13.1717 42.8684 13.5922 42.8593 14.0039 42.8587L31.4322 42.8646L35.4115 42.8781L36.5458 42.8793C37.1847 42.878 37.8512 42.982 37.6334 42.0648C37.2742 40.5522 36.1496 39.38 34.8557 38.5897C35.0266 38.2601 35.1465 37.9935 35.1883 37.6273L35.1921 37.5916C35.274 36.7565 34.9315 36.008 34.2666 35.5127C35.1287 34.8296 36.0222 34.0409 36.7615 33.2221L36.8325 33.1428C38.6396 31.0856 39.8552 28.577 40.3499 25.8837C41.1352 21.721 40.227 17.4169 37.8266 13.9263C37.3814 13.2819 36.8934 12.6681 36.3658 12.0891C34.1422 9.69207 31.1189 7.95725 27.8908 7.3848ZM22.2101 8.17739C24.7285 7.70635 27.4918 7.84401 29.8935 8.77048C29.9011 8.77957 29.9086 8.78867 29.9164 8.79776L29.9638 8.85226L29.9684 8.85722C30.077 8.96551 30.8395 9.3334 31.0191 9.46166C31.5419 9.8347 32.0408 10.175 32.5326 10.5925C35.9094 13.445 37.7807 17.6962 37.6041 22.1129L37.5995 22.2305C37.4927 24.6985 36.7862 27.1042 35.5401 29.2387C34.8835 30.3458 33.9875 31.4822 33.0654 32.3748L32.9661 32.4701C31.9378 33.4477 30.8322 34.2241 29.6196 34.963L29.5626 34.9982C29.2813 35.1743 29.0534 35.347 28.7086 35.4068C28.1398 35.4436 27.2811 35.4135 26.6826 35.4135L23.069 35.4211L18.8815 35.4162C18.1662 35.4164 17.2961 35.4472 16.6005 35.4131C15.6337 34.6326 14.6605 33.7695 13.8701 32.8015L13.7942 32.7075C13.694 32.5999 13.5988 32.4879 13.5088 32.3718L13.4706 32.3218C13.4178 32.2647 13.3373 32.1489 13.2883 32.0828C13.2007 31.9648 13.0544 31.7765 12.9792 31.6467L12.9651 31.6216C12.7356 31.3254 12.4455 30.8693 12.2538 30.5443C10.6721 27.8368 9.96247 24.708 10.2214 21.5831C10.2556 21.191 10.3311 20.417 10.4281 20.0391C10.4274 19.9795 10.4562 19.837 10.4791 19.7691L10.4835 19.7566C10.5145 19.488 10.7358 18.6684 10.8328 18.4163C10.8756 18.1915 11.0718 17.6862 11.1595 17.4524C11.9333 15.4277 13.1396 13.5962 14.6943 12.0858C14.7135 12.0596 14.7995 11.9778 14.8274 11.9503C15.2407 11.5644 15.6796 11.1811 16.1398 10.8481L16.2321 10.7822C16.2793 10.7265 16.677 10.4564 16.7425 10.4133C17.6467 9.76159 18.9927 9.12315 20.0645 8.76109L20.1673 8.7269C20.2683 8.6736 20.5495 8.59645 20.6731 8.5602C20.8299 8.49388 21.0873 8.43152 21.2582 8.38558C21.5268 8.30756 21.9388 8.21314 22.2101 8.17739ZM29.7194 9.01772C27.3923 8.13745 24.7139 8.00717 22.264 8.4654L22.2562 8.46683L22.2484 8.46788C21.9959 8.50115 21.5989 8.59169 21.34 8.66691L21.3372 8.66777L21.3343 8.66854C21.1458 8.71919 20.9196 8.77409 20.7872 8.83009L20.7717 8.83662L20.7555 8.84134C20.6887 8.86093 20.5941 8.88737 20.4985 8.91702C20.395 8.94908 20.3263 8.9743 20.3041 8.98601L20.282 8.99765L20.2583 9.00542C19.1925 9.35342 17.8173 9.99981 16.9138 10.651L16.9087 10.6547L16.9035 10.658C16.8738 10.6776 16.7606 10.7541 16.649 10.8326C16.5933 10.8718 16.54 10.9101 16.4987 10.9412C16.4779 10.9568 16.4621 10.9692 16.4513 10.9781C16.4495 10.9796 16.448 10.9809 16.4468 10.982L16.4314 11.0001L16.4008 11.0217C15.9234 11.358 15.4651 11.7557 15.0292 12.1627C15.0214 12.1703 15.0114 12.1801 15.0018 12.1895C14.9896 12.2013 14.9765 12.2141 14.9639 12.2266C14.9511 12.2393 14.94 12.2505 14.9317 12.2592C14.9293 12.2618 14.9274 12.2638 14.9261 12.2652L14.9165 12.2785L14.8985 12.296C13.3744 13.7767 12.1918 15.5721 11.4332 17.557L11.4331 17.557C11.3882 17.6768 11.3193 17.8563 11.2553 18.036C11.1889 18.2227 11.1371 18.3844 11.1206 18.4711L11.1157 18.497L11.1062 18.5216C11.064 18.6312 10.9879 18.8854 10.9166 19.1551C10.8447 19.4276 10.7873 19.6799 10.7746 19.7901L10.7703 19.827L10.7571 19.8616C10.7568 19.8622 10.756 19.8645 10.7546 19.8691C10.7529 19.8748 10.7507 19.8823 10.7484 19.8914C10.7436 19.9097 10.7386 19.9317 10.734 19.9544C10.7295 19.9772 10.7259 19.9985 10.7235 20.0158C10.7213 20.0327 10.7211 20.039 10.7211 20.0373L10.7216 20.0743L10.7119 20.112C10.6222 20.4613 10.5482 21.2083 10.5132 21.6086C10.2597 24.6727 10.9555 27.7405 12.5062 30.3955L12.5427 30.4571C12.7306 30.7714 12.992 31.1779 13.1967 31.4421L13.2117 31.4615L13.2233 31.483C13.2794 31.5877 13.4182 31.7663 13.5236 31.9082L13.5236 31.9083C13.5778 31.9814 13.6317 32.059 13.67 32.1049L13.6855 32.1226L13.6956 32.1335L13.7046 32.1454C13.7876 32.2556 13.8757 32.3619 13.9685 32.4641L14.0086 32.5078L14.0162 32.5159L14.0232 32.5246C14.7872 33.4814 15.7428 34.3398 16.7097 35.1246C17.3785 35.1513 18.1827 35.1235 18.8814 35.1233H18.8818L23.0687 35.1281L26.6819 35.1206H26.6826C27.2943 35.1206 28.1164 35.1498 28.6729 35.1154C28.9604 35.0619 29.1265 34.9202 29.4672 34.7128C30.7083 33.9566 31.8263 33.1667 32.8616 32.1644C33.7649 31.29 34.6447 30.1741 35.2881 29.0892C36.529 26.963 37.224 24.5627 37.3113 22.1025L37.3113 22.1018V22.1012C37.4844 17.7747 35.6513 13.6105 32.3435 10.8163L32.3432 10.8161L32.343 10.8158C31.8633 10.4085 31.3783 10.0779 30.849 9.70013L30.8489 9.70008C30.7777 9.64922 30.5628 9.53577 30.3178 9.4043C30.2031 9.34273 30.0869 9.27977 29.9931 9.2252C29.9464 9.198 29.9018 9.17089 29.8641 9.14566C29.8345 9.12585 29.7826 9.09012 29.7433 9.04519L29.7427 9.04443L29.7194 9.01772ZM22.8873 8.95082C23.1549 8.93711 23.4392 8.92467 23.7478 8.94081C27.2924 9.12622 30.3739 10.4474 32.8282 13.0537C35.1123 15.4792 36.2883 18.8121 36.1949 22.1233L36.1925 22.2015C36.0847 25.3534 34.6849 28.8068 32.3634 30.9925C29.8322 33.4057 26.4406 34.7057 22.9448 34.6024H22.944C20.3265 34.5185 17.8803 33.7312 15.7513 32.1822C15.6563 32.1131 15.4177 31.9391 15.1855 31.7634C15.0696 31.6757 14.9538 31.5864 14.8576 31.509C14.7679 31.4369 14.677 31.3607 14.6255 31.3042L14.5752 31.2489L14.5718 31.2353C14.5619 31.2242 14.5497 31.2106 14.5351 31.1948C14.4847 31.1402 14.416 31.069 14.3428 30.9942C14.2019 30.8502 14.0367 30.6852 13.9898 30.636L13.9867 30.6328L13.9837 30.6294C13.9344 30.5743 13.8847 30.5196 13.8346 30.4653L13.8203 30.4499L13.8084 30.4326C13.7951 30.4132 13.7874 30.406 13.7452 30.361L13.7373 30.3526L13.7301 30.3437C13.5175 30.0782 13.3101 29.8086 13.108 29.5347C12.0233 28.0701 11.2836 26.3792 10.9442 24.5885C10.6311 22.9452 10.7122 21.2924 10.9617 19.6724L10.9626 19.6667L10.9637 19.6611C11.4477 17.17 12.3731 15.0893 14.0963 13.179L14.1127 13.1608L14.1246 13.1513C14.1279 13.1481 14.1328 13.1433 14.1392 13.1367C14.1534 13.1222 14.1713 13.1032 14.1906 13.0827C14.2248 13.0461 14.2716 12.9953 14.2857 12.9804L14.2883 12.9777L14.291 12.975C14.3807 12.8849 14.449 12.8054 14.5396 12.6986L14.5753 12.6564L14.606 12.6398C14.6125 12.6343 14.6214 12.6264 14.633 12.6159C14.6611 12.5901 14.6969 12.5561 14.7351 12.519C14.8049 12.4514 14.8939 12.3632 14.9288 12.3318C15.3501 11.9537 15.8099 11.568 16.2738 11.232L16.2808 11.2269L16.2882 11.2222C16.6473 10.9934 16.9999 10.7576 17.4003 10.5459C17.5582 10.4625 17.7194 10.3852 17.8739 10.3109C18.0303 10.2358 18.1802 10.1635 18.3248 10.0866L18.3342 10.0816L18.344 10.0774L18.6921 9.92357L18.6953 9.92224C19.1593 9.73044 19.4969 9.59735 19.9823 9.44726C20.1731 9.37846 20.42 9.31096 20.5934 9.25881C20.994 9.13379 21.6561 9.00898 22.0723 8.97386L22.0884 8.97247L22.1044 8.9729C22.3662 8.97961 22.6162 8.96471 22.8873 8.95082ZM23.7325 9.2334C23.1482 9.20283 22.6481 9.2799 22.097 9.26577C21.6995 9.29931 21.057 9.42079 20.6787 9.53915C20.4904 9.59578 20.2566 9.65922 20.0749 9.7253C19.5988 9.87229 19.2698 10.0018 18.8073 10.193L18.4624 10.3453L18.4056 10.3751C18.1211 10.523 17.8223 10.6542 17.5372 10.805C17.1504 11.0095 16.8117 11.236 16.4456 11.4693L16.3607 11.5314C15.9364 11.8446 15.5151 12.1992 15.1245 12.5499L15.0939 12.5786C15.0047 12.6642 14.8033 12.8663 14.763 12.8881L14.6973 12.9651C14.6333 13.0395 14.5727 13.1073 14.4986 13.1818L14.4043 13.283C14.3651 13.3249 14.3265 13.3652 14.3138 13.3753L14.2355 13.4628C12.6034 15.3037 11.7193 17.308 11.2512 19.7169L11.2286 19.8671C11.0001 21.4191 10.9368 22.9848 11.232 24.5339C11.5633 26.2814 12.2852 27.9315 13.3437 29.3607C13.5435 29.6315 13.7486 29.898 13.9588 30.1605C13.9936 30.1976 14.0208 30.2243 14.0498 30.2666C14.1009 30.322 14.1516 30.3778 14.202 30.434C14.2938 30.5304 14.8308 31.0609 14.8421 31.1068C14.9767 31.2546 15.7341 31.8074 15.9237 31.9453C18.0021 33.4575 20.3908 34.2274 22.9534 34.3095C26.371 34.4106 29.6867 33.1397 32.1612 30.7805C34.4033 28.6704 35.7727 25.3287 35.897 22.2638L35.8997 22.1915C36.0115 18.9274 34.8599 15.6385 32.6149 13.2545C30.2349 10.7272 27.2546 9.4354 23.8138 9.23783L23.7325 9.2334Z" fill="#020101"/>
<circle id="Ellipse 1" cx="25.0976" cy="22.7322" r="15.3388" fill="#E8E7E7"/>
<path id="Vector_2" d="M15.8991 10.0154C16.5173 9.58358 17.044 9.2383 17.7045 8.88539C20.8377 7.2223 24.4425 6.67176 27.9293 7.32379C31.1575 7.89625 34.1808 9.63107 36.4044 12.0281C36.932 12.6071 37.4199 13.2209 37.8652 13.8654C40.2656 17.3559 41.1738 21.66 40.3885 25.8228C39.8938 28.516 38.6782 31.0246 36.8711 33.0818C36.1185 33.929 35.1951 34.7466 34.3053 35.4517C34.9701 35.947 35.3126 36.6955 35.2307 37.5306C35.1928 37.9154 35.0707 38.1885 34.8943 38.5287C36.1882 39.319 37.3128 40.4912 37.6719 42.0038C37.8898 42.9211 37.2233 42.8171 36.5844 42.8183L35.4501 42.8171L31.4708 42.8036L16.396 42.8004L14.0425 42.7977C13.6308 42.7983 13.2102 42.8074 12.7989 42.7882C12.6373 42.7806 12.5596 42.7131 12.4583 42.5947C12.3887 42.3348 12.4572 42.0295 12.5331 41.7756C12.981 40.2775 13.9652 39.3636 15.283 38.6321C14.6647 37.5961 14.715 36.854 15.4262 35.8654C15.4944 35.8016 15.6319 35.6972 15.6486 35.6209C15.6225 35.5433 15.6051 35.5142 15.62 35.4332C15.6637 35.3925 15.6747 35.3898 15.6989 35.3367C15.3252 35.0879 14.8903 34.7229 14.5533 34.4296C14.4353 34.3138 14.3039 34.1991 14.1808 34.0877C13.9004 33.8203 13.6536 33.5578 13.3855 33.2789C13.1772 33.0456 12.97 32.7932 12.7678 32.5532C12.7419 32.5081 12.7257 32.4959 12.6891 32.4582C12.6323 32.3719 12.5611 32.2793 12.4992 32.1957C12.1429 31.7153 11.8248 31.2212 11.5146 30.7101L11.3727 30.4629C11.3453 30.3907 11.2571 30.2381 11.217 30.164C10.8454 29.4709 10.6594 28.9897 10.3691 28.2789C9.97225 27.1025 9.65681 25.976 9.53077 24.7394C9.52098 24.6432 9.50719 24.507 9.48677 24.4145L9.47986 24.3842C9.41056 23.3872 9.37925 22.5608 9.46531 21.5613C9.69619 18.6784 10.7154 15.9144 12.4115 13.5716C12.8209 13.0011 13.1287 12.5901 13.6175 12.0676C14.1226 11.526 14.6613 11.0168 15.2305 10.5431C15.4496 10.3604 15.6806 10.199 15.8991 10.0154ZM14.8806 31.0458C14.8694 31 14.3324 30.4694 14.2406 30.373C14.1902 30.3168 14.1395 30.261 14.0884 30.2056C14.0593 30.1633 14.0321 30.1366 13.9974 30.0995C13.7871 29.837 13.582 29.5705 13.3823 29.2998C12.3237 27.8705 11.6019 26.2204 11.2706 24.4729C10.9659 22.8738 11.0432 21.2571 11.2898 19.656C11.7653 17.2088 12.6702 15.1791 14.3524 13.3143C14.3776 13.2943 14.507 13.1526 14.5371 13.1208C14.636 13.0216 14.7108 12.934 14.8016 12.8271C14.8476 12.8022 15.1041 12.5417 15.1631 12.4889C15.5797 12.1148 16.0313 11.7363 16.4842 11.4083C16.8503 11.175 17.189 10.9485 17.5758 10.744C17.8799 10.5832 18.1996 10.4446 18.5009 10.2843L18.8458 10.132C19.3084 9.94077 19.6374 9.8113 20.1135 9.66431C20.2952 9.59823 20.529 9.53478 20.7173 9.47815C21.0956 9.35979 21.7381 9.23832 22.1355 9.20478C22.6866 9.21891 23.1867 9.14183 23.771 9.1724C27.2462 9.35417 30.2548 10.6463 32.6535 13.1935C34.8985 15.5775 36.0501 18.8664 35.9383 22.1305C35.8328 25.215 34.4596 28.5928 32.1998 30.7195C29.7253 33.0787 26.4096 34.3496 22.992 34.2485C20.4294 34.1664 18.0407 33.3965 15.9623 31.8844C15.7727 31.7465 15.0153 31.1936 14.8806 31.0458ZM16.639 35.3521C17.3346 35.3862 18.2047 35.3555 18.92 35.3553L23.1076 35.3601L26.7211 35.3525C27.3197 35.3525 28.1784 35.3826 28.7472 35.3458C29.115 35.282 29.3497 35.0898 29.6582 34.902C30.9099 34.1393 32.0476 33.3366 33.104 32.3138C34.0261 31.4212 34.9221 30.2848 35.5787 29.1777C36.8446 27.0093 37.5536 24.5611 37.6427 22.0519C37.8193 17.6352 35.948 13.384 32.5712 10.5315C32.0794 10.114 31.5804 9.7737 31.0577 9.40065C30.8752 9.27036 30.0912 8.89278 30.0024 8.79127L29.955 8.73677C29.9472 8.72767 29.9396 8.71858 29.932 8.70948C27.5304 7.78301 24.7671 7.64537 22.2487 8.11642C21.9774 8.15216 21.5653 8.24658 21.2968 8.3246C21.1259 8.37054 20.8685 8.43292 20.7117 8.49923C20.5881 8.53548 20.3069 8.61262 20.2059 8.66592C19.1186 9.02097 17.7145 9.67957 16.7811 10.3523C16.7157 10.3954 16.3178 10.6655 16.2707 10.7212C15.7768 11.0691 15.3069 11.4777 14.866 11.8893C14.8381 11.9169 14.752 11.9986 14.7329 12.0248C13.1782 13.5353 11.9719 15.3667 11.198 17.3915C11.1104 17.6252 10.9141 18.1305 10.8714 18.3554C10.7743 18.6074 10.5531 19.427 10.5221 19.6956C10.4987 19.7566 10.4659 19.9146 10.4667 19.9782C10.3697 20.356 10.2942 21.13 10.26 21.5221C10.0011 24.647 10.7107 27.7758 12.2924 30.4833C12.4841 30.8084 12.7742 31.2644 13.0037 31.5606C13.0732 31.69 13.2335 31.8959 13.3269 32.0218C13.3759 32.0879 13.4563 32.2037 13.5092 32.2608C13.6103 32.3949 13.7183 32.5235 13.8328 32.6465C14.6363 33.6528 15.6411 34.5464 16.639 35.3521Z" fill="#020101"/>
<path id="Vector (Stroke)_2" d="M16.9716 7.50542C20.4172 5.67645 24.3821 5.07082 28.2167 5.78789L28.2161 5.7885C31.7977 6.42712 35.115 8.34102 37.5496 10.9655L37.5544 10.9704L37.5593 10.9759C38.0622 11.5278 38.5323 12.1085 38.9668 12.7154L39.1505 12.9772L39.1523 12.9803C41.7886 16.8139 42.7864 21.5409 41.9239 26.1126C41.3773 29.0808 40.037 31.8455 38.0452 34.1131L38.0391 34.1198C37.5519 34.6681 37.0075 35.1951 36.4546 35.6866C36.7342 36.2913 36.8551 36.9717 36.7854 37.683C36.7768 37.77 36.7653 37.8543 36.7518 37.9351C37.8553 38.8372 38.8178 40.0668 39.192 41.6424L39.2225 41.784C39.2897 42.1292 39.319 42.5756 39.1578 43.0352C38.9416 43.6515 38.483 44.0217 38.036 44.2028C37.6609 44.3548 37.2956 44.3749 37.104 44.381H36.5828L35.4481 44.3798H35.4445L31.4705 44.3658L16.3942 44.3627L14.0437 44.3603C13.6749 44.3609 13.1867 44.3708 12.7259 44.3493C12.417 44.3348 12.0889 44.2523 11.7787 44.0588C11.5113 43.8918 11.3374 43.6878 11.2715 43.6108L11.0408 43.3416L10.9486 42.9992C10.7537 42.2717 10.9604 41.5805 11.0359 41.328L11.0945 41.1407C11.5534 39.7511 12.3765 38.768 13.3632 38.0175C13.3055 37.7392 13.2793 37.4484 13.296 37.1447C13.3245 36.6294 13.4703 36.1631 13.6793 35.7384C13.626 35.6927 13.5748 35.6497 13.5273 35.6084L13.4925 35.5779L13.459 35.545C13.371 35.4587 13.284 35.3836 13.1324 35.2465L13.1172 35.2325L13.1025 35.2184C12.7904 34.9209 12.5116 34.6243 12.259 34.3615L12.2389 34.3407L12.22 34.3194C11.9919 34.0639 11.7569 33.7783 11.573 33.5601L11.5199 33.4972L11.465 33.4405L11.3838 33.3172C11.3585 33.2788 11.3306 33.2436 11.244 33.1268L10.9559 32.7251C10.6765 32.3235 10.4215 31.9206 10.179 31.5209L10.1594 31.488L10.0178 31.2414L9.95556 31.1333L9.93115 31.0699C9.92909 31.066 9.92709 31.0614 9.92443 31.0564C9.91367 31.0365 9.90193 31.0148 9.88781 30.9893C9.87598 30.968 9.85761 30.9346 9.84265 30.9069L9.83959 30.902C9.42217 30.1235 9.20501 29.5619 8.92224 28.8696L8.90393 28.8244L8.88867 28.7786C8.4764 27.5566 8.11943 26.3032 7.97619 24.898C7.97102 24.8472 7.96675 24.8065 7.96215 24.7698C7.95999 24.7525 7.95825 24.7412 7.95727 24.735C7.9561 24.7276 7.95725 24.7342 7.96093 24.7509L7.95666 24.732L7.92919 24.6136L7.92126 24.4927C7.84977 23.4642 7.81223 22.545 7.90844 21.4275C8.1636 18.2622 9.28349 15.2279 11.1457 12.6556C11.5674 12.0681 11.9206 11.5944 12.4763 11.0003C13.0258 10.4112 13.6119 9.85722 14.2311 9.34196C14.3695 9.22655 14.5083 9.12095 14.615 9.03923C14.7306 8.95066 14.8154 8.885 14.8933 8.8195L14.947 8.77434L15.0044 8.73466C15.6469 8.28583 16.2303 7.90137 16.9679 7.50725L16.9716 7.50542ZM27.9292 7.32353C24.4425 6.67152 20.8377 7.2224 17.7046 8.88542C17.0442 9.23829 16.5172 9.58345 15.8992 10.0152C15.6807 10.1989 15.4492 10.3604 15.2302 10.5431C14.661 11.0168 14.1226 11.5262 13.6177 12.0678C13.1289 12.5903 12.821 13.0012 12.4116 13.5717C10.7156 15.9144 9.69635 18.6783 9.46545 21.5612C9.37939 22.5606 9.41019 23.3871 9.47949 24.3841L9.48681 24.4146C9.50721 24.5071 9.52097 24.6432 9.53076 24.7393C9.65679 25.9758 9.97193 27.1024 10.3688 28.2787C10.659 28.9895 10.8455 29.4711 11.2172 30.1641C11.2573 30.2383 11.3455 30.391 11.3728 30.4632L11.5144 30.7098C11.8246 31.2209 12.1426 31.7156 12.4989 32.196C12.5608 32.2795 12.6319 32.3721 12.6887 32.4584C12.7253 32.496 12.7416 32.5081 12.7675 32.553C12.9697 32.793 13.1769 33.0455 13.3851 33.2787C13.6531 33.5576 13.9001 33.8202 14.1804 34.0874C14.3035 34.1988 14.4353 34.3141 14.5533 34.4299C14.8903 34.7231 15.3253 35.0881 15.699 35.3368C15.6748 35.3899 15.6633 35.3926 15.6196 35.4333C15.6047 35.5141 15.6223 35.5432 15.6483 35.6207C15.6316 35.6968 15.4944 35.8016 15.4261 35.8654C14.715 36.854 14.6644 37.5962 15.2827 38.6321C13.965 39.3637 12.981 40.2775 12.5331 41.7754C12.4572 42.0293 12.3885 42.3346 12.458 42.5945C12.5592 42.7128 12.6371 42.7804 12.7986 42.788C13.2099 42.8072 13.6308 42.7984 14.0425 42.7978L31.4705 42.8039L35.4499 42.8173L36.584 42.8185C37.2229 42.8173 37.8895 42.921 37.6716 42.0037C37.3124 40.4912 36.1878 39.3193 34.8939 38.529C35.0703 38.1888 35.1929 37.9153 35.2308 37.5304C35.3127 36.6954 34.9697 35.9469 34.3049 35.4516C35.1948 34.7465 36.1182 33.9287 36.8708 33.0816C38.678 31.0244 39.8936 28.5159 40.3883 25.8227C41.149 21.79 40.3204 17.6248 38.0854 14.1949L37.8651 13.8653C37.4199 13.2209 36.9321 12.6071 36.4045 12.0281C34.181 9.63106 31.1574 7.89599 27.9292 7.32353ZM22.2487 8.11638C24.767 7.64536 27.5302 7.78321 29.9318 8.70964C29.9393 8.71869 29.9472 8.72744 29.955 8.7365L30.0019 8.79143C30.0908 8.89294 30.8753 9.27026 31.0579 9.40056C31.5805 9.77355 32.0792 10.1141 32.5709 10.5315C35.9477 13.3841 37.819 17.6352 37.6423 22.0519L37.6185 22.5219C37.4626 24.8662 36.7654 27.145 35.5787 29.1778C34.9221 30.2849 34.0258 31.4212 33.1038 32.3138C32.0474 33.3364 30.91 34.1396 29.6583 34.9023L29.4374 35.0414C29.224 35.1777 29.023 35.2981 28.7471 35.346C28.1783 35.3828 27.3198 35.3527 26.7213 35.3527L23.1074 35.36L18.9198 35.3551C18.2045 35.3554 17.3345 35.3862 16.6389 35.3521C15.6409 34.5464 14.636 33.6527 13.8325 32.6464C13.718 32.5235 13.6101 32.3947 13.509 32.2607C13.4562 32.2036 13.3755 32.0881 13.3265 32.022C13.2331 31.8961 13.0731 31.6901 13.0037 31.5606C12.7742 31.2644 12.4837 30.8084 12.292 30.4833C10.7103 27.7758 10.0012 24.647 10.2601 21.5221C10.2944 21.13 10.3694 20.3558 10.4664 19.978C10.4657 19.9142 10.4986 19.7563 10.522 19.6954C10.553 19.4267 10.774 18.608 10.8711 18.3556C10.9139 18.1308 11.11 17.625 11.1976 17.3913C11.9714 15.3666 13.1782 13.5354 14.7328 12.0251C14.7519 11.9989 14.8379 11.9172 14.8658 11.8896C15.3067 11.478 15.7765 11.0692 16.2703 10.7214C16.3174 10.6657 16.7157 10.3951 16.7811 10.3521C17.7146 9.67939 19.1186 9.02071 20.2058 8.66569C20.3069 8.61239 20.5882 8.53531 20.7118 8.49907C20.8686 8.43282 21.1257 8.37041 21.2965 8.32451C21.565 8.24649 21.9774 8.15212 22.2487 8.11638ZM23.7709 9.17229C23.1866 9.14172 22.6862 9.21876 22.1351 9.20464C21.7377 9.2382 21.0955 9.35976 20.7173 9.47807C20.5291 9.53468 20.2953 9.59818 20.1136 9.66423C19.6376 9.81119 19.3084 9.94061 18.8459 10.1318L18.5011 10.2843C18.1998 10.4446 17.8799 10.5832 17.5758 10.7439C17.189 10.9484 16.85 11.1747 16.4839 11.408C16.031 11.736 15.5797 12.1149 15.1631 12.4889C15.1042 12.5418 14.8472 12.8022 14.8011 12.8271C14.7105 12.9339 14.6357 13.0215 14.5369 13.1207C14.5068 13.1524 14.3783 13.2935 14.3525 13.3141C12.6704 15.1789 11.7653 17.2087 11.2898 19.6557C11.0431 21.2568 10.9656 22.8741 11.2703 24.4732C11.6016 26.2206 12.3236 27.8707 13.3821 29.2999C13.5818 29.5706 13.7871 29.8369 13.9973 30.0994L14.0449 30.1507C14.0597 30.1673 14.0737 30.1845 14.0883 30.2056C14.1393 30.2609 14.19 30.3167 14.2402 30.3728C14.3321 30.4693 14.8693 31.0002 14.8805 31.0461L14.958 31.1187C15.1958 31.3254 15.796 31.7632 15.962 31.8841C18.0405 33.3963 20.4294 34.1665 22.9921 34.2486C26.4096 34.3496 29.7254 33.0786 32.1998 30.7195C34.3889 28.6593 35.7462 25.4249 35.9248 22.4206L35.9382 22.1307C36.05 18.8666 34.8983 15.5773 32.6533 13.1933C30.2546 10.6462 27.246 9.35405 23.7709 9.17229Z" fill="#E8E7E7"/>
<path id="Vector (Stroke) (Stroke)" d="M16.5407 6.69367C20.17 4.76722 24.3472 4.13035 28.3862 4.88564C28.389 4.88617 28.3917 4.88747 28.3946 4.88803C32.1706 5.56551 35.6489 7.57517 38.2036 10.3205C38.2154 10.3323 38.2272 10.3451 38.2383 10.3576L38.6269 10.7964C38.8818 11.0932 39.1277 11.3976 39.3647 11.7088L39.7139 12.1812L39.7187 12.1883L39.9028 12.4502L39.9088 12.4598C42.6826 16.4934 43.7325 21.4667 42.8266 26.2771L42.8278 26.2783C42.2511 29.4096 40.8371 32.3272 38.7358 34.7194L38.725 34.729C38.3481 35.1532 37.9427 35.5618 37.5292 35.9487C37.6792 36.4592 37.7431 36.999 37.7134 37.5534C38.6977 38.4485 39.5689 39.6214 39.9973 41.093L40.0858 41.4302L40.0906 41.4493L40.1205 41.5904C40.1218 41.5964 40.1229 41.6024 40.1241 41.6084C40.2086 42.0428 40.2595 42.6694 40.0248 43.3387C39.7053 44.2492 39.0236 44.793 38.3806 45.0534C37.8502 45.2682 37.3516 45.2916 37.1334 45.2986C37.1238 45.2989 37.1143 45.2998 37.1047 45.2998H36.5821L35.4473 45.2986H35.4413L31.4677 45.2842L16.3948 45.2806L14.0439 45.2783C13.6993 45.2788 13.1724 45.2891 12.6831 45.2663C12.2404 45.2455 11.7545 45.1266 11.2924 44.8382C10.8994 44.5929 10.6501 44.2972 10.5737 44.208L10.3441 43.939C10.2549 43.8349 10.1896 43.7125 10.154 43.5802L10.0619 43.2382C9.79414 42.2386 10.0795 41.3226 10.1564 41.0655L10.1599 41.0535L10.2185 40.867L10.2221 40.8526L11.095 41.1408L11.0365 41.3286L10.9635 41.5928C10.8826 41.9278 10.8029 42.4532 10.9492 42.9991L11.0412 43.3411L11.272 43.6113C11.3382 43.6887 11.5122 43.892 11.779 44.0586C12.0892 44.2521 12.4172 44.3346 12.7261 44.3491C13.1869 44.3706 13.6751 44.3605 14.0439 44.3599L31.4713 44.3659L35.4449 44.3802H35.4485L36.5833 44.3814H37.1047L37.2781 44.3718C37.4457 44.359 37.665 44.329 37.8963 44.2535L38.0362 44.2032C38.4832 44.0222 38.9416 43.6513 39.1579 43.035C39.2787 42.6903 39.2921 42.3531 39.2631 42.0604L39.2224 41.7842L39.1925 41.6419C38.8182 40.0664 37.8554 38.8369 36.7519 37.9349C36.7654 37.8542 36.7769 37.7695 36.7854 37.6826C36.8551 36.9716 36.7348 36.2914 36.4554 35.6868C37.0083 35.1954 37.5527 34.6685 38.0398 34.1203L38.0458 34.1132C40.0376 31.8456 41.3771 29.0802 41.9237 26.1121C42.7591 21.6833 41.8491 17.1091 39.3946 13.3423L39.1531 12.9799L39.1507 12.9776L38.9665 12.7157C38.532 12.1088 38.062 11.5277 37.5591 10.9758L37.5543 10.9698L37.5495 10.965C35.115 8.34077 31.7978 6.42706 28.2164 5.78846C24.3821 5.07161 20.4178 5.67688 16.9724 7.50561L16.9676 7.50681C16.2301 7.90087 15.6466 8.28611 15.0041 8.73489L14.9479 8.77435L14.8941 8.81979L14.6155 9.03862L14.2316 9.34235L13.7736 9.73576C13.3218 10.1366 12.8883 10.5579 12.4762 10.9997C11.9204 11.5938 11.5681 12.0684 11.1465 12.6559L10.8057 13.1438C9.14748 15.6081 8.14753 18.4599 7.90827 21.427C7.81206 22.5445 7.84993 23.4645 7.92142 24.493L7.92979 24.6138L7.95729 24.7322L7.96088 24.7513C7.95728 24.735 7.95624 24.7279 7.95729 24.7346C7.95826 24.7407 7.95994 24.7523 7.96208 24.7692C7.96667 24.8059 7.97126 24.8476 7.97643 24.8984C8.1197 26.3034 8.47658 27.5568 8.88881 28.7787L8.90436 28.8242L8.9223 28.8696C9.20507 29.562 9.42204 30.1239 9.83947 30.9025L9.84305 30.9072C9.85798 30.9349 9.87671 30.9685 9.88849 30.9898C9.90248 31.015 9.91368 31.0369 9.92437 31.0567C9.927 31.0616 9.9295 31.066 9.93154 31.0699L9.95546 31.1332L10.0176 31.2409L10.1599 31.4884L10.1791 31.5207C10.4216 31.9203 10.677 32.3233 10.9563 32.7248L11.2445 33.1266C11.331 33.2433 11.3592 33.2784 11.3844 33.3168L11.4657 33.4399L11.5207 33.4973L11.5734 33.5595C11.7572 33.7776 11.9923 34.0634 12.2203 34.3188L12.2394 34.3404L12.2597 34.3619C12.5122 34.6246 12.7909 34.9207 13.1028 35.2181L13.1171 35.2324L13.1327 35.2468L13.4591 35.5445L13.4926 35.578L13.5273 35.6079C13.5746 35.6491 13.626 35.6927 13.6792 35.7382C13.4702 36.1628 13.325 36.6293 13.2965 37.1445L13.2917 37.3705C13.2948 37.5933 13.3202 37.8088 13.3635 38.0174C12.3768 38.7679 11.554 39.7512 11.095 41.1408L10.2221 40.8526C10.6807 39.4643 11.4601 38.4288 12.3841 37.6288C12.3716 37.4549 12.3693 37.2767 12.3793 37.0943C12.4011 36.7004 12.4768 36.3329 12.5874 35.9917C12.5661 35.9726 12.543 35.9508 12.5168 35.9272L12.5109 35.9224L12.4953 35.908C12.491 35.904 12.4864 35.9002 12.4822 35.8961L12.469 35.8829C12.1384 35.5677 11.841 35.2516 11.5973 34.998L11.5805 34.9801C11.5709 34.9702 11.561 34.9605 11.5518 34.9502L11.5327 34.9287C11.2938 34.661 11.0445 34.3567 10.8714 34.1514L10.8391 34.1144L10.8057 34.0797C10.7659 34.0386 10.7295 33.9935 10.698 33.9457L10.6167 33.8226C10.6148 33.8198 10.6102 33.8124 10.6 33.7987C10.5856 33.7793 10.5475 33.7282 10.5067 33.6731L10.4983 33.6623L10.2102 33.2606L10.2018 33.2498C9.908 32.8275 9.64295 32.407 9.39463 31.9978L9.38865 31.9894L9.36952 31.956L9.36354 31.9452L9.22124 31.6989L9.16026 31.5924C9.13654 31.5513 9.11635 31.5076 9.09927 31.4633L9.08492 31.4346C9.07402 31.4149 9.05716 31.385 9.04187 31.3569C9.03799 31.35 9.03363 31.3435 9.02992 31.3365C8.58559 30.5078 8.35073 29.8987 8.07209 29.2164L8.07089 29.214L8.05296 29.1698C8.04566 29.1518 8.03877 29.1332 8.03263 29.1148L8.01828 29.0705C7.59707 27.8219 7.2162 26.4955 7.06284 24.9917C7.05791 24.9432 7.05386 24.9118 7.05088 24.8876L7.03534 24.8207C7.02414 24.7723 7.01587 24.7231 7.01262 24.6736L7.00544 24.5564L6.95881 23.7803C6.92136 23.0093 6.9169 22.2392 6.99349 21.3493C7.26285 18.0179 8.44265 14.824 10.4027 12.1166C10.7242 11.6687 11.0176 11.2694 11.3952 10.8299L11.8053 10.3731C12.381 9.75597 12.9958 9.17545 13.6445 8.63564C13.7999 8.50615 13.9542 8.38914 14.057 8.31038C14.1734 8.22123 14.2423 8.16694 14.3022 8.11666L14.356 8.07122C14.378 8.05266 14.4016 8.03501 14.4253 8.01861L14.4815 7.98034C15.1372 7.52237 15.7537 7.11518 16.5359 6.69726L16.5407 6.69367ZM17.7054 8.88556C20.8384 7.22267 24.4428 6.67187 27.9294 7.32385C31.1576 7.89631 34.1816 9.63103 36.4052 12.0281C36.9325 12.6069 37.4201 13.2207 37.8652 13.8648L38.0852 14.1949C40.3202 17.6248 41.1491 21.7901 40.3883 25.8227L40.2879 26.325C39.7402 28.8272 38.5656 31.1525 36.8715 33.0812L36.5809 33.3981C35.888 34.1316 35.0838 34.8345 34.3053 35.4513C34.9701 35.9466 35.3127 36.6957 35.2309 37.5307C35.193 37.9154 35.07 38.1891 34.8937 38.5292C36.1875 39.3195 37.3123 40.4916 37.6715 42.0042C37.8347 42.6917 37.5012 42.8053 37.0545 42.8197L36.5845 42.8185L35.4497 42.8173L31.4713 42.8042L14.0427 42.7982C13.8369 42.7985 13.6289 42.8007 13.4209 42.8006L12.799 42.7874C12.6377 42.7798 12.5594 42.713 12.4582 42.5949C12.4061 42.4001 12.4317 42.1793 12.4798 41.9743L12.5336 41.7758C12.9815 40.2779 13.9651 39.3636 15.2827 38.6321C14.6645 37.5962 14.7151 36.8536 15.4262 35.865C15.4943 35.8013 15.6315 35.6972 15.6486 35.6211C15.6227 35.5437 15.6051 35.5141 15.6199 35.4333C15.6636 35.3927 15.6747 35.3895 15.6988 35.3365C15.3253 35.0877 14.8901 34.7232 14.5533 34.43C14.4353 34.3143 14.3033 34.1982 14.1802 34.0869C13.9001 33.8198 13.6528 33.5572 13.385 33.2785C13.1768 33.0454 12.9701 32.7925 12.768 32.5527C12.7422 32.5079 12.7255 32.4958 12.689 32.4582C12.6323 32.372 12.5608 32.2798 12.4989 32.1963C12.1426 31.716 11.8249 31.221 11.5148 30.7099L11.3737 30.4636C11.3464 30.3916 11.2572 30.2389 11.217 30.1647C10.8454 29.4717 10.6594 28.9895 10.3692 28.2789C9.97237 27.1026 9.65699 25.9759 9.53095 24.7394C9.52117 24.6432 9.5071 24.5066 9.48671 24.4141L9.47953 24.3842C9.41024 23.3872 9.37913 22.5603 9.46518 21.5609C9.69611 18.6782 10.7157 15.9144 12.4116 13.5719C12.821 13.0013 13.1294 12.5901 13.6182 12.0676C14.123 11.5261 14.6611 11.0165 15.2301 10.5429C15.4491 10.3602 15.6812 10.1992 15.8997 10.0156C16.5178 9.58385 17.0449 9.23842 17.7054 8.88556ZM35.8563 12.7946C37.7225 15.4881 38.6937 18.7431 38.56 22.0883V22.0979L38.5361 22.5678L38.5349 22.5833C38.3694 25.069 37.63 27.4854 36.3717 29.6409L36.3693 29.6457C35.7586 30.6754 34.9573 31.7243 34.1092 32.6065L33.7433 32.9736C32.6212 34.0599 31.4223 34.9036 30.1368 35.6868L30.1356 35.6856L29.9311 35.8148C29.7085 35.957 29.3746 36.1696 28.904 36.2512C28.8719 36.2568 28.8395 36.2599 28.8071 36.262C28.2001 36.3013 27.2595 36.2716 26.7216 36.2716L23.1092 36.2787H23.1068L18.9191 36.274C18.2569 36.2742 17.3179 36.3046 16.5945 36.2692C16.5129 36.2652 16.4333 36.2475 16.3565 36.2225C16.3534 36.2268 16.3521 36.232 16.3494 36.2357C16.2934 36.3097 16.2355 36.3685 16.1975 36.4055C16.1733 36.429 16.1485 36.4506 16.1281 36.4689C15.8624 36.8526 15.7832 37.0979 15.773 37.282C15.7626 37.4713 15.8156 37.7313 16.0719 38.1609C16.1993 38.3743 16.2346 38.6312 16.17 38.8712C16.1053 39.1111 15.9459 39.315 15.7287 39.4356C14.591 40.0673 13.8393 40.7807 13.4639 41.881C13.6483 41.8808 13.8391 41.8801 14.0415 41.8798L31.4737 41.8858L35.4533 41.899L36.5857 41.9002H36.6862C36.3292 40.8486 35.4819 39.9639 34.4154 39.3125C34.0039 39.061 33.8574 38.534 34.0793 38.1059C34.2404 37.7952 34.2969 37.647 34.3173 37.4398C34.3666 36.9331 34.1691 36.4953 33.7565 36.1879C33.5279 36.0175 33.3913 35.7507 33.387 35.4656C33.3827 35.1803 33.5113 34.9085 33.735 34.7314C34.6008 34.0454 35.4805 33.2644 36.1851 32.4713C37.8806 30.5396 39.0211 28.1845 39.4855 25.6565L39.4867 25.6529C40.2028 21.8568 39.4236 17.9355 37.3223 14.7055L37.1095 14.3862C36.7251 13.83 36.3054 13.2995 35.8563 12.7946ZM29.9323 8.70978C27.5309 7.78339 24.7676 7.64573 22.2494 8.11666C21.9781 8.15241 21.5649 8.24671 21.2963 8.32473C21.1255 8.37062 20.8683 8.43313 20.7116 8.49932C20.5878 8.53562 20.3067 8.6123 20.2058 8.66553C19.1186 9.02057 17.7144 9.67894 16.781 10.3516C16.7155 10.3947 16.3179 10.6652 16.2704 10.7211C15.7768 11.0688 15.3073 11.4779 14.8666 11.8894C14.8386 11.917 14.7519 11.9981 14.7326 12.0245C13.178 13.5349 11.9717 15.3666 11.1979 17.3912C11.1103 17.6248 10.9144 18.1299 10.8714 18.355C10.7744 18.6074 10.5533 19.4268 10.5223 19.6955C10.4989 19.7565 10.4666 19.9139 10.4673 19.9777C10.3702 20.3555 10.2946 21.1306 10.2604 21.5227C10.0016 24.6471 10.7107 27.7755 12.292 30.4827C12.4836 30.8076 12.7741 31.2639 13.0035 31.5601C13.0729 31.6895 13.233 31.8958 13.3264 32.0217C13.3754 32.0878 13.4565 32.2038 13.5093 32.2609C13.6102 32.3947 13.718 32.5232 13.8322 32.6459C14.6356 33.6521 15.6409 34.5464 16.6387 35.352C17.3343 35.3861 18.205 35.3558 18.9203 35.3556L23.108 35.3604L26.7216 35.3532C27.1705 35.3532 27.7656 35.3698 28.275 35.3628L28.7473 35.346C29.0232 35.2982 29.2239 35.1774 29.4373 35.0411L29.6585 34.9024C30.9102 34.1397 32.0472 33.3361 33.1036 32.3135C33.9103 31.5326 34.6978 30.5655 35.3218 29.5943L35.5789 29.1781C36.6915 27.2722 37.3736 25.1497 37.583 22.96L37.6189 22.5224L37.6428 22.0524C37.8139 17.7736 36.0633 13.6493 32.8836 10.8024L32.5715 10.531C32.3257 10.3224 32.0778 10.1336 31.8265 9.94981L31.0576 9.40094C30.8747 9.27053 30.0905 8.89257 30.0017 8.79109L29.9551 8.73608C29.9475 8.72722 29.9397 8.71864 29.9323 8.70978ZM23.7716 9.17255C27.2465 9.3544 30.2554 10.6458 32.654 13.1928C34.8989 15.5766 36.0504 18.8662 35.9388 22.1301L35.9256 22.4207C35.747 25.425 34.3886 28.6593 32.1996 30.7195C29.7251 33.0784 26.4093 34.3493 22.992 34.2483C20.5896 34.1713 18.3397 33.4901 16.3553 32.1592L15.9619 31.8842C15.7957 31.7632 15.1965 31.3256 14.9586 31.1189L14.8809 31.046C14.8694 30.9998 14.3318 30.4691 14.24 30.3727C14.1898 30.3167 14.1391 30.2605 14.0881 30.2053C14.0737 30.1844 14.0597 30.1668 14.0451 30.1503L13.9972 30.0989C13.7872 29.8366 13.5822 29.5705 13.3826 29.3001C12.3241 27.8709 11.6021 26.2201 11.2708 24.4727C10.9663 22.8739 11.0434 21.2569 11.29 19.656C11.7654 17.209 12.6702 15.1784 14.3524 13.3136C14.3782 13.2929 14.5077 13.1528 14.5377 13.121C14.6365 13.0219 14.7114 12.9337 14.802 12.8269C14.8494 12.8004 15.1044 12.5411 15.1631 12.4885C15.5798 12.1145 16.0316 11.7354 16.4845 11.4075C16.8505 11.1743 17.1896 10.9482 17.5762 10.7438C17.8803 10.5831 18.2005 10.4449 18.5018 10.2846L18.8462 10.1316C19.3085 9.94044 19.6378 9.81095 20.1137 9.66402L20.7176 9.47747C21.0958 9.35917 21.7384 9.23839 22.1358 9.20483C22.6867 9.21891 23.1875 9.14199 23.7716 9.17255ZM22.9884 10.0993C22.7546 10.1113 22.479 10.1258 22.1884 10.122C21.8496 10.1534 21.2933 10.2595 20.9914 10.354L20.9818 10.3576C20.7549 10.4258 20.5772 10.4732 20.4282 10.5274C20.4141 10.5325 20.3995 10.5373 20.3851 10.5417C19.9484 10.6765 19.6481 10.7939 19.1965 10.9806L18.8916 11.1145C18.7348 11.1967 18.5783 11.2739 18.4372 11.3417C18.2786 11.4179 18.1391 11.4852 18.0055 11.5558C17.6689 11.7337 17.3779 11.9255 17.0035 12.1644C16.5915 12.4642 16.1732 12.8164 15.7766 13.1725C15.7741 13.1749 15.7602 13.1873 15.7287 13.2179C15.6983 13.2476 15.6565 13.2903 15.6163 13.3291C15.5764 13.3678 15.5301 13.4118 15.4884 13.4499C15.4751 13.462 15.4585 13.4748 15.4417 13.4894C15.3676 13.5759 15.2885 13.6685 15.1882 13.7692L15.187 13.768C15.1826 13.7727 15.1783 13.7787 15.1727 13.7847C15.1561 13.8027 15.1354 13.8265 15.1141 13.8493C15.0934 13.8715 15.0692 13.8971 15.0471 13.9198C15.039 13.9282 15.0287 13.9372 15.0184 13.9473C13.4792 15.6602 12.642 17.5196 12.194 19.8127C11.9882 21.1557 11.9142 22.4701 12.084 23.7516L12.1725 24.3017C12.4398 25.7118 12.9832 27.0539 13.7688 28.2502L14.1204 28.7536L14.1216 28.7548C14.3092 29.009 14.5024 29.2594 14.7004 29.507L14.7183 29.5261L14.7314 29.5405C14.7425 29.5528 14.7518 29.568 14.7637 29.5823L14.906 29.739L15.248 30.0857C15.3229 30.1623 15.4008 30.2442 15.4633 30.3117C15.4934 30.3443 15.5281 30.3824 15.5589 30.4194C15.5613 30.4221 15.5634 30.4256 15.5661 30.4289C15.7701 30.605 16.3212 31.0098 16.5024 31.1416C18.4226 32.5386 20.6313 33.2545 23.0219 33.3311C26.1937 33.4245 29.2704 32.2441 31.567 30.0546L31.9365 29.6851C33.7202 27.7987 34.8485 25.0001 35.0073 22.3777L35.0204 22.099C35.1244 19.0631 34.0512 16.0167 31.9855 13.823C29.7611 11.4609 26.9798 10.2601 23.7226 10.0897C23.4824 10.0772 23.2529 10.0857 22.9884 10.0993ZM15.4298 12.6224C15.4262 12.6261 15.4243 12.629 15.4238 12.6296C15.4238 12.6296 15.4272 12.6256 15.4322 12.62L15.4298 12.6224Z" fill="#020101"/>
<path id="Vector_3" d="M22.1354 9.20471C22.6865 9.21884 23.1866 9.14177 23.7709 9.17234C27.2461 9.3541 30.2547 10.6463 32.6534 13.1935C34.8984 15.5774 36.05 18.8663 35.9382 22.1304C35.8327 25.2149 34.4594 28.5928 32.1997 30.7195C29.7252 33.0786 26.4094 34.3495 22.9919 34.2485C20.4293 34.1664 18.0406 33.3965 15.9622 31.8843C15.7726 31.7464 15.0152 31.1936 14.8805 31.0458C14.8693 30.9999 14.3323 30.4694 14.2404 30.3729C14.1901 30.3167 14.1394 30.2609 14.0883 30.2056C14.0592 30.1633 14.032 30.1365 13.9973 30.0995C13.787 29.837 13.5819 29.5704 13.3822 29.2997C12.3236 27.8705 11.6018 26.2204 11.2705 24.4729C10.9658 22.8738 11.0431 21.257 11.2897 19.6559C11.7652 17.2088 12.67 15.1791 14.3523 13.3142C14.3775 13.2943 14.5069 13.1526 14.537 13.1207C14.6359 13.0215 14.7107 12.9339 14.8015 12.827C14.8475 12.8022 15.104 12.5417 15.1629 12.4888C15.5796 12.1148 16.0312 11.7362 16.4841 11.4082C16.8502 11.1749 17.1889 10.9484 17.5757 10.7439C17.8798 10.5831 18.1995 10.4446 18.5008 10.2843L18.8457 10.1319C19.3083 9.9407 19.6373 9.81123 20.1134 9.66424C20.2951 9.59816 20.5289 9.53471 20.7172 9.47808C21.0955 9.35972 21.738 9.23825 22.1354 9.20471Z" fill="#8FB7B3"/>
<path id="Vector_4" d="M24.9486 24.1489C25.0286 24.1417 25.0465 24.1357 25.1248 24.1606C25.2985 24.2953 26.1709 26.5145 26.3179 26.8747C27.2227 26.9263 28.1621 27.0718 29.0686 27.1442C29.1951 27.1543 29.2446 27.2225 29.2414 27.3507C29.1814 27.5025 27.3198 28.9804 27.0789 29.1898C27.1503 29.5616 27.7688 31.7494 27.7345 32.0178C27.6726 32.1321 27.5701 32.1469 27.4625 32.0951C27.1697 31.9544 26.8844 31.7648 26.6067 31.5961L25.0316 30.6372C24.7158 30.8041 22.6169 32.1789 22.478 32.1675C22.408 32.1618 22.3613 32.113 22.3235 32.0597C22.2931 31.9027 22.5387 31.1062 22.5954 30.8989C22.7479 30.3404 22.8824 29.749 23.0622 29.2006C22.7229 28.9526 22.3104 28.557 21.9734 28.2823C21.6404 27.9901 21.2884 27.7204 20.952 27.4326C20.8727 27.3648 20.838 27.3113 20.8866 27.2101C21.1271 27.0911 23.3948 26.8869 23.7905 26.852L24.5609 25.0042C24.6263 24.8493 24.8611 24.2584 24.9486 24.1489Z" fill="#020101"/>
<path id="Vector_5" d="M25.0414 24.8392C25.096 24.9015 25.2362 25.2446 25.2736 25.3333L25.7837 26.5564C25.8635 26.7469 25.9816 27.0551 26.0837 27.2242C26.197 27.2452 26.3113 27.2547 26.4258 27.2655C27.1399 27.333 27.8564 27.3764 28.5696 27.4526C28.4454 27.576 28.2216 27.749 28.0818 27.8636C27.8016 28.0947 27.5193 28.3235 27.2353 28.5501C27.0787 28.6743 26.7639 28.9046 26.6543 29.0526C26.8749 29.8663 27.0572 30.7357 27.2751 31.5658C26.5416 31.1757 25.7854 30.6471 25.0621 30.2199C24.9766 30.2159 23.0249 31.43 22.7988 31.5576C22.8348 31.3696 22.9112 31.1667 22.9558 30.9778C23.1047 30.3473 23.3292 29.6816 23.4617 29.0543C23.3307 28.908 23.0241 28.6635 22.8633 28.5288C22.4408 28.1739 22.0128 27.8252 21.5796 27.4833C22.047 27.4341 22.5359 27.3575 23.005 27.3015C23.3345 27.2619 23.7515 27.2269 24.0699 27.1686C24.1543 27.0213 24.2742 26.6968 24.3495 26.5272C24.596 25.972 24.8092 25.4 25.0414 24.8392Z" fill="#F4A261"/>
<path id="Vector_6" d="M18.6781 18.59C18.8284 18.6282 18.8667 18.7432 18.929 18.8788C19.1577 19.377 19.3748 19.8942 19.5768 20.4027C20.0225 20.4251 20.4885 20.4965 20.9335 20.5208C21.9991 20.5789 21.6041 20.854 21.071 21.3065C20.7645 21.5621 20.4626 21.8231 20.1654 22.0894C20.277 22.623 20.3736 23.1588 20.4692 23.6954C20.4943 23.8366 20.5564 24.0055 20.4227 24.0925C20.0461 24.1433 19.1192 23.3131 18.7727 23.2486C18.6868 23.3134 18.5867 23.3559 18.492 23.4086C18.0734 23.6415 17.6448 23.8514 17.2363 24.102C17.1251 24.1702 17.0257 24.1744 16.9336 24.0718C16.8789 23.9344 17.2123 22.3468 17.2712 22.0584L16.4596 21.3807C16.3277 21.2721 15.4728 20.6842 16.0561 20.5935C16.6255 20.5049 17.2434 20.4551 17.8197 20.4142C18.0905 19.8616 18.2649 19.2189 18.5614 18.6719C18.5893 18.6205 18.6292 18.6127 18.6781 18.59Z" fill="#020101"/>
<path id="Vector_7" d="M18.6855 19.3005C18.8149 19.44 19.2049 20.5225 19.2795 20.7385C19.8354 20.7599 20.4203 20.8657 20.9805 20.8928C20.6081 21.2261 20.1456 21.5971 19.7551 21.9373C19.8304 22.4341 19.9705 23.0634 20.0646 23.5701C19.6859 23.3769 19.2239 23.0388 18.8176 22.8195C18.6038 22.8963 18.2516 23.1189 18.0444 23.2399C17.8188 23.3695 17.5909 23.4949 17.3608 23.6163C17.4127 23.185 17.5696 22.3666 17.6791 21.9434C17.5753 21.8249 17.361 21.646 17.2353 21.5353L16.5078 20.8956C16.9731 20.8254 17.6176 20.7711 18.0922 20.7373C18.2696 20.2702 18.4913 19.7648 18.6855 19.3005Z" fill="#F4A261"/>
<path id="Vector_8" d="M24.9421 12.8669C25 12.8636 25.0606 12.8555 25.1168 12.8729C25.2463 12.9131 25.8206 14.3622 25.921 14.5899C26.4888 14.6338 27.0857 14.7617 27.6589 14.7992C27.7804 14.8071 27.8856 14.8537 27.9012 14.9847C27.8814 15.0404 27.8583 15.0907 27.8128 15.1305C27.365 15.522 26.8812 15.8741 26.4482 16.2827C26.5017 16.6502 26.896 18.0481 26.8425 18.2812C26.6888 18.4732 26.24 18.128 26.0684 18.0262C25.7577 17.8407 25.4459 17.6572 25.1331 17.4754C25.1029 17.4559 25.0737 17.439 25.036 17.4475C24.9211 17.4737 24.7577 17.6069 24.6547 17.671C24.4533 17.7966 23.5341 18.3947 23.3603 18.3564C23.3081 18.3449 23.2733 18.3267 23.2501 18.2761C23.1872 18.1391 23.611 16.559 23.6745 16.2883C23.3896 16.0561 23.1083 15.8195 22.8306 15.5786C22.6723 15.4429 22.3283 15.1902 22.2798 14.9937C22.3041 14.8707 22.3756 14.8279 22.4978 14.8047C22.7076 14.7647 22.9282 14.7464 23.1412 14.7215L24.1903 14.5897C24.3005 14.2716 24.7775 13.1306 24.9421 12.8669Z" fill="#020101"/>
<path id="Vector_9" d="M25.0366 13.4906C25.2404 13.8085 25.4915 14.5416 25.6494 14.9157C26.065 14.9451 26.8629 15.0529 27.2584 15.1308C26.8597 15.4736 26.4244 15.819 26.0368 16.1693C26.1307 16.6005 26.3528 17.409 26.4006 17.8017C25.954 17.5789 25.49 17.2409 25.0616 17.04C24.9597 17.0373 23.8855 17.7244 23.6704 17.8195C23.7974 17.2687 23.9447 16.7373 24.0731 16.191C23.8166 15.9165 23.2164 15.4322 22.9038 15.1473C23.2704 15.0515 24.0616 14.9771 24.4377 14.9425C24.6397 14.4059 24.7924 14.0096 25.0366 13.4906Z" fill="#F4A261"/>
<path id="Vector_10" d="M31.321 18.6332C31.3753 18.6296 31.4307 18.622 31.4838 18.6373C31.5964 18.6701 32.2336 20.1917 32.3225 20.3965C32.6025 20.4336 34.0077 20.5704 34.162 20.6849C34.2102 20.7207 34.2163 20.7481 34.226 20.8049C34.2083 20.8631 34.1881 20.91 34.1429 20.9528C33.717 21.3559 33.2345 21.709 32.8309 22.1355C32.8932 22.4039 33.238 23.8763 33.1471 24.0402C33.13 24.0708 33.1052 24.0926 33.0715 24.1006C33.0004 24.1177 32.9317 24.0939 32.8667 24.0647C32.4861 23.8936 31.8301 23.4286 31.4469 23.1916C31.4366 23.1869 31.377 23.164 31.3659 23.1709C30.9341 23.4358 30.5092 23.7134 30.0758 23.9753C29.9545 24.0486 29.78 24.1268 29.6442 24.051C29.6196 24.0075 29.604 23.9698 29.6187 23.9168C29.7838 23.325 29.861 22.7 29.9972 22.1039C29.8057 21.944 28.7434 21.0211 28.6621 20.8782C28.6269 20.8162 28.6305 20.7753 28.6488 20.7089C28.7821 20.5544 29.1975 20.5491 29.4084 20.5256C29.781 20.4849 30.1537 20.4416 30.5259 20.396C30.6899 20.0537 31.1549 18.8561 31.321 18.6332Z" fill="#020101"/>
<path id="Vector_11" d="M31.3907 19.3035C31.568 19.4406 31.9417 20.4549 32.0463 20.7185C32.5585 20.8005 33.1101 20.8665 33.6265 20.9366C33.2275 21.2619 32.8311 21.6261 32.4318 21.9381C32.4829 22.3687 32.6692 23.1352 32.7629 23.5889C32.4981 23.4309 32.2301 23.2643 31.9709 23.0974C31.7897 22.9806 31.6301 22.8566 31.4408 22.7485C31.3187 22.7826 30.2613 23.4412 30.0423 23.5621C30.1792 23.0869 30.2857 22.4817 30.3981 21.9865C30.06 21.6497 29.5634 21.2461 29.1958 20.9184C29.6714 20.876 30.3198 20.792 30.7897 20.7161C30.9798 20.3447 31.2252 19.7019 31.3907 19.3035Z" fill="#F4A261"/>
<path id="Vector_12" d="M17.6243 13.0613C17.8222 13.083 18.0157 13.1718 18.0734 13.3839C18.1637 13.7155 17.8376 13.9067 17.6172 14.0839C16.4241 15.0433 15.4391 16.238 14.779 17.624C14.6902 17.8105 14.5767 17.8701 14.3805 17.9247C13.9871 17.907 13.8126 17.585 13.9906 17.2328C14.7178 15.7936 15.722 14.4745 16.9983 13.4791C17.1797 13.3375 17.4003 13.1061 17.6243 13.0613Z" fill="#E8E7E7"/>
<path id="Vector_13" d="M20.1453 11.4672C20.4969 11.408 20.8294 11.6468 20.8857 11.9988C20.942 12.3509 20.7005 12.6814 20.348 12.7348C19.9995 12.7876 19.6737 12.5496 19.618 12.2015C19.5623 11.8535 19.7977 11.5257 20.1453 11.4672Z" fill="#E8E7E7"/>
<path id="Vector_14" d="M22.2488 8.11643C24.7672 7.64538 27.5305 7.78302 29.9322 8.70949C29.9397 8.71859 29.9473 8.72768 29.9551 8.73678L30.0025 8.79128C30.0913 8.8928 30.8753 9.27037 31.0578 9.40066C31.5806 9.77371 32.0795 10.114 32.5713 10.5315C35.9481 13.384 37.8194 17.6352 37.6428 22.0519C37.5538 24.5611 36.8447 27.0093 35.5788 29.1777C34.9222 30.2848 34.0262 31.4212 33.1041 32.3138C32.0477 33.3366 30.9101 34.1393 29.6583 34.902C29.3499 35.0898 29.1151 35.282 28.7473 35.3458C28.1785 35.3826 27.3198 35.3525 26.7213 35.3525L23.1077 35.3601L18.9201 35.3553C18.2049 35.3555 17.3348 35.3862 16.6392 35.3521C15.6412 34.5464 14.6365 33.6528 13.8329 32.6465C13.8948 32.6122 13.8961 32.613 13.9465 32.5644C13.981 32.3981 13.6885 32.2709 13.6788 32.0953C13.6736 32.0012 13.7052 31.8019 13.767 31.7355C13.9328 31.5579 14.0286 31.6023 14.2264 31.393C14.3939 31.2158 14.4703 30.9482 14.567 30.844C14.689 30.8259 14.7725 30.9734 14.8808 31.0459C15.0154 31.1937 15.7729 31.7465 15.9624 31.8844C18.0408 33.3966 20.4295 34.1665 22.9921 34.2486C26.4097 34.3496 29.7254 33.0787 32.1999 30.7196C34.4597 28.5928 35.8329 25.215 35.9384 22.1305C36.0502 18.8664 34.8986 15.5775 32.6536 13.1935C30.2549 10.6463 27.2463 9.35418 23.7712 9.17241C23.1869 9.14185 22.6868 9.21892 22.1357 9.20479L22.1696 9.17968C22.1367 9.15069 21.6316 9.20667 21.5288 9.21113L21.5113 9.27271C21.3583 9.29144 21.3307 9.34045 21.2047 9.28694C21.1507 9.30824 21.1128 9.33235 21.0632 9.36138C20.9882 9.35024 20.9453 9.36584 20.8708 9.38174L20.8916 9.3478C21.0761 9.32485 21.1411 9.28431 21.3027 9.24311L21.3374 9.23452L21.3264 9.21098L21.2319 9.1917C21.2317 9.16115 21.231 9.1306 21.2299 9.10008C21.1223 9.0173 21.1495 9.10604 21.0259 9.0556L21.0301 8.98448C21.1639 8.98947 21.2587 8.95379 21.2733 8.81154C21.2605 8.79434 21.2476 8.77711 21.2347 8.75989C21.1417 8.75436 21.0295 8.73303 20.9449 8.71173L20.9184 8.7049C21.0228 8.6796 21.156 8.68697 21.2661 8.68701C21.3755 8.63042 21.4195 8.58945 21.5244 8.51617C21.6098 8.45655 22.0085 8.56215 22.0716 8.42202C22.0893 8.38259 22.1049 8.26895 22.0944 8.22369L22.0557 8.21148C22.2545 8.11877 22.3224 8.23714 22.4295 8.17956C22.3048 8.14112 22.3255 8.19137 22.2488 8.11643Z" fill="#E8E7E7"/>
<path id="Vector_15" d="M29.9319 8.71228C30.3449 8.83422 30.8961 9.08076 31.2896 9.2641C34.0657 10.5575 36.512 12.9098 37.9741 15.598C39.9109 19.1454 40.3566 23.3179 39.2124 27.1944C38.3907 29.8771 36.8771 32.2962 34.8238 34.2082C34.499 34.5061 33.746 35.1181 33.3624 35.3242C33.3337 35.34 33.3045 35.3545 33.2748 35.3682C32.8348 35.3452 32.3702 35.3629 31.9272 35.3555C30.8757 35.3379 29.7957 35.3703 28.7471 35.3486C29.1149 35.2848 29.3496 35.0926 29.658 34.9048C30.9098 34.1421 32.0474 33.3394 33.1039 32.3166C34.0259 31.424 34.9219 30.2876 35.5786 29.1805C36.8444 27.0121 37.5535 24.5639 37.6425 22.0547C37.8192 17.638 35.9478 13.3868 32.571 10.5343C32.0792 10.1168 31.5803 9.7765 31.0576 9.40345C30.875 9.27316 30.0911 8.89558 30.0022 8.79407L29.9548 8.73956C29.9471 8.73047 29.9395 8.72137 29.9319 8.71228Z" fill="#E8E7E7"/>
<path id="Vector_16" d="M31.3415 39.0918C31.963 39.0763 32.5929 39.0967 33.2148 39.0948C33.3651 39.0944 33.9836 39.0716 34.0708 39.1102C35.3703 39.6836 36.4375 40.6068 36.8147 42.0084L23.1225 42.0099C22.5893 42.0032 22.056 41.9994 21.5228 41.9988C21.2529 41.9724 20.7304 41.9838 20.4466 41.983L18.4301 41.9832C18.4074 41.7484 18.3941 41.6556 18.4068 41.4192C18.6279 40.4245 19.3946 39.7577 20.1304 39.1169C20.0947 39.0946 20.0166 39.0895 19.9695 39.0824C20.97 39.107 22.0168 39.0931 23.0204 39.0933L28.1717 39.0935L30.1175 39.0874C30.4695 39.0847 31.0007 39.0668 31.3415 39.0918Z" fill="#F4A261"/>
<path id="Vector_17" d="M31.3415 39.0918C31.963 39.0763 32.5929 39.0967 33.2148 39.0948C33.3651 39.0944 33.9836 39.0716 34.0708 39.1102C35.3703 39.6836 36.4375 40.6068 36.8147 42.0084L23.1225 42.0099C22.5893 42.0032 22.056 41.9994 21.5228 41.9987C21.2529 41.9724 20.7304 41.9838 20.4466 41.983L18.4301 41.9832C18.4074 41.7484 18.3941 41.6556 18.4068 41.4192C19.6813 41.4007 20.9937 41.4246 22.2702 41.4308L27.4569 41.4335C28.1605 41.4303 28.8643 41.4322 29.5681 41.4392C30.0026 41.4444 30.4963 41.4684 30.9211 41.4348C31.7521 41.3691 32.0422 40.2459 31.7929 39.5784C31.6979 39.3238 31.5535 39.2462 31.3415 39.0918Z" fill="#E76F51"/>
<path id="Vector_18" d="M19.4316 36.229C19.7809 36.2026 20.3991 36.2163 20.7703 36.2148L23.3976 36.2098L31.2157 36.2153L33.0311 36.2115C33.3344 36.2117 33.7346 36.2018 34.0327 36.2247C34.2841 36.4685 34.4559 36.8641 34.4645 37.215C34.4767 37.71 34.1374 38.3592 33.7401 38.6483C32.1132 38.6858 30.3907 38.6348 28.7515 38.6403C26.7387 38.6557 24.7259 38.6586 22.7131 38.6493C21.9519 38.6464 21.1682 38.6538 20.4087 38.639C20.3401 38.5192 20.2722 38.3992 20.2048 38.2788L20.1854 38.2685C20.1282 38.1601 20.0818 38.046 20.0469 37.9283C19.8675 37.346 19.9994 36.7605 20.2774 36.2348C19.9998 36.2361 19.7073 36.242 19.4316 36.229Z" fill="#F4A261"/>
<path id="Vector_19" d="M31.216 36.2153L33.0313 36.2115C33.3347 36.2117 33.7349 36.2018 34.033 36.2247C34.2844 36.4685 34.4562 36.8641 34.4648 37.215C34.477 37.71 34.1376 38.3592 33.7404 38.6483C32.1134 38.6858 30.3909 38.6348 28.7518 38.6403C26.739 38.6557 24.7262 38.6586 22.7134 38.6493C21.9521 38.6464 21.1685 38.6538 20.4089 38.639C20.3404 38.5192 20.2724 38.3992 20.2051 38.2788L27.728 38.2803C28.3807 38.2782 29.0333 38.2794 29.6861 38.2841C30.1415 38.2887 30.6072 38.3268 31.0566 38.2567C31.9099 38.1232 32.1587 36.3647 31.216 36.2153Z" fill="#E76F51"/>
<path id="Vector_20" d="M17.4211 39.0769C18.2248 39.0293 19.1625 39.0618 19.9695 39.0824C20.0167 39.0896 20.0947 39.0946 20.1304 39.1169C19.3946 39.7578 18.628 40.4245 18.4068 41.4192C18.3941 41.6556 18.4074 41.7485 18.4301 41.9832L15.8649 41.9836L13.3135 41.9819C13.4165 41.7078 13.4985 41.527 13.6273 41.2697C14.0542 40.3687 15.2988 39.4226 16.25 39.0961C16.3616 39.0578 17.2455 39.0767 17.4211 39.0769Z" fill="#E9C46A"/>
<path id="Vector_21" d="M13.6273 41.2697C14.0542 40.3687 15.2988 39.4226 16.25 39.096C16.3616 39.0577 17.2455 39.0767 17.4211 39.0769C16.8369 39.6464 15.8677 40.5484 15.7125 41.3752L15.7041 41.4166C15.7412 41.6286 15.7794 41.7838 15.8649 41.9836L13.3135 41.9819C13.4165 41.7078 13.4985 41.527 13.6273 41.2697Z" fill="#F4A261"/>
<path id="Vector_22" d="M13.6273 41.2697C13.6785 41.2965 13.8213 41.3716 13.8701 41.3773C14.4294 41.4421 15.1416 41.4158 15.7041 41.4167C15.7412 41.6287 15.7794 41.7838 15.8649 41.9836L13.3135 41.9819C13.4165 41.7078 13.4985 41.527 13.6273 41.2697Z" fill="#E76F51"/>
<path id="Vector_23" d="M15.7041 41.4167L15.7124 41.3752C15.7248 41.3863 15.7372 41.3975 15.7497 41.4087C16.4554 41.4232 17.7411 41.4188 18.4068 41.4192C18.3941 41.6556 18.4074 41.7484 18.4301 41.9832L15.8649 41.9836C15.7794 41.7838 15.7412 41.6287 15.7041 41.4167Z" fill="#F4A261"/>
<path id="Vector_24" d="M15.8851 38.071C15.7669 37.8504 15.7063 37.6034 15.7091 37.3531C15.7105 36.9997 15.8397 36.6464 16.0906 36.3917C16.3429 36.1355 16.7345 36.2245 17.0616 36.219C17.2928 36.215 17.5335 36.2237 17.7657 36.2258C18.2753 36.2264 18.9353 36.2068 19.4317 36.2289C19.7073 36.242 19.9998 36.2361 20.2774 36.2348C19.9995 36.7605 19.8675 37.346 20.0469 37.9283C20.0818 38.046 20.1282 38.1601 20.1854 38.2685L20.2048 38.2788C20.2722 38.3992 20.3401 38.5192 20.4087 38.639C19.6488 38.623 18.8425 38.6354 18.0788 38.6344C17.6005 38.6367 17.0584 38.6558 16.5829 38.6177C16.2812 38.5937 16.0361 38.3226 15.8851 38.071Z" fill="#E9C46A"/>
<path id="Vector_25" d="M15.8851 38.071C15.7669 37.8504 15.7063 37.6034 15.7091 37.3531C15.7105 36.9997 15.8397 36.6464 16.0906 36.3917C16.3429 36.1355 16.7345 36.2245 17.0616 36.219C17.2928 36.215 17.5335 36.2237 17.7657 36.2258C17.4956 36.6813 17.3485 37.218 17.4788 37.7426C17.5201 37.9068 17.5872 38.0634 17.6775 38.2066C17.8169 38.4114 17.8862 38.4767 18.0788 38.6344C17.6005 38.6367 17.0584 38.6558 16.5829 38.6177C16.2812 38.5937 16.0361 38.3226 15.8851 38.071Z" fill="#F4A261"/>
<path id="Vector_26" d="M15.8853 38.071C16.2558 38.1699 17.2895 38.2535 17.6777 38.2066C17.8171 38.4114 17.8863 38.4767 18.0789 38.6343C17.6006 38.6367 17.0585 38.6558 16.5831 38.6177C16.2814 38.5937 16.0362 38.3226 15.8853 38.071Z" fill="#E76F51"/>
<path id="Vector_27" d="M17.6777 38.2066C18.2973 38.199 18.9586 38.3148 19.587 38.2862C19.7647 38.278 20.0185 38.315 20.1856 38.2685L20.205 38.2788C20.2724 38.3992 20.3403 38.5192 20.4089 38.639C19.649 38.623 18.8427 38.6354 18.079 38.6344C17.8864 38.4767 17.8171 38.4114 17.6777 38.2066Z" fill="#F4A261"/>
<path id="Vector_28" d="M19.8895 8.95216C20.1531 8.97393 20.1574 8.99469 20.343 8.81292C20.3953 8.7617 20.6025 8.76661 20.6858 8.7728L20.6908 8.79374L20.6447 8.84454C20.8144 8.85332 20.9953 8.76844 21.1955 8.82791L21.2094 8.85791C21.157 8.93949 21.1254 8.93694 21.03 8.98443L21.0258 9.05555C21.1493 9.10599 21.1222 9.01726 21.2297 9.10003C21.2309 9.13056 21.2315 9.16111 21.2317 9.19165L21.3262 9.21094L21.3372 9.23447L21.3025 9.24306C21.1409 9.28426 21.0759 9.32481 20.8914 9.34776L20.8706 9.38169C20.9451 9.3658 20.988 9.3502 21.063 9.36134C21.1127 9.3323 21.1505 9.3082 21.2046 9.28689C21.3306 9.34041 21.3582 9.2914 21.5111 9.27266L21.5286 9.21109C21.6315 9.20662 22.1366 9.15064 22.1695 9.17963L22.1355 9.20475C21.7381 9.23828 21.0955 9.35976 20.7173 9.47811C20.7356 9.42982 20.724 9.45091 20.75 9.41376L20.7405 9.37306C20.6702 9.40557 20.6426 9.43435 20.5801 9.42432L20.6207 9.38041L20.5845 9.42847C20.5951 9.41117 20.6057 9.39388 20.6163 9.3766L20.627 9.36051L20.5857 9.33635C20.5246 9.34517 20.5314 9.3542 20.4829 9.3775C20.2421 9.49317 19.9661 9.53571 19.7091 9.61849C19.497 9.68683 19.3306 9.80821 19.1087 9.79449L19.0835 9.81855L19.1562 9.86851L19.152 9.89718C19.0152 9.96068 18.882 9.99183 18.759 10.0483C18.477 10.1902 18.4391 10.1042 18.2304 10.1581C17.9612 10.2276 17.5378 10.4217 17.3106 10.5682C17.176 10.5601 17.1858 10.514 17.0694 10.464C16.9579 10.4844 16.841 10.5655 16.7426 10.627C16.4896 10.78 16.1891 11.1381 16.0415 11.1734C16.2918 10.8792 16.4288 10.7567 16.7593 10.5291C16.9371 10.4067 17.24 10.3191 17.3518 10.1771C17.5128 10.0425 17.86 9.97364 18.018 9.79432C18.309 9.75325 18.5493 9.54489 18.8279 9.45914C18.9053 9.43531 18.9084 9.46462 18.9702 9.39098C19.1776 9.21119 19.1823 9.39784 19.4389 9.13437L19.7256 9.09993L19.8895 8.95216Z" fill="#E8E7E7"/>
<path id="Vector_29" d="M14.2407 30.373C14.3325 30.4694 14.8695 30.9999 14.8807 31.0458C14.7725 30.9734 14.689 30.8258 14.567 30.8439C14.4703 30.9481 14.3939 31.2157 14.2264 31.393C14.0286 31.6022 13.9328 31.5578 13.767 31.7355C13.7052 31.8018 13.6735 32.0012 13.6788 32.0953C13.6885 32.2709 13.981 32.398 13.9465 32.5643C13.8961 32.613 13.8948 32.6121 13.8329 32.6464C13.7184 32.5235 13.6104 32.3949 13.5093 32.2608C13.5401 32.2523 13.5474 32.2456 13.5759 32.2304C13.6299 32.1229 13.566 32.0252 13.5305 31.9168C13.4833 31.7723 13.572 31.8018 13.5515 31.694C13.4955 31.6913 13.3662 31.7189 13.2906 31.722C13.2426 31.5816 13.1612 31.5871 13.1348 31.4909C13.1106 31.382 13.0877 31.2467 13.1573 31.1505C13.2809 30.9793 13.5052 31.0616 13.6486 30.9334C13.8064 30.7926 13.8234 30.8418 13.845 30.6313C13.9073 30.5492 13.8916 30.6439 14.0445 30.6227L14.0814 30.5715C14.0861 30.5052 14.0809 30.4964 14.1188 30.441C14.1773 30.4178 14.1883 30.4069 14.2407 30.373Z" fill="#E8E7E7"/>
<path id="Vector_30" d="M15.7633 11.4235L15.8047 11.4499L15.7881 11.4904C15.8565 11.5315 15.8556 11.517 15.8885 11.5771C15.8458 11.6996 15.7354 11.727 15.7596 11.7852C15.9009 11.713 15.862 11.4721 16.1308 11.4889C15.9849 11.5681 15.9325 11.7459 15.8198 11.8655C15.7597 11.9292 15.5332 12.0172 15.4775 12.0677C15.3555 12.1784 15.4976 12.266 15.2408 12.2393C15.1714 12.282 15.1574 12.3437 15.1625 12.4259L15.1411 12.4327L15.1291 12.3484L15.0923 12.3397C14.9942 12.4508 15.1311 12.5724 14.9272 12.5714C14.9239 12.7835 14.8593 12.6565 14.7935 12.7867L14.8015 12.8271C14.7107 12.934 14.6359 13.0215 14.537 13.1208L14.5148 13.036C14.4182 13.092 14.4108 13.1075 14.3025 13.0757C14.2555 13.0117 14.2703 13.0494 14.2799 12.9509L14.1942 12.9803L14.168 12.9612C14.2068 12.8228 14.4185 12.8146 14.3079 12.6479C14.3268 12.6343 14.7239 12.2133 14.7392 12.1899C14.8274 12.1277 15.2246 11.7953 15.2899 11.722L15.2985 11.7146C15.4674 11.6691 15.6336 11.5361 15.7633 11.4235ZM14.7022 12.5001C14.7374 12.4813 14.9688 12.2525 14.9932 12.2172L14.9719 12.2072C14.9379 12.2381 14.8827 12.2971 14.8448 12.3097C14.8467 12.2448 14.8552 12.2421 14.8897 12.1816L14.8763 12.1703C14.7567 12.2847 14.592 12.458 14.5164 12.6028L14.5344 12.6234C14.6139 12.5982 14.6403 12.5605 14.7022 12.5001Z" fill="#E8E7E7"/>
<path id="Vector_31" d="M14.8765 12.1702L14.8899 12.1816C14.8554 12.2421 14.8469 12.2447 14.845 12.3097C14.883 12.297 14.9381 12.2381 14.9721 12.2071L14.9934 12.2171C14.969 12.2524 14.7376 12.4813 14.7024 12.5C14.6405 12.5604 14.6142 12.5982 14.5346 12.6233L14.5166 12.6028C14.5922 12.4579 14.7569 12.2847 14.8765 12.1702Z" fill="#E8E7E7"/>
<path id="Vector_32" d="M13.3745 32.0054C13.3942 31.8219 13.1761 31.7408 13.1121 31.5913C13.0631 31.477 13.0357 31.2936 12.9659 31.1749C12.9457 31.1406 12.9645 31.116 12.9791 31.0661C12.9605 31.017 12.9321 31.0067 12.8868 30.9768L12.868 30.9646C12.8428 30.8909 12.8531 30.9069 12.8719 30.8179L12.8835 30.8334C13.0619 30.881 13.1659 30.5341 13.3459 30.4705C13.3699 30.5307 13.3938 30.624 13.4385 30.6524C13.6579 30.4225 13.678 30.0962 14.0885 30.2057C14.1396 30.261 14.1904 30.3168 14.2407 30.373C14.1883 30.4069 14.1773 30.4179 14.1188 30.441C14.0809 30.4964 14.0861 30.5052 14.0814 30.5716L14.0445 30.6227C13.8916 30.644 13.9073 30.5492 13.845 30.6313C13.8234 30.8419 13.8064 30.7926 13.6486 30.9334C13.5052 31.0616 13.2809 30.9793 13.1573 31.1505C13.0877 31.2467 13.1106 31.3821 13.1348 31.4909C13.1612 31.5871 13.2426 31.5816 13.2906 31.7221C13.3322 31.7715 13.5044 31.9604 13.3745 32.0054Z" fill="#E8E7E7"/>
<path id="Vector_33" d="M21.5229 41.9987C22.0562 41.9993 22.5894 42.0031 23.1226 42.0099C23.191 42.0455 27.8141 42.033 28.2541 42.0339C27.2541 42.1069 25.9371 42.033 24.9001 42.0593C25.1659 42.1153 26.3028 42.0122 26.4617 42.0766C25.1468 42.1463 23.8303 42.0977 22.5147 42.0913C21.5809 42.0867 20.6478 42.0907 19.7146 42.0541C20.2393 42.0065 20.9654 42.072 21.5229 42.0362L20.4038 42.0337C20.1987 42.0343 19.8889 42.0459 19.698 42.028L19.6865 42.0124C20.2487 41.9916 20.9665 42.0375 21.4971 42.0006L21.5229 41.9987Z" fill="#020101"/>
<path id="Vector_34" d="M16.7425 10.627C16.8409 10.5656 16.9578 10.4844 17.0694 10.4641C17.1857 10.514 17.1759 10.5602 17.3105 10.5682C17.2658 10.6515 17.1131 10.7518 17.0294 10.8187C16.934 10.8683 16.5379 11.2611 16.4841 11.4083C16.0312 11.7363 15.5796 12.1148 15.1629 12.4889C15.104 12.5417 14.8475 12.8022 14.8015 12.8271L14.7935 12.7867C14.8593 12.6565 14.9239 12.7835 14.9272 12.5714C15.1311 12.5724 14.9942 12.4508 15.0923 12.3398L15.1291 12.3484L15.1411 12.4327L15.1625 12.4259C15.1574 12.3438 15.1714 12.282 15.2408 12.2394C15.4976 12.266 15.3555 12.1784 15.4775 12.0677C15.5332 12.0172 15.7597 11.9293 15.8198 11.8655C15.9325 11.7459 15.9849 11.5681 16.1308 11.4889C16.224 11.4882 16.6391 11.1109 16.6393 11.002C16.5847 10.9555 16.5433 10.9719 16.4526 10.9453C16.4559 10.792 16.6481 10.8557 16.7425 10.627Z" fill="#E8E7E7"/>
<path id="Vector_35" d="M17.0292 10.8187C17.1203 10.8004 17.2557 10.7176 17.3517 10.674C17.6319 10.5469 17.9135 10.4095 18.1977 10.292C18.3262 10.2388 18.3802 10.2305 18.5006 10.2843C18.1993 10.4446 17.8797 10.5832 17.5755 10.744C17.1887 10.9485 16.8501 11.175 16.4839 11.4083C16.5377 11.2611 16.9338 10.8683 17.0292 10.8187Z" fill="#E8E7E7"/>
<path id="Vector_36" d="M13.0037 31.5605C13.1225 31.4172 12.7818 31.0816 12.8011 30.9064C12.84 30.5515 13.2074 30.5685 13.4093 30.3814C13.4825 30.3136 13.4549 30.1909 13.5458 30.094C13.6635 30.029 13.8646 30.0719 13.9974 30.0995C14.0321 30.1366 14.0593 30.1633 14.0884 30.2056C13.6778 30.0961 13.6577 30.4224 13.4383 30.6523C13.3936 30.6239 13.3697 30.5307 13.3458 30.4704C13.1657 30.534 13.0618 30.881 12.8834 30.8334L12.8718 30.8178C12.853 30.9069 12.8426 30.8909 12.8679 30.9645L12.8867 30.9768C12.9319 31.0066 12.9604 31.017 12.979 31.066C12.9643 31.1159 12.9456 31.1405 12.9658 31.1749C13.0356 31.2936 13.063 31.477 13.112 31.5913C13.1759 31.7407 13.3941 31.8218 13.3743 32.0054L13.3268 32.0218C13.2334 31.8959 13.0732 31.69 13.0037 31.5605Z" fill="#E8E7E7"/>
<path id="Vector_37" d="M21.2965 8.32458C21.565 8.24656 21.9771 8.15214 22.2484 8.11639C22.3251 8.19134 22.3043 8.14109 22.4291 8.17953C22.3219 8.23711 22.254 8.11873 22.0553 8.21145L22.094 8.22366C22.1045 8.26892 22.0889 8.38256 22.0711 8.42199C22.0081 8.56211 21.6093 8.45652 21.524 8.51614C21.4191 8.58942 21.3751 8.63039 21.2657 8.68698C21.1556 8.68693 21.0224 8.67957 20.918 8.70487C20.8943 8.73161 20.8876 8.72304 20.838 8.73451L20.8037 8.71276C20.8277 8.51849 21.1328 8.63567 21.2636 8.52603C21.3083 8.42115 21.266 8.44414 21.2868 8.36163L21.2965 8.32458Z" fill="#E8E7E7"/>
<path id="Vector_38" d="M16.7427 10.627C16.6482 10.8556 16.4561 10.7919 16.4528 10.9452C16.5435 10.9718 16.5849 10.9554 16.6394 11.002C16.6393 11.1108 16.2242 11.4881 16.131 11.4888C15.8622 11.4721 15.9011 11.713 15.7598 11.7851C15.7356 11.7269 15.8459 11.6995 15.8887 11.577C15.8558 11.5169 15.8567 11.5315 15.7883 11.4903L15.8049 11.4499L15.7635 11.4235C15.8126 11.3436 15.9282 11.3037 15.9805 11.2191C16.0081 11.1745 15.9921 11.1871 16.0416 11.1734C16.1892 11.1381 16.4897 10.7799 16.7427 10.627Z" fill="#E8E7E7"/>
<path id="Vector_39" d="M14.3522 13.3142C14.0457 13.1999 13.8636 13.5896 13.7036 13.6686C13.6794 13.6333 13.6899 13.6505 13.6984 13.5879C13.6071 13.5792 13.6636 13.6569 13.5525 13.6862L13.5444 13.656C13.6026 13.524 13.7102 13.5209 13.7507 13.4435C13.9341 13.0943 14.0159 12.9213 14.3079 12.6479C14.4184 12.8145 14.2068 12.8228 14.1679 12.9611L14.1941 12.9802L14.2799 12.9509C14.2703 13.0493 14.2554 13.0117 14.3024 13.0756C14.4107 13.1075 14.4182 13.0919 14.5147 13.0359L14.537 13.1207C14.5068 13.1526 14.3775 13.2943 14.3522 13.3142Z" fill="#E8E7E7"/>
<path id="Vector_40" d="M18.7588 10.0484C18.8818 9.99185 19.015 9.96069 19.1518 9.8972L19.156 9.86853L19.0833 9.81857L19.1085 9.79451C19.3303 9.80823 19.4968 9.68684 19.7089 9.61851C19.9658 9.53573 20.2419 9.49318 20.4826 9.37752C20.5312 9.35422 20.5244 9.34519 20.5855 9.33636C20.5011 9.5588 20.253 9.42967 20.1133 9.6643C19.6372 9.81128 19.3082 9.94076 18.8456 10.132C18.8205 10.1031 18.7873 10.0747 18.7588 10.0484Z" fill="#E8E7E7"/>
<path id="Vector_41" d="M16.2704 10.7212C16.2834 10.7857 16.2973 10.7952 16.2576 10.8533C16.1503 11.0103 15.3448 11.6298 15.2984 11.7146L15.2897 11.7219C15.0578 11.7464 15.08 11.9425 14.8761 11.889C14.8726 11.8891 14.8692 11.8892 14.8657 11.8893C15.3066 11.4776 15.7766 11.069 16.2704 10.7212Z" fill="#E8E7E7"/>
<path id="Vector_42" d="M21.2969 8.32458L21.2872 8.36164C21.2664 8.44414 21.3086 8.42115 21.2639 8.52604C21.1332 8.63568 20.8281 8.5185 20.8041 8.71277L20.8384 8.73452C20.888 8.72304 20.8947 8.73161 20.9184 8.70487L20.9448 8.7117C21.0295 8.733 21.1416 8.75433 21.2347 8.75986C21.2475 8.77708 21.2604 8.79431 21.2733 8.8115C21.2587 8.95376 21.1639 8.98944 21.0301 8.98445C21.1255 8.93696 21.1571 8.9395 21.2095 8.85793L21.1956 8.82793C20.9954 8.76845 20.8145 8.85334 20.6448 8.84456L20.6909 8.79376L20.6859 8.77281C20.6026 8.76662 20.3955 8.76172 20.3431 8.81294C20.1575 8.9947 20.1532 8.97395 19.8896 8.95218C19.9669 8.93929 20.0923 8.93569 20.1386 8.89035C20.3357 8.69723 20.4027 8.77416 20.6407 8.7073C20.6833 8.65469 20.6805 8.65866 20.6894 8.59117L20.6641 8.56766L20.7193 8.53027L20.7117 8.49921C20.8686 8.4329 21.126 8.37052 21.2969 8.32458Z" fill="#E8E7E7"/>
<path id="Vector_43" d="M18.7588 10.0483C18.7873 10.0747 18.8206 10.1031 18.8456 10.132L18.5007 10.2843C18.3802 10.2305 18.3263 10.2388 18.1978 10.2919C17.9136 10.4095 17.6319 10.5469 17.3518 10.674C17.2557 10.7175 17.1203 10.8004 17.0293 10.8187C17.113 10.7517 17.2657 10.6515 17.3104 10.5682C17.5376 10.4217 17.961 10.2276 18.2302 10.1581C18.4389 10.1042 18.4768 10.1902 18.7588 10.0483Z" fill="#E8E7E7"/>
<path id="Vector_44" d="M16.7808 10.3523C16.9363 10.4057 17.1789 10.2538 17.3515 10.1771C17.2398 10.3191 16.9368 10.4067 16.759 10.5291C16.4285 10.7567 16.2915 10.8792 16.0412 11.1734C15.9918 11.1871 16.0077 11.1745 15.9801 11.2192C15.9279 11.3037 15.8122 11.3437 15.7632 11.4235C15.6334 11.5361 15.4673 11.6691 15.2983 11.7146C15.3448 11.6298 16.1503 11.0103 16.2576 10.8533C16.2973 10.7952 16.2834 10.7857 16.2704 10.7212C16.3175 10.6655 16.7154 10.3954 16.7808 10.3523Z" fill="#E8E7E7"/>
<path id="Vector_45" d="M20.2059 8.6659C20.3069 8.61259 20.588 8.53546 20.7116 8.49921L20.7192 8.53026L20.664 8.56765L20.6893 8.59116C20.6804 8.65866 20.6832 8.65468 20.6406 8.70729C20.4026 8.77415 20.3356 8.69723 20.1385 8.89034C20.0922 8.93569 19.9668 8.93929 19.8896 8.95217L19.7257 9.09994L19.4389 9.13438C19.1823 9.39785 19.1776 9.2112 18.9702 9.39098C19.0301 9.22777 19.198 9.29166 19.3503 9.09579C19.4569 9.08739 19.5599 9.07044 19.6655 9.05472L19.7897 8.93086C19.9401 8.91023 20.2293 8.88268 20.2059 8.6659Z" fill="#E8E7E7"/>
<path id="Vector_46" d="M13.2905 31.722C13.3661 31.7188 13.4955 31.6912 13.5514 31.694C13.572 31.8018 13.4832 31.7723 13.5304 31.9167C13.5659 32.0251 13.6298 32.1228 13.5758 32.2304C13.5473 32.2456 13.54 32.2523 13.5093 32.2607C13.4564 32.2037 13.3759 32.0879 13.3269 32.0218L13.3744 32.0053C13.5044 31.9603 13.3321 31.7715 13.2905 31.722Z" fill="#E8E7E7"/>
<path id="Vector_47" d="M14.8659 11.8893C14.8694 11.8892 14.8729 11.8891 14.8763 11.889C15.0802 11.9425 15.058 11.7464 15.29 11.7219C15.2247 11.7953 14.8275 12.1277 14.7393 12.1899C14.7748 12.1279 14.7831 12.1321 14.7831 12.0667L14.7329 12.0248C14.752 11.9986 14.8381 11.9168 14.8659 11.8893Z" fill="#E8E7E7"/>
<path id="Vector_48" d="M20.5855 9.33636L20.6268 9.36053L20.6161 9.37662C20.6055 9.3939 20.5949 9.41118 20.5843 9.42849L20.6205 9.38043L20.5799 9.42434C20.6424 9.43436 20.67 9.40559 20.7403 9.37308L20.7498 9.41377C20.7238 9.45093 20.7354 9.42984 20.717 9.47813C20.5287 9.53476 20.2949 9.59821 20.1133 9.6643C20.253 9.42967 20.5011 9.5588 20.5855 9.33636Z" fill="#E8E7E7"/>
</g>
<path id="Union" d="M16.541 6.69354C20.1702 4.76727 24.347 4.13077 28.3857 4.88593C28.3886 4.88646 28.3917 4.88731 28.3945 4.88788C32.1706 5.56536 35.6494 7.57516 38.2041 10.3205C38.2158 10.3322 38.2272 10.3452 38.2383 10.3576L38.627 10.7961C38.8819 11.0928 39.1282 11.3979 39.3652 11.7092L39.7139 12.1808L39.7188 12.1887L39.9033 12.4504L39.9092 12.4601C42.6827 16.4937 43.7321 21.4672 42.8262 26.2775L42.8281 26.2785C42.2514 29.4097 40.8366 32.3268 38.7354 34.7189L38.7246 34.7287C38.3478 35.1528 37.9427 35.5616 37.5293 35.9484C37.6793 36.459 37.7427 36.9994 37.7129 37.5539C38.6973 38.4489 39.5687 39.6215 39.9971 41.093L40.0859 41.4299L40.0908 41.4494L40.1201 41.59C40.1214 41.596 40.1229 41.6026 40.124 41.6086C40.2085 42.043 40.259 42.6698 40.0244 43.3391C39.7048 44.2493 39.0237 44.7935 38.3809 45.0539C37.8508 45.2686 37.3522 45.292 37.1338 45.299C37.1242 45.2993 37.1141 45.3 37.1045 45.3H36.582L35.4473 45.299H35.4414L31.4678 45.2844L16.3945 45.2805L14.0439 45.2785C13.6993 45.2791 13.172 45.2886 12.6826 45.2658C12.2401 45.2449 11.754 45.1264 11.292 44.8381C10.8992 44.5928 10.6496 44.2974 10.5732 44.2082L10.3438 43.9387C10.2548 43.8347 10.1899 43.7124 10.1543 43.5803L10.0615 43.2385C9.79383 42.2391 10.0793 41.3229 10.1562 41.0656L10.1602 41.0539L10.2188 40.8674L10.2217 40.8527L10.3115 40.5969C10.7783 39.3361 11.5175 38.3792 12.3838 37.6291C12.3713 37.4552 12.3689 37.2764 12.3789 37.0939C12.4007 36.7001 12.4773 36.3324 12.5879 35.9914C12.5666 35.9722 12.5427 35.9506 12.5166 35.9269L12.5107 35.9221L12.4951 35.9084C12.4908 35.9044 12.4867 35.8998 12.4824 35.8957L12.4688 35.883C12.1383 35.5679 11.8413 35.2517 11.5977 34.9982L11.5801 34.9797C11.5706 34.97 11.5607 34.9605 11.5518 34.9504L11.5332 34.9289C11.2943 34.6612 11.0441 34.3569 10.8711 34.1516L10.8389 34.1144L10.8057 34.0793C10.766 34.0383 10.7296 33.9932 10.6982 33.9455L10.6172 33.8224C10.6152 33.8197 10.6098 33.8127 10.5996 33.799C10.5852 33.7797 10.5477 33.7281 10.5068 33.673L10.498 33.6623L10.21 33.2609L10.2021 33.2502C9.90842 32.8279 9.6428 32.4073 9.39453 31.9982L9.38867 31.9894L9.36914 31.9562L9.36328 31.9455L9.22168 31.6984L9.16016 31.592C9.13653 31.5509 9.11663 31.5073 9.09961 31.4631L9.08496 31.4348C9.07406 31.4151 9.05728 31.3848 9.04199 31.3566C9.03812 31.3498 9.03396 31.343 9.03027 31.3361C8.58601 30.5075 8.35089 29.8982 8.07227 29.216L8.07129 29.2141L8.05273 29.1701C8.04544 29.1521 8.03837 29.1329 8.03223 29.1144L8.01855 29.0705C7.59734 27.8219 7.21586 26.4953 7.0625 24.9914C7.0576 24.9433 7.05375 24.9119 7.05078 24.8879L7.03516 24.8205C7.02401 24.7723 7.01596 24.7233 7.0127 24.674L7.00586 24.5568L6.95898 23.7805C6.92154 23.0095 6.91657 22.2388 6.99316 21.3488C7.26259 18.0176 8.44241 14.8237 10.4023 12.1164C10.7239 11.6685 11.018 11.2697 11.3955 10.8303L11.8057 10.3732C12.3812 9.75615 12.9959 9.17568 13.6445 8.63593C13.7997 8.50661 13.9538 8.38949 14.0566 8.31073C14.173 8.22163 14.2419 8.16664 14.3018 8.11639L14.3564 8.07147C14.3785 8.05295 14.4021 8.03511 14.4258 8.01874L14.4814 7.98065C15.1372 7.52268 15.754 7.11537 16.5361 6.69745L16.541 6.69354ZM37.5371 44.3391C37.601 44.3284 37.6682 44.3153 37.7373 44.298C37.6681 44.3153 37.601 44.3284 37.5371 44.3391ZM38.3701 44.0314C38.2609 44.1012 38.1478 44.1571 38.0361 44.2023C38.0129 44.2117 37.9889 44.2193 37.9658 44.2277L38.0361 44.2033C38.1479 44.158 38.2609 44.1013 38.3701 44.0314ZM39.1582 43.0353C39.1778 42.9796 39.1938 42.9235 39.208 42.8683C39.1938 42.9236 39.1778 42.9795 39.1582 43.0353ZM39.2168 42.8293C39.2233 42.8019 39.2281 42.7744 39.2334 42.7473C39.2281 42.7744 39.2233 42.8019 39.2168 42.8293ZM10.874 42.5197C10.8771 42.5706 10.8823 42.6219 10.8887 42.674C10.8823 42.6219 10.8771 42.5706 10.874 42.5197ZM10.8877 42.0158C10.8733 42.1416 10.8659 42.2776 10.8691 42.4201C10.8659 42.2776 10.8732 42.1416 10.8877 42.0158ZM39.2744 42.3185C39.2744 42.2989 39.2749 42.2794 39.2744 42.2599C39.2749 42.2794 39.2744 42.2989 39.2744 42.3185ZM10.9131 41.843C10.9082 41.8722 10.9028 41.9021 10.8984 41.9328C10.9028 41.9021 10.9082 41.8722 10.9131 41.843ZM38.8076 40.5256L38.8086 40.5246L38.8076 40.5256ZM12.8271 38.465C12.7201 38.5635 12.616 38.6657 12.5146 38.7717C12.616 38.6658 12.72 38.5634 12.8271 38.465ZM37.1582 38.2892C37.2243 38.3506 37.29 38.4128 37.3545 38.4767C37.2252 38.3486 37.0925 38.2254 36.957 38.1076L37.1582 38.2892ZM13.3066 37.631C13.3097 37.6644 13.3133 37.6976 13.3174 37.7307C13.3133 37.6976 13.3097 37.6644 13.3066 37.631ZM38.0449 34.1135L38.0391 34.1193C37.552 34.6675 37.008 35.1953 36.4551 35.6867C36.4901 35.7624 36.5228 35.8392 36.5527 35.9172C36.5228 35.8393 36.49 35.7623 36.4551 35.6867C37.008 35.1953 37.553 34.6685 38.04 34.1203L38.0459 34.1135H38.0449ZM13.6787 35.7385C13.6265 35.8445 13.5786 35.9533 13.5352 36.0646L13.6045 35.8996C13.6285 35.8453 13.6536 35.7915 13.6797 35.7385H13.6787ZM39.0957 32.7873H39.0967H39.0957ZM9.95508 31.133H9.95605H9.95508ZM9.83984 30.9025L9.84277 30.9074C9.84753 30.9162 9.85322 30.9253 9.8584 30.9348C9.85317 30.9252 9.84762 30.9154 9.84277 30.9064L9.83984 30.9016V30.9025ZM41.9805 25.7902C41.9864 25.7551 41.9923 25.7199 41.998 25.6848C41.9923 25.7199 41.9864 25.7551 41.9805 25.7902ZM42.0869 25.0656C42.0954 24.9982 42.1055 24.9309 42.1133 24.8635L42.1172 24.8234C42.1081 24.9042 42.0971 24.9848 42.0869 25.0656ZM42.1807 24.1252C42.1842 24.076 42.1873 24.0269 42.1904 23.9777C42.1873 24.0269 42.1842 24.076 42.1807 24.1252ZM42.2002 23.801C42.2047 23.716 42.2096 23.6311 42.2129 23.5461C42.2096 23.6311 42.2047 23.716 42.2002 23.801ZM42.2207 23.2775C42.2216 23.2398 42.223 23.202 42.2236 23.1642C42.223 23.202 42.2216 23.2398 42.2207 23.2775ZM42.2256 22.8713C42.2256 22.8228 42.226 22.7743 42.2256 22.7258C42.226 22.7743 42.2256 22.8228 42.2256 22.8713ZM42.2197 22.4211C42.2185 22.3752 42.2174 22.3293 42.2158 22.2834C42.2174 22.3293 42.2185 22.3752 42.2197 22.4211ZM42.209 22.1242C42.2049 22.0285 42.201 21.9327 42.1953 21.8371C42.201 21.9327 42.2049 22.0284 42.209 22.1242ZM8.03906 20.2834C7.98298 20.6623 7.93911 21.0436 7.9082 21.4269V21.4279C7.93912 21.0444 7.98298 20.6625 8.03906 20.2834ZM42.1826 21.6516C42.1782 21.5884 42.1741 21.5252 42.1689 21.4621C42.1741 21.5252 42.1782 21.5884 42.1826 21.6516ZM42.1465 21.2248C42.1401 21.1571 42.1342 21.0893 42.127 21.0217C42.1342 21.0893 42.14 21.1571 42.1465 21.2248ZM42.0977 20.7726C42.0934 20.7372 42.0895 20.7016 42.085 20.6662C42.0895 20.7016 42.0933 20.7372 42.0977 20.7726ZM42.0488 20.3957C42.0381 20.3207 42.0264 20.2459 42.0146 20.1711C42.0264 20.2459 42.0381 20.3207 42.0488 20.3957ZM8.1377 19.6887C8.11486 19.8129 8.09533 19.9378 8.0752 20.0627C8.09532 19.9378 8.11487 19.8129 8.1377 19.6887ZM41.9814 19.967C41.9704 19.9018 41.959 19.8367 41.9473 19.7717C41.959 19.8367 41.9704 19.9018 41.9814 19.967ZM41.9043 19.5422C41.8943 19.4907 41.8845 19.4392 41.874 19.3879C41.8845 19.4392 41.8943 19.4907 41.9043 19.5422ZM8.24512 19.1525C8.22165 19.2609 8.20109 19.3698 8.17969 19.4787C8.20108 19.3698 8.22166 19.2609 8.24512 19.1525ZM41.8223 19.1447C41.8097 19.0873 41.7963 19.0301 41.7832 18.9728C41.7963 19.0301 41.8097 19.0873 41.8223 19.1447ZM8.37891 18.5881C8.35428 18.6858 8.33055 18.7838 8.30762 18.882C8.33054 18.7838 8.35429 18.6858 8.37891 18.5881ZM41.7256 18.7248C41.7079 18.6527 41.6895 18.5808 41.6709 18.509C41.6895 18.5808 41.7079 18.6527 41.7256 18.7248ZM8.52441 18.0432C8.49539 18.1443 8.46859 18.2461 8.44141 18.3478C8.46858 18.2461 8.4954 18.1443 8.52441 18.0432ZM41.5137 17.9396C41.4916 17.8646 41.4684 17.7898 41.4453 17.715C41.4684 17.7898 41.4916 17.8646 41.5137 17.9396ZM8.69824 17.4767C8.66458 17.5806 8.63229 17.6848 8.60059 17.7892C8.63228 17.6848 8.66459 17.5806 8.69824 17.4767ZM41.3906 17.5422C41.368 17.4717 41.3448 17.4014 41.3213 17.3312C41.3448 17.4014 41.368 17.4717 41.3906 17.5422ZM8.87598 16.9562C8.84716 17.0364 8.81963 17.1169 8.79199 17.1974C8.81962 17.1169 8.84717 17.0364 8.87598 16.9562ZM41.2607 17.1525C41.2272 17.056 41.1934 16.9595 41.1582 16.8635C41.1934 16.9595 41.2272 17.056 41.2607 17.1525ZM41.1211 16.7639C41.0934 16.6897 41.0648 16.6159 41.0361 16.5422C41.0648 16.6159 41.0934 16.6897 41.1211 16.7639ZM9.07129 16.4387C9.03815 16.5223 9.00644 16.6065 8.97461 16.6906C9.00643 16.6065 9.03816 16.5223 9.07129 16.4387ZM9.28125 15.9348C9.25702 15.9907 9.23262 16.0465 9.20898 16.1027C9.23261 16.0465 9.25703 15.9907 9.28125 15.9348ZM40.7939 15.9514C40.7525 15.8553 40.7102 15.7596 40.667 15.6642C40.7102 15.7596 40.7525 15.8553 40.7939 15.9514ZM9.52441 15.3986C9.49035 15.4705 9.45591 15.5421 9.42285 15.6144C9.45591 15.5421 9.49036 15.4705 9.52441 15.3986ZM40.6191 15.5588C40.5827 15.4797 40.5455 15.401 40.5078 15.3224C40.5455 15.401 40.5827 15.4797 40.6191 15.5588ZM40.4531 15.2092C40.4177 15.1366 40.3812 15.0645 40.3447 14.9924C40.3812 15.0645 40.4177 15.1366 40.4531 15.2092ZM10.125 14.2443C10.0584 14.3613 9.99251 14.4785 9.92871 14.5969C9.99251 14.4785 10.0584 14.3613 10.125 14.2443ZM39.1523 12.9807C39.3884 13.3239 39.6107 13.6746 39.8203 14.0314C39.6838 13.7991 39.5423 13.5687 39.3945 13.342C39.3154 13.2206 39.2356 13.0994 39.1533 12.9797L39.1523 12.9807ZM12.8594 10.6008C12.7395 10.7219 12.6224 10.8456 12.5059 10.9699C12.6224 10.8455 12.7396 10.7219 12.8594 10.6008ZM13.2383 10.2307C13.1521 10.3131 13.0661 10.3957 12.9814 10.4797C13.066 10.3956 13.1521 10.3131 13.2383 10.2307ZM13.4385 10.0402C13.4235 10.0542 13.4085 10.0682 13.3936 10.0822C13.5187 9.96505 13.6452 9.8493 13.7734 9.73553L13.4385 10.0402ZM14.6152 9.03827L14.2314 9.34198L14.6152 9.03925C14.708 8.96816 14.7802 8.91094 14.8457 8.8576L14.6152 9.03827ZM15.0039 8.73456H15.0049H15.0039ZM28.2158 5.78827C28.6636 5.86811 29.1076 5.96752 29.5459 6.08612C29.2174 5.99723 28.8858 5.91901 28.5518 5.85175C28.4404 5.82931 28.3287 5.80823 28.2168 5.78827H28.2158Z" fill="white" fill-opacity="0.3"/>
</g>
</g>
</g>
</svg>
