<svg width="50" height="50" viewBox="0 0 50 50" fill="none" xmlns="http://www.w3.org/2000/svg">
<rect width="50" height="50" fill="#BEBEBE"/>
<g id="Decorate Mode">
<path d="M-238.703 -1239.03V-1238.03H2781.3V-1239.03V-1240.03H-238.703V-1239.03ZM2783.3 -1237.03H2782.3V2300.97H2783.3H2784.3V-1237.03H2783.3ZM2781.3 2302.97V2301.97H-238.703V2302.97V2303.97H2781.3V2302.97ZM-240.703 2300.97H-239.703V-1237.03H-240.703H-241.703V2300.97H-240.703ZM-238.703 2302.97V2301.97C-239.255 2301.97 -239.703 2301.52 -239.703 2300.97H-240.703H-241.703C-241.703 2302.62 -240.36 2303.97 -238.703 2303.97V2302.97ZM2783.3 2300.97H2782.3C2782.3 2301.52 2781.85 2301.97 2781.3 2301.97V2302.97V2303.97C2782.95 2303.97 2784.3 2302.62 2784.3 2300.97H2783.3ZM2781.3 -1239.03V-1238.03C2781.85 -1238.03 2782.3 -1237.59 2782.3 -1237.03H2783.3H2784.3C2784.3 -1238.69 2782.95 -1240.03 2781.3 -1240.03V-1239.03ZM-238.703 -1239.03V-1240.03C-240.359 -1240.03 -241.703 -1238.69 -241.703 -1237.03H-240.703H-239.703C-239.703 -1237.59 -239.255 -1238.03 -238.703 -1238.03V-1239.03Z" fill="black" fill-opacity="0.1"/>
<g id="Stickers">
<rect x="-186.694" y="-366.534" width="374" height="551" rx="4.5" stroke="#9747FF" stroke-dasharray="10 5"/>
<g id="Property 1=shooting star">
<g id="Frame 194">
<path id="Vector" d="M42.8607 7.43195C43.0748 7.4024 43.317 7.44994 43.4803 7.59833C43.5907 7.69838 43.6539 7.84022 43.6547 7.9892C43.6588 8.4705 42.9467 8.88712 42.5936 9.16083C42.2162 9.45885 41.8436 9.76259 41.4755 10.0719C40.059 11.2523 38.9078 12.2943 37.6202 13.6227C39.1669 13.2146 40.7562 12.8696 42.3468 12.6813C42.9152 12.614 43.9186 12.4523 44.4193 12.7724C44.8868 13.0713 44.847 13.7774 44.4293 14.1218C44.0118 14.4661 43.5343 14.738 43.0802 15.0336C42.233 15.591 41.4042 16.1562 40.5856 16.7543C39.808 17.3224 39.0773 17.9271 38.3353 18.5409C39.6317 18.3626 40.9327 18.2204 42.2372 18.1144C42.775 18.0721 43.3656 18.0224 43.9027 18.0356C44.2084 18.0431 44.5226 18.1764 44.7252 18.4135C44.8942 18.6105 44.9738 18.8689 44.9447 19.1269C44.933 19.2334 44.871 19.4683 44.8073 19.5464C44.2477 20.2331 42.6542 20.6966 41.8402 20.9647C36.0424 22.8115 30.5394 25.48 25.4991 28.8889C24.601 29.5071 23.6623 30.1675 22.8099 30.8501C23.0427 31.6533 22.6303 32.0449 22.1039 32.572C21.8623 32.8137 21.6173 33.0586 21.3729 33.2986L19.4172 35.2319C19.7056 36.321 20.0067 37.4067 20.3205 38.4885C20.469 39.0112 20.6584 39.5964 20.7637 40.1284C20.7958 40.2903 20.7489 40.5007 20.6823 40.6531C20.5489 40.9602 20.2938 41.198 19.978 41.3096C19.8031 41.3708 19.5087 41.4106 19.3331 41.3591C18.7937 41.2009 18.1654 40.8518 17.6574 40.5996L15.5103 39.5503C15.1918 39.3935 14.8724 39.2283 14.5556 39.0674C14.2366 39.2307 13.6719 39.6062 13.356 39.8025L11.3163 41.0474C10.9374 41.2781 10.5417 41.5488 10.1366 41.7246C9.65195 41.9351 9.07297 41.7617 8.75652 41.3411C8.62847 41.1711 8.55278 40.9675 8.5387 40.7551C8.51641 40.4333 8.68037 39.5027 8.72898 39.1404C8.88264 37.9949 9.08753 36.8364 9.23101 35.6902C8.92202 35.3974 8.43296 35.0449 8.08499 34.7822L6.51843 33.5945C6.15972 33.3249 5.77205 33.0459 5.45032 32.7256C4.90986 32.1804 5.14277 31.0417 5.84163 30.7512C6.22952 30.5901 6.88237 30.5234 7.31821 30.4541L9.6219 30.0808C10.0087 30.0173 10.5641 29.9402 10.9362 29.8474C11.3769 28.936 11.8078 28.02 12.229 27.0994C12.4493 26.6294 12.6623 26.1575 12.9073 25.699C13.1574 25.2314 13.6216 25.0154 14.1448 25.1116C14.5286 25.1819 14.7149 25.4343 14.9145 25.7363C15.5026 24.7224 16.1376 23.6323 16.7952 22.6548C19.6663 18.3944 23.2458 14.5634 27.3348 11.4511C27.9982 10.9603 28.6725 10.4775 29.3788 10.0498C29.7272 9.8389 30.2887 9.51283 30.6898 9.73124C31.4027 10.1195 30.5463 11.2074 30.2599 11.6671L29.4406 12.992C30.7719 12.1876 32.0763 11.415 33.4647 10.7032C34.9652 9.93551 36.5106 9.25863 38.0924 8.67621C39.6664 8.09056 41.1844 7.60758 42.8607 7.43195Z" fill="#020101"/>
<path id="Vector (Stroke)" d="M42.6981 5.88004C43.2294 5.81863 43.9528 5.91632 44.531 6.44156L44.5304 6.44217C44.9637 6.83556 45.2126 7.39158 45.217 7.97598L45.2109 8.15665C45.142 9.03961 44.5273 9.61346 44.3003 9.8168C44.0519 10.0392 43.598 10.3606 43.5538 10.3924C43.2755 10.6122 43.0008 10.8366 42.7274 11.0631C42.9279 11.0427 43.1524 11.0242 43.3726 11.0192C43.7642 11.0102 44.4882 11.0226 45.1334 11.3799L45.261 11.4562L45.3989 11.5514C46.0633 12.0461 46.3282 12.7957 46.3187 13.4527C46.3089 14.1338 46.0116 14.8419 45.4233 15.3271C44.9154 15.7459 44.2812 16.1165 43.9329 16.3433L43.9323 16.3427C43.8677 16.3852 43.8037 16.4283 43.7394 16.4709L43.9414 16.4733L44.0726 16.48C44.7319 16.5289 45.4217 16.825 45.911 17.3961C46.3619 17.922 46.5752 18.6123 46.4976 19.3017L46.497 19.3011C46.4771 19.4785 46.4332 19.6615 46.3901 19.8028C46.3662 19.8813 46.3331 19.979 46.2888 20.0817C46.2546 20.1611 46.1701 20.3459 46.0178 20.5327L46.0184 20.5334C45.4663 21.2109 44.5888 21.6206 44.0153 21.8572C43.3759 22.121 42.6897 22.3298 42.3289 22.4486C42.3241 22.4502 42.319 22.452 42.3142 22.4535C36.6628 24.2538 31.2983 26.8539 26.3846 30.1757C25.7194 30.6335 25.0512 31.1013 24.4211 31.5764C24.3843 31.9135 24.2855 32.238 24.1227 32.5457C23.8489 33.0629 23.4126 33.4727 23.209 33.6767C22.9678 33.9179 22.7178 34.1675 22.4674 34.4134L21.1619 35.7036C21.375 36.4886 21.5945 37.2719 21.821 38.0529L21.8235 38.0614C21.9487 38.502 22.1747 39.2095 22.2965 39.8247C22.4151 40.4233 22.2459 40.9766 22.114 41.2786C21.8073 41.9823 21.2221 42.5268 20.4984 42.7825L20.4948 42.7843C20.2713 42.8626 20.0278 42.9107 19.8038 42.932C19.6049 42.951 19.2583 42.9653 18.8932 42.8582C18.1849 42.6504 17.3629 42.1982 16.9712 42.0031L14.824 40.9539L14.8203 40.9521C14.7534 40.9191 14.6868 40.8844 14.6195 40.8507C14.4766 40.942 14.3273 41.0386 14.1807 41.1297C14.1772 41.1318 14.1738 41.1342 14.1703 41.1364L12.1305 42.3809L12.1287 42.3821C11.8542 42.5492 11.2946 42.9246 10.7584 43.1573C9.56562 43.6751 8.22804 43.2377 7.50769 42.2802V42.2796C7.19808 41.868 7.01453 41.3758 6.97974 40.8623V40.8629C6.95503 40.5058 7.02246 40.0154 7.0597 39.7478C7.12237 39.2975 7.14715 39.1813 7.18054 38.9324C7.25978 38.3418 7.35192 37.7488 7.43933 37.1789C7.48257 36.897 7.52459 36.6196 7.56446 36.3457C7.43171 36.2456 7.28947 36.1393 7.14331 36.029L7.14087 36.0271L5.57959 34.843C5.26541 34.607 4.76625 34.2494 4.3479 33.8329C4.34549 33.8305 4.34298 33.828 4.34058 33.8256C3.60222 33.0807 3.50102 32.0746 3.64905 31.336C3.79662 30.6 4.27649 29.7098 5.24207 29.3084L5.38184 29.2541C5.70998 29.136 6.05355 29.0701 6.29859 29.0282C6.53198 28.9884 6.94594 28.9301 7.06458 28.9117L9.37171 28.5381C9.54256 28.5101 9.70974 28.4838 9.86731 28.4588C10.1855 27.7912 10.5002 27.122 10.8079 26.4495L10.814 26.4361C11.021 25.9946 11.2592 25.4681 11.5293 24.9627V24.9621C12.1009 23.8932 13.2222 23.3756 14.376 23.5668C14.7354 22.966 15.1118 22.3575 15.4984 21.7827L15.4996 21.7815C18.463 17.3842 22.1592 13.427 26.3883 10.208L26.4054 10.1952C27.0775 9.69797 27.7993 9.17979 28.5697 8.71329L28.7284 8.61807C28.9188 8.50739 29.1975 8.35805 29.506 8.25186C29.8625 8.12915 30.5628 7.9578 31.2913 8.28665L31.4371 8.35867V8.35929C31.9178 8.6211 32.2475 9.02455 32.4107 9.49027C32.5239 9.4309 32.6374 9.37131 32.7518 9.31265L32.7531 9.31204C34.3092 8.51588 35.9119 7.81399 37.5522 7.20999C39.1622 6.61111 40.8259 6.07437 42.6981 5.87821V5.88004ZM42.8605 7.43216C41.1843 7.60782 39.6663 8.09045 38.0924 8.67606C36.5107 9.25847 34.9652 9.93535 33.4647 10.703C32.0764 11.4148 30.7719 12.1875 29.4407 12.9919L30.2598 11.6668C30.5462 11.2071 31.4025 10.1197 30.6901 9.73136C30.289 9.51297 29.7274 9.83909 29.379 10.05C28.6727 10.4777 27.9983 10.9605 27.335 11.4513C23.2459 14.5636 19.6665 18.3946 16.7954 22.6549C16.1379 23.6325 15.5024 24.7227 14.9143 25.7366C14.7148 25.4346 14.5284 25.1819 14.1447 25.1116C13.6216 25.0155 13.1575 25.2314 12.9075 25.6988C12.6625 26.1573 12.4491 26.6295 12.2288 27.0995L11.5897 28.4771C11.3743 28.935 11.1563 29.3917 10.936 29.8473C10.5639 29.9401 10.0087 30.0176 9.62195 30.0811L7.31848 30.454L6.95838 30.5071C6.57266 30.5627 6.1324 30.6304 5.84143 30.7513C5.14272 31.0419 4.90979 32.1806 5.4502 32.7257C5.77187 33.046 6.15965 33.3248 6.51831 33.5943L8.08509 34.782C8.43301 35.0447 8.92172 35.3975 9.23072 35.6902C9.08724 36.8364 8.88267 37.9951 8.72901 39.1405L8.60755 39.9627C8.56327 40.2808 8.52747 40.5939 8.53858 40.7549C8.55266 40.9673 8.62849 41.171 8.75647 41.3409C9.0729 41.7615 9.65189 41.9351 10.1365 41.7248C10.5416 41.549 10.9373 41.278 11.3163 41.0473L13.3561 39.8028C13.6719 39.6065 14.2365 39.2307 14.5554 39.0673C14.8722 39.2281 15.1916 39.3934 15.51 39.5501L17.6572 40.5999C18.1652 40.8521 18.7939 41.201 19.3333 41.3592C19.487 41.4042 19.7317 41.3797 19.9076 41.3317L19.9778 41.3097C20.2935 41.1982 20.5487 40.9601 20.6821 40.653C20.7404 40.5196 20.7835 40.3418 20.7719 40.1909L20.7639 40.1287C20.7113 39.8626 20.6373 39.5829 20.5582 39.3047L20.3208 38.4887C20.007 37.4069 19.7058 36.321 19.4175 35.2318L21.3731 33.2989C21.6175 33.0589 21.8621 32.8136 22.1036 32.5719C22.63 32.0448 23.0426 31.6533 22.8098 30.8501C23.6622 30.1676 24.6009 29.5072 25.499 28.8891C30.3818 25.5867 35.6987 22.9788 41.2974 21.14L41.84 20.9649C42.6539 20.6969 44.2479 20.2331 44.8075 19.5464C44.8712 19.4683 44.9331 19.2336 44.9448 19.1271C44.9703 18.9013 44.9124 18.6749 44.7843 18.4899L44.7251 18.4136C44.5225 18.1765 44.2085 18.0434 43.903 18.0358C43.3659 18.0226 42.7751 18.0723 42.2373 18.1145C40.9329 18.2206 39.6317 18.3623 38.3353 18.5406C39.0772 17.9269 39.8082 17.3221 40.5857 16.7541C41.4042 16.156 42.2331 15.5908 43.0802 15.0335C43.5343 14.7379 44.0116 14.4659 44.4291 14.1216C44.8468 13.7772 44.8867 13.0717 44.4193 12.7727C43.9186 12.4525 42.9149 12.6139 42.3466 12.6812C40.7561 12.8695 39.1666 13.2149 37.62 13.623C38.7467 12.4606 39.7692 11.5174 40.9562 10.5089L41.4756 10.0719C41.8437 9.7626 42.2163 9.45868 42.5938 9.16068C42.9468 8.88701 43.6585 8.47055 43.6545 7.98941C43.6539 7.85912 43.6056 7.73404 43.5197 7.63785L43.4806 7.59818C43.3173 7.44979 43.0746 7.40262 42.8605 7.43216Z" fill="#E8E7E7"/>
<path id="Vector (Stroke) (Stroke)" d="M42.7042 4.96103C43.4072 4.90392 44.3615 5.04747 45.1484 5.76221C45.1746 5.78605 45.1994 5.81111 45.2225 5.83754C45.7978 6.39788 46.13 7.16369 46.1361 7.96964C46.1362 7.982 46.1353 7.99435 46.1349 8.00671L46.1289 8.18727C46.1285 8.20071 46.1276 8.21452 46.1265 8.22793C46.0432 9.29507 45.4107 10.0174 45.0683 10.3505C45.1827 10.3916 45.2991 10.4361 45.4138 10.4916L45.5789 10.5765L45.6052 10.592L45.7331 10.6685L45.7833 10.7008L45.9209 10.7953C45.9297 10.8014 45.9385 10.808 45.9472 10.8144C46.8881 11.515 47.2503 12.5678 47.2374 13.4655C47.2239 14.3952 46.8197 15.3658 46.0082 16.0352C45.9621 16.0733 45.9138 16.1103 45.8659 16.1476C46.1345 16.3233 46.3863 16.5389 46.6084 16.7982L46.8237 17.078C47.2912 17.7532 47.5037 18.5794 47.4108 19.405C47.4095 19.4167 47.4054 19.428 47.4036 19.4397C47.3744 19.675 47.3203 19.9012 47.2685 20.071C47.238 20.171 47.1938 20.3025 47.1322 20.4453C47.0848 20.5553 46.9628 20.8224 46.7388 21.1006C46.7357 21.1046 46.7336 21.1098 46.7304 21.1138C46.0194 21.9862 44.9453 22.4676 44.3663 22.7066C43.6866 22.987 42.9512 23.2111 42.6169 23.3212C42.6137 23.3223 42.6035 23.325 42.593 23.3284C37.0273 25.1013 31.7435 27.6605 26.9042 30.9312L26.9054 30.9324C26.3432 31.3193 25.7882 31.7103 25.2576 32.1019C25.1876 32.4026 25.0826 32.6952 24.9347 32.9748C24.5833 33.6388 24.0331 34.1512 23.8585 34.3261C23.6173 34.5674 23.3648 34.8196 23.1111 35.0686L22.1904 35.9775C22.2505 36.1956 22.3099 36.4138 22.371 36.6315L22.7034 37.7974L22.7046 37.801L22.707 37.8094C22.8193 38.2047 23.0658 38.9822 23.1972 39.6461C23.3668 40.5021 23.1257 41.2576 22.9557 41.6467C22.547 42.5835 21.7676 43.3081 20.8045 43.6484C20.8025 43.6492 20.8005 43.6501 20.7985 43.6508C20.4945 43.7573 20.1768 43.8186 19.8909 43.8458C19.6427 43.8694 19.1625 43.8939 18.6353 43.7393C17.8293 43.5029 16.9036 42.9947 16.5678 42.8269L14.6748 41.9026L14.6724 41.905C14.6669 41.9086 14.6585 41.9144 14.6485 41.9205L12.6085 43.1654L12.6061 43.1665C12.3846 43.3015 11.7371 43.7342 11.1245 44C9.61354 44.656 7.95254 44.1722 6.96319 43.0625L6.77425 42.8317L6.62597 42.6189C6.29962 42.1126 6.10529 41.5309 6.06395 40.9268L6.06275 40.8635C6.06275 40.8574 6.06264 40.8503 6.06275 40.8443C6.04421 40.3884 6.11828 39.8493 6.15005 39.621C6.18231 39.3892 6.2055 39.2419 6.22419 39.1224C6.24271 39.0039 6.25571 38.9229 6.27082 38.8103C6.35147 38.2091 6.44459 37.606 6.5315 37.0393C6.54646 36.9418 6.55998 36.8448 6.57455 36.7487L5.02481 35.5745C4.73393 35.3561 4.17261 34.9546 3.69987 34.4839C3.69709 34.4811 3.69323 34.4761 3.68911 34.472C2.67298 33.4469 2.56112 32.0951 2.74922 31.156C2.93667 30.2212 3.55852 29.0142 4.88968 28.4607L4.91001 28.4523L5.04992 28.3985L5.07144 28.3902C5.47893 28.2435 5.88821 28.1672 6.14407 28.1235L6.92372 28.0039L9.22323 27.632L9.24236 27.6284C9.48838 27.1089 9.7334 26.5902 9.9718 26.0691L9.97777 26.056L9.98256 26.0464C10.1823 25.6204 10.4344 25.0617 10.7192 24.5289C11.3749 23.3028 12.5855 22.6188 13.8832 22.6109C14.1587 22.1603 14.4435 21.7068 14.737 21.2704L14.7382 21.268C17.7559 16.7902 21.5213 12.7592 25.8328 9.47753L25.8375 9.47394L25.8543 9.46079L25.8591 9.4572C26.5363 8.95609 27.2861 8.41702 28.094 7.92778L28.0976 7.92539L28.2566 7.83092L28.2674 7.82375C28.4794 7.70052 28.8172 7.518 29.2073 7.3837C29.616 7.24303 30.5012 7.00868 31.4733 7.36935L31.6694 7.44947L31.6981 7.46262L31.844 7.53556C31.8548 7.54088 31.8646 7.5478 31.8751 7.5535L31.8763 7.5523C31.895 7.5625 31.9129 7.57527 31.9313 7.58579C31.9406 7.59175 31.9509 7.59625 31.96 7.60253C32.274 7.78618 32.5429 8.01523 32.7624 8.27935C34.2168 7.55483 35.7096 6.90968 37.2346 6.34814C38.8664 5.74125 40.6153 5.17284 42.6025 4.96461C42.6364 4.96106 42.6704 4.96081 42.7042 4.96103ZM42.6982 5.88059V5.8782C40.8261 6.07438 39.1626 6.61145 37.5527 7.21031L36.9393 7.4411C35.5123 7.99097 34.1145 8.61585 32.7528 9.31251C32.6385 9.37112 32.524 9.43136 32.4108 9.49068C32.2477 9.025 31.918 8.62128 31.4374 8.35946L31.2916 8.28652C30.5632 7.95769 29.8628 8.12913 29.5062 8.25184L29.2814 8.33794C29.0641 8.42986 28.8718 8.53475 28.729 8.61775L28.5699 8.71342C27.7996 9.1799 27.0776 9.69777 26.4055 10.195L26.3888 10.2082C22.1598 13.4271 18.4633 17.3839 15.4999 21.781L15.4987 21.7822C15.1122 22.3569 14.7353 22.9656 14.3759 23.5663C13.2224 23.3753 12.1015 23.8933 11.5299 24.9618C11.2599 25.4672 11.0206 25.9948 10.8136 26.4362L10.8077 26.4494C10.5001 27.1217 10.1859 27.7909 9.86776 28.4583C9.71018 28.4833 9.54236 28.5104 9.37151 28.5384L7.06483 28.9115L6.29833 29.0287L5.87143 29.1124C5.71406 29.1488 5.54624 29.1946 5.38235 29.2535L5.24244 29.3085C4.27714 29.7098 3.79737 30.5996 3.64965 31.3354L3.6066 31.6248C3.53697 32.3222 3.69507 33.1734 4.34082 33.825C4.34322 33.8274 4.34557 33.831 4.34799 33.8334C4.76617 34.2497 5.26549 34.6066 5.57965 34.8426L7.14136 36.0277L7.14375 36.0289C7.28987 36.1392 7.43195 36.2457 7.56467 36.3458C7.5248 36.6196 7.48234 36.8974 7.43911 37.1792L7.06004 39.7478L6.99667 40.2715C6.97823 40.4723 6.96757 40.6848 6.97993 40.8635C7.01472 41.3769 7.19885 41.8689 7.50847 42.2805C8.22889 43.2377 9.566 43.6747 10.7586 43.157C11.0266 43.0407 11.3007 42.8894 11.5419 42.7456L12.129 42.3821L12.1302 42.3809L14.1702 41.1361L14.181 41.1301C14.3276 41.039 14.477 40.9416 14.6198 40.8503C14.6871 40.884 14.7539 40.919 14.8207 40.9519L14.8243 40.9543L16.972 42.003C17.3639 42.1983 18.1855 42.6503 18.8936 42.858C19.1673 42.9383 19.4305 42.9511 19.629 42.9441L19.8036 42.9322C20.0276 42.9109 20.2713 42.8622 20.4948 42.7839L20.4983 42.7827C21.222 42.527 21.8072 41.9821 22.1139 41.2784C22.2293 41.0141 22.3731 40.5578 22.3279 40.0467L22.2968 39.8243C22.175 39.2093 21.9485 38.5022 21.8233 38.0617L21.8209 38.0533C21.5943 37.2723 21.3752 36.4886 21.162 35.7036L22.4678 34.4134L23.2092 33.6767C23.4129 33.4728 23.849 33.0628 24.1228 32.5455C24.2855 32.238 24.3848 31.9139 24.4217 31.5769C25.0518 31.1018 25.72 30.6333 26.3852 30.1755C31.2988 26.8538 36.663 24.2533 42.3144 22.4531C42.3191 22.4515 42.324 22.4498 42.3287 22.4483C42.5993 22.3592 43.0533 22.2197 43.5329 22.0441L44.016 21.8576C44.5895 21.6209 45.4669 21.2112 46.0189 20.5338L46.0177 20.5326C46.1699 20.3458 46.2549 20.1613 46.2892 20.0818C46.3334 19.9792 46.3669 19.8816 46.3908 19.8032C46.4124 19.7325 46.4341 19.651 46.453 19.5652L46.4972 19.301C46.565 18.6979 46.4109 18.0942 46.0691 17.6005L45.9113 17.3961C45.4221 16.8251 44.7324 16.5291 44.0734 16.4801L43.9418 16.4729L43.7397 16.4705C43.8039 16.428 43.8678 16.385 43.9323 16.3426L43.9335 16.3438C44.1946 16.1737 44.6164 15.9225 45.0252 15.6311L45.4234 15.3273C45.938 14.9029 46.2307 14.3077 46.3023 13.7094L46.3191 13.4523C46.3285 12.7954 46.0638 12.0456 45.3995 11.551L45.2608 11.4566L45.134 11.38C44.4888 11.0227 43.7643 11.0099 43.3726 11.0189C43.1527 11.024 42.9284 11.0427 42.7281 11.0631C43.0014 10.8367 43.2762 10.6121 43.5544 10.3923C43.5886 10.3678 43.8514 10.1817 44.0853 9.9965L44.3006 9.81713C44.5134 9.62651 45.0674 9.11006 45.1926 8.31881L45.2118 8.15618L45.2177 7.97561C45.2132 7.39135 44.9634 6.83592 44.5302 6.44261L44.5313 6.44141C43.9531 5.9162 43.2294 5.81918 42.6982 5.88059ZM42.8608 7.43273C43.0747 7.40323 43.3169 7.44975 43.4803 7.59774L43.5197 7.6384C43.6056 7.73457 43.6542 7.85977 43.6548 7.98996L43.6477 8.07845C43.5718 8.52179 42.9253 8.90399 42.5942 9.16064C42.2168 9.45859 41.8442 9.76257 41.4761 10.0718L40.9559 10.5095C39.7692 11.5177 38.7462 12.4612 37.6197 13.6233C39.1662 13.2153 40.7562 12.8694 42.3466 12.6811C42.915 12.6137 43.9194 12.4529 44.4201 12.7731C44.8869 13.0723 44.8472 13.7777 44.4297 14.122L44.1068 14.3683C43.7753 14.6038 43.4213 14.8116 43.0809 15.0332C42.2339 15.5904 41.4048 16.156 40.5864 16.7539L40.0101 17.1868C39.442 17.6251 38.8921 18.0804 38.336 18.5404C39.6322 18.3622 40.9335 18.2207 42.2378 18.1147C42.7756 18.0725 43.3666 18.0226 43.9036 18.0358L44.0184 18.0442C44.2858 18.078 44.5479 18.2064 44.7251 18.4137L44.7849 18.4902C44.9128 18.6752 44.9705 18.9019 44.9451 19.1276L44.9272 19.2268C44.9018 19.3413 44.8552 19.4874 44.8076 19.5461C44.248 20.2328 42.6536 20.6963 41.8396 20.9643L41.2979 21.1401C35.6993 22.9789 30.3819 25.5864 25.4991 28.8888C24.601 29.5069 23.6621 30.1673 22.8098 30.8499C23.0425 31.653 22.6305 32.0449 22.1043 32.5718L21.3737 33.2989L19.4173 35.2313C19.7057 36.3204 20.0075 37.4068 20.3214 38.4886L20.5581 39.3041C20.6372 39.5824 20.7111 39.8632 20.7638 40.1292L20.7722 40.1914C20.7837 40.3422 20.7407 40.5198 20.6825 40.653C20.5491 40.9601 20.2938 41.1979 19.9782 41.3095L19.9076 41.3322C19.7756 41.3682 19.6047 41.39 19.4628 41.38L19.3336 41.3597C18.7943 41.2015 18.1651 40.8526 17.6571 40.6004L15.5107 39.5505C15.1923 39.3938 14.872 39.2282 14.5553 39.0674C14.2362 39.2308 13.6716 39.6066 13.3559 39.8028L11.3171 41.0476L10.7359 41.4063C10.5391 41.5248 10.3392 41.6366 10.1368 41.7244L9.95147 41.7854C9.57441 41.8729 9.16966 41.7541 8.88721 41.4865L8.75687 41.3406C8.66099 41.2133 8.59404 41.0672 8.56076 40.9125L8.53924 40.7546C8.5282 40.5936 8.56316 40.2809 8.6074 39.963L8.72937 39.1403C8.84462 38.2812 8.98795 37.4146 9.11322 36.5514L9.2304 35.6905C8.9214 35.3978 8.4327 35.0443 8.08484 34.7817L6.51835 33.5942C6.24934 33.3921 5.9644 33.1842 5.70282 32.9581L5.45051 32.7261C4.94391 32.2151 5.11673 31.1819 5.71598 30.8152L5.84153 30.7518C6.13246 30.631 6.57272 30.5623 6.9584 30.5067L7.31834 30.4541L9.62262 30.081C9.91267 30.0334 10.2972 29.9775 10.6283 29.9136L10.9368 29.8478L11.5897 28.4774L12.2294 27.0999C12.4498 26.6299 12.6624 26.1569 12.9075 25.6984C13.1575 25.2312 13.6221 25.0152 14.1451 25.1113C14.5287 25.1816 14.7146 25.4348 14.914 25.7367C15.5021 24.7228 16.1386 23.6327 16.7962 22.6551C19.6671 18.395 23.2459 14.564 27.3347 11.4518C27.998 10.961 28.6732 10.478 29.3795 10.0503C29.7278 9.8395 30.289 9.513 30.6901 9.73104C31.4025 10.1194 30.546 11.2073 30.2596 11.667L29.4405 12.992C30.7717 12.1876 32.0771 11.415 33.4655 10.7032C34.7783 10.0315 36.1254 9.42895 37.5013 8.89877L38.0932 8.67635C39.4702 8.16402 40.8042 7.72969 42.239 7.51165L42.8608 7.43273ZM41.958 8.4922C40.7705 8.71178 39.6279 9.08509 38.4125 9.53732H38.4101C36.8628 10.107 35.3505 10.7702 33.8828 11.5211L33.8816 11.5199C32.5245 12.2157 31.2446 12.9751 29.9164 13.7776C29.5534 13.9969 29.0872 13.9391 28.7888 13.6377C28.4903 13.3362 28.4366 12.8697 28.6596 12.5089L29.4787 11.1839L29.4811 11.1815C29.5183 11.1219 29.5613 11.0561 29.6019 10.995C29.0261 11.3585 28.4617 11.7589 27.8907 12.1812C23.8846 15.2304 20.3734 18.9865 17.5567 23.1657L17.5579 23.1669C16.9201 24.1151 16.2993 25.1797 15.7092 26.1971C15.5497 26.472 15.2592 26.6457 14.9415 26.6551C14.6237 26.6643 14.3239 26.5078 14.1487 26.2425C14.1009 26.1702 14.0661 26.1203 14.0351 26.0799C14.0066 26.0427 13.9884 26.0243 13.9789 26.0153L13.8725 26.0093C13.8457 26.0124 13.8277 26.0195 13.8163 26.0249C13.7948 26.035 13.757 26.0592 13.7182 26.1313C13.4879 26.5623 13.2885 27.0034 13.0605 27.4897L12.4232 28.8637L12.4208 28.8685C12.204 29.3293 11.9847 29.789 11.7631 30.2472C11.6444 30.4926 11.4225 30.6728 11.158 30.7387C10.7375 30.8435 10.1139 30.9311 9.7709 30.9874H9.76851L7.46542 31.3605L7.45226 31.3629L7.09233 31.4155L7.08994 31.4167C6.77512 31.462 6.51992 31.5039 6.34377 31.5506L6.19429 31.5997C6.18932 31.603 6.17599 31.6141 6.15722 31.6403C6.12781 31.6815 6.09769 31.7447 6.08189 31.8233C6.06614 31.9018 6.06934 31.9721 6.08069 32.0218C6.08819 32.0544 6.09698 32.0708 6.10102 32.0768C6.23277 32.2077 6.37788 32.3318 6.53868 32.4582L7.07081 32.86L7.0732 32.8624L8.63849 34.0486C8.9514 34.2849 9.50518 34.6843 9.86298 35.0232C10.075 35.2241 10.179 35.5143 10.1428 35.8041C10.0693 36.3911 9.97992 36.9788 9.89168 37.5547C9.80287 38.1342 9.71477 38.7002 9.63937 39.2623L9.63817 39.2742L9.5162 40.0886C9.49479 40.2424 9.47842 40.386 9.46717 40.5047L9.45521 40.6913V40.6936C9.45745 40.7274 9.46936 40.7607 9.48989 40.7881L9.49109 40.7893C9.52458 40.8335 9.57588 40.8694 9.63458 40.8862C9.69211 40.9025 9.73902 40.8964 9.7709 40.8826C10.0988 40.7403 10.3981 40.5314 10.8387 40.2632L12.8776 39.0183C13.141 38.8542 13.7761 38.4342 14.1367 38.2495C14.3985 38.1154 14.7091 38.1151 14.9714 38.2483C15.2958 38.413 15.6028 38.5723 15.9137 38.7254L18.0613 39.7753L18.0661 39.7777C18.6247 40.055 19.1216 40.3303 19.5489 40.4641C19.5504 40.464 19.552 40.4642 19.5537 40.4641C19.5716 40.4629 19.593 40.4605 19.6147 40.4569C19.6313 40.4541 19.6454 40.4501 19.6565 40.4473L19.6756 40.4413C19.7488 40.4142 19.8081 40.3591 19.8395 40.2871L19.8407 40.2859C19.8421 40.2826 19.845 40.2756 19.8478 40.2668C19.8493 40.262 19.8491 40.2569 19.8502 40.2524C19.8058 40.0396 19.7469 39.8081 19.6768 39.5612L19.4389 38.7457C19.123 37.657 18.8202 36.5629 18.5301 35.4668C18.4459 35.1488 18.5377 34.8097 18.7716 34.5784L20.7279 32.646L20.7303 32.6436C20.9708 32.4075 21.211 32.1654 21.4538 31.9225C21.5935 31.7826 21.6953 31.6828 21.7814 31.5853C21.8644 31.4914 21.9065 31.4282 21.9297 31.3844C21.9492 31.3475 21.9552 31.3244 21.9572 31.3019C21.9595 31.2764 21.9606 31.2165 21.9285 31.1058C21.8252 30.7493 21.9462 30.3657 22.2358 30.1336C23.1159 29.4289 24.0784 28.7528 24.979 28.1331L24.9849 28.1283C29.9381 24.7783 35.3316 22.1325 41.0109 20.2671L41.0157 20.266L41.5526 20.0926C41.9866 19.9497 42.5395 19.7824 43.0689 19.564C43.5549 19.3635 43.8723 19.175 44.0291 19.0331C44.0295 19.0314 44.0311 19.03 44.0315 19.0283C44.032 19.0262 44.0312 19.024 44.0315 19.0223C44.0315 19.0201 44.0301 19.0185 44.0291 19.0164L44.0231 19.008C44.0163 19.0012 44.0026 18.9874 43.9765 18.9757C43.9452 18.9616 43.9105 18.955 43.8808 18.9542C43.4018 18.9424 42.8639 18.9848 42.3108 19.0283L42.312 19.0295C41.0243 19.1342 39.7396 19.2745 38.4603 19.4504C38.054 19.5061 37.6604 19.2854 37.4953 18.9099C37.3303 18.5342 37.4338 18.0941 37.75 17.8325C38.4884 17.2217 39.2412 16.5996 40.0447 16.0125C40.8789 15.4031 41.7211 14.8293 42.5762 14.2667L42.5798 14.2643C43.0367 13.9669 43.3887 13.7609 43.717 13.5097C43.636 13.5023 43.5395 13.4977 43.4288 13.5002C43.1013 13.5076 42.7719 13.5558 42.4543 13.5934C40.9211 13.775 39.376 14.1091 37.854 14.5106C37.4557 14.6156 37.0364 14.4427 36.8281 14.0873C36.6198 13.7314 36.6738 13.2797 36.9608 12.9836C38.1106 11.7974 39.1551 10.8338 40.3616 9.80876L40.3652 9.80637L40.8842 9.36871C41.2374 9.07189 41.5958 8.77924 41.958 8.4922Z" fill="#020101"/>
<path id="Vector_2" d="M41.3876 8.67638C41.5422 8.63864 41.6467 8.61559 41.8042 8.59247C39.0803 10.7558 36.9201 12.7443 34.7766 15.497C35.0078 15.4547 35.2861 15.3645 35.5114 15.2878C38.144 14.3928 40.8623 13.7496 43.6396 13.5438C42.9533 14.0284 42.1811 14.4774 41.4787 14.9556C39.8481 16.047 38.2963 17.2518 36.8347 18.561C36.4375 18.9159 35.6237 19.6381 35.3117 20.0325C36.1264 19.9436 37.2482 19.7056 38.1064 19.5711C39.665 19.325 41.2343 19.1513 42.809 19.0503C42.997 19.0381 43.7304 18.9754 43.8645 19.0499L43.8684 19.0894C43.6423 19.3569 42.2438 19.8173 41.8457 19.9506C41.1147 20.1955 40.3667 20.4458 39.6369 20.7065C38.4194 21.1382 37.2138 21.6028 36.0214 22.0997C35.5222 22.3071 35.0356 22.5352 34.539 22.7429C31.3525 24.2072 28.7924 25.5391 25.8461 27.4873C25.052 28.0161 24.2686 28.561 23.4969 29.1223C23.0879 29.4226 22.5796 29.8396 22.1658 30.1065C21.5443 29.9507 21.0435 29.9507 20.4247 29.8843C19.3222 29.7654 18.1538 29.7417 17.0616 29.6194C16.9023 29.3416 16.729 28.9802 16.5749 28.6907C16.2108 28.0164 15.8518 27.3391 15.498 26.6594C15.8585 26.1348 16.2448 25.4143 16.5833 24.8545C17.124 23.9618 17.6933 23.0868 18.2905 22.2309C19.7605 20.1527 21.4042 18.203 23.2039 16.4026C25.1796 14.4006 27.1857 12.6193 29.5385 11.0641L29.1699 11.6035C28.4274 12.8436 27.6855 14.0587 27.0979 15.3862C27.041 15.5148 26.875 15.8658 26.8664 15.9867C27.3823 15.5563 28.2893 14.9566 28.8557 14.5674C32.6635 11.8984 36.903 9.90551 41.3876 8.67638Z" fill="#E76F51"/>
<path id="Vector_3" d="M15.498 26.6594C15.8585 26.1348 16.2448 25.4143 16.5833 24.8545C17.124 23.9617 17.6933 23.0868 18.2905 22.2309C19.7605 20.1527 21.4042 18.2029 23.2039 16.4026C25.1796 14.4006 27.1857 12.6193 29.5385 11.064L29.1699 11.6035C28.9357 11.7113 28.5734 12.1597 28.3649 12.34C25.4101 14.8944 22.6058 17.6076 20.3191 20.792C19.6051 21.7862 18.8801 22.8115 18.3494 23.9307C18.6901 23.6778 19.0005 23.4048 19.3173 23.1233C20.0161 22.5023 20.764 21.9638 21.5339 21.437C21.0838 22.1473 20.4042 23.5342 20.1862 24.3356C20.9048 23.8465 21.7569 23.1445 22.4504 22.6015C23.0932 22.1022 23.7477 21.6182 24.4134 21.1499C26.8977 19.4113 29.5307 17.8958 32.2819 16.621L32.2658 16.6354C32.1225 16.7619 31.9299 16.9004 31.7722 17.0341C31.3383 17.4015 30.9118 17.7775 30.4929 18.1621C28.6269 19.8499 26.9423 21.7282 25.467 23.7663C25.0808 24.3008 24.4196 25.228 24.1156 25.8049C24.7333 25.4736 25.3796 25.154 26.0187 24.8652C26.5979 24.6035 27.2065 24.3882 27.78 24.1169C27.1784 24.6557 26.3183 25.6548 25.872 26.3403C27.4289 25.532 29.0158 24.7825 30.6291 24.0937C31.0588 23.9152 34.3574 22.6409 34.5974 22.6572C34.5742 22.7183 34.5869 22.6982 34.539 22.7428C31.3525 24.2072 28.7924 25.5391 25.8461 27.4873C25.052 28.0161 24.2686 28.561 23.4969 29.1223C23.0879 29.4226 22.5796 29.8396 22.1658 30.1064C21.5443 29.9507 21.0435 29.9507 20.4247 29.8843C19.3222 29.7654 18.1538 29.7417 17.0616 29.6194C16.9023 29.3415 16.729 28.9802 16.5749 28.6907C16.2108 28.0163 15.8518 27.3391 15.498 26.6594Z" fill="#E9C46A"/>
<path id="Vector_4" d="M26.8665 15.9867C27.3823 15.5562 28.2893 14.9566 28.8557 14.5674C32.6636 11.8983 36.9031 9.90549 41.3877 8.67636L41.4194 8.72905C41.3223 8.9414 40.4741 9.21393 40.2229 9.32814C37.3447 10.6366 34.4395 11.9898 31.741 13.6433C30.7192 14.2775 29.71 14.9316 28.7136 15.6053C27.9666 16.1191 27.2129 16.6742 26.4673 17.1773C26.519 16.9154 26.7073 16.1744 26.8665 15.9867Z" fill="#F4A261"/>
<path id="Vector_5" d="M13.8922 25.9861C14.0645 26.0527 14.513 26.947 14.6272 27.1536L15.8398 29.3472C16.0426 29.7151 16.3176 30.2534 16.5426 30.5854C16.9574 30.6338 17.5163 30.6482 17.9435 30.6758C18.7218 30.7285 19.4998 30.7871 20.2773 30.8516C20.6909 30.8848 21.1024 30.9111 21.5139 30.9658C21.8426 31.0017 22.0195 31.2903 21.7574 31.5574C20.6464 32.6887 19.44 33.7632 18.3523 34.9167C18.7047 36.5515 19.2755 38.2468 19.7138 39.8657C19.7839 40.1245 19.9182 40.5361 19.4441 40.3689C19.0279 40.2219 18.6056 39.988 18.2086 39.7927L15.6365 38.5117C15.3091 38.3481 14.9448 38.1548 14.6053 38.0208C14.5256 37.9893 14.5143 38.0046 14.4373 38.0244L11.0446 40.0881C10.643 40.3303 10.1482 40.676 9.71761 40.8567C9.65689 40.8821 9.60181 40.8608 9.54702 40.8311C9.43269 40.6404 9.71077 39.1328 9.7552 38.8291C9.93396 37.6326 10.1013 36.4346 10.2572 35.2349C9.7575 34.7769 6.23801 32.2639 6.13592 32.0244C6.09934 31.9385 6.12551 31.813 6.17117 31.7358C6.22266 31.6487 6.30581 31.6199 6.39802 31.5911C6.73904 31.4844 7.14151 31.4556 7.49688 31.3989L10.2116 30.9668C10.6136 30.9036 11.2459 30.8403 11.6126 30.7227C11.7366 30.5205 11.9308 30.0637 12.0445 29.8252C12.4283 29.0181 12.8009 28.2056 13.1622 27.3882C13.3208 27.0359 13.6407 26.2327 13.8922 25.9861Z" fill="#E9C46A"/>
<path id="Vector_6" d="M13.5792 28.5869C13.7369 28.2422 14.1311 28.2245 14.3113 28.558C14.6439 29.1811 14.9823 29.801 15.3267 30.4176C15.3971 30.5452 15.5184 30.7817 15.6356 30.9874C15.7666 31.2173 16.0108 31.3366 16.2751 31.3494C17.2189 31.3954 18.1702 31.4799 19.1122 31.5262C19.5478 31.5477 19.7206 32.0013 19.4041 32.3013C19.3408 32.3614 19.2817 32.4173 19.2306 32.4662L17.8706 33.7807C17.7817 33.8676 17.6295 34.0127 17.487 34.1573C17.2801 34.3672 17.2236 34.668 17.3028 34.9519C17.5551 35.8565 17.8602 36.9351 18.0848 37.7383C18.181 38.082 17.7928 38.4173 17.4684 38.2684C17.1378 38.1168 15.3046 37.0906 14.6191 36.795C14.4679 36.7298 14.3071 36.7541 14.1637 36.8348C13.4767 37.2214 11.8024 38.2347 11.4445 38.4539C11.137 38.6593 10.7315 38.407 10.7822 38.0407C10.8678 37.4226 10.9582 36.8053 11.0536 36.1888C11.0829 35.9877 11.2945 34.8049 11.1859 34.6314C11.1369 34.5533 10.6209 34.1826 10.5102 34.0983C9.99857 33.7056 9.48374 33.317 8.96574 32.9325C8.81313 32.819 8.69702 32.7257 8.53296 32.5948C8.29749 32.4069 8.38562 32.0265 8.6806 31.9654L10.7957 31.6664C11.1241 31.6177 11.4905 31.5758 11.837 31.5233C12.101 31.4833 12.3297 31.3258 12.4456 31.0852C12.5605 30.8467 12.6784 30.5742 12.7564 30.4094C13.0411 29.8087 13.3019 29.1932 13.5792 28.5869Z" fill="#E8E7E7"/>
</g>
<path id="Union" d="M42.7041 4.96136C43.4071 4.90426 44.3616 5.04744 45.1484 5.76215C45.1747 5.78597 45.1996 5.81094 45.2227 5.83734C45.7979 6.39757 46.1295 7.1634 46.1357 7.96918C46.1358 7.9814 46.1352 7.99407 46.1348 8.00629L46.1289 8.18695C46.1285 8.20039 46.128 8.21456 46.127 8.22797C46.0436 9.29487 45.4108 10.0169 45.0684 10.35C45.1828 10.3912 45.2993 10.4361 45.4141 10.4916L45.5791 10.5766L45.6055 10.5922L45.7334 10.6684L45.7832 10.7006L45.9209 10.7953C45.9298 10.8015 45.9386 10.8085 45.9473 10.8149C46.888 11.5154 47.2501 12.5677 47.2373 13.4653C47.2238 14.3949 46.8194 15.3661 46.0078 16.0356C45.9619 16.0735 45.914 16.1106 45.8662 16.1479C46.1347 16.3235 46.3863 16.5391 46.6084 16.7983L46.8242 17.0776C47.2916 17.7527 47.504 18.5793 47.4111 19.4047C47.4098 19.4165 47.4051 19.4283 47.4033 19.4399C47.3741 19.675 47.3203 19.901 47.2686 20.0707C47.2381 20.1707 47.1934 20.3029 47.1318 20.4457C47.0842 20.556 46.963 20.8232 46.7393 21.101C46.7362 21.105 46.7336 21.1098 46.7305 21.1137C46.0194 21.9861 44.9452 22.4676 44.3662 22.7065C43.6868 22.9868 42.9517 23.2106 42.6172 23.3207C42.614 23.3218 42.6033 23.3252 42.5928 23.3286C37.0273 25.1015 31.7435 27.6604 26.9043 30.9311L26.9053 30.9321C26.3431 31.319 25.7884 31.7104 25.2578 32.102C25.1878 32.4027 25.0825 32.6955 24.9346 32.975C24.5832 33.6387 24.0331 34.1507 23.8584 34.3256C23.6172 34.567 23.365 34.8198 23.1113 35.0688L22.1904 35.977C22.2505 36.195 22.31 36.4136 22.3711 36.6313L22.7031 37.7973L22.7051 37.8012L22.707 37.809C22.8193 38.2042 23.0658 38.982 23.1973 39.6459C23.3668 40.5019 23.126 41.2579 22.9561 41.6469C22.5474 42.5837 21.7678 43.3085 20.8047 43.6489C20.8028 43.6495 20.8007 43.6501 20.7988 43.6508C20.4949 43.7573 20.1765 43.8189 19.8906 43.8461C19.6424 43.8697 19.1625 43.894 18.6357 43.7397C17.8297 43.5032 16.9032 42.9944 16.5674 42.8266L14.6748 41.9028L14.6729 41.9047C14.6673 41.9083 14.6584 41.9143 14.6484 41.9203L12.6084 43.1655L12.6064 43.1664C12.3849 43.3013 11.7375 43.7346 11.125 44.0004C9.61403 44.6564 7.95225 44.1726 6.96289 43.0629L6.77441 42.8315L6.62598 42.6186C6.29978 42.1125 6.10584 41.531 6.06445 40.9272L6.0625 40.8637C6.0625 40.8577 6.06238 40.8502 6.0625 40.8442C6.04398 40.3883 6.11863 39.8488 6.15039 39.6205C6.18261 39.3891 6.20594 39.2419 6.22461 39.1225C6.24313 39.004 6.2554 38.9226 6.27051 38.81C6.35114 38.209 6.44435 37.606 6.53125 37.0395C6.54621 36.942 6.55965 36.8446 6.57422 36.7485L5.02441 35.5746C4.7335 35.3563 4.1728 34.9543 3.7002 34.4838C3.69747 34.4811 3.69349 34.4762 3.68945 34.4721C2.67333 33.447 2.56092 32.0948 2.74902 31.1557C2.93654 30.2209 3.55861 29.0138 4.88965 28.4604L4.91016 28.4526L5.0498 28.3989L5.07129 28.3901C5.47877 28.2435 5.88867 28.1672 6.14453 28.1235L6.92383 28.0043L9.22363 27.6323L9.24219 27.6284C9.4882 27.1089 9.73328 26.5899 9.97168 26.0688L9.97754 26.0561L9.98242 26.0463C10.1822 25.6203 10.434 25.0615 10.7188 24.5287C11.3744 23.3027 12.5852 22.6189 13.8828 22.6108C14.1582 22.1602 14.4438 21.7063 14.7373 21.27L14.7383 21.268C17.7559 16.7902 21.5215 12.7597 25.833 9.47797L25.8379 9.47406L25.8545 9.46039L25.8594 9.45746C26.5365 8.95644 27.286 8.41732 28.0938 7.92816L28.0977 7.92523L28.2568 7.83051L28.2676 7.82367C28.4796 7.70045 28.8171 7.51751 29.207 7.38324C29.6157 7.24257 30.5016 7.0089 31.4736 7.36957L31.6699 7.44965L31.6982 7.46234L31.8438 7.53558C31.8544 7.54085 31.8646 7.54749 31.875 7.55316L31.876 7.55219C31.8947 7.56238 31.9132 7.57487 31.9316 7.58539C31.941 7.59135 31.9509 7.5967 31.96 7.60297C32.2739 7.78661 32.5433 8.01564 32.7627 8.27972C34.217 7.55526 35.7095 6.90959 37.2344 6.34808C38.8661 5.7412 40.6153 5.17252 42.6025 4.96429C42.6364 4.96075 42.6704 4.96115 42.7041 4.96136ZM19.4688 42.9448L19.6289 42.9438C19.5703 42.9459 19.506 42.9453 19.4375 42.9428C19.448 42.9432 19.4584 42.9445 19.4688 42.9448ZM19.2002 42.9213C19.2601 42.9296 19.3182 42.9353 19.374 42.9389C19.3182 42.9354 19.2601 42.9295 19.2002 42.9213ZM19.0713 42.8998C19.0897 42.9035 19.1078 42.9074 19.126 42.9106C19.1078 42.9075 19.0897 42.9035 19.0713 42.8998ZM7.72852 42.5346C7.77507 42.5826 7.82319 42.6289 7.87305 42.6733C7.82318 42.6289 7.77508 42.5826 7.72852 42.5346ZM14.8242 40.9545L16.5742 41.809L14.8242 40.9536L14.8203 40.9516L14.8242 40.9545ZM10.4385 41.5766C10.3385 41.6303 10.238 41.6811 10.1367 41.725C10.2379 41.6811 10.3386 41.6312 10.4385 41.5776V41.5766ZM19.9648 41.3129L19.9707 41.312C19.9689 41.3126 19.9667 41.3123 19.9648 41.3129ZM14.1807 41.1293V41.1303V41.1293ZM22.2305 40.9516C22.2388 40.9231 22.2472 40.8938 22.2549 40.8637C22.2472 40.8938 22.2388 40.9231 22.2305 40.9516ZM22.2725 40.7895C22.2797 40.7573 22.2867 40.7245 22.293 40.6909C22.2867 40.7245 22.2797 40.7573 22.2725 40.7895ZM22.3018 40.6352C22.3073 40.6013 22.3121 40.5668 22.3164 40.5317C22.3121 40.5668 22.3073 40.6013 22.3018 40.6352ZM22.3271 40.4379C22.3301 40.4026 22.3316 40.3668 22.333 40.3305C22.3316 40.3668 22.3301 40.4026 22.3271 40.4379ZM13.3555 39.8032H13.3564H13.3555ZM15.5098 39.5502L16.8203 40.1909L15.5107 39.5502C15.3798 39.4858 15.2493 39.4185 15.1182 39.352C15.249 39.4183 15.379 39.4859 15.5098 39.5502ZM20.334 34.3256L19.417 35.2309L19.418 35.2319L20.334 34.3256ZM23.209 33.6762V33.6772V33.6762ZM4.34766 33.8334V33.8325V33.8334ZM4.01074 33.4125C4.02615 33.4365 4.04221 33.4602 4.05859 33.4838C4.0422 33.4602 4.02615 33.4365 4.01074 33.4125ZM3.92969 33.2768C3.93966 33.2947 3.94948 33.3127 3.95996 33.3305C3.94948 33.3127 3.93966 33.2947 3.92969 33.2768ZM3.84863 33.1196C3.85996 33.1437 3.87161 33.1678 3.88379 33.1918C3.8716 33.1678 3.85997 33.1437 3.84863 33.1196ZM26.3848 30.1752C25.7195 30.6331 25.051 31.1014 24.4209 31.5766C24.3932 31.8293 24.3316 32.0752 24.2334 32.312C24.3317 32.0753 24.3942 31.8293 24.4219 31.5766C25.0519 31.1015 25.7206 30.633 26.3857 30.1752C26.6927 29.9678 27.0011 29.7628 27.3115 29.561L26.3848 30.1752ZM7.31836 30.4536V30.4545L7.34863 30.4496L8.46973 30.267L7.31836 30.4536ZM5.38184 29.2543L5.38281 29.2534L5.24219 29.308L5.38184 29.2543ZM9.37109 28.5385H9.37207H9.37109ZM12.2285 27.0991H12.2295H12.2285ZM11.333 25.3432C11.1421 25.7254 10.9687 26.1049 10.8135 26.436H10.8145C10.9697 26.1049 11.1424 25.7261 11.333 25.3442V25.3432ZM14.376 23.5659C14.3039 23.5539 14.2319 23.545 14.1602 23.5385C14.2319 23.545 14.3038 23.5549 14.376 23.5668C14.5557 23.2664 14.7393 22.9636 14.9268 22.6645C14.7394 22.9634 14.5556 23.2657 14.376 23.5659ZM42.3291 22.4487C42.4791 22.3993 42.6851 22.3332 42.9209 22.2553C42.6851 22.3333 42.4792 22.3993 42.3291 22.4487ZM44.4922 21.6459C44.3209 21.728 44.1588 21.7978 44.0156 21.8569C43.8559 21.9228 43.693 21.9859 43.5332 22.0444L44.0156 21.8578C44.2306 21.7691 44.4886 21.6555 44.7559 21.5131L44.4922 21.6459ZM45.9111 20.6577C45.7268 20.8588 45.5149 21.0349 45.2939 21.1879C45.5592 21.0042 45.8116 20.7876 46.0186 20.5336L45.9111 20.6577ZM41.8486 20.9614C41.8457 20.9623 41.8428 20.9633 41.8398 20.9643L41.7246 21.0014L41.8398 20.9653C42.0433 20.8983 42.2959 20.8188 42.5684 20.727C42.2997 20.8175 42.0505 20.895 41.8486 20.9614ZM46.4521 19.5659L46.4531 19.5649L46.4521 19.5659ZM44.9453 19.1274C44.9424 19.1538 44.9361 19.1882 44.9277 19.226C44.9361 19.1882 44.9424 19.1538 44.9453 19.1274ZM46.5107 19.0961C46.5111 19.0854 46.5115 19.0746 46.5117 19.0639C46.5115 19.0746 46.5111 19.0854 46.5107 19.0961ZM46.5098 18.9496C46.5085 18.9062 46.5064 18.8629 46.5029 18.8198C46.5065 18.863 46.5085 18.9062 46.5098 18.9496ZM46.4912 18.7162C46.4852 18.6675 46.4786 18.619 46.4697 18.5707C46.4786 18.619 46.4852 18.6675 46.4912 18.7162ZM46.4492 18.4731C46.4389 18.4271 46.427 18.3817 46.4141 18.3364C46.427 18.3816 46.4388 18.4271 46.4492 18.4731ZM46.3896 18.2534C46.3727 18.2009 46.3534 18.1493 46.333 18.0981C46.3535 18.1493 46.3726 18.2009 46.3896 18.2534ZM46.3037 18.0248C46.2787 17.9675 46.251 17.9114 46.2217 17.8559C46.251 17.9114 46.2787 17.9675 46.3037 18.0248ZM46.1973 17.8071C46.158 17.7366 46.1155 17.6677 46.0693 17.601C46.1155 17.6677 46.158 17.7366 46.1973 17.8071ZM45.2881 16.8686H45.2891H45.2881ZM43.7393 16.4711L43.9414 16.4731L44.0723 16.4799C44.3196 16.4983 44.5717 16.5516 44.8154 16.6411L44.5703 16.5639C44.4052 16.5203 44.2382 16.4922 44.0732 16.4799L43.9414 16.4731L43.7402 16.4702L43.7393 16.4711ZM44.5352 15.9594C44.3015 16.1101 44.0896 16.2426 43.9336 16.3442C44.0896 16.2427 44.3016 16.1101 44.5352 15.9594ZM45.0254 15.6313C44.9038 15.7179 44.7804 15.7999 44.6611 15.8784C44.7804 15.7999 44.9038 15.7179 45.0254 15.6313ZM45.4238 15.3266V15.3276V15.3266ZM45.584 15.1801C45.5947 15.1696 45.6058 15.1596 45.6162 15.1489C45.6058 15.1596 45.5947 15.1696 45.584 15.1801ZM45.7529 14.9946C45.7618 14.9838 45.7707 14.9732 45.7793 14.9623C45.7707 14.9732 45.7618 14.9838 45.7529 14.9946ZM45.8975 14.8012C45.9069 14.7871 45.9157 14.7725 45.9248 14.7582C45.9157 14.7725 45.9069 14.7871 45.8975 14.8012ZM45.9863 14.6557C46.0161 14.6038 46.0436 14.551 46.0693 14.4975C46.0436 14.551 46.0161 14.6038 45.9863 14.6557ZM46.0977 14.437C46.1235 14.3793 46.1467 14.3211 46.168 14.2621C46.1467 14.3211 46.1235 14.3794 46.0977 14.437ZM46.1943 14.1899C46.2174 14.1195 46.2373 14.0485 46.2539 13.977C46.2373 14.0485 46.2173 14.1195 46.1943 14.1899ZM46.3184 13.4526C46.3159 13.6212 46.2955 13.7913 46.2578 13.9594C46.2765 13.8763 46.2927 13.7931 46.3027 13.7094L46.3193 13.4526C46.3205 13.3705 46.3172 13.2868 46.3096 13.2026L46.3184 13.4526ZM45.5186 11.6469C45.8261 11.9094 46.0358 12.2302 46.1631 12.5659C46.1154 12.4401 46.0569 12.316 45.9854 12.1967C45.9376 12.1171 45.8842 12.0393 45.8252 11.9643C45.7071 11.8141 45.5655 11.6749 45.3994 11.5512L45.5186 11.6469ZM34.0293 10.4194C33.8405 10.5124 33.6523 10.6067 33.4648 10.7026C33.2914 10.7915 33.1193 10.8823 32.9482 10.9731C32.4348 11.2455 31.9312 11.5259 31.4316 11.8129C32.0976 11.4303 32.7708 11.0594 33.4648 10.7036C33.6524 10.6076 33.8404 10.5125 34.0293 10.4194ZM43.7227 11.0219C44.1217 11.0384 44.6501 11.1124 45.1338 11.3803L44.8896 11.2612C44.5601 11.1229 44.2235 11.061 43.9316 11.0346C43.859 11.0281 43.789 11.0237 43.7227 11.0209L43.373 11.019L43.7227 11.0219ZM43.5537 10.392H43.5547H43.5537ZM34.5986 10.144V10.145V10.144ZM44.3193 9.79926C44.3732 9.75061 44.4438 9.68405 44.5225 9.60101C44.4438 9.68405 44.3732 9.7506 44.3193 9.79926ZM36.3291 9.37054V9.37152V9.37054ZM44.5557 9.56488C44.591 9.52644 44.6272 9.4847 44.6641 9.43988C44.6272 9.4847 44.591 9.52644 44.5557 9.56488ZM44.6875 9.41058C44.7238 9.36524 44.7609 9.31743 44.7969 9.26605C44.7609 9.31743 44.7238 9.36524 44.6875 9.41058ZM44.8506 9.18207C44.8789 9.13823 44.907 9.093 44.9336 9.04535C44.907 9.09299 44.8789 9.13824 44.8506 9.18207ZM33.8721 8.76019C33.781 8.80356 33.6904 8.84803 33.5996 8.89203C33.6904 8.84803 33.781 8.80356 33.8721 8.76019ZM45.2041 7.75824C45.2122 7.8302 45.2162 7.9029 45.2168 7.97601L45.2109 8.15668C45.1898 8.42737 45.1164 8.66852 45.0195 8.87933C45.0967 8.71147 45.1598 8.52481 45.1924 8.31879L45.2119 8.1557L45.2178 7.97601C45.2166 7.83006 45.1997 7.68563 45.1689 7.54535L45.2041 7.75824ZM31.8447 8.64886C31.8851 8.68494 31.9241 8.72164 31.9609 8.76019C31.9241 8.72164 31.8851 8.68494 31.8447 8.64886ZM34.4453 8.49261C34.3279 8.54645 34.2107 8.60083 34.0938 8.6557C34.2107 8.60083 34.3279 8.54644 34.4453 8.49261ZM29.0283 8.45648C28.9292 8.50624 28.8389 8.55477 28.7617 8.59906C28.8389 8.55478 28.9292 8.50619 29.0283 8.45648ZM34.9814 8.2514C34.8786 8.29691 34.7754 8.34182 34.6729 8.38812C34.7754 8.34183 34.8785 8.2969 34.9814 8.2514ZM31.291 8.28656L31.3369 8.30902L31.292 8.28656C31.2464 8.266 31.2005 8.24768 31.1553 8.2309L31.291 8.28656ZM35.6006 7.98383C35.4807 8.03465 35.3607 8.08525 35.2412 8.13715C35.3607 8.08525 35.4807 8.03465 35.6006 7.98383ZM44.1934 6.1889C44.2709 6.23565 44.3466 6.28905 44.4209 6.34808C44.3466 6.28906 44.2709 6.23562 44.1934 6.1889ZM43.5566 5.93207C43.6497 5.95433 43.7436 5.98169 43.8369 6.01703C43.7436 5.98175 43.6497 5.95427 43.5566 5.93207Z" fill="white" fill-opacity="0.3"/>
</g>
</g>
</g>
</svg>
