<svg width="50" height="50" viewBox="0 0 50 50" fill="none" xmlns="http://www.w3.org/2000/svg">
<rect width="50" height="50" fill="#BEBEBE"/>
<g id="Decorate Mode">
<path d="M-296.703 -1065.03V-1064.03H2723.3V-1065.03V-1066.03H-296.703V-1065.03ZM2725.3 -1063.03H2724.3V2474.97H2725.3H2726.3V-1063.03H2725.3ZM2723.3 2476.97V2475.97H-296.703V2476.97V2477.97H2723.3V2476.97ZM-298.703 2474.97H-297.703V-1063.03H-298.703H-299.703V2474.97H-298.703ZM-296.703 2476.97V2475.97C-297.255 2475.97 -297.703 2475.52 -297.703 2474.97H-298.703H-299.703C-299.703 2476.62 -298.36 2477.97 -296.703 2477.97V2476.97ZM2725.3 2474.97H2724.3C2724.3 2475.52 2723.85 2475.97 2723.3 2475.97V2476.97V2477.97C2724.95 2477.97 2726.3 2476.62 2726.3 2474.97H2725.3ZM2723.3 -1065.03V-1064.03C2723.85 -1064.03 2724.3 -1063.59 2724.3 -1063.03H2725.3H2726.3C2726.3 -1064.69 2724.95 -1066.03 2723.3 -1066.03V-1065.03ZM-296.703 -1065.03V-1066.03C-298.359 -1066.03 -299.703 -1064.69 -299.703 -1063.03H-298.703H-297.703C-297.703 -1063.59 -297.255 -1064.03 -296.703 -1064.03V-1065.03Z" fill="black" fill-opacity="0.1"/>
<g id="Stickers">
<rect x="-244.694" y="-192.534" width="374" height="551" rx="4.5" stroke="#9747FF" stroke-dasharray="10 5"/>
<g id="Property 1=skull">
<g id="Frame 160">
<path id="Vector" d="M24.657 10.924C26.6421 10.8384 28.6126 11.3016 30.3516 12.2628C32.7053 13.5791 34.5508 15.78 35.2783 18.3923C35.9402 20.7253 35.6348 23.2264 34.4314 25.3318C34.5637 25.4773 34.6714 25.6438 34.7495 25.8245C35.1167 26.6682 34.7871 27.7693 34.21 28.4368C33.8401 28.8645 33.4602 29.0935 32.9497 29.3088C32.4016 30.333 31.9766 31.5859 32.2278 32.7449C32.3357 33.2434 32.4531 33.6326 32.353 34.1492C32.1929 34.9771 31.6338 35.666 30.9336 36.1155C30.7456 36.241 30.3528 36.3552 30.2127 36.5337C29.6619 37.2344 29.2554 37.885 28.4773 38.3892C27.5425 38.9949 26.4451 39.2642 25.3408 39.0469C24.8689 38.9072 24.7666 39.083 24.3055 39.1213C23.655 39.1782 22.951 39.0593 22.3512 38.8298C21.2283 38.4004 20.5146 37.5234 19.8443 36.5772C19.7562 36.4526 19.4017 36.2715 19.2352 36.1843C18.3414 35.717 17.677 34.8176 17.6496 33.7905C17.6563 33.0772 17.9508 32.4497 17.8723 31.678C17.7815 30.7844 17.4647 30.1357 17.1098 29.3301C16.8774 29.2351 16.6801 29.1465 16.4698 29.0078C15.2367 28.1948 14.6829 26.5823 15.5898 25.3213C14.9566 24.2181 14.5102 22.816 14.4362 21.5453C14.3012 18.9617 15.1965 16.4301 16.9256 14.5057C18.535 12.6765 20.728 11.4606 23.1321 11.0647C23.6551 10.9789 24.1278 10.9525 24.657 10.924Z" fill="#020101"/>
<path id="Vector (Stroke)" d="M24.5897 9.36307C26.7198 9.27117 28.8354 9.73105 30.7316 10.6955L31.1076 10.8951L31.1143 10.8987V10.8993C33.7988 12.4006 35.9349 14.9249 36.7839 17.9733H36.7833C37.4721 20.4078 37.2628 22.9972 36.2138 25.2774C36.8405 26.8183 36.2145 28.508 35.3923 29.4589C34.9838 29.9313 34.5577 30.2431 34.1118 30.4837C33.8005 31.1756 33.6654 31.803 33.7346 32.297L33.7553 32.4136V32.4142C33.8307 32.7626 34.0344 33.4495 33.9152 34.2788L33.8872 34.4461C33.6297 35.7767 32.7615 36.7903 31.801 37.4142L31.8016 37.4148C31.7966 37.4182 31.7907 37.4207 31.7857 37.424C31.7829 37.4258 31.7806 37.4283 31.7778 37.4301L31.7772 37.4295C31.7066 37.4753 31.642 37.513 31.5904 37.5406C31.5321 37.5717 31.477 37.5983 31.4329 37.6193C31.3894 37.64 31.3452 37.6601 31.3133 37.6748C31.3104 37.6762 31.3075 37.6772 31.3048 37.6785C30.8774 38.2444 30.2806 39.0829 29.3272 39.7006C28.1011 40.4951 26.5956 40.8863 25.0395 40.5801L25.0236 40.5765C25.004 40.5815 24.983 40.5877 24.9614 40.5929C24.8254 40.6257 24.6532 40.6592 24.4414 40.6772L24.442 40.6778C24.441 40.6779 24.4399 40.6777 24.4389 40.6778C24.4377 40.6779 24.4365 40.6783 24.4352 40.6784L24.4346 40.6778C23.6358 40.7465 22.8175 40.6294 22.0964 40.3964L21.793 40.289C20.3038 39.7193 19.3829 38.6066 18.7108 37.6761C18.6914 37.6653 18.6708 37.6532 18.6485 37.6413C18.6005 37.6155 18.5592 37.5938 18.5112 37.5686C17.2074 36.8868 16.1333 35.5222 16.0881 33.8321L16.0869 33.804L16.0875 33.7759C16.0925 33.2437 16.2073 32.7334 16.2578 32.4661C16.3177 32.1487 16.3333 31.9852 16.3182 31.8362C16.2713 31.375 16.1446 31.0279 15.9135 30.4934C15.8156 30.4399 15.7136 30.3807 15.6096 30.3122V30.3116C14.0878 29.3079 13.0675 27.253 13.8292 25.3097C13.305 24.1735 12.9484 22.8718 12.8764 21.636V21.6317L12.8758 21.6269C12.7192 18.6302 13.7578 15.6937 15.7634 13.4616C17.6102 11.3682 20.1234 9.9767 22.8782 9.52298H22.8795C23.4977 9.42156 24.0507 9.39181 24.5732 9.36368L24.5817 9.36307H24.5897ZM24.6574 10.9237L24.2692 10.9457C23.8885 10.9692 23.5244 11.0004 23.1321 11.0647C20.7281 11.4607 18.5349 12.6767 16.9255 14.5059C15.1966 16.4302 14.3015 18.9617 14.4365 21.5451C14.5105 22.8158 14.9569 24.2181 15.59 25.3213C14.6831 26.5823 15.2371 28.1949 16.4702 29.0078C16.6804 29.1464 16.8775 29.2352 17.1098 29.3301C17.4647 30.1358 17.7819 30.7846 17.8727 31.6781C17.9512 32.4498 17.6567 33.0772 17.65 33.7906C17.6775 34.8176 18.3419 35.7171 19.2357 36.1844C19.4022 36.2716 19.7561 36.453 19.8442 36.5774L20.0987 36.9278C20.6997 37.7355 21.3689 38.4538 22.3515 38.8296C22.9513 39.0591 23.6553 39.1783 24.3059 39.1214C24.7668 39.083 24.8691 38.9073 25.341 39.0469C26.3763 39.2506 27.4057 39.0268 28.3006 38.4988L28.4776 38.389C29.2556 37.8848 29.6621 37.2341 30.2128 36.5335C30.353 36.3551 30.7457 36.2408 30.9337 36.1154C31.5901 35.694 32.1226 35.0622 32.3186 34.3026L32.3533 34.1494C32.4534 33.6329 32.3361 33.2435 32.2282 32.745C31.977 31.5861 32.4016 30.3329 32.9497 29.3088C33.4601 29.0934 33.8402 28.8643 34.21 28.4366C34.7872 27.7691 35.1168 26.668 34.7496 25.8243C34.6715 25.6437 34.5639 25.4772 34.4316 25.3317C35.6349 23.2263 35.9406 20.7249 35.2788 18.392C34.5512 15.7798 32.7056 13.5791 30.352 12.2629C28.6131 11.3017 26.6424 10.8381 24.6574 10.9237Z" fill="#E8E7E7"/>
<path id="Vector (Stroke) (Stroke)" d="M24.4799 41.5937C23.5556 41.6681 22.6272 41.5334 21.8145 41.2709C21.8064 41.2682 21.7974 41.2653 21.7894 41.2625L21.4869 41.1549C21.4797 41.1523 21.4724 41.1492 21.4653 41.1465C19.8178 40.5163 18.7895 39.3268 18.0944 38.3866C18.0916 38.3851 18.0889 38.3833 18.086 38.3818V38.383C16.547 37.5782 15.2322 35.9463 15.1707 33.8713V33.8725L15.1695 33.8438C15.1686 33.8239 15.1679 33.8039 15.1683 33.784L15.1695 33.7565C15.177 33.1262 15.3119 32.523 15.3549 32.2953C15.4119 31.9931 15.4061 31.9384 15.4051 31.9293C15.3791 31.6737 15.32 31.4675 15.1815 31.1258C15.1564 31.11 15.1293 31.096 15.1037 31.0791C15.0945 31.073 15.0864 31.0652 15.0774 31.0588C13.3959 29.9341 12.1558 27.6587 12.8473 25.3501C12.364 24.2072 12.0323 22.9292 11.96 21.6898L11.9576 21.636C11.8092 18.6121 12.7851 15.6474 14.6864 13.3085L15.0798 12.8481C17.0661 10.5993 19.7682 9.10509 22.7293 8.6174H22.7305C23.4045 8.50685 24.0048 8.47437 24.5242 8.4464V8.44759C24.533 8.44704 24.5417 8.4467 24.5505 8.4464V8.4452C26.8383 8.34656 29.1108 8.8407 31.1477 9.87656L31.162 9.88374L30.7315 10.6957C28.954 9.79163 26.9837 9.33121 24.9893 9.35281L24.59 9.36357H24.5732C24.1815 9.38466 23.7727 9.4068 23.332 9.45923L22.88 9.52261H22.8788C20.124 9.97631 17.6106 11.3683 15.7638 13.4615C13.7584 15.6935 12.7196 18.6299 12.876 21.6264V21.636C12.948 22.8716 13.305 24.1733 13.829 25.3094C13.0673 27.2527 14.0879 29.3078 15.6096 30.3114V30.3126C15.7134 30.3811 15.8155 30.4397 15.9133 30.4932C16.1444 31.0276 16.2718 31.3749 16.3187 31.8361C16.3338 31.985 16.3176 32.1489 16.2577 32.4663L16.156 33.0223C16.1205 33.2496 16.0904 33.5098 16.0879 33.7756L16.0867 33.8043L16.0879 33.8318C16.1331 35.5219 17.2079 36.8869 18.5117 37.5687C18.5595 37.5937 18.6003 37.616 18.6481 37.6416C18.6703 37.6536 18.6921 37.6655 18.7114 37.6763C19.3836 38.6067 20.304 39.7195 21.793 40.2891L22.0967 40.3967C22.8177 40.6296 23.6358 40.7464 24.4345 40.6777L24.4357 40.6789L24.4393 40.6777H24.4417C24.6534 40.6598 24.8259 40.6256 24.9618 40.5928C24.9833 40.5877 25.0045 40.5811 25.024 40.5761L25.0396 40.5797C26.4986 40.8667 27.913 40.5409 29.0945 39.8443L29.3277 39.7008C30.2807 39.0832 30.877 38.2445 31.3043 37.6787C31.3071 37.6774 31.311 37.6764 31.3139 37.6751C31.3458 37.6604 31.3901 37.6395 31.4335 37.6189C31.4773 37.598 31.5322 37.5721 31.5901 37.5412L31.7778 37.43C31.7806 37.4282 31.7834 37.4258 31.7862 37.424C31.7911 37.4208 31.7969 37.4177 31.8018 37.4144H31.8006C32.7011 36.8295 33.5212 35.9018 33.8322 34.6916L33.8872 34.4465L33.9147 34.2791C34.0338 33.4502 33.8312 32.7634 33.7557 32.4148V32.4136L33.7342 32.2976C33.665 31.8037 33.8008 31.1755 34.112 30.4836C34.5022 30.2731 34.8772 30.0081 35.2385 29.6286L35.3927 29.4588C36.2148 28.5079 36.8409 26.818 36.2142 25.2772C37.1975 23.1395 37.4426 20.73 36.9018 18.4313L36.7834 17.9733C35.9875 15.1157 34.061 12.7186 31.6116 11.1931L31.1142 10.899L31.1082 10.8954L30.7315 10.6957L31.162 9.88494L31.5387 10.0834L31.5471 10.0894L31.5542 10.093C31.5568 10.0944 31.5589 10.0964 31.5614 10.0978H31.5626C34.4401 11.707 36.746 14.4202 37.6671 17.7233L37.7963 18.2208C38.3549 20.5953 38.1382 23.0772 37.1984 25.3118C37.7555 27.1503 36.9944 29.0099 36.0875 30.0591C35.6885 30.5206 35.2687 30.8538 34.8415 31.1174C34.6584 31.5932 34.6162 31.943 34.643 32.1577L34.6561 32.2331C34.7231 32.5337 34.9704 33.3952 34.8247 34.4094C34.8237 34.4166 34.8223 34.4238 34.8211 34.4309L34.7924 34.5983C34.7912 34.6058 34.7903 34.6137 34.7888 34.6211C34.4755 36.2394 33.4341 37.4397 32.3279 38.1666C32.3224 38.1705 32.3168 38.1748 32.3112 38.1785C32.3037 38.1835 32.2963 38.1875 32.2896 38.1917C32.2936 38.1891 32.2968 38.1858 32.3004 38.1833C32.2967 38.1859 32.2924 38.1878 32.2885 38.1905L32.2896 38.1917L32.2861 38.1929C32.2846 38.1938 32.2838 38.1956 32.2825 38.1965C32.2807 38.1976 32.2783 38.1977 32.2765 38.1989C32.2739 38.2006 32.2719 38.2032 32.2693 38.2049C32.2628 38.2088 32.2573 38.2129 32.2526 38.2156C32.2497 38.2172 32.2466 38.2179 32.2442 38.2192C32.1649 38.2696 32.0901 38.3149 32.023 38.3507C31.9794 38.374 31.9374 38.3938 31.901 38.4117C31.4809 38.9714 30.824 39.8244 29.8263 40.4709C28.4765 41.3455 26.8021 41.8057 25.0467 41.5124C24.9181 41.5394 24.7684 41.5642 24.5971 41.5818L24.5959 41.583C24.5807 41.5856 24.557 41.5884 24.5278 41.5913C24.5258 41.5915 24.5237 41.5924 24.5218 41.5925H24.5182C24.516 41.5927 24.5133 41.5935 24.511 41.5937C24.5071 41.5941 24.503 41.5934 24.4991 41.5937C24.4876 41.5944 24.477 41.5959 24.468 41.5961H24.4656C24.474 41.5959 24.4836 41.5944 24.4943 41.5937C24.4895 41.594 24.4847 41.5935 24.4799 41.5937ZM24.6222 41.577C24.6211 41.5772 24.6195 41.5778 24.6175 41.5782H24.6186L24.6246 41.577H24.6222ZM24.6569 10.9241C26.6419 10.8385 28.6135 11.3022 30.3525 12.2634C32.7058 13.5797 34.5516 15.7799 35.2791 18.3918C35.941 20.7247 35.6347 23.2268 34.4313 25.3322C34.5636 25.4776 34.6713 25.6443 34.7494 25.8248C35.1163 26.6685 34.7871 27.769 34.2101 28.4364C33.8402 28.8642 33.4602 29.094 32.9497 29.3094L32.7512 29.7028C32.3062 30.6446 32.0089 31.7308 32.2287 32.7449C32.3366 33.2433 32.4531 33.6334 32.353 34.1499L32.3183 34.303C32.1223 35.0624 31.59 35.6945 30.9336 36.1158L30.7614 36.2091C30.5652 36.3024 30.3177 36.3994 30.2126 36.5331C29.6618 37.2338 29.2554 37.8849 28.4775 38.389L28.3005 38.499L27.9585 38.682C27.1479 39.0756 26.2467 39.2249 25.3409 39.0467C24.8692 38.9072 24.7662 39.0825 24.3054 39.1208C23.7362 39.1705 23.1263 39.0861 22.581 38.9104L22.3514 38.8303C21.3689 38.4545 20.6996 37.7354 20.0986 36.9277L19.8439 36.5774C19.7555 36.4529 19.4017 36.2711 19.2352 36.184C18.3419 35.7167 17.6773 34.8178 17.6496 33.7912C17.6555 33.1672 17.8823 32.6083 17.8863 31.9616L17.8732 31.6782C17.805 31.0079 17.6094 30.4752 17.3662 29.9108L17.1103 29.3297C16.936 29.2585 16.781 29.1916 16.626 29.1037L16.4705 29.008C15.3145 28.2458 14.7554 26.7809 15.4374 25.5618L15.5904 25.3214C14.9573 24.2182 14.5106 22.8158 14.4365 21.5451C14.31 19.1231 15.0891 16.7469 16.6116 14.8738L16.9261 14.5055C18.5355 12.6766 20.7285 11.4611 23.1323 11.0652C23.5245 11.0008 23.8888 10.9691 24.2695 10.9456L24.6569 10.9241ZM31.6702 38.5205C31.6648 38.5229 31.66 38.5251 31.6595 38.5253C31.6604 38.5249 31.6628 38.524 31.6654 38.5229C31.6701 38.521 31.6789 38.517 31.6894 38.5122L31.6702 38.5205ZM24.7083 11.8401L24.3245 11.8616L24.3257 11.8628C23.959 11.8854 23.6291 11.9144 23.2806 11.9716L23.2794 11.9704C21.0853 12.3322 19.0838 13.4434 17.6149 15.1129L17.6089 15.1201C16.0439 16.862 15.2331 19.1528 15.3537 21.4913L15.3931 21.917C15.521 22.9204 15.8893 23.9977 16.3868 24.8646C16.5659 25.1769 16.5455 25.5648 16.3354 25.8571C15.8145 26.5814 16.0531 27.6328 16.9764 28.2415H16.9752C17.1102 28.3305 17.2426 28.3919 17.4571 28.4795C17.6774 28.5695 17.855 28.7423 17.9509 28.9602C18.2885 29.7265 18.6782 30.5179 18.7868 31.585C18.8401 32.1099 18.7633 32.5695 18.6959 32.9266C18.6252 33.3012 18.5744 33.5312 18.5691 33.7756C18.5902 34.4096 19.0127 35.0313 19.6621 35.3708C19.7378 35.4104 19.893 35.4912 20.04 35.5789C20.1138 35.623 20.201 35.6774 20.2839 35.7391C20.3489 35.7876 20.4791 35.8898 20.5864 36.0381H20.5876L20.8423 36.3884H20.8411C21.4076 37.1484 21.9468 37.6915 22.6791 37.9717H22.6803C23.1672 38.1579 23.7319 38.2493 24.2264 38.2061H24.23C24.3822 38.1934 24.3497 38.1799 24.6222 38.12C24.8889 38.0613 25.1665 38.0554 25.5167 38.1463H25.5179C26.3035 38.3008 27.1042 38.1364 27.8293 37.7098L27.986 37.6117C28.5924 37.2162 28.8751 36.749 29.4903 35.9663L29.5884 35.8551C29.6882 35.7543 29.7907 35.6828 29.8658 35.6351C29.9716 35.5679 30.0785 35.5144 30.1587 35.4761C30.2003 35.4562 30.2418 35.4368 30.2759 35.4211C30.3121 35.4044 30.3405 35.3917 30.3668 35.3792C30.4263 35.3509 30.4356 35.3441 30.4242 35.3517L30.4374 35.3421C30.9397 35.0196 31.2963 34.569 31.4251 34.0854L31.4538 33.961C31.5055 33.6802 31.4526 33.5031 31.3306 32.9398C31.0092 31.4571 31.5596 29.9602 32.1402 28.8753L32.2251 28.7438C32.3209 28.6208 32.4481 28.524 32.5934 28.4627C33.0201 28.2827 33.266 28.1244 33.5153 27.8361C33.9405 27.3445 34.0912 26.6128 33.9076 26.1907L33.9064 26.1884C33.8685 26.1011 33.8164 26.0199 33.7521 25.9492C33.4846 25.6547 33.4376 25.222 33.6349 24.8766C34.7158 22.9855 34.9898 20.7382 34.3954 18.6429L34.3942 18.6381C33.7384 16.2839 32.0649 14.2747 29.9076 13.0669L29.6075 12.9067C28.0949 12.1373 26.4074 11.7687 24.7083 11.8401ZM32.2837 38.1965L32.2861 38.1929C32.2849 38.1936 32.2848 38.1958 32.2837 38.1965Z" fill="#020101"/>
<path id="Vector_2" d="M25.0177 11.7896C27.7352 11.799 30.204 12.7634 32.129 14.7014C33.8085 16.3678 34.753 18.6361 34.7521 21.0021C34.7435 22.1959 34.3912 23.5347 33.8131 24.585C32.7982 23.0688 32.7843 20.7384 33.3263 19.0334C32.0504 20.6595 31.9152 23.1922 32.9911 24.9551C33.4327 25.679 34.204 25.9605 33.9957 26.9673C33.9303 27.2761 33.797 27.5669 33.6053 27.8181C32.4464 29.322 30.7147 27.8753 29.5853 29.2075C29.1263 29.7488 29.1801 30.6419 29.2533 31.3047C28.8961 31.3399 28.7172 31.3682 28.4742 31.6636L28.4257 31.7229C27.9955 31.5379 27.7064 31.6436 27.4484 32.0264C26.9818 31.7339 26.6288 31.7861 26.2653 32.2044C25.8751 31.8789 25.3915 31.855 25.0345 32.249L25.0121 32.2654L24.9384 32.2044C24.4977 31.8379 24.1773 31.8552 23.7494 32.2332C23.4108 31.7796 23.0709 31.762 22.6066 32.0215C22.3386 31.6809 22.0429 31.5457 21.6213 31.7007C21.3419 31.3911 21.211 31.3364 20.7971 31.3137C20.8389 30.6189 20.9076 29.7893 20.4405 29.2175C19.3358 27.865 17.5639 29.3367 16.3993 27.7837C16.2123 27.5357 16.0848 27.2478 16.0268 26.9426C15.8472 25.95 16.5914 25.7009 17.032 24.9556C17.4057 24.3236 17.616 23.6564 17.7192 22.9337C17.9097 21.5451 17.5445 20.1374 16.7031 19.0165C17.2585 20.6939 17.2326 23.102 16.2284 24.6072C15.6383 23.6622 15.3009 22.1953 15.2837 21.0958C15.2457 18.6648 16.3182 16.3225 18.0183 14.6091C19.9384 12.6739 22.329 11.8202 25.0177 11.7896Z" fill="#8FB7B3"/>
<path id="Vector_3" d="M16.2284 24.6072C15.6383 23.6622 15.3009 22.1953 15.2837 21.0958C15.2457 18.6648 16.3182 16.3225 18.0183 14.6091C19.9384 12.6739 22.329 11.8202 25.0177 11.7896L25.0262 20.6096L25.0245 23.9002C25.0243 24.5159 25.0116 25.1904 25.0328 25.801C24.6952 25.8308 24.493 25.9431 24.2705 26.2197C23.6728 26.9824 23.2007 28.0012 23.2492 28.9883C23.2594 29.1973 23.3513 29.5105 23.512 29.6333C23.9119 29.9387 24.5287 29.6182 24.7697 29.2449C24.8409 29.1343 24.9027 29.0401 24.9669 28.9295C25.0934 29.1353 24.9877 31.7786 25.0345 32.249L25.0121 32.2654L24.9384 32.2044C24.4977 31.8379 24.1773 31.8552 23.7494 32.2332C23.4108 31.7796 23.0709 31.762 22.6066 32.0215C22.3386 31.6809 22.0429 31.5457 21.6213 31.7007C21.3419 31.3911 21.211 31.3364 20.7971 31.3137C20.8389 30.6189 20.9076 29.7893 20.4405 29.2175C19.3358 27.865 17.5639 29.3367 16.3993 27.7837C16.2123 27.5357 16.0848 27.2478 16.0268 26.9426C15.8472 25.95 16.5914 25.7009 17.032 24.9556C17.4057 24.3236 17.616 23.6564 17.7192 22.9337C17.9097 21.5451 17.5445 20.1374 16.7031 19.0165C17.2585 20.6939 17.2326 23.102 16.2284 24.6072Z" fill="#E8E7E7"/>
<path id="Vector_4" d="M20.9155 21.8121C22.2393 21.6848 23.4979 22.5458 23.6869 23.8953C23.9282 25.6174 22.6112 26.9709 20.9697 27.2205C20.9382 27.2261 20.9066 27.2307 20.8748 27.2341C20.7376 27.2505 20.5809 27.2532 20.4434 27.2458C17.7071 27.0998 17.3162 23.5983 19.4442 22.2782C19.9393 21.971 20.3373 21.8628 20.9155 21.8121Z" fill="#020101"/>
<path id="Vector_5" d="M25.0327 25.801C25.4409 25.8608 25.6577 26.0515 25.8933 26.386C26.424 27.1394 26.8542 28.1353 26.7776 29.0745C26.6855 30.053 25.5456 29.8105 25.1899 29.1536C25.1528 29.0847 25.0527 28.9202 24.999 28.8782C24.9856 28.8967 24.9724 28.9097 24.9668 28.9294C24.9025 29.04 24.8408 29.1343 24.7695 29.2449C24.5285 29.6182 23.9118 29.9387 23.5118 29.6333C23.3512 29.5105 23.2593 29.1973 23.249 28.9883C23.2005 28.0012 23.6726 26.9824 24.2704 26.2197C24.4929 25.9431 24.695 25.8308 25.0327 25.801Z" fill="#020101"/>
<path id="Vector_6" d="M28.6942 21.8116C29.4515 21.7489 30.2054 21.9676 30.8119 22.4258C31.4312 22.8901 31.8375 23.5848 31.9378 24.3525C32.1273 25.8484 31.1307 27.0632 29.6466 27.2441C28.7977 27.2605 28.0819 27.0715 27.4139 26.5263C26.8011 26.0317 26.4129 25.3115 26.337 24.5276C26.1912 23.0101 27.2191 21.9518 28.6942 21.8116Z" fill="#020101"/>
<path id="Vector_7" d="M18.1519 29.4653C18.4884 29.4822 18.7344 29.48 19.0677 29.4661C19.0805 29.9167 19.1168 30.3662 19.1765 30.813C19.3454 32.0979 19.7055 33.4988 20.7643 34.3831C20.9329 34.5237 21.1929 34.6614 21.4194 34.6289C21.7195 35.0022 21.9962 35.1919 22.4917 35.0735C22.8216 35.4443 23.188 35.6064 23.6598 35.3762C24.0526 35.7683 24.5437 35.8308 24.9856 35.4924L25.0168 35.5146C25.0364 36.249 25.0224 36.9902 25.0312 37.7251C25.032 37.7976 25.0398 37.9841 25.0251 38.0461C24.2196 38.3704 23.3488 38.2773 22.5612 37.9453C21.9583 37.6858 21.4389 37.2644 21.0603 36.728C20.9266 36.5427 20.6524 36.1313 20.5053 35.9822C20.0198 35.4895 19.3949 35.4248 18.9304 34.8264C18.3826 34.1658 18.5032 33.5952 18.6833 32.8145C18.9528 31.6465 18.5897 30.5452 18.1519 29.4653Z" fill="#E8E7E7"/>
<path id="Vector_8" d="M30.9797 29.468C31.282 29.4731 31.5845 29.4736 31.8867 29.4695C31.4629 30.4875 31.0886 31.5786 31.3196 32.7004C31.4907 33.533 31.6936 34.0969 31.1038 34.8193C30.7087 35.3713 30.0186 35.5088 29.5735 35.9736C29.3604 36.1963 29.165 36.502 28.9739 36.7512C28.0339 37.9775 26.5173 38.5571 25.0249 38.0461C25.0396 37.9841 25.0317 37.7976 25.031 37.7251C25.0222 36.9902 25.0361 36.249 25.0166 35.5146C25.4199 35.8611 25.999 35.7498 26.3447 35.3743C26.7974 35.6201 27.2293 35.4329 27.5493 35.0725C27.9937 35.1855 28.3081 35.03 28.5742 34.6609C28.9949 34.5991 29.1802 34.4915 29.4778 34.1929C30.7927 32.8738 30.8015 31.1663 30.9797 29.468Z" fill="#8FB7B3"/>
<path id="Vector_9" d="M25.5605 32.4448C26.1465 32.3958 26.0727 33.1785 26.0732 33.5798L25.7385 33.6099L25.2446 33.6309C25.2468 33.199 25.1902 32.74 25.5605 32.4448Z" fill="#8FB7B3"/>
<path id="Vector_10" d="M24.2278 32.4468C24.6801 32.4285 24.7006 32.8633 24.755 33.2175C24.7745 33.3452 24.7772 33.4922 24.7355 33.6152C24.6725 33.6514 24.5961 33.6314 24.5187 33.6235C24.3102 33.6126 24.165 33.5935 23.9608 33.5574C23.9544 33.3862 23.9573 33.2151 23.9694 33.0442C23.9871 32.7869 24.0334 32.6155 24.2278 32.4468Z" fill="#E8E7E7"/>
<path id="Vector_11" d="M25.7932 34.1941C25.8774 34.185 25.9849 34.1601 26.0479 34.2158C26.1072 34.4819 26.0637 34.9773 25.8257 35.1526C25.7227 35.2283 25.6145 35.2077 25.4976 35.1889C25.2161 34.9712 25.2571 34.5334 25.2505 34.2065C25.4316 34.2058 25.6125 34.2016 25.7932 34.1941Z" fill="#8FB7B3"/>
<path id="Vector_12" d="M23.9551 34.1572C24.2261 34.1924 24.4741 34.2105 24.746 34.2297C24.7387 34.5544 24.7546 34.7708 24.6303 35.074C24.5649 35.1428 24.4768 35.2019 24.3825 35.2073C23.9575 35.231 23.9564 34.3914 23.9551 34.1572Z" fill="#E8E7E7"/>
<path id="Vector_13" d="M26.828 32.3466C26.8473 32.3454 26.8668 32.3444 26.8861 32.3437C27.3045 32.3318 27.2533 33.0437 27.2601 33.3357C27.1602 33.3652 27.054 33.3913 26.953 33.4182C26.8287 33.4485 26.7171 33.4653 26.5914 33.4856C26.5826 33.0935 26.512 32.6298 26.828 32.3466Z" fill="#8FB7B3"/>
<path id="Vector_14" d="M23.022 32.3398C23.3813 32.3718 23.3995 32.7341 23.4395 33.0303C23.4565 33.156 23.4596 33.3308 23.4132 33.449C23.3323 33.4788 23.2999 33.4556 23.1994 33.4387C23.0356 33.4019 22.9444 33.3762 22.7858 33.321C22.7608 32.9636 22.7437 32.5955 23.022 32.3398Z" fill="#E8E7E7"/>
<path id="Vector_15" d="M27.1705 33.9397C27.1852 33.9365 27.2135 33.9392 27.2298 33.9399C27.3121 34.1238 27.2276 34.7392 27.0506 34.8723C26.9264 34.9658 26.858 34.9785 26.7103 34.9783C26.5638 34.8091 26.5953 34.31 26.5921 34.0703C26.8082 34.0347 26.9576 33.9968 27.1705 33.9397Z" fill="#8FB7B3"/>
<path id="Vector_16" d="M22.7842 33.9099C22.9956 33.9658 23.2074 34.02 23.4196 34.073C23.4276 34.3225 23.4531 34.6836 23.3787 34.9141C22.8053 35.1689 22.779 34.2471 22.7842 33.9099Z" fill="#E8E7E7"/>
<path id="Vector_17" d="M27.979 32.1252C28.0481 32.1316 28.1238 32.125 28.1682 32.1833C28.281 32.332 28.2629 32.7866 28.27 32.9856C28.1602 33.0303 28.0464 33.0725 27.9353 33.1155L27.7405 33.1787C27.7334 32.8091 27.6655 32.3733 27.979 32.1252Z" fill="#8FB7B3"/>
<path id="Vector_18" d="M21.8988 32.114C22.3202 32.1638 22.357 32.8604 22.278 33.1616L22.2327 33.1646C22.0442 33.1069 21.9543 33.0737 21.775 32.9924C21.7738 32.7119 21.7441 32.3457 21.8988 32.114Z" fill="#E8E7E7"/>
<path id="Vector_19" d="M21.7569 33.5647C21.9197 33.6423 22.1197 33.7136 22.2905 33.7793C22.2944 34.0583 22.2993 34.3201 22.2862 34.5991C21.6964 34.5925 21.7508 33.9937 21.7569 33.5647Z" fill="#E8E7E7"/>
<path id="Vector_20" d="M28.2435 33.5718L28.2643 33.5962C28.3138 34.0222 28.3175 34.5347 27.794 34.6111C27.723 34.4812 27.7506 33.9387 27.7523 33.7625C27.9508 33.7097 28.0643 33.6675 28.2435 33.5718Z" fill="#8FB7B3"/>
<path id="Vector_21" d="M20.944 31.8245C21.2179 31.897 21.2619 32.0393 21.3027 32.3186C21.3164 32.4124 21.3148 32.7095 21.2703 32.7886L21.2155 32.7915C21.1552 32.7632 21.0714 32.7266 21.0175 32.6892C20.7397 32.4963 20.7715 32.0647 20.944 31.8245Z" fill="#E8E7E7"/>
<path id="Vector_22" d="M28.9651 31.8308L29.0525 31.8293C29.2578 31.9224 29.2171 32.2673 29.179 32.4463C29.1467 32.5972 29.082 32.6365 28.9568 32.7168C28.8845 32.7512 28.8364 32.7859 28.76 32.7732C28.6577 32.6191 28.7395 32.2676 28.7769 32.0898C28.8015 31.9731 28.8755 31.9031 28.9651 31.8308Z" fill="#8FB7B3"/>
<path id="Vector_23" d="M29.1645 33.1533L29.194 33.1821C29.2519 33.5496 29.1332 33.9663 28.7753 34.1321C28.7211 33.9924 28.7345 33.5283 28.734 33.3542C28.8832 33.2961 29.0212 33.2244 29.1645 33.1533Z" fill="#8FB7B3"/>
<path id="Vector_24" d="M20.8203 33.1511C20.9918 33.2227 21.1263 33.2859 21.2926 33.3696C21.2902 33.6116 21.2866 33.8538 21.2817 34.0957C20.8434 34.0366 20.8255 33.4944 20.8203 33.1511Z" fill="#E8E7E7"/>
</g>
<path id="Union" d="M24.5508 8.44568C26.8384 8.34707 29.1107 8.84062 31.1475 9.87634L31.1621 9.88416L30.7314 10.6957L31.1074 10.8949L31.1143 10.8988V10.8998V10.8988L31.1084 10.8949L30.7314 10.6957L31.1621 9.88513L31.5391 10.0834L31.5469 10.0892L31.5547 10.0931C31.5571 10.0945 31.5591 10.0967 31.5615 10.098H31.5625C34.4399 11.7072 36.7458 14.42 37.667 17.723L37.7959 18.2211C38.3545 20.5956 38.1381 23.0773 37.1982 25.3119C37.7554 27.1502 36.9948 29.0097 36.0879 30.059C35.6889 30.5204 35.269 30.854 34.8418 31.1176C34.6588 31.5932 34.6159 31.9429 34.6426 32.1576L34.6562 32.2328C34.7232 32.5334 34.9709 33.3953 34.8252 34.4095C34.8242 34.4167 34.8225 34.4239 34.8213 34.431L34.793 34.598C34.7917 34.6054 34.7905 34.6141 34.7891 34.6215C34.4757 36.2395 33.4341 37.4396 32.3281 38.1664C32.3227 38.1702 32.317 38.1744 32.3115 38.1781C32.3042 38.183 32.2966 38.1876 32.29 38.1918C32.2939 38.1892 32.2972 38.1854 32.3008 38.183C32.2971 38.1855 32.2921 38.1881 32.2881 38.1908L32.29 38.1918L32.2861 38.1927C32.2847 38.1936 32.2836 38.1958 32.2822 38.1967C32.2805 38.1976 32.278 38.1975 32.2764 38.1986C32.2739 38.2002 32.272 38.2028 32.2695 38.2045C32.2631 38.2083 32.2576 38.2125 32.2529 38.2152C32.2501 38.2168 32.2465 38.2178 32.2441 38.2191C32.1649 38.2694 32.0905 38.3151 32.0234 38.351C31.98 38.3742 31.9377 38.3936 31.9014 38.4115C31.4813 38.9711 30.8239 39.8246 29.8262 40.4711C28.4764 41.3456 26.8021 41.8053 25.0469 41.5121C24.9183 41.5391 24.7687 41.5638 24.5977 41.5814L24.5957 41.5834C24.5806 41.586 24.5571 41.5883 24.5283 41.5912C24.5264 41.5914 24.5234 41.592 24.5215 41.5922H24.5186C24.5163 41.5924 24.513 41.5939 24.5107 41.5941C24.5069 41.5944 24.5029 41.5938 24.499 41.5941C24.4876 41.5948 24.4767 41.5958 24.4678 41.5961H24.4658C24.4741 41.5958 24.4837 41.5948 24.4941 41.5941C24.4896 41.5944 24.485 41.5939 24.4805 41.5941C23.5562 41.6685 22.6271 41.5334 21.8145 41.2709C21.8064 41.2683 21.7971 41.2649 21.7891 41.2621L21.4873 41.1547C21.4803 41.1522 21.4728 41.1495 21.4658 41.1469C19.8185 40.5168 18.7898 39.3272 18.0947 38.3871C18.0919 38.3856 18.0888 38.3837 18.0859 38.3822V38.3832C16.547 37.5783 15.2324 35.9463 15.1709 33.8715V33.8724L15.1699 33.8441C15.1691 33.8242 15.1675 33.8035 15.168 33.7836L15.1699 33.7562C15.1774 33.1262 15.3115 32.5231 15.3545 32.2953C15.4115 31.9931 15.4062 31.9382 15.4053 31.9291C15.3793 31.6735 15.3201 31.467 15.1816 31.1254C15.1566 31.1096 15.1291 31.0963 15.1035 31.0795C15.0943 31.0734 15.0861 31.0654 15.0771 31.059C13.3957 29.9342 12.1562 27.6585 12.8477 25.35C12.3643 24.2071 12.0323 22.9292 11.96 21.6898L11.958 21.6361C11.8096 18.6124 12.7854 15.6478 14.6865 13.309L15.0801 12.848C17.0664 10.5993 19.7684 9.10524 22.7295 8.61755H22.7305C23.4044 8.507 24.005 8.47462 24.5244 8.44666V8.44763C24.5331 8.44708 24.542 8.44695 24.5508 8.44666V8.44568ZM24.6172 41.5785H24.6191L24.625 41.5765H24.6221C24.6209 41.5768 24.6191 41.5781 24.6172 41.5785ZM26.0596 40.682C26.0873 40.6822 26.1149 40.6832 26.1426 40.683C26.1149 40.6832 26.0873 40.6822 26.0596 40.682ZM26.3086 40.6791C26.3468 40.6777 26.3848 40.6764 26.4229 40.6742C26.3848 40.6764 26.3468 40.6777 26.3086 40.6791ZM25.7275 40.6693C25.7739 40.6725 25.82 40.6761 25.8662 40.6781C25.82 40.6761 25.7739 40.6725 25.7275 40.6693ZM24.7295 40.641H24.7305H24.7295ZM25.4189 40.639C25.4829 40.6471 25.5466 40.6548 25.6104 40.6605C25.5466 40.6548 25.4829 40.6471 25.4189 40.639ZM26.5957 40.6605C26.6247 40.6579 26.6537 40.6557 26.6826 40.6527C26.6537 40.6557 26.6247 40.6579 26.5957 40.6605ZM26.8613 40.6302C26.8923 40.626 26.9232 40.6213 26.9541 40.6166C26.9232 40.6213 26.8923 40.626 26.8613 40.6302ZM25.2686 40.6185C25.2845 40.621 25.3004 40.624 25.3164 40.6263C25.3004 40.624 25.2845 40.621 25.2686 40.6185ZM27.127 40.5873C27.1566 40.5818 27.1863 40.5767 27.2158 40.5707C27.1863 40.5767 27.1566 40.5818 27.127 40.5873ZM27.3701 40.5375C27.4153 40.527 27.46 40.5148 27.5049 40.5033C27.46 40.5148 27.4153 40.527 27.3701 40.5375ZM22.3711 40.4789V40.4779V40.4789ZM27.6357 40.4691C27.6724 40.4588 27.7087 40.4479 27.7451 40.4369C27.7087 40.4479 27.6724 40.4588 27.6357 40.4691ZM27.8867 40.392C27.9243 40.3796 27.9617 40.367 27.999 40.3539C27.9617 40.367 27.9243 40.3796 27.8867 40.392ZM28.1484 40.3002C28.1779 40.2889 28.207 40.2767 28.2363 40.265C28.207 40.2767 28.1779 40.2889 28.1484 40.3002ZM28.3887 40.2025C28.4208 40.1887 28.4525 40.1739 28.4844 40.1595C28.4525 40.1739 28.4208 40.1887 28.3887 40.2025ZM20.5537 39.6185C20.6267 39.671 20.7016 39.722 20.7783 39.7719C20.625 39.6723 20.4795 39.5669 20.3408 39.4574L20.5537 39.6185ZM29.3271 39.7006H29.3281H29.3271ZM30.2588 38.9388H30.2598H30.2588ZM24.4629 39.101H24.4639H24.4629ZM25.7705 39.1068C25.8318 39.112 25.893 39.1152 25.9541 39.1176C25.893 39.1152 25.8318 39.112 25.7705 39.1068ZM26.4365 39.1058C26.4668 39.1033 26.4971 39.1012 26.5273 39.098C26.4971 39.1012 26.4668 39.1033 26.4365 39.1058ZM26.7129 39.0726C26.6937 39.0756 26.6745 39.0788 26.6553 39.0814C26.6745 39.0788 26.6937 39.0756 26.7129 39.0726ZM26.792 39.0609C26.8416 39.0523 26.8911 39.043 26.9404 39.0326C26.8911 39.043 26.8416 39.0523 26.792 39.0609ZM19.3779 38.5228C19.523 38.6901 19.677 38.8572 19.8438 39.0189C19.6769 38.8572 19.523 38.69 19.3779 38.5228ZM27.377 38.9154C27.425 38.8998 27.4729 38.8838 27.5205 38.8666C27.4729 38.8838 27.425 38.8998 27.377 38.9154ZM27.8809 38.7172C27.8134 38.7484 27.7454 38.7782 27.6768 38.806C27.6595 38.813 27.6423 38.8198 27.625 38.8265C27.6064 38.8338 27.5881 38.842 27.5693 38.849C27.6746 38.8094 27.7782 38.7647 27.8809 38.7172ZM28.2568 38.5228C28.1589 38.5793 28.0599 38.633 27.959 38.682C28.0661 38.63 28.1716 38.5735 28.2754 38.5131L28.2568 38.5228ZM21.3652 38.2758C21.3638 38.2746 21.3628 38.273 21.3613 38.2719C21.3628 38.273 21.3638 38.2746 21.3652 38.2758ZM31.3135 37.6752C31.3106 37.6765 31.3074 37.6768 31.3047 37.6781C31.1979 37.8195 31.0801 37.9781 30.9492 38.1459C31.08 37.9782 31.1979 37.8204 31.3047 37.6791C31.3074 37.6778 31.3116 37.6765 31.3145 37.6752C31.3404 37.6632 31.3742 37.6468 31.4092 37.6302C31.3737 37.6469 31.3396 37.6631 31.3135 37.6752ZM28.999 37.9847C28.978 38.004 28.9552 38.0214 28.9336 38.0404C28.9554 38.0213 28.9788 38.0042 29 37.9847H28.999ZM18.6484 37.642C18.6621 37.6493 18.6757 37.6564 18.6885 37.6635C18.6758 37.6562 18.6623 37.6485 18.6484 37.641C18.6007 37.6153 18.5595 37.5937 18.5117 37.5687L18.6484 37.642ZM31.5908 37.5404L31.5898 37.5414L31.7783 37.4301L31.7773 37.4291C31.7069 37.4748 31.6423 37.5129 31.5908 37.5404ZM31.9795 37.2924L31.8008 37.4144C31.9139 37.341 32.0251 37.2613 32.1348 37.1771C32.0833 37.2166 32.0318 37.2552 31.9795 37.2924ZM29.8184 37.0482C29.7726 37.1082 29.7265 37.1672 29.6807 37.226C29.8547 37.0033 30.0258 36.7716 30.2129 36.5336L29.8184 37.0482ZM32.4033 36.9554C32.4261 36.9354 32.4491 36.9154 32.4717 36.8949C32.4491 36.9155 32.4261 36.9354 32.4033 36.9554ZM32.5332 36.8373C32.5716 36.8011 32.61 36.7646 32.6475 36.7269C32.61 36.7646 32.5716 36.8011 32.5332 36.8373ZM32.6973 36.6752C32.7222 36.6494 32.747 36.6234 32.7715 36.597C32.747 36.6235 32.7222 36.6494 32.6973 36.6752ZM32.8809 36.476C32.8989 36.4552 32.9159 36.4336 32.9336 36.4125C32.9159 36.4336 32.8989 36.4552 32.8809 36.476ZM32.9912 36.3431C33.0266 36.2992 33.0617 36.2548 33.0957 36.2094C33.0617 36.2548 33.0266 36.2992 32.9912 36.3431ZM33.1221 36.1732C33.1546 36.1289 33.1867 36.0842 33.2178 36.0385C33.1867 36.0842 33.1546 36.1289 33.1221 36.1732ZM33.2607 35.973C33.2867 35.9334 33.3121 35.8935 33.3369 35.8529C33.3121 35.8935 33.2867 35.9334 33.2607 35.973ZM33.3809 35.7797C33.4127 35.7252 33.443 35.6698 33.4727 35.6136C33.443 35.6698 33.4127 35.7252 33.3809 35.7797ZM33.4893 35.5824C33.5167 35.5294 33.543 35.4757 33.5684 35.4213C33.543 35.4757 33.5167 35.5294 33.4893 35.5824ZM33.5938 35.3676C33.6189 35.3116 33.6431 35.2551 33.666 35.1976C33.6431 35.2551 33.6189 35.3116 33.5938 35.3676ZM33.8877 34.4457C33.8405 34.6895 33.7715 34.9228 33.6865 35.1449C33.7426 34.9985 33.792 34.8477 33.832 34.6918L33.8877 34.4467V34.4457ZM31.9795 35.0775C31.9718 35.0897 31.9639 35.1016 31.9561 35.1136C31.9639 35.1016 31.9718 35.0897 31.9795 35.0775ZM32.1738 34.7162C32.1723 34.7196 32.1695 34.7225 32.168 34.726C32.1608 34.7419 32.154 34.758 32.1465 34.7738C32.1349 34.7983 32.1236 34.8229 32.1113 34.847C32.1332 34.804 32.1542 34.7604 32.1738 34.7162ZM32.3184 34.3031C32.2939 34.3979 32.2641 34.4907 32.2295 34.5814C32.2641 34.4907 32.2939 34.3979 32.3184 34.3031ZM32.3691 33.4408C32.3842 33.5529 32.3921 33.6657 32.3906 33.7826C32.3899 33.841 32.387 33.9004 32.3809 33.9613C32.387 33.9004 32.3909 33.841 32.3916 33.7826C32.393 33.6656 32.3843 33.5529 32.3691 33.4408ZM33.8359 32.7699C33.8614 32.888 33.8875 33.0209 33.9082 33.1664L33.8711 32.9388C33.86 32.8796 33.8474 32.8233 33.8359 32.7699ZM32.168 32.3353C32.1702 32.3618 32.1739 32.3881 32.1768 32.4144C32.1739 32.388 32.1702 32.3618 32.168 32.3353ZM32.1709 31.6888C32.1673 31.7302 32.1635 31.7715 32.1611 31.8129C32.1635 31.7715 32.1673 31.7302 32.1709 31.6888ZM32.2344 31.2318C32.2229 31.2916 32.2122 31.3515 32.2031 31.4115C32.2122 31.3515 32.2229 31.2916 32.2344 31.2318ZM15.9141 30.4935H15.9131H15.9141ZM34.3584 30.3392C34.3805 30.3256 34.4028 30.3123 34.4248 30.2982C34.4028 30.3123 34.3805 30.3256 34.3584 30.3392ZM34.6543 30.141C34.681 30.1214 34.7078 30.1018 34.7344 30.0814C34.7078 30.1018 34.681 30.1214 34.6543 30.141ZM34.793 30.0345C34.8331 30.0026 34.8733 29.97 34.9131 29.9359C34.8733 29.97 34.8331 30.0026 34.793 30.0345ZM34.9375 29.9154C34.9773 29.8807 35.0171 29.845 35.0566 29.808C35.0171 29.845 34.9773 29.8807 34.9375 29.9154ZM35.0889 29.7777C35.1389 29.7299 35.1888 29.6803 35.2383 29.6283C35.1888 29.6803 35.1389 29.7299 35.0889 29.7777ZM36.1787 28.1244H36.1797H36.1787ZM36.4053 27.3109C36.3886 27.4047 36.3693 27.4976 36.3467 27.5892L36.4062 27.3109C36.423 27.2171 36.436 27.1222 36.4463 27.0267L36.4053 27.3109ZM13.5713 26.5883L13.5723 26.5892L13.5713 26.5883ZM36.2139 25.2767C36.279 25.1351 36.3398 24.9919 36.3984 24.848C36.3398 24.9919 36.279 25.1351 36.2139 25.2767ZM36.4492 24.7162C36.4893 24.6139 36.5296 24.5119 36.5664 24.4086C36.5296 24.5119 36.4893 24.6139 36.4492 24.7162ZM36.6006 24.307C36.6369 24.2018 36.6731 24.0967 36.7061 23.9906C36.6731 24.0967 36.6369 24.2018 36.6006 24.307ZM13.0928 23.1312C13.1562 23.4143 13.23 23.6964 13.3164 23.974L13.1836 23.5101C13.1505 23.3844 13.1211 23.2578 13.0928 23.1312ZM36.7412 23.8685C36.7721 23.7646 36.8024 23.6607 36.8301 23.556C36.8024 23.6607 36.7721 23.7646 36.7412 23.8685ZM36.8691 23.3998C36.8923 23.3062 36.9149 23.2126 36.9355 23.1185C36.9149 23.2126 36.8923 23.3062 36.8691 23.3998ZM12.876 21.6361H12.877V21.6322L12.876 21.6273V21.6361ZM36.9688 22.9574C36.9874 22.8657 37.0063 22.7741 37.0225 22.682C37.0063 22.7741 36.9874 22.8657 36.9688 22.9574ZM37.0537 22.4886C37.0673 22.4019 37.0794 22.315 37.0908 22.2279C37.0794 22.315 37.0673 22.4019 37.0537 22.4886ZM37.1123 22.056C37.1226 21.9656 37.1316 21.8752 37.1396 21.7845C37.1316 21.8752 37.1226 21.9657 37.1123 22.056ZM37.1562 21.5765C37.1614 21.5011 37.1654 21.4256 37.1689 21.35C37.1654 21.4256 37.1614 21.5011 37.1562 21.5765ZM37.1777 21.14C37.18 21.0554 37.1804 20.9708 37.1807 20.8861C37.1804 20.9708 37.18 21.0554 37.1777 21.14ZM37.1797 20.6683C37.1785 20.5977 37.1755 20.5271 37.1729 20.4564C37.1755 20.5271 37.1785 20.5977 37.1797 20.6683ZM37.1631 20.2289C37.1587 20.1543 37.1525 20.0798 37.1465 20.0052C37.1525 20.0798 37.1587 20.1543 37.1631 20.2289ZM37.125 19.7543C37.1139 19.6477 37.1003 19.5413 37.0859 19.4349C37.1003 19.5413 37.1139 19.6477 37.125 19.7543ZM37.0732 19.3402C37.0523 19.1954 37.029 19.0508 37.002 18.9066C37.029 19.0508 37.0523 19.1954 37.0732 19.3402ZM36.4502 16.9691C36.4405 16.944 36.4308 16.9189 36.4209 16.8939C36.4308 16.9189 36.4405 16.944 36.4502 16.9691ZM35.998 15.9525C35.9872 15.9309 35.9759 15.9096 35.9648 15.8881C35.9759 15.9096 35.9871 15.9309 35.998 15.9525ZM35.8281 15.6351C35.7788 15.5446 35.7304 15.4537 35.6787 15.3646C35.7304 15.4537 35.7788 15.5446 35.8281 15.6351ZM35.5264 15.1127C35.4794 15.0364 35.4325 14.9602 35.3838 14.8851C35.4325 14.9602 35.4794 15.0364 35.5264 15.1127ZM32.8262 14.1693C33.0039 14.3531 33.1742 14.5436 33.3379 14.7396C33.1742 14.5435 33.0039 14.3531 32.8262 14.1693ZM35.2266 14.6508C35.1737 14.5733 35.1201 14.4964 35.0654 14.4203C35.1201 14.4964 35.1737 14.5733 35.2266 14.6508ZM34.8994 14.1957C34.8444 14.1228 34.789 14.0504 34.7324 13.9789C34.7891 14.0504 34.8444 14.1228 34.8994 14.1957ZM34.54 13.7416C34.482 13.6721 34.4228 13.6037 34.3633 13.5355C34.4228 13.6037 34.482 13.6721 34.54 13.7416ZM34.1846 13.3344C34.1185 13.2621 34.0511 13.1911 33.9834 13.1205C34.0511 13.1911 34.1185 13.2621 34.1846 13.3344ZM33.8018 12.933C33.7262 12.8575 33.6488 12.7838 33.5713 12.7103C33.6488 12.7838 33.7262 12.8575 33.8018 12.933ZM33.3789 12.5297C33.3104 12.4675 33.2398 12.4077 33.1699 12.347C33.2398 12.4077 33.3104 12.4675 33.3789 12.5297ZM30.0234 12.0883C30.0753 12.1147 30.1262 12.143 30.1777 12.1703C30.236 12.2011 30.2948 12.2311 30.3525 12.2631L30.0234 12.0883ZM32.9766 12.1791C32.8725 12.0925 32.766 12.0092 32.6592 11.9261C32.766 12.0092 32.8725 12.0925 32.9766 12.1791ZM32.5352 11.8295C32.4478 11.7633 32.3586 11.6999 32.2695 11.6361C32.3586 11.6999 32.4478 11.7633 32.5352 11.8295ZM28.3086 11.3939H28.3096H28.3086ZM25.7705 10.933C25.8938 10.9404 26.0168 10.9507 26.1396 10.9623C26.2627 10.9739 26.3854 10.9875 26.5078 11.0033C26.6299 11.0191 26.7516 11.0371 26.873 11.057C26.9945 11.0769 27.1157 11.0984 27.2363 11.1224L26.873 11.056C26.7517 11.0361 26.6299 11.0181 26.5078 11.0023C26.2635 10.9708 26.0179 10.9478 25.7715 10.933H25.7705ZM23.1318 11.0648C23.1892 11.0554 23.2465 11.0475 23.3027 11.0394C23.2465 11.0475 23.1892 11.0554 23.1318 11.0648ZM23.4248 11.0219C23.3869 11.0267 23.3488 11.032 23.3105 11.0375C23.3488 11.032 23.3869 11.0268 23.4248 11.0219ZM30.2666 10.472C30.1852 10.4348 30.1036 10.3981 30.0215 10.3627C30.1036 10.3981 30.1852 10.4348 30.2666 10.472ZM20.3799 10.2152C20.2718 10.2581 20.1653 10.305 20.0586 10.351C20.3233 10.237 20.5915 10.1305 20.8643 10.0355L20.3799 10.2152ZM29.9424 10.3295C29.8509 10.2908 29.7593 10.2526 29.667 10.2162C29.7593 10.2526 29.8509 10.2908 29.9424 10.3295ZM29.5508 10.1713C29.4664 10.1389 29.3819 10.107 29.2969 10.0765C29.3819 10.107 29.4664 10.1389 29.5508 10.1713ZM29.1768 10.0355C29.1008 10.0092 29.0247 9.98322 28.9482 9.95837C29.0247 9.98322 29.1008 10.0092 29.1768 10.0355ZM28.7764 9.90369C28.7182 9.88572 28.66 9.86805 28.6016 9.85095C28.66 9.86806 28.7182 9.88572 28.7764 9.90369ZM28.3779 9.78845C28.3337 9.77639 28.2895 9.76389 28.2451 9.75232C28.2895 9.76389 28.3337 9.77638 28.3779 9.78845ZM28.0078 9.69275C27.9607 9.68147 27.9134 9.67125 27.8662 9.66052C27.9134 9.67125 27.9607 9.68147 28.0078 9.69275ZM27.6445 9.61169C27.5968 9.60176 27.5488 9.59274 27.501 9.58337C27.5488 9.59275 27.5968 9.60176 27.6445 9.61169ZM27.2588 9.53748C27.2198 9.53065 27.1807 9.5244 27.1416 9.51794C27.1807 9.5244 27.2198 9.53064 27.2588 9.53748ZM23.7041 9.42126C23.5825 9.43202 23.4585 9.4443 23.332 9.45935C23.4586 9.4443 23.5825 9.432 23.7041 9.42126ZM26.5098 9.43005C26.4581 9.42423 26.4063 9.4196 26.3545 9.41443C26.4063 9.4196 26.4581 9.42423 26.5098 9.43005ZM23.9707 9.39978C23.9254 9.40301 23.8799 9.40687 23.834 9.41052C24.089 9.39028 24.3343 9.37651 24.5732 9.36365L23.9707 9.39978Z" fill="white" fill-opacity="0.3"/>
</g>
</g>
</g>
</svg>
