<svg width="50" height="50" viewBox="0 0 50 50" fill="none" xmlns="http://www.w3.org/2000/svg">
<rect width="50" height="50" fill="#BEBEBE"/>
<g id="Decorate Mode">
<path d="M-124.074 -1352.04V-1351.04H2895.93V-1352.04V-1353.04H-124.074V-1352.04ZM2897.93 -1350.04H2896.93V2187.96H2897.93H2898.93V-1350.04H2897.93ZM2895.93 2189.96V2188.96H-124.074V2189.96V2190.96H2895.93V2189.96ZM-126.074 2187.96H-125.074V-1350.04H-126.074H-127.074V2187.96H-126.074ZM-124.074 2189.96V2188.96C-124.626 2188.96 -125.074 2188.52 -125.074 2187.96H-126.074H-127.074C-127.074 2189.62 -125.731 2190.96 -124.074 2190.96V2189.96ZM2897.93 2187.96H2896.93C2896.93 2188.52 2896.48 2188.96 2895.93 2188.96V2189.96V2190.96C2897.58 2190.96 2898.93 2189.62 2898.93 2187.96H2897.93ZM2895.93 -1352.04V-1351.04C2896.48 -1351.04 2896.93 -1350.59 2896.93 -1350.04H2897.93H2898.93C2898.93 -1351.69 2897.58 -1353.04 2895.93 -1353.04V-1352.04ZM-124.074 -1352.04V-1353.04C-125.731 -1353.04 -127.074 -1351.69 -127.074 -1350.04H-126.074H-125.074C-125.074 -1350.59 -124.626 -1351.04 -124.074 -1351.04V-1352.04Z" fill="black" fill-opacity="0.1"/>
<g id="Stickers">
<rect x="-72.0649" y="-479.537" width="374" height="551" rx="4.5" stroke="#9747FF" stroke-dasharray="10 5"/>
<g id="Property 1=left flip flop">
<g id="Frame 164">
<path id="Vector" d="M34.2496 9.11534C34.0272 8.98409 33.6543 8.83906 33.4068 8.76223C29.026 7.40248 24.1589 10.2722 21.8989 13.9715C20.4126 16.4045 19.9865 19.0288 19.2431 21.7241C19.1227 22.1602 18.9487 22.4877 18.7908 22.896C18.6051 23.3903 18.4556 23.8973 18.3442 24.4136C18.2239 24.991 18.157 25.6015 18.1036 26.1887C18.0697 26.5596 18.1376 26.9927 18.0147 27.3464C17.6799 28.309 17.2574 29.2219 16.8168 30.1383L15.5384 32.7842C15.1516 33.5923 14.7733 34.3309 14.518 35.1926C13.8596 37.4157 14.4922 39.5468 16.3197 41.0021C17.7855 42.0336 19.3507 42.4635 21.122 41.9705C23.543 41.2967 24.4856 39.2695 25.3538 37.14C25.7122 36.2492 26.0621 35.3549 26.4034 34.4574C26.6294 33.8573 26.9616 32.9715 27.2645 32.4154C27.402 32.1631 28.2239 31.5655 28.4832 31.3235C29.134 30.7163 29.7466 30.0797 30.2766 29.3584C31.0471 28.3092 31.65 27.1463 32.0633 25.9118C32.1553 25.6389 32.3735 24.7117 32.4578 24.5771C32.6217 24.3154 33.1442 23.7457 33.3677 23.4568C34.0128 22.6332 34.5906 21.7592 35.0957 20.8431C36.631 18.0403 38.0045 14.3352 36.4239 11.2458C35.9384 10.297 35.1755 9.6214 34.2496 9.11534Z" fill="#020101"/>
<path id="Vector (Stroke)" d="M34.9992 7.74533C34.633 7.53727 34.1586 7.35939 33.8704 7.26993C31.2103 6.44429 28.4808 6.92675 26.1664 8.0686C23.8568 9.20817 21.8514 11.0528 20.5659 13.157C18.9284 15.8374 18.4237 18.82 17.7372 21.309C17.6406 21.6587 17.5745 21.7102 17.3338 22.3324L17.3289 22.3463C17.1165 22.9116 16.9454 23.4922 16.8176 24.0836L16.8162 24.0897L16.8151 24.0952C16.6758 24.764 16.6032 25.4478 16.5488 26.0458L16.548 26.0461C16.5332 26.2079 16.5309 26.3591 16.5305 26.4712C16.53 26.6162 16.5316 26.6551 16.5303 26.7534C16.5295 26.8158 16.5272 26.853 16.5257 26.8713C16.2244 27.73 15.8409 28.563 15.4104 29.4584L14.1318 32.1041L14.1293 32.1097C13.7676 32.8653 13.3199 33.7387 13.0206 34.7487C12.187 37.5636 13.0063 40.3605 15.3469 42.2243L15.3827 42.2533L15.4208 42.2801C17.1253 43.4796 19.0958 44.0831 21.325 43.5329L21.5414 43.4757C24.7774 42.5751 25.9563 39.802 26.8012 37.7297L26.804 37.7236C27.166 36.8236 27.5193 35.9196 27.8641 35.0128L27.8661 35.0084C28.086 34.4244 28.3476 33.7369 28.573 33.2875C28.6337 33.2313 28.7179 33.1577 28.8252 33.0689C28.9456 32.9693 29.0617 32.8767 29.1887 32.7735C29.2966 32.6858 29.4391 32.569 29.5498 32.4657C30.2385 31.823 30.9271 31.1126 31.5362 30.2837L31.5365 30.2832C32.4028 29.1035 33.0807 27.796 33.5454 26.408L33.5449 26.4077C33.5847 26.2891 33.6272 26.1373 33.6598 26.0175C33.692 25.8992 33.7399 25.7192 33.7719 25.6011C33.8023 25.4889 33.8296 25.3923 33.8522 25.3152C33.8545 25.3123 33.8571 25.3095 33.8596 25.3064C33.92 25.2307 33.9958 25.1405 34.0829 25.0378C34.2349 24.8585 34.4641 24.5939 34.6043 24.4126L34.604 24.4118C35.2981 23.5247 35.9209 22.584 36.4647 21.5975L36.4665 21.5937C37.271 20.125 38.0782 18.3422 38.4599 16.4631C38.8434 14.5748 38.8155 12.489 37.8154 10.5341C37.1531 9.23952 36.1268 8.3603 34.9997 7.74421L34.9992 7.74533ZM33.4074 8.76239C33.6548 8.83922 34.0276 8.98392 34.25 9.11513L34.4219 9.21199C35.2704 9.70666 35.9688 10.3565 36.424 11.246L36.5637 11.5375C37.9186 14.5661 36.5833 18.1278 35.0961 20.8429C34.591 21.759 34.0131 22.6331 33.368 23.4566C33.1445 23.7456 32.6219 24.3153 32.458 24.577C32.3737 24.7118 32.156 25.6388 32.064 25.9118C31.6507 27.1463 31.0478 28.3092 30.2773 29.3584C29.7473 30.0796 29.1346 30.7164 28.4839 31.3236C28.2246 31.5657 27.4025 32.1633 27.265 32.4156C26.9621 32.9716 26.6297 33.857 26.4037 34.4572L25.8855 35.8012C25.7106 36.2483 25.5335 36.6945 25.3543 37.1399L25.1902 37.538C24.3624 39.5177 23.3921 41.339 21.1225 41.9707C19.4618 42.4329 17.9823 42.0838 16.596 41.1883L16.3201 41.0019C14.5498 39.5922 13.9009 37.5484 14.4605 35.401L14.5183 35.1927C14.7099 34.5463 14.9706 33.9692 15.2521 33.3801L15.5389 32.7844L16.817 30.1385C17.2576 29.222 17.6806 28.309 18.0153 27.3464C18.1382 26.9928 18.0703 26.5597 18.1042 26.1887C18.1509 25.6749 18.2077 25.1431 18.3018 24.6313L18.3445 24.4134C18.4281 24.0262 18.5331 23.6443 18.6587 23.269L18.7912 22.8961C18.9491 22.4879 19.123 22.16 19.2434 21.7239C19.9636 19.1129 20.3862 16.5688 21.7631 14.2005L21.8994 13.9714C24.124 10.3299 28.875 7.49245 33.2016 8.70175L33.4074 8.76239Z" fill="#E8E7E7"/>
<path id="Vector (Stroke) (Stroke)" d="M35.3775 6.90883C34.9479 6.67539 34.4479 6.48706 34.1425 6.39228C31.2061 5.48091 28.2312 6.02565 25.7601 7.24477C23.296 8.46055 21.1586 10.4243 19.7816 12.6781C18.0556 15.5036 17.5063 18.6927 16.8519 21.0651C16.8192 21.1833 16.7963 21.241 16.748 21.3515C16.6912 21.4817 16.6053 21.6683 16.4767 22.0006L16.469 22.0233L16.3068 22.4816C16.154 22.9381 16.027 23.4033 15.9246 23.8748L15.923 23.8754L15.9216 23.8814C15.9201 23.8876 15.9183 23.894 15.9169 23.9003L15.916 23.9051L15.9161 23.9078C15.7672 24.6228 15.6912 25.3424 15.6364 25.9426C15.6357 25.9491 15.6335 25.9555 15.6329 25.962C15.6144 26.1641 15.6119 26.3476 15.6115 26.4685C15.6111 26.6093 15.6136 26.6355 15.6133 26.69C15.3368 27.455 14.9893 28.2135 14.5829 29.0588L13.3048 31.7039C13.3035 31.7066 13.3021 31.7099 13.3009 31.7126L13.0187 32.2989C12.7194 32.9245 12.3832 33.6655 12.1394 34.4882C11.2038 37.6481 12.1316 40.8335 14.77 42.9378L14.7684 42.9384L14.8043 42.9665C14.8209 42.98 14.8385 42.9934 14.856 43.0058L14.8934 43.0306C16.7621 44.3455 19.0007 45.0519 21.5445 44.4242L21.5594 44.4204L21.7756 44.3637L22.1286 44.2575C25.5839 43.1274 26.8453 40.0522 27.6511 38.0758C27.6525 38.0725 27.6543 38.0693 27.6556 38.066C28.0199 37.1605 28.3757 36.2513 28.7225 35.3394C28.7235 35.3369 28.725 35.3343 28.726 35.3318C28.9246 34.8043 29.1398 34.248 29.3238 33.8513C29.3501 33.8289 29.3783 33.803 29.4104 33.7764C29.527 33.6798 29.632 33.5967 29.7683 33.4859C29.8737 33.4002 30.0397 33.2645 30.1765 33.1368C30.7984 32.5564 31.4372 31.9067 32.0262 31.156L32.2768 30.8272C33.1995 29.5708 33.9215 28.1777 34.4165 26.6993L34.421 26.6778C34.4677 26.5359 34.5147 26.3725 34.5457 26.2589C34.5768 26.1448 34.6292 25.9475 34.658 25.8411C34.6666 25.8096 34.6752 25.7798 34.6831 25.7513C34.7132 25.7154 34.7464 25.6753 34.7835 25.6315C34.9214 25.4688 35.1733 25.1776 35.3301 24.9749C35.3337 24.9702 35.3373 24.9648 35.3408 24.96C36.0592 24.04 36.7045 23.0646 37.2686 22.0414C37.2696 22.0395 37.2705 22.0368 37.2715 22.0349L37.5822 21.4524C38.3047 20.0558 39.0025 18.4014 39.359 16.6461C39.7694 14.6257 39.7567 12.3116 38.6332 10.1154C37.8668 8.61757 36.6853 7.6192 35.4402 6.93861C35.4199 6.92751 35.3985 6.9183 35.3775 6.90883ZM34.9987 7.74542C36.1259 8.3615 37.1526 9.2397 37.815 10.5343L37.9919 10.9023C38.8174 12.749 38.8192 14.6931 38.4596 16.4633L38.3828 16.8145C37.9766 18.5639 37.22 20.2171 36.4658 21.5939L36.4643 21.5972C35.9205 22.5836 35.2975 23.5251 34.6033 24.4122C34.4632 24.5933 34.2349 24.8579 34.0829 25.0373C33.9959 25.1399 33.9199 25.2305 33.8595 25.3062C33.8572 25.3091 33.8541 25.3117 33.8518 25.3145C33.8291 25.3916 33.8019 25.4889 33.7715 25.6011L33.6596 26.0179L33.5441 26.408C33.1375 27.6222 32.5692 28.7755 31.853 29.8347L31.5363 30.2832C30.9272 31.112 30.2388 31.8233 29.5501 32.466C29.4394 32.5693 29.2964 32.6855 29.1885 32.7732C29.0615 32.8764 28.9458 32.9696 28.8255 33.0693C28.7182 33.1581 28.6331 33.2317 28.5724 33.2879C28.3471 33.7372 28.0855 34.4242 27.8657 35.0079L27.8638 35.0122C27.5189 35.919 27.1658 36.8236 26.8038 37.7236L26.8008 37.7301C25.9559 39.8024 24.7766 42.575 21.5408 43.4755L21.3246 43.5323C19.0955 44.0824 17.1254 43.4794 15.4209 42.28L15.383 42.2536L15.3466 42.2239C13.0794 40.4183 12.2392 37.7374 12.9467 35.0126L13.0204 34.7493C13.3196 33.7393 13.7674 32.8655 14.129 32.11L14.1315 32.1045L15.4101 29.4584C15.8406 28.5629 16.2242 27.7294 16.5255 26.8707C16.5271 26.8522 16.5294 26.8152 16.5303 26.7533L16.5299 26.4708C16.5301 26.4147 16.5315 26.3489 16.534 26.2769L16.5484 26.0457C16.5891 25.5973 16.6398 25.1006 16.7215 24.5982L16.8147 24.0954L16.8174 24.0835C16.9452 23.4921 17.1163 22.911 17.3287 22.3457L17.3335 22.3321C17.5741 21.71 17.6404 21.658 17.737 21.3084C18.4234 18.8195 18.9289 15.8371 20.5663 13.1568C21.7714 11.1842 23.6089 9.4395 25.7369 8.29023L26.1659 8.0688C28.3357 6.99828 30.8707 6.50733 33.371 7.13055L33.8701 7.26934C34.1582 7.35878 34.6326 7.53741 34.9987 7.74542ZM34.2501 9.11537C34.0277 8.98416 33.6544 8.83929 33.407 8.76247L33.2019 8.70212C28.8753 7.49283 24.1243 10.3301 21.8996 13.9715L21.7626 14.2009C20.386 16.569 19.9639 19.1131 19.2439 21.7238C19.1235 22.1599 18.9492 22.4878 18.7913 22.896L18.6586 23.2691C18.533 23.6444 18.4283 24.0266 18.3447 24.4137L18.3009 24.6315L18.2382 25.0181C18.1803 25.4077 18.139 25.8037 18.104 26.1891C18.0702 26.56 18.1382 26.9933 18.0154 27.3467L17.7492 28.0598C17.4683 28.7657 17.147 29.4508 16.8166 30.1382L15.2513 33.3804C14.9699 33.9692 14.7101 34.5464 14.5186 35.1924L14.4606 35.4011C13.901 37.5484 14.5495 39.5921 16.3196 41.0018L16.5962 41.188C17.9824 42.0834 19.462 42.433 21.1226 41.9707C23.3921 41.339 24.3621 39.5176 25.1898 37.5379L25.3538 37.1396C25.5329 36.6942 25.7108 36.2483 25.8857 35.8012L26.4031 34.4575C26.6291 33.8574 26.9624 32.9715 27.2653 32.4155C27.4032 32.163 28.2247 31.5654 28.4839 31.3235C29.0531 30.7924 29.5928 30.2384 30.0739 29.6252L30.2769 29.3576C30.9509 28.4398 31.4976 27.4354 31.9004 26.3717L32.0636 25.9113C32.1556 25.638 32.3739 24.7128 32.4582 24.5775C32.6221 24.3158 33.1446 23.7457 33.3681 23.4568C34.0131 22.6332 34.5907 21.7587 35.0958 20.8426C36.583 18.1275 37.9179 14.5662 36.5631 11.5376L36.4238 11.2458C35.9687 10.3563 35.2702 9.70638 34.4217 9.21174L34.2501 9.11537ZM33.7829 9.90655C33.788 9.90957 33.7935 9.91214 33.7987 9.91506L33.9604 10.0043L33.9589 10.0049C34.6884 10.4302 35.2443 10.9602 35.6027 11.6568L35.7291 11.9192C36.2988 13.1977 36.3218 14.6295 35.9988 16.1121C35.6748 17.5999 35.0129 19.0814 34.291 20.3995L33.918 21.047C33.6601 21.4732 33.3854 21.8892 33.0942 22.2934L32.6444 22.8902L32.6413 22.8941C32.5463 23.0169 32.3849 23.2037 32.1899 23.4337C32.0664 23.5794 31.9107 23.7632 31.7882 23.9302L31.6791 24.0895L31.5992 24.2423C31.579 24.288 31.566 24.3258 31.5586 24.346C31.5363 24.4069 31.5141 24.4728 31.495 24.5351C31.4565 24.6608 31.4158 24.8109 31.3773 24.9532C31.2921 25.2681 31.2274 25.517 31.1933 25.6182L31.1923 25.6204C30.8093 26.7642 30.2513 27.842 29.5375 28.8141C29.0539 29.4722 28.4858 30.0664 27.8575 30.6527C27.7531 30.75 27.5443 30.9091 27.2427 31.1587C27.1107 31.268 26.9677 31.389 26.8446 31.5059C26.7724 31.5743 26.6539 31.6891 26.5521 31.8287L26.4586 31.9767L26.3303 32.2244C26.031 32.8337 25.7345 33.6284 25.5444 34.133L25.0285 35.4708C24.8552 35.9137 24.6795 36.3558 24.5019 36.7972L24.3415 37.1879C23.5186 39.155 22.6906 40.5811 20.8757 41.0862C19.5183 41.4639 18.3123 41.1988 17.1111 40.4277L16.8751 40.2679C15.4079 39.0894 14.8818 37.4281 15.3495 35.6329L15.3994 35.4507C15.569 34.8795 15.8023 34.3579 16.079 33.7789L16.3652 33.1839L17.6438 30.5377C18.0861 29.6176 18.5292 28.6628 18.8823 27.6474C18.9946 27.324 19.0079 27.0034 19.0108 26.7864C19.0144 26.5141 19.0057 26.4118 19.0185 26.2724L19.0965 25.5197C19.1264 25.2736 19.162 25.0323 19.205 24.7981L19.2455 24.5905C19.3213 24.2423 19.4167 23.8981 19.5299 23.56L19.6481 23.2276C19.7576 22.9444 19.9941 22.4549 20.1284 21.9682L20.3961 20.9629C20.9905 18.6551 21.4211 16.6149 22.5567 14.6615L22.6832 14.4497C23.7053 12.7769 25.3203 11.275 27.176 10.3377C29.0297 9.40156 31.0616 9.05753 32.9538 9.5863L33.135 9.63843C33.3522 9.70586 33.6482 9.82713 33.7829 9.90655Z" fill="#020101"/>
<path id="Vector_2" d="M27.7429 28.4979C28.0296 27.8548 28.7812 27.148 29.201 26.5686C29.4664 26.2025 29.7089 26.1122 29.7775 25.6063C30.0638 23.4966 30.1164 21.3165 29.6447 19.2291C29.5665 18.8828 29.4494 18.4849 29.2479 18.1877C29.0852 17.9567 28.8613 17.9378 28.606 17.9059C28.2724 17.932 27.7485 18.1188 27.4118 18.2513C25.1079 19.1586 22.9109 20.7661 21.2466 22.5891C21.131 22.7161 20.9385 22.9933 20.8925 23.1606C20.6758 23.9516 20.7914 24.858 20.8282 25.6481C20.8819 27.2284 21.5242 29.3068 20.5346 30.6932C20.3713 30.9221 20.0176 31.1233 19.7406 31.1351C18.7528 31.1772 18.3512 30.1779 18.1234 29.408C17.6269 30.457 17.1224 31.5023 16.6099 32.5435C15.7424 34.3388 14.6457 36.2199 15.3615 38.2735C15.6608 39.1327 16.2856 39.9476 17.0494 40.4451C18.5859 41.5769 20.9107 41.6357 22.3883 40.3791C23.6443 39.3108 24.1588 37.8476 24.749 36.3642C25.1652 35.3179 25.5418 34.2576 25.9665 33.2178C25.5337 33.3888 25.2274 33.4532 24.7696 33.4546C24.0261 33.3428 23.5203 32.9544 23.6768 32.1224C23.8689 31.1016 24.9697 30.3249 25.7749 29.7623C26.446 29.3666 27.096 28.9312 27.7429 28.4979Z" fill="#E8E7E7"/>
<path id="Vector_3" d="M27.7429 28.4979C28.0296 27.8548 28.7812 27.148 29.201 26.5686C29.4664 26.2025 29.7089 26.1122 29.7775 25.6063C30.0638 23.4966 30.1164 21.3165 29.6447 19.2291C29.5665 18.8828 29.4494 18.4849 29.2479 18.1877C29.0852 17.9567 28.8613 17.9378 28.606 17.9059C29.2842 19.4603 29.3365 23.4493 28.9163 25.2681C28.855 25.5335 28.0658 26.2566 27.9105 26.5325C27.4242 27.163 26.9921 27.7947 26.56 28.4586C26.3682 28.7533 25.8945 29.4697 25.7749 29.7623C26.446 29.3666 27.096 28.9312 27.7429 28.4979Z" fill="#8FB7B3"/>
<path id="Vector_4" d="M25.9664 33.218C25.5336 33.389 25.2274 33.4534 24.7696 33.4548C24.4936 34.265 24.2034 35.0701 23.899 35.8698C23.0951 38.0167 22.0375 40.6616 19.3893 40.8825C18.4925 40.9573 17.8633 40.7709 17.0493 40.4453C18.5859 41.5771 20.9106 41.636 22.3882 40.3793C23.6442 39.311 24.1588 37.8478 24.7489 36.3644C25.1651 35.3181 25.5417 34.2578 25.9664 33.218Z" fill="#8FB7B3"/>
<path id="Vector_5" d="M32.6936 22.9203C33.015 22.4588 33.3306 22.0831 33.6533 21.5868C34.6548 20.0224 35.5402 18.2562 35.9874 16.4468C36.7063 13.5377 36.1199 10.2641 32.7649 9.4702C30.8057 8.91903 28.5442 9.52347 26.7949 10.475C23.6975 12.16 21.7418 15.112 20.9712 18.5217C20.8616 18.8968 20.7663 19.332 20.6841 19.7135C20.9032 19.4856 21.1036 19.2513 21.3204 19.019C23.1279 17.0808 25.8101 15.3994 28.4299 14.8886C28.7974 14.817 29.1969 14.8054 29.568 14.7901C29.8222 14.2531 30.0113 13.5632 30.5415 13.2431C30.8662 13.1578 31.1439 13.1287 31.4467 13.3114C32.476 13.9326 31.6541 14.9451 31.3302 15.726C32.4765 17.2755 32.7085 19.1232 32.7686 21.0029C32.7604 21.0804 32.7667 21.2159 32.7663 21.2987C32.7633 21.8405 32.7262 22.3794 32.6936 22.9203Z" fill="#E4E4E2"/>
<path id="Vector_6" d="M32.6936 22.9203C33.015 22.4588 33.3306 22.0831 33.6533 21.5868C34.6548 20.0224 35.5402 18.2562 35.9874 16.4468C36.7063 13.5377 36.1199 10.2641 32.7649 9.4702C33.8161 9.95454 34.6299 10.8393 35.0248 11.9273C36.0162 14.6671 34.6479 18.3048 33.0817 20.5897C33.0026 20.7051 32.8668 20.9087 32.7686 21.0029C32.7604 21.0804 32.7667 21.2159 32.7663 21.2987C32.7633 21.8405 32.7262 22.3794 32.6936 22.9203Z" fill="#8FB7B3"/>
<path id="Vector_7" d="M30.5415 13.2432C30.3057 13.2187 30.0694 13.2865 29.8824 13.4325C29.5848 13.665 29.4357 14.1459 29.2528 14.4929C28.9942 14.5097 28.6469 14.5261 28.3962 14.5657C26.3489 14.8894 24.1101 15.9656 22.4744 17.2141C22.1687 17.4473 21.8724 17.6926 21.5865 17.9496C21.4953 18.0322 21.022 18.4929 20.9711 18.5218C20.8616 18.8968 20.7663 19.332 20.6841 19.7136C20.9032 19.4856 21.1035 19.2514 21.3204 19.0191C23.1279 17.0808 25.8101 15.3995 28.4299 14.8887C28.7974 14.8171 29.1968 14.8055 29.568 14.7901C29.8222 14.2531 30.0113 13.5632 30.5415 13.2432Z" fill="#8FB7B3"/>
<path id="Vector_8" d="M30.2783 15.7822C29.4762 15.3417 28.692 15.5159 27.8496 15.7551C26.1292 16.2435 24.4562 17.2205 23.0826 18.3514C21.5132 19.6436 20.1154 21.3522 19.4205 23.2811C19.3109 23.5906 19.142 24.0987 19.1131 24.4155C19.2638 24.134 19.4015 23.8817 19.575 23.6133C20.0912 22.8184 20.6901 22.0804 21.3617 21.4116C23.0011 19.7706 25.8883 17.7655 28.191 17.2688C28.5245 17.2076 28.8505 17.1582 29.177 17.2813C29.5984 17.4375 29.9149 17.8231 30.074 18.2394C30.5374 19.452 30.6703 20.8524 30.705 22.1386C30.7473 23.7084 30.6253 25.2589 30.268 26.7863C30.0718 27.6247 29.767 28.4022 29.4505 29.1978C29.6601 28.9613 30.0172 28.458 30.1933 28.183C31.945 25.4462 32.4338 21.6714 31.778 18.5225C31.5673 17.5111 31.1739 16.3647 30.2783 15.7822Z" fill="#2A9D8F"/>
<path id="Vector_9" d="M19.989 24.2833C19.8607 24.4601 19.687 24.8465 19.588 25.0549C19.0442 26.1985 18.7043 27.453 18.802 28.7304C18.8405 29.2357 18.9809 29.9189 19.3811 30.2917C19.5011 30.4034 19.63 30.4019 19.7814 30.3814C20.7032 29.9049 20.2093 27.0403 20.1259 26.1561C20.069 25.5325 20.0233 24.9084 19.989 24.2833Z" fill="#2A9D8F"/>
<path id="Vector_10" d="M28.9691 28.4978C28.9141 28.516 28.5217 28.815 28.4633 28.8668C27.5751 29.6565 24.268 31.1089 24.3911 32.4365C24.5663 32.8843 25.2133 32.6857 25.5434 32.5455C27.2955 31.801 28.2765 30.1812 28.9691 28.4978Z" fill="#2A9D8F"/>
<path id="Vector_11" d="M31.1716 13.9811C30.9511 13.8667 30.793 13.9305 30.6436 14.124C30.5497 14.2458 30.2444 14.8663 30.2608 14.9836L30.3635 15.0385L30.773 15.2357C30.9219 14.9464 31.1276 14.554 31.2253 14.2478C31.2605 14.1374 31.2283 14.0733 31.1716 13.9811Z" fill="#2A9D8F"/>
</g>
<path id="Union" d="M34.1421 6.39254C31.2059 5.48136 28.2313 6.02603 25.7603 7.24508C23.2962 8.46087 21.1587 10.4248 19.7818 12.6787C18.0558 15.5041 17.5064 18.693 16.8521 21.0654C16.8195 21.1835 16.7967 21.2413 16.7486 21.3515C16.6917 21.4817 16.6056 21.6687 16.4771 22.0009L16.4693 22.0234L16.3072 22.4814C16.1544 22.9379 16.0268 23.4034 15.9244 23.875L15.9234 23.8759L15.9214 23.8818C15.92 23.8879 15.9179 23.8942 15.9166 23.9004V23.9082C15.7677 24.6232 15.6911 25.3432 15.6363 25.9433C15.6355 25.9495 15.634 25.9556 15.6334 25.9619C15.6149 26.1639 15.6123 26.3478 15.6119 26.4687C15.6114 26.6095 15.614 26.6359 15.6138 26.6904C15.3372 27.4554 14.9889 28.2142 14.5826 29.0595L13.3052 31.7041C13.3039 31.7067 13.3026 31.7101 13.3013 31.7129L13.0191 32.2988C12.7198 32.9243 12.383 33.6656 12.1392 34.4882C11.2036 37.6482 12.1316 40.8342 14.7701 42.9384H14.7681L14.8043 42.9668C14.8209 42.9802 14.8385 42.9935 14.856 43.0058L14.8931 43.0312C16.7618 44.3461 19.0007 45.0524 21.5445 44.4248L21.5591 44.4209L21.7759 44.3642L22.1285 44.2578C25.5836 43.1278 26.8451 40.0525 27.6509 38.0761C27.6523 38.0729 27.6545 38.0696 27.6558 38.0664C28.0201 37.1609 28.3755 36.2516 28.7222 35.3398C28.7232 35.3373 28.7252 35.3345 28.7261 35.332C28.9248 34.8045 29.1397 34.2482 29.3238 33.8515C29.3501 33.8291 29.3785 33.803 29.4107 33.7763C29.5271 33.6799 29.632 33.5969 29.7681 33.4863C29.8735 33.4006 30.0395 33.2644 30.1763 33.1367C30.7982 32.5564 31.4369 31.9069 32.0259 31.1562L32.2769 30.8271C33.1995 29.5708 33.9216 28.1774 34.4166 26.6992L34.4214 26.6777C34.4681 26.5359 34.5146 26.3722 34.5455 26.2588C34.5765 26.1448 34.6289 25.9482 34.6578 25.8418C34.6663 25.8104 34.6753 25.7802 34.6832 25.7519C34.7132 25.716 34.7466 25.6756 34.7837 25.6318C34.9216 25.4692 35.1738 25.1783 35.3306 24.9755C35.3342 24.9709 35.3378 24.9647 35.3414 24.9599C36.0596 24.0401 36.7051 23.0649 37.2691 22.042C37.2702 22.04 37.271 22.037 37.272 22.0351L37.5826 21.4531C38.305 20.0566 39.0024 18.4017 39.3589 16.6464C39.7693 14.6261 39.7569 12.3114 38.6334 10.1152C37.867 8.61756 36.685 7.61899 35.44 6.93844C35.4198 6.92744 35.3983 6.91855 35.3775 6.90914C34.9478 6.67572 34.4475 6.48732 34.1421 6.39254ZM14.7291 41.6767C14.9216 41.8671 15.1278 42.0499 15.3472 42.2246L15.3648 42.2392L15.3462 42.2246C15.1338 42.0554 14.9339 41.8782 14.7466 41.6943L14.7291 41.6767ZM17.5435 41.7031C17.5946 41.7258 17.6455 41.7483 17.6968 41.7695C17.6455 41.7483 17.5946 41.7258 17.5435 41.7031ZM14.2876 41.1982C14.2574 41.1625 14.2272 41.1269 14.1978 41.0908C14.2272 41.1269 14.2575 41.1625 14.2876 41.1982ZM25.0679 41.0429C25.0477 41.0697 25.026 41.0955 25.0054 41.122C25.1287 40.9632 25.2458 40.8014 25.356 40.6367L25.0679 41.0429ZM14.1636 41.0468C14.1257 40.9994 14.0887 40.9514 14.0523 40.9033C14.0887 40.9515 14.1257 40.9994 14.1636 41.0468ZM13.9654 40.7861C13.9429 40.7551 13.9199 40.7246 13.898 40.6933C13.9199 40.7246 13.9429 40.7551 13.9654 40.7861ZM13.8121 40.5664C13.7935 40.5385 13.7755 40.5104 13.7574 40.4824C13.7755 40.5104 13.7935 40.5385 13.8121 40.5664ZM13.69 40.375C13.6663 40.3366 13.6425 40.2984 13.6197 40.2597C13.6425 40.2984 13.6663 40.3366 13.69 40.375ZM13.5757 40.1816C13.5467 40.1309 13.5174 40.0805 13.4898 40.0293C13.5174 40.0805 13.5467 40.1309 13.5757 40.1816ZM13.4361 39.9267C13.4152 39.8862 13.3946 39.8455 13.3746 39.8046C13.3946 39.8455 13.4152 39.8862 13.4361 39.9267ZM13.3179 39.6855C13.3062 39.6603 13.2952 39.6347 13.2837 39.6093C13.2952 39.6347 13.3062 39.6603 13.3179 39.6855ZM13.2232 39.4716C13.2096 39.4395 13.1962 39.4073 13.1832 39.375C13.1962 39.4073 13.2096 39.4395 13.2232 39.4716ZM13.1334 39.2461C13.1204 39.2119 13.1076 39.1778 13.0953 39.1435C13.1076 39.1778 13.1204 39.2119 13.1334 39.2461ZM13.0552 39.0322C13.036 38.9757 13.0172 38.9192 12.9996 38.8623C13.0172 38.9192 13.036 38.9757 13.0552 39.0322ZM12.9859 38.8154C12.9671 38.7531 12.9491 38.6907 12.9322 38.6279C12.9491 38.6907 12.9671 38.7531 12.9859 38.8154ZM12.9078 38.5351C12.8966 38.491 12.8868 38.4466 12.8765 38.4023C12.8868 38.4466 12.8966 38.491 12.9078 38.5351ZM12.855 38.3095C12.8442 38.2596 12.8344 38.2094 12.8248 38.1591C12.8344 38.2094 12.8442 38.2596 12.855 38.3095ZM12.8072 38.0664C12.7973 38.0109 12.7883 37.9552 12.7798 37.8994C12.7883 37.9552 12.7973 38.0109 12.8072 38.0664ZM12.7671 37.8105C12.7597 37.7566 12.7537 37.7026 12.7476 37.6484C12.7537 37.7026 12.7597 37.7566 12.7671 37.8105ZM25.1138 37.7148C25.1204 37.6992 25.1268 37.6835 25.1334 37.6679C25.1517 37.6245 25.1718 37.5816 25.19 37.538L25.1138 37.7148ZM12.7398 37.583C12.7332 37.5193 12.728 37.4555 12.7232 37.3916C12.7279 37.4555 12.7333 37.5193 12.7398 37.583ZM12.7193 37.3349C12.7149 37.2687 12.711 37.2023 12.7085 37.1357C12.711 37.2023 12.7149 37.2687 12.7193 37.3349ZM12.7066 37.0781C12.7046 37.0083 12.7045 36.9383 12.7046 36.8681C12.7045 36.9383 12.7046 37.0083 12.7066 37.0781ZM12.7046 36.8232C12.7052 36.7569 12.7071 36.6905 12.7095 36.624C12.7071 36.6905 12.7052 36.7569 12.7046 36.8232ZM12.7115 36.5605C12.7146 36.4929 12.7182 36.4252 12.7232 36.3574C12.7182 36.4252 12.7146 36.4929 12.7115 36.5605ZM12.8169 35.6191C12.7758 35.8522 12.7446 36.0843 12.7261 36.3154C12.7446 36.0843 12.7758 35.8523 12.8169 35.6191ZM12.8316 35.5312C12.8436 35.4674 12.8569 35.4037 12.8707 35.3398C12.8569 35.4037 12.8436 35.4674 12.8316 35.5312ZM14.5084 35.2324L14.5142 35.208C14.5119 35.216 14.5107 35.2244 14.5084 35.2324ZM13.021 34.749C12.9773 34.8968 12.9385 35.0448 12.9039 35.1923C12.9179 35.1327 12.9313 35.0724 12.9468 35.0127L13.0201 34.75C13.0575 34.6236 13.0976 34.499 13.1392 34.3769L13.021 34.749ZM15.4107 29.4589L14.1324 32.1045L14.1294 32.1103L14.1314 32.1045L15.4107 29.4589ZM29.0914 30.7304C29.0484 30.7741 29.0069 30.8191 28.9634 30.8623C28.9865 30.8394 29.0079 30.815 29.0308 30.792C29.0511 30.7715 29.0712 30.7509 29.0914 30.7304ZM29.649 30.1377C29.5574 30.2417 29.4633 30.3432 29.3687 30.4443C29.3739 30.4387 29.3782 30.4323 29.3834 30.4267C29.4847 30.318 29.5854 30.2087 29.6832 30.0966C29.6872 30.092 29.6918 30.0877 29.6959 30.083L29.649 30.1377ZM32.1402 29.3925C32.0473 29.5417 31.9516 29.6892 31.8531 29.8349L31.6832 30.0752C31.8414 29.8513 31.9954 29.6248 32.1402 29.3925ZM30.2779 29.3584C30.1453 29.5388 30.007 29.714 29.8648 29.8847L30.0445 29.6621C30.1234 29.5624 30.2013 29.4613 30.2769 29.3584C30.3324 29.2828 30.3853 29.2056 30.439 29.1289L30.441 29.1269C30.3869 29.2042 30.3338 29.2823 30.2779 29.3584ZM32.3921 28.9707C32.3349 29.0703 32.2751 29.1684 32.2154 29.2666C32.2751 29.1684 32.3348 29.0702 32.3921 28.9707ZM32.6343 28.5302C32.5964 28.602 32.5573 28.673 32.5181 28.7441C32.5573 28.673 32.5964 28.602 32.6343 28.5302ZM30.9146 28.3984C30.8697 28.473 30.8243 28.5474 30.7779 28.6211C30.7828 28.6133 30.7876 28.6054 30.7925 28.5976C30.822 28.5507 30.8506 28.5033 30.8794 28.456C30.8912 28.4368 30.903 28.4177 30.9146 28.3984ZM32.8716 28.0605C32.8346 28.1374 32.7968 28.2138 32.7584 28.29C32.7968 28.2138 32.8346 28.1374 32.8716 28.0605ZM31.0728 28.1328C31.0543 28.1654 31.034 28.197 31.0152 28.2295C31.0248 28.2129 31.034 28.1962 31.0435 28.1796C31.0729 28.1285 31.1017 28.077 31.1304 28.0254C31.1345 28.0181 31.1391 28.0111 31.1431 28.0039L31.0728 28.1328ZM33.064 27.6435C33.0421 27.6931 33.0201 27.7426 32.9976 27.792C33.0201 27.7426 33.0421 27.6931 33.064 27.6435ZM33.2681 27.1582C33.2441 27.2184 33.2207 27.2789 33.1959 27.3388C33.2207 27.2789 33.2441 27.2184 33.2681 27.1582ZM16.5308 26.4716L16.5298 26.4707L16.5308 26.4716ZM16.6041 25.5048C16.6179 25.3767 16.6312 25.2461 16.648 25.1142C16.6312 25.2461 16.6179 25.3767 16.6041 25.5048ZM18.1783 25.4755C18.1825 25.4397 18.1865 25.4039 18.191 25.3681C18.1865 25.4039 18.1825 25.4398 18.1783 25.4755ZM16.7222 24.5986C16.6954 24.7638 16.6719 24.9284 16.6509 25.0908C16.6718 24.9284 16.6944 24.7637 16.7212 24.5986L16.815 24.0957L16.7222 24.5986ZM18.4205 24.0898C18.3937 24.1975 18.3677 24.3055 18.3443 24.414L18.4117 24.124C18.4145 24.1126 18.4176 24.1012 18.4205 24.0898ZM17.3335 22.333L17.3287 22.3466C17.2298 22.6097 17.1408 22.8763 17.0601 23.1455C17.1409 22.876 17.2298 22.6088 17.3287 22.3457L17.3335 22.332V22.333ZM17.7369 21.3086V21.3095V21.3086ZM36.7603 21.042C36.7137 21.132 36.6656 21.2205 36.6187 21.3086C36.6656 21.2205 36.7136 21.132 36.7603 21.042ZM37.0425 20.4795C36.9746 20.6194 36.9047 20.7567 36.8355 20.8925C36.9047 20.7567 36.9746 20.6194 37.0425 20.4795ZM37.314 19.8984C37.2774 19.9796 37.239 20.0596 37.2017 20.1396C37.239 20.0596 37.2774 19.9796 37.314 19.8984ZM37.5835 19.2724C37.5416 19.3745 37.498 19.4755 37.4546 19.5761C37.498 19.4755 37.5416 19.3745 37.5835 19.2724ZM37.8238 18.6562C37.7909 18.7451 37.7563 18.833 37.7222 18.9209C37.7563 18.833 37.7909 18.7451 37.8238 18.6562ZM36.0357 18.9209C36.0625 18.8582 36.0896 18.7955 36.1158 18.7324C36.1245 18.7114 36.1345 18.6909 36.1431 18.6699L36.0357 18.9209ZM36.3746 18.0722C36.3601 18.1118 36.3445 18.151 36.3296 18.1904C36.3445 18.151 36.3601 18.1118 36.3746 18.0722ZM36.9185 16.1972C36.9053 16.2611 36.8919 16.3249 36.8775 16.3886C36.8919 16.3249 36.9053 16.2611 36.9185 16.1972ZM36.9576 16.0058C36.9512 16.0397 36.9438 16.0735 36.9371 16.1074C36.9436 16.0746 36.9494 16.0416 36.9556 16.0088C36.9594 15.9886 36.9627 15.9684 36.9664 15.9482C36.973 15.912 36.9806 15.876 36.9869 15.8398L36.9576 16.0058ZM37.0689 15.2627C37.06 15.3418 37.0505 15.4209 37.0396 15.5C37.0505 15.4209 37.06 15.3418 37.0689 15.2627ZM38.6587 15.0478C38.6546 15.1026 38.6491 15.1573 38.6441 15.2119C38.6491 15.1573 38.6546 15.1026 38.6587 15.0478ZM37.0904 15.0478C37.0882 15.0725 37.0869 15.0973 37.0845 15.122C37.0869 15.0973 37.0882 15.0725 37.0904 15.0478ZM37.1168 14.6699C37.1136 14.7389 37.1099 14.8079 37.105 14.8769C37.1099 14.8079 37.1136 14.7389 37.1168 14.6699ZM38.6793 14.6914C38.6771 14.7435 38.6744 14.7956 38.6714 14.8476C38.6744 14.7956 38.6771 14.7435 38.6793 14.6914ZM37.1255 14.3379C37.1252 14.4065 37.1237 14.4752 37.1216 14.5439C37.1237 14.4752 37.1252 14.4065 37.1255 14.3379ZM38.6871 14.3379C38.6868 14.3962 38.6864 14.4545 38.6851 14.5127C38.6864 14.4545 38.6868 14.3962 38.6871 14.3379ZM37.1207 14.0634C37.122 14.1093 37.124 14.1552 37.1246 14.2011C37.124 14.1552 37.122 14.1093 37.1207 14.0634ZM38.6832 13.9931C38.6847 14.0417 38.6843 14.0902 38.6851 14.1386C38.6843 14.0902 38.6847 14.0417 38.6832 13.9931ZM38.6636 13.6191C38.6681 13.681 38.6711 13.7429 38.6744 13.8046C38.6711 13.7429 38.6681 13.681 38.6636 13.6191ZM38.6255 13.2334C38.6336 13.3015 38.6416 13.3694 38.648 13.4375C38.6416 13.3694 38.6336 13.3015 38.6255 13.2334ZM37.0347 13.1318C37.0457 13.2004 37.0561 13.269 37.065 13.3379C37.0561 13.269 37.0457 13.2004 37.0347 13.1318ZM38.5767 12.8847C38.5866 12.9467 38.5975 13.0083 38.606 13.0703C38.5975 13.0083 38.5866 12.9467 38.5767 12.8847ZM36.608 11.6416C36.7572 11.9923 36.8723 12.3495 36.9546 12.7119C36.9322 12.6131 36.9066 12.5149 36.8794 12.417C36.8331 12.2499 36.7782 12.0845 36.7173 11.9199C36.6829 11.8268 36.6472 11.7338 36.608 11.6416ZM38.5074 12.5068C38.5205 12.57 38.5338 12.633 38.5455 12.6963C38.5338 12.633 38.5205 12.57 38.5074 12.5068ZM38.4195 12.1298C38.4373 12.1985 38.4544 12.2671 38.4703 12.3359C38.4544 12.2671 38.4373 12.1985 38.4195 12.1298ZM38.2984 11.7109C38.3273 11.8014 38.356 11.8916 38.3814 11.9824C38.356 11.8916 38.3273 11.8014 38.2984 11.7109ZM23.6968 11.7265C23.6645 11.7583 23.6331 11.7911 23.6011 11.8232C23.6331 11.7911 23.6645 11.7583 23.6968 11.7265ZM21.5113 11.8183C21.5455 11.7757 21.5791 11.7326 21.6138 11.6904C21.5791 11.7326 21.5455 11.7757 21.5113 11.8183ZM38.2642 11.5996C38.2681 11.6112 38.2711 11.6231 38.275 11.6347C38.2351 11.514 38.1924 11.3935 38.146 11.2734L38.2642 11.5996ZM21.7544 11.5244C21.8125 11.4561 21.8706 11.3876 21.9302 11.3203C21.8706 11.3876 21.8125 11.4561 21.7544 11.5244ZM22.0933 11.1396C22.1373 11.0916 22.1814 11.0435 22.2261 10.9961C22.1814 11.0435 22.1373 11.0916 22.0933 11.1396ZM22.4048 10.8105C22.46 10.7541 22.5156 10.6981 22.5718 10.6425C22.5156 10.6981 22.46 10.7541 22.4048 10.8105ZM22.7154 10.5029C22.7748 10.4458 22.8346 10.3891 22.8951 10.333C22.8346 10.3891 22.7748 10.4458 22.7154 10.5029ZM23.0738 10.1699C23.1217 10.127 23.1698 10.0843 23.2183 10.042C23.1698 10.0842 23.1217 10.127 23.0738 10.1699ZM23.4439 9.84957C23.5051 9.79841 23.5673 9.74837 23.6294 9.6982C23.5673 9.74836 23.5051 9.79841 23.4439 9.84957ZM23.7867 9.57223C23.8589 9.51564 23.9321 9.46044 24.0054 9.40524C23.9321 9.46043 23.8589 9.51565 23.7867 9.57223ZM24.1558 9.29195C24.2379 9.23182 24.3214 9.17354 24.4048 9.1152C24.3214 9.17353 24.2379 9.23183 24.1558 9.29195ZM34.4224 9.21188C34.4585 9.2329 34.4934 9.25572 34.5289 9.27731C34.5188 9.27116 34.5087 9.26485 34.4986 9.25875C34.473 9.24339 34.4473 9.22695 34.4214 9.21188H34.4224ZM24.525 9.03024C24.6138 8.9695 24.7042 8.91114 24.7945 8.8525C24.7042 8.91114 24.6138 8.9695 24.525 9.03024ZM33.4078 8.76266C33.4695 8.78183 33.5388 8.80565 33.6119 8.83199C33.5386 8.80556 33.4687 8.78186 33.4068 8.76266L33.2017 8.70211L33.4078 8.76266ZM26.1666 8.0693C25.7468 8.27641 25.3371 8.50677 24.94 8.75777C25.2006 8.59305 25.4662 8.43621 25.7369 8.29C25.8784 8.21356 26.0216 8.14037 26.1656 8.0693C26.3062 7.99991 26.4487 7.9325 26.5923 7.86813C26.4489 7.93243 26.307 7.99999 26.1666 8.0693ZM32.3101 8.51168C32.356 8.51873 32.402 8.52527 32.4478 8.53317C32.402 8.52527 32.356 8.51873 32.3101 8.51168ZM29.9576 8.49899C29.9308 8.50263 29.9042 8.50681 29.8775 8.5107C29.9042 8.50681 29.9308 8.50263 29.9576 8.49899ZM31.9 8.45992C31.9452 8.46443 31.9905 8.46927 32.0357 8.47457C31.9905 8.46927 31.9452 8.46442 31.9 8.45992ZM30.3687 8.45309C30.3342 8.45615 30.2997 8.46035 30.2652 8.46383C30.2997 8.46035 30.3342 8.45615 30.3687 8.45309ZM30.7769 8.42672C30.7505 8.42778 30.7242 8.42932 30.6978 8.43063C30.7242 8.42932 30.7505 8.42778 30.7769 8.42672ZM31.1021 8.42086C31.1298 8.42084 31.1574 8.4206 31.1851 8.42086C31.1574 8.4206 31.1298 8.42084 31.1021 8.42086ZM26.7623 7.79586C26.8486 7.75867 26.9347 7.72079 27.022 7.68551C26.9347 7.7208 26.8486 7.75866 26.7623 7.79586ZM27.2037 7.6152C27.2919 7.58113 27.3801 7.54665 27.4693 7.51461C27.3801 7.54665 27.2919 7.58113 27.2037 7.6152ZM27.6441 7.45504C27.7384 7.42278 27.833 7.39119 27.9283 7.36129C27.833 7.3912 27.7384 7.42277 27.6441 7.45504ZM33.8697 7.26949L33.8707 7.27047L33.8697 7.26949ZM28.1168 7.30465C28.1947 7.28162 28.2727 7.25866 28.3511 7.23727C28.2727 7.25867 28.1947 7.28161 28.1168 7.30465ZM28.6177 7.16891C28.6837 7.15262 28.7497 7.13614 28.816 7.12106C28.7497 7.13615 28.6837 7.15262 28.6177 7.16891ZM29.0748 7.06637C29.1417 7.05282 29.2087 7.03959 29.2759 7.02731C29.2087 7.0396 29.1417 7.05282 29.0748 7.06637ZM29.5377 6.98238C29.6104 6.97094 29.6833 6.96008 29.7564 6.95016C29.6833 6.96008 29.6104 6.97094 29.5377 6.98238ZM30.0054 6.91988C30.0873 6.91077 30.1693 6.90261 30.2515 6.89547C30.1693 6.90261 30.0873 6.91077 30.0054 6.91988ZM31.9341 6.89254C32.0038 6.89857 32.0734 6.90738 32.1431 6.915C32.0733 6.90738 32.0038 6.89857 31.9341 6.89254ZM30.4507 6.87985C30.5554 6.87284 30.6602 6.86793 30.7652 6.86422C30.6602 6.86793 30.5554 6.87283 30.4507 6.87985ZM31.4488 6.86324C31.5129 6.86549 31.577 6.86946 31.6412 6.87301C31.577 6.86946 31.5129 6.86549 31.4488 6.86324ZM31.2037 6.85934C31.1143 6.85849 31.0252 6.85774 30.9361 6.85934C31.0252 6.85774 31.1143 6.85849 31.2037 6.85934Z" fill="white" fill-opacity="0.3"/>
</g>
</g>
</g>
</svg>
