<svg width="50" height="50" viewBox="0 0 50 50" fill="none" xmlns="http://www.w3.org/2000/svg">
<rect width="50" height="50" fill="#BEBEBE"/>
<g id="Decorate Mode">
<path d="M-180.281 -949.034V-948.034H2839.72V-949.034V-950.034H-180.281V-949.034ZM2841.72 -947.034H2840.72V2590.97H2841.72H2842.72V-947.034H2841.72ZM2839.72 2592.97V2591.97H-180.281V2592.97V2593.97H2839.72V2592.97ZM-182.281 2590.97H-181.281V-947.034H-182.281H-183.281V2590.97H-182.281ZM-180.281 2592.97V2591.97C-180.834 2591.97 -181.281 2591.52 -181.281 2590.97H-182.281H-183.281C-183.281 2592.62 -181.938 2593.97 -180.281 2593.97V2592.97ZM2841.72 2590.97H2840.72C2840.72 2591.52 2840.27 2591.97 2839.72 2591.97V2592.97V2593.97C2841.38 2593.97 2842.72 2592.62 2842.72 2590.97H2841.72ZM2839.72 -949.034V-948.034C2840.27 -948.034 2840.72 -947.587 2840.72 -947.034H2841.72H2842.72C2842.72 -948.691 2841.38 -950.034 2839.72 -950.034V-949.034ZM-180.281 -949.034V-950.034C-181.938 -950.034 -183.281 -948.691 -183.281 -947.034H-182.281H-181.281C-181.281 -947.587 -180.834 -948.034 -180.281 -948.034V-949.034Z" fill="black" fill-opacity="0.1"/>
<g id="Stickers">
<rect x="-128.272" y="-76.5342" width="374" height="551" rx="4.5" stroke="#9747FF" stroke-dasharray="10 5"/>
<g id="Property 1=bumblebee">
<g id="Frame 120">
<g id="Vector">
<path d="M29.2735 14.4336C29.6074 14.4124 29.9676 14.4409 30.24 14.5904C30.296 14.6172 30.3621 14.6633 30.4172 14.7152C30.4464 14.7428 30.4766 14.7762 30.5013 14.8135C30.5244 14.8484 30.5496 14.8965 30.5567 14.954C30.5765 15.1046 30.5443 15.2383 30.4553 15.3401C30.3712 15.4361 30.2552 15.482 30.1491 15.5042C29.9395 15.5479 29.6916 15.5144 29.5394 15.4848C28.8516 15.3511 28.2921 15.4292 27.8106 15.6755C27.3663 15.9028 26.9753 16.2801 26.6094 16.7962C27.4024 17.2869 27.9407 17.9834 28.019 18.9661C28.2794 19.1791 28.4707 19.363 28.6914 19.5946C28.8669 19.4899 29.0754 19.3433 29.2437 19.231L29.3748 19.1432C29.681 18.9386 29.9904 18.7386 30.3027 18.5439C32.1823 17.3866 34.3478 16.2148 36.4877 15.5893L36.4903 15.5888C37.0205 15.4441 37.6655 15.3062 38.3059 15.2779C38.9442 15.2498 39.596 15.3293 40.1257 15.6369C40.881 16.0755 41.1942 16.7858 41.2234 17.5303C41.2523 18.2686 41.004 19.0474 40.633 19.6641C39.7218 21.1788 38.5126 21.9657 36.9068 22.4353C37.2254 22.7696 37.4694 23.1046 37.5943 23.6312L37.5948 23.6328C37.7289 24.2234 37.6226 24.8432 37.2997 25.3553C36.8961 26.0021 36.1108 26.4379 35.4041 26.5879C33.4976 26.9919 31.815 26.3179 30.2771 25.3977C30.3355 25.5845 30.3872 25.7733 30.4318 25.964L30.4475 26.033C30.9369 28.2382 30.4858 30.7973 29.2709 32.6981C28.5872 33.7603 27.7263 34.7109 26.5242 35.2394C25.0722 35.8778 23.7093 35.5314 22.5963 34.7337C21.4886 33.9396 20.6178 32.6931 20.1161 31.4944C19.3217 29.596 19.0976 27.374 19.7306 25.3893C18.55 26.1426 17.3327 26.6346 15.8611 26.6981L15.7828 26.7007C14.8335 26.7318 13.8013 26.5243 13.0659 25.8209C12.6167 25.3967 12.3606 24.8071 12.3575 24.1892V24.1484C12.3589 23.4011 12.6645 22.91 13.0947 22.4316C12.3407 22.2285 11.6573 21.9328 11.0017 21.4619C9.93062 20.6926 9.02751 19.5117 8.81302 18.162C8.70775 17.4993 8.8102 16.8076 9.22473 16.2419C9.62099 15.7012 10.2284 15.4122 10.859 15.3171C11.6147 15.2032 12.5142 15.3213 13.4635 15.5794C14.4152 15.8381 15.4297 16.2412 16.4212 16.709C18.3344 17.6116 20.1758 18.7617 21.3351 19.604C21.549 19.367 21.7481 19.1866 21.9876 18.9807C22.0518 17.9758 22.6481 17.2805 23.4312 16.7847C23.2342 16.4946 22.9806 16.2306 22.7065 16.0078C22.0425 15.468 21.454 15.4128 20.9537 15.4467C20.8262 15.4553 20.7042 15.4698 20.5853 15.4843C20.4681 15.4987 20.3508 15.5135 20.241 15.5209C20.0314 15.5351 19.8132 15.5259 19.6255 15.4117L19.6078 15.4002C19.5326 15.3512 19.4425 15.2647 19.4301 15.1259C19.4182 14.9912 19.494 14.8724 19.5383 14.8135C19.7335 14.5536 20.0228 14.4818 20.2703 14.4457L20.2739 14.4451L20.2771 14.4446C20.5328 14.4183 20.8727 14.4295 21.1276 14.4801C22.4679 14.7464 23.3674 15.4294 24.1324 16.4765C24.4645 16.3898 24.7455 16.3527 25.0279 16.3574C25.3068 16.362 25.5814 16.4074 25.8999 16.4801C26.4783 15.6021 27.3372 14.9441 28.3382 14.6144C28.59 14.5311 28.9321 14.4553 29.2735 14.4336ZM26.3685 35.1229C26.3763 35.1197 26.3843 35.1173 26.392 35.114L26.4344 35.0958C26.4125 35.1052 26.3904 35.1139 26.3685 35.1229ZM21.2598 33.1616C20.8516 32.6144 20.5159 32.0172 20.2703 31.4301L20.3659 31.6495C20.6003 32.165 20.9024 32.6825 21.2598 33.1616ZM29.0394 32.7462C29.0483 32.7328 29.0577 32.7194 29.0666 32.706L29.1303 32.6083C29.1005 32.6546 29.0699 32.7004 29.0394 32.7462ZM15.777 26.5335C15.7331 26.535 15.689 26.5352 15.6448 26.5356C15.6745 26.5354 15.7041 26.5358 15.7337 26.5351L15.777 26.5335ZM35.239 26.4494C35.2667 26.4442 35.2948 26.4399 35.3226 26.4342L35.3696 26.4243C35.3261 26.4335 35.2823 26.4413 35.239 26.4494ZM13.3977 25.8836C13.3697 25.8621 13.3414 25.841 13.3141 25.8183L13.312 25.8167C13.3399 25.84 13.369 25.8616 13.3977 25.8836ZM37.4465 23.7435C37.4434 23.7275 37.441 23.7114 37.4376 23.6955L37.4318 23.6699C37.4374 23.6943 37.4418 23.719 37.4465 23.7435ZM28.6601 19.8041L28.6094 19.7503C28.5767 19.7157 28.5441 19.683 28.5128 19.6505L28.6601 19.8041ZM40.4899 19.5779C40.4688 19.6128 40.4469 19.6472 40.4256 19.6813C40.4321 19.6709 40.4395 19.661 40.446 19.6505L40.4899 19.5779ZM25.9767 16.6698L25.9088 16.6541C25.8907 16.6499 25.8727 16.6462 25.8549 16.6421C25.8946 16.6511 25.9353 16.6599 25.9767 16.6698ZM24.0644 16.6682L24.0289 16.6181C24.006 16.5862 23.9821 16.5552 23.9589 16.524L24.0644 16.6682ZM9.35953 16.3407L9.34176 16.3652C9.33172 16.3793 9.32214 16.3937 9.31251 16.408C9.32775 16.3854 9.34326 16.3628 9.35953 16.3407ZM40.1173 15.8292C40.1029 15.82 40.0888 15.8099 40.074 15.8009L40.0416 15.7816C40.0676 15.7967 40.0925 15.8134 40.1173 15.8292ZM10.8841 15.4828L10.8282 15.4916C10.8195 15.4931 10.8107 15.4948 10.8021 15.4963C10.8293 15.4914 10.8567 15.4869 10.8841 15.4828ZM19.6569 14.9347C19.6542 14.9387 19.6517 14.9431 19.649 14.9472C19.6565 14.9355 19.6643 14.9241 19.672 14.9138L19.6569 14.9347ZM28.3435 14.7889C28.3107 14.8001 28.2782 14.812 28.2458 14.8239C28.2937 14.8063 28.3419 14.7893 28.3905 14.7732L28.3435 14.7889ZM21.2457 14.6776C21.2163 14.6709 21.1867 14.663 21.1569 14.6567L21.0952 14.6442C21.1462 14.6543 21.1961 14.6663 21.2457 14.6776Z" fill="#020101"/>
<path d="M29.1885 13.0991C29.6059 13.0726 30.2758 13.0846 30.8834 13.4179L30.8823 13.4194C31.0541 13.5104 31.21 13.625 31.3353 13.7434C31.3963 13.801 31.47 13.8778 31.5433 13.9732L31.6159 14.0746C31.6965 14.1963 31.8382 14.4411 31.8823 14.7794L31.8829 14.781C31.8833 14.7845 31.884 14.7879 31.8844 14.7914C31.9402 15.2355 31.8526 15.7744 31.4623 16.2209C31.3811 16.3136 31.2943 16.3923 31.2073 16.4592C32.7358 15.6035 34.4166 14.8017 36.1122 14.3061L36.1682 14.2893L36.1896 14.2857C36.7599 14.1324 37.4904 13.9753 38.2471 13.9419C39.0062 13.9084 39.953 13.9904 40.7972 14.4806C42.0251 15.1936 42.5167 16.3724 42.5601 17.4785C42.6011 18.5288 42.255 19.5628 41.779 20.3542C40.9927 21.6611 40.0064 22.5255 38.839 23.1139C38.8434 23.1288 38.8483 23.1437 38.8526 23.1588L38.8636 23.1797L38.8991 23.3369C38.8996 23.3391 38.8997 23.3415 38.9002 23.3437L38.932 23.4749V23.4994C39.0911 24.3865 38.9136 25.3035 38.431 26.0689C37.7824 27.1043 36.6327 27.6948 35.6817 27.8965C34.332 28.1826 33.0931 28.0299 31.9764 27.6677C32.0105 29.5442 31.5329 31.4715 30.6086 33.0706V33.0925L30.3954 33.4227C29.6862 34.5244 28.7289 35.6391 27.3452 36.3313L27.0625 36.464C25.0782 37.3365 23.2163 36.8244 21.8169 35.8214C20.4636 34.8512 19.4562 33.3825 18.8822 32.011C18.323 30.6746 18.0052 29.1767 18.0275 27.6703C17.3733 27.8729 16.6758 28.0023 15.9188 28.035H15.9057L15.8274 28.0376L15.8263 28.0381C14.6937 28.0752 13.2409 27.8397 12.1413 26.7879C11.4304 26.1133 11.0251 25.1771 11.0201 24.1964V24.1463C11.0208 23.7669 11.0736 23.428 11.1633 23.1227C10.8446 22.9601 10.5307 22.7708 10.2213 22.5485C8.94565 21.6322 7.777 20.1664 7.49187 18.3724C7.34434 17.4437 7.47393 16.3689 8.146 15.4518L8.27296 15.2888C8.92501 14.5016 9.82852 14.1205 10.6596 13.9952C11.6786 13.8416 12.7846 14.0094 13.8143 14.2893C14.8652 14.5751 15.9562 15.0113 16.9919 15.4999C17.5577 15.7668 18.1165 16.0547 18.655 16.3494C18.4189 16.1365 18.1456 15.7791 18.098 15.2449C18.0393 14.5825 18.3926 14.1118 18.4684 14.0109C18.989 13.318 19.7293 13.1751 20.0541 13.1263L20.0573 13.1258L20.0985 13.119L20.1403 13.1143C20.5147 13.0758 20.9893 13.0895 21.388 13.1686C22.8011 13.4493 23.8414 14.1096 24.6785 15.0312C24.8012 15.0223 24.9246 15.0182 25.05 15.0203C25.1459 15.0219 25.2403 15.0268 25.3327 15.0344C26.0292 14.2596 26.9189 13.6738 27.9199 13.3442C28.2683 13.2291 28.7222 13.1288 29.1885 13.0991ZM26.392 35.114C26.3843 35.1173 26.3763 35.1197 26.3685 35.1229C26.3904 35.1139 26.4125 35.1052 26.4344 35.0958L26.392 35.114ZM29.0666 32.706C29.0577 32.7194 29.0483 32.7328 29.0394 32.7462C29.0699 32.7004 29.1005 32.6546 29.1303 32.6083L29.0666 32.706ZM20.4805 31.8903C20.4408 31.8102 20.4023 31.7297 20.3659 31.6495L20.3666 31.651C20.4029 31.7308 20.441 31.8106 20.4805 31.8903ZM15.777 26.5335L15.7337 26.5351C15.7041 26.5358 15.6745 26.5354 15.6448 26.5356C15.689 26.5352 15.7331 26.535 15.777 26.5335ZM35.3226 26.4342C35.2948 26.4399 35.2667 26.4442 35.239 26.4494C35.2823 26.4413 35.3261 26.4335 35.3696 26.4243L35.3226 26.4342ZM37.4376 23.6955C37.441 23.7114 37.4434 23.7275 37.4465 23.7435C37.4418 23.719 37.4374 23.6943 37.4318 23.6699L37.4376 23.6955ZM28.6094 19.7503L28.6601 19.8041L28.5128 19.6505C28.5441 19.683 28.5767 19.7157 28.6094 19.7503ZM40.4899 19.5779L40.446 19.6505C40.4395 19.661 40.4321 19.6709 40.4256 19.6813C40.4469 19.6472 40.4688 19.6128 40.4899 19.5779ZM30.7642 16.711C30.6346 16.7628 30.5164 16.7943 30.4226 16.8139C30.0593 16.8896 29.7042 16.8633 29.4717 16.8301L29.2841 16.7982C28.9651 16.7362 28.7469 16.7525 28.5835 16.8008C28.7895 17.0758 28.9637 17.3801 29.0944 17.7167L29.6018 17.4048C29.6088 17.4005 29.6161 17.3961 29.6232 17.3918L29.9199 17.2068H29.9293C30.2013 17.0421 30.4794 16.8753 30.7642 16.711ZM19.3817 16.758C19.9306 17.0755 20.4485 17.3956 20.9199 17.7016C21.0531 17.3704 21.2292 17.0736 21.4324 16.8071C21.431 16.8067 21.4296 16.8064 21.4282 16.8061C21.3235 16.7785 21.2082 16.7704 21.0442 16.7815C20.9564 16.7875 20.8661 16.7978 20.7475 16.8123C20.6435 16.8251 20.4854 16.8453 20.3316 16.8557C20.133 16.8692 19.7759 16.8821 19.3817 16.758ZM24.0289 16.6181L24.0644 16.6682L23.9589 16.524C23.9821 16.5552 24.006 16.5862 24.0289 16.6181ZM9.35953 16.3407C9.34326 16.3628 9.32775 16.3854 9.31251 16.408C9.32214 16.3937 9.33172 16.3793 9.34176 16.3652L9.35953 16.3407ZM41.9963 15.9513C41.9969 15.9524 41.9976 15.9533 41.9979 15.9539L41.9989 15.956L41.9963 15.9513ZM40.074 15.8009C40.0888 15.8099 40.1029 15.82 40.1173 15.8292C40.0925 15.8134 40.0676 15.7967 40.0416 15.7816L40.074 15.8009ZM20.6518 15.5459L20.7987 15.63C20.8109 15.6086 20.8197 15.5915 20.8248 15.5814C20.8295 15.5719 20.8326 15.5652 20.8316 15.5673L20.6785 15.4947C20.6694 15.5139 20.6604 15.5309 20.6518 15.5459ZM20.5076 15.4936L20.6356 15.5751C20.632 15.5809 20.6284 15.5861 20.6252 15.5908L20.4857 15.4962C20.493 15.4954 20.5003 15.4945 20.5076 15.4936ZM10.8021 15.4963C10.8107 15.4948 10.8195 15.4931 10.8282 15.4916L10.8841 15.4828C10.8567 15.4869 10.8293 15.4914 10.8021 15.4963ZM19.649 14.9472C19.6517 14.9431 19.6542 14.9387 19.6569 14.9347L19.672 14.9138C19.6643 14.9241 19.6565 14.9355 19.649 14.9472ZM28.2458 14.8239C28.2782 14.812 28.3107 14.8001 28.3435 14.7889L28.3905 14.7732C28.3419 14.7893 28.2937 14.8063 28.2458 14.8239ZM21.1569 14.6567C21.1867 14.663 21.2163 14.6709 21.2457 14.6776C21.1961 14.6663 21.1462 14.6543 21.0952 14.6442L21.1569 14.6567ZM18.5097 14.2465C18.5094 14.2471 18.5094 14.2478 18.5092 14.2481C18.5094 14.2477 18.51 14.2462 18.5108 14.2449C18.5123 14.2424 18.5159 14.2371 18.5202 14.2303C18.5149 14.2385 18.511 14.2443 18.5097 14.2465ZM12.3575 24.1892C12.3606 24.8071 12.6167 25.3967 13.0659 25.8209C13.8013 26.5243 14.8335 26.7318 15.7828 26.7007L15.8611 26.6981C17.3327 26.6346 18.55 26.1426 19.7306 25.3893C19.0976 27.374 19.3217 29.596 20.1161 31.4944C20.6178 32.6931 21.4886 33.9396 22.5963 34.7337C23.6745 35.5065 24.9875 35.8562 26.3886 35.2968L26.5242 35.2394C27.7263 34.7109 28.5872 33.7603 29.2709 32.6981C30.4858 30.7973 30.9369 28.2382 30.4475 26.033L30.4318 25.964C30.3872 25.7733 30.3355 25.5845 30.2771 25.3977C31.815 26.3179 33.4976 26.9919 35.4041 26.5879C36.1108 26.4379 36.8961 26.0021 37.2997 25.3553C37.6226 24.8432 37.7289 24.2234 37.5948 23.6328L37.5943 23.6312C37.4694 23.1046 37.2254 22.7696 36.9068 22.4353C38.5126 21.9657 39.7218 21.1788 40.633 19.6641C40.9808 19.086 41.2208 18.3658 41.2257 17.6697L41.2234 17.5303C41.1942 16.7858 40.881 16.0755 40.1257 15.6369C39.596 15.3293 38.9442 15.2498 38.3059 15.2779L38.0658 15.294C37.5061 15.3414 36.9542 15.4622 36.4903 15.5888L36.4877 15.5893C34.3478 16.2148 32.1823 17.3866 30.3027 18.5439C29.9904 18.7386 29.681 18.9386 29.3748 19.1432L29.2437 19.231C29.0754 19.3433 28.8669 19.4899 28.6914 19.5946C28.4707 19.363 28.2794 19.1791 28.019 18.9661C27.9407 17.9834 27.4024 17.2869 26.6094 16.7962C26.9753 16.2801 27.3663 15.9028 27.8106 15.6755C28.2921 15.4292 28.8516 15.3511 29.5394 15.4848C29.6725 15.5107 29.879 15.5401 30.0688 15.5177L30.1491 15.5042C30.2419 15.4848 30.3426 15.4475 30.4226 15.374L30.4553 15.3401C30.5443 15.2383 30.5765 15.1046 30.5567 14.954C30.5496 14.8965 30.5244 14.8484 30.5013 14.8135C30.4766 14.7762 30.4464 14.7428 30.4172 14.7152C30.3759 14.6763 30.3284 14.641 30.2836 14.6143L30.24 14.5904C29.9676 14.4409 29.6074 14.4124 29.2735 14.4336C28.9321 14.4553 28.59 14.5311 28.3382 14.6144C27.3372 14.9441 26.4783 15.6021 25.8999 16.4801C25.661 16.4256 25.4468 16.3869 25.237 16.3688L25.0279 16.3574C24.7455 16.3527 24.4645 16.3898 24.1324 16.4765C23.3674 15.4294 22.4679 14.7464 21.1276 14.4801C20.8727 14.4295 20.5328 14.4183 20.2771 14.4446L20.2739 14.4451L20.2703 14.4457C20.0228 14.4818 19.7335 14.5536 19.5383 14.8135C19.494 14.8724 19.4182 14.9912 19.4301 15.1259C19.4425 15.2647 19.5326 15.3512 19.6078 15.4002L19.6255 15.4117L19.6973 15.4503C19.819 15.506 19.9507 15.5244 20.0829 15.526L20.241 15.5209C20.318 15.5157 20.3987 15.5065 20.4805 15.4968L20.6194 15.5997C20.6213 15.597 20.6231 15.5939 20.6252 15.5908L20.7637 15.6849C20.7679 15.6786 20.7723 15.6733 20.7757 15.6681C20.7763 15.6671 20.7766 15.6659 20.7772 15.665L20.6356 15.5751L20.5076 15.4936C20.5333 15.4905 20.5596 15.4875 20.5853 15.4843C20.6044 15.482 20.6237 15.4803 20.643 15.478C20.6698 15.4747 20.6973 15.4716 20.7245 15.4685L20.8519 15.5213C20.8603 15.501 20.8683 15.4784 20.8765 15.4539C20.902 15.4517 20.9277 15.4485 20.9537 15.4467C21.454 15.4128 22.0425 15.468 22.7065 16.0078C22.9806 16.2306 23.2342 16.4946 23.4312 16.7847C22.6481 17.2805 22.0518 17.9758 21.9876 18.9807C21.7481 19.1866 21.549 19.367 21.3351 19.604L20.8697 19.2753C19.797 18.5354 18.3242 17.6381 16.7788 16.8813L16.4212 16.709C15.5536 16.2997 14.6684 15.9402 13.8232 15.6833L13.4635 15.5794C12.5142 15.3213 11.6147 15.2032 10.859 15.3171C10.2284 15.4122 9.62099 15.7012 9.22473 16.2419C8.8102 16.8076 8.70775 17.4993 8.81302 18.162C9.02751 19.5117 9.93062 20.6926 11.0017 21.4619C11.6573 21.9328 12.3407 22.2285 13.0947 22.4316C12.6645 22.91 12.3589 23.4011 12.3575 24.1484V24.1892Z" fill="#E8E7E7"/>
<path d="M32.6777 14.674C32.6784 14.6793 32.6798 14.6861 32.6808 14.6938C32.6843 14.7224 32.6866 14.751 32.6871 14.7795C32.6873 14.7816 32.6869 14.7837 32.6871 14.7858C33.7156 14.2942 34.7917 13.8564 35.8819 13.5373L35.9384 13.5206L36.0052 13.5049C36.601 13.3458 37.3844 13.1768 38.2118 13.1403C39.0434 13.1036 40.167 13.1873 41.1998 13.787C42.7126 14.6655 43.3095 16.126 43.3614 17.4468C43.4098 18.6846 43.005 19.8723 42.466 20.7681C41.7247 22.0002 40.811 22.8865 39.7476 23.5273C39.8914 24.5577 39.6682 25.61 39.1092 26.4965C38.3135 27.765 36.9455 28.4483 35.8485 28.6811C35.8462 28.6816 35.8435 28.6817 35.8412 28.6822C34.7367 28.9153 33.702 28.883 32.7477 28.6947C32.6264 30.332 32.1521 31.9606 31.3571 33.3721C31.337 33.426 31.3144 33.479 31.2829 33.5278L31.0698 33.8579L31.0687 33.8569C30.3188 35.0218 29.2665 36.2673 27.7046 37.0487C27.6986 37.0516 27.6918 37.0552 27.6858 37.0581L27.4037 37.1907C27.3979 37.1935 27.3918 37.1955 27.3859 37.1981C25.0809 38.2115 22.9189 37.5991 21.3493 36.474C19.8487 35.3982 18.7591 33.7959 18.1419 32.3211C17.6698 31.1931 17.3573 29.955 17.258 28.6853C16.8403 28.7641 16.4061 28.8173 15.9531 28.8368C15.9417 28.8373 15.93 28.8378 15.9186 28.8378H15.9061L15.8538 28.8399C14.6125 28.8805 12.9056 28.629 11.587 27.3679C11.5773 27.3586 11.568 27.3484 11.5588 27.3386C10.7087 26.516 10.2233 25.3854 10.2173 24.2001V24.1448C10.2177 23.9332 10.2331 23.7304 10.2591 23.5357C10.0893 23.432 9.92075 23.3205 9.75344 23.2003C8.35583 22.1964 7.02732 20.5597 6.6996 18.4989C6.52698 17.4116 6.67215 16.1063 7.49884 14.978L7.51347 14.9592L7.63989 14.7962L7.65556 14.7774C8.46339 13.8022 9.56603 13.3488 10.5402 13.2019C11.7169 13.0245 12.9464 13.2223 14.0244 13.5153C15.127 13.8151 16.2555 14.2669 17.3113 14.7638C17.4032 14.0864 17.7494 13.6313 17.8263 13.5289C17.8299 13.5242 17.8342 13.52 17.8378 13.5153C18.5506 12.5774 19.5479 12.3921 19.9263 12.3348L19.9274 12.3337L20.0088 12.3212L20.0506 12.317L20.058 12.3159C20.5038 12.2701 21.0599 12.2855 21.5447 12.3818C22.994 12.6697 24.1072 13.3206 25.006 14.2153C25.7497 13.4777 26.6587 12.916 27.668 12.5834C28.0739 12.4493 28.5959 12.3326 29.138 12.2982C29.6059 12.2685 30.4611 12.2707 31.2693 12.714C31.285 12.7226 31.2993 12.7337 31.3142 12.7433C31.5251 12.8612 31.7165 13.0022 31.8763 13.1518C31.8796 13.1548 31.8835 13.1571 31.8868 13.1601C31.9299 13.2008 31.9773 13.2482 32.0268 13.3022L32.1803 13.485L32.195 13.5059L32.2681 13.6073C32.2741 13.6156 32.2802 13.6238 32.2859 13.6324C32.4012 13.8065 32.6082 14.1653 32.6756 14.6667C32.6759 14.6692 32.6773 14.6715 32.6777 14.674ZM29.2735 14.4336C29.6074 14.4124 29.9676 14.4409 30.24 14.5904L30.2836 14.6143C30.3284 14.641 30.3759 14.6763 30.4172 14.7152C30.4464 14.7428 30.4766 14.7762 30.5013 14.8135C30.5244 14.8484 30.5496 14.8965 30.5567 14.954C30.5765 15.1046 30.5443 15.2383 30.4553 15.3401L30.4226 15.374L30.3593 15.4231C30.293 15.4656 30.2187 15.4896 30.1491 15.5042L30.0688 15.5177L29.9247 15.5255C29.8765 15.5255 29.8287 15.523 29.7826 15.5192L29.5394 15.4848C28.8516 15.3511 28.2921 15.4292 27.8106 15.6755C27.3663 15.9028 26.9753 16.2801 26.6094 16.7962C27.4024 17.2869 27.9407 17.9834 28.019 18.9661C28.2794 19.1791 28.4707 19.363 28.6914 19.5946C28.8669 19.4899 29.0754 19.3433 29.2437 19.231L29.3748 19.1432C29.5279 19.0409 29.6823 18.9404 29.8369 18.8405L30.3027 18.5439C32.1823 17.3866 34.3478 16.2148 36.4877 15.5893L36.4903 15.5888C36.9542 15.4622 37.5061 15.3414 38.0658 15.294L38.3059 15.2779C38.9442 15.2498 39.596 15.3293 40.1257 15.6369C40.881 16.0755 41.1942 16.7858 41.2234 17.5303L41.2257 17.6697C41.2208 18.3658 40.9808 19.086 40.633 19.6641C39.7218 21.1788 38.5126 21.9657 36.9068 22.4353C37.1855 22.7277 37.4073 23.0213 37.5421 23.4427L37.5943 23.6312L37.5948 23.6328C37.7289 24.2234 37.6226 24.8432 37.2997 25.3553C36.8961 26.0021 36.1108 26.4379 35.4041 26.5879C33.4976 26.9919 31.815 26.3179 30.2771 25.3977C30.3355 25.5845 30.3872 25.7733 30.4318 25.964L30.4475 26.033C30.9369 28.2382 30.4858 30.7973 29.2709 32.6981L29.2707 32.6993C28.587 33.7613 27.7261 34.7109 26.5242 35.2394L26.3886 35.2968C25.0751 35.8211 23.8392 35.5465 22.8015 34.8735L22.5963 34.7337C21.4886 33.9396 20.6178 32.6931 20.1161 31.4944C19.3217 29.596 19.0976 27.374 19.7306 25.3893C18.55 26.1426 17.3327 26.6346 15.8611 26.6981L15.7828 26.7007C14.8335 26.7318 13.8013 26.5243 13.0659 25.8209C12.6167 25.3967 12.3606 24.8071 12.3575 24.1892V24.1484C12.3589 23.4011 12.6645 22.91 13.0947 22.4316C12.4352 22.254 11.8297 22.0057 11.2495 21.6311L11.0017 21.4619C9.99758 20.7406 9.14103 19.6579 8.86121 18.4132L8.81302 18.162C8.70775 17.4993 8.8102 16.8076 9.22473 16.2419C9.62099 15.7012 10.2284 15.4122 10.859 15.3171C11.6147 15.2032 12.5142 15.3213 13.4635 15.5794L13.8232 15.6833C14.6684 15.9402 15.5536 16.2997 16.4212 16.709L16.7788 16.8813C18.3242 17.6381 19.797 18.5354 20.8697 19.2753L21.3351 19.604C21.4419 19.4856 21.5459 19.3818 21.6523 19.2814L21.9876 18.9807C22.0518 17.9758 22.6481 17.2805 23.4312 16.7847C23.2342 16.4946 22.9806 16.2306 22.7065 16.0078C22.0425 15.468 21.454 15.4128 20.9537 15.4467C20.9277 15.4485 20.902 15.4517 20.8765 15.4539C20.8683 15.4784 20.8603 15.501 20.8519 15.5213L20.7245 15.4685C20.6973 15.4716 20.6698 15.4747 20.643 15.478C20.6237 15.4803 20.6044 15.482 20.5853 15.4843C20.5596 15.4875 20.5333 15.4905 20.5076 15.4936L20.6356 15.5751L20.7772 15.665L20.7757 15.6681C20.7723 15.6733 20.7679 15.6786 20.7637 15.6849L20.6252 15.5908C20.6231 15.5939 20.6213 15.597 20.6194 15.5997L20.4805 15.4968C20.3987 15.5065 20.318 15.5157 20.241 15.5209L20.0829 15.526C19.9507 15.5244 19.819 15.506 19.6973 15.4503L19.6255 15.4117L19.6078 15.4002C19.5326 15.3512 19.4425 15.2647 19.4301 15.1259C19.4182 14.9912 19.494 14.8724 19.5383 14.8135C19.7335 14.5536 20.0228 14.4818 20.2703 14.4457L20.2739 14.4451L20.2771 14.4446C20.5328 14.4183 20.8727 14.4295 21.1276 14.4801C22.4679 14.7464 23.3674 15.4294 24.1324 16.4765C24.4645 16.3898 24.7455 16.3527 25.0279 16.3574L25.237 16.3688C25.4468 16.3869 25.661 16.4256 25.8999 16.4801C26.4783 15.6021 27.3372 14.9441 28.3382 14.6144C28.59 14.5311 28.9321 14.4553 29.2735 14.4336ZM26.3685 35.1229C26.3763 35.1197 26.3843 35.1173 26.392 35.114L26.4344 35.0958C26.4125 35.1052 26.3904 35.1139 26.3685 35.1229ZM38.3424 16.0792L38.1334 16.0938L37.7625 16.1367C37.3932 16.1904 37.0299 16.2739 36.7021 16.3634C34.6703 16.9591 32.5823 18.0828 30.7239 19.2271C30.4203 19.4163 30.1196 19.6118 29.8213 19.8111L29.8202 19.81L29.6907 19.8978L29.6896 19.8988C29.6164 19.9477 29.5151 20.0161 29.4075 20.0879C29.3662 20.1971 29.3034 20.2999 29.2132 20.3857C28.8931 20.69 28.3865 20.6784 28.0807 20.3596L27.9334 20.206C27.8143 20.0816 27.744 19.9287 27.7203 19.7703C27.6543 19.7112 27.5873 19.6497 27.5113 19.5875C27.3424 19.4493 27.2373 19.2482 27.2198 19.0306C27.1662 18.3582 26.8154 17.8678 26.1876 17.4792C26.1024 17.4264 26.0294 17.3579 25.9703 17.2796C25.8884 17.2868 25.8046 17.2818 25.7216 17.2629C25.5054 17.2135 25.3327 17.1829 25.1763 17.1689L25.0091 17.1605C24.9045 17.1591 24.7966 17.1651 24.6769 17.1825C24.635 17.2322 24.5888 17.2796 24.5337 17.3193C24.3383 17.46 24.1015 17.4972 23.8839 17.4468C23.8761 17.4521 23.8689 17.4584 23.8609 17.4635C23.2082 17.8767 22.8312 18.3718 22.789 19.0327C22.7751 19.2481 22.6747 19.4489 22.5111 19.5896C22.2817 19.7867 22.112 19.9421 21.9312 20.1423C21.6589 20.4439 21.2036 20.4939 20.8718 20.2593L20.4142 19.9354L20.0047 19.6586C19.0103 18.999 17.7461 18.248 16.4305 17.6035L16.0795 17.4353L15.4464 17.148C14.8146 16.872 14.1881 16.633 13.5898 16.4511L13.2471 16.3519C12.5573 16.1648 11.9409 16.0705 11.4219 16.0771C11.3104 16.1783 11.1701 16.2502 11.0103 16.2756L10.9539 16.285L10.9528 16.284C10.9505 16.2844 10.9476 16.2855 10.9445 16.2861C10.7906 16.3137 10.6398 16.2934 10.5046 16.239C10.3752 16.2919 10.2577 16.359 10.1525 16.4375C10.1368 16.5682 10.092 16.6974 10.0094 16.8116L10.0063 16.8147C9.99923 16.8243 9.99095 16.8374 9.97807 16.8565C9.89629 16.9778 9.7853 17.0663 9.66255 17.126C9.57209 17.4 9.55428 17.7093 9.60613 18.036C9.77828 19.1192 10.5218 20.1298 11.47 20.8109C12.0342 21.2161 12.6261 21.4747 13.3036 21.6572C13.5728 21.7297 13.7855 21.9372 13.8646 22.2046C13.9436 22.472 13.8776 22.7611 13.6912 22.9684C13.331 23.3689 13.1614 23.677 13.1604 24.15V24.1855L13.1688 24.3339C13.2004 24.6282 13.3211 24.9058 13.5146 25.13L13.617 25.2376L13.6212 25.2418C14.0175 25.6206 14.5684 25.8196 15.182 25.8801C15.3111 25.7889 15.4686 25.7352 15.6386 25.7339C15.6854 25.7335 15.7194 25.7328 15.7514 25.7318C15.9194 25.7264 16.0836 25.7738 16.2216 25.8655C17.3449 25.7473 18.3168 25.3401 19.2995 24.7131C19.5843 24.5316 19.9522 24.5479 20.2199 24.7539C20.4877 24.9599 20.5973 25.3116 20.4947 25.6336C19.9542 27.3284 20.108 29.2531 20.7642 30.9525C20.8975 31.0284 21.0103 31.1437 21.0839 31.291C21.0882 31.2995 21.0925 31.3094 21.0964 31.3181C21.1287 31.3889 21.1637 31.4614 21.1999 31.5344C21.2286 31.5923 21.2579 31.6495 21.2876 31.7057C21.2896 31.7094 21.291 31.7135 21.2929 31.7172C21.2958 31.7225 21.2994 31.7275 21.3023 31.7329C21.3276 31.7803 21.3537 31.8281 21.3806 31.876C21.3866 31.8867 21.3908 31.8986 21.3963 31.9095C21.4026 31.9194 21.4102 31.9284 21.4161 31.9387C21.4409 31.9818 21.4669 32.0252 21.4935 32.0693C21.5007 32.0814 21.5067 32.0946 21.5133 32.1069C21.5206 32.1176 21.5284 32.1281 21.5352 32.1393C21.5585 32.1771 21.5828 32.2165 21.6084 32.2563C21.6149 32.2665 21.6201 32.2773 21.6261 32.2877L21.6533 32.3253C21.6761 32.36 21.701 32.3961 21.7275 32.435C21.7355 32.4468 21.7421 32.4595 21.7494 32.4715C21.757 32.4813 21.7653 32.4906 21.7724 32.5008C21.8152 32.562 21.8587 32.6232 21.903 32.6826C22.0074 32.8226 22.0569 32.9853 22.0597 33.1475C22.3642 33.5036 22.7022 33.8223 23.0637 34.0815C23.8675 34.6576 24.7582 34.9187 25.7007 34.6781C25.7861 34.5497 25.91 34.4445 26.0633 34.3814C26.1012 34.3657 26.1016 34.3654 26.1155 34.3594C26.2705 34.2924 26.4358 34.2787 26.5898 34.3093C27.2345 33.9413 27.7683 33.4096 28.2395 32.7756C28.2335 32.6134 28.2744 32.4478 28.3711 32.3023C28.4113 32.242 28.3724 32.3008 28.3962 32.2647C28.4176 32.2325 28.4371 32.2039 28.4558 32.1748L28.4589 32.1706C28.5523 32.0275 28.6834 31.9238 28.8308 31.8645C29.7503 30.1926 30.0741 28.0544 29.6646 26.2082C29.663 26.2011 29.6618 26.1934 29.6604 26.1862L29.651 26.1476L29.5862 25.8916C29.563 25.8066 29.5373 25.7221 29.511 25.6377C29.4118 25.3201 29.5191 24.9734 29.7805 24.7674C30.042 24.5615 30.4039 24.5391 30.6895 24.71C31.9906 25.4885 33.28 26.0073 34.6679 25.8874C34.7612 25.7926 34.8783 25.72 35.0127 25.6806L35.0921 25.6607C35.1444 25.651 35.1731 25.6464 35.2039 25.6398L35.2854 25.6273C35.4134 25.6136 35.5387 25.631 35.6531 25.6743C36.06 25.5088 36.4269 25.2402 36.6196 24.9315L36.6206 24.9273C36.7474 24.7262 36.8217 24.4997 36.8421 24.267C36.7694 24.1831 36.7113 24.0851 36.6781 23.9734L36.6582 23.894L36.654 23.8721C36.6535 23.8693 36.6533 23.8657 36.653 23.8637C36.6523 23.8601 36.6513 23.8575 36.6509 23.8554L36.6488 23.846C36.617 23.7042 36.6285 23.5638 36.6687 23.4343C36.5856 23.283 36.4752 23.1458 36.326 22.9893C36.1329 22.7866 36.0591 22.4979 36.1316 22.2276C36.2042 21.9574 36.4127 21.7442 36.6812 21.6655C37.9433 21.2964 38.8834 20.7328 39.6264 19.7275C39.6171 19.5673 39.654 19.4027 39.7455 19.2563C39.7705 19.2164 39.7845 19.1939 39.7998 19.1686L39.8029 19.1633C39.8889 19.0211 40.0116 18.9137 40.1519 18.8489C40.3189 18.4663 40.4208 18.0509 40.4235 17.6641L40.4214 17.5617C40.407 17.1962 40.3012 16.8799 40.0819 16.6277C39.9721 16.6229 39.8621 16.5989 39.7591 16.5472L39.688 16.5075L39.664 16.4919C39.6574 16.4876 39.6527 16.4853 39.6483 16.4825C39.6429 16.479 39.6401 16.4769 39.6389 16.4762L39.6306 16.471C39.5067 16.3971 39.4127 16.2935 39.3464 16.1764C39.0614 16.0948 38.7226 16.0625 38.3424 16.0792ZM29.0394 32.7462C29.0483 32.7328 29.0577 32.7194 29.0666 32.706L29.1303 32.6083C29.1005 32.6546 29.0699 32.7004 29.0394 32.7462ZM15.6448 26.5356C15.6745 26.5354 15.7041 26.5358 15.7337 26.5351L15.777 26.5335C15.7331 26.535 15.689 26.5352 15.6448 26.5356ZM35.239 26.4494C35.2667 26.4442 35.2948 26.4399 35.3226 26.4342L35.3696 26.4243C35.3261 26.4335 35.2823 26.4413 35.239 26.4494ZM28.6601 19.8041L28.6094 19.7503L28.5696 19.7097L28.6601 19.8041ZM40.4256 19.6813C40.4321 19.6709 40.4395 19.661 40.446 19.6505L40.4899 19.5779C40.4688 19.6128 40.4469 19.6472 40.4256 19.6813ZM29.9293 17.2068H29.9199L29.6232 17.3918C29.6161 17.3961 29.6088 17.4005 29.6018 17.4048L29.0944 17.7167C28.9637 17.3801 28.7895 17.0758 28.5835 16.8008C28.7469 16.7525 28.9651 16.7362 29.2841 16.7982L29.4717 16.8301C29.7042 16.8633 30.0593 16.8896 30.4226 16.8139C30.5164 16.7943 30.6346 16.7628 30.7642 16.711C30.4794 16.8753 30.2013 17.0421 29.9293 17.2068ZM19.3817 16.758C19.7759 16.8821 20.133 16.8692 20.3316 16.8557C20.4854 16.8453 20.6435 16.8251 20.7475 16.8123C20.8661 16.7978 20.9564 16.7875 21.0442 16.7815C21.2082 16.7704 21.3235 16.7785 21.4282 16.8061C21.4296 16.8064 21.431 16.8067 21.4324 16.8071C21.2292 17.0736 21.0531 17.3704 20.9199 17.7016C20.4485 17.3956 19.9306 17.0755 19.3817 16.758ZM24.0644 16.6682L24.0289 16.6181L23.9967 16.5755L24.0644 16.6682ZM9.34176 16.3652C9.33172 16.3793 9.32214 16.3937 9.31251 16.408C9.32775 16.3854 9.34326 16.3628 9.35953 16.3407L9.34176 16.3652ZM40.1173 15.8292C40.1029 15.82 40.0888 15.8099 40.074 15.8009L40.0422 15.7825C40.0679 15.7974 40.0927 15.8135 40.1173 15.8292ZM20.8316 15.5673C20.8308 15.569 20.8282 15.5745 20.8248 15.5814C20.8197 15.5915 20.8109 15.6086 20.7987 15.63L20.6518 15.5459C20.6604 15.5309 20.6694 15.5139 20.6785 15.4947L20.8316 15.5673ZM20.4857 15.4962L20.6252 15.5908C20.6284 15.5861 20.632 15.5809 20.6356 15.5751L20.5076 15.4936C20.5003 15.4945 20.493 15.4954 20.4857 15.4962ZM10.8282 15.4916C10.8195 15.4931 10.8107 15.4948 10.8021 15.4963C10.8293 15.4914 10.8567 15.4869 10.8841 15.4828L10.8282 15.4916ZM19.6569 14.9347C19.6542 14.9387 19.6517 14.9431 19.649 14.9472C19.6565 14.9355 19.6643 14.9241 19.672 14.9138L19.6569 14.9347ZM28.3435 14.7889C28.3107 14.8001 28.2782 14.812 28.2458 14.8239C28.2937 14.8063 28.3419 14.7893 28.3905 14.7732L28.3435 14.7889ZM21.2457 14.6776C21.2163 14.6709 21.1867 14.663 21.1569 14.6567L21.0952 14.6442C21.1462 14.6543 21.1961 14.6663 21.2457 14.6776ZM32.6766 14.6604C32.6768 14.6618 32.6773 14.6642 32.6777 14.6667C32.677 14.6627 32.6758 14.6596 32.6756 14.6583L32.6766 14.6604ZM17.7396 14.02C17.7364 14.0309 17.7341 14.0402 17.7323 14.0471C17.7305 14.0541 17.729 14.0601 17.7281 14.0638C17.7276 14.0659 17.7274 14.0677 17.7271 14.0691C17.7273 14.0681 17.7278 14.0671 17.7281 14.0659C17.7295 14.0602 17.732 14.0495 17.7354 14.0367C17.739 14.0237 17.7443 14.0064 17.7511 13.9865L17.7396 14.02ZM17.8096 13.8559C17.8076 13.8596 17.8061 13.8632 17.8044 13.8664C17.8097 13.8564 17.8156 13.8446 17.8232 13.8319C17.8177 13.841 17.8133 13.8494 17.8096 13.8559ZM11.0201 24.1964C11.0251 25.1771 11.4304 26.1133 12.1413 26.7879C13.2409 27.8397 14.6937 28.0752 15.8263 28.0381L15.8274 28.0376L15.9057 28.035H15.9188L16.1996 28.0188C16.8494 27.9693 17.455 27.8476 18.0275 27.6703C18.0052 29.1767 18.323 30.6746 18.8822 32.011C19.4562 33.3825 20.4636 34.8512 21.8169 35.8214C23.2163 36.8244 25.0782 37.3365 27.0625 36.464L27.3452 36.3313C28.7289 35.6391 29.6862 34.5244 30.3954 33.4227L30.6086 33.0925V33.0706C31.5329 31.4715 32.0105 29.5442 31.9764 27.6677C33.0233 28.0073 34.1773 28.1622 35.4296 27.9446L35.6817 27.8965C36.6327 27.6948 37.7815 27.1035 38.4301 26.0682L38.431 26.0689C38.9136 25.3035 39.0911 24.3865 38.932 23.4994V23.4749L38.9002 23.3437C38.8997 23.3415 38.8996 23.3391 38.8991 23.3369L38.8636 23.1797L38.8526 23.1588C38.8483 23.1437 38.8434 23.1288 38.839 23.1139C39.9336 22.5622 40.8686 21.7678 41.6292 20.5936L41.779 20.3542C42.2252 19.6124 42.5572 18.6574 42.5632 17.6756L42.5601 17.4785C42.5193 16.4416 42.0847 15.3407 41.0191 14.6197L40.7972 14.4806C39.953 13.9904 39.0062 13.9084 38.2471 13.9419L37.9652 13.9604C37.3106 14.0149 36.6887 14.1515 36.1896 14.2857L36.1682 14.2893L36.1122 14.3061L35.4776 14.5058C33.9991 15.003 32.5448 15.7104 31.2073 16.4592C31.2943 16.3923 31.3811 16.3136 31.4623 16.2209C31.8526 15.7744 31.9402 15.2355 31.8844 14.7914C31.884 14.7879 31.8833 14.7845 31.8829 14.781L31.8823 14.7794C31.8382 14.4411 31.6965 14.1963 31.6159 14.0746L31.5433 13.9732C31.47 13.8778 31.3963 13.801 31.3353 13.7434C31.21 13.625 31.0541 13.5104 30.8823 13.4194L30.8834 13.4179C30.2758 13.0846 29.6059 13.0726 29.1885 13.0991L28.8423 13.134C28.5017 13.1803 28.1812 13.2579 27.9199 13.3442C26.9189 13.6738 26.0292 14.2596 25.3327 15.0344L25.05 15.0203C24.9246 15.0182 24.8012 15.0223 24.6785 15.0312L24.3551 14.698C23.5758 13.9503 22.6245 13.4143 21.388 13.1686C20.9893 13.0895 20.5147 13.0758 20.1403 13.1143L20.0985 13.119L20.0573 13.1258L20.0541 13.1263L19.7424 13.1873C19.4037 13.2726 18.9442 13.4569 18.5692 13.8873L18.4684 14.0109C18.3974 14.1055 18.0825 14.5245 18.0917 15.1222L18.098 15.2449C18.1456 15.7791 18.4189 16.1365 18.655 16.3494C18.3857 16.2021 18.1114 16.0563 17.8336 15.9141L16.9919 15.4999C16.0858 15.0724 15.1373 14.685 14.2104 14.4034L13.8143 14.2893C12.7846 14.0094 11.6786 13.8416 10.6596 13.9952C9.82852 14.1205 8.92501 14.5016 8.27296 15.2888L8.146 15.4518C7.47393 16.3689 7.34434 17.4437 7.49187 18.3724C7.777 20.1664 8.94565 21.6322 10.2213 22.5485C10.5307 22.7708 10.8446 22.9601 11.1633 23.1227C11.0736 23.428 11.0208 23.7669 11.0201 24.1463V24.1964Z" fill="#020101"/>
<path d="M11.1512 16.0262C14.1399 15.8361 20.1966 19.4458 22.4032 21.3841C21.7319 21.5112 20.9497 21.5974 20.2659 21.6858C19.7753 21.7456 19.2842 21.8003 18.7925 21.85C17.9406 21.9294 17.0868 21.9867 16.2319 22.0218C14.3315 22.0897 12.6332 22.0165 11.0795 20.7442C10.2275 20.0255 9.50046 19.0059 9.4173 17.8627C9.33288 16.7021 10.0666 16.1039 11.1512 16.0262Z" fill="#E8E7E7"/>
<path d="M38.4574 16.0077C39.7604 15.919 40.7927 16.5306 40.6271 17.9701C40.5022 19.0558 39.7493 20.1115 38.9025 20.7801C38.2854 21.2639 37.5743 21.614 36.8145 21.808C35.0993 22.2375 32.0169 21.9294 30.2355 21.7173C29.5191 21.6274 28.3179 21.5019 27.6387 21.3441C28.3213 20.7501 29.5013 19.9657 30.28 19.4771C32.5544 18.0499 35.7707 16.1851 38.4574 16.0077Z" fill="#E8E7E7"/>
<path d="M22.1354 21.7616C22.1927 21.7546 22.1676 21.7474 22.2146 21.7702C22.1838 21.9187 21.356 23.0021 21.2192 23.1657C20.0648 24.5469 18.4026 25.6281 16.6169 25.9481C15.6073 26.129 14.5056 26.094 13.6438 25.4845C13.3128 25.2198 13.104 24.9291 13.0133 24.4986C12.8489 23.7194 13.4157 22.8065 14.1594 22.5558C14.2867 22.5128 14.5346 22.5251 14.6716 22.5298C15.3546 22.553 16.0441 22.5156 16.7256 22.4647C18.5404 22.3297 20.3464 22.095 22.1354 21.7616Z" fill="#E8E7E7"/>
<path d="M27.8094 21.7453C27.9682 21.7603 28.288 21.8309 28.4556 21.8618C28.7911 21.9232 29.1276 21.9784 29.4652 22.0274C30.797 22.2339 32.1367 22.3859 33.4808 22.4831C33.9581 22.5113 34.4359 22.5283 34.9139 22.5343C35.1994 22.5351 35.4912 22.5176 35.7758 22.5254C36.0481 22.5328 36.3787 22.8148 36.5587 23.0058C36.8821 23.3491 37.0978 23.7941 37.073 24.2742C37.0476 24.7704 36.8529 25.0904 36.4958 25.4176C36.3982 25.4973 36.2943 25.569 36.1853 25.6322C35.2778 26.166 33.9342 26.0977 32.965 25.8434C31.0763 25.3483 29.4633 24.0915 28.3508 22.5086C28.1818 22.2681 27.9574 21.9956 27.8094 21.7453Z" fill="#E8E7E7"/>
<path d="M29.9766 27.1499C30.1361 27.296 29.9469 29.0265 29.8899 29.3365C29.6133 29.562 29.25 29.7785 28.9088 29.9365C26.2635 31.1607 22.7616 31.0638 20.3047 29.4307C20.1819 29.349 20.1546 29.2877 20.1405 29.1478C20.0356 28.4912 20.0114 27.8243 20.0682 27.1618C21.0858 28.016 22.5471 28.5188 23.8554 28.6872C25.6627 28.9198 27.6504 28.5877 29.236 27.6694C29.506 27.5129 29.7317 27.3386 29.9766 27.1499Z" fill="#E9C46A"/>
<path d="M27.9227 22.8862C28.1732 23.2166 28.4332 23.5395 28.7025 23.8545C28.852 24.0273 29.0081 24.1835 29.1553 24.3598C28.8713 24.6111 28.619 24.7691 28.2856 24.9462C27.3523 25.4388 26.3201 25.7149 25.2655 25.7542C23.8642 25.8046 21.9471 25.3273 20.9102 24.3601C21.3573 23.9131 21.7518 23.3889 22.1421 22.8902C23.397 24.5042 26.6346 24.44 27.9227 22.8862Z" fill="#E9C46A"/>
<path d="M28.6869 32.3317L28.6982 32.3362L28.7045 32.3614C28.4558 32.8492 27.9415 33.4173 27.5403 33.7853C25.7356 35.4403 23.7076 35.1871 22.1049 33.3637C21.7765 32.9976 21.614 32.7449 21.3647 32.3322C23.535 33.4415 26.531 33.5119 28.6869 32.3317Z" fill="#E9C46A"/>
<path d="M24.6773 18.7305C24.7672 18.718 24.9877 18.7111 25.0853 18.7126C26.4506 18.7329 27.3515 19.2568 28.2865 20.1771C28.0335 20.3943 27.6944 20.633 27.421 20.8349C26.7715 20.3296 26.2636 20.1168 25.4405 20.0195C24.3368 19.9235 23.4963 20.1654 22.6363 20.8455C22.3653 20.6575 22.0341 20.4041 21.7905 20.1837C22.5345 19.3519 23.5659 18.8327 24.6773 18.7305Z" fill="#E9C46A"/>
</g>
</g>
<path id="Union" d="M29.1377 12.2985C29.6056 12.2688 30.4613 12.2703 31.2695 12.7136C31.2852 12.7222 31.2995 12.7333 31.3145 12.7429C31.5253 12.8608 31.7162 13.0025 31.876 13.152C31.8792 13.155 31.8835 13.1568 31.8867 13.1599C31.9298 13.2006 31.9769 13.2484 32.0264 13.3024L32.1797 13.485L32.1943 13.5056L32.2676 13.6071C32.2735 13.6154 32.2795 13.624 32.2852 13.6325C32.4005 13.8067 32.6084 14.1654 32.6758 14.6667C32.6761 14.669 32.6773 14.6712 32.6777 14.6735C32.6785 14.6788 32.6797 14.6863 32.6807 14.694C32.6842 14.7226 32.6861 14.7515 32.6865 14.78C32.6866 14.7819 32.6863 14.7839 32.6865 14.7858C33.7151 14.2943 34.7916 13.8569 35.8818 13.5378L35.9385 13.5202L36.0049 13.5046C36.6007 13.3455 37.3846 13.1769 38.2119 13.1403C39.0434 13.1037 40.1666 13.1874 41.1992 13.7868C42.7121 14.6653 43.3094 16.1261 43.3613 17.447C43.4097 18.6847 43.0047 19.8725 42.4658 20.7682C41.7245 22.0003 40.8105 22.8863 39.7471 23.527C39.8909 24.5575 39.6683 25.6102 39.1094 26.4968C38.3138 27.7652 36.9455 28.4485 35.8486 28.6813C35.8463 28.6818 35.8431 28.6818 35.8408 28.6823C34.7364 28.9154 33.7014 28.8833 32.7471 28.695C32.6258 30.3322 32.1513 31.9604 31.3564 33.3718C31.3363 33.4256 31.3137 33.4793 31.2822 33.528L31.0693 33.8581L31.0684 33.8571C30.3185 35.022 29.2659 36.2672 27.7041 37.0485C27.6982 37.0515 27.6915 37.0555 27.6855 37.0583L27.4033 37.1911C27.3976 37.1937 27.3915 37.1954 27.3857 37.1979C25.0807 38.2114 22.9183 37.5993 21.3486 36.4743C19.8481 35.3985 18.7588 33.7958 18.1416 32.321C17.6696 31.193 17.3571 29.9548 17.2578 28.6852C16.8402 28.764 16.406 28.817 15.9531 28.8366C15.9417 28.8371 15.9294 28.8376 15.918 28.8376H15.9062L15.8535 28.8395C14.6122 28.8801 12.9055 28.629 11.5869 27.3679C11.5772 27.3585 11.5678 27.3483 11.5586 27.3386C10.7085 26.516 10.2228 25.3851 10.2168 24.1999V24.1452C10.2172 23.9337 10.2327 23.7305 10.2588 23.5358C10.089 23.4322 9.92024 23.3201 9.75293 23.1999C8.35547 22.1959 7.02691 20.5593 6.69922 18.4987C6.52665 17.4115 6.67238 16.1064 7.49902 14.9782L7.51367 14.9597L7.63965 14.7966L7.65527 14.777C8.46309 13.8019 9.56599 13.3487 10.54 13.2018C11.7167 13.0245 12.9464 13.2223 14.0244 13.5153C15.1269 13.8151 16.2558 14.2675 17.3115 14.7643C17.4034 14.0869 17.7493 13.6314 17.8262 13.529C17.8297 13.5243 17.8343 13.5199 17.8379 13.5153C18.5504 12.5778 19.5472 12.392 19.9258 12.3347L19.9268 12.3337L20.0088 12.321L20.0508 12.3171L20.0576 12.3161C20.5033 12.2703 21.0594 12.2854 21.5439 12.3815C22.9933 12.6695 24.1071 13.3207 25.0059 14.2155C25.7496 13.4779 26.6587 12.9163 27.668 12.5837C28.0739 12.4496 28.5957 12.333 29.1377 12.2985ZM24.3145 35.5026C24.347 35.509 24.3794 35.5157 24.4121 35.5212C24.396 35.5185 24.3803 35.5143 24.3643 35.5114C24.3477 35.5084 24.331 35.5059 24.3145 35.5026ZM24.0781 35.4489C24.1051 35.456 24.1321 35.4629 24.1592 35.4694C24.147 35.4665 24.1352 35.4627 24.123 35.4597C24.1081 35.4559 24.093 35.4528 24.0781 35.4489ZM26.0537 35.4108C26.0831 35.402 26.1131 35.3951 26.1426 35.3854C26.1131 35.3951 26.0831 35.402 26.0537 35.4108ZM23.8643 35.3864C23.8847 35.3931 23.9052 35.3996 23.9258 35.4059C23.9175 35.4034 23.9096 35.3997 23.9014 35.3972C23.8891 35.3933 23.8765 35.3904 23.8643 35.3864ZM23.6475 35.3093C23.663 35.3153 23.6787 35.321 23.6943 35.3268C23.6913 35.3257 23.6885 35.3241 23.6855 35.3229C23.6729 35.3182 23.66 35.3141 23.6475 35.3093ZM23.1426 35.0749C23.1382 35.0725 23.1342 35.0695 23.1299 35.0671C23.1075 35.0549 23.0847 35.0435 23.0625 35.0309C23.089 35.0459 23.1158 35.0604 23.1426 35.0749ZM22.8018 34.8737C22.8731 34.92 22.9454 34.9642 23.0186 35.0065C23.0161 35.0051 23.0141 35.003 23.0117 35.0016C22.941 34.9606 22.8707 34.9184 22.8018 34.8737ZM33.5957 28.0114C33.6155 28.0134 33.6354 28.0145 33.6553 28.0163C33.6354 28.0145 33.6155 28.0134 33.5957 28.0114ZM34.9453 28.0104C34.9746 28.0075 35.0038 28.004 35.0332 28.0007C35.0038 28.004 34.9746 28.0075 34.9453 28.0104ZM16.6172 27.9743C16.6485 27.9703 16.6798 27.9669 16.7109 27.9626C16.6798 27.9669 16.6485 27.9703 16.6172 27.9743ZM32.9795 27.9206C33.0666 27.9368 33.1539 27.9533 33.2422 27.9665C33.1539 27.9533 33.0666 27.9368 32.9795 27.9206ZM17.1074 27.8972C17.1322 27.8925 17.1569 27.8874 17.1816 27.8825C17.1569 27.8874 17.1323 27.8925 17.1074 27.8972ZM32.5947 27.8386C32.6655 27.8556 32.736 27.8743 32.8076 27.8893C32.736 27.8743 32.6655 27.8556 32.5947 27.8386ZM17.5684 27.7975C17.5899 27.7922 17.6114 27.7865 17.6328 27.7809C17.6113 27.7865 17.5899 27.7922 17.5684 27.7975ZM39.2148 22.9099C39.2324 22.8997 39.2501 22.8899 39.2676 22.8796C39.2501 22.8899 39.2324 22.8997 39.2148 22.9099ZM39.5977 22.6716C39.6192 22.6573 39.6408 22.6431 39.6621 22.6286C39.6408 22.6431 39.6192 22.6573 39.5977 22.6716ZM39.7471 22.57C39.7766 22.5492 39.8057 22.5278 39.835 22.5065C39.8057 22.5278 39.7766 22.5492 39.7471 22.57ZM39.9697 22.4069C39.9895 22.3918 40.0097 22.3773 40.0293 22.362C40.0097 22.3773 39.9895 22.3918 39.9697 22.4069ZM40.1514 22.2634C40.1751 22.2439 40.1991 22.2246 40.2227 22.2048C40.1991 22.2246 40.1751 22.2439 40.1514 22.2634ZM40.3174 22.1227C40.3466 22.0971 40.3754 22.0708 40.4043 22.0446C40.3754 22.0708 40.3466 22.0971 40.3174 22.1227ZM40.4922 21.9645C40.5185 21.9399 40.5443 21.9146 40.5703 21.8893C40.5443 21.9146 40.5185 21.9399 40.4922 21.9645ZM40.8281 21.6257C40.8659 21.585 40.9033 21.5436 40.9404 21.5016C40.9033 21.5436 40.8659 21.585 40.8281 21.6257ZM41.0078 21.4255C41.052 21.3741 41.0954 21.3215 41.1387 21.2682C41.0954 21.3215 41.052 21.3741 41.0078 21.4255ZM41.167 21.2331C41.2051 21.1856 41.2429 21.1376 41.2803 21.0886C41.2429 21.1376 41.2051 21.1856 41.167 21.2331ZM41.3242 21.03C41.3668 20.9729 41.4095 20.9152 41.4512 20.8561C41.4095 20.9152 41.3668 20.9729 41.3242 21.03ZM41.8086 20.3005C41.8563 20.2191 41.9026 20.1355 41.9473 20.0495C41.9026 20.1355 41.8563 20.2191 41.8086 20.3005ZM42.0195 19.9001C42.0459 19.8454 42.0747 19.7913 42.0996 19.735C42.0747 19.7913 42.0459 19.8454 42.0195 19.9001ZM42.166 19.5739C42.1885 19.5187 42.2115 19.4634 42.2324 19.4069C42.2115 19.4634 42.1885 19.5187 42.166 19.5739ZM42.291 19.236C42.3107 19.1772 42.3298 19.1181 42.3477 19.0583C42.3298 19.1181 42.3107 19.1772 42.291 19.236ZM42.3965 18.8806C42.4125 18.8193 42.4285 18.7581 42.4424 18.696C42.4285 18.7581 42.4125 18.8193 42.3965 18.8806ZM42.4727 18.5407C42.486 18.471 42.4994 18.4013 42.5098 18.3307C42.4994 18.4013 42.486 18.471 42.4727 18.5407ZM42.5596 17.4782C42.557 17.4137 42.5535 17.3488 42.5479 17.2839L42.5459 17.2702C42.5522 17.3397 42.5569 17.4091 42.5596 17.4782ZM42.502 16.9411C42.4971 16.9135 42.4928 16.8857 42.4873 16.8581C42.4928 16.8857 42.4971 16.9135 42.502 16.9411ZM42.4766 16.8102C42.4659 16.7594 42.4543 16.7086 42.4414 16.6579C42.4543 16.7086 42.4659 16.7594 42.4766 16.8102ZM42.4209 16.5807C42.4089 16.5374 42.3964 16.494 42.3828 16.4509C42.3964 16.494 42.4089 16.5374 42.4209 16.5807ZM31.7764 16.1472C31.5845 16.2501 31.3946 16.3547 31.207 16.4597C31.3946 16.3547 31.5845 16.2501 31.7764 16.1472ZM42.3535 16.3649C42.3418 16.3307 42.3302 16.2964 42.3174 16.2624C42.3302 16.2964 42.3418 16.3307 42.3535 16.3649ZM42.2832 16.1765C42.2685 16.1402 42.2533 16.104 42.2373 16.0681C42.2533 16.104 42.2685 16.1402 42.2832 16.1765ZM32.3428 15.8513C32.1869 15.9309 32.0323 16.0118 31.8789 16.0934C32.0323 16.0118 32.1869 15.9309 32.3428 15.8513ZM42.1963 15.9802C42.1789 15.9439 42.1613 15.9076 42.1426 15.8718C42.1613 15.9076 42.1789 15.9439 42.1963 15.9802ZM42.0947 15.7829C42.0744 15.7467 42.053 15.7111 42.0312 15.6755C42.053 15.7111 42.0744 15.7467 42.0947 15.7829ZM32.8984 15.5749C32.7727 15.6358 32.6478 15.6979 32.5234 15.7604C32.6478 15.6979 32.7727 15.6358 32.8984 15.5749ZM41.9775 15.5905C41.9604 15.5643 41.9428 15.5383 41.9248 15.5124C41.9428 15.5383 41.9604 15.5643 41.9775 15.5905ZM29.8496 15.5222C29.8863 15.5239 29.9236 15.5241 29.9609 15.5231L29.96 15.5222C29.9482 15.5225 29.9365 15.5251 29.9248 15.5251C29.9013 15.5251 29.8776 15.5232 29.8545 15.5222C29.8529 15.5221 29.8512 15.5222 29.8496 15.5222ZM29.8027 15.5202L29.8008 15.5192C29.7947 15.5188 29.7883 15.5197 29.7822 15.5192L29.8027 15.5202ZM30.2227 15.4841C30.1978 15.492 30.1728 15.4995 30.1484 15.5046C30.1727 15.4995 30.1978 15.4919 30.2227 15.4841ZM16.9443 15.4782C16.7181 15.372 16.4892 15.2687 16.2588 15.1686C16.4892 15.2687 16.7181 15.372 16.9443 15.4782ZM33.4648 15.3093C33.3479 15.3626 33.2313 15.4164 33.1152 15.4714C33.2313 15.4164 33.3479 15.3626 33.4648 15.3093ZM30.2783 15.4626C30.2753 15.4638 30.2725 15.4653 30.2695 15.4665C30.2799 15.4623 30.2905 15.4586 30.3008 15.4538C30.2935 15.4573 30.2857 15.4595 30.2783 15.4626ZM30.332 15.4362L30.3301 15.4382C30.3328 15.4367 30.3352 15.4348 30.3379 15.4333C30.336 15.4344 30.3339 15.4352 30.332 15.4362ZM41.8594 15.4206C41.8331 15.3852 41.8053 15.3508 41.7773 15.3161C41.8053 15.3508 41.8331 15.3852 41.8594 15.4206ZM37.7217 15.3337C37.7194 15.334 37.7171 15.3343 37.7148 15.3347C37.7171 15.3343 37.7194 15.334 37.7217 15.3337ZM41.7197 15.2448C41.683 15.2018 41.6449 15.1596 41.6055 15.1179C41.6449 15.1596 41.683 15.2018 41.7197 15.2448ZM34.0234 15.0632C33.9246 15.1052 33.8259 15.1477 33.7275 15.1911C33.8259 15.1477 33.9246 15.1052 34.0234 15.0632ZM41.5781 15.0886C41.5334 15.0423 41.4867 14.9973 41.4385 14.9528C41.4867 14.9973 41.5334 15.0423 41.5781 15.0886ZM18.1123 14.8474C18.1074 14.8799 18.1036 14.913 18.1006 14.947C18.1037 14.913 18.1074 14.8799 18.1123 14.8474ZM34.6641 14.8024C34.5448 14.8487 34.4253 14.8945 34.3066 14.9431C34.4253 14.8945 34.5448 14.8487 34.6641 14.8024ZM41.4043 14.9206C41.3549 14.8763 41.303 14.834 41.25 14.7917C41.303 14.834 41.3549 14.8763 41.4043 14.9206ZM15.6504 14.9147C15.6175 14.9016 15.5846 14.8886 15.5518 14.8757C15.5846 14.8886 15.6175 14.9016 15.6504 14.9147ZM18.1582 14.6335C18.1482 14.6688 18.139 14.7052 18.1309 14.7429C18.139 14.7052 18.1482 14.6688 18.1582 14.6335ZM35.4775 14.5056C35.2778 14.5727 35.0785 14.644 34.8799 14.7184C35.0785 14.644 35.2778 14.5727 35.4775 14.5056ZM14.9268 14.6403C14.8561 14.6152 14.7854 14.5911 14.7148 14.5671C14.7854 14.5911 14.8561 14.6152 14.9268 14.6403ZM18.2217 14.4479C18.2079 14.4819 18.1941 14.5172 18.1816 14.5544C18.1941 14.5172 18.208 14.4819 18.2217 14.4479ZM24.1016 14.4694C24.0756 14.4471 24.0497 14.4249 24.0234 14.403C24.0497 14.4249 24.0756 14.4471 24.1016 14.4694ZM18.2852 14.3063C18.2714 14.3337 18.2576 14.3627 18.2441 14.3932C18.2576 14.3627 18.2714 14.3337 18.2852 14.3063ZM23.7676 14.2028C23.7449 14.186 23.7221 14.1695 23.6992 14.153C23.7221 14.1695 23.7449 14.186 23.7676 14.2028ZM37.0771 14.0827C36.9874 14.0994 36.8996 14.1181 36.8135 14.1364C36.8996 14.118 36.9874 14.0995 37.0771 14.0827ZM17.7393 14.0202C17.7361 14.031 17.7342 14.0407 17.7324 14.0475C17.7307 14.0544 17.7284 14.0605 17.7275 14.0641C17.7271 14.066 17.7269 14.0677 17.7266 14.069C17.7268 14.0682 17.7272 14.0672 17.7275 14.0661C17.7289 14.0604 17.7319 14.0496 17.7354 14.0368C17.7389 14.0239 17.7442 14.0067 17.751 13.987L17.7393 14.0202ZM23.043 13.7448C23.1731 13.8134 23.2986 13.8873 23.4209 13.9645C23.2986 13.8873 23.1731 13.8134 23.043 13.7448ZM18.7402 13.7126C18.7255 13.726 18.7108 13.7396 18.6963 13.7536C18.7108 13.7396 18.7255 13.726 18.7402 13.7126ZM22.8086 13.6286C22.7458 13.5991 22.6819 13.5711 22.6172 13.5436C22.6818 13.5711 22.7458 13.5991 22.8086 13.6286ZM22.5918 13.5329C22.5228 13.504 22.453 13.4756 22.3818 13.4489C22.453 13.4756 22.5228 13.504 22.5918 13.5329ZM22.1748 13.3766C22.2447 13.4 22.3139 13.4235 22.3818 13.4489C22.3139 13.4235 22.2447 13.4 22.1748 13.3766ZM22.1172 13.3571C22.0577 13.338 21.9974 13.32 21.9365 13.3024C21.9974 13.32 22.0577 13.338 22.1172 13.3571ZM28.1553 13.2741C28.0727 13.2966 27.9939 13.32 27.9199 13.3444C27.9939 13.32 28.0727 13.2967 28.1553 13.2741ZM19.5273 13.2516C19.4721 13.2707 19.4154 13.2931 19.3574 13.3181C19.4154 13.2931 19.4721 13.2707 19.5273 13.2516ZM21.8799 13.2858C21.8367 13.2738 21.793 13.2629 21.749 13.2516C21.793 13.2629 21.8367 13.2738 21.8799 13.2858ZM28.4189 13.2097C28.3711 13.2201 28.3243 13.2315 28.2783 13.2429C28.3243 13.2315 28.3711 13.2201 28.4189 13.2097ZM19.7422 13.1872C19.6865 13.2012 19.6278 13.2189 19.5664 13.239C19.6278 13.2189 19.6865 13.2012 19.7422 13.1872Z" fill="white" fill-opacity="0.3"/>
</g>
</g>
</g>
</svg>
