<svg width="50" height="50" viewBox="0 0 50 50" fill="none" xmlns="http://www.w3.org/2000/svg">
<rect width="50" height="50" fill="#BEBEBE"/>
<g id="Decorate Mode">
<path d="M-64.7026 -1238.97V-1237.97H2955.3V-1238.97V-1239.97H-64.7026V-1238.97ZM2957.3 -1236.97H2956.3V2301.03H2957.3H2958.3V-1236.97H2957.3ZM2955.3 2303.03V2302.03H-64.7026V2303.03V2304.03H2955.3V2303.03ZM-66.7026 2301.03H-65.7026V-1236.97H-66.7026H-67.7026V2301.03H-66.7026ZM-64.7026 2303.03V2302.03C-65.2549 2302.03 -65.7026 2301.59 -65.7026 2301.03H-66.7026H-67.7026C-67.7026 2302.69 -66.3595 2304.03 -64.7026 2304.03V2303.03ZM2957.3 2301.03H2956.3C2956.3 2301.59 2955.85 2302.03 2955.3 2302.03V2303.03V2304.03C2956.95 2304.03 2958.3 2302.69 2958.3 2301.03H2957.3ZM2955.3 -1238.97V-1237.97C2955.85 -1237.97 2956.3 -1237.52 2956.3 -1236.97H2957.3H2958.3C2958.3 -1238.62 2956.95 -1239.97 2955.3 -1239.97V-1238.97ZM-64.7026 -1238.97V-1239.97C-66.3594 -1239.97 -67.7026 -1238.62 -67.7026 -1236.97H-66.7026H-65.7026C-65.7026 -1237.52 -65.255 -1237.97 -64.7026 -1237.97V-1238.97Z" fill="black" fill-opacity="0.1"/>
<g id="Stickers">
<rect x="-12.6938" y="-366.466" width="374" height="551" rx="4.5" stroke="#9747FF" stroke-dasharray="10 5"/>
<g id="Property 1=rocket">
<g id="Frame 188">
<path id="Vector" d="M25.1604 9.90741C27.5676 9.90741 29.335 17.102 29.408 19.7336C29.4459 21.0959 29.4068 22.7546 29.408 24.1139C29.408 24.1139 32.5439 28.6554 33.7408 30.3885C33.7408 29.2737 34.5526 29.0241 34.9633 29.0111C35.4508 28.9972 35.6504 29.08 36.0018 29.4184C36.4395 29.84 36.4349 30.2119 36.4395 30.8169C36.4532 32.613 36.4393 34.4138 36.4402 36.2092L36.4419 38.0935C36.4417 38.4045 36.4502 39.0159 36.4007 39.3071C36.3443 39.6411 36.3426 40.1336 36.1085 40.3782C35.7728 40.7302 35.6547 40.7467 35.1682 40.7513C34.6652 40.7577 34.4295 40.6409 34.0718 40.2827C33.4952 39.7051 33.5301 39.1028 33.5257 38.354C31.99 37.2623 29.5557 35.6373 27.9361 34.6627C27.9361 36.7872 27.1502 37.7126 25.192 37.7609C23.1165 37.7812 21.9462 36.9347 21.9462 34.6627C20.5354 35.5796 17.8118 37.2585 16.4962 38.3118C16.4854 38.8455 16.5138 39.3335 16.2589 39.8171C16.0327 40.2466 15.6785 40.5366 15.2133 40.6753C14.8012 40.6753 14.7772 40.7398 14.3429 40.5064C13.2205 39.8892 13.5841 38.6533 13.5839 37.5547L13.5865 34.2417L13.5865 31.7893C13.5878 31.1518 13.5046 30.261 13.8393 29.719C14.4683 28.6999 16.4391 29.1069 16.2418 30.3885C17.4736 28.6763 19.3605 25.8196 20.5824 24.1139C20.5636 22.7362 20.4854 20.849 20.5824 19.465C20.7827 16.6063 21.2907 13.6068 23.0294 11.2491C23.5468 10.5475 24.3711 9.90741 25.1604 9.90741Z" fill="#020101"/>
<path id="Vector (Stroke)" d="M25.2913 8.34796C26.6276 8.40866 27.5545 9.39072 28.1056 10.1711C28.7295 11.0546 29.2353 12.1886 29.6327 13.3132C30.4255 15.5564 30.928 18.1759 30.97 19.6901C31.0039 20.9109 30.9796 22.4062 30.9737 23.6312C31.0401 23.7274 31.117 23.8387 31.2026 23.9626C31.5152 24.4154 31.9449 25.0377 32.4117 25.7137C32.861 26.3644 33.345 27.0652 33.7929 27.7138C34.208 27.5228 34.614 27.459 34.9141 27.4495H34.919C35.2415 27.4403 35.6625 27.4531 36.1086 27.6296C36.5495 27.8041 36.864 28.0795 37.0857 28.293C37.4994 28.6914 37.7709 29.1451 37.9012 29.6773C38.008 30.1142 38.0001 30.5653 38.0019 30.8046C38.0156 32.6063 38.0021 34.4318 38.0031 36.2081L38.0043 38.0947C38.0042 38.2293 38.0069 38.4897 38.0025 38.7355C37.9985 38.9568 37.9885 39.2927 37.9415 39.5693C37.9352 39.6067 37.9292 39.6533 37.9152 39.7689C37.9034 39.8666 37.8859 40.0123 37.8572 40.165C37.8102 40.4154 37.6862 40.9872 37.2389 41.4559C37.0426 41.6618 36.7227 41.9819 36.2349 42.1614C35.802 42.3208 35.3646 42.3123 35.1833 42.314C34.8105 42.3184 34.3813 42.2792 33.9369 42.0839C33.5064 41.8947 33.1948 41.6155 32.9665 41.3869C32.2325 40.6517 32.0332 39.8281 31.9808 39.178C31.0912 38.5596 30.0233 37.8425 29.0163 37.1889C28.8751 37.4843 28.698 37.7645 28.4731 38.0208C27.6238 38.9888 26.4226 39.2932 25.2309 39.3227L25.2193 39.3233H25.2071C23.998 39.3351 22.7216 39.1047 21.75 38.2369C21.4016 37.9257 21.1321 37.5666 20.9267 37.1736C19.9138 37.823 18.8367 38.5233 18.0348 39.106C17.9992 39.5283 17.9047 40.0462 17.6418 40.5452C17.2188 41.3483 16.526 41.9142 15.66 42.1724L15.4415 42.2377H15.2132C15.1467 42.2377 15.1092 42.24 15.0203 42.2432C14.9464 42.2459 14.7885 42.2518 14.6053 42.2304C14.1889 42.1818 13.8595 42.0203 13.6031 41.8825L13.597 41.8788L13.5903 41.8758C12.4437 41.2453 12.0688 40.2261 11.9869 39.3581C11.95 38.968 11.968 38.588 11.985 38.3004C12.0043 37.9745 12.0217 37.7686 12.0217 37.5551L12.0241 31.7861C12.0245 31.597 12.0044 31.0475 12.0284 30.6288C12.0534 30.1916 12.1321 29.5099 12.5099 28.8979C13.2866 27.6403 14.738 27.4308 15.724 27.6735C15.8609 27.7072 16.0003 27.7518 16.1391 27.8078C16.4568 27.3458 16.7899 26.8596 17.1248 26.3686C17.7783 25.4103 18.4432 24.4361 19.0096 23.6318C18.9836 22.356 18.9331 20.6474 19.0236 19.3557C19.2279 16.4403 19.7552 13.0567 21.772 10.3218C22.1235 9.84528 22.5855 9.37782 23.1227 9.01752C23.6486 8.66487 24.3536 8.34491 25.1607 8.34491L25.2913 8.34796ZM13.5842 37.5545L13.5805 37.762C13.5448 38.8052 13.2908 39.9275 14.3428 40.5062C14.777 40.7395 14.8013 40.6753 15.2132 40.6752C15.6785 40.5366 16.0331 40.2465 16.2593 39.8171C16.5141 39.3335 16.4854 38.8455 16.4961 38.312C17.8117 37.2587 20.5357 35.5795 21.9466 34.6627C21.9466 36.8637 23.0447 37.7268 25.0002 37.7602L25.1924 37.7608C27.1505 37.7124 27.9366 36.7871 27.9366 34.6627C29.5561 35.6372 31.9899 37.2624 33.5256 38.3541C33.53 39.1028 33.4952 39.7052 34.0718 40.2828C34.4295 40.6409 34.6657 40.7579 35.1686 40.7515C35.655 40.7469 35.7729 40.73 36.1086 40.378C36.3426 40.1333 36.3445 39.6408 36.4009 39.3068C36.4504 39.0154 36.4416 38.4044 36.4418 38.0934L36.4406 36.2093C36.4396 34.4139 36.453 32.613 36.4394 30.8168C36.435 30.2496 36.4391 29.8872 36.0787 29.4966L36.0018 29.4185C35.6505 29.0802 35.451 28.9975 34.9635 29.0114C34.5529 29.0244 33.7411 29.2737 33.741 30.3884C32.544 28.6552 29.4081 24.114 29.4081 24.114C29.4069 22.7547 29.446 21.0958 29.4081 19.7335C29.3351 17.1018 27.5678 9.90771 25.1607 9.90741C24.3714 9.90741 23.5468 10.5474 23.0293 11.249C21.2906 13.6066 20.7827 16.6062 20.5824 19.4649C20.4855 20.8489 20.5637 22.7362 20.5824 24.114C19.3606 25.8195 17.474 28.6762 16.2422 30.3884C16.4393 29.107 14.4683 28.6999 13.8393 29.7188C13.5047 30.2608 13.5879 31.1517 13.5866 31.7891L13.5842 37.5545Z" fill="#E8E7E7"/>
<path id="Vector (Stroke) (Stroke)" d="M11.1056 31.7836C11.1058 31.6577 11.0859 31.0247 11.1116 30.5759C11.139 30.098 11.2275 29.2267 11.7286 28.4151L11.9355 28.1125C12.9627 26.7581 14.6034 26.5216 15.756 26.7422C15.9565 26.4499 16.1611 26.1516 16.3659 25.8513C16.9534 24.9899 17.5548 24.1097 18.0855 23.3509C18.059 22.1275 18.0201 20.5313 18.107 19.2912C18.3136 16.342 18.8529 12.7326 21.0331 9.77627C21.439 9.226 21.9757 8.68166 22.6115 8.25523C23.2289 7.8412 24.111 7.42654 25.1609 7.42654H25.1825L25.3128 7.43013C25.3196 7.43029 25.3264 7.42983 25.3331 7.43013C27.1181 7.51125 28.2694 8.81065 28.8559 9.64115C29.5495 10.6233 30.0889 11.8469 30.499 13.0073C31.3156 15.3183 31.8431 18.0333 31.8885 19.6643C31.9202 20.8081 31.9009 22.192 31.8932 23.3473C31.9154 23.3794 31.9374 23.411 31.9578 23.4406C32.2706 23.8936 32.7011 24.5163 33.168 25.1924C33.4889 25.6573 33.8275 26.1475 34.1581 26.6262C34.4265 26.5651 34.6747 26.5383 34.8851 26.5317H34.8923C35.2614 26.5212 35.8297 26.5315 36.4468 26.7756L36.6656 26.8713C37.157 27.1077 37.5042 27.4214 37.7227 27.6318C38.2503 28.14 38.6178 28.7434 38.793 29.459C38.9304 30.0207 38.9182 30.5887 38.9197 30.7971C38.9334 32.6022 38.9211 34.4424 38.9221 36.208L38.9233 38.0938C38.9232 38.2134 38.9255 38.4955 38.9209 38.7515C38.917 38.9693 38.9062 39.3669 38.8468 39.7189L38.848 39.7201C38.8473 39.7243 38.8453 39.7345 38.842 39.7595C38.8386 39.7854 38.8334 39.8217 38.8264 39.8791C38.8149 39.9746 38.7945 40.1486 38.7595 40.3347C38.7055 40.6221 38.5431 41.4197 37.9033 42.0901C37.6891 42.3147 37.2477 42.7668 36.552 43.0229C35.9462 43.2458 35.3488 43.2307 35.1924 43.2321L35.1912 43.2309C34.7456 43.2359 34.1736 43.1912 33.5674 42.9248C32.9824 42.6677 32.575 42.2951 32.3166 42.0363C31.549 41.2674 31.2452 40.4167 31.1244 39.7045C30.5517 39.3102 29.9208 38.886 29.29 38.4693C29.2484 38.5214 29.2079 38.575 29.1633 38.6259C28.08 39.8606 26.5867 40.2018 25.2781 40.2379L25.2793 40.2402H25.2674C25.2514 40.2411 25.2355 40.2414 25.2195 40.2414H25.2076C23.9005 40.253 22.3544 40.0075 21.1383 38.9213C20.9666 38.7679 20.81 38.6059 20.6684 38.4358C20.0368 38.8455 19.4202 39.2539 18.895 39.6232C18.8278 40.0332 18.7019 40.5045 18.4549 40.9733C17.9162 41.996 17.0236 42.7232 15.9223 43.0515L15.9235 43.0527L15.7046 43.1173C15.6193 43.1428 15.5306 43.1556 15.4416 43.1556H15.2132C15.1685 43.1556 15.159 43.1578 15.0529 43.1616C14.9734 43.1644 14.7563 43.1724 14.4993 43.1424C13.9049 43.073 13.4496 42.8428 13.1684 42.6916C13.1651 42.6898 13.1621 42.6874 13.1588 42.6856C13.1553 42.6838 13.1515 42.6827 13.148 42.6809C11.6547 41.8597 11.173 40.5112 11.0721 39.445C11.0283 38.9798 11.0513 38.538 11.0685 38.2457C11.0896 37.8898 11.1032 37.7328 11.1032 37.5557L11.1056 31.7836ZM35.5225 36.2092C35.5215 34.4033 35.5349 32.6159 35.5213 30.8234C35.5188 30.5072 35.5149 30.38 35.4938 30.2805C35.4832 30.231 35.4714 30.1924 35.4065 30.1215L35.3646 30.0796C35.2551 29.9741 35.2077 29.9439 35.196 29.9373C35.1821 29.9342 35.1288 29.9251 34.9915 29.9289C34.9231 29.9313 34.8284 29.9588 34.7715 30.0043C34.7503 30.0213 34.7287 30.0446 34.7093 30.0868C34.6891 30.131 34.6592 30.2225 34.6591 30.3881C34.6591 30.7899 34.3981 31.1449 34.0146 31.2646C33.6309 31.3842 33.2134 31.2413 32.985 30.9107C32.3865 30.0441 31.3034 28.4755 30.3698 27.1236C29.9031 26.4477 29.4735 25.8258 29.1609 25.373C29.0048 25.1469 28.8782 24.9624 28.7902 24.8349C28.7464 24.7715 28.7118 24.7215 28.6885 24.6878C28.6769 24.6709 28.667 24.657 28.661 24.6483C28.6582 24.6443 28.6565 24.6408 28.655 24.6388L28.6527 24.6364C28.5469 24.4833 28.4902 24.3011 28.49 24.115C28.4888 22.7187 28.5275 21.1071 28.49 19.7587C28.4567 18.5595 28.022 16.1991 27.2942 14.1397C26.9309 13.1117 26.515 12.2192 26.0793 11.6022C25.6118 10.9403 25.2898 10.8264 25.1609 10.8262C25.0087 10.8262 24.782 10.8924 24.5045 11.0785C24.2339 11.2599 23.973 11.5171 23.769 11.7936C22.1939 13.9295 21.6962 16.7038 21.4982 19.5291C21.4049 20.8621 21.4812 22.677 21.5006 24.1018C21.5032 24.2976 21.4435 24.4891 21.3296 24.6483C20.7264 25.4904 19.9555 26.6209 19.1748 27.7658C18.3986 28.904 17.6118 30.0576 16.9877 30.925C16.7397 31.2696 16.2877 31.399 15.8948 31.2383C15.5017 31.0776 15.2706 30.6679 15.3351 30.2482C15.3439 30.1907 15.3321 30.1846 15.3303 30.1836C15.3136 30.1634 15.2532 30.1134 15.1307 30.0832C15.0105 30.0537 14.8835 30.0578 14.7839 30.0892C14.6906 30.1186 14.6456 30.1622 14.6212 30.2016C14.5777 30.272 14.5242 30.44 14.5053 30.7708C14.4857 31.1119 14.506 31.3955 14.5053 31.7896L14.5029 37.5712L14.4993 37.7781L14.4981 37.7937C14.4896 38.0401 14.463 38.4013 14.4538 38.5936C14.4423 38.8378 14.4436 39.0296 14.4646 39.1891C14.4998 39.4562 14.5752 39.5844 14.7839 39.6997C14.8497 39.735 14.8912 39.7541 14.9142 39.7643C14.9194 39.7642 14.9255 39.7646 14.9321 39.7643C14.9569 39.7634 14.9921 39.7621 15.035 39.7607C15.2188 39.6873 15.3503 39.5711 15.4463 39.3888C15.575 39.1447 15.5651 38.9287 15.5779 38.2935L15.5862 38.1919C15.6171 37.9583 15.7364 37.744 15.9223 37.5952C17.2849 36.5043 20.0825 34.7788 21.4456 33.893C21.728 33.7095 22.0884 33.6954 22.3843 33.8559C22.6803 34.0166 22.865 34.3263 22.865 34.6631C22.8651 35.6214 23.1034 36.1013 23.3744 36.3599C23.6568 36.6291 24.1504 36.827 25.0163 36.8418H25.1717C26.0244 36.8204 26.4077 36.6145 26.609 36.385C26.8309 36.1322 27.018 35.6441 27.018 34.6631C27.018 34.3321 27.1963 34.0261 27.4844 33.8631C27.7726 33.7002 28.1262 33.7055 28.4099 33.8762C29.6434 34.6185 31.3324 35.7253 32.753 36.6971L34.0576 37.6059L34.1437 37.6741C34.3325 37.8457 34.4423 38.0901 34.4439 38.3485C34.4487 39.1746 34.4539 39.366 34.7213 39.634C34.8709 39.7837 34.9239 39.8083 34.9353 39.8133C34.9392 39.8152 34.9814 39.8358 35.1566 39.8337H35.1601C35.2556 39.8328 35.3148 39.8288 35.3563 39.8265C35.367 39.8165 35.3807 39.8045 35.3969 39.7882C35.4021 39.77 35.4113 39.7436 35.4184 39.7057C35.4307 39.6404 35.4414 39.5665 35.4531 39.4702C35.4634 39.3855 35.4764 39.2645 35.495 39.1545L35.4962 39.1533C35.5078 39.0847 35.5172 38.9236 35.5213 38.6917C35.5251 38.4743 35.5235 38.2619 35.5237 38.0938L35.5225 36.2092ZM36.442 38.0938L36.4396 38.7072C36.4356 38.9351 36.4261 39.1606 36.4014 39.3063C36.345 39.6403 36.3425 40.1331 36.1084 40.3778C35.7728 40.7297 35.6548 40.7474 35.1685 40.752C34.7287 40.7576 34.4927 40.6685 34.2011 40.4065L34.072 40.2833C33.6396 39.8501 33.5506 39.4025 33.5315 38.8902L33.5255 38.3545C31.9898 37.2628 29.5559 35.6377 27.9364 34.6631C27.9363 36.7872 27.1499 37.7129 25.192 37.7614L25.0007 37.7602C23.0453 37.7268 21.9468 36.8638 21.9467 34.6631C20.5359 35.5799 17.8119 37.2582 16.4962 38.3114L16.4903 38.7037C16.4819 39.0888 16.4506 39.4541 16.2595 39.8169L16.1686 39.9712C15.9428 40.3164 15.6204 40.5541 15.2132 40.6755C14.8014 40.6755 14.7768 40.739 14.3426 40.5057C13.554 40.0717 13.4995 39.3322 13.5367 38.5494L13.5809 37.7626L13.5845 37.5545L13.5869 31.7896C13.5882 31.1522 13.5046 30.2604 13.8392 29.7185C14.4683 28.6999 16.4395 29.107 16.2427 30.3881C17.4745 28.6759 19.3605 25.8192 20.5823 24.1138C20.5635 22.7361 20.4853 20.8485 20.5823 19.4646C20.77 16.7845 21.2286 13.9806 22.7179 11.6979L23.0288 11.2495C23.5463 10.5479 24.3717 9.90781 25.1609 9.90781L25.2733 9.91259C27.6228 10.1318 29.3365 17.1432 29.4084 19.7336C29.4462 21.0958 29.4072 22.7546 29.4084 24.1138C29.4084 24.1138 32.5436 28.6547 33.7407 30.3881C33.7409 29.2736 34.5534 29.0247 34.964 29.0118C35.4512 28.9979 35.6508 29.0801 36.002 29.4183L36.0785 29.4961C36.439 29.8866 36.4353 30.2501 36.4396 30.8174C36.4533 32.6133 36.4399 34.414 36.4408 36.2092L36.442 38.0938ZM12.0216 37.5557C12.0216 37.769 12.0038 37.9751 11.9845 38.3007L11.9654 38.7909C11.9634 38.9705 11.9685 39.1629 11.9869 39.3577C12.0689 40.2258 12.4439 41.2456 13.5905 41.8761L13.5965 41.8785L13.6036 41.8821L13.8093 41.9885C14.0296 42.0943 14.2935 42.1936 14.6057 42.23C14.6974 42.2407 14.7828 42.2447 14.8544 42.2456L15.0206 42.2432C15.1093 42.24 15.1468 42.2372 15.2132 42.2372H15.4416L15.6604 42.1726C16.5263 41.9144 17.2189 41.3481 17.6418 40.5452C17.9047 40.0461 17.9996 39.5277 18.0352 39.1054C18.837 38.5229 19.9141 37.8234 20.9266 37.1742C21.132 37.567 21.4023 37.9262 21.7505 38.2373C22.722 39.1048 23.9986 39.3348 25.2076 39.3231H25.2315C26.3486 39.2954 27.4735 39.0252 28.3095 38.1942L28.4733 38.0209C28.6982 37.7645 28.875 37.4839 29.0162 37.1886C30.0232 37.8422 31.091 38.5599 31.9805 39.1784C32.0331 39.8284 32.2332 40.6519 32.9671 41.387C33.1954 41.6156 33.5065 41.895 33.9369 42.0842C34.381 42.2794 34.8102 42.318 35.1829 42.3137C35.3415 42.3122 35.6964 42.3184 36.0725 42.2133L36.2352 42.1619C36.601 42.0272 36.8718 41.8126 37.0674 41.6274L37.2384 41.4564C37.5739 41.1049 37.7284 40.6949 37.804 40.4065L37.8579 40.1649L37.9152 39.7691C37.9292 39.6537 37.9353 39.6069 37.9416 39.5694C37.9651 39.4311 37.9793 39.2779 37.9882 39.1317L38.0025 38.7359L38.0049 38.095L38.0037 36.208C38.0028 34.4317 38.0151 32.6059 38.0013 30.8043C38 30.6247 38.0048 30.3264 37.9619 30.0043L37.9009 29.6778C37.787 29.2122 37.5656 28.8059 37.2348 28.445L37.0854 28.2931C36.8636 28.0796 36.5492 27.8039 36.1084 27.6294C35.7739 27.4971 35.4534 27.4568 35.1781 27.4489L34.9186 27.4501H34.9138C34.6138 27.4596 34.2083 27.5234 33.7934 27.7143L31.2021 23.9631C31.1165 23.8392 31.0401 23.727 30.9737 23.6307C30.9781 22.712 30.9928 21.6413 30.9856 20.6484L30.9701 19.6906C30.9333 18.3657 30.5443 16.1943 29.9166 14.1696L29.6332 13.3134C29.2855 12.3296 28.8546 11.3383 28.3346 10.5141L28.1062 10.1709C27.555 9.39053 26.6275 8.4092 25.2913 8.3485L25.1609 8.34491C24.3541 8.34491 23.6491 8.66446 23.1233 9.01695L22.9248 9.15805C22.4719 9.49532 22.0795 9.90473 21.7721 10.3216C19.7552 13.0564 19.2284 16.4404 19.0241 19.3558L18.9954 19.858C18.9449 21.0678 18.9871 22.5156 19.0098 23.6319C18.4434 24.4362 17.7788 25.4108 17.1252 26.3691L16.1387 27.8076C16.0694 27.7796 15.9999 27.7546 15.9306 27.7323L15.7238 27.6737C14.7377 27.4311 13.2861 27.6407 12.5095 28.8982L12.3815 29.1301C12.1132 29.6763 12.0507 30.246 12.0288 30.6285L12.018 30.9597C12.0135 31.2997 12.0243 31.6441 12.024 31.786L12.0216 37.5557Z" fill="#020101"/>
<path id="Vector_2" d="M22.4872 14.6053L23.143 14.9252C24.361 15.3722 25.6637 15.4333 26.8758 14.9187C27.1099 14.8171 27.3067 14.7304 27.5345 14.6119C28.587 17.7454 28.641 21.3642 28.3607 24.6355C28.3016 25.3262 28.1839 26.0791 28.0865 26.7718C27.8765 28.2405 27.6405 29.7056 27.378 31.1658L26.9654 33.584C26.911 33.8946 26.816 34.5056 26.7296 34.7874C26.4845 34.9529 26.2523 35.0279 25.9615 35.086C25.7972 35.1323 25.5308 35.1529 25.3614 35.1643C25.3407 34.4168 25.3582 33.5911 25.3595 32.8362L25.3663 28.4707C25.3673 27.6438 25.3741 26.8159 25.3612 25.989C25.358 25.7869 25.2909 25.6531 25.0726 25.6297C24.9652 25.6179 24.8668 25.648 24.7777 25.7102C24.6729 25.7832 24.6654 25.8885 24.658 26.0069C24.6529 26.3489 24.6576 26.6917 24.6595 27.0337L24.6588 28.7251C24.6576 30.8694 24.679 33.0366 24.6546 35.179C24.4239 35.1516 24.2076 35.1314 23.9815 35.0742C23.684 35.011 23.5138 34.9563 23.2639 34.7881C23.1723 34.4109 23.0972 33.9007 23.0289 33.5064L22.5772 30.8025C21.6584 25.4636 20.8199 19.8983 22.4872 14.6053Z" fill="#8FB7B3"/>
<path id="Vector (Stroke)_2" d="M23.2191 14.745C24.3972 15.1754 25.6436 15.229 26.798 14.7395C27.0318 14.638 27.2231 14.5537 27.4443 14.4386L27.6469 14.3331L27.7196 14.5497C28.7846 17.7206 28.8364 21.3707 28.5552 24.6522C28.4955 25.3498 28.3766 26.1109 28.2798 26.7989L28.2798 26.7994C28.0695 28.2704 27.833 29.7378 27.5702 31.2003L27.1579 33.6168L27.1578 33.6173L27.1577 33.6177C27.1055 33.9157 27.0074 34.5475 26.9162 34.8446L26.896 34.9106L26.8388 34.9492C26.5665 35.1331 26.3085 35.2153 26.0059 35.2762C25.818 35.3275 25.5357 35.3483 25.3745 35.3592L25.1717 35.3729L25.1661 35.1697C25.1452 34.4185 25.1629 33.5851 25.1641 32.8359L25.1709 28.4704C25.1719 27.6417 25.1787 26.8168 25.1658 25.9921L25.1647 25.9623C25.1607 25.8979 25.1478 25.8687 25.1391 25.8566C25.1353 25.8513 25.1214 25.8313 25.0517 25.8238H25.0513C24.9972 25.8179 24.9454 25.8313 24.8895 25.8703L24.8893 25.8705C24.8763 25.8795 24.8719 25.8863 24.8674 25.9005C24.8602 25.9233 24.857 25.9537 24.8531 26.0149C24.8482 26.3525 24.8528 26.6902 24.8548 27.0326L24.854 28.7252C24.8528 30.8666 24.8743 33.0376 24.8499 35.1812L24.8474 35.3985L24.6316 35.3729C24.4085 35.3465 24.1774 35.3248 23.9371 35.2644C23.6271 35.1984 23.4313 35.1362 23.1548 34.9501L23.0919 34.9078L23.074 34.8342C22.9804 34.4486 22.9032 33.9253 22.8364 33.5397L22.8363 33.5391L22.8362 33.5385L22.3847 30.8356L22.2989 30.3348C21.4161 25.1513 20.6699 19.7239 22.3009 14.5466L22.369 14.3304L23.2191 14.745ZM22.4871 14.6053C20.8198 19.8982 21.6583 25.4636 22.5772 30.8025L23.0288 33.5063C23.0972 33.9006 23.1722 34.4109 23.2638 34.7881C23.5138 34.9563 23.684 35.011 23.9814 35.0742C24.2075 35.1314 24.4238 35.1516 24.6545 35.1789C24.679 33.0366 24.6575 30.8694 24.6587 28.7251L24.6595 27.0337C24.6575 26.6917 24.6528 26.3489 24.658 26.0068C24.6651 25.8921 24.6724 25.7898 24.7681 25.7172L24.7776 25.7102C24.8667 25.6479 24.9651 25.6179 25.0725 25.6297C25.2908 25.6531 25.3579 25.7869 25.3611 25.989C25.3741 26.8159 25.3672 27.6438 25.3662 28.4707L25.3594 32.8362L25.3583 33.1223C25.3544 33.7963 25.3432 34.5102 25.3614 35.1643C25.5308 35.1528 25.7972 35.1323 25.9615 35.086C26.2431 35.0297 26.4698 34.9576 26.7066 34.8026L26.7295 34.7874C26.8159 34.5056 26.9109 33.8945 26.9653 33.584L27.3779 31.1658C27.6404 29.7056 27.8765 28.2405 28.0864 26.7717C28.1838 26.0791 28.3015 25.3262 28.3606 24.6355C28.6409 21.3642 28.5869 17.7454 27.5344 14.6119C27.3067 14.7304 27.1099 14.8171 26.8757 14.9187L26.8189 14.9424C25.6229 15.4312 24.3419 15.3652 23.1429 14.9251L22.4871 14.6053Z" fill="#8FB7B3"/>
<path id="Vector_3" d="M26.8757 14.9187C27.1099 14.8171 27.3066 14.7304 27.5344 14.6118C28.5869 17.7454 28.6409 21.3642 28.3606 24.6355C28.3015 25.3262 28.1838 26.0791 28.0864 26.7717C27.8765 28.2405 27.6404 29.7056 27.3779 31.1658L26.9653 33.584C26.9109 33.8945 26.8159 34.5056 26.7295 34.7874C26.4844 34.9529 26.2522 35.0278 25.9614 35.0859C26.3796 33.1201 26.6978 31.0547 27.0173 29.0698C27.6782 24.967 28.2488 20.7518 27.3228 16.6414C27.1902 16.0535 27.0391 15.4969 26.8757 14.9187Z" fill="#E8E7E7"/>
<path id="Vector_4" d="M22.4872 14.6053L23.143 14.9251C22.2495 17.7379 22.1039 21.0156 22.3247 23.9477C22.4016 24.9687 22.5579 26.0891 22.6953 27.1057C22.932 28.8 23.1979 30.4905 23.4929 32.1758C23.6325 32.9709 23.8817 34.2031 24.0191 35.0398C24.0065 35.0513 23.994 35.0627 23.9815 35.0742C23.684 35.011 23.5138 34.9563 23.2639 34.7881C23.1723 34.4109 23.0972 33.9006 23.0289 33.5063L22.5772 30.8025C21.6584 25.4636 20.8199 19.8982 22.4872 14.6053Z" fill="#E8E7E7"/>
<path id="Vector_5" d="M24.733 17.5294C25.5545 17.3725 26.3477 17.9114 26.5047 18.733C26.6615 19.5547 26.1224 20.3479 25.3006 20.5045C24.4793 20.6611 23.6863 20.1222 23.5296 19.3008C23.3728 18.4794 23.9115 17.6864 24.733 17.5294Z" fill="#020101"/>
<path id="Vector_6" d="M16.4286 31.9448C16.8144 31.2891 17.3974 30.4856 17.8286 29.8411C18.8572 28.2893 19.9162 26.7578 21.0049 25.2476L21.1545 26.2795C21.2216 26.8674 21.3277 27.5039 21.418 28.0925C21.6026 29.2681 21.7988 30.4417 22.0067 31.6133C20.8628 32.4038 19.6363 33.1836 18.4732 33.9504C17.909 34.3223 17.0063 34.9688 16.4349 35.29C16.4301 34.6345 16.4051 33.8044 16.431 33.1641L16.4286 31.9448Z" fill="#8FB7B3"/>
<path id="Vector (Stroke)_3" d="M21.3482 26.2544L21.3486 26.2574C21.415 26.8401 21.5201 27.47 21.6109 28.0622L21.6806 28.5025C21.8445 29.5295 22.0173 30.5551 22.199 31.5791L22.2209 31.7026L22.1177 31.774C20.9715 32.566 19.7399 33.3492 18.5807 34.1135L18.5806 34.1135C18.0294 34.4768 17.1096 35.1347 16.5306 35.4603L16.242 35.6225L16.2396 35.2915C16.2348 34.6449 16.2098 33.8064 16.2356 33.1605L16.2331 31.8918L16.2602 31.8458C16.6497 31.1838 17.242 30.3666 17.6663 29.7324C18.6961 28.1788 19.7564 26.6454 20.8464 25.1333L21.1288 24.7416L21.3482 26.2544ZM21.0049 25.2475C19.9162 26.7578 18.8572 28.2893 17.8286 29.8411C17.3973 30.4856 16.8144 31.2891 16.4285 31.9448L16.4309 33.164C16.4051 33.8044 16.4301 34.6345 16.4349 35.29C16.9706 34.9888 17.7974 34.4018 18.3636 34.0232L18.4731 33.9504C19.5635 33.2315 20.7097 32.5012 21.7913 31.7614L22.0067 31.6133C21.7988 30.4416 21.6025 29.268 21.4179 28.0925C21.3277 27.5039 21.2215 26.8674 21.1545 26.2795L21.0049 25.2475Z" fill="#8FB7B3"/>
<path id="Vector_7" d="M16.4097 32.2103C16.7955 31.5545 17.3784 30.751 17.8097 30.1065C18.8383 28.5547 19.8973 27.0233 20.986 25.513L21.1356 26.545C20.9572 26.7481 20.7763 27.0257 20.6203 27.2515L19.8659 28.3514L17.5137 31.8126C17.2948 32.1407 16.6279 33.1929 16.412 33.4295L16.4097 32.2103Z" fill="#E8E7E7"/>
<path id="Vector_8" d="M29.0244 25.2603C29.7266 26.175 30.3782 27.2043 31.0369 28.1548C31.906 29.4082 32.7871 30.6704 33.6084 31.9551C33.6118 32.3728 33.6074 32.7905 33.5957 33.2083C33.6157 33.8674 33.5984 34.6121 33.602 35.28C33.4431 35.1995 33.1116 34.9729 32.9531 34.8677L31.7922 34.0918L28.0435 31.605C28.0867 31.0618 28.2681 30.1667 28.363 29.5896L28.8779 26.2812L29.0244 25.2603Z" fill="#8FB7B3"/>
<path id="Vector (Stroke)_4" d="M29.179 25.1413C29.8847 26.0607 30.5451 27.1028 31.1971 28.0435L31.85 28.9854C32.5035 29.9301 33.1549 30.8835 33.7726 31.8499L33.8029 31.8973L33.8034 31.9535C33.8068 32.3717 33.8024 32.7899 33.7908 33.2079C33.8106 33.8681 33.7935 34.6219 33.7971 35.2789L33.7988 35.5989L33.5134 35.4542C33.341 35.3668 32.9941 35.1296 32.8448 35.0304L32.8443 35.0301L31.684 34.2545L27.8394 31.7041L27.8485 31.5895C27.8925 31.0356 28.0774 30.1203 28.17 29.5579L28.6846 26.2512L28.8966 24.7734L29.179 25.1413ZM28.8776 26.2813L28.3627 29.5896C28.2678 30.1668 28.0864 31.0618 28.0432 31.605L31.792 34.0918L32.9528 34.8677C33.1113 34.9729 33.4428 35.1995 33.6017 35.28C33.5981 34.6121 33.6154 33.8674 33.5954 33.2083C33.6057 32.8428 33.6103 32.4772 33.609 32.1117L33.6081 31.9551C32.7868 30.6704 31.9057 29.4082 31.0365 28.1548C30.3779 27.2044 29.7263 26.1751 29.0241 25.2603L28.8776 26.2813Z" fill="#8FB7B3"/>
<path id="Vector_9" d="M29.0054 25.5257C29.7075 26.4405 30.3591 27.4698 31.0178 28.4202C31.887 29.6736 32.7681 30.9359 33.5894 32.2205C33.5928 32.6382 33.5884 33.056 33.5767 33.4737C33.2012 32.9722 32.8306 32.3433 32.4714 31.8167C31.7654 30.7816 31.0701 29.7371 30.3503 28.711C29.8518 28.0001 29.3884 27.232 28.8589 26.5467L29.0054 25.5257Z" fill="#E8E7E7"/>
<path id="Vector_10" d="M24.9706 10.7732C25.1017 10.7651 25.2326 10.7903 25.3515 10.8462C26.1811 11.2375 26.9918 13.0194 27.3065 13.8738C27.0885 13.9821 26.883 14.0626 26.6579 14.1528C26.3607 13.3977 25.8007 12.0183 25.0873 11.6252C24.4147 11.5818 23.6175 13.5764 23.3771 14.1366C23.1723 14.0712 22.9456 13.9673 22.7539 13.8703C23.001 13.1109 23.4217 12.2454 23.8836 11.6039C24.1773 11.196 24.4562 10.8603 24.9706 10.7732Z" fill="#E8E7E7"/>
<g id="Union">
<path fill-rule="evenodd" clip-rule="evenodd" d="M14.9972 29.8662C15.0614 29.8723 15.1585 29.8891 15.2471 29.9215C15.291 29.9375 15.3427 29.9609 15.3883 29.9954C15.4327 30.0289 15.4916 30.0886 15.5082 30.1806C15.5465 30.3925 15.5564 30.6912 15.558 30.9722C15.5587 31.1148 15.5573 31.2568 15.5557 31.3857C15.5542 31.5155 15.5525 31.6306 15.5527 31.7228L15.5519 34.4624L15.5479 37.4712C15.5496 38.0517 15.5575 38.6401 15.556 39.224C15.5556 39.365 15.5522 39.5118 15.4826 39.6355C15.408 39.7679 15.2798 39.8391 15.1396 39.9001L15.0882 39.9224L15.0327 39.9141C14.9704 39.9047 14.8604 39.8804 14.7594 39.8344C14.709 39.8114 14.6505 39.7785 14.6013 39.7312C14.5509 39.6828 14.5 39.6088 14.4944 39.5094C14.4366 38.4755 14.4629 37.412 14.4637 36.3868L14.4656 32.5131C14.466 31.838 14.4655 31.1585 14.4709 30.4821C14.4717 30.3862 14.4788 30.2296 14.5662 30.0985C14.6753 29.9345 14.8274 29.8978 14.9306 29.8714L14.9634 29.863L14.9972 29.8662ZM15.0408 39.7175L15.0617 39.721L15.0617 39.7209C15.0491 39.719 15.0341 39.7163 15.0174 39.7129C15.0257 39.7146 15.0335 39.7161 15.0408 39.7175ZM15.1639 39.6716C15.1664 39.6702 15.1691 39.6688 15.1716 39.6674C15.1778 39.6639 15.1839 39.6604 15.1897 39.6568L15.1897 39.6568C15.1815 39.6617 15.1729 39.6667 15.1639 39.6716ZM15.2706 30.1512C15.2741 30.1539 15.2775 30.1567 15.2808 30.1595C15.2803 30.1591 15.2798 30.1586 15.2793 30.1582C15.2737 30.1534 15.2676 30.1488 15.2611 30.1444L15.2706 30.1512Z" fill="#E8E7E7"/>
<path fill-rule="evenodd" clip-rule="evenodd" d="M34.9376 29.7063C35.0103 29.709 35.1134 29.7197 35.2127 29.7551C35.3071 29.7888 35.4252 29.855 35.4886 29.9855L35.4946 29.9983L35.4947 29.9986C35.5166 30.048 35.5273 30.1043 35.5337 30.1491C35.5406 30.1975 35.5446 30.2498 35.5471 30.2993C35.5496 30.3484 35.5507 30.3986 35.5513 30.4433L35.5522 30.555V30.5551C35.5729 32.6053 35.5549 34.6612 35.5621 36.7074L35.5689 38.5588C35.5699 38.8293 35.5828 39.2158 35.5494 39.5113V39.5114C35.5351 39.6372 35.4462 39.7248 35.3944 39.769C35.334 39.8206 35.2667 39.8602 35.2228 39.8838L35.181 39.9063L35.1336 39.9071C34.9476 39.9103 34.7577 39.8839 34.6255 39.7453C34.4969 39.6105 34.4701 39.4176 34.4706 39.2217C34.4774 36.2491 34.4743 33.2759 34.4701 30.3028V30.3027C34.47 30.1781 34.4765 30.0433 34.5499 29.9312C34.6259 29.815 34.7481 29.7604 34.8629 29.7182L34.899 29.7048L34.9376 29.7063ZM35.1556 39.6976C35.1576 39.6965 35.1596 39.6954 35.1616 39.6943C35.1672 39.691 35.1729 39.6875 35.1788 39.684C35.1709 39.6888 35.1631 39.6933 35.1556 39.6976Z" fill="#E8E7E7"/>
<path fill-rule="evenodd" clip-rule="evenodd" d="M22.2819 32.3004C22.3187 32.3604 22.3405 32.4415 22.3548 32.5052C22.371 32.5766 22.3846 32.6585 22.3959 32.7381C22.4184 32.8958 22.4346 33.0636 22.4432 33.1381L22.4564 33.2505L22.3653 33.3178C21.6987 33.8103 20.8027 34.3782 20.1159 34.8324L20.1158 34.8324L16.6216 37.1403L16.5989 37.1553L16.3856 37.2229L16.3031 37.1067C16.2706 37.0609 16.258 37.0084 16.252 36.98C16.2446 36.9448 16.2398 36.9058 16.2365 36.8677C16.2298 36.7908 16.2277 36.6997 16.2277 36.6114C16.2277 36.4383 16.236 36.2458 16.2371 36.1841L16.2388 36.089L16.3146 36.0317C16.5604 35.8458 16.9106 35.628 17.1579 35.4647L18.5195 34.563L22.1759 32.1277L22.2819 32.3004ZM22.1727 33.2167C22.1773 33.2133 22.182 33.2101 22.1866 33.2067L22.2493 33.1607C22.2241 33.1793 22.1985 33.1979 22.1727 33.2167Z" fill="#E8E7E7"/>
<path d="M27.9973 32.1971C29.0443 32.8504 30.0989 33.6187 31.1197 34.2955L32.794 35.4015L32.7941 35.4015C33.077 35.5886 33.4376 35.8081 33.7166 36.0277L33.7887 36.0844L33.7911 36.1761C33.7932 36.2574 33.7999 36.4344 33.8003 36.6038C33.8005 36.6888 33.7991 36.7753 33.7945 36.8501C33.7903 36.9164 33.7825 36.9995 33.7596 37.0611L33.7056 37.2068L33.4647 37.1756L33.429 37.1537C32.7664 36.7461 32.1138 36.3017 31.4666 35.8565C30.8586 35.4382 30.256 35.0197 29.6491 34.626L29.5276 34.5477C28.9034 34.1469 28.2616 33.7167 27.6505 33.297L27.5508 33.2285L27.5677 33.1088C27.6046 32.8459 27.6495 32.5841 27.7025 32.3238L27.7587 32.0482L27.9973 32.1971Z" fill="#E8E7E7"/>
</g>
<path id="Vector_11" d="M27.1253 35.4954C27.1568 35.5251 27.1615 35.5251 27.1563 35.5757C27.0548 36.6038 26.2921 36.8584 25.3958 36.873C25.3451 36.7708 25.3658 36.0769 25.367 35.9275C26.0533 35.8857 26.5091 35.7898 27.1253 35.4954Z" fill="#E8E7E7"/>
<path id="Vector_12" d="M22.875 35.4678C23.4824 35.7485 23.9656 35.8843 24.6343 35.9438C24.6426 36.2468 24.6565 36.5569 24.6438 36.8594C24.6164 36.8694 24.5935 36.8757 24.5639 36.8755C23.6173 36.8657 22.9436 36.4934 22.875 35.4678Z" fill="#E8E7E7"/>
</g>
<path id="Union_2" d="M25.3125 7.42969C25.3192 7.42984 25.3263 7.42939 25.333 7.42969C27.118 7.51081 28.2689 8.81111 28.8555 9.6416C29.5489 10.6236 30.089 11.8466 30.499 13.0068C31.3157 15.3178 31.8433 18.0331 31.8887 19.6641C31.9204 20.8079 31.9012 22.1924 31.8936 23.3477C31.9156 23.3796 31.9376 23.4109 31.958 23.4404C32.2708 23.8934 32.7011 24.5163 33.168 25.1924C33.4889 25.6572 33.8277 26.1474 34.1582 26.626C34.4265 26.565 34.6744 26.5379 34.8848 26.5312H35.2041C35.5486 26.5412 35.9844 26.5923 36.4473 26.7754L36.666 26.8711C37.1572 27.1075 37.5042 27.4214 37.7227 27.6318C38.2502 28.14 38.6178 28.7434 38.793 29.459C38.9303 30.0205 38.9184 30.5883 38.9199 30.7969C38.9337 32.602 38.9209 34.4424 38.9219 36.208L38.9229 38.0938C38.9228 38.2134 38.9255 38.496 38.9209 38.752C38.917 38.9699 38.906 39.3671 38.8467 39.7188L38.8477 39.7197C38.847 39.724 38.8451 39.7347 38.8418 39.7598C38.8384 39.7855 38.8331 39.8218 38.8262 39.8789C38.8146 39.9743 38.7948 40.1488 38.7598 40.335C38.7057 40.6224 38.5429 41.4196 37.9033 42.0898C37.6891 42.3144 37.2474 42.7664 36.5518 43.0225C35.946 43.2454 35.3488 43.231 35.1924 43.2324L35.1914 43.2305C34.7458 43.2354 34.1736 43.1912 33.5674 42.9248C32.9824 42.6677 32.5748 42.2949 32.3164 42.0361C31.5489 41.2673 31.2448 40.4162 31.124 39.7041C30.5515 39.3099 29.9206 38.8863 29.29 38.4697C29.2485 38.5218 29.2077 38.5751 29.1631 38.626C28.0799 39.8605 26.5868 40.2022 25.2783 40.2383L25.2793 40.2402H25.2676C25.2517 40.2411 25.2356 40.2412 25.2197 40.2412H25.208C23.901 40.2528 22.3547 40.0071 21.1387 38.9209C20.967 38.7675 20.8096 38.6057 20.668 38.4355C20.0365 38.8452 19.4197 39.2537 18.8945 39.623C18.8273 40.033 18.702 40.5049 18.4551 40.9736C17.9163 41.9963 17.0231 42.7234 15.9219 43.0518L15.9238 43.0527L15.7051 43.1172C15.6198 43.1427 15.5305 43.1553 15.4414 43.1553H15.2129C15.1685 43.1553 15.1586 43.1573 15.0527 43.1611C14.9731 43.164 14.7559 43.1725 14.499 43.1426C13.9048 43.0731 13.4492 42.8426 13.168 42.6914C13.1649 42.6897 13.1622 42.6873 13.1592 42.6855C13.1558 42.6838 13.1518 42.6825 13.1484 42.6807C11.6552 41.8596 11.1731 40.5114 11.0723 39.4453C11.0284 38.9804 11.0511 38.5384 11.0684 38.2461C11.0894 37.8903 11.1035 37.7328 11.1035 37.5557L11.1055 31.7832C11.1056 31.6564 11.0857 31.0245 11.1113 30.5762C11.1387 30.0983 11.2274 29.2267 11.7285 28.415L11.9355 28.1123C12.9627 26.7581 14.6033 26.5217 15.7559 26.7422C15.9563 26.4499 16.1614 26.1519 16.3662 25.8516C16.9537 24.9902 17.5543 24.1094 18.085 23.3506C18.0585 22.1272 18.0206 20.531 18.1074 19.291C18.3141 16.3419 18.8531 12.7326 21.0332 9.77637C21.4391 9.2261 21.9755 8.68132 22.6113 8.25488C23.2287 7.84087 24.1112 7.42676 25.1611 7.42676H25.1826L25.3125 7.42969ZM35.4805 42.3037C35.5114 42.302 35.5437 42.3017 35.5771 42.2988C35.5437 42.3017 35.5114 42.302 35.4805 42.3037ZM35.7842 42.2744C35.8169 42.2693 35.8501 42.2634 35.8838 42.2568C35.8501 42.2634 35.8169 42.2693 35.7842 42.2744ZM35.918 42.25C35.9403 42.2453 35.9627 42.2398 35.9854 42.2344C35.9627 42.2398 35.9403 42.2453 35.918 42.25ZM14.3691 42.1885C14.3762 42.1901 14.3835 42.1908 14.3906 42.1924C14.3835 42.1908 14.3762 42.1901 14.3691 42.1885ZM36.2354 42.1611V42.1621C36.2926 42.141 36.3468 42.1164 36.3994 42.0918C36.3468 42.1163 36.2925 42.1401 36.2354 42.1611ZM16.1289 41.9951C15.9828 42.0631 15.8302 42.1211 15.6719 42.1689C15.8302 42.1211 15.9828 42.0632 16.1289 41.9951ZM36.4238 42.0801C36.4605 42.0624 36.4958 42.0434 36.5303 42.0244C36.4957 42.0434 36.4606 42.0624 36.4238 42.0801ZM13.9824 42.0654C13.9936 42.07 14.0052 42.0736 14.0166 42.0781C13.9439 42.0494 13.8747 42.0195 13.8096 41.9883L13.9824 42.0654ZM16.6895 41.6631C16.6023 41.7274 16.5117 41.7872 16.418 41.8428C16.5117 41.7872 16.6023 41.7275 16.6895 41.6631ZM36.874 41.7939C36.9314 41.7481 36.9838 41.7019 37.0322 41.6572C36.9837 41.7019 36.9314 41.7482 36.874 41.7939ZM13.0234 41.4844V41.4834V41.4844ZM37.2686 41.4209C37.3064 41.3794 37.3419 41.3375 37.375 41.2949C37.3419 41.3375 37.3064 41.3794 37.2686 41.4209ZM37.4121 41.2441C37.4456 41.1984 37.4782 41.1535 37.5068 41.1074C37.4782 41.1535 37.4456 41.1984 37.4121 41.2441ZM37.5273 41.0723C37.5603 41.017 37.5913 40.9626 37.6182 40.9082C37.5913 40.9627 37.5603 41.017 37.5273 41.0723ZM37.6357 40.8701C37.657 40.8251 37.6768 40.7808 37.6943 40.7373C37.6768 40.7809 37.657 40.8251 37.6357 40.8701ZM37.7129 40.6875C37.7225 40.6621 37.7308 40.6369 37.7393 40.6123C37.7308 40.6369 37.7225 40.6621 37.7129 40.6875ZM34.5654 40.6543V40.6533V40.6543ZM18.0342 39.1152C18.0162 39.324 17.9839 39.5558 17.9238 39.7969C17.984 39.5558 18.0162 39.3239 18.0342 39.1152ZM30.542 38.1963C31.0462 38.5347 31.5355 38.8694 31.9805 39.1787C31.987 39.2598 31.9959 39.3437 32.0078 39.4297C31.9959 39.3436 31.987 39.259 31.9805 39.1777C31.5358 38.8686 31.0468 38.5345 30.543 38.1963H30.542ZM13.5479 39.25C13.5516 39.2848 13.5564 39.3193 13.5615 39.3535C13.5564 39.3193 13.5516 39.2848 13.5479 39.25ZM25.2305 39.3223L25.2197 39.3232H25.2314C25.3787 39.3196 25.526 39.3107 25.6729 39.2979C25.5258 39.3106 25.3779 39.3186 25.2305 39.3223ZM26.0205 39.2568C26.0479 39.2529 26.0753 39.2495 26.1025 39.2451C26.0753 39.2495 26.0479 39.2529 26.0205 39.2568ZM26.1641 39.2344C26.2136 39.2259 26.2633 39.2179 26.3125 39.208C26.2633 39.2179 26.2136 39.2259 26.1641 39.2344ZM26.4072 39.1875C26.4416 39.1799 26.4756 39.1714 26.5098 39.1631C26.4756 39.1714 26.4416 39.1799 26.4072 39.1875ZM26.6104 39.1377C26.6486 39.1275 26.6866 39.1166 26.7246 39.1055C26.6866 39.1166 26.6486 39.1275 26.6104 39.1377ZM38.0029 36.208L38.0039 38.0947C38.0038 38.2293 38.0073 38.4896 38.0029 38.7354V38.7363L38.0049 38.0947L38.0039 36.208H38.0029ZM26.8291 39.0732C26.8598 39.0634 26.8904 39.0535 26.9209 39.043C26.8904 39.0535 26.8598 39.0634 26.8291 39.0732ZM27.0244 39.0059C27.0608 38.9922 27.0968 38.9776 27.1328 38.9629C27.0968 38.9776 27.0608 38.9922 27.0244 39.0059ZM13.5293 38.876C13.5293 38.909 13.5285 38.9419 13.5293 38.9746C13.5285 38.9419 13.5294 38.909 13.5293 38.876ZM27.2236 38.9248C27.2518 38.9125 27.2797 38.8997 27.3076 38.8867C27.2797 38.8997 27.2518 38.9125 27.2236 38.9248ZM27.4385 38.8232C27.4519 38.8163 27.4651 38.8088 27.4785 38.8018C27.4651 38.8088 27.452 38.8163 27.4385 38.8232ZM27.6152 38.7266C27.6383 38.7131 27.6608 38.6986 27.6836 38.6846C27.6608 38.6986 27.6383 38.7131 27.6152 38.7266ZM12.0205 37.5654C12.02 37.7753 12.0033 37.9801 11.9844 38.3008H11.9854C12.0043 37.9801 12.02 37.7753 12.0205 37.5654ZM13.5361 38.5498H13.5371L13.542 38.4541C13.5528 38.2592 13.5652 38.0621 13.5742 37.8672L13.5361 38.5498ZM27.8047 38.6074C27.8169 38.5992 27.8287 38.5904 27.8408 38.582C27.8287 38.5904 27.8169 38.5992 27.8047 38.6074ZM27.9756 38.4854C28.0007 38.4661 28.0251 38.4458 28.0498 38.4258C28.0251 38.4458 28.0007 38.4661 27.9756 38.4854ZM28.4727 38.0205H28.4736H28.4727ZM21.3906 37.8682C21.4075 37.8882 21.4259 37.907 21.4434 37.9268C21.3884 37.8645 21.3352 37.8014 21.2852 37.7363L21.3906 37.8682ZM17.7041 37.4258V37.4268V37.4258ZM26.585 37.499C26.5775 37.5023 26.57 37.5056 26.5625 37.5088C26.57 37.5056 26.5775 37.5023 26.585 37.499ZM13.584 37.0244L13.5859 35.001L13.5869 31.79L13.5859 31.7891L13.584 37.0244ZM27.3789 36.8926L27.3779 36.8936C27.3666 36.9083 27.3544 36.9222 27.3428 36.9365C27.3547 36.9219 27.3673 36.9077 27.3789 36.8926ZM27.584 36.5645L27.585 36.5635L27.584 36.5645ZM27.9268 35.0479C27.9205 35.1712 27.9111 35.29 27.8984 35.4043C27.8763 35.604 27.8423 35.7894 27.7998 35.9619C27.818 35.888 27.8371 35.8123 27.8516 35.7334C27.8901 35.5226 27.9153 35.2939 27.9277 35.0469C27.934 34.9236 27.9365 34.7957 27.9365 34.6631C27.9365 34.796 27.933 34.9242 27.9268 35.0479ZM38 30.7031C37.9996 30.6057 37.9976 30.4876 37.9912 30.3574C37.9978 30.4876 37.9995 30.6057 38 30.7031ZM37.9883 30.2803C37.9825 30.192 37.9745 30.0988 37.9619 30.0039C37.9746 30.0989 37.9825 30.1919 37.9883 30.2803ZM12.0859 30.0889C12.0815 30.1162 12.0781 30.1433 12.0742 30.1699C12.0781 30.1433 12.0815 30.1162 12.0859 30.0889ZM12.127 29.876C12.1177 29.9182 12.1092 29.9598 12.1016 30.001C12.1092 29.9598 12.1177 29.9182 12.127 29.876ZM12.1865 29.6426C12.1726 29.6909 12.1591 29.7386 12.1475 29.7861C12.1591 29.7386 12.1726 29.6909 12.1865 29.6426ZM37.8877 29.6279C37.8756 29.5821 37.8628 29.5368 37.8486 29.4922C37.8628 29.5368 37.8756 29.5821 37.8877 29.6279ZM12.2666 29.3994C12.2434 29.4613 12.222 29.5227 12.2031 29.584C12.222 29.5227 12.2434 29.4612 12.2666 29.3994ZM37.8037 29.3652C37.7992 29.3532 37.7947 29.3411 37.79 29.3291C37.7947 29.3411 37.7992 29.3532 37.8037 29.3652ZM12.3818 29.1299C12.3468 29.2011 12.3155 29.2732 12.2871 29.3447C12.3155 29.2731 12.3468 29.2012 12.3818 29.1299ZM37.7422 29.2139C37.732 29.1909 37.7217 29.1681 37.7109 29.1455C37.7217 29.1681 37.732 29.1909 37.7422 29.2139ZM37.6709 29.0664C37.6552 29.0361 37.6389 29.0063 37.6221 28.9766C37.6389 29.0062 37.6552 29.0362 37.6709 29.0664ZM37.5762 28.8975C37.5568 28.8658 37.5364 28.8347 37.5156 28.8037C37.5364 28.8347 37.5568 28.8658 37.5762 28.8975ZM37.3691 28.6025C37.4086 28.6518 37.4458 28.7021 37.4814 28.7529C37.4072 28.6469 37.3251 28.5443 37.2344 28.4453L37.3691 28.6025ZM13.5146 27.9443C13.4071 28.0028 13.3014 28.0677 13.2002 28.1426C13.3014 28.0677 13.4071 28.0028 13.5146 27.9443ZM14.915 27.5859C14.7716 27.5885 14.6254 27.6005 14.4785 27.623C14.6254 27.6005 14.7716 27.5885 14.915 27.5859ZM35.8721 27.5508C35.8632 27.5483 35.8545 27.5454 35.8457 27.543C35.8545 27.5453 35.8632 27.5483 35.8721 27.5508ZM35.4326 27.4668C35.4192 27.4653 35.4059 27.4632 35.3926 27.4619L35.1777 27.4492C35.2591 27.4516 35.3442 27.4573 35.4326 27.4668ZM30.9756 23.3477C30.9786 22.8926 30.9817 22.4079 30.9844 21.9189C30.9817 22.4079 30.9786 22.8926 30.9756 23.3477ZM18.9746 21.6875C18.9753 21.7648 18.9775 21.842 18.9785 21.9189C18.9776 21.842 18.9753 21.7648 18.9746 21.6875ZM18.9951 19.8584C18.9764 20.3061 18.9726 20.7865 18.9736 21.2705C18.9727 20.7865 18.9774 20.3062 18.9961 19.8584H18.9951ZM30.9424 19.1992C30.9399 19.167 30.9374 19.1344 30.9346 19.1016C30.9374 19.1344 30.9399 19.167 30.9424 19.1992ZM30.8799 18.5771C30.8757 18.5429 30.8716 18.5084 30.8672 18.4736C30.8716 18.5084 30.8757 18.5429 30.8799 18.5771ZM30.8223 18.1572C30.8014 18.0118 30.779 17.8628 30.7539 17.7109C30.779 17.8628 30.8014 18.0118 30.8223 18.1572ZM30.708 17.4414C30.6774 17.2683 30.644 17.092 30.6084 16.9131C30.644 17.092 30.6773 17.2683 30.708 17.4414ZM30.5488 16.6211C30.5178 16.4738 30.4843 16.3254 30.4502 16.1758C30.4843 16.3254 30.5178 16.4738 30.5488 16.6211ZM30.3652 15.8096C30.3124 15.5911 30.2562 15.3714 30.1973 15.1514C30.2562 15.3714 30.3124 15.5911 30.3652 15.8096ZM30.1592 15.0049C30.1398 14.9342 30.1196 14.8636 30.0996 14.793C30.1196 14.8636 30.1398 14.9342 30.1592 15.0049ZM29.3398 12.5361C29.4184 12.7316 29.4927 12.9288 29.5645 13.126C29.4927 12.9288 29.4184 12.7316 29.3398 12.5361ZM29.2695 12.3652C29.2315 12.2733 29.1929 12.1817 29.1533 12.0908C29.1929 12.1817 29.2315 12.2733 29.2695 12.3652ZM29.1123 11.998C29.0676 11.8973 29.0222 11.7972 28.9756 11.6982C29.0222 11.7972 29.0676 11.8973 29.1123 11.998ZM28.9297 11.6025C28.8737 11.486 28.8165 11.371 28.7578 11.2578C28.8165 11.371 28.8737 11.486 28.9297 11.6025ZM28.7422 11.2275C28.6951 11.1373 28.6465 11.0486 28.5977 10.9609C28.6465 11.0486 28.6951 11.1373 28.7422 11.2275ZM27.6221 9.56543C27.8072 9.76801 27.9678 9.97597 28.1055 10.1709C28.2567 10.3851 28.4006 10.6146 28.5381 10.8545C28.4716 10.7384 28.4047 10.6241 28.335 10.5137L28.1064 10.1709C27.9687 9.97586 27.8073 9.76807 27.6221 9.56543ZM21.7725 10.3213V10.3223V10.3213ZM23.123 9.0166L23.0234 9.08691C23.0564 9.0636 23.0895 9.04008 23.123 9.01758C23.189 8.97334 23.2576 8.92936 23.3291 8.88672C23.2578 8.92925 23.1889 8.97247 23.123 9.0166ZM26.1602 8.52832C26.2507 8.56225 26.3392 8.59903 26.4248 8.64062C26.3392 8.59907 26.2507 8.56222 26.1602 8.52832Z" fill="white" fill-opacity="0.3"/>
</g>
</g>
</g>
</svg>
