<svg width="50" height="50" viewBox="0 0 50 50" fill="none" xmlns="http://www.w3.org/2000/svg">
<rect width="50" height="50" fill="#BEBEBE"/>
<g id="Decorate Mode">
<path d="M-121.803 -1181.03V-1180.03H2898.2V-1181.03V-1182.03H-121.803V-1181.03ZM2900.2 -1179.03H2899.2V2358.97H2900.2H2901.2V-1179.03H2900.2ZM2898.2 2360.97V2359.97H-121.803V2360.97V2361.97H2898.2V2360.97ZM-123.803 2358.97H-122.803V-1179.03H-123.803H-124.803V2358.97H-123.803ZM-121.803 2360.97V2359.97C-122.356 2359.97 -122.803 2359.52 -122.803 2358.97H-123.803H-124.803C-124.803 2360.62 -123.46 2361.97 -121.803 2361.97V2360.97ZM2900.2 2358.97H2899.2C2899.2 2359.52 2898.75 2359.97 2898.2 2359.97V2360.97V2361.97C2899.85 2361.97 2901.2 2360.62 2901.2 2358.97H2900.2ZM2898.2 -1181.03V-1180.03C2898.75 -1180.03 2899.2 -1179.59 2899.2 -1179.03H2900.2H2901.2C2901.2 -1180.69 2899.85 -1182.03 2898.2 -1182.03V-1181.03ZM-121.803 -1181.03V-1182.03C-123.46 -1182.03 -124.803 -1180.69 -124.803 -1179.03H-123.803H-122.803C-122.803 -1179.59 -122.356 -1180.03 -121.803 -1180.03V-1181.03Z" fill="black" fill-opacity="0.1"/>
<g id="Stickers">
<rect x="-69.7944" y="-308.534" width="374" height="551" rx="4.5" stroke="#9747FF" stroke-dasharray="10 5"/>
<g id="Property 1=rainbow">
<g id="Frame 180">
<path id="Vector" d="M24.1507 14.073C24.4786 14.058 24.8068 14.0516 25.1351 14.0539C29.1566 14.0713 33.0409 15.5171 36.0951 18.1332C36.5004 18.4808 36.9032 18.8879 37.2787 19.2701C39.5138 21.591 40.9872 24.5388 41.5018 27.7197C41.6752 28.864 41.6823 29.6873 41.6713 30.8242C42.1893 30.9622 42.6149 31.1216 43.0704 31.4141C43.9476 31.9709 44.5626 32.8584 44.7765 33.875C44.8729 34.3293 44.9161 35.3477 44.6747 35.7766C44.6349 35.8477 44.5521 35.908 44.4669 35.9163C44.0756 35.9541 43.6241 35.9382 43.2299 35.9377L40.6703 35.9341L31.2628 35.9363L28.0895 35.9358C27.5448 35.9358 27.0009 35.9338 26.4562 35.9307C26.0011 35.9282 25.964 35.4778 25.9166 35.1091C25.7767 34.0735 26.0575 33.0249 26.6959 32.1978C27.4213 31.2703 28.3988 30.8201 29.5451 30.6787C29.9371 29.3057 30.7416 28.3254 31.9701 27.605C31.7367 26.9868 31.2125 26.166 30.7784 25.6506C29.5992 24.2499 27.7384 23.2227 25.9088 23.0502C22.6983 22.6081 19.2705 24.5576 18.1032 27.5994C19.3273 28.3669 20.1233 29.2527 20.5227 30.6787C20.9058 30.7095 21.2823 30.7969 21.6396 30.9382C23.3554 31.6187 24.4203 33.3223 24.1189 35.1633C24.0796 35.4031 24.0527 35.8328 23.7464 35.898C23.3503 35.9822 22.8484 35.9299 22.4349 35.9297L19.8448 35.9351L8.4355 35.937C8.04505 35.9373 5.66412 36.001 5.44546 35.8657C5.36802 35.8179 5.31644 35.6975 5.29102 35.615C5.0585 34.8626 5.22635 33.6279 5.60591 32.9414C6.25545 31.7666 7.09268 31.1853 8.36512 30.8157C8.35731 30.6877 8.35035 30.5601 8.34419 30.4321C8.31526 29.8179 8.35389 29.1663 8.41727 28.5552C8.79891 25.1885 10.2408 22.0304 12.5347 19.5369C15.524 16.2406 19.7054 14.2738 24.1507 14.073Z" fill="#020101"/>
<path id="Vector (Stroke)" d="M25.1456 12.4922C29.5362 12.512 33.7769 14.0902 37.1115 16.9465L37.1121 16.9471C37.4597 17.2452 37.7985 17.5752 38.1021 17.8803L38.3933 18.1751L38.4042 18.1861C40.7832 20.6564 42.3766 23.7733 42.988 27.143L43.0441 27.4702L43.0466 27.4854C43.174 28.3268 43.2185 29.0164 43.2315 29.7224C43.4556 29.8267 43.6821 29.9498 43.9145 30.099C45.1434 30.8814 46.0047 32.1256 46.3052 33.5505L46.3327 33.6933C46.3925 34.0388 46.4225 34.4645 46.4145 34.8664C46.4068 35.2499 46.3631 35.9582 46.0373 36.5394L46.0379 36.54C45.7765 37.0067 45.2677 37.4081 44.6182 37.4714C44.3721 37.4952 44.1016 37.5025 43.8547 37.5038L43.2278 37.5001L40.668 37.4964L28.0893 37.4983C27.541 37.4983 26.9937 37.4966 26.4468 37.4934C26.0625 37.4911 25.6511 37.3882 25.2835 37.1278C25.1854 37.0583 25.0991 36.9834 25.0229 36.9062C24.8016 37.1333 24.4945 37.3362 24.0714 37.4262C23.6994 37.5053 23.3346 37.5109 23.0795 37.508C22.946 37.5065 22.8133 37.5017 22.7078 37.4983C22.5944 37.4946 22.5088 37.4922 22.4338 37.4922L19.8483 37.4976L8.43598 37.4989L8.43659 37.4995C8.35265 37.4995 8.15461 37.5033 7.85614 37.5074C7.57199 37.5113 7.22159 37.5152 6.87409 37.5147C6.53114 37.5143 6.17049 37.5096 5.87189 37.4946C5.7255 37.4873 5.56655 37.4762 5.42084 37.4574C5.34913 37.4481 5.25392 37.4337 5.15228 37.4098C5.08904 37.3949 4.86251 37.341 4.62494 37.1943L4.62433 37.1949C4.25259 36.9652 4.06056 36.6519 3.98285 36.5119C3.88922 36.3433 3.83175 36.1848 3.79791 36.0749L3.79852 36.0743C3.59428 35.4121 3.59288 34.6744 3.66852 34.062C3.74504 33.4425 3.92411 32.7539 4.23859 32.1852C4.6527 31.4362 5.16111 30.8185 5.81207 30.3285C6.11773 30.0984 6.43982 29.908 6.7746 29.748C6.7842 29.2791 6.81908 28.8187 6.8631 28.3943L6.86493 28.379C7.28392 24.6832 8.86653 21.2164 11.3846 18.4791C14.6529 14.8795 19.222 12.7326 24.0793 12.5129C24.433 12.4967 24.787 12.4898 25.1413 12.4922L25.1419 12.4915L25.1425 12.4922C25.1437 12.4922 25.145 12.4915 25.1462 12.4915L25.1456 12.4922ZM24.1507 14.073C19.7054 14.2738 15.5238 16.2406 12.5345 19.5368C10.2407 22.0303 8.79869 25.1887 8.41706 28.5554L8.37494 29.0199C8.3387 29.4897 8.32273 29.9715 8.34442 30.4322L8.36518 30.8155C7.09274 31.1852 6.25531 31.7666 5.60578 32.9414C5.22629 33.6278 5.05847 34.8623 5.29083 35.6147C5.31622 35.6971 5.36796 35.8176 5.44525 35.8656C5.66387 36.0008 8.0443 35.9372 8.43537 35.937L19.8447 35.9352L22.435 35.9297C22.7968 35.9299 23.2264 35.97 23.5934 35.9236L23.7466 35.8979C23.9763 35.8489 24.0487 35.595 24.0872 35.37L24.119 35.1631C24.4202 33.3221 23.3553 31.6186 21.6397 30.9382C21.2824 30.7969 20.9059 30.7096 20.5228 30.6788C20.1234 29.2528 19.3274 28.3671 18.1033 27.5996C19.2707 24.5578 22.6986 22.6079 25.9091 23.05C27.7386 23.2225 29.5994 24.25 30.7785 25.6507C31.2126 26.1661 31.7365 26.9869 31.9699 27.6051C30.7415 28.3255 29.937 29.3058 29.545 30.6788C28.3988 30.8202 27.4212 31.2705 26.6959 32.198L26.5805 32.3554C26.0241 33.156 25.7853 34.1384 25.9164 35.1093C25.9638 35.4779 26.0012 35.9283 26.456 35.9309C27.0006 35.934 27.5447 35.9358 28.0893 35.9358L40.6705 35.9339L43.2297 35.9376C43.6239 35.9381 44.0755 35.9541 44.4669 35.9162C44.5521 35.9079 44.6352 35.8475 44.675 35.7765C44.8862 35.401 44.8795 34.5743 44.8099 34.0693L44.7763 33.8752C44.5758 32.9222 44.0232 32.0824 43.2321 31.5223L43.0704 31.4143C42.6148 31.1218 42.1895 30.962 41.6714 30.8241C41.6811 29.8292 41.6765 29.0746 41.5591 28.1349L41.5018 27.7198C40.9871 24.5389 39.5139 21.5909 37.2787 19.2701C36.9033 18.8879 36.5005 18.4806 36.0953 18.133C33.1365 15.5987 29.3986 14.1626 25.5118 14.0595L25.1352 14.054C24.8068 14.0518 24.4786 14.058 24.1507 14.073ZM25.6955 24.5979C23.5656 24.3047 21.29 25.3826 20.0967 27.1406C20.7608 27.7316 21.3006 28.4305 21.6879 29.3086C21.866 29.3587 22.0422 29.4173 22.2147 29.4856H22.2159C23.4171 29.962 24.4052 30.8211 25.0253 31.8989C25.1535 31.6716 25.298 31.4518 25.4593 31.2428L25.4654 31.2354C26.2654 30.2125 27.2809 29.6188 28.3786 29.3189C28.7549 28.47 29.2843 27.7528 29.9515 27.151C29.8747 27.0375 29.7963 26.9271 29.7183 26.8257L29.5834 26.6572C28.6508 25.5494 27.1574 24.7373 25.762 24.6058C25.7399 24.6037 25.7175 24.6009 25.6955 24.5979Z" fill="#E8E7E7"/>
<path id="Vector (Stroke) (Stroke)" d="M25.172 11.5756C29.7722 11.6016 34.2143 13.2558 37.7087 16.2487L37.7099 16.2499C37.8974 16.4107 38.0812 16.5785 38.2563 16.745L38.7526 17.2329L38.7562 17.2353L39.0432 17.5258L39.0659 17.5485L39.5263 18.0448C41.6266 20.3935 43.0838 23.2437 43.7594 26.3173L43.8921 26.9786L43.8933 26.9881L43.9495 27.3146L43.9507 27.3253L43.9531 27.3409L43.9543 27.3481C44.0558 28.0184 44.1074 28.599 44.1324 29.1609C44.2241 29.2137 44.3184 29.2664 44.4111 29.3259C45.7574 30.1839 46.7249 31.5155 47.1303 33.0508L47.2044 33.3605L47.2068 33.3772L47.2343 33.5195L47.2379 33.5363C47.3089 33.9464 47.3415 34.432 47.3324 34.8851C47.3245 35.2793 47.2831 36.1676 46.8553 36.9538C46.8496 36.9651 46.8459 36.9774 46.8397 36.9885C46.4494 37.6853 45.6911 38.2893 44.7076 38.3852C44.4207 38.4129 44.1171 38.4209 43.8598 38.4223H43.849L43.2225 38.4187L40.667 38.4151L28.0897 38.4163C27.5396 38.4163 26.9904 38.4147 26.4419 38.4115C25.9866 38.4089 25.491 38.3041 25.0225 38.0444C24.8006 38.1649 24.5481 38.2633 24.262 38.3242C23.789 38.4247 23.343 38.4289 23.0698 38.4259C22.924 38.4242 22.778 38.4196 22.6776 38.4163C22.5639 38.4126 22.4921 38.4104 22.4336 38.4103L19.8507 38.4163H8.43689C8.36068 38.4164 8.17792 38.4216 7.86889 38.4259C7.58315 38.4298 7.22726 38.4335 6.8728 38.433C6.5258 38.4325 6.14763 38.4276 5.82648 38.4115C5.6704 38.4037 5.48397 38.3917 5.30392 38.3685C5.21576 38.3571 5.08573 38.3379 4.9416 38.3039C4.85078 38.2825 4.50728 38.2021 4.14161 37.9762C3.57465 37.6259 3.28896 37.1533 3.1802 36.9574C3.04674 36.717 2.96696 36.4953 2.92071 36.3452L2.83701 36.0319C2.6681 35.2982 2.68272 34.5492 2.75689 33.9488C2.84291 33.2528 3.04713 32.4416 3.4349 31.7402C3.9015 30.8964 4.49048 30.174 5.25968 29.5949C5.46176 29.4428 5.66939 29.3066 5.88029 29.1836C5.89771 28.8763 5.9207 28.5791 5.94965 28.2999L5.95085 28.2844L5.95324 28.27C6.36749 24.6259 7.85648 21.1932 10.2234 18.4059L10.7089 17.8571C14.1412 14.0793 18.9381 11.8267 24.0372 11.5959C24.4003 11.5793 24.764 11.5735 25.1277 11.5756C25.1337 11.5755 25.1397 11.5744 25.1457 11.5744C25.148 11.5744 25.1505 11.5732 25.1529 11.5732C25.1593 11.5732 25.1656 11.5754 25.172 11.5756ZM23.6246 12.5394C18.9377 12.8685 14.5506 14.9918 11.3845 18.4789C8.86649 21.2161 7.28343 24.6831 6.86443 28.3788L6.86323 28.3944L6.80584 29.0544C6.79041 29.2812 6.77955 29.5136 6.77474 29.748C6.44005 29.908 6.11772 30.098 5.81213 30.328C5.16117 30.818 4.65259 31.4361 4.23847 32.185C3.924 32.7538 3.7446 33.4429 3.66808 34.0624L3.64416 34.2968C3.59653 34.8572 3.61983 35.4943 3.79842 36.0737C3.83222 36.1835 3.88917 36.343 3.98257 36.5114C4.06029 36.6514 4.25297 36.9657 4.62471 37.1954C4.86183 37.3419 5.08831 37.3944 5.15206 37.4094C5.25369 37.4334 5.3494 37.448 5.42111 37.4573C5.56676 37.4761 5.7256 37.487 5.87192 37.4943C6.17047 37.5093 6.5311 37.5142 6.874 37.5147C7.22131 37.5152 7.57167 37.5114 7.85574 37.5075C8.15421 37.5034 8.35296 37.4992 8.43689 37.4991L19.8483 37.4979L22.4336 37.4919C22.5086 37.492 22.5943 37.4943 22.7075 37.4979C22.8129 37.5014 22.9459 37.506 23.0794 37.5075C23.2707 37.5097 23.5241 37.5076 23.7956 37.4728L24.0719 37.4262C24.4947 37.3361 24.8013 37.133 25.0225 36.906C25.0986 36.983 25.1853 37.0578 25.2832 37.1272C25.6507 37.3876 26.0624 37.4909 26.4467 37.4931L28.0897 37.4979L40.6682 37.4967L43.2284 37.5003L43.855 37.5039C43.9783 37.5033 44.1074 37.5005 44.2365 37.4955L44.6179 37.4716C45.1863 37.4162 45.6471 37.1016 45.9285 36.7111L46.0385 36.5401L46.0373 36.5389C46.363 35.9578 46.4063 35.2494 46.414 34.866C46.422 34.4642 46.3925 34.0383 46.3327 33.6929L46.3052 33.5506C46.0235 32.2149 45.249 31.0381 44.1408 30.2514L43.9148 30.0984C43.6826 29.9493 43.4559 29.8271 43.232 29.7229C43.2223 29.1934 43.1949 28.6726 43.128 28.0906L43.0467 27.4856L43.0443 27.47L42.9881 27.1436C42.3767 23.7738 40.7836 20.6561 38.4046 18.1859L38.3938 18.1751L38.1021 17.8798C37.9503 17.7273 37.7897 17.5688 37.6238 17.411L37.112 16.9471C33.7773 14.0908 29.5363 12.5126 25.1457 12.4927H25.1421C24.7879 12.4904 24.4326 12.4969 24.079 12.5131L23.6246 12.5394ZM25.5116 14.0592C29.3984 14.1623 33.1368 15.5989 36.0955 18.1333C36.5007 18.4808 36.904 18.8884 37.2794 19.2705C39.5142 21.5912 40.9871 24.5393 41.5017 27.7199L41.5591 28.1349C41.6764 29.0746 41.6811 29.8294 41.6715 30.8242C42.1895 30.9621 42.6151 31.1213 43.0706 31.4137L43.232 31.5226C44.023 32.0826 44.5764 32.9218 44.777 33.8747L44.8105 34.0696C44.88 34.5744 44.8862 35.4004 44.6753 35.776C44.6356 35.8469 44.5523 35.9075 44.4673 35.9159L44.1635 35.935C43.8531 35.9464 43.5252 35.9378 43.2296 35.9374L40.6706 35.9338L28.0897 35.9362V35.0179L40.6706 35.0155L43.2308 35.0191C43.4822 35.0194 43.7107 35.022 43.922 35.0203C43.9245 34.9899 43.9287 34.9578 43.9304 34.9246C43.9432 34.669 43.9278 34.3942 43.9005 34.1952L43.8777 34.0648L43.8084 33.7958C43.6171 33.181 43.2279 32.6453 42.7011 32.2723L42.5743 32.1874L42.3125 32.0344C42.0504 31.8977 41.7787 31.8031 41.4347 31.7115C41.0296 31.6034 40.7491 31.234 40.7531 30.8147C40.7626 29.8319 40.757 29.1304 40.6491 28.2604L40.5917 27.8455C40.1043 24.8604 38.7208 22.0937 36.6241 19.9138L36.0573 19.347C35.9632 19.2554 35.8698 19.1656 35.7763 19.0792L35.4976 18.8304C32.6992 16.4334 29.1639 15.0751 25.4877 14.9776L25.123 14.9728C24.9686 14.9718 24.8143 14.9723 24.6602 14.9752L24.1926 14.9908C19.9918 15.1805 16.0402 17.0392 13.2153 20.1542L13.2105 20.159C11.0487 22.5091 9.68989 25.4856 9.33015 28.6586L9.32895 28.6574L9.28949 29.0891L9.29069 29.0903C9.25656 29.5328 9.24301 29.9728 9.26199 30.383L9.28232 30.7656C9.3054 31.192 9.03111 31.578 8.62105 31.6971C8.05658 31.8611 7.63987 32.0581 7.30448 32.3106C6.97343 32.5598 6.68217 32.8935 6.41003 33.3856C6.29356 33.5963 6.18105 33.9546 6.13021 34.3662C6.09995 34.6113 6.09817 34.8351 6.11347 35.0203C6.3322 35.0284 6.59844 35.033 6.87758 35.0334C7.20599 35.0339 7.54126 35.0301 7.82106 35.0262C8.09266 35.0225 8.32996 35.0191 8.4357 35.0191L19.8423 35.0167L22.4336 35.0119H22.436C22.6233 35.012 22.877 35.0229 23.0315 35.0262C23.0961 35.0276 23.156 35.0267 23.2109 35.0262V35.0238L23.2121 35.0143C23.4375 33.635 22.65 32.3265 21.3012 31.7916C21.0293 31.6842 20.742 31.6178 20.4498 31.5943C20.0663 31.5635 19.7428 31.2963 19.6391 30.9259C19.3146 29.7675 18.6923 29.0527 17.6158 28.3776C17.2438 28.1444 17.089 27.6802 17.2463 27.2703C18.5669 23.8296 22.3876 21.6585 25.9947 22.1356C28.0795 22.3321 30.157 23.4866 31.481 25.0593C31.9623 25.6308 32.5491 26.5406 32.8286 27.2811C32.9866 27.6997 32.8199 28.1704 32.434 28.3968C31.3941 29.0067 30.7511 29.8018 30.4287 30.9306C30.3274 31.2852 30.0233 31.5456 29.6574 31.5907C28.7023 31.7085 27.97 32.0637 27.4261 32.7542L27.334 32.8786C26.9614 33.4147 26.7754 34.0583 26.8018 34.7081L26.827 34.9868V34.9927C26.8279 34.9997 26.8285 35.0065 26.8294 35.0131C27.2495 35.015 27.6696 35.0179 28.0897 35.0179V35.9362L26.4563 35.9314C26.1154 35.9295 26.0083 35.6754 25.9564 35.3933L25.917 35.1099C25.7858 34.1392 26.0244 33.1565 26.5806 32.356L26.6954 32.1982C27.4207 31.2707 28.3988 30.8197 29.545 30.6783C29.9126 29.3915 30.6423 28.4489 31.7441 27.7427L31.9701 27.6052C31.7658 27.0643 31.3395 26.3677 30.9453 25.8569L30.779 25.6512C29.6 24.2507 27.7391 23.223 25.9098 23.0504C22.6995 22.6083 19.2712 24.5577 18.1037 27.5992C19.3276 28.3666 20.1234 29.2526 20.5228 30.6783C20.9058 30.7091 21.2823 30.7965 21.6396 30.9378C23.3551 31.6182 24.4195 33.3217 24.1185 35.1625L24.0874 35.3694C24.0489 35.5944 23.9762 35.849 23.7466 35.898L23.5935 35.9231L23.3089 35.9446C23.0162 35.9529 22.7063 35.9304 22.4348 35.9302L19.8447 35.935L8.4357 35.9374L6.87519 35.9518C6.28805 35.9509 5.71757 35.9371 5.51079 35.8884L5.44503 35.8657C5.36783 35.8176 5.31613 35.6969 5.29077 35.6146C5.07298 34.909 5.20677 33.7798 5.5371 33.0759L5.60526 32.942C6.25477 31.7672 7.09282 31.1855 8.36515 30.8158L8.34482 30.432C8.32314 29.9714 8.33847 29.4896 8.37471 29.0198L8.41657 28.5558C8.77434 25.3996 10.0642 22.4258 12.114 20.0119L12.5349 19.5371C15.4307 16.3439 19.4452 14.3986 23.7346 14.0975L24.1508 14.0724C24.4786 14.0574 24.8067 14.0522 25.1349 14.0544L25.5116 14.0592ZM20.0971 27.1412C21.2903 25.3832 23.5659 24.3045 25.6957 24.5977C25.7176 24.6007 25.7396 24.604 25.7615 24.6061C27.1567 24.7376 28.6506 25.5492 29.5833 26.6569L29.7184 26.8255C29.7963 26.9269 29.8748 27.0373 29.9516 27.1508C29.2844 27.7525 28.7554 28.4699 28.3791 29.3187C27.2814 29.6185 26.2649 30.2126 25.465 31.2356L25.459 31.2427C25.2977 31.4517 25.153 31.672 25.0249 31.8992C24.4048 30.8215 23.4172 29.9626 22.216 29.4861L21.9529 29.3905C21.8652 29.3611 21.7763 29.3342 21.6875 29.3092C21.3002 28.4313 20.7609 27.7321 20.0971 27.1412ZM25.5702 25.5077C24.0483 25.2983 22.3994 25.9443 21.3275 27.0754C21.7181 27.5127 22.0619 28.0005 22.3463 28.5558C22.4149 28.5801 22.4838 28.6042 22.552 28.6311C22.5532 28.6316 22.5532 28.6319 22.5544 28.6323C23.5095 29.0111 24.3507 29.5996 25.0189 30.3387C25.8003 29.4637 26.7332 28.8973 27.7238 28.5606C28.0023 28.0182 28.341 27.5266 28.7331 27.0814C27.9397 26.232 26.7468 25.6206 25.6754 25.5197C25.6352 25.5159 25.5987 25.5117 25.5702 25.5077ZM25.044 11.5792C25.0384 11.5798 25.0326 11.5821 25.0273 11.5827C25.0335 11.5819 25.0397 11.5799 25.0464 11.5792H25.044Z" fill="#020101"/>
<path id="Vector_2" d="M24.6582 14.855C24.854 14.8487 25.05 14.8474 25.2458 14.8512C29.5208 14.9035 33.5998 16.6514 36.5864 19.7106C38.7126 21.9028 40.1999 24.7568 40.6987 27.7798C40.866 28.793 40.8899 29.7188 40.874 30.7383C40.2627 30.7378 39.9104 30.7918 39.3374 30.9817C39.2964 30.8616 38.8433 29.6892 38.8425 29.6719C38.8118 28.9233 38.7378 28.2837 38.5915 27.5444C38.1113 25.239 37.0193 23.1055 35.4302 21.3676C33.3462 19.0656 30.553 17.5256 27.4939 16.992C26.7737 16.8645 26.1782 16.818 25.4536 16.7785C22.8146 16.7302 20.3654 17.3103 18.0612 18.6146C14.9512 20.375 12.5 23.4479 11.5868 26.9182C11.4149 27.5732 11.294 28.2407 11.225 28.9143C11.2082 29.0945 11.23 29.593 11.1802 29.7261C11.0193 30.1575 10.8657 30.5513 10.7426 31.002C10.1238 30.8149 9.80659 30.7495 9.16079 30.7349C9.02629 26.7315 10.5024 22.8414 13.2588 19.9349C16.3116 16.6842 20.2231 14.9933 24.6582 14.855Z" fill="#E76F51"/>
<path id="Vector_3" d="M34.1422 27.8421C36.0804 27.7083 37.8685 29.0108 38.412 30.8399C38.495 31.1196 38.5909 31.6548 38.7389 31.874C38.9095 32.1267 39.5936 31.7774 39.8085 31.7214C40.316 31.5779 40.7418 31.5498 41.2579 31.6174C42.1056 31.7261 42.8751 32.1675 43.3968 32.8445C43.9313 33.5498 44.099 34.2432 43.9769 35.1079L31.4815 35.1111C29.921 35.1074 28.3478 35.1238 26.7889 35.1067C26.6776 34.6128 26.7152 34.1199 26.8761 33.6416C27.1307 32.8633 27.6852 32.2185 28.4164 31.8496C29.1778 31.4683 30.0611 31.4107 30.8656 31.6897C31.7899 32.265 32.488 31.0709 30.4115 30.6968C30.5773 30.1619 30.8566 29.6687 31.2301 29.2512C32.0172 28.3638 32.9669 27.9158 34.1422 27.8421Z" fill="#E8E7E7"/>
<path id="Vector_4" d="M15.4037 27.842C16.1627 27.7939 16.9206 27.9517 17.5973 28.2988C18.5728 28.7942 19.3117 29.6565 19.6519 30.6963C19.7834 31.6712 20.1093 31.4416 20.7844 31.5723C21.6178 31.7336 22.3521 32.2214 22.8238 32.9272C23.2731 33.5969 23.4156 34.3203 23.2581 35.1064L19.1258 35.1101L10.6121 35.1099C9.11252 35.1104 7.55945 35.1335 6.06443 35.1079C6.0561 35.051 6.04931 34.9939 6.04414 34.9365C5.97551 34.1284 6.23195 33.3264 6.75661 32.7078C7.58689 31.7283 8.9039 31.3833 10.132 31.7007C10.453 31.7666 10.8019 31.9985 11.1288 31.9758C11.4757 31.9519 11.5238 31.2961 11.5889 31.0376C11.7455 30.4038 12.0493 29.8159 12.4756 29.3213C13.2779 28.3857 14.1824 27.9341 15.4037 27.842Z" fill="#E8E7E7"/>
<path id="Vector_5" d="M24.3636 17.564C24.6056 17.5375 25.2032 17.5477 25.4549 17.5531C28.2086 17.6125 30.8365 18.5904 33.0428 20.2177C35.2635 21.8851 36.88 24.2309 37.6476 26.8997C37.8177 27.5034 37.8868 27.9241 37.9806 28.543C37.3128 27.8081 36.4994 27.428 35.5689 27.1504C35.1673 25.7607 34.4684 24.4749 33.5206 23.3819C31.4715 20.988 28.7545 19.7467 25.6461 19.5086C23.676 19.4479 22.081 19.7146 20.2755 20.5509C18.0248 21.5877 16.1969 23.3639 15.0959 25.584C14.785 26.2183 14.7151 26.5229 14.4859 27.1479C13.4168 27.4646 12.8539 27.7466 12.0356 28.542C12.1187 28.0613 12.1935 27.6047 12.3215 27.1326C13.2244 23.8036 15.4995 20.9521 18.4892 19.2437C20.3188 18.1981 22.2603 17.7062 24.3636 17.564Z" fill="#EFB366"/>
<path id="Vector_6" d="M24.5461 20.2739C28.9846 19.981 33.2532 22.8374 34.7271 27.022C33.8987 26.9963 33.488 27.0505 32.7007 27.2866C32.2869 26.3972 31.9541 25.8122 31.2986 25.0601C29.8474 23.3902 27.7876 22.3717 25.5798 22.2321C22.7416 22.0115 19.7904 23.4301 18.2017 25.7761C17.8604 26.2803 17.6217 26.7449 17.3559 27.2908C16.6056 27.0452 16.1159 27.0142 15.3477 27.0124C15.6878 25.8096 16.5378 24.5256 17.3692 23.6051C19.2244 21.5859 21.8065 20.3875 24.5461 20.2739Z" fill="#2A9D8F"/>
</g>
<path id="Union" d="M25.1719 11.5752C29.7721 11.6012 34.2146 13.2561 37.709 16.249L37.71 16.25C37.8975 16.4108 38.0817 16.5787 38.2568 16.7451L38.7529 17.2324L38.7559 17.2354L39.043 17.5254L39.0654 17.5488L39.5264 18.0449C41.6266 20.3936 43.0842 23.2438 43.7598 26.3174L43.8926 26.9785L43.8936 26.9883L43.9492 27.3145L43.9512 27.3252L43.9531 27.3408L43.9541 27.3477C44.0556 28.018 44.1077 28.5992 44.1328 29.1611C44.2243 29.2139 44.3185 29.2667 44.4111 29.3262C45.7573 30.1841 46.7245 31.5156 47.1299 33.0508L47.2041 33.3604L47.207 33.377L47.2344 33.5195L47.2383 33.5361C47.3093 33.9462 47.3411 34.4317 47.332 34.8848C47.3241 35.2789 47.2834 36.1679 46.8555 36.9541C46.8498 36.9652 46.8459 36.9773 46.8398 36.9883C46.4496 37.6849 45.6913 38.2887 44.708 38.3848C44.4211 38.4125 44.1167 38.4205 43.8594 38.4219H43.8486L43.2227 38.4189L40.667 38.415L28.0898 38.416C27.5399 38.416 26.9907 38.4143 26.4424 38.4111C25.9871 38.4085 25.491 38.3037 25.0225 38.0439C24.8006 38.1644 24.5478 38.2633 24.2617 38.3242C23.7888 38.4247 23.3425 38.4289 23.0693 38.4258C22.9238 38.4241 22.7781 38.4193 22.6777 38.416C22.564 38.4123 22.492 38.4102 22.4336 38.4102L19.8506 38.416H8.43652C8.36009 38.4161 8.17749 38.4215 7.86914 38.4258C7.58346 38.4297 7.22743 38.4331 6.87305 38.4326C6.52605 38.4321 6.14732 38.4272 5.82617 38.4111C5.67017 38.4033 5.48362 38.3914 5.30371 38.3682C5.21556 38.3568 5.08539 38.3376 4.94141 38.3037C4.85021 38.2822 4.50688 38.2022 4.1416 37.9766C3.57464 37.6262 3.28942 37.1529 3.18066 36.957C3.04725 36.7167 2.96714 36.4948 2.9209 36.3447L2.83691 36.0322C2.66805 35.2987 2.68272 34.5496 2.75684 33.9492C2.84285 33.2533 3.04686 32.4416 3.43457 31.7402C3.90117 30.8965 4.49057 30.1738 5.25977 29.5947C5.46169 29.4427 5.66914 29.3065 5.87988 29.1836C5.8973 28.8763 5.92027 28.579 5.94922 28.2998L5.95117 28.2842L5.95312 28.2695C6.36744 24.6256 7.85685 21.1934 10.2236 18.4062L10.709 17.8574C14.1413 14.0797 18.938 11.8265 24.0371 11.5957C24.4002 11.5791 24.7642 11.5731 25.1279 11.5752C25.1338 11.5751 25.1396 11.5742 25.1455 11.5742C25.1478 11.5742 25.151 11.5732 25.1533 11.5732C25.1595 11.5734 25.1657 11.575 25.1719 11.5752ZM22.707 37.498L23.0791 37.5078C22.9458 37.5063 22.8133 37.5015 22.708 37.498L22.4336 37.4922C22.5084 37.4922 22.5941 37.4944 22.707 37.498ZM23.377 37.5039C23.4032 37.5031 23.4299 37.5023 23.457 37.501C23.4299 37.5023 23.4032 37.503 23.377 37.5039ZM28.0889 37.4971L28.0898 37.498L40.668 37.4971V37.4961L28.0889 37.4971ZM26.4463 37.4932L27.2676 37.4951C26.994 37.4943 26.7206 37.4948 26.4473 37.4932C26.3993 37.4929 26.3505 37.4908 26.3018 37.4873C26.3503 37.4908 26.3985 37.4929 26.4463 37.4932ZM24.5 37.2822C24.3724 37.343 24.2299 37.392 24.0713 37.4258C23.8962 37.463 23.7227 37.4827 23.5615 37.4941C23.6372 37.4888 23.7159 37.4829 23.7959 37.4727C23.8862 37.4611 23.9795 37.4455 24.0723 37.4258C24.1248 37.4146 24.1756 37.4022 24.2246 37.3877C24.3233 37.3585 24.4149 37.3228 24.5 37.2822ZM25.8018 37.3877C25.87 37.4103 25.9382 37.4304 26.0068 37.4453L25.8594 37.4072C25.84 37.4015 25.8211 37.3941 25.8018 37.3877ZM44.8037 37.4424C44.8151 37.4401 44.8266 37.4381 44.8379 37.4355C44.8266 37.4381 44.8151 37.4401 44.8037 37.4424ZM45.002 37.3896C45.0154 37.3853 45.0287 37.3807 45.042 37.376C45.0287 37.3807 45.0154 37.3853 45.002 37.3896ZM4.625 37.1953C4.75196 37.2737 4.87614 37.3242 4.97363 37.3574C4.8762 37.3238 4.75203 37.2728 4.625 37.1943H4.62402L4.625 37.1953ZM45.1357 37.3389C45.1748 37.3226 45.2127 37.3049 45.25 37.2861C45.2127 37.3048 45.1748 37.3226 45.1357 37.3389ZM45.3262 37.2451C45.3605 37.2258 45.394 37.2058 45.4268 37.1846C45.394 37.2058 45.3605 37.2258 45.3262 37.2451ZM45.5127 37.127C45.5387 37.108 45.5631 37.0875 45.5879 37.0674C45.5631 37.0875 45.5387 37.108 45.5127 37.127ZM45.668 37C45.6982 36.9725 45.7269 36.944 45.7549 36.915C45.7269 36.944 45.6982 36.9725 45.668 37ZM45.8086 36.8584C45.832 36.8321 45.8534 36.8046 45.875 36.7773C45.8534 36.8046 45.832 36.8321 45.8086 36.8584ZM46.0381 36.54C46.0233 36.5664 46.0056 36.5913 45.9893 36.6172L46.0391 36.54L46.0371 36.5391L46.0381 36.54ZM3.73242 35.8301C3.74194 35.8712 3.7547 35.9115 3.76562 35.9521C3.7547 35.9115 3.74194 35.8712 3.73242 35.8301ZM23.0127 35.9443C23.0273 35.9446 23.042 35.9441 23.0566 35.9443C23.0065 35.9435 22.9562 35.9419 22.9062 35.9404C22.8962 35.9401 22.886 35.9407 22.876 35.9404L23.0127 35.9443ZM23.1924 35.9424C23.2313 35.9422 23.2701 35.9454 23.3086 35.9443C23.2701 35.9454 23.2313 35.9422 23.1924 35.9424ZM5.62012 35.9072H5.62109H5.62012ZM3.68555 35.5898C3.69581 35.6514 3.70855 35.7125 3.72168 35.7734C3.70855 35.7125 3.69581 35.6514 3.68555 35.5898ZM3.65234 35.3496C3.6581 35.4018 3.66621 35.4538 3.67383 35.5059C3.66621 35.4538 3.6581 35.4018 3.65234 35.3496ZM5.22168 35.3115C5.22256 35.3171 5.2237 35.3226 5.22461 35.3281C5.22002 35.3002 5.21667 35.2718 5.21289 35.2432C5.21592 35.2661 5.21813 35.289 5.22168 35.3115ZM3.63281 35.1074C3.63539 35.151 3.63784 35.1946 3.6416 35.2383C3.63784 35.1946 3.63539 35.151 3.63281 35.1074ZM25.916 35.1094C25.9202 35.1418 25.9264 35.1747 25.9307 35.208L25.917 35.1104C25.9097 35.0562 25.9035 35.0015 25.8984 34.9473C25.9035 35.0013 25.9087 35.0554 25.916 35.1094ZM3.62402 34.8193C3.6243 34.8821 3.6254 34.9453 3.62793 35.0088C3.6254 34.9453 3.6243 34.8821 3.62402 34.8193ZM3.62598 34.624C3.6245 34.6732 3.62325 34.7227 3.62305 34.7725C3.62324 34.7227 3.6245 34.6732 3.62598 34.624ZM3.66895 34.0615C3.68804 33.907 3.71275 33.7481 3.74512 33.5879C3.71264 33.7484 3.68709 33.9077 3.66797 34.0625L3.66895 34.0615ZM25.9307 33.9658C25.9223 34.018 25.9155 34.0705 25.9092 34.123C25.9155 34.0705 25.9223 34.018 25.9307 33.9658ZM25.9521 33.8447C25.9444 33.885 25.9372 33.9253 25.9307 33.9658C25.9366 33.9292 25.9442 33.8929 25.9512 33.8564C25.9534 33.8447 25.9557 33.833 25.958 33.8213C25.962 33.8014 25.9655 33.7815 25.9697 33.7617L25.9521 33.8447ZM26.0078 33.6016C25.9957 33.6482 25.9841 33.6951 25.9736 33.7422C25.9841 33.6951 25.9957 33.6482 26.0078 33.6016ZM46.2949 33.5039C46.28 33.4362 46.2645 33.3686 46.2471 33.3018L46.2422 33.2852C46.2613 33.3575 46.2788 33.4305 46.2949 33.5039ZM23.79 32.9004C23.8109 32.9431 23.8274 32.9878 23.8467 33.0312C23.8273 32.9875 23.811 32.9424 23.79 32.8994V32.9004ZM5.72949 32.7275C5.72389 32.7367 5.71945 32.7466 5.71387 32.7559C5.7193 32.7469 5.72403 32.7374 5.72949 32.7285V32.7275ZM46.123 32.8994C46.111 32.8646 46.0997 32.8295 46.0869 32.7949C46.0997 32.8295 46.111 32.8645 46.123 32.8994ZM46.043 32.6826C46.0226 32.6309 46.0024 32.5793 45.9805 32.5283C46.0024 32.5793 46.0226 32.6309 46.043 32.6826ZM45.9463 32.4531C45.9249 32.4054 45.9036 32.3576 45.8809 32.3105C45.9036 32.3576 45.9249 32.4054 45.9463 32.4531ZM45.8271 32.2041C45.8073 32.1653 45.7883 32.1262 45.7676 32.0879C45.7883 32.1262 45.8073 32.1653 45.8271 32.2041ZM45.6836 31.9395C45.6673 31.9116 45.6505 31.884 45.6338 31.8564C45.6505 31.884 45.6673 31.9116 45.6836 31.9395ZM45.5518 31.7256C45.5288 31.6901 45.5052 31.655 45.4814 31.6201C45.5052 31.6551 45.5288 31.6901 45.5518 31.7256ZM45.4316 31.5479C45.3998 31.5027 45.3672 31.4582 45.334 31.4141C45.3672 31.4582 45.3998 31.5027 45.4316 31.5479ZM4.93652 31.1592C4.87146 31.2365 4.80852 31.3161 4.74707 31.3975C4.86998 31.2347 4.99998 31.0802 5.1377 30.9336L4.93652 31.1592ZM45.2588 31.3164C45.2326 31.2831 45.2057 31.2504 45.1787 31.2178C45.2057 31.2504 45.2326 31.2831 45.2588 31.3164ZM25.4658 31.2354H25.4648H25.4658ZM21.9531 31.0771H21.9541H21.9531ZM45.0938 31.1162C45.0668 31.0852 45.0393 31.0548 45.0117 31.0244C45.0393 31.0548 45.0668 31.0852 45.0938 31.1162ZM44.918 30.9229C44.8989 30.9029 44.8788 30.8839 44.8594 30.8643C44.8788 30.8839 44.8989 30.9029 44.918 30.9229ZM5.57422 30.5176V30.5186V30.5176ZM25.5703 25.5078C24.0485 25.2984 22.399 25.9441 21.3271 27.0752C21.7177 27.5125 22.0622 28.0004 22.3467 28.5557C22.415 28.5799 22.4838 28.604 22.5518 28.6309C22.5529 28.6313 22.5535 28.6324 22.5547 28.6328C23.5096 29.0116 24.3505 29.5999 25.0186 30.3389C25.7999 29.4639 26.7331 28.8972 27.7236 28.5605C28.0021 28.0182 28.3413 27.5263 28.7334 27.0811C27.9401 26.2318 26.747 25.6206 25.6758 25.5195C25.6356 25.5157 25.5988 25.5117 25.5703 25.5078ZM29.7061 30.1953C29.699 30.2136 29.6934 30.2325 29.6865 30.251C29.6934 30.2325 29.699 30.2136 29.7061 30.1953ZM43.2314 29.7227C43.4553 29.8269 43.6818 29.9496 43.9141 30.0986C43.9909 30.1475 44.0667 30.1985 44.1406 30.251L43.915 30.0986C43.6829 29.9496 43.4562 29.8269 43.2324 29.7227C43.2294 29.5581 43.2229 29.3945 43.2158 29.2295C43.2229 29.3943 43.2284 29.5582 43.2314 29.7227ZM43.2109 29.1426C43.2033 28.9829 43.1945 28.8218 43.1816 28.6572C43.1945 28.8218 43.2033 28.9829 43.2109 29.1426ZM28.8662 28.418C28.7439 28.6063 28.631 28.8026 28.5273 29.0068L28.6895 28.707C28.7461 28.6087 28.8049 28.5123 28.8662 28.418ZM6.86426 28.3789L6.86328 28.3945L6.86523 28.3789C6.89143 28.1478 6.92179 27.9176 6.95703 27.6885L6.86426 28.3789ZM29.2598 27.877V27.8779V27.877ZM31.9678 27.6006C31.9397 27.5266 31.9068 27.45 31.8711 27.3711C31.9068 27.45 31.9397 27.5266 31.9678 27.6006ZM31.8662 27.3604C31.8527 27.3307 31.8387 27.3007 31.8242 27.2705C31.8387 27.3007 31.8527 27.3307 31.8662 27.3604ZM21.1758 25.96C20.9684 26.1319 20.7735 26.3174 20.5928 26.5146L20.874 26.2285C20.9715 26.1359 21.072 26.0461 21.1758 25.96ZM19.0693 25.9004C18.9784 26.0174 18.8899 26.1362 18.8066 26.2588C18.8633 26.1754 18.9222 26.0935 18.9824 26.0127C19.0107 25.9747 19.0403 25.9378 19.0693 25.9004ZM23.6934 24.7041C23.0369 24.8592 22.4036 25.1268 21.8311 25.4863L22.1816 25.2822C22.6579 25.0245 23.1682 24.8283 23.6934 24.7041ZM8.33691 23.0693C8.4322 22.8606 8.53232 22.6541 8.63574 22.4492V22.4482C8.53217 22.6534 8.43233 22.8603 8.33691 23.0693ZM25.7617 24.6064C26.0233 24.6311 26.2885 24.6791 26.5527 24.749L26.2891 24.6865C26.1127 24.6495 25.9363 24.6219 25.7617 24.6055C25.7397 24.6034 25.7172 24.6007 25.6953 24.5977C25.7171 24.6007 25.7398 24.6044 25.7617 24.6064ZM41.3594 22.3271C41.5193 22.6397 41.6669 22.9585 41.8076 23.2803C41.6669 22.9585 41.5193 22.6398 41.3594 22.3271ZM38.4043 18.1865C38.5529 18.3409 38.6993 18.497 38.8418 18.6562C38.6993 18.4969 38.553 18.3399 38.4043 18.1855L38.3936 18.1748L38.4043 18.1865ZM11.3848 18.4785C11.0701 18.8206 10.7694 19.1742 10.4844 19.5381C10.1992 19.9022 9.92943 20.2771 9.6748 20.6611C10.1838 19.8934 10.7553 19.1638 11.3848 18.4795V18.4785ZM13.1094 18.9346C12.9134 19.1302 12.7211 19.331 12.5342 19.5371H12.5352C12.722 19.3311 12.9134 19.1301 13.1094 18.9346ZM12.3066 17.5342C12.1539 17.6797 12.0045 17.8292 11.8564 17.9805C12.0142 17.8193 12.1738 17.6606 12.3369 17.5059L12.3066 17.5342ZM14.6572 17.5693H14.6582H14.6572ZM36.54 16.4766C36.6515 16.5645 36.7615 16.6544 36.8711 16.7451C36.7615 16.6544 36.6515 16.5645 36.54 16.4766ZM33.9795 16.5869H33.9785H33.9795ZM13.6807 16.3496C13.6206 16.3964 13.5615 16.4446 13.502 16.4922C13.5615 16.4446 13.6206 16.3964 13.6807 16.3496ZM14.0283 16.0859C13.9555 16.1399 13.8835 16.1949 13.8115 16.25C13.8835 16.1949 13.9555 16.1399 14.0283 16.0859ZM14.7715 15.5635C14.692 15.6165 14.6129 15.6703 14.5342 15.7246C14.6129 15.6703 14.692 15.6165 14.7715 15.5635ZM15.0957 15.3516C15.0314 15.3925 14.9681 15.4348 14.9043 15.4766C14.9681 15.4348 15.0314 15.3925 15.0957 15.3516ZM34.5488 15.1064C34.7121 15.2038 34.8738 15.3038 35.0342 15.4062C34.8738 15.3038 34.7121 15.2038 34.5488 15.1064ZM31.4004 15.2832L31.3984 15.2822L31.4004 15.2832ZM15.4932 15.1064C15.4432 15.1365 15.3934 15.1668 15.3438 15.1973C15.3934 15.1667 15.4432 15.1365 15.4932 15.1064ZM15.8711 14.8848C15.8019 14.9241 15.7328 14.9636 15.6641 15.0039C15.7328 14.9636 15.8019 14.9241 15.8711 14.8848ZM19.6973 14.8887H19.6982H19.6973ZM16.6562 14.4639C16.5851 14.4999 16.5141 14.5363 16.4434 14.5732C16.5141 14.5363 16.5851 14.4999 16.6562 14.4639ZM33.1289 14.3418C33.2398 14.3954 33.3501 14.45 33.46 14.5059C33.3501 14.45 33.2398 14.3954 33.1289 14.3418ZM17.0088 14.29C16.9624 14.3123 16.9163 14.3348 16.8701 14.3574C16.9163 14.3348 16.9624 14.3123 17.0088 14.29ZM17.4023 14.1064C17.3589 14.126 17.3157 14.1461 17.2725 14.166C17.3157 14.1461 17.3589 14.126 17.4023 14.1064ZM19.0957 13.4434C19.0152 13.4704 18.9346 13.4973 18.8545 13.5254C18.9346 13.4973 19.0152 13.4704 19.0957 13.4434ZM26.376 12.5391C26.5214 12.5494 26.6666 12.5615 26.8115 12.5752C26.6666 12.5615 26.5214 12.5494 26.376 12.5391ZM25.0273 11.583C25.0335 11.5822 25.0402 11.5798 25.0469 11.5791H25.0439C25.0383 11.5797 25.0326 11.5823 25.0273 11.583Z" fill="white" fill-opacity="0.3"/>
</g>
</g>
</g>
</svg>
