<svg width="50" height="50" viewBox="0 0 50 50" fill="none" xmlns="http://www.w3.org/2000/svg">
<rect width="50" height="50" fill="#BEBEBE"/>
<g id="Decorate Mode">
<path d="M-180.281 -1239.03V-1238.03H2839.72V-1239.03V-1240.03H-180.281V-1239.03ZM2841.72 -1237.03H2840.72V2300.97H2841.72H2842.72V-1237.03H2841.72ZM2839.72 2302.97V2301.97H-180.281V2302.97V2303.97H2839.72V2302.97ZM-182.281 2300.97H-181.281V-1237.03H-182.281H-183.281V2300.97H-182.281ZM-180.281 2302.97V2301.97C-180.834 2301.97 -181.281 2301.52 -181.281 2300.97H-182.281H-183.281C-183.281 2302.62 -181.938 2303.97 -180.281 2303.97V2302.97ZM2841.72 2300.97H2840.72C2840.72 2301.52 2840.27 2301.97 2839.72 2301.97V2302.97V2303.97C2841.38 2303.97 2842.72 2302.62 2842.72 2300.97H2841.72ZM2839.72 -1239.03V-1238.03C2840.27 -1238.03 2840.72 -1237.59 2840.72 -1237.03H2841.72H2842.72C2842.72 -1238.69 2841.38 -1240.03 2839.72 -1240.03V-1239.03ZM-180.281 -1239.03V-1240.03C-181.938 -1240.03 -183.281 -1238.69 -183.281 -1237.03H-182.281H-181.281C-181.281 -1237.59 -180.834 -1238.03 -180.281 -1238.03V-1239.03Z" fill="black" fill-opacity="0.1"/>
<g id="Stickers">
<rect x="-128.272" y="-366.534" width="374" height="551" rx="4.5" stroke="#9747FF" stroke-dasharray="10 5"/>
<g id="Property 1=comet">
<g id="Frame 192">
<path id="Vector" d="M36.5173 6.01358C37.3071 5.90535 38.0825 6.30823 38.3381 7.08093C38.8332 8.57854 37.5146 10.0486 36.779 11.2314C36.403 11.8358 36.0031 12.4158 35.625 13.0181C35.4172 13.3389 35.0847 13.7429 34.9343 14.0824C35.8845 13.5627 36.8562 12.7868 37.8107 12.227C39.2619 11.3761 40.7229 10.061 42.3774 9.6562C44.1171 9.23052 45.0822 10.9231 44.3342 12.3967C43.7951 13.4275 42.8884 14.3664 42.1289 15.2493L40.6772 16.9697C40.4226 17.2675 40.0065 17.7002 39.7981 18.0165L39.7807 18.0434C40.3571 17.7496 42.1613 16.4143 42.7265 17.2661C43.0205 17.7095 42.0041 18.7271 41.707 19.0592C41.239 19.5826 40.7661 20.1014 40.288 20.6155C39.1394 21.8708 38.0053 23.1392 36.8859 24.4207C36.7375 24.5913 36.0835 25.3086 36.03 25.4497C36.0991 25.5093 36.3239 25.3167 36.413 25.2749C37.4101 24.8069 39.5151 23.1842 40.4101 24.4543C40.81 25.022 40.4055 25.666 40 26.0945C39.2954 26.8396 38.5561 27.5654 37.8222 28.29C36.5949 29.488 35.3762 30.6951 34.1665 31.9109C32.4174 33.6682 30.6594 35.4163 28.8923 37.155C27.1262 38.8955 25.3093 40.8503 23.1583 42.1035C20.2201 43.8276 16.9649 44.4656 13.6472 43.6401C10.8278 42.9426 8.48004 41.2034 6.95108 38.7334C4.5608 34.8718 4.95289 29.7661 7.61934 26.1436C8.48404 24.9688 9.61937 23.8816 10.6515 22.8476L15.6628 17.9088C16.5944 16.9668 17.5333 16.032 18.4794 15.1044C18.7327 14.8581 18.9896 14.6183 19.2458 14.3752C19.5762 14.0617 19.9951 13.6661 20.4972 13.8097C20.6878 13.8645 20.8488 13.993 20.9444 14.1668C21.2475 14.7147 20.8462 15.4476 20.6989 15.9995L25.2942 11.5464C25.9567 10.9026 27.9052 8.85632 28.5874 8.52202C28.8083 8.4137 29.0876 8.34902 29.3261 8.43828C29.5014 8.50393 29.6367 8.66416 29.706 8.83438C30.0581 9.69849 29.2878 10.8324 28.957 11.5828C29.3562 11.2919 29.8711 10.8482 30.2609 10.5308L33.3181 7.99988C34.2243 7.24956 35.3278 6.19282 36.5173 6.01358Z" fill="#020101"/>
<path id="Vector (Stroke)" d="M36.3051 4.46544C37.7246 4.27093 39.2941 4.99649 39.8214 6.59008L39.822 6.59069C40.1234 7.50275 40.0231 8.35714 39.7909 9.07848C40.4463 8.69587 41.1894 8.33832 42.0058 8.13854L42.1444 8.10741C43.5678 7.81179 44.869 8.35532 45.5935 9.45446C46.2958 10.5201 46.3314 11.9144 45.7278 13.1037L45.7235 13.1123L45.7186 13.1208C45.1598 14.1894 44.2687 15.1837 43.6086 15.9315C43.7605 16.0585 43.9032 16.2132 44.0285 16.4021L44.0291 16.4027C44.5145 17.1348 44.3202 17.8916 44.2037 18.2154C44.0716 18.5828 43.8631 18.9014 43.7038 19.1212C43.3869 19.5587 42.958 20.0034 42.8713 20.1002C42.3966 20.6311 41.9172 21.1582 41.4321 21.6798L41.4315 21.6792C41.1409 21.9968 40.8517 22.3157 40.563 22.635C40.9864 22.8157 41.3771 23.1141 41.6872 23.5542H41.6878C42.2497 24.3517 42.2064 25.2138 41.979 25.8516C41.7727 26.43 41.4044 26.8826 41.1349 27.1675C40.4078 27.9363 39.6473 28.6838 38.9199 29.402L38.9138 29.4081C37.6919 30.6008 36.4785 31.8024 35.2743 33.0128V33.0134C33.5217 34.7743 31.7593 36.525 29.9886 38.2673C28.3073 39.9242 26.3143 42.071 23.9486 43.4504L23.9492 43.451C20.7093 45.3522 17.0375 46.0938 13.2699 45.1564V45.1558C10.1468 44.3825 7.52914 42.4878 5.78818 39.817L5.62277 39.5558C2.87095 35.1101 3.34643 29.3133 6.3613 25.2174C7.31384 23.9233 8.55824 22.7329 9.5455 21.7439L9.55466 21.7347L14.5663 16.7958C15.4989 15.8529 16.4386 14.9172 17.3855 13.9888L17.3904 13.9845C17.6526 13.7294 17.9272 13.4725 18.1704 13.2417C18.311 13.1082 18.6305 12.7953 19.0279 12.5666C19.465 12.3152 20.1383 12.0818 20.9267 12.3072L20.9286 12.3079C21.2473 12.3994 21.5389 12.5579 21.7867 12.7687L24.2068 10.4243C24.3603 10.275 24.5909 10.0418 24.8855 9.74621C25.1732 9.4574 25.5089 9.12268 25.8474 8.79528C26.1835 8.47009 26.5365 8.13902 26.8587 7.86144C27.139 7.62002 27.5264 7.30216 27.8994 7.11925L28.063 7.0454C28.4516 6.88401 29.0599 6.72964 29.7207 6.92394L29.8739 6.9746L29.8745 6.97521C30.3987 7.17161 30.7574 7.53999 30.9811 7.906L32.322 6.79638C32.7077 6.477 33.3072 5.94307 33.9095 5.51708C34.5221 5.08385 35.3333 4.61186 36.2844 4.4685L36.2948 4.46666L36.3051 4.46544ZM38.3382 7.0808C38.0826 6.30822 37.3072 5.90517 36.5176 6.0133C35.3281 6.19254 34.2243 7.24967 33.3181 7.99999L30.2608 10.5305C29.871 10.8479 29.3563 11.2919 28.9571 11.5828C29.288 10.8323 30.0581 9.69842 29.706 8.83434C29.6367 8.66419 29.5016 8.5039 29.3264 8.43822C29.0879 8.34896 28.8082 8.41352 28.5873 8.52184C27.9051 8.85625 25.9572 10.9021 25.2944 11.5461L20.6991 15.9993C20.8465 15.4474 21.2474 14.7147 20.9444 14.167C20.8488 13.9932 20.6877 13.8647 20.497 13.8099C19.995 13.6664 19.5762 14.0616 19.2458 14.3751C18.9896 14.6182 18.7325 14.8581 18.4792 15.1045C17.5333 16.032 16.5947 16.9671 15.6631 17.909L10.6515 22.8474C9.61937 23.8814 8.48392 24.9685 7.61923 26.1433C4.95278 29.7659 4.56061 34.8721 6.9509 38.7336C8.47981 41.2035 10.8277 42.9427 13.6471 43.6402C16.9647 44.4657 20.22 43.8274 23.1582 42.1034C25.3091 40.8502 27.1263 38.8957 28.8924 37.1553C30.2177 35.8512 31.5378 34.5416 32.853 33.227L34.1665 31.9111C34.7714 31.3032 35.3784 30.697 35.9878 30.0935L37.8225 28.2899C38.5563 27.5653 39.2957 26.8395 40.0002 26.0945C40.4057 25.666 40.8101 25.022 40.4104 24.4545C39.5154 23.1843 37.4103 24.8067 36.4132 25.2748C36.3241 25.3165 36.099 25.5095 36.0299 25.4499C36.0833 25.3088 36.7377 24.5916 36.8862 24.4209C38.0056 23.1394 39.1396 21.8706 40.2883 20.6153C40.7663 20.1013 41.2394 19.5823 41.7074 19.0589C42.0048 18.7267 43.0201 17.7097 42.7267 17.2663C42.1616 16.4146 40.3578 17.7492 39.7811 18.0433L39.7982 18.0165C40.0067 17.7002 40.4225 17.2675 40.6771 16.9697L42.1291 15.2491C42.8412 14.4215 43.6822 13.5443 44.2287 12.5886L44.3343 12.397C45.0824 10.9234 44.1173 9.2308 42.3775 9.65648L42.2231 9.69677C40.6318 10.1426 39.2167 11.4023 37.8109 12.2267C36.8563 12.7865 35.8845 13.5624 34.9343 14.0821C35.0847 13.7427 35.4175 13.339 35.6252 13.0183C36.0034 12.416 36.4034 11.8356 36.7794 11.2312C37.492 10.0854 38.7513 8.67 38.3791 7.22118L38.3382 7.0808Z" fill="#E8E7E7"/>
<path id="Vector (Stroke) (Stroke)" d="M36.1985 3.55445C37.9747 3.31892 40.0023 4.22425 40.6911 6.2952C40.6919 6.29759 40.6927 6.29998 40.6935 6.30237C40.8318 6.72065 40.8997 7.12782 40.9195 7.5173C41.1975 7.41318 41.4869 7.32064 41.7877 7.24705L41.8044 7.24226L41.9431 7.21117L41.9575 7.20759C43.6198 6.86234 45.207 7.43932 46.175 8.69037L46.3604 8.94866C47.2605 10.3144 47.2832 12.0601 46.5481 13.513L46.5493 13.5142L46.5445 13.5226C46.5406 13.5303 46.5355 13.5376 46.5314 13.5453C46.5277 13.5524 46.5232 13.5597 46.5194 13.5668L46.5206 13.568L46.5158 13.5764C46.0493 14.4586 45.3902 15.2806 44.8214 15.9404C45.5143 17.0268 45.2138 18.1193 45.0677 18.5257C44.8925 19.013 44.6253 19.4134 44.4471 19.6594V19.6606C44.0941 20.1477 43.6101 20.6504 43.555 20.7117C43.0769 21.2464 42.5942 21.7791 42.1046 22.3056C42.1028 22.3075 42.1003 22.3086 42.0986 22.3104C42.0506 22.3629 42.003 22.4157 41.9551 22.4683C42.1286 22.6322 42.2914 22.8172 42.4382 23.0255L42.5745 23.2324C43.2057 24.2749 43.1245 25.3717 42.8436 26.1597C42.5756 26.9108 42.1103 27.4733 41.802 27.7991L41.8008 27.7979C41.0624 28.5788 40.292 29.3374 39.5695 30.0508L39.5635 30.058L39.5551 30.0651C38.3365 31.2547 37.127 32.4538 35.9259 33.6609L35.9247 33.6597V33.6609C34.1697 35.4242 32.406 37.1781 30.6333 38.9224L30.6321 38.9212C29.0038 40.5259 26.9162 42.7757 24.4344 44.2293C24.4274 44.2336 24.4211 44.2395 24.414 44.2436C20.9971 46.2486 17.0802 47.0513 13.048 46.0481C13.0402 46.0461 13.033 46.0418 13.0253 46.0397C9.68296 45.2057 6.88027 43.1733 5.0195 40.319L5.01232 40.3083L4.8473 40.0476L4.84252 40.0392C1.87792 35.2498 2.40287 29.047 5.62218 24.6733C6.62622 23.3092 7.93437 22.0579 8.89625 21.0943L8.90582 21.0859L8.9106 21.0812L13.9222 16.1413C14.8552 15.1982 15.7957 14.2613 16.743 13.3324L16.761 13.3157C17.0254 13.0588 17.3046 12.7972 17.5382 12.5755C17.6676 12.4527 18.0631 12.0625 18.5702 11.7707C19.1031 11.4641 19.9573 11.15 20.9737 11.3725L21.1794 11.4239L21.2177 11.4359C21.3716 11.482 21.519 11.5429 21.6625 11.6105L23.5674 9.76419C23.7139 9.62172 23.9354 9.39851 24.2347 9.09813C24.5237 8.808 24.8647 8.46881 25.2092 8.13552C25.5504 7.8055 25.9174 7.46011 26.2591 7.16573C26.5361 6.9271 27.0045 6.53603 27.4956 6.2952L27.5219 6.28204L27.6857 6.20791L27.7108 6.19714C28.1741 6.00477 28.9381 5.79577 29.8047 5.99745L29.9804 6.04289L30.0091 6.05245L30.1622 6.10268L30.1957 6.11583L30.1969 6.11463C30.2128 6.12058 30.2278 6.1288 30.2435 6.13496C30.2515 6.13849 30.2595 6.14197 30.2674 6.14572C30.5813 6.27236 30.85 6.44056 31.0782 6.63122L31.7371 6.08833C32.0858 5.79952 32.739 5.21952 33.3789 4.76698C34.0311 4.30568 34.9746 3.74418 36.1244 3.56521L36.1292 3.56401C36.1352 3.56308 36.1411 3.56133 36.1471 3.56042V3.56162C36.1606 3.55941 36.1742 3.55604 36.1878 3.55445L36.1985 3.55325V3.55445ZM39.8218 6.59056C39.2945 4.99697 37.7245 4.27112 36.305 4.46564L36.2954 4.46683L36.2846 4.46803L35.9343 4.53739C35.1338 4.72969 34.4457 5.13777 33.9098 5.51674L33.4614 5.85156C33.0206 6.19639 32.6111 6.55672 32.3218 6.79623L30.9813 7.90593C30.7576 7.53992 30.3982 7.17201 29.874 6.9756V6.97441L29.7209 6.92418C29.0606 6.72999 28.4523 6.88366 28.0636 7.04496L27.8998 7.1191C27.5269 7.30195 27.1397 7.62028 26.8594 7.86168L26.3584 8.31011C26.1878 8.46828 26.0159 8.63294 25.8478 8.7956L24.8852 9.74625L24.2072 10.4243L21.7869 12.7692L21.5932 12.6209C21.3916 12.4831 21.1674 12.3763 20.9283 12.3076H20.9271C20.1386 12.0822 19.4652 12.3157 19.0282 12.5671L18.746 12.7501C18.4822 12.9406 18.2763 13.1414 18.1708 13.2415L17.39 13.9841L17.3852 13.9889C16.4385 14.9171 15.4991 15.8528 14.5667 16.7954L9.55513 21.7353L9.54557 21.7436C8.5583 22.7327 7.31371 23.9233 6.36117 25.2174C3.34637 29.3133 2.87157 35.1105 5.62337 39.5561L5.78839 39.8168C7.42058 42.3207 9.82311 44.1431 12.6905 44.9982L13.2705 45.156C16.8024 46.0347 20.25 45.4384 23.3366 43.794L23.9489 43.4508C26.3146 42.0714 28.3075 39.924 29.9888 38.2671C31.7593 36.5249 33.5218 34.7746 35.2742 33.014V33.0128C35.8763 32.4076 36.4804 31.8043 37.087 31.2035L38.9142 29.4086L38.9202 29.4015C39.6474 28.6835 40.4079 27.9364 41.1348 27.1677C41.4043 26.8829 41.7727 26.4296 41.979 25.8512C42.2064 25.2135 42.2501 24.3514 41.6884 23.554H41.6872C41.3771 23.1141 40.9866 22.8151 40.5632 22.6345C40.8518 22.3153 41.1408 21.9965 41.4313 21.679L41.4325 21.6802C41.9175 21.1587 42.3965 20.6313 42.8711 20.1006C42.9361 20.028 43.1939 19.7594 43.4522 19.4453L43.7045 19.1213C43.8238 18.9565 43.9702 18.736 44.092 18.4815L44.2044 18.216C44.3135 17.9124 44.4902 17.2282 44.1123 16.5407L44.0298 16.4032L44.0286 16.402C43.9033 16.2133 43.7606 16.059 43.6089 15.9321C44.269 15.1843 45.1594 14.1893 45.7182 13.1208L45.7278 13.104C46.3314 11.9147 46.2961 10.5201 45.5939 9.45448C44.8694 8.35535 43.5674 7.8124 42.144 8.10802L42.0065 8.13911C41.1901 8.33889 40.4461 8.69639 39.7907 9.079C40.0229 8.35766 40.1232 7.50262 39.8218 6.59056ZM36.5178 6.01299C37.3074 5.90497 38.0822 6.30841 38.3378 7.08083L38.3797 7.22074C38.7518 8.66956 37.4924 10.0856 36.7797 11.2314L36.2033 12.1259C36.0092 12.4216 35.8147 12.717 35.6258 13.0179C35.418 13.3386 35.085 13.7427 34.9346 14.0822C35.8847 13.5625 36.856 12.7862 37.8105 12.2263C39.2162 11.402 40.6318 10.1432 42.2229 9.69722L42.3772 9.65657C44.1169 9.23088 45.0828 10.9238 44.3347 12.3973L44.2283 12.5886C43.6818 13.5442 42.8416 14.4218 42.1297 15.2493L40.6768 16.97C40.4221 17.2678 40.0063 17.7002 39.7979 18.0163L39.7811 18.0438C40.3578 17.7497 42.1613 16.4149 42.7264 17.2666C43.0198 17.7099 42.005 18.7268 41.7076 19.0591L41.002 19.8411C40.7656 20.1005 40.5271 20.3579 40.2882 20.6148C39.1395 21.87 38.0055 23.1396 36.8861 24.421C36.7375 24.5918 36.0847 25.3072 36.0299 25.4494C36.099 25.5089 36.3247 25.3165 36.4138 25.2748C37.411 24.8065 39.5152 23.1848 40.4101 24.4545C40.8098 25.022 40.4054 25.6655 40 26.0939C39.2955 26.8389 38.5562 27.5649 37.8224 28.2894L35.9881 30.0938C35.3788 30.6973 34.7718 31.3035 34.1669 31.9114L32.8527 33.2268C31.5376 34.5413 30.2176 35.8509 28.8923 37.155C27.1262 38.8954 25.3093 40.85 23.1584 42.1032C20.2203 43.8272 16.9647 44.4652 13.6471 43.6397C10.8278 42.9422 8.47958 41.2032 6.9507 38.7334C4.56062 34.8719 4.95276 29.7654 7.61915 26.1429C8.48382 24.9682 9.61963 23.8813 10.6517 22.8473L15.6632 17.9087C16.5948 16.9668 17.5334 16.032 18.4793 15.1046L19.2458 14.3752C19.576 14.0618 19.9949 13.6665 20.4966 13.8095C20.6873 13.8643 20.8494 13.9933 20.945 14.1671L20.9929 14.2723C21.1976 14.8061 20.8369 15.4818 20.6987 15.999L25.2941 11.5459C25.9569 10.9019 27.9052 8.85617 28.5873 8.52176C28.8082 8.41347 29.0879 8.34891 29.3263 8.43806C29.5015 8.5037 29.6372 8.6638 29.7066 8.83386C30.0586 9.69794 29.2877 10.8326 28.9568 11.583C29.356 11.2921 29.8716 10.8481 30.2614 10.5307L33.3179 8.0004C34.2241 7.25008 35.3284 6.19224 36.5178 6.01299ZM36.6506 6.92179C36.2664 6.98069 35.8346 7.19423 35.3424 7.54241C35.0923 7.71926 34.8556 7.90833 34.6201 8.10443L33.9038 8.70711L30.8462 11.2374L30.8402 11.2422C30.4863 11.5303 29.9236 12.0146 29.4985 12.3244C29.1631 12.5689 28.705 12.5583 28.3817 12.2981C28.0583 12.0375 27.9499 11.5923 28.1174 11.2123C28.2124 10.9969 28.3394 10.7516 28.4426 10.5462C28.5539 10.3248 28.6535 10.1167 28.732 9.91605C28.8154 9.70283 28.8547 9.54404 28.8695 9.42697C28.8559 9.43673 28.8407 9.4466 28.8253 9.45807C28.7289 9.52982 28.6119 9.62432 28.4773 9.74027C28.208 9.9723 27.8946 10.2665 27.5721 10.5785C27.2511 10.8891 26.9286 11.2101 26.643 11.4969L25.9339 12.206L21.3385 16.6591C21.042 16.9464 20.5895 16.9997 20.2335 16.7907C19.878 16.5815 19.705 16.1609 19.8114 15.7623C19.8589 15.5846 19.9252 15.3976 19.9741 15.2565C20.0281 15.1001 20.0701 14.9742 20.0996 14.8571C20.1015 14.8494 20.1015 14.8416 20.1032 14.8343L20.102 14.8367C20.0323 14.8956 19.9631 14.9609 19.8784 15.0412C19.6157 15.2905 19.3685 15.5186 19.1215 15.7587L19.1227 15.7599C18.1802 16.6839 17.2445 17.6158 16.3161 18.5544L16.3078 18.5628L11.2962 23.5014C10.2395 24.5599 9.17101 25.5855 8.35934 26.6882C5.89779 30.0325 5.55388 34.7321 7.73155 38.2503C9.13702 40.5208 11.2863 42.1102 13.8672 42.7489H13.8683C16.9213 43.5085 19.9325 42.9315 22.6933 41.3115L22.6957 41.3103C24.7194 40.1313 26.4325 38.2898 28.2477 36.5009H28.2489C29.5723 35.1987 30.89 33.8903 32.2034 32.5775L33.5164 31.2621C34.1223 30.6532 34.7305 30.0458 35.3412 29.4409L35.3436 29.4385L37.1791 27.6353C37.9162 26.9075 38.6419 26.1942 39.3327 25.4637C39.4961 25.2911 39.6021 25.1309 39.6424 25.0177C39.6494 24.9982 39.6514 24.9838 39.6532 24.9746C39.6121 24.9185 39.5829 24.903 39.4965 24.8981C39.355 24.8901 39.1238 24.9323 38.791 25.0655C38.4697 25.1942 38.1293 25.375 37.783 25.5702C37.4851 25.738 37.1378 25.9412 36.8562 26.0784C36.8646 26.0734 36.8598 26.0764 36.8335 26.0939C36.8098 26.1097 36.749 26.1503 36.69 26.186C36.6388 26.217 36.5256 26.2838 36.3875 26.3283C36.317 26.3509 36.1927 26.3838 36.0383 26.3797C35.8727 26.3753 35.6395 26.3251 35.4309 26.1453C35.1385 25.8933 35.0346 25.4851 35.1714 25.1241C35.2223 24.9898 35.2991 24.8808 35.322 24.8479C35.3607 24.7924 35.4052 24.7348 35.4464 24.6829C35.5297 24.5779 35.6304 24.4579 35.7274 24.3457C35.8836 24.1651 36.1717 23.8437 36.1938 23.8183L36.195 23.8171C37.3189 22.5304 38.4578 21.2559 39.6113 19.9954L39.6161 19.9894C40.0898 19.48 40.5585 18.9656 41.0224 18.4468H41.0236C41.0607 18.4054 41.1004 18.3606 41.1431 18.3141C41.0528 18.3646 40.962 18.4157 40.8729 18.4684C40.6547 18.5974 40.3764 18.771 40.1985 18.8618C39.8296 19.0499 39.3805 18.9673 39.1019 18.6609C38.8233 18.3544 38.7839 17.8994 39.0063 17.55L39.0314 17.5105C39.1732 17.2954 39.3663 17.0673 39.5288 16.8815C39.717 16.6665 39.8462 16.5271 39.9749 16.3769L41.4277 14.6574L41.4325 14.6502L41.9981 14.0033C42.5528 13.3711 43.0649 12.7747 43.4319 12.133L43.518 11.974C43.7529 11.5059 43.6878 11.0723 43.5216 10.8201C43.3812 10.6072 43.1089 10.4232 42.596 10.5486L42.4549 10.5857C41.8026 10.7714 41.1509 11.1333 40.4484 11.5902C39.7922 12.0169 38.9943 12.5977 38.2756 13.0191C37.8323 13.2792 37.3815 13.5917 36.8897 13.9279C36.4119 14.2547 35.8952 14.6034 35.3746 14.8882C35.0294 15.0768 34.6024 15.0242 34.3128 14.7578C34.0231 14.4913 33.9357 14.0702 34.0952 13.7103C34.2092 13.453 34.375 13.2047 34.5053 13.0179C34.6597 12.7967 34.7604 12.6644 34.8545 12.5193C35.0474 12.2124 35.245 11.9117 35.4356 11.6213C35.6303 11.3247 35.8188 11.0372 36 10.7459C36.1893 10.4417 36.4216 10.1079 36.6195 9.81322C36.8277 9.50306 37.018 9.20596 37.1731 8.91159C37.4881 8.31386 37.5887 7.85382 37.4912 7.4599L37.4661 7.36902C37.3706 7.08089 37.0656 6.86833 36.6506 6.92179Z" fill="#020101"/>
<path id="Vector_2" d="M36.5678 6.94144C37.3613 6.85436 37.7224 7.52064 37.4983 8.22425C37.3361 8.73346 37.0083 9.21964 36.7263 9.67464C36.2568 10.4259 35.7727 11.1676 35.2736 11.8995L33.727 14.2465C33.4592 14.6542 32.8938 15.4475 32.7478 15.8765C32.8862 16.166 33.0451 16.3204 33.3652 16.1631C33.822 15.9386 34.2646 15.6544 34.6904 15.377C36.5752 14.1494 38.4421 12.8934 40.333 11.6755C40.7302 11.4198 41.1411 11.173 41.5534 10.9434C41.8205 10.7952 42.1181 10.6568 42.4121 10.5705C43.5898 10.2665 44.0063 11.1376 43.4467 12.1089C43.0407 12.8133 42.5385 13.3777 42.0175 13.9994C40.3711 15.9477 38.6818 17.8686 37.1394 19.9005C36.7976 20.3507 37.2802 20.5856 37.6591 20.3593C38.8305 19.6598 40.0012 18.9306 41.1972 18.2765C40.5659 18.9322 39.9819 19.6035 39.3728 20.2795L36.1379 23.8925C35.3425 24.7866 34.5327 25.6668 33.7439 26.5674C33.4441 26.9097 33.1279 27.2476 32.8457 27.604C32.7927 27.6707 32.749 27.7449 32.7275 27.8279C32.705 27.9138 32.7119 28.0071 32.7624 28.0825C32.8305 28.1843 32.9487 28.2493 33.072 28.2295C33.447 28.1694 34.3693 27.5684 34.7412 27.3474C35.3437 26.9893 39.0285 24.7224 39.5171 24.8877C39.5839 24.9102 39.5854 24.9246 39.6106 24.9854C39.5888 25.1785 39.3867 25.417 39.2544 25.5581C38.5422 26.3184 37.7805 27.0545 37.0449 27.7935L32.2077 32.6069L27.4687 37.3037C26.5774 38.1738 25.7182 39.0486 24.7651 39.856C22.1614 42.0166 19.0552 43.3093 15.6317 43.0254C12.9774 42.8052 10.4302 41.6018 8.70053 39.5562C6.94572 37.4827 6.09269 34.794 6.33139 32.0881C6.64367 28.3704 8.64166 26.114 11.1778 23.6109C12.5791 22.2279 13.9911 20.8243 15.3929 19.4393L18.3968 16.4675C18.9514 15.9254 19.5679 15.3002 20.1535 14.8042L20.1414 14.8427C19.9015 15.6249 19.4538 16.3943 19.13 17.1447C19.0053 17.4338 18.455 18.3851 18.6662 18.6269C18.7313 18.7002 18.8226 18.745 18.9204 18.7516C19.0593 18.7606 19.1928 18.7022 19.297 18.6154C19.6201 18.3463 19.9336 18.0453 20.2379 17.7558C20.9124 17.1096 21.5784 16.4544 22.2355 15.7904L26.4292 11.7023C27.175 10.9807 28.0839 10.0518 28.8496 9.38563C28.8108 9.60897 28.7688 9.77848 28.6799 9.98897C28.1335 11.2845 27.4055 12.4936 26.7304 13.7234C26.6535 13.8638 26.5564 14.1367 26.7312 14.2434C26.9677 14.3882 27.2566 14.113 27.4423 13.9902C29.8191 12.1464 32.0893 10.1697 34.4192 8.268C35.0244 7.77391 35.7844 7.07623 36.5678 6.94144Z" fill="#E9C46A"/>
<path id="Vector_3" d="M32.5371 13.0909C32.6028 13.1031 32.6023 13.1076 32.6607 13.1425C32.6907 13.1826 32.7048 13.207 32.7127 13.2578C32.7349 13.4011 32.6377 13.5932 32.5713 13.7187C32.1096 14.5918 31.4111 15.5237 30.8333 16.34C29.7793 17.8286 28.6948 19.2965 27.6541 20.7943C27.4358 21.1083 25.9724 23.1694 26.0483 23.4541C26.0579 23.49 26.0615 23.4809 26.0989 23.5017C26.3176 23.4156 26.5308 23.2482 26.7227 23.1119C28.9172 21.5534 31.0918 19.9684 33.3303 18.4726C33.7651 18.1786 34.2063 17.8938 34.6531 17.6185C34.9309 17.4443 35.2183 17.2429 35.5234 17.1212C35.6099 17.0867 35.7283 17.0429 35.8176 17.0891C35.8489 17.1052 35.8655 17.1365 35.8735 17.1704C36.0505 17.9237 27.6804 28.2827 26.6831 29.5415L25.4065 31.1355C25.1509 31.4538 24.7398 31.9392 24.5545 32.2871C25.2703 32.0129 25.9727 31.6882 26.6743 31.3789C27.0566 31.2104 27.4448 31.0249 27.8435 30.8987C27.9399 30.8682 28.0999 30.811 28.188 30.8772C28.2285 30.9075 28.2481 30.9499 28.2583 30.9978C28.3394 31.3713 24.8311 35.1084 24.4155 35.75L24.3941 35.7837C25.0081 35.646 27.0769 34.8706 27.4863 34.9158C27.5596 34.9729 27.5383 34.9372 27.5584 35.022C27.387 35.5974 25.3079 37.7649 24.8296 38.2212C24.3749 38.654 23.9013 39.0664 23.4103 39.4573C23.1175 39.6733 22.836 39.8867 22.5334 40.0898C19.2883 42.2688 14.911 42.6745 11.5408 40.5354C9.53665 39.2615 8.12711 37.237 7.62789 34.9153C7.114 32.5386 7.70694 29.8977 9.0244 27.8747C9.39657 27.3059 9.8077 26.7634 10.2548 26.2515C11.0212 25.3801 11.8367 24.6294 12.6605 23.8227C13.0851 23.4038 13.5181 22.9936 13.9593 22.5923C14.2018 22.3682 14.6371 21.9093 14.9668 21.788C15.014 21.7707 15.0586 21.8052 15.0958 21.8324C15.1883 22.1829 14.2495 24.2467 14.2077 25.0395C14.4692 24.9133 14.7999 24.6206 15.0457 24.4404C15.7482 23.9253 16.4056 23.3523 17.0921 22.8171C17.264 22.6831 17.8255 22.162 18.0266 22.2473C18.2102 22.5381 17.2846 24.082 17.3754 24.4015C17.4725 24.4558 17.6079 24.3313 17.6893 24.2692C18.0363 24.0046 18.3704 23.7145 18.7041 23.4338C20.4582 21.9738 22.238 20.5451 24.0427 19.1481C25.3909 18.0866 31.314 13.3946 32.5371 13.0909Z" fill="#E76F51"/>
<path id="Vector_4" d="M21.5094 25.666C21.9888 25.6763 21.581 26.3796 21.4805 26.5879C21.257 27.0063 21.0399 27.7693 21.2446 28.2437C21.4387 28.6936 21.8123 29.2195 22.0479 29.6953C22.2885 30.1814 22.4702 30.6946 22.5889 31.2236C22.9889 33.0422 22.6731 35.113 21.6614 36.686C20.647 38.2859 19.0294 39.4082 17.1757 39.7979C15.3382 40.1848 13.6211 39.8381 12.0617 38.822C12.0476 38.8127 12.0336 38.8032 12.0197 38.7937C10.576 37.7915 9.59438 36.2522 9.29455 34.5205C8.96284 32.7571 9.35959 30.9346 10.3943 29.4685C11.7647 27.51 14.0632 26.3674 16.4398 26.4141C17.0902 26.4268 18.0507 26.6133 18.5857 26.54C19.4903 26.4163 20.5988 25.8276 21.5094 25.666Z" fill="#F4A261"/>
<path id="Vector_5" d="M15.2185 28.884C17.8492 28.615 20.2013 30.5261 20.4764 33.1562C20.7515 35.7864 18.8458 38.1428 16.2164 38.4238C13.5784 38.706 11.2126 36.7927 10.9366 34.154C10.6606 31.5154 12.5792 29.154 15.2185 28.884Z" fill="#E9C46A"/>
</g>
<path id="Union" d="M36.1982 3.55438C37.9744 3.31886 40.0026 4.22464 40.6914 6.29559C40.6922 6.29783 40.6926 6.30019 40.6934 6.30243C40.8316 6.72068 40.8992 7.12783 40.9189 7.51727C41.1968 7.4132 41.4865 7.32035 41.7871 7.24677L41.8047 7.24188L41.9434 7.21161L41.957 7.2077C43.6193 6.86248 45.2068 7.43923 46.1748 8.69012L46.3604 8.94891C47.2603 10.3146 47.2829 12.0605 46.5479 13.5134L46.5488 13.5143L46.5439 13.5222C46.5401 13.5299 46.5354 13.5379 46.5312 13.5456C46.5276 13.5526 46.5232 13.5601 46.5195 13.5671L46.5205 13.5681L46.5156 13.5768C46.0491 14.4588 45.3899 15.2804 44.8213 15.9401C45.5142 17.0265 45.2135 18.1197 45.0674 18.5261C44.8922 19.0132 44.6254 19.414 44.4473 19.6599V19.6608C44.0943 20.1479 43.6097 20.6504 43.5547 20.7116C43.0767 21.2463 42.594 21.7789 42.1045 22.3054C42.1028 22.3071 42.1004 22.3085 42.0986 22.3102C42.0506 22.3627 42.003 22.4159 41.9551 22.4684C42.1285 22.6323 42.2918 22.8169 42.4385 23.0251L42.5742 23.2321C43.2055 24.2746 43.1247 25.3719 42.8438 26.1599C42.5758 26.911 42.11 27.4737 41.8018 27.7995L41.8008 27.7975C41.0624 28.5784 40.2918 29.3371 39.5693 30.0505L39.5635 30.0583L39.5547 30.0651C38.3361 31.2546 37.1268 32.4538 35.9258 33.6608L35.9248 33.6599V33.6608C34.1698 35.4241 32.4055 37.1783 30.6328 38.9225L30.6318 38.9216C29.0036 40.5263 26.9161 42.7757 24.4346 44.2292C24.4276 44.2335 24.4211 44.2397 24.4141 44.2438C20.9971 46.2488 17.08 47.0517 13.0479 46.0485C13.0401 46.0466 13.0331 46.0419 13.0254 46.0397C9.68305 45.2057 6.88031 43.1732 5.01953 40.319L5.0127 40.3083L4.84766 40.0475L4.84277 40.0388C1.87833 35.2494 2.40289 29.0471 5.62207 24.6735C6.62612 23.3094 7.93461 22.058 8.89648 21.0944L8.91016 21.0807L13.9219 16.1413C14.8549 15.1981 15.7958 14.2616 16.7432 13.3327L16.7607 13.3161C17.0251 13.0593 17.3045 12.7975 17.5381 12.5759C17.6675 12.4531 18.0632 12.063 18.5703 11.7712C19.1032 11.4646 19.9572 11.1502 20.9736 11.3727L21.1797 11.4235L21.2178 11.4362C21.3714 11.4823 21.5188 11.5426 21.6621 11.61L23.5674 9.76434C23.7139 9.6219 23.9352 9.39862 24.2344 9.09833C24.5234 8.8082 24.8645 8.46872 25.209 8.13544C25.5501 7.80546 25.9171 7.46007 26.2588 7.16571C26.5357 6.92715 27.0042 6.53644 27.4951 6.29559L27.5215 6.28192L27.6855 6.2077L27.7109 6.19696C28.1743 6.00462 28.9383 5.79611 29.8047 5.99774L29.9805 6.04266L30.0088 6.05243L30.1621 6.10223L30.1953 6.11591L30.1963 6.11493C30.2122 6.12087 30.2275 6.12928 30.2432 6.13544C30.2512 6.13896 30.2597 6.14243 30.2676 6.14618C30.5813 6.2728 30.85 6.44095 31.0781 6.63153L31.7373 6.08856C32.0861 5.79973 32.7391 5.21976 33.3789 4.76727C34.0311 4.30601 34.9743 3.74414 36.124 3.56512L36.1289 3.56415C36.1349 3.56322 36.1414 3.56115 36.1475 3.56024V3.56122C36.1608 3.55902 36.1741 3.55597 36.1875 3.55438L36.1982 3.55341V3.55438ZM16.5176 45.5593C16.541 45.5593 16.5645 45.5593 16.5879 45.5593C16.5645 45.5593 16.541 45.5593 16.5176 45.5593ZM16.1172 45.5534C16.1885 45.5557 16.2598 45.5562 16.3311 45.5573C16.2598 45.5562 16.1885 45.5557 16.1172 45.5534ZM16.8486 45.5563C16.8838 45.5555 16.919 45.5535 16.9541 45.5524C16.919 45.5535 16.8838 45.5555 16.8486 45.5563ZM15.8047 45.5388C15.8764 45.5427 15.948 45.5467 16.0195 45.5495C15.948 45.5467 15.8764 45.5427 15.8047 45.5388ZM17.1514 45.5456C17.2025 45.5433 17.2536 45.5407 17.3047 45.5378C17.2536 45.5407 17.2025 45.5433 17.1514 45.5456ZM15.543 45.5222C15.5631 45.5237 15.5833 45.5246 15.6035 45.5261C15.5833 45.5246 15.5631 45.5237 15.543 45.5222ZM17.5 45.5251C17.5208 45.5236 17.5417 45.5218 17.5625 45.5202C17.5417 45.5218 17.5208 45.5236 17.5 45.5251ZM15.1289 45.4841C15.1817 45.4897 15.2344 45.4957 15.2871 45.5007C15.2344 45.4957 15.1817 45.4897 15.1289 45.4841ZM14.7998 45.445C14.8597 45.4529 14.9196 45.4604 14.9795 45.4675C14.9196 45.4604 14.8597 45.4529 14.7998 45.445ZM14.4971 45.402C14.5404 45.4087 14.5836 45.4163 14.627 45.4225C14.5836 45.4163 14.5404 45.4087 14.4971 45.402ZM14.2295 45.3581C14.2416 45.3602 14.2535 45.3629 14.2656 45.3649C14.2535 45.3629 14.2416 45.3602 14.2295 45.3581ZM19.0166 45.3288C19.0573 45.3212 19.0981 45.3143 19.1387 45.3063C19.0981 45.3143 19.0573 45.3212 19.0166 45.3288ZM19.667 45.1921C19.698 45.1848 19.7288 45.1771 19.7598 45.1696C19.7288 45.1771 19.698 45.1848 19.667 45.1921ZM20.291 45.029C20.3219 45.0202 20.3529 45.0116 20.3838 45.0026C20.3529 45.0116 20.3219 45.0202 20.291 45.029ZM12.1309 44.8161C12.2964 44.874 12.4639 44.9279 12.6328 44.9792C12.4639 44.9279 12.2964 44.874 12.1309 44.8161ZM20.918 44.8356C20.945 44.8266 20.972 44.8175 20.999 44.8083C20.972 44.8175 20.945 44.8266 20.918 44.8356ZM11.6113 44.6208C11.7384 44.6717 11.8669 44.7194 11.9961 44.7663C11.8669 44.7194 11.7384 44.6717 11.6113 44.6208ZM21.5303 44.6169C21.5544 44.6076 21.5784 44.5979 21.6025 44.5886C21.5784 44.5979 21.5544 44.6076 21.5303 44.6169ZM11.0742 44.3903C11.1678 44.433 11.2626 44.4729 11.3574 44.5134C11.2626 44.4729 11.1678 44.433 11.0742 44.3903ZM22.1387 44.3708C22.1649 44.3595 22.1906 44.3471 22.2168 44.3356C22.1906 44.3471 22.1649 44.3595 22.1387 44.3708ZM10.5566 44.1393C10.6649 44.195 10.7746 44.248 10.8848 44.3005C10.7746 44.248 10.6649 44.195 10.5566 44.1393ZM22.748 44.0915C22.9454 43.9963 23.1423 43.8973 23.3369 43.7936C23.1422 43.8974 22.9456 43.9962 22.748 44.0915ZM10.0576 43.8679C10.1554 43.9239 10.2541 43.9785 10.3535 44.0319C10.2541 43.9785 10.1554 43.9239 10.0576 43.8679ZM9.57715 43.5778C9.67159 43.6379 9.76714 43.6961 9.86328 43.7536C9.76713 43.6961 9.6716 43.6378 9.57715 43.5778ZM12.6123 43.3307C12.9492 43.4498 13.2942 43.5531 13.6465 43.6403H13.6475C13.295 43.5531 12.9494 43.4499 12.6123 43.3307ZM9.1084 43.2643C9.19316 43.3238 9.27896 43.3818 9.36523 43.4391C9.27895 43.3818 9.19317 43.3238 9.1084 43.2643ZM8.66895 42.9411C8.74541 43 8.82257 43.0578 8.90039 43.1149C8.82257 43.0579 8.74541 43 8.66895 42.9411ZM8.23926 42.5944C8.30076 42.6463 8.36233 42.698 8.4248 42.7487C8.36232 42.6981 8.30077 42.6463 8.23926 42.5944ZM7.80371 42.2087C7.86965 42.2698 7.93574 42.3307 8.00293 42.3903C7.93574 42.3307 7.86966 42.2698 7.80371 42.2087ZM26.0586 41.9704L26.0596 41.9714L26.0586 41.9704ZM7.41602 41.8337C7.47645 41.8948 7.53704 41.9556 7.59863 42.0153C7.53703 41.9556 7.47645 41.8948 7.41602 41.8337ZM6.99609 41.3874C7.05819 41.4566 7.1201 41.5258 7.18359 41.5934C7.1201 41.5258 7.05819 41.4566 6.99609 41.3874ZM6.61426 40.9421C6.68151 41.0243 6.74827 41.1068 6.81738 41.1872C6.74826 41.1068 6.68152 41.0243 6.61426 40.9421ZM6.22754 40.444C6.30367 40.5471 6.37912 40.6503 6.45801 40.7507C6.37912 40.6503 6.30367 40.5471 6.22754 40.444ZM5.62305 39.5563L5.78809 39.8171C5.89275 39.9776 6.00138 40.1348 6.1123 40.2897C6.00138 40.1348 5.89276 39.9776 5.78809 39.8171L5.62305 39.5554C5.59113 39.5038 5.56133 39.451 5.53027 39.3991C5.56146 39.4513 5.59099 39.5045 5.62305 39.5563ZM4.93359 38.2731C5.00483 38.4277 5.08001 38.5809 5.1582 38.7331C5.07987 38.5807 5.00495 38.427 4.93359 38.2722V38.2731ZM35.2744 33.0134V33.0143V33.0134ZM38.9141 29.4079C38.3031 30.0043 37.6936 30.6029 37.0869 31.2038L38.9141 29.4089L38.917 29.405L38.9141 29.4079ZM6.73145 24.737H6.73047H6.73145ZM40.5625 22.6354C40.986 22.8161 41.3774 23.1143 41.6875 23.5544L41.7861 23.7048C41.9081 23.9059 41.9946 24.1097 42.0508 24.3122C41.9807 24.0591 41.864 23.8036 41.6885 23.5544H41.6875C41.4937 23.2793 41.2686 23.0586 41.0234 22.8884C40.9255 22.8203 40.8242 22.7603 40.7207 22.7077C40.6689 22.6814 40.6164 22.657 40.5635 22.6345L40.5625 22.6354ZM40.3223 24.3434C40.3494 24.374 40.3751 24.4071 40.4004 24.4421C40.3751 24.4071 40.3494 24.374 40.3223 24.3434ZM39.5479 23.9811C39.5905 23.9835 39.6325 23.9876 39.6738 23.9938L39.5488 23.9811C39.5064 23.9787 39.4635 23.9781 39.4199 23.9792L39.5479 23.9811ZM42.8711 20.1003C42.6336 20.3659 42.3952 20.6307 42.1553 20.8942C42.3951 20.6307 42.6337 20.3658 42.8711 20.1003C42.9074 20.0598 43.0021 19.9582 43.124 19.8229C43.0019 19.9584 42.9072 20.06 42.8711 20.1003ZM43.8594 18.8893C43.8888 18.8434 43.9198 18.7961 43.9492 18.7458C43.9197 18.796 43.8889 18.8435 43.8594 18.8893ZM44.292 17.905C44.2652 18.0301 44.2317 18.1359 44.2031 18.2155C44.1399 18.3913 44.0591 18.5558 43.9746 18.7038C44.0148 18.6332 44.0547 18.5587 44.0918 18.4811L44.2041 18.2165C44.2328 18.1368 44.2653 18.0303 44.292 17.905ZM44.3076 17.8151C44.3135 17.781 44.3197 17.746 44.3242 17.7097C44.3197 17.746 44.3135 17.781 44.3076 17.8151ZM42.7324 17.6872C42.7471 17.6463 42.7587 17.6066 42.7666 17.5681C42.7587 17.6066 42.7471 17.6463 42.7324 17.6872ZM44.3301 17.6384C44.3346 17.5891 44.3389 17.5384 44.3398 17.486C44.3388 17.5384 44.3346 17.5891 44.3301 17.6384ZM44.3359 17.3083C44.334 17.2809 44.3323 17.2532 44.3291 17.2253C44.3323 17.2532 44.334 17.2809 44.3359 17.3083ZM44.3242 17.1852C44.3199 17.1529 44.3138 17.1205 44.3076 17.0876C44.3138 17.1205 44.3199 17.1529 44.3242 17.1852ZM44.3047 17.072C44.298 17.0384 44.291 17.0045 44.2822 16.9704C44.291 17.0045 44.2981 17.0384 44.3047 17.072ZM44.2734 16.9362C44.2636 16.9009 44.2525 16.8654 44.2402 16.8298C44.2525 16.8655 44.2636 16.9009 44.2734 16.9362ZM44.2324 16.8073C44.2199 16.7725 44.2055 16.7379 44.1904 16.7028C44.2055 16.7379 44.2199 16.7725 44.2324 16.8073ZM20.7598 15.7985L20.6992 15.9968L20.7646 15.7849L20.7598 15.7985ZM17.3896 13.9841L17.3848 13.989H17.3857L17.3906 13.9841H17.3896ZM18.4746 12.9655C18.3665 13.0577 18.2768 13.1411 18.2119 13.2028C18.2768 13.1411 18.3665 13.0577 18.4746 12.9655ZM18.7461 12.7497C18.6661 12.8075 18.5916 12.867 18.5234 12.9235C18.5917 12.8669 18.666 12.8075 18.7461 12.7497ZM21.5928 12.6208C21.5303 12.578 21.4651 12.5392 21.3984 12.5026C21.4651 12.5391 21.5302 12.578 21.5928 12.6208ZM21.3545 12.4792C21.3047 12.4533 21.2539 12.4292 21.2021 12.4069C21.2539 12.4292 21.3047 12.4533 21.3545 12.4792ZM20.9287 12.3083C20.9995 12.3286 21.0688 12.3528 21.1367 12.3796C21.0685 12.3527 20.9987 12.3277 20.9277 12.3073L20.9287 12.3083ZM29.6123 11.0661V11.0671V11.0661ZM45.7168 9.6579C45.833 9.86516 45.9256 10.0828 45.9951 10.3073H45.9961C45.9266 10.0828 45.8339 9.86512 45.7178 9.6579H45.7168ZM24.8848 9.74579H24.8857H24.8848ZM44.0508 10.03H44.0518H44.0508ZM41.3457 10.0251C41.3178 10.0379 41.2905 10.0519 41.2627 10.0651C41.3056 10.0446 41.3484 10.0241 41.3916 10.0046C41.3764 10.0115 41.3609 10.0181 41.3457 10.0251ZM41.9268 9.78973L41.9795 9.77313C41.988 9.77029 41.9964 9.76714 42.0049 9.76434C41.9789 9.77289 41.9527 9.78078 41.9268 9.78973ZM43.2676 9.62469H43.2686H43.2676ZM39.9355 8.51434C39.9169 8.61186 39.8954 8.70762 39.8711 8.80145L39.791 9.0788L39.8711 8.80243C39.8955 8.70831 39.9169 8.61218 39.9355 8.51434ZM44.4756 8.42255C44.573 8.47588 44.6687 8.532 44.7598 8.5954C44.6687 8.53204 44.573 8.47584 44.4756 8.42255ZM42.9287 8.02802C42.7679 8.02697 42.6043 8.03794 42.4385 8.05927C42.6043 8.03793 42.7679 8.02696 42.9287 8.02802ZM32.917 6.29559C32.6908 6.48513 32.486 6.6602 32.3213 6.79657H32.3223C32.487 6.66021 32.6908 6.48505 32.917 6.29559ZM28.5381 6.8952C28.3584 6.93506 28.1977 6.98892 28.0635 7.04462L27.9473 7.09735L28.0625 7.04559C28.1969 6.98978 28.3581 6.93521 28.5381 6.8952ZM29.2373 6.83856C29.3154 6.84373 29.3949 6.85281 29.4756 6.86688C29.3952 6.85287 29.316 6.84375 29.2383 6.83856C29.1602 6.83336 29.0836 6.83228 29.0088 6.83466C29.0833 6.83231 29.1596 6.83341 29.2373 6.83856ZM38.8516 5.16669C38.9428 5.24147 39.0283 5.32375 39.1113 5.40985C39.0283 5.32377 38.9428 5.24146 38.8516 5.16669ZM34.375 5.20966C34.3272 5.23897 34.2805 5.26888 34.2344 5.29852C34.2805 5.26887 34.3272 5.23898 34.375 5.20966ZM34.6406 5.05438C34.5788 5.0886 34.5183 5.1236 34.459 5.15887C34.5183 5.12358 34.5788 5.08862 34.6406 5.05438ZM34.9209 4.90887C34.8526 4.94224 34.7854 4.97624 34.7197 5.01141C34.7854 4.97621 34.8526 4.94226 34.9209 4.90887ZM35.1787 4.79169C35.1224 4.81572 35.0664 4.83938 35.0117 4.86493C35.0664 4.83936 35.1224 4.81574 35.1787 4.79169Z" fill="white" fill-opacity="0.3"/>
</g>
</g>
</g>
</svg>
