<svg width="50" height="50" viewBox="0 0 50 50" fill="none" xmlns="http://www.w3.org/2000/svg">
<rect width="50" height="50" fill="#BEBEBE"/>
<g id="Decorate Mode">
<path d="M-64.7026 -1180.97V-1179.97H2955.3V-1180.97V-1181.97H-64.7026V-1180.97ZM2957.3 -1178.97H2956.3V2359.03H2957.3H2958.3V-1178.97H2957.3ZM2955.3 2361.03V2360.03H-64.7026V2361.03V2362.03H2955.3V2361.03ZM-66.7026 2359.03H-65.7026V-1178.97H-66.7026H-67.7026V2359.03H-66.7026ZM-64.7026 2361.03V2360.03C-65.2549 2360.03 -65.7026 2359.59 -65.7026 2359.03H-66.7026H-67.7026C-67.7026 2360.69 -66.3595 2362.03 -64.7026 2362.03V2361.03ZM2957.3 2359.03H2956.3C2956.3 2359.59 2955.85 2360.03 2955.3 2360.03V2361.03V2362.03C2956.95 2362.03 2958.3 2360.69 2958.3 2359.03H2957.3ZM2955.3 -1180.97V-1179.97C2955.85 -1179.97 2956.3 -1179.52 2956.3 -1178.97H2957.3H2958.3C2958.3 -1180.62 2956.95 -1181.97 2955.3 -1181.97V-1180.97ZM-64.7026 -1180.97V-1181.97C-66.3594 -1181.97 -67.7026 -1180.62 -67.7026 -1178.97H-66.7026H-65.7026C-65.7026 -1179.52 -65.255 -1179.97 -64.7026 -1179.97V-1180.97Z" fill="black" fill-opacity="0.1"/>
<g id="Stickers">
<rect x="-12.6938" y="-308.466" width="374" height="551" rx="4.5" stroke="#9747FF" stroke-dasharray="10 5"/>
<g id="Property 1=shell">
<g id="Frame 178">
<path id="Vector" d="M24.7638 10.8577C25.8521 10.8259 26.6194 11.0426 27.5178 11.6399C29.3145 11.202 30.9897 11.7852 32.1668 13.1973C32.474 13.2097 32.7789 13.2536 33.0771 13.3284C34.1286 13.5907 35.0429 14.2381 35.6389 15.1424C35.8112 15.4033 35.9038 15.6325 36.0548 15.8857C37.6662 16.4252 38.5826 17.6561 38.8328 19.3107C39.1098 19.5717 39.3259 19.7888 39.5535 20.0958C40.0979 20.8346 40.3786 21.7345 40.3505 22.6515C40.3402 22.9883 40.2921 23.2891 40.2435 23.6215C40.646 24.4349 40.7712 25.1227 40.6976 26.024C40.4349 29.2428 36.7245 29.8531 34.5102 31.8829C33.5136 32.7555 34.1468 34.3971 34.5102 35.3415C35.0223 36.6724 34.9871 38.132 34.261 38.7305C33.2852 39.535 31.1307 38.9622 29.412 38.731C28.6009 38.621 27.7874 38.5306 26.972 38.4594C26.3037 38.7951 25.9133 38.9394 25.1543 39.0199C24.1949 39.0554 23.6839 38.8897 22.8517 38.4507C22.0959 38.5599 21.2195 38.6383 20.4544 38.7305C19.1371 38.8892 17.0221 39.5516 15.7442 38.4594C14.6124 37.2173 15.4376 36.1401 16.0583 34.0976C16.6657 32.8117 15.5492 31.8449 14.6124 31.3453C12.7523 30.3363 10.3299 28.7869 9.60103 27.3697C9.26353 26.4902 9.18159 25.4399 9.415 24.5201C9.4967 24.2038 9.62735 23.9141 9.76024 23.6165C9.45193 21.8576 9.89291 20.5381 11.1955 19.3126C11.4379 17.6902 12.3974 16.382 13.9949 15.8878C14.7649 14.1647 16.0139 13.3899 17.8524 13.179C18.1207 12.8283 18.5658 12.4345 18.941 12.2037C20.1078 11.4862 21.2019 11.3477 22.5124 11.6396C23.2813 11.1391 23.8386 10.9288 24.7638 10.8577Z" fill="#020101"/>
<path id="Vector (Stroke)" d="M24.7181 9.29582C25.8945 9.26148 26.8466 9.47035 27.8126 9.99528C29.7384 9.72806 31.5491 10.3574 32.9139 11.7037C33.0956 11.7319 33.2761 11.7676 33.4547 11.8123C34.8857 12.1692 36.1311 13.0502 36.9428 14.2812C37.0293 14.4121 37.0993 14.5354 37.1577 14.6419C38.8404 15.4081 39.8741 16.8198 40.2735 18.5378C40.4118 18.681 40.552 18.8352 40.6935 19.0144L40.8088 19.1652L40.8113 19.1689C41.563 20.1891 41.9511 21.4321 41.9123 22.6991C41.9047 22.9473 41.8801 23.1816 41.8531 23.3925C42.2203 24.2908 42.3367 25.1467 42.2547 26.1513C42.0639 28.4881 40.5654 29.8084 39.1908 30.7069C38.5371 31.1342 37.7575 31.5604 37.1705 31.9081C36.5312 32.2868 35.997 32.6396 35.5659 33.0348C35.5613 33.039 35.5565 33.0429 35.5519 33.047V33.0489C35.5409 33.0916 35.5265 33.1982 35.5506 33.3925C35.6023 33.8089 35.7757 34.2789 35.9687 34.7804C36.2919 35.6204 36.4605 36.5407 36.41 37.4019C36.3617 38.2249 36.0908 39.2471 35.2552 39.9361C34.2396 40.7734 32.8638 40.748 31.988 40.6764C31.0839 40.6026 29.8789 40.3706 29.2036 40.2797L29.2024 40.2791C28.5554 40.1913 27.9063 40.1168 27.256 40.0545C26.6589 40.3261 26.129 40.488 25.3193 40.5739C25.2837 40.5777 25.2476 40.5799 25.2119 40.5812C24.6262 40.6029 24.0986 40.5656 23.5603 40.425C23.2108 40.3337 22.89 40.2068 22.5807 40.0618C21.9172 40.144 21.1862 40.2159 20.6416 40.2815V40.2821C20.3593 40.3161 20.0511 40.3746 19.5997 40.45C19.1833 40.5195 18.6877 40.5945 18.1739 40.6239C17.1848 40.6806 15.8302 40.5885 14.7291 39.6474C14.6798 39.6052 14.633 39.5598 14.5893 39.5119C14.1603 39.0411 13.8507 38.5088 13.7074 37.8975C13.5667 37.2973 13.6142 36.738 13.7147 36.2581C13.8113 35.7969 13.9748 35.3354 14.1187 34.9361C14.2725 34.5096 14.4231 34.106 14.5637 33.6434L14.6003 33.5353C14.614 33.4998 14.6292 33.4648 14.6455 33.4303C14.6572 33.4054 14.662 33.3878 14.665 33.3772C14.6593 33.3645 14.6485 33.3433 14.6278 33.3131C14.5765 33.2387 14.4857 33.1394 14.3446 33.0269C14.2059 32.9163 14.0437 32.8131 13.877 32.7242C13.8738 32.7224 13.8705 32.7204 13.8673 32.7187C12.9008 32.1945 11.7607 31.5155 10.7508 30.7649C9.79016 30.0509 8.75002 29.1308 8.21176 28.0843C8.18588 28.0339 8.16246 27.9821 8.14218 27.9292C7.69683 26.7684 7.58263 25.3886 7.90048 24.1359L7.90232 24.1292C7.97107 23.8631 8.0636 23.6154 8.15195 23.4004C8.04876 22.4977 8.10823 21.6198 8.39182 20.7698C8.67157 19.9315 9.14138 19.2014 9.7529 18.5475C10.1471 16.864 11.1937 15.3992 12.8718 14.6449C13.3225 13.8417 13.9046 13.1787 14.6424 12.6753C15.3777 12.1737 16.1989 11.8777 17.0667 11.7171L17.1229 11.6609C17.4382 11.355 17.7929 11.0758 18.1227 10.873C19.4669 10.0462 20.7893 9.80291 22.2108 9.99894C22.9551 9.59025 23.6678 9.37454 24.6443 9.29948L24.7181 9.29582ZM24.7639 10.8577C23.8387 10.9288 23.2812 11.139 22.5123 11.6396C21.202 11.3478 20.1078 11.486 18.9411 12.2035L18.7977 12.2975C18.4574 12.5323 18.0871 12.872 17.8523 13.1789C16.0139 13.3898 14.7648 14.1646 13.9948 15.8876C12.3974 16.3819 11.4382 17.6904 11.1958 19.3129C9.8932 20.5384 9.45192 21.8576 9.76023 23.6165C9.62734 23.9141 9.49708 24.2042 9.41538 24.5204L9.37509 24.6938C9.19295 25.5702 9.28456 26.5449 9.60092 27.3695C10.3298 28.7867 12.7524 30.3364 14.6125 31.3454C15.5493 31.845 16.6657 32.8116 16.0584 34.0975L15.94 34.4698C15.3421 36.2755 14.6831 37.2953 15.7441 38.4596C16.9421 39.4836 18.876 38.9649 20.1985 38.7654L20.4542 38.7306C21.2193 38.6384 22.0959 38.5596 22.8517 38.4505C23.6318 38.862 24.1298 39.0336 24.9793 39.0242L25.1545 39.0199C25.9134 38.9394 26.3039 38.7954 26.9721 38.4596C27.7875 38.5308 28.6013 38.6212 29.4123 38.7312C31.0773 38.9553 33.1513 39.4996 34.1664 38.802L34.261 38.7306C34.9871 38.132 35.0221 36.6723 34.51 35.3413C34.1579 34.4264 33.5529 32.8571 34.4215 31.9667L34.51 31.8831C36.6896 29.885 40.3195 29.2623 40.6831 26.1733L40.6977 26.0237C40.7712 25.1226 40.646 24.4347 40.2436 23.6214C40.28 23.3721 40.3162 23.1404 40.3364 22.8981L40.3504 22.6515C40.3785 21.7346 40.0982 20.8347 39.5539 20.096C39.3263 19.789 39.1101 19.5714 38.8331 19.3105C38.5829 17.656 37.6661 16.4253 36.0548 15.8858C35.9415 15.6959 35.8615 15.5192 35.7557 15.3328L35.6391 15.1424C35.0804 14.2947 34.2418 13.6727 33.2728 13.3821L33.0769 13.3284C32.7789 13.2537 32.4739 13.2096 32.1668 13.1972C30.9897 11.7851 29.3144 11.2023 27.5178 11.6402L27.3512 11.5321C26.5225 11.0162 25.7842 10.8279 24.7639 10.8577Z" fill="#E8E7E7"/>
<path id="Vector (Stroke) (Stroke)" d="M24.6914 8.37743C25.9072 8.34198 26.9472 8.54522 27.981 9.05305C29.9876 8.85667 31.8754 9.51152 33.3406 10.8467C33.4527 10.8688 33.5654 10.8927 33.6778 10.9209H33.6766C35.3304 11.3334 36.7701 12.3521 37.7088 13.7752L37.8116 13.9402C39.5386 14.8216 40.6301 16.3176 41.1036 18.0825C41.125 18.1059 41.1478 18.1286 41.1694 18.153L41.4146 18.446L41.4229 18.4567L41.5377 18.6074L41.5497 18.6242H41.5509C42.4242 19.8096 42.8754 21.2543 42.8304 22.7269C42.8244 22.9213 42.8063 23.1054 42.7885 23.2734C43.145 24.2369 43.2558 25.174 43.17 26.2258C42.9442 28.9916 41.1463 30.5252 39.6926 31.4753C39.018 31.9163 38.1829 32.376 37.6382 32.6986C37.1779 32.9713 36.8028 33.2131 36.4939 33.4532C36.5505 33.7101 36.6628 34.0288 36.8251 34.4505C37.1878 35.393 37.3854 36.4443 37.3261 37.4555C37.274 38.3441 36.9927 39.5617 36.0395 40.4677L35.8398 40.6446C34.5148 41.7369 32.7914 41.6635 31.9128 41.5917C30.9888 41.5162 29.6584 41.2676 29.0812 41.1899C29.0776 41.1895 29.0739 41.1881 29.0704 41.1875C28.5153 41.1124 27.9582 41.0487 27.3999 40.9926C26.8037 41.2428 26.222 41.4022 25.4161 41.4877C25.3541 41.4943 25.2955 41.4966 25.2451 41.4984C24.5974 41.5224 23.9761 41.4823 23.3282 41.3131C23.0061 41.229 22.7099 41.121 22.4338 41.0022L20.7513 41.1935C20.4967 41.2242 20.2311 41.2759 19.7504 41.3561C19.3261 41.427 18.7904 41.5079 18.2258 41.5403C17.1577 41.6014 15.5056 41.519 14.1326 40.3457C14.0538 40.2783 13.9791 40.2061 13.9102 40.1305C13.3954 39.5656 12.9988 38.8968 12.8136 38.1072C12.6327 37.3352 12.6982 36.6319 12.816 36.0696C12.9276 35.5372 13.1127 35.0193 13.2549 34.625C13.3816 34.2734 13.4928 33.9603 13.6016 33.6266C13.5526 33.5957 13.5005 33.5641 13.445 33.5345C13.4361 33.5297 13.4282 33.5252 13.4235 33.5225L13.4139 33.5177C12.4291 32.9829 11.2551 32.2834 10.2032 31.5016C9.22309 30.7732 8.03563 29.7484 7.39549 28.5038C7.35547 28.426 7.31719 28.3444 7.28429 28.2586C6.77554 26.9326 6.6429 25.3581 7.01045 23.9096L7.01404 23.894C7.07283 23.6675 7.14789 23.4583 7.21852 23.2722C7.1376 22.338 7.21335 21.401 7.52105 20.4788C7.82316 19.5737 8.31049 18.7896 8.92013 18.0992C9.38821 16.3637 10.4886 14.8179 12.2229 13.939C12.7144 13.1376 13.3397 12.4522 14.1242 11.917C14.9049 11.3844 15.7559 11.0589 16.6258 10.8695C16.9471 10.5741 17.2986 10.3016 17.641 10.091C19.0768 9.20798 20.5199 8.90265 22.038 9.05424C22.812 8.66944 23.5894 8.45911 24.5742 8.38341L24.5981 8.38221L24.6723 8.37862C24.6785 8.37831 24.6852 8.37761 24.6914 8.37743ZM24.7177 9.29579L24.6436 9.29938C23.6674 9.37448 22.9544 9.5903 22.2101 9.99892C20.7889 9.80301 19.4669 10.0466 18.1229 10.873L17.8718 11.0381C17.6181 11.2165 17.3599 11.4316 17.1233 11.6611L17.0671 11.7173C16.1993 11.8779 15.3773 12.1735 14.642 12.6751C13.9044 13.1783 13.3228 13.8416 12.8722 14.6446C11.1941 15.3988 10.1466 16.8641 9.7524 18.5476C9.14106 19.2014 8.67132 19.9313 8.39159 20.7694C8.10803 21.6192 8.0481 22.4976 8.15123 23.4001C8.06289 23.6151 7.97126 23.8635 7.90251 24.1296L7.90012 24.1356C7.58226 25.3883 7.69631 26.769 8.14167 27.9298C8.16185 27.9824 8.18529 28.034 8.21102 28.0841C8.74928 29.1306 9.79022 30.051 10.7509 30.765C11.7607 31.5155 12.9007 32.1948 13.8671 32.7189C13.8702 32.7206 13.8736 32.7221 13.8767 32.7237C14.0434 32.8126 14.2056 32.9169 14.3442 33.0275C14.4852 33.14 14.5764 33.2389 14.6276 33.3133C14.6483 33.3433 14.659 33.3651 14.6647 33.3778C14.6617 33.3884 14.6571 33.406 14.6456 33.4304L14.6001 33.5357L14.5631 33.6433C14.4225 34.1059 14.272 34.5094 14.1182 34.9359C13.9743 35.3352 13.8107 35.7972 13.7141 36.2585L13.6507 36.6328C13.6016 37.0205 13.6014 37.448 13.7069 37.8979C13.8502 38.509 14.1604 39.0415 14.5894 39.5122C14.633 39.5601 14.6801 39.6053 14.7293 39.6474C15.6927 40.4707 16.85 40.6437 17.7869 40.6363L18.1732 40.6243C18.4299 40.6096 18.6828 40.5837 18.9229 40.5526L19.5997 40.4497C20.0509 40.3744 20.3591 40.3163 20.6413 40.2823V40.2811C21.1859 40.2155 21.9174 40.1445 22.5808 40.0623C22.89 40.2072 23.2109 40.3334 23.5602 40.4246C23.964 40.5301 24.3616 40.5781 24.7823 40.5861L25.2116 40.5813L25.3192 40.5741C26.1287 40.4882 26.6583 40.3255 27.2552 40.0539C27.9054 40.1162 28.555 40.191 29.2019 40.2787L29.2031 40.2799C29.8785 40.3708 31.084 40.6031 31.9881 40.6769C32.8639 40.7485 34.2395 40.7727 35.255 39.9355C35.986 39.3327 36.2847 38.475 36.3803 37.7185L36.4102 37.4017C36.4543 36.6481 36.3306 35.8492 36.0825 35.0986L35.9689 34.7805C35.7759 34.279 35.6021 33.8086 35.5504 33.3922C35.5264 33.1983 35.5406 33.0918 35.5516 33.049V33.0466L35.5659 33.0346C35.8892 32.7383 36.2703 32.4655 36.7103 32.188L37.1707 31.9082C37.7577 31.5605 38.5368 31.1336 39.1904 30.7064C40.4792 29.864 41.877 28.6513 42.2038 26.5774L42.254 26.1517C42.336 25.1473 42.2204 24.291 41.8534 23.393C41.8669 23.2874 41.8788 23.1755 41.8893 23.0593L41.912 22.6994C41.9508 21.4325 41.5623 20.1896 40.8107 19.1694L40.8083 19.1647L40.6935 19.014C40.5522 18.835 40.4119 18.6812 40.2738 18.5381C39.8743 16.8201 38.8402 15.4084 37.1575 14.6422C37.0992 14.5356 37.0287 14.4119 36.9423 14.281C36.1305 13.0502 34.885 12.1686 33.4542 11.8117C33.2757 11.7671 33.0952 11.7323 32.9137 11.7041C31.5489 10.3578 29.7382 9.72811 27.8124 9.99533L27.4501 9.81357C26.6046 9.42241 25.7471 9.26575 24.7177 9.29579ZM24.7632 10.8575C25.7834 10.8277 26.5223 11.0161 27.3509 11.5319L27.5171 11.6407C29.3137 11.2029 30.9892 11.7856 32.1663 13.1977C32.4732 13.2101 32.7784 13.2534 33.0763 13.328L33.2724 13.3818C34.2413 13.6723 35.0802 14.2945 35.6389 15.142L35.7561 15.3333C35.8617 15.5195 35.9419 15.6961 36.055 15.8858C37.6661 16.4253 38.5826 17.6562 38.8328 19.3105C39.1099 19.5715 39.3262 19.7892 39.5539 20.0962C40.098 20.8349 40.3784 21.7348 40.3503 22.6516L40.3359 22.8979C40.3158 23.1402 40.2803 23.3721 40.2439 23.6214C40.6462 24.4346 40.7706 25.1226 40.6971 26.0237L40.6827 26.1732C40.3191 29.2621 36.6897 29.8851 34.5101 31.8831L34.4216 31.9668L34.2757 32.1414C33.6276 33.0508 34.18 34.4835 34.5101 35.3413C35.022 36.6719 34.9869 38.1313 34.2613 38.7302L34.1657 38.8019C33.4043 39.3249 32.0478 39.1496 30.7146 38.9347L29.4124 38.7314C28.6014 38.6214 27.7872 38.5311 26.9718 38.4599C26.3037 38.7956 25.913 38.9391 25.1542 39.0196L24.9796 39.0244L24.6759 39.0196C24.0007 38.9874 23.5337 38.8104 22.8511 38.4504C22.0955 38.5595 21.2185 38.638 20.4535 38.7302L20.1988 38.7649C18.8766 38.9644 16.9425 39.4833 15.7445 38.4599C14.6835 37.2956 15.3415 36.2753 15.9394 34.4696L16.0578 34.0977C16.665 32.8119 15.5488 31.8446 14.6121 31.345C12.752 30.336 10.3294 28.7861 9.60053 27.369C9.28438 26.5446 9.19251 25.5702 9.37453 24.694L9.41519 24.5206C9.45603 24.3625 9.50886 24.2107 9.56825 24.0614L9.75957 23.6166C9.47054 21.9676 9.84068 20.7049 10.9613 19.5437L11.1957 19.3129C11.4229 17.7921 12.2799 16.5469 13.7021 15.9898L13.9951 15.8882C14.7169 14.2729 15.8595 13.4904 17.5143 13.2252L17.8527 13.1785C18.0875 12.8718 18.4573 12.5319 18.7974 12.2972L18.9409 12.204C20.0346 11.5313 21.0646 11.3679 22.2687 11.5905L22.5127 11.6395C23.2813 11.1393 23.8385 10.9286 24.7632 10.8575ZM24.8098 11.7747C24.0691 11.8342 23.6602 11.9889 23.0137 12.4096C22.8069 12.5443 22.5539 12.5899 22.313 12.5364C21.2159 12.2921 20.3701 12.4043 19.4275 12.9824L19.3008 13.0661C19.0314 13.2551 18.7443 13.5234 18.5809 13.737C18.4294 13.9348 18.2043 14.0625 17.9567 14.0909C17.1391 14.1847 16.5215 14.3961 16.0399 14.7247C15.5647 15.0489 15.161 15.5293 14.8333 16.2625C14.7255 16.5036 14.5188 16.6865 14.2665 16.7647C13.0579 17.1387 12.3022 18.1181 12.1033 19.4481C12.0728 19.652 11.9749 19.84 11.8247 19.9814C11.2574 20.5151 10.921 21.0277 10.7449 21.555C10.5689 22.0822 10.5308 22.6927 10.6648 23.4575C10.6964 23.6377 10.6736 23.8238 10.599 23.9909C10.4604 24.3013 10.364 24.5211 10.3049 24.7502L10.2738 24.8805C10.1328 25.559 10.1999 26.3311 10.44 26.9875C10.7142 27.4908 11.3424 28.1142 12.2301 28.774C13.1101 29.4281 14.1377 30.0431 15.045 30.5354L15.2483 30.649C15.7348 30.9333 16.2861 31.3487 16.67 31.9058C17.1306 32.5742 17.3421 33.4532 16.9224 34.411L16.8147 34.7482L16.8112 34.759C16.6596 35.2166 16.4924 35.6607 16.3747 35.9954C16.2479 36.356 16.1643 36.6282 16.1248 36.86C16.0871 37.0809 16.0956 37.2337 16.1296 37.3586C16.1602 37.4713 16.2273 37.6113 16.3819 37.7915C16.7237 38.0613 17.2144 38.1764 17.8933 38.1538C18.621 38.1296 19.3141 37.97 20.0613 37.8573L20.0745 37.8549L20.3304 37.8202L20.3435 37.819C21.1552 37.7211 21.9732 37.6496 22.7208 37.5416L22.8642 37.532C23.0086 37.534 23.1515 37.5705 23.2804 37.6384C23.97 38.0021 24.3156 38.1111 24.9617 38.1048L25.0824 38.1024C25.6872 38.0363 25.9705 37.9342 26.5592 37.6384C26.7114 37.562 26.8823 37.5303 27.0519 37.5452C27.8816 37.6176 28.7099 37.7094 29.5356 37.8214H29.5344C30.4753 37.948 31.2695 38.1219 32.1149 38.1981C32.9612 38.2743 33.4277 38.191 33.6419 38.0462L33.6802 38.0175C33.7658 37.9436 33.9049 37.7275 33.9325 37.257C33.9592 36.8009 33.8692 36.2341 33.6527 35.6714C33.4825 35.2292 33.2015 34.5113 33.0978 33.7724C32.995 33.0392 33.038 32.0702 33.7639 31.3258L33.7902 31.2995L33.8787 31.2158L33.8894 31.2063C34.5053 30.6417 35.2058 30.1894 35.8733 29.7928C36.5734 29.3769 37.1823 29.0521 37.7793 28.6664C38.935 27.9199 39.6376 27.193 39.7703 26.0656L39.7835 25.934C39.8413 25.2023 39.7441 24.6843 39.42 24.0291C39.3373 23.862 39.3081 23.6731 39.3351 23.4886C39.3726 23.232 39.4014 23.0382 39.4188 22.8369L39.4307 22.6193C39.4516 21.9101 39.2365 21.2143 38.8161 20.6427L38.681 20.4717C38.545 20.3089 38.3996 20.1645 38.2027 19.979C38.0533 19.8382 37.956 19.651 37.9252 19.4481C37.7204 18.0938 37.0104 17.1739 35.7632 16.7563C35.555 16.6866 35.3783 16.5444 35.2658 16.3557C35.1946 16.2363 35.1359 16.1246 35.0876 16.0317C35.0366 15.9336 34.9996 15.8611 34.9573 15.7865H34.9561L34.8676 15.6419C34.4288 14.9793 33.7728 14.4919 33.0141 14.2631L32.8383 14.2153C32.6057 14.158 32.3679 14.1245 32.1292 14.1148C31.87 14.1043 31.6269 13.9841 31.4608 13.7848C30.5008 12.6335 29.1797 12.1806 27.7347 12.5328C27.4894 12.5925 27.2303 12.5481 27.0184 12.4108L26.851 12.3032H26.8498C26.197 11.8998 25.6452 11.7527 24.8098 11.7747ZM13.4295 33.5261L13.4163 33.5189C13.4147 33.518 13.4127 33.5171 13.4139 33.5177L13.4295 33.5261Z" fill="#020101"/>
<path id="Vector_2" d="M22.7289 12.8395C23.0844 12.4013 23.4767 12.0799 23.9872 11.8383C24.8643 11.4232 25.8879 11.6066 26.6272 12.2125C26.8581 12.4018 27.0479 12.6157 27.2425 12.8438C27.2003 13.0486 27.1627 13.2544 27.1303 13.4609C26.8395 15.3274 26.7216 17.1371 26.541 19.011C26.1686 22.9104 25.857 26.8154 25.6062 30.7244C25.5264 31.8782 25.4731 33.0467 25.3884 34.1983C25.4009 34.2418 25.4123 34.292 25.4324 34.3312C26.0092 29.2661 26.5343 24.1954 27.007 19.1196C27.1212 17.8274 27.2097 16.533 27.2723 15.2373C27.2906 14.8279 27.3042 14.4184 27.3129 14.0087C27.3182 13.7545 27.3142 13.4258 27.3389 13.1802L27.3418 12.8757C27.7185 12.6462 28.0096 12.5032 28.4441 12.4106C29.8267 12.1158 31.0692 12.9456 31.5551 14.2324C31.4798 14.379 31.4284 14.5263 31.3705 14.6804C31.151 15.2836 30.9874 15.8651 30.8077 16.4823C30.5682 17.3059 30.3331 18.1306 30.1025 18.9566C29.2153 22.1499 28.3791 25.357 27.5943 28.5771C27.2193 30.0461 26.8574 31.5187 26.5089 32.9945L26.2264 34.1953C26.1695 34.4373 26.0932 34.7209 26.063 34.964C26.2729 34.4519 26.4264 33.6629 26.6016 33.1256C26.6512 32.9735 26.7136 32.6911 26.7706 32.5532C28.338 26.6072 30.2481 20.8133 31.5723 14.7916C31.5997 14.6167 31.6255 14.438 31.6554 14.2639C33.4397 13.7825 34.8073 14.8256 35.1408 16.5836L34.9868 16.8039C34.4605 17.6926 34.0155 18.6576 33.5642 19.5893C32.9055 20.9215 32.271 22.2654 31.6607 23.6203C30.4611 26.2708 29.2234 28.9006 28.1554 31.6072L27.454 33.349C27.3831 33.5255 26.8439 34.8283 26.859 34.9035C26.9563 34.7619 27.0053 34.5874 27.082 34.4447C27.2626 34.1092 27.4979 33.4716 27.6772 33.1767C27.7284 33.0152 27.9398 32.5661 28.0188 32.3837L28.7141 30.7668C29.6422 28.616 30.6657 26.6098 31.6943 24.5178C32.314 23.241 32.9254 21.9603 33.5283 20.6756C33.8904 19.9065 34.2407 19.132 34.5794 18.3523C34.7559 17.9463 35.0039 17.4101 35.1305 16.9956C35.16 16.9053 35.1937 16.79 35.2315 16.7053C36.0611 16.8058 36.7082 17.0148 37.2443 17.6928C37.6696 18.2307 37.8837 19.0501 37.7287 19.7226C37.7048 19.8406 37.3626 20.1534 37.2627 20.2746C36.5647 21.12 35.914 22.0125 35.2667 22.8979C34.5114 23.924 33.7734 24.9625 33.0527 26.0132C32.2806 27.1705 31.5268 28.3401 30.7919 29.5214C29.8016 31.0619 28.8646 32.636 27.9823 34.2407C27.904 34.3844 27.4675 35.1551 27.4596 35.2281C27.5325 35.1551 27.8686 34.5756 27.9363 34.4624C28.2444 33.9502 28.556 33.4401 28.8714 32.9324C29.8331 31.3749 30.8339 29.8419 31.8732 28.3351C33.002 26.6694 34.2851 24.9367 35.4786 23.3044C35.9275 22.6941 36.3677 22.0774 36.7991 21.4545C37.0779 21.0575 37.4534 20.5307 37.702 20.1155C37.7256 20.0646 37.7621 19.9802 37.7879 19.9338C38.4745 20.1821 39.0052 20.6906 39.2265 21.3978C39.3545 21.8061 39.335 22.1735 39.2934 22.592C39.2661 22.7407 39.1955 23.1517 39.0934 23.251C38.8189 23.518 38.4925 23.7594 38.2008 24.0149C37.576 24.5678 36.9603 25.1307 36.3539 25.7037C33.8237 28.0919 31.4925 30.682 29.3833 33.4484C29.291 33.5705 28.6111 34.4773 28.5711 34.5771C28.5843 34.571 30.5536 32.117 30.7838 31.8391C31.6462 30.7991 32.5356 29.9243 33.5025 28.9812L36.936 25.6674C37.6854 24.9343 38.3532 24.3213 39.0457 23.5037C39.1026 23.6552 39.1502 23.7351 39.2303 23.8757C39.4327 24.21 39.6101 24.5409 39.689 24.9289C39.9256 26.1723 39.1972 27.5185 38.286 28.3224C37.7543 28.7912 37.1289 29.1575 36.5216 29.5184C35.8558 29.9125 35.1878 30.3033 34.518 30.6906C33.836 31.098 33.1734 31.5372 32.5325 32.0069C31.1212 33.0733 29.7869 34.2379 28.5394 35.4917C28.2014 35.8323 27.8535 36.1794 27.5268 36.525C26.9084 37.1788 26.2909 38.0126 25.3423 38.1771C24.1724 38.38 23.4379 37.5661 22.737 36.8074C22.4348 36.4785 22.1289 36.1528 21.8194 35.8305C20.9394 34.9258 20.0169 34.0629 19.055 33.2455C18.1086 32.4527 17.1132 31.7203 16.0746 31.0525C15.7331 30.8319 15.3887 30.632 15.0401 30.4249C14.9765 30.3871 14.6363 30.1914 14.5978 30.1576C13.6491 29.6833 11.7564 28.5162 11.1208 27.6791C11.0609 27.6264 10.9255 27.4266 10.8792 27.3558C10.508 26.7865 10.1524 25.7026 10.3005 25.0254C10.3426 24.6239 10.5422 24.2148 10.7549 23.8773C10.8257 23.7601 10.9004 23.6479 10.9501 23.5209C11.7478 24.3867 12.5142 25.1803 13.3616 25.994C15.6585 28.1994 18.0859 30.2908 20.0445 32.8158C20.39 33.261 20.7888 33.7007 21.1128 34.1634L21.1462 34.1291C20.5634 33.2931 20.0828 32.7138 19.4512 31.9377C17.5658 29.6569 15.5444 27.4921 13.3977 25.4549C12.8741 24.9525 12.3372 24.464 11.7876 23.9901C11.5183 23.7566 11.1618 23.4973 10.9151 23.2528C10.8218 23.1603 10.7457 22.7187 10.7154 22.5616C10.6106 21.7576 10.7736 21.0136 11.3789 20.4427C11.5445 20.2865 11.95 19.9648 12.1767 19.9668C12.2549 20.0076 12.2302 19.994 12.2804 20.0844C12.9651 21.152 13.6789 22.2007 14.4208 23.2293C15.678 24.9833 16.9761 26.6793 18.2248 28.4509C19.6827 30.5639 21.0608 32.7308 22.3561 34.9472L22.3978 34.9264C22.0249 34.1686 21.5173 33.2855 21.0918 32.5559C20.3088 31.1954 19.4786 29.8627 18.6029 28.5596C18.099 27.7986 17.5985 27.0054 17.0859 26.255C16.2933 25.1084 15.4888 23.9701 14.6724 22.8402C14.1221 22.0699 13.5561 21.3109 12.9747 20.5638C12.7608 20.2914 12.5286 20.038 12.3038 19.7749C12.2668 19.7316 12.2614 19.6267 12.2568 19.5674L12.2531 19.5275C12.1924 18.8169 12.3462 18.134 12.8193 17.5906C13.3824 16.9438 13.9537 16.7963 14.7613 16.7246C14.7994 16.8193 14.8403 16.948 14.8746 17.0468C15.402 18.5405 16.1237 20.0073 16.7912 21.4427C18.3525 24.7996 20.1477 28.0448 21.6016 31.4516C21.7339 31.7618 21.9106 32.1303 22.0156 32.4444C22.064 32.5253 22.2047 32.8767 22.2552 32.9934C22.4461 33.4305 22.6403 33.8659 22.8378 34.2999C22.928 34.4983 23.0931 34.8812 23.2101 35.0498C23.0185 34.4994 22.7809 33.9552 22.5719 33.4095C21.2033 29.8364 19.6012 26.3 17.9577 22.8474C17.3355 21.5141 16.6992 20.1875 16.0487 18.8677C15.6973 18.1547 15.3931 17.5136 15.0041 16.8181C14.9511 16.7415 14.8961 16.6518 14.845 16.5726C14.8728 16.4526 14.8993 16.3317 14.9327 16.2131C15.3786 14.6293 16.7676 13.8329 18.3477 14.2714C18.3839 14.4381 18.4097 14.6823 18.4333 14.8564C18.4589 14.928 18.5113 15.2122 18.5285 15.299C18.5887 15.6109 18.652 15.9223 18.7183 16.2331C18.9239 17.1683 19.1891 18.2599 19.4395 19.1814C20.4579 22.9321 21.5262 26.6692 22.6442 30.3915C22.9553 31.4586 23.2162 32.5587 23.534 33.6275C23.6699 34.0843 23.7789 34.5579 23.9343 35.0088C23.7989 34.1894 23.5423 33.1644 23.3502 32.3455C22.8743 30.3522 22.3745 28.3646 21.8508 26.3833C21.7764 26.0899 21.6991 25.7948 21.6304 25.5003C21.1549 23.4615 20.5411 21.4593 19.99 19.4417C19.7283 18.456 19.4553 17.4734 19.1711 16.4939C18.9929 15.8759 18.8356 15.302 18.6161 14.6975C18.5548 14.545 18.4927 14.3787 18.4155 14.2351C18.4809 14.0726 18.5593 13.9156 18.6502 13.7657C19.0365 13.1245 19.6459 12.6018 20.3842 12.4348C21.2666 12.2353 21.8913 12.4219 22.6394 12.8746L22.6449 13.2757C22.6973 13.8278 22.6909 14.595 22.7139 15.1651C22.7604 16.168 22.8226 17.17 22.9008 18.171C23.1759 21.669 23.5215 25.1613 23.9374 28.6455L24.3584 32.4615C24.425 33.0587 24.4845 33.7542 24.5695 34.3394L24.6185 34.3373C24.382 30.2843 24.0838 26.235 23.7239 22.191C23.4773 19.2665 23.27 16.3317 22.839 13.4275C22.8049 13.231 22.7682 13.035 22.7289 12.8395Z" fill="#EFB366"/>
<path id="Vector_3" d="M10.7154 22.5616C11.1117 22.7754 11.416 23.0792 11.7492 23.3769C13.2994 24.7622 14.7089 26.2869 16.1512 27.7794C16.6504 28.3364 17.1925 28.8823 17.6987 29.4439C18.8989 30.7803 20.0531 32.1572 21.1591 33.5725C21.5192 34.038 21.8476 34.5487 22.1317 35.0634C22.7317 36.1501 23.6962 37.7736 25.1396 37.6415C26.5622 37.5113 27.3748 35.9079 28.0223 34.8255C28.6326 33.8025 29.3284 32.8647 30.1151 31.9698C31.4099 30.5051 32.6974 29.0271 34.0212 27.5884C34.5108 27.0565 35.0828 26.574 35.5547 26.0102C36.3276 25.0873 32.6406 29.8218 33.5025 28.9812L36.936 25.6674C37.6854 24.9343 38.3532 24.3213 39.0457 23.5037C39.1026 23.6552 39.1502 23.7351 39.2303 23.8757C39.4327 24.21 39.6101 24.5409 39.689 24.9289C39.9256 26.1723 39.1972 27.5185 38.286 28.3224C37.7543 28.7912 37.1289 29.1575 36.5216 29.5184C35.8558 29.9125 35.1878 30.3033 34.518 30.6906C33.836 31.098 33.1734 31.5372 32.5325 32.0069C31.1212 33.0733 29.7869 34.2379 28.5394 35.4917C28.2014 35.8323 27.8535 36.1794 27.5268 36.525C26.9084 37.1788 26.2909 38.0126 25.3423 38.1771C24.1724 38.38 23.4379 37.5661 22.737 36.8074C22.4348 36.4785 22.1289 36.1528 21.8194 35.8306C20.9394 34.9258 20.0169 34.0629 19.055 33.2455C18.1086 32.4528 17.1132 31.7203 16.0746 31.0525C15.7331 30.8319 15.3887 30.632 15.0401 30.4249C14.9765 30.3871 14.6363 30.1914 14.5978 30.1576C13.6491 29.6833 11.7564 28.5162 11.1208 27.6791C11.0609 27.6264 10.9255 27.4266 10.8792 27.3558C10.508 26.7865 10.1524 25.7026 10.3005 25.0254C10.3426 24.6239 10.5422 24.2148 10.7549 23.8773C10.8257 23.7601 10.9004 23.6479 10.9501 23.5209C11.7478 24.3867 12.5142 25.1803 13.3616 25.994C15.6585 28.1994 18.0859 30.2908 20.0445 32.8158C20.39 33.261 20.7888 33.7007 21.1128 34.1634L21.1462 34.1291C20.5634 33.2931 20.0828 32.7138 19.4512 31.9377C17.5658 29.6569 15.5444 27.4921 13.3977 25.4549C12.8741 24.9525 12.3372 24.464 11.7876 23.9901C11.5183 23.7566 11.1618 23.4973 10.9151 23.2528C10.8218 23.1603 10.7457 22.7187 10.7154 22.5616Z" fill="#F4A261"/>
<path id="Vector_4" d="M39.23 23.8757C39.4325 24.21 39.6098 24.5409 39.6888 24.9289L39.6608 24.9658C39.6326 24.9566 39.6334 24.956 39.5987 24.9499C38.8266 24.8138 36.6797 26.6579 36.0617 27.1915C35.7724 27.4414 35.4971 27.7204 35.1949 27.9537L35.1792 27.9421C35.2017 27.8742 35.7079 27.4336 35.7972 27.3525C36.5596 26.6605 37.3049 25.9497 38.0321 25.2207C38.4616 24.7867 38.8869 24.3813 39.23 23.8757Z" fill="#E8E7E7"/>
<path id="Vector_5" d="M10.7547 23.8773C10.9934 24.23 11.3023 24.5156 11.5936 24.8258C12.2918 25.5691 13.0417 26.2581 13.7794 26.9626L13.7177 26.9964C12.8217 26.2906 11.8317 25.437 10.7744 24.9573C10.537 24.8496 10.491 24.9822 10.3003 25.0254C10.3424 24.6239 10.5419 24.2148 10.7547 23.8773Z" fill="#E8E7E7"/>
<path id="Vector_6" d="M11.1206 27.6791C11.4607 27.6068 13.1286 28.9419 13.4819 29.1792C13.6813 29.3128 14.4992 29.9247 14.6315 30.0936L14.6367 30.1331L14.5976 30.1576C13.6489 29.6833 11.7562 28.5162 11.1206 27.6791Z" fill="#E8E7E7"/>
<path id="Vector_7" d="M13.7794 26.9626C14.0513 27.2155 14.4607 27.5884 14.7481 27.8512C14.7524 27.8691 14.7567 27.887 14.7609 27.905C14.6787 27.9041 14.558 27.794 14.5024 27.7337C14.2545 27.4646 13.9898 27.2402 13.7178 26.9964L13.7794 26.9626Z" fill="#E8E7E7"/>
<path id="Vector_8" d="M22.7285 12.8395C23.084 12.4013 23.4764 12.0799 23.9868 11.8383C24.8639 11.4232 25.8875 11.6066 26.6268 12.2125C26.8578 12.4018 27.0476 12.6157 27.2422 12.8438C27.2 13.0486 27.1624 13.2544 27.13 13.4609C26.8938 13.2703 26.781 13.0651 26.5328 12.8891C26.4233 13.8011 25.8593 22.0815 25.7845 22.2038L25.7974 22.1973L25.7821 22.222L25.7926 22.1829L25.7738 22.1537C25.7649 21.5654 25.8141 20.8595 25.8259 20.2562C25.8659 18.5851 25.8923 16.9137 25.9048 15.2421L25.9017 13.9175C25.9015 13.5746 25.9081 13.2619 25.8705 12.9192C25.7574 11.8863 24.1933 11.9468 24.111 12.9634C24.0819 13.3238 24.0836 13.647 24.0839 14.0102L24.0866 15.5489C24.1114 17.8101 24.1544 20.0711 24.2156 22.3316C24.2116 22.4186 24.2158 22.5518 24.1782 22.623C24.1486 21.7254 24.0572 20.7538 23.9916 19.8511C23.9129 18.6241 23.8226 17.3978 23.7206 16.1725L23.5748 14.3654C23.5397 13.8885 23.512 13.3818 23.448 12.9101C23.2455 13.0609 23.0254 13.3142 22.8386 13.4275C22.8046 13.231 22.7679 13.035 22.7285 12.8395Z" fill="#E8E7E7"/>
<path id="Vector_9" d="M18.4155 14.2351C18.4809 14.0725 18.5594 13.9156 18.6502 13.7657C19.0366 13.1245 19.6459 12.6018 20.3843 12.4348C21.2667 12.2353 21.8914 12.4219 22.6394 12.8746L22.645 13.2757L22.6279 13.4815C22.4852 13.4988 22.2386 13.2051 22.0709 13.2372C21.8525 13.5469 22.837 21.2339 22.6842 21.4257C22.3726 19.6649 22.1077 17.7572 21.8411 15.9835L21.6306 14.5827C21.5348 13.9501 21.4848 12.7167 20.5348 12.9118C20.2657 12.9689 20.0325 13.1351 19.8909 13.3708C19.6192 13.8176 19.7937 14.5319 19.8737 15.0296C19.9587 15.5604 20.0502 16.0902 20.148 16.6187C20.4309 18.2447 20.7474 19.8646 21.0975 21.4774L21.437 23.03C21.4875 23.2585 21.6013 23.5474 21.5814 23.7701L21.5879 23.7247L21.572 23.7565C21.406 22.8154 21.0805 21.7784 20.8358 20.8491C20.6189 20.0259 20.4137 19.1949 20.2007 18.3695L19.5147 15.5989C19.4001 15.1337 19.2677 14.5285 19.1208 14.0856C18.9667 14.2869 18.7973 14.5274 18.6161 14.6975C18.5549 14.545 18.4927 14.3787 18.4155 14.2351Z" fill="#E8E7E7"/>
<path id="Vector_10" d="M27.3417 12.8757C27.7184 12.6462 28.0095 12.5032 28.444 12.4106C29.8266 12.1158 31.0691 12.9456 31.5549 14.2324C31.4797 14.3791 31.4283 14.5263 31.3704 14.6804C31.1664 14.4746 31.0417 14.2698 30.8624 14.0706L29.2865 20.1665L28.8929 21.7453C28.8564 21.8934 28.7383 22.4136 28.6777 22.5366C28.658 22.4786 28.6683 22.4256 28.6808 22.366C29.1542 20.1847 29.5878 17.995 29.9814 15.798C30.0276 15.5414 30.0916 15.2434 30.1218 15.0025C30.2106 14.2976 30.5161 13.49 29.7671 13.0234C29.3818 12.7832 28.8398 12.8616 28.6023 13.3089C28.4343 13.7493 28.3722 14.3724 28.3001 14.8588L28.0182 16.753L27.5116 20.0399C27.4119 20.6835 27.2804 21.4166 27.2131 22.062L27.1646 22.0795C27.1844 21.7911 27.2339 21.4472 27.266 21.1534L27.411 19.7303C27.5623 18.2981 27.6933 16.8638 27.8039 15.4278C27.8444 14.9052 27.9701 13.6392 27.9019 13.1898C27.652 13.2871 27.5608 13.3629 27.3423 13.5217C27.348 13.3916 27.3456 13.3092 27.3388 13.1802L27.3417 12.8757Z" fill="#E8E7E7"/>
<path id="Vector_11" d="M14.8447 16.5726C14.8725 16.4526 14.899 16.3317 14.9324 16.2131C15.3783 14.6293 16.7673 13.8329 18.3474 14.2714C18.3836 14.4381 18.4094 14.6823 18.433 14.8564C18.2642 14.8376 18.0366 14.701 17.8993 14.7814C17.8132 14.9352 18.1148 15.9715 18.1739 16.204C18.3928 17.0578 18.6223 17.9088 18.8626 18.7569L19.4205 20.6953C19.4845 20.9133 19.7901 21.7971 19.7116 21.9235C19.6593 21.8559 19.2216 20.5531 19.1644 20.3924L18.269 17.8497L17.658 16.0537C17.5676 15.7957 17.4761 15.539 17.3787 15.2883C17.0812 14.5233 16.2685 14.8021 15.9981 15.409C15.7584 15.947 16.1536 16.7791 16.3462 17.3075C16.617 18.0468 16.8978 18.7824 17.1884 19.5141L17.8997 21.3474C17.9863 21.5725 18.0647 21.7862 18.1435 22.014C18.1831 22.1288 18.2596 22.2502 18.2941 22.3755L18.2573 22.3926C18.163 22.3512 18.0395 22.0021 17.9875 21.8874L17.5033 20.8247C17.1122 19.9733 16.7132 19.1316 16.3271 18.2768C16.0584 17.682 15.6923 16.7714 15.3731 16.214C15.3015 16.3029 14.9947 16.8252 15.0038 16.8181C14.9508 16.7415 14.8958 16.6518 14.8447 16.5726Z" fill="#E8E7E7"/>
<path id="Vector_12" d="M31.6552 14.2639C33.4396 13.7825 34.8071 14.8256 35.1406 16.5836L34.9866 16.8039C34.8482 16.6736 34.771 16.4225 34.5952 16.2271C33.8056 17.8212 33.0613 19.5242 32.3141 21.1485L31.7143 22.4364C31.6408 22.5907 31.6209 22.7139 31.5214 22.8495L31.4985 22.841C31.4993 22.7142 31.7746 22.146 31.8433 21.9646L33.2078 18.3805C33.4625 17.7179 33.719 17.0615 33.9528 16.3884C34.1161 15.9186 34.1553 15.4952 33.7833 15.097C33.6276 14.9304 33.402 14.8225 33.1708 14.8252C33.0042 14.8261 32.8459 14.8983 32.7363 15.0235C32.5343 15.2519 32.0753 16.6589 31.9428 17.0323C31.5081 18.263 31.0852 19.4978 30.6741 20.7365C30.4386 21.4145 30.2131 22.096 29.9978 22.7806C29.9735 22.8592 29.9273 23.0467 29.895 23.1117C29.8388 23.2243 29.8147 23.4123 29.7719 23.5009L29.7563 23.4827C29.8539 23.3417 30.5549 20.703 30.6282 20.4401L31.458 17.4503C31.5656 17.0639 32.1731 15.0245 32.0633 14.7777C31.8785 14.65 31.7495 14.8378 31.5722 14.7916C31.5995 14.6167 31.6253 14.438 31.6552 14.2639Z" fill="#E8E7E7"/>
<path id="Vector_13" d="M31.5722 14.7916C31.7495 14.8378 31.8786 14.6501 32.0633 14.7777C32.1731 15.0246 31.5656 17.0639 31.4581 17.4503L30.6282 20.4401C30.555 20.703 29.8539 23.3417 29.7564 23.4827C29.6709 23.5932 29.3952 24.6204 29.3171 24.8609L27.8304 29.4767C27.5232 30.4455 27.2194 31.4084 26.8849 32.3684C26.8575 32.4469 26.8333 32.4982 26.7705 32.5532C28.3379 26.6072 30.248 20.8133 31.5722 14.7916Z" fill="#E8E7E7"/>
<path id="Vector_14" d="M35.1305 16.9956C35.1876 17.1031 35.4246 17.2521 35.5298 17.3567C35.4616 17.5862 35.352 17.8134 35.2532 18.0313C34.8178 18.9904 34.3958 19.9512 33.9014 20.8824C33.8098 21.0549 33.7249 21.2432 33.6398 21.4201C33.4798 21.7509 33.3228 22.0833 33.1688 22.4171C33.0805 22.6095 32.9342 22.9666 32.8225 23.1265C32.7123 23.2422 32.166 24.4241 32.0412 24.6646C31.029 26.5956 30.0303 28.5339 29.045 30.4789C28.6416 31.2826 28.276 32.1083 27.8699 32.9113C27.8176 33.0144 27.7759 33.1358 27.6772 33.1767C27.7284 33.0153 27.9399 32.5661 28.0188 32.3837L28.7142 30.7668C29.6422 28.616 30.6658 26.6098 31.6944 24.5178C32.3141 23.241 32.9255 21.9603 33.5283 20.6756C33.8904 19.9065 34.2407 19.132 34.5795 18.3523C34.7559 17.9463 35.0039 17.4101 35.1305 16.9956Z" fill="#E8E7E7"/>
<path id="Vector_15" d="M35.2313 16.7053C36.0609 16.8058 36.708 17.0148 37.2441 17.6928C37.6695 18.2307 37.8835 19.0502 37.7285 19.7226C37.5735 19.641 37.6172 19.2505 37.4545 19.1488C37.4423 19.1518 37.4298 19.1548 37.4175 19.1578C36.786 20.023 35.5829 21.713 35.0319 22.5186L34.4028 23.4211C34.3193 23.5392 34.1452 23.8961 34.0026 23.8472C34.0144 23.7498 34.3744 23.1957 34.4476 23.0773L35.6988 21.044C36.017 20.525 36.8271 19.2945 36.9485 18.7606C37.015 18.4683 36.9719 18.1552 36.7812 17.9164C36.6675 17.7738 36.4749 17.6292 36.2888 17.6067C36.2026 17.5963 36.123 17.6134 36.0546 17.6683C35.7209 17.9361 34.0197 21.0971 33.6947 21.6733C33.5004 22.0185 33.2893 22.3537 33.0917 22.6969C33.0298 22.8042 32.9546 23.0819 32.8474 23.1365L32.8223 23.1265C32.934 22.9666 33.0803 22.6095 33.1686 22.4171C33.3226 22.0833 33.4796 21.7509 33.6396 21.4201C33.7247 21.2432 33.8095 21.0549 33.9012 20.8824C34.3956 19.9512 34.8176 18.9904 35.253 18.0313C35.3518 17.8134 35.4614 17.5862 35.5296 17.3567C35.4244 17.2521 35.1874 17.1031 35.1303 16.9956C35.1598 16.9054 35.1935 16.7901 35.2313 16.7053Z" fill="#E8E7E7"/>
<path id="Vector_16" d="M14.8745 17.0468C15.402 18.5405 16.1236 20.0073 16.7912 21.4427C18.3524 24.7996 20.1476 28.0448 21.6015 31.4516C21.7339 31.7618 21.9106 32.1303 22.0156 32.4445C22.0089 32.4383 22.0023 32.4324 21.9957 32.4261C21.9868 32.4178 21.9781 32.4091 21.9691 32.4008C21.8224 32.2645 21.1939 30.842 21.0512 30.558C20.044 28.5996 19.0211 26.6494 17.9825 24.7074C17.757 24.2771 17.5371 23.844 17.3229 23.408C17.2009 23.1587 17.0039 22.7204 16.8561 22.5117C16.8041 22.3407 16.3377 21.4237 16.2417 21.2314C15.8218 20.4068 15.4169 19.5746 15.0272 18.7353C14.8423 18.3406 14.5754 17.8058 14.4424 17.4011C14.5759 17.2404 14.703 17.1644 14.8745 17.0468Z" fill="#E8E7E7"/>
<path id="Vector_17" d="M12.2565 19.5674L12.2528 19.5275C12.1921 18.8169 12.3459 18.134 12.819 17.5906C13.3822 16.9438 13.9534 16.7963 14.761 16.7246C14.7991 16.8193 14.84 16.948 14.8743 17.0468C12.6894 18.5451 12.9499 18.6846 14.264 21.0159C14.5867 21.5716 14.9085 22.0942 15.2405 22.6384C15.3318 22.7881 15.7868 23.4659 15.8108 23.5821C15.3729 23.0206 16.042 23.9037 14.4848 21.8599C13.8033 20.9654 13.2321 20.0049 12.5573 19.1102C12.4866 19.21 12.3249 19.53 12.2565 19.5674Z" fill="#E8E7E7"/>
<path id="Vector_18" d="M10.7151 22.5616C10.6104 21.7576 10.7733 21.0136 11.3786 20.4427C11.5442 20.2865 11.9497 19.9648 12.1764 19.9668C12.2546 20.0076 12.2299 19.994 12.2801 20.0844C12.2648 20.247 12.2097 20.4276 12.1666 20.5875C12.1688 20.5954 12.1709 20.6034 12.1732 20.6112C12.3208 21.1142 14.3553 23.8187 14.8187 24.4278C14.8903 24.5217 14.9399 24.6255 15.0156 24.7183C15.0346 24.7417 15.0445 24.7624 15.0538 24.7908L15.0279 24.8C14.7613 24.5199 14.4924 24.189 14.2395 23.8924L12.9653 22.3843C12.6729 22.032 12.0234 21.1747 11.6417 21.0096C11.2206 21.2181 11.0795 21.7968 11.3161 22.1771C11.8769 23.0782 12.6826 23.8976 13.3984 24.6842C14.0372 25.3979 14.6814 26.1067 15.3311 26.8106C15.4452 26.932 16.0306 27.548 16.1824 27.7184C16.1801 27.7335 16.1778 27.7486 16.1754 27.7636L16.151 27.7794C14.7086 26.2869 13.2991 24.7622 11.7489 23.3769C11.4157 23.0792 11.1114 22.7754 10.7151 22.5616Z" fill="#E8E7E7"/>
<path id="Vector_19" d="M37.7019 20.1155C37.7255 20.0646 37.762 19.9803 37.7878 19.9338C38.4744 20.1822 39.0051 20.6906 39.2264 21.3978C39.3544 21.8061 39.3349 22.1735 39.2933 22.592L39.2264 22.118C39.1076 21.7769 38.8291 21.3978 38.3695 21.0345C38.2507 21.0304 38.1456 21.121 38.0616 21.1955C37.6295 21.5791 37.2538 22.0924 36.883 22.5349C36.3884 23.1252 35.8797 23.7061 35.3904 24.3003C35.203 24.528 35.0276 24.8022 34.8124 25.0019L34.793 24.9994C34.8201 24.925 35.2498 24.3536 35.3221 24.2522L36.7286 22.2947C36.9932 21.9312 37.6774 21.0019 37.8534 20.6152L37.8659 20.5875C37.8193 20.4376 37.7526 20.2748 37.7019 20.1155Z" fill="#E8E7E7"/>
<path id="Vector_20" d="M27.1644 22.0795L27.213 22.062C27.2125 22.2047 27.0815 23.0967 27.0413 23.205C27.0352 23.075 27.1277 22.2102 27.1644 22.0795Z" fill="#E8E7E7"/>
<path id="Vector_21" d="M24.2158 22.3316C24.2925 22.6597 24.2134 23.1485 24.2392 23.4693C24.2149 23.3942 24.1721 22.7146 24.1783 22.623C24.216 22.5518 24.2118 22.4186 24.2158 22.3316Z" fill="#E8E7E7"/>
<path id="Vector_22" d="M25.3882 34.1983C25.4007 34.2418 25.412 34.292 25.4322 34.3311C25.4197 34.4742 25.3952 34.6271 25.3747 34.7702C25.3561 34.595 25.374 34.3753 25.3882 34.1983Z" fill="#020101"/>
<path id="Vector_23" d="M24.5693 34.3395L24.6183 34.3373C24.6297 34.4723 24.6371 34.5822 24.6397 34.7178L24.6015 34.7394L24.6369 34.7392L24.629 34.7632L24.6104 34.7517L24.6341 34.7593L24.6063 34.7403L24.6273 34.7663L24.645 34.7202L24.598 34.7071C24.5838 34.6309 24.5731 34.4192 24.5693 34.3395Z" fill="#020101"/>
<path id="Vector_24" d="M22.356 34.9472L22.3976 34.9264C22.4552 35.0162 22.507 35.1193 22.5576 35.2139L22.5408 35.2421L22.5728 35.2759L22.5546 35.2613L22.5713 35.2506L22.541 35.2458C22.4866 35.1779 22.4034 35.0273 22.356 34.9472Z" fill="#020101"/>
<path id="Vector_25" d="M16.9585 32.206C18.1812 33.1405 19.2925 34.0995 20.4181 35.1478C21.2819 35.9523 22.1958 36.8447 23.1376 37.5621L21.7909 37.6942C21.2188 37.7552 20.6471 37.8203 20.0759 37.8895C19.5905 37.9592 19.089 38.0254 18.604 38.083C17.8892 38.1678 16.8726 38.3959 16.3292 37.7729C15.5136 36.8379 16.4747 35.5629 16.8137 34.631C16.9716 34.1967 17.0706 33.8623 17.0904 33.4007C17.0884 32.9326 17.078 32.6737 16.9585 32.206Z" fill="#EFB366"/>
<path id="Vector_26" d="M16.9585 32.206C18.1813 33.1405 19.2925 34.0995 20.4182 35.1478C21.282 35.9523 22.1958 36.8447 23.1376 37.5621L21.791 37.6942C21.2188 37.7552 20.6471 37.8203 20.0759 37.8895C20.0831 37.8161 19.9715 37.5878 19.9365 37.507L19.9462 37.5018C18.9771 35.6944 18.784 34.3356 17.1103 32.9441C17.1093 33.0861 17.1142 33.2646 17.0904 33.4007C17.0884 32.9326 17.078 32.6737 16.9585 32.206Z" fill="#F4A261"/>
<path id="Vector_27" d="M26.8716 37.5666C27.022 37.4192 27.2919 37.2184 27.4635 37.078C27.7239 36.8613 27.9785 36.6374 28.2269 36.4069C29.784 34.9733 31.3481 33.4767 33.0463 32.2141C32.9741 32.4725 32.9461 32.701 32.9018 32.964C32.8827 33.5942 32.9387 33.9243 33.1384 34.5401C33.465 35.5489 34.5892 36.8687 33.6317 37.8412C33.3463 38.1311 32.8512 38.2255 32.4622 38.196C31.6011 38.1305 30.7184 37.9867 29.8586 37.8803C29.3191 37.8139 28.779 37.7519 28.2385 37.6944C27.7832 37.649 27.3275 37.6064 26.8716 37.5666Z" fill="#EFB366"/>
<path id="Vector_28" d="M26.8716 37.5666C27.022 37.4192 27.2919 37.2184 27.4635 37.078C27.7239 36.8613 27.9785 36.6374 28.2269 36.4069C29.784 34.9733 31.3481 33.4767 33.0463 32.2141C32.9741 32.4725 32.9461 32.701 32.9018 32.964C32.816 32.9885 32.7555 33.0542 32.6892 33.1163C30.9173 34.8321 30.1822 37.3726 29.8586 37.8803C29.3191 37.8139 28.779 37.7519 28.2385 37.6944C27.7832 37.649 27.3275 37.6064 26.8716 37.5666Z" fill="#F4A261"/>
</g>
<path id="Union" d="M24.6909 8.37695C25.9067 8.34151 26.9471 8.54493 27.981 9.05273C29.9875 8.8564 31.8752 9.51154 33.3403 10.8467C33.4523 10.8687 33.565 10.8928 33.6772 10.9209H33.6763C35.3301 11.3334 36.7698 12.3523 37.7085 13.7754L37.811 13.9404C39.5378 14.8217 40.6294 16.3174 41.103 18.082C41.1244 18.1055 41.1478 18.129 41.1694 18.1533L41.4146 18.4463L41.4224 18.457L41.5376 18.6074L41.5493 18.624H41.5503C42.4236 19.8093 42.8755 21.2541 42.8306 22.7266C42.8246 22.921 42.8063 23.1055 42.7886 23.2734C43.145 24.2369 43.2552 25.1739 43.1694 26.2256C42.9436 28.9913 41.1465 30.5254 39.6929 31.4756C39.0183 31.9165 38.1828 32.3756 37.6382 32.6982C37.1778 32.971 36.8026 33.2131 36.4937 33.4531C36.5503 33.71 36.6625 34.0287 36.8247 34.4502C37.1873 35.3926 37.3848 36.444 37.3257 37.4551C37.2736 38.3437 36.9927 39.5618 36.0396 40.4678L35.8394 40.6445C34.5144 41.7367 32.7912 41.6636 31.9126 41.5918C30.9886 41.5163 29.6578 41.2681 29.0806 41.1904C29.0771 41.1899 29.0733 41.188 29.0698 41.1875C28.5149 41.1124 27.958 41.0482 27.3999 40.9922C26.8037 41.2424 26.2215 41.4018 25.4155 41.4873C25.3537 41.4938 25.295 41.4962 25.2446 41.498C24.597 41.5219 23.9755 41.4827 23.3276 41.3135C23.0058 41.2294 22.7101 41.1206 22.4341 41.002L20.7515 41.1934C20.4969 41.224 20.231 41.2762 19.7505 41.3564C19.3263 41.4272 18.7906 41.5077 18.2261 41.54C17.158 41.6012 15.5053 41.519 14.1323 40.3457C14.0536 40.2784 13.9786 40.2065 13.9097 40.1309C13.3949 39.566 12.9981 38.897 12.813 38.1074C12.6321 37.3354 12.6981 36.6317 12.8159 36.0693C12.9275 35.5371 13.1123 35.0192 13.2544 34.625C13.3811 34.2736 13.4923 33.9605 13.6011 33.627C13.5521 33.5961 13.5002 33.5637 13.4448 33.5342C13.4359 33.5294 13.4281 33.5251 13.4233 33.5225L13.4292 33.5264L13.4136 33.5176L13.4204 33.5205L13.4165 33.5186C13.4155 33.518 13.414 33.5178 13.4136 33.5176C12.4288 32.9828 11.2545 32.2837 10.2026 31.502C9.22253 30.7735 8.03513 29.7484 7.39502 28.5039C7.35501 28.4261 7.31659 28.3445 7.28369 28.2588C6.77495 26.9327 6.64271 25.3577 7.01025 23.9092L7.01416 23.8936C7.07291 23.6673 7.14771 23.4583 7.21826 23.2725C7.13734 22.3382 7.2133 21.4007 7.521 20.4785C7.82311 19.5735 8.31085 18.7899 8.92041 18.0996C9.3885 16.3641 10.4889 14.8183 12.2231 13.9395C12.7146 13.138 13.34 12.4523 14.1245 11.917C14.9051 11.3846 15.7558 11.0585 16.6255 10.8691C16.9468 10.5738 17.2987 10.3014 17.6411 10.0908C19.0767 9.20796 20.5197 8.90313 22.0376 9.05469C22.8115 8.66993 23.5891 8.45952 24.5737 8.38379L24.5981 8.38184L24.6724 8.37891C24.6784 8.3786 24.6849 8.37715 24.6909 8.37695ZM31.9878 40.6768C31.8748 40.6675 31.757 40.6562 31.6362 40.6426C31.757 40.6562 31.8748 40.6675 31.9878 40.6768C32.0973 40.6857 32.2149 40.6943 32.3384 40.7002C32.2148 40.6943 32.0974 40.6857 31.9878 40.6768ZM17.4263 40.6299L17.7866 40.6367C17.6647 40.6377 17.5391 40.6341 17.4106 40.6279C17.4159 40.6282 17.421 40.6296 17.4263 40.6299ZM18.9224 40.5527C18.6825 40.5838 18.4299 40.6093 18.1733 40.624C18.4298 40.6093 18.6825 40.5838 18.9224 40.5527ZM24.397 40.5645C24.5237 40.5751 24.6515 40.5835 24.7817 40.5859V40.585C24.6515 40.5825 24.5236 40.575 24.397 40.5645ZM16.6069 40.5322C16.6278 40.5364 16.6486 40.5411 16.6694 40.5449C16.6486 40.5411 16.6278 40.5364 16.6069 40.5322ZM16.4263 40.4932C16.4406 40.4966 16.4549 40.4997 16.4692 40.5029C16.4549 40.4997 16.4406 40.4966 16.4263 40.4932ZM23.8296 40.4854C23.8514 40.4897 23.8732 40.494 23.895 40.498C23.8732 40.494 23.8514 40.4897 23.8296 40.4854ZM15.8481 40.3135C15.8767 40.3246 15.9054 40.3353 15.9341 40.3457C15.9054 40.3352 15.8767 40.3246 15.8481 40.3135ZM15.6392 40.2246C15.6753 40.2411 15.7113 40.2572 15.7476 40.2725C15.7113 40.2572 15.6753 40.2411 15.6392 40.2246ZM21.5659 40.1777C21.8999 40.1415 22.2487 40.1036 22.5806 40.0625C22.6456 40.093 22.7116 40.1217 22.7778 40.1504C22.7115 40.1216 22.6457 40.0921 22.5806 40.0615C22.2487 40.1026 21.8998 40.1413 21.5659 40.1777ZM15.4321 40.123C15.4652 40.1405 15.4984 40.1574 15.5317 40.1738C15.4984 40.1574 15.4652 40.1405 15.4321 40.123ZM15.2134 39.998C15.2517 40.0216 15.29 40.0445 15.3286 40.0664C15.29 40.0445 15.2517 40.0216 15.2134 39.998ZM15.021 39.8711C15.0559 39.8956 15.0902 39.9203 15.1255 39.9434C15.0902 39.9203 15.0559 39.8956 15.021 39.8711ZM35.3442 39.8555C35.3615 39.84 35.3793 39.8253 35.396 39.8096C35.3793 39.8253 35.3615 39.84 35.3442 39.8555ZM35.4419 39.7637C35.4693 39.7366 35.497 39.7104 35.5229 39.6826C35.497 39.7104 35.4693 39.7366 35.4419 39.7637ZM14.5894 39.5117V39.5127V39.5117ZM35.5835 39.6143C35.6041 39.5907 35.6243 39.567 35.644 39.543C35.6243 39.567 35.6041 39.5907 35.5835 39.6143ZM35.689 39.4873C35.714 39.4552 35.7378 39.4225 35.7612 39.3896C35.7378 39.4225 35.714 39.4552 35.689 39.4873ZM35.8022 39.333C35.8193 39.308 35.8349 39.2822 35.8511 39.2568C35.8349 39.2822 35.8193 39.308 35.8022 39.333ZM35.8999 39.1777C35.9069 39.1659 35.9145 39.1545 35.9214 39.1426C35.9145 39.1545 35.9069 39.1659 35.8999 39.1777ZM32.6079 39.1416C32.6344 39.142 32.6608 39.1435 32.687 39.1436C32.6608 39.1435 32.6344 39.142 32.6079 39.1416ZM31.9028 39.0977C31.9628 39.1038 32.0223 39.1102 32.0815 39.1152C32.0223 39.1102 31.9628 39.1038 31.9028 39.0977ZM33.5581 39.0566C33.5097 39.0682 33.4602 39.0779 33.4097 39.0869C33.4602 39.0779 33.5097 39.0682 33.5581 39.0566ZM26.5122 38.6777C26.2276 38.8016 25.9718 38.8852 25.6646 38.9453C25.5107 38.9754 25.3437 38.9994 25.1538 39.0195H25.1548C25.5339 38.9793 25.8213 38.924 26.0972 38.8359C26.235 38.792 26.3699 38.7396 26.5122 38.6777ZM34.1665 38.8018C34.1222 38.8322 34.0751 38.8589 34.0269 38.8848C34.0203 38.8883 34.0139 38.8921 34.0073 38.8955C33.9608 38.9196 33.9127 38.9417 33.8628 38.9619C33.8582 38.9638 33.8537 38.9659 33.8491 38.9678C33.8106 38.983 33.7713 38.9977 33.731 39.0107C33.8911 38.959 34.0375 38.8904 34.1665 38.8018ZM19.2544 38.9219C19.1644 38.9366 19.0729 38.9491 18.981 38.9629C19.0729 38.9491 19.1643 38.9366 19.2544 38.9219ZM36.1646 38.6191C36.1697 38.6051 36.1752 38.5912 36.1802 38.5771C36.1752 38.5912 36.1697 38.6051 36.1646 38.6191ZM15.7437 38.46H15.7446L15.7437 38.459V38.46ZM13.6675 37.6992C13.6786 37.7647 13.691 37.8309 13.7065 37.8975H13.7075C13.6919 37.8309 13.6786 37.7648 13.6675 37.6992ZM36.2544 38.3369C36.2715 38.276 36.2863 38.215 36.3003 38.1543C36.2863 38.215 36.2715 38.276 36.2544 38.3369ZM13.6206 37.2422C13.6248 37.3698 13.6369 37.5001 13.6567 37.6328C13.6369 37.5001 13.6248 37.3697 13.6206 37.2422ZM36.4136 37.2715C36.4155 37.2124 36.4175 37.1532 36.4175 37.0938C36.4175 37.1532 36.4155 37.2124 36.4136 37.2715ZM36.4165 37.0039C36.4152 36.928 36.4121 36.8518 36.4077 36.7754C36.4121 36.8518 36.4152 36.928 36.4165 37.0039ZM13.6284 36.8672C13.6257 36.9066 13.624 36.9463 13.6226 36.9863C13.6241 36.9463 13.6257 36.9066 13.6284 36.8672ZM36.4009 36.6748C36.3951 36.5971 36.3883 36.5193 36.3794 36.4414C36.3883 36.5193 36.3951 36.5971 36.4009 36.6748ZM36.3677 36.3477C36.359 36.2803 36.3493 36.2129 36.3384 36.1455C36.3493 36.2129 36.359 36.2803 36.3677 36.3477ZM14.563 33.6436C14.4928 33.8747 14.4196 34.0909 14.3452 34.3027C14.2708 34.5148 14.1946 34.7223 14.1177 34.9355L14.1187 34.9365C14.2724 34.51 14.4234 34.1061 14.564 33.6436L14.5972 33.5439L14.563 33.6436ZM36.3198 36.0371C36.305 35.9545 36.288 35.8723 36.27 35.79C36.288 35.8723 36.305 35.9545 36.3198 36.0371ZM36.2583 35.7334C36.2405 35.6552 36.2203 35.5776 36.1997 35.5C36.2203 35.5776 36.2405 35.6552 36.2583 35.7334ZM35.9692 34.7803H35.9683C36.0461 34.9825 36.1144 35.1898 36.1733 35.3994C36.145 35.2986 36.1154 35.198 36.0825 35.0986L35.9692 34.7803ZM34.0347 33.8076C34.0357 33.8132 34.0375 33.8186 34.0386 33.8242C34.0336 33.7976 34.0293 33.7708 34.0249 33.7441C34.0284 33.7652 34.0308 33.7865 34.0347 33.8076ZM14.1206 32.8672C14.1994 32.9182 14.2748 32.972 14.3442 33.0273C14.4852 33.1398 14.5762 33.2391 14.6274 33.3135C14.6475 33.3426 14.6578 33.3641 14.6636 33.377H14.6646C14.6588 33.3642 14.6479 33.3432 14.6274 33.3135C14.5762 33.2391 14.4853 33.1399 14.3442 33.0273C14.2748 32.9719 14.1995 32.918 14.1206 32.8672ZM33.978 33.3379C33.9782 33.3408 33.9798 33.3437 33.98 33.3467C33.9785 33.3186 33.9787 33.2906 33.978 33.2627C33.9786 33.2877 33.9768 33.3128 33.978 33.3379ZM33.981 33.0469C33.9789 33.0819 33.9767 33.117 33.9761 33.1523C33.9767 33.117 33.9789 33.0819 33.981 33.0469ZM34.0337 32.6797C34.0324 32.6851 34.032 32.6908 34.0308 32.6963C34.0352 32.6776 34.0404 32.6591 34.0454 32.6406C34.0419 32.6537 34.0369 32.6665 34.0337 32.6797ZM34.1792 32.2979C34.1734 32.3086 34.1672 32.3192 34.1616 32.3301C34.1672 32.3192 34.1734 32.3086 34.1792 32.2979ZM40.1392 30.0127C40.1504 30.0034 40.1612 29.9937 40.1724 29.9844C40.1612 29.9937 40.1504 30.0034 40.1392 30.0127ZM40.3403 29.8389C40.3675 29.8147 40.3954 29.7912 40.4224 29.7666C40.3954 29.7912 40.3675 29.8147 40.3403 29.8389ZM40.5942 29.6035C40.6128 29.5854 40.6315 29.5672 40.6499 29.5488C40.6315 29.5672 40.6128 29.5854 40.5942 29.6035ZM40.7974 29.3945C40.8265 29.3635 40.8557 29.3325 40.8843 29.3008C40.8557 29.3325 40.8265 29.3635 40.7974 29.3945ZM40.9995 29.1699C41.0355 29.1276 41.0709 29.0846 41.106 29.041C41.0709 29.0846 41.0355 29.1276 40.9995 29.1699ZM8.43506 28.4707C8.53913 28.6318 8.65536 28.7885 8.77881 28.9424C8.65541 28.7885 8.5391 28.6318 8.43506 28.4707ZM41.2261 28.8867C41.2508 28.8537 41.2743 28.8198 41.2983 28.7861C41.2743 28.8198 41.2508 28.8537 41.2261 28.8867ZM41.4126 28.6221C41.4453 28.5724 41.477 28.5219 41.5083 28.4707C41.477 28.5219 41.4453 28.5724 41.4126 28.6221ZM41.5923 28.3281C41.6221 28.2757 41.65 28.222 41.6782 28.168C41.65 28.222 41.6221 28.2757 41.5923 28.3281ZM7.84521 24.3721C7.7627 24.7679 7.72179 25.1741 7.71924 25.5801C7.71873 25.6615 7.71961 25.7429 7.72217 25.8242C7.74513 26.5543 7.89067 27.2768 8.14111 27.9297C8.16127 27.9822 8.18476 28.034 8.21045 28.084C8.22198 28.1064 8.23557 28.1281 8.24756 28.1504C8.23566 28.1282 8.22288 28.1062 8.21143 28.084C8.18567 28.0339 8.16229 27.9823 8.14209 27.9297C7.69673 26.7688 7.58205 25.3885 7.8999 24.1357L7.84521 24.3721ZM41.7524 28.0225C41.7841 27.9569 41.8141 27.8901 41.8433 27.8223C41.8141 27.8901 41.7841 27.9569 41.7524 28.0225ZM41.8989 27.6904C41.9213 27.6341 41.9408 27.5764 41.9614 27.5186C41.9408 27.5764 41.9213 27.6341 41.8989 27.6904ZM40.6821 26.1729C40.6793 26.1971 40.6737 26.2212 40.6704 26.2451C40.6698 26.25 40.6701 26.2549 40.6694 26.2598C40.6734 26.231 40.6797 26.202 40.6831 26.1729H40.6821ZM8.10693 22.3955C8.09657 22.7268 8.11221 23.062 8.15088 23.4004C8.10669 23.5079 8.0616 23.6238 8.01904 23.7461C8.06187 23.6238 8.10761 23.508 8.15186 23.4004C8.10027 22.9491 8.08906 22.504 8.12646 22.0654L8.10693 22.3955ZM40.2964 23.2568C40.2803 23.3762 40.2619 23.4964 40.2437 23.6211C40.2619 23.4964 40.2804 23.3762 40.2964 23.2568ZM8.78369 19.8701C8.62784 20.1558 8.49605 20.4551 8.39111 20.7695C8.35565 20.8758 8.32399 20.9827 8.29541 21.0898L8.39209 20.7695C8.49701 20.4552 8.62787 20.1557 8.78369 19.8701ZM39.7456 20.3799C39.8053 20.4769 39.8604 20.5765 39.9116 20.6777C39.8604 20.5765 39.8053 20.477 39.7456 20.3799ZM38.8325 19.3105C38.8169 19.2073 38.7986 19.1057 38.7778 19.0059C38.7986 19.1057 38.8169 19.2073 38.8325 19.3105C38.9018 19.3759 38.9679 19.4381 39.0308 19.5C38.968 19.4381 38.9018 19.3758 38.8325 19.3105ZM9.12744 19.3174H9.12646H9.12744ZM40.2729 18.5381C40.4112 18.6813 40.5514 18.8354 40.6929 19.0146V19.0137C40.5517 18.8349 40.4119 18.6811 40.2739 18.5381H40.2729ZM37.9536 17.1797H37.9546H37.9536ZM13.7026 15.9893C13.6701 16.002 13.6389 16.0178 13.6069 16.0312C13.6385 16.0179 13.6695 16.0028 13.7017 15.9902L13.8198 15.9492C13.7808 15.9632 13.7409 15.9743 13.7026 15.9893ZM35.9546 13.1387C36.0578 13.231 36.1587 13.3261 36.2554 13.4258C36.1587 13.3261 36.0578 13.2311 35.9546 13.1387ZM14.6421 12.6758C14.734 12.6131 14.8269 12.5525 14.9214 12.4961C14.8269 12.5524 14.7339 12.6122 14.6421 12.6748C14.5499 12.7377 14.4599 12.8033 14.3726 12.8711C14.4599 12.8033 14.55 12.7386 14.6421 12.6758ZM33.4546 11.8125C33.9016 11.924 34.3306 12.0864 34.7339 12.2949C34.3304 12.0862 33.9009 11.9231 33.4536 11.8115L33.4546 11.8125ZM18.9409 12.2031L18.8784 12.2441L18.9409 12.2041C19.0089 12.1623 19.0764 12.1219 19.144 12.084C19.0766 12.1218 19.0088 12.1614 18.9409 12.2031ZM17.3413 11.459C17.2929 11.5018 17.2459 11.5465 17.1987 11.5908C17.2459 11.5465 17.2928 11.5018 17.3413 11.459ZM17.605 11.2393C17.5381 11.2924 17.4716 11.3476 17.4058 11.4043C17.4716 11.3476 17.538 11.2923 17.605 11.2393ZM17.8716 11.0381C17.7925 11.0937 17.7135 11.1537 17.6343 11.2158C17.7981 11.0876 17.9631 10.9711 18.1226 10.873L17.8716 11.0381ZM26.1187 10.9873C26.1262 10.9892 26.1336 10.9922 26.1411 10.9941C26.1336 10.9922 26.1262 10.9892 26.1187 10.9873ZM25.355 10.8701C25.4023 10.8734 25.4493 10.8753 25.4956 10.8799C25.4493 10.8753 25.4023 10.8734 25.355 10.8701ZM24.7173 9.2959L24.6431 9.2998C24.1549 9.33737 23.7327 9.40996 23.3394 9.52441C23.2411 9.55303 23.1446 9.58423 23.0493 9.61816C22.7637 9.71986 22.4893 9.84593 22.2104 9.99902C22.9548 9.59035 23.6676 9.37487 24.644 9.2998L24.7183 9.2959C24.8624 9.2917 25.0032 9.29168 25.1411 9.29492C25.003 9.29165 24.8617 9.29168 24.7173 9.2959ZM27.3882 9.78711C27.2939 9.74479 27.1999 9.70456 27.105 9.66797C27.1999 9.70455 27.2939 9.74479 27.3882 9.78711ZM26.9644 9.61816C26.9 9.59531 26.8359 9.57208 26.771 9.55176C26.836 9.57206 26.8999 9.59532 26.9644 9.61816ZM26.5991 9.50195C26.5392 9.48537 26.4791 9.46961 26.4185 9.45508C26.4791 9.46959 26.5392 9.48539 26.5991 9.50195ZM26.2476 9.41699C26.1849 9.40407 26.1217 9.39267 26.0581 9.38184C26.1217 9.39265 26.1849 9.40409 26.2476 9.41699ZM25.8696 9.35254C25.8115 9.3446 25.7529 9.33833 25.6938 9.33203C25.7529 9.33831 25.8115 9.34462 25.8696 9.35254ZM25.5112 9.31348C25.4036 9.30514 25.2943 9.29917 25.1831 9.2959C25.2943 9.29915 25.4036 9.30517 25.5112 9.31348Z" fill="white" fill-opacity="0.3"/>
</g>
</g>
</g>
</svg>
