<svg width="50" height="50" viewBox="0 0 50 50" fill="none" xmlns="http://www.w3.org/2000/svg">
<rect width="50" height="50" fill="#BEBEBE"/>
<g id="Decorate Mode">
<path d="M-296.703 -1290.72V-1289.72H2723.3V-1290.72V-1291.72H-296.703V-1290.72ZM2725.3 -1288.72H2724.3V2249.28H2725.3H2726.3V-1288.72H2725.3ZM2723.3 2251.28V2250.28H-296.703V2251.28V2252.28H2723.3V2251.28ZM-298.703 2249.28H-297.703V-1288.72H-298.703H-299.703V2249.28H-298.703ZM-296.703 2251.28V2250.28C-297.255 2250.28 -297.703 2249.83 -297.703 2249.28H-298.703H-299.703C-299.703 2250.94 -298.36 2252.28 -296.703 2252.28V2251.28ZM2725.3 2249.28H2724.3C2724.3 2249.83 2723.85 2250.28 2723.3 2250.28V2251.28V2252.28C2724.95 2252.28 2726.3 2250.94 2726.3 2249.28H2725.3ZM2723.3 -1290.72V-1289.72C2723.85 -1289.72 2724.3 -1289.27 2724.3 -1288.72H2725.3H2726.3C2726.3 -1290.38 2724.95 -1291.72 2723.3 -1291.72V-1290.72ZM-296.703 -1290.72V-1291.72C-298.359 -1291.72 -299.703 -1290.38 -299.703 -1288.72H-298.703H-297.703C-297.703 -1289.27 -297.255 -1289.72 -296.703 -1289.72V-1290.72Z" fill="black" fill-opacity="0.1"/>
<g id="Stickers">
<rect x="-244.694" y="-418.219" width="374" height="551" rx="4.5" stroke="#9747FF" stroke-dasharray="10 5"/>
<g id="Property 1=yellow heart">
<g id="Frame 208">
<path id="Vector" d="M25.036 14.3886C26.8336 11.8728 29.3831 10.3217 32.5284 10.3042C34.9459 10.3142 37.2603 11.2832 38.9637 12.9983C40.7222 14.7492 41.7156 17.1254 41.7264 19.6069C41.7305 21.8146 40.9239 24.0807 39.4717 25.741C38.4981 26.8542 37.3316 27.947 36.2799 28.9966L31.2164 34.0305L27.4239 37.7839L26.1788 39.0259C25.8482 39.3501 25.5604 39.7498 25.0826 39.783C24.463 39.8259 23.9812 39.177 23.5811 38.7742L22.3247 37.5171L18.088 33.2983L13.6572 28.8987L11.9969 27.2483C11.1862 26.4368 10.5463 25.7917 9.90444 24.844C7.48217 21.268 7.8884 16.5902 10.7537 13.3923C12.4741 11.4721 14.5659 10.4659 17.1368 10.3132C20.37 10.1234 23.1997 11.8138 25.036 14.3886Z" fill="#020101"/>
<path id="Vector (Stroke)" d="M17.0454 8.75331C20.2051 8.56783 22.9853 9.88794 25.0325 11.9625C26.9719 9.98076 29.5064 8.75839 32.5203 8.74171H32.5349C35.3635 8.75337 38.0721 9.88597 40.0666 11.8911L40.2559 12.0846C42.1265 14.0415 43.2057 16.6228 43.2844 19.3289L43.2893 19.5999V19.6041C43.2939 22.091 42.4201 24.6445 40.8064 26.5841L40.6483 26.7697C39.6281 27.9362 38.3849 29.1035 37.3835 30.1028L37.3817 30.1046L32.3182 35.1388L32.3158 35.1412L28.5231 38.8943L27.2822 40.1321C27.2792 40.1351 27.2761 40.1382 27.2731 40.1412C27.256 40.158 26.9116 40.5259 26.6884 40.7125C26.3745 40.9749 25.8787 41.294 25.1912 41.3418C24.28 41.405 23.6082 40.946 23.2478 40.6448C22.934 40.3825 22.5337 39.9366 22.4727 39.8751L21.2227 38.6245L16.9856 34.4058L12.5563 30.0076L12.5557 30.007L10.8955 28.3566L10.8918 28.3523C10.0842 27.5437 9.34564 26.8047 8.61096 25.7199C5.77198 21.5283 6.26417 16.0614 9.58996 12.3495C11.5861 10.1216 14.0635 8.9304 17.0442 8.75331H17.0454ZM25.0361 14.3887C23.1999 11.8139 20.3702 10.1236 17.137 10.3134C14.5662 10.4661 12.4743 11.4719 10.7539 13.392C7.88859 16.5899 7.48264 21.268 9.9049 24.844C10.5467 25.7917 11.1866 26.4367 11.9972 27.2482L18.0885 33.2986L22.3249 37.5173L23.5811 38.7741C23.9812 39.1769 24.4635 39.8259 25.0831 39.783L25.1704 39.7726C25.483 39.7194 25.7127 39.5061 25.9352 39.2764L26.1793 39.0261L27.4244 37.7841L31.2165 34.0304L36.28 28.9968C37.2003 28.0784 38.2087 27.1268 39.0986 26.1575L39.4722 25.7412C40.8789 24.1329 41.6794 21.9557 41.7244 19.8141L41.7268 19.6072C41.7161 17.1257 40.7223 14.7492 38.9637 12.9983C37.2604 11.2833 34.9462 10.3142 32.5288 10.3042C29.3835 10.3216 26.8337 11.8729 25.0361 14.3887Z" fill="#E8E7E7"/>
<path id="Vector (Stroke) (Stroke)" d="M43.2848 19.3283C43.2109 16.7914 42.257 14.3644 40.5967 12.4585L40.2559 12.0842L40.0669 11.8917C38.0724 9.88652 35.3633 8.75362 32.5346 8.74196H32.5203C29.5064 8.75864 26.9717 9.9805 25.0323 11.9622C23.113 10.0173 20.5493 8.73562 17.6327 8.73598L17.0456 8.75272C14.0649 8.92981 11.586 10.1217 9.58981 12.3497L9.28608 12.7024C6.23639 16.4017 5.8604 21.6593 8.61046 25.7198C9.3451 26.8046 10.0844 27.5432 10.892 28.3517L10.8956 28.3565L12.5554 30.0067L12.5566 30.0079L16.9858 34.406L21.2225 38.6248L22.4721 39.8756C22.5332 39.9371 22.9344 40.3822 23.2481 40.6445C23.586 40.9268 24.1971 41.348 25.0227 41.3476L25.1913 41.3416C25.7067 41.3058 26.1142 41.1173 26.4182 40.9147L26.6884 40.7126C26.8 40.6194 26.9418 40.4808 27.0579 40.3635L27.2732 40.141L27.2827 40.1327L28.5228 38.8938L32.3158 35.1414L32.3182 35.139L37.3812 30.1048L37.3836 30.1024C38.2596 29.2282 39.321 28.2257 40.2559 27.2074L40.6481 26.7697L40.8059 26.5844C42.4196 24.6449 43.2941 22.0913 43.2896 19.6045V19.5997L43.2848 19.3283ZM17.1364 10.3132C20.3696 10.1234 23.1996 11.8139 25.0358 14.3885C26.8334 11.8727 29.3834 10.3211 32.5287 10.3037C34.9458 10.3137 37.2599 11.283 38.9632 12.9978C40.7217 14.7486 41.7159 17.1255 41.7267 19.6069L41.7243 19.8138C41.6794 21.9553 40.8793 24.133 39.4726 25.7413L39.0983 26.1575C38.2085 27.1267 37.2001 28.078 36.2799 28.9963L31.2169 34.0306L27.4238 37.7841L26.179 39.0266L25.9351 39.2765C25.7126 39.5062 25.4824 39.7196 25.1698 39.7727L25.0825 39.7835H24.9689C24.4037 39.7464 23.9558 39.152 23.5806 38.7743L22.325 37.5175L18.0883 33.2987L11.9969 27.248C11.2878 26.5381 10.7093 25.9557 10.1459 25.1865L9.90431 24.8445C7.55772 21.3802 7.86609 16.8813 10.4926 13.6961L10.7533 13.3924C12.4736 11.4724 14.5659 10.466 17.1364 10.3132ZM24.2885 14.9218C22.5961 12.5487 20.0456 11.0616 17.1903 11.2292L17.1915 11.2304C14.8615 11.3688 12.9956 12.2656 11.4373 14.0046C8.84293 16.9003 8.4877 21.1149 10.6648 24.3291C11.2521 25.1962 11.8351 25.7855 12.6475 26.5987L18.7352 32.647L18.7364 32.6482L22.9731 36.867L24.2311 38.1249L24.2323 38.1273C24.3391 38.2349 24.4751 38.3825 24.5623 38.4741C24.6661 38.5831 24.7551 38.6711 24.8385 38.7408C24.9404 38.8259 24.9988 38.8538 25.0227 38.8627C25.0296 38.8589 25.0395 38.8529 25.0526 38.8436C25.1041 38.8069 25.1687 38.7477 25.275 38.6379L25.2774 38.6355L25.5213 38.3844L25.5309 38.3761L26.7781 37.1312L30.57 33.3776L35.6329 28.3458C36.5783 27.4025 37.55 26.4861 38.4215 25.5368L38.7803 25.1363C40.0369 23.6996 40.7653 21.7332 40.8059 19.7947L40.8083 19.6117L40.7964 19.1932C40.6842 17.1074 39.8035 15.1304 38.3163 13.6495L38.3115 13.6459C36.7805 12.1044 34.7013 11.232 32.5287 11.222C29.7249 11.2392 27.436 12.6098 25.7832 14.923C25.6108 15.1642 25.3323 15.3069 25.0358 15.3069C24.7392 15.3067 24.4607 15.1634 24.2885 14.9218ZM44.208 19.6021L44.1972 20.108C44.0913 22.6376 43.1602 25.1912 41.5126 27.1715L41.5055 27.1799L41.3476 27.3652L41.3393 27.3748C40.2918 28.5724 39.0039 29.7827 38.0317 30.7529L38.0305 30.7541L38.0293 30.7565L32.9663 35.7872L32.9675 35.7884L32.9615 35.7943L29.1709 39.5431L29.1721 39.5443L27.9309 40.782L27.9285 40.7844C27.9295 40.7833 27.9268 40.7867 27.9165 40.7975C27.9051 40.8094 27.8887 40.8269 27.8687 40.8478C27.8285 40.8896 27.7731 40.9462 27.7108 41.0092C27.5931 41.1282 27.4244 41.2935 27.2768 41.417C26.9303 41.7065 26.371 42.0832 25.5991 42.2169L25.2547 42.2576C23.9892 42.3453 23.084 41.7055 22.6586 41.35C22.3158 41.0635 21.852 40.556 21.8228 40.5237L20.5743 39.2753L16.3389 35.0577L11.9096 30.6596L11.9085 30.6584L10.2475 29.0082C10.2453 29.006 10.2437 29.0033 10.2415 29.0011C9.43536 28.194 8.63895 27.4003 7.84994 26.2352C4.76573 21.6815 5.30957 15.75 8.90582 11.7362C11.064 9.32757 13.768 8.02821 16.9894 7.83675C17.0075 7.83567 17.0262 7.83436 17.0444 7.83436C20.1551 7.66698 22.9098 8.83673 25.0287 10.7019C27.033 8.92549 29.5643 7.83993 32.5155 7.82359H32.5382C35.418 7.83546 38.1834 8.91713 40.3025 10.8466L40.7174 11.2436L40.7234 11.2495L40.9124 11.4421L40.9195 11.4504C42.947 13.5715 44.1166 16.369 44.202 19.302L44.2032 19.3128L44.208 19.583V19.6021Z" fill="#020101"/>
<path id="Vector_2" d="M24.5608 16.1672C24.7713 16.5641 25.2941 16.5696 25.504 16.1725C25.9295 15.3644 26.4696 14.6221 27.1075 13.9685C28.5492 12.51 30.4322 11.6651 32.4947 11.6605C34.5313 11.6649 36.4823 12.4816 37.9146 13.9295C39.463 15.4658 40.3394 17.553 40.3521 19.7342C40.3497 20.4415 40.2286 21.1818 40.0396 21.8595C39.5128 23.7487 38.599 24.7798 37.2618 26.1069L35.6937 27.6565L31.8289 31.5044L25.0247 38.2195L16.3076 29.561L13.3958 26.6807C12.5979 25.886 11.6917 25.0503 11.067 24.1221C10.3089 22.9927 9.84746 21.6905 9.72514 20.3357C9.55529 18.2051 10.2412 16.0946 11.6312 14.4709C13.0128 12.8338 14.8425 11.8541 16.9845 11.68C17.8242 11.5683 19.0606 11.7739 19.8485 12.0362C21.8626 12.7068 23.4074 14.1609 24.4559 15.9774C24.4932 16.0422 24.528 16.1052 24.5608 16.1672Z" fill="#E9C46A"/>
</g>
<path id="Union" d="M17.0439 7.83472C20.1546 7.66734 22.9095 8.83686 25.0283 10.7019C27.0326 8.92553 29.5644 7.84031 32.5156 7.82397H32.5381C35.4178 7.83584 38.1836 8.91701 40.3027 10.8464L40.7178 11.2439L40.7236 11.2498L40.9121 11.4421L40.9199 11.45C42.9473 13.5709 44.1166 16.3687 44.2021 19.3015L44.2031 19.3132L44.208 19.5828V19.6023L44.1973 20.1082C44.0913 22.6377 43.1602 25.1913 41.5127 27.1716L41.5059 27.1794L41.3477 27.365L41.3389 27.3748C40.2914 28.5724 39.0034 29.7825 38.0312 30.7527L38.0303 30.7537L38.0293 30.7566L32.9668 35.7869L32.9678 35.7888L32.9619 35.7947L29.1709 39.5427L29.1719 39.5447L27.9307 40.782L27.9287 40.7839C27.9288 40.784 27.9251 40.7881 27.916 40.7976C27.9047 40.8094 27.8888 40.8269 27.8691 40.8474C27.829 40.8892 27.7733 40.9465 27.7109 41.0095C27.5932 41.1285 27.424 41.2934 27.2764 41.4167C26.9299 41.7062 26.3705 42.0828 25.5986 42.2166L25.2549 42.2576C23.9894 42.3453 23.0836 41.7058 22.6582 41.3503C22.3171 41.0652 21.8566 40.5609 21.8232 40.5242L20.5742 39.2751L16.3389 35.0574L11.9092 30.6599L11.9082 30.658L10.2471 29.0085C10.2449 29.0064 10.2434 29.0029 10.2412 29.0007C9.43516 28.1938 8.63852 27.4 7.84961 26.2351C4.76555 21.6815 5.31005 15.7498 8.90625 11.7361C11.0644 9.32765 13.768 8.02814 16.9893 7.83667C17.0072 7.8356 17.0259 7.83474 17.0439 7.83472ZM25.1914 41.3416C25.2643 41.3365 25.3348 41.3269 25.4033 41.3162C25.3347 41.3269 25.2643 41.3365 25.1914 41.3416ZM24.4326 41.2742C24.5026 41.2917 24.575 41.3055 24.6494 41.3171C24.575 41.3055 24.5026 41.2917 24.4326 41.2742ZM25.5068 41.2966C25.5413 41.2897 25.5751 41.2824 25.6084 41.2742C25.5751 41.2824 25.5413 41.2897 25.5068 41.2966ZM25.707 41.2478C25.7585 41.2328 25.8089 41.2176 25.8574 41.2C25.8089 41.2176 25.7585 41.2328 25.707 41.2478ZM24.0811 41.155C24.1296 41.175 24.179 41.1951 24.2305 41.2126C24.179 41.1951 24.1297 41.175 24.0811 41.155ZM25.9102 41.1794C25.9638 41.1586 26.0155 41.1364 26.0654 41.113C26.0155 41.1364 25.9638 41.1586 25.9102 41.1794ZM23.8496 41.0486C23.8935 41.0715 23.9385 41.0946 23.9854 41.116C23.9385 41.0946 23.8936 41.0715 23.8496 41.0486ZM26.1016 41.0955C26.1474 41.0731 26.1917 41.05 26.2344 41.0261C26.1917 41.05 26.1474 41.0731 26.1016 41.0955ZM26.2725 41.0046C26.3114 40.982 26.3487 40.9587 26.3848 40.9353C26.3487 40.9587 26.3114 40.982 26.2725 41.0046ZM23.6445 40.9314C23.6811 40.9543 23.7186 40.9775 23.7578 40.9998C23.7186 40.9775 23.6811 40.9542 23.6445 40.9314ZM23.4648 40.8113C23.4963 40.8339 23.5283 40.8578 23.5625 40.8806C23.5283 40.8578 23.4963 40.8339 23.4648 40.8113ZM27.2822 40.1326C27.2793 40.1355 27.2764 40.1385 27.2734 40.1414L27.2832 40.1326L28.167 39.2498L27.2822 40.1326ZM22.4717 39.8757L22.4727 39.8748L22.4717 39.8757ZM27.4238 37.7839L26.1787 39.0261C26.0962 39.1071 26.0164 39.1927 25.9355 39.2761L26.1797 39.0261L27.4248 37.7839L28.3506 36.8669L27.4238 37.7839ZM32.3184 35.1384L32.3154 35.1414L32.3184 35.1394L37.3809 30.1052L37.3818 30.1042L32.3184 35.1384ZM37.9023 29.5906C38.222 29.2765 38.555 28.9486 38.8916 28.614C38.555 28.9486 38.222 29.2765 37.9023 29.5906ZM37.8018 27.4939C37.4982 27.7955 37.194 28.0962 36.8926 28.3923C36.6858 28.5954 36.4808 28.7967 36.2803 28.9968C36.7404 28.5376 37.2228 28.0702 37.7012 27.5964C37.7501 27.548 37.7979 27.4985 37.8467 27.45C37.8318 27.4647 37.8166 27.4791 37.8018 27.4939ZM39.1592 28.3455C39.3901 28.1134 39.6217 27.8793 39.8477 27.6423C39.6217 27.8793 39.3901 28.1134 39.1592 28.3455ZM40.6484 26.7693C40.3994 27.0541 40.1361 27.3384 39.8672 27.6208C39.9982 27.4833 40.1288 27.3462 40.2559 27.2078C40.3897 27.062 40.5207 26.9153 40.6484 26.7693L40.8057 26.5847L40.8066 26.5837L40.6484 26.7693ZM8.22461 25.1023C8.34622 25.3103 8.47326 25.5171 8.61035 25.7195C8.79404 25.9907 8.97782 26.2409 9.16309 26.4753C8.97796 26.2409 8.79495 25.9906 8.61133 25.7195C8.47413 25.5169 8.3463 25.3105 8.22461 25.1023ZM39.0986 26.157V26.158V26.157ZM7.71191 24.1169C7.81064 24.3344 7.91888 24.5487 8.0332 24.7615C7.91888 24.5487 7.81064 24.3344 7.71191 24.1169ZM7.52734 23.6843C7.56092 23.7678 7.59701 23.8504 7.63281 23.9333C7.59701 23.8504 7.56092 23.7678 7.52734 23.6843ZM7.37402 23.28C7.40454 23.3658 7.43789 23.4506 7.4707 23.5359C7.43789 23.4506 7.40454 23.3658 7.37402 23.28ZM7.23145 22.8494C7.25728 22.9331 7.28551 23.0161 7.31348 23.0994C7.28551 23.0161 7.25728 22.9331 7.23145 22.8494ZM7.10938 22.4226C7.13142 22.5062 7.15556 22.5893 7.17969 22.6726C7.15556 22.5893 7.13142 22.5062 7.10938 22.4226ZM43.04 21.9343H43.041H43.04ZM7.00293 21.9841C7.02521 22.086 7.04987 22.1874 7.0752 22.2888C7.04987 22.1874 7.02521 22.086 7.00293 21.9841ZM6.92188 21.5691C6.93635 21.6506 6.95235 21.7319 6.96875 21.8132C6.95235 21.7319 6.93635 21.6506 6.92188 21.5691ZM6.85352 21.1355C6.8639 21.2122 6.87661 21.2885 6.88867 21.365C6.87661 21.2885 6.8639 21.2121 6.85352 21.1355ZM6.80371 20.7019C6.81132 20.7827 6.82063 20.8634 6.83008 20.9441C6.82062 20.8634 6.81132 20.7827 6.80371 20.7019ZM6.77246 20.2673C6.77655 20.3442 6.78136 20.421 6.78711 20.4978C6.78136 20.421 6.77655 20.3442 6.77246 20.2673ZM6.75684 19.8083C6.75775 19.8959 6.76061 19.9835 6.76367 20.071C6.76061 19.9835 6.75775 19.8959 6.75684 19.8083ZM43.2842 19.3289L43.2891 19.6003V19.6042C43.2893 19.7596 43.2868 19.9153 43.2803 20.071L43.29 19.6042V19.5994L43.2852 19.3279C43.2802 19.1597 43.2704 18.9921 43.2578 18.825C43.2704 18.9924 43.2793 19.1604 43.2842 19.3289ZM6.76172 19.3542C6.75845 19.4574 6.75714 19.5606 6.75684 19.6638C6.75714 19.5606 6.75845 19.4574 6.76172 19.3542ZM6.78418 18.9294C6.77703 19.03 6.77094 19.1305 6.7666 19.2312C6.77094 19.1305 6.77703 19.03 6.78418 18.9294ZM43.2568 18.8142C43.2447 18.6547 43.2281 18.4959 43.209 18.3376C43.2281 18.4959 43.2447 18.6547 43.2568 18.8142ZM6.82129 18.5144C6.81253 18.594 6.80582 18.6739 6.79883 18.7537C6.80582 18.6739 6.81253 18.594 6.82129 18.5144ZM6.87988 18.071C6.86725 18.1543 6.85542 18.2376 6.84473 18.321C6.85542 18.2376 6.86725 18.1543 6.87988 18.071ZM43.1934 18.2214C43.1773 18.0993 43.1598 17.9775 43.1396 17.8562C43.1598 17.9775 43.1773 18.0993 43.1934 18.2214ZM6.94922 17.6697C6.93559 17.7413 6.92136 17.8127 6.90918 17.8845C6.92136 17.8127 6.93559 17.7413 6.94922 17.6697ZM43.1064 17.6697C43.0881 17.5701 43.0699 17.4707 43.0488 17.3718C43.0698 17.4707 43.0882 17.5701 43.1064 17.6697ZM7.04883 17.199C7.02778 17.288 7.00708 17.3771 6.98828 17.4666C7.00708 17.3771 7.02777 17.288 7.04883 17.199ZM43.0117 17.2097C42.9888 17.1094 42.9652 17.0094 42.9395 16.9099C42.9652 17.0094 42.9888 17.1094 43.0117 17.2097ZM7.1543 16.7898C7.13166 16.8713 7.10959 16.953 7.08887 17.0349C7.10959 16.953 7.13166 16.8713 7.1543 16.7898ZM42.8877 16.7185C42.8621 16.6263 42.8356 16.5345 42.8076 16.4431C42.8356 16.5345 42.8621 16.6263 42.8877 16.7185ZM41 16.0281C41.089 16.2409 41.1681 16.4576 41.2412 16.6765C41.2164 16.6023 41.1936 16.5274 41.167 16.4539C41.1151 16.3105 41.0588 16.1687 41 16.0281ZM7.28418 16.3552C7.25516 16.4451 7.22685 16.5352 7.2002 16.6257C7.22685 16.5352 7.25516 16.4451 7.28418 16.3552ZM42.7451 16.2478C42.7137 16.1517 42.6815 16.0559 42.6475 15.9607C42.6815 16.0559 42.7137 16.1517 42.7451 16.2478ZM7.46289 15.8455C7.41795 15.9644 7.37469 16.0837 7.33398 16.2039C7.37469 16.0837 7.41795 15.9644 7.46289 15.8455ZM7.63086 15.4255C7.57645 15.5534 7.52402 15.6818 7.47461 15.8113C7.52402 15.6818 7.57645 15.5534 7.63086 15.4255ZM42.5723 15.7576C42.5473 15.6918 42.5214 15.6265 42.4951 15.5613C42.5214 15.6265 42.5473 15.6918 42.5723 15.7576ZM7.77832 15.0955C7.73294 15.1931 7.68792 15.2907 7.64551 15.3894C7.68792 15.2907 7.73294 15.1931 7.77832 15.0955ZM42.3867 15.3005C42.3581 15.2345 42.3287 15.1688 42.2988 15.1033C42.3287 15.1688 42.3581 15.2345 42.3867 15.3005ZM7.99219 14.6589C7.93674 14.7657 7.88284 14.873 7.83105 14.9812C7.88284 14.873 7.93674 14.7657 7.99219 14.6589ZM42.1934 14.8787C42.158 14.8057 42.1219 14.7331 42.085 14.6609C42.1219 14.7331 42.158 14.8057 42.1934 14.8787ZM8.21484 14.2517C8.15011 14.3645 8.08688 14.4779 8.02637 14.5925C8.08688 14.4779 8.15011 14.3645 8.21484 14.2517ZM41.9775 14.4558C41.936 14.3787 41.893 14.3024 41.8496 14.2263C41.893 14.3024 41.936 14.3787 41.9775 14.4558ZM8.47949 13.8123C8.39839 13.9396 8.31964 14.0681 8.24414 14.198C8.31964 14.0681 8.39839 13.9396 8.47949 13.8123ZM24.6797 13.9167H24.6807H24.6797ZM41.7373 14.032C41.6867 13.9474 41.6339 13.8642 41.5811 13.781C41.6339 13.8643 41.6868 13.9474 41.7373 14.032ZM41.4854 13.6306C41.4325 13.5503 41.3773 13.4714 41.3223 13.3923C41.3773 13.4714 41.4325 13.5503 41.4854 13.6306ZM9.00781 13.0535C8.92851 13.1579 8.85256 13.2643 8.77734 13.3708C8.93792 13.1434 9.10702 12.9202 9.28613 12.7029L9.00781 13.0535ZM23.2646 12.448H23.2637H23.2646ZM40.0664 11.8914L40.2559 12.0847C40.2955 12.1262 40.3331 12.1696 40.3721 12.2117L40.2559 12.0837L40.0674 11.8914C40.0032 11.8268 39.9358 11.7656 39.8701 11.7029C39.9356 11.7655 40.0023 11.827 40.0664 11.8914ZM24.2549 11.2419C24.5244 11.4702 24.7837 11.7108 25.0322 11.9626C25.1534 11.8388 25.2775 11.7181 25.4033 11.6003V11.5994C25.2773 11.7173 25.1536 11.8386 25.0322 11.9626C24.7838 11.7109 24.5243 11.4701 24.2549 11.2419ZM22.1045 11.6003H22.1055H22.1045ZM24.0908 11.1091C24.0088 11.0422 23.9275 10.9745 23.8438 10.9099C23.9275 10.9745 24.0088 11.0422 24.0908 11.1091ZM38.6084 10.6697C38.7639 10.7783 38.9164 10.8914 39.0664 11.0085C38.9164 10.8914 38.7639 10.7783 38.6084 10.6697ZM23.6582 10.7722C23.5806 10.7148 23.5029 10.6576 23.4238 10.6023C23.5029 10.6576 23.5806 10.7148 23.6582 10.7722ZM23.2012 10.4519C23.128 10.4033 23.0547 10.3551 22.9805 10.3083C23.0547 10.3551 23.128 10.4033 23.2012 10.4519ZM18.5928 10.3552C18.6988 10.3677 18.8043 10.3817 18.9092 10.3982L18.6211 10.3582C18.6117 10.357 18.6022 10.3563 18.5928 10.3552ZM22.7607 10.1746C22.6821 10.1276 22.6033 10.0809 22.5234 10.0359C22.6033 10.0809 22.6821 10.1276 22.7607 10.1746ZM22.3057 9.91675C22.2218 9.87208 22.1369 9.82927 22.0518 9.78687C22.1369 9.82927 22.2218 9.87208 22.3057 9.91675ZM21.8379 9.68335C21.7493 9.64175 21.6602 9.60136 21.5703 9.56226C21.6602 9.60136 21.7493 9.64175 21.8379 9.68335ZM21.3516 9.46948C21.2627 9.43324 21.1731 9.39874 21.083 9.36499C21.1731 9.39874 21.2627 9.43324 21.3516 9.46948ZM14.9043 9.07593C14.6358 9.14335 14.3732 9.22411 14.1143 9.31128C14.3725 9.22437 14.6345 9.14416 14.9023 9.0769L14.9043 9.07593ZM20.7852 9.25659C20.7656 9.24995 20.7462 9.24261 20.7266 9.23608C20.7462 9.24261 20.7656 9.24995 20.7852 9.25659ZM20.292 9.10327C20.2712 9.0974 20.2504 9.09143 20.2295 9.08569C20.2504 9.09143 20.2712 9.0974 20.292 9.10327ZM19.7764 8.97339C19.7556 8.96873 19.7347 8.96425 19.7139 8.95972C19.7347 8.96425 19.7556 8.96873 19.7764 8.97339ZM19.2559 8.87085C19.2386 8.86796 19.2214 8.86486 19.2041 8.86206C19.2214 8.86486 19.2386 8.86796 19.2559 8.87085ZM17.0459 8.75269C16.6969 8.77342 16.3548 8.80957 16.0195 8.85815C16.3542 8.80971 16.6956 8.77437 17.0439 8.75366H17.0449L17.0459 8.75269ZM18.7266 8.79663C18.7077 8.79452 18.6888 8.79277 18.6699 8.79077C18.6888 8.79277 18.7077 8.79452 18.7266 8.79663Z" fill="white" fill-opacity="0.3"/>
</g>
</g>
</g>
</svg>
