<svg preserveAspectRatio="none" width="100%" height="100%" overflow="visible" style="display: block;" viewBox="0 0 14.6667 13.35" fill="none" xmlns="http://www.w3.org/2000/svg">
<path id="theater_comedy" d="M3.91667 13.35C2.83889 13.35 1.91667 12.9583 1.15 12.175C0.383333 11.3917 0 10.4778 0 9.43333V5.98333C0 5.70833 0.0979445 5.47289 0.293833 5.277C0.489611 5.08122 0.725 4.98333 1 4.98333H6.81667C7.09167 4.98333 7.32711 5.08122 7.523 5.277C7.71878 5.47289 7.81667 5.70833 7.81667 5.98333V9.43333C7.81667 10.4778 7.4375 11.3917 6.67917 12.175C5.92083 12.9583 5 13.35 3.91667 13.35ZM2.48333 8.25C2.63444 8.25 2.76111 8.19889 2.86333 8.09667C2.96556 7.99444 3.01667 7.86778 3.01667 7.71667C3.01667 7.56555 2.96556 7.43889 2.86333 7.33667C2.76111 7.23444 2.63444 7.18333 2.48333 7.18333C2.33222 7.18333 2.20556 7.23444 2.10333 7.33667C2.00111 7.43889 1.95 7.56555 1.95 7.71667C1.95 7.86778 2.00111 7.99444 2.10333 8.09667C2.20556 8.19889 2.33222 8.25 2.48333 8.25ZM5.75 8.09667C5.85 7.99444 5.9 7.86778 5.9 7.71667C5.9 7.56555 5.84889 7.43889 5.74667 7.33667C5.64444 7.23444 5.51778 7.18333 5.36667 7.18333C5.21556 7.18333 5.08889 7.23444 4.98667 7.33667C4.88444 7.43889 4.83333 7.56555 4.83333 7.71667C4.83333 7.86778 4.88333 7.99444 4.98333 8.09667C5.08333 8.19889 5.21111 8.25 5.36667 8.25C5.52222 8.25 5.65 8.19889 5.75 8.09667ZM14.6667 1V4.61667C14.6667 5.67222 14.2875 6.56111 13.5292 7.28333C12.7708 8.00556 11.85 8.36667 10.7667 8.36667C10.5111 8.36667 10.2639 8.34722 10.025 8.30833C9.78611 8.26944 9.55 8.20556 9.31667 8.11667C9.12778 8.05 8.96944 7.93972 8.84167 7.78583C8.71389 7.63206 8.65 7.459 8.65 7.26667V5.66667C8.65 5.27389 8.52328 4.93122 8.26983 4.63867C8.0165 4.34622 7.69322 4.2 7.3 4.2C7.16667 4.2 7.05278 4.15 6.95833 4.05C6.86389 3.95 6.81667 3.83333 6.81667 3.7V1C6.81667 0.725 6.91461 0.489555 7.1105 0.293667C7.30628 0.0978888 7.54167 0 7.81667 0H13.6667C13.9417 0 14.1771 0.0978888 14.373 0.293667C14.5688 0.489555 14.6667 0.725 14.6667 1ZM9.35 3.41667C9.50111 3.41667 9.62778 3.36111 9.73 3.25C9.83222 3.13889 9.88333 3.01667 9.88333 2.88333C9.88333 2.73222 9.83222 2.60556 9.73 2.50333C9.62778 2.40111 9.50111 2.35 9.35 2.35C9.19889 2.35 9.07222 2.40111 8.97 2.50333C8.86778 2.60556 8.81667 2.73222 8.81667 2.88333C8.81667 3.01667 8.86778 3.13889 8.97 3.25C9.07222 3.36111 9.19889 3.41667 9.35 3.41667ZM12.2167 3.41667C12.3678 3.41667 12.4944 3.36111 12.5967 3.25C12.6989 3.13889 12.75 3.01667 12.75 2.88333C12.75 2.73222 12.6989 2.60556 12.5967 2.50333C12.4944 2.40111 12.3678 2.35 12.2167 2.35C12.0656 2.35 11.9389 2.40111 11.8367 2.50333C11.7344 2.60556 11.6833 2.73222 11.6833 2.88333C11.6833 3.01667 11.7344 3.13889 11.8367 3.25C11.9389 3.36111 12.0656 3.41667 12.2167 3.41667ZM9.84167 4.83333C9.54722 4.93333 9.31111 5.11111 9.13333 5.36667C9.06667 5.47778 9.07222 5.58611 9.15 5.69167C9.22778 5.79722 9.33811 5.85 9.481 5.85H12.0523C12.1952 5.85 12.3056 5.79722 12.3833 5.69167C12.4611 5.58611 12.4667 5.47778 12.4 5.36667C12.2222 5.11111 11.9861 4.93333 11.6917 4.83333C11.3972 4.73333 11.0889 4.68333 10.7667 4.68333C10.4444 4.68333 10.1361 4.73333 9.84167 4.83333ZM4.875 10.6833C5.16944 10.5833 5.40556 10.4056 5.58333 10.15C5.65 10.0426 5.64444 9.93517 5.56667 9.82783C5.48889 9.72039 5.38022 9.66667 5.24067 9.66667H2.65933C2.51978 9.66667 2.41111 9.72039 2.33333 9.82783C2.25556 9.93517 2.25 10.0426 2.31667 10.15C2.49444 10.4056 2.73056 10.5833 3.025 10.6833C3.31944 10.7833 3.62778 10.8333 3.95 10.8333C4.27222 10.8333 4.58056 10.7833 4.875 10.6833Z" fill="#E8E7E7"/>
</svg>
