<svg width="16" height="16" viewBox="0 0 16 16" fill="none" xmlns="http://www.w3.org/2000/svg">
<path transform="translate(1.333 1.333)" d="M6.66667 10.6667C7.4 10.6667 8.02778 10.4056 8.55 9.88333C9.07222 9.36111 9.33333 8.73333 9.33333 8V7.16667C9.33333 7.025 9.28544 6.90622 9.18967 6.81033C9.09378 6.71456 8.975 6.66667 8.83333 6.66667C7.42867 7.1461 5.90466 7.1461 4.5 6.66667C4.35833 6.66667 4.23961 6.71456 4.14383 6.81033C4.04794 6.90622 4 7.025 4 7.16667V8C4 8.73333 4.26111 9.36111 4.78333 9.88333C5.30556 10.4056 5.93333 10.6667 6.66667 10.6667ZM4.33333 3.33333C3.95556 3.33333 3.62222 3.45556 3.33333 3.7C3.04444 3.94444 2.82222 4.24444 2.66667 4.6C2.61111 4.72222 2.61944 4.83889 2.69167 4.95C2.76389 5.06111 2.86667 5.13333 3 5.16667C3.12222 5.2 3.24444 5.18611 3.36667 5.125C3.48889 5.06389 3.57778 4.97222 3.63333 4.85C3.71111 4.70556 3.80833 4.58333 3.925 4.48333C4.04167 4.38333 4.17778 4.33333 4.33333 4.33333C4.48889 4.33333 4.625 4.38611 4.74167 4.49167C4.85833 4.59722 4.95556 4.72222 5.03333 4.86667C5.08889 4.98889 5.17778 5.07778 5.3 5.13333C5.42222 5.18889 5.54444 5.2 5.66667 5.16667C5.8 5.13333 5.90278 5.06111 5.975 4.95C6.04722 4.83889 6.05556 4.72222 6 4.6C5.84444 4.24444 5.62222 3.94444 5.33333 3.7C5.04444 3.45556 4.71111 3.33333 4.33333 3.33333ZM9 3.33333C8.62222 3.33333 8.28889 3.45556 8 3.7C7.71111 3.94444 7.48889 4.24444 7.33333 4.6C7.27778 4.72222 7.28611 4.83889 7.35833 4.95C7.43056 5.06111 7.53333 5.13333 7.66667 5.16667C7.78889 5.2 7.91111 5.18611 8.03333 5.125C8.15555 5.06389 8.24444 4.97222 8.3 4.85C8.37778 4.70556 8.475 4.58333 8.59167 4.48333C8.70833 4.38333 8.84444 4.33333 9 4.33333C9.15555 4.33333 9.29167 4.38611 9.40833 4.49167C9.525 4.59722 9.62222 4.72222 9.7 4.86667C9.75556 4.98889 9.84444 5.07778 9.96667 5.13333C10.0889 5.18889 10.2111 5.2 10.3333 5.16667C10.4667 5.13333 10.5694 5.06111 10.6417 4.95C10.7139 4.83889 10.7222 4.72222 10.6667 4.6C10.5111 4.24444 10.2889 3.94444 10 3.7C9.71111 3.45556 9.37778 3.33333 9 3.33333ZM4.06667 12.8083C3.25556 12.4583 2.55 11.9833 1.95 11.3833C1.35 10.7833 0.875 10.0778 0.525 9.26667C0.175 8.45555 0 7.58889 0 6.66667C0 5.74444 0.175 4.87778 0.525 4.06667C0.875 3.25556 1.35 2.55 1.95 1.95C2.55 1.35 3.25556 0.875 4.06667 0.525C4.87778 0.175 5.74444 0 6.66667 0C7.58889 0 8.45555 0.175 9.26667 0.525C10.0778 0.875 10.7833 1.35 11.3833 1.95C11.9833 2.55 12.4583 3.25556 12.8083 4.06667C13.1583 4.87778 13.3333 5.74444 13.3333 6.66667C13.3333 7.58889 13.1583 8.45555 12.8083 9.26667C12.4583 10.0778 11.9833 10.7833 11.3833 11.3833C10.7833 11.9833 10.0778 12.4583 9.26667 12.8083C8.45555 13.1583 7.58889 13.3333 6.66667 13.3333C5.74444 13.3333 4.87778 13.1583 4.06667 12.8083Z" fill="#E8E7E7"/>
</svg>
