<svg preserveAspectRatio="none" width="100%" height="100%" overflow="visible" style="display: block;" viewBox="0 0 12.7509 12.6091" fill="none" xmlns="http://www.w3.org/2000/svg">
<path id="stars_2" d="M5.93571 10.6667L2.83571 12.5333C2.74683 12.5889 2.65238 12.6139 2.55238 12.6083C2.45238 12.6028 2.36349 12.5722 2.28571 12.5167C2.20794 12.4611 2.1496 12.3889 2.11071 12.3C2.07183 12.2111 2.06349 12.1111 2.08571 12L2.90238 8.46667L0.169048 6.08333C0.0801587 6.00556 0.027381 5.91944 0.0107143 5.825C-0.00595238 5.73056 -0.0031746 5.63889 0.0190476 5.55C0.0412698 5.46111 0.0912699 5.38611 0.169048 5.325C0.246825 5.26389 0.34127 5.22778 0.452381 5.21667L4.06905 4.9L5.46905 1.56667C5.51349 1.46667 5.58016 1.39167 5.66905 1.34167C5.75794 1.29167 5.84683 1.26667 5.93571 1.26667C6.0246 1.26667 6.11349 1.29167 6.20238 1.34167C6.29127 1.39167 6.35794 1.46667 6.40238 1.56667L7.80238 4.9L11.419 5.21667C11.5302 5.22778 11.6246 5.26389 11.7024 5.325C11.7802 5.38611 11.8302 5.46111 11.8524 5.55C11.8746 5.63889 11.8774 5.73056 11.8607 5.825C11.844 5.91944 11.7913 6.00556 11.7024 6.08333L8.96905 8.46667L9.78572 12C9.80794 12.1111 9.7996 12.2111 9.76072 12.3C9.72183 12.3889 9.66349 12.4611 9.58572 12.5167C9.50794 12.5722 9.41905 12.6028 9.31905 12.6083C9.21905 12.6139 9.1246 12.5889 9.03572 12.5333L5.93571 10.6667ZM10.769 3.03333L9.68572 3.66667C9.63016 3.68889 9.58016 3.68611 9.53572 3.65833C9.49127 3.63056 9.48016 3.58889 9.50238 3.53333L9.78572 2.33333L8.83572 1.53333C8.79127 1.5 8.77738 1.45833 8.79405 1.40833C8.81072 1.35833 8.84683 1.32778 8.90238 1.31667L10.169 1.21667L10.6524 0.0833333C10.6746 0.0277778 10.7135 0 10.769 0C10.8246 0 10.8635 0.0277778 10.8857 0.0833333L11.369 1.21667L12.6357 1.31667C12.6913 1.32778 12.7274 1.35833 12.744 1.40833C12.7607 1.45833 12.7468 1.5 12.7024 1.53333L11.7524 2.33333L12.0357 3.53333C12.0579 3.58889 12.0468 3.63056 12.0024 3.65833C11.9579 3.68611 11.9079 3.68889 11.8524 3.66667L10.769 3.03333Z" fill="#E8E7E7"/>
</svg>
