<svg preserveAspectRatio="none" width="100%" height="100%" overflow="visible" style="display: block;" viewBox="0 0 12.0377 13.3333" fill="none" xmlns="http://www.w3.org/2000/svg">
<path id="filter_vintage" d="M4.39386 12.6917C3.93275 12.2639 3.65219 11.7 3.55219 11C2.89664 11.2556 2.28275 11.2778 1.71053 11.0667C1.1383 10.8556 0.691082 10.4833 0.36886 9.95C0.0466374 9.41667 -0.0589181 8.83333 0.052193 8.2C0.163304 7.56667 0.541082 7.05556 1.18553 6.66667C0.51886 6.26667 0.135526 5.75278 0.0355263 5.125C-0.0644737 4.49722 0.0466374 3.91667 0.36886 3.38333C0.691082 2.85 1.1383 2.47778 1.71053 2.26667C2.28275 2.05556 2.89664 2.07778 3.55219 2.33333C3.65219 1.63333 3.93275 1.06944 4.39386 0.641667C4.85497 0.213889 5.39664 0 6.01886 0C6.64108 0 7.18275 0.213889 7.64386 0.641667C8.10497 1.06944 8.38553 1.63333 8.48553 2.33333C9.14108 2.07778 9.75497 2.05556 10.3272 2.26667C10.8994 2.47778 11.3466 2.85 11.6689 3.38333C11.9911 3.91667 12.1022 4.49722 12.0022 5.125C11.9022 5.75278 11.5189 6.26667 10.8522 6.66667C11.4966 7.05556 11.8716 7.56944 11.9772 8.20833C12.0827 8.84722 11.98 9.42778 11.6689 9.95C11.3466 10.4833 10.8994 10.8556 10.3272 11.0667C9.75497 11.2778 9.14108 11.2556 8.48553 11C8.38553 11.7 8.10497 12.2639 7.64386 12.6917C7.18275 13.1194 6.64108 13.3333 6.01886 13.3333C5.39664 13.3333 4.85497 13.1194 4.39386 12.6917ZM6.01886 9.45C6.78553 9.45 7.4383 9.18056 7.97719 8.64167C8.51608 8.10278 8.78553 7.44444 8.78553 6.66667C8.78553 5.88889 8.51608 5.23056 7.97719 4.69167C7.4383 4.15278 6.78553 3.88333 6.01886 3.88333C5.25219 3.88333 4.61053 4.15278 4.09386 4.69167C3.57719 5.23056 3.31886 5.88889 3.31886 6.66667C3.31886 7.44444 3.57719 8.10278 4.09386 8.64167C4.61053 9.18056 5.25219 9.45 6.01886 9.45Z" fill="#E8E7E7"/>
</svg>
