<svg width="16" height="16" viewBox="0 0 16 16" fill="none" xmlns="http://www.w3.org/2000/svg">
<path d="M7.27411 7.96112C7.39663 7.83859 7.45789 7.68981 7.45789 7.51478C7.45789 7.33975 7.39663 7.19097 7.27411 7.06844C7.15158 6.94592 7.0028 6.88466 6.82777 6.88466C6.65273 6.88466 6.50395 6.94592 6.38143 7.06844C6.25891 7.19097 6.19764 7.33975 6.19764 7.51478C6.19764 7.68981 6.25891 7.83859 6.38143 7.96112C6.50395 8.08364 6.65273 8.1449 6.82777 8.1449C7.0028 8.1449 7.15158 8.08364 7.27411 7.96112ZM5.59378 6.28079C5.7163 6.15826 5.77756 6.00949 5.77756 5.83445C5.77756 5.65942 5.7163 5.51064 5.59378 5.38811C5.47125 5.26559 5.32247 5.20433 5.14744 5.20433C4.9724 5.20433 4.82363 5.26559 4.7011 5.38811C4.57858 5.51064 4.51732 5.65942 4.51732 5.83445C4.51732 6.00949 4.57858 6.15826 4.7011 6.28079C4.82363 6.40331 4.9724 6.46457 5.14744 6.46457C5.32247 6.46457 5.47125 6.40331 5.59378 6.28079ZM3.91345 4.60046C4.03597 4.47794 4.09723 4.32916 4.09723 4.15412C4.09723 3.97909 4.03597 3.83031 3.91345 3.70778C3.79092 3.58526 3.64214 3.524 3.46711 3.524C3.29208 3.524 3.1433 3.58526 3.02077 3.70778C2.89825 3.83031 2.83699 3.97909 2.83699 4.15412C2.83699 4.32916 2.89825 4.47794 3.02077 4.60046C3.1433 4.72298 3.29208 4.78425 3.46711 4.78425C3.64214 4.78425 3.79092 4.72298 3.91345 4.60046ZM2.20686 9.61519C1.97582 9.61519 1.77803 9.53293 1.6135 9.36839C1.44897 9.20386 1.3667 9.00607 1.3667 8.77503V2.89388C1.3667 2.66283 1.44897 2.46504 1.6135 2.30051C1.77803 2.13598 1.97582 2.05371 2.20686 2.05371H8.08802C8.31906 2.05371 8.51685 2.13598 8.68138 2.30051C8.84591 2.46504 8.92818 2.66283 8.92818 2.89388V8.77503C8.92818 9.00607 8.84591 9.20386 8.68138 9.36839C8.51685 9.53293 8.31906 9.61519 8.08802 9.61519H2.20686Z" fill="#E8E7E7"/>
<path d="M13.7935 6.38574C14.0244 6.38584 14.2218 6.46839 14.3862 6.63281C14.5507 6.79728 14.6333 6.99465 14.6333 7.22559V13.1064C14.6332 13.3373 14.5507 13.5348 14.3862 13.6992C14.2218 13.8636 14.0243 13.9462 13.7935 13.9463H7.91162C7.68055 13.9463 7.48242 13.8637 7.31787 13.6992C7.15341 13.5348 7.07088 13.3373 7.0708 13.1064V10.5977H8.08838C8.58231 10.5976 9.02994 10.4109 9.37744 10.0635C9.7249 9.71604 9.9116 9.26823 9.91162 8.77441V6.38574H13.7935ZM8.96143 11.4258C8.7865 11.4258 8.63762 11.487 8.51514 11.6094C8.39269 11.7318 8.33163 11.8808 8.33154 12.0557C8.33154 12.2306 8.39271 12.3795 8.51514 12.502C8.63766 12.6244 8.7864 12.6865 8.96143 12.6865C9.13648 12.6865 9.28518 12.6245 9.40771 12.502C9.53019 12.3795 9.59131 12.2306 9.59131 12.0557C9.59122 11.8808 9.53016 11.7318 9.40771 11.6094C9.28523 11.4871 9.13634 11.4258 8.96143 11.4258ZM12.7427 11.4258C12.5677 11.4258 12.4189 11.487 12.2964 11.6094C12.1739 11.7318 12.1129 11.8808 12.1128 12.0557C12.1128 12.2306 12.174 12.3795 12.2964 12.502C12.4189 12.6245 12.5676 12.6865 12.7427 12.6865C12.9177 12.6865 13.0664 12.6245 13.189 12.502C13.3114 12.3795 13.3726 12.2306 13.3726 12.0557C13.3725 11.8808 13.3114 11.7318 13.189 11.6094C13.0665 11.487 12.9176 11.4258 12.7427 11.4258ZM10.8521 9.53613C10.677 9.53615 10.5283 9.59723 10.4058 9.71973C10.2832 9.84223 10.2222 9.99101 10.2222 10.166C10.2222 10.341 10.2832 10.4898 10.4058 10.6123C10.5283 10.7348 10.6771 10.7959 10.8521 10.7959C11.027 10.7959 11.1758 10.7347 11.2983 10.6123C11.4209 10.4898 11.4819 10.341 11.4819 10.166C11.4819 9.991 11.4209 9.84224 11.2983 9.71973C11.1758 9.59725 11.0271 9.53613 10.8521 9.53613ZM8.92822 7.64844C8.76765 7.65579 8.62977 7.71459 8.51514 7.8291C8.39269 7.95152 8.33164 8.10055 8.33154 8.27539C8.33154 8.45032 8.39272 8.59921 8.51514 8.72168C8.62699 8.83351 8.76089 8.89162 8.9165 8.90137C8.89135 9.07867 8.81469 9.23466 8.68115 9.36816C8.53728 9.51189 8.36805 9.59233 8.17334 9.61035L8.08838 9.61426H7.0708V8.09863C7.14502 8.06796 7.21276 8.02207 7.27393 7.96094C7.38112 7.85377 7.44117 7.72645 7.45459 7.5791L7.4585 7.51465C7.45847 7.33968 7.39644 7.19084 7.27393 7.06836C7.22517 7.01963 7.17082 6.98343 7.11377 6.9541C7.15376 6.83562 7.22199 6.72871 7.31787 6.63281C7.48242 6.4683 7.68055 6.38574 7.91162 6.38574H8.92822V7.64844ZM12.7427 7.64551C12.5678 7.64552 12.4189 7.70676 12.2964 7.8291C12.1739 7.95152 12.1129 8.10055 12.1128 8.27539C12.1128 8.45032 12.174 8.5992 12.2964 8.72168C12.4189 8.84418 12.5676 8.90624 12.7427 8.90625C12.9177 8.90625 13.0664 8.84419 13.189 8.72168C13.3114 8.59919 13.3726 8.45035 13.3726 8.27539C13.3725 8.10055 13.3114 7.95152 13.189 7.8291C13.0665 7.70678 12.9176 7.64551 12.7427 7.64551Z" fill="#E8E7E7"/>
</svg>
