<svg preserveAspectRatio="none" width="100%" height="100%" overflow="visible" style="display: block;" viewBox="0 0 44 40.05" fill="none" xmlns="http://www.w3.org/2000/svg">
<path id="theater_comedy" d="M11.75 40.05C8.51667 40.05 5.75 38.875 3.45 36.525C1.15 34.175 0 31.4333 0 28.3V17.95C0 17.125 0.293833 16.4187 0.8815 15.831C1.46883 15.2437 2.175 14.95 3 14.95H20.45C21.275 14.95 21.9813 15.2437 22.569 15.831C23.1563 16.4187 23.45 17.125 23.45 17.95V28.3C23.45 31.4333 22.3125 34.175 20.0375 36.525C17.7625 38.875 15 40.05 11.75 40.05ZM7.45 24.75C7.90333 24.75 8.28333 24.5967 8.59 24.29C8.89667 23.9833 9.05 23.6033 9.05 23.15C9.05 22.6967 8.89667 22.3167 8.59 22.01C8.28333 21.7033 7.90333 21.55 7.45 21.55C6.99667 21.55 6.61667 21.7033 6.31 22.01C6.00333 22.3167 5.85 22.6967 5.85 23.15C5.85 23.6033 6.00333 23.9833 6.31 24.29C6.61667 24.5967 6.99667 24.75 7.45 24.75ZM17.25 24.29C17.55 23.9833 17.7 23.6033 17.7 23.15C17.7 22.6967 17.5467 22.3167 17.24 22.01C16.9333 21.7033 16.5533 21.55 16.1 21.55C15.6467 21.55 15.2667 21.7033 14.96 22.01C14.6533 22.3167 14.5 22.6967 14.5 23.15C14.5 23.6033 14.65 23.9833 14.95 24.29C15.25 24.5967 15.6333 24.75 16.1 24.75C16.5667 24.75 16.95 24.5967 17.25 24.29ZM44 3V13.85C44 17.0167 42.8625 19.6833 40.5875 21.85C38.3125 24.0167 35.55 25.1 32.3 25.1C31.5333 25.1 30.7917 25.0417 30.075 24.925C29.3583 24.8083 28.65 24.6167 27.95 24.35C27.3833 24.15 26.9083 23.8192 26.525 23.3575C26.1417 22.8962 25.95 22.377 25.95 21.8V17C25.95 15.8217 25.5698 14.7937 24.8095 13.916C24.0495 13.0387 23.0797 12.6 21.9 12.6C21.5 12.6 21.1583 12.45 20.875 12.15C20.5917 11.85 20.45 11.5 20.45 11.1V3C20.45 2.175 20.7438 1.46867 21.3315 0.881C21.9188 0.293666 22.625 0 23.45 0H41C41.825 0 42.5313 0.293666 43.119 0.881C43.7063 1.46867 44 2.175 44 3ZM28.05 10.25C28.5033 10.25 28.8833 10.0833 29.19 9.75C29.4967 9.41667 29.65 9.05 29.65 8.65C29.65 8.19667 29.4967 7.81667 29.19 7.51C28.8833 7.20333 28.5033 7.05 28.05 7.05C27.5967 7.05 27.2167 7.20333 26.91 7.51C26.6033 7.81667 26.45 8.19667 26.45 8.65C26.45 9.05 26.6033 9.41667 26.91 9.75C27.2167 10.0833 27.5967 10.25 28.05 10.25ZM36.65 10.25C37.1033 10.25 37.4833 10.0833 37.79 9.75C38.0967 9.41667 38.25 9.05 38.25 8.65C38.25 8.19667 38.0967 7.81667 37.79 7.51C37.4833 7.20333 37.1033 7.05 36.65 7.05C36.1967 7.05 35.8167 7.20333 35.51 7.51C35.2033 7.81667 35.05 8.19667 35.05 8.65C35.05 9.05 35.2033 9.41667 35.51 9.75C35.8167 10.0833 36.1967 10.25 36.65 10.25ZM29.525 14.5C28.6417 14.8 27.9333 15.3333 27.4 16.1C27.2 16.4333 27.2167 16.7583 27.45 17.075C27.6833 17.3917 28.0143 17.55 28.443 17.55H36.157C36.5857 17.55 36.9167 17.3917 37.15 17.075C37.3833 16.7583 37.4 16.4333 37.2 16.1C36.6667 15.3333 35.9583 14.8 35.075 14.5C34.1917 14.2 33.2667 14.05 32.3 14.05C31.3333 14.05 30.4083 14.2 29.525 14.5ZM14.625 32.05C15.5083 31.75 16.2167 31.2167 16.75 30.45C16.95 30.1277 16.9333 29.8055 16.7 29.4835C16.4667 29.1612 16.1407 29 15.722 29H7.978C7.55933 29 7.23333 29.1612 7 29.4835C6.76667 29.8055 6.75 30.1277 6.95 30.45C7.48333 31.2167 8.19167 31.75 9.075 32.05C9.95833 32.35 10.8833 32.5 11.85 32.5C12.8167 32.5 13.7417 32.35 14.625 32.05Z" fill="var(--fill-0, #5C5143)"/>
</svg>
