<svg preserveAspectRatio="none" width="100%" height="100%" overflow="visible" style="display: block;" viewBox="0 0 11.2 11.2" fill="none" xmlns="http://www.w3.org/2000/svg">
<path id="edit" d="M1.2 10H2.05L8.3 3.75L7.45 2.9L1.2 9.15V10ZM0.603 11.2C0.434333 11.2 0.291667 11.1428 0.175 11.0283C0.0583333 10.914 0 10.7722 0 10.603V9.1555C0 8.99628 0.0277778 8.84444 0.0833333 8.7C0.138889 8.55556 0.227778 8.42222 0.35 8.3L8.3 0.35C8.42222 0.227778 8.55467 0.138889 8.69733 0.0833333C8.83989 0.0277778 8.98989 0 9.14733 0C9.30467 0 9.45556 0.0277778 9.6 0.0833333C9.74444 0.138889 9.87778 0.227778 10 0.35L10.85 1.2C10.9722 1.32222 11.0611 1.45556 11.1167 1.6C11.1722 1.74444 11.2 1.89189 11.2 2.04233C11.2 2.20289 11.1721 2.35589 11.1163 2.50133C11.0606 2.64678 10.9718 2.77967 10.85 2.9L2.9 10.85C2.77778 10.9722 2.64472 11.0611 2.50083 11.1167C2.35694 11.1722 2.20561 11.2 2.04683 11.2H0.603ZM7.8675 3.3325L7.45 2.9L8.3 3.75L7.8675 3.3325Z" fill="var(--fill-0, #287271)"/>
</svg>
