<svg preserveAspectRatio="none" width="100%" height="100%" overflow="visible" style="display: block;" viewBox="0 0 40 40" fill="none" xmlns="http://www.w3.org/2000/svg">
<path id="sentiment_excited" d="M20 32C22.2 32 24.0833 31.2167 25.65 29.65C27.2167 28.0833 28 26.2 28 24V21.5C28 21.075 27.8563 20.7187 27.569 20.431C27.2813 20.1437 26.925 20 26.5 20L25.1683 20.4545C21.8177 21.5982 18.1823 21.5982 14.8317 20.4545L13.5 20C13.075 20 12.7188 20.1437 12.4315 20.431C12.1438 20.7187 12 21.075 12 21.5V24C12 26.2 12.7833 28.0833 14.35 29.65C15.9167 31.2167 17.8 32 20 32ZM13 10C11.8667 10 10.8667 10.3667 10 11.1C9.13333 11.8333 8.46667 12.7333 8 13.8C7.83333 14.1667 7.85833 14.5167 8.075 14.85C8.29167 15.1833 8.6 15.4 9 15.5C9.36667 15.6 9.73333 15.5583 10.1 15.375C10.4667 15.1917 10.7333 14.9167 10.9 14.55C11.1333 14.1167 11.425 13.75 11.775 13.45C12.125 13.15 12.5333 13 13 13C13.4667 13 13.875 13.1583 14.225 13.475C14.575 13.7917 14.8667 14.1667 15.1 14.6C15.2667 14.9667 15.5333 15.2333 15.9 15.4C16.2667 15.5667 16.6333 15.6 17 15.5C17.4 15.4 17.7083 15.1833 17.925 14.85C18.1417 14.5167 18.1667 14.1667 18 13.8C17.5333 12.7333 16.8667 11.8333 16 11.1C15.1333 10.3667 14.1333 10 13 10ZM27 10C25.8667 10 24.8667 10.3667 24 11.1C23.1333 11.8333 22.4667 12.7333 22 13.8C21.8333 14.1667 21.8583 14.5167 22.075 14.85C22.2917 15.1833 22.6 15.4 23 15.5C23.3667 15.6 23.7333 15.5583 24.1 15.375C24.4667 15.1917 24.7333 14.9167 24.9 14.55C25.1333 14.1167 25.425 13.75 25.775 13.45C26.125 13.15 26.5333 13 27 13C27.4667 13 27.875 13.1583 28.225 13.475C28.575 13.7917 28.8667 14.1667 29.1 14.6C29.2667 14.9667 29.5333 15.2333 29.9 15.4C30.2667 15.5667 30.6333 15.6 31 15.5C31.4 15.4 31.7083 15.1833 31.925 14.85C32.1417 14.5167 32.1667 14.1667 32 13.8C31.5333 12.7333 30.8667 11.8333 30 11.1C29.1333 10.3667 28.1333 10 27 10ZM12.2 38.425C9.76667 37.375 7.65 35.95 5.85 34.15C4.05 32.35 2.625 30.2333 1.575 27.8C0.525 25.3667 0 22.7667 0 20C0 17.2333 0.525 14.6333 1.575 12.2C2.625 9.76667 4.05 7.65 5.85 5.85C7.65 4.05 9.76667 2.625 12.2 1.575C14.6333 0.525 17.2333 0 20 0C22.7667 0 25.3667 0.525 27.8 1.575C30.2333 2.625 32.35 4.05 34.15 5.85C35.95 7.65 37.375 9.76667 38.425 12.2C39.475 14.6333 40 17.2333 40 20C40 22.7667 39.475 25.3667 38.425 27.8C37.375 30.2333 35.95 32.35 34.15 34.15C32.35 35.95 30.2333 37.375 27.8 38.425C25.3667 39.475 22.7667 40 20 40C17.2333 40 14.6333 39.475 12.2 38.425Z" fill="var(--fill-0, #22BDAA)"/>
</svg>
