<svg preserveAspectRatio="none" width="100%" height="100%" overflow="visible" style="display: block;" viewBox="0 0 38.2526 37.8273" fill="none" xmlns="http://www.w3.org/2000/svg">
<path id="stars_2" d="M17.8071 32L8.50714 37.6C8.24048 37.7667 7.95714 37.8417 7.65714 37.825C7.35714 37.8083 7.09048 37.7167 6.85714 37.55C6.62381 37.3833 6.44881 37.1667 6.33214 36.9C6.21548 36.6333 6.19048 36.3333 6.25714 36L8.70714 25.4L0.507143 18.25C0.240476 18.0167 0.0821429 17.7583 0.0321429 17.475C-0.0178571 17.1917 -0.00952381 16.9167 0.0571429 16.65C0.12381 16.3833 0.27381 16.1583 0.507143 15.975C0.740476 15.7917 1.02381 15.6833 1.35714 15.65L12.2071 14.7L16.4071 4.7C16.5405 4.4 16.7405 4.175 17.0071 4.025C17.2738 3.875 17.5405 3.8 17.8071 3.8C18.0738 3.8 18.3405 3.875 18.6071 4.025C18.8738 4.175 19.0738 4.4 19.2071 4.7L23.4071 14.7L34.2571 15.65C34.5905 15.6833 34.8738 15.7917 35.1071 15.975C35.3405 16.1583 35.4905 16.3833 35.5571 16.65C35.6238 16.9167 35.6321 17.1917 35.5821 17.475C35.5321 17.7583 35.3738 18.0167 35.1071 18.25L26.9071 25.4L29.3571 36C29.4238 36.3333 29.3988 36.6333 29.2821 36.9C29.1655 37.1667 28.9905 37.3833 28.7571 37.55C28.5238 37.7167 28.2571 37.8083 27.9571 37.825C27.6571 37.8417 27.3738 37.7667 27.1071 37.6L17.8071 32ZM32.3071 9.1L29.0571 11C28.8905 11.0667 28.7405 11.0583 28.6071 10.975C28.4738 10.8917 28.4405 10.7667 28.5071 10.6L29.3571 7L26.5071 4.6C26.3738 4.5 26.3321 4.375 26.3821 4.225C26.4321 4.075 26.5405 3.98333 26.7071 3.95L30.5071 3.65L31.9571 0.25C32.0238 0.0833333 32.1405 0 32.3071 0C32.4738 0 32.5905 0.0833333 32.6571 0.25L34.1071 3.65L37.9071 3.95C38.0738 3.98333 38.1821 4.075 38.2321 4.225C38.2821 4.375 38.2405 4.5 38.1071 4.6L35.2571 7L36.1071 10.6C36.1738 10.7667 36.1405 10.8917 36.0071 10.975C35.8738 11.0583 35.7238 11.0667 35.5571 11L32.3071 9.1Z" fill="var(--fill-0, #2A9D8F)"/>
</svg>
