<svg preserveAspectRatio="none" width="100%" height="100%" overflow="visible" style="display: block;" viewBox="0 0 36.1132 40" fill="none" xmlns="http://www.w3.org/2000/svg">
<path id="filter_vintage" d="M13.1816 38.075C11.7982 36.7917 10.9566 35.1 10.6566 33C8.68991 33.7667 6.84825 33.8333 5.13158 33.2C3.41491 32.5667 2.07325 31.45 1.10658 29.85C0.139912 28.25 -0.176754 26.5 0.156579 24.6C0.489912 22.7 1.62325 21.1667 3.55658 20C1.55658 18.8 0.406579 17.2583 0.106579 15.375C-0.193421 13.4917 0.139912 11.75 1.10658 10.15C2.07325 8.55 3.41491 7.43333 5.13158 6.8C6.84825 6.16667 8.68991 6.23333 10.6566 7C10.9566 4.9 11.7982 3.20833 13.1816 1.925C14.5649 0.641667 16.1899 0 18.0566 0C19.9232 0 21.5482 0.641667 22.9316 1.925C24.3149 3.20833 25.1566 4.9 25.4566 7C27.4232 6.23333 29.2649 6.16667 30.9816 6.8C32.6982 7.43333 34.0399 8.55 35.0066 10.15C35.9732 11.75 36.3066 13.4917 36.0066 15.375C35.7066 17.2583 34.5566 18.8 32.5566 20C34.4899 21.1667 35.6149 22.7083 35.9316 24.625C36.2482 26.5417 35.9399 28.2833 35.0066 29.85C34.0399 31.45 32.6982 32.5667 30.9816 33.2C29.2649 33.8333 27.4232 33.7667 25.4566 33C25.1566 35.1 24.3149 36.7917 22.9316 38.075C21.5482 39.3583 19.9232 40 18.0566 40C16.1899 40 14.5649 39.3583 13.1816 38.075ZM18.0566 28.35C20.3566 28.35 22.3149 27.5417 23.9316 25.925C25.5482 24.3083 26.3566 22.3333 26.3566 20C26.3566 17.6667 25.5482 15.6917 23.9316 14.075C22.3149 12.4583 20.3566 11.65 18.0566 11.65C15.7566 11.65 13.8316 12.4583 12.2816 14.075C10.7316 15.6917 9.95658 17.6667 9.95658 20C9.95658 22.3333 10.7316 24.3083 12.2816 25.925C13.8316 27.5417 15.7566 28.35 18.0566 28.35Z" fill="var(--fill-0, #5E5E5E)"/>
</svg>
