<svg width="48" height="48" viewBox="0 0 48 48" fill="none" xmlns="http://www.w3.org/2000/svg">
<path d="M21.8223 23.8834C22.1899 23.5158 22.3737 23.0694 22.3737 22.5443C22.3737 22.0192 22.1899 21.5729 21.8223 21.2053C21.4547 20.8378 21.0084 20.654 20.4833 20.654C19.9582 20.654 19.5119 20.8378 19.1443 21.2053C18.7767 21.5729 18.5929 22.0192 18.5929 22.5443C18.5929 23.0694 18.7767 23.5158 19.1443 23.8834C19.5119 24.2509 19.9582 24.4347 20.4833 24.4347C21.0084 24.4347 21.4547 24.2509 21.8223 23.8834ZM16.7813 18.8424C17.1489 18.4748 17.3327 18.0285 17.3327 17.5034C17.3327 16.9783 17.1489 16.5319 16.7813 16.1643C16.4138 15.7968 15.9674 15.613 15.4423 15.613C14.9172 15.613 14.4709 15.7968 14.1033 16.1643C13.7357 16.5319 13.5519 16.9783 13.5519 17.5034C13.5519 18.0285 13.7357 18.4748 14.1033 18.8424C14.4709 19.2099 14.9172 19.3937 15.4423 19.3937C15.9674 19.3937 16.4138 19.2099 16.7813 18.8424ZM11.7403 13.8014C12.1079 13.4338 12.2917 12.9875 12.2917 12.4624C12.2917 11.9373 12.1079 11.4909 11.7403 11.1234C11.3728 10.7558 10.9264 10.572 10.4013 10.572C9.87623 10.572 9.42989 10.7558 9.06232 11.1234C8.69475 11.4909 8.51096 11.9373 8.51096 12.4624C8.51096 12.9875 8.69475 13.4338 9.06232 13.8014C9.42989 14.169 9.87623 14.3527 10.4013 14.3527C10.9264 14.3527 11.3728 14.169 11.7403 13.8014ZM6.62059 28.8456C5.92746 28.8456 5.33409 28.5988 4.84049 28.1052C4.3469 27.6116 4.1001 27.0182 4.1001 26.3251V8.68163C4.1001 7.98849 4.3469 7.39512 4.84049 6.90153C5.33409 6.40793 5.92746 6.16113 6.62059 6.16113H24.264C24.9572 6.16113 25.5505 6.40793 26.0441 6.90153C26.5377 7.39512 26.7845 7.98849 26.7845 8.68163V26.3251C26.7845 27.0182 26.5377 27.6116 26.0441 28.1052C25.5505 28.5988 24.9572 28.8456 24.264 28.8456H6.62059Z" fill="#264653"/>
<path d="M41.3794 19.1572C42.0725 19.1573 42.6661 19.404 43.1597 19.8975C43.6532 20.391 43.8999 20.9848 43.8999 21.6777V39.3184C43.8999 40.0114 43.6533 40.6051 43.1597 41.0986C42.6661 41.5921 42.0725 41.8388 41.3794 41.8389H23.7329C23.0399 41.8388 22.4462 41.5921 21.9526 41.0986C21.459 40.6051 21.2124 40.0114 21.2124 39.3184V31.7939H24.2642C25.7462 31.7939 27.0887 31.2318 28.1313 30.1895C29.1737 29.1472 29.7358 27.8057 29.7358 26.3242V19.1572H41.3794ZM26.8843 34.2783C26.3593 34.2783 25.913 34.4618 25.5454 34.8291C25.1779 35.1965 24.9937 35.6431 24.9937 36.168C24.9937 36.693 25.1778 37.1393 25.5454 37.5068C25.913 37.8743 26.3591 38.0586 26.8843 38.0586C27.4094 38.0586 27.8555 37.8743 28.2231 37.5068C28.5908 37.1393 28.7749 36.693 28.7749 36.168C28.7748 35.6431 28.5907 35.1965 28.2231 34.8291C27.8556 34.4618 27.4093 34.2783 26.8843 34.2783ZM38.228 34.2783C37.703 34.2783 37.2567 34.4618 36.8892 34.8291C36.5216 35.1965 36.3375 35.6431 36.3374 36.168C36.3374 36.693 36.5215 37.1393 36.8892 37.5068C37.2568 37.8743 37.7029 38.0586 38.228 38.0586C38.7532 38.0586 39.1993 37.8744 39.5669 37.5068C39.9345 37.1393 40.1187 36.693 40.1187 36.168C40.1186 35.6431 39.9344 35.1965 39.5669 34.8291C39.1993 34.4618 38.753 34.2783 38.228 34.2783ZM32.5562 28.6074C32.031 28.6074 31.5849 28.7917 31.2173 29.1592C30.8497 29.5267 30.6655 29.973 30.6655 30.498C30.6656 31.023 30.8497 31.4694 31.2173 31.8369C31.5849 32.2043 32.0311 32.3877 32.5562 32.3877C33.0812 32.3877 33.5274 32.2043 33.895 31.8369C34.2626 31.4694 34.4467 31.023 34.4468 30.498C34.4468 29.973 34.2626 29.5267 33.895 29.1592C33.5274 28.7917 33.0813 28.6074 32.5562 28.6074ZM26.7847 22.9414C26.3027 22.9634 25.8895 23.1445 25.5454 23.4883C25.1779 23.8557 24.9937 24.3023 24.9937 24.8271C24.9937 25.3522 25.1778 25.7985 25.5454 26.166C25.8823 26.5028 26.2852 26.6828 26.7544 26.7109C26.678 27.2403 26.4434 27.7046 26.0444 28.1035C25.6124 28.5354 25.1039 28.7781 24.519 28.832L24.2642 28.8438H21.2124V24.2949C21.435 24.2029 21.6383 24.0653 21.8218 23.8818C22.1434 23.5602 22.3246 23.1785 22.3647 22.7363L22.3745 22.5439C22.3744 22.0191 22.1893 21.5725 21.8218 21.2051C21.6758 21.0592 21.5169 20.9434 21.3462 20.8555C21.4665 20.503 21.667 20.1831 21.9526 19.8975C22.4462 19.404 23.0399 19.1573 23.7329 19.1572H26.7847V22.9414ZM38.228 22.9375C37.703 22.9375 37.2567 23.121 36.8892 23.4883C36.5216 23.8557 36.3375 24.3023 36.3374 24.8271C36.3374 25.3522 36.5215 25.7985 36.8892 26.166C37.2568 26.5335 37.7029 26.7178 38.228 26.7178C38.7532 26.7178 39.1993 26.5335 39.5669 26.166C39.9345 25.7985 40.1187 25.3522 40.1187 24.8271C40.1186 24.3023 39.9344 23.8557 39.5669 23.4883C39.1994 23.121 38.753 22.9375 38.228 22.9375ZM21.231 21.7959C21.3012 21.8661 21.391 21.9855 21.4585 22.1494C21.4922 22.2312 21.5142 22.3078 21.5269 22.375L21.5444 22.5439L21.5269 22.7139C21.5142 22.7809 21.492 22.857 21.4585 22.9385C21.391 23.1022 21.3012 23.2207 21.231 23.291C21.2255 23.2964 21.2184 23.301 21.2124 23.3066V21.7793C21.2187 21.7852 21.2253 21.7903 21.231 21.7959Z" fill="#264653"/>
</svg>
