<svg xmlns="http://www.w3.org/2000/svg" width="110" height="107" viewBox="0 0 110 107" fill="none">
  <path d="M0.16779 0.544058C0.16779 0.544058 75.0582 -0.680724 88.6531 0.545035C102.219 1.76828 109.512 11.9188 109.543 11.962L108.22 106.208L108.206 106.207L108.22 106.221H11.0858C11.0448 106.173 11.0053 106.123 10.9647 106.074H10.9578C10.9536 106.069 10.9115 106.013 10.8309 105.91C10.1716 105.096 9.54923 104.179 8.96467 103.166C6.10568 98.4548 1.1818 88.0849 1.17853 72.5353C1.17834 71.6339 1.17416 70.6848 1.17072 69.6935C-0.491459 50.8801 -0.0401779 29.6254 0.450017 15.6056C0.290084 6.71486 0.168632 0.585992 0.16779 0.544058Z" fill="currentColor"/>
</svg>
