<svg xmlns="http://www.w3.org/2000/svg" width="135" height="90" viewBox="0 0 135 90" fill="none">
  <path d="M126.624 81.7008C103.163 91.0758 26.597 89.5462 26.3193 89.5406C26.3155 89.4614 26.3134 89.3815 26.3096 89.3024C24.4551 85.3386 -0.00440979 32.745 0 15.942C0.00460815 -1.49378 6.82188 0.0305939 6.84473 0.0357513L35.1299 0.0787201L35.3037 0.211533C35.3105 0.191391 35.313 0.179817 35.3135 0.178329L45.6807 8.13731L134.043 75.6315C134.043 75.6315 133.723 76.9885 131.832 78.6559C130.692 79.7638 128.953 80.7608 126.729 81.6588C126.694 81.6728 126.659 81.6868 126.624 81.7008Z" fill="currentColor"/>
</svg>
