<svg xmlns="http://www.w3.org/2000/svg" width="147" height="146" viewBox="0 0 147 146" fill="none">
  <path d="M56.415 144.382C56.1797 144.594 56.0526 144.708 56.0459 144.714C56.0582 144.47 56.07 144.226 56.082 143.983L0 76.8018L69.1797 1.53613C69.3117 1.03424 69.4429 0.529297 69.5781 0.0234375L70.0869 0.548828L70.5908 0L124.091 56.2627L140.337 73.0234L142.99 76.1387L144.872 78.1172C144.872 78.1172 144.829 78.1451 144.744 78.1973L146.744 80.5449C142.952 82.3469 122.139 92.3992 105.63 103.613C103.677 105.014 101.991 106.277 100.694 107.337C90.5315 115.641 57.4375 145.607 57.4375 145.607L56.415 144.382Z" fill="currentColor"/>
</svg>
